solid SIC_LOX_dropA_2
 facet normal 0.065403 0.997859 0.000000
  outer loop
   vertex 0.000000 60.000000 -338.000000
   vertex 7.831572 59.486692 -338.000000
   vertex 7.831572 59.486692 -1319.000000
  endloop
 endfacet
 facet normal 0.065403 0.997859 0.000000
  outer loop
   vertex 0.000000 60.000000 -338.000000
   vertex 7.831572 59.486692 -1319.000000
   vertex 0.000000 60.000000 -1319.000000
  endloop
 endfacet
 facet normal 0.195090 0.980785 0.000000
  outer loop
   vertex 7.831572 59.486692 -338.000000
   vertex 15.529143 57.955550 -338.000000
   vertex 15.529143 57.955550 -1319.000000
  endloop
 endfacet
 facet normal 0.195090 0.980785 0.000000
  outer loop
   vertex 7.831572 59.486692 -338.000000
   vertex 15.529143 57.955550 -1319.000000
   vertex 7.831572 59.486692 -1319.000000
  endloop
 endfacet
 facet normal 0.321439 0.946930 0.000000
  outer loop
   vertex 15.529143 57.955550 -338.000000
   vertex 22.961006 55.432772 -338.000000
   vertex 22.961006 55.432772 -1319.000000
  endloop
 endfacet
 facet normal 0.321439 0.946930 0.000000
  outer loop
   vertex 15.529143 57.955550 -338.000000
   vertex 22.961006 55.432772 -1319.000000
   vertex 15.529143 57.955550 -1319.000000
  endloop
 endfacet
 facet normal 0.442289 0.896873 0.000000
  outer loop
   vertex 22.961006 55.432772 -338.000000
   vertex 30.000000 51.961524 -338.000000
   vertex 30.000000 51.961524 -1319.000000
  endloop
 endfacet
 facet normal 0.442289 0.896873 0.000000
  outer loop
   vertex 22.961006 55.432772 -338.000000
   vertex 30.000000 51.961524 -1319.000000
   vertex 22.961006 55.432772 -1319.000000
  endloop
 endfacet
 facet normal 0.555570 0.831470 0.000000
  outer loop
   vertex 30.000000 51.961524 -338.000000
   vertex 36.525686 47.601200 -338.000000
   vertex 36.525686 47.601200 -1319.000000
  endloop
 endfacet
 facet normal 0.555570 0.831470 0.000000
  outer loop
   vertex 30.000000 51.961524 -338.000000
   vertex 36.525686 47.601200 -1319.000000
   vertex 30.000000 51.961524 -1319.000000
  endloop
 endfacet
 facet normal 0.659346 0.751840 0.000000
  outer loop
   vertex 36.525686 47.601200 -338.000000
   vertex 42.426407 42.426407 -338.000000
   vertex 42.426407 42.426407 -1319.000000
  endloop
 endfacet
 facet normal 0.659346 0.751840 0.000000
  outer loop
   vertex 36.525686 47.601200 -338.000000
   vertex 42.426407 42.426407 -1319.000000
   vertex 36.525686 47.601200 -1319.000000
  endloop
 endfacet
 facet normal 0.751840 0.659346 0.000000
  outer loop
   vertex 42.426407 42.426407 -338.000000
   vertex 47.601200 36.525686 -338.000000
   vertex 47.601200 36.525686 -1319.000000
  endloop
 endfacet
 facet normal 0.751840 0.659346 0.000000
  outer loop
   vertex 42.426407 42.426407 -338.000000
   vertex 47.601200 36.525686 -1319.000000
   vertex 42.426407 42.426407 -1319.000000
  endloop
 endfacet
 facet normal 0.831470 0.555570 0.000000
  outer loop
   vertex 47.601200 36.525686 -338.000000
   vertex 51.961524 30.000000 -338.000000
   vertex 51.961524 30.000000 -1319.000000
  endloop
 endfacet
 facet normal 0.831470 0.555570 0.000000
  outer loop
   vertex 47.601200 36.525686 -338.000000
   vertex 51.961524 30.000000 -1319.000000
   vertex 47.601200 36.525686 -1319.000000
  endloop
 endfacet
 facet normal 0.896873 0.442289 0.000000
  outer loop
   vertex 51.961524 30.000000 -338.000000
   vertex 55.432772 22.961006 -338.000000
   vertex 55.432772 22.961006 -1319.000000
  endloop
 endfacet
 facet normal 0.896873 0.442289 0.000000
  outer loop
   vertex 51.961524 30.000000 -338.000000
   vertex 55.432772 22.961006 -1319.000000
   vertex 51.961524 30.000000 -1319.000000
  endloop
 endfacet
 facet normal 0.946930 0.321439 0.000000
  outer loop
   vertex 55.432772 22.961006 -338.000000
   vertex 57.955550 15.529143 -338.000000
   vertex 57.955550 15.529143 -1319.000000
  endloop
 endfacet
 facet normal 0.946930 0.321439 0.000000
  outer loop
   vertex 55.432772 22.961006 -338.000000
   vertex 57.955550 15.529143 -1319.000000
   vertex 55.432772 22.961006 -1319.000000
  endloop
 endfacet
 facet normal 0.980785 0.195090 0.000000
  outer loop
   vertex 57.955550 15.529143 -338.000000
   vertex 59.486692 7.831572 -338.000000
   vertex 59.486692 7.831572 -1319.000000
  endloop
 endfacet
 facet normal 0.980785 0.195090 0.000000
  outer loop
   vertex 57.955550 15.529143 -338.000000
   vertex 59.486692 7.831572 -1319.000000
   vertex 57.955550 15.529143 -1319.000000
  endloop
 endfacet
 facet normal 0.997859 0.065403 0.000000
  outer loop
   vertex 59.486692 7.831572 -338.000000
   vertex 60.000000 0.000000 -338.000000
   vertex 60.000000 0.000000 -1319.000000
  endloop
 endfacet
 facet normal 0.997859 0.065403 0.000000
  outer loop
   vertex 59.486692 7.831572 -338.000000
   vertex 60.000000 0.000000 -1319.000000
   vertex 59.486692 7.831572 -1319.000000
  endloop
 endfacet
 facet normal 0.997859 -0.065403 0.000000
  outer loop
   vertex 60.000000 0.000000 -338.000000
   vertex 59.486692 -7.831572 -338.000000
   vertex 59.486692 -7.831572 -1319.000000
  endloop
 endfacet
 facet normal 0.997859 -0.065403 0.000000
  outer loop
   vertex 60.000000 0.000000 -338.000000
   vertex 59.486692 -7.831572 -1319.000000
   vertex 60.000000 0.000000 -1319.000000
  endloop
 endfacet
 facet normal 0.980785 -0.195090 0.000000
  outer loop
   vertex 59.486692 -7.831572 -338.000000
   vertex 57.955550 -15.529143 -338.000000
   vertex 57.955550 -15.529143 -1319.000000
  endloop
 endfacet
 facet normal 0.980785 -0.195090 0.000000
  outer loop
   vertex 59.486692 -7.831572 -338.000000
   vertex 57.955550 -15.529143 -1319.000000
   vertex 59.486692 -7.831572 -1319.000000
  endloop
 endfacet
 facet normal 0.946930 -0.321439 0.000000
  outer loop
   vertex 57.955550 -15.529143 -338.000000
   vertex 55.432772 -22.961006 -338.000000
   vertex 55.432772 -22.961006 -1319.000000
  endloop
 endfacet
 facet normal 0.946930 -0.321439 0.000000
  outer loop
   vertex 57.955550 -15.529143 -338.000000
   vertex 55.432772 -22.961006 -1319.000000
   vertex 57.955550 -15.529143 -1319.000000
  endloop
 endfacet
 facet normal 0.896873 -0.442289 0.000000
  outer loop
   vertex 55.432772 -22.961006 -338.000000
   vertex 51.961524 -30.000000 -338.000000
   vertex 51.961524 -30.000000 -1319.000000
  endloop
 endfacet
 facet normal 0.896873 -0.442289 0.000000
  outer loop
   vertex 55.432772 -22.961006 -338.000000
   vertex 51.961524 -30.000000 -1319.000000
   vertex 55.432772 -22.961006 -1319.000000
  endloop
 endfacet
 facet normal 0.831470 -0.555570 0.000000
  outer loop
   vertex 51.961524 -30.000000 -338.000000
   vertex 47.601200 -36.525686 -338.000000
   vertex 47.601200 -36.525686 -1319.000000
  endloop
 endfacet
 facet normal 0.831470 -0.555570 0.000000
  outer loop
   vertex 51.961524 -30.000000 -338.000000
   vertex 47.601200 -36.525686 -1319.000000
   vertex 51.961524 -30.000000 -1319.000000
  endloop
 endfacet
 facet normal 0.751840 -0.659346 0.000000
  outer loop
   vertex 47.601200 -36.525686 -338.000000
   vertex 42.426407 -42.426407 -338.000000
   vertex 42.426407 -42.426407 -1319.000000
  endloop
 endfacet
 facet normal 0.751840 -0.659346 0.000000
  outer loop
   vertex 47.601200 -36.525686 -338.000000
   vertex 42.426407 -42.426407 -1319.000000
   vertex 47.601200 -36.525686 -1319.000000
  endloop
 endfacet
 facet normal 0.659346 -0.751840 0.000000
  outer loop
   vertex 42.426407 -42.426407 -338.000000
   vertex 36.525686 -47.601200 -338.000000
   vertex 36.525686 -47.601200 -1319.000000
  endloop
 endfacet
 facet normal 0.659346 -0.751840 0.000000
  outer loop
   vertex 42.426407 -42.426407 -338.000000
   vertex 36.525686 -47.601200 -1319.000000
   vertex 42.426407 -42.426407 -1319.000000
  endloop
 endfacet
 facet normal 0.555570 -0.831470 0.000000
  outer loop
   vertex 36.525686 -47.601200 -338.000000
   vertex 30.000000 -51.961524 -338.000000
   vertex 30.000000 -51.961524 -1319.000000
  endloop
 endfacet
 facet normal 0.555570 -0.831470 0.000000
  outer loop
   vertex 36.525686 -47.601200 -338.000000
   vertex 30.000000 -51.961524 -1319.000000
   vertex 36.525686 -47.601200 -1319.000000
  endloop
 endfacet
 facet normal 0.442289 -0.896873 0.000000
  outer loop
   vertex 30.000000 -51.961524 -338.000000
   vertex 22.961006 -55.432772 -338.000000
   vertex 22.961006 -55.432772 -1319.000000
  endloop
 endfacet
 facet normal 0.442289 -0.896873 0.000000
  outer loop
   vertex 30.000000 -51.961524 -338.000000
   vertex 22.961006 -55.432772 -1319.000000
   vertex 30.000000 -51.961524 -1319.000000
  endloop
 endfacet
 facet normal 0.321439 -0.946930 0.000000
  outer loop
   vertex 22.961006 -55.432772 -338.000000
   vertex 15.529143 -57.955550 -338.000000
   vertex 15.529143 -57.955550 -1319.000000
  endloop
 endfacet
 facet normal 0.321439 -0.946930 0.000000
  outer loop
   vertex 22.961006 -55.432772 -338.000000
   vertex 15.529143 -57.955550 -1319.000000
   vertex 22.961006 -55.432772 -1319.000000
  endloop
 endfacet
 facet normal 0.195090 -0.980785 0.000000
  outer loop
   vertex 15.529143 -57.955550 -338.000000
   vertex 7.831572 -59.486692 -338.000000
   vertex 7.831572 -59.486692 -1319.000000
  endloop
 endfacet
 facet normal 0.195090 -0.980785 0.000000
  outer loop
   vertex 15.529143 -57.955550 -338.000000
   vertex 7.831572 -59.486692 -1319.000000
   vertex 15.529143 -57.955550 -1319.000000
  endloop
 endfacet
 facet normal 0.065403 -0.997859 0.000000
  outer loop
   vertex 7.831572 -59.486692 -338.000000
   vertex 0.000000 -60.000000 -338.000000
   vertex 0.000000 -60.000000 -1319.000000
  endloop
 endfacet
 facet normal 0.065403 -0.997859 0.000000
  outer loop
   vertex 7.831572 -59.486692 -338.000000
   vertex 0.000000 -60.000000 -1319.000000
   vertex 7.831572 -59.486692 -1319.000000
  endloop
 endfacet
 facet normal -0.065403 -0.997859 0.000000
  outer loop
   vertex 0.000000 -60.000000 -338.000000
   vertex -7.831572 -59.486692 -338.000000
   vertex -7.831572 -59.486692 -1319.000000
  endloop
 endfacet
 facet normal -0.065403 -0.997859 -0.000000
  outer loop
   vertex 0.000000 -60.000000 -338.000000
   vertex -7.831572 -59.486692 -1319.000000
   vertex 0.000000 -60.000000 -1319.000000
  endloop
 endfacet
 facet normal -0.195090 -0.980785 0.000000
  outer loop
   vertex -7.831572 -59.486692 -338.000000
   vertex -15.529143 -57.955550 -338.000000
   vertex -15.529143 -57.955550 -1319.000000
  endloop
 endfacet
 facet normal -0.195090 -0.980785 -0.000000
  outer loop
   vertex -7.831572 -59.486692 -338.000000
   vertex -15.529143 -57.955550 -1319.000000
   vertex -7.831572 -59.486692 -1319.000000
  endloop
 endfacet
 facet normal -0.321439 -0.946930 0.000000
  outer loop
   vertex -15.529143 -57.955550 -338.000000
   vertex -22.961006 -55.432772 -338.000000
   vertex -22.961006 -55.432772 -1319.000000
  endloop
 endfacet
 facet normal -0.321439 -0.946930 -0.000000
  outer loop
   vertex -15.529143 -57.955550 -338.000000
   vertex -22.961006 -55.432772 -1319.000000
   vertex -15.529143 -57.955550 -1319.000000
  endloop
 endfacet
 facet normal -0.442289 -0.896873 0.000000
  outer loop
   vertex -22.961006 -55.432772 -338.000000
   vertex -30.000000 -51.961524 -338.000000
   vertex -30.000000 -51.961524 -1319.000000
  endloop
 endfacet
 facet normal -0.442289 -0.896873 -0.000000
  outer loop
   vertex -22.961006 -55.432772 -338.000000
   vertex -30.000000 -51.961524 -1319.000000
   vertex -22.961006 -55.432772 -1319.000000
  endloop
 endfacet
 facet normal -0.555570 -0.831470 0.000000
  outer loop
   vertex -30.000000 -51.961524 -338.000000
   vertex -36.525686 -47.601200 -338.000000
   vertex -36.525686 -47.601200 -1319.000000
  endloop
 endfacet
 facet normal -0.555570 -0.831470 -0.000000
  outer loop
   vertex -30.000000 -51.961524 -338.000000
   vertex -36.525686 -47.601200 -1319.000000
   vertex -30.000000 -51.961524 -1319.000000
  endloop
 endfacet
 facet normal -0.659346 -0.751840 0.000000
  outer loop
   vertex -36.525686 -47.601200 -338.000000
   vertex -42.426407 -42.426407 -338.000000
   vertex -42.426407 -42.426407 -1319.000000
  endloop
 endfacet
 facet normal -0.659346 -0.751840 -0.000000
  outer loop
   vertex -36.525686 -47.601200 -338.000000
   vertex -42.426407 -42.426407 -1319.000000
   vertex -36.525686 -47.601200 -1319.000000
  endloop
 endfacet
 facet normal -0.751840 -0.659346 0.000000
  outer loop
   vertex -42.426407 -42.426407 -338.000000
   vertex -47.601200 -36.525686 -338.000000
   vertex -47.601200 -36.525686 -1319.000000
  endloop
 endfacet
 facet normal -0.751840 -0.659346 -0.000000
  outer loop
   vertex -42.426407 -42.426407 -338.000000
   vertex -47.601200 -36.525686 -1319.000000
   vertex -42.426407 -42.426407 -1319.000000
  endloop
 endfacet
 facet normal -0.831470 -0.555570 0.000000
  outer loop
   vertex -47.601200 -36.525686 -338.000000
   vertex -51.961524 -30.000000 -338.000000
   vertex -51.961524 -30.000000 -1319.000000
  endloop
 endfacet
 facet normal -0.831470 -0.555570 -0.000000
  outer loop
   vertex -47.601200 -36.525686 -338.000000
   vertex -51.961524 -30.000000 -1319.000000
   vertex -47.601200 -36.525686 -1319.000000
  endloop
 endfacet
 facet normal -0.896873 -0.442289 0.000000
  outer loop
   vertex -51.961524 -30.000000 -338.000000
   vertex -55.432772 -22.961006 -338.000000
   vertex -55.432772 -22.961006 -1319.000000
  endloop
 endfacet
 facet normal -0.896873 -0.442289 -0.000000
  outer loop
   vertex -51.961524 -30.000000 -338.000000
   vertex -55.432772 -22.961006 -1319.000000
   vertex -51.961524 -30.000000 -1319.000000
  endloop
 endfacet
 facet normal -0.946930 -0.321439 0.000000
  outer loop
   vertex -55.432772 -22.961006 -338.000000
   vertex -57.955550 -15.529143 -338.000000
   vertex -57.955550 -15.529143 -1319.000000
  endloop
 endfacet
 facet normal -0.946930 -0.321439 -0.000000
  outer loop
   vertex -55.432772 -22.961006 -338.000000
   vertex -57.955550 -15.529143 -1319.000000
   vertex -55.432772 -22.961006 -1319.000000
  endloop
 endfacet
 facet normal -0.980785 -0.195090 0.000000
  outer loop
   vertex -57.955550 -15.529143 -338.000000
   vertex -59.486692 -7.831572 -338.000000
   vertex -59.486692 -7.831572 -1319.000000
  endloop
 endfacet
 facet normal -0.980785 -0.195090 -0.000000
  outer loop
   vertex -57.955550 -15.529143 -338.000000
   vertex -59.486692 -7.831572 -1319.000000
   vertex -57.955550 -15.529143 -1319.000000
  endloop
 endfacet
 facet normal -0.997859 -0.065403 0.000000
  outer loop
   vertex -59.486692 -7.831572 -338.000000
   vertex -60.000000 -0.000000 -338.000000
   vertex -60.000000 -0.000000 -1319.000000
  endloop
 endfacet
 facet normal -0.997859 -0.065403 -0.000000
  outer loop
   vertex -59.486692 -7.831572 -338.000000
   vertex -60.000000 -0.000000 -1319.000000
   vertex -59.486692 -7.831572 -1319.000000
  endloop
 endfacet
 facet normal -0.997859 0.065403 0.000000
  outer loop
   vertex -60.000000 -0.000000 -338.000000
   vertex -59.486692 7.831572 -338.000000
   vertex -59.486692 7.831572 -1319.000000
  endloop
 endfacet
 facet normal -0.997859 0.065403 0.000000
  outer loop
   vertex -60.000000 -0.000000 -338.000000
   vertex -59.486692 7.831572 -1319.000000
   vertex -60.000000 -0.000000 -1319.000000
  endloop
 endfacet
 facet normal -0.980785 0.195090 0.000000
  outer loop
   vertex -59.486692 7.831572 -338.000000
   vertex -57.955550 15.529143 -338.000000
   vertex -57.955550 15.529143 -1319.000000
  endloop
 endfacet
 facet normal -0.980785 0.195090 0.000000
  outer loop
   vertex -59.486692 7.831572 -338.000000
   vertex -57.955550 15.529143 -1319.000000
   vertex -59.486692 7.831572 -1319.000000
  endloop
 endfacet
 facet normal -0.946930 0.321439 0.000000
  outer loop
   vertex -57.955550 15.529143 -338.000000
   vertex -55.432772 22.961006 -338.000000
   vertex -55.432772 22.961006 -1319.000000
  endloop
 endfacet
 facet normal -0.946930 0.321439 0.000000
  outer loop
   vertex -57.955550 15.529143 -338.000000
   vertex -55.432772 22.961006 -1319.000000
   vertex -57.955550 15.529143 -1319.000000
  endloop
 endfacet
 facet normal -0.896873 0.442289 0.000000
  outer loop
   vertex -55.432772 22.961006 -338.000000
   vertex -51.961524 30.000000 -338.000000
   vertex -51.961524 30.000000 -1319.000000
  endloop
 endfacet
 facet normal -0.896873 0.442289 0.000000
  outer loop
   vertex -55.432772 22.961006 -338.000000
   vertex -51.961524 30.000000 -1319.000000
   vertex -55.432772 22.961006 -1319.000000
  endloop
 endfacet
 facet normal -0.831470 0.555570 0.000000
  outer loop
   vertex -51.961524 30.000000 -338.000000
   vertex -47.601200 36.525686 -338.000000
   vertex -47.601200 36.525686 -1319.000000
  endloop
 endfacet
 facet normal -0.831470 0.555570 0.000000
  outer loop
   vertex -51.961524 30.000000 -338.000000
   vertex -47.601200 36.525686 -1319.000000
   vertex -51.961524 30.000000 -1319.000000
  endloop
 endfacet
 facet normal -0.751840 0.659346 0.000000
  outer loop
   vertex -47.601200 36.525686 -338.000000
   vertex -42.426407 42.426407 -338.000000
   vertex -42.426407 42.426407 -1319.000000
  endloop
 endfacet
 facet normal -0.751840 0.659346 0.000000
  outer loop
   vertex -47.601200 36.525686 -338.000000
   vertex -42.426407 42.426407 -1319.000000
   vertex -47.601200 36.525686 -1319.000000
  endloop
 endfacet
 facet normal -0.659346 0.751840 0.000000
  outer loop
   vertex -42.426407 42.426407 -338.000000
   vertex -36.525686 47.601200 -338.000000
   vertex -36.525686 47.601200 -1319.000000
  endloop
 endfacet
 facet normal -0.659346 0.751840 0.000000
  outer loop
   vertex -42.426407 42.426407 -338.000000
   vertex -36.525686 47.601200 -1319.000000
   vertex -42.426407 42.426407 -1319.000000
  endloop
 endfacet
 facet normal -0.555570 0.831470 0.000000
  outer loop
   vertex -36.525686 47.601200 -338.000000
   vertex -30.000000 51.961524 -338.000000
   vertex -30.000000 51.961524 -1319.000000
  endloop
 endfacet
 facet normal -0.555570 0.831470 0.000000
  outer loop
   vertex -36.525686 47.601200 -338.000000
   vertex -30.000000 51.961524 -1319.000000
   vertex -36.525686 47.601200 -1319.000000
  endloop
 endfacet
 facet normal -0.442289 0.896873 0.000000
  outer loop
   vertex -30.000000 51.961524 -338.000000
   vertex -22.961006 55.432772 -338.000000
   vertex -22.961006 55.432772 -1319.000000
  endloop
 endfacet
 facet normal -0.442289 0.896873 0.000000
  outer loop
   vertex -30.000000 51.961524 -338.000000
   vertex -22.961006 55.432772 -1319.000000
   vertex -30.000000 51.961524 -1319.000000
  endloop
 endfacet
 facet normal -0.321439 0.946930 0.000000
  outer loop
   vertex -22.961006 55.432772 -338.000000
   vertex -15.529143 57.955550 -338.000000
   vertex -15.529143 57.955550 -1319.000000
  endloop
 endfacet
 facet normal -0.321439 0.946930 0.000000
  outer loop
   vertex -22.961006 55.432772 -338.000000
   vertex -15.529143 57.955550 -1319.000000
   vertex -22.961006 55.432772 -1319.000000
  endloop
 endfacet
 facet normal -0.195090 0.980785 0.000000
  outer loop
   vertex -15.529143 57.955550 -338.000000
   vertex -7.831572 59.486692 -338.000000
   vertex -7.831572 59.486692 -1319.000000
  endloop
 endfacet
 facet normal -0.195090 0.980785 0.000000
  outer loop
   vertex -15.529143 57.955550 -338.000000
   vertex -7.831572 59.486692 -1319.000000
   vertex -15.529143 57.955550 -1319.000000
  endloop
 endfacet
 facet normal -0.065403 0.997859 0.000000
  outer loop
   vertex -7.831572 59.486692 -338.000000
   vertex 0.000000 60.000000 -338.000000
   vertex 0.000000 60.000000 -1319.000000
  endloop
 endfacet
 facet normal -0.065403 0.997859 0.000000
  outer loop
   vertex -7.831572 59.486692 -338.000000
   vertex 0.000000 60.000000 -1319.000000
   vertex -7.831572 59.486692 -1319.000000
  endloop
 endfacet
endsolid SIC_LOX_dropA_2
