solid SIC_RP1_dropA_1
 facet normal 0.065041 0.997859 0.006875
  outer loop
   vertex 2300.000000 60.000000 -408.000000
   vertex 2307.788179 59.486692 -407.176725
   vertex 2407.788179 59.486692 -1353.176725
  endloop
 endfacet
 facet normal 0.065041 0.997859 0.006875
  outer loop
   vertex 2300.000000 60.000000 -408.000000
   vertex 2407.788179 59.486692 -1353.176725
   vertex 2400.000000 60.000000 -1354.000000
  endloop
 endfacet
 facet normal 0.194009 0.980785 0.020508
  outer loop
   vertex 2307.788179 59.486692 -407.176725
   vertex 2315.443100 57.955550 -406.367537
   vertex 2415.443100 57.955550 -1352.367537
  endloop
 endfacet
 facet normal 0.194009 0.980785 0.020508
  outer loop
   vertex 2307.788179 59.486692 -407.176725
   vertex 2415.443100 57.955550 -1352.367537
   vertex 2407.788179 59.486692 -1353.176725
  endloop
 endfacet
 facet normal 0.319658 0.946930 0.033791
  outer loop
   vertex 2315.443100 57.955550 -406.367537
   vertex 2322.833785 55.432772 -405.586281
   vertex 2422.833785 55.432772 -1351.586281
  endloop
 endfacet
 facet normal 0.319658 0.946930 0.033791
  outer loop
   vertex 2315.443100 57.955550 -406.367537
   vertex 2422.833785 55.432772 -1351.586281
   vertex 2415.443100 57.955550 -1352.367537
  endloop
 endfacet
 facet normal 0.439838 0.896873 0.046495
  outer loop
   vertex 2322.833785 55.432772 -405.586281
   vertex 2329.833778 51.961524 -404.846324
   vertex 2429.833778 51.961524 -1350.846324
  endloop
 endfacet
 facet normal 0.439838 0.896873 0.046495
  outer loop
   vertex 2322.833785 55.432772 -405.586281
   vertex 2429.833778 51.961524 -1350.846324
   vertex 2422.833785 55.432772 -1351.586281
  endloop
 endfacet
 facet normal 0.552492 0.831470 0.058403
  outer loop
   vertex 2329.833778 51.961524 -404.846324
   vertex 2336.323307 47.601200 -404.160327
   vertex 2436.323307 47.601200 -1350.160327
  endloop
 endfacet
 facet normal 0.552492 0.831470 0.058403
  outer loop
   vertex 2329.833778 51.961524 -404.846324
   vertex 2436.323307 47.601200 -1350.160327
   vertex 2429.833778 51.961524 -1350.846324
  endloop
 endfacet
 facet normal 0.655693 0.751840 0.069312
  outer loop
   vertex 2336.323307 47.601200 -404.160327
   vertex 2342.191334 42.426407 -403.540028
   vertex 2442.191334 42.426407 -1349.540028
  endloop
 endfacet
 facet normal 0.655693 0.751840 0.069312
  outer loop
   vertex 2336.323307 47.601200 -404.160327
   vertex 2442.191334 42.426407 -1349.540028
   vertex 2436.323307 47.601200 -1350.160327
  endloop
 endfacet
 facet normal 0.747674 0.659346 0.079035
  outer loop
   vertex 2342.191334 42.426407 -403.540028
   vertex 2347.337455 36.525686 -402.996041
   vertex 2447.337455 36.525686 -1348.996041
  endloop
 endfacet
 facet normal 0.747674 0.659346 0.079035
  outer loop
   vertex 2342.191334 42.426407 -403.540028
   vertex 2447.337455 36.525686 -1348.996041
   vertex 2442.191334 42.426407 -1349.540028
  endloop
 endfacet
 facet normal 0.826863 0.555570 0.087406
  outer loop
   vertex 2347.337455 36.525686 -402.996041
   vertex 2351.673620 30.000000 -402.537672
   vertex 2451.673620 30.000000 -1348.537672
  endloop
 endfacet
 facet normal 0.826863 0.555570 0.087406
  outer loop
   vertex 2347.337455 36.525686 -402.996041
   vertex 2451.673620 30.000000 -1348.537672
   vertex 2447.337455 36.525686 -1348.996041
  endloop
 endfacet
 facet normal 0.891903 0.442289 0.094282
  outer loop
   vertex 2351.673620 30.000000 -402.537672
   vertex 2355.125634 22.961006 -402.172766
   vertex 2455.125634 22.961006 -1348.172766
  endloop
 endfacet
 facet normal 0.891903 0.442289 0.094282
  outer loop
   vertex 2351.673620 30.000000 -402.537672
   vertex 2455.125634 22.961006 -1348.172766
   vertex 2451.673620 30.000000 -1348.537672
  endloop
 endfacet
 facet normal 0.941683 0.321439 0.099544
  outer loop
   vertex 2355.125634 22.961006 -402.172766
   vertex 2357.634434 15.529143 -401.907565
   vertex 2457.634434 15.529143 -1347.907565
  endloop
 endfacet
 facet normal 0.941683 0.321439 0.099544
  outer loop
   vertex 2355.125634 22.961006 -402.172766
   vertex 2457.634434 15.529143 -1347.907565
   vertex 2455.125634 22.961006 -1348.172766
  endloop
 endfacet
 facet normal 0.975351 0.195090 0.103103
  outer loop
   vertex 2357.634434 15.529143 -401.907565
   vertex 2359.157092 7.831572 -401.746608
   vertex 2459.157092 7.831572 -1347.746608
  endloop
 endfacet
 facet normal 0.975351 0.195090 0.103103
  outer loop
   vertex 2357.634434 15.529143 -401.907565
   vertex 2459.157092 7.831572 -1347.746608
   vertex 2457.634434 15.529143 -1347.907565
  endloop
 endfacet
 facet normal 0.992330 0.065403 0.104897
  outer loop
   vertex 2359.157092 7.831572 -401.746608
   vertex 2359.667557 0.000000 -401.692647
   vertex 2459.667557 0.000000 -1347.692647
  endloop
 endfacet
 facet normal 0.992330 0.065403 0.104897
  outer loop
   vertex 2359.157092 7.831572 -401.746608
   vertex 2459.667557 0.000000 -1347.692647
   vertex 2459.157092 7.831572 -1347.746608
  endloop
 endfacet
 facet normal 0.992330 -0.065403 0.104897
  outer loop
   vertex 2359.667557 0.000000 -401.692647
   vertex 2359.157092 -7.831572 -401.746608
   vertex 2459.157092 -7.831572 -1347.746608
  endloop
 endfacet
 facet normal 0.992330 -0.065403 0.104897
  outer loop
   vertex 2359.667557 0.000000 -401.692647
   vertex 2459.157092 -7.831572 -1347.746608
   vertex 2459.667557 0.000000 -1347.692647
  endloop
 endfacet
 facet normal 0.975351 -0.195090 0.103103
  outer loop
   vertex 2359.157092 -7.831572 -401.746608
   vertex 2357.634434 -15.529143 -401.907565
   vertex 2457.634434 -15.529143 -1347.907565
  endloop
 endfacet
 facet normal 0.975351 -0.195090 0.103103
  outer loop
   vertex 2359.157092 -7.831572 -401.746608
   vertex 2457.634434 -15.529143 -1347.907565
   vertex 2459.157092 -7.831572 -1347.746608
  endloop
 endfacet
 facet normal 0.941683 -0.321439 0.099544
  outer loop
   vertex 2357.634434 -15.529143 -401.907565
   vertex 2355.125634 -22.961006 -402.172766
   vertex 2455.125634 -22.961006 -1348.172766
  endloop
 endfacet
 facet normal 0.941683 -0.321439 0.099544
  outer loop
   vertex 2357.634434 -15.529143 -401.907565
   vertex 2455.125634 -22.961006 -1348.172766
   vertex 2457.634434 -15.529143 -1347.907565
  endloop
 endfacet
 facet normal 0.891903 -0.442289 0.094282
  outer loop
   vertex 2355.125634 -22.961006 -402.172766
   vertex 2351.673620 -30.000000 -402.537672
   vertex 2451.673620 -30.000000 -1348.537672
  endloop
 endfacet
 facet normal 0.891903 -0.442289 0.094282
  outer loop
   vertex 2355.125634 -22.961006 -402.172766
   vertex 2451.673620 -30.000000 -1348.537672
   vertex 2455.125634 -22.961006 -1348.172766
  endloop
 endfacet
 facet normal 0.826863 -0.555570 0.087406
  outer loop
   vertex 2351.673620 -30.000000 -402.537672
   vertex 2347.337455 -36.525686 -402.996041
   vertex 2447.337455 -36.525686 -1348.996041
  endloop
 endfacet
 facet normal 0.826863 -0.555570 0.087406
  outer loop
   vertex 2351.673620 -30.000000 -402.537672
   vertex 2447.337455 -36.525686 -1348.996041
   vertex 2451.673620 -30.000000 -1348.537672
  endloop
 endfacet
 facet normal 0.747674 -0.659346 0.079035
  outer loop
   vertex 2347.337455 -36.525686 -402.996041
   vertex 2342.191334 -42.426407 -403.540028
   vertex 2442.191334 -42.426407 -1349.540028
  endloop
 endfacet
 facet normal 0.747674 -0.659346 0.079035
  outer loop
   vertex 2347.337455 -36.525686 -402.996041
   vertex 2442.191334 -42.426407 -1349.540028
   vertex 2447.337455 -36.525686 -1348.996041
  endloop
 endfacet
 facet normal 0.655693 -0.751840 0.069312
  outer loop
   vertex 2342.191334 -42.426407 -403.540028
   vertex 2336.323307 -47.601200 -404.160327
   vertex 2436.323307 -47.601200 -1350.160327
  endloop
 endfacet
 facet normal 0.655693 -0.751840 0.069312
  outer loop
   vertex 2342.191334 -42.426407 -403.540028
   vertex 2436.323307 -47.601200 -1350.160327
   vertex 2442.191334 -42.426407 -1349.540028
  endloop
 endfacet
 facet normal 0.552492 -0.831470 0.058403
  outer loop
   vertex 2336.323307 -47.601200 -404.160327
   vertex 2329.833778 -51.961524 -404.846324
   vertex 2429.833778 -51.961524 -1350.846324
  endloop
 endfacet
 facet normal 0.552492 -0.831470 0.058403
  outer loop
   vertex 2336.323307 -47.601200 -404.160327
   vertex 2429.833778 -51.961524 -1350.846324
   vertex 2436.323307 -47.601200 -1350.160327
  endloop
 endfacet
 facet normal 0.439838 -0.896873 0.046495
  outer loop
   vertex 2329.833778 -51.961524 -404.846324
   vertex 2322.833785 -55.432772 -405.586281
   vertex 2422.833785 -55.432772 -1351.586281
  endloop
 endfacet
 facet normal 0.439838 -0.896873 0.046495
  outer loop
   vertex 2329.833778 -51.961524 -404.846324
   vertex 2422.833785 -55.432772 -1351.586281
   vertex 2429.833778 -51.961524 -1350.846324
  endloop
 endfacet
 facet normal 0.319658 -0.946930 0.033791
  outer loop
   vertex 2322.833785 -55.432772 -405.586281
   vertex 2315.443100 -57.955550 -406.367537
   vertex 2415.443100 -57.955550 -1352.367537
  endloop
 endfacet
 facet normal 0.319658 -0.946930 0.033791
  outer loop
   vertex 2322.833785 -55.432772 -405.586281
   vertex 2415.443100 -57.955550 -1352.367537
   vertex 2422.833785 -55.432772 -1351.586281
  endloop
 endfacet
 facet normal 0.194009 -0.980785 0.020508
  outer loop
   vertex 2315.443100 -57.955550 -406.367537
   vertex 2307.788179 -59.486692 -407.176725
   vertex 2407.788179 -59.486692 -1353.176725
  endloop
 endfacet
 facet normal 0.194009 -0.980785 0.020508
  outer loop
   vertex 2315.443100 -57.955550 -406.367537
   vertex 2407.788179 -59.486692 -1353.176725
   vertex 2415.443100 -57.955550 -1352.367537
  endloop
 endfacet
 facet normal 0.065041 -0.997859 0.006875
  outer loop
   vertex 2307.788179 -59.486692 -407.176725
   vertex 2300.000000 -60.000000 -408.000000
   vertex 2400.000000 -60.000000 -1354.000000
  endloop
 endfacet
 facet normal 0.065041 -0.997859 0.006875
  outer loop
   vertex 2307.788179 -59.486692 -407.176725
   vertex 2400.000000 -60.000000 -1354.000000
   vertex 2407.788179 -59.486692 -1353.176725
  endloop
 endfacet
 facet normal -0.065041 -0.997859 -0.006875
  outer loop
   vertex 2300.000000 -60.000000 -408.000000
   vertex 2292.211821 -59.486692 -408.823275
   vertex 2392.211821 -59.486692 -1354.823275
  endloop
 endfacet
 facet normal -0.065041 -0.997859 -0.006875
  outer loop
   vertex 2300.000000 -60.000000 -408.000000
   vertex 2392.211821 -59.486692 -1354.823275
   vertex 2400.000000 -60.000000 -1354.000000
  endloop
 endfacet
 facet normal -0.194009 -0.980785 -0.020508
  outer loop
   vertex 2292.211821 -59.486692 -408.823275
   vertex 2284.556900 -57.955550 -409.632463
   vertex 2384.556900 -57.955550 -1355.632463
  endloop
 endfacet
 facet normal -0.194009 -0.980785 -0.020508
  outer loop
   vertex 2292.211821 -59.486692 -408.823275
   vertex 2384.556900 -57.955550 -1355.632463
   vertex 2392.211821 -59.486692 -1354.823275
  endloop
 endfacet
 facet normal -0.319658 -0.946930 -0.033791
  outer loop
   vertex 2284.556900 -57.955550 -409.632463
   vertex 2277.166215 -55.432772 -410.413719
   vertex 2377.166215 -55.432772 -1356.413719
  endloop
 endfacet
 facet normal -0.319658 -0.946930 -0.033791
  outer loop
   vertex 2284.556900 -57.955550 -409.632463
   vertex 2377.166215 -55.432772 -1356.413719
   vertex 2384.556900 -57.955550 -1355.632463
  endloop
 endfacet
 facet normal -0.439838 -0.896873 -0.046495
  outer loop
   vertex 2277.166215 -55.432772 -410.413719
   vertex 2270.166222 -51.961524 -411.153676
   vertex 2370.166222 -51.961524 -1357.153676
  endloop
 endfacet
 facet normal -0.439838 -0.896873 -0.046495
  outer loop
   vertex 2277.166215 -55.432772 -410.413719
   vertex 2370.166222 -51.961524 -1357.153676
   vertex 2377.166215 -55.432772 -1356.413719
  endloop
 endfacet
 facet normal -0.552492 -0.831470 -0.058403
  outer loop
   vertex 2270.166222 -51.961524 -411.153676
   vertex 2263.676693 -47.601200 -411.839673
   vertex 2363.676693 -47.601200 -1357.839673
  endloop
 endfacet
 facet normal -0.552492 -0.831470 -0.058403
  outer loop
   vertex 2270.166222 -51.961524 -411.153676
   vertex 2363.676693 -47.601200 -1357.839673
   vertex 2370.166222 -51.961524 -1357.153676
  endloop
 endfacet
 facet normal -0.655693 -0.751840 -0.069312
  outer loop
   vertex 2263.676693 -47.601200 -411.839673
   vertex 2257.808666 -42.426407 -412.459972
   vertex 2357.808666 -42.426407 -1358.459972
  endloop
 endfacet
 facet normal -0.655693 -0.751840 -0.069312
  outer loop
   vertex 2263.676693 -47.601200 -411.839673
   vertex 2357.808666 -42.426407 -1358.459972
   vertex 2363.676693 -47.601200 -1357.839673
  endloop
 endfacet
 facet normal -0.747674 -0.659346 -0.079035
  outer loop
   vertex 2257.808666 -42.426407 -412.459972
   vertex 2252.662545 -36.525686 -413.003959
   vertex 2352.662545 -36.525686 -1359.003959
  endloop
 endfacet
 facet normal -0.747674 -0.659346 -0.079035
  outer loop
   vertex 2257.808666 -42.426407 -412.459972
   vertex 2352.662545 -36.525686 -1359.003959
   vertex 2357.808666 -42.426407 -1358.459972
  endloop
 endfacet
 facet normal -0.826863 -0.555570 -0.087406
  outer loop
   vertex 2252.662545 -36.525686 -413.003959
   vertex 2248.326380 -30.000000 -413.462328
   vertex 2348.326380 -30.000000 -1359.462328
  endloop
 endfacet
 facet normal -0.826863 -0.555570 -0.087406
  outer loop
   vertex 2252.662545 -36.525686 -413.003959
   vertex 2348.326380 -30.000000 -1359.462328
   vertex 2352.662545 -36.525686 -1359.003959
  endloop
 endfacet
 facet normal -0.891903 -0.442289 -0.094282
  outer loop
   vertex 2248.326380 -30.000000 -413.462328
   vertex 2244.874366 -22.961006 -413.827234
   vertex 2344.874366 -22.961006 -1359.827234
  endloop
 endfacet
 facet normal -0.891903 -0.442289 -0.094282
  outer loop
   vertex 2248.326380 -30.000000 -413.462328
   vertex 2344.874366 -22.961006 -1359.827234
   vertex 2348.326380 -30.000000 -1359.462328
  endloop
 endfacet
 facet normal -0.941683 -0.321439 -0.099544
  outer loop
   vertex 2244.874366 -22.961006 -413.827234
   vertex 2242.365566 -15.529143 -414.092435
   vertex 2342.365566 -15.529143 -1360.092435
  endloop
 endfacet
 facet normal -0.941683 -0.321439 -0.099544
  outer loop
   vertex 2244.874366 -22.961006 -413.827234
   vertex 2342.365566 -15.529143 -1360.092435
   vertex 2344.874366 -22.961006 -1359.827234
  endloop
 endfacet
 facet normal -0.975351 -0.195090 -0.103103
  outer loop
   vertex 2242.365566 -15.529143 -414.092435
   vertex 2240.842908 -7.831572 -414.253392
   vertex 2340.842908 -7.831572 -1360.253392
  endloop
 endfacet
 facet normal -0.975351 -0.195090 -0.103103
  outer loop
   vertex 2242.365566 -15.529143 -414.092435
   vertex 2340.842908 -7.831572 -1360.253392
   vertex 2342.365566 -15.529143 -1360.092435
  endloop
 endfacet
 facet normal -0.992330 -0.065403 -0.104897
  outer loop
   vertex 2240.842908 -7.831572 -414.253392
   vertex 2240.332443 -0.000000 -414.307353
   vertex 2340.332443 -0.000000 -1360.307353
  endloop
 endfacet
 facet normal -0.992330 -0.065403 -0.104897
  outer loop
   vertex 2240.842908 -7.831572 -414.253392
   vertex 2340.332443 -0.000000 -1360.307353
   vertex 2340.842908 -7.831572 -1360.253392
  endloop
 endfacet
 facet normal -0.992330 0.065403 -0.104897
  outer loop
   vertex 2240.332443 -0.000000 -414.307353
   vertex 2240.842908 7.831572 -414.253392
   vertex 2340.842908 7.831572 -1360.253392
  endloop
 endfacet
 facet normal -0.992330 0.065403 -0.104897
  outer loop
   vertex 2240.332443 -0.000000 -414.307353
   vertex 2340.842908 7.831572 -1360.253392
   vertex 2340.332443 -0.000000 -1360.307353
  endloop
 endfacet
 facet normal -0.975351 0.195090 -0.103103
  outer loop
   vertex 2240.842908 7.831572 -414.253392
   vertex 2242.365566 15.529143 -414.092435
   vertex 2342.365566 15.529143 -1360.092435
  endloop
 endfacet
 facet normal -0.975351 0.195090 -0.103103
  outer loop
   vertex 2240.842908 7.831572 -414.253392
   vertex 2342.365566 15.529143 -1360.092435
   vertex 2340.842908 7.831572 -1360.253392
  endloop
 endfacet
 facet normal -0.941683 0.321439 -0.099544
  outer loop
   vertex 2242.365566 15.529143 -414.092435
   vertex 2244.874366 22.961006 -413.827234
   vertex 2344.874366 22.961006 -1359.827234
  endloop
 endfacet
 facet normal -0.941683 0.321439 -0.099544
  outer loop
   vertex 2242.365566 15.529143 -414.092435
   vertex 2344.874366 22.961006 -1359.827234
   vertex 2342.365566 15.529143 -1360.092435
  endloop
 endfacet
 facet normal -0.891903 0.442289 -0.094282
  outer loop
   vertex 2244.874366 22.961006 -413.827234
   vertex 2248.326380 30.000000 -413.462328
   vertex 2348.326380 30.000000 -1359.462328
  endloop
 endfacet
 facet normal -0.891903 0.442289 -0.094282
  outer loop
   vertex 2244.874366 22.961006 -413.827234
   vertex 2348.326380 30.000000 -1359.462328
   vertex 2344.874366 22.961006 -1359.827234
  endloop
 endfacet
 facet normal -0.826863 0.555570 -0.087406
  outer loop
   vertex 2248.326380 30.000000 -413.462328
   vertex 2252.662545 36.525686 -413.003959
   vertex 2352.662545 36.525686 -1359.003959
  endloop
 endfacet
 facet normal -0.826863 0.555570 -0.087406
  outer loop
   vertex 2248.326380 30.000000 -413.462328
   vertex 2352.662545 36.525686 -1359.003959
   vertex 2348.326380 30.000000 -1359.462328
  endloop
 endfacet
 facet normal -0.747674 0.659346 -0.079035
  outer loop
   vertex 2252.662545 36.525686 -413.003959
   vertex 2257.808666 42.426407 -412.459972
   vertex 2357.808666 42.426407 -1358.459972
  endloop
 endfacet
 facet normal -0.747674 0.659346 -0.079035
  outer loop
   vertex 2252.662545 36.525686 -413.003959
   vertex 2357.808666 42.426407 -1358.459972
   vertex 2352.662545 36.525686 -1359.003959
  endloop
 endfacet
 facet normal -0.655693 0.751840 -0.069312
  outer loop
   vertex 2257.808666 42.426407 -412.459972
   vertex 2263.676693 47.601200 -411.839673
   vertex 2363.676693 47.601200 -1357.839673
  endloop
 endfacet
 facet normal -0.655693 0.751840 -0.069312
  outer loop
   vertex 2257.808666 42.426407 -412.459972
   vertex 2363.676693 47.601200 -1357.839673
   vertex 2357.808666 42.426407 -1358.459972
  endloop
 endfacet
 facet normal -0.552492 0.831470 -0.058403
  outer loop
   vertex 2263.676693 47.601200 -411.839673
   vertex 2270.166222 51.961524 -411.153676
   vertex 2370.166222 51.961524 -1357.153676
  endloop
 endfacet
 facet normal -0.552492 0.831470 -0.058403
  outer loop
   vertex 2263.676693 47.601200 -411.839673
   vertex 2370.166222 51.961524 -1357.153676
   vertex 2363.676693 47.601200 -1357.839673
  endloop
 endfacet
 facet normal -0.439838 0.896873 -0.046495
  outer loop
   vertex 2270.166222 51.961524 -411.153676
   vertex 2277.166215 55.432772 -410.413719
   vertex 2377.166215 55.432772 -1356.413719
  endloop
 endfacet
 facet normal -0.439838 0.896873 -0.046495
  outer loop
   vertex 2270.166222 51.961524 -411.153676
   vertex 2377.166215 55.432772 -1356.413719
   vertex 2370.166222 51.961524 -1357.153676
  endloop
 endfacet
 facet normal -0.319658 0.946930 -0.033791
  outer loop
   vertex 2277.166215 55.432772 -410.413719
   vertex 2284.556900 57.955550 -409.632463
   vertex 2384.556900 57.955550 -1355.632463
  endloop
 endfacet
 facet normal -0.319658 0.946930 -0.033791
  outer loop
   vertex 2277.166215 55.432772 -410.413719
   vertex 2384.556900 57.955550 -1355.632463
   vertex 2377.166215 55.432772 -1356.413719
  endloop
 endfacet
 facet normal -0.194009 0.980785 -0.020508
  outer loop
   vertex 2284.556900 57.955550 -409.632463
   vertex 2292.211821 59.486692 -408.823275
   vertex 2392.211821 59.486692 -1354.823275
  endloop
 endfacet
 facet normal -0.194009 0.980785 -0.020508
  outer loop
   vertex 2284.556900 57.955550 -409.632463
   vertex 2392.211821 59.486692 -1354.823275
   vertex 2384.556900 57.955550 -1355.632463
  endloop
 endfacet
 facet normal -0.065041 0.997859 -0.006875
  outer loop
   vertex 2292.211821 59.486692 -408.823275
   vertex 2300.000000 60.000000 -408.000000
   vertex 2400.000000 60.000000 -1354.000000
  endloop
 endfacet
 facet normal -0.065041 0.997859 -0.006875
  outer loop
   vertex 2292.211821 59.486692 -408.823275
   vertex 2400.000000 60.000000 -1354.000000
   vertex 2392.211821 59.486692 -1354.823275
  endloop
 endfacet
endsolid SIC_RP1_dropA_1
