solid SIC_LOX_Hrun_1
 facet normal 0.000000 -0.997859 0.065403
  outer loop
   vertex 2910.000000 -60.000000 -338.000000
   vertex 2910.000000 -59.486692 -330.168428
   vertex 2300.000000 -59.486692 -330.168428
  endloop
 endfacet
 facet normal 0.000000 -0.997859 0.065403
  outer loop
   vertex 2910.000000 -60.000000 -338.000000
   vertex 2300.000000 -59.486692 -330.168428
   vertex 2300.000000 -60.000000 -338.000000
  endloop
 endfacet
 facet normal 0.000000 -0.980785 0.195090
  outer loop
   vertex 2910.000000 -59.486692 -330.168428
   vertex 2910.000000 -57.955550 -322.470857
   vertex 2300.000000 -57.955550 -322.470857
  endloop
 endfacet
 facet normal 0.000000 -0.980785 0.195090
  outer loop
   vertex 2910.000000 -59.486692 -330.168428
   vertex 2300.000000 -57.955550 -322.470857
   vertex 2300.000000 -59.486692 -330.168428
  endloop
 endfacet
 facet normal 0.000000 -0.946930 0.321439
  outer loop
   vertex 2910.000000 -57.955550 -322.470857
   vertex 2910.000000 -55.432772 -315.038994
   vertex 2300.000000 -55.432772 -315.038994
  endloop
 endfacet
 facet normal 0.000000 -0.946930 0.321439
  outer loop
   vertex 2910.000000 -57.955550 -322.470857
   vertex 2300.000000 -55.432772 -315.038994
   vertex 2300.000000 -57.955550 -322.470857
  endloop
 endfacet
 facet normal 0.000000 -0.896873 0.442289
  outer loop
   vertex 2910.000000 -55.432772 -315.038994
   vertex 2910.000000 -51.961524 -308.000000
   vertex 2300.000000 -51.961524 -308.000000
  endloop
 endfacet
 facet normal 0.000000 -0.896873 0.442289
  outer loop
   vertex 2910.000000 -55.432772 -315.038994
   vertex 2300.000000 -51.961524 -308.000000
   vertex 2300.000000 -55.432772 -315.038994
  endloop
 endfacet
 facet normal 0.000000 -0.831470 0.555570
  outer loop
   vertex 2910.000000 -51.961524 -308.000000
   vertex 2910.000000 -47.601200 -301.474314
   vertex 2300.000000 -47.601200 -301.474314
  endloop
 endfacet
 facet normal 0.000000 -0.831470 0.555570
  outer loop
   vertex 2910.000000 -51.961524 -308.000000
   vertex 2300.000000 -47.601200 -301.474314
   vertex 2300.000000 -51.961524 -308.000000
  endloop
 endfacet
 facet normal 0.000000 -0.751840 0.659346
  outer loop
   vertex 2910.000000 -47.601200 -301.474314
   vertex 2910.000000 -42.426407 -295.573593
   vertex 2300.000000 -42.426407 -295.573593
  endloop
 endfacet
 facet normal 0.000000 -0.751840 0.659346
  outer loop
   vertex 2910.000000 -47.601200 -301.474314
   vertex 2300.000000 -42.426407 -295.573593
   vertex 2300.000000 -47.601200 -301.474314
  endloop
 endfacet
 facet normal 0.000000 -0.659346 0.751840
  outer loop
   vertex 2910.000000 -42.426407 -295.573593
   vertex 2910.000000 -36.525686 -290.398800
   vertex 2300.000000 -36.525686 -290.398800
  endloop
 endfacet
 facet normal 0.000000 -0.659346 0.751840
  outer loop
   vertex 2910.000000 -42.426407 -295.573593
   vertex 2300.000000 -36.525686 -290.398800
   vertex 2300.000000 -42.426407 -295.573593
  endloop
 endfacet
 facet normal 0.000000 -0.555570 0.831470
  outer loop
   vertex 2910.000000 -36.525686 -290.398800
   vertex 2910.000000 -30.000000 -286.038476
   vertex 2300.000000 -30.000000 -286.038476
  endloop
 endfacet
 facet normal 0.000000 -0.555570 0.831470
  outer loop
   vertex 2910.000000 -36.525686 -290.398800
   vertex 2300.000000 -30.000000 -286.038476
   vertex 2300.000000 -36.525686 -290.398800
  endloop
 endfacet
 facet normal 0.000000 -0.442289 0.896873
  outer loop
   vertex 2910.000000 -30.000000 -286.038476
   vertex 2910.000000 -22.961006 -282.567228
   vertex 2300.000000 -22.961006 -282.567228
  endloop
 endfacet
 facet normal 0.000000 -0.442289 0.896873
  outer loop
   vertex 2910.000000 -30.000000 -286.038476
   vertex 2300.000000 -22.961006 -282.567228
   vertex 2300.000000 -30.000000 -286.038476
  endloop
 endfacet
 facet normal 0.000000 -0.321439 0.946930
  outer loop
   vertex 2910.000000 -22.961006 -282.567228
   vertex 2910.000000 -15.529143 -280.044450
   vertex 2300.000000 -15.529143 -280.044450
  endloop
 endfacet
 facet normal 0.000000 -0.321439 0.946930
  outer loop
   vertex 2910.000000 -22.961006 -282.567228
   vertex 2300.000000 -15.529143 -280.044450
   vertex 2300.000000 -22.961006 -282.567228
  endloop
 endfacet
 facet normal 0.000000 -0.195090 0.980785
  outer loop
   vertex 2910.000000 -15.529143 -280.044450
   vertex 2910.000000 -7.831572 -278.513308
   vertex 2300.000000 -7.831572 -278.513308
  endloop
 endfacet
 facet normal 0.000000 -0.195090 0.980785
  outer loop
   vertex 2910.000000 -15.529143 -280.044450
   vertex 2300.000000 -7.831572 -278.513308
   vertex 2300.000000 -15.529143 -280.044450
  endloop
 endfacet
 facet normal 0.000000 -0.065403 0.997859
  outer loop
   vertex 2910.000000 -7.831572 -278.513308
   vertex 2910.000000 -0.000000 -278.000000
   vertex 2300.000000 -0.000000 -278.000000
  endloop
 endfacet
 facet normal 0.000000 -0.065403 0.997859
  outer loop
   vertex 2910.000000 -7.831572 -278.513308
   vertex 2300.000000 -0.000000 -278.000000
   vertex 2300.000000 -7.831572 -278.513308
  endloop
 endfacet
 facet normal 0.000000 0.065403 0.997859
  outer loop
   vertex 2910.000000 -0.000000 -278.000000
   vertex 2910.000000 7.831572 -278.513308
   vertex 2300.000000 7.831572 -278.513308
  endloop
 endfacet
 facet normal 0.000000 0.065403 0.997859
  outer loop
   vertex 2910.000000 -0.000000 -278.000000
   vertex 2300.000000 7.831572 -278.513308
   vertex 2300.000000 -0.000000 -278.000000
  endloop
 endfacet
 facet normal 0.000000 0.195090 0.980785
  outer loop
   vertex 2910.000000 7.831572 -278.513308
   vertex 2910.000000 15.529143 -280.044450
   vertex 2300.000000 15.529143 -280.044450
  endloop
 endfacet
 facet normal 0.000000 0.195090 0.980785
  outer loop
   vertex 2910.000000 7.831572 -278.513308
   vertex 2300.000000 15.529143 -280.044450
   vertex 2300.000000 7.831572 -278.513308
  endloop
 endfacet
 facet normal 0.000000 0.321439 0.946930
  outer loop
   vertex 2910.000000 15.529143 -280.044450
   vertex 2910.000000 22.961006 -282.567228
   vertex 2300.000000 22.961006 -282.567228
  endloop
 endfacet
 facet normal 0.000000 0.321439 0.946930
  outer loop
   vertex 2910.000000 15.529143 -280.044450
   vertex 2300.000000 22.961006 -282.567228
   vertex 2300.000000 15.529143 -280.044450
  endloop
 endfacet
 facet normal 0.000000 0.442289 0.896873
  outer loop
   vertex 2910.000000 22.961006 -282.567228
   vertex 2910.000000 30.000000 -286.038476
   vertex 2300.000000 30.000000 -286.038476
  endloop
 endfacet
 facet normal 0.000000 0.442289 0.896873
  outer loop
   vertex 2910.000000 22.961006 -282.567228
   vertex 2300.000000 30.000000 -286.038476
   vertex 2300.000000 22.961006 -282.567228
  endloop
 endfacet
 facet normal 0.000000 0.555570 0.831470
  outer loop
   vertex 2910.000000 30.000000 -286.038476
   vertex 2910.000000 36.525686 -290.398800
   vertex 2300.000000 36.525686 -290.398800
  endloop
 endfacet
 facet normal 0.000000 0.555570 0.831470
  outer loop
   vertex 2910.000000 30.000000 -286.038476
   vertex 2300.000000 36.525686 -290.398800
   vertex 2300.000000 30.000000 -286.038476
  endloop
 endfacet
 facet normal 0.000000 0.659346 0.751840
  outer loop
   vertex 2910.000000 36.525686 -290.398800
   vertex 2910.000000 42.426407 -295.573593
   vertex 2300.000000 42.426407 -295.573593
  endloop
 endfacet
 facet normal 0.000000 0.659346 0.751840
  outer loop
   vertex 2910.000000 36.525686 -290.398800
   vertex 2300.000000 42.426407 -295.573593
   vertex 2300.000000 36.525686 -290.398800
  endloop
 endfacet
 facet normal 0.000000 0.751840 0.659346
  outer loop
   vertex 2910.000000 42.426407 -295.573593
   vertex 2910.000000 47.601200 -301.474314
   vertex 2300.000000 47.601200 -301.474314
  endloop
 endfacet
 facet normal 0.000000 0.751840 0.659346
  outer loop
   vertex 2910.000000 42.426407 -295.573593
   vertex 2300.000000 47.601200 -301.474314
   vertex 2300.000000 42.426407 -295.573593
  endloop
 endfacet
 facet normal 0.000000 0.831470 0.555570
  outer loop
   vertex 2910.000000 47.601200 -301.474314
   vertex 2910.000000 51.961524 -308.000000
   vertex 2300.000000 51.961524 -308.000000
  endloop
 endfacet
 facet normal 0.000000 0.831470 0.555570
  outer loop
   vertex 2910.000000 47.601200 -301.474314
   vertex 2300.000000 51.961524 -308.000000
   vertex 2300.000000 47.601200 -301.474314
  endloop
 endfacet
 facet normal 0.000000 0.896873 0.442289
  outer loop
   vertex 2910.000000 51.961524 -308.000000
   vertex 2910.000000 55.432772 -315.038994
   vertex 2300.000000 55.432772 -315.038994
  endloop
 endfacet
 facet normal 0.000000 0.896873 0.442289
  outer loop
   vertex 2910.000000 51.961524 -308.000000
   vertex 2300.000000 55.432772 -315.038994
   vertex 2300.000000 51.961524 -308.000000
  endloop
 endfacet
 facet normal 0.000000 0.946930 0.321439
  outer loop
   vertex 2910.000000 55.432772 -315.038994
   vertex 2910.000000 57.955550 -322.470857
   vertex 2300.000000 57.955550 -322.470857
  endloop
 endfacet
 facet normal 0.000000 0.946930 0.321439
  outer loop
   vertex 2910.000000 55.432772 -315.038994
   vertex 2300.000000 57.955550 -322.470857
   vertex 2300.000000 55.432772 -315.038994
  endloop
 endfacet
 facet normal 0.000000 0.980785 0.195090
  outer loop
   vertex 2910.000000 57.955550 -322.470857
   vertex 2910.000000 59.486692 -330.168428
   vertex 2300.000000 59.486692 -330.168428
  endloop
 endfacet
 facet normal 0.000000 0.980785 0.195090
  outer loop
   vertex 2910.000000 57.955550 -322.470857
   vertex 2300.000000 59.486692 -330.168428
   vertex 2300.000000 57.955550 -322.470857
  endloop
 endfacet
 facet normal 0.000000 0.997859 0.065403
  outer loop
   vertex 2910.000000 59.486692 -330.168428
   vertex 2910.000000 60.000000 -338.000000
   vertex 2300.000000 60.000000 -338.000000
  endloop
 endfacet
 facet normal 0.000000 0.997859 0.065403
  outer loop
   vertex 2910.000000 59.486692 -330.168428
   vertex 2300.000000 60.000000 -338.000000
   vertex 2300.000000 59.486692 -330.168428
  endloop
 endfacet
 facet normal 0.000000 0.997859 -0.065403
  outer loop
   vertex 2910.000000 60.000000 -338.000000
   vertex 2910.000000 59.486692 -345.831572
   vertex 2300.000000 59.486692 -345.831572
  endloop
 endfacet
 facet normal 0.000000 0.997859 -0.065403
  outer loop
   vertex 2910.000000 60.000000 -338.000000
   vertex 2300.000000 59.486692 -345.831572
   vertex 2300.000000 60.000000 -338.000000
  endloop
 endfacet
 facet normal 0.000000 0.980785 -0.195090
  outer loop
   vertex 2910.000000 59.486692 -345.831572
   vertex 2910.000000 57.955550 -353.529143
   vertex 2300.000000 57.955550 -353.529143
  endloop
 endfacet
 facet normal 0.000000 0.980785 -0.195090
  outer loop
   vertex 2910.000000 59.486692 -345.831572
   vertex 2300.000000 57.955550 -353.529143
   vertex 2300.000000 59.486692 -345.831572
  endloop
 endfacet
 facet normal 0.000000 0.946930 -0.321439
  outer loop
   vertex 2910.000000 57.955550 -353.529143
   vertex 2910.000000 55.432772 -360.961006
   vertex 2300.000000 55.432772 -360.961006
  endloop
 endfacet
 facet normal 0.000000 0.946930 -0.321439
  outer loop
   vertex 2910.000000 57.955550 -353.529143
   vertex 2300.000000 55.432772 -360.961006
   vertex 2300.000000 57.955550 -353.529143
  endloop
 endfacet
 facet normal 0.000000 0.896873 -0.442289
  outer loop
   vertex 2910.000000 55.432772 -360.961006
   vertex 2910.000000 51.961524 -368.000000
   vertex 2300.000000 51.961524 -368.000000
  endloop
 endfacet
 facet normal 0.000000 0.896873 -0.442289
  outer loop
   vertex 2910.000000 55.432772 -360.961006
   vertex 2300.000000 51.961524 -368.000000
   vertex 2300.000000 55.432772 -360.961006
  endloop
 endfacet
 facet normal 0.000000 0.831470 -0.555570
  outer loop
   vertex 2910.000000 51.961524 -368.000000
   vertex 2910.000000 47.601200 -374.525686
   vertex 2300.000000 47.601200 -374.525686
  endloop
 endfacet
 facet normal 0.000000 0.831470 -0.555570
  outer loop
   vertex 2910.000000 51.961524 -368.000000
   vertex 2300.000000 47.601200 -374.525686
   vertex 2300.000000 51.961524 -368.000000
  endloop
 endfacet
 facet normal 0.000000 0.751840 -0.659346
  outer loop
   vertex 2910.000000 47.601200 -374.525686
   vertex 2910.000000 42.426407 -380.426407
   vertex 2300.000000 42.426407 -380.426407
  endloop
 endfacet
 facet normal 0.000000 0.751840 -0.659346
  outer loop
   vertex 2910.000000 47.601200 -374.525686
   vertex 2300.000000 42.426407 -380.426407
   vertex 2300.000000 47.601200 -374.525686
  endloop
 endfacet
 facet normal 0.000000 0.659346 -0.751840
  outer loop
   vertex 2910.000000 42.426407 -380.426407
   vertex 2910.000000 36.525686 -385.601200
   vertex 2300.000000 36.525686 -385.601200
  endloop
 endfacet
 facet normal 0.000000 0.659346 -0.751840
  outer loop
   vertex 2910.000000 42.426407 -380.426407
   vertex 2300.000000 36.525686 -385.601200
   vertex 2300.000000 42.426407 -380.426407
  endloop
 endfacet
 facet normal 0.000000 0.555570 -0.831470
  outer loop
   vertex 2910.000000 36.525686 -385.601200
   vertex 2910.000000 30.000000 -389.961524
   vertex 2300.000000 30.000000 -389.961524
  endloop
 endfacet
 facet normal 0.000000 0.555570 -0.831470
  outer loop
   vertex 2910.000000 36.525686 -385.601200
   vertex 2300.000000 30.000000 -389.961524
   vertex 2300.000000 36.525686 -385.601200
  endloop
 endfacet
 facet normal 0.000000 0.442289 -0.896873
  outer loop
   vertex 2910.000000 30.000000 -389.961524
   vertex 2910.000000 22.961006 -393.432772
   vertex 2300.000000 22.961006 -393.432772
  endloop
 endfacet
 facet normal 0.000000 0.442289 -0.896873
  outer loop
   vertex 2910.000000 30.000000 -389.961524
   vertex 2300.000000 22.961006 -393.432772
   vertex 2300.000000 30.000000 -389.961524
  endloop
 endfacet
 facet normal 0.000000 0.321439 -0.946930
  outer loop
   vertex 2910.000000 22.961006 -393.432772
   vertex 2910.000000 15.529143 -395.955550
   vertex 2300.000000 15.529143 -395.955550
  endloop
 endfacet
 facet normal 0.000000 0.321439 -0.946930
  outer loop
   vertex 2910.000000 22.961006 -393.432772
   vertex 2300.000000 15.529143 -395.955550
   vertex 2300.000000 22.961006 -393.432772
  endloop
 endfacet
 facet normal 0.000000 0.195090 -0.980785
  outer loop
   vertex 2910.000000 15.529143 -395.955550
   vertex 2910.000000 7.831572 -397.486692
   vertex 2300.000000 7.831572 -397.486692
  endloop
 endfacet
 facet normal 0.000000 0.195090 -0.980785
  outer loop
   vertex 2910.000000 15.529143 -395.955550
   vertex 2300.000000 7.831572 -397.486692
   vertex 2300.000000 15.529143 -395.955550
  endloop
 endfacet
 facet normal 0.000000 0.065403 -0.997859
  outer loop
   vertex 2910.000000 7.831572 -397.486692
   vertex 2910.000000 0.000000 -398.000000
   vertex 2300.000000 0.000000 -398.000000
  endloop
 endfacet
 facet normal 0.000000 0.065403 -0.997859
  outer loop
   vertex 2910.000000 7.831572 -397.486692
   vertex 2300.000000 0.000000 -398.000000
   vertex 2300.000000 7.831572 -397.486692
  endloop
 endfacet
 facet normal 0.000000 -0.065403 -0.997859
  outer loop
   vertex 2910.000000 0.000000 -398.000000
   vertex 2910.000000 -7.831572 -397.486692
   vertex 2300.000000 -7.831572 -397.486692
  endloop
 endfacet
 facet normal -0.000000 -0.065403 -0.997859
  outer loop
   vertex 2910.000000 0.000000 -398.000000
   vertex 2300.000000 -7.831572 -397.486692
   vertex 2300.000000 0.000000 -398.000000
  endloop
 endfacet
 facet normal 0.000000 -0.195090 -0.980785
  outer loop
   vertex 2910.000000 -7.831572 -397.486692
   vertex 2910.000000 -15.529143 -395.955550
   vertex 2300.000000 -15.529143 -395.955550
  endloop
 endfacet
 facet normal -0.000000 -0.195090 -0.980785
  outer loop
   vertex 2910.000000 -7.831572 -397.486692
   vertex 2300.000000 -15.529143 -395.955550
   vertex 2300.000000 -7.831572 -397.486692
  endloop
 endfacet
 facet normal 0.000000 -0.321439 -0.946930
  outer loop
   vertex 2910.000000 -15.529143 -395.955550
   vertex 2910.000000 -22.961006 -393.432772
   vertex 2300.000000 -22.961006 -393.432772
  endloop
 endfacet
 facet normal -0.000000 -0.321439 -0.946930
  outer loop
   vertex 2910.000000 -15.529143 -395.955550
   vertex 2300.000000 -22.961006 -393.432772
   vertex 2300.000000 -15.529143 -395.955550
  endloop
 endfacet
 facet normal 0.000000 -0.442289 -0.896873
  outer loop
   vertex 2910.000000 -22.961006 -393.432772
   vertex 2910.000000 -30.000000 -389.961524
   vertex 2300.000000 -30.000000 -389.961524
  endloop
 endfacet
 facet normal -0.000000 -0.442289 -0.896873
  outer loop
   vertex 2910.000000 -22.961006 -393.432772
   vertex 2300.000000 -30.000000 -389.961524
   vertex 2300.000000 -22.961006 -393.432772
  endloop
 endfacet
 facet normal 0.000000 -0.555570 -0.831470
  outer loop
   vertex 2910.000000 -30.000000 -389.961524
   vertex 2910.000000 -36.525686 -385.601200
   vertex 2300.000000 -36.525686 -385.601200
  endloop
 endfacet
 facet normal -0.000000 -0.555570 -0.831470
  outer loop
   vertex 2910.000000 -30.000000 -389.961524
   vertex 2300.000000 -36.525686 -385.601200
   vertex 2300.000000 -30.000000 -389.961524
  endloop
 endfacet
 facet normal 0.000000 -0.659346 -0.751840
  outer loop
   vertex 2910.000000 -36.525686 -385.601200
   vertex 2910.000000 -42.426407 -380.426407
   vertex 2300.000000 -42.426407 -380.426407
  endloop
 endfacet
 facet normal -0.000000 -0.659346 -0.751840
  outer loop
   vertex 2910.000000 -36.525686 -385.601200
   vertex 2300.000000 -42.426407 -380.426407
   vertex 2300.000000 -36.525686 -385.601200
  endloop
 endfacet
 facet normal 0.000000 -0.751840 -0.659346
  outer loop
   vertex 2910.000000 -42.426407 -380.426407
   vertex 2910.000000 -47.601200 -374.525686
   vertex 2300.000000 -47.601200 -374.525686
  endloop
 endfacet
 facet normal -0.000000 -0.751840 -0.659346
  outer loop
   vertex 2910.000000 -42.426407 -380.426407
   vertex 2300.000000 -47.601200 -374.525686
   vertex 2300.000000 -42.426407 -380.426407
  endloop
 endfacet
 facet normal 0.000000 -0.831470 -0.555570
  outer loop
   vertex 2910.000000 -47.601200 -374.525686
   vertex 2910.000000 -51.961524 -368.000000
   vertex 2300.000000 -51.961524 -368.000000
  endloop
 endfacet
 facet normal -0.000000 -0.831470 -0.555570
  outer loop
   vertex 2910.000000 -47.601200 -374.525686
   vertex 2300.000000 -51.961524 -368.000000
   vertex 2300.000000 -47.601200 -374.525686
  endloop
 endfacet
 facet normal 0.000000 -0.896873 -0.442289
  outer loop
   vertex 2910.000000 -51.961524 -368.000000
   vertex 2910.000000 -55.432772 -360.961006
   vertex 2300.000000 -55.432772 -360.961006
  endloop
 endfacet
 facet normal -0.000000 -0.896873 -0.442289
  outer loop
   vertex 2910.000000 -51.961524 -368.000000
   vertex 2300.000000 -55.432772 -360.961006
   vertex 2300.000000 -51.961524 -368.000000
  endloop
 endfacet
 facet normal 0.000000 -0.946930 -0.321439
  outer loop
   vertex 2910.000000 -55.432772 -360.961006
   vertex 2910.000000 -57.955550 -353.529143
   vertex 2300.000000 -57.955550 -353.529143
  endloop
 endfacet
 facet normal -0.000000 -0.946930 -0.321439
  outer loop
   vertex 2910.000000 -55.432772 -360.961006
   vertex 2300.000000 -57.955550 -353.529143
   vertex 2300.000000 -55.432772 -360.961006
  endloop
 endfacet
 facet normal 0.000000 -0.980785 -0.195090
  outer loop
   vertex 2910.000000 -57.955550 -353.529143
   vertex 2910.000000 -59.486692 -345.831572
   vertex 2300.000000 -59.486692 -345.831572
  endloop
 endfacet
 facet normal -0.000000 -0.980785 -0.195090
  outer loop
   vertex 2910.000000 -57.955550 -353.529143
   vertex 2300.000000 -59.486692 -345.831572
   vertex 2300.000000 -57.955550 -353.529143
  endloop
 endfacet
 facet normal 0.000000 -0.997859 -0.065403
  outer loop
   vertex 2910.000000 -59.486692 -345.831572
   vertex 2910.000000 -60.000000 -338.000000
   vertex 2300.000000 -60.000000 -338.000000
  endloop
 endfacet
 facet normal -0.000000 -0.997859 -0.065403
  outer loop
   vertex 2910.000000 -59.486692 -345.831572
   vertex 2300.000000 -60.000000 -338.000000
   vertex 2300.000000 -59.486692 -345.831572
  endloop
 endfacet
endsolid SIC_LOX_Hrun_1
