solid SIC_RP1_valve_1
 facet normal 0.065403 -0.997859 0.000000
  outer loop
   vertex 2910.000000 -60.000000 -720.000000
   vertex 2917.831572 -59.486692 -720.000000
   vertex 2917.831572 -59.486692 -570.000000
  endloop
 endfacet
 facet normal 0.065403 -0.997859 0.000000
  outer loop
   vertex 2910.000000 -60.000000 -720.000000
   vertex 2917.831572 -59.486692 -570.000000
   vertex 2910.000000 -60.000000 -570.000000
  endloop
 endfacet
 facet normal 0.195090 -0.980785 0.000000
  outer loop
   vertex 2917.831572 -59.486692 -720.000000
   vertex 2925.529143 -57.955550 -720.000000
   vertex 2925.529143 -57.955550 -570.000000
  endloop
 endfacet
 facet normal 0.195090 -0.980785 0.000000
  outer loop
   vertex 2917.831572 -59.486692 -720.000000
   vertex 2925.529143 -57.955550 -570.000000
   vertex 2917.831572 -59.486692 -570.000000
  endloop
 endfacet
 facet normal 0.321439 -0.946930 0.000000
  outer loop
   vertex 2925.529143 -57.955550 -720.000000
   vertex 2932.961006 -55.432772 -720.000000
   vertex 2932.961006 -55.432772 -570.000000
  endloop
 endfacet
 facet normal 0.321439 -0.946930 0.000000
  outer loop
   vertex 2925.529143 -57.955550 -720.000000
   vertex 2932.961006 -55.432772 -570.000000
   vertex 2925.529143 -57.955550 -570.000000
  endloop
 endfacet
 facet normal 0.442289 -0.896873 0.000000
  outer loop
   vertex 2932.961006 -55.432772 -720.000000
   vertex 2940.000000 -51.961524 -720.000000
   vertex 2940.000000 -51.961524 -570.000000
  endloop
 endfacet
 facet normal 0.442289 -0.896873 0.000000
  outer loop
   vertex 2932.961006 -55.432772 -720.000000
   vertex 2940.000000 -51.961524 -570.000000
   vertex 2932.961006 -55.432772 -570.000000
  endloop
 endfacet
 facet normal 0.555570 -0.831470 0.000000
  outer loop
   vertex 2940.000000 -51.961524 -720.000000
   vertex 2946.525686 -47.601200 -720.000000
   vertex 2946.525686 -47.601200 -570.000000
  endloop
 endfacet
 facet normal 0.555570 -0.831470 0.000000
  outer loop
   vertex 2940.000000 -51.961524 -720.000000
   vertex 2946.525686 -47.601200 -570.000000
   vertex 2940.000000 -51.961524 -570.000000
  endloop
 endfacet
 facet normal 0.659346 -0.751840 0.000000
  outer loop
   vertex 2946.525686 -47.601200 -720.000000
   vertex 2952.426407 -42.426407 -720.000000
   vertex 2952.426407 -42.426407 -570.000000
  endloop
 endfacet
 facet normal 0.659346 -0.751840 0.000000
  outer loop
   vertex 2946.525686 -47.601200 -720.000000
   vertex 2952.426407 -42.426407 -570.000000
   vertex 2946.525686 -47.601200 -570.000000
  endloop
 endfacet
 facet normal 0.751840 -0.659346 0.000000
  outer loop
   vertex 2952.426407 -42.426407 -720.000000
   vertex 2957.601200 -36.525686 -720.000000
   vertex 2957.601200 -36.525686 -570.000000
  endloop
 endfacet
 facet normal 0.751840 -0.659346 0.000000
  outer loop
   vertex 2952.426407 -42.426407 -720.000000
   vertex 2957.601200 -36.525686 -570.000000
   vertex 2952.426407 -42.426407 -570.000000
  endloop
 endfacet
 facet normal 0.831470 -0.555570 0.000000
  outer loop
   vertex 2957.601200 -36.525686 -720.000000
   vertex 2961.961524 -30.000000 -720.000000
   vertex 2961.961524 -30.000000 -570.000000
  endloop
 endfacet
 facet normal 0.831470 -0.555570 0.000000
  outer loop
   vertex 2957.601200 -36.525686 -720.000000
   vertex 2961.961524 -30.000000 -570.000000
   vertex 2957.601200 -36.525686 -570.000000
  endloop
 endfacet
 facet normal 0.896873 -0.442289 0.000000
  outer loop
   vertex 2961.961524 -30.000000 -720.000000
   vertex 2965.432772 -22.961006 -720.000000
   vertex 2965.432772 -22.961006 -570.000000
  endloop
 endfacet
 facet normal 0.896873 -0.442289 0.000000
  outer loop
   vertex 2961.961524 -30.000000 -720.000000
   vertex 2965.432772 -22.961006 -570.000000
   vertex 2961.961524 -30.000000 -570.000000
  endloop
 endfacet
 facet normal 0.946930 -0.321439 0.000000
  outer loop
   vertex 2965.432772 -22.961006 -720.000000
   vertex 2967.955550 -15.529143 -720.000000
   vertex 2967.955550 -15.529143 -570.000000
  endloop
 endfacet
 facet normal 0.946930 -0.321439 0.000000
  outer loop
   vertex 2965.432772 -22.961006 -720.000000
   vertex 2967.955550 -15.529143 -570.000000
   vertex 2965.432772 -22.961006 -570.000000
  endloop
 endfacet
 facet normal 0.980785 -0.195090 0.000000
  outer loop
   vertex 2967.955550 -15.529143 -720.000000
   vertex 2969.486692 -7.831572 -720.000000
   vertex 2969.486692 -7.831572 -570.000000
  endloop
 endfacet
 facet normal 0.980785 -0.195090 0.000000
  outer loop
   vertex 2967.955550 -15.529143 -720.000000
   vertex 2969.486692 -7.831572 -570.000000
   vertex 2967.955550 -15.529143 -570.000000
  endloop
 endfacet
 facet normal 0.997859 -0.065403 0.000000
  outer loop
   vertex 2969.486692 -7.831572 -720.000000
   vertex 2970.000000 -0.000000 -720.000000
   vertex 2970.000000 -0.000000 -570.000000
  endloop
 endfacet
 facet normal 0.997859 -0.065403 0.000000
  outer loop
   vertex 2969.486692 -7.831572 -720.000000
   vertex 2970.000000 -0.000000 -570.000000
   vertex 2969.486692 -7.831572 -570.000000
  endloop
 endfacet
 facet normal 0.997859 0.065403 0.000000
  outer loop
   vertex 2970.000000 -0.000000 -720.000000
   vertex 2969.486692 7.831572 -720.000000
   vertex 2969.486692 7.831572 -570.000000
  endloop
 endfacet
 facet normal 0.997859 0.065403 -0.000000
  outer loop
   vertex 2970.000000 -0.000000 -720.000000
   vertex 2969.486692 7.831572 -570.000000
   vertex 2970.000000 -0.000000 -570.000000
  endloop
 endfacet
 facet normal 0.980785 0.195090 0.000000
  outer loop
   vertex 2969.486692 7.831572 -720.000000
   vertex 2967.955550 15.529143 -720.000000
   vertex 2967.955550 15.529143 -570.000000
  endloop
 endfacet
 facet normal 0.980785 0.195090 -0.000000
  outer loop
   vertex 2969.486692 7.831572 -720.000000
   vertex 2967.955550 15.529143 -570.000000
   vertex 2969.486692 7.831572 -570.000000
  endloop
 endfacet
 facet normal 0.946930 0.321439 0.000000
  outer loop
   vertex 2967.955550 15.529143 -720.000000
   vertex 2965.432772 22.961006 -720.000000
   vertex 2965.432772 22.961006 -570.000000
  endloop
 endfacet
 facet normal 0.946930 0.321439 -0.000000
  outer loop
   vertex 2967.955550 15.529143 -720.000000
   vertex 2965.432772 22.961006 -570.000000
   vertex 2967.955550 15.529143 -570.000000
  endloop
 endfacet
 facet normal 0.896873 0.442289 0.000000
  outer loop
   vertex 2965.432772 22.961006 -720.000000
   vertex 2961.961524 30.000000 -720.000000
   vertex 2961.961524 30.000000 -570.000000
  endloop
 endfacet
 facet normal 0.896873 0.442289 -0.000000
  outer loop
   vertex 2965.432772 22.961006 -720.000000
   vertex 2961.961524 30.000000 -570.000000
   vertex 2965.432772 22.961006 -570.000000
  endloop
 endfacet
 facet normal 0.831470 0.555570 0.000000
  outer loop
   vertex 2961.961524 30.000000 -720.000000
   vertex 2957.601200 36.525686 -720.000000
   vertex 2957.601200 36.525686 -570.000000
  endloop
 endfacet
 facet normal 0.831470 0.555570 -0.000000
  outer loop
   vertex 2961.961524 30.000000 -720.000000
   vertex 2957.601200 36.525686 -570.000000
   vertex 2961.961524 30.000000 -570.000000
  endloop
 endfacet
 facet normal 0.751840 0.659346 0.000000
  outer loop
   vertex 2957.601200 36.525686 -720.000000
   vertex 2952.426407 42.426407 -720.000000
   vertex 2952.426407 42.426407 -570.000000
  endloop
 endfacet
 facet normal 0.751840 0.659346 -0.000000
  outer loop
   vertex 2957.601200 36.525686 -720.000000
   vertex 2952.426407 42.426407 -570.000000
   vertex 2957.601200 36.525686 -570.000000
  endloop
 endfacet
 facet normal 0.659346 0.751840 0.000000
  outer loop
   vertex 2952.426407 42.426407 -720.000000
   vertex 2946.525686 47.601200 -720.000000
   vertex 2946.525686 47.601200 -570.000000
  endloop
 endfacet
 facet normal 0.659346 0.751840 -0.000000
  outer loop
   vertex 2952.426407 42.426407 -720.000000
   vertex 2946.525686 47.601200 -570.000000
   vertex 2952.426407 42.426407 -570.000000
  endloop
 endfacet
 facet normal 0.555570 0.831470 0.000000
  outer loop
   vertex 2946.525686 47.601200 -720.000000
   vertex 2940.000000 51.961524 -720.000000
   vertex 2940.000000 51.961524 -570.000000
  endloop
 endfacet
 facet normal 0.555570 0.831470 -0.000000
  outer loop
   vertex 2946.525686 47.601200 -720.000000
   vertex 2940.000000 51.961524 -570.000000
   vertex 2946.525686 47.601200 -570.000000
  endloop
 endfacet
 facet normal 0.442289 0.896873 0.000000
  outer loop
   vertex 2940.000000 51.961524 -720.000000
   vertex 2932.961006 55.432772 -720.000000
   vertex 2932.961006 55.432772 -570.000000
  endloop
 endfacet
 facet normal 0.442289 0.896873 -0.000000
  outer loop
   vertex 2940.000000 51.961524 -720.000000
   vertex 2932.961006 55.432772 -570.000000
   vertex 2940.000000 51.961524 -570.000000
  endloop
 endfacet
 facet normal 0.321439 0.946930 0.000000
  outer loop
   vertex 2932.961006 55.432772 -720.000000
   vertex 2925.529143 57.955550 -720.000000
   vertex 2925.529143 57.955550 -570.000000
  endloop
 endfacet
 facet normal 0.321439 0.946930 -0.000000
  outer loop
   vertex 2932.961006 55.432772 -720.000000
   vertex 2925.529143 57.955550 -570.000000
   vertex 2932.961006 55.432772 -570.000000
  endloop
 endfacet
 facet normal 0.195090 0.980785 0.000000
  outer loop
   vertex 2925.529143 57.955550 -720.000000
   vertex 2917.831572 59.486692 -720.000000
   vertex 2917.831572 59.486692 -570.000000
  endloop
 endfacet
 facet normal 0.195090 0.980785 -0.000000
  outer loop
   vertex 2925.529143 57.955550 -720.000000
   vertex 2917.831572 59.486692 -570.000000
   vertex 2925.529143 57.955550 -570.000000
  endloop
 endfacet
 facet normal 0.065403 0.997859 0.000000
  outer loop
   vertex 2917.831572 59.486692 -720.000000
   vertex 2910.000000 60.000000 -720.000000
   vertex 2910.000000 60.000000 -570.000000
  endloop
 endfacet
 facet normal 0.065403 0.997859 -0.000000
  outer loop
   vertex 2917.831572 59.486692 -720.000000
   vertex 2910.000000 60.000000 -570.000000
   vertex 2917.831572 59.486692 -570.000000
  endloop
 endfacet
 facet normal -0.065403 0.997859 0.000000
  outer loop
   vertex 2910.000000 60.000000 -720.000000
   vertex 2902.168428 59.486692 -720.000000
   vertex 2902.168428 59.486692 -570.000000
  endloop
 endfacet
 facet normal -0.065403 0.997859 0.000000
  outer loop
   vertex 2910.000000 60.000000 -720.000000
   vertex 2902.168428 59.486692 -570.000000
   vertex 2910.000000 60.000000 -570.000000
  endloop
 endfacet
 facet normal -0.195090 0.980785 0.000000
  outer loop
   vertex 2902.168428 59.486692 -720.000000
   vertex 2894.470857 57.955550 -720.000000
   vertex 2894.470857 57.955550 -570.000000
  endloop
 endfacet
 facet normal -0.195090 0.980785 0.000000
  outer loop
   vertex 2902.168428 59.486692 -720.000000
   vertex 2894.470857 57.955550 -570.000000
   vertex 2902.168428 59.486692 -570.000000
  endloop
 endfacet
 facet normal -0.321439 0.946930 0.000000
  outer loop
   vertex 2894.470857 57.955550 -720.000000
   vertex 2887.038994 55.432772 -720.000000
   vertex 2887.038994 55.432772 -570.000000
  endloop
 endfacet
 facet normal -0.321439 0.946930 0.000000
  outer loop
   vertex 2894.470857 57.955550 -720.000000
   vertex 2887.038994 55.432772 -570.000000
   vertex 2894.470857 57.955550 -570.000000
  endloop
 endfacet
 facet normal -0.442289 0.896873 0.000000
  outer loop
   vertex 2887.038994 55.432772 -720.000000
   vertex 2880.000000 51.961524 -720.000000
   vertex 2880.000000 51.961524 -570.000000
  endloop
 endfacet
 facet normal -0.442289 0.896873 0.000000
  outer loop
   vertex 2887.038994 55.432772 -720.000000
   vertex 2880.000000 51.961524 -570.000000
   vertex 2887.038994 55.432772 -570.000000
  endloop
 endfacet
 facet normal -0.555570 0.831470 0.000000
  outer loop
   vertex 2880.000000 51.961524 -720.000000
   vertex 2873.474314 47.601200 -720.000000
   vertex 2873.474314 47.601200 -570.000000
  endloop
 endfacet
 facet normal -0.555570 0.831470 0.000000
  outer loop
   vertex 2880.000000 51.961524 -720.000000
   vertex 2873.474314 47.601200 -570.000000
   vertex 2880.000000 51.961524 -570.000000
  endloop
 endfacet
 facet normal -0.659346 0.751840 0.000000
  outer loop
   vertex 2873.474314 47.601200 -720.000000
   vertex 2867.573593 42.426407 -720.000000
   vertex 2867.573593 42.426407 -570.000000
  endloop
 endfacet
 facet normal -0.659346 0.751840 0.000000
  outer loop
   vertex 2873.474314 47.601200 -720.000000
   vertex 2867.573593 42.426407 -570.000000
   vertex 2873.474314 47.601200 -570.000000
  endloop
 endfacet
 facet normal -0.751840 0.659346 0.000000
  outer loop
   vertex 2867.573593 42.426407 -720.000000
   vertex 2862.398800 36.525686 -720.000000
   vertex 2862.398800 36.525686 -570.000000
  endloop
 endfacet
 facet normal -0.751840 0.659346 0.000000
  outer loop
   vertex 2867.573593 42.426407 -720.000000
   vertex 2862.398800 36.525686 -570.000000
   vertex 2867.573593 42.426407 -570.000000
  endloop
 endfacet
 facet normal -0.831470 0.555570 0.000000
  outer loop
   vertex 2862.398800 36.525686 -720.000000
   vertex 2858.038476 30.000000 -720.000000
   vertex 2858.038476 30.000000 -570.000000
  endloop
 endfacet
 facet normal -0.831470 0.555570 0.000000
  outer loop
   vertex 2862.398800 36.525686 -720.000000
   vertex 2858.038476 30.000000 -570.000000
   vertex 2862.398800 36.525686 -570.000000
  endloop
 endfacet
 facet normal -0.896873 0.442289 0.000000
  outer loop
   vertex 2858.038476 30.000000 -720.000000
   vertex 2854.567228 22.961006 -720.000000
   vertex 2854.567228 22.961006 -570.000000
  endloop
 endfacet
 facet normal -0.896873 0.442289 0.000000
  outer loop
   vertex 2858.038476 30.000000 -720.000000
   vertex 2854.567228 22.961006 -570.000000
   vertex 2858.038476 30.000000 -570.000000
  endloop
 endfacet
 facet normal -0.946930 0.321439 0.000000
  outer loop
   vertex 2854.567228 22.961006 -720.000000
   vertex 2852.044450 15.529143 -720.000000
   vertex 2852.044450 15.529143 -570.000000
  endloop
 endfacet
 facet normal -0.946930 0.321439 0.000000
  outer loop
   vertex 2854.567228 22.961006 -720.000000
   vertex 2852.044450 15.529143 -570.000000
   vertex 2854.567228 22.961006 -570.000000
  endloop
 endfacet
 facet normal -0.980785 0.195090 0.000000
  outer loop
   vertex 2852.044450 15.529143 -720.000000
   vertex 2850.513308 7.831572 -720.000000
   vertex 2850.513308 7.831572 -570.000000
  endloop
 endfacet
 facet normal -0.980785 0.195090 0.000000
  outer loop
   vertex 2852.044450 15.529143 -720.000000
   vertex 2850.513308 7.831572 -570.000000
   vertex 2852.044450 15.529143 -570.000000
  endloop
 endfacet
 facet normal -0.997859 0.065403 0.000000
  outer loop
   vertex 2850.513308 7.831572 -720.000000
   vertex 2850.000000 0.000000 -720.000000
   vertex 2850.000000 0.000000 -570.000000
  endloop
 endfacet
 facet normal -0.997859 0.065403 0.000000
  outer loop
   vertex 2850.513308 7.831572 -720.000000
   vertex 2850.000000 0.000000 -570.000000
   vertex 2850.513308 7.831572 -570.000000
  endloop
 endfacet
 facet normal -0.997859 -0.065403 0.000000
  outer loop
   vertex 2850.000000 0.000000 -720.000000
   vertex 2850.513308 -7.831572 -720.000000
   vertex 2850.513308 -7.831572 -570.000000
  endloop
 endfacet
 facet normal -0.997859 -0.065403 0.000000
  outer loop
   vertex 2850.000000 0.000000 -720.000000
   vertex 2850.513308 -7.831572 -570.000000
   vertex 2850.000000 0.000000 -570.000000
  endloop
 endfacet
 facet normal -0.980785 -0.195090 0.000000
  outer loop
   vertex 2850.513308 -7.831572 -720.000000
   vertex 2852.044450 -15.529143 -720.000000
   vertex 2852.044450 -15.529143 -570.000000
  endloop
 endfacet
 facet normal -0.980785 -0.195090 0.000000
  outer loop
   vertex 2850.513308 -7.831572 -720.000000
   vertex 2852.044450 -15.529143 -570.000000
   vertex 2850.513308 -7.831572 -570.000000
  endloop
 endfacet
 facet normal -0.946930 -0.321439 0.000000
  outer loop
   vertex 2852.044450 -15.529143 -720.000000
   vertex 2854.567228 -22.961006 -720.000000
   vertex 2854.567228 -22.961006 -570.000000
  endloop
 endfacet
 facet normal -0.946930 -0.321439 0.000000
  outer loop
   vertex 2852.044450 -15.529143 -720.000000
   vertex 2854.567228 -22.961006 -570.000000
   vertex 2852.044450 -15.529143 -570.000000
  endloop
 endfacet
 facet normal -0.896873 -0.442289 0.000000
  outer loop
   vertex 2854.567228 -22.961006 -720.000000
   vertex 2858.038476 -30.000000 -720.000000
   vertex 2858.038476 -30.000000 -570.000000
  endloop
 endfacet
 facet normal -0.896873 -0.442289 0.000000
  outer loop
   vertex 2854.567228 -22.961006 -720.000000
   vertex 2858.038476 -30.000000 -570.000000
   vertex 2854.567228 -22.961006 -570.000000
  endloop
 endfacet
 facet normal -0.831470 -0.555570 0.000000
  outer loop
   vertex 2858.038476 -30.000000 -720.000000
   vertex 2862.398800 -36.525686 -720.000000
   vertex 2862.398800 -36.525686 -570.000000
  endloop
 endfacet
 facet normal -0.831470 -0.555570 0.000000
  outer loop
   vertex 2858.038476 -30.000000 -720.000000
   vertex 2862.398800 -36.525686 -570.000000
   vertex 2858.038476 -30.000000 -570.000000
  endloop
 endfacet
 facet normal -0.751840 -0.659346 0.000000
  outer loop
   vertex 2862.398800 -36.525686 -720.000000
   vertex 2867.573593 -42.426407 -720.000000
   vertex 2867.573593 -42.426407 -570.000000
  endloop
 endfacet
 facet normal -0.751840 -0.659346 0.000000
  outer loop
   vertex 2862.398800 -36.525686 -720.000000
   vertex 2867.573593 -42.426407 -570.000000
   vertex 2862.398800 -36.525686 -570.000000
  endloop
 endfacet
 facet normal -0.659346 -0.751840 0.000000
  outer loop
   vertex 2867.573593 -42.426407 -720.000000
   vertex 2873.474314 -47.601200 -720.000000
   vertex 2873.474314 -47.601200 -570.000000
  endloop
 endfacet
 facet normal -0.659346 -0.751840 0.000000
  outer loop
   vertex 2867.573593 -42.426407 -720.000000
   vertex 2873.474314 -47.601200 -570.000000
   vertex 2867.573593 -42.426407 -570.000000
  endloop
 endfacet
 facet normal -0.555570 -0.831470 0.000000
  outer loop
   vertex 2873.474314 -47.601200 -720.000000
   vertex 2880.000000 -51.961524 -720.000000
   vertex 2880.000000 -51.961524 -570.000000
  endloop
 endfacet
 facet normal -0.555570 -0.831470 0.000000
  outer loop
   vertex 2873.474314 -47.601200 -720.000000
   vertex 2880.000000 -51.961524 -570.000000
   vertex 2873.474314 -47.601200 -570.000000
  endloop
 endfacet
 facet normal -0.442289 -0.896873 0.000000
  outer loop
   vertex 2880.000000 -51.961524 -720.000000
   vertex 2887.038994 -55.432772 -720.000000
   vertex 2887.038994 -55.432772 -570.000000
  endloop
 endfacet
 facet normal -0.442289 -0.896873 0.000000
  outer loop
   vertex 2880.000000 -51.961524 -720.000000
   vertex 2887.038994 -55.432772 -570.000000
   vertex 2880.000000 -51.961524 -570.000000
  endloop
 endfacet
 facet normal -0.321439 -0.946930 0.000000
  outer loop
   vertex 2887.038994 -55.432772 -720.000000
   vertex 2894.470857 -57.955550 -720.000000
   vertex 2894.470857 -57.955550 -570.000000
  endloop
 endfacet
 facet normal -0.321439 -0.946930 0.000000
  outer loop
   vertex 2887.038994 -55.432772 -720.000000
   vertex 2894.470857 -57.955550 -570.000000
   vertex 2887.038994 -55.432772 -570.000000
  endloop
 endfacet
 facet normal -0.195090 -0.980785 0.000000
  outer loop
   vertex 2894.470857 -57.955550 -720.000000
   vertex 2902.168428 -59.486692 -720.000000
   vertex 2902.168428 -59.486692 -570.000000
  endloop
 endfacet
 facet normal -0.195090 -0.980785 0.000000
  outer loop
   vertex 2894.470857 -57.955550 -720.000000
   vertex 2902.168428 -59.486692 -570.000000
   vertex 2894.470857 -57.955550 -570.000000
  endloop
 endfacet
 facet normal -0.065403 -0.997859 0.000000
  outer loop
   vertex 2902.168428 -59.486692 -720.000000
   vertex 2910.000000 -60.000000 -720.000000
   vertex 2910.000000 -60.000000 -570.000000
  endloop
 endfacet
 facet normal -0.065403 -0.997859 0.000000
  outer loop
   vertex 2902.168428 -59.486692 -720.000000
   vertex 2910.000000 -60.000000 -570.000000
   vertex 2902.168428 -59.486692 -570.000000
  endloop
 endfacet
endsolid SIC_RP1_valve_1
