solid SIC_FIN_0
 facet normal 0.000000 0.000000 1.000000
  outer loop
   vertex 4797.500000 -450.000000 -900.000000
   vertex 5997.500000 -450.000000 -900.000000
   vertex 5997.500000 450.000000 -900.000000
  endloop
 endfacet
 facet normal 0.000000 0.000000 1.000000
  outer loop
   vertex 4797.500000 -450.000000 -900.000000
   vertex 5997.500000 450.000000 -900.000000
   vertex 4797.500000 450.000000 -900.000000
  endloop
 endfacet
 facet normal 0.000000 0.000000 -1.000000
  outer loop
   vertex 4797.500000 -450.000000 -870.000000
   vertex 5997.500000 450.000000 -870.000000
   vertex 5997.500000 -450.000000 -870.000000
  endloop
 endfacet
 facet normal 0.000000 0.000000 -1.000000
  outer loop
   vertex 4797.500000 -450.000000 -870.000000
   vertex 4797.500000 450.000000 -870.000000
   vertex 5997.500000 450.000000 -870.000000
  endloop
 endfacet
 facet normal 0.000000 1.000000 0.000000
  outer loop
   vertex 4797.500000 -450.000000 -900.000000
   vertex 4797.500000 -450.000000 -870.000000
   vertex 5997.500000 -450.000000 -870.000000
  endloop
 endfacet
 facet normal 0.000000 1.000000 0.000000
  outer loop
   vertex 4797.500000 -450.000000 -900.000000
   vertex 5997.500000 -450.000000 -870.000000
   vertex 5997.500000 -450.000000 -900.000000
  endloop
 endfacet
 facet normal -1.000000 0.000000 0.000000
  outer loop
   vertex 5997.500000 -450.000000 -900.000000
   vertex 5997.500000 -450.000000 -870.000000
   vertex 5997.500000 450.000000 -870.000000
  endloop
 endfacet
 facet normal -1.000000 0.000000 0.000000
  outer loop
   vertex 5997.500000 -450.000000 -900.000000
   vertex 5997.500000 450.000000 -870.000000
   vertex 5997.500000 450.000000 -900.000000
  endloop
 endfacet
 facet normal 0.000000 -1.000000 0.000000
  outer loop
   vertex 5997.500000 450.000000 -900.000000
   vertex 5997.500000 450.000000 -870.000000
   vertex 4797.500000 450.000000 -870.000000
  endloop
 endfacet
 facet normal 0.000000 -1.000000 0.000000
  outer loop
   vertex 5997.500000 450.000000 -900.000000
   vertex 4797.500000 450.000000 -870.000000
   vertex 4797.500000 450.000000 -900.000000
  endloop
 endfacet
 facet normal 1.000000 0.000000 -0.000000
  outer loop
   vertex 4797.500000 450.000000 -900.000000
   vertex 4797.500000 450.000000 -870.000000
   vertex 4797.500000 -450.000000 -870.000000
  endloop
 endfacet
 facet normal 1.000000 0.000000 0.000000
  outer loop
   vertex 4797.500000 450.000000 -900.000000
   vertex 4797.500000 -450.000000 -870.000000
   vertex 4797.500000 -450.000000 -900.000000
  endloop
 endfacet
endsolid SIC_FIN_0
