solid F1_HEATSHIELD
 facet normal 0.999048 0.043619 0.000000
  outer loop
   vertex 3350.000000 2165.000000 -400.000000
   vertex 3342.008866 2348.027060 -400.000000
   vertex 3342.008866 2348.027060 -280.000000
  endloop
 endfacet
 facet normal 0.999048 0.043619 -0.000000
  outer loop
   vertex 3350.000000 2165.000000 -400.000000
   vertex 3342.008866 2348.027060 -280.000000
   vertex 3350.000000 2165.000000 -280.000000
  endloop
 endfacet
 facet normal 0.991445 0.130526 0.000000
  outer loop
   vertex 3342.008866 2348.027060 -400.000000
   vertex 3318.096281 2529.661173 -400.000000
   vertex 3318.096281 2529.661173 -280.000000
  endloop
 endfacet
 facet normal 0.991445 0.130526 -0.000000
  outer loop
   vertex 3342.008866 2348.027060 -400.000000
   vertex 3318.096281 2529.661173 -280.000000
   vertex 3342.008866 2348.027060 -280.000000
  endloop
 endfacet
 facet normal 0.976296 0.216440 0.000000
  outer loop
   vertex 3318.096281 2529.661173 -400.000000
   vertex 3278.444235 2708.519995 -400.000000
   vertex 3278.444235 2708.519995 -280.000000
  endloop
 endfacet
 facet normal 0.976296 0.216440 -0.000000
  outer loop
   vertex 3318.096281 2529.661173 -400.000000
   vertex 3278.444235 2708.519995 -280.000000
   vertex 3318.096281 2529.661173 -280.000000
  endloop
 endfacet
 facet normal 0.953717 0.300706 0.000000
  outer loop
   vertex 3278.444235 2708.519995 -400.000000
   vertex 3223.354504 2883.242301 -400.000000
   vertex 3223.354504 2883.242301 -280.000000
  endloop
 endfacet
 facet normal 0.953717 0.300706 -0.000000
  outer loop
   vertex 3278.444235 2708.519995 -400.000000
   vertex 3223.354504 2883.242301 -280.000000
   vertex 3278.444235 2708.519995 -280.000000
  endloop
 endfacet
 facet normal 0.923880 0.382683 0.000000
  outer loop
   vertex 3223.354504 2883.242301 -400.000000
   vertex 3153.246353 3052.498350 -400.000000
   vertex 3153.246353 3052.498350 -280.000000
  endloop
 endfacet
 facet normal 0.923880 0.382683 -0.000000
  outer loop
   vertex 3223.354504 2883.242301 -400.000000
   vertex 3153.246353 3052.498350 -280.000000
   vertex 3223.354504 2883.242301 -280.000000
  endloop
 endfacet
 facet normal 0.887011 0.461749 0.000000
  outer loop
   vertex 3153.246353 3052.498350 -400.000000
   vertex 3068.653348 3215.000000 -400.000000
   vertex 3068.653348 3215.000000 -280.000000
  endloop
 endfacet
 facet normal 0.887011 0.461749 -0.000000
  outer loop
   vertex 3153.246353 3052.498350 -400.000000
   vertex 3068.653348 3215.000000 -280.000000
   vertex 3153.246353 3052.498350 -280.000000
  endloop
 endfacet
 facet normal 0.843391 0.537300 0.000000
  outer loop
   vertex 3068.653348 3215.000000 -400.000000
   vertex 2970.219293 3369.510516 -400.000000
   vertex 2970.219293 3369.510516 -280.000000
  endloop
 endfacet
 facet normal 0.843391 0.537300 -0.000000
  outer loop
   vertex 3068.653348 3215.000000 -400.000000
   vertex 2970.219293 3369.510516 -280.000000
   vertex 3068.653348 3215.000000 -280.000000
  endloop
 endfacet
 facet normal 0.793353 0.608761 0.000000
  outer loop
   vertex 2970.219293 3369.510516 -400.000000
   vertex 2858.693331 3514.853980 -400.000000
   vertex 2858.693331 3514.853980 -280.000000
  endloop
 endfacet
 facet normal 0.793353 0.608761 -0.000000
  outer loop
   vertex 2970.219293 3369.510516 -400.000000
   vertex 2858.693331 3514.853980 -280.000000
   vertex 2970.219293 3369.510516 -280.000000
  endloop
 endfacet
 facet normal 0.737277 0.675590 0.000000
  outer loop
   vertex 2858.693331 3514.853980 -400.000000
   vertex 2734.924240 3649.924240 -400.000000
   vertex 2734.924240 3649.924240 -280.000000
  endloop
 endfacet
 facet normal 0.737277 0.675590 -0.000000
  outer loop
   vertex 2858.693331 3514.853980 -400.000000
   vertex 2734.924240 3649.924240 -280.000000
   vertex 2858.693331 3514.853980 -280.000000
  endloop
 endfacet
 facet normal 0.675590 0.737277 0.000000
  outer loop
   vertex 2734.924240 3649.924240 -400.000000
   vertex 2599.853980 3773.693331 -400.000000
   vertex 2599.853980 3773.693331 -280.000000
  endloop
 endfacet
 facet normal 0.675590 0.737277 -0.000000
  outer loop
   vertex 2734.924240 3649.924240 -400.000000
   vertex 2599.853980 3773.693331 -280.000000
   vertex 2734.924240 3649.924240 -280.000000
  endloop
 endfacet
 facet normal 0.608761 0.793353 0.000000
  outer loop
   vertex 2599.853980 3773.693331 -400.000000
   vertex 2454.510516 3885.219293 -400.000000
   vertex 2454.510516 3885.219293 -280.000000
  endloop
 endfacet
 facet normal 0.608761 0.793353 -0.000000
  outer loop
   vertex 2599.853980 3773.693331 -400.000000
   vertex 2454.510516 3885.219293 -280.000000
   vertex 2599.853980 3773.693331 -280.000000
  endloop
 endfacet
 facet normal 0.537300 0.843391 0.000000
  outer loop
   vertex 2454.510516 3885.219293 -400.000000
   vertex 2300.000000 3983.653348 -400.000000
   vertex 2300.000000 3983.653348 -280.000000
  endloop
 endfacet
 facet normal 0.537300 0.843391 -0.000000
  outer loop
   vertex 2454.510516 3885.219293 -400.000000
   vertex 2300.000000 3983.653348 -280.000000
   vertex 2454.510516 3885.219293 -280.000000
  endloop
 endfacet
 facet normal 0.461749 0.887011 0.000000
  outer loop
   vertex 2300.000000 3983.653348 -400.000000
   vertex 2137.498350 4068.246353 -400.000000
   vertex 2137.498350 4068.246353 -280.000000
  endloop
 endfacet
 facet normal 0.461749 0.887011 -0.000000
  outer loop
   vertex 2300.000000 3983.653348 -400.000000
   vertex 2137.498350 4068.246353 -280.000000
   vertex 2300.000000 3983.653348 -280.000000
  endloop
 endfacet
 facet normal 0.382683 0.923880 0.000000
  outer loop
   vertex 2137.498350 4068.246353 -400.000000
   vertex 1968.242301 4138.354504 -400.000000
   vertex 1968.242301 4138.354504 -280.000000
  endloop
 endfacet
 facet normal 0.382683 0.923880 -0.000000
  outer loop
   vertex 2137.498350 4068.246353 -400.000000
   vertex 1968.242301 4138.354504 -280.000000
   vertex 2137.498350 4068.246353 -280.000000
  endloop
 endfacet
 facet normal 0.300706 0.953717 0.000000
  outer loop
   vertex 1968.242301 4138.354504 -400.000000
   vertex 1793.519995 4193.444235 -400.000000
   vertex 1793.519995 4193.444235 -280.000000
  endloop
 endfacet
 facet normal 0.300706 0.953717 -0.000000
  outer loop
   vertex 1968.242301 4138.354504 -400.000000
   vertex 1793.519995 4193.444235 -280.000000
   vertex 1968.242301 4138.354504 -280.000000
  endloop
 endfacet
 facet normal 0.216440 0.976296 0.000000
  outer loop
   vertex 1793.519995 4193.444235 -400.000000
   vertex 1614.661173 4233.096281 -400.000000
   vertex 1614.661173 4233.096281 -280.000000
  endloop
 endfacet
 facet normal 0.216440 0.976296 -0.000000
  outer loop
   vertex 1793.519995 4193.444235 -400.000000
   vertex 1614.661173 4233.096281 -280.000000
   vertex 1793.519995 4193.444235 -280.000000
  endloop
 endfacet
 facet normal 0.130526 0.991445 0.000000
  outer loop
   vertex 1614.661173 4233.096281 -400.000000
   vertex 1433.027060 4257.008866 -400.000000
   vertex 1433.027060 4257.008866 -280.000000
  endloop
 endfacet
 facet normal 0.130526 0.991445 -0.000000
  outer loop
   vertex 1614.661173 4233.096281 -400.000000
   vertex 1433.027060 4257.008866 -280.000000
   vertex 1614.661173 4233.096281 -280.000000
  endloop
 endfacet
 facet normal 0.043619 0.999048 0.000000
  outer loop
   vertex 1433.027060 4257.008866 -400.000000
   vertex 1250.000000 4265.000000 -400.000000
   vertex 1250.000000 4265.000000 -280.000000
  endloop
 endfacet
 facet normal 0.043619 0.999048 -0.000000
  outer loop
   vertex 1433.027060 4257.008866 -400.000000
   vertex 1250.000000 4265.000000 -280.000000
   vertex 1433.027060 4257.008866 -280.000000
  endloop
 endfacet
 facet normal -0.043619 0.999048 0.000000
  outer loop
   vertex 1250.000000 4265.000000 -400.000000
   vertex 1066.972940 4257.008866 -400.000000
   vertex 1066.972940 4257.008866 -280.000000
  endloop
 endfacet
 facet normal -0.043619 0.999048 0.000000
  outer loop
   vertex 1250.000000 4265.000000 -400.000000
   vertex 1066.972940 4257.008866 -280.000000
   vertex 1250.000000 4265.000000 -280.000000
  endloop
 endfacet
 facet normal -0.130526 0.991445 0.000000
  outer loop
   vertex 1066.972940 4257.008866 -400.000000
   vertex 885.338827 4233.096281 -400.000000
   vertex 885.338827 4233.096281 -280.000000
  endloop
 endfacet
 facet normal -0.130526 0.991445 0.000000
  outer loop
   vertex 1066.972940 4257.008866 -400.000000
   vertex 885.338827 4233.096281 -280.000000
   vertex 1066.972940 4257.008866 -280.000000
  endloop
 endfacet
 facet normal -0.216440 0.976296 0.000000
  outer loop
   vertex 885.338827 4233.096281 -400.000000
   vertex 706.480005 4193.444235 -400.000000
   vertex 706.480005 4193.444235 -280.000000
  endloop
 endfacet
 facet normal -0.216440 0.976296 0.000000
  outer loop
   vertex 885.338827 4233.096281 -400.000000
   vertex 706.480005 4193.444235 -280.000000
   vertex 885.338827 4233.096281 -280.000000
  endloop
 endfacet
 facet normal -0.300706 0.953717 0.000000
  outer loop
   vertex 706.480005 4193.444235 -400.000000
   vertex 531.757699 4138.354504 -400.000000
   vertex 531.757699 4138.354504 -280.000000
  endloop
 endfacet
 facet normal -0.300706 0.953717 0.000000
  outer loop
   vertex 706.480005 4193.444235 -400.000000
   vertex 531.757699 4138.354504 -280.000000
   vertex 706.480005 4193.444235 -280.000000
  endloop
 endfacet
 facet normal -0.382683 0.923880 0.000000
  outer loop
   vertex 531.757699 4138.354504 -400.000000
   vertex 362.501650 4068.246353 -400.000000
   vertex 362.501650 4068.246353 -280.000000
  endloop
 endfacet
 facet normal -0.382683 0.923880 0.000000
  outer loop
   vertex 531.757699 4138.354504 -400.000000
   vertex 362.501650 4068.246353 -280.000000
   vertex 531.757699 4138.354504 -280.000000
  endloop
 endfacet
 facet normal -0.461749 0.887011 0.000000
  outer loop
   vertex 362.501650 4068.246353 -400.000000
   vertex 200.000000 3983.653348 -400.000000
   vertex 200.000000 3983.653348 -280.000000
  endloop
 endfacet
 facet normal -0.461749 0.887011 0.000000
  outer loop
   vertex 362.501650 4068.246353 -400.000000
   vertex 200.000000 3983.653348 -280.000000
   vertex 362.501650 4068.246353 -280.000000
  endloop
 endfacet
 facet normal -0.537300 0.843391 0.000000
  outer loop
   vertex 200.000000 3983.653348 -400.000000
   vertex 45.489484 3885.219293 -400.000000
   vertex 45.489484 3885.219293 -280.000000
  endloop
 endfacet
 facet normal -0.537300 0.843391 0.000000
  outer loop
   vertex 200.000000 3983.653348 -400.000000
   vertex 45.489484 3885.219293 -280.000000
   vertex 200.000000 3983.653348 -280.000000
  endloop
 endfacet
 facet normal -0.608761 0.793353 0.000000
  outer loop
   vertex 45.489484 3885.219293 -400.000000
   vertex -99.853980 3773.693331 -400.000000
   vertex -99.853980 3773.693331 -280.000000
  endloop
 endfacet
 facet normal -0.608761 0.793353 0.000000
  outer loop
   vertex 45.489484 3885.219293 -400.000000
   vertex -99.853980 3773.693331 -280.000000
   vertex 45.489484 3885.219293 -280.000000
  endloop
 endfacet
 facet normal -0.675590 0.737277 0.000000
  outer loop
   vertex -99.853980 3773.693331 -400.000000
   vertex -234.924240 3649.924240 -400.000000
   vertex -234.924240 3649.924240 -280.000000
  endloop
 endfacet
 facet normal -0.675590 0.737277 0.000000
  outer loop
   vertex -99.853980 3773.693331 -400.000000
   vertex -234.924240 3649.924240 -280.000000
   vertex -99.853980 3773.693331 -280.000000
  endloop
 endfacet
 facet normal -0.737277 0.675590 0.000000
  outer loop
   vertex -234.924240 3649.924240 -400.000000
   vertex -358.693331 3514.853980 -400.000000
   vertex -358.693331 3514.853980 -280.000000
  endloop
 endfacet
 facet normal -0.737277 0.675590 0.000000
  outer loop
   vertex -234.924240 3649.924240 -400.000000
   vertex -358.693331 3514.853980 -280.000000
   vertex -234.924240 3649.924240 -280.000000
  endloop
 endfacet
 facet normal -0.793353 0.608761 0.000000
  outer loop
   vertex -358.693331 3514.853980 -400.000000
   vertex -470.219293 3369.510516 -400.000000
   vertex -470.219293 3369.510516 -280.000000
  endloop
 endfacet
 facet normal -0.793353 0.608761 0.000000
  outer loop
   vertex -358.693331 3514.853980 -400.000000
   vertex -470.219293 3369.510516 -280.000000
   vertex -358.693331 3514.853980 -280.000000
  endloop
 endfacet
 facet normal -0.843391 0.537300 0.000000
  outer loop
   vertex -470.219293 3369.510516 -400.000000
   vertex -568.653348 3215.000000 -400.000000
   vertex -568.653348 3215.000000 -280.000000
  endloop
 endfacet
 facet normal -0.843391 0.537300 0.000000
  outer loop
   vertex -470.219293 3369.510516 -400.000000
   vertex -568.653348 3215.000000 -280.000000
   vertex -470.219293 3369.510516 -280.000000
  endloop
 endfacet
 facet normal -0.887011 0.461749 0.000000
  outer loop
   vertex -568.653348 3215.000000 -400.000000
   vertex -653.246353 3052.498350 -400.000000
   vertex -653.246353 3052.498350 -280.000000
  endloop
 endfacet
 facet normal -0.887011 0.461749 0.000000
  outer loop
   vertex -568.653348 3215.000000 -400.000000
   vertex -653.246353 3052.498350 -280.000000
   vertex -568.653348 3215.000000 -280.000000
  endloop
 endfacet
 facet normal -0.923880 0.382683 0.000000
  outer loop
   vertex -653.246353 3052.498350 -400.000000
   vertex -723.354504 2883.242301 -400.000000
   vertex -723.354504 2883.242301 -280.000000
  endloop
 endfacet
 facet normal -0.923880 0.382683 0.000000
  outer loop
   vertex -653.246353 3052.498350 -400.000000
   vertex -723.354504 2883.242301 -280.000000
   vertex -653.246353 3052.498350 -280.000000
  endloop
 endfacet
 facet normal -0.953717 0.300706 0.000000
  outer loop
   vertex -723.354504 2883.242301 -400.000000
   vertex -778.444235 2708.519995 -400.000000
   vertex -778.444235 2708.519995 -280.000000
  endloop
 endfacet
 facet normal -0.953717 0.300706 0.000000
  outer loop
   vertex -723.354504 2883.242301 -400.000000
   vertex -778.444235 2708.519995 -280.000000
   vertex -723.354504 2883.242301 -280.000000
  endloop
 endfacet
 facet normal -0.976296 0.216440 0.000000
  outer loop
   vertex -778.444235 2708.519995 -400.000000
   vertex -818.096281 2529.661173 -400.000000
   vertex -818.096281 2529.661173 -280.000000
  endloop
 endfacet
 facet normal -0.976296 0.216440 0.000000
  outer loop
   vertex -778.444235 2708.519995 -400.000000
   vertex -818.096281 2529.661173 -280.000000
   vertex -778.444235 2708.519995 -280.000000
  endloop
 endfacet
 facet normal -0.991445 0.130526 0.000000
  outer loop
   vertex -818.096281 2529.661173 -400.000000
   vertex -842.008866 2348.027060 -400.000000
   vertex -842.008866 2348.027060 -280.000000
  endloop
 endfacet
 facet normal -0.991445 0.130526 0.000000
  outer loop
   vertex -818.096281 2529.661173 -400.000000
   vertex -842.008866 2348.027060 -280.000000
   vertex -818.096281 2529.661173 -280.000000
  endloop
 endfacet
 facet normal -0.999048 0.043619 0.000000
  outer loop
   vertex -842.008866 2348.027060 -400.000000
   vertex -850.000000 2165.000000 -400.000000
   vertex -850.000000 2165.000000 -280.000000
  endloop
 endfacet
 facet normal -0.999048 0.043619 0.000000
  outer loop
   vertex -842.008866 2348.027060 -400.000000
   vertex -850.000000 2165.000000 -280.000000
   vertex -842.008866 2348.027060 -280.000000
  endloop
 endfacet
 facet normal -0.999048 -0.043619 0.000000
  outer loop
   vertex -850.000000 2165.000000 -400.000000
   vertex -842.008866 1981.972940 -400.000000
   vertex -842.008866 1981.972940 -280.000000
  endloop
 endfacet
 facet normal -0.999048 -0.043619 0.000000
  outer loop
   vertex -850.000000 2165.000000 -400.000000
   vertex -842.008866 1981.972940 -280.000000
   vertex -850.000000 2165.000000 -280.000000
  endloop
 endfacet
 facet normal -0.991445 -0.130526 0.000000
  outer loop
   vertex -842.008866 1981.972940 -400.000000
   vertex -818.096281 1800.338827 -400.000000
   vertex -818.096281 1800.338827 -280.000000
  endloop
 endfacet
 facet normal -0.991445 -0.130526 0.000000
  outer loop
   vertex -842.008866 1981.972940 -400.000000
   vertex -818.096281 1800.338827 -280.000000
   vertex -842.008866 1981.972940 -280.000000
  endloop
 endfacet
 facet normal -0.976296 -0.216440 0.000000
  outer loop
   vertex -818.096281 1800.338827 -400.000000
   vertex -778.444235 1621.480005 -400.000000
   vertex -778.444235 1621.480005 -280.000000
  endloop
 endfacet
 facet normal -0.976296 -0.216440 0.000000
  outer loop
   vertex -818.096281 1800.338827 -400.000000
   vertex -778.444235 1621.480005 -280.000000
   vertex -818.096281 1800.338827 -280.000000
  endloop
 endfacet
 facet normal -0.953717 -0.300706 0.000000
  outer loop
   vertex -778.444235 1621.480005 -400.000000
   vertex -723.354504 1446.757699 -400.000000
   vertex -723.354504 1446.757699 -280.000000
  endloop
 endfacet
 facet normal -0.953717 -0.300706 0.000000
  outer loop
   vertex -778.444235 1621.480005 -400.000000
   vertex -723.354504 1446.757699 -280.000000
   vertex -778.444235 1621.480005 -280.000000
  endloop
 endfacet
 facet normal -0.923880 -0.382683 0.000000
  outer loop
   vertex -723.354504 1446.757699 -400.000000
   vertex -653.246353 1277.501650 -400.000000
   vertex -653.246353 1277.501650 -280.000000
  endloop
 endfacet
 facet normal -0.923880 -0.382683 0.000000
  outer loop
   vertex -723.354504 1446.757699 -400.000000
   vertex -653.246353 1277.501650 -280.000000
   vertex -723.354504 1446.757699 -280.000000
  endloop
 endfacet
 facet normal -0.887011 -0.461749 0.000000
  outer loop
   vertex -653.246353 1277.501650 -400.000000
   vertex -568.653348 1115.000000 -400.000000
   vertex -568.653348 1115.000000 -280.000000
  endloop
 endfacet
 facet normal -0.887011 -0.461749 0.000000
  outer loop
   vertex -653.246353 1277.501650 -400.000000
   vertex -568.653348 1115.000000 -280.000000
   vertex -653.246353 1277.501650 -280.000000
  endloop
 endfacet
 facet normal -0.843391 -0.537300 0.000000
  outer loop
   vertex -568.653348 1115.000000 -400.000000
   vertex -470.219293 960.489484 -400.000000
   vertex -470.219293 960.489484 -280.000000
  endloop
 endfacet
 facet normal -0.843391 -0.537300 0.000000
  outer loop
   vertex -568.653348 1115.000000 -400.000000
   vertex -470.219293 960.489484 -280.000000
   vertex -568.653348 1115.000000 -280.000000
  endloop
 endfacet
 facet normal -0.793353 -0.608761 0.000000
  outer loop
   vertex -470.219293 960.489484 -400.000000
   vertex -358.693331 815.146020 -400.000000
   vertex -358.693331 815.146020 -280.000000
  endloop
 endfacet
 facet normal -0.793353 -0.608761 0.000000
  outer loop
   vertex -470.219293 960.489484 -400.000000
   vertex -358.693331 815.146020 -280.000000
   vertex -470.219293 960.489484 -280.000000
  endloop
 endfacet
 facet normal -0.737277 -0.675590 0.000000
  outer loop
   vertex -358.693331 815.146020 -400.000000
   vertex -234.924240 680.075760 -400.000000
   vertex -234.924240 680.075760 -280.000000
  endloop
 endfacet
 facet normal -0.737277 -0.675590 0.000000
  outer loop
   vertex -358.693331 815.146020 -400.000000
   vertex -234.924240 680.075760 -280.000000
   vertex -358.693331 815.146020 -280.000000
  endloop
 endfacet
 facet normal -0.675590 -0.737277 0.000000
  outer loop
   vertex -234.924240 680.075760 -400.000000
   vertex -99.853980 556.306669 -400.000000
   vertex -99.853980 556.306669 -280.000000
  endloop
 endfacet
 facet normal -0.675590 -0.737277 0.000000
  outer loop
   vertex -234.924240 680.075760 -400.000000
   vertex -99.853980 556.306669 -280.000000
   vertex -234.924240 680.075760 -280.000000
  endloop
 endfacet
 facet normal -0.608761 -0.793353 0.000000
  outer loop
   vertex -99.853980 556.306669 -400.000000
   vertex 45.489484 444.780707 -400.000000
   vertex 45.489484 444.780707 -280.000000
  endloop
 endfacet
 facet normal -0.608761 -0.793353 0.000000
  outer loop
   vertex -99.853980 556.306669 -400.000000
   vertex 45.489484 444.780707 -280.000000
   vertex -99.853980 556.306669 -280.000000
  endloop
 endfacet
 facet normal -0.537300 -0.843391 0.000000
  outer loop
   vertex 45.489484 444.780707 -400.000000
   vertex 200.000000 346.346652 -400.000000
   vertex 200.000000 346.346652 -280.000000
  endloop
 endfacet
 facet normal -0.537300 -0.843391 0.000000
  outer loop
   vertex 45.489484 444.780707 -400.000000
   vertex 200.000000 346.346652 -280.000000
   vertex 45.489484 444.780707 -280.000000
  endloop
 endfacet
 facet normal -0.461749 -0.887011 0.000000
  outer loop
   vertex 200.000000 346.346652 -400.000000
   vertex 362.501650 261.753647 -400.000000
   vertex 362.501650 261.753647 -280.000000
  endloop
 endfacet
 facet normal -0.461749 -0.887011 0.000000
  outer loop
   vertex 200.000000 346.346652 -400.000000
   vertex 362.501650 261.753647 -280.000000
   vertex 200.000000 346.346652 -280.000000
  endloop
 endfacet
 facet normal -0.382683 -0.923880 0.000000
  outer loop
   vertex 362.501650 261.753647 -400.000000
   vertex 531.757699 191.645496 -400.000000
   vertex 531.757699 191.645496 -280.000000
  endloop
 endfacet
 facet normal -0.382683 -0.923880 0.000000
  outer loop
   vertex 362.501650 261.753647 -400.000000
   vertex 531.757699 191.645496 -280.000000
   vertex 362.501650 261.753647 -280.000000
  endloop
 endfacet
 facet normal -0.300706 -0.953717 0.000000
  outer loop
   vertex 531.757699 191.645496 -400.000000
   vertex 706.480005 136.555765 -400.000000
   vertex 706.480005 136.555765 -280.000000
  endloop
 endfacet
 facet normal -0.300706 -0.953717 0.000000
  outer loop
   vertex 531.757699 191.645496 -400.000000
   vertex 706.480005 136.555765 -280.000000
   vertex 531.757699 191.645496 -280.000000
  endloop
 endfacet
 facet normal -0.216440 -0.976296 0.000000
  outer loop
   vertex 706.480005 136.555765 -400.000000
   vertex 885.338827 96.903719 -400.000000
   vertex 885.338827 96.903719 -280.000000
  endloop
 endfacet
 facet normal -0.216440 -0.976296 0.000000
  outer loop
   vertex 706.480005 136.555765 -400.000000
   vertex 885.338827 96.903719 -280.000000
   vertex 706.480005 136.555765 -280.000000
  endloop
 endfacet
 facet normal -0.130526 -0.991445 0.000000
  outer loop
   vertex 885.338827 96.903719 -400.000000
   vertex 1066.972940 72.991134 -400.000000
   vertex 1066.972940 72.991134 -280.000000
  endloop
 endfacet
 facet normal -0.130526 -0.991445 0.000000
  outer loop
   vertex 885.338827 96.903719 -400.000000
   vertex 1066.972940 72.991134 -280.000000
   vertex 885.338827 96.903719 -280.000000
  endloop
 endfacet
 facet normal -0.043619 -0.999048 0.000000
  outer loop
   vertex 1066.972940 72.991134 -400.000000
   vertex 1250.000000 65.000000 -400.000000
   vertex 1250.000000 65.000000 -280.000000
  endloop
 endfacet
 facet normal -0.043619 -0.999048 0.000000
  outer loop
   vertex 1066.972940 72.991134 -400.000000
   vertex 1250.000000 65.000000 -280.000000
   vertex 1066.972940 72.991134 -280.000000
  endloop
 endfacet
 facet normal 0.043619 -0.999048 0.000000
  outer loop
   vertex 1250.000000 65.000000 -400.000000
   vertex 1433.027060 72.991134 -400.000000
   vertex 1433.027060 72.991134 -280.000000
  endloop
 endfacet
 facet normal 0.043619 -0.999048 0.000000
  outer loop
   vertex 1250.000000 65.000000 -400.000000
   vertex 1433.027060 72.991134 -280.000000
   vertex 1250.000000 65.000000 -280.000000
  endloop
 endfacet
 facet normal 0.130526 -0.991445 0.000000
  outer loop
   vertex 1433.027060 72.991134 -400.000000
   vertex 1614.661173 96.903719 -400.000000
   vertex 1614.661173 96.903719 -280.000000
  endloop
 endfacet
 facet normal 0.130526 -0.991445 0.000000
  outer loop
   vertex 1433.027060 72.991134 -400.000000
   vertex 1614.661173 96.903719 -280.000000
   vertex 1433.027060 72.991134 -280.000000
  endloop
 endfacet
 facet normal 0.216440 -0.976296 0.000000
  outer loop
   vertex 1614.661173 96.903719 -400.000000
   vertex 1793.519995 136.555765 -400.000000
   vertex 1793.519995 136.555765 -280.000000
  endloop
 endfacet
 facet normal 0.216440 -0.976296 0.000000
  outer loop
   vertex 1614.661173 96.903719 -400.000000
   vertex 1793.519995 136.555765 -280.000000
   vertex 1614.661173 96.903719 -280.000000
  endloop
 endfacet
 facet normal 0.300706 -0.953717 0.000000
  outer loop
   vertex 1793.519995 136.555765 -400.000000
   vertex 1968.242301 191.645496 -400.000000
   vertex 1968.242301 191.645496 -280.000000
  endloop
 endfacet
 facet normal 0.300706 -0.953717 0.000000
  outer loop
   vertex 1793.519995 136.555765 -400.000000
   vertex 1968.242301 191.645496 -280.000000
   vertex 1793.519995 136.555765 -280.000000
  endloop
 endfacet
 facet normal 0.382683 -0.923880 0.000000
  outer loop
   vertex 1968.242301 191.645496 -400.000000
   vertex 2137.498350 261.753647 -400.000000
   vertex 2137.498350 261.753647 -280.000000
  endloop
 endfacet
 facet normal 0.382683 -0.923880 0.000000
  outer loop
   vertex 1968.242301 191.645496 -400.000000
   vertex 2137.498350 261.753647 -280.000000
   vertex 1968.242301 191.645496 -280.000000
  endloop
 endfacet
 facet normal 0.461749 -0.887011 0.000000
  outer loop
   vertex 2137.498350 261.753647 -400.000000
   vertex 2300.000000 346.346652 -400.000000
   vertex 2300.000000 346.346652 -280.000000
  endloop
 endfacet
 facet normal 0.461749 -0.887011 0.000000
  outer loop
   vertex 2137.498350 261.753647 -400.000000
   vertex 2300.000000 346.346652 -280.000000
   vertex 2137.498350 261.753647 -280.000000
  endloop
 endfacet
 facet normal 0.537300 -0.843391 0.000000
  outer loop
   vertex 2300.000000 346.346652 -400.000000
   vertex 2454.510516 444.780707 -400.000000
   vertex 2454.510516 444.780707 -280.000000
  endloop
 endfacet
 facet normal 0.537300 -0.843391 0.000000
  outer loop
   vertex 2300.000000 346.346652 -400.000000
   vertex 2454.510516 444.780707 -280.000000
   vertex 2300.000000 346.346652 -280.000000
  endloop
 endfacet
 facet normal 0.608761 -0.793353 0.000000
  outer loop
   vertex 2454.510516 444.780707 -400.000000
   vertex 2599.853980 556.306669 -400.000000
   vertex 2599.853980 556.306669 -280.000000
  endloop
 endfacet
 facet normal 0.608761 -0.793353 0.000000
  outer loop
   vertex 2454.510516 444.780707 -400.000000
   vertex 2599.853980 556.306669 -280.000000
   vertex 2454.510516 444.780707 -280.000000
  endloop
 endfacet
 facet normal 0.675590 -0.737277 0.000000
  outer loop
   vertex 2599.853980 556.306669 -400.000000
   vertex 2734.924240 680.075760 -400.000000
   vertex 2734.924240 680.075760 -280.000000
  endloop
 endfacet
 facet normal 0.675590 -0.737277 0.000000
  outer loop
   vertex 2599.853980 556.306669 -400.000000
   vertex 2734.924240 680.075760 -280.000000
   vertex 2599.853980 556.306669 -280.000000
  endloop
 endfacet
 facet normal 0.737277 -0.675590 0.000000
  outer loop
   vertex 2734.924240 680.075760 -400.000000
   vertex 2858.693331 815.146020 -400.000000
   vertex 2858.693331 815.146020 -280.000000
  endloop
 endfacet
 facet normal 0.737277 -0.675590 0.000000
  outer loop
   vertex 2734.924240 680.075760 -400.000000
   vertex 2858.693331 815.146020 -280.000000
   vertex 2734.924240 680.075760 -280.000000
  endloop
 endfacet
 facet normal 0.793353 -0.608761 0.000000
  outer loop
   vertex 2858.693331 815.146020 -400.000000
   vertex 2970.219293 960.489484 -400.000000
   vertex 2970.219293 960.489484 -280.000000
  endloop
 endfacet
 facet normal 0.793353 -0.608761 0.000000
  outer loop
   vertex 2858.693331 815.146020 -400.000000
   vertex 2970.219293 960.489484 -280.000000
   vertex 2858.693331 815.146020 -280.000000
  endloop
 endfacet
 facet normal 0.843391 -0.537300 0.000000
  outer loop
   vertex 2970.219293 960.489484 -400.000000
   vertex 3068.653348 1115.000000 -400.000000
   vertex 3068.653348 1115.000000 -280.000000
  endloop
 endfacet
 facet normal 0.843391 -0.537300 0.000000
  outer loop
   vertex 2970.219293 960.489484 -400.000000
   vertex 3068.653348 1115.000000 -280.000000
   vertex 2970.219293 960.489484 -280.000000
  endloop
 endfacet
 facet normal 0.887011 -0.461749 0.000000
  outer loop
   vertex 3068.653348 1115.000000 -400.000000
   vertex 3153.246353 1277.501650 -400.000000
   vertex 3153.246353 1277.501650 -280.000000
  endloop
 endfacet
 facet normal 0.887011 -0.461749 0.000000
  outer loop
   vertex 3068.653348 1115.000000 -400.000000
   vertex 3153.246353 1277.501650 -280.000000
   vertex 3068.653348 1115.000000 -280.000000
  endloop
 endfacet
 facet normal 0.923880 -0.382683 0.000000
  outer loop
   vertex 3153.246353 1277.501650 -400.000000
   vertex 3223.354504 1446.757699 -400.000000
   vertex 3223.354504 1446.757699 -280.000000
  endloop
 endfacet
 facet normal 0.923880 -0.382683 0.000000
  outer loop
   vertex 3153.246353 1277.501650 -400.000000
   vertex 3223.354504 1446.757699 -280.000000
   vertex 3153.246353 1277.501650 -280.000000
  endloop
 endfacet
 facet normal 0.953717 -0.300706 0.000000
  outer loop
   vertex 3223.354504 1446.757699 -400.000000
   vertex 3278.444235 1621.480005 -400.000000
   vertex 3278.444235 1621.480005 -280.000000
  endloop
 endfacet
 facet normal 0.953717 -0.300706 0.000000
  outer loop
   vertex 3223.354504 1446.757699 -400.000000
   vertex 3278.444235 1621.480005 -280.000000
   vertex 3223.354504 1446.757699 -280.000000
  endloop
 endfacet
 facet normal 0.976296 -0.216440 0.000000
  outer loop
   vertex 3278.444235 1621.480005 -400.000000
   vertex 3318.096281 1800.338827 -400.000000
   vertex 3318.096281 1800.338827 -280.000000
  endloop
 endfacet
 facet normal 0.976296 -0.216440 0.000000
  outer loop
   vertex 3278.444235 1621.480005 -400.000000
   vertex 3318.096281 1800.338827 -280.000000
   vertex 3278.444235 1621.480005 -280.000000
  endloop
 endfacet
 facet normal 0.991445 -0.130526 0.000000
  outer loop
   vertex 3318.096281 1800.338827 -400.000000
   vertex 3342.008866 1981.972940 -400.000000
   vertex 3342.008866 1981.972940 -280.000000
  endloop
 endfacet
 facet normal 0.991445 -0.130526 0.000000
  outer loop
   vertex 3318.096281 1800.338827 -400.000000
   vertex 3342.008866 1981.972940 -280.000000
   vertex 3318.096281 1800.338827 -280.000000
  endloop
 endfacet
 facet normal 0.999048 -0.043619 0.000000
  outer loop
   vertex 3342.008866 1981.972940 -400.000000
   vertex 3350.000000 2165.000000 -400.000000
   vertex 3350.000000 2165.000000 -280.000000
  endloop
 endfacet
 facet normal 0.999048 -0.043619 0.000000
  outer loop
   vertex 3342.008866 1981.972940 -400.000000
   vertex 3350.000000 2165.000000 -280.000000
   vertex 3342.008866 1981.972940 -280.000000
  endloop
 endfacet
 facet normal 0.000000 0.000000 -1.000000
  outer loop
   vertex 1250.000000 2165.000000 -400.000000
   vertex 3342.008866 2348.027060 -400.000000
   vertex 3350.000000 2165.000000 -400.000000
  endloop
 endfacet
 facet normal 0.000000 0.000000 1.000000
  outer loop
   vertex 1250.000000 2165.000000 -280.000000
   vertex 3350.000000 2165.000000 -280.000000
   vertex 3342.008866 2348.027060 -280.000000
  endloop
 endfacet
 facet normal 0.000000 0.000000 -1.000000
  outer loop
   vertex 1250.000000 2165.000000 -400.000000
   vertex 3318.096281 2529.661173 -400.000000
   vertex 3342.008866 2348.027060 -400.000000
  endloop
 endfacet
 facet normal 0.000000 0.000000 1.000000
  outer loop
   vertex 1250.000000 2165.000000 -280.000000
   vertex 3342.008866 2348.027060 -280.000000
   vertex 3318.096281 2529.661173 -280.000000
  endloop
 endfacet
 facet normal 0.000000 0.000000 -1.000000
  outer loop
   vertex 1250.000000 2165.000000 -400.000000
   vertex 3278.444235 2708.519995 -400.000000
   vertex 3318.096281 2529.661173 -400.000000
  endloop
 endfacet
 facet normal 0.000000 0.000000 1.000000
  outer loop
   vertex 1250.000000 2165.000000 -280.000000
   vertex 3318.096281 2529.661173 -280.000000
   vertex 3278.444235 2708.519995 -280.000000
  endloop
 endfacet
 facet normal 0.000000 0.000000 -1.000000
  outer loop
   vertex 1250.000000 2165.000000 -400.000000
   vertex 3223.354504 2883.242301 -400.000000
   vertex 3278.444235 2708.519995 -400.000000
  endloop
 endfacet
 facet normal 0.000000 0.000000 1.000000
  outer loop
   vertex 1250.000000 2165.000000 -280.000000
   vertex 3278.444235 2708.519995 -280.000000
   vertex 3223.354504 2883.242301 -280.000000
  endloop
 endfacet
 facet normal 0.000000 0.000000 -1.000000
  outer loop
   vertex 1250.000000 2165.000000 -400.000000
   vertex 3153.246353 3052.498350 -400.000000
   vertex 3223.354504 2883.242301 -400.000000
  endloop
 endfacet
 facet normal 0.000000 0.000000 1.000000
  outer loop
   vertex 1250.000000 2165.000000 -280.000000
   vertex 3223.354504 2883.242301 -280.000000
   vertex 3153.246353 3052.498350 -280.000000
  endloop
 endfacet
 facet normal 0.000000 0.000000 -1.000000
  outer loop
   vertex 1250.000000 2165.000000 -400.000000
   vertex 3068.653348 3215.000000 -400.000000
   vertex 3153.246353 3052.498350 -400.000000
  endloop
 endfacet
 facet normal 0.000000 0.000000 1.000000
  outer loop
   vertex 1250.000000 2165.000000 -280.000000
   vertex 3153.246353 3052.498350 -280.000000
   vertex 3068.653348 3215.000000 -280.000000
  endloop
 endfacet
 facet normal 0.000000 0.000000 -1.000000
  outer loop
   vertex 1250.000000 2165.000000 -400.000000
   vertex 2970.219293 3369.510516 -400.000000
   vertex 3068.653348 3215.000000 -400.000000
  endloop
 endfacet
 facet normal 0.000000 0.000000 1.000000
  outer loop
   vertex 1250.000000 2165.000000 -280.000000
   vertex 3068.653348 3215.000000 -280.000000
   vertex 2970.219293 3369.510516 -280.000000
  endloop
 endfacet
 facet normal 0.000000 0.000000 -1.000000
  outer loop
   vertex 1250.000000 2165.000000 -400.000000
   vertex 2858.693331 3514.853980 -400.000000
   vertex 2970.219293 3369.510516 -400.000000
  endloop
 endfacet
 facet normal 0.000000 0.000000 1.000000
  outer loop
   vertex 1250.000000 2165.000000 -280.000000
   vertex 2970.219293 3369.510516 -280.000000
   vertex 2858.693331 3514.853980 -280.000000
  endloop
 endfacet
 facet normal 0.000000 0.000000 -1.000000
  outer loop
   vertex 1250.000000 2165.000000 -400.000000
   vertex 2734.924240 3649.924240 -400.000000
   vertex 2858.693331 3514.853980 -400.000000
  endloop
 endfacet
 facet normal 0.000000 0.000000 1.000000
  outer loop
   vertex 1250.000000 2165.000000 -280.000000
   vertex 2858.693331 3514.853980 -280.000000
   vertex 2734.924240 3649.924240 -280.000000
  endloop
 endfacet
 facet normal 0.000000 0.000000 -1.000000
  outer loop
   vertex 1250.000000 2165.000000 -400.000000
   vertex 2599.853980 3773.693331 -400.000000
   vertex 2734.924240 3649.924240 -400.000000
  endloop
 endfacet
 facet normal 0.000000 0.000000 1.000000
  outer loop
   vertex 1250.000000 2165.000000 -280.000000
   vertex 2734.924240 3649.924240 -280.000000
   vertex 2599.853980 3773.693331 -280.000000
  endloop
 endfacet
 facet normal 0.000000 0.000000 -1.000000
  outer loop
   vertex 1250.000000 2165.000000 -400.000000
   vertex 2454.510516 3885.219293 -400.000000
   vertex 2599.853980 3773.693331 -400.000000
  endloop
 endfacet
 facet normal 0.000000 0.000000 1.000000
  outer loop
   vertex 1250.000000 2165.000000 -280.000000
   vertex 2599.853980 3773.693331 -280.000000
   vertex 2454.510516 3885.219293 -280.000000
  endloop
 endfacet
 facet normal 0.000000 0.000000 -1.000000
  outer loop
   vertex 1250.000000 2165.000000 -400.000000
   vertex 2300.000000 3983.653348 -400.000000
   vertex 2454.510516 3885.219293 -400.000000
  endloop
 endfacet
 facet normal 0.000000 0.000000 1.000000
  outer loop
   vertex 1250.000000 2165.000000 -280.000000
   vertex 2454.510516 3885.219293 -280.000000
   vertex 2300.000000 3983.653348 -280.000000
  endloop
 endfacet
 facet normal 0.000000 0.000000 -1.000000
  outer loop
   vertex 1250.000000 2165.000000 -400.000000
   vertex 2137.498350 4068.246353 -400.000000
   vertex 2300.000000 3983.653348 -400.000000
  endloop
 endfacet
 facet normal 0.000000 0.000000 1.000000
  outer loop
   vertex 1250.000000 2165.000000 -280.000000
   vertex 2300.000000 3983.653348 -280.000000
   vertex 2137.498350 4068.246353 -280.000000
  endloop
 endfacet
 facet normal 0.000000 0.000000 -1.000000
  outer loop
   vertex 1250.000000 2165.000000 -400.000000
   vertex 1968.242301 4138.354504 -400.000000
   vertex 2137.498350 4068.246353 -400.000000
  endloop
 endfacet
 facet normal 0.000000 0.000000 1.000000
  outer loop
   vertex 1250.000000 2165.000000 -280.000000
   vertex 2137.498350 4068.246353 -280.000000
   vertex 1968.242301 4138.354504 -280.000000
  endloop
 endfacet
 facet normal 0.000000 0.000000 -1.000000
  outer loop
   vertex 1250.000000 2165.000000 -400.000000
   vertex 1793.519995 4193.444235 -400.000000
   vertex 1968.242301 4138.354504 -400.000000
  endloop
 endfacet
 facet normal 0.000000 0.000000 1.000000
  outer loop
   vertex 1250.000000 2165.000000 -280.000000
   vertex 1968.242301 4138.354504 -280.000000
   vertex 1793.519995 4193.444235 -280.000000
  endloop
 endfacet
 facet normal 0.000000 0.000000 -1.000000
  outer loop
   vertex 1250.000000 2165.000000 -400.000000
   vertex 1614.661173 4233.096281 -400.000000
   vertex 1793.519995 4193.444235 -400.000000
  endloop
 endfacet
 facet normal 0.000000 0.000000 1.000000
  outer loop
   vertex 1250.000000 2165.000000 -280.000000
   vertex 1793.519995 4193.444235 -280.000000
   vertex 1614.661173 4233.096281 -280.000000
  endloop
 endfacet
 facet normal 0.000000 0.000000 -1.000000
  outer loop
   vertex 1250.000000 2165.000000 -400.000000
   vertex 1433.027060 4257.008866 -400.000000
   vertex 1614.661173 4233.096281 -400.000000
  endloop
 endfacet
 facet normal 0.000000 0.000000 1.000000
  outer loop
   vertex 1250.000000 2165.000000 -280.000000
   vertex 1614.661173 4233.096281 -280.000000
   vertex 1433.027060 4257.008866 -280.000000
  endloop
 endfacet
 facet normal 0.000000 0.000000 -1.000000
  outer loop
   vertex 1250.000000 2165.000000 -400.000000
   vertex 1250.000000 4265.000000 -400.000000
   vertex 1433.027060 4257.008866 -400.000000
  endloop
 endfacet
 facet normal 0.000000 0.000000 1.000000
  outer loop
   vertex 1250.000000 2165.000000 -280.000000
   vertex 1433.027060 4257.008866 -280.000000
   vertex 1250.000000 4265.000000 -280.000000
  endloop
 endfacet
 facet normal 0.000000 0.000000 -1.000000
  outer loop
   vertex 1250.000000 2165.000000 -400.000000
   vertex 1066.972940 4257.008866 -400.000000
   vertex 1250.000000 4265.000000 -400.000000
  endloop
 endfacet
 facet normal 0.000000 -0.000000 1.000000
  outer loop
   vertex 1250.000000 2165.000000 -280.000000
   vertex 1250.000000 4265.000000 -280.000000
   vertex 1066.972940 4257.008866 -280.000000
  endloop
 endfacet
 facet normal 0.000000 0.000000 -1.000000
  outer loop
   vertex 1250.000000 2165.000000 -400.000000
   vertex 885.338827 4233.096281 -400.000000
   vertex 1066.972940 4257.008866 -400.000000
  endloop
 endfacet
 facet normal 0.000000 0.000000 1.000000
  outer loop
   vertex 1250.000000 2165.000000 -280.000000
   vertex 1066.972940 4257.008866 -280.000000
   vertex 885.338827 4233.096281 -280.000000
  endloop
 endfacet
 facet normal 0.000000 0.000000 -1.000000
  outer loop
   vertex 1250.000000 2165.000000 -400.000000
   vertex 706.480005 4193.444235 -400.000000
   vertex 885.338827 4233.096281 -400.000000
  endloop
 endfacet
 facet normal 0.000000 0.000000 1.000000
  outer loop
   vertex 1250.000000 2165.000000 -280.000000
   vertex 885.338827 4233.096281 -280.000000
   vertex 706.480005 4193.444235 -280.000000
  endloop
 endfacet
 facet normal 0.000000 0.000000 -1.000000
  outer loop
   vertex 1250.000000 2165.000000 -400.000000
   vertex 531.757699 4138.354504 -400.000000
   vertex 706.480005 4193.444235 -400.000000
  endloop
 endfacet
 facet normal 0.000000 0.000000 1.000000
  outer loop
   vertex 1250.000000 2165.000000 -280.000000
   vertex 706.480005 4193.444235 -280.000000
   vertex 531.757699 4138.354504 -280.000000
  endloop
 endfacet
 facet normal 0.000000 0.000000 -1.000000
  outer loop
   vertex 1250.000000 2165.000000 -400.000000
   vertex 362.501650 4068.246353 -400.000000
   vertex 531.757699 4138.354504 -400.000000
  endloop
 endfacet
 facet normal 0.000000 0.000000 1.000000
  outer loop
   vertex 1250.000000 2165.000000 -280.000000
   vertex 531.757699 4138.354504 -280.000000
   vertex 362.501650 4068.246353 -280.000000
  endloop
 endfacet
 facet normal 0.000000 0.000000 -1.000000
  outer loop
   vertex 1250.000000 2165.000000 -400.000000
   vertex 200.000000 3983.653348 -400.000000
   vertex 362.501650 4068.246353 -400.000000
  endloop
 endfacet
 facet normal 0.000000 0.000000 1.000000
  outer loop
   vertex 1250.000000 2165.000000 -280.000000
   vertex 362.501650 4068.246353 -280.000000
   vertex 200.000000 3983.653348 -280.000000
  endloop
 endfacet
 facet normal 0.000000 0.000000 -1.000000
  outer loop
   vertex 1250.000000 2165.000000 -400.000000
   vertex 45.489484 3885.219293 -400.000000
   vertex 200.000000 3983.653348 -400.000000
  endloop
 endfacet
 facet normal 0.000000 0.000000 1.000000
  outer loop
   vertex 1250.000000 2165.000000 -280.000000
   vertex 200.000000 3983.653348 -280.000000
   vertex 45.489484 3885.219293 -280.000000
  endloop
 endfacet
 facet normal 0.000000 0.000000 -1.000000
  outer loop
   vertex 1250.000000 2165.000000 -400.000000
   vertex -99.853980 3773.693331 -400.000000
   vertex 45.489484 3885.219293 -400.000000
  endloop
 endfacet
 facet normal 0.000000 0.000000 1.000000
  outer loop
   vertex 1250.000000 2165.000000 -280.000000
   vertex 45.489484 3885.219293 -280.000000
   vertex -99.853980 3773.693331 -280.000000
  endloop
 endfacet
 facet normal 0.000000 0.000000 -1.000000
  outer loop
   vertex 1250.000000 2165.000000 -400.000000
   vertex -234.924240 3649.924240 -400.000000
   vertex -99.853980 3773.693331 -400.000000
  endloop
 endfacet
 facet normal 0.000000 0.000000 1.000000
  outer loop
   vertex 1250.000000 2165.000000 -280.000000
   vertex -99.853980 3773.693331 -280.000000
   vertex -234.924240 3649.924240 -280.000000
  endloop
 endfacet
 facet normal 0.000000 0.000000 -1.000000
  outer loop
   vertex 1250.000000 2165.000000 -400.000000
   vertex -358.693331 3514.853980 -400.000000
   vertex -234.924240 3649.924240 -400.000000
  endloop
 endfacet
 facet normal 0.000000 0.000000 1.000000
  outer loop
   vertex 1250.000000 2165.000000 -280.000000
   vertex -234.924240 3649.924240 -280.000000
   vertex -358.693331 3514.853980 -280.000000
  endloop
 endfacet
 facet normal 0.000000 0.000000 -1.000000
  outer loop
   vertex 1250.000000 2165.000000 -400.000000
   vertex -470.219293 3369.510516 -400.000000
   vertex -358.693331 3514.853980 -400.000000
  endloop
 endfacet
 facet normal 0.000000 0.000000 1.000000
  outer loop
   vertex 1250.000000 2165.000000 -280.000000
   vertex -358.693331 3514.853980 -280.000000
   vertex -470.219293 3369.510516 -280.000000
  endloop
 endfacet
 facet normal 0.000000 0.000000 -1.000000
  outer loop
   vertex 1250.000000 2165.000000 -400.000000
   vertex -568.653348 3215.000000 -400.000000
   vertex -470.219293 3369.510516 -400.000000
  endloop
 endfacet
 facet normal 0.000000 0.000000 1.000000
  outer loop
   vertex 1250.000000 2165.000000 -280.000000
   vertex -470.219293 3369.510516 -280.000000
   vertex -568.653348 3215.000000 -280.000000
  endloop
 endfacet
 facet normal 0.000000 0.000000 -1.000000
  outer loop
   vertex 1250.000000 2165.000000 -400.000000
   vertex -653.246353 3052.498350 -400.000000
   vertex -568.653348 3215.000000 -400.000000
  endloop
 endfacet
 facet normal 0.000000 0.000000 1.000000
  outer loop
   vertex 1250.000000 2165.000000 -280.000000
   vertex -568.653348 3215.000000 -280.000000
   vertex -653.246353 3052.498350 -280.000000
  endloop
 endfacet
 facet normal 0.000000 0.000000 -1.000000
  outer loop
   vertex 1250.000000 2165.000000 -400.000000
   vertex -723.354504 2883.242301 -400.000000
   vertex -653.246353 3052.498350 -400.000000
  endloop
 endfacet
 facet normal 0.000000 0.000000 1.000000
  outer loop
   vertex 1250.000000 2165.000000 -280.000000
   vertex -653.246353 3052.498350 -280.000000
   vertex -723.354504 2883.242301 -280.000000
  endloop
 endfacet
 facet normal 0.000000 0.000000 -1.000000
  outer loop
   vertex 1250.000000 2165.000000 -400.000000
   vertex -778.444235 2708.519995 -400.000000
   vertex -723.354504 2883.242301 -400.000000
  endloop
 endfacet
 facet normal 0.000000 0.000000 1.000000
  outer loop
   vertex 1250.000000 2165.000000 -280.000000
   vertex -723.354504 2883.242301 -280.000000
   vertex -778.444235 2708.519995 -280.000000
  endloop
 endfacet
 facet normal 0.000000 0.000000 -1.000000
  outer loop
   vertex 1250.000000 2165.000000 -400.000000
   vertex -818.096281 2529.661173 -400.000000
   vertex -778.444235 2708.519995 -400.000000
  endloop
 endfacet
 facet normal 0.000000 0.000000 1.000000
  outer loop
   vertex 1250.000000 2165.000000 -280.000000
   vertex -778.444235 2708.519995 -280.000000
   vertex -818.096281 2529.661173 -280.000000
  endloop
 endfacet
 facet normal 0.000000 0.000000 -1.000000
  outer loop
   vertex 1250.000000 2165.000000 -400.000000
   vertex -842.008866 2348.027060 -400.000000
   vertex -818.096281 2529.661173 -400.000000
  endloop
 endfacet
 facet normal 0.000000 0.000000 1.000000
  outer loop
   vertex 1250.000000 2165.000000 -280.000000
   vertex -818.096281 2529.661173 -280.000000
   vertex -842.008866 2348.027060 -280.000000
  endloop
 endfacet
 facet normal 0.000000 0.000000 -1.000000
  outer loop
   vertex 1250.000000 2165.000000 -400.000000
   vertex -850.000000 2165.000000 -400.000000
   vertex -842.008866 2348.027060 -400.000000
  endloop
 endfacet
 facet normal 0.000000 0.000000 1.000000
  outer loop
   vertex 1250.000000 2165.000000 -280.000000
   vertex -842.008866 2348.027060 -280.000000
   vertex -850.000000 2165.000000 -280.000000
  endloop
 endfacet
 facet normal -0.000000 0.000000 -1.000000
  outer loop
   vertex 1250.000000 2165.000000 -400.000000
   vertex -842.008866 1981.972940 -400.000000
   vertex -850.000000 2165.000000 -400.000000
  endloop
 endfacet
 facet normal 0.000000 0.000000 1.000000
  outer loop
   vertex 1250.000000 2165.000000 -280.000000
   vertex -850.000000 2165.000000 -280.000000
   vertex -842.008866 1981.972940 -280.000000
  endloop
 endfacet
 facet normal 0.000000 0.000000 -1.000000
  outer loop
   vertex 1250.000000 2165.000000 -400.000000
   vertex -818.096281 1800.338827 -400.000000
   vertex -842.008866 1981.972940 -400.000000
  endloop
 endfacet
 facet normal 0.000000 0.000000 1.000000
  outer loop
   vertex 1250.000000 2165.000000 -280.000000
   vertex -842.008866 1981.972940 -280.000000
   vertex -818.096281 1800.338827 -280.000000
  endloop
 endfacet
 facet normal 0.000000 0.000000 -1.000000
  outer loop
   vertex 1250.000000 2165.000000 -400.000000
   vertex -778.444235 1621.480005 -400.000000
   vertex -818.096281 1800.338827 -400.000000
  endloop
 endfacet
 facet normal 0.000000 0.000000 1.000000
  outer loop
   vertex 1250.000000 2165.000000 -280.000000
   vertex -818.096281 1800.338827 -280.000000
   vertex -778.444235 1621.480005 -280.000000
  endloop
 endfacet
 facet normal 0.000000 0.000000 -1.000000
  outer loop
   vertex 1250.000000 2165.000000 -400.000000
   vertex -723.354504 1446.757699 -400.000000
   vertex -778.444235 1621.480005 -400.000000
  endloop
 endfacet
 facet normal 0.000000 0.000000 1.000000
  outer loop
   vertex 1250.000000 2165.000000 -280.000000
   vertex -778.444235 1621.480005 -280.000000
   vertex -723.354504 1446.757699 -280.000000
  endloop
 endfacet
 facet normal 0.000000 0.000000 -1.000000
  outer loop
   vertex 1250.000000 2165.000000 -400.000000
   vertex -653.246353 1277.501650 -400.000000
   vertex -723.354504 1446.757699 -400.000000
  endloop
 endfacet
 facet normal 0.000000 0.000000 1.000000
  outer loop
   vertex 1250.000000 2165.000000 -280.000000
   vertex -723.354504 1446.757699 -280.000000
   vertex -653.246353 1277.501650 -280.000000
  endloop
 endfacet
 facet normal 0.000000 0.000000 -1.000000
  outer loop
   vertex 1250.000000 2165.000000 -400.000000
   vertex -568.653348 1115.000000 -400.000000
   vertex -653.246353 1277.501650 -400.000000
  endloop
 endfacet
 facet normal 0.000000 0.000000 1.000000
  outer loop
   vertex 1250.000000 2165.000000 -280.000000
   vertex -653.246353 1277.501650 -280.000000
   vertex -568.653348 1115.000000 -280.000000
  endloop
 endfacet
 facet normal 0.000000 0.000000 -1.000000
  outer loop
   vertex 1250.000000 2165.000000 -400.000000
   vertex -470.219293 960.489484 -400.000000
   vertex -568.653348 1115.000000 -400.000000
  endloop
 endfacet
 facet normal 0.000000 0.000000 1.000000
  outer loop
   vertex 1250.000000 2165.000000 -280.000000
   vertex -568.653348 1115.000000 -280.000000
   vertex -470.219293 960.489484 -280.000000
  endloop
 endfacet
 facet normal 0.000000 0.000000 -1.000000
  outer loop
   vertex 1250.000000 2165.000000 -400.000000
   vertex -358.693331 815.146020 -400.000000
   vertex -470.219293 960.489484 -400.000000
  endloop
 endfacet
 facet normal 0.000000 0.000000 1.000000
  outer loop
   vertex 1250.000000 2165.000000 -280.000000
   vertex -470.219293 960.489484 -280.000000
   vertex -358.693331 815.146020 -280.000000
  endloop
 endfacet
 facet normal 0.000000 0.000000 -1.000000
  outer loop
   vertex 1250.000000 2165.000000 -400.000000
   vertex -234.924240 680.075760 -400.000000
   vertex -358.693331 815.146020 -400.000000
  endloop
 endfacet
 facet normal 0.000000 0.000000 1.000000
  outer loop
   vertex 1250.000000 2165.000000 -280.000000
   vertex -358.693331 815.146020 -280.000000
   vertex -234.924240 680.075760 -280.000000
  endloop
 endfacet
 facet normal 0.000000 0.000000 -1.000000
  outer loop
   vertex 1250.000000 2165.000000 -400.000000
   vertex -99.853980 556.306669 -400.000000
   vertex -234.924240 680.075760 -400.000000
  endloop
 endfacet
 facet normal 0.000000 0.000000 1.000000
  outer loop
   vertex 1250.000000 2165.000000 -280.000000
   vertex -234.924240 680.075760 -280.000000
   vertex -99.853980 556.306669 -280.000000
  endloop
 endfacet
 facet normal 0.000000 0.000000 -1.000000
  outer loop
   vertex 1250.000000 2165.000000 -400.000000
   vertex 45.489484 444.780707 -400.000000
   vertex -99.853980 556.306669 -400.000000
  endloop
 endfacet
 facet normal 0.000000 0.000000 1.000000
  outer loop
   vertex 1250.000000 2165.000000 -280.000000
   vertex -99.853980 556.306669 -280.000000
   vertex 45.489484 444.780707 -280.000000
  endloop
 endfacet
 facet normal 0.000000 0.000000 -1.000000
  outer loop
   vertex 1250.000000 2165.000000 -400.000000
   vertex 200.000000 346.346652 -400.000000
   vertex 45.489484 444.780707 -400.000000
  endloop
 endfacet
 facet normal 0.000000 0.000000 1.000000
  outer loop
   vertex 1250.000000 2165.000000 -280.000000
   vertex 45.489484 444.780707 -280.000000
   vertex 200.000000 346.346652 -280.000000
  endloop
 endfacet
 facet normal 0.000000 0.000000 -1.000000
  outer loop
   vertex 1250.000000 2165.000000 -400.000000
   vertex 362.501650 261.753647 -400.000000
   vertex 200.000000 346.346652 -400.000000
  endloop
 endfacet
 facet normal 0.000000 0.000000 1.000000
  outer loop
   vertex 1250.000000 2165.000000 -280.000000
   vertex 200.000000 346.346652 -280.000000
   vertex 362.501650 261.753647 -280.000000
  endloop
 endfacet
 facet normal 0.000000 0.000000 -1.000000
  outer loop
   vertex 1250.000000 2165.000000 -400.000000
   vertex 531.757699 191.645496 -400.000000
   vertex 362.501650 261.753647 -400.000000
  endloop
 endfacet
 facet normal 0.000000 0.000000 1.000000
  outer loop
   vertex 1250.000000 2165.000000 -280.000000
   vertex 362.501650 261.753647 -280.000000
   vertex 531.757699 191.645496 -280.000000
  endloop
 endfacet
 facet normal 0.000000 0.000000 -1.000000
  outer loop
   vertex 1250.000000 2165.000000 -400.000000
   vertex 706.480005 136.555765 -400.000000
   vertex 531.757699 191.645496 -400.000000
  endloop
 endfacet
 facet normal 0.000000 0.000000 1.000000
  outer loop
   vertex 1250.000000 2165.000000 -280.000000
   vertex 531.757699 191.645496 -280.000000
   vertex 706.480005 136.555765 -280.000000
  endloop
 endfacet
 facet normal 0.000000 0.000000 -1.000000
  outer loop
   vertex 1250.000000 2165.000000 -400.000000
   vertex 885.338827 96.903719 -400.000000
   vertex 706.480005 136.555765 -400.000000
  endloop
 endfacet
 facet normal 0.000000 0.000000 1.000000
  outer loop
   vertex 1250.000000 2165.000000 -280.000000
   vertex 706.480005 136.555765 -280.000000
   vertex 885.338827 96.903719 -280.000000
  endloop
 endfacet
 facet normal 0.000000 0.000000 -1.000000
  outer loop
   vertex 1250.000000 2165.000000 -400.000000
   vertex 1066.972940 72.991134 -400.000000
   vertex 885.338827 96.903719 -400.000000
  endloop
 endfacet
 facet normal 0.000000 0.000000 1.000000
  outer loop
   vertex 1250.000000 2165.000000 -280.000000
   vertex 885.338827 96.903719 -280.000000
   vertex 1066.972940 72.991134 -280.000000
  endloop
 endfacet
 facet normal 0.000000 0.000000 -1.000000
  outer loop
   vertex 1250.000000 2165.000000 -400.000000
   vertex 1250.000000 65.000000 -400.000000
   vertex 1066.972940 72.991134 -400.000000
  endloop
 endfacet
 facet normal 0.000000 0.000000 1.000000
  outer loop
   vertex 1250.000000 2165.000000 -280.000000
   vertex 1066.972940 72.991134 -280.000000
   vertex 1250.000000 65.000000 -280.000000
  endloop
 endfacet
 facet normal 0.000000 -0.000000 -1.000000
  outer loop
   vertex 1250.000000 2165.000000 -400.000000
   vertex 1433.027060 72.991134 -400.000000
   vertex 1250.000000 65.000000 -400.000000
  endloop
 endfacet
 facet normal 0.000000 0.000000 1.000000
  outer loop
   vertex 1250.000000 2165.000000 -280.000000
   vertex 1250.000000 65.000000 -280.000000
   vertex 1433.027060 72.991134 -280.000000
  endloop
 endfacet
 facet normal 0.000000 0.000000 -1.000000
  outer loop
   vertex 1250.000000 2165.000000 -400.000000
   vertex 1614.661173 96.903719 -400.000000
   vertex 1433.027060 72.991134 -400.000000
  endloop
 endfacet
 facet normal 0.000000 0.000000 1.000000
  outer loop
   vertex 1250.000000 2165.000000 -280.000000
   vertex 1433.027060 72.991134 -280.000000
   vertex 1614.661173 96.903719 -280.000000
  endloop
 endfacet
 facet normal 0.000000 0.000000 -1.000000
  outer loop
   vertex 1250.000000 2165.000000 -400.000000
   vertex 1793.519995 136.555765 -400.000000
   vertex 1614.661173 96.903719 -400.000000
  endloop
 endfacet
 facet normal 0.000000 0.000000 1.000000
  outer loop
   vertex 1250.000000 2165.000000 -280.000000
   vertex 1614.661173 96.903719 -280.000000
   vertex 1793.519995 136.555765 -280.000000
  endloop
 endfacet
 facet normal 0.000000 0.000000 -1.000000
  outer loop
   vertex 1250.000000 2165.000000 -400.000000
   vertex 1968.242301 191.645496 -400.000000
   vertex 1793.519995 136.555765 -400.000000
  endloop
 endfacet
 facet normal 0.000000 0.000000 1.000000
  outer loop
   vertex 1250.000000 2165.000000 -280.000000
   vertex 1793.519995 136.555765 -280.000000
   vertex 1968.242301 191.645496 -280.000000
  endloop
 endfacet
 facet normal 0.000000 0.000000 -1.000000
  outer loop
   vertex 1250.000000 2165.000000 -400.000000
   vertex 2137.498350 261.753647 -400.000000
   vertex 1968.242301 191.645496 -400.000000
  endloop
 endfacet
 facet normal 0.000000 0.000000 1.000000
  outer loop
   vertex 1250.000000 2165.000000 -280.000000
   vertex 1968.242301 191.645496 -280.000000
   vertex 2137.498350 261.753647 -280.000000
  endloop
 endfacet
 facet normal 0.000000 0.000000 -1.000000
  outer loop
   vertex 1250.000000 2165.000000 -400.000000
   vertex 2300.000000 346.346652 -400.000000
   vertex 2137.498350 261.753647 -400.000000
  endloop
 endfacet
 facet normal 0.000000 0.000000 1.000000
  outer loop
   vertex 1250.000000 2165.000000 -280.000000
   vertex 2137.498350 261.753647 -280.000000
   vertex 2300.000000 346.346652 -280.000000
  endloop
 endfacet
 facet normal 0.000000 0.000000 -1.000000
  outer loop
   vertex 1250.000000 2165.000000 -400.000000
   vertex 2454.510516 444.780707 -400.000000
   vertex 2300.000000 346.346652 -400.000000
  endloop
 endfacet
 facet normal 0.000000 0.000000 1.000000
  outer loop
   vertex 1250.000000 2165.000000 -280.000000
   vertex 2300.000000 346.346652 -280.000000
   vertex 2454.510516 444.780707 -280.000000
  endloop
 endfacet
 facet normal 0.000000 0.000000 -1.000000
  outer loop
   vertex 1250.000000 2165.000000 -400.000000
   vertex 2599.853980 556.306669 -400.000000
   vertex 2454.510516 444.780707 -400.000000
  endloop
 endfacet
 facet normal 0.000000 0.000000 1.000000
  outer loop
   vertex 1250.000000 2165.000000 -280.000000
   vertex 2454.510516 444.780707 -280.000000
   vertex 2599.853980 556.306669 -280.000000
  endloop
 endfacet
 facet normal 0.000000 0.000000 -1.000000
  outer loop
   vertex 1250.000000 2165.000000 -400.000000
   vertex 2734.924240 680.075760 -400.000000
   vertex 2599.853980 556.306669 -400.000000
  endloop
 endfacet
 facet normal 0.000000 0.000000 1.000000
  outer loop
   vertex 1250.000000 2165.000000 -280.000000
   vertex 2599.853980 556.306669 -280.000000
   vertex 2734.924240 680.075760 -280.000000
  endloop
 endfacet
 facet normal 0.000000 0.000000 -1.000000
  outer loop
   vertex 1250.000000 2165.000000 -400.000000
   vertex 2858.693331 815.146020 -400.000000
   vertex 2734.924240 680.075760 -400.000000
  endloop
 endfacet
 facet normal 0.000000 0.000000 1.000000
  outer loop
   vertex 1250.000000 2165.000000 -280.000000
   vertex 2734.924240 680.075760 -280.000000
   vertex 2858.693331 815.146020 -280.000000
  endloop
 endfacet
 facet normal 0.000000 0.000000 -1.000000
  outer loop
   vertex 1250.000000 2165.000000 -400.000000
   vertex 2970.219293 960.489484 -400.000000
   vertex 2858.693331 815.146020 -400.000000
  endloop
 endfacet
 facet normal 0.000000 0.000000 1.000000
  outer loop
   vertex 1250.000000 2165.000000 -280.000000
   vertex 2858.693331 815.146020 -280.000000
   vertex 2970.219293 960.489484 -280.000000
  endloop
 endfacet
 facet normal 0.000000 0.000000 -1.000000
  outer loop
   vertex 1250.000000 2165.000000 -400.000000
   vertex 3068.653348 1115.000000 -400.000000
   vertex 2970.219293 960.489484 -400.000000
  endloop
 endfacet
 facet normal 0.000000 0.000000 1.000000
  outer loop
   vertex 1250.000000 2165.000000 -280.000000
   vertex 2970.219293 960.489484 -280.000000
   vertex 3068.653348 1115.000000 -280.000000
  endloop
 endfacet
 facet normal 0.000000 0.000000 -1.000000
  outer loop
   vertex 1250.000000 2165.000000 -400.000000
   vertex 3153.246353 1277.501650 -400.000000
   vertex 3068.653348 1115.000000 -400.000000
  endloop
 endfacet
 facet normal 0.000000 0.000000 1.000000
  outer loop
   vertex 1250.000000 2165.000000 -280.000000
   vertex 3068.653348 1115.000000 -280.000000
   vertex 3153.246353 1277.501650 -280.000000
  endloop
 endfacet
 facet normal 0.000000 0.000000 -1.000000
  outer loop
   vertex 1250.000000 2165.000000 -400.000000
   vertex 3223.354504 1446.757699 -400.000000
   vertex 3153.246353 1277.501650 -400.000000
  endloop
 endfacet
 facet normal 0.000000 0.000000 1.000000
  outer loop
   vertex 1250.000000 2165.000000 -280.000000
   vertex 3153.246353 1277.501650 -280.000000
   vertex 3223.354504 1446.757699 -280.000000
  endloop
 endfacet
 facet normal 0.000000 0.000000 -1.000000
  outer loop
   vertex 1250.000000 2165.000000 -400.000000
   vertex 3278.444235 1621.480005 -400.000000
   vertex 3223.354504 1446.757699 -400.000000
  endloop
 endfacet
 facet normal 0.000000 0.000000 1.000000
  outer loop
   vertex 1250.000000 2165.000000 -280.000000
   vertex 3223.354504 1446.757699 -280.000000
   vertex 3278.444235 1621.480005 -280.000000
  endloop
 endfacet
 facet normal 0.000000 0.000000 -1.000000
  outer loop
   vertex 1250.000000 2165.000000 -400.000000
   vertex 3318.096281 1800.338827 -400.000000
   vertex 3278.444235 1621.480005 -400.000000
  endloop
 endfacet
 facet normal 0.000000 0.000000 1.000000
  outer loop
   vertex 1250.000000 2165.000000 -280.000000
   vertex 3278.444235 1621.480005 -280.000000
   vertex 3318.096281 1800.338827 -280.000000
  endloop
 endfacet
 facet normal 0.000000 0.000000 -1.000000
  outer loop
   vertex 1250.000000 2165.000000 -400.000000
   vertex 3342.008866 1981.972940 -400.000000
   vertex 3318.096281 1800.338827 -400.000000
  endloop
 endfacet
 facet normal 0.000000 0.000000 1.000000
  outer loop
   vertex 1250.000000 2165.000000 -280.000000
   vertex 3318.096281 1800.338827 -280.000000
   vertex 3342.008866 1981.972940 -280.000000
  endloop
 endfacet
 facet normal 0.000000 0.000000 -1.000000
  outer loop
   vertex 1250.000000 2165.000000 -400.000000
   vertex 3350.000000 2165.000000 -400.000000
   vertex 3342.008866 1981.972940 -400.000000
  endloop
 endfacet
 facet normal -0.000000 0.000000 1.000000
  outer loop
   vertex 1250.000000 2165.000000 -280.000000
   vertex 3342.008866 1981.972940 -280.000000
   vertex 3350.000000 2165.000000 -280.000000
  endloop
 endfacet
endsolid F1_HEATSHIELD
