solid F1_NOZZLE
 facet normal 0.999048 0.043619 0.000000
  outer loop
   vertex 4300.000000 0.000000 -2680.000000
   vertex 4293.150457 156.880337 -2680.000000
   vertex 4293.150457 156.880337 -480.000000
  endloop
 endfacet
 facet normal 0.999048 0.043619 -0.000000
  outer loop
   vertex 4300.000000 0.000000 -2680.000000
   vertex 4293.150457 156.880337 -480.000000
   vertex 4300.000000 0.000000 -480.000000
  endloop
 endfacet
 facet normal 0.991445 0.130526 0.000000
  outer loop
   vertex 4293.150457 156.880337 -2680.000000
   vertex 4272.653955 312.566720 -2680.000000
   vertex 4272.653955 312.566720 -480.000000
  endloop
 endfacet
 facet normal 0.991445 0.130526 -0.000000
  outer loop
   vertex 4293.150457 156.880337 -2680.000000
   vertex 4272.653955 312.566720 -480.000000
   vertex 4293.150457 156.880337 -480.000000
  endloop
 endfacet
 facet normal 0.976296 0.216440 0.000000
  outer loop
   vertex 4272.653955 312.566720 -2680.000000
   vertex 4238.666487 465.874281 -2680.000000
   vertex 4238.666487 465.874281 -480.000000
  endloop
 endfacet
 facet normal 0.976296 0.216440 -0.000000
  outer loop
   vertex 4272.653955 312.566720 -2680.000000
   vertex 4238.666487 465.874281 -480.000000
   vertex 4272.653955 312.566720 -480.000000
  endloop
 endfacet
 facet normal 0.953717 0.300706 0.000000
  outer loop
   vertex 4238.666487 465.874281 -2680.000000
   vertex 4191.446717 615.636258 -2680.000000
   vertex 4191.446717 615.636258 -480.000000
  endloop
 endfacet
 facet normal 0.953717 0.300706 -0.000000
  outer loop
   vertex 4238.666487 465.874281 -2680.000000
   vertex 4191.446717 615.636258 -480.000000
   vertex 4238.666487 465.874281 -480.000000
  endloop
 endfacet
 facet normal 0.923880 0.382683 0.000000
  outer loop
   vertex 4191.446717 615.636258 -2680.000000
   vertex 4131.354017 760.712871 -2680.000000
   vertex 4131.354017 760.712871 -480.000000
  endloop
 endfacet
 facet normal 0.923880 0.382683 -0.000000
  outer loop
   vertex 4191.446717 615.636258 -2680.000000
   vertex 4131.354017 760.712871 -480.000000
   vertex 4191.446717 615.636258 -480.000000
  endloop
 endfacet
 facet normal 0.887011 0.461749 0.000000
  outer loop
   vertex 4131.354017 760.712871 -2680.000000
   vertex 4058.845727 900.000000 -2680.000000
   vertex 4058.845727 900.000000 -480.000000
  endloop
 endfacet
 facet normal 0.887011 0.461749 -0.000000
  outer loop
   vertex 4131.354017 760.712871 -2680.000000
   vertex 4058.845727 900.000000 -480.000000
   vertex 4131.354017 760.712871 -480.000000
  endloop
 endfacet
 facet normal 0.843391 0.537300 0.000000
  outer loop
   vertex 4058.845727 900.000000 -2680.000000
   vertex 3974.473680 1032.437585 -2680.000000
   vertex 3974.473680 1032.437585 -480.000000
  endloop
 endfacet
 facet normal 0.843391 0.537300 -0.000000
  outer loop
   vertex 4058.845727 900.000000 -2680.000000
   vertex 3974.473680 1032.437585 -480.000000
   vertex 4058.845727 900.000000 -480.000000
  endloop
 endfacet
 facet normal 0.793353 0.608761 0.000000
  outer loop
   vertex 3974.473680 1032.437585 -2680.000000
   vertex 3878.879998 1157.017697 -2680.000000
   vertex 3878.879998 1157.017697 -480.000000
  endloop
 endfacet
 facet normal 0.793353 0.608761 -0.000000
  outer loop
   vertex 3974.473680 1032.437585 -2680.000000
   vertex 3878.879998 1157.017697 -480.000000
   vertex 3974.473680 1032.437585 -480.000000
  endloop
 endfacet
 facet normal 0.737277 0.675590 0.000000
  outer loop
   vertex 3878.879998 1157.017697 -2680.000000
   vertex 3772.792206 1272.792206 -2680.000000
   vertex 3772.792206 1272.792206 -480.000000
  endloop
 endfacet
 facet normal 0.737277 0.675590 -0.000000
  outer loop
   vertex 3878.879998 1157.017697 -2680.000000
   vertex 3772.792206 1272.792206 -480.000000
   vertex 3878.879998 1157.017697 -480.000000
  endloop
 endfacet
 facet normal 0.675590 0.737277 0.000000
  outer loop
   vertex 3772.792206 1272.792206 -2680.000000
   vertex 3657.017697 1378.879998 -2680.000000
   vertex 3657.017697 1378.879998 -480.000000
  endloop
 endfacet
 facet normal 0.675590 0.737277 -0.000000
  outer loop
   vertex 3772.792206 1272.792206 -2680.000000
   vertex 3657.017697 1378.879998 -480.000000
   vertex 3772.792206 1272.792206 -480.000000
  endloop
 endfacet
 facet normal 0.608761 0.793353 0.000000
  outer loop
   vertex 3657.017697 1378.879998 -2680.000000
   vertex 3532.437585 1474.473680 -2680.000000
   vertex 3532.437585 1474.473680 -480.000000
  endloop
 endfacet
 facet normal 0.608761 0.793353 -0.000000
  outer loop
   vertex 3657.017697 1378.879998 -2680.000000
   vertex 3532.437585 1474.473680 -480.000000
   vertex 3657.017697 1378.879998 -480.000000
  endloop
 endfacet
 facet normal 0.537300 0.843391 0.000000
  outer loop
   vertex 3532.437585 1474.473680 -2680.000000
   vertex 3400.000000 1558.845727 -2680.000000
   vertex 3400.000000 1558.845727 -480.000000
  endloop
 endfacet
 facet normal 0.537300 0.843391 -0.000000
  outer loop
   vertex 3532.437585 1474.473680 -2680.000000
   vertex 3400.000000 1558.845727 -480.000000
   vertex 3532.437585 1474.473680 -480.000000
  endloop
 endfacet
 facet normal 0.461749 0.887011 0.000000
  outer loop
   vertex 3400.000000 1558.845727 -2680.000000
   vertex 3260.712871 1631.354017 -2680.000000
   vertex 3260.712871 1631.354017 -480.000000
  endloop
 endfacet
 facet normal 0.461749 0.887011 -0.000000
  outer loop
   vertex 3400.000000 1558.845727 -2680.000000
   vertex 3260.712871 1631.354017 -480.000000
   vertex 3400.000000 1558.845727 -480.000000
  endloop
 endfacet
 facet normal 0.382683 0.923880 0.000000
  outer loop
   vertex 3260.712871 1631.354017 -2680.000000
   vertex 3115.636258 1691.446717 -2680.000000
   vertex 3115.636258 1691.446717 -480.000000
  endloop
 endfacet
 facet normal 0.382683 0.923880 -0.000000
  outer loop
   vertex 3260.712871 1631.354017 -2680.000000
   vertex 3115.636258 1691.446717 -480.000000
   vertex 3260.712871 1631.354017 -480.000000
  endloop
 endfacet
 facet normal 0.300706 0.953717 0.000000
  outer loop
   vertex 3115.636258 1691.446717 -2680.000000
   vertex 2965.874281 1738.666487 -2680.000000
   vertex 2965.874281 1738.666487 -480.000000
  endloop
 endfacet
 facet normal 0.300706 0.953717 -0.000000
  outer loop
   vertex 3115.636258 1691.446717 -2680.000000
   vertex 2965.874281 1738.666487 -480.000000
   vertex 3115.636258 1691.446717 -480.000000
  endloop
 endfacet
 facet normal 0.216440 0.976296 0.000000
  outer loop
   vertex 2965.874281 1738.666487 -2680.000000
   vertex 2812.566720 1772.653955 -2680.000000
   vertex 2812.566720 1772.653955 -480.000000
  endloop
 endfacet
 facet normal 0.216440 0.976296 -0.000000
  outer loop
   vertex 2965.874281 1738.666487 -2680.000000
   vertex 2812.566720 1772.653955 -480.000000
   vertex 2965.874281 1738.666487 -480.000000
  endloop
 endfacet
 facet normal 0.130526 0.991445 0.000000
  outer loop
   vertex 2812.566720 1772.653955 -2680.000000
   vertex 2656.880337 1793.150457 -2680.000000
   vertex 2656.880337 1793.150457 -480.000000
  endloop
 endfacet
 facet normal 0.130526 0.991445 -0.000000
  outer loop
   vertex 2812.566720 1772.653955 -2680.000000
   vertex 2656.880337 1793.150457 -480.000000
   vertex 2812.566720 1772.653955 -480.000000
  endloop
 endfacet
 facet normal 0.043619 0.999048 0.000000
  outer loop
   vertex 2656.880337 1793.150457 -2680.000000
   vertex 2500.000000 1800.000000 -2680.000000
   vertex 2500.000000 1800.000000 -480.000000
  endloop
 endfacet
 facet normal 0.043619 0.999048 -0.000000
  outer loop
   vertex 2656.880337 1793.150457 -2680.000000
   vertex 2500.000000 1800.000000 -480.000000
   vertex 2656.880337 1793.150457 -480.000000
  endloop
 endfacet
 facet normal -0.043619 0.999048 0.000000
  outer loop
   vertex 2500.000000 1800.000000 -2680.000000
   vertex 2343.119663 1793.150457 -2680.000000
   vertex 2343.119663 1793.150457 -480.000000
  endloop
 endfacet
 facet normal -0.043619 0.999048 0.000000
  outer loop
   vertex 2500.000000 1800.000000 -2680.000000
   vertex 2343.119663 1793.150457 -480.000000
   vertex 2500.000000 1800.000000 -480.000000
  endloop
 endfacet
 facet normal -0.130526 0.991445 0.000000
  outer loop
   vertex 2343.119663 1793.150457 -2680.000000
   vertex 2187.433280 1772.653955 -2680.000000
   vertex 2187.433280 1772.653955 -480.000000
  endloop
 endfacet
 facet normal -0.130526 0.991445 0.000000
  outer loop
   vertex 2343.119663 1793.150457 -2680.000000
   vertex 2187.433280 1772.653955 -480.000000
   vertex 2343.119663 1793.150457 -480.000000
  endloop
 endfacet
 facet normal -0.216440 0.976296 0.000000
  outer loop
   vertex 2187.433280 1772.653955 -2680.000000
   vertex 2034.125719 1738.666487 -2680.000000
   vertex 2034.125719 1738.666487 -480.000000
  endloop
 endfacet
 facet normal -0.216440 0.976296 0.000000
  outer loop
   vertex 2187.433280 1772.653955 -2680.000000
   vertex 2034.125719 1738.666487 -480.000000
   vertex 2187.433280 1772.653955 -480.000000
  endloop
 endfacet
 facet normal -0.300706 0.953717 0.000000
  outer loop
   vertex 2034.125719 1738.666487 -2680.000000
   vertex 1884.363742 1691.446717 -2680.000000
   vertex 1884.363742 1691.446717 -480.000000
  endloop
 endfacet
 facet normal -0.300706 0.953717 0.000000
  outer loop
   vertex 2034.125719 1738.666487 -2680.000000
   vertex 1884.363742 1691.446717 -480.000000
   vertex 2034.125719 1738.666487 -480.000000
  endloop
 endfacet
 facet normal -0.382683 0.923880 0.000000
  outer loop
   vertex 1884.363742 1691.446717 -2680.000000
   vertex 1739.287129 1631.354017 -2680.000000
   vertex 1739.287129 1631.354017 -480.000000
  endloop
 endfacet
 facet normal -0.382683 0.923880 0.000000
  outer loop
   vertex 1884.363742 1691.446717 -2680.000000
   vertex 1739.287129 1631.354017 -480.000000
   vertex 1884.363742 1691.446717 -480.000000
  endloop
 endfacet
 facet normal -0.461749 0.887011 0.000000
  outer loop
   vertex 1739.287129 1631.354017 -2680.000000
   vertex 1600.000000 1558.845727 -2680.000000
   vertex 1600.000000 1558.845727 -480.000000
  endloop
 endfacet
 facet normal -0.461749 0.887011 0.000000
  outer loop
   vertex 1739.287129 1631.354017 -2680.000000
   vertex 1600.000000 1558.845727 -480.000000
   vertex 1739.287129 1631.354017 -480.000000
  endloop
 endfacet
 facet normal -0.537300 0.843391 0.000000
  outer loop
   vertex 1600.000000 1558.845727 -2680.000000
   vertex 1467.562415 1474.473680 -2680.000000
   vertex 1467.562415 1474.473680 -480.000000
  endloop
 endfacet
 facet normal -0.537300 0.843391 0.000000
  outer loop
   vertex 1600.000000 1558.845727 -2680.000000
   vertex 1467.562415 1474.473680 -480.000000
   vertex 1600.000000 1558.845727 -480.000000
  endloop
 endfacet
 facet normal -0.608761 0.793353 0.000000
  outer loop
   vertex 1467.562415 1474.473680 -2680.000000
   vertex 1342.982303 1378.879998 -2680.000000
   vertex 1342.982303 1378.879998 -480.000000
  endloop
 endfacet
 facet normal -0.608761 0.793353 0.000000
  outer loop
   vertex 1467.562415 1474.473680 -2680.000000
   vertex 1342.982303 1378.879998 -480.000000
   vertex 1467.562415 1474.473680 -480.000000
  endloop
 endfacet
 facet normal -0.675590 0.737277 0.000000
  outer loop
   vertex 1342.982303 1378.879998 -2680.000000
   vertex 1227.207794 1272.792206 -2680.000000
   vertex 1227.207794 1272.792206 -480.000000
  endloop
 endfacet
 facet normal -0.675590 0.737277 0.000000
  outer loop
   vertex 1342.982303 1378.879998 -2680.000000
   vertex 1227.207794 1272.792206 -480.000000
   vertex 1342.982303 1378.879998 -480.000000
  endloop
 endfacet
 facet normal -0.737277 0.675590 0.000000
  outer loop
   vertex 1227.207794 1272.792206 -2680.000000
   vertex 1121.120002 1157.017697 -2680.000000
   vertex 1121.120002 1157.017697 -480.000000
  endloop
 endfacet
 facet normal -0.737277 0.675590 0.000000
  outer loop
   vertex 1227.207794 1272.792206 -2680.000000
   vertex 1121.120002 1157.017697 -480.000000
   vertex 1227.207794 1272.792206 -480.000000
  endloop
 endfacet
 facet normal -0.793353 0.608761 0.000000
  outer loop
   vertex 1121.120002 1157.017697 -2680.000000
   vertex 1025.526320 1032.437585 -2680.000000
   vertex 1025.526320 1032.437585 -480.000000
  endloop
 endfacet
 facet normal -0.793353 0.608761 0.000000
  outer loop
   vertex 1121.120002 1157.017697 -2680.000000
   vertex 1025.526320 1032.437585 -480.000000
   vertex 1121.120002 1157.017697 -480.000000
  endloop
 endfacet
 facet normal -0.843391 0.537300 0.000000
  outer loop
   vertex 1025.526320 1032.437585 -2680.000000
   vertex 941.154273 900.000000 -2680.000000
   vertex 941.154273 900.000000 -480.000000
  endloop
 endfacet
 facet normal -0.843391 0.537300 0.000000
  outer loop
   vertex 1025.526320 1032.437585 -2680.000000
   vertex 941.154273 900.000000 -480.000000
   vertex 1025.526320 1032.437585 -480.000000
  endloop
 endfacet
 facet normal -0.887011 0.461749 0.000000
  outer loop
   vertex 941.154273 900.000000 -2680.000000
   vertex 868.645983 760.712871 -2680.000000
   vertex 868.645983 760.712871 -480.000000
  endloop
 endfacet
 facet normal -0.887011 0.461749 0.000000
  outer loop
   vertex 941.154273 900.000000 -2680.000000
   vertex 868.645983 760.712871 -480.000000
   vertex 941.154273 900.000000 -480.000000
  endloop
 endfacet
 facet normal -0.923880 0.382683 0.000000
  outer loop
   vertex 868.645983 760.712871 -2680.000000
   vertex 808.553283 615.636258 -2680.000000
   vertex 808.553283 615.636258 -480.000000
  endloop
 endfacet
 facet normal -0.923880 0.382683 0.000000
  outer loop
   vertex 868.645983 760.712871 -2680.000000
   vertex 808.553283 615.636258 -480.000000
   vertex 868.645983 760.712871 -480.000000
  endloop
 endfacet
 facet normal -0.953717 0.300706 0.000000
  outer loop
   vertex 808.553283 615.636258 -2680.000000
   vertex 761.333513 465.874281 -2680.000000
   vertex 761.333513 465.874281 -480.000000
  endloop
 endfacet
 facet normal -0.953717 0.300706 0.000000
  outer loop
   vertex 808.553283 615.636258 -2680.000000
   vertex 761.333513 465.874281 -480.000000
   vertex 808.553283 615.636258 -480.000000
  endloop
 endfacet
 facet normal -0.976296 0.216440 0.000000
  outer loop
   vertex 761.333513 465.874281 -2680.000000
   vertex 727.346045 312.566720 -2680.000000
   vertex 727.346045 312.566720 -480.000000
  endloop
 endfacet
 facet normal -0.976296 0.216440 0.000000
  outer loop
   vertex 761.333513 465.874281 -2680.000000
   vertex 727.346045 312.566720 -480.000000
   vertex 761.333513 465.874281 -480.000000
  endloop
 endfacet
 facet normal -0.991445 0.130526 0.000000
  outer loop
   vertex 727.346045 312.566720 -2680.000000
   vertex 706.849543 156.880337 -2680.000000
   vertex 706.849543 156.880337 -480.000000
  endloop
 endfacet
 facet normal -0.991445 0.130526 0.000000
  outer loop
   vertex 727.346045 312.566720 -2680.000000
   vertex 706.849543 156.880337 -480.000000
   vertex 727.346045 312.566720 -480.000000
  endloop
 endfacet
 facet normal -0.999048 0.043619 0.000000
  outer loop
   vertex 706.849543 156.880337 -2680.000000
   vertex 700.000000 0.000000 -2680.000000
   vertex 700.000000 0.000000 -480.000000
  endloop
 endfacet
 facet normal -0.999048 0.043619 0.000000
  outer loop
   vertex 706.849543 156.880337 -2680.000000
   vertex 700.000000 0.000000 -480.000000
   vertex 706.849543 156.880337 -480.000000
  endloop
 endfacet
 facet normal -0.999048 -0.043619 0.000000
  outer loop
   vertex 700.000000 0.000000 -2680.000000
   vertex 706.849543 -156.880337 -2680.000000
   vertex 706.849543 -156.880337 -480.000000
  endloop
 endfacet
 facet normal -0.999048 -0.043619 0.000000
  outer loop
   vertex 700.000000 0.000000 -2680.000000
   vertex 706.849543 -156.880337 -480.000000
   vertex 700.000000 0.000000 -480.000000
  endloop
 endfacet
 facet normal -0.991445 -0.130526 0.000000
  outer loop
   vertex 706.849543 -156.880337 -2680.000000
   vertex 727.346045 -312.566720 -2680.000000
   vertex 727.346045 -312.566720 -480.000000
  endloop
 endfacet
 facet normal -0.991445 -0.130526 0.000000
  outer loop
   vertex 706.849543 -156.880337 -2680.000000
   vertex 727.346045 -312.566720 -480.000000
   vertex 706.849543 -156.880337 -480.000000
  endloop
 endfacet
 facet normal -0.976296 -0.216440 0.000000
  outer loop
   vertex 727.346045 -312.566720 -2680.000000
   vertex 761.333513 -465.874281 -2680.000000
   vertex 761.333513 -465.874281 -480.000000
  endloop
 endfacet
 facet normal -0.976296 -0.216440 0.000000
  outer loop
   vertex 727.346045 -312.566720 -2680.000000
   vertex 761.333513 -465.874281 -480.000000
   vertex 727.346045 -312.566720 -480.000000
  endloop
 endfacet
 facet normal -0.953717 -0.300706 0.000000
  outer loop
   vertex 761.333513 -465.874281 -2680.000000
   vertex 808.553283 -615.636258 -2680.000000
   vertex 808.553283 -615.636258 -480.000000
  endloop
 endfacet
 facet normal -0.953717 -0.300706 0.000000
  outer loop
   vertex 761.333513 -465.874281 -2680.000000
   vertex 808.553283 -615.636258 -480.000000
   vertex 761.333513 -465.874281 -480.000000
  endloop
 endfacet
 facet normal -0.923880 -0.382683 0.000000
  outer loop
   vertex 808.553283 -615.636258 -2680.000000
   vertex 868.645983 -760.712871 -2680.000000
   vertex 868.645983 -760.712871 -480.000000
  endloop
 endfacet
 facet normal -0.923880 -0.382683 0.000000
  outer loop
   vertex 808.553283 -615.636258 -2680.000000
   vertex 868.645983 -760.712871 -480.000000
   vertex 808.553283 -615.636258 -480.000000
  endloop
 endfacet
 facet normal -0.887011 -0.461749 0.000000
  outer loop
   vertex 868.645983 -760.712871 -2680.000000
   vertex 941.154273 -900.000000 -2680.000000
   vertex 941.154273 -900.000000 -480.000000
  endloop
 endfacet
 facet normal -0.887011 -0.461749 0.000000
  outer loop
   vertex 868.645983 -760.712871 -2680.000000
   vertex 941.154273 -900.000000 -480.000000
   vertex 868.645983 -760.712871 -480.000000
  endloop
 endfacet
 facet normal -0.843391 -0.537300 0.000000
  outer loop
   vertex 941.154273 -900.000000 -2680.000000
   vertex 1025.526320 -1032.437585 -2680.000000
   vertex 1025.526320 -1032.437585 -480.000000
  endloop
 endfacet
 facet normal -0.843391 -0.537300 0.000000
  outer loop
   vertex 941.154273 -900.000000 -2680.000000
   vertex 1025.526320 -1032.437585 -480.000000
   vertex 941.154273 -900.000000 -480.000000
  endloop
 endfacet
 facet normal -0.793353 -0.608761 0.000000
  outer loop
   vertex 1025.526320 -1032.437585 -2680.000000
   vertex 1121.120002 -1157.017697 -2680.000000
   vertex 1121.120002 -1157.017697 -480.000000
  endloop
 endfacet
 facet normal -0.793353 -0.608761 0.000000
  outer loop
   vertex 1025.526320 -1032.437585 -2680.000000
   vertex 1121.120002 -1157.017697 -480.000000
   vertex 1025.526320 -1032.437585 -480.000000
  endloop
 endfacet
 facet normal -0.737277 -0.675590 0.000000
  outer loop
   vertex 1121.120002 -1157.017697 -2680.000000
   vertex 1227.207794 -1272.792206 -2680.000000
   vertex 1227.207794 -1272.792206 -480.000000
  endloop
 endfacet
 facet normal -0.737277 -0.675590 0.000000
  outer loop
   vertex 1121.120002 -1157.017697 -2680.000000
   vertex 1227.207794 -1272.792206 -480.000000
   vertex 1121.120002 -1157.017697 -480.000000
  endloop
 endfacet
 facet normal -0.675590 -0.737277 0.000000
  outer loop
   vertex 1227.207794 -1272.792206 -2680.000000
   vertex 1342.982303 -1378.879998 -2680.000000
   vertex 1342.982303 -1378.879998 -480.000000
  endloop
 endfacet
 facet normal -0.675590 -0.737277 0.000000
  outer loop
   vertex 1227.207794 -1272.792206 -2680.000000
   vertex 1342.982303 -1378.879998 -480.000000
   vertex 1227.207794 -1272.792206 -480.000000
  endloop
 endfacet
 facet normal -0.608761 -0.793353 0.000000
  outer loop
   vertex 1342.982303 -1378.879998 -2680.000000
   vertex 1467.562415 -1474.473680 -2680.000000
   vertex 1467.562415 -1474.473680 -480.000000
  endloop
 endfacet
 facet normal -0.608761 -0.793353 0.000000
  outer loop
   vertex 1342.982303 -1378.879998 -2680.000000
   vertex 1467.562415 -1474.473680 -480.000000
   vertex 1342.982303 -1378.879998 -480.000000
  endloop
 endfacet
 facet normal -0.537300 -0.843391 0.000000
  outer loop
   vertex 1467.562415 -1474.473680 -2680.000000
   vertex 1600.000000 -1558.845727 -2680.000000
   vertex 1600.000000 -1558.845727 -480.000000
  endloop
 endfacet
 facet normal -0.537300 -0.843391 0.000000
  outer loop
   vertex 1467.562415 -1474.473680 -2680.000000
   vertex 1600.000000 -1558.845727 -480.000000
   vertex 1467.562415 -1474.473680 -480.000000
  endloop
 endfacet
 facet normal -0.461749 -0.887011 0.000000
  outer loop
   vertex 1600.000000 -1558.845727 -2680.000000
   vertex 1739.287129 -1631.354017 -2680.000000
   vertex 1739.287129 -1631.354017 -480.000000
  endloop
 endfacet
 facet normal -0.461749 -0.887011 0.000000
  outer loop
   vertex 1600.000000 -1558.845727 -2680.000000
   vertex 1739.287129 -1631.354017 -480.000000
   vertex 1600.000000 -1558.845727 -480.000000
  endloop
 endfacet
 facet normal -0.382683 -0.923880 0.000000
  outer loop
   vertex 1739.287129 -1631.354017 -2680.000000
   vertex 1884.363742 -1691.446717 -2680.000000
   vertex 1884.363742 -1691.446717 -480.000000
  endloop
 endfacet
 facet normal -0.382683 -0.923880 0.000000
  outer loop
   vertex 1739.287129 -1631.354017 -2680.000000
   vertex 1884.363742 -1691.446717 -480.000000
   vertex 1739.287129 -1631.354017 -480.000000
  endloop
 endfacet
 facet normal -0.300706 -0.953717 0.000000
  outer loop
   vertex 1884.363742 -1691.446717 -2680.000000
   vertex 2034.125719 -1738.666487 -2680.000000
   vertex 2034.125719 -1738.666487 -480.000000
  endloop
 endfacet
 facet normal -0.300706 -0.953717 0.000000
  outer loop
   vertex 1884.363742 -1691.446717 -2680.000000
   vertex 2034.125719 -1738.666487 -480.000000
   vertex 1884.363742 -1691.446717 -480.000000
  endloop
 endfacet
 facet normal -0.216440 -0.976296 0.000000
  outer loop
   vertex 2034.125719 -1738.666487 -2680.000000
   vertex 2187.433280 -1772.653955 -2680.000000
   vertex 2187.433280 -1772.653955 -480.000000
  endloop
 endfacet
 facet normal -0.216440 -0.976296 0.000000
  outer loop
   vertex 2034.125719 -1738.666487 -2680.000000
   vertex 2187.433280 -1772.653955 -480.000000
   vertex 2034.125719 -1738.666487 -480.000000
  endloop
 endfacet
 facet normal -0.130526 -0.991445 0.000000
  outer loop
   vertex 2187.433280 -1772.653955 -2680.000000
   vertex 2343.119663 -1793.150457 -2680.000000
   vertex 2343.119663 -1793.150457 -480.000000
  endloop
 endfacet
 facet normal -0.130526 -0.991445 0.000000
  outer loop
   vertex 2187.433280 -1772.653955 -2680.000000
   vertex 2343.119663 -1793.150457 -480.000000
   vertex 2187.433280 -1772.653955 -480.000000
  endloop
 endfacet
 facet normal -0.043619 -0.999048 0.000000
  outer loop
   vertex 2343.119663 -1793.150457 -2680.000000
   vertex 2500.000000 -1800.000000 -2680.000000
   vertex 2500.000000 -1800.000000 -480.000000
  endloop
 endfacet
 facet normal -0.043619 -0.999048 0.000000
  outer loop
   vertex 2343.119663 -1793.150457 -2680.000000
   vertex 2500.000000 -1800.000000 -480.000000
   vertex 2343.119663 -1793.150457 -480.000000
  endloop
 endfacet
 facet normal 0.043619 -0.999048 0.000000
  outer loop
   vertex 2500.000000 -1800.000000 -2680.000000
   vertex 2656.880337 -1793.150457 -2680.000000
   vertex 2656.880337 -1793.150457 -480.000000
  endloop
 endfacet
 facet normal 0.043619 -0.999048 0.000000
  outer loop
   vertex 2500.000000 -1800.000000 -2680.000000
   vertex 2656.880337 -1793.150457 -480.000000
   vertex 2500.000000 -1800.000000 -480.000000
  endloop
 endfacet
 facet normal 0.130526 -0.991445 0.000000
  outer loop
   vertex 2656.880337 -1793.150457 -2680.000000
   vertex 2812.566720 -1772.653955 -2680.000000
   vertex 2812.566720 -1772.653955 -480.000000
  endloop
 endfacet
 facet normal 0.130526 -0.991445 0.000000
  outer loop
   vertex 2656.880337 -1793.150457 -2680.000000
   vertex 2812.566720 -1772.653955 -480.000000
   vertex 2656.880337 -1793.150457 -480.000000
  endloop
 endfacet
 facet normal 0.216440 -0.976296 0.000000
  outer loop
   vertex 2812.566720 -1772.653955 -2680.000000
   vertex 2965.874281 -1738.666487 -2680.000000
   vertex 2965.874281 -1738.666487 -480.000000
  endloop
 endfacet
 facet normal 0.216440 -0.976296 0.000000
  outer loop
   vertex 2812.566720 -1772.653955 -2680.000000
   vertex 2965.874281 -1738.666487 -480.000000
   vertex 2812.566720 -1772.653955 -480.000000
  endloop
 endfacet
 facet normal 0.300706 -0.953717 0.000000
  outer loop
   vertex 2965.874281 -1738.666487 -2680.000000
   vertex 3115.636258 -1691.446717 -2680.000000
   vertex 3115.636258 -1691.446717 -480.000000
  endloop
 endfacet
 facet normal 0.300706 -0.953717 0.000000
  outer loop
   vertex 2965.874281 -1738.666487 -2680.000000
   vertex 3115.636258 -1691.446717 -480.000000
   vertex 2965.874281 -1738.666487 -480.000000
  endloop
 endfacet
 facet normal 0.382683 -0.923880 0.000000
  outer loop
   vertex 3115.636258 -1691.446717 -2680.000000
   vertex 3260.712871 -1631.354017 -2680.000000
   vertex 3260.712871 -1631.354017 -480.000000
  endloop
 endfacet
 facet normal 0.382683 -0.923880 0.000000
  outer loop
   vertex 3115.636258 -1691.446717 -2680.000000
   vertex 3260.712871 -1631.354017 -480.000000
   vertex 3115.636258 -1691.446717 -480.000000
  endloop
 endfacet
 facet normal 0.461749 -0.887011 0.000000
  outer loop
   vertex 3260.712871 -1631.354017 -2680.000000
   vertex 3400.000000 -1558.845727 -2680.000000
   vertex 3400.000000 -1558.845727 -480.000000
  endloop
 endfacet
 facet normal 0.461749 -0.887011 0.000000
  outer loop
   vertex 3260.712871 -1631.354017 -2680.000000
   vertex 3400.000000 -1558.845727 -480.000000
   vertex 3260.712871 -1631.354017 -480.000000
  endloop
 endfacet
 facet normal 0.537300 -0.843391 0.000000
  outer loop
   vertex 3400.000000 -1558.845727 -2680.000000
   vertex 3532.437585 -1474.473680 -2680.000000
   vertex 3532.437585 -1474.473680 -480.000000
  endloop
 endfacet
 facet normal 0.537300 -0.843391 0.000000
  outer loop
   vertex 3400.000000 -1558.845727 -2680.000000
   vertex 3532.437585 -1474.473680 -480.000000
   vertex 3400.000000 -1558.845727 -480.000000
  endloop
 endfacet
 facet normal 0.608761 -0.793353 0.000000
  outer loop
   vertex 3532.437585 -1474.473680 -2680.000000
   vertex 3657.017697 -1378.879998 -2680.000000
   vertex 3657.017697 -1378.879998 -480.000000
  endloop
 endfacet
 facet normal 0.608761 -0.793353 0.000000
  outer loop
   vertex 3532.437585 -1474.473680 -2680.000000
   vertex 3657.017697 -1378.879998 -480.000000
   vertex 3532.437585 -1474.473680 -480.000000
  endloop
 endfacet
 facet normal 0.675590 -0.737277 0.000000
  outer loop
   vertex 3657.017697 -1378.879998 -2680.000000
   vertex 3772.792206 -1272.792206 -2680.000000
   vertex 3772.792206 -1272.792206 -480.000000
  endloop
 endfacet
 facet normal 0.675590 -0.737277 0.000000
  outer loop
   vertex 3657.017697 -1378.879998 -2680.000000
   vertex 3772.792206 -1272.792206 -480.000000
   vertex 3657.017697 -1378.879998 -480.000000
  endloop
 endfacet
 facet normal 0.737277 -0.675590 0.000000
  outer loop
   vertex 3772.792206 -1272.792206 -2680.000000
   vertex 3878.879998 -1157.017697 -2680.000000
   vertex 3878.879998 -1157.017697 -480.000000
  endloop
 endfacet
 facet normal 0.737277 -0.675590 0.000000
  outer loop
   vertex 3772.792206 -1272.792206 -2680.000000
   vertex 3878.879998 -1157.017697 -480.000000
   vertex 3772.792206 -1272.792206 -480.000000
  endloop
 endfacet
 facet normal 0.793353 -0.608761 0.000000
  outer loop
   vertex 3878.879998 -1157.017697 -2680.000000
   vertex 3974.473680 -1032.437585 -2680.000000
   vertex 3974.473680 -1032.437585 -480.000000
  endloop
 endfacet
 facet normal 0.793353 -0.608761 0.000000
  outer loop
   vertex 3878.879998 -1157.017697 -2680.000000
   vertex 3974.473680 -1032.437585 -480.000000
   vertex 3878.879998 -1157.017697 -480.000000
  endloop
 endfacet
 facet normal 0.843391 -0.537300 0.000000
  outer loop
   vertex 3974.473680 -1032.437585 -2680.000000
   vertex 4058.845727 -900.000000 -2680.000000
   vertex 4058.845727 -900.000000 -480.000000
  endloop
 endfacet
 facet normal 0.843391 -0.537300 0.000000
  outer loop
   vertex 3974.473680 -1032.437585 -2680.000000
   vertex 4058.845727 -900.000000 -480.000000
   vertex 3974.473680 -1032.437585 -480.000000
  endloop
 endfacet
 facet normal 0.887011 -0.461749 0.000000
  outer loop
   vertex 4058.845727 -900.000000 -2680.000000
   vertex 4131.354017 -760.712871 -2680.000000
   vertex 4131.354017 -760.712871 -480.000000
  endloop
 endfacet
 facet normal 0.887011 -0.461749 0.000000
  outer loop
   vertex 4058.845727 -900.000000 -2680.000000
   vertex 4131.354017 -760.712871 -480.000000
   vertex 4058.845727 -900.000000 -480.000000
  endloop
 endfacet
 facet normal 0.923880 -0.382683 0.000000
  outer loop
   vertex 4131.354017 -760.712871 -2680.000000
   vertex 4191.446717 -615.636258 -2680.000000
   vertex 4191.446717 -615.636258 -480.000000
  endloop
 endfacet
 facet normal 0.923880 -0.382683 0.000000
  outer loop
   vertex 4131.354017 -760.712871 -2680.000000
   vertex 4191.446717 -615.636258 -480.000000
   vertex 4131.354017 -760.712871 -480.000000
  endloop
 endfacet
 facet normal 0.953717 -0.300706 0.000000
  outer loop
   vertex 4191.446717 -615.636258 -2680.000000
   vertex 4238.666487 -465.874281 -2680.000000
   vertex 4238.666487 -465.874281 -480.000000
  endloop
 endfacet
 facet normal 0.953717 -0.300706 0.000000
  outer loop
   vertex 4191.446717 -615.636258 -2680.000000
   vertex 4238.666487 -465.874281 -480.000000
   vertex 4191.446717 -615.636258 -480.000000
  endloop
 endfacet
 facet normal 0.976296 -0.216440 0.000000
  outer loop
   vertex 4238.666487 -465.874281 -2680.000000
   vertex 4272.653955 -312.566720 -2680.000000
   vertex 4272.653955 -312.566720 -480.000000
  endloop
 endfacet
 facet normal 0.976296 -0.216440 0.000000
  outer loop
   vertex 4238.666487 -465.874281 -2680.000000
   vertex 4272.653955 -312.566720 -480.000000
   vertex 4238.666487 -465.874281 -480.000000
  endloop
 endfacet
 facet normal 0.991445 -0.130526 0.000000
  outer loop
   vertex 4272.653955 -312.566720 -2680.000000
   vertex 4293.150457 -156.880337 -2680.000000
   vertex 4293.150457 -156.880337 -480.000000
  endloop
 endfacet
 facet normal 0.991445 -0.130526 0.000000
  outer loop
   vertex 4272.653955 -312.566720 -2680.000000
   vertex 4293.150457 -156.880337 -480.000000
   vertex 4272.653955 -312.566720 -480.000000
  endloop
 endfacet
 facet normal 0.999048 -0.043619 0.000000
  outer loop
   vertex 4293.150457 -156.880337 -2680.000000
   vertex 4300.000000 0.000000 -2680.000000
   vertex 4300.000000 0.000000 -480.000000
  endloop
 endfacet
 facet normal 0.999048 -0.043619 0.000000
  outer loop
   vertex 4293.150457 -156.880337 -2680.000000
   vertex 4300.000000 0.000000 -480.000000
   vertex 4293.150457 -156.880337 -480.000000
  endloop
 endfacet
 facet normal 0.000000 0.000000 -1.000000
  outer loop
   vertex 2500.000000 0.000000 -2680.000000
   vertex 4293.150457 156.880337 -2680.000000
   vertex 4300.000000 0.000000 -2680.000000
  endloop
 endfacet
 facet normal 0.000000 0.000000 1.000000
  outer loop
   vertex 2500.000000 0.000000 -480.000000
   vertex 4300.000000 0.000000 -480.000000
   vertex 4293.150457 156.880337 -480.000000
  endloop
 endfacet
 facet normal 0.000000 0.000000 -1.000000
  outer loop
   vertex 2500.000000 0.000000 -2680.000000
   vertex 4272.653955 312.566720 -2680.000000
   vertex 4293.150457 156.880337 -2680.000000
  endloop
 endfacet
 facet normal 0.000000 0.000000 1.000000
  outer loop
   vertex 2500.000000 0.000000 -480.000000
   vertex 4293.150457 156.880337 -480.000000
   vertex 4272.653955 312.566720 -480.000000
  endloop
 endfacet
 facet normal 0.000000 0.000000 -1.000000
  outer loop
   vertex 2500.000000 0.000000 -2680.000000
   vertex 4238.666487 465.874281 -2680.000000
   vertex 4272.653955 312.566720 -2680.000000
  endloop
 endfacet
 facet normal 0.000000 0.000000 1.000000
  outer loop
   vertex 2500.000000 0.000000 -480.000000
   vertex 4272.653955 312.566720 -480.000000
   vertex 4238.666487 465.874281 -480.000000
  endloop
 endfacet
 facet normal 0.000000 0.000000 -1.000000
  outer loop
   vertex 2500.000000 0.000000 -2680.000000
   vertex 4191.446717 615.636258 -2680.000000
   vertex 4238.666487 465.874281 -2680.000000
  endloop
 endfacet
 facet normal 0.000000 0.000000 1.000000
  outer loop
   vertex 2500.000000 0.000000 -480.000000
   vertex 4238.666487 465.874281 -480.000000
   vertex 4191.446717 615.636258 -480.000000
  endloop
 endfacet
 facet normal 0.000000 0.000000 -1.000000
  outer loop
   vertex 2500.000000 0.000000 -2680.000000
   vertex 4131.354017 760.712871 -2680.000000
   vertex 4191.446717 615.636258 -2680.000000
  endloop
 endfacet
 facet normal 0.000000 0.000000 1.000000
  outer loop
   vertex 2500.000000 0.000000 -480.000000
   vertex 4191.446717 615.636258 -480.000000
   vertex 4131.354017 760.712871 -480.000000
  endloop
 endfacet
 facet normal 0.000000 0.000000 -1.000000
  outer loop
   vertex 2500.000000 0.000000 -2680.000000
   vertex 4058.845727 900.000000 -2680.000000
   vertex 4131.354017 760.712871 -2680.000000
  endloop
 endfacet
 facet normal 0.000000 0.000000 1.000000
  outer loop
   vertex 2500.000000 0.000000 -480.000000
   vertex 4131.354017 760.712871 -480.000000
   vertex 4058.845727 900.000000 -480.000000
  endloop
 endfacet
 facet normal 0.000000 0.000000 -1.000000
  outer loop
   vertex 2500.000000 0.000000 -2680.000000
   vertex 3974.473680 1032.437585 -2680.000000
   vertex 4058.845727 900.000000 -2680.000000
  endloop
 endfacet
 facet normal 0.000000 0.000000 1.000000
  outer loop
   vertex 2500.000000 0.000000 -480.000000
   vertex 4058.845727 900.000000 -480.000000
   vertex 3974.473680 1032.437585 -480.000000
  endloop
 endfacet
 facet normal 0.000000 0.000000 -1.000000
  outer loop
   vertex 2500.000000 0.000000 -2680.000000
   vertex 3878.879998 1157.017697 -2680.000000
   vertex 3974.473680 1032.437585 -2680.000000
  endloop
 endfacet
 facet normal 0.000000 0.000000 1.000000
  outer loop
   vertex 2500.000000 0.000000 -480.000000
   vertex 3974.473680 1032.437585 -480.000000
   vertex 3878.879998 1157.017697 -480.000000
  endloop
 endfacet
 facet normal 0.000000 0.000000 -1.000000
  outer loop
   vertex 2500.000000 0.000000 -2680.000000
   vertex 3772.792206 1272.792206 -2680.000000
   vertex 3878.879998 1157.017697 -2680.000000
  endloop
 endfacet
 facet normal 0.000000 0.000000 1.000000
  outer loop
   vertex 2500.000000 0.000000 -480.000000
   vertex 3878.879998 1157.017697 -480.000000
   vertex 3772.792206 1272.792206 -480.000000
  endloop
 endfacet
 facet normal 0.000000 0.000000 -1.000000
  outer loop
   vertex 2500.000000 0.000000 -2680.000000
   vertex 3657.017697 1378.879998 -2680.000000
   vertex 3772.792206 1272.792206 -2680.000000
  endloop
 endfacet
 facet normal 0.000000 0.000000 1.000000
  outer loop
   vertex 2500.000000 0.000000 -480.000000
   vertex 3772.792206 1272.792206 -480.000000
   vertex 3657.017697 1378.879998 -480.000000
  endloop
 endfacet
 facet normal 0.000000 0.000000 -1.000000
  outer loop
   vertex 2500.000000 0.000000 -2680.000000
   vertex 3532.437585 1474.473680 -2680.000000
   vertex 3657.017697 1378.879998 -2680.000000
  endloop
 endfacet
 facet normal 0.000000 0.000000 1.000000
  outer loop
   vertex 2500.000000 0.000000 -480.000000
   vertex 3657.017697 1378.879998 -480.000000
   vertex 3532.437585 1474.473680 -480.000000
  endloop
 endfacet
 facet normal 0.000000 0.000000 -1.000000
  outer loop
   vertex 2500.000000 0.000000 -2680.000000
   vertex 3400.000000 1558.845727 -2680.000000
   vertex 3532.437585 1474.473680 -2680.000000
  endloop
 endfacet
 facet normal 0.000000 0.000000 1.000000
  outer loop
   vertex 2500.000000 0.000000 -480.000000
   vertex 3532.437585 1474.473680 -480.000000
   vertex 3400.000000 1558.845727 -480.000000
  endloop
 endfacet
 facet normal 0.000000 0.000000 -1.000000
  outer loop
   vertex 2500.000000 0.000000 -2680.000000
   vertex 3260.712871 1631.354017 -2680.000000
   vertex 3400.000000 1558.845727 -2680.000000
  endloop
 endfacet
 facet normal 0.000000 0.000000 1.000000
  outer loop
   vertex 2500.000000 0.000000 -480.000000
   vertex 3400.000000 1558.845727 -480.000000
   vertex 3260.712871 1631.354017 -480.000000
  endloop
 endfacet
 facet normal 0.000000 0.000000 -1.000000
  outer loop
   vertex 2500.000000 0.000000 -2680.000000
   vertex 3115.636258 1691.446717 -2680.000000
   vertex 3260.712871 1631.354017 -2680.000000
  endloop
 endfacet
 facet normal 0.000000 0.000000 1.000000
  outer loop
   vertex 2500.000000 0.000000 -480.000000
   vertex 3260.712871 1631.354017 -480.000000
   vertex 3115.636258 1691.446717 -480.000000
  endloop
 endfacet
 facet normal 0.000000 0.000000 -1.000000
  outer loop
   vertex 2500.000000 0.000000 -2680.000000
   vertex 2965.874281 1738.666487 -2680.000000
   vertex 3115.636258 1691.446717 -2680.000000
  endloop
 endfacet
 facet normal 0.000000 0.000000 1.000000
  outer loop
   vertex 2500.000000 0.000000 -480.000000
   vertex 3115.636258 1691.446717 -480.000000
   vertex 2965.874281 1738.666487 -480.000000
  endloop
 endfacet
 facet normal 0.000000 0.000000 -1.000000
  outer loop
   vertex 2500.000000 0.000000 -2680.000000
   vertex 2812.566720 1772.653955 -2680.000000
   vertex 2965.874281 1738.666487 -2680.000000
  endloop
 endfacet
 facet normal 0.000000 0.000000 1.000000
  outer loop
   vertex 2500.000000 0.000000 -480.000000
   vertex 2965.874281 1738.666487 -480.000000
   vertex 2812.566720 1772.653955 -480.000000
  endloop
 endfacet
 facet normal 0.000000 0.000000 -1.000000
  outer loop
   vertex 2500.000000 0.000000 -2680.000000
   vertex 2656.880337 1793.150457 -2680.000000
   vertex 2812.566720 1772.653955 -2680.000000
  endloop
 endfacet
 facet normal 0.000000 0.000000 1.000000
  outer loop
   vertex 2500.000000 0.000000 -480.000000
   vertex 2812.566720 1772.653955 -480.000000
   vertex 2656.880337 1793.150457 -480.000000
  endloop
 endfacet
 facet normal 0.000000 0.000000 -1.000000
  outer loop
   vertex 2500.000000 0.000000 -2680.000000
   vertex 2500.000000 1800.000000 -2680.000000
   vertex 2656.880337 1793.150457 -2680.000000
  endloop
 endfacet
 facet normal 0.000000 0.000000 1.000000
  outer loop
   vertex 2500.000000 0.000000 -480.000000
   vertex 2656.880337 1793.150457 -480.000000
   vertex 2500.000000 1800.000000 -480.000000
  endloop
 endfacet
 facet normal 0.000000 0.000000 -1.000000
  outer loop
   vertex 2500.000000 0.000000 -2680.000000
   vertex 2343.119663 1793.150457 -2680.000000
   vertex 2500.000000 1800.000000 -2680.000000
  endloop
 endfacet
 facet normal 0.000000 -0.000000 1.000000
  outer loop
   vertex 2500.000000 0.000000 -480.000000
   vertex 2500.000000 1800.000000 -480.000000
   vertex 2343.119663 1793.150457 -480.000000
  endloop
 endfacet
 facet normal 0.000000 0.000000 -1.000000
  outer loop
   vertex 2500.000000 0.000000 -2680.000000
   vertex 2187.433280 1772.653955 -2680.000000
   vertex 2343.119663 1793.150457 -2680.000000
  endloop
 endfacet
 facet normal 0.000000 0.000000 1.000000
  outer loop
   vertex 2500.000000 0.000000 -480.000000
   vertex 2343.119663 1793.150457 -480.000000
   vertex 2187.433280 1772.653955 -480.000000
  endloop
 endfacet
 facet normal 0.000000 0.000000 -1.000000
  outer loop
   vertex 2500.000000 0.000000 -2680.000000
   vertex 2034.125719 1738.666487 -2680.000000
   vertex 2187.433280 1772.653955 -2680.000000
  endloop
 endfacet
 facet normal 0.000000 0.000000 1.000000
  outer loop
   vertex 2500.000000 0.000000 -480.000000
   vertex 2187.433280 1772.653955 -480.000000
   vertex 2034.125719 1738.666487 -480.000000
  endloop
 endfacet
 facet normal 0.000000 0.000000 -1.000000
  outer loop
   vertex 2500.000000 0.000000 -2680.000000
   vertex 1884.363742 1691.446717 -2680.000000
   vertex 2034.125719 1738.666487 -2680.000000
  endloop
 endfacet
 facet normal 0.000000 0.000000 1.000000
  outer loop
   vertex 2500.000000 0.000000 -480.000000
   vertex 2034.125719 1738.666487 -480.000000
   vertex 1884.363742 1691.446717 -480.000000
  endloop
 endfacet
 facet normal 0.000000 0.000000 -1.000000
  outer loop
   vertex 2500.000000 0.000000 -2680.000000
   vertex 1739.287129 1631.354017 -2680.000000
   vertex 1884.363742 1691.446717 -2680.000000
  endloop
 endfacet
 facet normal 0.000000 0.000000 1.000000
  outer loop
   vertex 2500.000000 0.000000 -480.000000
   vertex 1884.363742 1691.446717 -480.000000
   vertex 1739.287129 1631.354017 -480.000000
  endloop
 endfacet
 facet normal 0.000000 0.000000 -1.000000
  outer loop
   vertex 2500.000000 0.000000 -2680.000000
   vertex 1600.000000 1558.845727 -2680.000000
   vertex 1739.287129 1631.354017 -2680.000000
  endloop
 endfacet
 facet normal 0.000000 0.000000 1.000000
  outer loop
   vertex 2500.000000 0.000000 -480.000000
   vertex 1739.287129 1631.354017 -480.000000
   vertex 1600.000000 1558.845727 -480.000000
  endloop
 endfacet
 facet normal 0.000000 0.000000 -1.000000
  outer loop
   vertex 2500.000000 0.000000 -2680.000000
   vertex 1467.562415 1474.473680 -2680.000000
   vertex 1600.000000 1558.845727 -2680.000000
  endloop
 endfacet
 facet normal 0.000000 0.000000 1.000000
  outer loop
   vertex 2500.000000 0.000000 -480.000000
   vertex 1600.000000 1558.845727 -480.000000
   vertex 1467.562415 1474.473680 -480.000000
  endloop
 endfacet
 facet normal 0.000000 0.000000 -1.000000
  outer loop
   vertex 2500.000000 0.000000 -2680.000000
   vertex 1342.982303 1378.879998 -2680.000000
   vertex 1467.562415 1474.473680 -2680.000000
  endloop
 endfacet
 facet normal 0.000000 0.000000 1.000000
  outer loop
   vertex 2500.000000 0.000000 -480.000000
   vertex 1467.562415 1474.473680 -480.000000
   vertex 1342.982303 1378.879998 -480.000000
  endloop
 endfacet
 facet normal 0.000000 0.000000 -1.000000
  outer loop
   vertex 2500.000000 0.000000 -2680.000000
   vertex 1227.207794 1272.792206 -2680.000000
   vertex 1342.982303 1378.879998 -2680.000000
  endloop
 endfacet
 facet normal 0.000000 0.000000 1.000000
  outer loop
   vertex 2500.000000 0.000000 -480.000000
   vertex 1342.982303 1378.879998 -480.000000
   vertex 1227.207794 1272.792206 -480.000000
  endloop
 endfacet
 facet normal 0.000000 0.000000 -1.000000
  outer loop
   vertex 2500.000000 0.000000 -2680.000000
   vertex 1121.120002 1157.017697 -2680.000000
   vertex 1227.207794 1272.792206 -2680.000000
  endloop
 endfacet
 facet normal 0.000000 0.000000 1.000000
  outer loop
   vertex 2500.000000 0.000000 -480.000000
   vertex 1227.207794 1272.792206 -480.000000
   vertex 1121.120002 1157.017697 -480.000000
  endloop
 endfacet
 facet normal 0.000000 0.000000 -1.000000
  outer loop
   vertex 2500.000000 0.000000 -2680.000000
   vertex 1025.526320 1032.437585 -2680.000000
   vertex 1121.120002 1157.017697 -2680.000000
  endloop
 endfacet
 facet normal 0.000000 0.000000 1.000000
  outer loop
   vertex 2500.000000 0.000000 -480.000000
   vertex 1121.120002 1157.017697 -480.000000
   vertex 1025.526320 1032.437585 -480.000000
  endloop
 endfacet
 facet normal 0.000000 0.000000 -1.000000
  outer loop
   vertex 2500.000000 0.000000 -2680.000000
   vertex 941.154273 900.000000 -2680.000000
   vertex 1025.526320 1032.437585 -2680.000000
  endloop
 endfacet
 facet normal 0.000000 0.000000 1.000000
  outer loop
   vertex 2500.000000 0.000000 -480.000000
   vertex 1025.526320 1032.437585 -480.000000
   vertex 941.154273 900.000000 -480.000000
  endloop
 endfacet
 facet normal 0.000000 0.000000 -1.000000
  outer loop
   vertex 2500.000000 0.000000 -2680.000000
   vertex 868.645983 760.712871 -2680.000000
   vertex 941.154273 900.000000 -2680.000000
  endloop
 endfacet
 facet normal 0.000000 0.000000 1.000000
  outer loop
   vertex 2500.000000 0.000000 -480.000000
   vertex 941.154273 900.000000 -480.000000
   vertex 868.645983 760.712871 -480.000000
  endloop
 endfacet
 facet normal 0.000000 0.000000 -1.000000
  outer loop
   vertex 2500.000000 0.000000 -2680.000000
   vertex 808.553283 615.636258 -2680.000000
   vertex 868.645983 760.712871 -2680.000000
  endloop
 endfacet
 facet normal 0.000000 0.000000 1.000000
  outer loop
   vertex 2500.000000 0.000000 -480.000000
   vertex 868.645983 760.712871 -480.000000
   vertex 808.553283 615.636258 -480.000000
  endloop
 endfacet
 facet normal 0.000000 0.000000 -1.000000
  outer loop
   vertex 2500.000000 0.000000 -2680.000000
   vertex 761.333513 465.874281 -2680.000000
   vertex 808.553283 615.636258 -2680.000000
  endloop
 endfacet
 facet normal 0.000000 0.000000 1.000000
  outer loop
   vertex 2500.000000 0.000000 -480.000000
   vertex 808.553283 615.636258 -480.000000
   vertex 761.333513 465.874281 -480.000000
  endloop
 endfacet
 facet normal 0.000000 0.000000 -1.000000
  outer loop
   vertex 2500.000000 0.000000 -2680.000000
   vertex 727.346045 312.566720 -2680.000000
   vertex 761.333513 465.874281 -2680.000000
  endloop
 endfacet
 facet normal 0.000000 0.000000 1.000000
  outer loop
   vertex 2500.000000 0.000000 -480.000000
   vertex 761.333513 465.874281 -480.000000
   vertex 727.346045 312.566720 -480.000000
  endloop
 endfacet
 facet normal 0.000000 0.000000 -1.000000
  outer loop
   vertex 2500.000000 0.000000 -2680.000000
   vertex 706.849543 156.880337 -2680.000000
   vertex 727.346045 312.566720 -2680.000000
  endloop
 endfacet
 facet normal 0.000000 0.000000 1.000000
  outer loop
   vertex 2500.000000 0.000000 -480.000000
   vertex 727.346045 312.566720 -480.000000
   vertex 706.849543 156.880337 -480.000000
  endloop
 endfacet
 facet normal 0.000000 0.000000 -1.000000
  outer loop
   vertex 2500.000000 0.000000 -2680.000000
   vertex 700.000000 0.000000 -2680.000000
   vertex 706.849543 156.880337 -2680.000000
  endloop
 endfacet
 facet normal 0.000000 0.000000 1.000000
  outer loop
   vertex 2500.000000 0.000000 -480.000000
   vertex 706.849543 156.880337 -480.000000
   vertex 700.000000 0.000000 -480.000000
  endloop
 endfacet
 facet normal -0.000000 0.000000 -1.000000
  outer loop
   vertex 2500.000000 0.000000 -2680.000000
   vertex 706.849543 -156.880337 -2680.000000
   vertex 700.000000 0.000000 -2680.000000
  endloop
 endfacet
 facet normal 0.000000 0.000000 1.000000
  outer loop
   vertex 2500.000000 0.000000 -480.000000
   vertex 700.000000 0.000000 -480.000000
   vertex 706.849543 -156.880337 -480.000000
  endloop
 endfacet
 facet normal 0.000000 0.000000 -1.000000
  outer loop
   vertex 2500.000000 0.000000 -2680.000000
   vertex 727.346045 -312.566720 -2680.000000
   vertex 706.849543 -156.880337 -2680.000000
  endloop
 endfacet
 facet normal 0.000000 0.000000 1.000000
  outer loop
   vertex 2500.000000 0.000000 -480.000000
   vertex 706.849543 -156.880337 -480.000000
   vertex 727.346045 -312.566720 -480.000000
  endloop
 endfacet
 facet normal 0.000000 0.000000 -1.000000
  outer loop
   vertex 2500.000000 0.000000 -2680.000000
   vertex 761.333513 -465.874281 -2680.000000
   vertex 727.346045 -312.566720 -2680.000000
  endloop
 endfacet
 facet normal 0.000000 0.000000 1.000000
  outer loop
   vertex 2500.000000 0.000000 -480.000000
   vertex 727.346045 -312.566720 -480.000000
   vertex 761.333513 -465.874281 -480.000000
  endloop
 endfacet
 facet normal 0.000000 0.000000 -1.000000
  outer loop
   vertex 2500.000000 0.000000 -2680.000000
   vertex 808.553283 -615.636258 -2680.000000
   vertex 761.333513 -465.874281 -2680.000000
  endloop
 endfacet
 facet normal 0.000000 0.000000 1.000000
  outer loop
   vertex 2500.000000 0.000000 -480.000000
   vertex 761.333513 -465.874281 -480.000000
   vertex 808.553283 -615.636258 -480.000000
  endloop
 endfacet
 facet normal 0.000000 0.000000 -1.000000
  outer loop
   vertex 2500.000000 0.000000 -2680.000000
   vertex 868.645983 -760.712871 -2680.000000
   vertex 808.553283 -615.636258 -2680.000000
  endloop
 endfacet
 facet normal 0.000000 0.000000 1.000000
  outer loop
   vertex 2500.000000 0.000000 -480.000000
   vertex 808.553283 -615.636258 -480.000000
   vertex 868.645983 -760.712871 -480.000000
  endloop
 endfacet
 facet normal 0.000000 0.000000 -1.000000
  outer loop
   vertex 2500.000000 0.000000 -2680.000000
   vertex 941.154273 -900.000000 -2680.000000
   vertex 868.645983 -760.712871 -2680.000000
  endloop
 endfacet
 facet normal 0.000000 0.000000 1.000000
  outer loop
   vertex 2500.000000 0.000000 -480.000000
   vertex 868.645983 -760.712871 -480.000000
   vertex 941.154273 -900.000000 -480.000000
  endloop
 endfacet
 facet normal 0.000000 0.000000 -1.000000
  outer loop
   vertex 2500.000000 0.000000 -2680.000000
   vertex 1025.526320 -1032.437585 -2680.000000
   vertex 941.154273 -900.000000 -2680.000000
  endloop
 endfacet
 facet normal 0.000000 0.000000 1.000000
  outer loop
   vertex 2500.000000 0.000000 -480.000000
   vertex 941.154273 -900.000000 -480.000000
   vertex 1025.526320 -1032.437585 -480.000000
  endloop
 endfacet
 facet normal 0.000000 0.000000 -1.000000
  outer loop
   vertex 2500.000000 0.000000 -2680.000000
   vertex 1121.120002 -1157.017697 -2680.000000
   vertex 1025.526320 -1032.437585 -2680.000000
  endloop
 endfacet
 facet normal 0.000000 0.000000 1.000000
  outer loop
   vertex 2500.000000 0.000000 -480.000000
   vertex 1025.526320 -1032.437585 -480.000000
   vertex 1121.120002 -1157.017697 -480.000000
  endloop
 endfacet
 facet normal 0.000000 0.000000 -1.000000
  outer loop
   vertex 2500.000000 0.000000 -2680.000000
   vertex 1227.207794 -1272.792206 -2680.000000
   vertex 1121.120002 -1157.017697 -2680.000000
  endloop
 endfacet
 facet normal 0.000000 0.000000 1.000000
  outer loop
   vertex 2500.000000 0.000000 -480.000000
   vertex 1121.120002 -1157.017697 -480.000000
   vertex 1227.207794 -1272.792206 -480.000000
  endloop
 endfacet
 facet normal 0.000000 0.000000 -1.000000
  outer loop
   vertex 2500.000000 0.000000 -2680.000000
   vertex 1342.982303 -1378.879998 -2680.000000
   vertex 1227.207794 -1272.792206 -2680.000000
  endloop
 endfacet
 facet normal 0.000000 0.000000 1.000000
  outer loop
   vertex 2500.000000 0.000000 -480.000000
   vertex 1227.207794 -1272.792206 -480.000000
   vertex 1342.982303 -1378.879998 -480.000000
  endloop
 endfacet
 facet normal 0.000000 0.000000 -1.000000
  outer loop
   vertex 2500.000000 0.000000 -2680.000000
   vertex 1467.562415 -1474.473680 -2680.000000
   vertex 1342.982303 -1378.879998 -2680.000000
  endloop
 endfacet
 facet normal 0.000000 0.000000 1.000000
  outer loop
   vertex 2500.000000 0.000000 -480.000000
   vertex 1342.982303 -1378.879998 -480.000000
   vertex 1467.562415 -1474.473680 -480.000000
  endloop
 endfacet
 facet normal 0.000000 0.000000 -1.000000
  outer loop
   vertex 2500.000000 0.000000 -2680.000000
   vertex 1600.000000 -1558.845727 -2680.000000
   vertex 1467.562415 -1474.473680 -2680.000000
  endloop
 endfacet
 facet normal 0.000000 0.000000 1.000000
  outer loop
   vertex 2500.000000 0.000000 -480.000000
   vertex 1467.562415 -1474.473680 -480.000000
   vertex 1600.000000 -1558.845727 -480.000000
  endloop
 endfacet
 facet normal 0.000000 0.000000 -1.000000
  outer loop
   vertex 2500.000000 0.000000 -2680.000000
   vertex 1739.287129 -1631.354017 -2680.000000
   vertex 1600.000000 -1558.845727 -2680.000000
  endloop
 endfacet
 facet normal 0.000000 0.000000 1.000000
  outer loop
   vertex 2500.000000 0.000000 -480.000000
   vertex 1600.000000 -1558.845727 -480.000000
   vertex 1739.287129 -1631.354017 -480.000000
  endloop
 endfacet
 facet normal 0.000000 0.000000 -1.000000
  outer loop
   vertex 2500.000000 0.000000 -2680.000000
   vertex 1884.363742 -1691.446717 -2680.000000
   vertex 1739.287129 -1631.354017 -2680.000000
  endloop
 endfacet
 facet normal 0.000000 0.000000 1.000000
  outer loop
   vertex 2500.000000 0.000000 -480.000000
   vertex 1739.287129 -1631.354017 -480.000000
   vertex 1884.363742 -1691.446717 -480.000000
  endloop
 endfacet
 facet normal 0.000000 0.000000 -1.000000
  outer loop
   vertex 2500.000000 0.000000 -2680.000000
   vertex 2034.125719 -1738.666487 -2680.000000
   vertex 1884.363742 -1691.446717 -2680.000000
  endloop
 endfacet
 facet normal 0.000000 0.000000 1.000000
  outer loop
   vertex 2500.000000 0.000000 -480.000000
   vertex 1884.363742 -1691.446717 -480.000000
   vertex 2034.125719 -1738.666487 -480.000000
  endloop
 endfacet
 facet normal 0.000000 0.000000 -1.000000
  outer loop
   vertex 2500.000000 0.000000 -2680.000000
   vertex 2187.433280 -1772.653955 -2680.000000
   vertex 2034.125719 -1738.666487 -2680.000000
  endloop
 endfacet
 facet normal 0.000000 0.000000 1.000000
  outer loop
   vertex 2500.000000 0.000000 -480.000000
   vertex 2034.125719 -1738.666487 -480.000000
   vertex 2187.433280 -1772.653955 -480.000000
  endloop
 endfacet
 facet normal 0.000000 0.000000 -1.000000
  outer loop
   vertex 2500.000000 0.000000 -2680.000000
   vertex 2343.119663 -1793.150457 -2680.000000
   vertex 2187.433280 -1772.653955 -2680.000000
  endloop
 endfacet
 facet normal 0.000000 0.000000 1.000000
  outer loop
   vertex 2500.000000 0.000000 -480.000000
   vertex 2187.433280 -1772.653955 -480.000000
   vertex 2343.119663 -1793.150457 -480.000000
  endloop
 endfacet
 facet normal 0.000000 0.000000 -1.000000
  outer loop
   vertex 2500.000000 0.000000 -2680.000000
   vertex 2500.000000 -1800.000000 -2680.000000
   vertex 2343.119663 -1793.150457 -2680.000000
  endloop
 endfacet
 facet normal 0.000000 0.000000 1.000000
  outer loop
   vertex 2500.000000 0.000000 -480.000000
   vertex 2343.119663 -1793.150457 -480.000000
   vertex 2500.000000 -1800.000000 -480.000000
  endloop
 endfacet
 facet normal 0.000000 -0.000000 -1.000000
  outer loop
   vertex 2500.000000 0.000000 -2680.000000
   vertex 2656.880337 -1793.150457 -2680.000000
   vertex 2500.000000 -1800.000000 -2680.000000
  endloop
 endfacet
 facet normal 0.000000 0.000000 1.000000
  outer loop
   vertex 2500.000000 0.000000 -480.000000
   vertex 2500.000000 -1800.000000 -480.000000
   vertex 2656.880337 -1793.150457 -480.000000
  endloop
 endfacet
 facet normal 0.000000 0.000000 -1.000000
  outer loop
   vertex 2500.000000 0.000000 -2680.000000
   vertex 2812.566720 -1772.653955 -2680.000000
   vertex 2656.880337 -1793.150457 -2680.000000
  endloop
 endfacet
 facet normal 0.000000 0.000000 1.000000
  outer loop
   vertex 2500.000000 0.000000 -480.000000
   vertex 2656.880337 -1793.150457 -480.000000
   vertex 2812.566720 -1772.653955 -480.000000
  endloop
 endfacet
 facet normal 0.000000 0.000000 -1.000000
  outer loop
   vertex 2500.000000 0.000000 -2680.000000
   vertex 2965.874281 -1738.666487 -2680.000000
   vertex 2812.566720 -1772.653955 -2680.000000
  endloop
 endfacet
 facet normal 0.000000 0.000000 1.000000
  outer loop
   vertex 2500.000000 0.000000 -480.000000
   vertex 2812.566720 -1772.653955 -480.000000
   vertex 2965.874281 -1738.666487 -480.000000
  endloop
 endfacet
 facet normal 0.000000 0.000000 -1.000000
  outer loop
   vertex 2500.000000 0.000000 -2680.000000
   vertex 3115.636258 -1691.446717 -2680.000000
   vertex 2965.874281 -1738.666487 -2680.000000
  endloop
 endfacet
 facet normal 0.000000 0.000000 1.000000
  outer loop
   vertex 2500.000000 0.000000 -480.000000
   vertex 2965.874281 -1738.666487 -480.000000
   vertex 3115.636258 -1691.446717 -480.000000
  endloop
 endfacet
 facet normal 0.000000 0.000000 -1.000000
  outer loop
   vertex 2500.000000 0.000000 -2680.000000
   vertex 3260.712871 -1631.354017 -2680.000000
   vertex 3115.636258 -1691.446717 -2680.000000
  endloop
 endfacet
 facet normal 0.000000 0.000000 1.000000
  outer loop
   vertex 2500.000000 0.000000 -480.000000
   vertex 3115.636258 -1691.446717 -480.000000
   vertex 3260.712871 -1631.354017 -480.000000
  endloop
 endfacet
 facet normal 0.000000 0.000000 -1.000000
  outer loop
   vertex 2500.000000 0.000000 -2680.000000
   vertex 3400.000000 -1558.845727 -2680.000000
   vertex 3260.712871 -1631.354017 -2680.000000
  endloop
 endfacet
 facet normal 0.000000 0.000000 1.000000
  outer loop
   vertex 2500.000000 0.000000 -480.000000
   vertex 3260.712871 -1631.354017 -480.000000
   vertex 3400.000000 -1558.845727 -480.000000
  endloop
 endfacet
 facet normal 0.000000 0.000000 -1.000000
  outer loop
   vertex 2500.000000 0.000000 -2680.000000
   vertex 3532.437585 -1474.473680 -2680.000000
   vertex 3400.000000 -1558.845727 -2680.000000
  endloop
 endfacet
 facet normal 0.000000 0.000000 1.000000
  outer loop
   vertex 2500.000000 0.000000 -480.000000
   vertex 3400.000000 -1558.845727 -480.000000
   vertex 3532.437585 -1474.473680 -480.000000
  endloop
 endfacet
 facet normal 0.000000 0.000000 -1.000000
  outer loop
   vertex 2500.000000 0.000000 -2680.000000
   vertex 3657.017697 -1378.879998 -2680.000000
   vertex 3532.437585 -1474.473680 -2680.000000
  endloop
 endfacet
 facet normal 0.000000 0.000000 1.000000
  outer loop
   vertex 2500.000000 0.000000 -480.000000
   vertex 3532.437585 -1474.473680 -480.000000
   vertex 3657.017697 -1378.879998 -480.000000
  endloop
 endfacet
 facet normal 0.000000 0.000000 -1.000000
  outer loop
   vertex 2500.000000 0.000000 -2680.000000
   vertex 3772.792206 -1272.792206 -2680.000000
   vertex 3657.017697 -1378.879998 -2680.000000
  endloop
 endfacet
 facet normal 0.000000 0.000000 1.000000
  outer loop
   vertex 2500.000000 0.000000 -480.000000
   vertex 3657.017697 -1378.879998 -480.000000
   vertex 3772.792206 -1272.792206 -480.000000
  endloop
 endfacet
 facet normal 0.000000 0.000000 -1.000000
  outer loop
   vertex 2500.000000 0.000000 -2680.000000
   vertex 3878.879998 -1157.017697 -2680.000000
   vertex 3772.792206 -1272.792206 -2680.000000
  endloop
 endfacet
 facet normal 0.000000 0.000000 1.000000
  outer loop
   vertex 2500.000000 0.000000 -480.000000
   vertex 3772.792206 -1272.792206 -480.000000
   vertex 3878.879998 -1157.017697 -480.000000
  endloop
 endfacet
 facet normal 0.000000 0.000000 -1.000000
  outer loop
   vertex 2500.000000 0.000000 -2680.000000
   vertex 3974.473680 -1032.437585 -2680.000000
   vertex 3878.879998 -1157.017697 -2680.000000
  endloop
 endfacet
 facet normal 0.000000 0.000000 1.000000
  outer loop
   vertex 2500.000000 0.000000 -480.000000
   vertex 3878.879998 -1157.017697 -480.000000
   vertex 3974.473680 -1032.437585 -480.000000
  endloop
 endfacet
 facet normal 0.000000 0.000000 -1.000000
  outer loop
   vertex 2500.000000 0.000000 -2680.000000
   vertex 4058.845727 -900.000000 -2680.000000
   vertex 3974.473680 -1032.437585 -2680.000000
  endloop
 endfacet
 facet normal 0.000000 0.000000 1.000000
  outer loop
   vertex 2500.000000 0.000000 -480.000000
   vertex 3974.473680 -1032.437585 -480.000000
   vertex 4058.845727 -900.000000 -480.000000
  endloop
 endfacet
 facet normal 0.000000 0.000000 -1.000000
  outer loop
   vertex 2500.000000 0.000000 -2680.000000
   vertex 4131.354017 -760.712871 -2680.000000
   vertex 4058.845727 -900.000000 -2680.000000
  endloop
 endfacet
 facet normal 0.000000 0.000000 1.000000
  outer loop
   vertex 2500.000000 0.000000 -480.000000
   vertex 4058.845727 -900.000000 -480.000000
   vertex 4131.354017 -760.712871 -480.000000
  endloop
 endfacet
 facet normal 0.000000 0.000000 -1.000000
  outer loop
   vertex 2500.000000 0.000000 -2680.000000
   vertex 4191.446717 -615.636258 -2680.000000
   vertex 4131.354017 -760.712871 -2680.000000
  endloop
 endfacet
 facet normal 0.000000 0.000000 1.000000
  outer loop
   vertex 2500.000000 0.000000 -480.000000
   vertex 4131.354017 -760.712871 -480.000000
   vertex 4191.446717 -615.636258 -480.000000
  endloop
 endfacet
 facet normal 0.000000 0.000000 -1.000000
  outer loop
   vertex 2500.000000 0.000000 -2680.000000
   vertex 4238.666487 -465.874281 -2680.000000
   vertex 4191.446717 -615.636258 -2680.000000
  endloop
 endfacet
 facet normal 0.000000 0.000000 1.000000
  outer loop
   vertex 2500.000000 0.000000 -480.000000
   vertex 4191.446717 -615.636258 -480.000000
   vertex 4238.666487 -465.874281 -480.000000
  endloop
 endfacet
 facet normal 0.000000 0.000000 -1.000000
  outer loop
   vertex 2500.000000 0.000000 -2680.000000
   vertex 4272.653955 -312.566720 -2680.000000
   vertex 4238.666487 -465.874281 -2680.000000
  endloop
 endfacet
 facet normal 0.000000 0.000000 1.000000
  outer loop
   vertex 2500.000000 0.000000 -480.000000
   vertex 4238.666487 -465.874281 -480.000000
   vertex 4272.653955 -312.566720 -480.000000
  endloop
 endfacet
 facet normal 0.000000 0.000000 -1.000000
  outer loop
   vertex 2500.000000 0.000000 -2680.000000
   vertex 4293.150457 -156.880337 -2680.000000
   vertex 4272.653955 -312.566720 -2680.000000
  endloop
 endfacet
 facet normal 0.000000 0.000000 1.000000
  outer loop
   vertex 2500.000000 0.000000 -480.000000
   vertex 4272.653955 -312.566720 -480.000000
   vertex 4293.150457 -156.880337 -480.000000
  endloop
 endfacet
 facet normal 0.000000 0.000000 -1.000000
  outer loop
   vertex 2500.000000 0.000000 -2680.000000
   vertex 4300.000000 0.000000 -2680.000000
   vertex 4293.150457 -156.880337 -2680.000000
  endloop
 endfacet
 facet normal -0.000000 0.000000 1.000000
  outer loop
   vertex 2500.000000 0.000000 -480.000000
   vertex 4293.150457 -156.880337 -480.000000
   vertex 4300.000000 0.000000 -480.000000
  endloop
 endfacet
endsolid F1_NOZZLE
