solid F1_NOZZLE
 facet normal 0.999048 0.043619 0.000000
  outer loop
   vertex 3656.373050 0.000000 -2680.000000
   vertex 3651.972701 100.784552 -2680.000000
   vertex 3651.972701 100.784552 -480.000000
  endloop
 endfacet
 facet normal 0.999048 0.043619 -0.000000
  outer loop
   vertex 3656.373050 0.000000 -2680.000000
   vertex 3651.972701 100.784552 -480.000000
   vertex 3656.373050 0.000000 -480.000000
  endloop
 endfacet
 facet normal 0.991445 0.130526 0.000000
  outer loop
   vertex 3651.972701 100.784552 -2680.000000
   vertex 3638.805145 200.802073 -2680.000000
   vertex 3638.805145 200.802073 -480.000000
  endloop
 endfacet
 facet normal 0.991445 0.130526 -0.000000
  outer loop
   vertex 3651.972701 100.784552 -2680.000000
   vertex 3638.805145 200.802073 -480.000000
   vertex 3651.972701 100.784552 -480.000000
  endloop
 endfacet
 facet normal 0.976296 0.216440 0.000000
  outer loop
   vertex 3638.805145 200.802073 -2680.000000
   vertex 3616.970594 299.291369 -2680.000000
   vertex 3616.970594 299.291369 -480.000000
  endloop
 endfacet
 facet normal 0.976296 0.216440 -0.000000
  outer loop
   vertex 3638.805145 200.802073 -2680.000000
   vertex 3616.970594 299.291369 -480.000000
   vertex 3638.805145 200.802073 -480.000000
  endloop
 endfacet
 facet normal 0.953717 0.300706 0.000000
  outer loop
   vertex 3616.970594 299.291369 -2680.000000
   vertex 3586.635222 395.502876 -2680.000000
   vertex 3586.635222 395.502876 -480.000000
  endloop
 endfacet
 facet normal 0.953717 0.300706 -0.000000
  outer loop
   vertex 3616.970594 299.291369 -2680.000000
   vertex 3586.635222 395.502876 -480.000000
   vertex 3616.970594 299.291369 -480.000000
  endloop
 endfacet
 facet normal 0.923880 0.382683 0.000000
  outer loop
   vertex 3586.635222 395.502876 -2680.000000
   vertex 3548.029900 488.704368 -2680.000000
   vertex 3548.029900 488.704368 -480.000000
  endloop
 endfacet
 facet normal 0.923880 0.382683 -0.000000
  outer loop
   vertex 3586.635222 395.502876 -2680.000000
   vertex 3548.029900 488.704368 -480.000000
   vertex 3586.635222 395.502876 -480.000000
  endloop
 endfacet
 facet normal 0.887011 0.461749 0.000000
  outer loop
   vertex 3548.029900 488.704368 -2680.000000
   vertex 3501.448437 578.186525 -2680.000000
   vertex 3501.448437 578.186525 -480.000000
  endloop
 endfacet
 facet normal 0.887011 0.461749 -0.000000
  outer loop
   vertex 3548.029900 488.704368 -2680.000000
   vertex 3501.448437 578.186525 -480.000000
   vertex 3548.029900 488.704368 -480.000000
  endloop
 endfacet
 facet normal 0.843391 0.537300 0.000000
  outer loop
   vertex 3501.448437 578.186525 -2680.000000
   vertex 3447.245348 663.268333 -2680.000000
   vertex 3447.245348 663.268333 -480.000000
  endloop
 endfacet
 facet normal 0.843391 0.537300 -0.000000
  outer loop
   vertex 3501.448437 578.186525 -2680.000000
   vertex 3447.245348 663.268333 -480.000000
   vertex 3501.448437 578.186525 -480.000000
  endloop
 endfacet
 facet normal 0.793353 0.608761 0.000000
  outer loop
   vertex 3447.245348 663.268333 -2680.000000
   vertex 3385.833149 743.302269 -2680.000000
   vertex 3385.833149 743.302269 -480.000000
  endloop
 endfacet
 facet normal 0.793353 0.608761 -0.000000
  outer loop
   vertex 3447.245348 663.268333 -2680.000000
   vertex 3385.833149 743.302269 -480.000000
   vertex 3447.245348 663.268333 -480.000000
  endloop
 endfacet
 facet normal 0.737277 0.675590 0.000000
  outer loop
   vertex 3385.833149 743.302269 -2680.000000
   vertex 3317.679225 817.679225 -2680.000000
   vertex 3317.679225 817.679225 -480.000000
  endloop
 endfacet
 facet normal 0.737277 0.675590 -0.000000
  outer loop
   vertex 3385.833149 743.302269 -2680.000000
   vertex 3317.679225 817.679225 -480.000000
   vertex 3385.833149 743.302269 -480.000000
  endloop
 endfacet
 facet normal 0.675590 0.737277 0.000000
  outer loop
   vertex 3317.679225 817.679225 -2680.000000
   vertex 3243.302269 885.833149 -2680.000000
   vertex 3243.302269 885.833149 -480.000000
  endloop
 endfacet
 facet normal 0.675590 0.737277 -0.000000
  outer loop
   vertex 3317.679225 817.679225 -2680.000000
   vertex 3243.302269 885.833149 -480.000000
   vertex 3317.679225 817.679225 -480.000000
  endloop
 endfacet
 facet normal 0.608761 0.793353 0.000000
  outer loop
   vertex 3243.302269 885.833149 -2680.000000
   vertex 3163.268333 947.245348 -2680.000000
   vertex 3163.268333 947.245348 -480.000000
  endloop
 endfacet
 facet normal 0.608761 0.793353 -0.000000
  outer loop
   vertex 3243.302269 885.833149 -2680.000000
   vertex 3163.268333 947.245348 -480.000000
   vertex 3243.302269 885.833149 -480.000000
  endloop
 endfacet
 facet normal 0.537300 0.843391 0.000000
  outer loop
   vertex 3163.268333 947.245348 -2680.000000
   vertex 3078.186525 1001.448437 -2680.000000
   vertex 3078.186525 1001.448437 -480.000000
  endloop
 endfacet
 facet normal 0.537300 0.843391 -0.000000
  outer loop
   vertex 3163.268333 947.245348 -2680.000000
   vertex 3078.186525 1001.448437 -480.000000
   vertex 3163.268333 947.245348 -480.000000
  endloop
 endfacet
 facet normal 0.461749 0.887011 0.000000
  outer loop
   vertex 3078.186525 1001.448437 -2680.000000
   vertex 2988.704368 1048.029900 -2680.000000
   vertex 2988.704368 1048.029900 -480.000000
  endloop
 endfacet
 facet normal 0.461749 0.887011 -0.000000
  outer loop
   vertex 3078.186525 1001.448437 -2680.000000
   vertex 2988.704368 1048.029900 -480.000000
   vertex 3078.186525 1001.448437 -480.000000
  endloop
 endfacet
 facet normal 0.382683 0.923880 0.000000
  outer loop
   vertex 2988.704368 1048.029900 -2680.000000
   vertex 2895.502876 1086.635222 -2680.000000
   vertex 2895.502876 1086.635222 -480.000000
  endloop
 endfacet
 facet normal 0.382683 0.923880 -0.000000
  outer loop
   vertex 2988.704368 1048.029900 -2680.000000
   vertex 2895.502876 1086.635222 -480.000000
   vertex 2988.704368 1048.029900 -480.000000
  endloop
 endfacet
 facet normal 0.300706 0.953717 0.000000
  outer loop
   vertex 2895.502876 1086.635222 -2680.000000
   vertex 2799.291369 1116.970594 -2680.000000
   vertex 2799.291369 1116.970594 -480.000000
  endloop
 endfacet
 facet normal 0.300706 0.953717 -0.000000
  outer loop
   vertex 2895.502876 1086.635222 -2680.000000
   vertex 2799.291369 1116.970594 -480.000000
   vertex 2895.502876 1086.635222 -480.000000
  endloop
 endfacet
 facet normal 0.216440 0.976296 0.000000
  outer loop
   vertex 2799.291369 1116.970594 -2680.000000
   vertex 2700.802073 1138.805145 -2680.000000
   vertex 2700.802073 1138.805145 -480.000000
  endloop
 endfacet
 facet normal 0.216440 0.976296 -0.000000
  outer loop
   vertex 2799.291369 1116.970594 -2680.000000
   vertex 2700.802073 1138.805145 -480.000000
   vertex 2799.291369 1116.970594 -480.000000
  endloop
 endfacet
 facet normal 0.130526 0.991445 0.000000
  outer loop
   vertex 2700.802073 1138.805145 -2680.000000
   vertex 2600.784552 1151.972701 -2680.000000
   vertex 2600.784552 1151.972701 -480.000000
  endloop
 endfacet
 facet normal 0.130526 0.991445 -0.000000
  outer loop
   vertex 2700.802073 1138.805145 -2680.000000
   vertex 2600.784552 1151.972701 -480.000000
   vertex 2700.802073 1138.805145 -480.000000
  endloop
 endfacet
 facet normal 0.043619 0.999048 0.000000
  outer loop
   vertex 2600.784552 1151.972701 -2680.000000
   vertex 2500.000000 1156.373050 -2680.000000
   vertex 2500.000000 1156.373050 -480.000000
  endloop
 endfacet
 facet normal 0.043619 0.999048 -0.000000
  outer loop
   vertex 2600.784552 1151.972701 -2680.000000
   vertex 2500.000000 1156.373050 -480.000000
   vertex 2600.784552 1151.972701 -480.000000
  endloop
 endfacet
 facet normal -0.043619 0.999048 0.000000
  outer loop
   vertex 2500.000000 1156.373050 -2680.000000
   vertex 2399.215448 1151.972701 -2680.000000
   vertex 2399.215448 1151.972701 -480.000000
  endloop
 endfacet
 facet normal -0.043619 0.999048 0.000000
  outer loop
   vertex 2500.000000 1156.373050 -2680.000000
   vertex 2399.215448 1151.972701 -480.000000
   vertex 2500.000000 1156.373050 -480.000000
  endloop
 endfacet
 facet normal -0.130526 0.991445 0.000000
  outer loop
   vertex 2399.215448 1151.972701 -2680.000000
   vertex 2299.197927 1138.805145 -2680.000000
   vertex 2299.197927 1138.805145 -480.000000
  endloop
 endfacet
 facet normal -0.130526 0.991445 0.000000
  outer loop
   vertex 2399.215448 1151.972701 -2680.000000
   vertex 2299.197927 1138.805145 -480.000000
   vertex 2399.215448 1151.972701 -480.000000
  endloop
 endfacet
 facet normal -0.216440 0.976296 0.000000
  outer loop
   vertex 2299.197927 1138.805145 -2680.000000
   vertex 2200.708631 1116.970594 -2680.000000
   vertex 2200.708631 1116.970594 -480.000000
  endloop
 endfacet
 facet normal -0.216440 0.976296 0.000000
  outer loop
   vertex 2299.197927 1138.805145 -2680.000000
   vertex 2200.708631 1116.970594 -480.000000
   vertex 2299.197927 1138.805145 -480.000000
  endloop
 endfacet
 facet normal -0.300706 0.953717 0.000000
  outer loop
   vertex 2200.708631 1116.970594 -2680.000000
   vertex 2104.497124 1086.635222 -2680.000000
   vertex 2104.497124 1086.635222 -480.000000
  endloop
 endfacet
 facet normal -0.300706 0.953717 0.000000
  outer loop
   vertex 2200.708631 1116.970594 -2680.000000
   vertex 2104.497124 1086.635222 -480.000000
   vertex 2200.708631 1116.970594 -480.000000
  endloop
 endfacet
 facet normal -0.382683 0.923880 0.000000
  outer loop
   vertex 2104.497124 1086.635222 -2680.000000
   vertex 2011.295632 1048.029900 -2680.000000
   vertex 2011.295632 1048.029900 -480.000000
  endloop
 endfacet
 facet normal -0.382683 0.923880 0.000000
  outer loop
   vertex 2104.497124 1086.635222 -2680.000000
   vertex 2011.295632 1048.029900 -480.000000
   vertex 2104.497124 1086.635222 -480.000000
  endloop
 endfacet
 facet normal -0.461749 0.887011 0.000000
  outer loop
   vertex 2011.295632 1048.029900 -2680.000000
   vertex 1921.813475 1001.448437 -2680.000000
   vertex 1921.813475 1001.448437 -480.000000
  endloop
 endfacet
 facet normal -0.461749 0.887011 0.000000
  outer loop
   vertex 2011.295632 1048.029900 -2680.000000
   vertex 1921.813475 1001.448437 -480.000000
   vertex 2011.295632 1048.029900 -480.000000
  endloop
 endfacet
 facet normal -0.537300 0.843391 0.000000
  outer loop
   vertex 1921.813475 1001.448437 -2680.000000
   vertex 1836.731667 947.245348 -2680.000000
   vertex 1836.731667 947.245348 -480.000000
  endloop
 endfacet
 facet normal -0.537300 0.843391 0.000000
  outer loop
   vertex 1921.813475 1001.448437 -2680.000000
   vertex 1836.731667 947.245348 -480.000000
   vertex 1921.813475 1001.448437 -480.000000
  endloop
 endfacet
 facet normal -0.608761 0.793353 0.000000
  outer loop
   vertex 1836.731667 947.245348 -2680.000000
   vertex 1756.697731 885.833149 -2680.000000
   vertex 1756.697731 885.833149 -480.000000
  endloop
 endfacet
 facet normal -0.608761 0.793353 0.000000
  outer loop
   vertex 1836.731667 947.245348 -2680.000000
   vertex 1756.697731 885.833149 -480.000000
   vertex 1836.731667 947.245348 -480.000000
  endloop
 endfacet
 facet normal -0.675590 0.737277 0.000000
  outer loop
   vertex 1756.697731 885.833149 -2680.000000
   vertex 1682.320775 817.679225 -2680.000000
   vertex 1682.320775 817.679225 -480.000000
  endloop
 endfacet
 facet normal -0.675590 0.737277 0.000000
  outer loop
   vertex 1756.697731 885.833149 -2680.000000
   vertex 1682.320775 817.679225 -480.000000
   vertex 1756.697731 885.833149 -480.000000
  endloop
 endfacet
 facet normal -0.737277 0.675590 0.000000
  outer loop
   vertex 1682.320775 817.679225 -2680.000000
   vertex 1614.166851 743.302269 -2680.000000
   vertex 1614.166851 743.302269 -480.000000
  endloop
 endfacet
 facet normal -0.737277 0.675590 0.000000
  outer loop
   vertex 1682.320775 817.679225 -2680.000000
   vertex 1614.166851 743.302269 -480.000000
   vertex 1682.320775 817.679225 -480.000000
  endloop
 endfacet
 facet normal -0.793353 0.608761 0.000000
  outer loop
   vertex 1614.166851 743.302269 -2680.000000
   vertex 1552.754652 663.268333 -2680.000000
   vertex 1552.754652 663.268333 -480.000000
  endloop
 endfacet
 facet normal -0.793353 0.608761 0.000000
  outer loop
   vertex 1614.166851 743.302269 -2680.000000
   vertex 1552.754652 663.268333 -480.000000
   vertex 1614.166851 743.302269 -480.000000
  endloop
 endfacet
 facet normal -0.843391 0.537300 0.000000
  outer loop
   vertex 1552.754652 663.268333 -2680.000000
   vertex 1498.551563 578.186525 -2680.000000
   vertex 1498.551563 578.186525 -480.000000
  endloop
 endfacet
 facet normal -0.843391 0.537300 0.000000
  outer loop
   vertex 1552.754652 663.268333 -2680.000000
   vertex 1498.551563 578.186525 -480.000000
   vertex 1552.754652 663.268333 -480.000000
  endloop
 endfacet
 facet normal -0.887011 0.461749 0.000000
  outer loop
   vertex 1498.551563 578.186525 -2680.000000
   vertex 1451.970100 488.704368 -2680.000000
   vertex 1451.970100 488.704368 -480.000000
  endloop
 endfacet
 facet normal -0.887011 0.461749 0.000000
  outer loop
   vertex 1498.551563 578.186525 -2680.000000
   vertex 1451.970100 488.704368 -480.000000
   vertex 1498.551563 578.186525 -480.000000
  endloop
 endfacet
 facet normal -0.923880 0.382683 0.000000
  outer loop
   vertex 1451.970100 488.704368 -2680.000000
   vertex 1413.364778 395.502876 -2680.000000
   vertex 1413.364778 395.502876 -480.000000
  endloop
 endfacet
 facet normal -0.923880 0.382683 0.000000
  outer loop
   vertex 1451.970100 488.704368 -2680.000000
   vertex 1413.364778 395.502876 -480.000000
   vertex 1451.970100 488.704368 -480.000000
  endloop
 endfacet
 facet normal -0.953717 0.300706 0.000000
  outer loop
   vertex 1413.364778 395.502876 -2680.000000
   vertex 1383.029406 299.291369 -2680.000000
   vertex 1383.029406 299.291369 -480.000000
  endloop
 endfacet
 facet normal -0.953717 0.300706 0.000000
  outer loop
   vertex 1413.364778 395.502876 -2680.000000
   vertex 1383.029406 299.291369 -480.000000
   vertex 1413.364778 395.502876 -480.000000
  endloop
 endfacet
 facet normal -0.976296 0.216440 0.000000
  outer loop
   vertex 1383.029406 299.291369 -2680.000000
   vertex 1361.194855 200.802073 -2680.000000
   vertex 1361.194855 200.802073 -480.000000
  endloop
 endfacet
 facet normal -0.976296 0.216440 0.000000
  outer loop
   vertex 1383.029406 299.291369 -2680.000000
   vertex 1361.194855 200.802073 -480.000000
   vertex 1383.029406 299.291369 -480.000000
  endloop
 endfacet
 facet normal -0.991445 0.130526 0.000000
  outer loop
   vertex 1361.194855 200.802073 -2680.000000
   vertex 1348.027299 100.784552 -2680.000000
   vertex 1348.027299 100.784552 -480.000000
  endloop
 endfacet
 facet normal -0.991445 0.130526 0.000000
  outer loop
   vertex 1361.194855 200.802073 -2680.000000
   vertex 1348.027299 100.784552 -480.000000
   vertex 1361.194855 200.802073 -480.000000
  endloop
 endfacet
 facet normal -0.999048 0.043619 0.000000
  outer loop
   vertex 1348.027299 100.784552 -2680.000000
   vertex 1343.626950 0.000000 -2680.000000
   vertex 1343.626950 0.000000 -480.000000
  endloop
 endfacet
 facet normal -0.999048 0.043619 0.000000
  outer loop
   vertex 1348.027299 100.784552 -2680.000000
   vertex 1343.626950 0.000000 -480.000000
   vertex 1348.027299 100.784552 -480.000000
  endloop
 endfacet
 facet normal -0.999048 -0.043619 0.000000
  outer loop
   vertex 1343.626950 0.000000 -2680.000000
   vertex 1348.027299 -100.784552 -2680.000000
   vertex 1348.027299 -100.784552 -480.000000
  endloop
 endfacet
 facet normal -0.999048 -0.043619 0.000000
  outer loop
   vertex 1343.626950 0.000000 -2680.000000
   vertex 1348.027299 -100.784552 -480.000000
   vertex 1343.626950 0.000000 -480.000000
  endloop
 endfacet
 facet normal -0.991445 -0.130526 0.000000
  outer loop
   vertex 1348.027299 -100.784552 -2680.000000
   vertex 1361.194855 -200.802073 -2680.000000
   vertex 1361.194855 -200.802073 -480.000000
  endloop
 endfacet
 facet normal -0.991445 -0.130526 0.000000
  outer loop
   vertex 1348.027299 -100.784552 -2680.000000
   vertex 1361.194855 -200.802073 -480.000000
   vertex 1348.027299 -100.784552 -480.000000
  endloop
 endfacet
 facet normal -0.976296 -0.216440 0.000000
  outer loop
   vertex 1361.194855 -200.802073 -2680.000000
   vertex 1383.029406 -299.291369 -2680.000000
   vertex 1383.029406 -299.291369 -480.000000
  endloop
 endfacet
 facet normal -0.976296 -0.216440 0.000000
  outer loop
   vertex 1361.194855 -200.802073 -2680.000000
   vertex 1383.029406 -299.291369 -480.000000
   vertex 1361.194855 -200.802073 -480.000000
  endloop
 endfacet
 facet normal -0.953717 -0.300706 0.000000
  outer loop
   vertex 1383.029406 -299.291369 -2680.000000
   vertex 1413.364778 -395.502876 -2680.000000
   vertex 1413.364778 -395.502876 -480.000000
  endloop
 endfacet
 facet normal -0.953717 -0.300706 0.000000
  outer loop
   vertex 1383.029406 -299.291369 -2680.000000
   vertex 1413.364778 -395.502876 -480.000000
   vertex 1383.029406 -299.291369 -480.000000
  endloop
 endfacet
 facet normal -0.923880 -0.382683 0.000000
  outer loop
   vertex 1413.364778 -395.502876 -2680.000000
   vertex 1451.970100 -488.704368 -2680.000000
   vertex 1451.970100 -488.704368 -480.000000
  endloop
 endfacet
 facet normal -0.923880 -0.382683 0.000000
  outer loop
   vertex 1413.364778 -395.502876 -2680.000000
   vertex 1451.970100 -488.704368 -480.000000
   vertex 1413.364778 -395.502876 -480.000000
  endloop
 endfacet
 facet normal -0.887011 -0.461749 0.000000
  outer loop
   vertex 1451.970100 -488.704368 -2680.000000
   vertex 1498.551563 -578.186525 -2680.000000
   vertex 1498.551563 -578.186525 -480.000000
  endloop
 endfacet
 facet normal -0.887011 -0.461749 0.000000
  outer loop
   vertex 1451.970100 -488.704368 -2680.000000
   vertex 1498.551563 -578.186525 -480.000000
   vertex 1451.970100 -488.704368 -480.000000
  endloop
 endfacet
 facet normal -0.843391 -0.537300 0.000000
  outer loop
   vertex 1498.551563 -578.186525 -2680.000000
   vertex 1552.754652 -663.268333 -2680.000000
   vertex 1552.754652 -663.268333 -480.000000
  endloop
 endfacet
 facet normal -0.843391 -0.537300 0.000000
  outer loop
   vertex 1498.551563 -578.186525 -2680.000000
   vertex 1552.754652 -663.268333 -480.000000
   vertex 1498.551563 -578.186525 -480.000000
  endloop
 endfacet
 facet normal -0.793353 -0.608761 0.000000
  outer loop
   vertex 1552.754652 -663.268333 -2680.000000
   vertex 1614.166851 -743.302269 -2680.000000
   vertex 1614.166851 -743.302269 -480.000000
  endloop
 endfacet
 facet normal -0.793353 -0.608761 0.000000
  outer loop
   vertex 1552.754652 -663.268333 -2680.000000
   vertex 1614.166851 -743.302269 -480.000000
   vertex 1552.754652 -663.268333 -480.000000
  endloop
 endfacet
 facet normal -0.737277 -0.675590 0.000000
  outer loop
   vertex 1614.166851 -743.302269 -2680.000000
   vertex 1682.320775 -817.679225 -2680.000000
   vertex 1682.320775 -817.679225 -480.000000
  endloop
 endfacet
 facet normal -0.737277 -0.675590 0.000000
  outer loop
   vertex 1614.166851 -743.302269 -2680.000000
   vertex 1682.320775 -817.679225 -480.000000
   vertex 1614.166851 -743.302269 -480.000000
  endloop
 endfacet
 facet normal -0.675590 -0.737277 0.000000
  outer loop
   vertex 1682.320775 -817.679225 -2680.000000
   vertex 1756.697731 -885.833149 -2680.000000
   vertex 1756.697731 -885.833149 -480.000000
  endloop
 endfacet
 facet normal -0.675590 -0.737277 0.000000
  outer loop
   vertex 1682.320775 -817.679225 -2680.000000
   vertex 1756.697731 -885.833149 -480.000000
   vertex 1682.320775 -817.679225 -480.000000
  endloop
 endfacet
 facet normal -0.608761 -0.793353 0.000000
  outer loop
   vertex 1756.697731 -885.833149 -2680.000000
   vertex 1836.731667 -947.245348 -2680.000000
   vertex 1836.731667 -947.245348 -480.000000
  endloop
 endfacet
 facet normal -0.608761 -0.793353 0.000000
  outer loop
   vertex 1756.697731 -885.833149 -2680.000000
   vertex 1836.731667 -947.245348 -480.000000
   vertex 1756.697731 -885.833149 -480.000000
  endloop
 endfacet
 facet normal -0.537300 -0.843391 0.000000
  outer loop
   vertex 1836.731667 -947.245348 -2680.000000
   vertex 1921.813475 -1001.448437 -2680.000000
   vertex 1921.813475 -1001.448437 -480.000000
  endloop
 endfacet
 facet normal -0.537300 -0.843391 0.000000
  outer loop
   vertex 1836.731667 -947.245348 -2680.000000
   vertex 1921.813475 -1001.448437 -480.000000
   vertex 1836.731667 -947.245348 -480.000000
  endloop
 endfacet
 facet normal -0.461749 -0.887011 0.000000
  outer loop
   vertex 1921.813475 -1001.448437 -2680.000000
   vertex 2011.295632 -1048.029900 -2680.000000
   vertex 2011.295632 -1048.029900 -480.000000
  endloop
 endfacet
 facet normal -0.461749 -0.887011 0.000000
  outer loop
   vertex 1921.813475 -1001.448437 -2680.000000
   vertex 2011.295632 -1048.029900 -480.000000
   vertex 1921.813475 -1001.448437 -480.000000
  endloop
 endfacet
 facet normal -0.382683 -0.923880 0.000000
  outer loop
   vertex 2011.295632 -1048.029900 -2680.000000
   vertex 2104.497124 -1086.635222 -2680.000000
   vertex 2104.497124 -1086.635222 -480.000000
  endloop
 endfacet
 facet normal -0.382683 -0.923880 0.000000
  outer loop
   vertex 2011.295632 -1048.029900 -2680.000000
   vertex 2104.497124 -1086.635222 -480.000000
   vertex 2011.295632 -1048.029900 -480.000000
  endloop
 endfacet
 facet normal -0.300706 -0.953717 0.000000
  outer loop
   vertex 2104.497124 -1086.635222 -2680.000000
   vertex 2200.708631 -1116.970594 -2680.000000
   vertex 2200.708631 -1116.970594 -480.000000
  endloop
 endfacet
 facet normal -0.300706 -0.953717 0.000000
  outer loop
   vertex 2104.497124 -1086.635222 -2680.000000
   vertex 2200.708631 -1116.970594 -480.000000
   vertex 2104.497124 -1086.635222 -480.000000
  endloop
 endfacet
 facet normal -0.216440 -0.976296 0.000000
  outer loop
   vertex 2200.708631 -1116.970594 -2680.000000
   vertex 2299.197927 -1138.805145 -2680.000000
   vertex 2299.197927 -1138.805145 -480.000000
  endloop
 endfacet
 facet normal -0.216440 -0.976296 0.000000
  outer loop
   vertex 2200.708631 -1116.970594 -2680.000000
   vertex 2299.197927 -1138.805145 -480.000000
   vertex 2200.708631 -1116.970594 -480.000000
  endloop
 endfacet
 facet normal -0.130526 -0.991445 0.000000
  outer loop
   vertex 2299.197927 -1138.805145 -2680.000000
   vertex 2399.215448 -1151.972701 -2680.000000
   vertex 2399.215448 -1151.972701 -480.000000
  endloop
 endfacet
 facet normal -0.130526 -0.991445 0.000000
  outer loop
   vertex 2299.197927 -1138.805145 -2680.000000
   vertex 2399.215448 -1151.972701 -480.000000
   vertex 2299.197927 -1138.805145 -480.000000
  endloop
 endfacet
 facet normal -0.043619 -0.999048 0.000000
  outer loop
   vertex 2399.215448 -1151.972701 -2680.000000
   vertex 2500.000000 -1156.373050 -2680.000000
   vertex 2500.000000 -1156.373050 -480.000000
  endloop
 endfacet
 facet normal -0.043619 -0.999048 0.000000
  outer loop
   vertex 2399.215448 -1151.972701 -2680.000000
   vertex 2500.000000 -1156.373050 -480.000000
   vertex 2399.215448 -1151.972701 -480.000000
  endloop
 endfacet
 facet normal 0.043619 -0.999048 0.000000
  outer loop
   vertex 2500.000000 -1156.373050 -2680.000000
   vertex 2600.784552 -1151.972701 -2680.000000
   vertex 2600.784552 -1151.972701 -480.000000
  endloop
 endfacet
 facet normal 0.043619 -0.999048 0.000000
  outer loop
   vertex 2500.000000 -1156.373050 -2680.000000
   vertex 2600.784552 -1151.972701 -480.000000
   vertex 2500.000000 -1156.373050 -480.000000
  endloop
 endfacet
 facet normal 0.130526 -0.991445 0.000000
  outer loop
   vertex 2600.784552 -1151.972701 -2680.000000
   vertex 2700.802073 -1138.805145 -2680.000000
   vertex 2700.802073 -1138.805145 -480.000000
  endloop
 endfacet
 facet normal 0.130526 -0.991445 0.000000
  outer loop
   vertex 2600.784552 -1151.972701 -2680.000000
   vertex 2700.802073 -1138.805145 -480.000000
   vertex 2600.784552 -1151.972701 -480.000000
  endloop
 endfacet
 facet normal 0.216440 -0.976296 0.000000
  outer loop
   vertex 2700.802073 -1138.805145 -2680.000000
   vertex 2799.291369 -1116.970594 -2680.000000
   vertex 2799.291369 -1116.970594 -480.000000
  endloop
 endfacet
 facet normal 0.216440 -0.976296 0.000000
  outer loop
   vertex 2700.802073 -1138.805145 -2680.000000
   vertex 2799.291369 -1116.970594 -480.000000
   vertex 2700.802073 -1138.805145 -480.000000
  endloop
 endfacet
 facet normal 0.300706 -0.953717 0.000000
  outer loop
   vertex 2799.291369 -1116.970594 -2680.000000
   vertex 2895.502876 -1086.635222 -2680.000000
   vertex 2895.502876 -1086.635222 -480.000000
  endloop
 endfacet
 facet normal 0.300706 -0.953717 0.000000
  outer loop
   vertex 2799.291369 -1116.970594 -2680.000000
   vertex 2895.502876 -1086.635222 -480.000000
   vertex 2799.291369 -1116.970594 -480.000000
  endloop
 endfacet
 facet normal 0.382683 -0.923880 0.000000
  outer loop
   vertex 2895.502876 -1086.635222 -2680.000000
   vertex 2988.704368 -1048.029900 -2680.000000
   vertex 2988.704368 -1048.029900 -480.000000
  endloop
 endfacet
 facet normal 0.382683 -0.923880 0.000000
  outer loop
   vertex 2895.502876 -1086.635222 -2680.000000
   vertex 2988.704368 -1048.029900 -480.000000
   vertex 2895.502876 -1086.635222 -480.000000
  endloop
 endfacet
 facet normal 0.461749 -0.887011 0.000000
  outer loop
   vertex 2988.704368 -1048.029900 -2680.000000
   vertex 3078.186525 -1001.448437 -2680.000000
   vertex 3078.186525 -1001.448437 -480.000000
  endloop
 endfacet
 facet normal 0.461749 -0.887011 0.000000
  outer loop
   vertex 2988.704368 -1048.029900 -2680.000000
   vertex 3078.186525 -1001.448437 -480.000000
   vertex 2988.704368 -1048.029900 -480.000000
  endloop
 endfacet
 facet normal 0.537300 -0.843391 0.000000
  outer loop
   vertex 3078.186525 -1001.448437 -2680.000000
   vertex 3163.268333 -947.245348 -2680.000000
   vertex 3163.268333 -947.245348 -480.000000
  endloop
 endfacet
 facet normal 0.537300 -0.843391 0.000000
  outer loop
   vertex 3078.186525 -1001.448437 -2680.000000
   vertex 3163.268333 -947.245348 -480.000000
   vertex 3078.186525 -1001.448437 -480.000000
  endloop
 endfacet
 facet normal 0.608761 -0.793353 0.000000
  outer loop
   vertex 3163.268333 -947.245348 -2680.000000
   vertex 3243.302269 -885.833149 -2680.000000
   vertex 3243.302269 -885.833149 -480.000000
  endloop
 endfacet
 facet normal 0.608761 -0.793353 0.000000
  outer loop
   vertex 3163.268333 -947.245348 -2680.000000
   vertex 3243.302269 -885.833149 -480.000000
   vertex 3163.268333 -947.245348 -480.000000
  endloop
 endfacet
 facet normal 0.675590 -0.737277 0.000000
  outer loop
   vertex 3243.302269 -885.833149 -2680.000000
   vertex 3317.679225 -817.679225 -2680.000000
   vertex 3317.679225 -817.679225 -480.000000
  endloop
 endfacet
 facet normal 0.675590 -0.737277 0.000000
  outer loop
   vertex 3243.302269 -885.833149 -2680.000000
   vertex 3317.679225 -817.679225 -480.000000
   vertex 3243.302269 -885.833149 -480.000000
  endloop
 endfacet
 facet normal 0.737277 -0.675590 0.000000
  outer loop
   vertex 3317.679225 -817.679225 -2680.000000
   vertex 3385.833149 -743.302269 -2680.000000
   vertex 3385.833149 -743.302269 -480.000000
  endloop
 endfacet
 facet normal 0.737277 -0.675590 0.000000
  outer loop
   vertex 3317.679225 -817.679225 -2680.000000
   vertex 3385.833149 -743.302269 -480.000000
   vertex 3317.679225 -817.679225 -480.000000
  endloop
 endfacet
 facet normal 0.793353 -0.608761 0.000000
  outer loop
   vertex 3385.833149 -743.302269 -2680.000000
   vertex 3447.245348 -663.268333 -2680.000000
   vertex 3447.245348 -663.268333 -480.000000
  endloop
 endfacet
 facet normal 0.793353 -0.608761 0.000000
  outer loop
   vertex 3385.833149 -743.302269 -2680.000000
   vertex 3447.245348 -663.268333 -480.000000
   vertex 3385.833149 -743.302269 -480.000000
  endloop
 endfacet
 facet normal 0.843391 -0.537300 0.000000
  outer loop
   vertex 3447.245348 -663.268333 -2680.000000
   vertex 3501.448437 -578.186525 -2680.000000
   vertex 3501.448437 -578.186525 -480.000000
  endloop
 endfacet
 facet normal 0.843391 -0.537300 0.000000
  outer loop
   vertex 3447.245348 -663.268333 -2680.000000
   vertex 3501.448437 -578.186525 -480.000000
   vertex 3447.245348 -663.268333 -480.000000
  endloop
 endfacet
 facet normal 0.887011 -0.461749 0.000000
  outer loop
   vertex 3501.448437 -578.186525 -2680.000000
   vertex 3548.029900 -488.704368 -2680.000000
   vertex 3548.029900 -488.704368 -480.000000
  endloop
 endfacet
 facet normal 0.887011 -0.461749 0.000000
  outer loop
   vertex 3501.448437 -578.186525 -2680.000000
   vertex 3548.029900 -488.704368 -480.000000
   vertex 3501.448437 -578.186525 -480.000000
  endloop
 endfacet
 facet normal 0.923880 -0.382683 0.000000
  outer loop
   vertex 3548.029900 -488.704368 -2680.000000
   vertex 3586.635222 -395.502876 -2680.000000
   vertex 3586.635222 -395.502876 -480.000000
  endloop
 endfacet
 facet normal 0.923880 -0.382683 0.000000
  outer loop
   vertex 3548.029900 -488.704368 -2680.000000
   vertex 3586.635222 -395.502876 -480.000000
   vertex 3548.029900 -488.704368 -480.000000
  endloop
 endfacet
 facet normal 0.953717 -0.300706 0.000000
  outer loop
   vertex 3586.635222 -395.502876 -2680.000000
   vertex 3616.970594 -299.291369 -2680.000000
   vertex 3616.970594 -299.291369 -480.000000
  endloop
 endfacet
 facet normal 0.953717 -0.300706 0.000000
  outer loop
   vertex 3586.635222 -395.502876 -2680.000000
   vertex 3616.970594 -299.291369 -480.000000
   vertex 3586.635222 -395.502876 -480.000000
  endloop
 endfacet
 facet normal 0.976296 -0.216440 0.000000
  outer loop
   vertex 3616.970594 -299.291369 -2680.000000
   vertex 3638.805145 -200.802073 -2680.000000
   vertex 3638.805145 -200.802073 -480.000000
  endloop
 endfacet
 facet normal 0.976296 -0.216440 0.000000
  outer loop
   vertex 3616.970594 -299.291369 -2680.000000
   vertex 3638.805145 -200.802073 -480.000000
   vertex 3616.970594 -299.291369 -480.000000
  endloop
 endfacet
 facet normal 0.991445 -0.130526 0.000000
  outer loop
   vertex 3638.805145 -200.802073 -2680.000000
   vertex 3651.972701 -100.784552 -2680.000000
   vertex 3651.972701 -100.784552 -480.000000
  endloop
 endfacet
 facet normal 0.991445 -0.130526 0.000000
  outer loop
   vertex 3638.805145 -200.802073 -2680.000000
   vertex 3651.972701 -100.784552 -480.000000
   vertex 3638.805145 -200.802073 -480.000000
  endloop
 endfacet
 facet normal 0.999048 -0.043619 0.000000
  outer loop
   vertex 3651.972701 -100.784552 -2680.000000
   vertex 3656.373050 0.000000 -2680.000000
   vertex 3656.373050 0.000000 -480.000000
  endloop
 endfacet
 facet normal 0.999048 -0.043619 0.000000
  outer loop
   vertex 3651.972701 -100.784552 -2680.000000
   vertex 3656.373050 0.000000 -480.000000
   vertex 3651.972701 -100.784552 -480.000000
  endloop
 endfacet
 facet normal 0.000000 0.000000 -1.000000
  outer loop
   vertex 2500.000000 0.000000 -2680.000000
   vertex 3651.972701 100.784552 -2680.000000
   vertex 3656.373050 0.000000 -2680.000000
  endloop
 endfacet
 facet normal 0.000000 0.000000 1.000000
  outer loop
   vertex 2500.000000 0.000000 -480.000000
   vertex 3656.373050 0.000000 -480.000000
   vertex 3651.972701 100.784552 -480.000000
  endloop
 endfacet
 facet normal 0.000000 0.000000 -1.000000
  outer loop
   vertex 2500.000000 0.000000 -2680.000000
   vertex 3638.805145 200.802073 -2680.000000
   vertex 3651.972701 100.784552 -2680.000000
  endloop
 endfacet
 facet normal 0.000000 0.000000 1.000000
  outer loop
   vertex 2500.000000 0.000000 -480.000000
   vertex 3651.972701 100.784552 -480.000000
   vertex 3638.805145 200.802073 -480.000000
  endloop
 endfacet
 facet normal 0.000000 0.000000 -1.000000
  outer loop
   vertex 2500.000000 0.000000 -2680.000000
   vertex 3616.970594 299.291369 -2680.000000
   vertex 3638.805145 200.802073 -2680.000000
  endloop
 endfacet
 facet normal 0.000000 0.000000 1.000000
  outer loop
   vertex 2500.000000 0.000000 -480.000000
   vertex 3638.805145 200.802073 -480.000000
   vertex 3616.970594 299.291369 -480.000000
  endloop
 endfacet
 facet normal 0.000000 0.000000 -1.000000
  outer loop
   vertex 2500.000000 0.000000 -2680.000000
   vertex 3586.635222 395.502876 -2680.000000
   vertex 3616.970594 299.291369 -2680.000000
  endloop
 endfacet
 facet normal 0.000000 0.000000 1.000000
  outer loop
   vertex 2500.000000 0.000000 -480.000000
   vertex 3616.970594 299.291369 -480.000000
   vertex 3586.635222 395.502876 -480.000000
  endloop
 endfacet
 facet normal 0.000000 0.000000 -1.000000
  outer loop
   vertex 2500.000000 0.000000 -2680.000000
   vertex 3548.029900 488.704368 -2680.000000
   vertex 3586.635222 395.502876 -2680.000000
  endloop
 endfacet
 facet normal 0.000000 0.000000 1.000000
  outer loop
   vertex 2500.000000 0.000000 -480.000000
   vertex 3586.635222 395.502876 -480.000000
   vertex 3548.029900 488.704368 -480.000000
  endloop
 endfacet
 facet normal 0.000000 0.000000 -1.000000
  outer loop
   vertex 2500.000000 0.000000 -2680.000000
   vertex 3501.448437 578.186525 -2680.000000
   vertex 3548.029900 488.704368 -2680.000000
  endloop
 endfacet
 facet normal 0.000000 0.000000 1.000000
  outer loop
   vertex 2500.000000 0.000000 -480.000000
   vertex 3548.029900 488.704368 -480.000000
   vertex 3501.448437 578.186525 -480.000000
  endloop
 endfacet
 facet normal 0.000000 0.000000 -1.000000
  outer loop
   vertex 2500.000000 0.000000 -2680.000000
   vertex 3447.245348 663.268333 -2680.000000
   vertex 3501.448437 578.186525 -2680.000000
  endloop
 endfacet
 facet normal 0.000000 0.000000 1.000000
  outer loop
   vertex 2500.000000 0.000000 -480.000000
   vertex 3501.448437 578.186525 -480.000000
   vertex 3447.245348 663.268333 -480.000000
  endloop
 endfacet
 facet normal 0.000000 0.000000 -1.000000
  outer loop
   vertex 2500.000000 0.000000 -2680.000000
   vertex 3385.833149 743.302269 -2680.000000
   vertex 3447.245348 663.268333 -2680.000000
  endloop
 endfacet
 facet normal 0.000000 0.000000 1.000000
  outer loop
   vertex 2500.000000 0.000000 -480.000000
   vertex 3447.245348 663.268333 -480.000000
   vertex 3385.833149 743.302269 -480.000000
  endloop
 endfacet
 facet normal 0.000000 0.000000 -1.000000
  outer loop
   vertex 2500.000000 0.000000 -2680.000000
   vertex 3317.679225 817.679225 -2680.000000
   vertex 3385.833149 743.302269 -2680.000000
  endloop
 endfacet
 facet normal 0.000000 0.000000 1.000000
  outer loop
   vertex 2500.000000 0.000000 -480.000000
   vertex 3385.833149 743.302269 -480.000000
   vertex 3317.679225 817.679225 -480.000000
  endloop
 endfacet
 facet normal 0.000000 0.000000 -1.000000
  outer loop
   vertex 2500.000000 0.000000 -2680.000000
   vertex 3243.302269 885.833149 -2680.000000
   vertex 3317.679225 817.679225 -2680.000000
  endloop
 endfacet
 facet normal 0.000000 0.000000 1.000000
  outer loop
   vertex 2500.000000 0.000000 -480.000000
   vertex 3317.679225 817.679225 -480.000000
   vertex 3243.302269 885.833149 -480.000000
  endloop
 endfacet
 facet normal 0.000000 0.000000 -1.000000
  outer loop
   vertex 2500.000000 0.000000 -2680.000000
   vertex 3163.268333 947.245348 -2680.000000
   vertex 3243.302269 885.833149 -2680.000000
  endloop
 endfacet
 facet normal 0.000000 0.000000 1.000000
  outer loop
   vertex 2500.000000 0.000000 -480.000000
   vertex 3243.302269 885.833149 -480.000000
   vertex 3163.268333 947.245348 -480.000000
  endloop
 endfacet
 facet normal 0.000000 0.000000 -1.000000
  outer loop
   vertex 2500.000000 0.000000 -2680.000000
   vertex 3078.186525 1001.448437 -2680.000000
   vertex 3163.268333 947.245348 -2680.000000
  endloop
 endfacet
 facet normal 0.000000 0.000000 1.000000
  outer loop
   vertex 2500.000000 0.000000 -480.000000
   vertex 3163.268333 947.245348 -480.000000
   vertex 3078.186525 1001.448437 -480.000000
  endloop
 endfacet
 facet normal 0.000000 0.000000 -1.000000
  outer loop
   vertex 2500.000000 0.000000 -2680.000000
   vertex 2988.704368 1048.029900 -2680.000000
   vertex 3078.186525 1001.448437 -2680.000000
  endloop
 endfacet
 facet normal 0.000000 0.000000 1.000000
  outer loop
   vertex 2500.000000 0.000000 -480.000000
   vertex 3078.186525 1001.448437 -480.000000
   vertex 2988.704368 1048.029900 -480.000000
  endloop
 endfacet
 facet normal 0.000000 0.000000 -1.000000
  outer loop
   vertex 2500.000000 0.000000 -2680.000000
   vertex 2895.502876 1086.635222 -2680.000000
   vertex 2988.704368 1048.029900 -2680.000000
  endloop
 endfacet
 facet normal 0.000000 0.000000 1.000000
  outer loop
   vertex 2500.000000 0.000000 -480.000000
   vertex 2988.704368 1048.029900 -480.000000
   vertex 2895.502876 1086.635222 -480.000000
  endloop
 endfacet
 facet normal 0.000000 0.000000 -1.000000
  outer loop
   vertex 2500.000000 0.000000 -2680.000000
   vertex 2799.291369 1116.970594 -2680.000000
   vertex 2895.502876 1086.635222 -2680.000000
  endloop
 endfacet
 facet normal 0.000000 0.000000 1.000000
  outer loop
   vertex 2500.000000 0.000000 -480.000000
   vertex 2895.502876 1086.635222 -480.000000
   vertex 2799.291369 1116.970594 -480.000000
  endloop
 endfacet
 facet normal 0.000000 0.000000 -1.000000
  outer loop
   vertex 2500.000000 0.000000 -2680.000000
   vertex 2700.802073 1138.805145 -2680.000000
   vertex 2799.291369 1116.970594 -2680.000000
  endloop
 endfacet
 facet normal 0.000000 0.000000 1.000000
  outer loop
   vertex 2500.000000 0.000000 -480.000000
   vertex 2799.291369 1116.970594 -480.000000
   vertex 2700.802073 1138.805145 -480.000000
  endloop
 endfacet
 facet normal 0.000000 0.000000 -1.000000
  outer loop
   vertex 2500.000000 0.000000 -2680.000000
   vertex 2600.784552 1151.972701 -2680.000000
   vertex 2700.802073 1138.805145 -2680.000000
  endloop
 endfacet
 facet normal 0.000000 0.000000 1.000000
  outer loop
   vertex 2500.000000 0.000000 -480.000000
   vertex 2700.802073 1138.805145 -480.000000
   vertex 2600.784552 1151.972701 -480.000000
  endloop
 endfacet
 facet normal 0.000000 0.000000 -1.000000
  outer loop
   vertex 2500.000000 0.000000 -2680.000000
   vertex 2500.000000 1156.373050 -2680.000000
   vertex 2600.784552 1151.972701 -2680.000000
  endloop
 endfacet
 facet normal 0.000000 0.000000 1.000000
  outer loop
   vertex 2500.000000 0.000000 -480.000000
   vertex 2600.784552 1151.972701 -480.000000
   vertex 2500.000000 1156.373050 -480.000000
  endloop
 endfacet
 facet normal 0.000000 0.000000 -1.000000
  outer loop
   vertex 2500.000000 0.000000 -2680.000000
   vertex 2399.215448 1151.972701 -2680.000000
   vertex 2500.000000 1156.373050 -2680.000000
  endloop
 endfacet
 facet normal 0.000000 -0.000000 1.000000
  outer loop
   vertex 2500.000000 0.000000 -480.000000
   vertex 2500.000000 1156.373050 -480.000000
   vertex 2399.215448 1151.972701 -480.000000
  endloop
 endfacet
 facet normal 0.000000 0.000000 -1.000000
  outer loop
   vertex 2500.000000 0.000000 -2680.000000
   vertex 2299.197927 1138.805145 -2680.000000
   vertex 2399.215448 1151.972701 -2680.000000
  endloop
 endfacet
 facet normal 0.000000 0.000000 1.000000
  outer loop
   vertex 2500.000000 0.000000 -480.000000
   vertex 2399.215448 1151.972701 -480.000000
   vertex 2299.197927 1138.805145 -480.000000
  endloop
 endfacet
 facet normal 0.000000 0.000000 -1.000000
  outer loop
   vertex 2500.000000 0.000000 -2680.000000
   vertex 2200.708631 1116.970594 -2680.000000
   vertex 2299.197927 1138.805145 -2680.000000
  endloop
 endfacet
 facet normal 0.000000 0.000000 1.000000
  outer loop
   vertex 2500.000000 0.000000 -480.000000
   vertex 2299.197927 1138.805145 -480.000000
   vertex 2200.708631 1116.970594 -480.000000
  endloop
 endfacet
 facet normal 0.000000 0.000000 -1.000000
  outer loop
   vertex 2500.000000 0.000000 -2680.000000
   vertex 2104.497124 1086.635222 -2680.000000
   vertex 2200.708631 1116.970594 -2680.000000
  endloop
 endfacet
 facet normal 0.000000 0.000000 1.000000
  outer loop
   vertex 2500.000000 0.000000 -480.000000
   vertex 2200.708631 1116.970594 -480.000000
   vertex 2104.497124 1086.635222 -480.000000
  endloop
 endfacet
 facet normal 0.000000 0.000000 -1.000000
  outer loop
   vertex 2500.000000 0.000000 -2680.000000
   vertex 2011.295632 1048.029900 -2680.000000
   vertex 2104.497124 1086.635222 -2680.000000
  endloop
 endfacet
 facet normal 0.000000 0.000000 1.000000
  outer loop
   vertex 2500.000000 0.000000 -480.000000
   vertex 2104.497124 1086.635222 -480.000000
   vertex 2011.295632 1048.029900 -480.000000
  endloop
 endfacet
 facet normal 0.000000 0.000000 -1.000000
  outer loop
   vertex 2500.000000 0.000000 -2680.000000
   vertex 1921.813475 1001.448437 -2680.000000
   vertex 2011.295632 1048.029900 -2680.000000
  endloop
 endfacet
 facet normal 0.000000 0.000000 1.000000
  outer loop
   vertex 2500.000000 0.000000 -480.000000
   vertex 2011.295632 1048.029900 -480.000000
   vertex 1921.813475 1001.448437 -480.000000
  endloop
 endfacet
 facet normal 0.000000 0.000000 -1.000000
  outer loop
   vertex 2500.000000 0.000000 -2680.000000
   vertex 1836.731667 947.245348 -2680.000000
   vertex 1921.813475 1001.448437 -2680.000000
  endloop
 endfacet
 facet normal 0.000000 0.000000 1.000000
  outer loop
   vertex 2500.000000 0.000000 -480.000000
   vertex 1921.813475 1001.448437 -480.000000
   vertex 1836.731667 947.245348 -480.000000
  endloop
 endfacet
 facet normal 0.000000 0.000000 -1.000000
  outer loop
   vertex 2500.000000 0.000000 -2680.000000
   vertex 1756.697731 885.833149 -2680.000000
   vertex 1836.731667 947.245348 -2680.000000
  endloop
 endfacet
 facet normal 0.000000 0.000000 1.000000
  outer loop
   vertex 2500.000000 0.000000 -480.000000
   vertex 1836.731667 947.245348 -480.000000
   vertex 1756.697731 885.833149 -480.000000
  endloop
 endfacet
 facet normal 0.000000 0.000000 -1.000000
  outer loop
   vertex 2500.000000 0.000000 -2680.000000
   vertex 1682.320775 817.679225 -2680.000000
   vertex 1756.697731 885.833149 -2680.000000
  endloop
 endfacet
 facet normal 0.000000 0.000000 1.000000
  outer loop
   vertex 2500.000000 0.000000 -480.000000
   vertex 1756.697731 885.833149 -480.000000
   vertex 1682.320775 817.679225 -480.000000
  endloop
 endfacet
 facet normal 0.000000 0.000000 -1.000000
  outer loop
   vertex 2500.000000 0.000000 -2680.000000
   vertex 1614.166851 743.302269 -2680.000000
   vertex 1682.320775 817.679225 -2680.000000
  endloop
 endfacet
 facet normal 0.000000 0.000000 1.000000
  outer loop
   vertex 2500.000000 0.000000 -480.000000
   vertex 1682.320775 817.679225 -480.000000
   vertex 1614.166851 743.302269 -480.000000
  endloop
 endfacet
 facet normal 0.000000 0.000000 -1.000000
  outer loop
   vertex 2500.000000 0.000000 -2680.000000
   vertex 1552.754652 663.268333 -2680.000000
   vertex 1614.166851 743.302269 -2680.000000
  endloop
 endfacet
 facet normal 0.000000 0.000000 1.000000
  outer loop
   vertex 2500.000000 0.000000 -480.000000
   vertex 1614.166851 743.302269 -480.000000
   vertex 1552.754652 663.268333 -480.000000
  endloop
 endfacet
 facet normal 0.000000 0.000000 -1.000000
  outer loop
   vertex 2500.000000 0.000000 -2680.000000
   vertex 1498.551563 578.186525 -2680.000000
   vertex 1552.754652 663.268333 -2680.000000
  endloop
 endfacet
 facet normal 0.000000 0.000000 1.000000
  outer loop
   vertex 2500.000000 0.000000 -480.000000
   vertex 1552.754652 663.268333 -480.000000
   vertex 1498.551563 578.186525 -480.000000
  endloop
 endfacet
 facet normal 0.000000 0.000000 -1.000000
  outer loop
   vertex 2500.000000 0.000000 -2680.000000
   vertex 1451.970100 488.704368 -2680.000000
   vertex 1498.551563 578.186525 -2680.000000
  endloop
 endfacet
 facet normal 0.000000 0.000000 1.000000
  outer loop
   vertex 2500.000000 0.000000 -480.000000
   vertex 1498.551563 578.186525 -480.000000
   vertex 1451.970100 488.704368 -480.000000
  endloop
 endfacet
 facet normal 0.000000 0.000000 -1.000000
  outer loop
   vertex 2500.000000 0.000000 -2680.000000
   vertex 1413.364778 395.502876 -2680.000000
   vertex 1451.970100 488.704368 -2680.000000
  endloop
 endfacet
 facet normal 0.000000 0.000000 1.000000
  outer loop
   vertex 2500.000000 0.000000 -480.000000
   vertex 1451.970100 488.704368 -480.000000
   vertex 1413.364778 395.502876 -480.000000
  endloop
 endfacet
 facet normal 0.000000 0.000000 -1.000000
  outer loop
   vertex 2500.000000 0.000000 -2680.000000
   vertex 1383.029406 299.291369 -2680.000000
   vertex 1413.364778 395.502876 -2680.000000
  endloop
 endfacet
 facet normal 0.000000 0.000000 1.000000
  outer loop
   vertex 2500.000000 0.000000 -480.000000
   vertex 1413.364778 395.502876 -480.000000
   vertex 1383.029406 299.291369 -480.000000
  endloop
 endfacet
 facet normal 0.000000 0.000000 -1.000000
  outer loop
   vertex 2500.000000 0.000000 -2680.000000
   vertex 1361.194855 200.802073 -2680.000000
   vertex 1383.029406 299.291369 -2680.000000
  endloop
 endfacet
 facet normal 0.000000 0.000000 1.000000
  outer loop
   vertex 2500.000000 0.000000 -480.000000
   vertex 1383.029406 299.291369 -480.000000
   vertex 1361.194855 200.802073 -480.000000
  endloop
 endfacet
 facet normal 0.000000 0.000000 -1.000000
  outer loop
   vertex 2500.000000 0.000000 -2680.000000
   vertex 1348.027299 100.784552 -2680.000000
   vertex 1361.194855 200.802073 -2680.000000
  endloop
 endfacet
 facet normal 0.000000 0.000000 1.000000
  outer loop
   vertex 2500.000000 0.000000 -480.000000
   vertex 1361.194855 200.802073 -480.000000
   vertex 1348.027299 100.784552 -480.000000
  endloop
 endfacet
 facet normal 0.000000 0.000000 -1.000000
  outer loop
   vertex 2500.000000 0.000000 -2680.000000
   vertex 1343.626950 0.000000 -2680.000000
   vertex 1348.027299 100.784552 -2680.000000
  endloop
 endfacet
 facet normal 0.000000 0.000000 1.000000
  outer loop
   vertex 2500.000000 0.000000 -480.000000
   vertex 1348.027299 100.784552 -480.000000
   vertex 1343.626950 0.000000 -480.000000
  endloop
 endfacet
 facet normal -0.000000 0.000000 -1.000000
  outer loop
   vertex 2500.000000 0.000000 -2680.000000
   vertex 1348.027299 -100.784552 -2680.000000
   vertex 1343.626950 0.000000 -2680.000000
  endloop
 endfacet
 facet normal 0.000000 0.000000 1.000000
  outer loop
   vertex 2500.000000 0.000000 -480.000000
   vertex 1343.626950 0.000000 -480.000000
   vertex 1348.027299 -100.784552 -480.000000
  endloop
 endfacet
 facet normal 0.000000 0.000000 -1.000000
  outer loop
   vertex 2500.000000 0.000000 -2680.000000
   vertex 1361.194855 -200.802073 -2680.000000
   vertex 1348.027299 -100.784552 -2680.000000
  endloop
 endfacet
 facet normal 0.000000 0.000000 1.000000
  outer loop
   vertex 2500.000000 0.000000 -480.000000
   vertex 1348.027299 -100.784552 -480.000000
   vertex 1361.194855 -200.802073 -480.000000
  endloop
 endfacet
 facet normal 0.000000 0.000000 -1.000000
  outer loop
   vertex 2500.000000 0.000000 -2680.000000
   vertex 1383.029406 -299.291369 -2680.000000
   vertex 1361.194855 -200.802073 -2680.000000
  endloop
 endfacet
 facet normal 0.000000 0.000000 1.000000
  outer loop
   vertex 2500.000000 0.000000 -480.000000
   vertex 1361.194855 -200.802073 -480.000000
   vertex 1383.029406 -299.291369 -480.000000
  endloop
 endfacet
 facet normal 0.000000 0.000000 -1.000000
  outer loop
   vertex 2500.000000 0.000000 -2680.000000
   vertex 1413.364778 -395.502876 -2680.000000
   vertex 1383.029406 -299.291369 -2680.000000
  endloop
 endfacet
 facet normal 0.000000 0.000000 1.000000
  outer loop
   vertex 2500.000000 0.000000 -480.000000
   vertex 1383.029406 -299.291369 -480.000000
   vertex 1413.364778 -395.502876 -480.000000
  endloop
 endfacet
 facet normal 0.000000 0.000000 -1.000000
  outer loop
   vertex 2500.000000 0.000000 -2680.000000
   vertex 1451.970100 -488.704368 -2680.000000
   vertex 1413.364778 -395.502876 -2680.000000
  endloop
 endfacet
 facet normal 0.000000 0.000000 1.000000
  outer loop
   vertex 2500.000000 0.000000 -480.000000
   vertex 1413.364778 -395.502876 -480.000000
   vertex 1451.970100 -488.704368 -480.000000
  endloop
 endfacet
 facet normal 0.000000 0.000000 -1.000000
  outer loop
   vertex 2500.000000 0.000000 -2680.000000
   vertex 1498.551563 -578.186525 -2680.000000
   vertex 1451.970100 -488.704368 -2680.000000
  endloop
 endfacet
 facet normal 0.000000 0.000000 1.000000
  outer loop
   vertex 2500.000000 0.000000 -480.000000
   vertex 1451.970100 -488.704368 -480.000000
   vertex 1498.551563 -578.186525 -480.000000
  endloop
 endfacet
 facet normal 0.000000 0.000000 -1.000000
  outer loop
   vertex 2500.000000 0.000000 -2680.000000
   vertex 1552.754652 -663.268333 -2680.000000
   vertex 1498.551563 -578.186525 -2680.000000
  endloop
 endfacet
 facet normal 0.000000 0.000000 1.000000
  outer loop
   vertex 2500.000000 0.000000 -480.000000
   vertex 1498.551563 -578.186525 -480.000000
   vertex 1552.754652 -663.268333 -480.000000
  endloop
 endfacet
 facet normal 0.000000 0.000000 -1.000000
  outer loop
   vertex 2500.000000 0.000000 -2680.000000
   vertex 1614.166851 -743.302269 -2680.000000
   vertex 1552.754652 -663.268333 -2680.000000
  endloop
 endfacet
 facet normal 0.000000 0.000000 1.000000
  outer loop
   vertex 2500.000000 0.000000 -480.000000
   vertex 1552.754652 -663.268333 -480.000000
   vertex 1614.166851 -743.302269 -480.000000
  endloop
 endfacet
 facet normal 0.000000 0.000000 -1.000000
  outer loop
   vertex 2500.000000 0.000000 -2680.000000
   vertex 1682.320775 -817.679225 -2680.000000
   vertex 1614.166851 -743.302269 -2680.000000
  endloop
 endfacet
 facet normal 0.000000 0.000000 1.000000
  outer loop
   vertex 2500.000000 0.000000 -480.000000
   vertex 1614.166851 -743.302269 -480.000000
   vertex 1682.320775 -817.679225 -480.000000
  endloop
 endfacet
 facet normal 0.000000 0.000000 -1.000000
  outer loop
   vertex 2500.000000 0.000000 -2680.000000
   vertex 1756.697731 -885.833149 -2680.000000
   vertex 1682.320775 -817.679225 -2680.000000
  endloop
 endfacet
 facet normal 0.000000 0.000000 1.000000
  outer loop
   vertex 2500.000000 0.000000 -480.000000
   vertex 1682.320775 -817.679225 -480.000000
   vertex 1756.697731 -885.833149 -480.000000
  endloop
 endfacet
 facet normal 0.000000 0.000000 -1.000000
  outer loop
   vertex 2500.000000 0.000000 -2680.000000
   vertex 1836.731667 -947.245348 -2680.000000
   vertex 1756.697731 -885.833149 -2680.000000
  endloop
 endfacet
 facet normal 0.000000 0.000000 1.000000
  outer loop
   vertex 2500.000000 0.000000 -480.000000
   vertex 1756.697731 -885.833149 -480.000000
   vertex 1836.731667 -947.245348 -480.000000
  endloop
 endfacet
 facet normal 0.000000 0.000000 -1.000000
  outer loop
   vertex 2500.000000 0.000000 -2680.000000
   vertex 1921.813475 -1001.448437 -2680.000000
   vertex 1836.731667 -947.245348 -2680.000000
  endloop
 endfacet
 facet normal 0.000000 0.000000 1.000000
  outer loop
   vertex 2500.000000 0.000000 -480.000000
   vertex 1836.731667 -947.245348 -480.000000
   vertex 1921.813475 -1001.448437 -480.000000
  endloop
 endfacet
 facet normal 0.000000 0.000000 -1.000000
  outer loop
   vertex 2500.000000 0.000000 -2680.000000
   vertex 2011.295632 -1048.029900 -2680.000000
   vertex 1921.813475 -1001.448437 -2680.000000
  endloop
 endfacet
 facet normal 0.000000 0.000000 1.000000
  outer loop
   vertex 2500.000000 0.000000 -480.000000
   vertex 1921.813475 -1001.448437 -480.000000
   vertex 2011.295632 -1048.029900 -480.000000
  endloop
 endfacet
 facet normal 0.000000 0.000000 -1.000000
  outer loop
   vertex 2500.000000 0.000000 -2680.000000
   vertex 2104.497124 -1086.635222 -2680.000000
   vertex 2011.295632 -1048.029900 -2680.000000
  endloop
 endfacet
 facet normal 0.000000 0.000000 1.000000
  outer loop
   vertex 2500.000000 0.000000 -480.000000
   vertex 2011.295632 -1048.029900 -480.000000
   vertex 2104.497124 -1086.635222 -480.000000
  endloop
 endfacet
 facet normal 0.000000 0.000000 -1.000000
  outer loop
   vertex 2500.000000 0.000000 -2680.000000
   vertex 2200.708631 -1116.970594 -2680.000000
   vertex 2104.497124 -1086.635222 -2680.000000
  endloop
 endfacet
 facet normal 0.000000 0.000000 1.000000
  outer loop
   vertex 2500.000000 0.000000 -480.000000
   vertex 2104.497124 -1086.635222 -480.000000
   vertex 2200.708631 -1116.970594 -480.000000
  endloop
 endfacet
 facet normal 0.000000 0.000000 -1.000000
  outer loop
   vertex 2500.000000 0.000000 -2680.000000
   vertex 2299.197927 -1138.805145 -2680.000000
   vertex 2200.708631 -1116.970594 -2680.000000
  endloop
 endfacet
 facet normal 0.000000 0.000000 1.000000
  outer loop
   vertex 2500.000000 0.000000 -480.000000
   vertex 2200.708631 -1116.970594 -480.000000
   vertex 2299.197927 -1138.805145 -480.000000
  endloop
 endfacet
 facet normal 0.000000 0.000000 -1.000000
  outer loop
   vertex 2500.000000 0.000000 -2680.000000
   vertex 2399.215448 -1151.972701 -2680.000000
   vertex 2299.197927 -1138.805145 -2680.000000
  endloop
 endfacet
 facet normal 0.000000 0.000000 1.000000
  outer loop
   vertex 2500.000000 0.000000 -480.000000
   vertex 2299.197927 -1138.805145 -480.000000
   vertex 2399.215448 -1151.972701 -480.000000
  endloop
 endfacet
 facet normal 0.000000 -0.000000 -1.000000
  outer loop
   vertex 2500.000000 0.000000 -2680.000000
   vertex 2500.000000 -1156.373050 -2680.000000
   vertex 2399.215448 -1151.972701 -2680.000000
  endloop
 endfacet
 facet normal 0.000000 0.000000 1.000000
  outer loop
   vertex 2500.000000 0.000000 -480.000000
   vertex 2399.215448 -1151.972701 -480.000000
   vertex 2500.000000 -1156.373050 -480.000000
  endloop
 endfacet
 facet normal 0.000000 0.000000 -1.000000
  outer loop
   vertex 2500.000000 0.000000 -2680.000000
   vertex 2600.784552 -1151.972701 -2680.000000
   vertex 2500.000000 -1156.373050 -2680.000000
  endloop
 endfacet
 facet normal 0.000000 0.000000 1.000000
  outer loop
   vertex 2500.000000 0.000000 -480.000000
   vertex 2500.000000 -1156.373050 -480.000000
   vertex 2600.784552 -1151.972701 -480.000000
  endloop
 endfacet
 facet normal 0.000000 0.000000 -1.000000
  outer loop
   vertex 2500.000000 0.000000 -2680.000000
   vertex 2700.802073 -1138.805145 -2680.000000
   vertex 2600.784552 -1151.972701 -2680.000000
  endloop
 endfacet
 facet normal 0.000000 0.000000 1.000000
  outer loop
   vertex 2500.000000 0.000000 -480.000000
   vertex 2600.784552 -1151.972701 -480.000000
   vertex 2700.802073 -1138.805145 -480.000000
  endloop
 endfacet
 facet normal 0.000000 0.000000 -1.000000
  outer loop
   vertex 2500.000000 0.000000 -2680.000000
   vertex 2799.291369 -1116.970594 -2680.000000
   vertex 2700.802073 -1138.805145 -2680.000000
  endloop
 endfacet
 facet normal 0.000000 0.000000 1.000000
  outer loop
   vertex 2500.000000 0.000000 -480.000000
   vertex 2700.802073 -1138.805145 -480.000000
   vertex 2799.291369 -1116.970594 -480.000000
  endloop
 endfacet
 facet normal 0.000000 0.000000 -1.000000
  outer loop
   vertex 2500.000000 0.000000 -2680.000000
   vertex 2895.502876 -1086.635222 -2680.000000
   vertex 2799.291369 -1116.970594 -2680.000000
  endloop
 endfacet
 facet normal 0.000000 0.000000 1.000000
  outer loop
   vertex 2500.000000 0.000000 -480.000000
   vertex 2799.291369 -1116.970594 -480.000000
   vertex 2895.502876 -1086.635222 -480.000000
  endloop
 endfacet
 facet normal 0.000000 0.000000 -1.000000
  outer loop
   vertex 2500.000000 0.000000 -2680.000000
   vertex 2988.704368 -1048.029900 -2680.000000
   vertex 2895.502876 -1086.635222 -2680.000000
  endloop
 endfacet
 facet normal 0.000000 0.000000 1.000000
  outer loop
   vertex 2500.000000 0.000000 -480.000000
   vertex 2895.502876 -1086.635222 -480.000000
   vertex 2988.704368 -1048.029900 -480.000000
  endloop
 endfacet
 facet normal 0.000000 0.000000 -1.000000
  outer loop
   vertex 2500.000000 0.000000 -2680.000000
   vertex 3078.186525 -1001.448437 -2680.000000
   vertex 2988.704368 -1048.029900 -2680.000000
  endloop
 endfacet
 facet normal 0.000000 0.000000 1.000000
  outer loop
   vertex 2500.000000 0.000000 -480.000000
   vertex 2988.704368 -1048.029900 -480.000000
   vertex 3078.186525 -1001.448437 -480.000000
  endloop
 endfacet
 facet normal 0.000000 0.000000 -1.000000
  outer loop
   vertex 2500.000000 0.000000 -2680.000000
   vertex 3163.268333 -947.245348 -2680.000000
   vertex 3078.186525 -1001.448437 -2680.000000
  endloop
 endfacet
 facet normal 0.000000 0.000000 1.000000
  outer loop
   vertex 2500.000000 0.000000 -480.000000
   vertex 3078.186525 -1001.448437 -480.000000
   vertex 3163.268333 -947.245348 -480.000000
  endloop
 endfacet
 facet normal 0.000000 0.000000 -1.000000
  outer loop
   vertex 2500.000000 0.000000 -2680.000000
   vertex 3243.302269 -885.833149 -2680.000000
   vertex 3163.268333 -947.245348 -2680.000000
  endloop
 endfacet
 facet normal 0.000000 0.000000 1.000000
  outer loop
   vertex 2500.000000 0.000000 -480.000000
   vertex 3163.268333 -947.245348 -480.000000
   vertex 3243.302269 -885.833149 -480.000000
  endloop
 endfacet
 facet normal 0.000000 0.000000 -1.000000
  outer loop
   vertex 2500.000000 0.000000 -2680.000000
   vertex 3317.679225 -817.679225 -2680.000000
   vertex 3243.302269 -885.833149 -2680.000000
  endloop
 endfacet
 facet normal 0.000000 0.000000 1.000000
  outer loop
   vertex 2500.000000 0.000000 -480.000000
   vertex 3243.302269 -885.833149 -480.000000
   vertex 3317.679225 -817.679225 -480.000000
  endloop
 endfacet
 facet normal 0.000000 0.000000 -1.000000
  outer loop
   vertex 2500.000000 0.000000 -2680.000000
   vertex 3385.833149 -743.302269 -2680.000000
   vertex 3317.679225 -817.679225 -2680.000000
  endloop
 endfacet
 facet normal 0.000000 0.000000 1.000000
  outer loop
   vertex 2500.000000 0.000000 -480.000000
   vertex 3317.679225 -817.679225 -480.000000
   vertex 3385.833149 -743.302269 -480.000000
  endloop
 endfacet
 facet normal 0.000000 0.000000 -1.000000
  outer loop
   vertex 2500.000000 0.000000 -2680.000000
   vertex 3447.245348 -663.268333 -2680.000000
   vertex 3385.833149 -743.302269 -2680.000000
  endloop
 endfacet
 facet normal 0.000000 0.000000 1.000000
  outer loop
   vertex 2500.000000 0.000000 -480.000000
   vertex 3385.833149 -743.302269 -480.000000
   vertex 3447.245348 -663.268333 -480.000000
  endloop
 endfacet
 facet normal 0.000000 0.000000 -1.000000
  outer loop
   vertex 2500.000000 0.000000 -2680.000000
   vertex 3501.448437 -578.186525 -2680.000000
   vertex 3447.245348 -663.268333 -2680.000000
  endloop
 endfacet
 facet normal 0.000000 0.000000 1.000000
  outer loop
   vertex 2500.000000 0.000000 -480.000000
   vertex 3447.245348 -663.268333 -480.000000
   vertex 3501.448437 -578.186525 -480.000000
  endloop
 endfacet
 facet normal 0.000000 0.000000 -1.000000
  outer loop
   vertex 2500.000000 0.000000 -2680.000000
   vertex 3548.029900 -488.704368 -2680.000000
   vertex 3501.448437 -578.186525 -2680.000000
  endloop
 endfacet
 facet normal 0.000000 0.000000 1.000000
  outer loop
   vertex 2500.000000 0.000000 -480.000000
   vertex 3501.448437 -578.186525 -480.000000
   vertex 3548.029900 -488.704368 -480.000000
  endloop
 endfacet
 facet normal 0.000000 0.000000 -1.000000
  outer loop
   vertex 2500.000000 0.000000 -2680.000000
   vertex 3586.635222 -395.502876 -2680.000000
   vertex 3548.029900 -488.704368 -2680.000000
  endloop
 endfacet
 facet normal 0.000000 0.000000 1.000000
  outer loop
   vertex 2500.000000 0.000000 -480.000000
   vertex 3548.029900 -488.704368 -480.000000
   vertex 3586.635222 -395.502876 -480.000000
  endloop
 endfacet
 facet normal 0.000000 0.000000 -1.000000
  outer loop
   vertex 2500.000000 0.000000 -2680.000000
   vertex 3616.970594 -299.291369 -2680.000000
   vertex 3586.635222 -395.502876 -2680.000000
  endloop
 endfacet
 facet normal 0.000000 0.000000 1.000000
  outer loop
   vertex 2500.000000 0.000000 -480.000000
   vertex 3586.635222 -395.502876 -480.000000
   vertex 3616.970594 -299.291369 -480.000000
  endloop
 endfacet
 facet normal 0.000000 0.000000 -1.000000
  outer loop
   vertex 2500.000000 0.000000 -2680.000000
   vertex 3638.805145 -200.802073 -2680.000000
   vertex 3616.970594 -299.291369 -2680.000000
  endloop
 endfacet
 facet normal 0.000000 0.000000 1.000000
  outer loop
   vertex 2500.000000 0.000000 -480.000000
   vertex 3616.970594 -299.291369 -480.000000
   vertex 3638.805145 -200.802073 -480.000000
  endloop
 endfacet
 facet normal 0.000000 0.000000 -1.000000
  outer loop
   vertex 2500.000000 0.000000 -2680.000000
   vertex 3651.972701 -100.784552 -2680.000000
   vertex 3638.805145 -200.802073 -2680.000000
  endloop
 endfacet
 facet normal 0.000000 0.000000 1.000000
  outer loop
   vertex 2500.000000 0.000000 -480.000000
   vertex 3638.805145 -200.802073 -480.000000
   vertex 3651.972701 -100.784552 -480.000000
  endloop
 endfacet
 facet normal 0.000000 0.000000 -1.000000
  outer loop
   vertex 2500.000000 0.000000 -2680.000000
   vertex 3656.373050 0.000000 -2680.000000
   vertex 3651.972701 -100.784552 -2680.000000
  endloop
 endfacet
 facet normal -0.000000 0.000000 1.000000
  outer loop
   vertex 2500.000000 0.000000 -480.000000
   vertex 3651.972701 -100.784552 -480.000000
   vertex 3656.373050 0.000000 -480.000000
  endloop
 endfacet
endsolid F1_NOZZLE
