solid SIC_RP1_dropB_0
 facet normal 0.065236 0.997859 -0.004673
  outer loop
   vertex -2400.000000 60.000000 -1354.000000
   vertex -2392.188445 59.486692 -1354.559567
   vertex -2492.188445 59.486692 -2750.559567
  endloop
 endfacet
 facet normal 0.065236 0.997859 -0.004673
  outer loop
   vertex -2400.000000 60.000000 -1354.000000
   vertex -2492.188445 59.486692 -2750.559567
   vertex -2500.000000 60.000000 -2750.000000
  endloop
 endfacet
 facet normal 0.194592 0.980785 -0.013939
  outer loop
   vertex -2392.188445 59.486692 -1354.559567
   vertex -2384.510547 57.955550 -1355.109560
   vertex -2484.510547 57.955550 -2751.109560
  endloop
 endfacet
 facet normal 0.194592 0.980785 -0.013939
  outer loop
   vertex -2392.188445 59.486692 -1354.559567
   vertex -2484.510547 57.955550 -2751.109560
   vertex -2492.188445 59.486692 -2750.559567
  endloop
 endfacet
 facet normal 0.320618 0.946930 -0.022967
  outer loop
   vertex -2384.510547 57.955550 -1355.109560
   vertex -2377.097678 55.432772 -1355.640567
   vertex -2477.097678 55.432772 -2751.640567
  endloop
 endfacet
 facet normal 0.320618 0.946930 -0.022967
  outer loop
   vertex -2384.510547 57.955550 -1355.109560
   vertex -2477.097678 55.432772 -2751.640567
   vertex -2484.510547 57.955550 -2751.109560
  endloop
 endfacet
 facet normal 0.441158 0.896873 -0.031602
  outer loop
   vertex -2377.097678 55.432772 -1355.640567
   vertex -2370.076675 51.961524 -1356.143505
   vertex -2470.076675 51.961524 -2752.143505
  endloop
 endfacet
 facet normal 0.441158 0.896873 -0.031602
  outer loop
   vertex -2377.097678 55.432772 -1355.640567
   vertex -2470.076675 51.961524 -2752.143505
   vertex -2477.097678 55.432772 -2751.640567
  endloop
 endfacet
 facet normal 0.554150 0.831470 -0.039696
  outer loop
   vertex -2370.076675 51.961524 -1356.143505
   vertex -2363.567668 47.601200 -1356.609766
   vertex -2463.567668 47.601200 -2752.609766
  endloop
 endfacet
 facet normal 0.554150 0.831470 -0.039696
  outer loop
   vertex -2370.076675 51.961524 -1356.143505
   vertex -2463.567668 47.601200 -2752.609766
   vertex -2470.076675 51.961524 -2752.143505
  endloop
 endfacet
 facet normal 0.657661 0.751840 -0.047110
  outer loop
   vertex -2363.567668 47.601200 -1356.609766
   vertex -2357.682028 42.426407 -1357.031373
   vertex -2457.682028 42.426407 -2753.031373
  endloop
 endfacet
 facet normal 0.657661 0.751840 -0.047110
  outer loop
   vertex -2363.567668 47.601200 -1356.609766
   vertex -2457.682028 42.426407 -2753.031373
   vertex -2463.567668 47.601200 -2752.609766
  endloop
 endfacet
 facet normal 0.749918 0.659346 -0.053719
  outer loop
   vertex -2357.682028 42.426407 -1357.031373
   vertex -2352.520460 36.525686 -1357.401113
   vertex -2452.520460 36.525686 -2753.401113
  endloop
 endfacet
 facet normal 0.749918 0.659346 -0.053719
  outer loop
   vertex -2357.682028 42.426407 -1357.031373
   vertex -2452.520460 36.525686 -2753.401113
   vertex -2457.682028 42.426407 -2753.031373
  endloop
 endfacet
 facet normal 0.829345 0.555570 -0.059409
  outer loop
   vertex -2352.520460 36.525686 -1357.401113
   vertex -2348.171281 30.000000 -1357.712659
   vertex -2448.171281 30.000000 -2753.712659
  endloop
 endfacet
 facet normal 0.829345 0.555570 -0.059409
  outer loop
   vertex -2352.520460 36.525686 -1357.401113
   vertex -2448.171281 30.000000 -2753.712659
   vertex -2452.520460 36.525686 -2753.401113
  endloop
 endfacet
 facet normal 0.894580 0.442289 -0.064082
  outer loop
   vertex -2348.171281 30.000000 -1357.712659
   vertex -2344.708905 22.961006 -1357.960680
   vertex -2444.708905 22.961006 -2753.960680
  endloop
 endfacet
 facet normal 0.894580 0.442289 -0.064082
  outer loop
   vertex -2348.171281 30.000000 -1357.712659
   vertex -2444.708905 22.961006 -2753.960680
   vertex -2448.171281 30.000000 -2753.712659
  endloop
 endfacet
 facet normal 0.944510 0.321439 -0.067658
  outer loop
   vertex -2344.708905 22.961006 -1357.960680
   vertex -2342.192575 15.529143 -1358.140933
   vertex -2442.192575 15.529143 -2754.140933
  endloop
 endfacet
 facet normal 0.944510 0.321439 -0.067658
  outer loop
   vertex -2344.708905 22.961006 -1357.960680
   vertex -2442.192575 15.529143 -2754.140933
   vertex -2444.708905 22.961006 -2753.960680
  endloop
 endfacet
 facet normal 0.978279 0.195090 -0.070077
  outer loop
   vertex -2342.192575 15.529143 -1358.140933
   vertex -2340.665346 7.831572 -1358.250333
   vertex -2440.665346 7.831572 -2754.250333
  endloop
 endfacet
 facet normal 0.978279 0.195090 -0.070077
  outer loop
   vertex -2342.192575 15.529143 -1358.140933
   vertex -2440.665346 7.831572 -2754.250333
   vertex -2442.192575 15.529143 -2754.140933
  endloop
 endfacet
 facet normal 0.995309 0.065403 -0.071297
  outer loop
   vertex -2340.665346 7.831572 -1358.250333
   vertex -2340.153350 0.000000 -1358.287009
   vertex -2440.153350 0.000000 -2754.287009
  endloop
 endfacet
 facet normal 0.995309 0.065403 -0.071297
  outer loop
   vertex -2340.665346 7.831572 -1358.250333
   vertex -2440.153350 0.000000 -2754.287009
   vertex -2440.665346 7.831572 -2754.250333
  endloop
 endfacet
 facet normal 0.995309 -0.065403 -0.071297
  outer loop
   vertex -2340.153350 0.000000 -1358.287009
   vertex -2340.665346 -7.831572 -1358.250333
   vertex -2440.665346 -7.831572 -2754.250333
  endloop
 endfacet
 facet normal 0.995309 -0.065403 -0.071297
  outer loop
   vertex -2340.153350 0.000000 -1358.287009
   vertex -2440.665346 -7.831572 -2754.250333
   vertex -2440.153350 0.000000 -2754.287009
  endloop
 endfacet
 facet normal 0.978279 -0.195090 -0.070077
  outer loop
   vertex -2340.665346 -7.831572 -1358.250333
   vertex -2342.192575 -15.529143 -1358.140933
   vertex -2442.192575 -15.529143 -2754.140933
  endloop
 endfacet
 facet normal 0.978279 -0.195090 -0.070077
  outer loop
   vertex -2340.665346 -7.831572 -1358.250333
   vertex -2442.192575 -15.529143 -2754.140933
   vertex -2440.665346 -7.831572 -2754.250333
  endloop
 endfacet
 facet normal 0.944510 -0.321439 -0.067658
  outer loop
   vertex -2342.192575 -15.529143 -1358.140933
   vertex -2344.708905 -22.961006 -1357.960680
   vertex -2444.708905 -22.961006 -2753.960680
  endloop
 endfacet
 facet normal 0.944510 -0.321439 -0.067658
  outer loop
   vertex -2342.192575 -15.529143 -1358.140933
   vertex -2444.708905 -22.961006 -2753.960680
   vertex -2442.192575 -15.529143 -2754.140933
  endloop
 endfacet
 facet normal 0.894580 -0.442289 -0.064082
  outer loop
   vertex -2344.708905 -22.961006 -1357.960680
   vertex -2348.171281 -30.000000 -1357.712659
   vertex -2448.171281 -30.000000 -2753.712659
  endloop
 endfacet
 facet normal 0.894580 -0.442289 -0.064082
  outer loop
   vertex -2344.708905 -22.961006 -1357.960680
   vertex -2448.171281 -30.000000 -2753.712659
   vertex -2444.708905 -22.961006 -2753.960680
  endloop
 endfacet
 facet normal 0.829345 -0.555570 -0.059409
  outer loop
   vertex -2348.171281 -30.000000 -1357.712659
   vertex -2352.520460 -36.525686 -1357.401113
   vertex -2452.520460 -36.525686 -2753.401113
  endloop
 endfacet
 facet normal 0.829345 -0.555570 -0.059409
  outer loop
   vertex -2348.171281 -30.000000 -1357.712659
   vertex -2452.520460 -36.525686 -2753.401113
   vertex -2448.171281 -30.000000 -2753.712659
  endloop
 endfacet
 facet normal 0.749918 -0.659346 -0.053719
  outer loop
   vertex -2352.520460 -36.525686 -1357.401113
   vertex -2357.682028 -42.426407 -1357.031373
   vertex -2457.682028 -42.426407 -2753.031373
  endloop
 endfacet
 facet normal 0.749918 -0.659346 -0.053719
  outer loop
   vertex -2352.520460 -36.525686 -1357.401113
   vertex -2457.682028 -42.426407 -2753.031373
   vertex -2452.520460 -36.525686 -2753.401113
  endloop
 endfacet
 facet normal 0.657661 -0.751840 -0.047110
  outer loop
   vertex -2357.682028 -42.426407 -1357.031373
   vertex -2363.567668 -47.601200 -1356.609766
   vertex -2463.567668 -47.601200 -2752.609766
  endloop
 endfacet
 facet normal 0.657661 -0.751840 -0.047110
  outer loop
   vertex -2357.682028 -42.426407 -1357.031373
   vertex -2463.567668 -47.601200 -2752.609766
   vertex -2457.682028 -42.426407 -2753.031373
  endloop
 endfacet
 facet normal 0.554150 -0.831470 -0.039696
  outer loop
   vertex -2363.567668 -47.601200 -1356.609766
   vertex -2370.076675 -51.961524 -1356.143505
   vertex -2470.076675 -51.961524 -2752.143505
  endloop
 endfacet
 facet normal 0.554150 -0.831470 -0.039696
  outer loop
   vertex -2363.567668 -47.601200 -1356.609766
   vertex -2470.076675 -51.961524 -2752.143505
   vertex -2463.567668 -47.601200 -2752.609766
  endloop
 endfacet
 facet normal 0.441158 -0.896873 -0.031602
  outer loop
   vertex -2370.076675 -51.961524 -1356.143505
   vertex -2377.097678 -55.432772 -1355.640567
   vertex -2477.097678 -55.432772 -2751.640567
  endloop
 endfacet
 facet normal 0.441158 -0.896873 -0.031602
  outer loop
   vertex -2370.076675 -51.961524 -1356.143505
   vertex -2477.097678 -55.432772 -2751.640567
   vertex -2470.076675 -51.961524 -2752.143505
  endloop
 endfacet
 facet normal 0.320618 -0.946930 -0.022967
  outer loop
   vertex -2377.097678 -55.432772 -1355.640567
   vertex -2384.510547 -57.955550 -1355.109560
   vertex -2484.510547 -57.955550 -2751.109560
  endloop
 endfacet
 facet normal 0.320618 -0.946930 -0.022967
  outer loop
   vertex -2377.097678 -55.432772 -1355.640567
   vertex -2484.510547 -57.955550 -2751.109560
   vertex -2477.097678 -55.432772 -2751.640567
  endloop
 endfacet
 facet normal 0.194592 -0.980785 -0.013939
  outer loop
   vertex -2384.510547 -57.955550 -1355.109560
   vertex -2392.188445 -59.486692 -1354.559567
   vertex -2492.188445 -59.486692 -2750.559567
  endloop
 endfacet
 facet normal 0.194592 -0.980785 -0.013939
  outer loop
   vertex -2384.510547 -57.955550 -1355.109560
   vertex -2492.188445 -59.486692 -2750.559567
   vertex -2484.510547 -57.955550 -2751.109560
  endloop
 endfacet
 facet normal 0.065236 -0.997859 -0.004673
  outer loop
   vertex -2392.188445 -59.486692 -1354.559567
   vertex -2400.000000 -60.000000 -1354.000000
   vertex -2500.000000 -60.000000 -2750.000000
  endloop
 endfacet
 facet normal 0.065236 -0.997859 -0.004673
  outer loop
   vertex -2392.188445 -59.486692 -1354.559567
   vertex -2500.000000 -60.000000 -2750.000000
   vertex -2492.188445 -59.486692 -2750.559567
  endloop
 endfacet
 facet normal -0.065236 -0.997859 0.004673
  outer loop
   vertex -2400.000000 -60.000000 -1354.000000
   vertex -2407.811555 -59.486692 -1353.440433
   vertex -2507.811555 -59.486692 -2749.440433
  endloop
 endfacet
 facet normal -0.065236 -0.997859 0.004673
  outer loop
   vertex -2400.000000 -60.000000 -1354.000000
   vertex -2507.811555 -59.486692 -2749.440433
   vertex -2500.000000 -60.000000 -2750.000000
  endloop
 endfacet
 facet normal -0.194592 -0.980785 0.013939
  outer loop
   vertex -2407.811555 -59.486692 -1353.440433
   vertex -2415.489453 -57.955550 -1352.890440
   vertex -2515.489453 -57.955550 -2748.890440
  endloop
 endfacet
 facet normal -0.194592 -0.980785 0.013939
  outer loop
   vertex -2407.811555 -59.486692 -1353.440433
   vertex -2515.489453 -57.955550 -2748.890440
   vertex -2507.811555 -59.486692 -2749.440433
  endloop
 endfacet
 facet normal -0.320618 -0.946930 0.022967
  outer loop
   vertex -2415.489453 -57.955550 -1352.890440
   vertex -2422.902322 -55.432772 -1352.359433
   vertex -2522.902322 -55.432772 -2748.359433
  endloop
 endfacet
 facet normal -0.320618 -0.946930 0.022967
  outer loop
   vertex -2415.489453 -57.955550 -1352.890440
   vertex -2522.902322 -55.432772 -2748.359433
   vertex -2515.489453 -57.955550 -2748.890440
  endloop
 endfacet
 facet normal -0.441158 -0.896873 0.031602
  outer loop
   vertex -2422.902322 -55.432772 -1352.359433
   vertex -2429.923325 -51.961524 -1351.856495
   vertex -2529.923325 -51.961524 -2747.856495
  endloop
 endfacet
 facet normal -0.441158 -0.896873 0.031602
  outer loop
   vertex -2422.902322 -55.432772 -1352.359433
   vertex -2529.923325 -51.961524 -2747.856495
   vertex -2522.902322 -55.432772 -2748.359433
  endloop
 endfacet
 facet normal -0.554150 -0.831470 0.039696
  outer loop
   vertex -2429.923325 -51.961524 -1351.856495
   vertex -2436.432332 -47.601200 -1351.390234
   vertex -2536.432332 -47.601200 -2747.390234
  endloop
 endfacet
 facet normal -0.554150 -0.831470 0.039696
  outer loop
   vertex -2429.923325 -51.961524 -1351.856495
   vertex -2536.432332 -47.601200 -2747.390234
   vertex -2529.923325 -51.961524 -2747.856495
  endloop
 endfacet
 facet normal -0.657661 -0.751840 0.047110
  outer loop
   vertex -2436.432332 -47.601200 -1351.390234
   vertex -2442.317972 -42.426407 -1350.968627
   vertex -2542.317972 -42.426407 -2746.968627
  endloop
 endfacet
 facet normal -0.657661 -0.751840 0.047110
  outer loop
   vertex -2436.432332 -47.601200 -1351.390234
   vertex -2542.317972 -42.426407 -2746.968627
   vertex -2536.432332 -47.601200 -2747.390234
  endloop
 endfacet
 facet normal -0.749918 -0.659346 0.053719
  outer loop
   vertex -2442.317972 -42.426407 -1350.968627
   vertex -2447.479540 -36.525686 -1350.598887
   vertex -2547.479540 -36.525686 -2746.598887
  endloop
 endfacet
 facet normal -0.749918 -0.659346 0.053719
  outer loop
   vertex -2442.317972 -42.426407 -1350.968627
   vertex -2547.479540 -36.525686 -2746.598887
   vertex -2542.317972 -42.426407 -2746.968627
  endloop
 endfacet
 facet normal -0.829345 -0.555570 0.059409
  outer loop
   vertex -2447.479540 -36.525686 -1350.598887
   vertex -2451.828719 -30.000000 -1350.287341
   vertex -2551.828719 -30.000000 -2746.287341
  endloop
 endfacet
 facet normal -0.829345 -0.555570 0.059409
  outer loop
   vertex -2447.479540 -36.525686 -1350.598887
   vertex -2551.828719 -30.000000 -2746.287341
   vertex -2547.479540 -36.525686 -2746.598887
  endloop
 endfacet
 facet normal -0.894580 -0.442289 0.064082
  outer loop
   vertex -2451.828719 -30.000000 -1350.287341
   vertex -2455.291095 -22.961006 -1350.039320
   vertex -2555.291095 -22.961006 -2746.039320
  endloop
 endfacet
 facet normal -0.894580 -0.442289 0.064082
  outer loop
   vertex -2451.828719 -30.000000 -1350.287341
   vertex -2555.291095 -22.961006 -2746.039320
   vertex -2551.828719 -30.000000 -2746.287341
  endloop
 endfacet
 facet normal -0.944510 -0.321439 0.067658
  outer loop
   vertex -2455.291095 -22.961006 -1350.039320
   vertex -2457.807425 -15.529143 -1349.859067
   vertex -2557.807425 -15.529143 -2745.859067
  endloop
 endfacet
 facet normal -0.944510 -0.321439 0.067658
  outer loop
   vertex -2455.291095 -22.961006 -1350.039320
   vertex -2557.807425 -15.529143 -2745.859067
   vertex -2555.291095 -22.961006 -2746.039320
  endloop
 endfacet
 facet normal -0.978279 -0.195090 0.070077
  outer loop
   vertex -2457.807425 -15.529143 -1349.859067
   vertex -2459.334654 -7.831572 -1349.749667
   vertex -2559.334654 -7.831572 -2745.749667
  endloop
 endfacet
 facet normal -0.978279 -0.195090 0.070077
  outer loop
   vertex -2457.807425 -15.529143 -1349.859067
   vertex -2559.334654 -7.831572 -2745.749667
   vertex -2557.807425 -15.529143 -2745.859067
  endloop
 endfacet
 facet normal -0.995309 -0.065403 0.071297
  outer loop
   vertex -2459.334654 -7.831572 -1349.749667
   vertex -2459.846650 -0.000000 -1349.712991
   vertex -2559.846650 -0.000000 -2745.712991
  endloop
 endfacet
 facet normal -0.995309 -0.065403 0.071297
  outer loop
   vertex -2459.334654 -7.831572 -1349.749667
   vertex -2559.846650 -0.000000 -2745.712991
   vertex -2559.334654 -7.831572 -2745.749667
  endloop
 endfacet
 facet normal -0.995309 0.065403 0.071297
  outer loop
   vertex -2459.846650 -0.000000 -1349.712991
   vertex -2459.334654 7.831572 -1349.749667
   vertex -2559.334654 7.831572 -2745.749667
  endloop
 endfacet
 facet normal -0.995309 0.065403 0.071297
  outer loop
   vertex -2459.846650 -0.000000 -1349.712991
   vertex -2559.334654 7.831572 -2745.749667
   vertex -2559.846650 -0.000000 -2745.712991
  endloop
 endfacet
 facet normal -0.978279 0.195090 0.070077
  outer loop
   vertex -2459.334654 7.831572 -1349.749667
   vertex -2457.807425 15.529143 -1349.859067
   vertex -2557.807425 15.529143 -2745.859067
  endloop
 endfacet
 facet normal -0.978279 0.195090 0.070077
  outer loop
   vertex -2459.334654 7.831572 -1349.749667
   vertex -2557.807425 15.529143 -2745.859067
   vertex -2559.334654 7.831572 -2745.749667
  endloop
 endfacet
 facet normal -0.944510 0.321439 0.067658
  outer loop
   vertex -2457.807425 15.529143 -1349.859067
   vertex -2455.291095 22.961006 -1350.039320
   vertex -2555.291095 22.961006 -2746.039320
  endloop
 endfacet
 facet normal -0.944510 0.321439 0.067658
  outer loop
   vertex -2457.807425 15.529143 -1349.859067
   vertex -2555.291095 22.961006 -2746.039320
   vertex -2557.807425 15.529143 -2745.859067
  endloop
 endfacet
 facet normal -0.894580 0.442289 0.064082
  outer loop
   vertex -2455.291095 22.961006 -1350.039320
   vertex -2451.828719 30.000000 -1350.287341
   vertex -2551.828719 30.000000 -2746.287341
  endloop
 endfacet
 facet normal -0.894580 0.442289 0.064082
  outer loop
   vertex -2455.291095 22.961006 -1350.039320
   vertex -2551.828719 30.000000 -2746.287341
   vertex -2555.291095 22.961006 -2746.039320
  endloop
 endfacet
 facet normal -0.829345 0.555570 0.059409
  outer loop
   vertex -2451.828719 30.000000 -1350.287341
   vertex -2447.479540 36.525686 -1350.598887
   vertex -2547.479540 36.525686 -2746.598887
  endloop
 endfacet
 facet normal -0.829345 0.555570 0.059409
  outer loop
   vertex -2451.828719 30.000000 -1350.287341
   vertex -2547.479540 36.525686 -2746.598887
   vertex -2551.828719 30.000000 -2746.287341
  endloop
 endfacet
 facet normal -0.749918 0.659346 0.053719
  outer loop
   vertex -2447.479540 36.525686 -1350.598887
   vertex -2442.317972 42.426407 -1350.968627
   vertex -2542.317972 42.426407 -2746.968627
  endloop
 endfacet
 facet normal -0.749918 0.659346 0.053719
  outer loop
   vertex -2447.479540 36.525686 -1350.598887
   vertex -2542.317972 42.426407 -2746.968627
   vertex -2547.479540 36.525686 -2746.598887
  endloop
 endfacet
 facet normal -0.657661 0.751840 0.047110
  outer loop
   vertex -2442.317972 42.426407 -1350.968627
   vertex -2436.432332 47.601200 -1351.390234
   vertex -2536.432332 47.601200 -2747.390234
  endloop
 endfacet
 facet normal -0.657661 0.751840 0.047110
  outer loop
   vertex -2442.317972 42.426407 -1350.968627
   vertex -2536.432332 47.601200 -2747.390234
   vertex -2542.317972 42.426407 -2746.968627
  endloop
 endfacet
 facet normal -0.554150 0.831470 0.039696
  outer loop
   vertex -2436.432332 47.601200 -1351.390234
   vertex -2429.923325 51.961524 -1351.856495
   vertex -2529.923325 51.961524 -2747.856495
  endloop
 endfacet
 facet normal -0.554150 0.831470 0.039696
  outer loop
   vertex -2436.432332 47.601200 -1351.390234
   vertex -2529.923325 51.961524 -2747.856495
   vertex -2536.432332 47.601200 -2747.390234
  endloop
 endfacet
 facet normal -0.441158 0.896873 0.031602
  outer loop
   vertex -2429.923325 51.961524 -1351.856495
   vertex -2422.902322 55.432772 -1352.359433
   vertex -2522.902322 55.432772 -2748.359433
  endloop
 endfacet
 facet normal -0.441158 0.896873 0.031602
  outer loop
   vertex -2429.923325 51.961524 -1351.856495
   vertex -2522.902322 55.432772 -2748.359433
   vertex -2529.923325 51.961524 -2747.856495
  endloop
 endfacet
 facet normal -0.320618 0.946930 0.022967
  outer loop
   vertex -2422.902322 55.432772 -1352.359433
   vertex -2415.489453 57.955550 -1352.890440
   vertex -2515.489453 57.955550 -2748.890440
  endloop
 endfacet
 facet normal -0.320618 0.946930 0.022967
  outer loop
   vertex -2422.902322 55.432772 -1352.359433
   vertex -2515.489453 57.955550 -2748.890440
   vertex -2522.902322 55.432772 -2748.359433
  endloop
 endfacet
 facet normal -0.194592 0.980785 0.013939
  outer loop
   vertex -2415.489453 57.955550 -1352.890440
   vertex -2407.811555 59.486692 -1353.440433
   vertex -2507.811555 59.486692 -2749.440433
  endloop
 endfacet
 facet normal -0.194592 0.980785 0.013939
  outer loop
   vertex -2415.489453 57.955550 -1352.890440
   vertex -2507.811555 59.486692 -2749.440433
   vertex -2515.489453 57.955550 -2748.890440
  endloop
 endfacet
 facet normal -0.065236 0.997859 0.004673
  outer loop
   vertex -2407.811555 59.486692 -1353.440433
   vertex -2400.000000 60.000000 -1354.000000
   vertex -2500.000000 60.000000 -2750.000000
  endloop
 endfacet
 facet normal -0.065236 0.997859 0.004673
  outer loop
   vertex -2407.811555 59.486692 -1353.440433
   vertex -2500.000000 60.000000 -2750.000000
   vertex -2507.811555 59.486692 -2749.440433
  endloop
 endfacet
endsolid SIC_RP1_dropB_0
