solid SIC_LOX_dropA_4
 facet normal 0.065319 0.993702 0.091050
  outer loop
   vertex 1150.000000 2051.567571 -332.723882
   vertex 1157.821497 2051.021332 -332.373453
   vertex 1207.821497 2137.621332 -1313.373453
  endloop
 endfacet
 facet normal 0.065319 0.993702 0.091050
  outer loop
   vertex 1150.000000 2051.567571 -332.723882
   vertex 1207.821497 2137.621332 -1313.373453
   vertex 1200.000000 2138.167571 -1313.723882
  endloop
 endfacet
 facet normal 0.194839 0.976116 0.096100
  outer loop
   vertex 1157.821497 2051.021332 -332.373453
   vertex 1165.509167 2049.461799 -332.119296
   vertex 1215.509167 2136.061799 -1313.119296
  endloop
 endfacet
 facet normal 0.194839 0.976116 0.096100
  outer loop
   vertex 1157.821497 2051.021332 -332.373453
   vertex 1215.509167 2136.061799 -1313.119296
   vertex 1207.821497 2137.621332 -1313.373453
  endloop
 endfacet
 facet normal 0.321026 0.941829 0.099504
  outer loop
   vertex 1165.509167 2049.461799 -332.119296
   vertex 1172.931470 2046.915657 -331.965760
   vertex 1222.931470 2133.515657 -1312.965760
  endloop
 endfacet
 facet normal 0.321026 0.941829 0.099504
  outer loop
   vertex 1165.509167 2049.461799 -332.119296
   vertex 1222.931470 2133.515657 -1312.965760
   vertex 1215.509167 2136.061799 -1313.119296
  endloop
 endfacet
 facet normal 0.441720 0.891426 0.101206
  outer loop
   vertex 1172.931470 2046.915657 -331.965760
   vertex 1179.961409 2043.426471 -331.915471
   vertex 1229.961409 2130.026471 -1312.915471
  endloop
 endfacet
 facet normal 0.441720 0.891426 0.101206
  outer loop
   vertex 1172.931470 2046.915657 -331.965760
   vertex 1229.961409 2130.026471 -1312.915471
   vertex 1222.931470 2133.515657 -1312.965760
  endloop
 endfacet
 facet normal 0.554856 0.825771 0.101177
  outer loop
   vertex 1179.961409 2043.426471 -331.915471
   vertex 1186.478701 2039.053941 -331.969290
   vertex 1236.478701 2125.653941 -1312.969290
  endloop
 endfacet
 facet normal 0.554856 0.825771 0.101177
  outer loop
   vertex 1179.961409 2043.426471 -331.915471
   vertex 1236.478701 2125.653941 -1312.969290
   vertex 1229.961409 2130.026471 -1312.915471
  endloop
 endfacet
 facet normal 0.658498 0.745987 0.099416
  outer loop
   vertex 1186.478701 2039.053941 -331.969290
   vertex 1192.371831 2033.872883 -332.126296
   vertex 1242.371831 2120.472883 -1313.126296
  endloop
 endfacet
 facet normal 0.658498 0.745987 0.099416
  outer loop
   vertex 1186.478701 2039.053941 -331.969290
   vertex 1242.371831 2120.472883 -1313.126296
   vertex 1236.478701 2125.653941 -1312.969290
  endloop
 endfacet
 facet normal 0.750873 0.653439 0.095955
  outer loop
   vertex 1192.371831 2033.872883 -332.126296
   vertex 1197.539968 2027.971947 -332.383803
   vertex 1247.539968 2114.571947 -1313.383803
  endloop
 endfacet
 facet normal 0.750873 0.653439 0.095955
  outer loop
   vertex 1192.371831 2033.872883 -332.126296
   vertex 1247.539968 2114.571947 -1313.383803
   vertex 1242.371831 2120.472883 -1313.126296
  endloop
 endfacet
 facet normal 0.830400 0.549711 0.090851
  outer loop
   vertex 1197.539968 2027.971947 -332.383803
   vertex 1201.894683 2021.452099 -332.737405
   vertex 1251.894683 2108.052099 -1313.737405
  endloop
 endfacet
 facet normal 0.830400 0.549711 0.090851
  outer loop
   vertex 1197.539968 2027.971947 -332.383803
   vertex 1251.894683 2108.052099 -1313.737405
   vertex 1247.539968 2114.571947 -1313.383803
  endloop
 endfacet
 facet normal 0.895719 0.436576 0.084193
  outer loop
   vertex 1201.894683 2021.452099 -332.737405
   vertex 1205.361466 2014.424895 -333.181051
   vertex 1255.361466 2101.024895 -1314.181051
  endloop
 endfacet
 facet normal 0.895719 0.436576 0.084193
  outer loop
   vertex 1201.894683 2021.452099 -332.737405
   vertex 1255.361466 2101.024895 -1314.181051
   vertex 1251.894683 2108.052099 -1313.737405
  endloop
 endfacet
 facet normal 0.945712 0.315972 0.076095
  outer loop
   vertex 1205.361466 2014.424895 -333.181051
   vertex 1207.880998 2007.010573 -333.707150
   vertex 1257.880998 2093.610573 -1314.707150
  endloop
 endfacet
 facet normal 0.945712 0.315972 0.076095
  outer loop
   vertex 1205.361466 2014.424895 -333.181051
   vertex 1257.880998 2093.610573 -1314.707150
   vertex 1255.361466 2101.024895 -1314.181051
  endloop
 endfacet
 facet normal 0.979524 0.189961 0.066694
  outer loop
   vertex 1207.880998 2007.010573 -333.707150
   vertex 1209.410170 1999.335993 -334.306702
   vertex 1259.410170 2085.935993 -1315.306702
  endloop
 endfacet
 facet normal 0.979524 0.189961 0.066694
  outer loop
   vertex 1207.880998 2007.010573 -333.707150
   vertex 1259.410170 2085.935993 -1315.306702
   vertex 1257.880998 2093.610573 -1314.707150
  endloop
 endfacet
 facet normal 0.996575 0.060701 0.056152
  outer loop
   vertex 1209.410170 1999.335993 -334.306702
   vertex 1209.922818 1991.532471 -334.969447
   vertex 1259.922818 2078.132471 -1315.969447
  endloop
 endfacet
 facet normal 0.996575 0.060701 0.056152
  outer loop
   vertex 1209.410170 1999.335993 -334.306702
   vertex 1259.922818 2078.132471 -1315.969447
   vertex 1259.410170 2085.935993 -1315.306702
  endloop
 endfacet
 facet normal 0.996575 -0.069599 0.044650
  outer loop
   vertex 1209.922818 1991.532471 -334.969447
   vertex 1209.410170 1983.733526 -335.684045
   vertex 1259.410170 2070.333526 -1316.684045
  endloop
 endfacet
 facet normal 0.996575 -0.069599 0.044650
  outer loop
   vertex 1209.922818 1991.532471 -334.969447
   vertex 1259.410170 2070.333526 -1316.684045
   vertex 1259.922818 2078.132471 -1315.969447
  endloop
 endfacet
 facet normal 0.979524 -0.198708 0.032383
  outer loop
   vertex 1209.410170 1983.733526 -335.684045
   vertex 1207.880998 1976.072601 -336.438270
   vertex 1257.880998 2062.672601 -1317.438270
  endloop
 endfacet
 facet normal 0.979524 -0.198708 0.032383
  outer loop
   vertex 1209.410170 1983.733526 -335.684045
   vertex 1257.880998 2062.672601 -1317.438270
   vertex 1259.410170 2070.333526 -1316.684045
  endloop
 endfacet
 facet normal 0.945712 -0.324416 0.019563
  outer loop
   vertex 1207.880998 1976.072601 -336.438270
   vertex 1205.361466 1968.680776 -337.219217
   vertex 1255.361466 2055.280776 -1318.219217
  endloop
 endfacet
 facet normal 0.945712 -0.324416 0.019563
  outer loop
   vertex 1207.880998 1976.072601 -336.438270
   vertex 1255.361466 2055.280776 -1318.219217
   vertex 1257.880998 2062.672601 -1317.438270
  endloop
 endfacet
 facet normal 0.895719 -0.444574 0.006408
  outer loop
   vertex 1205.361466 1968.680776 -337.219217
   vertex 1201.894683 1961.684527 -338.013523
   vertex 1251.894683 2048.284527 -1319.013523
  endloop
 endfacet
 facet normal 0.895719 -0.444574 0.006408
  outer loop
   vertex 1205.361466 1968.680776 -337.219217
   vertex 1251.894683 2048.284527 -1319.013523
   vertex 1255.361466 2055.280776 -1318.219217
  endloop
 endfacet
 facet normal 0.830400 -0.557125 -0.006857
  outer loop
   vertex 1201.894683 1961.684527 -338.013523
   vertex 1197.539968 1955.203563 -338.807597
   vertex 1247.539968 2041.803563 -1319.807597
  endloop
 endfacet
 facet normal 0.830400 -0.557125 -0.006857
  outer loop
   vertex 1201.894683 1961.684527 -338.013523
   vertex 1247.539968 2041.803563 -1319.807597
   vertex 1251.894683 2048.284527 -1319.013523
  endloop
 endfacet
 facet normal 0.750873 -0.660144 -0.020005
  outer loop
   vertex 1197.539968 1955.203563 -338.807597
   vertex 1192.371831 1949.348773 -339.587854
   vertex 1242.371831 2035.948773 -1320.587854
  endloop
 endfacet
 facet normal 0.750873 -0.660144 -0.020005
  outer loop
   vertex 1197.539968 1955.203563 -338.807597
   vertex 1242.371831 2035.948773 -1320.587854
   vertex 1247.539968 2041.803563 -1319.807597
  endloop
 endfacet
 facet normal 0.658498 -0.751867 -0.032810
  outer loop
   vertex 1192.371831 1949.348773 -339.587854
   vertex 1186.478701 1944.220336 -340.340942
   vertex 1236.478701 2030.820336 -1321.340942
  endloop
 endfacet
 facet normal 0.658498 -0.751867 -0.032810
  outer loop
   vertex 1192.371831 1949.348773 -339.587854
   vertex 1236.478701 2030.820336 -1321.340942
   vertex 1242.371831 2035.948773 -1320.587854
  endloop
 endfacet
 facet normal 0.554856 -0.830726 -0.045054
  outer loop
   vertex 1186.478701 1944.220336 -340.340942
   vertex 1179.961409 1939.906000 -341.053975
   vertex 1229.961409 2026.506000 -1322.053975
  endloop
 endfacet
 facet normal 0.554856 -0.830726 -0.045054
  outer loop
   vertex 1186.478701 1944.220336 -340.340942
   vertex 1229.961409 2026.506000 -1322.053975
   vertex 1236.478701 2030.820336 -1321.340942
  endloop
 endfacet
 facet normal 0.441720 -0.895371 -0.056527
  outer loop
   vertex 1179.961409 1939.906000 -341.053975
   vertex 1172.931470 1936.479585 -341.714755
   vertex 1222.931470 2023.079585 -1322.714755
  endloop
 endfacet
 facet normal 0.441720 -0.895371 -0.056527
  outer loop
   vertex 1179.961409 1939.906000 -341.053975
   vertex 1222.931470 2023.079585 -1322.714755
   vertex 1229.961409 2026.506000 -1322.053975
  endloop
 endfacet
 facet normal 0.321026 -0.944695 -0.067033
  outer loop
   vertex 1172.931470 1936.479585 -341.714755
   vertex 1165.509167 1933.999718 -342.311974
   vertex 1215.509167 2020.599718 -1323.311974
  endloop
 endfacet
 facet normal 0.321026 -0.944695 -0.067033
  outer loop
   vertex 1172.931470 1936.479585 -341.714755
   vertex 1215.509167 2020.599718 -1323.311974
   vertex 1222.931470 2023.079585 -1322.714755
  endloop
 endfacet
 facet normal 0.194839 -0.977856 -0.076392
  outer loop
   vertex 1165.509167 1933.999718 -342.311974
   vertex 1157.821497 1932.508829 -342.835413
   vertex 1207.821497 2019.108829 -1323.835413
  endloop
 endfacet
 facet normal 0.194839 -0.977856 -0.076392
  outer loop
   vertex 1165.509167 1933.999718 -342.311974
   vertex 1207.821497 2019.108829 -1323.835413
   vertex 1215.509167 2020.599718 -1323.311974
  endloop
 endfacet
 facet normal 0.065319 -0.994285 -0.084444
  outer loop
   vertex 1157.821497 1932.508829 -342.835413
   vertex 1150.000000 1932.032429 -343.276118
   vertex 1200.000000 2018.632429 -1324.276118
  endloop
 endfacet
 facet normal 0.065319 -0.994285 -0.084444
  outer loop
   vertex 1157.821497 1932.508829 -342.835413
   vertex 1200.000000 2018.632429 -1324.276118
   vertex 1207.821497 2019.108829 -1323.835413
  endloop
 endfacet
 facet normal -0.065319 -0.993702 -0.091050
  outer loop
   vertex 1150.000000 1932.032429 -343.276118
   vertex 1142.178503 1932.578668 -343.626547
   vertex 1192.178503 2019.178668 -1324.626547
  endloop
 endfacet
 facet normal -0.065319 -0.993702 -0.091050
  outer loop
   vertex 1150.000000 1932.032429 -343.276118
   vertex 1192.178503 2019.178668 -1324.626547
   vertex 1200.000000 2018.632429 -1324.276118
  endloop
 endfacet
 facet normal -0.194839 -0.976116 -0.096100
  outer loop
   vertex 1142.178503 1932.578668 -343.626547
   vertex 1134.490833 1934.138201 -343.880704
   vertex 1184.490833 2020.738201 -1324.880704
  endloop
 endfacet
 facet normal -0.194839 -0.976116 -0.096100
  outer loop
   vertex 1142.178503 1932.578668 -343.626547
   vertex 1184.490833 2020.738201 -1324.880704
   vertex 1192.178503 2019.178668 -1324.626547
  endloop
 endfacet
 facet normal -0.321026 -0.941829 -0.099504
  outer loop
   vertex 1134.490833 1934.138201 -343.880704
   vertex 1127.068530 1936.684343 -344.034240
   vertex 1177.068530 2023.284343 -1325.034240
  endloop
 endfacet
 facet normal -0.321026 -0.941829 -0.099504
  outer loop
   vertex 1134.490833 1934.138201 -343.880704
   vertex 1177.068530 2023.284343 -1325.034240
   vertex 1184.490833 2020.738201 -1324.880704
  endloop
 endfacet
 facet normal -0.441720 -0.891426 -0.101206
  outer loop
   vertex 1127.068530 1936.684343 -344.034240
   vertex 1120.038591 1940.173529 -344.084529
   vertex 1170.038591 2026.773529 -1325.084529
  endloop
 endfacet
 facet normal -0.441720 -0.891426 -0.101206
  outer loop
   vertex 1127.068530 1936.684343 -344.034240
   vertex 1170.038591 2026.773529 -1325.084529
   vertex 1177.068530 2023.284343 -1325.034240
  endloop
 endfacet
 facet normal -0.554856 -0.825771 -0.101177
  outer loop
   vertex 1120.038591 1940.173529 -344.084529
   vertex 1113.521299 1944.546059 -344.030710
   vertex 1163.521299 2031.146059 -1325.030710
  endloop
 endfacet
 facet normal -0.554856 -0.825771 -0.101177
  outer loop
   vertex 1120.038591 1940.173529 -344.084529
   vertex 1163.521299 2031.146059 -1325.030710
   vertex 1170.038591 2026.773529 -1325.084529
  endloop
 endfacet
 facet normal -0.658498 -0.745987 -0.099416
  outer loop
   vertex 1113.521299 1944.546059 -344.030710
   vertex 1107.628169 1949.727117 -343.873704
   vertex 1157.628169 2036.327117 -1324.873704
  endloop
 endfacet
 facet normal -0.658498 -0.745987 -0.099416
  outer loop
   vertex 1113.521299 1944.546059 -344.030710
   vertex 1157.628169 2036.327117 -1324.873704
   vertex 1163.521299 2031.146059 -1325.030710
  endloop
 endfacet
 facet normal -0.750873 -0.653439 -0.095955
  outer loop
   vertex 1107.628169 1949.727117 -343.873704
   vertex 1102.460032 1955.628053 -343.616197
   vertex 1152.460032 2042.228053 -1324.616197
  endloop
 endfacet
 facet normal -0.750873 -0.653439 -0.095955
  outer loop
   vertex 1107.628169 1949.727117 -343.873704
   vertex 1152.460032 2042.228053 -1324.616197
   vertex 1157.628169 2036.327117 -1324.873704
  endloop
 endfacet
 facet normal -0.830400 -0.549711 -0.090851
  outer loop
   vertex 1102.460032 1955.628053 -343.616197
   vertex 1098.105317 1962.147901 -343.262595
   vertex 1148.105317 2048.747901 -1324.262595
  endloop
 endfacet
 facet normal -0.830400 -0.549711 -0.090851
  outer loop
   vertex 1102.460032 1955.628053 -343.616197
   vertex 1148.105317 2048.747901 -1324.262595
   vertex 1152.460032 2042.228053 -1324.616197
  endloop
 endfacet
 facet normal -0.895719 -0.436576 -0.084193
  outer loop
   vertex 1098.105317 1962.147901 -343.262595
   vertex 1094.638534 1969.175105 -342.818949
   vertex 1144.638534 2055.775105 -1323.818949
  endloop
 endfacet
 facet normal -0.895719 -0.436576 -0.084193
  outer loop
   vertex 1098.105317 1962.147901 -343.262595
   vertex 1144.638534 2055.775105 -1323.818949
   vertex 1148.105317 2048.747901 -1324.262595
  endloop
 endfacet
 facet normal -0.945712 -0.315972 -0.076095
  outer loop
   vertex 1094.638534 1969.175105 -342.818949
   vertex 1092.119002 1976.589427 -342.292850
   vertex 1142.119002 2063.189427 -1323.292850
  endloop
 endfacet
 facet normal -0.945712 -0.315972 -0.076095
  outer loop
   vertex 1094.638534 1969.175105 -342.818949
   vertex 1142.119002 2063.189427 -1323.292850
   vertex 1144.638534 2055.775105 -1323.818949
  endloop
 endfacet
 facet normal -0.979524 -0.189961 -0.066694
  outer loop
   vertex 1092.119002 1976.589427 -342.292850
   vertex 1090.589830 1984.264007 -341.693298
   vertex 1140.589830 2070.864007 -1322.693298
  endloop
 endfacet
 facet normal -0.979524 -0.189961 -0.066694
  outer loop
   vertex 1092.119002 1976.589427 -342.292850
   vertex 1140.589830 2070.864007 -1322.693298
   vertex 1142.119002 2063.189427 -1323.292850
  endloop
 endfacet
 facet normal -0.996575 -0.060701 -0.056152
  outer loop
   vertex 1090.589830 1984.264007 -341.693298
   vertex 1090.077182 1992.067529 -341.030553
   vertex 1140.077182 2078.667529 -1322.030553
  endloop
 endfacet
 facet normal -0.996575 -0.060701 -0.056152
  outer loop
   vertex 1090.589830 1984.264007 -341.693298
   vertex 1140.077182 2078.667529 -1322.030553
   vertex 1140.589830 2070.864007 -1322.693298
  endloop
 endfacet
 facet normal -0.996575 0.069599 -0.044650
  outer loop
   vertex 1090.077182 1992.067529 -341.030553
   vertex 1090.589830 1999.866474 -340.315955
   vertex 1140.589830 2086.466474 -1321.315955
  endloop
 endfacet
 facet normal -0.996575 0.069599 -0.044650
  outer loop
   vertex 1090.077182 1992.067529 -341.030553
   vertex 1140.589830 2086.466474 -1321.315955
   vertex 1140.077182 2078.667529 -1322.030553
  endloop
 endfacet
 facet normal -0.979524 0.198708 -0.032383
  outer loop
   vertex 1090.589830 1999.866474 -340.315955
   vertex 1092.119002 2007.527399 -339.561730
   vertex 1142.119002 2094.127399 -1320.561730
  endloop
 endfacet
 facet normal -0.979524 0.198708 -0.032383
  outer loop
   vertex 1090.589830 1999.866474 -340.315955
   vertex 1142.119002 2094.127399 -1320.561730
   vertex 1140.589830 2086.466474 -1321.315955
  endloop
 endfacet
 facet normal -0.945712 0.324416 -0.019563
  outer loop
   vertex 1092.119002 2007.527399 -339.561730
   vertex 1094.638534 2014.919224 -338.780783
   vertex 1144.638534 2101.519224 -1319.780783
  endloop
 endfacet
 facet normal -0.945712 0.324416 -0.019563
  outer loop
   vertex 1092.119002 2007.527399 -339.561730
   vertex 1144.638534 2101.519224 -1319.780783
   vertex 1142.119002 2094.127399 -1320.561730
  endloop
 endfacet
 facet normal -0.895719 0.444574 -0.006408
  outer loop
   vertex 1094.638534 2014.919224 -338.780783
   vertex 1098.105317 2021.915473 -337.986477
   vertex 1148.105317 2108.515473 -1318.986477
  endloop
 endfacet
 facet normal -0.895719 0.444574 -0.006408
  outer loop
   vertex 1094.638534 2014.919224 -338.780783
   vertex 1148.105317 2108.515473 -1318.986477
   vertex 1144.638534 2101.519224 -1319.780783
  endloop
 endfacet
 facet normal -0.830400 0.557125 0.006857
  outer loop
   vertex 1098.105317 2021.915473 -337.986477
   vertex 1102.460032 2028.396437 -337.192403
   vertex 1152.460032 2114.996437 -1318.192403
  endloop
 endfacet
 facet normal -0.830400 0.557125 0.006857
  outer loop
   vertex 1098.105317 2021.915473 -337.986477
   vertex 1152.460032 2114.996437 -1318.192403
   vertex 1148.105317 2108.515473 -1318.986477
  endloop
 endfacet
 facet normal -0.750873 0.660144 0.020005
  outer loop
   vertex 1102.460032 2028.396437 -337.192403
   vertex 1107.628169 2034.251227 -336.412146
   vertex 1157.628169 2120.851227 -1317.412146
  endloop
 endfacet
 facet normal -0.750873 0.660144 0.020005
  outer loop
   vertex 1102.460032 2028.396437 -337.192403
   vertex 1157.628169 2120.851227 -1317.412146
   vertex 1152.460032 2114.996437 -1318.192403
  endloop
 endfacet
 facet normal -0.658498 0.751867 0.032810
  outer loop
   vertex 1107.628169 2034.251227 -336.412146
   vertex 1113.521299 2039.379664 -335.659058
   vertex 1163.521299 2125.979664 -1316.659058
  endloop
 endfacet
 facet normal -0.658498 0.751867 0.032810
  outer loop
   vertex 1107.628169 2034.251227 -336.412146
   vertex 1163.521299 2125.979664 -1316.659058
   vertex 1157.628169 2120.851227 -1317.412146
  endloop
 endfacet
 facet normal -0.554856 0.830726 0.045054
  outer loop
   vertex 1113.521299 2039.379664 -335.659058
   vertex 1120.038591 2043.694000 -334.946025
   vertex 1170.038591 2130.294000 -1315.946025
  endloop
 endfacet
 facet normal -0.554856 0.830726 0.045054
  outer loop
   vertex 1113.521299 2039.379664 -335.659058
   vertex 1170.038591 2130.294000 -1315.946025
   vertex 1163.521299 2125.979664 -1316.659058
  endloop
 endfacet
 facet normal -0.441720 0.895371 0.056527
  outer loop
   vertex 1120.038591 2043.694000 -334.946025
   vertex 1127.068530 2047.120415 -334.285245
   vertex 1177.068530 2133.720415 -1315.285245
  endloop
 endfacet
 facet normal -0.441720 0.895371 0.056527
  outer loop
   vertex 1120.038591 2043.694000 -334.946025
   vertex 1177.068530 2133.720415 -1315.285245
   vertex 1170.038591 2130.294000 -1315.946025
  endloop
 endfacet
 facet normal -0.321026 0.944695 0.067033
  outer loop
   vertex 1127.068530 2047.120415 -334.285245
   vertex 1134.490833 2049.600282 -333.688026
   vertex 1184.490833 2136.200282 -1314.688026
  endloop
 endfacet
 facet normal -0.321026 0.944695 0.067033
  outer loop
   vertex 1127.068530 2047.120415 -334.285245
   vertex 1184.490833 2136.200282 -1314.688026
   vertex 1177.068530 2133.720415 -1315.285245
  endloop
 endfacet
 facet normal -0.194839 0.977856 0.076392
  outer loop
   vertex 1134.490833 2049.600282 -333.688026
   vertex 1142.178503 2051.091171 -333.164587
   vertex 1192.178503 2137.691171 -1314.164587
  endloop
 endfacet
 facet normal -0.194839 0.977856 0.076392
  outer loop
   vertex 1134.490833 2049.600282 -333.688026
   vertex 1192.178503 2137.691171 -1314.164587
   vertex 1184.490833 2136.200282 -1314.688026
  endloop
 endfacet
 facet normal -0.065319 0.994285 0.084444
  outer loop
   vertex 1142.178503 2051.091171 -333.164587
   vertex 1150.000000 2051.567571 -332.723882
   vertex 1200.000000 2138.167571 -1313.723882
  endloop
 endfacet
 facet normal -0.065319 0.994285 0.084444
  outer loop
   vertex 1142.178503 2051.091171 -333.164587
   vertex 1200.000000 2138.167571 -1313.723882
   vertex 1192.178503 2137.691171 -1314.164587
  endloop
 endfacet
endsolid SIC_LOX_dropA_4
