solid LOX_FEED_Y
 facet normal -0.996917 0.000000 -0.078459
  outer loop
   vertex 1425.000000 0.000000 -650.000000
   vertex 1422.845460 0.000000 -622.623969
   vertex 1422.845460 2165.000000 -622.623969
  endloop
 endfacet
 facet normal -0.996917 0.000000 -0.078459
  outer loop
   vertex 1425.000000 0.000000 -650.000000
   vertex 1422.845460 2165.000000 -622.623969
   vertex 1425.000000 2165.000000 -650.000000
  endloop
 endfacet
 facet normal -0.972370 0.000000 -0.233445
  outer loop
   vertex 1422.845460 0.000000 -622.623969
   vertex 1416.434890 0.000000 -595.922026
   vertex 1416.434890 2165.000000 -595.922026
  endloop
 endfacet
 facet normal -0.972370 0.000000 -0.233445
  outer loop
   vertex 1422.845460 0.000000 -622.623969
   vertex 1416.434890 2165.000000 -595.922026
   vertex 1422.845460 2165.000000 -622.623969
  endloop
 endfacet
 facet normal -0.923880 0.000000 -0.382683
  outer loop
   vertex 1416.434890 0.000000 -595.922026
   vertex 1405.926142 0.000000 -570.551663
   vertex 1405.926142 2165.000000 -570.551663
  endloop
 endfacet
 facet normal -0.923880 0.000000 -0.382683
  outer loop
   vertex 1416.434890 0.000000 -595.922026
   vertex 1405.926142 2165.000000 -570.551663
   vertex 1416.434890 2165.000000 -595.922026
  endloop
 endfacet
 facet normal -0.852640 0.000000 -0.522499
  outer loop
   vertex 1405.926142 0.000000 -570.551663
   vertex 1391.577974 0.000000 -547.137581
   vertex 1391.577974 2165.000000 -547.137581
  endloop
 endfacet
 facet normal -0.852640 0.000000 -0.522499
  outer loop
   vertex 1405.926142 0.000000 -570.551663
   vertex 1391.577974 2165.000000 -547.137581
   vertex 1405.926142 2165.000000 -570.551663
  endloop
 endfacet
 facet normal -0.760406 0.000000 -0.649448
  outer loop
   vertex 1391.577974 0.000000 -547.137581
   vertex 1373.743687 0.000000 -526.256313
   vertex 1373.743687 2165.000000 -526.256313
  endloop
 endfacet
 facet normal -0.760406 0.000000 -0.649448
  outer loop
   vertex 1391.577974 0.000000 -547.137581
   vertex 1373.743687 2165.000000 -526.256313
   vertex 1391.577974 2165.000000 -547.137581
  endloop
 endfacet
 facet normal -0.649448 0.000000 -0.760406
  outer loop
   vertex 1373.743687 0.000000 -526.256313
   vertex 1352.862419 0.000000 -508.422026
   vertex 1352.862419 2165.000000 -508.422026
  endloop
 endfacet
 facet normal -0.649448 0.000000 -0.760406
  outer loop
   vertex 1373.743687 0.000000 -526.256313
   vertex 1352.862419 2165.000000 -508.422026
   vertex 1373.743687 2165.000000 -526.256313
  endloop
 endfacet
 facet normal -0.522499 0.000000 -0.852640
  outer loop
   vertex 1352.862419 0.000000 -508.422026
   vertex 1329.448337 0.000000 -494.073858
   vertex 1329.448337 2165.000000 -494.073858
  endloop
 endfacet
 facet normal -0.522499 0.000000 -0.852640
  outer loop
   vertex 1352.862419 0.000000 -508.422026
   vertex 1329.448337 2165.000000 -494.073858
   vertex 1352.862419 2165.000000 -508.422026
  endloop
 endfacet
 facet normal -0.382683 0.000000 -0.923880
  outer loop
   vertex 1329.448337 0.000000 -494.073858
   vertex 1304.077974 0.000000 -483.565110
   vertex 1304.077974 2165.000000 -483.565110
  endloop
 endfacet
 facet normal -0.382683 0.000000 -0.923880
  outer loop
   vertex 1329.448337 0.000000 -494.073858
   vertex 1304.077974 2165.000000 -483.565110
   vertex 1329.448337 2165.000000 -494.073858
  endloop
 endfacet
 facet normal -0.233445 0.000000 -0.972370
  outer loop
   vertex 1304.077974 0.000000 -483.565110
   vertex 1277.376031 0.000000 -477.154540
   vertex 1277.376031 2165.000000 -477.154540
  endloop
 endfacet
 facet normal -0.233445 0.000000 -0.972370
  outer loop
   vertex 1304.077974 0.000000 -483.565110
   vertex 1277.376031 2165.000000 -477.154540
   vertex 1304.077974 2165.000000 -483.565110
  endloop
 endfacet
 facet normal -0.078459 0.000000 -0.996917
  outer loop
   vertex 1277.376031 0.000000 -477.154540
   vertex 1250.000000 0.000000 -475.000000
   vertex 1250.000000 2165.000000 -475.000000
  endloop
 endfacet
 facet normal -0.078459 0.000000 -0.996917
  outer loop
   vertex 1277.376031 0.000000 -477.154540
   vertex 1250.000000 2165.000000 -475.000000
   vertex 1277.376031 2165.000000 -477.154540
  endloop
 endfacet
 facet normal 0.078459 0.000000 -0.996917
  outer loop
   vertex 1250.000000 0.000000 -475.000000
   vertex 1222.623969 0.000000 -477.154540
   vertex 1222.623969 2165.000000 -477.154540
  endloop
 endfacet
 facet normal 0.078459 0.000000 -0.996917
  outer loop
   vertex 1250.000000 0.000000 -475.000000
   vertex 1222.623969 2165.000000 -477.154540
   vertex 1250.000000 2165.000000 -475.000000
  endloop
 endfacet
 facet normal 0.233445 0.000000 -0.972370
  outer loop
   vertex 1222.623969 0.000000 -477.154540
   vertex 1195.922026 0.000000 -483.565110
   vertex 1195.922026 2165.000000 -483.565110
  endloop
 endfacet
 facet normal 0.233445 0.000000 -0.972370
  outer loop
   vertex 1222.623969 0.000000 -477.154540
   vertex 1195.922026 2165.000000 -483.565110
   vertex 1222.623969 2165.000000 -477.154540
  endloop
 endfacet
 facet normal 0.382683 0.000000 -0.923880
  outer loop
   vertex 1195.922026 0.000000 -483.565110
   vertex 1170.551663 0.000000 -494.073858
   vertex 1170.551663 2165.000000 -494.073858
  endloop
 endfacet
 facet normal 0.382683 0.000000 -0.923880
  outer loop
   vertex 1195.922026 0.000000 -483.565110
   vertex 1170.551663 2165.000000 -494.073858
   vertex 1195.922026 2165.000000 -483.565110
  endloop
 endfacet
 facet normal 0.522499 0.000000 -0.852640
  outer loop
   vertex 1170.551663 0.000000 -494.073858
   vertex 1147.137581 0.000000 -508.422026
   vertex 1147.137581 2165.000000 -508.422026
  endloop
 endfacet
 facet normal 0.522499 0.000000 -0.852640
  outer loop
   vertex 1170.551663 0.000000 -494.073858
   vertex 1147.137581 2165.000000 -508.422026
   vertex 1170.551663 2165.000000 -494.073858
  endloop
 endfacet
 facet normal 0.649448 0.000000 -0.760406
  outer loop
   vertex 1147.137581 0.000000 -508.422026
   vertex 1126.256313 0.000000 -526.256313
   vertex 1126.256313 2165.000000 -526.256313
  endloop
 endfacet
 facet normal 0.649448 0.000000 -0.760406
  outer loop
   vertex 1147.137581 0.000000 -508.422026
   vertex 1126.256313 2165.000000 -526.256313
   vertex 1147.137581 2165.000000 -508.422026
  endloop
 endfacet
 facet normal 0.760406 0.000000 -0.649448
  outer loop
   vertex 1126.256313 0.000000 -526.256313
   vertex 1108.422026 0.000000 -547.137581
   vertex 1108.422026 2165.000000 -547.137581
  endloop
 endfacet
 facet normal 0.760406 0.000000 -0.649448
  outer loop
   vertex 1126.256313 0.000000 -526.256313
   vertex 1108.422026 2165.000000 -547.137581
   vertex 1126.256313 2165.000000 -526.256313
  endloop
 endfacet
 facet normal 0.852640 0.000000 -0.522499
  outer loop
   vertex 1108.422026 0.000000 -547.137581
   vertex 1094.073858 0.000000 -570.551663
   vertex 1094.073858 2165.000000 -570.551663
  endloop
 endfacet
 facet normal 0.852640 0.000000 -0.522499
  outer loop
   vertex 1108.422026 0.000000 -547.137581
   vertex 1094.073858 2165.000000 -570.551663
   vertex 1108.422026 2165.000000 -547.137581
  endloop
 endfacet
 facet normal 0.923880 0.000000 -0.382683
  outer loop
   vertex 1094.073858 0.000000 -570.551663
   vertex 1083.565110 0.000000 -595.922026
   vertex 1083.565110 2165.000000 -595.922026
  endloop
 endfacet
 facet normal 0.923880 0.000000 -0.382683
  outer loop
   vertex 1094.073858 0.000000 -570.551663
   vertex 1083.565110 2165.000000 -595.922026
   vertex 1094.073858 2165.000000 -570.551663
  endloop
 endfacet
 facet normal 0.972370 0.000000 -0.233445
  outer loop
   vertex 1083.565110 0.000000 -595.922026
   vertex 1077.154540 0.000000 -622.623969
   vertex 1077.154540 2165.000000 -622.623969
  endloop
 endfacet
 facet normal 0.972370 0.000000 -0.233445
  outer loop
   vertex 1083.565110 0.000000 -595.922026
   vertex 1077.154540 2165.000000 -622.623969
   vertex 1083.565110 2165.000000 -595.922026
  endloop
 endfacet
 facet normal 0.996917 0.000000 -0.078459
  outer loop
   vertex 1077.154540 0.000000 -622.623969
   vertex 1075.000000 0.000000 -650.000000
   vertex 1075.000000 2165.000000 -650.000000
  endloop
 endfacet
 facet normal 0.996917 0.000000 -0.078459
  outer loop
   vertex 1077.154540 0.000000 -622.623969
   vertex 1075.000000 2165.000000 -650.000000
   vertex 1077.154540 2165.000000 -622.623969
  endloop
 endfacet
 facet normal 0.996917 0.000000 0.078459
  outer loop
   vertex 1075.000000 0.000000 -650.000000
   vertex 1077.154540 0.000000 -677.376031
   vertex 1077.154540 2165.000000 -677.376031
  endloop
 endfacet
 facet normal 0.996917 -0.000000 0.078459
  outer loop
   vertex 1075.000000 0.000000 -650.000000
   vertex 1077.154540 2165.000000 -677.376031
   vertex 1075.000000 2165.000000 -650.000000
  endloop
 endfacet
 facet normal 0.972370 0.000000 0.233445
  outer loop
   vertex 1077.154540 0.000000 -677.376031
   vertex 1083.565110 0.000000 -704.077974
   vertex 1083.565110 2165.000000 -704.077974
  endloop
 endfacet
 facet normal 0.972370 -0.000000 0.233445
  outer loop
   vertex 1077.154540 0.000000 -677.376031
   vertex 1083.565110 2165.000000 -704.077974
   vertex 1077.154540 2165.000000 -677.376031
  endloop
 endfacet
 facet normal 0.923880 0.000000 0.382683
  outer loop
   vertex 1083.565110 0.000000 -704.077974
   vertex 1094.073858 0.000000 -729.448337
   vertex 1094.073858 2165.000000 -729.448337
  endloop
 endfacet
 facet normal 0.923880 -0.000000 0.382683
  outer loop
   vertex 1083.565110 0.000000 -704.077974
   vertex 1094.073858 2165.000000 -729.448337
   vertex 1083.565110 2165.000000 -704.077974
  endloop
 endfacet
 facet normal 0.852640 0.000000 0.522499
  outer loop
   vertex 1094.073858 0.000000 -729.448337
   vertex 1108.422026 0.000000 -752.862419
   vertex 1108.422026 2165.000000 -752.862419
  endloop
 endfacet
 facet normal 0.852640 -0.000000 0.522499
  outer loop
   vertex 1094.073858 0.000000 -729.448337
   vertex 1108.422026 2165.000000 -752.862419
   vertex 1094.073858 2165.000000 -729.448337
  endloop
 endfacet
 facet normal 0.760406 0.000000 0.649448
  outer loop
   vertex 1108.422026 0.000000 -752.862419
   vertex 1126.256313 0.000000 -773.743687
   vertex 1126.256313 2165.000000 -773.743687
  endloop
 endfacet
 facet normal 0.760406 -0.000000 0.649448
  outer loop
   vertex 1108.422026 0.000000 -752.862419
   vertex 1126.256313 2165.000000 -773.743687
   vertex 1108.422026 2165.000000 -752.862419
  endloop
 endfacet
 facet normal 0.649448 0.000000 0.760406
  outer loop
   vertex 1126.256313 0.000000 -773.743687
   vertex 1147.137581 0.000000 -791.577974
   vertex 1147.137581 2165.000000 -791.577974
  endloop
 endfacet
 facet normal 0.649448 -0.000000 0.760406
  outer loop
   vertex 1126.256313 0.000000 -773.743687
   vertex 1147.137581 2165.000000 -791.577974
   vertex 1126.256313 2165.000000 -773.743687
  endloop
 endfacet
 facet normal 0.522499 0.000000 0.852640
  outer loop
   vertex 1147.137581 0.000000 -791.577974
   vertex 1170.551663 0.000000 -805.926142
   vertex 1170.551663 2165.000000 -805.926142
  endloop
 endfacet
 facet normal 0.522499 -0.000000 0.852640
  outer loop
   vertex 1147.137581 0.000000 -791.577974
   vertex 1170.551663 2165.000000 -805.926142
   vertex 1147.137581 2165.000000 -791.577974
  endloop
 endfacet
 facet normal 0.382683 0.000000 0.923880
  outer loop
   vertex 1170.551663 0.000000 -805.926142
   vertex 1195.922026 0.000000 -816.434890
   vertex 1195.922026 2165.000000 -816.434890
  endloop
 endfacet
 facet normal 0.382683 -0.000000 0.923880
  outer loop
   vertex 1170.551663 0.000000 -805.926142
   vertex 1195.922026 2165.000000 -816.434890
   vertex 1170.551663 2165.000000 -805.926142
  endloop
 endfacet
 facet normal 0.233445 0.000000 0.972370
  outer loop
   vertex 1195.922026 0.000000 -816.434890
   vertex 1222.623969 0.000000 -822.845460
   vertex 1222.623969 2165.000000 -822.845460
  endloop
 endfacet
 facet normal 0.233445 -0.000000 0.972370
  outer loop
   vertex 1195.922026 0.000000 -816.434890
   vertex 1222.623969 2165.000000 -822.845460
   vertex 1195.922026 2165.000000 -816.434890
  endloop
 endfacet
 facet normal 0.078459 0.000000 0.996917
  outer loop
   vertex 1222.623969 0.000000 -822.845460
   vertex 1250.000000 0.000000 -825.000000
   vertex 1250.000000 2165.000000 -825.000000
  endloop
 endfacet
 facet normal 0.078459 -0.000000 0.996917
  outer loop
   vertex 1222.623969 0.000000 -822.845460
   vertex 1250.000000 2165.000000 -825.000000
   vertex 1222.623969 2165.000000 -822.845460
  endloop
 endfacet
 facet normal -0.078459 0.000000 0.996917
  outer loop
   vertex 1250.000000 0.000000 -825.000000
   vertex 1277.376031 0.000000 -822.845460
   vertex 1277.376031 2165.000000 -822.845460
  endloop
 endfacet
 facet normal -0.078459 0.000000 0.996917
  outer loop
   vertex 1250.000000 0.000000 -825.000000
   vertex 1277.376031 2165.000000 -822.845460
   vertex 1250.000000 2165.000000 -825.000000
  endloop
 endfacet
 facet normal -0.233445 0.000000 0.972370
  outer loop
   vertex 1277.376031 0.000000 -822.845460
   vertex 1304.077974 0.000000 -816.434890
   vertex 1304.077974 2165.000000 -816.434890
  endloop
 endfacet
 facet normal -0.233445 0.000000 0.972370
  outer loop
   vertex 1277.376031 0.000000 -822.845460
   vertex 1304.077974 2165.000000 -816.434890
   vertex 1277.376031 2165.000000 -822.845460
  endloop
 endfacet
 facet normal -0.382683 0.000000 0.923880
  outer loop
   vertex 1304.077974 0.000000 -816.434890
   vertex 1329.448337 0.000000 -805.926142
   vertex 1329.448337 2165.000000 -805.926142
  endloop
 endfacet
 facet normal -0.382683 0.000000 0.923880
  outer loop
   vertex 1304.077974 0.000000 -816.434890
   vertex 1329.448337 2165.000000 -805.926142
   vertex 1304.077974 2165.000000 -816.434890
  endloop
 endfacet
 facet normal -0.522499 0.000000 0.852640
  outer loop
   vertex 1329.448337 0.000000 -805.926142
   vertex 1352.862419 0.000000 -791.577974
   vertex 1352.862419 2165.000000 -791.577974
  endloop
 endfacet
 facet normal -0.522499 0.000000 0.852640
  outer loop
   vertex 1329.448337 0.000000 -805.926142
   vertex 1352.862419 2165.000000 -791.577974
   vertex 1329.448337 2165.000000 -805.926142
  endloop
 endfacet
 facet normal -0.649448 0.000000 0.760406
  outer loop
   vertex 1352.862419 0.000000 -791.577974
   vertex 1373.743687 0.000000 -773.743687
   vertex 1373.743687 2165.000000 -773.743687
  endloop
 endfacet
 facet normal -0.649448 0.000000 0.760406
  outer loop
   vertex 1352.862419 0.000000 -791.577974
   vertex 1373.743687 2165.000000 -773.743687
   vertex 1352.862419 2165.000000 -791.577974
  endloop
 endfacet
 facet normal -0.760406 0.000000 0.649448
  outer loop
   vertex 1373.743687 0.000000 -773.743687
   vertex 1391.577974 0.000000 -752.862419
   vertex 1391.577974 2165.000000 -752.862419
  endloop
 endfacet
 facet normal -0.760406 0.000000 0.649448
  outer loop
   vertex 1373.743687 0.000000 -773.743687
   vertex 1391.577974 2165.000000 -752.862419
   vertex 1373.743687 2165.000000 -773.743687
  endloop
 endfacet
 facet normal -0.852640 0.000000 0.522499
  outer loop
   vertex 1391.577974 0.000000 -752.862419
   vertex 1405.926142 0.000000 -729.448337
   vertex 1405.926142 2165.000000 -729.448337
  endloop
 endfacet
 facet normal -0.852640 0.000000 0.522499
  outer loop
   vertex 1391.577974 0.000000 -752.862419
   vertex 1405.926142 2165.000000 -729.448337
   vertex 1391.577974 2165.000000 -752.862419
  endloop
 endfacet
 facet normal -0.923880 0.000000 0.382683
  outer loop
   vertex 1405.926142 0.000000 -729.448337
   vertex 1416.434890 0.000000 -704.077974
   vertex 1416.434890 2165.000000 -704.077974
  endloop
 endfacet
 facet normal -0.923880 0.000000 0.382683
  outer loop
   vertex 1405.926142 0.000000 -729.448337
   vertex 1416.434890 2165.000000 -704.077974
   vertex 1405.926142 2165.000000 -729.448337
  endloop
 endfacet
 facet normal -0.972370 0.000000 0.233445
  outer loop
   vertex 1416.434890 0.000000 -704.077974
   vertex 1422.845460 0.000000 -677.376031
   vertex 1422.845460 2165.000000 -677.376031
  endloop
 endfacet
 facet normal -0.972370 0.000000 0.233445
  outer loop
   vertex 1416.434890 0.000000 -704.077974
   vertex 1422.845460 2165.000000 -677.376031
   vertex 1416.434890 2165.000000 -704.077974
  endloop
 endfacet
 facet normal -0.996917 0.000000 0.078459
  outer loop
   vertex 1422.845460 0.000000 -677.376031
   vertex 1425.000000 0.000000 -650.000000
   vertex 1425.000000 2165.000000 -650.000000
  endloop
 endfacet
 facet normal -0.996917 0.000000 0.078459
  outer loop
   vertex 1422.845460 0.000000 -677.376031
   vertex 1425.000000 2165.000000 -650.000000
   vertex 1422.845460 2165.000000 -677.376031
  endloop
 endfacet
 facet normal 0.000000 1.000000 0.000000
  outer loop
   vertex 1250.000000 0.000000 -650.000000
   vertex 1422.845460 0.000000 -622.623969
   vertex 1425.000000 0.000000 -650.000000
  endloop
 endfacet
 facet normal 0.000000 -1.000000 0.000000
  outer loop
   vertex 1250.000000 2165.000000 -650.000000
   vertex 1425.000000 2165.000000 -650.000000
   vertex 1422.845460 2165.000000 -622.623969
  endloop
 endfacet
 facet normal 0.000000 1.000000 0.000000
  outer loop
   vertex 1250.000000 0.000000 -650.000000
   vertex 1416.434890 0.000000 -595.922026
   vertex 1422.845460 0.000000 -622.623969
  endloop
 endfacet
 facet normal 0.000000 -1.000000 0.000000
  outer loop
   vertex 1250.000000 2165.000000 -650.000000
   vertex 1422.845460 2165.000000 -622.623969
   vertex 1416.434890 2165.000000 -595.922026
  endloop
 endfacet
 facet normal 0.000000 1.000000 0.000000
  outer loop
   vertex 1250.000000 0.000000 -650.000000
   vertex 1405.926142 0.000000 -570.551663
   vertex 1416.434890 0.000000 -595.922026
  endloop
 endfacet
 facet normal 0.000000 -1.000000 0.000000
  outer loop
   vertex 1250.000000 2165.000000 -650.000000
   vertex 1416.434890 2165.000000 -595.922026
   vertex 1405.926142 2165.000000 -570.551663
  endloop
 endfacet
 facet normal 0.000000 1.000000 0.000000
  outer loop
   vertex 1250.000000 0.000000 -650.000000
   vertex 1391.577974 0.000000 -547.137581
   vertex 1405.926142 0.000000 -570.551663
  endloop
 endfacet
 facet normal 0.000000 -1.000000 0.000000
  outer loop
   vertex 1250.000000 2165.000000 -650.000000
   vertex 1405.926142 2165.000000 -570.551663
   vertex 1391.577974 2165.000000 -547.137581
  endloop
 endfacet
 facet normal 0.000000 1.000000 0.000000
  outer loop
   vertex 1250.000000 0.000000 -650.000000
   vertex 1373.743687 0.000000 -526.256313
   vertex 1391.577974 0.000000 -547.137581
  endloop
 endfacet
 facet normal 0.000000 -1.000000 0.000000
  outer loop
   vertex 1250.000000 2165.000000 -650.000000
   vertex 1391.577974 2165.000000 -547.137581
   vertex 1373.743687 2165.000000 -526.256313
  endloop
 endfacet
 facet normal 0.000000 1.000000 0.000000
  outer loop
   vertex 1250.000000 0.000000 -650.000000
   vertex 1352.862419 0.000000 -508.422026
   vertex 1373.743687 0.000000 -526.256313
  endloop
 endfacet
 facet normal 0.000000 -1.000000 0.000000
  outer loop
   vertex 1250.000000 2165.000000 -650.000000
   vertex 1373.743687 2165.000000 -526.256313
   vertex 1352.862419 2165.000000 -508.422026
  endloop
 endfacet
 facet normal 0.000000 1.000000 0.000000
  outer loop
   vertex 1250.000000 0.000000 -650.000000
   vertex 1329.448337 0.000000 -494.073858
   vertex 1352.862419 0.000000 -508.422026
  endloop
 endfacet
 facet normal 0.000000 -1.000000 0.000000
  outer loop
   vertex 1250.000000 2165.000000 -650.000000
   vertex 1352.862419 2165.000000 -508.422026
   vertex 1329.448337 2165.000000 -494.073858
  endloop
 endfacet
 facet normal 0.000000 1.000000 0.000000
  outer loop
   vertex 1250.000000 0.000000 -650.000000
   vertex 1304.077974 0.000000 -483.565110
   vertex 1329.448337 0.000000 -494.073858
  endloop
 endfacet
 facet normal 0.000000 -1.000000 0.000000
  outer loop
   vertex 1250.000000 2165.000000 -650.000000
   vertex 1329.448337 2165.000000 -494.073858
   vertex 1304.077974 2165.000000 -483.565110
  endloop
 endfacet
 facet normal 0.000000 1.000000 0.000000
  outer loop
   vertex 1250.000000 0.000000 -650.000000
   vertex 1277.376031 0.000000 -477.154540
   vertex 1304.077974 0.000000 -483.565110
  endloop
 endfacet
 facet normal 0.000000 -1.000000 0.000000
  outer loop
   vertex 1250.000000 2165.000000 -650.000000
   vertex 1304.077974 2165.000000 -483.565110
   vertex 1277.376031 2165.000000 -477.154540
  endloop
 endfacet
 facet normal 0.000000 1.000000 0.000000
  outer loop
   vertex 1250.000000 0.000000 -650.000000
   vertex 1250.000000 0.000000 -475.000000
   vertex 1277.376031 0.000000 -477.154540
  endloop
 endfacet
 facet normal 0.000000 -1.000000 0.000000
  outer loop
   vertex 1250.000000 2165.000000 -650.000000
   vertex 1277.376031 2165.000000 -477.154540
   vertex 1250.000000 2165.000000 -475.000000
  endloop
 endfacet
 facet normal 0.000000 1.000000 -0.000000
  outer loop
   vertex 1250.000000 0.000000 -650.000000
   vertex 1222.623969 0.000000 -477.154540
   vertex 1250.000000 0.000000 -475.000000
  endloop
 endfacet
 facet normal 0.000000 -1.000000 0.000000
  outer loop
   vertex 1250.000000 2165.000000 -650.000000
   vertex 1250.000000 2165.000000 -475.000000
   vertex 1222.623969 2165.000000 -477.154540
  endloop
 endfacet
 facet normal 0.000000 1.000000 0.000000
  outer loop
   vertex 1250.000000 0.000000 -650.000000
   vertex 1195.922026 0.000000 -483.565110
   vertex 1222.623969 0.000000 -477.154540
  endloop
 endfacet
 facet normal 0.000000 -1.000000 0.000000
  outer loop
   vertex 1250.000000 2165.000000 -650.000000
   vertex 1222.623969 2165.000000 -477.154540
   vertex 1195.922026 2165.000000 -483.565110
  endloop
 endfacet
 facet normal 0.000000 1.000000 0.000000
  outer loop
   vertex 1250.000000 0.000000 -650.000000
   vertex 1170.551663 0.000000 -494.073858
   vertex 1195.922026 0.000000 -483.565110
  endloop
 endfacet
 facet normal 0.000000 -1.000000 0.000000
  outer loop
   vertex 1250.000000 2165.000000 -650.000000
   vertex 1195.922026 2165.000000 -483.565110
   vertex 1170.551663 2165.000000 -494.073858
  endloop
 endfacet
 facet normal 0.000000 1.000000 0.000000
  outer loop
   vertex 1250.000000 0.000000 -650.000000
   vertex 1147.137581 0.000000 -508.422026
   vertex 1170.551663 0.000000 -494.073858
  endloop
 endfacet
 facet normal 0.000000 -1.000000 0.000000
  outer loop
   vertex 1250.000000 2165.000000 -650.000000
   vertex 1170.551663 2165.000000 -494.073858
   vertex 1147.137581 2165.000000 -508.422026
  endloop
 endfacet
 facet normal 0.000000 1.000000 0.000000
  outer loop
   vertex 1250.000000 0.000000 -650.000000
   vertex 1126.256313 0.000000 -526.256313
   vertex 1147.137581 0.000000 -508.422026
  endloop
 endfacet
 facet normal 0.000000 -1.000000 0.000000
  outer loop
   vertex 1250.000000 2165.000000 -650.000000
   vertex 1147.137581 2165.000000 -508.422026
   vertex 1126.256313 2165.000000 -526.256313
  endloop
 endfacet
 facet normal 0.000000 1.000000 0.000000
  outer loop
   vertex 1250.000000 0.000000 -650.000000
   vertex 1108.422026 0.000000 -547.137581
   vertex 1126.256313 0.000000 -526.256313
  endloop
 endfacet
 facet normal 0.000000 -1.000000 0.000000
  outer loop
   vertex 1250.000000 2165.000000 -650.000000
   vertex 1126.256313 2165.000000 -526.256313
   vertex 1108.422026 2165.000000 -547.137581
  endloop
 endfacet
 facet normal 0.000000 1.000000 0.000000
  outer loop
   vertex 1250.000000 0.000000 -650.000000
   vertex 1094.073858 0.000000 -570.551663
   vertex 1108.422026 0.000000 -547.137581
  endloop
 endfacet
 facet normal 0.000000 -1.000000 0.000000
  outer loop
   vertex 1250.000000 2165.000000 -650.000000
   vertex 1108.422026 2165.000000 -547.137581
   vertex 1094.073858 2165.000000 -570.551663
  endloop
 endfacet
 facet normal 0.000000 1.000000 0.000000
  outer loop
   vertex 1250.000000 0.000000 -650.000000
   vertex 1083.565110 0.000000 -595.922026
   vertex 1094.073858 0.000000 -570.551663
  endloop
 endfacet
 facet normal 0.000000 -1.000000 0.000000
  outer loop
   vertex 1250.000000 2165.000000 -650.000000
   vertex 1094.073858 2165.000000 -570.551663
   vertex 1083.565110 2165.000000 -595.922026
  endloop
 endfacet
 facet normal 0.000000 1.000000 0.000000
  outer loop
   vertex 1250.000000 0.000000 -650.000000
   vertex 1077.154540 0.000000 -622.623969
   vertex 1083.565110 0.000000 -595.922026
  endloop
 endfacet
 facet normal 0.000000 -1.000000 0.000000
  outer loop
   vertex 1250.000000 2165.000000 -650.000000
   vertex 1083.565110 2165.000000 -595.922026
   vertex 1077.154540 2165.000000 -622.623969
  endloop
 endfacet
 facet normal 0.000000 1.000000 0.000000
  outer loop
   vertex 1250.000000 0.000000 -650.000000
   vertex 1075.000000 0.000000 -650.000000
   vertex 1077.154540 0.000000 -622.623969
  endloop
 endfacet
 facet normal 0.000000 -1.000000 0.000000
  outer loop
   vertex 1250.000000 2165.000000 -650.000000
   vertex 1077.154540 2165.000000 -622.623969
   vertex 1075.000000 2165.000000 -650.000000
  endloop
 endfacet
 facet normal 0.000000 1.000000 0.000000
  outer loop
   vertex 1250.000000 0.000000 -650.000000
   vertex 1077.154540 0.000000 -677.376031
   vertex 1075.000000 0.000000 -650.000000
  endloop
 endfacet
 facet normal -0.000000 -1.000000 0.000000
  outer loop
   vertex 1250.000000 2165.000000 -650.000000
   vertex 1075.000000 2165.000000 -650.000000
   vertex 1077.154540 2165.000000 -677.376031
  endloop
 endfacet
 facet normal 0.000000 1.000000 0.000000
  outer loop
   vertex 1250.000000 0.000000 -650.000000
   vertex 1083.565110 0.000000 -704.077974
   vertex 1077.154540 0.000000 -677.376031
  endloop
 endfacet
 facet normal 0.000000 -1.000000 0.000000
  outer loop
   vertex 1250.000000 2165.000000 -650.000000
   vertex 1077.154540 2165.000000 -677.376031
   vertex 1083.565110 2165.000000 -704.077974
  endloop
 endfacet
 facet normal 0.000000 1.000000 0.000000
  outer loop
   vertex 1250.000000 0.000000 -650.000000
   vertex 1094.073858 0.000000 -729.448337
   vertex 1083.565110 0.000000 -704.077974
  endloop
 endfacet
 facet normal 0.000000 -1.000000 0.000000
  outer loop
   vertex 1250.000000 2165.000000 -650.000000
   vertex 1083.565110 2165.000000 -704.077974
   vertex 1094.073858 2165.000000 -729.448337
  endloop
 endfacet
 facet normal 0.000000 1.000000 0.000000
  outer loop
   vertex 1250.000000 0.000000 -650.000000
   vertex 1108.422026 0.000000 -752.862419
   vertex 1094.073858 0.000000 -729.448337
  endloop
 endfacet
 facet normal 0.000000 -1.000000 0.000000
  outer loop
   vertex 1250.000000 2165.000000 -650.000000
   vertex 1094.073858 2165.000000 -729.448337
   vertex 1108.422026 2165.000000 -752.862419
  endloop
 endfacet
 facet normal 0.000000 1.000000 0.000000
  outer loop
   vertex 1250.000000 0.000000 -650.000000
   vertex 1126.256313 0.000000 -773.743687
   vertex 1108.422026 0.000000 -752.862419
  endloop
 endfacet
 facet normal 0.000000 -1.000000 0.000000
  outer loop
   vertex 1250.000000 2165.000000 -650.000000
   vertex 1108.422026 2165.000000 -752.862419
   vertex 1126.256313 2165.000000 -773.743687
  endloop
 endfacet
 facet normal 0.000000 1.000000 0.000000
  outer loop
   vertex 1250.000000 0.000000 -650.000000
   vertex 1147.137581 0.000000 -791.577974
   vertex 1126.256313 0.000000 -773.743687
  endloop
 endfacet
 facet normal 0.000000 -1.000000 0.000000
  outer loop
   vertex 1250.000000 2165.000000 -650.000000
   vertex 1126.256313 2165.000000 -773.743687
   vertex 1147.137581 2165.000000 -791.577974
  endloop
 endfacet
 facet normal 0.000000 1.000000 0.000000
  outer loop
   vertex 1250.000000 0.000000 -650.000000
   vertex 1170.551663 0.000000 -805.926142
   vertex 1147.137581 0.000000 -791.577974
  endloop
 endfacet
 facet normal 0.000000 -1.000000 0.000000
  outer loop
   vertex 1250.000000 2165.000000 -650.000000
   vertex 1147.137581 2165.000000 -791.577974
   vertex 1170.551663 2165.000000 -805.926142
  endloop
 endfacet
 facet normal 0.000000 1.000000 0.000000
  outer loop
   vertex 1250.000000 0.000000 -650.000000
   vertex 1195.922026 0.000000 -816.434890
   vertex 1170.551663 0.000000 -805.926142
  endloop
 endfacet
 facet normal 0.000000 -1.000000 0.000000
  outer loop
   vertex 1250.000000 2165.000000 -650.000000
   vertex 1170.551663 2165.000000 -805.926142
   vertex 1195.922026 2165.000000 -816.434890
  endloop
 endfacet
 facet normal 0.000000 1.000000 0.000000
  outer loop
   vertex 1250.000000 0.000000 -650.000000
   vertex 1222.623969 0.000000 -822.845460
   vertex 1195.922026 0.000000 -816.434890
  endloop
 endfacet
 facet normal 0.000000 -1.000000 0.000000
  outer loop
   vertex 1250.000000 2165.000000 -650.000000
   vertex 1195.922026 2165.000000 -816.434890
   vertex 1222.623969 2165.000000 -822.845460
  endloop
 endfacet
 facet normal 0.000000 1.000000 0.000000
  outer loop
   vertex 1250.000000 0.000000 -650.000000
   vertex 1250.000000 0.000000 -825.000000
   vertex 1222.623969 0.000000 -822.845460
  endloop
 endfacet
 facet normal 0.000000 -1.000000 -0.000000
  outer loop
   vertex 1250.000000 2165.000000 -650.000000
   vertex 1222.623969 2165.000000 -822.845460
   vertex 1250.000000 2165.000000 -825.000000
  endloop
 endfacet
 facet normal 0.000000 1.000000 0.000000
  outer loop
   vertex 1250.000000 0.000000 -650.000000
   vertex 1277.376031 0.000000 -822.845460
   vertex 1250.000000 0.000000 -825.000000
  endloop
 endfacet
 facet normal 0.000000 -1.000000 0.000000
  outer loop
   vertex 1250.000000 2165.000000 -650.000000
   vertex 1250.000000 2165.000000 -825.000000
   vertex 1277.376031 2165.000000 -822.845460
  endloop
 endfacet
 facet normal 0.000000 1.000000 0.000000
  outer loop
   vertex 1250.000000 0.000000 -650.000000
   vertex 1304.077974 0.000000 -816.434890
   vertex 1277.376031 0.000000 -822.845460
  endloop
 endfacet
 facet normal 0.000000 -1.000000 0.000000
  outer loop
   vertex 1250.000000 2165.000000 -650.000000
   vertex 1277.376031 2165.000000 -822.845460
   vertex 1304.077974 2165.000000 -816.434890
  endloop
 endfacet
 facet normal 0.000000 1.000000 0.000000
  outer loop
   vertex 1250.000000 0.000000 -650.000000
   vertex 1329.448337 0.000000 -805.926142
   vertex 1304.077974 0.000000 -816.434890
  endloop
 endfacet
 facet normal 0.000000 -1.000000 0.000000
  outer loop
   vertex 1250.000000 2165.000000 -650.000000
   vertex 1304.077974 2165.000000 -816.434890
   vertex 1329.448337 2165.000000 -805.926142
  endloop
 endfacet
 facet normal 0.000000 1.000000 0.000000
  outer loop
   vertex 1250.000000 0.000000 -650.000000
   vertex 1352.862419 0.000000 -791.577974
   vertex 1329.448337 0.000000 -805.926142
  endloop
 endfacet
 facet normal 0.000000 -1.000000 0.000000
  outer loop
   vertex 1250.000000 2165.000000 -650.000000
   vertex 1329.448337 2165.000000 -805.926142
   vertex 1352.862419 2165.000000 -791.577974
  endloop
 endfacet
 facet normal 0.000000 1.000000 0.000000
  outer loop
   vertex 1250.000000 0.000000 -650.000000
   vertex 1373.743687 0.000000 -773.743687
   vertex 1352.862419 0.000000 -791.577974
  endloop
 endfacet
 facet normal 0.000000 -1.000000 0.000000
  outer loop
   vertex 1250.000000 2165.000000 -650.000000
   vertex 1352.862419 2165.000000 -791.577974
   vertex 1373.743687 2165.000000 -773.743687
  endloop
 endfacet
 facet normal 0.000000 1.000000 0.000000
  outer loop
   vertex 1250.000000 0.000000 -650.000000
   vertex 1391.577974 0.000000 -752.862419
   vertex 1373.743687 0.000000 -773.743687
  endloop
 endfacet
 facet normal 0.000000 -1.000000 0.000000
  outer loop
   vertex 1250.000000 2165.000000 -650.000000
   vertex 1373.743687 2165.000000 -773.743687
   vertex 1391.577974 2165.000000 -752.862419
  endloop
 endfacet
 facet normal 0.000000 1.000000 0.000000
  outer loop
   vertex 1250.000000 0.000000 -650.000000
   vertex 1405.926142 0.000000 -729.448337
   vertex 1391.577974 0.000000 -752.862419
  endloop
 endfacet
 facet normal 0.000000 -1.000000 0.000000
  outer loop
   vertex 1250.000000 2165.000000 -650.000000
   vertex 1391.577974 2165.000000 -752.862419
   vertex 1405.926142 2165.000000 -729.448337
  endloop
 endfacet
 facet normal 0.000000 1.000000 0.000000
  outer loop
   vertex 1250.000000 0.000000 -650.000000
   vertex 1416.434890 0.000000 -704.077974
   vertex 1405.926142 0.000000 -729.448337
  endloop
 endfacet
 facet normal 0.000000 -1.000000 0.000000
  outer loop
   vertex 1250.000000 2165.000000 -650.000000
   vertex 1405.926142 2165.000000 -729.448337
   vertex 1416.434890 2165.000000 -704.077974
  endloop
 endfacet
 facet normal 0.000000 1.000000 0.000000
  outer loop
   vertex 1250.000000 0.000000 -650.000000
   vertex 1422.845460 0.000000 -677.376031
   vertex 1416.434890 0.000000 -704.077974
  endloop
 endfacet
 facet normal 0.000000 -1.000000 0.000000
  outer loop
   vertex 1250.000000 2165.000000 -650.000000
   vertex 1416.434890 2165.000000 -704.077974
   vertex 1422.845460 2165.000000 -677.376031
  endloop
 endfacet
 facet normal -0.000000 1.000000 0.000000
  outer loop
   vertex 1250.000000 0.000000 -650.000000
   vertex 1425.000000 0.000000 -650.000000
   vertex 1422.845460 0.000000 -677.376031
  endloop
 endfacet
 facet normal 0.000000 -1.000000 0.000000
  outer loop
   vertex 1250.000000 2165.000000 -650.000000
   vertex 1422.845460 2165.000000 -677.376031
   vertex 1425.000000 2165.000000 -650.000000
  endloop
 endfacet
endsolid LOX_FEED_Y
