solid SIC_RP1_ELBOW_1
 facet normal 0.065403 0.997859 0.000000
  outer loop
   vertex 2300.000000 120.000000 -520.000000
   vertex 2315.663143 118.973383 -520.000000
   vertex 2315.663143 118.973383 -900.000000
  endloop
 endfacet
 facet normal 0.065403 0.997859 0.000000
  outer loop
   vertex 2300.000000 120.000000 -520.000000
   vertex 2315.663143 118.973383 -900.000000
   vertex 2300.000000 120.000000 -900.000000
  endloop
 endfacet
 facet normal 0.195090 0.980785 0.000000
  outer loop
   vertex 2315.663143 118.973383 -520.000000
   vertex 2331.058285 115.911099 -520.000000
   vertex 2331.058285 115.911099 -900.000000
  endloop
 endfacet
 facet normal 0.195090 0.980785 0.000000
  outer loop
   vertex 2315.663143 118.973383 -520.000000
   vertex 2331.058285 115.911099 -900.000000
   vertex 2315.663143 118.973383 -900.000000
  endloop
 endfacet
 facet normal 0.321439 0.946930 0.000000
  outer loop
   vertex 2331.058285 115.911099 -520.000000
   vertex 2345.922012 110.865544 -520.000000
   vertex 2345.922012 110.865544 -900.000000
  endloop
 endfacet
 facet normal 0.321439 0.946930 0.000000
  outer loop
   vertex 2331.058285 115.911099 -520.000000
   vertex 2345.922012 110.865544 -900.000000
   vertex 2331.058285 115.911099 -900.000000
  endloop
 endfacet
 facet normal 0.442289 0.896873 0.000000
  outer loop
   vertex 2345.922012 110.865544 -520.000000
   vertex 2360.000000 103.923048 -520.000000
   vertex 2360.000000 103.923048 -900.000000
  endloop
 endfacet
 facet normal 0.442289 0.896873 0.000000
  outer loop
   vertex 2345.922012 110.865544 -520.000000
   vertex 2360.000000 103.923048 -900.000000
   vertex 2345.922012 110.865544 -900.000000
  endloop
 endfacet
 facet normal 0.555570 0.831470 0.000000
  outer loop
   vertex 2360.000000 103.923048 -520.000000
   vertex 2373.051371 95.202401 -520.000000
   vertex 2373.051371 95.202401 -900.000000
  endloop
 endfacet
 facet normal 0.555570 0.831470 0.000000
  outer loop
   vertex 2360.000000 103.923048 -520.000000
   vertex 2373.051371 95.202401 -900.000000
   vertex 2360.000000 103.923048 -900.000000
  endloop
 endfacet
 facet normal 0.659346 0.751840 0.000000
  outer loop
   vertex 2373.051371 95.202401 -520.000000
   vertex 2384.852814 84.852814 -520.000000
   vertex 2384.852814 84.852814 -900.000000
  endloop
 endfacet
 facet normal 0.659346 0.751840 0.000000
  outer loop
   vertex 2373.051371 95.202401 -520.000000
   vertex 2384.852814 84.852814 -900.000000
   vertex 2373.051371 95.202401 -900.000000
  endloop
 endfacet
 facet normal 0.751840 0.659346 0.000000
  outer loop
   vertex 2384.852814 84.852814 -520.000000
   vertex 2395.202401 73.051371 -520.000000
   vertex 2395.202401 73.051371 -900.000000
  endloop
 endfacet
 facet normal 0.751840 0.659346 0.000000
  outer loop
   vertex 2384.852814 84.852814 -520.000000
   vertex 2395.202401 73.051371 -900.000000
   vertex 2384.852814 84.852814 -900.000000
  endloop
 endfacet
 facet normal 0.831470 0.555570 0.000000
  outer loop
   vertex 2395.202401 73.051371 -520.000000
   vertex 2403.923048 60.000000 -520.000000
   vertex 2403.923048 60.000000 -900.000000
  endloop
 endfacet
 facet normal 0.831470 0.555570 0.000000
  outer loop
   vertex 2395.202401 73.051371 -520.000000
   vertex 2403.923048 60.000000 -900.000000
   vertex 2395.202401 73.051371 -900.000000
  endloop
 endfacet
 facet normal 0.896873 0.442289 0.000000
  outer loop
   vertex 2403.923048 60.000000 -520.000000
   vertex 2410.865544 45.922012 -520.000000
   vertex 2410.865544 45.922012 -900.000000
  endloop
 endfacet
 facet normal 0.896873 0.442289 0.000000
  outer loop
   vertex 2403.923048 60.000000 -520.000000
   vertex 2410.865544 45.922012 -900.000000
   vertex 2403.923048 60.000000 -900.000000
  endloop
 endfacet
 facet normal 0.946930 0.321439 0.000000
  outer loop
   vertex 2410.865544 45.922012 -520.000000
   vertex 2415.911099 31.058285 -520.000000
   vertex 2415.911099 31.058285 -900.000000
  endloop
 endfacet
 facet normal 0.946930 0.321439 0.000000
  outer loop
   vertex 2410.865544 45.922012 -520.000000
   vertex 2415.911099 31.058285 -900.000000
   vertex 2410.865544 45.922012 -900.000000
  endloop
 endfacet
 facet normal 0.980785 0.195090 0.000000
  outer loop
   vertex 2415.911099 31.058285 -520.000000
   vertex 2418.973383 15.663143 -520.000000
   vertex 2418.973383 15.663143 -900.000000
  endloop
 endfacet
 facet normal 0.980785 0.195090 0.000000
  outer loop
   vertex 2415.911099 31.058285 -520.000000
   vertex 2418.973383 15.663143 -900.000000
   vertex 2415.911099 31.058285 -900.000000
  endloop
 endfacet
 facet normal 0.997859 0.065403 0.000000
  outer loop
   vertex 2418.973383 15.663143 -520.000000
   vertex 2420.000000 0.000000 -520.000000
   vertex 2420.000000 0.000000 -900.000000
  endloop
 endfacet
 facet normal 0.997859 0.065403 0.000000
  outer loop
   vertex 2418.973383 15.663143 -520.000000
   vertex 2420.000000 0.000000 -900.000000
   vertex 2418.973383 15.663143 -900.000000
  endloop
 endfacet
 facet normal 0.997859 -0.065403 0.000000
  outer loop
   vertex 2420.000000 0.000000 -520.000000
   vertex 2418.973383 -15.663143 -520.000000
   vertex 2418.973383 -15.663143 -900.000000
  endloop
 endfacet
 facet normal 0.997859 -0.065403 0.000000
  outer loop
   vertex 2420.000000 0.000000 -520.000000
   vertex 2418.973383 -15.663143 -900.000000
   vertex 2420.000000 0.000000 -900.000000
  endloop
 endfacet
 facet normal 0.980785 -0.195090 0.000000
  outer loop
   vertex 2418.973383 -15.663143 -520.000000
   vertex 2415.911099 -31.058285 -520.000000
   vertex 2415.911099 -31.058285 -900.000000
  endloop
 endfacet
 facet normal 0.980785 -0.195090 0.000000
  outer loop
   vertex 2418.973383 -15.663143 -520.000000
   vertex 2415.911099 -31.058285 -900.000000
   vertex 2418.973383 -15.663143 -900.000000
  endloop
 endfacet
 facet normal 0.946930 -0.321439 0.000000
  outer loop
   vertex 2415.911099 -31.058285 -520.000000
   vertex 2410.865544 -45.922012 -520.000000
   vertex 2410.865544 -45.922012 -900.000000
  endloop
 endfacet
 facet normal 0.946930 -0.321439 0.000000
  outer loop
   vertex 2415.911099 -31.058285 -520.000000
   vertex 2410.865544 -45.922012 -900.000000
   vertex 2415.911099 -31.058285 -900.000000
  endloop
 endfacet
 facet normal 0.896873 -0.442289 0.000000
  outer loop
   vertex 2410.865544 -45.922012 -520.000000
   vertex 2403.923048 -60.000000 -520.000000
   vertex 2403.923048 -60.000000 -900.000000
  endloop
 endfacet
 facet normal 0.896873 -0.442289 0.000000
  outer loop
   vertex 2410.865544 -45.922012 -520.000000
   vertex 2403.923048 -60.000000 -900.000000
   vertex 2410.865544 -45.922012 -900.000000
  endloop
 endfacet
 facet normal 0.831470 -0.555570 0.000000
  outer loop
   vertex 2403.923048 -60.000000 -520.000000
   vertex 2395.202401 -73.051371 -520.000000
   vertex 2395.202401 -73.051371 -900.000000
  endloop
 endfacet
 facet normal 0.831470 -0.555570 0.000000
  outer loop
   vertex 2403.923048 -60.000000 -520.000000
   vertex 2395.202401 -73.051371 -900.000000
   vertex 2403.923048 -60.000000 -900.000000
  endloop
 endfacet
 facet normal 0.751840 -0.659346 0.000000
  outer loop
   vertex 2395.202401 -73.051371 -520.000000
   vertex 2384.852814 -84.852814 -520.000000
   vertex 2384.852814 -84.852814 -900.000000
  endloop
 endfacet
 facet normal 0.751840 -0.659346 0.000000
  outer loop
   vertex 2395.202401 -73.051371 -520.000000
   vertex 2384.852814 -84.852814 -900.000000
   vertex 2395.202401 -73.051371 -900.000000
  endloop
 endfacet
 facet normal 0.659346 -0.751840 0.000000
  outer loop
   vertex 2384.852814 -84.852814 -520.000000
   vertex 2373.051371 -95.202401 -520.000000
   vertex 2373.051371 -95.202401 -900.000000
  endloop
 endfacet
 facet normal 0.659346 -0.751840 0.000000
  outer loop
   vertex 2384.852814 -84.852814 -520.000000
   vertex 2373.051371 -95.202401 -900.000000
   vertex 2384.852814 -84.852814 -900.000000
  endloop
 endfacet
 facet normal 0.555570 -0.831470 0.000000
  outer loop
   vertex 2373.051371 -95.202401 -520.000000
   vertex 2360.000000 -103.923048 -520.000000
   vertex 2360.000000 -103.923048 -900.000000
  endloop
 endfacet
 facet normal 0.555570 -0.831470 0.000000
  outer loop
   vertex 2373.051371 -95.202401 -520.000000
   vertex 2360.000000 -103.923048 -900.000000
   vertex 2373.051371 -95.202401 -900.000000
  endloop
 endfacet
 facet normal 0.442289 -0.896873 0.000000
  outer loop
   vertex 2360.000000 -103.923048 -520.000000
   vertex 2345.922012 -110.865544 -520.000000
   vertex 2345.922012 -110.865544 -900.000000
  endloop
 endfacet
 facet normal 0.442289 -0.896873 0.000000
  outer loop
   vertex 2360.000000 -103.923048 -520.000000
   vertex 2345.922012 -110.865544 -900.000000
   vertex 2360.000000 -103.923048 -900.000000
  endloop
 endfacet
 facet normal 0.321439 -0.946930 0.000000
  outer loop
   vertex 2345.922012 -110.865544 -520.000000
   vertex 2331.058285 -115.911099 -520.000000
   vertex 2331.058285 -115.911099 -900.000000
  endloop
 endfacet
 facet normal 0.321439 -0.946930 0.000000
  outer loop
   vertex 2345.922012 -110.865544 -520.000000
   vertex 2331.058285 -115.911099 -900.000000
   vertex 2345.922012 -110.865544 -900.000000
  endloop
 endfacet
 facet normal 0.195090 -0.980785 0.000000
  outer loop
   vertex 2331.058285 -115.911099 -520.000000
   vertex 2315.663143 -118.973383 -520.000000
   vertex 2315.663143 -118.973383 -900.000000
  endloop
 endfacet
 facet normal 0.195090 -0.980785 0.000000
  outer loop
   vertex 2331.058285 -115.911099 -520.000000
   vertex 2315.663143 -118.973383 -900.000000
   vertex 2331.058285 -115.911099 -900.000000
  endloop
 endfacet
 facet normal 0.065403 -0.997859 0.000000
  outer loop
   vertex 2315.663143 -118.973383 -520.000000
   vertex 2300.000000 -120.000000 -520.000000
   vertex 2300.000000 -120.000000 -900.000000
  endloop
 endfacet
 facet normal 0.065403 -0.997859 0.000000
  outer loop
   vertex 2315.663143 -118.973383 -520.000000
   vertex 2300.000000 -120.000000 -900.000000
   vertex 2315.663143 -118.973383 -900.000000
  endloop
 endfacet
 facet normal -0.065403 -0.997859 0.000000
  outer loop
   vertex 2300.000000 -120.000000 -520.000000
   vertex 2284.336857 -118.973383 -520.000000
   vertex 2284.336857 -118.973383 -900.000000
  endloop
 endfacet
 facet normal -0.065403 -0.997859 -0.000000
  outer loop
   vertex 2300.000000 -120.000000 -520.000000
   vertex 2284.336857 -118.973383 -900.000000
   vertex 2300.000000 -120.000000 -900.000000
  endloop
 endfacet
 facet normal -0.195090 -0.980785 0.000000
  outer loop
   vertex 2284.336857 -118.973383 -520.000000
   vertex 2268.941715 -115.911099 -520.000000
   vertex 2268.941715 -115.911099 -900.000000
  endloop
 endfacet
 facet normal -0.195090 -0.980785 -0.000000
  outer loop
   vertex 2284.336857 -118.973383 -520.000000
   vertex 2268.941715 -115.911099 -900.000000
   vertex 2284.336857 -118.973383 -900.000000
  endloop
 endfacet
 facet normal -0.321439 -0.946930 0.000000
  outer loop
   vertex 2268.941715 -115.911099 -520.000000
   vertex 2254.077988 -110.865544 -520.000000
   vertex 2254.077988 -110.865544 -900.000000
  endloop
 endfacet
 facet normal -0.321439 -0.946930 -0.000000
  outer loop
   vertex 2268.941715 -115.911099 -520.000000
   vertex 2254.077988 -110.865544 -900.000000
   vertex 2268.941715 -115.911099 -900.000000
  endloop
 endfacet
 facet normal -0.442289 -0.896873 0.000000
  outer loop
   vertex 2254.077988 -110.865544 -520.000000
   vertex 2240.000000 -103.923048 -520.000000
   vertex 2240.000000 -103.923048 -900.000000
  endloop
 endfacet
 facet normal -0.442289 -0.896873 -0.000000
  outer loop
   vertex 2254.077988 -110.865544 -520.000000
   vertex 2240.000000 -103.923048 -900.000000
   vertex 2254.077988 -110.865544 -900.000000
  endloop
 endfacet
 facet normal -0.555570 -0.831470 0.000000
  outer loop
   vertex 2240.000000 -103.923048 -520.000000
   vertex 2226.948629 -95.202401 -520.000000
   vertex 2226.948629 -95.202401 -900.000000
  endloop
 endfacet
 facet normal -0.555570 -0.831470 -0.000000
  outer loop
   vertex 2240.000000 -103.923048 -520.000000
   vertex 2226.948629 -95.202401 -900.000000
   vertex 2240.000000 -103.923048 -900.000000
  endloop
 endfacet
 facet normal -0.659346 -0.751840 0.000000
  outer loop
   vertex 2226.948629 -95.202401 -520.000000
   vertex 2215.147186 -84.852814 -520.000000
   vertex 2215.147186 -84.852814 -900.000000
  endloop
 endfacet
 facet normal -0.659346 -0.751840 -0.000000
  outer loop
   vertex 2226.948629 -95.202401 -520.000000
   vertex 2215.147186 -84.852814 -900.000000
   vertex 2226.948629 -95.202401 -900.000000
  endloop
 endfacet
 facet normal -0.751840 -0.659346 0.000000
  outer loop
   vertex 2215.147186 -84.852814 -520.000000
   vertex 2204.797599 -73.051371 -520.000000
   vertex 2204.797599 -73.051371 -900.000000
  endloop
 endfacet
 facet normal -0.751840 -0.659346 -0.000000
  outer loop
   vertex 2215.147186 -84.852814 -520.000000
   vertex 2204.797599 -73.051371 -900.000000
   vertex 2215.147186 -84.852814 -900.000000
  endloop
 endfacet
 facet normal -0.831470 -0.555570 0.000000
  outer loop
   vertex 2204.797599 -73.051371 -520.000000
   vertex 2196.076952 -60.000000 -520.000000
   vertex 2196.076952 -60.000000 -900.000000
  endloop
 endfacet
 facet normal -0.831470 -0.555570 -0.000000
  outer loop
   vertex 2204.797599 -73.051371 -520.000000
   vertex 2196.076952 -60.000000 -900.000000
   vertex 2204.797599 -73.051371 -900.000000
  endloop
 endfacet
 facet normal -0.896873 -0.442289 0.000000
  outer loop
   vertex 2196.076952 -60.000000 -520.000000
   vertex 2189.134456 -45.922012 -520.000000
   vertex 2189.134456 -45.922012 -900.000000
  endloop
 endfacet
 facet normal -0.896873 -0.442289 -0.000000
  outer loop
   vertex 2196.076952 -60.000000 -520.000000
   vertex 2189.134456 -45.922012 -900.000000
   vertex 2196.076952 -60.000000 -900.000000
  endloop
 endfacet
 facet normal -0.946930 -0.321439 0.000000
  outer loop
   vertex 2189.134456 -45.922012 -520.000000
   vertex 2184.088901 -31.058285 -520.000000
   vertex 2184.088901 -31.058285 -900.000000
  endloop
 endfacet
 facet normal -0.946930 -0.321439 -0.000000
  outer loop
   vertex 2189.134456 -45.922012 -520.000000
   vertex 2184.088901 -31.058285 -900.000000
   vertex 2189.134456 -45.922012 -900.000000
  endloop
 endfacet
 facet normal -0.980785 -0.195090 0.000000
  outer loop
   vertex 2184.088901 -31.058285 -520.000000
   vertex 2181.026617 -15.663143 -520.000000
   vertex 2181.026617 -15.663143 -900.000000
  endloop
 endfacet
 facet normal -0.980785 -0.195090 -0.000000
  outer loop
   vertex 2184.088901 -31.058285 -520.000000
   vertex 2181.026617 -15.663143 -900.000000
   vertex 2184.088901 -31.058285 -900.000000
  endloop
 endfacet
 facet normal -0.997859 -0.065403 0.000000
  outer loop
   vertex 2181.026617 -15.663143 -520.000000
   vertex 2180.000000 -0.000000 -520.000000
   vertex 2180.000000 -0.000000 -900.000000
  endloop
 endfacet
 facet normal -0.997859 -0.065403 -0.000000
  outer loop
   vertex 2181.026617 -15.663143 -520.000000
   vertex 2180.000000 -0.000000 -900.000000
   vertex 2181.026617 -15.663143 -900.000000
  endloop
 endfacet
 facet normal -0.997859 0.065403 0.000000
  outer loop
   vertex 2180.000000 -0.000000 -520.000000
   vertex 2181.026617 15.663143 -520.000000
   vertex 2181.026617 15.663143 -900.000000
  endloop
 endfacet
 facet normal -0.997859 0.065403 0.000000
  outer loop
   vertex 2180.000000 -0.000000 -520.000000
   vertex 2181.026617 15.663143 -900.000000
   vertex 2180.000000 -0.000000 -900.000000
  endloop
 endfacet
 facet normal -0.980785 0.195090 0.000000
  outer loop
   vertex 2181.026617 15.663143 -520.000000
   vertex 2184.088901 31.058285 -520.000000
   vertex 2184.088901 31.058285 -900.000000
  endloop
 endfacet
 facet normal -0.980785 0.195090 0.000000
  outer loop
   vertex 2181.026617 15.663143 -520.000000
   vertex 2184.088901 31.058285 -900.000000
   vertex 2181.026617 15.663143 -900.000000
  endloop
 endfacet
 facet normal -0.946930 0.321439 0.000000
  outer loop
   vertex 2184.088901 31.058285 -520.000000
   vertex 2189.134456 45.922012 -520.000000
   vertex 2189.134456 45.922012 -900.000000
  endloop
 endfacet
 facet normal -0.946930 0.321439 0.000000
  outer loop
   vertex 2184.088901 31.058285 -520.000000
   vertex 2189.134456 45.922012 -900.000000
   vertex 2184.088901 31.058285 -900.000000
  endloop
 endfacet
 facet normal -0.896873 0.442289 0.000000
  outer loop
   vertex 2189.134456 45.922012 -520.000000
   vertex 2196.076952 60.000000 -520.000000
   vertex 2196.076952 60.000000 -900.000000
  endloop
 endfacet
 facet normal -0.896873 0.442289 0.000000
  outer loop
   vertex 2189.134456 45.922012 -520.000000
   vertex 2196.076952 60.000000 -900.000000
   vertex 2189.134456 45.922012 -900.000000
  endloop
 endfacet
 facet normal -0.831470 0.555570 0.000000
  outer loop
   vertex 2196.076952 60.000000 -520.000000
   vertex 2204.797599 73.051371 -520.000000
   vertex 2204.797599 73.051371 -900.000000
  endloop
 endfacet
 facet normal -0.831470 0.555570 0.000000
  outer loop
   vertex 2196.076952 60.000000 -520.000000
   vertex 2204.797599 73.051371 -900.000000
   vertex 2196.076952 60.000000 -900.000000
  endloop
 endfacet
 facet normal -0.751840 0.659346 0.000000
  outer loop
   vertex 2204.797599 73.051371 -520.000000
   vertex 2215.147186 84.852814 -520.000000
   vertex 2215.147186 84.852814 -900.000000
  endloop
 endfacet
 facet normal -0.751840 0.659346 0.000000
  outer loop
   vertex 2204.797599 73.051371 -520.000000
   vertex 2215.147186 84.852814 -900.000000
   vertex 2204.797599 73.051371 -900.000000
  endloop
 endfacet
 facet normal -0.659346 0.751840 0.000000
  outer loop
   vertex 2215.147186 84.852814 -520.000000
   vertex 2226.948629 95.202401 -520.000000
   vertex 2226.948629 95.202401 -900.000000
  endloop
 endfacet
 facet normal -0.659346 0.751840 0.000000
  outer loop
   vertex 2215.147186 84.852814 -520.000000
   vertex 2226.948629 95.202401 -900.000000
   vertex 2215.147186 84.852814 -900.000000
  endloop
 endfacet
 facet normal -0.555570 0.831470 0.000000
  outer loop
   vertex 2226.948629 95.202401 -520.000000
   vertex 2240.000000 103.923048 -520.000000
   vertex 2240.000000 103.923048 -900.000000
  endloop
 endfacet
 facet normal -0.555570 0.831470 0.000000
  outer loop
   vertex 2226.948629 95.202401 -520.000000
   vertex 2240.000000 103.923048 -900.000000
   vertex 2226.948629 95.202401 -900.000000
  endloop
 endfacet
 facet normal -0.442289 0.896873 0.000000
  outer loop
   vertex 2240.000000 103.923048 -520.000000
   vertex 2254.077988 110.865544 -520.000000
   vertex 2254.077988 110.865544 -900.000000
  endloop
 endfacet
 facet normal -0.442289 0.896873 0.000000
  outer loop
   vertex 2240.000000 103.923048 -520.000000
   vertex 2254.077988 110.865544 -900.000000
   vertex 2240.000000 103.923048 -900.000000
  endloop
 endfacet
 facet normal -0.321439 0.946930 0.000000
  outer loop
   vertex 2254.077988 110.865544 -520.000000
   vertex 2268.941715 115.911099 -520.000000
   vertex 2268.941715 115.911099 -900.000000
  endloop
 endfacet
 facet normal -0.321439 0.946930 0.000000
  outer loop
   vertex 2254.077988 110.865544 -520.000000
   vertex 2268.941715 115.911099 -900.000000
   vertex 2254.077988 110.865544 -900.000000
  endloop
 endfacet
 facet normal -0.195090 0.980785 0.000000
  outer loop
   vertex 2268.941715 115.911099 -520.000000
   vertex 2284.336857 118.973383 -520.000000
   vertex 2284.336857 118.973383 -900.000000
  endloop
 endfacet
 facet normal -0.195090 0.980785 0.000000
  outer loop
   vertex 2268.941715 115.911099 -520.000000
   vertex 2284.336857 118.973383 -900.000000
   vertex 2268.941715 115.911099 -900.000000
  endloop
 endfacet
 facet normal -0.065403 0.997859 0.000000
  outer loop
   vertex 2284.336857 118.973383 -520.000000
   vertex 2300.000000 120.000000 -520.000000
   vertex 2300.000000 120.000000 -900.000000
  endloop
 endfacet
 facet normal -0.065403 0.997859 0.000000
  outer loop
   vertex 2284.336857 118.973383 -520.000000
   vertex 2300.000000 120.000000 -900.000000
   vertex 2284.336857 118.973383 -900.000000
  endloop
 endfacet
 facet normal -0.065403 -0.997859 0.000000
  outer loop
   vertex 2313.574724 103.110266 -900.000000
   vertex 2313.574724 103.110266 -520.000000
   vertex 2300.000000 104.000000 -520.000000
  endloop
 endfacet
 facet normal -0.065403 -0.997859 0.000000
  outer loop
   vertex 2300.000000 104.000000 -900.000000
   vertex 2313.574724 103.110266 -900.000000
   vertex 2300.000000 104.000000 -520.000000
  endloop
 endfacet
 facet normal -0.195090 -0.980785 0.000000
  outer loop
   vertex 2326.917181 100.456286 -900.000000
   vertex 2326.917181 100.456286 -520.000000
   vertex 2313.574724 103.110266 -520.000000
  endloop
 endfacet
 facet normal -0.195090 -0.980785 0.000000
  outer loop
   vertex 2313.574724 103.110266 -900.000000
   vertex 2326.917181 100.456286 -900.000000
   vertex 2313.574724 103.110266 -520.000000
  endloop
 endfacet
 facet normal -0.321439 -0.946930 0.000000
  outer loop
   vertex 2339.799077 96.083471 -900.000000
   vertex 2339.799077 96.083471 -520.000000
   vertex 2326.917181 100.456286 -520.000000
  endloop
 endfacet
 facet normal -0.321439 -0.946930 0.000000
  outer loop
   vertex 2326.917181 100.456286 -900.000000
   vertex 2339.799077 96.083471 -900.000000
   vertex 2326.917181 100.456286 -520.000000
  endloop
 endfacet
 facet normal -0.442289 -0.896873 0.000000
  outer loop
   vertex 2352.000000 90.066642 -900.000000
   vertex 2352.000000 90.066642 -520.000000
   vertex 2339.799077 96.083471 -520.000000
  endloop
 endfacet
 facet normal -0.442289 -0.896873 0.000000
  outer loop
   vertex 2339.799077 96.083471 -900.000000
   vertex 2352.000000 90.066642 -900.000000
   vertex 2339.799077 96.083471 -520.000000
  endloop
 endfacet
 facet normal -0.555570 -0.831470 0.000000
  outer loop
   vertex 2363.311189 82.508747 -900.000000
   vertex 2363.311189 82.508747 -520.000000
   vertex 2352.000000 90.066642 -520.000000
  endloop
 endfacet
 facet normal -0.555570 -0.831470 0.000000
  outer loop
   vertex 2352.000000 90.066642 -900.000000
   vertex 2363.311189 82.508747 -900.000000
   vertex 2352.000000 90.066642 -520.000000
  endloop
 endfacet
 facet normal -0.659346 -0.751840 0.000000
  outer loop
   vertex 2373.539105 73.539105 -900.000000
   vertex 2373.539105 73.539105 -520.000000
   vertex 2363.311189 82.508747 -520.000000
  endloop
 endfacet
 facet normal -0.659346 -0.751840 0.000000
  outer loop
   vertex 2363.311189 82.508747 -900.000000
   vertex 2373.539105 73.539105 -900.000000
   vertex 2363.311189 82.508747 -520.000000
  endloop
 endfacet
 facet normal -0.751840 -0.659346 0.000000
  outer loop
   vertex 2382.508747 63.311189 -900.000000
   vertex 2382.508747 63.311189 -520.000000
   vertex 2373.539105 73.539105 -520.000000
  endloop
 endfacet
 facet normal -0.751840 -0.659346 0.000000
  outer loop
   vertex 2373.539105 73.539105 -900.000000
   vertex 2382.508747 63.311189 -900.000000
   vertex 2373.539105 73.539105 -520.000000
  endloop
 endfacet
 facet normal -0.831470 -0.555570 0.000000
  outer loop
   vertex 2390.066642 52.000000 -900.000000
   vertex 2390.066642 52.000000 -520.000000
   vertex 2382.508747 63.311189 -520.000000
  endloop
 endfacet
 facet normal -0.831470 -0.555570 0.000000
  outer loop
   vertex 2382.508747 63.311189 -900.000000
   vertex 2390.066642 52.000000 -900.000000
   vertex 2382.508747 63.311189 -520.000000
  endloop
 endfacet
 facet normal -0.896873 -0.442289 0.000000
  outer loop
   vertex 2396.083471 39.799077 -900.000000
   vertex 2396.083471 39.799077 -520.000000
   vertex 2390.066642 52.000000 -520.000000
  endloop
 endfacet
 facet normal -0.896873 -0.442289 0.000000
  outer loop
   vertex 2390.066642 52.000000 -900.000000
   vertex 2396.083471 39.799077 -900.000000
   vertex 2390.066642 52.000000 -520.000000
  endloop
 endfacet
 facet normal -0.946930 -0.321439 0.000000
  outer loop
   vertex 2400.456286 26.917181 -900.000000
   vertex 2400.456286 26.917181 -520.000000
   vertex 2396.083471 39.799077 -520.000000
  endloop
 endfacet
 facet normal -0.946930 -0.321439 0.000000
  outer loop
   vertex 2396.083471 39.799077 -900.000000
   vertex 2400.456286 26.917181 -900.000000
   vertex 2396.083471 39.799077 -520.000000
  endloop
 endfacet
 facet normal -0.980785 -0.195090 0.000000
  outer loop
   vertex 2403.110266 13.574724 -900.000000
   vertex 2403.110266 13.574724 -520.000000
   vertex 2400.456286 26.917181 -520.000000
  endloop
 endfacet
 facet normal -0.980785 -0.195090 0.000000
  outer loop
   vertex 2400.456286 26.917181 -900.000000
   vertex 2403.110266 13.574724 -900.000000
   vertex 2400.456286 26.917181 -520.000000
  endloop
 endfacet
 facet normal -0.997859 -0.065403 0.000000
  outer loop
   vertex 2404.000000 0.000000 -900.000000
   vertex 2404.000000 0.000000 -520.000000
   vertex 2403.110266 13.574724 -520.000000
  endloop
 endfacet
 facet normal -0.997859 -0.065403 0.000000
  outer loop
   vertex 2403.110266 13.574724 -900.000000
   vertex 2404.000000 0.000000 -900.000000
   vertex 2403.110266 13.574724 -520.000000
  endloop
 endfacet
 facet normal -0.997859 0.065403 0.000000
  outer loop
   vertex 2403.110266 -13.574724 -900.000000
   vertex 2403.110266 -13.574724 -520.000000
   vertex 2404.000000 0.000000 -520.000000
  endloop
 endfacet
 facet normal -0.997859 0.065403 0.000000
  outer loop
   vertex 2404.000000 0.000000 -900.000000
   vertex 2403.110266 -13.574724 -900.000000
   vertex 2404.000000 0.000000 -520.000000
  endloop
 endfacet
 facet normal -0.980785 0.195090 0.000000
  outer loop
   vertex 2400.456286 -26.917181 -900.000000
   vertex 2400.456286 -26.917181 -520.000000
   vertex 2403.110266 -13.574724 -520.000000
  endloop
 endfacet
 facet normal -0.980785 0.195090 0.000000
  outer loop
   vertex 2403.110266 -13.574724 -900.000000
   vertex 2400.456286 -26.917181 -900.000000
   vertex 2403.110266 -13.574724 -520.000000
  endloop
 endfacet
 facet normal -0.946930 0.321439 0.000000
  outer loop
   vertex 2396.083471 -39.799077 -900.000000
   vertex 2396.083471 -39.799077 -520.000000
   vertex 2400.456286 -26.917181 -520.000000
  endloop
 endfacet
 facet normal -0.946930 0.321439 0.000000
  outer loop
   vertex 2400.456286 -26.917181 -900.000000
   vertex 2396.083471 -39.799077 -900.000000
   vertex 2400.456286 -26.917181 -520.000000
  endloop
 endfacet
 facet normal -0.896873 0.442289 0.000000
  outer loop
   vertex 2390.066642 -52.000000 -900.000000
   vertex 2390.066642 -52.000000 -520.000000
   vertex 2396.083471 -39.799077 -520.000000
  endloop
 endfacet
 facet normal -0.896873 0.442289 0.000000
  outer loop
   vertex 2396.083471 -39.799077 -900.000000
   vertex 2390.066642 -52.000000 -900.000000
   vertex 2396.083471 -39.799077 -520.000000
  endloop
 endfacet
 facet normal -0.831470 0.555570 0.000000
  outer loop
   vertex 2382.508747 -63.311189 -900.000000
   vertex 2382.508747 -63.311189 -520.000000
   vertex 2390.066642 -52.000000 -520.000000
  endloop
 endfacet
 facet normal -0.831470 0.555570 0.000000
  outer loop
   vertex 2390.066642 -52.000000 -900.000000
   vertex 2382.508747 -63.311189 -900.000000
   vertex 2390.066642 -52.000000 -520.000000
  endloop
 endfacet
 facet normal -0.751840 0.659346 0.000000
  outer loop
   vertex 2373.539105 -73.539105 -900.000000
   vertex 2373.539105 -73.539105 -520.000000
   vertex 2382.508747 -63.311189 -520.000000
  endloop
 endfacet
 facet normal -0.751840 0.659346 0.000000
  outer loop
   vertex 2382.508747 -63.311189 -900.000000
   vertex 2373.539105 -73.539105 -900.000000
   vertex 2382.508747 -63.311189 -520.000000
  endloop
 endfacet
 facet normal -0.659346 0.751840 0.000000
  outer loop
   vertex 2363.311189 -82.508747 -900.000000
   vertex 2363.311189 -82.508747 -520.000000
   vertex 2373.539105 -73.539105 -520.000000
  endloop
 endfacet
 facet normal -0.659346 0.751840 0.000000
  outer loop
   vertex 2373.539105 -73.539105 -900.000000
   vertex 2363.311189 -82.508747 -900.000000
   vertex 2373.539105 -73.539105 -520.000000
  endloop
 endfacet
 facet normal -0.555570 0.831470 0.000000
  outer loop
   vertex 2352.000000 -90.066642 -900.000000
   vertex 2352.000000 -90.066642 -520.000000
   vertex 2363.311189 -82.508747 -520.000000
  endloop
 endfacet
 facet normal -0.555570 0.831470 0.000000
  outer loop
   vertex 2363.311189 -82.508747 -900.000000
   vertex 2352.000000 -90.066642 -900.000000
   vertex 2363.311189 -82.508747 -520.000000
  endloop
 endfacet
 facet normal -0.442289 0.896873 0.000000
  outer loop
   vertex 2339.799077 -96.083471 -900.000000
   vertex 2339.799077 -96.083471 -520.000000
   vertex 2352.000000 -90.066642 -520.000000
  endloop
 endfacet
 facet normal -0.442289 0.896873 0.000000
  outer loop
   vertex 2352.000000 -90.066642 -900.000000
   vertex 2339.799077 -96.083471 -900.000000
   vertex 2352.000000 -90.066642 -520.000000
  endloop
 endfacet
 facet normal -0.321439 0.946930 0.000000
  outer loop
   vertex 2326.917181 -100.456286 -900.000000
   vertex 2326.917181 -100.456286 -520.000000
   vertex 2339.799077 -96.083471 -520.000000
  endloop
 endfacet
 facet normal -0.321439 0.946930 0.000000
  outer loop
   vertex 2339.799077 -96.083471 -900.000000
   vertex 2326.917181 -100.456286 -900.000000
   vertex 2339.799077 -96.083471 -520.000000
  endloop
 endfacet
 facet normal -0.195090 0.980785 0.000000
  outer loop
   vertex 2313.574724 -103.110266 -900.000000
   vertex 2313.574724 -103.110266 -520.000000
   vertex 2326.917181 -100.456286 -520.000000
  endloop
 endfacet
 facet normal -0.195090 0.980785 0.000000
  outer loop
   vertex 2326.917181 -100.456286 -900.000000
   vertex 2313.574724 -103.110266 -900.000000
   vertex 2326.917181 -100.456286 -520.000000
  endloop
 endfacet
 facet normal -0.065403 0.997859 0.000000
  outer loop
   vertex 2300.000000 -104.000000 -900.000000
   vertex 2300.000000 -104.000000 -520.000000
   vertex 2313.574724 -103.110266 -520.000000
  endloop
 endfacet
 facet normal -0.065403 0.997859 0.000000
  outer loop
   vertex 2313.574724 -103.110266 -900.000000
   vertex 2300.000000 -104.000000 -900.000000
   vertex 2313.574724 -103.110266 -520.000000
  endloop
 endfacet
 facet normal 0.065403 0.997859 -0.000000
  outer loop
   vertex 2286.425276 -103.110266 -900.000000
   vertex 2286.425276 -103.110266 -520.000000
   vertex 2300.000000 -104.000000 -520.000000
  endloop
 endfacet
 facet normal 0.065403 0.997859 -0.000000
  outer loop
   vertex 2300.000000 -104.000000 -900.000000
   vertex 2286.425276 -103.110266 -900.000000
   vertex 2300.000000 -104.000000 -520.000000
  endloop
 endfacet
 facet normal 0.195090 0.980785 -0.000000
  outer loop
   vertex 2273.082819 -100.456286 -900.000000
   vertex 2273.082819 -100.456286 -520.000000
   vertex 2286.425276 -103.110266 -520.000000
  endloop
 endfacet
 facet normal 0.195090 0.980785 -0.000000
  outer loop
   vertex 2286.425276 -103.110266 -900.000000
   vertex 2273.082819 -100.456286 -900.000000
   vertex 2286.425276 -103.110266 -520.000000
  endloop
 endfacet
 facet normal 0.321439 0.946930 -0.000000
  outer loop
   vertex 2260.200923 -96.083471 -900.000000
   vertex 2260.200923 -96.083471 -520.000000
   vertex 2273.082819 -100.456286 -520.000000
  endloop
 endfacet
 facet normal 0.321439 0.946930 -0.000000
  outer loop
   vertex 2273.082819 -100.456286 -900.000000
   vertex 2260.200923 -96.083471 -900.000000
   vertex 2273.082819 -100.456286 -520.000000
  endloop
 endfacet
 facet normal 0.442289 0.896873 -0.000000
  outer loop
   vertex 2248.000000 -90.066642 -900.000000
   vertex 2248.000000 -90.066642 -520.000000
   vertex 2260.200923 -96.083471 -520.000000
  endloop
 endfacet
 facet normal 0.442289 0.896873 -0.000000
  outer loop
   vertex 2260.200923 -96.083471 -900.000000
   vertex 2248.000000 -90.066642 -900.000000
   vertex 2260.200923 -96.083471 -520.000000
  endloop
 endfacet
 facet normal 0.555570 0.831470 -0.000000
  outer loop
   vertex 2236.688811 -82.508747 -900.000000
   vertex 2236.688811 -82.508747 -520.000000
   vertex 2248.000000 -90.066642 -520.000000
  endloop
 endfacet
 facet normal 0.555570 0.831470 -0.000000
  outer loop
   vertex 2248.000000 -90.066642 -900.000000
   vertex 2236.688811 -82.508747 -900.000000
   vertex 2248.000000 -90.066642 -520.000000
  endloop
 endfacet
 facet normal 0.659346 0.751840 -0.000000
  outer loop
   vertex 2226.460895 -73.539105 -900.000000
   vertex 2226.460895 -73.539105 -520.000000
   vertex 2236.688811 -82.508747 -520.000000
  endloop
 endfacet
 facet normal 0.659346 0.751840 -0.000000
  outer loop
   vertex 2236.688811 -82.508747 -900.000000
   vertex 2226.460895 -73.539105 -900.000000
   vertex 2236.688811 -82.508747 -520.000000
  endloop
 endfacet
 facet normal 0.751840 0.659346 -0.000000
  outer loop
   vertex 2217.491253 -63.311189 -900.000000
   vertex 2217.491253 -63.311189 -520.000000
   vertex 2226.460895 -73.539105 -520.000000
  endloop
 endfacet
 facet normal 0.751840 0.659346 -0.000000
  outer loop
   vertex 2226.460895 -73.539105 -900.000000
   vertex 2217.491253 -63.311189 -900.000000
   vertex 2226.460895 -73.539105 -520.000000
  endloop
 endfacet
 facet normal 0.831470 0.555570 -0.000000
  outer loop
   vertex 2209.933358 -52.000000 -900.000000
   vertex 2209.933358 -52.000000 -520.000000
   vertex 2217.491253 -63.311189 -520.000000
  endloop
 endfacet
 facet normal 0.831470 0.555570 -0.000000
  outer loop
   vertex 2217.491253 -63.311189 -900.000000
   vertex 2209.933358 -52.000000 -900.000000
   vertex 2217.491253 -63.311189 -520.000000
  endloop
 endfacet
 facet normal 0.896873 0.442289 -0.000000
  outer loop
   vertex 2203.916529 -39.799077 -900.000000
   vertex 2203.916529 -39.799077 -520.000000
   vertex 2209.933358 -52.000000 -520.000000
  endloop
 endfacet
 facet normal 0.896873 0.442289 -0.000000
  outer loop
   vertex 2209.933358 -52.000000 -900.000000
   vertex 2203.916529 -39.799077 -900.000000
   vertex 2209.933358 -52.000000 -520.000000
  endloop
 endfacet
 facet normal 0.946930 0.321439 -0.000000
  outer loop
   vertex 2199.543714 -26.917181 -900.000000
   vertex 2199.543714 -26.917181 -520.000000
   vertex 2203.916529 -39.799077 -520.000000
  endloop
 endfacet
 facet normal 0.946930 0.321439 -0.000000
  outer loop
   vertex 2203.916529 -39.799077 -900.000000
   vertex 2199.543714 -26.917181 -900.000000
   vertex 2203.916529 -39.799077 -520.000000
  endloop
 endfacet
 facet normal 0.980785 0.195090 -0.000000
  outer loop
   vertex 2196.889734 -13.574724 -900.000000
   vertex 2196.889734 -13.574724 -520.000000
   vertex 2199.543714 -26.917181 -520.000000
  endloop
 endfacet
 facet normal 0.980785 0.195090 -0.000000
  outer loop
   vertex 2199.543714 -26.917181 -900.000000
   vertex 2196.889734 -13.574724 -900.000000
   vertex 2199.543714 -26.917181 -520.000000
  endloop
 endfacet
 facet normal 0.997859 0.065403 -0.000000
  outer loop
   vertex 2196.000000 -0.000000 -900.000000
   vertex 2196.000000 -0.000000 -520.000000
   vertex 2196.889734 -13.574724 -520.000000
  endloop
 endfacet
 facet normal 0.997859 0.065403 -0.000000
  outer loop
   vertex 2196.889734 -13.574724 -900.000000
   vertex 2196.000000 -0.000000 -900.000000
   vertex 2196.889734 -13.574724 -520.000000
  endloop
 endfacet
 facet normal 0.997859 -0.065403 0.000000
  outer loop
   vertex 2196.889734 13.574724 -900.000000
   vertex 2196.889734 13.574724 -520.000000
   vertex 2196.000000 -0.000000 -520.000000
  endloop
 endfacet
 facet normal 0.997859 -0.065403 0.000000
  outer loop
   vertex 2196.000000 -0.000000 -900.000000
   vertex 2196.889734 13.574724 -900.000000
   vertex 2196.000000 -0.000000 -520.000000
  endloop
 endfacet
 facet normal 0.980785 -0.195090 0.000000
  outer loop
   vertex 2199.543714 26.917181 -900.000000
   vertex 2199.543714 26.917181 -520.000000
   vertex 2196.889734 13.574724 -520.000000
  endloop
 endfacet
 facet normal 0.980785 -0.195090 0.000000
  outer loop
   vertex 2196.889734 13.574724 -900.000000
   vertex 2199.543714 26.917181 -900.000000
   vertex 2196.889734 13.574724 -520.000000
  endloop
 endfacet
 facet normal 0.946930 -0.321439 0.000000
  outer loop
   vertex 2203.916529 39.799077 -900.000000
   vertex 2203.916529 39.799077 -520.000000
   vertex 2199.543714 26.917181 -520.000000
  endloop
 endfacet
 facet normal 0.946930 -0.321439 0.000000
  outer loop
   vertex 2199.543714 26.917181 -900.000000
   vertex 2203.916529 39.799077 -900.000000
   vertex 2199.543714 26.917181 -520.000000
  endloop
 endfacet
 facet normal 0.896873 -0.442289 0.000000
  outer loop
   vertex 2209.933358 52.000000 -900.000000
   vertex 2209.933358 52.000000 -520.000000
   vertex 2203.916529 39.799077 -520.000000
  endloop
 endfacet
 facet normal 0.896873 -0.442289 0.000000
  outer loop
   vertex 2203.916529 39.799077 -900.000000
   vertex 2209.933358 52.000000 -900.000000
   vertex 2203.916529 39.799077 -520.000000
  endloop
 endfacet
 facet normal 0.831470 -0.555570 0.000000
  outer loop
   vertex 2217.491253 63.311189 -900.000000
   vertex 2217.491253 63.311189 -520.000000
   vertex 2209.933358 52.000000 -520.000000
  endloop
 endfacet
 facet normal 0.831470 -0.555570 0.000000
  outer loop
   vertex 2209.933358 52.000000 -900.000000
   vertex 2217.491253 63.311189 -900.000000
   vertex 2209.933358 52.000000 -520.000000
  endloop
 endfacet
 facet normal 0.751840 -0.659346 0.000000
  outer loop
   vertex 2226.460895 73.539105 -900.000000
   vertex 2226.460895 73.539105 -520.000000
   vertex 2217.491253 63.311189 -520.000000
  endloop
 endfacet
 facet normal 0.751840 -0.659346 0.000000
  outer loop
   vertex 2217.491253 63.311189 -900.000000
   vertex 2226.460895 73.539105 -900.000000
   vertex 2217.491253 63.311189 -520.000000
  endloop
 endfacet
 facet normal 0.659346 -0.751840 0.000000
  outer loop
   vertex 2236.688811 82.508747 -900.000000
   vertex 2236.688811 82.508747 -520.000000
   vertex 2226.460895 73.539105 -520.000000
  endloop
 endfacet
 facet normal 0.659346 -0.751840 0.000000
  outer loop
   vertex 2226.460895 73.539105 -900.000000
   vertex 2236.688811 82.508747 -900.000000
   vertex 2226.460895 73.539105 -520.000000
  endloop
 endfacet
 facet normal 0.555570 -0.831470 0.000000
  outer loop
   vertex 2248.000000 90.066642 -900.000000
   vertex 2248.000000 90.066642 -520.000000
   vertex 2236.688811 82.508747 -520.000000
  endloop
 endfacet
 facet normal 0.555570 -0.831470 0.000000
  outer loop
   vertex 2236.688811 82.508747 -900.000000
   vertex 2248.000000 90.066642 -900.000000
   vertex 2236.688811 82.508747 -520.000000
  endloop
 endfacet
 facet normal 0.442289 -0.896873 0.000000
  outer loop
   vertex 2260.200923 96.083471 -900.000000
   vertex 2260.200923 96.083471 -520.000000
   vertex 2248.000000 90.066642 -520.000000
  endloop
 endfacet
 facet normal 0.442289 -0.896873 0.000000
  outer loop
   vertex 2248.000000 90.066642 -900.000000
   vertex 2260.200923 96.083471 -900.000000
   vertex 2248.000000 90.066642 -520.000000
  endloop
 endfacet
 facet normal 0.321439 -0.946930 0.000000
  outer loop
   vertex 2273.082819 100.456286 -900.000000
   vertex 2273.082819 100.456286 -520.000000
   vertex 2260.200923 96.083471 -520.000000
  endloop
 endfacet
 facet normal 0.321439 -0.946930 0.000000
  outer loop
   vertex 2260.200923 96.083471 -900.000000
   vertex 2273.082819 100.456286 -900.000000
   vertex 2260.200923 96.083471 -520.000000
  endloop
 endfacet
 facet normal 0.195090 -0.980785 0.000000
  outer loop
   vertex 2286.425276 103.110266 -900.000000
   vertex 2286.425276 103.110266 -520.000000
   vertex 2273.082819 100.456286 -520.000000
  endloop
 endfacet
 facet normal 0.195090 -0.980785 0.000000
  outer loop
   vertex 2273.082819 100.456286 -900.000000
   vertex 2286.425276 103.110266 -900.000000
   vertex 2273.082819 100.456286 -520.000000
  endloop
 endfacet
 facet normal 0.065403 -0.997859 0.000000
  outer loop
   vertex 2300.000000 104.000000 -900.000000
   vertex 2300.000000 104.000000 -520.000000
   vertex 2286.425276 103.110266 -520.000000
  endloop
 endfacet
 facet normal 0.065403 -0.997859 0.000000
  outer loop
   vertex 2286.425276 103.110266 -900.000000
   vertex 2300.000000 104.000000 -900.000000
   vertex 2286.425276 103.110266 -520.000000
  endloop
 endfacet
endsolid SIC_RP1_ELBOW_1
