solid SIC_LOX_valve_3
 facet normal 0.065403 -0.997859 0.000000
  outer loop
   vertex -1465.032231 -2597.435824 -650.000000
   vertex -1457.200660 -2596.922516 -650.000000
   vertex -1457.200660 -2596.922516 -500.000000
  endloop
 endfacet
 facet normal 0.065403 -0.997859 0.000000
  outer loop
   vertex -1465.032231 -2597.435824 -650.000000
   vertex -1457.200660 -2596.922516 -500.000000
   vertex -1465.032231 -2597.435824 -500.000000
  endloop
 endfacet
 facet normal 0.195090 -0.980785 0.000000
  outer loop
   vertex -1457.200660 -2596.922516 -650.000000
   vertex -1449.503088 -2595.391374 -650.000000
   vertex -1449.503088 -2595.391374 -500.000000
  endloop
 endfacet
 facet normal 0.195090 -0.980785 0.000000
  outer loop
   vertex -1457.200660 -2596.922516 -650.000000
   vertex -1449.503088 -2595.391374 -500.000000
   vertex -1457.200660 -2596.922516 -500.000000
  endloop
 endfacet
 facet normal 0.321439 -0.946930 0.000000
  outer loop
   vertex -1449.503088 -2595.391374 -650.000000
   vertex -1442.071225 -2592.868596 -650.000000
   vertex -1442.071225 -2592.868596 -500.000000
  endloop
 endfacet
 facet normal 0.321439 -0.946930 0.000000
  outer loop
   vertex -1449.503088 -2595.391374 -650.000000
   vertex -1442.071225 -2592.868596 -500.000000
   vertex -1449.503088 -2595.391374 -500.000000
  endloop
 endfacet
 facet normal 0.442289 -0.896873 0.000000
  outer loop
   vertex -1442.071225 -2592.868596 -650.000000
   vertex -1435.032231 -2589.397348 -650.000000
   vertex -1435.032231 -2589.397348 -500.000000
  endloop
 endfacet
 facet normal 0.442289 -0.896873 0.000000
  outer loop
   vertex -1442.071225 -2592.868596 -650.000000
   vertex -1435.032231 -2589.397348 -500.000000
   vertex -1442.071225 -2592.868596 -500.000000
  endloop
 endfacet
 facet normal 0.555570 -0.831470 0.000000
  outer loop
   vertex -1435.032231 -2589.397348 -650.000000
   vertex -1428.506545 -2585.037025 -650.000000
   vertex -1428.506545 -2585.037025 -500.000000
  endloop
 endfacet
 facet normal 0.555570 -0.831470 0.000000
  outer loop
   vertex -1435.032231 -2589.397348 -650.000000
   vertex -1428.506545 -2585.037025 -500.000000
   vertex -1435.032231 -2589.397348 -500.000000
  endloop
 endfacet
 facet normal 0.659346 -0.751840 0.000000
  outer loop
   vertex -1428.506545 -2585.037025 -650.000000
   vertex -1422.605824 -2579.862231 -650.000000
   vertex -1422.605824 -2579.862231 -500.000000
  endloop
 endfacet
 facet normal 0.659346 -0.751840 0.000000
  outer loop
   vertex -1428.506545 -2585.037025 -650.000000
   vertex -1422.605824 -2579.862231 -500.000000
   vertex -1428.506545 -2585.037025 -500.000000
  endloop
 endfacet
 facet normal 0.751840 -0.659346 0.000000
  outer loop
   vertex -1422.605824 -2579.862231 -650.000000
   vertex -1417.431031 -2573.961510 -650.000000
   vertex -1417.431031 -2573.961510 -500.000000
  endloop
 endfacet
 facet normal 0.751840 -0.659346 0.000000
  outer loop
   vertex -1422.605824 -2579.862231 -650.000000
   vertex -1417.431031 -2573.961510 -500.000000
   vertex -1422.605824 -2579.862231 -500.000000
  endloop
 endfacet
 facet normal 0.831470 -0.555570 0.000000
  outer loop
   vertex -1417.431031 -2573.961510 -650.000000
   vertex -1413.070707 -2567.435824 -650.000000
   vertex -1413.070707 -2567.435824 -500.000000
  endloop
 endfacet
 facet normal 0.831470 -0.555570 0.000000
  outer loop
   vertex -1417.431031 -2573.961510 -650.000000
   vertex -1413.070707 -2567.435824 -500.000000
   vertex -1417.431031 -2573.961510 -500.000000
  endloop
 endfacet
 facet normal 0.896873 -0.442289 0.000000
  outer loop
   vertex -1413.070707 -2567.435824 -650.000000
   vertex -1409.599459 -2560.396830 -650.000000
   vertex -1409.599459 -2560.396830 -500.000000
  endloop
 endfacet
 facet normal 0.896873 -0.442289 0.000000
  outer loop
   vertex -1413.070707 -2567.435824 -650.000000
   vertex -1409.599459 -2560.396830 -500.000000
   vertex -1413.070707 -2567.435824 -500.000000
  endloop
 endfacet
 facet normal 0.946930 -0.321439 0.000000
  outer loop
   vertex -1409.599459 -2560.396830 -650.000000
   vertex -1407.076681 -2552.964967 -650.000000
   vertex -1407.076681 -2552.964967 -500.000000
  endloop
 endfacet
 facet normal 0.946930 -0.321439 0.000000
  outer loop
   vertex -1409.599459 -2560.396830 -650.000000
   vertex -1407.076681 -2552.964967 -500.000000
   vertex -1409.599459 -2560.396830 -500.000000
  endloop
 endfacet
 facet normal 0.980785 -0.195090 0.000000
  outer loop
   vertex -1407.076681 -2552.964967 -650.000000
   vertex -1405.545539 -2545.267396 -650.000000
   vertex -1405.545539 -2545.267396 -500.000000
  endloop
 endfacet
 facet normal 0.980785 -0.195090 0.000000
  outer loop
   vertex -1407.076681 -2552.964967 -650.000000
   vertex -1405.545539 -2545.267396 -500.000000
   vertex -1407.076681 -2552.964967 -500.000000
  endloop
 endfacet
 facet normal 0.997859 -0.065403 0.000000
  outer loop
   vertex -1405.545539 -2545.267396 -650.000000
   vertex -1405.032231 -2537.435824 -650.000000
   vertex -1405.032231 -2537.435824 -500.000000
  endloop
 endfacet
 facet normal 0.997859 -0.065403 0.000000
  outer loop
   vertex -1405.545539 -2545.267396 -650.000000
   vertex -1405.032231 -2537.435824 -500.000000
   vertex -1405.545539 -2545.267396 -500.000000
  endloop
 endfacet
 facet normal 0.997859 0.065403 0.000000
  outer loop
   vertex -1405.032231 -2537.435824 -650.000000
   vertex -1405.545539 -2529.604253 -650.000000
   vertex -1405.545539 -2529.604253 -500.000000
  endloop
 endfacet
 facet normal 0.997859 0.065403 -0.000000
  outer loop
   vertex -1405.032231 -2537.435824 -650.000000
   vertex -1405.545539 -2529.604253 -500.000000
   vertex -1405.032231 -2537.435824 -500.000000
  endloop
 endfacet
 facet normal 0.980785 0.195090 0.000000
  outer loop
   vertex -1405.545539 -2529.604253 -650.000000
   vertex -1407.076681 -2521.906681 -650.000000
   vertex -1407.076681 -2521.906681 -500.000000
  endloop
 endfacet
 facet normal 0.980785 0.195090 -0.000000
  outer loop
   vertex -1405.545539 -2529.604253 -650.000000
   vertex -1407.076681 -2521.906681 -500.000000
   vertex -1405.545539 -2529.604253 -500.000000
  endloop
 endfacet
 facet normal 0.946930 0.321439 0.000000
  outer loop
   vertex -1407.076681 -2521.906681 -650.000000
   vertex -1409.599459 -2514.474818 -650.000000
   vertex -1409.599459 -2514.474818 -500.000000
  endloop
 endfacet
 facet normal 0.946930 0.321439 -0.000000
  outer loop
   vertex -1407.076681 -2521.906681 -650.000000
   vertex -1409.599459 -2514.474818 -500.000000
   vertex -1407.076681 -2521.906681 -500.000000
  endloop
 endfacet
 facet normal 0.896873 0.442289 0.000000
  outer loop
   vertex -1409.599459 -2514.474818 -650.000000
   vertex -1413.070707 -2507.435824 -650.000000
   vertex -1413.070707 -2507.435824 -500.000000
  endloop
 endfacet
 facet normal 0.896873 0.442289 -0.000000
  outer loop
   vertex -1409.599459 -2514.474818 -650.000000
   vertex -1413.070707 -2507.435824 -500.000000
   vertex -1409.599459 -2514.474818 -500.000000
  endloop
 endfacet
 facet normal 0.831470 0.555570 0.000000
  outer loop
   vertex -1413.070707 -2507.435824 -650.000000
   vertex -1417.431031 -2500.910138 -650.000000
   vertex -1417.431031 -2500.910138 -500.000000
  endloop
 endfacet
 facet normal 0.831470 0.555570 -0.000000
  outer loop
   vertex -1413.070707 -2507.435824 -650.000000
   vertex -1417.431031 -2500.910138 -500.000000
   vertex -1413.070707 -2507.435824 -500.000000
  endloop
 endfacet
 facet normal 0.751840 0.659346 0.000000
  outer loop
   vertex -1417.431031 -2500.910138 -650.000000
   vertex -1422.605824 -2495.009417 -650.000000
   vertex -1422.605824 -2495.009417 -500.000000
  endloop
 endfacet
 facet normal 0.751840 0.659346 -0.000000
  outer loop
   vertex -1417.431031 -2500.910138 -650.000000
   vertex -1422.605824 -2495.009417 -500.000000
   vertex -1417.431031 -2500.910138 -500.000000
  endloop
 endfacet
 facet normal 0.659346 0.751840 0.000000
  outer loop
   vertex -1422.605824 -2495.009417 -650.000000
   vertex -1428.506545 -2489.834624 -650.000000
   vertex -1428.506545 -2489.834624 -500.000000
  endloop
 endfacet
 facet normal 0.659346 0.751840 -0.000000
  outer loop
   vertex -1422.605824 -2495.009417 -650.000000
   vertex -1428.506545 -2489.834624 -500.000000
   vertex -1422.605824 -2495.009417 -500.000000
  endloop
 endfacet
 facet normal 0.555570 0.831470 0.000000
  outer loop
   vertex -1428.506545 -2489.834624 -650.000000
   vertex -1435.032231 -2485.474300 -650.000000
   vertex -1435.032231 -2485.474300 -500.000000
  endloop
 endfacet
 facet normal 0.555570 0.831470 -0.000000
  outer loop
   vertex -1428.506545 -2489.834624 -650.000000
   vertex -1435.032231 -2485.474300 -500.000000
   vertex -1428.506545 -2489.834624 -500.000000
  endloop
 endfacet
 facet normal 0.442289 0.896873 0.000000
  outer loop
   vertex -1435.032231 -2485.474300 -650.000000
   vertex -1442.071225 -2482.003052 -650.000000
   vertex -1442.071225 -2482.003052 -500.000000
  endloop
 endfacet
 facet normal 0.442289 0.896873 -0.000000
  outer loop
   vertex -1435.032231 -2485.474300 -650.000000
   vertex -1442.071225 -2482.003052 -500.000000
   vertex -1435.032231 -2485.474300 -500.000000
  endloop
 endfacet
 facet normal 0.321439 0.946930 0.000000
  outer loop
   vertex -1442.071225 -2482.003052 -650.000000
   vertex -1449.503088 -2479.480275 -650.000000
   vertex -1449.503088 -2479.480275 -500.000000
  endloop
 endfacet
 facet normal 0.321439 0.946930 -0.000000
  outer loop
   vertex -1442.071225 -2482.003052 -650.000000
   vertex -1449.503088 -2479.480275 -500.000000
   vertex -1442.071225 -2482.003052 -500.000000
  endloop
 endfacet
 facet normal 0.195090 0.980785 0.000000
  outer loop
   vertex -1449.503088 -2479.480275 -650.000000
   vertex -1457.200660 -2477.949133 -650.000000
   vertex -1457.200660 -2477.949133 -500.000000
  endloop
 endfacet
 facet normal 0.195090 0.980785 -0.000000
  outer loop
   vertex -1449.503088 -2479.480275 -650.000000
   vertex -1457.200660 -2477.949133 -500.000000
   vertex -1449.503088 -2479.480275 -500.000000
  endloop
 endfacet
 facet normal 0.065403 0.997859 0.000000
  outer loop
   vertex -1457.200660 -2477.949133 -650.000000
   vertex -1465.032231 -2477.435824 -650.000000
   vertex -1465.032231 -2477.435824 -500.000000
  endloop
 endfacet
 facet normal 0.065403 0.997859 -0.000000
  outer loop
   vertex -1457.200660 -2477.949133 -650.000000
   vertex -1465.032231 -2477.435824 -500.000000
   vertex -1457.200660 -2477.949133 -500.000000
  endloop
 endfacet
 facet normal -0.065403 0.997859 0.000000
  outer loop
   vertex -1465.032231 -2477.435824 -650.000000
   vertex -1472.863803 -2477.949133 -650.000000
   vertex -1472.863803 -2477.949133 -500.000000
  endloop
 endfacet
 facet normal -0.065403 0.997859 0.000000
  outer loop
   vertex -1465.032231 -2477.435824 -650.000000
   vertex -1472.863803 -2477.949133 -500.000000
   vertex -1465.032231 -2477.435824 -500.000000
  endloop
 endfacet
 facet normal -0.195090 0.980785 0.000000
  outer loop
   vertex -1472.863803 -2477.949133 -650.000000
   vertex -1480.561374 -2479.480275 -650.000000
   vertex -1480.561374 -2479.480275 -500.000000
  endloop
 endfacet
 facet normal -0.195090 0.980785 0.000000
  outer loop
   vertex -1472.863803 -2477.949133 -650.000000
   vertex -1480.561374 -2479.480275 -500.000000
   vertex -1472.863803 -2477.949133 -500.000000
  endloop
 endfacet
 facet normal -0.321439 0.946930 0.000000
  outer loop
   vertex -1480.561374 -2479.480275 -650.000000
   vertex -1487.993237 -2482.003052 -650.000000
   vertex -1487.993237 -2482.003052 -500.000000
  endloop
 endfacet
 facet normal -0.321439 0.946930 0.000000
  outer loop
   vertex -1480.561374 -2479.480275 -650.000000
   vertex -1487.993237 -2482.003052 -500.000000
   vertex -1480.561374 -2479.480275 -500.000000
  endloop
 endfacet
 facet normal -0.442289 0.896873 0.000000
  outer loop
   vertex -1487.993237 -2482.003052 -650.000000
   vertex -1495.032231 -2485.474300 -650.000000
   vertex -1495.032231 -2485.474300 -500.000000
  endloop
 endfacet
 facet normal -0.442289 0.896873 0.000000
  outer loop
   vertex -1487.993237 -2482.003052 -650.000000
   vertex -1495.032231 -2485.474300 -500.000000
   vertex -1487.993237 -2482.003052 -500.000000
  endloop
 endfacet
 facet normal -0.555570 0.831470 0.000000
  outer loop
   vertex -1495.032231 -2485.474300 -650.000000
   vertex -1501.557917 -2489.834624 -650.000000
   vertex -1501.557917 -2489.834624 -500.000000
  endloop
 endfacet
 facet normal -0.555570 0.831470 0.000000
  outer loop
   vertex -1495.032231 -2485.474300 -650.000000
   vertex -1501.557917 -2489.834624 -500.000000
   vertex -1495.032231 -2485.474300 -500.000000
  endloop
 endfacet
 facet normal -0.659346 0.751840 0.000000
  outer loop
   vertex -1501.557917 -2489.834624 -650.000000
   vertex -1507.458638 -2495.009417 -650.000000
   vertex -1507.458638 -2495.009417 -500.000000
  endloop
 endfacet
 facet normal -0.659346 0.751840 0.000000
  outer loop
   vertex -1501.557917 -2489.834624 -650.000000
   vertex -1507.458638 -2495.009417 -500.000000
   vertex -1501.557917 -2489.834624 -500.000000
  endloop
 endfacet
 facet normal -0.751840 0.659346 0.000000
  outer loop
   vertex -1507.458638 -2495.009417 -650.000000
   vertex -1512.633431 -2500.910138 -650.000000
   vertex -1512.633431 -2500.910138 -500.000000
  endloop
 endfacet
 facet normal -0.751840 0.659346 0.000000
  outer loop
   vertex -1507.458638 -2495.009417 -650.000000
   vertex -1512.633431 -2500.910138 -500.000000
   vertex -1507.458638 -2495.009417 -500.000000
  endloop
 endfacet
 facet normal -0.831470 0.555570 0.000000
  outer loop
   vertex -1512.633431 -2500.910138 -650.000000
   vertex -1516.993755 -2507.435824 -650.000000
   vertex -1516.993755 -2507.435824 -500.000000
  endloop
 endfacet
 facet normal -0.831470 0.555570 0.000000
  outer loop
   vertex -1512.633431 -2500.910138 -650.000000
   vertex -1516.993755 -2507.435824 -500.000000
   vertex -1512.633431 -2500.910138 -500.000000
  endloop
 endfacet
 facet normal -0.896873 0.442289 0.000000
  outer loop
   vertex -1516.993755 -2507.435824 -650.000000
   vertex -1520.465003 -2514.474818 -650.000000
   vertex -1520.465003 -2514.474818 -500.000000
  endloop
 endfacet
 facet normal -0.896873 0.442289 0.000000
  outer loop
   vertex -1516.993755 -2507.435824 -650.000000
   vertex -1520.465003 -2514.474818 -500.000000
   vertex -1516.993755 -2507.435824 -500.000000
  endloop
 endfacet
 facet normal -0.946930 0.321439 0.000000
  outer loop
   vertex -1520.465003 -2514.474818 -650.000000
   vertex -1522.987781 -2521.906681 -650.000000
   vertex -1522.987781 -2521.906681 -500.000000
  endloop
 endfacet
 facet normal -0.946930 0.321439 0.000000
  outer loop
   vertex -1520.465003 -2514.474818 -650.000000
   vertex -1522.987781 -2521.906681 -500.000000
   vertex -1520.465003 -2514.474818 -500.000000
  endloop
 endfacet
 facet normal -0.980785 0.195090 0.000000
  outer loop
   vertex -1522.987781 -2521.906681 -650.000000
   vertex -1524.518923 -2529.604253 -650.000000
   vertex -1524.518923 -2529.604253 -500.000000
  endloop
 endfacet
 facet normal -0.980785 0.195090 0.000000
  outer loop
   vertex -1522.987781 -2521.906681 -650.000000
   vertex -1524.518923 -2529.604253 -500.000000
   vertex -1522.987781 -2521.906681 -500.000000
  endloop
 endfacet
 facet normal -0.997859 0.065403 0.000000
  outer loop
   vertex -1524.518923 -2529.604253 -650.000000
   vertex -1525.032231 -2537.435824 -650.000000
   vertex -1525.032231 -2537.435824 -500.000000
  endloop
 endfacet
 facet normal -0.997859 0.065403 0.000000
  outer loop
   vertex -1524.518923 -2529.604253 -650.000000
   vertex -1525.032231 -2537.435824 -500.000000
   vertex -1524.518923 -2529.604253 -500.000000
  endloop
 endfacet
 facet normal -0.997859 -0.065403 0.000000
  outer loop
   vertex -1525.032231 -2537.435824 -650.000000
   vertex -1524.518923 -2545.267396 -650.000000
   vertex -1524.518923 -2545.267396 -500.000000
  endloop
 endfacet
 facet normal -0.997859 -0.065403 0.000000
  outer loop
   vertex -1525.032231 -2537.435824 -650.000000
   vertex -1524.518923 -2545.267396 -500.000000
   vertex -1525.032231 -2537.435824 -500.000000
  endloop
 endfacet
 facet normal -0.980785 -0.195090 0.000000
  outer loop
   vertex -1524.518923 -2545.267396 -650.000000
   vertex -1522.987781 -2552.964967 -650.000000
   vertex -1522.987781 -2552.964967 -500.000000
  endloop
 endfacet
 facet normal -0.980785 -0.195090 0.000000
  outer loop
   vertex -1524.518923 -2545.267396 -650.000000
   vertex -1522.987781 -2552.964967 -500.000000
   vertex -1524.518923 -2545.267396 -500.000000
  endloop
 endfacet
 facet normal -0.946930 -0.321439 0.000000
  outer loop
   vertex -1522.987781 -2552.964967 -650.000000
   vertex -1520.465003 -2560.396830 -650.000000
   vertex -1520.465003 -2560.396830 -500.000000
  endloop
 endfacet
 facet normal -0.946930 -0.321439 0.000000
  outer loop
   vertex -1522.987781 -2552.964967 -650.000000
   vertex -1520.465003 -2560.396830 -500.000000
   vertex -1522.987781 -2552.964967 -500.000000
  endloop
 endfacet
 facet normal -0.896873 -0.442289 0.000000
  outer loop
   vertex -1520.465003 -2560.396830 -650.000000
   vertex -1516.993755 -2567.435824 -650.000000
   vertex -1516.993755 -2567.435824 -500.000000
  endloop
 endfacet
 facet normal -0.896873 -0.442289 0.000000
  outer loop
   vertex -1520.465003 -2560.396830 -650.000000
   vertex -1516.993755 -2567.435824 -500.000000
   vertex -1520.465003 -2560.396830 -500.000000
  endloop
 endfacet
 facet normal -0.831470 -0.555570 0.000000
  outer loop
   vertex -1516.993755 -2567.435824 -650.000000
   vertex -1512.633431 -2573.961510 -650.000000
   vertex -1512.633431 -2573.961510 -500.000000
  endloop
 endfacet
 facet normal -0.831470 -0.555570 0.000000
  outer loop
   vertex -1516.993755 -2567.435824 -650.000000
   vertex -1512.633431 -2573.961510 -500.000000
   vertex -1516.993755 -2567.435824 -500.000000
  endloop
 endfacet
 facet normal -0.751840 -0.659346 0.000000
  outer loop
   vertex -1512.633431 -2573.961510 -650.000000
   vertex -1507.458638 -2579.862231 -650.000000
   vertex -1507.458638 -2579.862231 -500.000000
  endloop
 endfacet
 facet normal -0.751840 -0.659346 0.000000
  outer loop
   vertex -1512.633431 -2573.961510 -650.000000
   vertex -1507.458638 -2579.862231 -500.000000
   vertex -1512.633431 -2573.961510 -500.000000
  endloop
 endfacet
 facet normal -0.659346 -0.751840 0.000000
  outer loop
   vertex -1507.458638 -2579.862231 -650.000000
   vertex -1501.557917 -2585.037025 -650.000000
   vertex -1501.557917 -2585.037025 -500.000000
  endloop
 endfacet
 facet normal -0.659346 -0.751840 0.000000
  outer loop
   vertex -1507.458638 -2579.862231 -650.000000
   vertex -1501.557917 -2585.037025 -500.000000
   vertex -1507.458638 -2579.862231 -500.000000
  endloop
 endfacet
 facet normal -0.555570 -0.831470 0.000000
  outer loop
   vertex -1501.557917 -2585.037025 -650.000000
   vertex -1495.032231 -2589.397348 -650.000000
   vertex -1495.032231 -2589.397348 -500.000000
  endloop
 endfacet
 facet normal -0.555570 -0.831470 0.000000
  outer loop
   vertex -1501.557917 -2585.037025 -650.000000
   vertex -1495.032231 -2589.397348 -500.000000
   vertex -1501.557917 -2585.037025 -500.000000
  endloop
 endfacet
 facet normal -0.442289 -0.896873 0.000000
  outer loop
   vertex -1495.032231 -2589.397348 -650.000000
   vertex -1487.993237 -2592.868596 -650.000000
   vertex -1487.993237 -2592.868596 -500.000000
  endloop
 endfacet
 facet normal -0.442289 -0.896873 0.000000
  outer loop
   vertex -1495.032231 -2589.397348 -650.000000
   vertex -1487.993237 -2592.868596 -500.000000
   vertex -1495.032231 -2589.397348 -500.000000
  endloop
 endfacet
 facet normal -0.321439 -0.946930 0.000000
  outer loop
   vertex -1487.993237 -2592.868596 -650.000000
   vertex -1480.561374 -2595.391374 -650.000000
   vertex -1480.561374 -2595.391374 -500.000000
  endloop
 endfacet
 facet normal -0.321439 -0.946930 0.000000
  outer loop
   vertex -1487.993237 -2592.868596 -650.000000
   vertex -1480.561374 -2595.391374 -500.000000
   vertex -1487.993237 -2592.868596 -500.000000
  endloop
 endfacet
 facet normal -0.195090 -0.980785 0.000000
  outer loop
   vertex -1480.561374 -2595.391374 -650.000000
   vertex -1472.863803 -2596.922516 -650.000000
   vertex -1472.863803 -2596.922516 -500.000000
  endloop
 endfacet
 facet normal -0.195090 -0.980785 0.000000
  outer loop
   vertex -1480.561374 -2595.391374 -650.000000
   vertex -1472.863803 -2596.922516 -500.000000
   vertex -1480.561374 -2595.391374 -500.000000
  endloop
 endfacet
 facet normal -0.065403 -0.997859 0.000000
  outer loop
   vertex -1472.863803 -2596.922516 -650.000000
   vertex -1465.032231 -2597.435824 -650.000000
   vertex -1465.032231 -2597.435824 -500.000000
  endloop
 endfacet
 facet normal -0.065403 -0.997859 0.000000
  outer loop
   vertex -1472.863803 -2596.922516 -650.000000
   vertex -1465.032231 -2597.435824 -500.000000
   vertex -1472.863803 -2596.922516 -500.000000
  endloop
 endfacet
endsolid SIC_LOX_valve_3
