solid SIC_RP1_DROP_0
 facet normal 0.064204 0.997859 -0.012467
  outer loop
   vertex -2300.000000 120.000000 -900.000000
   vertex -2284.624041 118.973383 -902.985623
   vertex -2484.624041 118.973383 -1932.985623
  endloop
 endfacet
 facet normal 0.064204 0.997859 -0.012467
  outer loop
   vertex -2300.000000 120.000000 -900.000000
   vertex -2484.624041 118.973383 -1932.985623
   vertex -2500.000000 120.000000 -1930.000000
  endloop
 endfacet
 facet normal 0.191513 0.980785 -0.037187
  outer loop
   vertex -2284.624041 118.973383 -902.985623
   vertex -2269.511170 115.911099 -905.920161
   vertex -2469.511170 115.911099 -1935.920161
  endloop
 endfacet
 facet normal 0.191513 0.980785 -0.037187
  outer loop
   vertex -2284.624041 118.973383 -902.985623
   vertex -2469.511170 115.911099 -1935.920161
   vertex -2484.624041 118.973383 -1932.985623
  endloop
 endfacet
 facet normal 0.315546 0.946930 -0.061271
  outer loop
   vertex -2269.511170 115.911099 -905.920161
   vertex -2254.919970 110.865544 -908.753404
   vertex -2454.919970 110.865544 -1938.753404
  endloop
 endfacet
 facet normal 0.315546 0.946930 -0.061271
  outer loop
   vertex -2269.511170 115.911099 -905.920161
   vertex -2454.919970 110.865544 -1938.753404
   vertex -2469.511170 115.911099 -1935.920161
  endloop
 endfacet
 facet normal 0.434179 0.896873 -0.084307
  outer loop
   vertex -2254.919970 110.865544 -908.753404
   vertex -2241.100102 103.923048 -911.436873
   vertex -2441.100102 103.923048 -1941.436873
  endloop
 endfacet
 facet normal 0.434179 0.896873 -0.084307
  outer loop
   vertex -2254.919970 110.865544 -908.753404
   vertex -2441.100102 103.923048 -1941.436873
   vertex -2454.919970 110.865544 -1938.753404
  endloop
 endfacet
 facet normal 0.545384 0.831470 -0.105900
  outer loop
   vertex -2241.100102 103.923048 -911.436873
   vertex -2228.288028 95.202401 -913.924655
   vertex -2428.288028 95.202401 -1943.924655
  endloop
 endfacet
 facet normal 0.545384 0.831470 -0.105900
  outer loop
   vertex -2241.100102 103.923048 -911.436873
   vertex -2428.288028 95.202401 -1943.924655
   vertex -2441.100102 103.923048 -1941.436873
  endloop
 endfacet
 facet normal 0.647257 0.751840 -0.125681
  outer loop
   vertex -2228.288028 95.202401 -913.924655
   vertex -2216.702966 84.852814 -916.174181
   vertex -2416.702966 84.852814 -1946.174181
  endloop
 endfacet
 facet normal 0.647257 0.751840 -0.125681
  outer loop
   vertex -2228.288028 95.202401 -913.924655
   vertex -2416.702966 84.852814 -1946.174181
   vertex -2428.288028 95.202401 -1943.924655
  endloop
 endfacet
 facet normal 0.738055 0.659346 -0.143312
  outer loop
   vertex -2216.702966 84.852814 -916.174181
   vertex -2206.543139 73.051371 -918.146963
   vertex -2406.543139 73.051371 -1948.146963
  endloop
 endfacet
 facet normal 0.738055 0.659346 -0.143312
  outer loop
   vertex -2216.702966 84.852814 -916.174181
   vertex -2406.543139 73.051371 -1948.146963
   vertex -2416.702966 84.852814 -1946.174181
  endloop
 endfacet
 facet normal 0.816225 0.555570 -0.158490
  outer loop
   vertex -2206.543139 73.051371 -918.146963
   vertex -2197.982385 60.000000 -919.809246
   vertex -2397.982385 60.000000 -1949.809246
  endloop
 endfacet
 facet normal 0.816225 0.555570 -0.158490
  outer loop
   vertex -2206.543139 73.051371 -918.146963
   vertex -2397.982385 60.000000 -1949.809246
   vertex -2406.543139 73.051371 -1948.146963
  endloop
 endfacet
 facet normal 0.880429 0.442289 -0.170957
  outer loop
   vertex -2197.982385 60.000000 -919.809246
   vertex -2191.167180 45.922012 -921.132586
   vertex -2391.167180 45.922012 -1951.132586
  endloop
 endfacet
 facet normal 0.880429 0.442289 -0.170957
  outer loop
   vertex -2197.982385 60.000000 -919.809246
   vertex -2391.167180 45.922012 -1951.132586
   vertex -2397.982385 60.000000 -1949.809246
  endloop
 endfacet
 facet normal 0.929568 0.321439 -0.180499
  outer loop
   vertex -2191.167180 45.922012 -921.132586
   vertex -2186.214136 31.058285 -922.094343
   vertex -2386.214136 31.058285 -1952.094343
  endloop
 endfacet
 facet normal 0.929568 0.321439 -0.180499
  outer loop
   vertex -2191.167180 45.922012 -921.132586
   vertex -2386.214136 31.058285 -1952.094343
   vertex -2391.167180 45.922012 -1951.132586
  endloop
 endfacet
 facet normal 0.962803 0.195090 -0.186952
  outer loop
   vertex -2186.214136 31.058285 -922.094343
   vertex -2183.207999 15.663143 -922.678059
   vertex -2383.207999 15.663143 -1952.678059
  endloop
 endfacet
 facet normal 0.962803 0.195090 -0.186952
  outer loop
   vertex -2186.214136 31.058285 -922.094343
   vertex -2383.207999 15.663143 -1952.678059
   vertex -2386.214136 31.058285 -1952.094343
  endloop
 endfacet
 facet normal 0.979563 0.065403 -0.190206
  outer loop
   vertex -2183.207999 15.663143 -922.678059
   vertex -2182.200205 0.000000 -922.873747
   vertex -2382.200205 0.000000 -1952.873747
  endloop
 endfacet
 facet normal 0.979563 0.065403 -0.190206
  outer loop
   vertex -2183.207999 15.663143 -922.678059
   vertex -2382.200205 0.000000 -1952.873747
   vertex -2383.207999 15.663143 -1952.678059
  endloop
 endfacet
 facet normal 0.979563 -0.065403 -0.190206
  outer loop
   vertex -2182.200205 0.000000 -922.873747
   vertex -2183.207999 -15.663143 -922.678059
   vertex -2383.207999 -15.663143 -1952.678059
  endloop
 endfacet
 facet normal 0.979563 -0.065403 -0.190206
  outer loop
   vertex -2182.200205 0.000000 -922.873747
   vertex -2383.207999 -15.663143 -1952.678059
   vertex -2382.200205 0.000000 -1952.873747
  endloop
 endfacet
 facet normal 0.962803 -0.195090 -0.186952
  outer loop
   vertex -2183.207999 -15.663143 -922.678059
   vertex -2186.214136 -31.058285 -922.094343
   vertex -2386.214136 -31.058285 -1952.094343
  endloop
 endfacet
 facet normal 0.962803 -0.195090 -0.186952
  outer loop
   vertex -2183.207999 -15.663143 -922.678059
   vertex -2386.214136 -31.058285 -1952.094343
   vertex -2383.207999 -15.663143 -1952.678059
  endloop
 endfacet
 facet normal 0.929568 -0.321439 -0.180499
  outer loop
   vertex -2186.214136 -31.058285 -922.094343
   vertex -2191.167180 -45.922012 -921.132586
   vertex -2391.167180 -45.922012 -1951.132586
  endloop
 endfacet
 facet normal 0.929568 -0.321439 -0.180499
  outer loop
   vertex -2186.214136 -31.058285 -922.094343
   vertex -2391.167180 -45.922012 -1951.132586
   vertex -2386.214136 -31.058285 -1952.094343
  endloop
 endfacet
 facet normal 0.880429 -0.442289 -0.170957
  outer loop
   vertex -2191.167180 -45.922012 -921.132586
   vertex -2197.982385 -60.000000 -919.809246
   vertex -2397.982385 -60.000000 -1949.809246
  endloop
 endfacet
 facet normal 0.880429 -0.442289 -0.170957
  outer loop
   vertex -2191.167180 -45.922012 -921.132586
   vertex -2397.982385 -60.000000 -1949.809246
   vertex -2391.167180 -45.922012 -1951.132586
  endloop
 endfacet
 facet normal 0.816225 -0.555570 -0.158490
  outer loop
   vertex -2197.982385 -60.000000 -919.809246
   vertex -2206.543139 -73.051371 -918.146963
   vertex -2406.543139 -73.051371 -1948.146963
  endloop
 endfacet
 facet normal 0.816225 -0.555570 -0.158490
  outer loop
   vertex -2197.982385 -60.000000 -919.809246
   vertex -2406.543139 -73.051371 -1948.146963
   vertex -2397.982385 -60.000000 -1949.809246
  endloop
 endfacet
 facet normal 0.738055 -0.659346 -0.143312
  outer loop
   vertex -2206.543139 -73.051371 -918.146963
   vertex -2216.702966 -84.852814 -916.174181
   vertex -2416.702966 -84.852814 -1946.174181
  endloop
 endfacet
 facet normal 0.738055 -0.659346 -0.143312
  outer loop
   vertex -2206.543139 -73.051371 -918.146963
   vertex -2416.702966 -84.852814 -1946.174181
   vertex -2406.543139 -73.051371 -1948.146963
  endloop
 endfacet
 facet normal 0.647257 -0.751840 -0.125681
  outer loop
   vertex -2216.702966 -84.852814 -916.174181
   vertex -2228.288028 -95.202401 -913.924655
   vertex -2428.288028 -95.202401 -1943.924655
  endloop
 endfacet
 facet normal 0.647257 -0.751840 -0.125681
  outer loop
   vertex -2216.702966 -84.852814 -916.174181
   vertex -2428.288028 -95.202401 -1943.924655
   vertex -2416.702966 -84.852814 -1946.174181
  endloop
 endfacet
 facet normal 0.545384 -0.831470 -0.105900
  outer loop
   vertex -2228.288028 -95.202401 -913.924655
   vertex -2241.100102 -103.923048 -911.436873
   vertex -2441.100102 -103.923048 -1941.436873
  endloop
 endfacet
 facet normal 0.545384 -0.831470 -0.105900
  outer loop
   vertex -2228.288028 -95.202401 -913.924655
   vertex -2441.100102 -103.923048 -1941.436873
   vertex -2428.288028 -95.202401 -1943.924655
  endloop
 endfacet
 facet normal 0.434179 -0.896873 -0.084307
  outer loop
   vertex -2241.100102 -103.923048 -911.436873
   vertex -2254.919970 -110.865544 -908.753404
   vertex -2454.919970 -110.865544 -1938.753404
  endloop
 endfacet
 facet normal 0.434179 -0.896873 -0.084307
  outer loop
   vertex -2241.100102 -103.923048 -911.436873
   vertex -2454.919970 -110.865544 -1938.753404
   vertex -2441.100102 -103.923048 -1941.436873
  endloop
 endfacet
 facet normal 0.315546 -0.946930 -0.061271
  outer loop
   vertex -2254.919970 -110.865544 -908.753404
   vertex -2269.511170 -115.911099 -905.920161
   vertex -2469.511170 -115.911099 -1935.920161
  endloop
 endfacet
 facet normal 0.315546 -0.946930 -0.061271
  outer loop
   vertex -2254.919970 -110.865544 -908.753404
   vertex -2469.511170 -115.911099 -1935.920161
   vertex -2454.919970 -110.865544 -1938.753404
  endloop
 endfacet
 facet normal 0.191513 -0.980785 -0.037187
  outer loop
   vertex -2269.511170 -115.911099 -905.920161
   vertex -2284.624041 -118.973383 -902.985623
   vertex -2484.624041 -118.973383 -1932.985623
  endloop
 endfacet
 facet normal 0.191513 -0.980785 -0.037187
  outer loop
   vertex -2269.511170 -115.911099 -905.920161
   vertex -2484.624041 -118.973383 -1932.985623
   vertex -2469.511170 -115.911099 -1935.920161
  endloop
 endfacet
 facet normal 0.064204 -0.997859 -0.012467
  outer loop
   vertex -2284.624041 -118.973383 -902.985623
   vertex -2300.000000 -120.000000 -900.000000
   vertex -2500.000000 -120.000000 -1930.000000
  endloop
 endfacet
 facet normal 0.064204 -0.997859 -0.012467
  outer loop
   vertex -2284.624041 -118.973383 -902.985623
   vertex -2500.000000 -120.000000 -1930.000000
   vertex -2484.624041 -118.973383 -1932.985623
  endloop
 endfacet
 facet normal -0.064204 -0.997859 0.012467
  outer loop
   vertex -2300.000000 -120.000000 -900.000000
   vertex -2315.375959 -118.973383 -897.014377
   vertex -2515.375959 -118.973383 -1927.014377
  endloop
 endfacet
 facet normal -0.064204 -0.997859 0.012467
  outer loop
   vertex -2300.000000 -120.000000 -900.000000
   vertex -2515.375959 -118.973383 -1927.014377
   vertex -2500.000000 -120.000000 -1930.000000
  endloop
 endfacet
 facet normal -0.191513 -0.980785 0.037187
  outer loop
   vertex -2315.375959 -118.973383 -897.014377
   vertex -2330.488830 -115.911099 -894.079839
   vertex -2530.488830 -115.911099 -1924.079839
  endloop
 endfacet
 facet normal -0.191513 -0.980785 0.037187
  outer loop
   vertex -2315.375959 -118.973383 -897.014377
   vertex -2530.488830 -115.911099 -1924.079839
   vertex -2515.375959 -118.973383 -1927.014377
  endloop
 endfacet
 facet normal -0.315546 -0.946930 0.061271
  outer loop
   vertex -2330.488830 -115.911099 -894.079839
   vertex -2345.080030 -110.865544 -891.246596
   vertex -2545.080030 -110.865544 -1921.246596
  endloop
 endfacet
 facet normal -0.315546 -0.946930 0.061271
  outer loop
   vertex -2330.488830 -115.911099 -894.079839
   vertex -2545.080030 -110.865544 -1921.246596
   vertex -2530.488830 -115.911099 -1924.079839
  endloop
 endfacet
 facet normal -0.434179 -0.896873 0.084307
  outer loop
   vertex -2345.080030 -110.865544 -891.246596
   vertex -2358.899898 -103.923048 -888.563127
   vertex -2558.899898 -103.923048 -1918.563127
  endloop
 endfacet
 facet normal -0.434179 -0.896873 0.084307
  outer loop
   vertex -2345.080030 -110.865544 -891.246596
   vertex -2558.899898 -103.923048 -1918.563127
   vertex -2545.080030 -110.865544 -1921.246596
  endloop
 endfacet
 facet normal -0.545384 -0.831470 0.105900
  outer loop
   vertex -2358.899898 -103.923048 -888.563127
   vertex -2371.711972 -95.202401 -886.075345
   vertex -2571.711972 -95.202401 -1916.075345
  endloop
 endfacet
 facet normal -0.545384 -0.831470 0.105900
  outer loop
   vertex -2358.899898 -103.923048 -888.563127
   vertex -2571.711972 -95.202401 -1916.075345
   vertex -2558.899898 -103.923048 -1918.563127
  endloop
 endfacet
 facet normal -0.647257 -0.751840 0.125681
  outer loop
   vertex -2371.711972 -95.202401 -886.075345
   vertex -2383.297034 -84.852814 -883.825819
   vertex -2583.297034 -84.852814 -1913.825819
  endloop
 endfacet
 facet normal -0.647257 -0.751840 0.125681
  outer loop
   vertex -2371.711972 -95.202401 -886.075345
   vertex -2583.297034 -84.852814 -1913.825819
   vertex -2571.711972 -95.202401 -1916.075345
  endloop
 endfacet
 facet normal -0.738055 -0.659346 0.143312
  outer loop
   vertex -2383.297034 -84.852814 -883.825819
   vertex -2393.456861 -73.051371 -881.853037
   vertex -2593.456861 -73.051371 -1911.853037
  endloop
 endfacet
 facet normal -0.738055 -0.659346 0.143312
  outer loop
   vertex -2383.297034 -84.852814 -883.825819
   vertex -2593.456861 -73.051371 -1911.853037
   vertex -2583.297034 -84.852814 -1913.825819
  endloop
 endfacet
 facet normal -0.816225 -0.555570 0.158490
  outer loop
   vertex -2393.456861 -73.051371 -881.853037
   vertex -2402.017615 -60.000000 -880.190754
   vertex -2602.017615 -60.000000 -1910.190754
  endloop
 endfacet
 facet normal -0.816225 -0.555570 0.158490
  outer loop
   vertex -2393.456861 -73.051371 -881.853037
   vertex -2602.017615 -60.000000 -1910.190754
   vertex -2593.456861 -73.051371 -1911.853037
  endloop
 endfacet
 facet normal -0.880429 -0.442289 0.170957
  outer loop
   vertex -2402.017615 -60.000000 -880.190754
   vertex -2408.832820 -45.922012 -878.867414
   vertex -2608.832820 -45.922012 -1908.867414
  endloop
 endfacet
 facet normal -0.880429 -0.442289 0.170957
  outer loop
   vertex -2402.017615 -60.000000 -880.190754
   vertex -2608.832820 -45.922012 -1908.867414
   vertex -2602.017615 -60.000000 -1910.190754
  endloop
 endfacet
 facet normal -0.929568 -0.321439 0.180499
  outer loop
   vertex -2408.832820 -45.922012 -878.867414
   vertex -2413.785864 -31.058285 -877.905657
   vertex -2613.785864 -31.058285 -1907.905657
  endloop
 endfacet
 facet normal -0.929568 -0.321439 0.180499
  outer loop
   vertex -2408.832820 -45.922012 -878.867414
   vertex -2613.785864 -31.058285 -1907.905657
   vertex -2608.832820 -45.922012 -1908.867414
  endloop
 endfacet
 facet normal -0.962803 -0.195090 0.186952
  outer loop
   vertex -2413.785864 -31.058285 -877.905657
   vertex -2416.792001 -15.663143 -877.321941
   vertex -2616.792001 -15.663143 -1907.321941
  endloop
 endfacet
 facet normal -0.962803 -0.195090 0.186952
  outer loop
   vertex -2413.785864 -31.058285 -877.905657
   vertex -2616.792001 -15.663143 -1907.321941
   vertex -2613.785864 -31.058285 -1907.905657
  endloop
 endfacet
 facet normal -0.979563 -0.065403 0.190206
  outer loop
   vertex -2416.792001 -15.663143 -877.321941
   vertex -2417.799795 -0.000000 -877.126253
   vertex -2617.799795 -0.000000 -1907.126253
  endloop
 endfacet
 facet normal -0.979563 -0.065403 0.190206
  outer loop
   vertex -2416.792001 -15.663143 -877.321941
   vertex -2617.799795 -0.000000 -1907.126253
   vertex -2616.792001 -15.663143 -1907.321941
  endloop
 endfacet
 facet normal -0.979563 0.065403 0.190206
  outer loop
   vertex -2417.799795 -0.000000 -877.126253
   vertex -2416.792001 15.663143 -877.321941
   vertex -2616.792001 15.663143 -1907.321941
  endloop
 endfacet
 facet normal -0.979563 0.065403 0.190206
  outer loop
   vertex -2417.799795 -0.000000 -877.126253
   vertex -2616.792001 15.663143 -1907.321941
   vertex -2617.799795 -0.000000 -1907.126253
  endloop
 endfacet
 facet normal -0.962803 0.195090 0.186952
  outer loop
   vertex -2416.792001 15.663143 -877.321941
   vertex -2413.785864 31.058285 -877.905657
   vertex -2613.785864 31.058285 -1907.905657
  endloop
 endfacet
 facet normal -0.962803 0.195090 0.186952
  outer loop
   vertex -2416.792001 15.663143 -877.321941
   vertex -2613.785864 31.058285 -1907.905657
   vertex -2616.792001 15.663143 -1907.321941
  endloop
 endfacet
 facet normal -0.929568 0.321439 0.180499
  outer loop
   vertex -2413.785864 31.058285 -877.905657
   vertex -2408.832820 45.922012 -878.867414
   vertex -2608.832820 45.922012 -1908.867414
  endloop
 endfacet
 facet normal -0.929568 0.321439 0.180499
  outer loop
   vertex -2413.785864 31.058285 -877.905657
   vertex -2608.832820 45.922012 -1908.867414
   vertex -2613.785864 31.058285 -1907.905657
  endloop
 endfacet
 facet normal -0.880429 0.442289 0.170957
  outer loop
   vertex -2408.832820 45.922012 -878.867414
   vertex -2402.017615 60.000000 -880.190754
   vertex -2602.017615 60.000000 -1910.190754
  endloop
 endfacet
 facet normal -0.880429 0.442289 0.170957
  outer loop
   vertex -2408.832820 45.922012 -878.867414
   vertex -2602.017615 60.000000 -1910.190754
   vertex -2608.832820 45.922012 -1908.867414
  endloop
 endfacet
 facet normal -0.816225 0.555570 0.158490
  outer loop
   vertex -2402.017615 60.000000 -880.190754
   vertex -2393.456861 73.051371 -881.853037
   vertex -2593.456861 73.051371 -1911.853037
  endloop
 endfacet
 facet normal -0.816225 0.555570 0.158490
  outer loop
   vertex -2402.017615 60.000000 -880.190754
   vertex -2593.456861 73.051371 -1911.853037
   vertex -2602.017615 60.000000 -1910.190754
  endloop
 endfacet
 facet normal -0.738055 0.659346 0.143312
  outer loop
   vertex -2393.456861 73.051371 -881.853037
   vertex -2383.297034 84.852814 -883.825819
   vertex -2583.297034 84.852814 -1913.825819
  endloop
 endfacet
 facet normal -0.738055 0.659346 0.143312
  outer loop
   vertex -2393.456861 73.051371 -881.853037
   vertex -2583.297034 84.852814 -1913.825819
   vertex -2593.456861 73.051371 -1911.853037
  endloop
 endfacet
 facet normal -0.647257 0.751840 0.125681
  outer loop
   vertex -2383.297034 84.852814 -883.825819
   vertex -2371.711972 95.202401 -886.075345
   vertex -2571.711972 95.202401 -1916.075345
  endloop
 endfacet
 facet normal -0.647257 0.751840 0.125681
  outer loop
   vertex -2383.297034 84.852814 -883.825819
   vertex -2571.711972 95.202401 -1916.075345
   vertex -2583.297034 84.852814 -1913.825819
  endloop
 endfacet
 facet normal -0.545384 0.831470 0.105900
  outer loop
   vertex -2371.711972 95.202401 -886.075345
   vertex -2358.899898 103.923048 -888.563127
   vertex -2558.899898 103.923048 -1918.563127
  endloop
 endfacet
 facet normal -0.545384 0.831470 0.105900
  outer loop
   vertex -2371.711972 95.202401 -886.075345
   vertex -2558.899898 103.923048 -1918.563127
   vertex -2571.711972 95.202401 -1916.075345
  endloop
 endfacet
 facet normal -0.434179 0.896873 0.084307
  outer loop
   vertex -2358.899898 103.923048 -888.563127
   vertex -2345.080030 110.865544 -891.246596
   vertex -2545.080030 110.865544 -1921.246596
  endloop
 endfacet
 facet normal -0.434179 0.896873 0.084307
  outer loop
   vertex -2358.899898 103.923048 -888.563127
   vertex -2545.080030 110.865544 -1921.246596
   vertex -2558.899898 103.923048 -1918.563127
  endloop
 endfacet
 facet normal -0.315546 0.946930 0.061271
  outer loop
   vertex -2345.080030 110.865544 -891.246596
   vertex -2330.488830 115.911099 -894.079839
   vertex -2530.488830 115.911099 -1924.079839
  endloop
 endfacet
 facet normal -0.315546 0.946930 0.061271
  outer loop
   vertex -2345.080030 110.865544 -891.246596
   vertex -2530.488830 115.911099 -1924.079839
   vertex -2545.080030 110.865544 -1921.246596
  endloop
 endfacet
 facet normal -0.191513 0.980785 0.037187
  outer loop
   vertex -2330.488830 115.911099 -894.079839
   vertex -2315.375959 118.973383 -897.014377
   vertex -2515.375959 118.973383 -1927.014377
  endloop
 endfacet
 facet normal -0.191513 0.980785 0.037187
  outer loop
   vertex -2330.488830 115.911099 -894.079839
   vertex -2515.375959 118.973383 -1927.014377
   vertex -2530.488830 115.911099 -1924.079839
  endloop
 endfacet
 facet normal -0.064204 0.997859 0.012467
  outer loop
   vertex -2315.375959 118.973383 -897.014377
   vertex -2300.000000 120.000000 -900.000000
   vertex -2500.000000 120.000000 -1930.000000
  endloop
 endfacet
 facet normal -0.064204 0.997859 0.012467
  outer loop
   vertex -2315.375959 118.973383 -897.014377
   vertex -2500.000000 120.000000 -1930.000000
   vertex -2515.375959 118.973383 -1927.014377
  endloop
 endfacet
 facet normal -0.064204 -0.997859 0.012467
  outer loop
   vertex -2486.674169 103.110266 -1932.587540
   vertex -2286.674169 103.110266 -902.587540
   vertex -2300.000000 104.000000 -900.000000
  endloop
 endfacet
 facet normal -0.064204 -0.997859 0.012467
  outer loop
   vertex -2500.000000 104.000000 -1930.000000
   vertex -2486.674169 103.110266 -1932.587540
   vertex -2300.000000 104.000000 -900.000000
  endloop
 endfacet
 facet normal -0.191513 -0.980785 0.037187
  outer loop
   vertex -2473.576347 100.456286 -1935.130806
   vertex -2273.576347 100.456286 -905.130806
   vertex -2286.674169 103.110266 -902.587540
  endloop
 endfacet
 facet normal -0.191513 -0.980785 0.037187
  outer loop
   vertex -2486.674169 103.110266 -1932.587540
   vertex -2473.576347 100.456286 -1935.130806
   vertex -2286.674169 103.110266 -902.587540
  endloop
 endfacet
 facet normal -0.315546 -0.946930 0.061271
  outer loop
   vertex -2460.930641 96.083471 -1937.586283
   vertex -2260.930641 96.083471 -907.586283
   vertex -2273.576347 100.456286 -905.130806
  endloop
 endfacet
 facet normal -0.315546 -0.946930 0.061271
  outer loop
   vertex -2473.576347 100.456286 -1935.130806
   vertex -2460.930641 96.083471 -1937.586283
   vertex -2273.576347 100.456286 -905.130806
  endloop
 endfacet
 facet normal -0.434179 -0.896873 0.084307
  outer loop
   vertex -2448.953422 90.066642 -1939.911957
   vertex -2248.953422 90.066642 -909.911957
   vertex -2260.930641 96.083471 -907.586283
  endloop
 endfacet
 facet normal -0.434179 -0.896873 0.084307
  outer loop
   vertex -2460.930641 96.083471 -1937.586283
   vertex -2448.953422 90.066642 -1939.911957
   vertex -2260.930641 96.083471 -907.586283
  endloop
 endfacet
 facet normal -0.545384 -0.831470 0.105900
  outer loop
   vertex -2437.849625 82.508747 -1942.068034
   vertex -2237.849625 82.508747 -912.068034
   vertex -2248.953422 90.066642 -909.911957
  endloop
 endfacet
 facet normal -0.545384 -0.831470 0.105900
  outer loop
   vertex -2448.953422 90.066642 -1939.911957
   vertex -2437.849625 82.508747 -1942.068034
   vertex -2248.953422 90.066642 -909.911957
  endloop
 endfacet
 facet normal -0.647257 -0.751840 0.125681
  outer loop
   vertex -2427.809237 73.539105 -1944.017624
   vertex -2227.809237 73.539105 -914.017624
   vertex -2237.849625 82.508747 -912.068034
  endloop
 endfacet
 facet normal -0.647257 -0.751840 0.125681
  outer loop
   vertex -2437.849625 82.508747 -1942.068034
   vertex -2427.809237 73.539105 -1944.017624
   vertex -2237.849625 82.508747 -912.068034
  endloop
 endfacet
 facet normal -0.738055 -0.659346 0.143312
  outer loop
   vertex -2419.004054 63.311189 -1945.727368
   vertex -2219.004054 63.311189 -915.727368
   vertex -2227.809237 73.539105 -914.017624
  endloop
 endfacet
 facet normal -0.738055 -0.659346 0.143312
  outer loop
   vertex -2427.809237 73.539105 -1944.017624
   vertex -2419.004054 63.311189 -1945.727368
   vertex -2227.809237 73.539105 -914.017624
  endloop
 endfacet
 facet normal -0.816225 -0.555570 0.158490
  outer loop
   vertex -2411.584734 52.000000 -1947.168013
   vertex -2211.584734 52.000000 -917.168013
   vertex -2219.004054 63.311189 -915.727368
  endloop
 endfacet
 facet normal -0.816225 -0.555570 0.158490
  outer loop
   vertex -2419.004054 63.311189 -1945.727368
   vertex -2411.584734 52.000000 -1947.168013
   vertex -2219.004054 63.311189 -915.727368
  endloop
 endfacet
 facet normal -0.880429 -0.442289 0.170957
  outer loop
   vertex -2405.678223 39.799077 -1948.314908
   vertex -2205.678223 39.799077 -918.314908
   vertex -2211.584734 52.000000 -917.168013
  endloop
 endfacet
 facet normal -0.880429 -0.442289 0.170957
  outer loop
   vertex -2411.584734 52.000000 -1947.168013
   vertex -2405.678223 39.799077 -1948.314908
   vertex -2211.584734 52.000000 -917.168013
  endloop
 endfacet
 facet normal -0.929568 -0.321439 0.180499
  outer loop
   vertex -2401.385584 26.917181 -1949.148430
   vertex -2201.385584 26.917181 -919.148430
   vertex -2205.678223 39.799077 -918.314908
  endloop
 endfacet
 facet normal -0.929568 -0.321439 0.180499
  outer loop
   vertex -2405.678223 39.799077 -1948.314908
   vertex -2401.385584 26.917181 -1949.148430
   vertex -2205.678223 39.799077 -918.314908
  endloop
 endfacet
 facet normal -0.962803 -0.195090 0.186952
  outer loop
   vertex -2398.780265 13.574724 -1949.654317
   vertex -2198.780265 13.574724 -919.654317
   vertex -2201.385584 26.917181 -919.148430
  endloop
 endfacet
 facet normal -0.962803 -0.195090 0.186952
  outer loop
   vertex -2401.385584 26.917181 -1949.148430
   vertex -2398.780265 13.574724 -1949.654317
   vertex -2201.385584 26.917181 -919.148430
  endloop
 endfacet
 facet normal -0.979563 -0.065403 0.190206
  outer loop
   vertex -2397.906844 0.000000 -1949.823914
   vertex -2197.906844 0.000000 -919.823914
   vertex -2198.780265 13.574724 -919.654317
  endloop
 endfacet
 facet normal -0.979563 -0.065403 0.190206
  outer loop
   vertex -2398.780265 13.574724 -1949.654317
   vertex -2397.906844 0.000000 -1949.823914
   vertex -2198.780265 13.574724 -919.654317
  endloop
 endfacet
 facet normal -0.979563 0.065403 0.190206
  outer loop
   vertex -2398.780265 -13.574724 -1949.654317
   vertex -2198.780265 -13.574724 -919.654317
   vertex -2197.906844 0.000000 -919.823914
  endloop
 endfacet
 facet normal -0.979563 0.065403 0.190206
  outer loop
   vertex -2397.906844 0.000000 -1949.823914
   vertex -2398.780265 -13.574724 -1949.654317
   vertex -2197.906844 0.000000 -919.823914
  endloop
 endfacet
 facet normal -0.962803 0.195090 0.186952
  outer loop
   vertex -2401.385584 -26.917181 -1949.148430
   vertex -2201.385584 -26.917181 -919.148430
   vertex -2198.780265 -13.574724 -919.654317
  endloop
 endfacet
 facet normal -0.962803 0.195090 0.186952
  outer loop
   vertex -2398.780265 -13.574724 -1949.654317
   vertex -2401.385584 -26.917181 -1949.148430
   vertex -2198.780265 -13.574724 -919.654317
  endloop
 endfacet
 facet normal -0.929568 0.321439 0.180499
  outer loop
   vertex -2405.678223 -39.799077 -1948.314908
   vertex -2205.678223 -39.799077 -918.314908
   vertex -2201.385584 -26.917181 -919.148430
  endloop
 endfacet
 facet normal -0.929568 0.321439 0.180499
  outer loop
   vertex -2401.385584 -26.917181 -1949.148430
   vertex -2405.678223 -39.799077 -1948.314908
   vertex -2201.385584 -26.917181 -919.148430
  endloop
 endfacet
 facet normal -0.880429 0.442289 0.170957
  outer loop
   vertex -2411.584734 -52.000000 -1947.168013
   vertex -2211.584734 -52.000000 -917.168013
   vertex -2205.678223 -39.799077 -918.314908
  endloop
 endfacet
 facet normal -0.880429 0.442289 0.170957
  outer loop
   vertex -2405.678223 -39.799077 -1948.314908
   vertex -2411.584734 -52.000000 -1947.168013
   vertex -2205.678223 -39.799077 -918.314908
  endloop
 endfacet
 facet normal -0.816225 0.555570 0.158490
  outer loop
   vertex -2419.004054 -63.311189 -1945.727368
   vertex -2219.004054 -63.311189 -915.727368
   vertex -2211.584734 -52.000000 -917.168013
  endloop
 endfacet
 facet normal -0.816225 0.555570 0.158490
  outer loop
   vertex -2411.584734 -52.000000 -1947.168013
   vertex -2419.004054 -63.311189 -1945.727368
   vertex -2211.584734 -52.000000 -917.168013
  endloop
 endfacet
 facet normal -0.738055 0.659346 0.143312
  outer loop
   vertex -2427.809237 -73.539105 -1944.017624
   vertex -2227.809237 -73.539105 -914.017624
   vertex -2219.004054 -63.311189 -915.727368
  endloop
 endfacet
 facet normal -0.738055 0.659346 0.143312
  outer loop
   vertex -2419.004054 -63.311189 -1945.727368
   vertex -2427.809237 -73.539105 -1944.017624
   vertex -2219.004054 -63.311189 -915.727368
  endloop
 endfacet
 facet normal -0.647257 0.751840 0.125681
  outer loop
   vertex -2437.849625 -82.508747 -1942.068034
   vertex -2237.849625 -82.508747 -912.068034
   vertex -2227.809237 -73.539105 -914.017624
  endloop
 endfacet
 facet normal -0.647257 0.751840 0.125681
  outer loop
   vertex -2427.809237 -73.539105 -1944.017624
   vertex -2437.849625 -82.508747 -1942.068034
   vertex -2227.809237 -73.539105 -914.017624
  endloop
 endfacet
 facet normal -0.545384 0.831470 0.105900
  outer loop
   vertex -2448.953422 -90.066642 -1939.911957
   vertex -2248.953422 -90.066642 -909.911957
   vertex -2237.849625 -82.508747 -912.068034
  endloop
 endfacet
 facet normal -0.545384 0.831470 0.105900
  outer loop
   vertex -2437.849625 -82.508747 -1942.068034
   vertex -2448.953422 -90.066642 -1939.911957
   vertex -2237.849625 -82.508747 -912.068034
  endloop
 endfacet
 facet normal -0.434179 0.896873 0.084307
  outer loop
   vertex -2460.930641 -96.083471 -1937.586283
   vertex -2260.930641 -96.083471 -907.586283
   vertex -2248.953422 -90.066642 -909.911957
  endloop
 endfacet
 facet normal -0.434179 0.896873 0.084307
  outer loop
   vertex -2448.953422 -90.066642 -1939.911957
   vertex -2460.930641 -96.083471 -1937.586283
   vertex -2248.953422 -90.066642 -909.911957
  endloop
 endfacet
 facet normal -0.315546 0.946930 0.061271
  outer loop
   vertex -2473.576347 -100.456286 -1935.130806
   vertex -2273.576347 -100.456286 -905.130806
   vertex -2260.930641 -96.083471 -907.586283
  endloop
 endfacet
 facet normal -0.315546 0.946930 0.061271
  outer loop
   vertex -2460.930641 -96.083471 -1937.586283
   vertex -2473.576347 -100.456286 -1935.130806
   vertex -2260.930641 -96.083471 -907.586283
  endloop
 endfacet
 facet normal -0.191513 0.980785 0.037187
  outer loop
   vertex -2486.674169 -103.110266 -1932.587540
   vertex -2286.674169 -103.110266 -902.587540
   vertex -2273.576347 -100.456286 -905.130806
  endloop
 endfacet
 facet normal -0.191513 0.980785 0.037187
  outer loop
   vertex -2473.576347 -100.456286 -1935.130806
   vertex -2486.674169 -103.110266 -1932.587540
   vertex -2273.576347 -100.456286 -905.130806
  endloop
 endfacet
 facet normal -0.064204 0.997859 0.012467
  outer loop
   vertex -2500.000000 -104.000000 -1930.000000
   vertex -2300.000000 -104.000000 -900.000000
   vertex -2286.674169 -103.110266 -902.587540
  endloop
 endfacet
 facet normal -0.064204 0.997859 0.012467
  outer loop
   vertex -2486.674169 -103.110266 -1932.587540
   vertex -2500.000000 -104.000000 -1930.000000
   vertex -2286.674169 -103.110266 -902.587540
  endloop
 endfacet
 facet normal 0.064204 0.997859 -0.012467
  outer loop
   vertex -2513.325831 -103.110266 -1927.412460
   vertex -2313.325831 -103.110266 -897.412460
   vertex -2300.000000 -104.000000 -900.000000
  endloop
 endfacet
 facet normal 0.064204 0.997859 -0.012467
  outer loop
   vertex -2500.000000 -104.000000 -1930.000000
   vertex -2513.325831 -103.110266 -1927.412460
   vertex -2300.000000 -104.000000 -900.000000
  endloop
 endfacet
 facet normal 0.191513 0.980785 -0.037187
  outer loop
   vertex -2526.423653 -100.456286 -1924.869194
   vertex -2326.423653 -100.456286 -894.869194
   vertex -2313.325831 -103.110266 -897.412460
  endloop
 endfacet
 facet normal 0.191513 0.980785 -0.037187
  outer loop
   vertex -2513.325831 -103.110266 -1927.412460
   vertex -2526.423653 -100.456286 -1924.869194
   vertex -2313.325831 -103.110266 -897.412460
  endloop
 endfacet
 facet normal 0.315546 0.946930 -0.061271
  outer loop
   vertex -2539.069359 -96.083471 -1922.413717
   vertex -2339.069359 -96.083471 -892.413717
   vertex -2326.423653 -100.456286 -894.869194
  endloop
 endfacet
 facet normal 0.315546 0.946930 -0.061271
  outer loop
   vertex -2526.423653 -100.456286 -1924.869194
   vertex -2539.069359 -96.083471 -1922.413717
   vertex -2326.423653 -100.456286 -894.869194
  endloop
 endfacet
 facet normal 0.434179 0.896873 -0.084307
  outer loop
   vertex -2551.046578 -90.066642 -1920.088043
   vertex -2351.046578 -90.066642 -890.088043
   vertex -2339.069359 -96.083471 -892.413717
  endloop
 endfacet
 facet normal 0.434179 0.896873 -0.084307
  outer loop
   vertex -2539.069359 -96.083471 -1922.413717
   vertex -2551.046578 -90.066642 -1920.088043
   vertex -2339.069359 -96.083471 -892.413717
  endloop
 endfacet
 facet normal 0.545384 0.831470 -0.105900
  outer loop
   vertex -2562.150375 -82.508747 -1917.931966
   vertex -2362.150375 -82.508747 -887.931966
   vertex -2351.046578 -90.066642 -890.088043
  endloop
 endfacet
 facet normal 0.545384 0.831470 -0.105900
  outer loop
   vertex -2551.046578 -90.066642 -1920.088043
   vertex -2562.150375 -82.508747 -1917.931966
   vertex -2351.046578 -90.066642 -890.088043
  endloop
 endfacet
 facet normal 0.647257 0.751840 -0.125681
  outer loop
   vertex -2572.190763 -73.539105 -1915.982376
   vertex -2372.190763 -73.539105 -885.982376
   vertex -2362.150375 -82.508747 -887.931966
  endloop
 endfacet
 facet normal 0.647257 0.751840 -0.125681
  outer loop
   vertex -2562.150375 -82.508747 -1917.931966
   vertex -2572.190763 -73.539105 -1915.982376
   vertex -2362.150375 -82.508747 -887.931966
  endloop
 endfacet
 facet normal 0.738055 0.659346 -0.143312
  outer loop
   vertex -2580.995946 -63.311189 -1914.272632
   vertex -2380.995946 -63.311189 -884.272632
   vertex -2372.190763 -73.539105 -885.982376
  endloop
 endfacet
 facet normal 0.738055 0.659346 -0.143312
  outer loop
   vertex -2572.190763 -73.539105 -1915.982376
   vertex -2580.995946 -63.311189 -1914.272632
   vertex -2372.190763 -73.539105 -885.982376
  endloop
 endfacet
 facet normal 0.816225 0.555570 -0.158490
  outer loop
   vertex -2588.415266 -52.000000 -1912.831987
   vertex -2388.415266 -52.000000 -882.831987
   vertex -2380.995946 -63.311189 -884.272632
  endloop
 endfacet
 facet normal 0.816225 0.555570 -0.158490
  outer loop
   vertex -2580.995946 -63.311189 -1914.272632
   vertex -2588.415266 -52.000000 -1912.831987
   vertex -2380.995946 -63.311189 -884.272632
  endloop
 endfacet
 facet normal 0.880429 0.442289 -0.170957
  outer loop
   vertex -2594.321777 -39.799077 -1911.685092
   vertex -2394.321777 -39.799077 -881.685092
   vertex -2388.415266 -52.000000 -882.831987
  endloop
 endfacet
 facet normal 0.880429 0.442289 -0.170957
  outer loop
   vertex -2588.415266 -52.000000 -1912.831987
   vertex -2594.321777 -39.799077 -1911.685092
   vertex -2388.415266 -52.000000 -882.831987
  endloop
 endfacet
 facet normal 0.929568 0.321439 -0.180499
  outer loop
   vertex -2598.614416 -26.917181 -1910.851570
   vertex -2398.614416 -26.917181 -880.851570
   vertex -2394.321777 -39.799077 -881.685092
  endloop
 endfacet
 facet normal 0.929568 0.321439 -0.180499
  outer loop
   vertex -2594.321777 -39.799077 -1911.685092
   vertex -2598.614416 -26.917181 -1910.851570
   vertex -2394.321777 -39.799077 -881.685092
  endloop
 endfacet
 facet normal 0.962803 0.195090 -0.186952
  outer loop
   vertex -2601.219735 -13.574724 -1910.345683
   vertex -2401.219735 -13.574724 -880.345683
   vertex -2398.614416 -26.917181 -880.851570
  endloop
 endfacet
 facet normal 0.962803 0.195090 -0.186952
  outer loop
   vertex -2598.614416 -26.917181 -1910.851570
   vertex -2601.219735 -13.574724 -1910.345683
   vertex -2398.614416 -26.917181 -880.851570
  endloop
 endfacet
 facet normal 0.979563 0.065403 -0.190206
  outer loop
   vertex -2602.093156 -0.000000 -1910.176086
   vertex -2402.093156 -0.000000 -880.176086
   vertex -2401.219735 -13.574724 -880.345683
  endloop
 endfacet
 facet normal 0.979563 0.065403 -0.190206
  outer loop
   vertex -2601.219735 -13.574724 -1910.345683
   vertex -2602.093156 -0.000000 -1910.176086
   vertex -2401.219735 -13.574724 -880.345683
  endloop
 endfacet
 facet normal 0.979563 -0.065403 -0.190206
  outer loop
   vertex -2601.219735 13.574724 -1910.345683
   vertex -2401.219735 13.574724 -880.345683
   vertex -2402.093156 -0.000000 -880.176086
  endloop
 endfacet
 facet normal 0.979563 -0.065403 -0.190206
  outer loop
   vertex -2602.093156 -0.000000 -1910.176086
   vertex -2601.219735 13.574724 -1910.345683
   vertex -2402.093156 -0.000000 -880.176086
  endloop
 endfacet
 facet normal 0.962803 -0.195090 -0.186952
  outer loop
   vertex -2598.614416 26.917181 -1910.851570
   vertex -2398.614416 26.917181 -880.851570
   vertex -2401.219735 13.574724 -880.345683
  endloop
 endfacet
 facet normal 0.962803 -0.195090 -0.186952
  outer loop
   vertex -2601.219735 13.574724 -1910.345683
   vertex -2598.614416 26.917181 -1910.851570
   vertex -2401.219735 13.574724 -880.345683
  endloop
 endfacet
 facet normal 0.929568 -0.321439 -0.180499
  outer loop
   vertex -2594.321777 39.799077 -1911.685092
   vertex -2394.321777 39.799077 -881.685092
   vertex -2398.614416 26.917181 -880.851570
  endloop
 endfacet
 facet normal 0.929568 -0.321439 -0.180499
  outer loop
   vertex -2598.614416 26.917181 -1910.851570
   vertex -2594.321777 39.799077 -1911.685092
   vertex -2398.614416 26.917181 -880.851570
  endloop
 endfacet
 facet normal 0.880429 -0.442289 -0.170957
  outer loop
   vertex -2588.415266 52.000000 -1912.831987
   vertex -2388.415266 52.000000 -882.831987
   vertex -2394.321777 39.799077 -881.685092
  endloop
 endfacet
 facet normal 0.880429 -0.442289 -0.170957
  outer loop
   vertex -2594.321777 39.799077 -1911.685092
   vertex -2588.415266 52.000000 -1912.831987
   vertex -2394.321777 39.799077 -881.685092
  endloop
 endfacet
 facet normal 0.816225 -0.555570 -0.158490
  outer loop
   vertex -2580.995946 63.311189 -1914.272632
   vertex -2380.995946 63.311189 -884.272632
   vertex -2388.415266 52.000000 -882.831987
  endloop
 endfacet
 facet normal 0.816225 -0.555570 -0.158490
  outer loop
   vertex -2588.415266 52.000000 -1912.831987
   vertex -2580.995946 63.311189 -1914.272632
   vertex -2388.415266 52.000000 -882.831987
  endloop
 endfacet
 facet normal 0.738055 -0.659346 -0.143312
  outer loop
   vertex -2572.190763 73.539105 -1915.982376
   vertex -2372.190763 73.539105 -885.982376
   vertex -2380.995946 63.311189 -884.272632
  endloop
 endfacet
 facet normal 0.738055 -0.659346 -0.143312
  outer loop
   vertex -2580.995946 63.311189 -1914.272632
   vertex -2572.190763 73.539105 -1915.982376
   vertex -2380.995946 63.311189 -884.272632
  endloop
 endfacet
 facet normal 0.647257 -0.751840 -0.125681
  outer loop
   vertex -2562.150375 82.508747 -1917.931966
   vertex -2362.150375 82.508747 -887.931966
   vertex -2372.190763 73.539105 -885.982376
  endloop
 endfacet
 facet normal 0.647257 -0.751840 -0.125681
  outer loop
   vertex -2572.190763 73.539105 -1915.982376
   vertex -2562.150375 82.508747 -1917.931966
   vertex -2372.190763 73.539105 -885.982376
  endloop
 endfacet
 facet normal 0.545384 -0.831470 -0.105900
  outer loop
   vertex -2551.046578 90.066642 -1920.088043
   vertex -2351.046578 90.066642 -890.088043
   vertex -2362.150375 82.508747 -887.931966
  endloop
 endfacet
 facet normal 0.545384 -0.831470 -0.105900
  outer loop
   vertex -2562.150375 82.508747 -1917.931966
   vertex -2551.046578 90.066642 -1920.088043
   vertex -2362.150375 82.508747 -887.931966
  endloop
 endfacet
 facet normal 0.434179 -0.896873 -0.084307
  outer loop
   vertex -2539.069359 96.083471 -1922.413717
   vertex -2339.069359 96.083471 -892.413717
   vertex -2351.046578 90.066642 -890.088043
  endloop
 endfacet
 facet normal 0.434179 -0.896873 -0.084307
  outer loop
   vertex -2551.046578 90.066642 -1920.088043
   vertex -2539.069359 96.083471 -1922.413717
   vertex -2351.046578 90.066642 -890.088043
  endloop
 endfacet
 facet normal 0.315546 -0.946930 -0.061271
  outer loop
   vertex -2526.423653 100.456286 -1924.869194
   vertex -2326.423653 100.456286 -894.869194
   vertex -2339.069359 96.083471 -892.413717
  endloop
 endfacet
 facet normal 0.315546 -0.946930 -0.061271
  outer loop
   vertex -2539.069359 96.083471 -1922.413717
   vertex -2526.423653 100.456286 -1924.869194
   vertex -2339.069359 96.083471 -892.413717
  endloop
 endfacet
 facet normal 0.191513 -0.980785 -0.037187
  outer loop
   vertex -2513.325831 103.110266 -1927.412460
   vertex -2313.325831 103.110266 -897.412460
   vertex -2326.423653 100.456286 -894.869194
  endloop
 endfacet
 facet normal 0.191513 -0.980785 -0.037187
  outer loop
   vertex -2526.423653 100.456286 -1924.869194
   vertex -2513.325831 103.110266 -1927.412460
   vertex -2326.423653 100.456286 -894.869194
  endloop
 endfacet
 facet normal 0.064204 -0.997859 -0.012467
  outer loop
   vertex -2500.000000 104.000000 -1930.000000
   vertex -2300.000000 104.000000 -900.000000
   vertex -2313.325831 103.110266 -897.412460
  endloop
 endfacet
 facet normal 0.064204 -0.997859 -0.012467
  outer loop
   vertex -2513.325831 103.110266 -1927.412460
   vertex -2500.000000 104.000000 -1930.000000
   vertex -2313.325831 103.110266 -897.412460
  endloop
 endfacet
endsolid SIC_RP1_DROP_0
