solid SIC_RP1_DROP_4
 facet normal 0.065105 0.983010 0.171619
  outer loop
   vertex 1150.000000 2110.138579 -880.100736
   vertex 1165.591843 2108.878627 -878.798833
   vertex 1265.591843 2282.078627 -1908.798833
  endloop
 endfacet
 facet normal 0.065105 0.983010 0.171619
  outer loop
   vertex 1150.000000 2110.138579 -880.100736
   vertex 1265.591843 2282.078627 -1908.798833
   vertex 1250.000000 2283.338579 -1910.100736
  endloop
 endfacet
 facet normal 0.194202 0.964123 0.180977
  outer loop
   vertex 1165.591843 2108.878627 -878.798833
   vertex 1180.916905 2105.615427 -877.859687
   vertex 1280.916905 2278.815427 -1907.859687
  endloop
 endfacet
 facet normal 0.194202 0.964123 0.180977
  outer loop
   vertex 1165.591843 2108.878627 -878.798833
   vertex 1280.916905 2278.815427 -1907.859687
   vertex 1265.591843 2282.078627 -1908.798833
  endloop
 endfacet
 facet normal 0.319976 0.928740 0.187238
  outer loop
   vertex 1180.916905 2105.615427 -877.859687
   vertex 1195.712970 2100.404814 -877.299368
   vertex 1295.712970 2273.604814 -1907.299368
  endloop
 endfacet
 facet normal 0.319976 0.928740 0.187238
  outer loop
   vertex 1180.916905 2105.615427 -877.859687
   vertex 1295.712970 2273.604814 -1907.299368
   vertex 1280.916905 2278.815427 -1907.859687
  endloop
 endfacet
 facet normal 0.440275 0.877465 0.190296
  outer loop
   vertex 1195.712970 2100.404814 -877.299368
   vertex 1209.726874 2093.335943 -877.127463
   vertex 1309.726874 2266.535943 -1907.127463
  endloop
 endfacet
 facet normal 0.440275 0.877465 0.190296
  outer loop
   vertex 1195.712970 2100.404814 -877.299368
   vertex 1309.726874 2266.535943 -1907.127463
   vertex 1295.712970 2273.604814 -1907.299368
  endloop
 endfacet
 facet normal 0.553041 0.811177 0.190097
  outer loop
   vertex 1209.726874 2093.335943 -877.127463
   vertex 1222.718834 2084.529763 -877.346914
   vertex 1322.718834 2257.729763 -1907.346914
  endloop
 endfacet
 facet normal 0.553041 0.811177 0.190097
  outer loop
   vertex 1209.726874 2093.335943 -877.127463
   vertex 1322.718834 2257.729763 -1907.346914
   vertex 1309.726874 2266.535943 -1907.127463
  endloop
 endfacet
 facet normal 0.656344 0.731010 0.186646
  outer loop
   vertex 1222.718834 2084.529763 -877.346914
   vertex 1234.466555 2074.136951 -877.953966
   vertex 1334.466555 2247.336951 -1907.953966
  endloop
 endfacet
 facet normal 0.656344 0.731010 0.186646
  outer loop
   vertex 1222.718834 2084.529763 -877.346914
   vertex 1334.466555 2247.336951 -1907.953966
   vertex 1322.718834 2257.729763 -1907.346914
  endloop
 endfacet
 facet normal 0.748417 0.638335 0.180001
  outer loop
   vertex 1234.466555 2074.136951 -877.953966
   vertex 1244.769029 2062.335331 -878.938231
   vertex 1344.769029 2235.535331 -1908.938231
  endloop
 endfacet
 facet normal 0.748417 0.638335 0.180001
  outer loop
   vertex 1234.466555 2074.136951 -877.953966
   vertex 1344.769029 2235.535331 -1908.938231
   vertex 1334.466555 2247.336951 -1907.953966
  endloop
 endfacet
 facet normal 0.827685 0.534737 0.170277
  outer loop
   vertex 1244.769029 2062.335331 -878.938231
   vertex 1253.449980 2049.326832 -880.282869
   vertex 1353.449980 2222.526832 -1910.282869
  endloop
 endfacet
 facet normal 0.827685 0.534737 0.170277
  outer loop
   vertex 1244.769029 2062.335331 -878.938231
   vertex 1353.449980 2222.526832 -1910.282869
   vertex 1344.769029 2235.535331 -1908.938231
  endloop
 endfacet
 facet normal 0.892790 0.421990 0.157639
  outer loop
   vertex 1253.449980 2049.326832 -880.282869
   vertex 1260.360872 2035.334033 -881.964872
   vertex 1360.360872 2208.534033 -1911.964872
  endloop
 endfacet
 facet normal 0.892790 0.421990 0.157639
  outer loop
   vertex 1253.449980 2049.326832 -880.282869
   vertex 1360.360872 2208.534033 -1911.964872
   vertex 1353.449980 2222.526832 -1910.282869
  endloop
 endfacet
 facet normal 0.942620 0.302023 0.142303
  outer loop
   vertex 1260.360872 2035.334033 -881.964872
   vertex 1265.383459 2020.596355 -883.955462
   vertex 1365.383459 2193.796355 -1913.955462
  endloop
 endfacet
 facet normal 0.942620 0.302023 0.142303
  outer loop
   vertex 1260.360872 2035.334033 -881.964872
   vertex 1365.383459 2193.796355 -1913.955462
   vertex 1360.360872 2208.534033 -1911.964872
  endloop
 endfacet
 facet normal 0.976321 0.176888 0.124533
  outer loop
   vertex 1265.383459 2020.596355 -883.955462
   vertex 1268.431804 2005.365963 -886.220577
   vertex 1368.431804 2178.565963 -1916.220577
  endloop
 endfacet
 facet normal 0.976321 0.176888 0.124533
  outer loop
   vertex 1265.383459 2020.596355 -883.955462
   vertex 1368.431804 2178.565963 -1916.220577
   vertex 1365.383459 2193.796355 -1913.955462
  endloop
 endfacet
 facet normal 0.993317 0.048727 0.104632
  outer loop
   vertex 1268.431804 2005.365963 -886.220577
   vertex 1269.453747 1989.903454 -888.721463
   vertex 1369.453747 2163.103454 -1918.721463
  endloop
 endfacet
 facet normal 0.993317 0.048727 0.104632
  outer loop
   vertex 1268.431804 2005.365963 -886.220577
   vertex 1369.453747 2163.103454 -1918.721463
   vertex 1368.431804 2178.565963 -1916.220577
  endloop
 endfacet
 facet normal 0.993317 -0.080268 0.082941
  outer loop
   vertex 1269.453747 1989.903454 -888.721463
   vertex 1268.431804 1974.473395 -891.415328
   vertex 1368.431804 2147.673395 -1921.415328
  endloop
 endfacet
 facet normal 0.993317 -0.080268 0.082941
  outer loop
   vertex 1269.453747 1989.903454 -888.721463
   vertex 1368.431804 2147.673395 -1921.415328
   vertex 1369.453747 2163.103454 -1918.721463
  endloop
 endfacet
 facet normal 0.976321 -0.207890 0.059831
  outer loop
   vertex 1268.431804 1974.473395 -891.415328
   vertex 1265.383459 1959.339799 -894.256079
   vertex 1365.383459 2132.539799 -1924.256079
  endloop
 endfacet
 facet normal 0.976321 -0.207890 0.059831
  outer loop
   vertex 1268.431804 1974.473395 -891.415328
   vertex 1365.383459 2132.539799 -1924.256079
   vertex 1368.431804 2147.673395 -1921.415328
  endloop
 endfacet
 facet normal 0.942620 -0.331955 0.035696
  outer loop
   vertex 1265.383459 1959.339799 -894.256079
   vertex 1260.360872 1944.761606 -897.195109
   vertex 1360.360872 2117.961606 -1927.195109
  endloop
 endfacet
 facet normal 0.942620 -0.331955 0.035696
  outer loop
   vertex 1265.383459 1959.339799 -894.256079
   vertex 1360.360872 2117.961606 -1927.195109
   vertex 1365.383459 2132.539799 -1924.256079
  endloop
 endfacet
 facet normal 0.892790 -0.450340 0.010952
  outer loop
   vertex 1260.360872 1944.761606 -897.195109
   vertex 1253.449980 1930.988253 -900.182133
   vertex 1353.449980 2104.188253 -1930.182133
  endloop
 endfacet
 facet normal 0.892790 -0.450340 0.010952
  outer loop
   vertex 1260.360872 1944.761606 -897.195109
   vertex 1353.449980 2104.188253 -1930.182133
   vertex 1360.360872 2117.961606 -1927.195109
  endloop
 endfacet
 facet normal 0.827685 -0.561019 -0.013981
  outer loop
   vertex 1253.449980 1930.988253 -900.182133
   vertex 1244.769029 1918.255406 -903.166040
   vertex 1344.769029 2091.455406 -1933.166040
  endloop
 endfacet
 facet normal 0.827685 -0.561019 -0.013981
  outer loop
   vertex 1253.449980 1930.988253 -900.182133
   vertex 1344.769029 2091.455406 -1933.166040
   vertex 1353.449980 2104.188253 -1930.182133
  endloop
 endfacet
 facet normal 0.748417 -0.662100 -0.038674
  outer loop
   vertex 1244.769029 1918.255406 -903.166040
   vertex 1234.466555 1906.780928 -906.095775
   vertex 1334.466555 2079.980928 -1936.095775
  endloop
 endfacet
 facet normal 0.748417 -0.662100 -0.038674
  outer loop
   vertex 1244.769029 1918.255406 -903.166040
   vertex 1334.466555 2079.980928 -1936.095775
   vertex 1344.769029 2091.455406 -1933.166040
  endloop
 endfacet
 facet normal 0.656344 -0.751851 -0.062705
  outer loop
   vertex 1234.466555 1906.780928 -906.095775
   vertex 1222.718834 1896.761149 -908.921209
   vertex 1322.718834 2069.961149 -1938.921209
  endloop
 endfacet
 facet normal 0.656344 -0.751851 -0.062705
  outer loop
   vertex 1234.466555 1906.780928 -906.095775
   vertex 1322.718834 2069.961149 -1938.921209
   vertex 1334.466555 2079.980928 -1936.095775
  endloop
 endfacet
 facet normal 0.553041 -0.828738 -0.085663
  outer loop
   vertex 1222.718834 1896.761149 -908.921209
   vertex 1209.726874 1888.367511 -911.594000
   vertex 1309.726874 2061.567511 -1941.594000
  endloop
 endfacet
 facet normal 0.553041 -0.828738 -0.085663
  outer loop
   vertex 1222.718834 1896.761149 -908.921209
   vertex 1309.726874 2061.567511 -1941.594000
   vertex 1322.718834 2069.961149 -1938.921209
  endloop
 endfacet
 facet normal 0.440275 -0.891446 -0.107156
  outer loop
   vertex 1209.726874 1888.367511 -911.594000
   vertex 1195.712970 1881.743632 -914.068414
   vertex 1295.712970 2054.943632 -1944.068414
  endloop
 endfacet
 facet normal 0.440275 -0.891446 -0.107156
  outer loop
   vertex 1209.726874 1888.367511 -911.594000
   vertex 1295.712970 2054.943632 -1944.068414
   vertex 1309.726874 2061.567511 -1941.594000
  endloop
 endfacet
 facet normal 0.319976 -0.938900 -0.126815
  outer loop
   vertex 1195.712970 1881.743632 -914.068414
   vertex 1180.916905 1877.002848 -916.302113
   vertex 1280.916905 2050.202848 -1946.302113
  endloop
 endfacet
 facet normal 0.319976 -0.938900 -0.126815
  outer loop
   vertex 1195.712970 1881.743632 -914.068414
   vertex 1280.916905 2050.202848 -1946.302113
   vertex 1295.712970 2054.943632 -1944.068414
  endloop
 endfacet
 facet normal 0.194202 -0.970289 -0.144305
  outer loop
   vertex 1180.916905 1877.002848 -916.302113
   vertex 1165.591843 1874.226275 -918.256879
   vertex 1265.591843 2047.426275 -1948.256879
  endloop
 endfacet
 facet normal 0.194202 -0.970289 -0.144305
  outer loop
   vertex 1180.916905 1877.002848 -916.302113
   vertex 1265.591843 2047.426275 -1948.256879
   vertex 1280.916905 2050.202848 -1946.302113
  endloop
 endfacet
 facet normal 0.065105 -0.985077 -0.159325
  outer loop
   vertex 1165.591843 1874.226275 -918.256879
   vertex 1150.000000 1873.461421 -919.899264
   vertex 1250.000000 2046.661421 -1949.899264
  endloop
 endfacet
 facet normal 0.065105 -0.985077 -0.159325
  outer loop
   vertex 1165.591843 1874.226275 -918.256879
   vertex 1250.000000 2046.661421 -1949.899264
   vertex 1265.591843 2047.426275 -1948.256879
  endloop
 endfacet
 facet normal -0.065105 -0.983010 -0.171619
  outer loop
   vertex 1150.000000 1873.461421 -919.899264
   vertex 1134.408157 1874.721373 -921.201167
   vertex 1234.408157 2047.921373 -1951.201167
  endloop
 endfacet
 facet normal -0.065105 -0.983010 -0.171619
  outer loop
   vertex 1150.000000 1873.461421 -919.899264
   vertex 1234.408157 2047.921373 -1951.201167
   vertex 1250.000000 2046.661421 -1949.899264
  endloop
 endfacet
 facet normal -0.194202 -0.964123 -0.180977
  outer loop
   vertex 1134.408157 1874.721373 -921.201167
   vertex 1119.083095 1877.984573 -922.140313
   vertex 1219.083095 2051.184573 -1952.140313
  endloop
 endfacet
 facet normal -0.194202 -0.964123 -0.180977
  outer loop
   vertex 1134.408157 1874.721373 -921.201167
   vertex 1219.083095 2051.184573 -1952.140313
   vertex 1234.408157 2047.921373 -1951.201167
  endloop
 endfacet
 facet normal -0.319976 -0.928740 -0.187238
  outer loop
   vertex 1119.083095 1877.984573 -922.140313
   vertex 1104.287030 1883.195186 -922.700632
   vertex 1204.287030 2056.395186 -1952.700632
  endloop
 endfacet
 facet normal -0.319976 -0.928740 -0.187238
  outer loop
   vertex 1119.083095 1877.984573 -922.140313
   vertex 1204.287030 2056.395186 -1952.700632
   vertex 1219.083095 2051.184573 -1952.140313
  endloop
 endfacet
 facet normal -0.440275 -0.877465 -0.190296
  outer loop
   vertex 1104.287030 1883.195186 -922.700632
   vertex 1090.273126 1890.264057 -922.872537
   vertex 1190.273126 2063.464057 -1952.872537
  endloop
 endfacet
 facet normal -0.440275 -0.877465 -0.190296
  outer loop
   vertex 1104.287030 1883.195186 -922.700632
   vertex 1190.273126 2063.464057 -1952.872537
   vertex 1204.287030 2056.395186 -1952.700632
  endloop
 endfacet
 facet normal -0.553041 -0.811177 -0.190097
  outer loop
   vertex 1090.273126 1890.264057 -922.872537
   vertex 1077.281166 1899.070237 -922.653086
   vertex 1177.281166 2072.270237 -1952.653086
  endloop
 endfacet
 facet normal -0.553041 -0.811177 -0.190097
  outer loop
   vertex 1090.273126 1890.264057 -922.872537
   vertex 1177.281166 2072.270237 -1952.653086
   vertex 1190.273126 2063.464057 -1952.872537
  endloop
 endfacet
 facet normal -0.656344 -0.731010 -0.186646
  outer loop
   vertex 1077.281166 1899.070237 -922.653086
   vertex 1065.533445 1909.463049 -922.046034
   vertex 1165.533445 2082.663049 -1952.046034
  endloop
 endfacet
 facet normal -0.656344 -0.731010 -0.186646
  outer loop
   vertex 1077.281166 1899.070237 -922.653086
   vertex 1165.533445 2082.663049 -1952.046034
   vertex 1177.281166 2072.270237 -1952.653086
  endloop
 endfacet
 facet normal -0.748417 -0.638335 -0.180001
  outer loop
   vertex 1065.533445 1909.463049 -922.046034
   vertex 1055.230971 1921.264669 -921.061769
   vertex 1155.230971 2094.464669 -1951.061769
  endloop
 endfacet
 facet normal -0.748417 -0.638335 -0.180001
  outer loop
   vertex 1065.533445 1909.463049 -922.046034
   vertex 1155.230971 2094.464669 -1951.061769
   vertex 1165.533445 2082.663049 -1952.046034
  endloop
 endfacet
 facet normal -0.827685 -0.534737 -0.170277
  outer loop
   vertex 1055.230971 1921.264669 -921.061769
   vertex 1046.550020 1934.273168 -919.717131
   vertex 1146.550020 2107.473168 -1949.717131
  endloop
 endfacet
 facet normal -0.827685 -0.534737 -0.170277
  outer loop
   vertex 1055.230971 1921.264669 -921.061769
   vertex 1146.550020 2107.473168 -1949.717131
   vertex 1155.230971 2094.464669 -1951.061769
  endloop
 endfacet
 facet normal -0.892790 -0.421990 -0.157639
  outer loop
   vertex 1046.550020 1934.273168 -919.717131
   vertex 1039.639128 1948.265967 -918.035128
   vertex 1139.639128 2121.465967 -1948.035128
  endloop
 endfacet
 facet normal -0.892790 -0.421990 -0.157639
  outer loop
   vertex 1046.550020 1934.273168 -919.717131
   vertex 1139.639128 2121.465967 -1948.035128
   vertex 1146.550020 2107.473168 -1949.717131
  endloop
 endfacet
 facet normal -0.942620 -0.302023 -0.142303
  outer loop
   vertex 1039.639128 1948.265967 -918.035128
   vertex 1034.616541 1963.003645 -916.044538
   vertex 1134.616541 2136.203645 -1946.044538
  endloop
 endfacet
 facet normal -0.942620 -0.302023 -0.142303
  outer loop
   vertex 1039.639128 1948.265967 -918.035128
   vertex 1134.616541 2136.203645 -1946.044538
   vertex 1139.639128 2121.465967 -1948.035128
  endloop
 endfacet
 facet normal -0.976321 -0.176888 -0.124533
  outer loop
   vertex 1034.616541 1963.003645 -916.044538
   vertex 1031.568196 1978.234037 -913.779423
   vertex 1131.568196 2151.434037 -1943.779423
  endloop
 endfacet
 facet normal -0.976321 -0.176888 -0.124533
  outer loop
   vertex 1034.616541 1963.003645 -916.044538
   vertex 1131.568196 2151.434037 -1943.779423
   vertex 1134.616541 2136.203645 -1946.044538
  endloop
 endfacet
 facet normal -0.993317 -0.048727 -0.104632
  outer loop
   vertex 1031.568196 1978.234037 -913.779423
   vertex 1030.546253 1993.696546 -911.278537
   vertex 1130.546253 2166.896546 -1941.278537
  endloop
 endfacet
 facet normal -0.993317 -0.048727 -0.104632
  outer loop
   vertex 1031.568196 1978.234037 -913.779423
   vertex 1130.546253 2166.896546 -1941.278537
   vertex 1131.568196 2151.434037 -1943.779423
  endloop
 endfacet
 facet normal -0.993317 0.080268 -0.082941
  outer loop
   vertex 1030.546253 1993.696546 -911.278537
   vertex 1031.568196 2009.126605 -908.584672
   vertex 1131.568196 2182.326605 -1938.584672
  endloop
 endfacet
 facet normal -0.993317 0.080268 -0.082941
  outer loop
   vertex 1030.546253 1993.696546 -911.278537
   vertex 1131.568196 2182.326605 -1938.584672
   vertex 1130.546253 2166.896546 -1941.278537
  endloop
 endfacet
 facet normal -0.976321 0.207890 -0.059831
  outer loop
   vertex 1031.568196 2009.126605 -908.584672
   vertex 1034.616541 2024.260201 -905.743921
   vertex 1134.616541 2197.460201 -1935.743921
  endloop
 endfacet
 facet normal -0.976321 0.207890 -0.059831
  outer loop
   vertex 1031.568196 2009.126605 -908.584672
   vertex 1134.616541 2197.460201 -1935.743921
   vertex 1131.568196 2182.326605 -1938.584672
  endloop
 endfacet
 facet normal -0.942620 0.331955 -0.035696
  outer loop
   vertex 1034.616541 2024.260201 -905.743921
   vertex 1039.639128 2038.838394 -902.804891
   vertex 1139.639128 2212.038394 -1932.804891
  endloop
 endfacet
 facet normal -0.942620 0.331955 -0.035696
  outer loop
   vertex 1034.616541 2024.260201 -905.743921
   vertex 1139.639128 2212.038394 -1932.804891
   vertex 1134.616541 2197.460201 -1935.743921
  endloop
 endfacet
 facet normal -0.892790 0.450340 -0.010952
  outer loop
   vertex 1039.639128 2038.838394 -902.804891
   vertex 1046.550020 2052.611747 -899.817867
   vertex 1146.550020 2225.811747 -1929.817867
  endloop
 endfacet
 facet normal -0.892790 0.450340 -0.010952
  outer loop
   vertex 1039.639128 2038.838394 -902.804891
   vertex 1146.550020 2225.811747 -1929.817867
   vertex 1139.639128 2212.038394 -1932.804891
  endloop
 endfacet
 facet normal -0.827685 0.561019 0.013981
  outer loop
   vertex 1046.550020 2052.611747 -899.817867
   vertex 1055.230971 2065.344594 -896.833960
   vertex 1155.230971 2238.544594 -1926.833960
  endloop
 endfacet
 facet normal -0.827685 0.561019 0.013981
  outer loop
   vertex 1046.550020 2052.611747 -899.817867
   vertex 1155.230971 2238.544594 -1926.833960
   vertex 1146.550020 2225.811747 -1929.817867
  endloop
 endfacet
 facet normal -0.748417 0.662100 0.038674
  outer loop
   vertex 1055.230971 2065.344594 -896.833960
   vertex 1065.533445 2076.819072 -893.904225
   vertex 1165.533445 2250.019072 -1923.904225
  endloop
 endfacet
 facet normal -0.748417 0.662100 0.038674
  outer loop
   vertex 1055.230971 2065.344594 -896.833960
   vertex 1165.533445 2250.019072 -1923.904225
   vertex 1155.230971 2238.544594 -1926.833960
  endloop
 endfacet
 facet normal -0.656344 0.751851 0.062705
  outer loop
   vertex 1065.533445 2076.819072 -893.904225
   vertex 1077.281166 2086.838851 -891.078791
   vertex 1177.281166 2260.038851 -1921.078791
  endloop
 endfacet
 facet normal -0.656344 0.751851 0.062705
  outer loop
   vertex 1065.533445 2076.819072 -893.904225
   vertex 1177.281166 2260.038851 -1921.078791
   vertex 1165.533445 2250.019072 -1923.904225
  endloop
 endfacet
 facet normal -0.553041 0.828738 0.085663
  outer loop
   vertex 1077.281166 2086.838851 -891.078791
   vertex 1090.273126 2095.232489 -888.406000
   vertex 1190.273126 2268.432489 -1918.406000
  endloop
 endfacet
 facet normal -0.553041 0.828738 0.085663
  outer loop
   vertex 1077.281166 2086.838851 -891.078791
   vertex 1190.273126 2268.432489 -1918.406000
   vertex 1177.281166 2260.038851 -1921.078791
  endloop
 endfacet
 facet normal -0.440275 0.891446 0.107156
  outer loop
   vertex 1090.273126 2095.232489 -888.406000
   vertex 1104.287030 2101.856368 -885.931586
   vertex 1204.287030 2275.056368 -1915.931586
  endloop
 endfacet
 facet normal -0.440275 0.891446 0.107156
  outer loop
   vertex 1090.273126 2095.232489 -888.406000
   vertex 1204.287030 2275.056368 -1915.931586
   vertex 1190.273126 2268.432489 -1918.406000
  endloop
 endfacet
 facet normal -0.319976 0.938900 0.126815
  outer loop
   vertex 1104.287030 2101.856368 -885.931586
   vertex 1119.083095 2106.597152 -883.697887
   vertex 1219.083095 2279.797152 -1913.697887
  endloop
 endfacet
 facet normal -0.319976 0.938900 0.126815
  outer loop
   vertex 1104.287030 2101.856368 -885.931586
   vertex 1219.083095 2279.797152 -1913.697887
   vertex 1204.287030 2275.056368 -1915.931586
  endloop
 endfacet
 facet normal -0.194202 0.970289 0.144305
  outer loop
   vertex 1119.083095 2106.597152 -883.697887
   vertex 1134.408157 2109.373725 -881.743121
   vertex 1234.408157 2282.573725 -1911.743121
  endloop
 endfacet
 facet normal -0.194202 0.970289 0.144305
  outer loop
   vertex 1119.083095 2106.597152 -883.697887
   vertex 1234.408157 2282.573725 -1911.743121
   vertex 1219.083095 2279.797152 -1913.697887
  endloop
 endfacet
 facet normal -0.065105 0.985077 0.159325
  outer loop
   vertex 1134.408157 2109.373725 -881.743121
   vertex 1150.000000 2110.138579 -880.100736
   vertex 1250.000000 2283.338579 -1910.100736
  endloop
 endfacet
 facet normal -0.065105 0.985077 0.159325
  outer loop
   vertex 1134.408157 2109.373725 -881.743121
   vertex 1250.000000 2283.338579 -1910.100736
   vertex 1234.408157 2282.573725 -1911.743121
  endloop
 endfacet
 facet normal -0.065105 -0.983010 -0.171619
  outer loop
   vertex 1263.512930 2266.468144 -1911.625655
   vertex 1163.512930 2093.268144 -881.625655
   vertex 1150.000000 2094.360102 -882.753971
  endloop
 endfacet
 facet normal -0.065105 -0.983010 -0.171619
  outer loop
   vertex 1250.000000 2267.560102 -1912.753971
   vertex 1263.512930 2266.468144 -1911.625655
   vertex 1150.000000 2094.360102 -882.753971
  endloop
 endfacet
 facet normal -0.194202 -0.964123 -0.180977
  outer loop
   vertex 1276.794651 2263.640037 -1910.811729
   vertex 1176.794651 2090.440037 -880.811729
   vertex 1163.512930 2093.268144 -881.625655
  endloop
 endfacet
 facet normal -0.194202 -0.964123 -0.180977
  outer loop
   vertex 1263.512930 2266.468144 -1911.625655
   vertex 1276.794651 2263.640037 -1910.811729
   vertex 1163.512930 2093.268144 -881.625655
  endloop
 endfacet
 facet normal -0.319976 -0.928740 -0.187238
  outer loop
   vertex 1289.617907 2259.124172 -1910.326119
   vertex 1189.617907 2085.924172 -880.326119
   vertex 1176.794651 2090.440037 -880.811729
  endloop
 endfacet
 facet normal -0.319976 -0.928740 -0.187238
  outer loop
   vertex 1276.794651 2263.640037 -1910.811729
   vertex 1289.617907 2259.124172 -1910.326119
   vertex 1176.794651 2090.440037 -880.811729
  endloop
 endfacet
 facet normal -0.440275 -0.877465 -0.190296
  outer loop
   vertex 1301.763290 2252.997817 -1910.177135
   vertex 1201.763290 2079.797817 -880.177135
   vertex 1189.617907 2085.924172 -880.326119
  endloop
 endfacet
 facet normal -0.440275 -0.877465 -0.190296
  outer loop
   vertex 1289.617907 2259.124172 -1910.326119
   vertex 1301.763290 2252.997817 -1910.177135
   vertex 1189.617907 2085.924172 -880.326119
  endloop
 endfacet
 facet normal -0.553041 -0.811177 -0.190097
  outer loop
   vertex 1313.022989 2245.365794 -1910.367326
   vertex 1213.022989 2072.165794 -880.367326
   vertex 1201.763290 2079.797817 -880.177135
  endloop
 endfacet
 facet normal -0.553041 -0.811177 -0.190097
  outer loop
   vertex 1301.763290 2252.997817 -1910.177135
   vertex 1313.022989 2245.365794 -1910.367326
   vertex 1201.763290 2079.797817 -880.177135
  endloop
 endfacet
 facet normal -0.656344 -0.731010 -0.186646
  outer loop
   vertex 1323.204347 2236.358691 -1910.893437
   vertex 1223.204347 2063.158691 -880.893437
   vertex 1213.022989 2072.165794 -880.367326
  endloop
 endfacet
 facet normal -0.656344 -0.731010 -0.186646
  outer loop
   vertex 1313.022989 2245.365794 -1910.367326
   vertex 1323.204347 2236.358691 -1910.893437
   vertex 1213.022989 2072.165794 -880.367326
  endloop
 endfacet
 facet normal -0.748417 -0.638335 -0.180001
  outer loop
   vertex 1332.133159 2226.130620 -1911.746467
   vertex 1232.133159 2052.930620 -881.746467
   vertex 1223.204347 2063.158691 -880.893437
  endloop
 endfacet
 facet normal -0.748417 -0.638335 -0.180001
  outer loop
   vertex 1323.204347 2236.358691 -1910.893437
   vertex 1332.133159 2226.130620 -1911.746467
   vertex 1223.204347 2063.158691 -880.893437
  endloop
 endfacet
 facet normal -0.827685 -0.534737 -0.170277
  outer loop
   vertex 1339.656649 2214.856588 -1912.911819
   vertex 1239.656649 2041.656588 -882.911819
   vertex 1232.133159 2052.930620 -881.746467
  endloop
 endfacet
 facet normal -0.827685 -0.534737 -0.170277
  outer loop
   vertex 1332.133159 2226.130620 -1911.746467
   vertex 1339.656649 2214.856588 -1912.911819
   vertex 1232.133159 2052.930620 -881.746467
  endloop
 endfacet
 facet normal -0.892790 -0.421990 -0.157639
  outer loop
   vertex 1345.646089 2202.729496 -1914.369556
   vertex 1245.646089 2029.529496 -884.369556
   vertex 1239.656649 2041.656588 -882.911819
  endloop
 endfacet
 facet normal -0.892790 -0.421990 -0.157639
  outer loop
   vertex 1339.656649 2214.856588 -1912.911819
   vertex 1345.646089 2202.729496 -1914.369556
   vertex 1239.656649 2041.656588 -882.911819
  endloop
 endfacet
 facet normal -0.942620 -0.302023 -0.142303
  outer loop
   vertex 1349.998998 2189.956841 -1916.094733
   vertex 1249.998998 2016.756841 -886.094733
   vertex 1245.646089 2029.529496 -884.369556
  endloop
 endfacet
 facet normal -0.942620 -0.302023 -0.142303
  outer loop
   vertex 1345.646089 2202.729496 -1914.369556
   vertex 1349.998998 2189.956841 -1916.094733
   vertex 1245.646089 2029.529496 -884.369556
  endloop
 endfacet
 facet normal -0.976321 -0.176888 -0.124533
  outer loop
   vertex 1352.640897 2176.757168 -1918.057834
   vertex 1252.640897 2003.557168 -888.057834
   vertex 1249.998998 2016.756841 -886.094733
  endloop
 endfacet
 facet normal -0.976321 -0.176888 -0.124533
  outer loop
   vertex 1349.998998 2189.956841 -1916.094733
   vertex 1352.640897 2176.757168 -1918.057834
   vertex 1249.998998 2016.756841 -886.094733
  endloop
 endfacet
 facet normal -0.993317 -0.048727 -0.104632
  outer loop
   vertex 1353.526581 2163.356327 -1920.225268
   vertex 1253.526581 1990.156327 -890.225268
   vertex 1252.640897 2003.557168 -888.057834
  endloop
 endfacet
 facet normal -0.993317 -0.048727 -0.104632
  outer loop
   vertex 1352.640897 2176.757168 -1918.057834
   vertex 1353.526581 2163.356327 -1920.225268
   vertex 1252.640897 2003.557168 -888.057834
  endloop
 endfacet
 facet normal -0.993317 0.080268 -0.082941
  outer loop
   vertex 1352.640897 2149.983609 -1922.559951
   vertex 1252.640897 1976.783609 -892.559951
   vertex 1253.526581 1990.156327 -890.225268
  endloop
 endfacet
 facet normal -0.993317 0.080268 -0.082941
  outer loop
   vertex 1353.526581 2163.356327 -1920.225268
   vertex 1352.640897 2149.983609 -1922.559951
   vertex 1253.526581 1990.156327 -890.225268
  endloop
 endfacet
 facet normal -0.976321 0.207890 -0.059831
  outer loop
   vertex 1349.998998 2136.867826 -1925.021935
   vertex 1249.998998 1963.667826 -895.021935
   vertex 1252.640897 1976.783609 -892.559951
  endloop
 endfacet
 facet normal -0.976321 0.207890 -0.059831
  outer loop
   vertex 1352.640897 2149.983609 -1922.559951
   vertex 1349.998998 2136.867826 -1925.021935
   vertex 1252.640897 1976.783609 -892.559951
  endloop
 endfacet
 facet normal -0.942620 0.331955 -0.035696
  outer loop
   vertex 1345.646089 2124.233392 -1927.569095
   vertex 1245.646089 1951.033392 -897.569095
   vertex 1249.998998 1963.667826 -895.021935
  endloop
 endfacet
 facet normal -0.942620 0.331955 -0.035696
  outer loop
   vertex 1349.998998 2136.867826 -1925.021935
   vertex 1345.646089 2124.233392 -1927.569095
   vertex 1249.998998 1963.667826 -895.021935
  endloop
 endfacet
 facet normal -0.892790 0.450340 -0.010952
  outer loop
   vertex 1339.656649 2112.296486 -1930.157848
   vertex 1239.656649 1939.096486 -900.157848
   vertex 1245.646089 1951.033392 -897.569095
  endloop
 endfacet
 facet normal -0.892790 0.450340 -0.010952
  outer loop
   vertex 1345.646089 2124.233392 -1927.569095
   vertex 1339.656649 2112.296486 -1930.157848
   vertex 1245.646089 1951.033392 -897.569095
  endloop
 endfacet
 facet normal -0.827685 0.561019 0.013981
  outer loop
   vertex 1332.133159 2101.261352 -1932.743901
   vertex 1232.133159 1928.061352 -902.743901
   vertex 1239.656649 1939.096486 -900.157848
  endloop
 endfacet
 facet normal -0.827685 0.561019 0.013981
  outer loop
   vertex 1339.656649 2112.296486 -1930.157848
   vertex 1332.133159 2101.261352 -1932.743901
   vertex 1239.656649 1939.096486 -900.157848
  endloop
 endfacet
 facet normal -0.748417 0.662100 0.038674
  outer loop
   vertex 1323.204347 2091.316804 -1935.283005
   vertex 1223.204347 1918.116804 -905.283005
   vertex 1232.133159 1928.061352 -902.743901
  endloop
 endfacet
 facet normal -0.748417 0.662100 0.038674
  outer loop
   vertex 1332.133159 2101.261352 -1932.743901
   vertex 1323.204347 2091.316804 -1935.283005
   vertex 1232.133159 1928.061352 -902.743901
  endloop
 endfacet
 facet normal -0.656344 0.751851 0.062705
  outer loop
   vertex 1313.022989 2082.632996 -1937.731715
   vertex 1213.022989 1909.432996 -907.731715
   vertex 1223.204347 1918.116804 -905.283005
  endloop
 endfacet
 facet normal -0.656344 0.751851 0.062705
  outer loop
   vertex 1323.204347 2091.316804 -1935.283005
   vertex 1313.022989 2082.632996 -1937.731715
   vertex 1223.204347 1918.116804 -905.283005
  endloop
 endfacet
 facet normal -0.553041 0.828738 0.085663
  outer loop
   vertex 1301.763290 2075.358510 -1940.048133
   vertex 1201.763290 1902.158510 -910.048133
   vertex 1213.022989 1909.432996 -907.731715
  endloop
 endfacet
 facet normal -0.553041 0.828738 0.085663
  outer loop
   vertex 1313.022989 2082.632996 -1937.731715
   vertex 1301.763290 2075.358510 -1940.048133
   vertex 1213.022989 1909.432996 -907.731715
  endloop
 endfacet
 facet normal -0.440275 0.891446 0.107156
  outer loop
   vertex 1289.617907 2069.617814 -1942.192625
   vertex 1189.617907 1896.417814 -912.192625
   vertex 1201.763290 1902.158510 -910.048133
  endloop
 endfacet
 facet normal -0.440275 0.891446 0.107156
  outer loop
   vertex 1301.763290 2075.358510 -1940.048133
   vertex 1289.617907 2069.617814 -1942.192625
   vertex 1201.763290 1902.158510 -910.048133
  endloop
 endfacet
 facet normal -0.319976 0.938900 0.126815
  outer loop
   vertex 1276.794651 2065.509135 -1944.128498
   vertex 1176.794651 1892.309135 -914.128498
   vertex 1189.617907 1896.417814 -912.192625
  endloop
 endfacet
 facet normal -0.319976 0.938900 0.126815
  outer loop
   vertex 1289.617907 2069.617814 -1942.192625
   vertex 1276.794651 2065.509135 -1944.128498
   vertex 1189.617907 1896.417814 -912.192625
  endloop
 endfacet
 facet normal -0.194202 0.970289 0.144305
  outer loop
   vertex 1263.512930 2063.102772 -1945.822628
   vertex 1163.512930 1889.902772 -915.822628
   vertex 1176.794651 1892.309135 -914.128498
  endloop
 endfacet
 facet normal -0.194202 0.970289 0.144305
  outer loop
   vertex 1276.794651 2065.509135 -1944.128498
   vertex 1263.512930 2063.102772 -1945.822628
   vertex 1176.794651 1892.309135 -914.128498
  endloop
 endfacet
 facet normal -0.065105 0.985077 0.159325
  outer loop
   vertex 1250.000000 2062.439898 -1947.246029
   vertex 1150.000000 1889.239898 -917.246029
   vertex 1163.512930 1889.902772 -915.822628
  endloop
 endfacet
 facet normal -0.065105 0.985077 0.159325
  outer loop
   vertex 1263.512930 2063.102772 -1945.822628
   vertex 1250.000000 2062.439898 -1947.246029
   vertex 1163.512930 1889.902772 -915.822628
  endloop
 endfacet
 facet normal 0.065105 0.983010 0.171619
  outer loop
   vertex 1236.487070 2063.531856 -1948.374345
   vertex 1136.487070 1890.331856 -918.374345
   vertex 1150.000000 1889.239898 -917.246029
  endloop
 endfacet
 facet normal 0.065105 0.983010 0.171619
  outer loop
   vertex 1250.000000 2062.439898 -1947.246029
   vertex 1236.487070 2063.531856 -1948.374345
   vertex 1150.000000 1889.239898 -917.246029
  endloop
 endfacet
 facet normal 0.194202 0.964123 0.180977
  outer loop
   vertex 1223.205349 2066.359963 -1949.188271
   vertex 1123.205349 1893.159963 -919.188271
   vertex 1136.487070 1890.331856 -918.374345
  endloop
 endfacet
 facet normal 0.194202 0.964123 0.180977
  outer loop
   vertex 1236.487070 2063.531856 -1948.374345
   vertex 1223.205349 2066.359963 -1949.188271
   vertex 1136.487070 1890.331856 -918.374345
  endloop
 endfacet
 facet normal 0.319976 0.928740 0.187238
  outer loop
   vertex 1210.382093 2070.875828 -1949.673881
   vertex 1110.382093 1897.675828 -919.673881
   vertex 1123.205349 1893.159963 -919.188271
  endloop
 endfacet
 facet normal 0.319976 0.928740 0.187238
  outer loop
   vertex 1223.205349 2066.359963 -1949.188271
   vertex 1210.382093 2070.875828 -1949.673881
   vertex 1123.205349 1893.159963 -919.188271
  endloop
 endfacet
 facet normal 0.440275 0.877465 0.190296
  outer loop
   vertex 1198.236710 2077.002183 -1949.822865
   vertex 1098.236710 1903.802183 -919.822865
   vertex 1110.382093 1897.675828 -919.673881
  endloop
 endfacet
 facet normal 0.440275 0.877465 0.190296
  outer loop
   vertex 1210.382093 2070.875828 -1949.673881
   vertex 1198.236710 2077.002183 -1949.822865
   vertex 1110.382093 1897.675828 -919.673881
  endloop
 endfacet
 facet normal 0.553041 0.811177 0.190097
  outer loop
   vertex 1186.977011 2084.634206 -1949.632674
   vertex 1086.977011 1911.434206 -919.632674
   vertex 1098.236710 1903.802183 -919.822865
  endloop
 endfacet
 facet normal 0.553041 0.811177 0.190097
  outer loop
   vertex 1198.236710 2077.002183 -1949.822865
   vertex 1186.977011 2084.634206 -1949.632674
   vertex 1098.236710 1903.802183 -919.822865
  endloop
 endfacet
 facet normal 0.656344 0.731010 0.186646
  outer loop
   vertex 1176.795653 2093.641309 -1949.106563
   vertex 1076.795653 1920.441309 -919.106563
   vertex 1086.977011 1911.434206 -919.632674
  endloop
 endfacet
 facet normal 0.656344 0.731010 0.186646
  outer loop
   vertex 1186.977011 2084.634206 -1949.632674
   vertex 1176.795653 2093.641309 -1949.106563
   vertex 1086.977011 1911.434206 -919.632674
  endloop
 endfacet
 facet normal 0.748417 0.638335 0.180001
  outer loop
   vertex 1167.866841 2103.869380 -1948.253533
   vertex 1067.866841 1930.669380 -918.253533
   vertex 1076.795653 1920.441309 -919.106563
  endloop
 endfacet
 facet normal 0.748417 0.638335 0.180001
  outer loop
   vertex 1176.795653 2093.641309 -1949.106563
   vertex 1167.866841 2103.869380 -1948.253533
   vertex 1076.795653 1920.441309 -919.106563
  endloop
 endfacet
 facet normal 0.827685 0.534737 0.170277
  outer loop
   vertex 1160.343351 2115.143412 -1947.088181
   vertex 1060.343351 1941.943412 -917.088181
   vertex 1067.866841 1930.669380 -918.253533
  endloop
 endfacet
 facet normal 0.827685 0.534737 0.170277
  outer loop
   vertex 1167.866841 2103.869380 -1948.253533
   vertex 1160.343351 2115.143412 -1947.088181
   vertex 1067.866841 1930.669380 -918.253533
  endloop
 endfacet
 facet normal 0.892790 0.421990 0.157639
  outer loop
   vertex 1154.353911 2127.270504 -1945.630444
   vertex 1054.353911 1954.070504 -915.630444
   vertex 1060.343351 1941.943412 -917.088181
  endloop
 endfacet
 facet normal 0.892790 0.421990 0.157639
  outer loop
   vertex 1160.343351 2115.143412 -1947.088181
   vertex 1154.353911 2127.270504 -1945.630444
   vertex 1060.343351 1941.943412 -917.088181
  endloop
 endfacet
 facet normal 0.942620 0.302023 0.142303
  outer loop
   vertex 1150.001002 2140.043159 -1943.905267
   vertex 1050.001002 1966.843159 -913.905267
   vertex 1054.353911 1954.070504 -915.630444
  endloop
 endfacet
 facet normal 0.942620 0.302023 0.142303
  outer loop
   vertex 1154.353911 2127.270504 -1945.630444
   vertex 1150.001002 2140.043159 -1943.905267
   vertex 1054.353911 1954.070504 -915.630444
  endloop
 endfacet
 facet normal 0.976321 0.176888 0.124533
  outer loop
   vertex 1147.359103 2153.242832 -1941.942166
   vertex 1047.359103 1980.042832 -911.942166
   vertex 1050.001002 1966.843159 -913.905267
  endloop
 endfacet
 facet normal 0.976321 0.176888 0.124533
  outer loop
   vertex 1150.001002 2140.043159 -1943.905267
   vertex 1147.359103 2153.242832 -1941.942166
   vertex 1050.001002 1966.843159 -913.905267
  endloop
 endfacet
 facet normal 0.993317 0.048727 0.104632
  outer loop
   vertex 1146.473419 2166.643673 -1939.774732
   vertex 1046.473419 1993.443673 -909.774732
   vertex 1047.359103 1980.042832 -911.942166
  endloop
 endfacet
 facet normal 0.993317 0.048727 0.104632
  outer loop
   vertex 1147.359103 2153.242832 -1941.942166
   vertex 1146.473419 2166.643673 -1939.774732
   vertex 1047.359103 1980.042832 -911.942166
  endloop
 endfacet
 facet normal 0.993317 -0.080268 0.082941
  outer loop
   vertex 1147.359103 2180.016391 -1937.440049
   vertex 1047.359103 2006.816391 -907.440049
   vertex 1046.473419 1993.443673 -909.774732
  endloop
 endfacet
 facet normal 0.993317 -0.080268 0.082941
  outer loop
   vertex 1146.473419 2166.643673 -1939.774732
   vertex 1147.359103 2180.016391 -1937.440049
   vertex 1046.473419 1993.443673 -909.774732
  endloop
 endfacet
 facet normal 0.976321 -0.207890 0.059831
  outer loop
   vertex 1150.001002 2193.132174 -1934.978065
   vertex 1050.001002 2019.932174 -904.978065
   vertex 1047.359103 2006.816391 -907.440049
  endloop
 endfacet
 facet normal 0.976321 -0.207890 0.059831
  outer loop
   vertex 1147.359103 2180.016391 -1937.440049
   vertex 1150.001002 2193.132174 -1934.978065
   vertex 1047.359103 2006.816391 -907.440049
  endloop
 endfacet
 facet normal 0.942620 -0.331955 0.035696
  outer loop
   vertex 1154.353911 2205.766608 -1932.430905
   vertex 1054.353911 2032.566608 -902.430905
   vertex 1050.001002 2019.932174 -904.978065
  endloop
 endfacet
 facet normal 0.942620 -0.331955 0.035696
  outer loop
   vertex 1150.001002 2193.132174 -1934.978065
   vertex 1154.353911 2205.766608 -1932.430905
   vertex 1050.001002 2019.932174 -904.978065
  endloop
 endfacet
 facet normal 0.892790 -0.450340 0.010952
  outer loop
   vertex 1160.343351 2217.703514 -1929.842152
   vertex 1060.343351 2044.503514 -899.842152
   vertex 1054.353911 2032.566608 -902.430905
  endloop
 endfacet
 facet normal 0.892790 -0.450340 0.010952
  outer loop
   vertex 1154.353911 2205.766608 -1932.430905
   vertex 1160.343351 2217.703514 -1929.842152
   vertex 1054.353911 2032.566608 -902.430905
  endloop
 endfacet
 facet normal 0.827685 -0.561019 -0.013981
  outer loop
   vertex 1167.866841 2228.738648 -1927.256099
   vertex 1067.866841 2055.538648 -897.256099
   vertex 1060.343351 2044.503514 -899.842152
  endloop
 endfacet
 facet normal 0.827685 -0.561019 -0.013981
  outer loop
   vertex 1160.343351 2217.703514 -1929.842152
   vertex 1167.866841 2228.738648 -1927.256099
   vertex 1060.343351 2044.503514 -899.842152
  endloop
 endfacet
 facet normal 0.748417 -0.662100 -0.038674
  outer loop
   vertex 1176.795653 2238.683196 -1924.716995
   vertex 1076.795653 2065.483196 -894.716995
   vertex 1067.866841 2055.538648 -897.256099
  endloop
 endfacet
 facet normal 0.748417 -0.662100 -0.038674
  outer loop
   vertex 1167.866841 2228.738648 -1927.256099
   vertex 1176.795653 2238.683196 -1924.716995
   vertex 1067.866841 2055.538648 -897.256099
  endloop
 endfacet
 facet normal 0.656344 -0.751851 -0.062705
  outer loop
   vertex 1186.977011 2247.367004 -1922.268285
   vertex 1086.977011 2074.167004 -892.268285
   vertex 1076.795653 2065.483196 -894.716995
  endloop
 endfacet
 facet normal 0.656344 -0.751851 -0.062705
  outer loop
   vertex 1176.795653 2238.683196 -1924.716995
   vertex 1186.977011 2247.367004 -1922.268285
   vertex 1076.795653 2065.483196 -894.716995
  endloop
 endfacet
 facet normal 0.553041 -0.828738 -0.085663
  outer loop
   vertex 1198.236710 2254.641490 -1919.951867
   vertex 1098.236710 2081.441490 -889.951867
   vertex 1086.977011 2074.167004 -892.268285
  endloop
 endfacet
 facet normal 0.553041 -0.828738 -0.085663
  outer loop
   vertex 1186.977011 2247.367004 -1922.268285
   vertex 1198.236710 2254.641490 -1919.951867
   vertex 1086.977011 2074.167004 -892.268285
  endloop
 endfacet
 facet normal 0.440275 -0.891446 -0.107156
  outer loop
   vertex 1210.382093 2260.382186 -1917.807375
   vertex 1110.382093 2087.182186 -887.807375
   vertex 1098.236710 2081.441490 -889.951867
  endloop
 endfacet
 facet normal 0.440275 -0.891446 -0.107156
  outer loop
   vertex 1198.236710 2254.641490 -1919.951867
   vertex 1210.382093 2260.382186 -1917.807375
   vertex 1098.236710 2081.441490 -889.951867
  endloop
 endfacet
 facet normal 0.319976 -0.938900 -0.126815
  outer loop
   vertex 1223.205349 2264.490865 -1915.871502
   vertex 1123.205349 2091.290865 -885.871502
   vertex 1110.382093 2087.182186 -887.807375
  endloop
 endfacet
 facet normal 0.319976 -0.938900 -0.126815
  outer loop
   vertex 1210.382093 2260.382186 -1917.807375
   vertex 1223.205349 2264.490865 -1915.871502
   vertex 1110.382093 2087.182186 -887.807375
  endloop
 endfacet
 facet normal 0.194202 -0.970289 -0.144305
  outer loop
   vertex 1236.487070 2266.897228 -1914.177372
   vertex 1136.487070 2093.697228 -884.177372
   vertex 1123.205349 2091.290865 -885.871502
  endloop
 endfacet
 facet normal 0.194202 -0.970289 -0.144305
  outer loop
   vertex 1223.205349 2264.490865 -1915.871502
   vertex 1236.487070 2266.897228 -1914.177372
   vertex 1123.205349 2091.290865 -885.871502
  endloop
 endfacet
 facet normal 0.065105 -0.985077 -0.159325
  outer loop
   vertex 1250.000000 2267.560102 -1912.753971
   vertex 1150.000000 2094.360102 -882.753971
   vertex 1136.487070 2093.697228 -884.177372
  endloop
 endfacet
 facet normal 0.065105 -0.985077 -0.159325
  outer loop
   vertex 1236.487070 2266.897228 -1914.177372
   vertex 1250.000000 2267.560102 -1912.753971
   vertex 1136.487070 2093.697228 -884.177372
  endloop
 endfacet
endsolid SIC_RP1_DROP_4
