solid SIC_RP1_STUB
 facet normal -0.896831 -0.058781 -0.438451
  outer loop
   vertex -1250.000000 -2165.000000 -650.000000
   vertex -1031.882130 -2136.284238 -1100.000000
   vertex -1030.000000 -2165.000000 -1100.000000
  endloop
 endfacet
 facet normal -0.881486 -0.175338 -0.438451
  outer loop
   vertex -1250.000000 -2165.000000 -650.000000
   vertex -1037.496318 -2108.059810 -1100.000000
   vertex -1031.882130 -2136.284238 -1100.000000
  endloop
 endfacet
 facet normal -0.851058 -0.288895 -0.438451
  outer loop
   vertex -1250.000000 -2165.000000 -650.000000
   vertex -1046.746503 -2080.809645 -1100.000000
   vertex -1037.496318 -2108.059810 -1100.000000
  endloop
 endfacet
 facet normal -0.806069 -0.397509 -0.438451
  outer loop
   vertex -1250.000000 -2165.000000 -650.000000
   vertex -1059.474411 -2055.000000 -1100.000000
   vertex -1046.746503 -2080.809645 -1100.000000
  endloop
 endfacet
 facet normal -0.747288 -0.499322 -0.438451
  outer loop
   vertex -1250.000000 -2165.000000 -650.000000
   vertex -1075.462265 -2031.072486 -1100.000000
   vertex -1059.474411 -2055.000000 -1100.000000
  endloop
 endfacet
 facet normal -0.675720 -0.592591 -0.438451
  outer loop
   vertex -1250.000000 -2165.000000 -650.000000
   vertex -1094.436508 -2009.436508 -1100.000000
   vertex -1075.462265 -2031.072486 -1100.000000
  endloop
 endfacet
 facet normal -0.592591 -0.675720 -0.438451
  outer loop
   vertex -1250.000000 -2165.000000 -650.000000
   vertex -1116.072486 -1990.462265 -1100.000000
   vertex -1094.436508 -2009.436508 -1100.000000
  endloop
 endfacet
 facet normal -0.499322 -0.747288 -0.438451
  outer loop
   vertex -1250.000000 -2165.000000 -650.000000
   vertex -1140.000000 -1974.474411 -1100.000000
   vertex -1116.072486 -1990.462265 -1100.000000
  endloop
 endfacet
 facet normal -0.397509 -0.806069 -0.438451
  outer loop
   vertex -1250.000000 -2165.000000 -650.000000
   vertex -1165.809645 -1961.746503 -1100.000000
   vertex -1140.000000 -1974.474411 -1100.000000
  endloop
 endfacet
 facet normal -0.288895 -0.851058 -0.438451
  outer loop
   vertex -1250.000000 -2165.000000 -650.000000
   vertex -1193.059810 -1952.496318 -1100.000000
   vertex -1165.809645 -1961.746503 -1100.000000
  endloop
 endfacet
 facet normal -0.175338 -0.881486 -0.438451
  outer loop
   vertex -1250.000000 -2165.000000 -650.000000
   vertex -1221.284238 -1946.882130 -1100.000000
   vertex -1193.059810 -1952.496318 -1100.000000
  endloop
 endfacet
 facet normal -0.058781 -0.896831 -0.438451
  outer loop
   vertex -1250.000000 -2165.000000 -650.000000
   vertex -1250.000000 -1945.000000 -1100.000000
   vertex -1221.284238 -1946.882130 -1100.000000
  endloop
 endfacet
 facet normal 0.058781 -0.896831 -0.438451
  outer loop
   vertex -1250.000000 -2165.000000 -650.000000
   vertex -1278.715762 -1946.882130 -1100.000000
   vertex -1250.000000 -1945.000000 -1100.000000
  endloop
 endfacet
 facet normal 0.175338 -0.881486 -0.438451
  outer loop
   vertex -1250.000000 -2165.000000 -650.000000
   vertex -1306.940190 -1952.496318 -1100.000000
   vertex -1278.715762 -1946.882130 -1100.000000
  endloop
 endfacet
 facet normal 0.288895 -0.851058 -0.438451
  outer loop
   vertex -1250.000000 -2165.000000 -650.000000
   vertex -1334.190355 -1961.746503 -1100.000000
   vertex -1306.940190 -1952.496318 -1100.000000
  endloop
 endfacet
 facet normal 0.397509 -0.806069 -0.438451
  outer loop
   vertex -1250.000000 -2165.000000 -650.000000
   vertex -1360.000000 -1974.474411 -1100.000000
   vertex -1334.190355 -1961.746503 -1100.000000
  endloop
 endfacet
 facet normal 0.499322 -0.747288 -0.438451
  outer loop
   vertex -1250.000000 -2165.000000 -650.000000
   vertex -1383.927514 -1990.462265 -1100.000000
   vertex -1360.000000 -1974.474411 -1100.000000
  endloop
 endfacet
 facet normal 0.592591 -0.675720 -0.438451
  outer loop
   vertex -1250.000000 -2165.000000 -650.000000
   vertex -1405.563492 -2009.436508 -1100.000000
   vertex -1383.927514 -1990.462265 -1100.000000
  endloop
 endfacet
 facet normal 0.675720 -0.592591 -0.438451
  outer loop
   vertex -1250.000000 -2165.000000 -650.000000
   vertex -1424.537735 -2031.072486 -1100.000000
   vertex -1405.563492 -2009.436508 -1100.000000
  endloop
 endfacet
 facet normal 0.747288 -0.499322 -0.438451
  outer loop
   vertex -1250.000000 -2165.000000 -650.000000
   vertex -1440.525589 -2055.000000 -1100.000000
   vertex -1424.537735 -2031.072486 -1100.000000
  endloop
 endfacet
 facet normal 0.806069 -0.397509 -0.438451
  outer loop
   vertex -1250.000000 -2165.000000 -650.000000
   vertex -1453.253497 -2080.809645 -1100.000000
   vertex -1440.525589 -2055.000000 -1100.000000
  endloop
 endfacet
 facet normal 0.851058 -0.288895 -0.438451
  outer loop
   vertex -1250.000000 -2165.000000 -650.000000
   vertex -1462.503682 -2108.059810 -1100.000000
   vertex -1453.253497 -2080.809645 -1100.000000
  endloop
 endfacet
 facet normal 0.881486 -0.175338 -0.438451
  outer loop
   vertex -1250.000000 -2165.000000 -650.000000
   vertex -1468.117870 -2136.284238 -1100.000000
   vertex -1462.503682 -2108.059810 -1100.000000
  endloop
 endfacet
 facet normal 0.896831 -0.058781 -0.438451
  outer loop
   vertex -1250.000000 -2165.000000 -650.000000
   vertex -1470.000000 -2165.000000 -1100.000000
   vertex -1468.117870 -2136.284238 -1100.000000
  endloop
 endfacet
 facet normal 0.896831 0.058781 -0.438451
  outer loop
   vertex -1250.000000 -2165.000000 -650.000000
   vertex -1468.117870 -2193.715762 -1100.000000
   vertex -1470.000000 -2165.000000 -1100.000000
  endloop
 endfacet
 facet normal 0.881486 0.175338 -0.438451
  outer loop
   vertex -1250.000000 -2165.000000 -650.000000
   vertex -1462.503682 -2221.940190 -1100.000000
   vertex -1468.117870 -2193.715762 -1100.000000
  endloop
 endfacet
 facet normal 0.851058 0.288895 -0.438451
  outer loop
   vertex -1250.000000 -2165.000000 -650.000000
   vertex -1453.253497 -2249.190355 -1100.000000
   vertex -1462.503682 -2221.940190 -1100.000000
  endloop
 endfacet
 facet normal 0.806069 0.397509 -0.438451
  outer loop
   vertex -1250.000000 -2165.000000 -650.000000
   vertex -1440.525589 -2275.000000 -1100.000000
   vertex -1453.253497 -2249.190355 -1100.000000
  endloop
 endfacet
 facet normal 0.747288 0.499322 -0.438451
  outer loop
   vertex -1250.000000 -2165.000000 -650.000000
   vertex -1424.537735 -2298.927514 -1100.000000
   vertex -1440.525589 -2275.000000 -1100.000000
  endloop
 endfacet
 facet normal 0.675720 0.592591 -0.438451
  outer loop
   vertex -1250.000000 -2165.000000 -650.000000
   vertex -1405.563492 -2320.563492 -1100.000000
   vertex -1424.537735 -2298.927514 -1100.000000
  endloop
 endfacet
 facet normal 0.592591 0.675720 -0.438451
  outer loop
   vertex -1250.000000 -2165.000000 -650.000000
   vertex -1383.927514 -2339.537735 -1100.000000
   vertex -1405.563492 -2320.563492 -1100.000000
  endloop
 endfacet
 facet normal 0.499322 0.747288 -0.438451
  outer loop
   vertex -1250.000000 -2165.000000 -650.000000
   vertex -1360.000000 -2355.525589 -1100.000000
   vertex -1383.927514 -2339.537735 -1100.000000
  endloop
 endfacet
 facet normal 0.397509 0.806069 -0.438451
  outer loop
   vertex -1250.000000 -2165.000000 -650.000000
   vertex -1334.190355 -2368.253497 -1100.000000
   vertex -1360.000000 -2355.525589 -1100.000000
  endloop
 endfacet
 facet normal 0.288895 0.851058 -0.438451
  outer loop
   vertex -1250.000000 -2165.000000 -650.000000
   vertex -1306.940190 -2377.503682 -1100.000000
   vertex -1334.190355 -2368.253497 -1100.000000
  endloop
 endfacet
 facet normal 0.175338 0.881486 -0.438451
  outer loop
   vertex -1250.000000 -2165.000000 -650.000000
   vertex -1278.715762 -2383.117870 -1100.000000
   vertex -1306.940190 -2377.503682 -1100.000000
  endloop
 endfacet
 facet normal 0.058781 0.896831 -0.438451
  outer loop
   vertex -1250.000000 -2165.000000 -650.000000
   vertex -1250.000000 -2385.000000 -1100.000000
   vertex -1278.715762 -2383.117870 -1100.000000
  endloop
 endfacet
 facet normal -0.058781 0.896831 -0.438451
  outer loop
   vertex -1250.000000 -2165.000000 -650.000000
   vertex -1221.284238 -2383.117870 -1100.000000
   vertex -1250.000000 -2385.000000 -1100.000000
  endloop
 endfacet
 facet normal -0.175338 0.881486 -0.438451
  outer loop
   vertex -1250.000000 -2165.000000 -650.000000
   vertex -1193.059810 -2377.503682 -1100.000000
   vertex -1221.284238 -2383.117870 -1100.000000
  endloop
 endfacet
 facet normal -0.288895 0.851058 -0.438451
  outer loop
   vertex -1250.000000 -2165.000000 -650.000000
   vertex -1165.809645 -2368.253497 -1100.000000
   vertex -1193.059810 -2377.503682 -1100.000000
  endloop
 endfacet
 facet normal -0.397509 0.806069 -0.438451
  outer loop
   vertex -1250.000000 -2165.000000 -650.000000
   vertex -1140.000000 -2355.525589 -1100.000000
   vertex -1165.809645 -2368.253497 -1100.000000
  endloop
 endfacet
 facet normal -0.499322 0.747288 -0.438451
  outer loop
   vertex -1250.000000 -2165.000000 -650.000000
   vertex -1116.072486 -2339.537735 -1100.000000
   vertex -1140.000000 -2355.525589 -1100.000000
  endloop
 endfacet
 facet normal -0.592591 0.675720 -0.438451
  outer loop
   vertex -1250.000000 -2165.000000 -650.000000
   vertex -1094.436508 -2320.563492 -1100.000000
   vertex -1116.072486 -2339.537735 -1100.000000
  endloop
 endfacet
 facet normal -0.675720 0.592591 -0.438451
  outer loop
   vertex -1250.000000 -2165.000000 -650.000000
   vertex -1075.462265 -2298.927514 -1100.000000
   vertex -1094.436508 -2320.563492 -1100.000000
  endloop
 endfacet
 facet normal -0.747288 0.499322 -0.438451
  outer loop
   vertex -1250.000000 -2165.000000 -650.000000
   vertex -1059.474411 -2275.000000 -1100.000000
   vertex -1075.462265 -2298.927514 -1100.000000
  endloop
 endfacet
 facet normal -0.806069 0.397509 -0.438451
  outer loop
   vertex -1250.000000 -2165.000000 -650.000000
   vertex -1046.746503 -2249.190355 -1100.000000
   vertex -1059.474411 -2275.000000 -1100.000000
  endloop
 endfacet
 facet normal -0.851058 0.288895 -0.438451
  outer loop
   vertex -1250.000000 -2165.000000 -650.000000
   vertex -1037.496318 -2221.940190 -1100.000000
   vertex -1046.746503 -2249.190355 -1100.000000
  endloop
 endfacet
 facet normal -0.881486 0.175338 -0.438451
  outer loop
   vertex -1250.000000 -2165.000000 -650.000000
   vertex -1031.882130 -2193.715762 -1100.000000
   vertex -1037.496318 -2221.940190 -1100.000000
  endloop
 endfacet
 facet normal -0.896831 0.058781 -0.438451
  outer loop
   vertex -1250.000000 -2165.000000 -650.000000
   vertex -1030.000000 -2165.000000 -1100.000000
   vertex -1031.882130 -2193.715762 -1100.000000
  endloop
 endfacet
endsolid SIC_RP1_STUB
