solid SIC_RP1_ELBOW_2
 facet normal 0.065403 0.997859 0.000000
  outer loop
   vertex 0.000000 120.000000 -520.000000
   vertex 15.663143 118.973383 -520.000000
   vertex 15.663143 118.973383 -900.000000
  endloop
 endfacet
 facet normal 0.065403 0.997859 0.000000
  outer loop
   vertex 0.000000 120.000000 -520.000000
   vertex 15.663143 118.973383 -900.000000
   vertex 0.000000 120.000000 -900.000000
  endloop
 endfacet
 facet normal 0.195090 0.980785 0.000000
  outer loop
   vertex 15.663143 118.973383 -520.000000
   vertex 31.058285 115.911099 -520.000000
   vertex 31.058285 115.911099 -900.000000
  endloop
 endfacet
 facet normal 0.195090 0.980785 0.000000
  outer loop
   vertex 15.663143 118.973383 -520.000000
   vertex 31.058285 115.911099 -900.000000
   vertex 15.663143 118.973383 -900.000000
  endloop
 endfacet
 facet normal 0.321439 0.946930 0.000000
  outer loop
   vertex 31.058285 115.911099 -520.000000
   vertex 45.922012 110.865544 -520.000000
   vertex 45.922012 110.865544 -900.000000
  endloop
 endfacet
 facet normal 0.321439 0.946930 0.000000
  outer loop
   vertex 31.058285 115.911099 -520.000000
   vertex 45.922012 110.865544 -900.000000
   vertex 31.058285 115.911099 -900.000000
  endloop
 endfacet
 facet normal 0.442289 0.896873 0.000000
  outer loop
   vertex 45.922012 110.865544 -520.000000
   vertex 60.000000 103.923048 -520.000000
   vertex 60.000000 103.923048 -900.000000
  endloop
 endfacet
 facet normal 0.442289 0.896873 0.000000
  outer loop
   vertex 45.922012 110.865544 -520.000000
   vertex 60.000000 103.923048 -900.000000
   vertex 45.922012 110.865544 -900.000000
  endloop
 endfacet
 facet normal 0.555570 0.831470 0.000000
  outer loop
   vertex 60.000000 103.923048 -520.000000
   vertex 73.051371 95.202401 -520.000000
   vertex 73.051371 95.202401 -900.000000
  endloop
 endfacet
 facet normal 0.555570 0.831470 0.000000
  outer loop
   vertex 60.000000 103.923048 -520.000000
   vertex 73.051371 95.202401 -900.000000
   vertex 60.000000 103.923048 -900.000000
  endloop
 endfacet
 facet normal 0.659346 0.751840 0.000000
  outer loop
   vertex 73.051371 95.202401 -520.000000
   vertex 84.852814 84.852814 -520.000000
   vertex 84.852814 84.852814 -900.000000
  endloop
 endfacet
 facet normal 0.659346 0.751840 0.000000
  outer loop
   vertex 73.051371 95.202401 -520.000000
   vertex 84.852814 84.852814 -900.000000
   vertex 73.051371 95.202401 -900.000000
  endloop
 endfacet
 facet normal 0.751840 0.659346 0.000000
  outer loop
   vertex 84.852814 84.852814 -520.000000
   vertex 95.202401 73.051371 -520.000000
   vertex 95.202401 73.051371 -900.000000
  endloop
 endfacet
 facet normal 0.751840 0.659346 0.000000
  outer loop
   vertex 84.852814 84.852814 -520.000000
   vertex 95.202401 73.051371 -900.000000
   vertex 84.852814 84.852814 -900.000000
  endloop
 endfacet
 facet normal 0.831470 0.555570 0.000000
  outer loop
   vertex 95.202401 73.051371 -520.000000
   vertex 103.923048 60.000000 -520.000000
   vertex 103.923048 60.000000 -900.000000
  endloop
 endfacet
 facet normal 0.831470 0.555570 0.000000
  outer loop
   vertex 95.202401 73.051371 -520.000000
   vertex 103.923048 60.000000 -900.000000
   vertex 95.202401 73.051371 -900.000000
  endloop
 endfacet
 facet normal 0.896873 0.442289 0.000000
  outer loop
   vertex 103.923048 60.000000 -520.000000
   vertex 110.865544 45.922012 -520.000000
   vertex 110.865544 45.922012 -900.000000
  endloop
 endfacet
 facet normal 0.896873 0.442289 0.000000
  outer loop
   vertex 103.923048 60.000000 -520.000000
   vertex 110.865544 45.922012 -900.000000
   vertex 103.923048 60.000000 -900.000000
  endloop
 endfacet
 facet normal 0.946930 0.321439 0.000000
  outer loop
   vertex 110.865544 45.922012 -520.000000
   vertex 115.911099 31.058285 -520.000000
   vertex 115.911099 31.058285 -900.000000
  endloop
 endfacet
 facet normal 0.946930 0.321439 0.000000
  outer loop
   vertex 110.865544 45.922012 -520.000000
   vertex 115.911099 31.058285 -900.000000
   vertex 110.865544 45.922012 -900.000000
  endloop
 endfacet
 facet normal 0.980785 0.195090 0.000000
  outer loop
   vertex 115.911099 31.058285 -520.000000
   vertex 118.973383 15.663143 -520.000000
   vertex 118.973383 15.663143 -900.000000
  endloop
 endfacet
 facet normal 0.980785 0.195090 0.000000
  outer loop
   vertex 115.911099 31.058285 -520.000000
   vertex 118.973383 15.663143 -900.000000
   vertex 115.911099 31.058285 -900.000000
  endloop
 endfacet
 facet normal 0.997859 0.065403 0.000000
  outer loop
   vertex 118.973383 15.663143 -520.000000
   vertex 120.000000 0.000000 -520.000000
   vertex 120.000000 0.000000 -900.000000
  endloop
 endfacet
 facet normal 0.997859 0.065403 0.000000
  outer loop
   vertex 118.973383 15.663143 -520.000000
   vertex 120.000000 0.000000 -900.000000
   vertex 118.973383 15.663143 -900.000000
  endloop
 endfacet
 facet normal 0.997859 -0.065403 0.000000
  outer loop
   vertex 120.000000 0.000000 -520.000000
   vertex 118.973383 -15.663143 -520.000000
   vertex 118.973383 -15.663143 -900.000000
  endloop
 endfacet
 facet normal 0.997859 -0.065403 0.000000
  outer loop
   vertex 120.000000 0.000000 -520.000000
   vertex 118.973383 -15.663143 -900.000000
   vertex 120.000000 0.000000 -900.000000
  endloop
 endfacet
 facet normal 0.980785 -0.195090 0.000000
  outer loop
   vertex 118.973383 -15.663143 -520.000000
   vertex 115.911099 -31.058285 -520.000000
   vertex 115.911099 -31.058285 -900.000000
  endloop
 endfacet
 facet normal 0.980785 -0.195090 0.000000
  outer loop
   vertex 118.973383 -15.663143 -520.000000
   vertex 115.911099 -31.058285 -900.000000
   vertex 118.973383 -15.663143 -900.000000
  endloop
 endfacet
 facet normal 0.946930 -0.321439 0.000000
  outer loop
   vertex 115.911099 -31.058285 -520.000000
   vertex 110.865544 -45.922012 -520.000000
   vertex 110.865544 -45.922012 -900.000000
  endloop
 endfacet
 facet normal 0.946930 -0.321439 0.000000
  outer loop
   vertex 115.911099 -31.058285 -520.000000
   vertex 110.865544 -45.922012 -900.000000
   vertex 115.911099 -31.058285 -900.000000
  endloop
 endfacet
 facet normal 0.896873 -0.442289 0.000000
  outer loop
   vertex 110.865544 -45.922012 -520.000000
   vertex 103.923048 -60.000000 -520.000000
   vertex 103.923048 -60.000000 -900.000000
  endloop
 endfacet
 facet normal 0.896873 -0.442289 0.000000
  outer loop
   vertex 110.865544 -45.922012 -520.000000
   vertex 103.923048 -60.000000 -900.000000
   vertex 110.865544 -45.922012 -900.000000
  endloop
 endfacet
 facet normal 0.831470 -0.555570 0.000000
  outer loop
   vertex 103.923048 -60.000000 -520.000000
   vertex 95.202401 -73.051371 -520.000000
   vertex 95.202401 -73.051371 -900.000000
  endloop
 endfacet
 facet normal 0.831470 -0.555570 0.000000
  outer loop
   vertex 103.923048 -60.000000 -520.000000
   vertex 95.202401 -73.051371 -900.000000
   vertex 103.923048 -60.000000 -900.000000
  endloop
 endfacet
 facet normal 0.751840 -0.659346 0.000000
  outer loop
   vertex 95.202401 -73.051371 -520.000000
   vertex 84.852814 -84.852814 -520.000000
   vertex 84.852814 -84.852814 -900.000000
  endloop
 endfacet
 facet normal 0.751840 -0.659346 0.000000
  outer loop
   vertex 95.202401 -73.051371 -520.000000
   vertex 84.852814 -84.852814 -900.000000
   vertex 95.202401 -73.051371 -900.000000
  endloop
 endfacet
 facet normal 0.659346 -0.751840 0.000000
  outer loop
   vertex 84.852814 -84.852814 -520.000000
   vertex 73.051371 -95.202401 -520.000000
   vertex 73.051371 -95.202401 -900.000000
  endloop
 endfacet
 facet normal 0.659346 -0.751840 0.000000
  outer loop
   vertex 84.852814 -84.852814 -520.000000
   vertex 73.051371 -95.202401 -900.000000
   vertex 84.852814 -84.852814 -900.000000
  endloop
 endfacet
 facet normal 0.555570 -0.831470 0.000000
  outer loop
   vertex 73.051371 -95.202401 -520.000000
   vertex 60.000000 -103.923048 -520.000000
   vertex 60.000000 -103.923048 -900.000000
  endloop
 endfacet
 facet normal 0.555570 -0.831470 0.000000
  outer loop
   vertex 73.051371 -95.202401 -520.000000
   vertex 60.000000 -103.923048 -900.000000
   vertex 73.051371 -95.202401 -900.000000
  endloop
 endfacet
 facet normal 0.442289 -0.896873 0.000000
  outer loop
   vertex 60.000000 -103.923048 -520.000000
   vertex 45.922012 -110.865544 -520.000000
   vertex 45.922012 -110.865544 -900.000000
  endloop
 endfacet
 facet normal 0.442289 -0.896873 0.000000
  outer loop
   vertex 60.000000 -103.923048 -520.000000
   vertex 45.922012 -110.865544 -900.000000
   vertex 60.000000 -103.923048 -900.000000
  endloop
 endfacet
 facet normal 0.321439 -0.946930 0.000000
  outer loop
   vertex 45.922012 -110.865544 -520.000000
   vertex 31.058285 -115.911099 -520.000000
   vertex 31.058285 -115.911099 -900.000000
  endloop
 endfacet
 facet normal 0.321439 -0.946930 0.000000
  outer loop
   vertex 45.922012 -110.865544 -520.000000
   vertex 31.058285 -115.911099 -900.000000
   vertex 45.922012 -110.865544 -900.000000
  endloop
 endfacet
 facet normal 0.195090 -0.980785 0.000000
  outer loop
   vertex 31.058285 -115.911099 -520.000000
   vertex 15.663143 -118.973383 -520.000000
   vertex 15.663143 -118.973383 -900.000000
  endloop
 endfacet
 facet normal 0.195090 -0.980785 0.000000
  outer loop
   vertex 31.058285 -115.911099 -520.000000
   vertex 15.663143 -118.973383 -900.000000
   vertex 31.058285 -115.911099 -900.000000
  endloop
 endfacet
 facet normal 0.065403 -0.997859 0.000000
  outer loop
   vertex 15.663143 -118.973383 -520.000000
   vertex 0.000000 -120.000000 -520.000000
   vertex 0.000000 -120.000000 -900.000000
  endloop
 endfacet
 facet normal 0.065403 -0.997859 0.000000
  outer loop
   vertex 15.663143 -118.973383 -520.000000
   vertex 0.000000 -120.000000 -900.000000
   vertex 15.663143 -118.973383 -900.000000
  endloop
 endfacet
 facet normal -0.065403 -0.997859 0.000000
  outer loop
   vertex 0.000000 -120.000000 -520.000000
   vertex -15.663143 -118.973383 -520.000000
   vertex -15.663143 -118.973383 -900.000000
  endloop
 endfacet
 facet normal -0.065403 -0.997859 -0.000000
  outer loop
   vertex 0.000000 -120.000000 -520.000000
   vertex -15.663143 -118.973383 -900.000000
   vertex 0.000000 -120.000000 -900.000000
  endloop
 endfacet
 facet normal -0.195090 -0.980785 0.000000
  outer loop
   vertex -15.663143 -118.973383 -520.000000
   vertex -31.058285 -115.911099 -520.000000
   vertex -31.058285 -115.911099 -900.000000
  endloop
 endfacet
 facet normal -0.195090 -0.980785 -0.000000
  outer loop
   vertex -15.663143 -118.973383 -520.000000
   vertex -31.058285 -115.911099 -900.000000
   vertex -15.663143 -118.973383 -900.000000
  endloop
 endfacet
 facet normal -0.321439 -0.946930 0.000000
  outer loop
   vertex -31.058285 -115.911099 -520.000000
   vertex -45.922012 -110.865544 -520.000000
   vertex -45.922012 -110.865544 -900.000000
  endloop
 endfacet
 facet normal -0.321439 -0.946930 -0.000000
  outer loop
   vertex -31.058285 -115.911099 -520.000000
   vertex -45.922012 -110.865544 -900.000000
   vertex -31.058285 -115.911099 -900.000000
  endloop
 endfacet
 facet normal -0.442289 -0.896873 0.000000
  outer loop
   vertex -45.922012 -110.865544 -520.000000
   vertex -60.000000 -103.923048 -520.000000
   vertex -60.000000 -103.923048 -900.000000
  endloop
 endfacet
 facet normal -0.442289 -0.896873 -0.000000
  outer loop
   vertex -45.922012 -110.865544 -520.000000
   vertex -60.000000 -103.923048 -900.000000
   vertex -45.922012 -110.865544 -900.000000
  endloop
 endfacet
 facet normal -0.555570 -0.831470 0.000000
  outer loop
   vertex -60.000000 -103.923048 -520.000000
   vertex -73.051371 -95.202401 -520.000000
   vertex -73.051371 -95.202401 -900.000000
  endloop
 endfacet
 facet normal -0.555570 -0.831470 -0.000000
  outer loop
   vertex -60.000000 -103.923048 -520.000000
   vertex -73.051371 -95.202401 -900.000000
   vertex -60.000000 -103.923048 -900.000000
  endloop
 endfacet
 facet normal -0.659346 -0.751840 0.000000
  outer loop
   vertex -73.051371 -95.202401 -520.000000
   vertex -84.852814 -84.852814 -520.000000
   vertex -84.852814 -84.852814 -900.000000
  endloop
 endfacet
 facet normal -0.659346 -0.751840 -0.000000
  outer loop
   vertex -73.051371 -95.202401 -520.000000
   vertex -84.852814 -84.852814 -900.000000
   vertex -73.051371 -95.202401 -900.000000
  endloop
 endfacet
 facet normal -0.751840 -0.659346 0.000000
  outer loop
   vertex -84.852814 -84.852814 -520.000000
   vertex -95.202401 -73.051371 -520.000000
   vertex -95.202401 -73.051371 -900.000000
  endloop
 endfacet
 facet normal -0.751840 -0.659346 -0.000000
  outer loop
   vertex -84.852814 -84.852814 -520.000000
   vertex -95.202401 -73.051371 -900.000000
   vertex -84.852814 -84.852814 -900.000000
  endloop
 endfacet
 facet normal -0.831470 -0.555570 0.000000
  outer loop
   vertex -95.202401 -73.051371 -520.000000
   vertex -103.923048 -60.000000 -520.000000
   vertex -103.923048 -60.000000 -900.000000
  endloop
 endfacet
 facet normal -0.831470 -0.555570 -0.000000
  outer loop
   vertex -95.202401 -73.051371 -520.000000
   vertex -103.923048 -60.000000 -900.000000
   vertex -95.202401 -73.051371 -900.000000
  endloop
 endfacet
 facet normal -0.896873 -0.442289 0.000000
  outer loop
   vertex -103.923048 -60.000000 -520.000000
   vertex -110.865544 -45.922012 -520.000000
   vertex -110.865544 -45.922012 -900.000000
  endloop
 endfacet
 facet normal -0.896873 -0.442289 -0.000000
  outer loop
   vertex -103.923048 -60.000000 -520.000000
   vertex -110.865544 -45.922012 -900.000000
   vertex -103.923048 -60.000000 -900.000000
  endloop
 endfacet
 facet normal -0.946930 -0.321439 0.000000
  outer loop
   vertex -110.865544 -45.922012 -520.000000
   vertex -115.911099 -31.058285 -520.000000
   vertex -115.911099 -31.058285 -900.000000
  endloop
 endfacet
 facet normal -0.946930 -0.321439 -0.000000
  outer loop
   vertex -110.865544 -45.922012 -520.000000
   vertex -115.911099 -31.058285 -900.000000
   vertex -110.865544 -45.922012 -900.000000
  endloop
 endfacet
 facet normal -0.980785 -0.195090 0.000000
  outer loop
   vertex -115.911099 -31.058285 -520.000000
   vertex -118.973383 -15.663143 -520.000000
   vertex -118.973383 -15.663143 -900.000000
  endloop
 endfacet
 facet normal -0.980785 -0.195090 -0.000000
  outer loop
   vertex -115.911099 -31.058285 -520.000000
   vertex -118.973383 -15.663143 -900.000000
   vertex -115.911099 -31.058285 -900.000000
  endloop
 endfacet
 facet normal -0.997859 -0.065403 0.000000
  outer loop
   vertex -118.973383 -15.663143 -520.000000
   vertex -120.000000 -0.000000 -520.000000
   vertex -120.000000 -0.000000 -900.000000
  endloop
 endfacet
 facet normal -0.997859 -0.065403 -0.000000
  outer loop
   vertex -118.973383 -15.663143 -520.000000
   vertex -120.000000 -0.000000 -900.000000
   vertex -118.973383 -15.663143 -900.000000
  endloop
 endfacet
 facet normal -0.997859 0.065403 0.000000
  outer loop
   vertex -120.000000 -0.000000 -520.000000
   vertex -118.973383 15.663143 -520.000000
   vertex -118.973383 15.663143 -900.000000
  endloop
 endfacet
 facet normal -0.997859 0.065403 0.000000
  outer loop
   vertex -120.000000 -0.000000 -520.000000
   vertex -118.973383 15.663143 -900.000000
   vertex -120.000000 -0.000000 -900.000000
  endloop
 endfacet
 facet normal -0.980785 0.195090 0.000000
  outer loop
   vertex -118.973383 15.663143 -520.000000
   vertex -115.911099 31.058285 -520.000000
   vertex -115.911099 31.058285 -900.000000
  endloop
 endfacet
 facet normal -0.980785 0.195090 0.000000
  outer loop
   vertex -118.973383 15.663143 -520.000000
   vertex -115.911099 31.058285 -900.000000
   vertex -118.973383 15.663143 -900.000000
  endloop
 endfacet
 facet normal -0.946930 0.321439 0.000000
  outer loop
   vertex -115.911099 31.058285 -520.000000
   vertex -110.865544 45.922012 -520.000000
   vertex -110.865544 45.922012 -900.000000
  endloop
 endfacet
 facet normal -0.946930 0.321439 0.000000
  outer loop
   vertex -115.911099 31.058285 -520.000000
   vertex -110.865544 45.922012 -900.000000
   vertex -115.911099 31.058285 -900.000000
  endloop
 endfacet
 facet normal -0.896873 0.442289 0.000000
  outer loop
   vertex -110.865544 45.922012 -520.000000
   vertex -103.923048 60.000000 -520.000000
   vertex -103.923048 60.000000 -900.000000
  endloop
 endfacet
 facet normal -0.896873 0.442289 0.000000
  outer loop
   vertex -110.865544 45.922012 -520.000000
   vertex -103.923048 60.000000 -900.000000
   vertex -110.865544 45.922012 -900.000000
  endloop
 endfacet
 facet normal -0.831470 0.555570 0.000000
  outer loop
   vertex -103.923048 60.000000 -520.000000
   vertex -95.202401 73.051371 -520.000000
   vertex -95.202401 73.051371 -900.000000
  endloop
 endfacet
 facet normal -0.831470 0.555570 0.000000
  outer loop
   vertex -103.923048 60.000000 -520.000000
   vertex -95.202401 73.051371 -900.000000
   vertex -103.923048 60.000000 -900.000000
  endloop
 endfacet
 facet normal -0.751840 0.659346 0.000000
  outer loop
   vertex -95.202401 73.051371 -520.000000
   vertex -84.852814 84.852814 -520.000000
   vertex -84.852814 84.852814 -900.000000
  endloop
 endfacet
 facet normal -0.751840 0.659346 0.000000
  outer loop
   vertex -95.202401 73.051371 -520.000000
   vertex -84.852814 84.852814 -900.000000
   vertex -95.202401 73.051371 -900.000000
  endloop
 endfacet
 facet normal -0.659346 0.751840 0.000000
  outer loop
   vertex -84.852814 84.852814 -520.000000
   vertex -73.051371 95.202401 -520.000000
   vertex -73.051371 95.202401 -900.000000
  endloop
 endfacet
 facet normal -0.659346 0.751840 0.000000
  outer loop
   vertex -84.852814 84.852814 -520.000000
   vertex -73.051371 95.202401 -900.000000
   vertex -84.852814 84.852814 -900.000000
  endloop
 endfacet
 facet normal -0.555570 0.831470 0.000000
  outer loop
   vertex -73.051371 95.202401 -520.000000
   vertex -60.000000 103.923048 -520.000000
   vertex -60.000000 103.923048 -900.000000
  endloop
 endfacet
 facet normal -0.555570 0.831470 0.000000
  outer loop
   vertex -73.051371 95.202401 -520.000000
   vertex -60.000000 103.923048 -900.000000
   vertex -73.051371 95.202401 -900.000000
  endloop
 endfacet
 facet normal -0.442289 0.896873 0.000000
  outer loop
   vertex -60.000000 103.923048 -520.000000
   vertex -45.922012 110.865544 -520.000000
   vertex -45.922012 110.865544 -900.000000
  endloop
 endfacet
 facet normal -0.442289 0.896873 0.000000
  outer loop
   vertex -60.000000 103.923048 -520.000000
   vertex -45.922012 110.865544 -900.000000
   vertex -60.000000 103.923048 -900.000000
  endloop
 endfacet
 facet normal -0.321439 0.946930 0.000000
  outer loop
   vertex -45.922012 110.865544 -520.000000
   vertex -31.058285 115.911099 -520.000000
   vertex -31.058285 115.911099 -900.000000
  endloop
 endfacet
 facet normal -0.321439 0.946930 0.000000
  outer loop
   vertex -45.922012 110.865544 -520.000000
   vertex -31.058285 115.911099 -900.000000
   vertex -45.922012 110.865544 -900.000000
  endloop
 endfacet
 facet normal -0.195090 0.980785 0.000000
  outer loop
   vertex -31.058285 115.911099 -520.000000
   vertex -15.663143 118.973383 -520.000000
   vertex -15.663143 118.973383 -900.000000
  endloop
 endfacet
 facet normal -0.195090 0.980785 0.000000
  outer loop
   vertex -31.058285 115.911099 -520.000000
   vertex -15.663143 118.973383 -900.000000
   vertex -31.058285 115.911099 -900.000000
  endloop
 endfacet
 facet normal -0.065403 0.997859 0.000000
  outer loop
   vertex -15.663143 118.973383 -520.000000
   vertex 0.000000 120.000000 -520.000000
   vertex 0.000000 120.000000 -900.000000
  endloop
 endfacet
 facet normal -0.065403 0.997859 0.000000
  outer loop
   vertex -15.663143 118.973383 -520.000000
   vertex 0.000000 120.000000 -900.000000
   vertex -15.663143 118.973383 -900.000000
  endloop
 endfacet
 facet normal -0.065403 -0.997859 0.000000
  outer loop
   vertex 13.574724 103.110266 -900.000000
   vertex 13.574724 103.110266 -520.000000
   vertex 0.000000 104.000000 -520.000000
  endloop
 endfacet
 facet normal -0.065403 -0.997859 0.000000
  outer loop
   vertex 0.000000 104.000000 -900.000000
   vertex 13.574724 103.110266 -900.000000
   vertex 0.000000 104.000000 -520.000000
  endloop
 endfacet
 facet normal -0.195090 -0.980785 0.000000
  outer loop
   vertex 26.917181 100.456286 -900.000000
   vertex 26.917181 100.456286 -520.000000
   vertex 13.574724 103.110266 -520.000000
  endloop
 endfacet
 facet normal -0.195090 -0.980785 0.000000
  outer loop
   vertex 13.574724 103.110266 -900.000000
   vertex 26.917181 100.456286 -900.000000
   vertex 13.574724 103.110266 -520.000000
  endloop
 endfacet
 facet normal -0.321439 -0.946930 0.000000
  outer loop
   vertex 39.799077 96.083471 -900.000000
   vertex 39.799077 96.083471 -520.000000
   vertex 26.917181 100.456286 -520.000000
  endloop
 endfacet
 facet normal -0.321439 -0.946930 0.000000
  outer loop
   vertex 26.917181 100.456286 -900.000000
   vertex 39.799077 96.083471 -900.000000
   vertex 26.917181 100.456286 -520.000000
  endloop
 endfacet
 facet normal -0.442289 -0.896873 0.000000
  outer loop
   vertex 52.000000 90.066642 -900.000000
   vertex 52.000000 90.066642 -520.000000
   vertex 39.799077 96.083471 -520.000000
  endloop
 endfacet
 facet normal -0.442289 -0.896873 0.000000
  outer loop
   vertex 39.799077 96.083471 -900.000000
   vertex 52.000000 90.066642 -900.000000
   vertex 39.799077 96.083471 -520.000000
  endloop
 endfacet
 facet normal -0.555570 -0.831470 0.000000
  outer loop
   vertex 63.311189 82.508747 -900.000000
   vertex 63.311189 82.508747 -520.000000
   vertex 52.000000 90.066642 -520.000000
  endloop
 endfacet
 facet normal -0.555570 -0.831470 0.000000
  outer loop
   vertex 52.000000 90.066642 -900.000000
   vertex 63.311189 82.508747 -900.000000
   vertex 52.000000 90.066642 -520.000000
  endloop
 endfacet
 facet normal -0.659346 -0.751840 0.000000
  outer loop
   vertex 73.539105 73.539105 -900.000000
   vertex 73.539105 73.539105 -520.000000
   vertex 63.311189 82.508747 -520.000000
  endloop
 endfacet
 facet normal -0.659346 -0.751840 0.000000
  outer loop
   vertex 63.311189 82.508747 -900.000000
   vertex 73.539105 73.539105 -900.000000
   vertex 63.311189 82.508747 -520.000000
  endloop
 endfacet
 facet normal -0.751840 -0.659346 0.000000
  outer loop
   vertex 82.508747 63.311189 -900.000000
   vertex 82.508747 63.311189 -520.000000
   vertex 73.539105 73.539105 -520.000000
  endloop
 endfacet
 facet normal -0.751840 -0.659346 0.000000
  outer loop
   vertex 73.539105 73.539105 -900.000000
   vertex 82.508747 63.311189 -900.000000
   vertex 73.539105 73.539105 -520.000000
  endloop
 endfacet
 facet normal -0.831470 -0.555570 0.000000
  outer loop
   vertex 90.066642 52.000000 -900.000000
   vertex 90.066642 52.000000 -520.000000
   vertex 82.508747 63.311189 -520.000000
  endloop
 endfacet
 facet normal -0.831470 -0.555570 0.000000
  outer loop
   vertex 82.508747 63.311189 -900.000000
   vertex 90.066642 52.000000 -900.000000
   vertex 82.508747 63.311189 -520.000000
  endloop
 endfacet
 facet normal -0.896873 -0.442289 0.000000
  outer loop
   vertex 96.083471 39.799077 -900.000000
   vertex 96.083471 39.799077 -520.000000
   vertex 90.066642 52.000000 -520.000000
  endloop
 endfacet
 facet normal -0.896873 -0.442289 0.000000
  outer loop
   vertex 90.066642 52.000000 -900.000000
   vertex 96.083471 39.799077 -900.000000
   vertex 90.066642 52.000000 -520.000000
  endloop
 endfacet
 facet normal -0.946930 -0.321439 0.000000
  outer loop
   vertex 100.456286 26.917181 -900.000000
   vertex 100.456286 26.917181 -520.000000
   vertex 96.083471 39.799077 -520.000000
  endloop
 endfacet
 facet normal -0.946930 -0.321439 0.000000
  outer loop
   vertex 96.083471 39.799077 -900.000000
   vertex 100.456286 26.917181 -900.000000
   vertex 96.083471 39.799077 -520.000000
  endloop
 endfacet
 facet normal -0.980785 -0.195090 0.000000
  outer loop
   vertex 103.110266 13.574724 -900.000000
   vertex 103.110266 13.574724 -520.000000
   vertex 100.456286 26.917181 -520.000000
  endloop
 endfacet
 facet normal -0.980785 -0.195090 0.000000
  outer loop
   vertex 100.456286 26.917181 -900.000000
   vertex 103.110266 13.574724 -900.000000
   vertex 100.456286 26.917181 -520.000000
  endloop
 endfacet
 facet normal -0.997859 -0.065403 0.000000
  outer loop
   vertex 104.000000 0.000000 -900.000000
   vertex 104.000000 0.000000 -520.000000
   vertex 103.110266 13.574724 -520.000000
  endloop
 endfacet
 facet normal -0.997859 -0.065403 0.000000
  outer loop
   vertex 103.110266 13.574724 -900.000000
   vertex 104.000000 0.000000 -900.000000
   vertex 103.110266 13.574724 -520.000000
  endloop
 endfacet
 facet normal -0.997859 0.065403 0.000000
  outer loop
   vertex 103.110266 -13.574724 -900.000000
   vertex 103.110266 -13.574724 -520.000000
   vertex 104.000000 0.000000 -520.000000
  endloop
 endfacet
 facet normal -0.997859 0.065403 0.000000
  outer loop
   vertex 104.000000 0.000000 -900.000000
   vertex 103.110266 -13.574724 -900.000000
   vertex 104.000000 0.000000 -520.000000
  endloop
 endfacet
 facet normal -0.980785 0.195090 0.000000
  outer loop
   vertex 100.456286 -26.917181 -900.000000
   vertex 100.456286 -26.917181 -520.000000
   vertex 103.110266 -13.574724 -520.000000
  endloop
 endfacet
 facet normal -0.980785 0.195090 0.000000
  outer loop
   vertex 103.110266 -13.574724 -900.000000
   vertex 100.456286 -26.917181 -900.000000
   vertex 103.110266 -13.574724 -520.000000
  endloop
 endfacet
 facet normal -0.946930 0.321439 0.000000
  outer loop
   vertex 96.083471 -39.799077 -900.000000
   vertex 96.083471 -39.799077 -520.000000
   vertex 100.456286 -26.917181 -520.000000
  endloop
 endfacet
 facet normal -0.946930 0.321439 0.000000
  outer loop
   vertex 100.456286 -26.917181 -900.000000
   vertex 96.083471 -39.799077 -900.000000
   vertex 100.456286 -26.917181 -520.000000
  endloop
 endfacet
 facet normal -0.896873 0.442289 0.000000
  outer loop
   vertex 90.066642 -52.000000 -900.000000
   vertex 90.066642 -52.000000 -520.000000
   vertex 96.083471 -39.799077 -520.000000
  endloop
 endfacet
 facet normal -0.896873 0.442289 0.000000
  outer loop
   vertex 96.083471 -39.799077 -900.000000
   vertex 90.066642 -52.000000 -900.000000
   vertex 96.083471 -39.799077 -520.000000
  endloop
 endfacet
 facet normal -0.831470 0.555570 0.000000
  outer loop
   vertex 82.508747 -63.311189 -900.000000
   vertex 82.508747 -63.311189 -520.000000
   vertex 90.066642 -52.000000 -520.000000
  endloop
 endfacet
 facet normal -0.831470 0.555570 0.000000
  outer loop
   vertex 90.066642 -52.000000 -900.000000
   vertex 82.508747 -63.311189 -900.000000
   vertex 90.066642 -52.000000 -520.000000
  endloop
 endfacet
 facet normal -0.751840 0.659346 0.000000
  outer loop
   vertex 73.539105 -73.539105 -900.000000
   vertex 73.539105 -73.539105 -520.000000
   vertex 82.508747 -63.311189 -520.000000
  endloop
 endfacet
 facet normal -0.751840 0.659346 0.000000
  outer loop
   vertex 82.508747 -63.311189 -900.000000
   vertex 73.539105 -73.539105 -900.000000
   vertex 82.508747 -63.311189 -520.000000
  endloop
 endfacet
 facet normal -0.659346 0.751840 0.000000
  outer loop
   vertex 63.311189 -82.508747 -900.000000
   vertex 63.311189 -82.508747 -520.000000
   vertex 73.539105 -73.539105 -520.000000
  endloop
 endfacet
 facet normal -0.659346 0.751840 0.000000
  outer loop
   vertex 73.539105 -73.539105 -900.000000
   vertex 63.311189 -82.508747 -900.000000
   vertex 73.539105 -73.539105 -520.000000
  endloop
 endfacet
 facet normal -0.555570 0.831470 0.000000
  outer loop
   vertex 52.000000 -90.066642 -900.000000
   vertex 52.000000 -90.066642 -520.000000
   vertex 63.311189 -82.508747 -520.000000
  endloop
 endfacet
 facet normal -0.555570 0.831470 0.000000
  outer loop
   vertex 63.311189 -82.508747 -900.000000
   vertex 52.000000 -90.066642 -900.000000
   vertex 63.311189 -82.508747 -520.000000
  endloop
 endfacet
 facet normal -0.442289 0.896873 0.000000
  outer loop
   vertex 39.799077 -96.083471 -900.000000
   vertex 39.799077 -96.083471 -520.000000
   vertex 52.000000 -90.066642 -520.000000
  endloop
 endfacet
 facet normal -0.442289 0.896873 0.000000
  outer loop
   vertex 52.000000 -90.066642 -900.000000
   vertex 39.799077 -96.083471 -900.000000
   vertex 52.000000 -90.066642 -520.000000
  endloop
 endfacet
 facet normal -0.321439 0.946930 0.000000
  outer loop
   vertex 26.917181 -100.456286 -900.000000
   vertex 26.917181 -100.456286 -520.000000
   vertex 39.799077 -96.083471 -520.000000
  endloop
 endfacet
 facet normal -0.321439 0.946930 0.000000
  outer loop
   vertex 39.799077 -96.083471 -900.000000
   vertex 26.917181 -100.456286 -900.000000
   vertex 39.799077 -96.083471 -520.000000
  endloop
 endfacet
 facet normal -0.195090 0.980785 0.000000
  outer loop
   vertex 13.574724 -103.110266 -900.000000
   vertex 13.574724 -103.110266 -520.000000
   vertex 26.917181 -100.456286 -520.000000
  endloop
 endfacet
 facet normal -0.195090 0.980785 0.000000
  outer loop
   vertex 26.917181 -100.456286 -900.000000
   vertex 13.574724 -103.110266 -900.000000
   vertex 26.917181 -100.456286 -520.000000
  endloop
 endfacet
 facet normal -0.065403 0.997859 0.000000
  outer loop
   vertex 0.000000 -104.000000 -900.000000
   vertex 0.000000 -104.000000 -520.000000
   vertex 13.574724 -103.110266 -520.000000
  endloop
 endfacet
 facet normal -0.065403 0.997859 0.000000
  outer loop
   vertex 13.574724 -103.110266 -900.000000
   vertex 0.000000 -104.000000 -900.000000
   vertex 13.574724 -103.110266 -520.000000
  endloop
 endfacet
 facet normal 0.065403 0.997859 -0.000000
  outer loop
   vertex -13.574724 -103.110266 -900.000000
   vertex -13.574724 -103.110266 -520.000000
   vertex 0.000000 -104.000000 -520.000000
  endloop
 endfacet
 facet normal 0.065403 0.997859 -0.000000
  outer loop
   vertex 0.000000 -104.000000 -900.000000
   vertex -13.574724 -103.110266 -900.000000
   vertex 0.000000 -104.000000 -520.000000
  endloop
 endfacet
 facet normal 0.195090 0.980785 -0.000000
  outer loop
   vertex -26.917181 -100.456286 -900.000000
   vertex -26.917181 -100.456286 -520.000000
   vertex -13.574724 -103.110266 -520.000000
  endloop
 endfacet
 facet normal 0.195090 0.980785 -0.000000
  outer loop
   vertex -13.574724 -103.110266 -900.000000
   vertex -26.917181 -100.456286 -900.000000
   vertex -13.574724 -103.110266 -520.000000
  endloop
 endfacet
 facet normal 0.321439 0.946930 -0.000000
  outer loop
   vertex -39.799077 -96.083471 -900.000000
   vertex -39.799077 -96.083471 -520.000000
   vertex -26.917181 -100.456286 -520.000000
  endloop
 endfacet
 facet normal 0.321439 0.946930 -0.000000
  outer loop
   vertex -26.917181 -100.456286 -900.000000
   vertex -39.799077 -96.083471 -900.000000
   vertex -26.917181 -100.456286 -520.000000
  endloop
 endfacet
 facet normal 0.442289 0.896873 -0.000000
  outer loop
   vertex -52.000000 -90.066642 -900.000000
   vertex -52.000000 -90.066642 -520.000000
   vertex -39.799077 -96.083471 -520.000000
  endloop
 endfacet
 facet normal 0.442289 0.896873 -0.000000
  outer loop
   vertex -39.799077 -96.083471 -900.000000
   vertex -52.000000 -90.066642 -900.000000
   vertex -39.799077 -96.083471 -520.000000
  endloop
 endfacet
 facet normal 0.555570 0.831470 -0.000000
  outer loop
   vertex -63.311189 -82.508747 -900.000000
   vertex -63.311189 -82.508747 -520.000000
   vertex -52.000000 -90.066642 -520.000000
  endloop
 endfacet
 facet normal 0.555570 0.831470 -0.000000
  outer loop
   vertex -52.000000 -90.066642 -900.000000
   vertex -63.311189 -82.508747 -900.000000
   vertex -52.000000 -90.066642 -520.000000
  endloop
 endfacet
 facet normal 0.659346 0.751840 -0.000000
  outer loop
   vertex -73.539105 -73.539105 -900.000000
   vertex -73.539105 -73.539105 -520.000000
   vertex -63.311189 -82.508747 -520.000000
  endloop
 endfacet
 facet normal 0.659346 0.751840 -0.000000
  outer loop
   vertex -63.311189 -82.508747 -900.000000
   vertex -73.539105 -73.539105 -900.000000
   vertex -63.311189 -82.508747 -520.000000
  endloop
 endfacet
 facet normal 0.751840 0.659346 -0.000000
  outer loop
   vertex -82.508747 -63.311189 -900.000000
   vertex -82.508747 -63.311189 -520.000000
   vertex -73.539105 -73.539105 -520.000000
  endloop
 endfacet
 facet normal 0.751840 0.659346 -0.000000
  outer loop
   vertex -73.539105 -73.539105 -900.000000
   vertex -82.508747 -63.311189 -900.000000
   vertex -73.539105 -73.539105 -520.000000
  endloop
 endfacet
 facet normal 0.831470 0.555570 -0.000000
  outer loop
   vertex -90.066642 -52.000000 -900.000000
   vertex -90.066642 -52.000000 -520.000000
   vertex -82.508747 -63.311189 -520.000000
  endloop
 endfacet
 facet normal 0.831470 0.555570 -0.000000
  outer loop
   vertex -82.508747 -63.311189 -900.000000
   vertex -90.066642 -52.000000 -900.000000
   vertex -82.508747 -63.311189 -520.000000
  endloop
 endfacet
 facet normal 0.896873 0.442289 -0.000000
  outer loop
   vertex -96.083471 -39.799077 -900.000000
   vertex -96.083471 -39.799077 -520.000000
   vertex -90.066642 -52.000000 -520.000000
  endloop
 endfacet
 facet normal 0.896873 0.442289 -0.000000
  outer loop
   vertex -90.066642 -52.000000 -900.000000
   vertex -96.083471 -39.799077 -900.000000
   vertex -90.066642 -52.000000 -520.000000
  endloop
 endfacet
 facet normal 0.946930 0.321439 -0.000000
  outer loop
   vertex -100.456286 -26.917181 -900.000000
   vertex -100.456286 -26.917181 -520.000000
   vertex -96.083471 -39.799077 -520.000000
  endloop
 endfacet
 facet normal 0.946930 0.321439 -0.000000
  outer loop
   vertex -96.083471 -39.799077 -900.000000
   vertex -100.456286 -26.917181 -900.000000
   vertex -96.083471 -39.799077 -520.000000
  endloop
 endfacet
 facet normal 0.980785 0.195090 -0.000000
  outer loop
   vertex -103.110266 -13.574724 -900.000000
   vertex -103.110266 -13.574724 -520.000000
   vertex -100.456286 -26.917181 -520.000000
  endloop
 endfacet
 facet normal 0.980785 0.195090 -0.000000
  outer loop
   vertex -100.456286 -26.917181 -900.000000
   vertex -103.110266 -13.574724 -900.000000
   vertex -100.456286 -26.917181 -520.000000
  endloop
 endfacet
 facet normal 0.997859 0.065403 -0.000000
  outer loop
   vertex -104.000000 -0.000000 -900.000000
   vertex -104.000000 -0.000000 -520.000000
   vertex -103.110266 -13.574724 -520.000000
  endloop
 endfacet
 facet normal 0.997859 0.065403 -0.000000
  outer loop
   vertex -103.110266 -13.574724 -900.000000
   vertex -104.000000 -0.000000 -900.000000
   vertex -103.110266 -13.574724 -520.000000
  endloop
 endfacet
 facet normal 0.997859 -0.065403 0.000000
  outer loop
   vertex -103.110266 13.574724 -900.000000
   vertex -103.110266 13.574724 -520.000000
   vertex -104.000000 -0.000000 -520.000000
  endloop
 endfacet
 facet normal 0.997859 -0.065403 0.000000
  outer loop
   vertex -104.000000 -0.000000 -900.000000
   vertex -103.110266 13.574724 -900.000000
   vertex -104.000000 -0.000000 -520.000000
  endloop
 endfacet
 facet normal 0.980785 -0.195090 0.000000
  outer loop
   vertex -100.456286 26.917181 -900.000000
   vertex -100.456286 26.917181 -520.000000
   vertex -103.110266 13.574724 -520.000000
  endloop
 endfacet
 facet normal 0.980785 -0.195090 0.000000
  outer loop
   vertex -103.110266 13.574724 -900.000000
   vertex -100.456286 26.917181 -900.000000
   vertex -103.110266 13.574724 -520.000000
  endloop
 endfacet
 facet normal 0.946930 -0.321439 0.000000
  outer loop
   vertex -96.083471 39.799077 -900.000000
   vertex -96.083471 39.799077 -520.000000
   vertex -100.456286 26.917181 -520.000000
  endloop
 endfacet
 facet normal 0.946930 -0.321439 0.000000
  outer loop
   vertex -100.456286 26.917181 -900.000000
   vertex -96.083471 39.799077 -900.000000
   vertex -100.456286 26.917181 -520.000000
  endloop
 endfacet
 facet normal 0.896873 -0.442289 0.000000
  outer loop
   vertex -90.066642 52.000000 -900.000000
   vertex -90.066642 52.000000 -520.000000
   vertex -96.083471 39.799077 -520.000000
  endloop
 endfacet
 facet normal 0.896873 -0.442289 0.000000
  outer loop
   vertex -96.083471 39.799077 -900.000000
   vertex -90.066642 52.000000 -900.000000
   vertex -96.083471 39.799077 -520.000000
  endloop
 endfacet
 facet normal 0.831470 -0.555570 0.000000
  outer loop
   vertex -82.508747 63.311189 -900.000000
   vertex -82.508747 63.311189 -520.000000
   vertex -90.066642 52.000000 -520.000000
  endloop
 endfacet
 facet normal 0.831470 -0.555570 0.000000
  outer loop
   vertex -90.066642 52.000000 -900.000000
   vertex -82.508747 63.311189 -900.000000
   vertex -90.066642 52.000000 -520.000000
  endloop
 endfacet
 facet normal 0.751840 -0.659346 0.000000
  outer loop
   vertex -73.539105 73.539105 -900.000000
   vertex -73.539105 73.539105 -520.000000
   vertex -82.508747 63.311189 -520.000000
  endloop
 endfacet
 facet normal 0.751840 -0.659346 0.000000
  outer loop
   vertex -82.508747 63.311189 -900.000000
   vertex -73.539105 73.539105 -900.000000
   vertex -82.508747 63.311189 -520.000000
  endloop
 endfacet
 facet normal 0.659346 -0.751840 0.000000
  outer loop
   vertex -63.311189 82.508747 -900.000000
   vertex -63.311189 82.508747 -520.000000
   vertex -73.539105 73.539105 -520.000000
  endloop
 endfacet
 facet normal 0.659346 -0.751840 0.000000
  outer loop
   vertex -73.539105 73.539105 -900.000000
   vertex -63.311189 82.508747 -900.000000
   vertex -73.539105 73.539105 -520.000000
  endloop
 endfacet
 facet normal 0.555570 -0.831470 0.000000
  outer loop
   vertex -52.000000 90.066642 -900.000000
   vertex -52.000000 90.066642 -520.000000
   vertex -63.311189 82.508747 -520.000000
  endloop
 endfacet
 facet normal 0.555570 -0.831470 0.000000
  outer loop
   vertex -63.311189 82.508747 -900.000000
   vertex -52.000000 90.066642 -900.000000
   vertex -63.311189 82.508747 -520.000000
  endloop
 endfacet
 facet normal 0.442289 -0.896873 0.000000
  outer loop
   vertex -39.799077 96.083471 -900.000000
   vertex -39.799077 96.083471 -520.000000
   vertex -52.000000 90.066642 -520.000000
  endloop
 endfacet
 facet normal 0.442289 -0.896873 0.000000
  outer loop
   vertex -52.000000 90.066642 -900.000000
   vertex -39.799077 96.083471 -900.000000
   vertex -52.000000 90.066642 -520.000000
  endloop
 endfacet
 facet normal 0.321439 -0.946930 0.000000
  outer loop
   vertex -26.917181 100.456286 -900.000000
   vertex -26.917181 100.456286 -520.000000
   vertex -39.799077 96.083471 -520.000000
  endloop
 endfacet
 facet normal 0.321439 -0.946930 0.000000
  outer loop
   vertex -39.799077 96.083471 -900.000000
   vertex -26.917181 100.456286 -900.000000
   vertex -39.799077 96.083471 -520.000000
  endloop
 endfacet
 facet normal 0.195090 -0.980785 0.000000
  outer loop
   vertex -13.574724 103.110266 -900.000000
   vertex -13.574724 103.110266 -520.000000
   vertex -26.917181 100.456286 -520.000000
  endloop
 endfacet
 facet normal 0.195090 -0.980785 0.000000
  outer loop
   vertex -26.917181 100.456286 -900.000000
   vertex -13.574724 103.110266 -900.000000
   vertex -26.917181 100.456286 -520.000000
  endloop
 endfacet
 facet normal 0.065403 -0.997859 0.000000
  outer loop
   vertex 0.000000 104.000000 -900.000000
   vertex 0.000000 104.000000 -520.000000
   vertex -13.574724 103.110266 -520.000000
  endloop
 endfacet
 facet normal 0.065403 -0.997859 0.000000
  outer loop
   vertex -13.574724 103.110266 -900.000000
   vertex 0.000000 104.000000 -900.000000
   vertex -13.574724 103.110266 -520.000000
  endloop
 endfacet
endsolid SIC_RP1_ELBOW_2
