solid SIC_LOX_DROP_4
 facet normal 0.065141 0.984805 0.160984
  outer loop
   vertex 1150.000000 2110.339583 -811.335404
   vertex 1165.600365 2109.107559 -810.111177
   vertex 1265.600365 2282.307559 -1910.111177
  endloop
 endfacet
 facet normal 0.065141 0.984805 0.160984
  outer loop
   vertex 1150.000000 2110.339583 -811.335404
   vertex 1265.600365 2282.307559 -1910.111177
   vertex 1250.000000 2283.539583 -1911.335404
  endloop
 endfacet
 facet normal 0.194308 0.966135 0.169787
  outer loop
   vertex 1165.600365 2109.107559 -810.111177
   vertex 1180.933803 2105.868369 -809.227253
   vertex 1280.933803 2279.068369 -1909.227253
  endloop
 endfacet
 facet normal 0.194308 0.966135 0.169787
  outer loop
   vertex 1165.600365 2109.107559 -810.111177
   vertex 1280.933803 2279.068369 -1909.227253
   vertex 1265.600365 2282.307559 -1910.111177
  endloop
 endfacet
 facet normal 0.320151 0.930934 0.175684
  outer loop
   vertex 1180.933803 2105.868369 -809.227253
   vertex 1195.737955 2100.677438 -808.698757
   vertex 1295.737955 2273.877438 -1908.698757
  endloop
 endfacet
 facet normal 0.320151 0.930934 0.175684
  outer loop
   vertex 1180.933803 2105.868369 -809.227253
   vertex 1295.737955 2273.877438 -1908.698757
   vertex 1280.933803 2279.068369 -1909.227253
  endloop
 endfacet
 facet normal 0.440516 0.879805 0.178576
  outer loop
   vertex 1195.737955 2100.677438 -808.698757
   vertex 1209.759518 2093.623584 -808.534730
   vertex 1309.759518 2266.823584 -1908.534730
  endloop
 endfacet
 facet normal 0.440516 0.879805 0.178576
  outer loop
   vertex 1195.737955 2100.677438 -808.698757
   vertex 1309.759518 2266.823584 -1908.534730
   vertex 1295.737955 2273.877438 -1908.698757
  endloop
 endfacet
 facet normal 0.553343 0.813622 0.178412
  outer loop
   vertex 1209.759518 2093.623584 -808.534730
   vertex 1222.758579 2084.827500 -808.737981
   vertex 1322.758579 2258.027500 -1908.737981
  endloop
 endfacet
 facet normal 0.553343 0.813622 0.178412
  outer loop
   vertex 1209.759518 2093.623584 -808.534730
   vertex 1322.758579 2258.027500 -1908.737981
   vertex 1309.759518 2266.823584 -1908.534730
  endloop
 endfacet
 facet normal 0.656703 0.733517 0.175196
  outer loop
   vertex 1222.758579 2084.827500 -808.737981
   vertex 1234.512720 2074.439690 -809.305031
   vertex 1334.512720 2247.639690 -1909.305031
  endloop
 endfacet
 facet normal 0.656703 0.733517 0.175196
  outer loop
   vertex 1222.758579 2084.827500 -808.737981
   vertex 1334.512720 2247.639690 -1909.305031
   vertex 1322.758579 2258.027500 -1908.737981
  endloop
 endfacet
 facet normal 0.748826 0.640862 0.168982
  outer loop
   vertex 1234.512720 2074.439690 -809.305031
   vertex 1244.820826 2062.637892 -810.226177
   vertex 1344.820826 2235.837892 -1910.226177
  endloop
 endfacet
 facet normal 0.748826 0.640862 0.168982
  outer loop
   vertex 1234.512720 2074.439690 -809.305031
   vertex 1344.820826 2235.837892 -1910.226177
   vertex 1334.512720 2247.639690 -1909.305031
  endloop
 endfacet
 facet normal 0.828137 0.537242 0.159876
  outer loop
   vertex 1244.820826 2062.637892 -810.226177
   vertex 1253.506521 2049.624037 -811.485659
   vertex 1353.506521 2222.824037 -1911.485659
  endloop
 endfacet
 facet normal 0.828137 0.537242 0.159876
  outer loop
   vertex 1244.820826 2062.637892 -810.226177
   vertex 1353.506521 2222.824037 -1911.485659
   vertex 1344.820826 2235.837892 -1910.226177
  endloop
 endfacet
 facet normal 0.893278 0.424429 0.148035
  outer loop
   vertex 1253.506521 2049.624037 -811.485659
   vertex 1260.421191 2035.620798 -813.061926
   vertex 1360.421191 2208.820798 -1913.061926
  endloop
 endfacet
 facet normal 0.893278 0.424429 0.148035
  outer loop
   vertex 1253.506521 2049.624037 -811.485659
   vertex 1360.421191 2208.820798 -1913.061926
   vertex 1353.506521 2222.824037 -1911.485659
  endloop
 endfacet
 facet normal 0.943135 0.304354 0.133661
  outer loop
   vertex 1260.421191 2035.620798 -813.061926
   vertex 1265.446523 2020.867772 -814.928009
   vertex 1365.446523 2194.067772 -1914.928009
  endloop
 endfacet
 facet normal 0.943135 0.304354 0.133661
  outer loop
   vertex 1260.421191 2035.620798 -813.061926
   vertex 1365.446523 2194.067772 -1914.928009
   vertex 1360.421191 2208.820798 -1913.061926
  endloop
 endfacet
 facet normal 0.976854 0.179072 0.117001
  outer loop
   vertex 1265.446523 2020.867772 -814.928009
   vertex 1268.496534 2005.617389 -817.051977
   vertex 1368.496534 2178.817389 -1917.051977
  endloop
 endfacet
 facet normal 0.976854 0.179072 0.117001
  outer loop
   vertex 1265.446523 2020.867772 -814.928009
   vertex 1368.496534 2178.817389 -1917.051977
   vertex 1365.446523 2194.067772 -1914.928009
  endloop
 endfacet
 facet normal 0.993859 0.050725 0.098338
  outer loop
   vertex 1268.496534 2005.617389 -817.051977
   vertex 1269.519035 1990.130587 -819.397490
   vertex 1369.519035 2163.330587 -1919.397490
  endloop
 endfacet
 facet normal 0.993859 0.050725 0.098338
  outer loop
   vertex 1268.496534 2005.617389 -817.051977
   vertex 1369.519035 2163.330587 -1919.397490
   vertex 1368.496534 2178.817389 -1917.051977
  endloop
 endfacet
 facet normal 0.993859 -0.078489 0.077992
  outer loop
   vertex 1269.519035 1990.130587 -819.397490
   vertex 1268.496534 1974.672348 -821.924414
   vertex 1368.496534 2147.872348 -1921.924414
  endloop
 endfacet
 facet normal 0.993859 -0.078489 0.077992
  outer loop
   vertex 1269.519035 1990.130587 -819.397490
   vertex 1368.496534 2147.872348 -1921.924414
   vertex 1369.519035 2163.330587 -1919.397490
  endloop
 endfacet
 facet normal 0.976854 -0.206361 0.056313
  outer loop
   vertex 1268.496534 1974.672348 -821.924414
   vertex 1265.446523 1959.507169 -824.589515
   vertex 1365.446523 2132.707169 -1924.589515
  endloop
 endfacet
 facet normal 0.976854 -0.206361 0.056313
  outer loop
   vertex 1268.496534 1974.672348 -821.924414
   vertex 1365.446523 2132.707169 -1924.589515
   vertex 1368.496534 2147.872348 -1921.924414
  endloop
 endfacet
 facet normal 0.943135 -0.330701 0.033669
  outer loop
   vertex 1265.446523 1959.507169 -824.589515
   vertex 1260.421191 1944.894528 -827.347190
   vertex 1360.421191 2118.094528 -1927.347190
  endloop
 endfacet
 facet normal 0.943135 -0.330701 0.033669
  outer loop
   vertex 1265.446523 1959.507169 -824.589515
   vertex 1360.421191 2118.094528 -1927.347190
   vertex 1365.446523 2132.707169 -1924.589515
  endloop
 endfacet
 facet normal 0.893278 -0.449383 0.010450
  outer loop
   vertex 1260.421191 1944.894528 -827.347190
   vertex 1253.506521 1931.084454 -830.150255
   vertex 1353.506521 2104.284454 -1930.150255
  endloop
 endfacet
 facet normal 0.893278 -0.449383 0.010450
  outer loop
   vertex 1260.421191 1944.894528 -827.347190
   vertex 1353.506521 2104.284454 -1930.150255
   vertex 1360.421191 2118.094528 -1927.347190
  endloop
 endfacet
 facet normal 0.828137 -0.560376 -0.012949
  outer loop
   vertex 1253.506521 1931.084454 -830.150255
   vertex 1244.820826 1918.313239 -832.950749
   vertex 1344.820826 2091.513239 -1932.950749
  endloop
 endfacet
 facet normal 0.828137 -0.560376 -0.012949
  outer loop
   vertex 1253.506521 1931.084454 -830.150255
   vertex 1344.820826 2091.513239 -1932.950749
   vertex 1353.506521 2104.284454 -1930.150255
  endloop
 endfacet
 facet normal 0.748826 -0.661781 -0.036125
  outer loop
   vertex 1244.820826 1918.313239 -832.950749
   vertex 1234.512720 1906.799403 -835.700756
   vertex 1334.512720 2079.999403 -1935.700756
  endloop
 endfacet
 facet normal 0.748826 -0.661781 -0.036125
  outer loop
   vertex 1244.820826 1918.313239 -832.950749
   vertex 1334.512720 2079.999403 -1935.700756
   vertex 1344.820826 2091.513239 -1932.950749
  endloop
 endfacet
 facet normal 0.656703 -0.751862 -0.058684
  outer loop
   vertex 1234.512720 1906.799403 -835.700756
   vertex 1222.758579 1896.739951 -838.353221
   vertex 1322.758579 2069.939951 -1938.353221
  endloop
 endfacet
 facet normal 0.656703 -0.751862 -0.058684
  outer loop
   vertex 1234.512720 1906.799403 -835.700756
   vertex 1322.758579 2069.939951 -1938.353221
   vertex 1334.512720 2079.999403 -1935.700756
  endloop
 endfacet
 facet normal 0.553343 -0.829079 -0.080238
  outer loop
   vertex 1222.758579 1896.739951 -838.353221
   vertex 1209.759518 1888.307003 -840.862759
   vertex 1309.759518 2061.507003 -1940.862759
  endloop
 endfacet
 facet normal 0.553343 -0.829079 -0.080238
  outer loop
   vertex 1222.758579 1896.739951 -838.353221
   vertex 1309.759518 2061.507003 -1940.862759
   vertex 1322.758579 2069.939951 -1938.353221
  endloop
 endfacet
 facet normal 0.440516 -0.892111 -0.100420
  outer loop
   vertex 1209.759518 1888.307003 -840.862759
   vertex 1195.737955 1881.644848 -843.186433
   vertex 1295.737955 2054.844848 -1943.186433
  endloop
 endfacet
 facet normal 0.440516 -0.892111 -0.100420
  outer loop
   vertex 1209.759518 1888.307003 -840.862759
   vertex 1295.737955 2054.844848 -1943.186433
   vertex 1309.759518 2061.507003 -1940.862759
  endloop
 endfacet
 facet normal 0.320151 -0.939878 -0.118883
  outer loop
   vertex 1195.737955 1881.644848 -843.186433
   vertex 1180.933803 1876.867479 -845.284484
   vertex 1280.933803 2050.067479 -1945.284484
  endloop
 endfacet
 facet normal 0.320151 -0.939878 -0.118883
  outer loop
   vertex 1195.737955 1881.644848 -843.186433
   vertex 1280.933803 2050.067479 -1945.284484
   vertex 1295.737955 2054.844848 -1943.186433
  endloop
 endfacet
 facet normal 0.194308 -0.971563 -0.135313
  outer loop
   vertex 1180.933803 1876.867479 -845.284484
   vertex 1165.600365 1874.056637 -847.121013
   vertex 1265.600365 2047.256637 -1947.121013
  endloop
 endfacet
 facet normal 0.194308 -0.971563 -0.135313
  outer loop
   vertex 1180.933803 1876.867479 -845.284484
   vertex 1265.600365 2047.256637 -1947.121013
   vertex 1280.933803 2050.067479 -1945.284484
  endloop
 endfacet
 facet normal 0.065141 -0.986625 -0.149427
  outer loop
   vertex 1165.600365 1874.056637 -847.121013
   vertex 1150.000000 1873.260417 -848.664596
   vertex 1250.000000 2046.460417 -1948.664596
  endloop
 endfacet
 facet normal 0.065141 -0.986625 -0.149427
  outer loop
   vertex 1165.600365 1874.056637 -847.121013
   vertex 1250.000000 2046.460417 -1948.664596
   vertex 1265.600365 2047.256637 -1947.121013
  endloop
 endfacet
 facet normal -0.065141 -0.984805 -0.160984
  outer loop
   vertex 1150.000000 1873.260417 -848.664596
   vertex 1134.399635 1874.492441 -849.888823
   vertex 1234.399635 2047.692441 -1949.888823
  endloop
 endfacet
 facet normal -0.065141 -0.984805 -0.160984
  outer loop
   vertex 1150.000000 1873.260417 -848.664596
   vertex 1234.399635 2047.692441 -1949.888823
   vertex 1250.000000 2046.460417 -1948.664596
  endloop
 endfacet
 facet normal -0.194308 -0.966135 -0.169787
  outer loop
   vertex 1134.399635 1874.492441 -849.888823
   vertex 1119.066197 1877.731631 -850.772747
   vertex 1219.066197 2050.931631 -1950.772747
  endloop
 endfacet
 facet normal -0.194308 -0.966135 -0.169787
  outer loop
   vertex 1134.399635 1874.492441 -849.888823
   vertex 1219.066197 2050.931631 -1950.772747
   vertex 1234.399635 2047.692441 -1949.888823
  endloop
 endfacet
 facet normal -0.320151 -0.930934 -0.175684
  outer loop
   vertex 1119.066197 1877.731631 -850.772747
   vertex 1104.262045 1882.922562 -851.301243
   vertex 1204.262045 2056.122562 -1951.301243
  endloop
 endfacet
 facet normal -0.320151 -0.930934 -0.175684
  outer loop
   vertex 1119.066197 1877.731631 -850.772747
   vertex 1204.262045 2056.122562 -1951.301243
   vertex 1219.066197 2050.931631 -1950.772747
  endloop
 endfacet
 facet normal -0.440516 -0.879805 -0.178576
  outer loop
   vertex 1104.262045 1882.922562 -851.301243
   vertex 1090.240482 1889.976416 -851.465270
   vertex 1190.240482 2063.176416 -1951.465270
  endloop
 endfacet
 facet normal -0.440516 -0.879805 -0.178576
  outer loop
   vertex 1104.262045 1882.922562 -851.301243
   vertex 1190.240482 2063.176416 -1951.465270
   vertex 1204.262045 2056.122562 -1951.301243
  endloop
 endfacet
 facet normal -0.553343 -0.813622 -0.178412
  outer loop
   vertex 1090.240482 1889.976416 -851.465270
   vertex 1077.241421 1898.772500 -851.262019
   vertex 1177.241421 2071.972500 -1951.262019
  endloop
 endfacet
 facet normal -0.553343 -0.813622 -0.178412
  outer loop
   vertex 1090.240482 1889.976416 -851.465270
   vertex 1177.241421 2071.972500 -1951.262019
   vertex 1190.240482 2063.176416 -1951.465270
  endloop
 endfacet
 facet normal -0.656703 -0.733517 -0.175196
  outer loop
   vertex 1077.241421 1898.772500 -851.262019
   vertex 1065.487280 1909.160310 -850.694969
   vertex 1165.487280 2082.360310 -1950.694969
  endloop
 endfacet
 facet normal -0.656703 -0.733517 -0.175196
  outer loop
   vertex 1077.241421 1898.772500 -851.262019
   vertex 1165.487280 2082.360310 -1950.694969
   vertex 1177.241421 2071.972500 -1951.262019
  endloop
 endfacet
 facet normal -0.748826 -0.640862 -0.168982
  outer loop
   vertex 1065.487280 1909.160310 -850.694969
   vertex 1055.179174 1920.962108 -849.773823
   vertex 1155.179174 2094.162108 -1949.773823
  endloop
 endfacet
 facet normal -0.748826 -0.640862 -0.168982
  outer loop
   vertex 1065.487280 1909.160310 -850.694969
   vertex 1155.179174 2094.162108 -1949.773823
   vertex 1165.487280 2082.360310 -1950.694969
  endloop
 endfacet
 facet normal -0.828137 -0.537242 -0.159876
  outer loop
   vertex 1055.179174 1920.962108 -849.773823
   vertex 1046.493479 1933.975963 -848.514341
   vertex 1146.493479 2107.175963 -1948.514341
  endloop
 endfacet
 facet normal -0.828137 -0.537242 -0.159876
  outer loop
   vertex 1055.179174 1920.962108 -849.773823
   vertex 1146.493479 2107.175963 -1948.514341
   vertex 1155.179174 2094.162108 -1949.773823
  endloop
 endfacet
 facet normal -0.893278 -0.424429 -0.148035
  outer loop
   vertex 1046.493479 1933.975963 -848.514341
   vertex 1039.578809 1947.979202 -846.938074
   vertex 1139.578809 2121.179202 -1946.938074
  endloop
 endfacet
 facet normal -0.893278 -0.424429 -0.148035
  outer loop
   vertex 1046.493479 1933.975963 -848.514341
   vertex 1139.578809 2121.179202 -1946.938074
   vertex 1146.493479 2107.175963 -1948.514341
  endloop
 endfacet
 facet normal -0.943135 -0.304354 -0.133661
  outer loop
   vertex 1039.578809 1947.979202 -846.938074
   vertex 1034.553477 1962.732228 -845.071991
   vertex 1134.553477 2135.932228 -1945.071991
  endloop
 endfacet
 facet normal -0.943135 -0.304354 -0.133661
  outer loop
   vertex 1039.578809 1947.979202 -846.938074
   vertex 1134.553477 2135.932228 -1945.071991
   vertex 1139.578809 2121.179202 -1946.938074
  endloop
 endfacet
 facet normal -0.976854 -0.179072 -0.117001
  outer loop
   vertex 1034.553477 1962.732228 -845.071991
   vertex 1031.503466 1977.982611 -842.948023
   vertex 1131.503466 2151.182611 -1942.948023
  endloop
 endfacet
 facet normal -0.976854 -0.179072 -0.117001
  outer loop
   vertex 1034.553477 1962.732228 -845.071991
   vertex 1131.503466 2151.182611 -1942.948023
   vertex 1134.553477 2135.932228 -1945.071991
  endloop
 endfacet
 facet normal -0.993859 -0.050725 -0.098338
  outer loop
   vertex 1031.503466 1977.982611 -842.948023
   vertex 1030.480965 1993.469413 -840.602510
   vertex 1130.480965 2166.669413 -1940.602510
  endloop
 endfacet
 facet normal -0.993859 -0.050725 -0.098338
  outer loop
   vertex 1031.503466 1977.982611 -842.948023
   vertex 1130.480965 2166.669413 -1940.602510
   vertex 1131.503466 2151.182611 -1942.948023
  endloop
 endfacet
 facet normal -0.993859 0.078489 -0.077992
  outer loop
   vertex 1030.480965 1993.469413 -840.602510
   vertex 1031.503466 2008.927652 -838.075586
   vertex 1131.503466 2182.127652 -1938.075586
  endloop
 endfacet
 facet normal -0.993859 0.078489 -0.077992
  outer loop
   vertex 1030.480965 1993.469413 -840.602510
   vertex 1131.503466 2182.127652 -1938.075586
   vertex 1130.480965 2166.669413 -1940.602510
  endloop
 endfacet
 facet normal -0.976854 0.206361 -0.056313
  outer loop
   vertex 1031.503466 2008.927652 -838.075586
   vertex 1034.553477 2024.092831 -835.410485
   vertex 1134.553477 2197.292831 -1935.410485
  endloop
 endfacet
 facet normal -0.976854 0.206361 -0.056313
  outer loop
   vertex 1031.503466 2008.927652 -838.075586
   vertex 1134.553477 2197.292831 -1935.410485
   vertex 1131.503466 2182.127652 -1938.075586
  endloop
 endfacet
 facet normal -0.943135 0.330701 -0.033669
  outer loop
   vertex 1034.553477 2024.092831 -835.410485
   vertex 1039.578809 2038.705472 -832.652810
   vertex 1139.578809 2211.905472 -1932.652810
  endloop
 endfacet
 facet normal -0.943135 0.330701 -0.033669
  outer loop
   vertex 1034.553477 2024.092831 -835.410485
   vertex 1139.578809 2211.905472 -1932.652810
   vertex 1134.553477 2197.292831 -1935.410485
  endloop
 endfacet
 facet normal -0.893278 0.449383 -0.010450
  outer loop
   vertex 1039.578809 2038.705472 -832.652810
   vertex 1046.493479 2052.515546 -829.849745
   vertex 1146.493479 2225.715546 -1929.849745
  endloop
 endfacet
 facet normal -0.893278 0.449383 -0.010450
  outer loop
   vertex 1039.578809 2038.705472 -832.652810
   vertex 1146.493479 2225.715546 -1929.849745
   vertex 1139.578809 2211.905472 -1932.652810
  endloop
 endfacet
 facet normal -0.828137 0.560376 0.012949
  outer loop
   vertex 1046.493479 2052.515546 -829.849745
   vertex 1055.179174 2065.286761 -827.049251
   vertex 1155.179174 2238.486761 -1927.049251
  endloop
 endfacet
 facet normal -0.828137 0.560376 0.012949
  outer loop
   vertex 1046.493479 2052.515546 -829.849745
   vertex 1155.179174 2238.486761 -1927.049251
   vertex 1146.493479 2225.715546 -1929.849745
  endloop
 endfacet
 facet normal -0.748826 0.661781 0.036125
  outer loop
   vertex 1055.179174 2065.286761 -827.049251
   vertex 1065.487280 2076.800597 -824.299244
   vertex 1165.487280 2250.000597 -1924.299244
  endloop
 endfacet
 facet normal -0.748826 0.661781 0.036125
  outer loop
   vertex 1055.179174 2065.286761 -827.049251
   vertex 1165.487280 2250.000597 -1924.299244
   vertex 1155.179174 2238.486761 -1927.049251
  endloop
 endfacet
 facet normal -0.656703 0.751862 0.058684
  outer loop
   vertex 1065.487280 2076.800597 -824.299244
   vertex 1077.241421 2086.860049 -821.646779
   vertex 1177.241421 2260.060049 -1921.646779
  endloop
 endfacet
 facet normal -0.656703 0.751862 0.058684
  outer loop
   vertex 1065.487280 2076.800597 -824.299244
   vertex 1177.241421 2260.060049 -1921.646779
   vertex 1165.487280 2250.000597 -1924.299244
  endloop
 endfacet
 facet normal -0.553343 0.829079 0.080238
  outer loop
   vertex 1077.241421 2086.860049 -821.646779
   vertex 1090.240482 2095.292997 -819.137241
   vertex 1190.240482 2268.492997 -1919.137241
  endloop
 endfacet
 facet normal -0.553343 0.829079 0.080238
  outer loop
   vertex 1077.241421 2086.860049 -821.646779
   vertex 1190.240482 2268.492997 -1919.137241
   vertex 1177.241421 2260.060049 -1921.646779
  endloop
 endfacet
 facet normal -0.440516 0.892111 0.100420
  outer loop
   vertex 1090.240482 2095.292997 -819.137241
   vertex 1104.262045 2101.955152 -816.813567
   vertex 1204.262045 2275.155152 -1916.813567
  endloop
 endfacet
 facet normal -0.440516 0.892111 0.100420
  outer loop
   vertex 1090.240482 2095.292997 -819.137241
   vertex 1204.262045 2275.155152 -1916.813567
   vertex 1190.240482 2268.492997 -1919.137241
  endloop
 endfacet
 facet normal -0.320151 0.939878 0.118883
  outer loop
   vertex 1104.262045 2101.955152 -816.813567
   vertex 1119.066197 2106.732521 -814.715516
   vertex 1219.066197 2279.932521 -1914.715516
  endloop
 endfacet
 facet normal -0.320151 0.939878 0.118883
  outer loop
   vertex 1104.262045 2101.955152 -816.813567
   vertex 1219.066197 2279.932521 -1914.715516
   vertex 1204.262045 2275.155152 -1916.813567
  endloop
 endfacet
 facet normal -0.194308 0.971563 0.135313
  outer loop
   vertex 1119.066197 2106.732521 -814.715516
   vertex 1134.399635 2109.543363 -812.878987
   vertex 1234.399635 2282.743363 -1912.878987
  endloop
 endfacet
 facet normal -0.194308 0.971563 0.135313
  outer loop
   vertex 1119.066197 2106.732521 -814.715516
   vertex 1234.399635 2282.743363 -1912.878987
   vertex 1219.066197 2279.932521 -1914.715516
  endloop
 endfacet
 facet normal -0.065141 0.986625 0.149427
  outer loop
   vertex 1134.399635 2109.543363 -812.878987
   vertex 1150.000000 2110.339583 -811.335404
   vertex 1250.000000 2283.539583 -1911.335404
  endloop
 endfacet
 facet normal -0.065141 0.986625 0.149427
  outer loop
   vertex 1134.399635 2109.543363 -812.878987
   vertex 1250.000000 2283.539583 -1911.335404
   vertex 1234.399635 2282.743363 -1912.878987
  endloop
 endfacet
 facet normal -0.065141 -0.984805 -0.160984
  outer loop
   vertex 1263.520316 2266.666551 -1912.763020
   vertex 1163.520316 2093.466551 -812.763020
   vertex 1150.000000 2094.534306 -813.824017
  endloop
 endfacet
 facet normal -0.065141 -0.984805 -0.160984
  outer loop
   vertex 1250.000000 2267.734306 -1913.824017
   vertex 1263.520316 2266.666551 -1912.763020
   vertex 1150.000000 2094.534306 -813.824017
  endloop
 endfacet
 facet normal -0.194308 -0.966135 -0.169787
  outer loop
   vertex 1276.809296 2263.859253 -1911.996953
   vertex 1176.809296 2090.659253 -811.996953
   vertex 1163.520316 2093.466551 -812.763020
  endloop
 endfacet
 facet normal -0.194308 -0.966135 -0.169787
  outer loop
   vertex 1263.520316 2266.666551 -1912.763020
   vertex 1276.809296 2263.859253 -1911.996953
   vertex 1163.520316 2093.466551 -812.763020
  endloop
 endfacet
 facet normal -0.320151 -0.930934 -0.175684
  outer loop
   vertex 1289.639561 2259.360446 -1911.538922
   vertex 1189.639561 2086.160446 -811.538922
   vertex 1176.809296 2090.659253 -811.996953
  endloop
 endfacet
 facet normal -0.320151 -0.930934 -0.175684
  outer loop
   vertex 1276.809296 2263.859253 -1911.996953
   vertex 1289.639561 2259.360446 -1911.538922
   vertex 1176.809296 2090.659253 -811.996953
  endloop
 endfacet
 facet normal -0.440516 -0.879805 -0.178576
  outer loop
   vertex 1301.791582 2253.247106 -1911.396766
   vertex 1201.791582 2080.047106 -811.396766
   vertex 1189.639561 2086.160446 -811.538922
  endloop
 endfacet
 facet normal -0.440516 -0.879805 -0.178576
  outer loop
   vertex 1289.639561 2259.360446 -1911.538922
   vertex 1301.791582 2253.247106 -1911.396766
   vertex 1189.639561 2086.160446 -811.538922
  endloop
 endfacet
 facet normal -0.553343 -0.813622 -0.178412
  outer loop
   vertex 1313.057435 2245.623833 -1911.572917
   vertex 1213.057435 2072.423833 -811.572917
   vertex 1201.791582 2080.047106 -811.396766
  endloop
 endfacet
 facet normal -0.553343 -0.813622 -0.178412
  outer loop
   vertex 1301.791582 2253.247106 -1911.396766
   vertex 1313.057435 2245.623833 -1911.572917
   vertex 1201.791582 2080.047106 -811.396766
  endloop
 endfacet
 facet normal -0.656703 -0.733517 -0.175196
  outer loop
   vertex 1323.244358 2236.621064 -1912.064360
   vertex 1223.244358 2063.421064 -812.064360
   vertex 1213.057435 2072.423833 -811.572917
  endloop
 endfacet
 facet normal -0.656703 -0.733517 -0.175196
  outer loop
   vertex 1313.057435 2245.623833 -1911.572917
   vertex 1323.244358 2236.621064 -1912.064360
   vertex 1213.057435 2072.423833 -811.572917
  endloop
 endfacet
 facet normal -0.748826 -0.640862 -0.168982
  outer loop
   vertex 1332.178049 2226.392839 -1912.862687
   vertex 1232.178049 2053.192839 -812.862687
   vertex 1223.244358 2063.421064 -812.064360
  endloop
 endfacet
 facet normal -0.748826 -0.640862 -0.168982
  outer loop
   vertex 1323.244358 2236.621064 -1912.064360
   vertex 1332.178049 2226.392839 -1912.862687
   vertex 1223.244358 2063.421064 -812.064360
  endloop
 endfacet
 facet normal -0.828137 -0.537242 -0.159876
  outer loop
   vertex 1339.705651 2215.114166 -1913.954238
   vertex 1239.705651 2041.914166 -813.954238
   vertex 1232.178049 2053.192839 -812.862687
  endloop
 endfacet
 facet normal -0.828137 -0.537242 -0.159876
  outer loop
   vertex 1332.178049 2226.392839 -1912.862687
   vertex 1339.705651 2215.114166 -1913.954238
   vertex 1232.178049 2053.192839 -812.862687
  endloop
 endfacet
 facet normal -0.893278 -0.424429 -0.148035
  outer loop
   vertex 1345.698365 2202.978025 -1915.320336
   vertex 1245.698365 2029.778025 -815.320336
   vertex 1239.705651 2041.914166 -813.954238
  endloop
 endfacet
 facet normal -0.893278 -0.424429 -0.148035
  outer loop
   vertex 1339.705651 2215.114166 -1913.954238
   vertex 1345.698365 2202.978025 -1915.320336
   vertex 1239.705651 2041.914166 -813.954238
  endloop
 endfacet
 facet normal -0.943135 -0.304354 -0.133661
  outer loop
   vertex 1350.053653 2190.192069 -1916.937608
   vertex 1250.053653 2016.992069 -816.937608
   vertex 1245.698365 2029.778025 -815.320336
  endloop
 endfacet
 facet normal -0.943135 -0.304354 -0.133661
  outer loop
   vertex 1345.698365 2202.978025 -1915.320336
   vertex 1350.053653 2190.192069 -1916.937608
   vertex 1245.698365 2029.778025 -815.320336
  endloop
 endfacet
 facet normal -0.976854 -0.179072 -0.117001
  outer loop
   vertex 1352.696996 2176.975071 -1918.778380
   vertex 1252.696996 2003.775071 -818.778380
   vertex 1250.053653 2016.992069 -816.937608
  endloop
 endfacet
 facet normal -0.976854 -0.179072 -0.117001
  outer loop
   vertex 1350.053653 2190.192069 -1916.937608
   vertex 1352.696996 2176.975071 -1918.778380
   vertex 1250.053653 2016.992069 -816.937608
  endloop
 endfacet
 facet normal -0.993859 -0.050725 -0.098338
  outer loop
   vertex 1353.583164 2163.553175 -1920.811158
   vertex 1253.583164 1990.353175 -820.811158
   vertex 1252.696996 2003.775071 -818.778380
  endloop
 endfacet
 facet normal -0.993859 -0.050725 -0.098338
  outer loop
   vertex 1352.696996 2176.975071 -1918.778380
   vertex 1353.583164 2163.553175 -1920.811158
   vertex 1252.696996 2003.775071 -818.778380
  endloop
 endfacet
 facet normal -0.993859 0.078489 -0.077992
  outer loop
   vertex 1352.696996 2150.156035 -1923.001159
   vertex 1252.696996 1976.956035 -823.001159
   vertex 1253.583164 1990.353175 -820.811158
  endloop
 endfacet
 facet normal -0.993859 0.078489 -0.077992
  outer loop
   vertex 1353.583164 2163.553175 -1920.811158
   vertex 1352.696996 2150.156035 -1923.001159
   vertex 1253.583164 1990.353175 -820.811158
  endloop
 endfacet
 facet normal -0.976854 0.206361 -0.056313
  outer loop
   vertex 1350.053653 2137.012880 -1925.310913
   vertex 1250.053653 1963.812880 -825.310913
   vertex 1252.696996 1976.956035 -823.001159
  endloop
 endfacet
 facet normal -0.976854 0.206361 -0.056313
  outer loop
   vertex 1352.696996 2150.156035 -1923.001159
   vertex 1350.053653 2137.012880 -1925.310913
   vertex 1252.696996 1976.956035 -823.001159
  endloop
 endfacet
 facet normal -0.943135 0.330701 -0.033669
  outer loop
   vertex 1345.698365 2124.348591 -1927.700898
   vertex 1245.698365 1951.148591 -827.700898
   vertex 1250.053653 1963.812880 -825.310913
  endloop
 endfacet
 facet normal -0.943135 0.330701 -0.033669
  outer loop
   vertex 1350.053653 2137.012880 -1925.310913
   vertex 1345.698365 2124.348591 -1927.700898
   vertex 1250.053653 1963.812880 -825.310913
  endloop
 endfacet
 facet normal -0.893278 0.449383 -0.010450
  outer loop
   vertex 1339.705651 2112.379860 -1930.130221
   vertex 1239.705651 1939.179860 -830.130221
   vertex 1245.698365 1951.148591 -827.700898
  endloop
 endfacet
 facet normal -0.893278 0.449383 -0.010450
  outer loop
   vertex 1345.698365 2124.348591 -1927.700898
   vertex 1339.705651 2112.379860 -1930.130221
   vertex 1245.698365 1951.148591 -827.700898
  endloop
 endfacet
 facet normal -0.828137 0.560376 0.012949
  outer loop
   vertex 1332.178049 2101.311474 -1932.557316
   vertex 1232.178049 1928.111474 -832.557316
   vertex 1239.705651 1939.179860 -830.130221
  endloop
 endfacet
 facet normal -0.828137 0.560376 0.012949
  outer loop
   vertex 1339.705651 2112.379860 -1930.130221
   vertex 1332.178049 2101.311474 -1932.557316
   vertex 1239.705651 1939.179860 -830.130221
  endloop
 endfacet
 facet normal -0.748826 0.661781 0.036125
  outer loop
   vertex 1323.244358 2091.332816 -1934.940655
   vertex 1223.244358 1918.132816 -834.940655
   vertex 1232.178049 1928.111474 -832.557316
  endloop
 endfacet
 facet normal -0.748826 0.661781 0.036125
  outer loop
   vertex 1332.178049 2101.311474 -1932.557316
   vertex 1323.244358 2091.332816 -1934.940655
   vertex 1232.178049 1928.111474 -832.557316
  endloop
 endfacet
 facet normal -0.656703 0.751862 0.058684
  outer loop
   vertex 1313.057435 2082.614624 -1937.239458
   vertex 1213.057435 1909.414624 -837.239458
   vertex 1223.244358 1918.132816 -834.940655
  endloop
 endfacet
 facet normal -0.656703 0.751862 0.058684
  outer loop
   vertex 1323.244358 2091.332816 -1934.940655
   vertex 1313.057435 2082.614624 -1937.239458
   vertex 1223.244358 1918.132816 -834.940655
  endloop
 endfacet
 facet normal -0.553343 0.829079 0.080238
  outer loop
   vertex 1301.791582 2075.306069 -1939.414392
   vertex 1201.791582 1902.106069 -839.414392
   vertex 1213.057435 1909.414624 -837.239458
  endloop
 endfacet
 facet normal -0.553343 0.829079 0.080238
  outer loop
   vertex 1313.057435 2082.614624 -1937.239458
   vertex 1301.791582 2075.306069 -1939.414392
   vertex 1213.057435 1909.414624 -837.239458
  endloop
 endfacet
 facet normal -0.440516 0.892111 0.100420
  outer loop
   vertex 1289.639561 2069.532202 -1941.428242
   vertex 1189.639561 1896.332202 -841.428242
   vertex 1201.791582 1902.106069 -839.414392
  endloop
 endfacet
 facet normal -0.440516 0.892111 0.100420
  outer loop
   vertex 1301.791582 2075.306069 -1939.414392
   vertex 1289.639561 2069.532202 -1941.428242
   vertex 1201.791582 1902.106069 -839.414392
  endloop
 endfacet
 facet normal -0.320151 0.939878 0.118883
  outer loop
   vertex 1276.809296 2065.391815 -1943.246553
   vertex 1176.809296 1892.191815 -843.246553
   vertex 1189.639561 1896.332202 -841.428242
  endloop
 endfacet
 facet normal -0.320151 0.939878 0.118883
  outer loop
   vertex 1289.639561 2069.532202 -1941.428242
   vertex 1276.809296 2065.391815 -1943.246553
   vertex 1189.639561 1896.332202 -841.428242
  endloop
 endfacet
 facet normal -0.194308 0.971563 0.135313
  outer loop
   vertex 1263.520316 2062.955752 -1944.838211
   vertex 1163.520316 1889.755752 -844.838211
   vertex 1176.809296 1892.191815 -843.246553
  endloop
 endfacet
 facet normal -0.194308 0.971563 0.135313
  outer loop
   vertex 1276.809296 2065.391815 -1943.246553
   vertex 1263.520316 2062.955752 -1944.838211
   vertex 1176.809296 1892.191815 -843.246553
  endloop
 endfacet
 facet normal -0.065141 0.986625 0.149427
  outer loop
   vertex 1250.000000 2062.265694 -1946.175983
   vertex 1150.000000 1889.065694 -846.175983
   vertex 1163.520316 1889.755752 -844.838211
  endloop
 endfacet
 facet normal -0.065141 0.986625 0.149427
  outer loop
   vertex 1263.520316 2062.955752 -1944.838211
   vertex 1250.000000 2062.265694 -1946.175983
   vertex 1163.520316 1889.755752 -844.838211
  endloop
 endfacet
 facet normal 0.065141 0.984805 0.160984
  outer loop
   vertex 1236.479684 2063.333449 -1947.236980
   vertex 1136.479684 1890.133449 -847.236980
   vertex 1150.000000 1889.065694 -846.175983
  endloop
 endfacet
 facet normal 0.065141 0.984805 0.160984
  outer loop
   vertex 1250.000000 2062.265694 -1946.175983
   vertex 1236.479684 2063.333449 -1947.236980
   vertex 1150.000000 1889.065694 -846.175983
  endloop
 endfacet
 facet normal 0.194308 0.966135 0.169787
  outer loop
   vertex 1223.190704 2066.140747 -1948.003047
   vertex 1123.190704 1892.940747 -848.003047
   vertex 1136.479684 1890.133449 -847.236980
  endloop
 endfacet
 facet normal 0.194308 0.966135 0.169787
  outer loop
   vertex 1236.479684 2063.333449 -1947.236980
   vertex 1223.190704 2066.140747 -1948.003047
   vertex 1136.479684 1890.133449 -847.236980
  endloop
 endfacet
 facet normal 0.320151 0.930934 0.175684
  outer loop
   vertex 1210.360439 2070.639554 -1948.461078
   vertex 1110.360439 1897.439554 -848.461078
   vertex 1123.190704 1892.940747 -848.003047
  endloop
 endfacet
 facet normal 0.320151 0.930934 0.175684
  outer loop
   vertex 1223.190704 2066.140747 -1948.003047
   vertex 1210.360439 2070.639554 -1948.461078
   vertex 1123.190704 1892.940747 -848.003047
  endloop
 endfacet
 facet normal 0.440516 0.879805 0.178576
  outer loop
   vertex 1198.208418 2076.752894 -1948.603234
   vertex 1098.208418 1903.552894 -848.603234
   vertex 1110.360439 1897.439554 -848.461078
  endloop
 endfacet
 facet normal 0.440516 0.879805 0.178576
  outer loop
   vertex 1210.360439 2070.639554 -1948.461078
   vertex 1198.208418 2076.752894 -1948.603234
   vertex 1110.360439 1897.439554 -848.461078
  endloop
 endfacet
 facet normal 0.553343 0.813622 0.178412
  outer loop
   vertex 1186.942565 2084.376167 -1948.427083
   vertex 1086.942565 1911.176167 -848.427083
   vertex 1098.208418 1903.552894 -848.603234
  endloop
 endfacet
 facet normal 0.553343 0.813622 0.178412
  outer loop
   vertex 1198.208418 2076.752894 -1948.603234
   vertex 1186.942565 2084.376167 -1948.427083
   vertex 1098.208418 1903.552894 -848.603234
  endloop
 endfacet
 facet normal 0.656703 0.733517 0.175196
  outer loop
   vertex 1176.755642 2093.378936 -1947.935640
   vertex 1076.755642 1920.178936 -847.935640
   vertex 1086.942565 1911.176167 -848.427083
  endloop
 endfacet
 facet normal 0.656703 0.733517 0.175196
  outer loop
   vertex 1186.942565 2084.376167 -1948.427083
   vertex 1176.755642 2093.378936 -1947.935640
   vertex 1086.942565 1911.176167 -848.427083
  endloop
 endfacet
 facet normal 0.748826 0.640862 0.168982
  outer loop
   vertex 1167.821951 2103.607161 -1947.137313
   vertex 1067.821951 1930.407161 -847.137313
   vertex 1076.755642 1920.178936 -847.935640
  endloop
 endfacet
 facet normal 0.748826 0.640862 0.168982
  outer loop
   vertex 1176.755642 2093.378936 -1947.935640
   vertex 1167.821951 2103.607161 -1947.137313
   vertex 1076.755642 1920.178936 -847.935640
  endloop
 endfacet
 facet normal 0.828137 0.537242 0.159876
  outer loop
   vertex 1160.294349 2114.885834 -1946.045762
   vertex 1060.294349 1941.685834 -846.045762
   vertex 1067.821951 1930.407161 -847.137313
  endloop
 endfacet
 facet normal 0.828137 0.537242 0.159876
  outer loop
   vertex 1167.821951 2103.607161 -1947.137313
   vertex 1160.294349 2114.885834 -1946.045762
   vertex 1067.821951 1930.407161 -847.137313
  endloop
 endfacet
 facet normal 0.893278 0.424429 0.148035
  outer loop
   vertex 1154.301635 2127.021975 -1944.679664
   vertex 1054.301635 1953.821975 -844.679664
   vertex 1060.294349 1941.685834 -846.045762
  endloop
 endfacet
 facet normal 0.893278 0.424429 0.148035
  outer loop
   vertex 1160.294349 2114.885834 -1946.045762
   vertex 1154.301635 2127.021975 -1944.679664
   vertex 1060.294349 1941.685834 -846.045762
  endloop
 endfacet
 facet normal 0.943135 0.304354 0.133661
  outer loop
   vertex 1149.946347 2139.807931 -1943.062392
   vertex 1049.946347 1966.607931 -843.062392
   vertex 1054.301635 1953.821975 -844.679664
  endloop
 endfacet
 facet normal 0.943135 0.304354 0.133661
  outer loop
   vertex 1154.301635 2127.021975 -1944.679664
   vertex 1149.946347 2139.807931 -1943.062392
   vertex 1054.301635 1953.821975 -844.679664
  endloop
 endfacet
 facet normal 0.976854 0.179072 0.117001
  outer loop
   vertex 1147.303004 2153.024929 -1941.221620
   vertex 1047.303004 1979.824929 -841.221620
   vertex 1049.946347 1966.607931 -843.062392
  endloop
 endfacet
 facet normal 0.976854 0.179072 0.117001
  outer loop
   vertex 1149.946347 2139.807931 -1943.062392
   vertex 1147.303004 2153.024929 -1941.221620
   vertex 1049.946347 1966.607931 -843.062392
  endloop
 endfacet
 facet normal 0.993859 0.050725 0.098338
  outer loop
   vertex 1146.416836 2166.446825 -1939.188842
   vertex 1046.416836 1993.246825 -839.188842
   vertex 1047.303004 1979.824929 -841.221620
  endloop
 endfacet
 facet normal 0.993859 0.050725 0.098338
  outer loop
   vertex 1147.303004 2153.024929 -1941.221620
   vertex 1146.416836 2166.446825 -1939.188842
   vertex 1047.303004 1979.824929 -841.221620
  endloop
 endfacet
 facet normal 0.993859 -0.078489 0.077992
  outer loop
   vertex 1147.303004 2179.843965 -1936.998841
   vertex 1047.303004 2006.643965 -836.998841
   vertex 1046.416836 1993.246825 -839.188842
  endloop
 endfacet
 facet normal 0.993859 -0.078489 0.077992
  outer loop
   vertex 1146.416836 2166.446825 -1939.188842
   vertex 1147.303004 2179.843965 -1936.998841
   vertex 1046.416836 1993.246825 -839.188842
  endloop
 endfacet
 facet normal 0.976854 -0.206361 0.056313
  outer loop
   vertex 1149.946347 2192.987120 -1934.689087
   vertex 1049.946347 2019.787120 -834.689087
   vertex 1047.303004 2006.643965 -836.998841
  endloop
 endfacet
 facet normal 0.976854 -0.206361 0.056313
  outer loop
   vertex 1147.303004 2179.843965 -1936.998841
   vertex 1149.946347 2192.987120 -1934.689087
   vertex 1047.303004 2006.643965 -836.998841
  endloop
 endfacet
 facet normal 0.943135 -0.330701 0.033669
  outer loop
   vertex 1154.301635 2205.651409 -1932.299102
   vertex 1054.301635 2032.451409 -832.299102
   vertex 1049.946347 2019.787120 -834.689087
  endloop
 endfacet
 facet normal 0.943135 -0.330701 0.033669
  outer loop
   vertex 1149.946347 2192.987120 -1934.689087
   vertex 1154.301635 2205.651409 -1932.299102
   vertex 1049.946347 2019.787120 -834.689087
  endloop
 endfacet
 facet normal 0.893278 -0.449383 0.010450
  outer loop
   vertex 1160.294349 2217.620140 -1929.869779
   vertex 1060.294349 2044.420140 -829.869779
   vertex 1054.301635 2032.451409 -832.299102
  endloop
 endfacet
 facet normal 0.893278 -0.449383 0.010450
  outer loop
   vertex 1154.301635 2205.651409 -1932.299102
   vertex 1160.294349 2217.620140 -1929.869779
   vertex 1054.301635 2032.451409 -832.299102
  endloop
 endfacet
 facet normal 0.828137 -0.560376 -0.012949
  outer loop
   vertex 1167.821951 2228.688526 -1927.442684
   vertex 1067.821951 2055.488526 -827.442684
   vertex 1060.294349 2044.420140 -829.869779
  endloop
 endfacet
 facet normal 0.828137 -0.560376 -0.012949
  outer loop
   vertex 1160.294349 2217.620140 -1929.869779
   vertex 1167.821951 2228.688526 -1927.442684
   vertex 1060.294349 2044.420140 -829.869779
  endloop
 endfacet
 facet normal 0.748826 -0.661781 -0.036125
  outer loop
   vertex 1176.755642 2238.667184 -1925.059345
   vertex 1076.755642 2065.467184 -825.059345
   vertex 1067.821951 2055.488526 -827.442684
  endloop
 endfacet
 facet normal 0.748826 -0.661781 -0.036125
  outer loop
   vertex 1167.821951 2228.688526 -1927.442684
   vertex 1176.755642 2238.667184 -1925.059345
   vertex 1067.821951 2055.488526 -827.442684
  endloop
 endfacet
 facet normal 0.656703 -0.751862 -0.058684
  outer loop
   vertex 1186.942565 2247.385376 -1922.760542
   vertex 1086.942565 2074.185376 -822.760542
   vertex 1076.755642 2065.467184 -825.059345
  endloop
 endfacet
 facet normal 0.656703 -0.751862 -0.058684
  outer loop
   vertex 1176.755642 2238.667184 -1925.059345
   vertex 1186.942565 2247.385376 -1922.760542
   vertex 1076.755642 2065.467184 -825.059345
  endloop
 endfacet
 facet normal 0.553343 -0.829079 -0.080238
  outer loop
   vertex 1198.208418 2254.693931 -1920.585608
   vertex 1098.208418 2081.493931 -820.585608
   vertex 1086.942565 2074.185376 -822.760542
  endloop
 endfacet
 facet normal 0.553343 -0.829079 -0.080238
  outer loop
   vertex 1186.942565 2247.385376 -1922.760542
   vertex 1198.208418 2254.693931 -1920.585608
   vertex 1086.942565 2074.185376 -822.760542
  endloop
 endfacet
 facet normal 0.440516 -0.892111 -0.100420
  outer loop
   vertex 1210.360439 2260.467798 -1918.571758
   vertex 1110.360439 2087.267798 -818.571758
   vertex 1098.208418 2081.493931 -820.585608
  endloop
 endfacet
 facet normal 0.440516 -0.892111 -0.100420
  outer loop
   vertex 1198.208418 2254.693931 -1920.585608
   vertex 1210.360439 2260.467798 -1918.571758
   vertex 1098.208418 2081.493931 -820.585608
  endloop
 endfacet
 facet normal 0.320151 -0.939878 -0.118883
  outer loop
   vertex 1223.190704 2264.608185 -1916.753447
   vertex 1123.190704 2091.408185 -816.753447
   vertex 1110.360439 2087.267798 -818.571758
  endloop
 endfacet
 facet normal 0.320151 -0.939878 -0.118883
  outer loop
   vertex 1210.360439 2260.467798 -1918.571758
   vertex 1223.190704 2264.608185 -1916.753447
   vertex 1110.360439 2087.267798 -818.571758
  endloop
 endfacet
 facet normal 0.194308 -0.971563 -0.135313
  outer loop
   vertex 1236.479684 2267.044248 -1915.161789
   vertex 1136.479684 2093.844248 -815.161789
   vertex 1123.190704 2091.408185 -816.753447
  endloop
 endfacet
 facet normal 0.194308 -0.971563 -0.135313
  outer loop
   vertex 1223.190704 2264.608185 -1916.753447
   vertex 1236.479684 2267.044248 -1915.161789
   vertex 1123.190704 2091.408185 -816.753447
  endloop
 endfacet
 facet normal 0.065141 -0.986625 -0.149427
  outer loop
   vertex 1250.000000 2267.734306 -1913.824017
   vertex 1150.000000 2094.534306 -813.824017
   vertex 1136.479684 2093.844248 -815.161789
  endloop
 endfacet
 facet normal 0.065141 -0.986625 -0.149427
  outer loop
   vertex 1236.479684 2267.044248 -1915.161789
   vertex 1250.000000 2267.734306 -1913.824017
   vertex 1136.479684 2093.844248 -815.161789
  endloop
 endfacet
endsolid SIC_LOX_DROP_4
