solid SIC_RP1_H_4
 facet normal 0.864165 -0.498940 0.065403
  outer loop
   vertex 1558.954297 2460.114123 -520.000000
   vertex 1558.065228 2460.627443 -504.336857
   vertex 1253.033217 1932.312000 -504.336857
  endloop
 endfacet
 facet normal 0.864165 -0.498940 0.065403
  outer loop
   vertex 1558.954297 2460.114123 -520.000000
   vertex 1253.033217 1932.312000 -504.336857
   vertex 1253.922286 1931.798680 -520.000000
  endloop
 endfacet
 facet normal 0.849379 -0.490403 0.195090
  outer loop
   vertex 1558.065228 2460.627443 -504.336857
   vertex 1555.413231 2462.158619 -488.941715
   vertex 1250.381220 1933.843175 -488.941715
  endloop
 endfacet
 facet normal 0.849379 -0.490403 0.195090
  outer loop
   vertex 1558.065228 2460.627443 -504.336857
   vertex 1250.381220 1933.843175 -488.941715
   vertex 1253.033217 1932.312000 -504.336857
  endloop
 endfacet
 facet normal 0.820060 -0.473475 0.321439
  outer loop
   vertex 1555.413231 2462.158619 -488.941715
   vertex 1551.043684 2464.681452 -474.077988
   vertex 1246.011673 1936.366008 -474.077988
  endloop
 endfacet
 facet normal 0.820060 -0.473475 0.321439
  outer loop
   vertex 1555.413231 2462.158619 -488.941715
   vertex 1246.011673 1936.366008 -474.077988
   vertex 1250.381220 1933.843175 -488.941715
  endloop
 endfacet
 facet normal 0.776709 -0.448446 0.442289
  outer loop
   vertex 1551.043684 2464.681452 -474.077988
   vertex 1545.031351 2468.152776 -460.000000
   vertex 1239.999340 1939.837333 -460.000000
  endloop
 endfacet
 facet normal 0.776709 -0.448446 0.442289
  outer loop
   vertex 1551.043684 2464.681452 -474.077988
   vertex 1239.999340 1939.837333 -460.000000
   vertex 1246.011673 1936.366008 -474.077988
  endloop
 endfacet
 facet normal 0.720069 -0.415744 0.555570
  outer loop
   vertex 1545.031351 2468.152776 -460.000000
   vertex 1537.479104 2472.513195 -446.948629
   vertex 1232.447093 1944.197752 -446.948629
  endloop
 endfacet
 facet normal 0.720069 -0.415744 0.555570
  outer loop
   vertex 1545.031351 2468.152776 -460.000000
   vertex 1232.447093 1944.197752 -446.948629
   vertex 1239.999340 1939.837333 -460.000000
  endloop
 endfacet
 facet normal 0.651108 -0.375928 0.659346
  outer loop
   vertex 1537.479104 2472.513195 -446.948629
   vertex 1528.516164 2477.688103 -435.147186
   vertex 1223.484153 1949.372660 -435.147186
  endloop
 endfacet
 facet normal 0.651108 -0.375928 0.659346
  outer loop
   vertex 1537.479104 2472.513195 -446.948629
   vertex 1223.484153 1949.372660 -435.147186
   vertex 1232.447093 1944.197752 -446.948629
  endloop
 endfacet
 facet normal 0.571006 -0.329680 0.751840
  outer loop
   vertex 1528.516164 2477.688103 -435.147186
   vertex 1518.295891 2483.588954 -424.797599
   vertex 1213.263880 1955.273511 -424.797599
  endloop
 endfacet
 facet normal 0.571006 -0.329680 0.751840
  outer loop
   vertex 1528.516164 2477.688103 -435.147186
   vertex 1213.263880 1955.273511 -424.797599
   vertex 1223.484153 1949.372660 -435.147186
  endloop
 endfacet
 facet normal 0.481134 -0.277791 0.831470
  outer loop
   vertex 1518.295891 2483.588954 -424.797599
   vertex 1506.993154 2490.114783 -416.076952
   vertex 1201.961143 1961.799340 -416.076952
  endloop
 endfacet
 facet normal 0.481134 -0.277791 0.831470
  outer loop
   vertex 1518.295891 2483.588954 -424.797599
   vertex 1201.961143 1961.799340 -416.076952
   vertex 1213.263880 1955.273511 -424.797599
  endloop
 endfacet
 facet normal 0.383030 -0.221149 0.896873
  outer loop
   vertex 1506.993154 2490.114783 -416.076952
   vertex 1494.801348 2497.153932 -409.134456
   vertex 1189.769337 1968.838489 -409.134456
  endloop
 endfacet
 facet normal 0.383030 -0.221149 0.896873
  outer loop
   vertex 1506.993154 2490.114783 -416.076952
   vertex 1189.769337 1968.838489 -409.134456
   vertex 1201.961143 1961.799340 -416.076952
  endloop
 endfacet
 facet normal 0.278373 -0.160723 0.946930
  outer loop
   vertex 1494.801348 2497.153932 -409.134456
   vertex 1481.929078 2504.585959 -404.088901
   vertex 1176.897067 1976.270516 -404.088901
  endloop
 endfacet
 facet normal 0.278373 -0.160723 0.946930
  outer loop
   vertex 1494.801348 2497.153932 -409.134456
   vertex 1176.897067 1976.270516 -404.088901
   vertex 1189.769337 1968.838489 -409.134456
  endloop
 endfacet
 facet normal 0.168952 -0.097547 0.980785
  outer loop
   vertex 1481.929078 2504.585959 -404.088901
   vertex 1468.596591 2512.283699 -401.026617
   vertex 1163.564580 1983.968256 -401.026617
  endloop
 endfacet
 facet normal 0.168952 -0.097547 0.980785
  outer loop
   vertex 1481.929078 2504.585959 -404.088901
   vertex 1163.564580 1983.968256 -401.026617
   vertex 1176.897067 1976.270516 -404.088901
  endloop
 endfacet
 facet normal 0.056640 -0.032702 0.997859
  outer loop
   vertex 1468.596591 2512.283699 -401.026617
   vertex 1455.032011 2520.115443 -400.000000
   vertex 1150.000000 1991.800000 -400.000000
  endloop
 endfacet
 facet normal 0.056640 -0.032702 0.997859
  outer loop
   vertex 1468.596591 2512.283699 -401.026617
   vertex 1150.000000 1991.800000 -400.000000
   vertex 1163.564580 1983.968256 -401.026617
  endloop
 endfacet
 facet normal -0.056640 0.032702 0.997859
  outer loop
   vertex 1455.032011 2520.115443 -400.000000
   vertex 1441.467431 2527.947187 -401.026617
   vertex 1136.435420 1999.631744 -401.026617
  endloop
 endfacet
 facet normal -0.056640 0.032702 0.997859
  outer loop
   vertex 1455.032011 2520.115443 -400.000000
   vertex 1136.435420 1999.631744 -401.026617
   vertex 1150.000000 1991.800000 -400.000000
  endloop
 endfacet
 facet normal -0.168952 0.097547 0.980785
  outer loop
   vertex 1441.467431 2527.947187 -401.026617
   vertex 1428.134944 2535.644928 -404.088901
   vertex 1123.102933 2007.329484 -404.088901
  endloop
 endfacet
 facet normal -0.168952 0.097547 0.980785
  outer loop
   vertex 1441.467431 2527.947187 -401.026617
   vertex 1123.102933 2007.329484 -404.088901
   vertex 1136.435420 1999.631744 -401.026617
  endloop
 endfacet
 facet normal -0.278373 0.160723 0.946930
  outer loop
   vertex 1428.134944 2535.644928 -404.088901
   vertex 1415.262674 2543.076954 -409.134456
   vertex 1110.230663 2014.761511 -409.134456
  endloop
 endfacet
 facet normal -0.278373 0.160723 0.946930
  outer loop
   vertex 1428.134944 2535.644928 -404.088901
   vertex 1110.230663 2014.761511 -409.134456
   vertex 1123.102933 2007.329484 -404.088901
  endloop
 endfacet
 facet normal -0.383030 0.221149 0.896873
  outer loop
   vertex 1415.262674 2543.076954 -409.134456
   vertex 1403.070868 2550.116103 -416.076952
   vertex 1098.038857 2021.800660 -416.076952
  endloop
 endfacet
 facet normal -0.383030 0.221149 0.896873
  outer loop
   vertex 1415.262674 2543.076954 -409.134456
   vertex 1098.038857 2021.800660 -416.076952
   vertex 1110.230663 2014.761511 -409.134456
  endloop
 endfacet
 facet normal -0.481134 0.277791 0.831470
  outer loop
   vertex 1403.070868 2550.116103 -416.076952
   vertex 1391.768132 2556.641932 -424.797599
   vertex 1086.736120 2028.326489 -424.797599
  endloop
 endfacet
 facet normal -0.481134 0.277791 0.831470
  outer loop
   vertex 1403.070868 2550.116103 -416.076952
   vertex 1086.736120 2028.326489 -424.797599
   vertex 1098.038857 2021.800660 -416.076952
  endloop
 endfacet
 facet normal -0.571006 0.329680 0.751840
  outer loop
   vertex 1391.768132 2556.641932 -424.797599
   vertex 1381.547858 2562.542783 -435.147186
   vertex 1076.515847 2034.227340 -435.147186
  endloop
 endfacet
 facet normal -0.571006 0.329680 0.751840
  outer loop
   vertex 1391.768132 2556.641932 -424.797599
   vertex 1076.515847 2034.227340 -435.147186
   vertex 1086.736120 2028.326489 -424.797599
  endloop
 endfacet
 facet normal -0.651108 0.375928 0.659346
  outer loop
   vertex 1381.547858 2562.542783 -435.147186
   vertex 1372.584918 2567.717691 -446.948629
   vertex 1067.552907 2039.402248 -446.948629
  endloop
 endfacet
 facet normal -0.651108 0.375928 0.659346
  outer loop
   vertex 1381.547858 2562.542783 -435.147186
   vertex 1067.552907 2039.402248 -446.948629
   vertex 1076.515847 2034.227340 -435.147186
  endloop
 endfacet
 facet normal -0.720069 0.415744 0.555570
  outer loop
   vertex 1372.584918 2567.717691 -446.948629
   vertex 1365.032671 2572.078111 -460.000000
   vertex 1060.000660 2043.762667 -460.000000
  endloop
 endfacet
 facet normal -0.720069 0.415744 0.555570
  outer loop
   vertex 1372.584918 2567.717691 -446.948629
   vertex 1060.000660 2043.762667 -460.000000
   vertex 1067.552907 2039.402248 -446.948629
  endloop
 endfacet
 facet normal -0.776709 0.448446 0.442289
  outer loop
   vertex 1365.032671 2572.078111 -460.000000
   vertex 1359.020338 2575.549435 -474.077988
   vertex 1053.988327 2047.233992 -474.077988
  endloop
 endfacet
 facet normal -0.776709 0.448446 0.442289
  outer loop
   vertex 1365.032671 2572.078111 -460.000000
   vertex 1053.988327 2047.233992 -474.077988
   vertex 1060.000660 2043.762667 -460.000000
  endloop
 endfacet
 facet normal -0.820060 0.473475 0.321439
  outer loop
   vertex 1359.020338 2575.549435 -474.077988
   vertex 1354.650791 2578.072268 -488.941715
   vertex 1049.618780 2049.756825 -488.941715
  endloop
 endfacet
 facet normal -0.820060 0.473475 0.321439
  outer loop
   vertex 1359.020338 2575.549435 -474.077988
   vertex 1049.618780 2049.756825 -488.941715
   vertex 1053.988327 2047.233992 -474.077988
  endloop
 endfacet
 facet normal -0.849379 0.490403 0.195090
  outer loop
   vertex 1354.650791 2578.072268 -488.941715
   vertex 1351.998794 2579.603444 -504.336857
   vertex 1046.966783 2051.288000 -504.336857
  endloop
 endfacet
 facet normal -0.849379 0.490403 0.195090
  outer loop
   vertex 1354.650791 2578.072268 -488.941715
   vertex 1046.966783 2051.288000 -504.336857
   vertex 1049.618780 2049.756825 -488.941715
  endloop
 endfacet
 facet normal -0.864165 0.498940 0.065403
  outer loop
   vertex 1351.998794 2579.603444 -504.336857
   vertex 1351.109725 2580.116763 -520.000000
   vertex 1046.077714 2051.801320 -520.000000
  endloop
 endfacet
 facet normal -0.864165 0.498940 0.065403
  outer loop
   vertex 1351.998794 2579.603444 -504.336857
   vertex 1046.077714 2051.801320 -520.000000
   vertex 1046.966783 2051.288000 -504.336857
  endloop
 endfacet
 facet normal -0.864165 0.498940 -0.065403
  outer loop
   vertex 1351.109725 2580.116763 -520.000000
   vertex 1351.998794 2579.603444 -535.663143
   vertex 1046.966783 2051.288000 -535.663143
  endloop
 endfacet
 facet normal -0.864165 0.498940 -0.065403
  outer loop
   vertex 1351.109725 2580.116763 -520.000000
   vertex 1046.966783 2051.288000 -535.663143
   vertex 1046.077714 2051.801320 -520.000000
  endloop
 endfacet
 facet normal -0.849379 0.490403 -0.195090
  outer loop
   vertex 1351.998794 2579.603444 -535.663143
   vertex 1354.650791 2578.072268 -551.058285
   vertex 1049.618780 2049.756825 -551.058285
  endloop
 endfacet
 facet normal -0.849379 0.490403 -0.195090
  outer loop
   vertex 1351.998794 2579.603444 -535.663143
   vertex 1049.618780 2049.756825 -551.058285
   vertex 1046.966783 2051.288000 -535.663143
  endloop
 endfacet
 facet normal -0.820060 0.473475 -0.321439
  outer loop
   vertex 1354.650791 2578.072268 -551.058285
   vertex 1359.020338 2575.549435 -565.922012
   vertex 1053.988327 2047.233992 -565.922012
  endloop
 endfacet
 facet normal -0.820060 0.473475 -0.321439
  outer loop
   vertex 1354.650791 2578.072268 -551.058285
   vertex 1053.988327 2047.233992 -565.922012
   vertex 1049.618780 2049.756825 -551.058285
  endloop
 endfacet
 facet normal -0.776709 0.448446 -0.442289
  outer loop
   vertex 1359.020338 2575.549435 -565.922012
   vertex 1365.032671 2572.078111 -580.000000
   vertex 1060.000660 2043.762667 -580.000000
  endloop
 endfacet
 facet normal -0.776709 0.448446 -0.442289
  outer loop
   vertex 1359.020338 2575.549435 -565.922012
   vertex 1060.000660 2043.762667 -580.000000
   vertex 1053.988327 2047.233992 -565.922012
  endloop
 endfacet
 facet normal -0.720069 0.415744 -0.555570
  outer loop
   vertex 1365.032671 2572.078111 -580.000000
   vertex 1372.584918 2567.717691 -593.051371
   vertex 1067.552907 2039.402248 -593.051371
  endloop
 endfacet
 facet normal -0.720069 0.415744 -0.555570
  outer loop
   vertex 1365.032671 2572.078111 -580.000000
   vertex 1067.552907 2039.402248 -593.051371
   vertex 1060.000660 2043.762667 -580.000000
  endloop
 endfacet
 facet normal -0.651108 0.375928 -0.659346
  outer loop
   vertex 1372.584918 2567.717691 -593.051371
   vertex 1381.547858 2562.542783 -604.852814
   vertex 1076.515847 2034.227340 -604.852814
  endloop
 endfacet
 facet normal -0.651108 0.375928 -0.659346
  outer loop
   vertex 1372.584918 2567.717691 -593.051371
   vertex 1076.515847 2034.227340 -604.852814
   vertex 1067.552907 2039.402248 -593.051371
  endloop
 endfacet
 facet normal -0.571006 0.329680 -0.751840
  outer loop
   vertex 1381.547858 2562.542783 -604.852814
   vertex 1391.768132 2556.641932 -615.202401
   vertex 1086.736120 2028.326489 -615.202401
  endloop
 endfacet
 facet normal -0.571006 0.329680 -0.751840
  outer loop
   vertex 1381.547858 2562.542783 -604.852814
   vertex 1086.736120 2028.326489 -615.202401
   vertex 1076.515847 2034.227340 -604.852814
  endloop
 endfacet
 facet normal -0.481134 0.277791 -0.831470
  outer loop
   vertex 1391.768132 2556.641932 -615.202401
   vertex 1403.070868 2550.116103 -623.923048
   vertex 1098.038857 2021.800660 -623.923048
  endloop
 endfacet
 facet normal -0.481134 0.277791 -0.831470
  outer loop
   vertex 1391.768132 2556.641932 -615.202401
   vertex 1098.038857 2021.800660 -623.923048
   vertex 1086.736120 2028.326489 -615.202401
  endloop
 endfacet
 facet normal -0.383030 0.221149 -0.896873
  outer loop
   vertex 1403.070868 2550.116103 -623.923048
   vertex 1415.262674 2543.076954 -630.865544
   vertex 1110.230663 2014.761511 -630.865544
  endloop
 endfacet
 facet normal -0.383030 0.221149 -0.896873
  outer loop
   vertex 1403.070868 2550.116103 -623.923048
   vertex 1110.230663 2014.761511 -630.865544
   vertex 1098.038857 2021.800660 -623.923048
  endloop
 endfacet
 facet normal -0.278373 0.160723 -0.946930
  outer loop
   vertex 1415.262674 2543.076954 -630.865544
   vertex 1428.134944 2535.644928 -635.911099
   vertex 1123.102933 2007.329484 -635.911099
  endloop
 endfacet
 facet normal -0.278373 0.160723 -0.946930
  outer loop
   vertex 1415.262674 2543.076954 -630.865544
   vertex 1123.102933 2007.329484 -635.911099
   vertex 1110.230663 2014.761511 -630.865544
  endloop
 endfacet
 facet normal -0.168952 0.097547 -0.980785
  outer loop
   vertex 1428.134944 2535.644928 -635.911099
   vertex 1441.467431 2527.947187 -638.973383
   vertex 1136.435420 1999.631744 -638.973383
  endloop
 endfacet
 facet normal -0.168952 0.097547 -0.980785
  outer loop
   vertex 1428.134944 2535.644928 -635.911099
   vertex 1136.435420 1999.631744 -638.973383
   vertex 1123.102933 2007.329484 -635.911099
  endloop
 endfacet
 facet normal -0.056640 0.032702 -0.997859
  outer loop
   vertex 1441.467431 2527.947187 -638.973383
   vertex 1455.032011 2520.115443 -640.000000
   vertex 1150.000000 1991.800000 -640.000000
  endloop
 endfacet
 facet normal -0.056640 0.032702 -0.997859
  outer loop
   vertex 1441.467431 2527.947187 -638.973383
   vertex 1150.000000 1991.800000 -640.000000
   vertex 1136.435420 1999.631744 -638.973383
  endloop
 endfacet
 facet normal 0.056640 -0.032702 -0.997859
  outer loop
   vertex 1455.032011 2520.115443 -640.000000
   vertex 1468.596591 2512.283699 -638.973383
   vertex 1163.564580 1983.968256 -638.973383
  endloop
 endfacet
 facet normal 0.056640 -0.032702 -0.997859
  outer loop
   vertex 1455.032011 2520.115443 -640.000000
   vertex 1163.564580 1983.968256 -638.973383
   vertex 1150.000000 1991.800000 -640.000000
  endloop
 endfacet
 facet normal 0.168952 -0.097547 -0.980785
  outer loop
   vertex 1468.596591 2512.283699 -638.973383
   vertex 1481.929078 2504.585959 -635.911099
   vertex 1176.897067 1976.270516 -635.911099
  endloop
 endfacet
 facet normal 0.168952 -0.097547 -0.980785
  outer loop
   vertex 1468.596591 2512.283699 -638.973383
   vertex 1176.897067 1976.270516 -635.911099
   vertex 1163.564580 1983.968256 -638.973383
  endloop
 endfacet
 facet normal 0.278373 -0.160723 -0.946930
  outer loop
   vertex 1481.929078 2504.585959 -635.911099
   vertex 1494.801348 2497.153932 -630.865544
   vertex 1189.769337 1968.838489 -630.865544
  endloop
 endfacet
 facet normal 0.278373 -0.160723 -0.946930
  outer loop
   vertex 1481.929078 2504.585959 -635.911099
   vertex 1189.769337 1968.838489 -630.865544
   vertex 1176.897067 1976.270516 -635.911099
  endloop
 endfacet
 facet normal 0.383030 -0.221149 -0.896873
  outer loop
   vertex 1494.801348 2497.153932 -630.865544
   vertex 1506.993154 2490.114783 -623.923048
   vertex 1201.961143 1961.799340 -623.923048
  endloop
 endfacet
 facet normal 0.383030 -0.221149 -0.896873
  outer loop
   vertex 1494.801348 2497.153932 -630.865544
   vertex 1201.961143 1961.799340 -623.923048
   vertex 1189.769337 1968.838489 -630.865544
  endloop
 endfacet
 facet normal 0.481134 -0.277791 -0.831470
  outer loop
   vertex 1506.993154 2490.114783 -623.923048
   vertex 1518.295891 2483.588954 -615.202401
   vertex 1213.263880 1955.273511 -615.202401
  endloop
 endfacet
 facet normal 0.481134 -0.277791 -0.831470
  outer loop
   vertex 1506.993154 2490.114783 -623.923048
   vertex 1213.263880 1955.273511 -615.202401
   vertex 1201.961143 1961.799340 -623.923048
  endloop
 endfacet
 facet normal 0.571006 -0.329680 -0.751840
  outer loop
   vertex 1518.295891 2483.588954 -615.202401
   vertex 1528.516164 2477.688103 -604.852814
   vertex 1223.484153 1949.372660 -604.852814
  endloop
 endfacet
 facet normal 0.571006 -0.329680 -0.751840
  outer loop
   vertex 1518.295891 2483.588954 -615.202401
   vertex 1223.484153 1949.372660 -604.852814
   vertex 1213.263880 1955.273511 -615.202401
  endloop
 endfacet
 facet normal 0.651108 -0.375928 -0.659346
  outer loop
   vertex 1528.516164 2477.688103 -604.852814
   vertex 1537.479104 2472.513195 -593.051371
   vertex 1232.447093 1944.197752 -593.051371
  endloop
 endfacet
 facet normal 0.651108 -0.375928 -0.659346
  outer loop
   vertex 1528.516164 2477.688103 -604.852814
   vertex 1232.447093 1944.197752 -593.051371
   vertex 1223.484153 1949.372660 -604.852814
  endloop
 endfacet
 facet normal 0.720069 -0.415744 -0.555570
  outer loop
   vertex 1537.479104 2472.513195 -593.051371
   vertex 1545.031351 2468.152776 -580.000000
   vertex 1239.999340 1939.837333 -580.000000
  endloop
 endfacet
 facet normal 0.720069 -0.415744 -0.555570
  outer loop
   vertex 1537.479104 2472.513195 -593.051371
   vertex 1239.999340 1939.837333 -580.000000
   vertex 1232.447093 1944.197752 -593.051371
  endloop
 endfacet
 facet normal 0.776709 -0.448446 -0.442289
  outer loop
   vertex 1545.031351 2468.152776 -580.000000
   vertex 1551.043684 2464.681452 -565.922012
   vertex 1246.011673 1936.366008 -565.922012
  endloop
 endfacet
 facet normal 0.776709 -0.448446 -0.442289
  outer loop
   vertex 1545.031351 2468.152776 -580.000000
   vertex 1246.011673 1936.366008 -565.922012
   vertex 1239.999340 1939.837333 -580.000000
  endloop
 endfacet
 facet normal 0.820060 -0.473475 -0.321439
  outer loop
   vertex 1551.043684 2464.681452 -565.922012
   vertex 1555.413231 2462.158619 -551.058285
   vertex 1250.381220 1933.843175 -551.058285
  endloop
 endfacet
 facet normal 0.820060 -0.473475 -0.321439
  outer loop
   vertex 1551.043684 2464.681452 -565.922012
   vertex 1250.381220 1933.843175 -551.058285
   vertex 1246.011673 1936.366008 -565.922012
  endloop
 endfacet
 facet normal 0.849379 -0.490403 -0.195090
  outer loop
   vertex 1555.413231 2462.158619 -551.058285
   vertex 1558.065228 2460.627443 -535.663143
   vertex 1253.033217 1932.312000 -535.663143
  endloop
 endfacet
 facet normal 0.849379 -0.490403 -0.195090
  outer loop
   vertex 1555.413231 2462.158619 -551.058285
   vertex 1253.033217 1932.312000 -535.663143
   vertex 1250.381220 1933.843175 -551.058285
  endloop
 endfacet
 facet normal 0.864165 -0.498940 -0.065403
  outer loop
   vertex 1558.065228 2460.627443 -535.663143
   vertex 1558.954297 2460.114123 -520.000000
   vertex 1253.922286 1931.798680 -520.000000
  endloop
 endfacet
 facet normal 0.864165 -0.498940 -0.065403
  outer loop
   vertex 1558.065228 2460.627443 -535.663143
   vertex 1253.922286 1931.798680 -520.000000
   vertex 1253.033217 1932.312000 -535.663143
  endloop
 endfacet
 facet normal -0.864165 0.498940 -0.065403
  outer loop
   vertex 1239.295455 1940.243733 -506.425276
   vertex 1544.327466 2468.559176 -506.425276
   vertex 1545.097993 2468.114299 -520.000000
  endloop
 endfacet
 facet normal -0.864165 0.498940 -0.065403
  outer loop
   vertex 1240.065981 1939.798856 -520.000000
   vertex 1239.295455 1940.243733 -506.425276
   vertex 1545.097993 2468.114299 -520.000000
  endloop
 endfacet
 facet normal -0.849379 0.490403 -0.195090
  outer loop
   vertex 1236.997058 1941.570752 -493.082819
   vertex 1542.029069 2469.886195 -493.082819
   vertex 1544.327466 2468.559176 -506.425276
  endloop
 endfacet
 facet normal -0.849379 0.490403 -0.195090
  outer loop
   vertex 1239.295455 1940.243733 -506.425276
   vertex 1236.997058 1941.570752 -493.082819
   vertex 1544.327466 2468.559176 -506.425276
  endloop
 endfacet
 facet normal -0.820060 0.473475 -0.321439
  outer loop
   vertex 1233.210117 1943.757207 -480.200923
   vertex 1538.242128 2472.072651 -480.200923
   vertex 1542.029069 2469.886195 -493.082819
  endloop
 endfacet
 facet normal -0.820060 0.473475 -0.321439
  outer loop
   vertex 1236.997058 1941.570752 -493.082819
   vertex 1233.210117 1943.757207 -480.200923
   vertex 1542.029069 2469.886195 -493.082819
  endloop
 endfacet
 facet normal -0.776709 0.448446 -0.442289
  outer loop
   vertex 1227.999428 1946.765688 -468.000000
   vertex 1533.031439 2475.081131 -468.000000
   vertex 1538.242128 2472.072651 -480.200923
  endloop
 endfacet
 facet normal -0.776709 0.448446 -0.442289
  outer loop
   vertex 1233.210117 1943.757207 -480.200923
   vertex 1227.999428 1946.765688 -468.000000
   vertex 1538.242128 2472.072651 -480.200923
  endloop
 endfacet
 facet normal -0.720069 0.415744 -0.555570
  outer loop
   vertex 1221.454147 1950.544719 -456.688811
   vertex 1526.486158 2478.860162 -456.688811
   vertex 1533.031439 2475.081131 -468.000000
  endloop
 endfacet
 facet normal -0.720069 0.415744 -0.555570
  outer loop
   vertex 1227.999428 1946.765688 -468.000000
   vertex 1221.454147 1950.544719 -456.688811
   vertex 1533.031439 2475.081131 -468.000000
  endloop
 endfacet
 facet normal -0.651108 0.375928 -0.659346
  outer loop
   vertex 1213.686266 1955.029638 -446.460895
   vertex 1518.718277 2483.345082 -446.460895
   vertex 1526.486158 2478.860162 -456.688811
  endloop
 endfacet
 facet normal -0.651108 0.375928 -0.659346
  outer loop
   vertex 1221.454147 1950.544719 -456.688811
   vertex 1213.686266 1955.029638 -446.460895
   vertex 1526.486158 2478.860162 -456.688811
  endloop
 endfacet
 facet normal -0.571006 0.329680 -0.751840
  outer loop
   vertex 1204.828696 1960.143709 -437.491253
   vertex 1509.860707 2488.459152 -437.491253
   vertex 1518.718277 2483.345082 -446.460895
  endloop
 endfacet
 facet normal -0.571006 0.329680 -0.751840
  outer loop
   vertex 1213.686266 1955.029638 -446.460895
   vertex 1204.828696 1960.143709 -437.491253
   vertex 1518.718277 2483.345082 -446.460895
  endloop
 endfacet
 facet normal -0.481134 0.277791 -0.831470
  outer loop
   vertex 1195.032991 1965.799428 -429.933358
   vertex 1500.065002 2494.114871 -429.933358
   vertex 1509.860707 2488.459152 -437.491253
  endloop
 endfacet
 facet normal -0.481134 0.277791 -0.831470
  outer loop
   vertex 1204.828696 1960.143709 -437.491253
   vertex 1195.032991 1965.799428 -429.933358
   vertex 1509.860707 2488.459152 -437.491253
  endloop
 endfacet
 facet normal -0.383030 0.221149 -0.896873
  outer loop
   vertex 1184.466759 1971.900024 -423.916529
   vertex 1489.498770 2500.215467 -423.916529
   vertex 1500.065002 2494.114871 -429.933358
  endloop
 endfacet
 facet normal -0.383030 0.221149 -0.896873
  outer loop
   vertex 1195.032991 1965.799428 -429.933358
   vertex 1184.466759 1971.900024 -423.916529
   vertex 1500.065002 2494.114871 -429.933358
  endloop
 endfacet
 facet normal -0.278373 0.160723 -0.946930
  outer loop
   vertex 1173.310791 1978.341114 -419.543714
   vertex 1478.342802 2506.656557 -419.543714
   vertex 1489.498770 2500.215467 -423.916529
  endloop
 endfacet
 facet normal -0.278373 0.160723 -0.946930
  outer loop
   vertex 1184.466759 1971.900024 -423.916529
   vertex 1173.310791 1978.341114 -419.543714
   vertex 1489.498770 2500.215467 -423.916529
  endloop
 endfacet
 facet normal -0.168952 0.097547 -0.980785
  outer loop
   vertex 1161.755970 1985.012489 -416.889734
   vertex 1466.787981 2513.327932 -416.889734
   vertex 1478.342802 2506.656557 -419.543714
  endloop
 endfacet
 facet normal -0.168952 0.097547 -0.980785
  outer loop
   vertex 1173.310791 1978.341114 -419.543714
   vertex 1161.755970 1985.012489 -416.889734
   vertex 1478.342802 2506.656557 -419.543714
  endloop
 endfacet
 facet normal -0.056640 0.032702 -0.997859
  outer loop
   vertex 1150.000000 1991.800000 -416.000000
   vertex 1455.032011 2520.115443 -416.000000
   vertex 1466.787981 2513.327932 -416.889734
  endloop
 endfacet
 facet normal -0.056640 0.032702 -0.997859
  outer loop
   vertex 1161.755970 1985.012489 -416.889734
   vertex 1150.000000 1991.800000 -416.000000
   vertex 1466.787981 2513.327932 -416.889734
  endloop
 endfacet
 facet normal 0.056640 -0.032702 -0.997859
  outer loop
   vertex 1138.244030 1998.587511 -416.889734
   vertex 1443.276041 2526.902954 -416.889734
   vertex 1455.032011 2520.115443 -416.000000
  endloop
 endfacet
 facet normal 0.056640 -0.032702 -0.997859
  outer loop
   vertex 1150.000000 1991.800000 -416.000000
   vertex 1138.244030 1998.587511 -416.889734
   vertex 1455.032011 2520.115443 -416.000000
  endloop
 endfacet
 facet normal 0.168952 -0.097547 -0.980785
  outer loop
   vertex 1126.689209 2005.258886 -419.543714
   vertex 1431.721220 2533.574330 -419.543714
   vertex 1443.276041 2526.902954 -416.889734
  endloop
 endfacet
 facet normal 0.168952 -0.097547 -0.980785
  outer loop
   vertex 1138.244030 1998.587511 -416.889734
   vertex 1126.689209 2005.258886 -419.543714
   vertex 1443.276041 2526.902954 -416.889734
  endloop
 endfacet
 facet normal 0.278373 -0.160723 -0.946930
  outer loop
   vertex 1115.533241 2011.699976 -423.916529
   vertex 1420.565252 2540.015419 -423.916529
   vertex 1431.721220 2533.574330 -419.543714
  endloop
 endfacet
 facet normal 0.278373 -0.160723 -0.946930
  outer loop
   vertex 1126.689209 2005.258886 -419.543714
   vertex 1115.533241 2011.699976 -423.916529
   vertex 1431.721220 2533.574330 -419.543714
  endloop
 endfacet
 facet normal 0.383030 -0.221149 -0.896873
  outer loop
   vertex 1104.967009 2017.800572 -429.933358
   vertex 1409.999020 2546.116015 -429.933358
   vertex 1420.565252 2540.015419 -423.916529
  endloop
 endfacet
 facet normal 0.383030 -0.221149 -0.896873
  outer loop
   vertex 1115.533241 2011.699976 -423.916529
   vertex 1104.967009 2017.800572 -429.933358
   vertex 1420.565252 2540.015419 -423.916529
  endloop
 endfacet
 facet normal 0.481134 -0.277791 -0.831470
  outer loop
   vertex 1095.171304 2023.456291 -437.491253
   vertex 1400.203315 2551.771734 -437.491253
   vertex 1409.999020 2546.116015 -429.933358
  endloop
 endfacet
 facet normal 0.481134 -0.277791 -0.831470
  outer loop
   vertex 1104.967009 2017.800572 -429.933358
   vertex 1095.171304 2023.456291 -437.491253
   vertex 1409.999020 2546.116015 -429.933358
  endloop
 endfacet
 facet normal 0.571006 -0.329680 -0.751840
  outer loop
   vertex 1086.313734 2028.570362 -446.460895
   vertex 1391.345745 2556.885805 -446.460895
   vertex 1400.203315 2551.771734 -437.491253
  endloop
 endfacet
 facet normal 0.571006 -0.329680 -0.751840
  outer loop
   vertex 1095.171304 2023.456291 -437.491253
   vertex 1086.313734 2028.570362 -446.460895
   vertex 1400.203315 2551.771734 -437.491253
  endloop
 endfacet
 facet normal 0.651108 -0.375928 -0.659346
  outer loop
   vertex 1078.545853 2033.055281 -456.688811
   vertex 1383.577864 2561.370724 -456.688811
   vertex 1391.345745 2556.885805 -446.460895
  endloop
 endfacet
 facet normal 0.651108 -0.375928 -0.659346
  outer loop
   vertex 1086.313734 2028.570362 -446.460895
   vertex 1078.545853 2033.055281 -456.688811
   vertex 1391.345745 2556.885805 -446.460895
  endloop
 endfacet
 facet normal 0.720069 -0.415744 -0.555570
  outer loop
   vertex 1072.000572 2036.834312 -468.000000
   vertex 1377.032583 2565.149755 -468.000000
   vertex 1383.577864 2561.370724 -456.688811
  endloop
 endfacet
 facet normal 0.720069 -0.415744 -0.555570
  outer loop
   vertex 1078.545853 2033.055281 -456.688811
   vertex 1072.000572 2036.834312 -468.000000
   vertex 1383.577864 2561.370724 -456.688811
  endloop
 endfacet
 facet normal 0.776709 -0.448446 -0.442289
  outer loop
   vertex 1066.789883 2039.842793 -480.200923
   vertex 1371.821894 2568.158236 -480.200923
   vertex 1377.032583 2565.149755 -468.000000
  endloop
 endfacet
 facet normal 0.776709 -0.448446 -0.442289
  outer loop
   vertex 1072.000572 2036.834312 -468.000000
   vertex 1066.789883 2039.842793 -480.200923
   vertex 1377.032583 2565.149755 -468.000000
  endloop
 endfacet
 facet normal 0.820060 -0.473475 -0.321439
  outer loop
   vertex 1063.002942 2042.029248 -493.082819
   vertex 1368.034953 2570.344691 -493.082819
   vertex 1371.821894 2568.158236 -480.200923
  endloop
 endfacet
 facet normal 0.820060 -0.473475 -0.321439
  outer loop
   vertex 1066.789883 2039.842793 -480.200923
   vertex 1063.002942 2042.029248 -493.082819
   vertex 1371.821894 2568.158236 -480.200923
  endloop
 endfacet
 facet normal 0.849379 -0.490403 -0.195090
  outer loop
   vertex 1060.704545 2043.356267 -506.425276
   vertex 1365.736557 2571.671710 -506.425276
   vertex 1368.034953 2570.344691 -493.082819
  endloop
 endfacet
 facet normal 0.849379 -0.490403 -0.195090
  outer loop
   vertex 1063.002942 2042.029248 -493.082819
   vertex 1060.704545 2043.356267 -506.425276
   vertex 1368.034953 2570.344691 -493.082819
  endloop
 endfacet
 facet normal 0.864165 -0.498940 -0.065403
  outer loop
   vertex 1059.934019 2043.801144 -520.000000
   vertex 1364.966030 2572.116587 -520.000000
   vertex 1365.736557 2571.671710 -506.425276
  endloop
 endfacet
 facet normal 0.864165 -0.498940 -0.065403
  outer loop
   vertex 1060.704545 2043.356267 -506.425276
   vertex 1059.934019 2043.801144 -520.000000
   vertex 1365.736557 2571.671710 -506.425276
  endloop
 endfacet
 facet normal 0.864165 -0.498940 0.065403
  outer loop
   vertex 1060.704545 2043.356267 -533.574724
   vertex 1365.736557 2571.671710 -533.574724
   vertex 1364.966030 2572.116587 -520.000000
  endloop
 endfacet
 facet normal 0.864165 -0.498940 0.065403
  outer loop
   vertex 1059.934019 2043.801144 -520.000000
   vertex 1060.704545 2043.356267 -533.574724
   vertex 1364.966030 2572.116587 -520.000000
  endloop
 endfacet
 facet normal 0.849379 -0.490403 0.195090
  outer loop
   vertex 1063.002942 2042.029248 -546.917181
   vertex 1368.034953 2570.344691 -546.917181
   vertex 1365.736557 2571.671710 -533.574724
  endloop
 endfacet
 facet normal 0.849379 -0.490403 0.195090
  outer loop
   vertex 1060.704545 2043.356267 -533.574724
   vertex 1063.002942 2042.029248 -546.917181
   vertex 1365.736557 2571.671710 -533.574724
  endloop
 endfacet
 facet normal 0.820060 -0.473475 0.321439
  outer loop
   vertex 1066.789883 2039.842793 -559.799077
   vertex 1371.821894 2568.158236 -559.799077
   vertex 1368.034953 2570.344691 -546.917181
  endloop
 endfacet
 facet normal 0.820060 -0.473475 0.321439
  outer loop
   vertex 1063.002942 2042.029248 -546.917181
   vertex 1066.789883 2039.842793 -559.799077
   vertex 1368.034953 2570.344691 -546.917181
  endloop
 endfacet
 facet normal 0.776709 -0.448446 0.442289
  outer loop
   vertex 1072.000572 2036.834312 -572.000000
   vertex 1377.032583 2565.149755 -572.000000
   vertex 1371.821894 2568.158236 -559.799077
  endloop
 endfacet
 facet normal 0.776709 -0.448446 0.442289
  outer loop
   vertex 1066.789883 2039.842793 -559.799077
   vertex 1072.000572 2036.834312 -572.000000
   vertex 1371.821894 2568.158236 -559.799077
  endloop
 endfacet
 facet normal 0.720069 -0.415744 0.555570
  outer loop
   vertex 1078.545853 2033.055281 -583.311189
   vertex 1383.577864 2561.370724 -583.311189
   vertex 1377.032583 2565.149755 -572.000000
  endloop
 endfacet
 facet normal 0.720069 -0.415744 0.555570
  outer loop
   vertex 1072.000572 2036.834312 -572.000000
   vertex 1078.545853 2033.055281 -583.311189
   vertex 1377.032583 2565.149755 -572.000000
  endloop
 endfacet
 facet normal 0.651108 -0.375928 0.659346
  outer loop
   vertex 1086.313734 2028.570362 -593.539105
   vertex 1391.345745 2556.885805 -593.539105
   vertex 1383.577864 2561.370724 -583.311189
  endloop
 endfacet
 facet normal 0.651108 -0.375928 0.659346
  outer loop
   vertex 1078.545853 2033.055281 -583.311189
   vertex 1086.313734 2028.570362 -593.539105
   vertex 1383.577864 2561.370724 -583.311189
  endloop
 endfacet
 facet normal 0.571006 -0.329680 0.751840
  outer loop
   vertex 1095.171304 2023.456291 -602.508747
   vertex 1400.203315 2551.771734 -602.508747
   vertex 1391.345745 2556.885805 -593.539105
  endloop
 endfacet
 facet normal 0.571006 -0.329680 0.751840
  outer loop
   vertex 1086.313734 2028.570362 -593.539105
   vertex 1095.171304 2023.456291 -602.508747
   vertex 1391.345745 2556.885805 -593.539105
  endloop
 endfacet
 facet normal 0.481134 -0.277791 0.831470
  outer loop
   vertex 1104.967009 2017.800572 -610.066642
   vertex 1409.999020 2546.116015 -610.066642
   vertex 1400.203315 2551.771734 -602.508747
  endloop
 endfacet
 facet normal 0.481134 -0.277791 0.831470
  outer loop
   vertex 1095.171304 2023.456291 -602.508747
   vertex 1104.967009 2017.800572 -610.066642
   vertex 1400.203315 2551.771734 -602.508747
  endloop
 endfacet
 facet normal 0.383030 -0.221149 0.896873
  outer loop
   vertex 1115.533241 2011.699976 -616.083471
   vertex 1420.565252 2540.015419 -616.083471
   vertex 1409.999020 2546.116015 -610.066642
  endloop
 endfacet
 facet normal 0.383030 -0.221149 0.896873
  outer loop
   vertex 1104.967009 2017.800572 -610.066642
   vertex 1115.533241 2011.699976 -616.083471
   vertex 1409.999020 2546.116015 -610.066642
  endloop
 endfacet
 facet normal 0.278373 -0.160723 0.946930
  outer loop
   vertex 1126.689209 2005.258886 -620.456286
   vertex 1431.721220 2533.574330 -620.456286
   vertex 1420.565252 2540.015419 -616.083471
  endloop
 endfacet
 facet normal 0.278373 -0.160723 0.946930
  outer loop
   vertex 1115.533241 2011.699976 -616.083471
   vertex 1126.689209 2005.258886 -620.456286
   vertex 1420.565252 2540.015419 -616.083471
  endloop
 endfacet
 facet normal 0.168952 -0.097547 0.980785
  outer loop
   vertex 1138.244030 1998.587511 -623.110266
   vertex 1443.276041 2526.902954 -623.110266
   vertex 1431.721220 2533.574330 -620.456286
  endloop
 endfacet
 facet normal 0.168952 -0.097547 0.980785
  outer loop
   vertex 1126.689209 2005.258886 -620.456286
   vertex 1138.244030 1998.587511 -623.110266
   vertex 1431.721220 2533.574330 -620.456286
  endloop
 endfacet
 facet normal 0.056640 -0.032702 0.997859
  outer loop
   vertex 1150.000000 1991.800000 -624.000000
   vertex 1455.032011 2520.115443 -624.000000
   vertex 1443.276041 2526.902954 -623.110266
  endloop
 endfacet
 facet normal 0.056640 -0.032702 0.997859
  outer loop
   vertex 1138.244030 1998.587511 -623.110266
   vertex 1150.000000 1991.800000 -624.000000
   vertex 1443.276041 2526.902954 -623.110266
  endloop
 endfacet
 facet normal -0.056640 0.032702 0.997859
  outer loop
   vertex 1161.755970 1985.012489 -623.110266
   vertex 1466.787981 2513.327932 -623.110266
   vertex 1455.032011 2520.115443 -624.000000
  endloop
 endfacet
 facet normal -0.056640 0.032702 0.997859
  outer loop
   vertex 1150.000000 1991.800000 -624.000000
   vertex 1161.755970 1985.012489 -623.110266
   vertex 1455.032011 2520.115443 -624.000000
  endloop
 endfacet
 facet normal -0.168952 0.097547 0.980785
  outer loop
   vertex 1173.310791 1978.341114 -620.456286
   vertex 1478.342802 2506.656557 -620.456286
   vertex 1466.787981 2513.327932 -623.110266
  endloop
 endfacet
 facet normal -0.168952 0.097547 0.980785
  outer loop
   vertex 1161.755970 1985.012489 -623.110266
   vertex 1173.310791 1978.341114 -620.456286
   vertex 1466.787981 2513.327932 -623.110266
  endloop
 endfacet
 facet normal -0.278373 0.160723 0.946930
  outer loop
   vertex 1184.466759 1971.900024 -616.083471
   vertex 1489.498770 2500.215467 -616.083471
   vertex 1478.342802 2506.656557 -620.456286
  endloop
 endfacet
 facet normal -0.278373 0.160723 0.946930
  outer loop
   vertex 1173.310791 1978.341114 -620.456286
   vertex 1184.466759 1971.900024 -616.083471
   vertex 1478.342802 2506.656557 -620.456286
  endloop
 endfacet
 facet normal -0.383030 0.221149 0.896873
  outer loop
   vertex 1195.032991 1965.799428 -610.066642
   vertex 1500.065002 2494.114871 -610.066642
   vertex 1489.498770 2500.215467 -616.083471
  endloop
 endfacet
 facet normal -0.383030 0.221149 0.896873
  outer loop
   vertex 1184.466759 1971.900024 -616.083471
   vertex 1195.032991 1965.799428 -610.066642
   vertex 1489.498770 2500.215467 -616.083471
  endloop
 endfacet
 facet normal -0.481134 0.277791 0.831470
  outer loop
   vertex 1204.828696 1960.143709 -602.508747
   vertex 1509.860707 2488.459152 -602.508747
   vertex 1500.065002 2494.114871 -610.066642
  endloop
 endfacet
 facet normal -0.481134 0.277791 0.831470
  outer loop
   vertex 1195.032991 1965.799428 -610.066642
   vertex 1204.828696 1960.143709 -602.508747
   vertex 1500.065002 2494.114871 -610.066642
  endloop
 endfacet
 facet normal -0.571006 0.329680 0.751840
  outer loop
   vertex 1213.686266 1955.029638 -593.539105
   vertex 1518.718277 2483.345082 -593.539105
   vertex 1509.860707 2488.459152 -602.508747
  endloop
 endfacet
 facet normal -0.571006 0.329680 0.751840
  outer loop
   vertex 1204.828696 1960.143709 -602.508747
   vertex 1213.686266 1955.029638 -593.539105
   vertex 1509.860707 2488.459152 -602.508747
  endloop
 endfacet
 facet normal -0.651108 0.375928 0.659346
  outer loop
   vertex 1221.454147 1950.544719 -583.311189
   vertex 1526.486158 2478.860162 -583.311189
   vertex 1518.718277 2483.345082 -593.539105
  endloop
 endfacet
 facet normal -0.651108 0.375928 0.659346
  outer loop
   vertex 1213.686266 1955.029638 -593.539105
   vertex 1221.454147 1950.544719 -583.311189
   vertex 1518.718277 2483.345082 -593.539105
  endloop
 endfacet
 facet normal -0.720069 0.415744 0.555570
  outer loop
   vertex 1227.999428 1946.765688 -572.000000
   vertex 1533.031439 2475.081131 -572.000000
   vertex 1526.486158 2478.860162 -583.311189
  endloop
 endfacet
 facet normal -0.720069 0.415744 0.555570
  outer loop
   vertex 1221.454147 1950.544719 -583.311189
   vertex 1227.999428 1946.765688 -572.000000
   vertex 1526.486158 2478.860162 -583.311189
  endloop
 endfacet
 facet normal -0.776709 0.448446 0.442289
  outer loop
   vertex 1233.210117 1943.757207 -559.799077
   vertex 1538.242128 2472.072651 -559.799077
   vertex 1533.031439 2475.081131 -572.000000
  endloop
 endfacet
 facet normal -0.776709 0.448446 0.442289
  outer loop
   vertex 1227.999428 1946.765688 -572.000000
   vertex 1233.210117 1943.757207 -559.799077
   vertex 1533.031439 2475.081131 -572.000000
  endloop
 endfacet
 facet normal -0.820060 0.473475 0.321439
  outer loop
   vertex 1236.997058 1941.570752 -546.917181
   vertex 1542.029069 2469.886195 -546.917181
   vertex 1538.242128 2472.072651 -559.799077
  endloop
 endfacet
 facet normal -0.820060 0.473475 0.321439
  outer loop
   vertex 1233.210117 1943.757207 -559.799077
   vertex 1236.997058 1941.570752 -546.917181
   vertex 1538.242128 2472.072651 -559.799077
  endloop
 endfacet
 facet normal -0.849379 0.490403 0.195090
  outer loop
   vertex 1239.295455 1940.243733 -533.574724
   vertex 1544.327466 2468.559176 -533.574724
   vertex 1542.029069 2469.886195 -546.917181
  endloop
 endfacet
 facet normal -0.849379 0.490403 0.195090
  outer loop
   vertex 1236.997058 1941.570752 -546.917181
   vertex 1239.295455 1940.243733 -533.574724
   vertex 1542.029069 2469.886195 -546.917181
  endloop
 endfacet
 facet normal -0.864165 0.498940 0.065403
  outer loop
   vertex 1240.065981 1939.798856 -520.000000
   vertex 1545.097993 2468.114299 -520.000000
   vertex 1544.327466 2468.559176 -533.574724
  endloop
 endfacet
 facet normal -0.864165 0.498940 0.065403
  outer loop
   vertex 1239.295455 1940.243733 -533.574724
   vertex 1240.065981 1939.798856 -520.000000
   vertex 1544.327466 2468.559176 -533.574724
  endloop
 endfacet
endsolid SIC_RP1_H_4
