solid SIC_RP1_H_1
 facet normal 0.000000 -0.997859 0.065403
  outer loop
   vertex 2910.000000 -120.000000 -520.000000
   vertex 2910.000000 -118.973383 -504.336857
   vertex 2300.000000 -118.973383 -504.336857
  endloop
 endfacet
 facet normal 0.000000 -0.997859 0.065403
  outer loop
   vertex 2910.000000 -120.000000 -520.000000
   vertex 2300.000000 -118.973383 -504.336857
   vertex 2300.000000 -120.000000 -520.000000
  endloop
 endfacet
 facet normal 0.000000 -0.980785 0.195090
  outer loop
   vertex 2910.000000 -118.973383 -504.336857
   vertex 2910.000000 -115.911099 -488.941715
   vertex 2300.000000 -115.911099 -488.941715
  endloop
 endfacet
 facet normal 0.000000 -0.980785 0.195090
  outer loop
   vertex 2910.000000 -118.973383 -504.336857
   vertex 2300.000000 -115.911099 -488.941715
   vertex 2300.000000 -118.973383 -504.336857
  endloop
 endfacet
 facet normal 0.000000 -0.946930 0.321439
  outer loop
   vertex 2910.000000 -115.911099 -488.941715
   vertex 2910.000000 -110.865544 -474.077988
   vertex 2300.000000 -110.865544 -474.077988
  endloop
 endfacet
 facet normal 0.000000 -0.946930 0.321439
  outer loop
   vertex 2910.000000 -115.911099 -488.941715
   vertex 2300.000000 -110.865544 -474.077988
   vertex 2300.000000 -115.911099 -488.941715
  endloop
 endfacet
 facet normal 0.000000 -0.896873 0.442289
  outer loop
   vertex 2910.000000 -110.865544 -474.077988
   vertex 2910.000000 -103.923048 -460.000000
   vertex 2300.000000 -103.923048 -460.000000
  endloop
 endfacet
 facet normal 0.000000 -0.896873 0.442289
  outer loop
   vertex 2910.000000 -110.865544 -474.077988
   vertex 2300.000000 -103.923048 -460.000000
   vertex 2300.000000 -110.865544 -474.077988
  endloop
 endfacet
 facet normal 0.000000 -0.831470 0.555570
  outer loop
   vertex 2910.000000 -103.923048 -460.000000
   vertex 2910.000000 -95.202401 -446.948629
   vertex 2300.000000 -95.202401 -446.948629
  endloop
 endfacet
 facet normal 0.000000 -0.831470 0.555570
  outer loop
   vertex 2910.000000 -103.923048 -460.000000
   vertex 2300.000000 -95.202401 -446.948629
   vertex 2300.000000 -103.923048 -460.000000
  endloop
 endfacet
 facet normal 0.000000 -0.751840 0.659346
  outer loop
   vertex 2910.000000 -95.202401 -446.948629
   vertex 2910.000000 -84.852814 -435.147186
   vertex 2300.000000 -84.852814 -435.147186
  endloop
 endfacet
 facet normal 0.000000 -0.751840 0.659346
  outer loop
   vertex 2910.000000 -95.202401 -446.948629
   vertex 2300.000000 -84.852814 -435.147186
   vertex 2300.000000 -95.202401 -446.948629
  endloop
 endfacet
 facet normal 0.000000 -0.659346 0.751840
  outer loop
   vertex 2910.000000 -84.852814 -435.147186
   vertex 2910.000000 -73.051371 -424.797599
   vertex 2300.000000 -73.051371 -424.797599
  endloop
 endfacet
 facet normal 0.000000 -0.659346 0.751840
  outer loop
   vertex 2910.000000 -84.852814 -435.147186
   vertex 2300.000000 -73.051371 -424.797599
   vertex 2300.000000 -84.852814 -435.147186
  endloop
 endfacet
 facet normal 0.000000 -0.555570 0.831470
  outer loop
   vertex 2910.000000 -73.051371 -424.797599
   vertex 2910.000000 -60.000000 -416.076952
   vertex 2300.000000 -60.000000 -416.076952
  endloop
 endfacet
 facet normal 0.000000 -0.555570 0.831470
  outer loop
   vertex 2910.000000 -73.051371 -424.797599
   vertex 2300.000000 -60.000000 -416.076952
   vertex 2300.000000 -73.051371 -424.797599
  endloop
 endfacet
 facet normal 0.000000 -0.442289 0.896873
  outer loop
   vertex 2910.000000 -60.000000 -416.076952
   vertex 2910.000000 -45.922012 -409.134456
   vertex 2300.000000 -45.922012 -409.134456
  endloop
 endfacet
 facet normal 0.000000 -0.442289 0.896873
  outer loop
   vertex 2910.000000 -60.000000 -416.076952
   vertex 2300.000000 -45.922012 -409.134456
   vertex 2300.000000 -60.000000 -416.076952
  endloop
 endfacet
 facet normal 0.000000 -0.321439 0.946930
  outer loop
   vertex 2910.000000 -45.922012 -409.134456
   vertex 2910.000000 -31.058285 -404.088901
   vertex 2300.000000 -31.058285 -404.088901
  endloop
 endfacet
 facet normal 0.000000 -0.321439 0.946930
  outer loop
   vertex 2910.000000 -45.922012 -409.134456
   vertex 2300.000000 -31.058285 -404.088901
   vertex 2300.000000 -45.922012 -409.134456
  endloop
 endfacet
 facet normal 0.000000 -0.195090 0.980785
  outer loop
   vertex 2910.000000 -31.058285 -404.088901
   vertex 2910.000000 -15.663143 -401.026617
   vertex 2300.000000 -15.663143 -401.026617
  endloop
 endfacet
 facet normal 0.000000 -0.195090 0.980785
  outer loop
   vertex 2910.000000 -31.058285 -404.088901
   vertex 2300.000000 -15.663143 -401.026617
   vertex 2300.000000 -31.058285 -404.088901
  endloop
 endfacet
 facet normal 0.000000 -0.065403 0.997859
  outer loop
   vertex 2910.000000 -15.663143 -401.026617
   vertex 2910.000000 -0.000000 -400.000000
   vertex 2300.000000 -0.000000 -400.000000
  endloop
 endfacet
 facet normal 0.000000 -0.065403 0.997859
  outer loop
   vertex 2910.000000 -15.663143 -401.026617
   vertex 2300.000000 -0.000000 -400.000000
   vertex 2300.000000 -15.663143 -401.026617
  endloop
 endfacet
 facet normal 0.000000 0.065403 0.997859
  outer loop
   vertex 2910.000000 -0.000000 -400.000000
   vertex 2910.000000 15.663143 -401.026617
   vertex 2300.000000 15.663143 -401.026617
  endloop
 endfacet
 facet normal 0.000000 0.065403 0.997859
  outer loop
   vertex 2910.000000 -0.000000 -400.000000
   vertex 2300.000000 15.663143 -401.026617
   vertex 2300.000000 -0.000000 -400.000000
  endloop
 endfacet
 facet normal 0.000000 0.195090 0.980785
  outer loop
   vertex 2910.000000 15.663143 -401.026617
   vertex 2910.000000 31.058285 -404.088901
   vertex 2300.000000 31.058285 -404.088901
  endloop
 endfacet
 facet normal 0.000000 0.195090 0.980785
  outer loop
   vertex 2910.000000 15.663143 -401.026617
   vertex 2300.000000 31.058285 -404.088901
   vertex 2300.000000 15.663143 -401.026617
  endloop
 endfacet
 facet normal 0.000000 0.321439 0.946930
  outer loop
   vertex 2910.000000 31.058285 -404.088901
   vertex 2910.000000 45.922012 -409.134456
   vertex 2300.000000 45.922012 -409.134456
  endloop
 endfacet
 facet normal 0.000000 0.321439 0.946930
  outer loop
   vertex 2910.000000 31.058285 -404.088901
   vertex 2300.000000 45.922012 -409.134456
   vertex 2300.000000 31.058285 -404.088901
  endloop
 endfacet
 facet normal 0.000000 0.442289 0.896873
  outer loop
   vertex 2910.000000 45.922012 -409.134456
   vertex 2910.000000 60.000000 -416.076952
   vertex 2300.000000 60.000000 -416.076952
  endloop
 endfacet
 facet normal 0.000000 0.442289 0.896873
  outer loop
   vertex 2910.000000 45.922012 -409.134456
   vertex 2300.000000 60.000000 -416.076952
   vertex 2300.000000 45.922012 -409.134456
  endloop
 endfacet
 facet normal 0.000000 0.555570 0.831470
  outer loop
   vertex 2910.000000 60.000000 -416.076952
   vertex 2910.000000 73.051371 -424.797599
   vertex 2300.000000 73.051371 -424.797599
  endloop
 endfacet
 facet normal 0.000000 0.555570 0.831470
  outer loop
   vertex 2910.000000 60.000000 -416.076952
   vertex 2300.000000 73.051371 -424.797599
   vertex 2300.000000 60.000000 -416.076952
  endloop
 endfacet
 facet normal 0.000000 0.659346 0.751840
  outer loop
   vertex 2910.000000 73.051371 -424.797599
   vertex 2910.000000 84.852814 -435.147186
   vertex 2300.000000 84.852814 -435.147186
  endloop
 endfacet
 facet normal 0.000000 0.659346 0.751840
  outer loop
   vertex 2910.000000 73.051371 -424.797599
   vertex 2300.000000 84.852814 -435.147186
   vertex 2300.000000 73.051371 -424.797599
  endloop
 endfacet
 facet normal 0.000000 0.751840 0.659346
  outer loop
   vertex 2910.000000 84.852814 -435.147186
   vertex 2910.000000 95.202401 -446.948629
   vertex 2300.000000 95.202401 -446.948629
  endloop
 endfacet
 facet normal 0.000000 0.751840 0.659346
  outer loop
   vertex 2910.000000 84.852814 -435.147186
   vertex 2300.000000 95.202401 -446.948629
   vertex 2300.000000 84.852814 -435.147186
  endloop
 endfacet
 facet normal 0.000000 0.831470 0.555570
  outer loop
   vertex 2910.000000 95.202401 -446.948629
   vertex 2910.000000 103.923048 -460.000000
   vertex 2300.000000 103.923048 -460.000000
  endloop
 endfacet
 facet normal 0.000000 0.831470 0.555570
  outer loop
   vertex 2910.000000 95.202401 -446.948629
   vertex 2300.000000 103.923048 -460.000000
   vertex 2300.000000 95.202401 -446.948629
  endloop
 endfacet
 facet normal 0.000000 0.896873 0.442289
  outer loop
   vertex 2910.000000 103.923048 -460.000000
   vertex 2910.000000 110.865544 -474.077988
   vertex 2300.000000 110.865544 -474.077988
  endloop
 endfacet
 facet normal 0.000000 0.896873 0.442289
  outer loop
   vertex 2910.000000 103.923048 -460.000000
   vertex 2300.000000 110.865544 -474.077988
   vertex 2300.000000 103.923048 -460.000000
  endloop
 endfacet
 facet normal 0.000000 0.946930 0.321439
  outer loop
   vertex 2910.000000 110.865544 -474.077988
   vertex 2910.000000 115.911099 -488.941715
   vertex 2300.000000 115.911099 -488.941715
  endloop
 endfacet
 facet normal 0.000000 0.946930 0.321439
  outer loop
   vertex 2910.000000 110.865544 -474.077988
   vertex 2300.000000 115.911099 -488.941715
   vertex 2300.000000 110.865544 -474.077988
  endloop
 endfacet
 facet normal 0.000000 0.980785 0.195090
  outer loop
   vertex 2910.000000 115.911099 -488.941715
   vertex 2910.000000 118.973383 -504.336857
   vertex 2300.000000 118.973383 -504.336857
  endloop
 endfacet
 facet normal 0.000000 0.980785 0.195090
  outer loop
   vertex 2910.000000 115.911099 -488.941715
   vertex 2300.000000 118.973383 -504.336857
   vertex 2300.000000 115.911099 -488.941715
  endloop
 endfacet
 facet normal 0.000000 0.997859 0.065403
  outer loop
   vertex 2910.000000 118.973383 -504.336857
   vertex 2910.000000 120.000000 -520.000000
   vertex 2300.000000 120.000000 -520.000000
  endloop
 endfacet
 facet normal 0.000000 0.997859 0.065403
  outer loop
   vertex 2910.000000 118.973383 -504.336857
   vertex 2300.000000 120.000000 -520.000000
   vertex 2300.000000 118.973383 -504.336857
  endloop
 endfacet
 facet normal 0.000000 0.997859 -0.065403
  outer loop
   vertex 2910.000000 120.000000 -520.000000
   vertex 2910.000000 118.973383 -535.663143
   vertex 2300.000000 118.973383 -535.663143
  endloop
 endfacet
 facet normal 0.000000 0.997859 -0.065403
  outer loop
   vertex 2910.000000 120.000000 -520.000000
   vertex 2300.000000 118.973383 -535.663143
   vertex 2300.000000 120.000000 -520.000000
  endloop
 endfacet
 facet normal 0.000000 0.980785 -0.195090
  outer loop
   vertex 2910.000000 118.973383 -535.663143
   vertex 2910.000000 115.911099 -551.058285
   vertex 2300.000000 115.911099 -551.058285
  endloop
 endfacet
 facet normal 0.000000 0.980785 -0.195090
  outer loop
   vertex 2910.000000 118.973383 -535.663143
   vertex 2300.000000 115.911099 -551.058285
   vertex 2300.000000 118.973383 -535.663143
  endloop
 endfacet
 facet normal 0.000000 0.946930 -0.321439
  outer loop
   vertex 2910.000000 115.911099 -551.058285
   vertex 2910.000000 110.865544 -565.922012
   vertex 2300.000000 110.865544 -565.922012
  endloop
 endfacet
 facet normal 0.000000 0.946930 -0.321439
  outer loop
   vertex 2910.000000 115.911099 -551.058285
   vertex 2300.000000 110.865544 -565.922012
   vertex 2300.000000 115.911099 -551.058285
  endloop
 endfacet
 facet normal 0.000000 0.896873 -0.442289
  outer loop
   vertex 2910.000000 110.865544 -565.922012
   vertex 2910.000000 103.923048 -580.000000
   vertex 2300.000000 103.923048 -580.000000
  endloop
 endfacet
 facet normal 0.000000 0.896873 -0.442289
  outer loop
   vertex 2910.000000 110.865544 -565.922012
   vertex 2300.000000 103.923048 -580.000000
   vertex 2300.000000 110.865544 -565.922012
  endloop
 endfacet
 facet normal 0.000000 0.831470 -0.555570
  outer loop
   vertex 2910.000000 103.923048 -580.000000
   vertex 2910.000000 95.202401 -593.051371
   vertex 2300.000000 95.202401 -593.051371
  endloop
 endfacet
 facet normal 0.000000 0.831470 -0.555570
  outer loop
   vertex 2910.000000 103.923048 -580.000000
   vertex 2300.000000 95.202401 -593.051371
   vertex 2300.000000 103.923048 -580.000000
  endloop
 endfacet
 facet normal 0.000000 0.751840 -0.659346
  outer loop
   vertex 2910.000000 95.202401 -593.051371
   vertex 2910.000000 84.852814 -604.852814
   vertex 2300.000000 84.852814 -604.852814
  endloop
 endfacet
 facet normal 0.000000 0.751840 -0.659346
  outer loop
   vertex 2910.000000 95.202401 -593.051371
   vertex 2300.000000 84.852814 -604.852814
   vertex 2300.000000 95.202401 -593.051371
  endloop
 endfacet
 facet normal 0.000000 0.659346 -0.751840
  outer loop
   vertex 2910.000000 84.852814 -604.852814
   vertex 2910.000000 73.051371 -615.202401
   vertex 2300.000000 73.051371 -615.202401
  endloop
 endfacet
 facet normal 0.000000 0.659346 -0.751840
  outer loop
   vertex 2910.000000 84.852814 -604.852814
   vertex 2300.000000 73.051371 -615.202401
   vertex 2300.000000 84.852814 -604.852814
  endloop
 endfacet
 facet normal 0.000000 0.555570 -0.831470
  outer loop
   vertex 2910.000000 73.051371 -615.202401
   vertex 2910.000000 60.000000 -623.923048
   vertex 2300.000000 60.000000 -623.923048
  endloop
 endfacet
 facet normal 0.000000 0.555570 -0.831470
  outer loop
   vertex 2910.000000 73.051371 -615.202401
   vertex 2300.000000 60.000000 -623.923048
   vertex 2300.000000 73.051371 -615.202401
  endloop
 endfacet
 facet normal 0.000000 0.442289 -0.896873
  outer loop
   vertex 2910.000000 60.000000 -623.923048
   vertex 2910.000000 45.922012 -630.865544
   vertex 2300.000000 45.922012 -630.865544
  endloop
 endfacet
 facet normal 0.000000 0.442289 -0.896873
  outer loop
   vertex 2910.000000 60.000000 -623.923048
   vertex 2300.000000 45.922012 -630.865544
   vertex 2300.000000 60.000000 -623.923048
  endloop
 endfacet
 facet normal 0.000000 0.321439 -0.946930
  outer loop
   vertex 2910.000000 45.922012 -630.865544
   vertex 2910.000000 31.058285 -635.911099
   vertex 2300.000000 31.058285 -635.911099
  endloop
 endfacet
 facet normal 0.000000 0.321439 -0.946930
  outer loop
   vertex 2910.000000 45.922012 -630.865544
   vertex 2300.000000 31.058285 -635.911099
   vertex 2300.000000 45.922012 -630.865544
  endloop
 endfacet
 facet normal 0.000000 0.195090 -0.980785
  outer loop
   vertex 2910.000000 31.058285 -635.911099
   vertex 2910.000000 15.663143 -638.973383
   vertex 2300.000000 15.663143 -638.973383
  endloop
 endfacet
 facet normal 0.000000 0.195090 -0.980785
  outer loop
   vertex 2910.000000 31.058285 -635.911099
   vertex 2300.000000 15.663143 -638.973383
   vertex 2300.000000 31.058285 -635.911099
  endloop
 endfacet
 facet normal 0.000000 0.065403 -0.997859
  outer loop
   vertex 2910.000000 15.663143 -638.973383
   vertex 2910.000000 0.000000 -640.000000
   vertex 2300.000000 0.000000 -640.000000
  endloop
 endfacet
 facet normal 0.000000 0.065403 -0.997859
  outer loop
   vertex 2910.000000 15.663143 -638.973383
   vertex 2300.000000 0.000000 -640.000000
   vertex 2300.000000 15.663143 -638.973383
  endloop
 endfacet
 facet normal 0.000000 -0.065403 -0.997859
  outer loop
   vertex 2910.000000 0.000000 -640.000000
   vertex 2910.000000 -15.663143 -638.973383
   vertex 2300.000000 -15.663143 -638.973383
  endloop
 endfacet
 facet normal -0.000000 -0.065403 -0.997859
  outer loop
   vertex 2910.000000 0.000000 -640.000000
   vertex 2300.000000 -15.663143 -638.973383
   vertex 2300.000000 0.000000 -640.000000
  endloop
 endfacet
 facet normal 0.000000 -0.195090 -0.980785
  outer loop
   vertex 2910.000000 -15.663143 -638.973383
   vertex 2910.000000 -31.058285 -635.911099
   vertex 2300.000000 -31.058285 -635.911099
  endloop
 endfacet
 facet normal -0.000000 -0.195090 -0.980785
  outer loop
   vertex 2910.000000 -15.663143 -638.973383
   vertex 2300.000000 -31.058285 -635.911099
   vertex 2300.000000 -15.663143 -638.973383
  endloop
 endfacet
 facet normal 0.000000 -0.321439 -0.946930
  outer loop
   vertex 2910.000000 -31.058285 -635.911099
   vertex 2910.000000 -45.922012 -630.865544
   vertex 2300.000000 -45.922012 -630.865544
  endloop
 endfacet
 facet normal -0.000000 -0.321439 -0.946930
  outer loop
   vertex 2910.000000 -31.058285 -635.911099
   vertex 2300.000000 -45.922012 -630.865544
   vertex 2300.000000 -31.058285 -635.911099
  endloop
 endfacet
 facet normal 0.000000 -0.442289 -0.896873
  outer loop
   vertex 2910.000000 -45.922012 -630.865544
   vertex 2910.000000 -60.000000 -623.923048
   vertex 2300.000000 -60.000000 -623.923048
  endloop
 endfacet
 facet normal -0.000000 -0.442289 -0.896873
  outer loop
   vertex 2910.000000 -45.922012 -630.865544
   vertex 2300.000000 -60.000000 -623.923048
   vertex 2300.000000 -45.922012 -630.865544
  endloop
 endfacet
 facet normal 0.000000 -0.555570 -0.831470
  outer loop
   vertex 2910.000000 -60.000000 -623.923048
   vertex 2910.000000 -73.051371 -615.202401
   vertex 2300.000000 -73.051371 -615.202401
  endloop
 endfacet
 facet normal -0.000000 -0.555570 -0.831470
  outer loop
   vertex 2910.000000 -60.000000 -623.923048
   vertex 2300.000000 -73.051371 -615.202401
   vertex 2300.000000 -60.000000 -623.923048
  endloop
 endfacet
 facet normal 0.000000 -0.659346 -0.751840
  outer loop
   vertex 2910.000000 -73.051371 -615.202401
   vertex 2910.000000 -84.852814 -604.852814
   vertex 2300.000000 -84.852814 -604.852814
  endloop
 endfacet
 facet normal -0.000000 -0.659346 -0.751840
  outer loop
   vertex 2910.000000 -73.051371 -615.202401
   vertex 2300.000000 -84.852814 -604.852814
   vertex 2300.000000 -73.051371 -615.202401
  endloop
 endfacet
 facet normal 0.000000 -0.751840 -0.659346
  outer loop
   vertex 2910.000000 -84.852814 -604.852814
   vertex 2910.000000 -95.202401 -593.051371
   vertex 2300.000000 -95.202401 -593.051371
  endloop
 endfacet
 facet normal -0.000000 -0.751840 -0.659346
  outer loop
   vertex 2910.000000 -84.852814 -604.852814
   vertex 2300.000000 -95.202401 -593.051371
   vertex 2300.000000 -84.852814 -604.852814
  endloop
 endfacet
 facet normal 0.000000 -0.831470 -0.555570
  outer loop
   vertex 2910.000000 -95.202401 -593.051371
   vertex 2910.000000 -103.923048 -580.000000
   vertex 2300.000000 -103.923048 -580.000000
  endloop
 endfacet
 facet normal -0.000000 -0.831470 -0.555570
  outer loop
   vertex 2910.000000 -95.202401 -593.051371
   vertex 2300.000000 -103.923048 -580.000000
   vertex 2300.000000 -95.202401 -593.051371
  endloop
 endfacet
 facet normal 0.000000 -0.896873 -0.442289
  outer loop
   vertex 2910.000000 -103.923048 -580.000000
   vertex 2910.000000 -110.865544 -565.922012
   vertex 2300.000000 -110.865544 -565.922012
  endloop
 endfacet
 facet normal -0.000000 -0.896873 -0.442289
  outer loop
   vertex 2910.000000 -103.923048 -580.000000
   vertex 2300.000000 -110.865544 -565.922012
   vertex 2300.000000 -103.923048 -580.000000
  endloop
 endfacet
 facet normal 0.000000 -0.946930 -0.321439
  outer loop
   vertex 2910.000000 -110.865544 -565.922012
   vertex 2910.000000 -115.911099 -551.058285
   vertex 2300.000000 -115.911099 -551.058285
  endloop
 endfacet
 facet normal -0.000000 -0.946930 -0.321439
  outer loop
   vertex 2910.000000 -110.865544 -565.922012
   vertex 2300.000000 -115.911099 -551.058285
   vertex 2300.000000 -110.865544 -565.922012
  endloop
 endfacet
 facet normal 0.000000 -0.980785 -0.195090
  outer loop
   vertex 2910.000000 -115.911099 -551.058285
   vertex 2910.000000 -118.973383 -535.663143
   vertex 2300.000000 -118.973383 -535.663143
  endloop
 endfacet
 facet normal -0.000000 -0.980785 -0.195090
  outer loop
   vertex 2910.000000 -115.911099 -551.058285
   vertex 2300.000000 -118.973383 -535.663143
   vertex 2300.000000 -115.911099 -551.058285
  endloop
 endfacet
 facet normal 0.000000 -0.997859 -0.065403
  outer loop
   vertex 2910.000000 -118.973383 -535.663143
   vertex 2910.000000 -120.000000 -520.000000
   vertex 2300.000000 -120.000000 -520.000000
  endloop
 endfacet
 facet normal -0.000000 -0.997859 -0.065403
  outer loop
   vertex 2910.000000 -118.973383 -535.663143
   vertex 2300.000000 -120.000000 -520.000000
   vertex 2300.000000 -118.973383 -535.663143
  endloop
 endfacet
 facet normal 0.000000 0.997859 -0.065403
  outer loop
   vertex 2300.000000 -103.110266 -506.425276
   vertex 2910.000000 -103.110266 -506.425276
   vertex 2910.000000 -104.000000 -520.000000
  endloop
 endfacet
 facet normal 0.000000 0.997859 -0.065403
  outer loop
   vertex 2300.000000 -104.000000 -520.000000
   vertex 2300.000000 -103.110266 -506.425276
   vertex 2910.000000 -104.000000 -520.000000
  endloop
 endfacet
 facet normal 0.000000 0.980785 -0.195090
  outer loop
   vertex 2300.000000 -100.456286 -493.082819
   vertex 2910.000000 -100.456286 -493.082819
   vertex 2910.000000 -103.110266 -506.425276
  endloop
 endfacet
 facet normal 0.000000 0.980785 -0.195090
  outer loop
   vertex 2300.000000 -103.110266 -506.425276
   vertex 2300.000000 -100.456286 -493.082819
   vertex 2910.000000 -103.110266 -506.425276
  endloop
 endfacet
 facet normal 0.000000 0.946930 -0.321439
  outer loop
   vertex 2300.000000 -96.083471 -480.200923
   vertex 2910.000000 -96.083471 -480.200923
   vertex 2910.000000 -100.456286 -493.082819
  endloop
 endfacet
 facet normal 0.000000 0.946930 -0.321439
  outer loop
   vertex 2300.000000 -100.456286 -493.082819
   vertex 2300.000000 -96.083471 -480.200923
   vertex 2910.000000 -100.456286 -493.082819
  endloop
 endfacet
 facet normal 0.000000 0.896873 -0.442289
  outer loop
   vertex 2300.000000 -90.066642 -468.000000
   vertex 2910.000000 -90.066642 -468.000000
   vertex 2910.000000 -96.083471 -480.200923
  endloop
 endfacet
 facet normal 0.000000 0.896873 -0.442289
  outer loop
   vertex 2300.000000 -96.083471 -480.200923
   vertex 2300.000000 -90.066642 -468.000000
   vertex 2910.000000 -96.083471 -480.200923
  endloop
 endfacet
 facet normal 0.000000 0.831470 -0.555570
  outer loop
   vertex 2300.000000 -82.508747 -456.688811
   vertex 2910.000000 -82.508747 -456.688811
   vertex 2910.000000 -90.066642 -468.000000
  endloop
 endfacet
 facet normal 0.000000 0.831470 -0.555570
  outer loop
   vertex 2300.000000 -90.066642 -468.000000
   vertex 2300.000000 -82.508747 -456.688811
   vertex 2910.000000 -90.066642 -468.000000
  endloop
 endfacet
 facet normal 0.000000 0.751840 -0.659346
  outer loop
   vertex 2300.000000 -73.539105 -446.460895
   vertex 2910.000000 -73.539105 -446.460895
   vertex 2910.000000 -82.508747 -456.688811
  endloop
 endfacet
 facet normal 0.000000 0.751840 -0.659346
  outer loop
   vertex 2300.000000 -82.508747 -456.688811
   vertex 2300.000000 -73.539105 -446.460895
   vertex 2910.000000 -82.508747 -456.688811
  endloop
 endfacet
 facet normal 0.000000 0.659346 -0.751840
  outer loop
   vertex 2300.000000 -63.311189 -437.491253
   vertex 2910.000000 -63.311189 -437.491253
   vertex 2910.000000 -73.539105 -446.460895
  endloop
 endfacet
 facet normal 0.000000 0.659346 -0.751840
  outer loop
   vertex 2300.000000 -73.539105 -446.460895
   vertex 2300.000000 -63.311189 -437.491253
   vertex 2910.000000 -73.539105 -446.460895
  endloop
 endfacet
 facet normal 0.000000 0.555570 -0.831470
  outer loop
   vertex 2300.000000 -52.000000 -429.933358
   vertex 2910.000000 -52.000000 -429.933358
   vertex 2910.000000 -63.311189 -437.491253
  endloop
 endfacet
 facet normal 0.000000 0.555570 -0.831470
  outer loop
   vertex 2300.000000 -63.311189 -437.491253
   vertex 2300.000000 -52.000000 -429.933358
   vertex 2910.000000 -63.311189 -437.491253
  endloop
 endfacet
 facet normal 0.000000 0.442289 -0.896873
  outer loop
   vertex 2300.000000 -39.799077 -423.916529
   vertex 2910.000000 -39.799077 -423.916529
   vertex 2910.000000 -52.000000 -429.933358
  endloop
 endfacet
 facet normal 0.000000 0.442289 -0.896873
  outer loop
   vertex 2300.000000 -52.000000 -429.933358
   vertex 2300.000000 -39.799077 -423.916529
   vertex 2910.000000 -52.000000 -429.933358
  endloop
 endfacet
 facet normal 0.000000 0.321439 -0.946930
  outer loop
   vertex 2300.000000 -26.917181 -419.543714
   vertex 2910.000000 -26.917181 -419.543714
   vertex 2910.000000 -39.799077 -423.916529
  endloop
 endfacet
 facet normal 0.000000 0.321439 -0.946930
  outer loop
   vertex 2300.000000 -39.799077 -423.916529
   vertex 2300.000000 -26.917181 -419.543714
   vertex 2910.000000 -39.799077 -423.916529
  endloop
 endfacet
 facet normal 0.000000 0.195090 -0.980785
  outer loop
   vertex 2300.000000 -13.574724 -416.889734
   vertex 2910.000000 -13.574724 -416.889734
   vertex 2910.000000 -26.917181 -419.543714
  endloop
 endfacet
 facet normal 0.000000 0.195090 -0.980785
  outer loop
   vertex 2300.000000 -26.917181 -419.543714
   vertex 2300.000000 -13.574724 -416.889734
   vertex 2910.000000 -26.917181 -419.543714
  endloop
 endfacet
 facet normal 0.000000 0.065403 -0.997859
  outer loop
   vertex 2300.000000 -0.000000 -416.000000
   vertex 2910.000000 -0.000000 -416.000000
   vertex 2910.000000 -13.574724 -416.889734
  endloop
 endfacet
 facet normal 0.000000 0.065403 -0.997859
  outer loop
   vertex 2300.000000 -13.574724 -416.889734
   vertex 2300.000000 -0.000000 -416.000000
   vertex 2910.000000 -13.574724 -416.889734
  endloop
 endfacet
 facet normal 0.000000 -0.065403 -0.997859
  outer loop
   vertex 2300.000000 13.574724 -416.889734
   vertex 2910.000000 13.574724 -416.889734
   vertex 2910.000000 -0.000000 -416.000000
  endloop
 endfacet
 facet normal 0.000000 -0.065403 -0.997859
  outer loop
   vertex 2300.000000 -0.000000 -416.000000
   vertex 2300.000000 13.574724 -416.889734
   vertex 2910.000000 -0.000000 -416.000000
  endloop
 endfacet
 facet normal 0.000000 -0.195090 -0.980785
  outer loop
   vertex 2300.000000 26.917181 -419.543714
   vertex 2910.000000 26.917181 -419.543714
   vertex 2910.000000 13.574724 -416.889734
  endloop
 endfacet
 facet normal 0.000000 -0.195090 -0.980785
  outer loop
   vertex 2300.000000 13.574724 -416.889734
   vertex 2300.000000 26.917181 -419.543714
   vertex 2910.000000 13.574724 -416.889734
  endloop
 endfacet
 facet normal 0.000000 -0.321439 -0.946930
  outer loop
   vertex 2300.000000 39.799077 -423.916529
   vertex 2910.000000 39.799077 -423.916529
   vertex 2910.000000 26.917181 -419.543714
  endloop
 endfacet
 facet normal 0.000000 -0.321439 -0.946930
  outer loop
   vertex 2300.000000 26.917181 -419.543714
   vertex 2300.000000 39.799077 -423.916529
   vertex 2910.000000 26.917181 -419.543714
  endloop
 endfacet
 facet normal 0.000000 -0.442289 -0.896873
  outer loop
   vertex 2300.000000 52.000000 -429.933358
   vertex 2910.000000 52.000000 -429.933358
   vertex 2910.000000 39.799077 -423.916529
  endloop
 endfacet
 facet normal 0.000000 -0.442289 -0.896873
  outer loop
   vertex 2300.000000 39.799077 -423.916529
   vertex 2300.000000 52.000000 -429.933358
   vertex 2910.000000 39.799077 -423.916529
  endloop
 endfacet
 facet normal 0.000000 -0.555570 -0.831470
  outer loop
   vertex 2300.000000 63.311189 -437.491253
   vertex 2910.000000 63.311189 -437.491253
   vertex 2910.000000 52.000000 -429.933358
  endloop
 endfacet
 facet normal 0.000000 -0.555570 -0.831470
  outer loop
   vertex 2300.000000 52.000000 -429.933358
   vertex 2300.000000 63.311189 -437.491253
   vertex 2910.000000 52.000000 -429.933358
  endloop
 endfacet
 facet normal 0.000000 -0.659346 -0.751840
  outer loop
   vertex 2300.000000 73.539105 -446.460895
   vertex 2910.000000 73.539105 -446.460895
   vertex 2910.000000 63.311189 -437.491253
  endloop
 endfacet
 facet normal 0.000000 -0.659346 -0.751840
  outer loop
   vertex 2300.000000 63.311189 -437.491253
   vertex 2300.000000 73.539105 -446.460895
   vertex 2910.000000 63.311189 -437.491253
  endloop
 endfacet
 facet normal 0.000000 -0.751840 -0.659346
  outer loop
   vertex 2300.000000 82.508747 -456.688811
   vertex 2910.000000 82.508747 -456.688811
   vertex 2910.000000 73.539105 -446.460895
  endloop
 endfacet
 facet normal 0.000000 -0.751840 -0.659346
  outer loop
   vertex 2300.000000 73.539105 -446.460895
   vertex 2300.000000 82.508747 -456.688811
   vertex 2910.000000 73.539105 -446.460895
  endloop
 endfacet
 facet normal 0.000000 -0.831470 -0.555570
  outer loop
   vertex 2300.000000 90.066642 -468.000000
   vertex 2910.000000 90.066642 -468.000000
   vertex 2910.000000 82.508747 -456.688811
  endloop
 endfacet
 facet normal 0.000000 -0.831470 -0.555570
  outer loop
   vertex 2300.000000 82.508747 -456.688811
   vertex 2300.000000 90.066642 -468.000000
   vertex 2910.000000 82.508747 -456.688811
  endloop
 endfacet
 facet normal 0.000000 -0.896873 -0.442289
  outer loop
   vertex 2300.000000 96.083471 -480.200923
   vertex 2910.000000 96.083471 -480.200923
   vertex 2910.000000 90.066642 -468.000000
  endloop
 endfacet
 facet normal 0.000000 -0.896873 -0.442289
  outer loop
   vertex 2300.000000 90.066642 -468.000000
   vertex 2300.000000 96.083471 -480.200923
   vertex 2910.000000 90.066642 -468.000000
  endloop
 endfacet
 facet normal 0.000000 -0.946930 -0.321439
  outer loop
   vertex 2300.000000 100.456286 -493.082819
   vertex 2910.000000 100.456286 -493.082819
   vertex 2910.000000 96.083471 -480.200923
  endloop
 endfacet
 facet normal 0.000000 -0.946930 -0.321439
  outer loop
   vertex 2300.000000 96.083471 -480.200923
   vertex 2300.000000 100.456286 -493.082819
   vertex 2910.000000 96.083471 -480.200923
  endloop
 endfacet
 facet normal 0.000000 -0.980785 -0.195090
  outer loop
   vertex 2300.000000 103.110266 -506.425276
   vertex 2910.000000 103.110266 -506.425276
   vertex 2910.000000 100.456286 -493.082819
  endloop
 endfacet
 facet normal 0.000000 -0.980785 -0.195090
  outer loop
   vertex 2300.000000 100.456286 -493.082819
   vertex 2300.000000 103.110266 -506.425276
   vertex 2910.000000 100.456286 -493.082819
  endloop
 endfacet
 facet normal 0.000000 -0.997859 -0.065403
  outer loop
   vertex 2300.000000 104.000000 -520.000000
   vertex 2910.000000 104.000000 -520.000000
   vertex 2910.000000 103.110266 -506.425276
  endloop
 endfacet
 facet normal 0.000000 -0.997859 -0.065403
  outer loop
   vertex 2300.000000 103.110266 -506.425276
   vertex 2300.000000 104.000000 -520.000000
   vertex 2910.000000 103.110266 -506.425276
  endloop
 endfacet
 facet normal 0.000000 -0.997859 0.065403
  outer loop
   vertex 2300.000000 103.110266 -533.574724
   vertex 2910.000000 103.110266 -533.574724
   vertex 2910.000000 104.000000 -520.000000
  endloop
 endfacet
 facet normal 0.000000 -0.997859 0.065403
  outer loop
   vertex 2300.000000 104.000000 -520.000000
   vertex 2300.000000 103.110266 -533.574724
   vertex 2910.000000 104.000000 -520.000000
  endloop
 endfacet
 facet normal 0.000000 -0.980785 0.195090
  outer loop
   vertex 2300.000000 100.456286 -546.917181
   vertex 2910.000000 100.456286 -546.917181
   vertex 2910.000000 103.110266 -533.574724
  endloop
 endfacet
 facet normal 0.000000 -0.980785 0.195090
  outer loop
   vertex 2300.000000 103.110266 -533.574724
   vertex 2300.000000 100.456286 -546.917181
   vertex 2910.000000 103.110266 -533.574724
  endloop
 endfacet
 facet normal 0.000000 -0.946930 0.321439
  outer loop
   vertex 2300.000000 96.083471 -559.799077
   vertex 2910.000000 96.083471 -559.799077
   vertex 2910.000000 100.456286 -546.917181
  endloop
 endfacet
 facet normal 0.000000 -0.946930 0.321439
  outer loop
   vertex 2300.000000 100.456286 -546.917181
   vertex 2300.000000 96.083471 -559.799077
   vertex 2910.000000 100.456286 -546.917181
  endloop
 endfacet
 facet normal 0.000000 -0.896873 0.442289
  outer loop
   vertex 2300.000000 90.066642 -572.000000
   vertex 2910.000000 90.066642 -572.000000
   vertex 2910.000000 96.083471 -559.799077
  endloop
 endfacet
 facet normal 0.000000 -0.896873 0.442289
  outer loop
   vertex 2300.000000 96.083471 -559.799077
   vertex 2300.000000 90.066642 -572.000000
   vertex 2910.000000 96.083471 -559.799077
  endloop
 endfacet
 facet normal 0.000000 -0.831470 0.555570
  outer loop
   vertex 2300.000000 82.508747 -583.311189
   vertex 2910.000000 82.508747 -583.311189
   vertex 2910.000000 90.066642 -572.000000
  endloop
 endfacet
 facet normal 0.000000 -0.831470 0.555570
  outer loop
   vertex 2300.000000 90.066642 -572.000000
   vertex 2300.000000 82.508747 -583.311189
   vertex 2910.000000 90.066642 -572.000000
  endloop
 endfacet
 facet normal 0.000000 -0.751840 0.659346
  outer loop
   vertex 2300.000000 73.539105 -593.539105
   vertex 2910.000000 73.539105 -593.539105
   vertex 2910.000000 82.508747 -583.311189
  endloop
 endfacet
 facet normal 0.000000 -0.751840 0.659346
  outer loop
   vertex 2300.000000 82.508747 -583.311189
   vertex 2300.000000 73.539105 -593.539105
   vertex 2910.000000 82.508747 -583.311189
  endloop
 endfacet
 facet normal 0.000000 -0.659346 0.751840
  outer loop
   vertex 2300.000000 63.311189 -602.508747
   vertex 2910.000000 63.311189 -602.508747
   vertex 2910.000000 73.539105 -593.539105
  endloop
 endfacet
 facet normal 0.000000 -0.659346 0.751840
  outer loop
   vertex 2300.000000 73.539105 -593.539105
   vertex 2300.000000 63.311189 -602.508747
   vertex 2910.000000 73.539105 -593.539105
  endloop
 endfacet
 facet normal 0.000000 -0.555570 0.831470
  outer loop
   vertex 2300.000000 52.000000 -610.066642
   vertex 2910.000000 52.000000 -610.066642
   vertex 2910.000000 63.311189 -602.508747
  endloop
 endfacet
 facet normal 0.000000 -0.555570 0.831470
  outer loop
   vertex 2300.000000 63.311189 -602.508747
   vertex 2300.000000 52.000000 -610.066642
   vertex 2910.000000 63.311189 -602.508747
  endloop
 endfacet
 facet normal 0.000000 -0.442289 0.896873
  outer loop
   vertex 2300.000000 39.799077 -616.083471
   vertex 2910.000000 39.799077 -616.083471
   vertex 2910.000000 52.000000 -610.066642
  endloop
 endfacet
 facet normal 0.000000 -0.442289 0.896873
  outer loop
   vertex 2300.000000 52.000000 -610.066642
   vertex 2300.000000 39.799077 -616.083471
   vertex 2910.000000 52.000000 -610.066642
  endloop
 endfacet
 facet normal 0.000000 -0.321439 0.946930
  outer loop
   vertex 2300.000000 26.917181 -620.456286
   vertex 2910.000000 26.917181 -620.456286
   vertex 2910.000000 39.799077 -616.083471
  endloop
 endfacet
 facet normal 0.000000 -0.321439 0.946930
  outer loop
   vertex 2300.000000 39.799077 -616.083471
   vertex 2300.000000 26.917181 -620.456286
   vertex 2910.000000 39.799077 -616.083471
  endloop
 endfacet
 facet normal 0.000000 -0.195090 0.980785
  outer loop
   vertex 2300.000000 13.574724 -623.110266
   vertex 2910.000000 13.574724 -623.110266
   vertex 2910.000000 26.917181 -620.456286
  endloop
 endfacet
 facet normal 0.000000 -0.195090 0.980785
  outer loop
   vertex 2300.000000 26.917181 -620.456286
   vertex 2300.000000 13.574724 -623.110266
   vertex 2910.000000 26.917181 -620.456286
  endloop
 endfacet
 facet normal 0.000000 -0.065403 0.997859
  outer loop
   vertex 2300.000000 0.000000 -624.000000
   vertex 2910.000000 0.000000 -624.000000
   vertex 2910.000000 13.574724 -623.110266
  endloop
 endfacet
 facet normal 0.000000 -0.065403 0.997859
  outer loop
   vertex 2300.000000 13.574724 -623.110266
   vertex 2300.000000 0.000000 -624.000000
   vertex 2910.000000 13.574724 -623.110266
  endloop
 endfacet
 facet normal -0.000000 0.065403 0.997859
  outer loop
   vertex 2300.000000 -13.574724 -623.110266
   vertex 2910.000000 -13.574724 -623.110266
   vertex 2910.000000 0.000000 -624.000000
  endloop
 endfacet
 facet normal -0.000000 0.065403 0.997859
  outer loop
   vertex 2300.000000 0.000000 -624.000000
   vertex 2300.000000 -13.574724 -623.110266
   vertex 2910.000000 0.000000 -624.000000
  endloop
 endfacet
 facet normal -0.000000 0.195090 0.980785
  outer loop
   vertex 2300.000000 -26.917181 -620.456286
   vertex 2910.000000 -26.917181 -620.456286
   vertex 2910.000000 -13.574724 -623.110266
  endloop
 endfacet
 facet normal -0.000000 0.195090 0.980785
  outer loop
   vertex 2300.000000 -13.574724 -623.110266
   vertex 2300.000000 -26.917181 -620.456286
   vertex 2910.000000 -13.574724 -623.110266
  endloop
 endfacet
 facet normal -0.000000 0.321439 0.946930
  outer loop
   vertex 2300.000000 -39.799077 -616.083471
   vertex 2910.000000 -39.799077 -616.083471
   vertex 2910.000000 -26.917181 -620.456286
  endloop
 endfacet
 facet normal -0.000000 0.321439 0.946930
  outer loop
   vertex 2300.000000 -26.917181 -620.456286
   vertex 2300.000000 -39.799077 -616.083471
   vertex 2910.000000 -26.917181 -620.456286
  endloop
 endfacet
 facet normal -0.000000 0.442289 0.896873
  outer loop
   vertex 2300.000000 -52.000000 -610.066642
   vertex 2910.000000 -52.000000 -610.066642
   vertex 2910.000000 -39.799077 -616.083471
  endloop
 endfacet
 facet normal -0.000000 0.442289 0.896873
  outer loop
   vertex 2300.000000 -39.799077 -616.083471
   vertex 2300.000000 -52.000000 -610.066642
   vertex 2910.000000 -39.799077 -616.083471
  endloop
 endfacet
 facet normal -0.000000 0.555570 0.831470
  outer loop
   vertex 2300.000000 -63.311189 -602.508747
   vertex 2910.000000 -63.311189 -602.508747
   vertex 2910.000000 -52.000000 -610.066642
  endloop
 endfacet
 facet normal -0.000000 0.555570 0.831470
  outer loop
   vertex 2300.000000 -52.000000 -610.066642
   vertex 2300.000000 -63.311189 -602.508747
   vertex 2910.000000 -52.000000 -610.066642
  endloop
 endfacet
 facet normal -0.000000 0.659346 0.751840
  outer loop
   vertex 2300.000000 -73.539105 -593.539105
   vertex 2910.000000 -73.539105 -593.539105
   vertex 2910.000000 -63.311189 -602.508747
  endloop
 endfacet
 facet normal -0.000000 0.659346 0.751840
  outer loop
   vertex 2300.000000 -63.311189 -602.508747
   vertex 2300.000000 -73.539105 -593.539105
   vertex 2910.000000 -63.311189 -602.508747
  endloop
 endfacet
 facet normal -0.000000 0.751840 0.659346
  outer loop
   vertex 2300.000000 -82.508747 -583.311189
   vertex 2910.000000 -82.508747 -583.311189
   vertex 2910.000000 -73.539105 -593.539105
  endloop
 endfacet
 facet normal -0.000000 0.751840 0.659346
  outer loop
   vertex 2300.000000 -73.539105 -593.539105
   vertex 2300.000000 -82.508747 -583.311189
   vertex 2910.000000 -73.539105 -593.539105
  endloop
 endfacet
 facet normal -0.000000 0.831470 0.555570
  outer loop
   vertex 2300.000000 -90.066642 -572.000000
   vertex 2910.000000 -90.066642 -572.000000
   vertex 2910.000000 -82.508747 -583.311189
  endloop
 endfacet
 facet normal -0.000000 0.831470 0.555570
  outer loop
   vertex 2300.000000 -82.508747 -583.311189
   vertex 2300.000000 -90.066642 -572.000000
   vertex 2910.000000 -82.508747 -583.311189
  endloop
 endfacet
 facet normal -0.000000 0.896873 0.442289
  outer loop
   vertex 2300.000000 -96.083471 -559.799077
   vertex 2910.000000 -96.083471 -559.799077
   vertex 2910.000000 -90.066642 -572.000000
  endloop
 endfacet
 facet normal -0.000000 0.896873 0.442289
  outer loop
   vertex 2300.000000 -90.066642 -572.000000
   vertex 2300.000000 -96.083471 -559.799077
   vertex 2910.000000 -90.066642 -572.000000
  endloop
 endfacet
 facet normal -0.000000 0.946930 0.321439
  outer loop
   vertex 2300.000000 -100.456286 -546.917181
   vertex 2910.000000 -100.456286 -546.917181
   vertex 2910.000000 -96.083471 -559.799077
  endloop
 endfacet
 facet normal -0.000000 0.946930 0.321439
  outer loop
   vertex 2300.000000 -96.083471 -559.799077
   vertex 2300.000000 -100.456286 -546.917181
   vertex 2910.000000 -96.083471 -559.799077
  endloop
 endfacet
 facet normal -0.000000 0.980785 0.195090
  outer loop
   vertex 2300.000000 -103.110266 -533.574724
   vertex 2910.000000 -103.110266 -533.574724
   vertex 2910.000000 -100.456286 -546.917181
  endloop
 endfacet
 facet normal -0.000000 0.980785 0.195090
  outer loop
   vertex 2300.000000 -100.456286 -546.917181
   vertex 2300.000000 -103.110266 -533.574724
   vertex 2910.000000 -100.456286 -546.917181
  endloop
 endfacet
 facet normal -0.000000 0.997859 0.065403
  outer loop
   vertex 2300.000000 -104.000000 -520.000000
   vertex 2910.000000 -104.000000 -520.000000
   vertex 2910.000000 -103.110266 -533.574724
  endloop
 endfacet
 facet normal -0.000000 0.997859 0.065403
  outer loop
   vertex 2300.000000 -103.110266 -533.574724
   vertex 2300.000000 -104.000000 -520.000000
   vertex 2910.000000 -103.110266 -533.574724
  endloop
 endfacet
endsolid SIC_RP1_H_1
