solid SIC_RP1_DOWNCOMER
 facet normal 0.065403 0.997859 0.000000
  outer loop
   vertex 2229.189329 -1750.511944 23318.000000
   vertex 2244.852473 -1751.538561 23318.000000
   vertex 2244.852473 -1751.538561 -720.000000
  endloop
 endfacet
 facet normal 0.065403 0.997859 0.000000
  outer loop
   vertex 2229.189329 -1750.511944 23318.000000
   vertex 2244.852473 -1751.538561 -720.000000
   vertex 2229.189329 -1750.511944 -720.000000
  endloop
 endfacet
 facet normal 0.195090 0.980785 0.000000
  outer loop
   vertex 2244.852473 -1751.538561 23318.000000
   vertex 2260.247615 -1754.600845 23318.000000
   vertex 2260.247615 -1754.600845 -720.000000
  endloop
 endfacet
 facet normal 0.195090 0.980785 0.000000
  outer loop
   vertex 2244.852473 -1751.538561 23318.000000
   vertex 2260.247615 -1754.600845 -720.000000
   vertex 2244.852473 -1751.538561 -720.000000
  endloop
 endfacet
 facet normal 0.321439 0.946930 0.000000
  outer loop
   vertex 2260.247615 -1754.600845 23318.000000
   vertex 2275.111341 -1759.646400 23318.000000
   vertex 2275.111341 -1759.646400 -720.000000
  endloop
 endfacet
 facet normal 0.321439 0.946930 0.000000
  outer loop
   vertex 2260.247615 -1754.600845 23318.000000
   vertex 2275.111341 -1759.646400 -720.000000
   vertex 2260.247615 -1754.600845 -720.000000
  endloop
 endfacet
 facet normal 0.442289 0.896873 0.000000
  outer loop
   vertex 2275.111341 -1759.646400 23318.000000
   vertex 2289.189329 -1766.588896 23318.000000
   vertex 2289.189329 -1766.588896 -720.000000
  endloop
 endfacet
 facet normal 0.442289 0.896873 0.000000
  outer loop
   vertex 2275.111341 -1759.646400 23318.000000
   vertex 2289.189329 -1766.588896 -720.000000
   vertex 2275.111341 -1759.646400 -720.000000
  endloop
 endfacet
 facet normal 0.555570 0.831470 0.000000
  outer loop
   vertex 2289.189329 -1766.588896 23318.000000
   vertex 2302.240701 -1775.309543 23318.000000
   vertex 2302.240701 -1775.309543 -720.000000
  endloop
 endfacet
 facet normal 0.555570 0.831470 0.000000
  outer loop
   vertex 2289.189329 -1766.588896 23318.000000
   vertex 2302.240701 -1775.309543 -720.000000
   vertex 2289.189329 -1766.588896 -720.000000
  endloop
 endfacet
 facet normal 0.659346 0.751840 0.000000
  outer loop
   vertex 2302.240701 -1775.309543 23318.000000
   vertex 2314.042143 -1785.659130 23318.000000
   vertex 2314.042143 -1785.659130 -720.000000
  endloop
 endfacet
 facet normal 0.659346 0.751840 0.000000
  outer loop
   vertex 2302.240701 -1775.309543 23318.000000
   vertex 2314.042143 -1785.659130 -720.000000
   vertex 2302.240701 -1775.309543 -720.000000
  endloop
 endfacet
 facet normal 0.751840 0.659346 0.000000
  outer loop
   vertex 2314.042143 -1785.659130 23318.000000
   vertex 2324.391730 -1797.460573 23318.000000
   vertex 2324.391730 -1797.460573 -720.000000
  endloop
 endfacet
 facet normal 0.751840 0.659346 0.000000
  outer loop
   vertex 2314.042143 -1785.659130 23318.000000
   vertex 2324.391730 -1797.460573 -720.000000
   vertex 2314.042143 -1785.659130 -720.000000
  endloop
 endfacet
 facet normal 0.831470 0.555570 0.000000
  outer loop
   vertex 2324.391730 -1797.460573 23318.000000
   vertex 2333.112378 -1810.511944 23318.000000
   vertex 2333.112378 -1810.511944 -720.000000
  endloop
 endfacet
 facet normal 0.831470 0.555570 0.000000
  outer loop
   vertex 2324.391730 -1797.460573 23318.000000
   vertex 2333.112378 -1810.511944 -720.000000
   vertex 2324.391730 -1797.460573 -720.000000
  endloop
 endfacet
 facet normal 0.896873 0.442289 0.000000
  outer loop
   vertex 2333.112378 -1810.511944 23318.000000
   vertex 2340.054873 -1824.589932 23318.000000
   vertex 2340.054873 -1824.589932 -720.000000
  endloop
 endfacet
 facet normal 0.896873 0.442289 0.000000
  outer loop
   vertex 2333.112378 -1810.511944 23318.000000
   vertex 2340.054873 -1824.589932 -720.000000
   vertex 2333.112378 -1810.511944 -720.000000
  endloop
 endfacet
 facet normal 0.946930 0.321439 0.000000
  outer loop
   vertex 2340.054873 -1824.589932 23318.000000
   vertex 2345.100429 -1839.453659 23318.000000
   vertex 2345.100429 -1839.453659 -720.000000
  endloop
 endfacet
 facet normal 0.946930 0.321439 0.000000
  outer loop
   vertex 2340.054873 -1824.589932 23318.000000
   vertex 2345.100429 -1839.453659 -720.000000
   vertex 2340.054873 -1824.589932 -720.000000
  endloop
 endfacet
 facet normal 0.980785 0.195090 0.000000
  outer loop
   vertex 2345.100429 -1839.453659 23318.000000
   vertex 2348.162713 -1854.848801 23318.000000
   vertex 2348.162713 -1854.848801 -720.000000
  endloop
 endfacet
 facet normal 0.980785 0.195090 0.000000
  outer loop
   vertex 2345.100429 -1839.453659 23318.000000
   vertex 2348.162713 -1854.848801 -720.000000
   vertex 2345.100429 -1839.453659 -720.000000
  endloop
 endfacet
 facet normal 0.997859 0.065403 0.000000
  outer loop
   vertex 2348.162713 -1854.848801 23318.000000
   vertex 2349.189329 -1870.511944 23318.000000
   vertex 2349.189329 -1870.511944 -720.000000
  endloop
 endfacet
 facet normal 0.997859 0.065403 0.000000
  outer loop
   vertex 2348.162713 -1854.848801 23318.000000
   vertex 2349.189329 -1870.511944 -720.000000
   vertex 2348.162713 -1854.848801 -720.000000
  endloop
 endfacet
 facet normal 0.997859 -0.065403 0.000000
  outer loop
   vertex 2349.189329 -1870.511944 23318.000000
   vertex 2348.162713 -1886.175087 23318.000000
   vertex 2348.162713 -1886.175087 -720.000000
  endloop
 endfacet
 facet normal 0.997859 -0.065403 0.000000
  outer loop
   vertex 2349.189329 -1870.511944 23318.000000
   vertex 2348.162713 -1886.175087 -720.000000
   vertex 2349.189329 -1870.511944 -720.000000
  endloop
 endfacet
 facet normal 0.980785 -0.195090 0.000000
  outer loop
   vertex 2348.162713 -1886.175087 23318.000000
   vertex 2345.100429 -1901.570230 23318.000000
   vertex 2345.100429 -1901.570230 -720.000000
  endloop
 endfacet
 facet normal 0.980785 -0.195090 0.000000
  outer loop
   vertex 2348.162713 -1886.175087 23318.000000
   vertex 2345.100429 -1901.570230 -720.000000
   vertex 2348.162713 -1886.175087 -720.000000
  endloop
 endfacet
 facet normal 0.946930 -0.321439 0.000000
  outer loop
   vertex 2345.100429 -1901.570230 23318.000000
   vertex 2340.054873 -1916.433956 23318.000000
   vertex 2340.054873 -1916.433956 -720.000000
  endloop
 endfacet
 facet normal 0.946930 -0.321439 0.000000
  outer loop
   vertex 2345.100429 -1901.570230 23318.000000
   vertex 2340.054873 -1916.433956 -720.000000
   vertex 2345.100429 -1901.570230 -720.000000
  endloop
 endfacet
 facet normal 0.896873 -0.442289 0.000000
  outer loop
   vertex 2340.054873 -1916.433956 23318.000000
   vertex 2333.112378 -1930.511944 23318.000000
   vertex 2333.112378 -1930.511944 -720.000000
  endloop
 endfacet
 facet normal 0.896873 -0.442289 0.000000
  outer loop
   vertex 2340.054873 -1916.433956 23318.000000
   vertex 2333.112378 -1930.511944 -720.000000
   vertex 2340.054873 -1916.433956 -720.000000
  endloop
 endfacet
 facet normal 0.831470 -0.555570 0.000000
  outer loop
   vertex 2333.112378 -1930.511944 23318.000000
   vertex 2324.391730 -1943.563316 23318.000000
   vertex 2324.391730 -1943.563316 -720.000000
  endloop
 endfacet
 facet normal 0.831470 -0.555570 0.000000
  outer loop
   vertex 2333.112378 -1930.511944 23318.000000
   vertex 2324.391730 -1943.563316 -720.000000
   vertex 2333.112378 -1930.511944 -720.000000
  endloop
 endfacet
 facet normal 0.751840 -0.659346 0.000000
  outer loop
   vertex 2324.391730 -1943.563316 23318.000000
   vertex 2314.042143 -1955.364758 23318.000000
   vertex 2314.042143 -1955.364758 -720.000000
  endloop
 endfacet
 facet normal 0.751840 -0.659346 0.000000
  outer loop
   vertex 2324.391730 -1943.563316 23318.000000
   vertex 2314.042143 -1955.364758 -720.000000
   vertex 2324.391730 -1943.563316 -720.000000
  endloop
 endfacet
 facet normal 0.659346 -0.751840 0.000000
  outer loop
   vertex 2314.042143 -1955.364758 23318.000000
   vertex 2302.240701 -1965.714345 23318.000000
   vertex 2302.240701 -1965.714345 -720.000000
  endloop
 endfacet
 facet normal 0.659346 -0.751840 0.000000
  outer loop
   vertex 2314.042143 -1955.364758 23318.000000
   vertex 2302.240701 -1965.714345 -720.000000
   vertex 2314.042143 -1955.364758 -720.000000
  endloop
 endfacet
 facet normal 0.555570 -0.831470 0.000000
  outer loop
   vertex 2302.240701 -1965.714345 23318.000000
   vertex 2289.189329 -1974.434993 23318.000000
   vertex 2289.189329 -1974.434993 -720.000000
  endloop
 endfacet
 facet normal 0.555570 -0.831470 0.000000
  outer loop
   vertex 2302.240701 -1965.714345 23318.000000
   vertex 2289.189329 -1974.434993 -720.000000
   vertex 2302.240701 -1965.714345 -720.000000
  endloop
 endfacet
 facet normal 0.442289 -0.896873 0.000000
  outer loop
   vertex 2289.189329 -1974.434993 23318.000000
   vertex 2275.111341 -1981.377488 23318.000000
   vertex 2275.111341 -1981.377488 -720.000000
  endloop
 endfacet
 facet normal 0.442289 -0.896873 0.000000
  outer loop
   vertex 2289.189329 -1974.434993 23318.000000
   vertex 2275.111341 -1981.377488 -720.000000
   vertex 2289.189329 -1974.434993 -720.000000
  endloop
 endfacet
 facet normal 0.321439 -0.946930 0.000000
  outer loop
   vertex 2275.111341 -1981.377488 23318.000000
   vertex 2260.247615 -1986.423043 23318.000000
   vertex 2260.247615 -1986.423043 -720.000000
  endloop
 endfacet
 facet normal 0.321439 -0.946930 0.000000
  outer loop
   vertex 2275.111341 -1981.377488 23318.000000
   vertex 2260.247615 -1986.423043 -720.000000
   vertex 2275.111341 -1981.377488 -720.000000
  endloop
 endfacet
 facet normal 0.195090 -0.980785 0.000000
  outer loop
   vertex 2260.247615 -1986.423043 23318.000000
   vertex 2244.852473 -1989.485328 23318.000000
   vertex 2244.852473 -1989.485328 -720.000000
  endloop
 endfacet
 facet normal 0.195090 -0.980785 0.000000
  outer loop
   vertex 2260.247615 -1986.423043 23318.000000
   vertex 2244.852473 -1989.485328 -720.000000
   vertex 2260.247615 -1986.423043 -720.000000
  endloop
 endfacet
 facet normal 0.065403 -0.997859 0.000000
  outer loop
   vertex 2244.852473 -1989.485328 23318.000000
   vertex 2229.189329 -1990.511944 23318.000000
   vertex 2229.189329 -1990.511944 -720.000000
  endloop
 endfacet
 facet normal 0.065403 -0.997859 0.000000
  outer loop
   vertex 2244.852473 -1989.485328 23318.000000
   vertex 2229.189329 -1990.511944 -720.000000
   vertex 2244.852473 -1989.485328 -720.000000
  endloop
 endfacet
 facet normal -0.065403 -0.997859 0.000000
  outer loop
   vertex 2229.189329 -1990.511944 23318.000000
   vertex 2213.526186 -1989.485328 23318.000000
   vertex 2213.526186 -1989.485328 -720.000000
  endloop
 endfacet
 facet normal -0.065403 -0.997859 -0.000000
  outer loop
   vertex 2229.189329 -1990.511944 23318.000000
   vertex 2213.526186 -1989.485328 -720.000000
   vertex 2229.189329 -1990.511944 -720.000000
  endloop
 endfacet
 facet normal -0.195090 -0.980785 0.000000
  outer loop
   vertex 2213.526186 -1989.485328 23318.000000
   vertex 2198.131044 -1986.423043 23318.000000
   vertex 2198.131044 -1986.423043 -720.000000
  endloop
 endfacet
 facet normal -0.195090 -0.980785 -0.000000
  outer loop
   vertex 2213.526186 -1989.485328 23318.000000
   vertex 2198.131044 -1986.423043 -720.000000
   vertex 2213.526186 -1989.485328 -720.000000
  endloop
 endfacet
 facet normal -0.321439 -0.946930 0.000000
  outer loop
   vertex 2198.131044 -1986.423043 23318.000000
   vertex 2183.267318 -1981.377488 23318.000000
   vertex 2183.267318 -1981.377488 -720.000000
  endloop
 endfacet
 facet normal -0.321439 -0.946930 -0.000000
  outer loop
   vertex 2198.131044 -1986.423043 23318.000000
   vertex 2183.267318 -1981.377488 -720.000000
   vertex 2198.131044 -1986.423043 -720.000000
  endloop
 endfacet
 facet normal -0.442289 -0.896873 0.000000
  outer loop
   vertex 2183.267318 -1981.377488 23318.000000
   vertex 2169.189329 -1974.434993 23318.000000
   vertex 2169.189329 -1974.434993 -720.000000
  endloop
 endfacet
 facet normal -0.442289 -0.896873 -0.000000
  outer loop
   vertex 2183.267318 -1981.377488 23318.000000
   vertex 2169.189329 -1974.434993 -720.000000
   vertex 2183.267318 -1981.377488 -720.000000
  endloop
 endfacet
 facet normal -0.555570 -0.831470 0.000000
  outer loop
   vertex 2169.189329 -1974.434993 23318.000000
   vertex 2156.137958 -1965.714345 23318.000000
   vertex 2156.137958 -1965.714345 -720.000000
  endloop
 endfacet
 facet normal -0.555570 -0.831470 -0.000000
  outer loop
   vertex 2169.189329 -1974.434993 23318.000000
   vertex 2156.137958 -1965.714345 -720.000000
   vertex 2169.189329 -1974.434993 -720.000000
  endloop
 endfacet
 facet normal -0.659346 -0.751840 0.000000
  outer loop
   vertex 2156.137958 -1965.714345 23318.000000
   vertex 2144.336516 -1955.364758 23318.000000
   vertex 2144.336516 -1955.364758 -720.000000
  endloop
 endfacet
 facet normal -0.659346 -0.751840 -0.000000
  outer loop
   vertex 2156.137958 -1965.714345 23318.000000
   vertex 2144.336516 -1955.364758 -720.000000
   vertex 2156.137958 -1965.714345 -720.000000
  endloop
 endfacet
 facet normal -0.751840 -0.659346 0.000000
  outer loop
   vertex 2144.336516 -1955.364758 23318.000000
   vertex 2133.986929 -1943.563316 23318.000000
   vertex 2133.986929 -1943.563316 -720.000000
  endloop
 endfacet
 facet normal -0.751840 -0.659346 -0.000000
  outer loop
   vertex 2144.336516 -1955.364758 23318.000000
   vertex 2133.986929 -1943.563316 -720.000000
   vertex 2144.336516 -1955.364758 -720.000000
  endloop
 endfacet
 facet normal -0.831470 -0.555570 0.000000
  outer loop
   vertex 2133.986929 -1943.563316 23318.000000
   vertex 2125.266281 -1930.511944 23318.000000
   vertex 2125.266281 -1930.511944 -720.000000
  endloop
 endfacet
 facet normal -0.831470 -0.555570 -0.000000
  outer loop
   vertex 2133.986929 -1943.563316 23318.000000
   vertex 2125.266281 -1930.511944 -720.000000
   vertex 2133.986929 -1943.563316 -720.000000
  endloop
 endfacet
 facet normal -0.896873 -0.442289 0.000000
  outer loop
   vertex 2125.266281 -1930.511944 23318.000000
   vertex 2118.323786 -1916.433956 23318.000000
   vertex 2118.323786 -1916.433956 -720.000000
  endloop
 endfacet
 facet normal -0.896873 -0.442289 -0.000000
  outer loop
   vertex 2125.266281 -1930.511944 23318.000000
   vertex 2118.323786 -1916.433956 -720.000000
   vertex 2125.266281 -1930.511944 -720.000000
  endloop
 endfacet
 facet normal -0.946930 -0.321439 0.000000
  outer loop
   vertex 2118.323786 -1916.433956 23318.000000
   vertex 2113.278230 -1901.570230 23318.000000
   vertex 2113.278230 -1901.570230 -720.000000
  endloop
 endfacet
 facet normal -0.946930 -0.321439 -0.000000
  outer loop
   vertex 2118.323786 -1916.433956 23318.000000
   vertex 2113.278230 -1901.570230 -720.000000
   vertex 2118.323786 -1916.433956 -720.000000
  endloop
 endfacet
 facet normal -0.980785 -0.195090 0.000000
  outer loop
   vertex 2113.278230 -1901.570230 23318.000000
   vertex 2110.215946 -1886.175087 23318.000000
   vertex 2110.215946 -1886.175087 -720.000000
  endloop
 endfacet
 facet normal -0.980785 -0.195090 -0.000000
  outer loop
   vertex 2113.278230 -1901.570230 23318.000000
   vertex 2110.215946 -1886.175087 -720.000000
   vertex 2113.278230 -1901.570230 -720.000000
  endloop
 endfacet
 facet normal -0.997859 -0.065403 0.000000
  outer loop
   vertex 2110.215946 -1886.175087 23318.000000
   vertex 2109.189329 -1870.511944 23318.000000
   vertex 2109.189329 -1870.511944 -720.000000
  endloop
 endfacet
 facet normal -0.997859 -0.065403 -0.000000
  outer loop
   vertex 2110.215946 -1886.175087 23318.000000
   vertex 2109.189329 -1870.511944 -720.000000
   vertex 2110.215946 -1886.175087 -720.000000
  endloop
 endfacet
 facet normal -0.997859 0.065403 0.000000
  outer loop
   vertex 2109.189329 -1870.511944 23318.000000
   vertex 2110.215946 -1854.848801 23318.000000
   vertex 2110.215946 -1854.848801 -720.000000
  endloop
 endfacet
 facet normal -0.997859 0.065403 0.000000
  outer loop
   vertex 2109.189329 -1870.511944 23318.000000
   vertex 2110.215946 -1854.848801 -720.000000
   vertex 2109.189329 -1870.511944 -720.000000
  endloop
 endfacet
 facet normal -0.980785 0.195090 0.000000
  outer loop
   vertex 2110.215946 -1854.848801 23318.000000
   vertex 2113.278230 -1839.453659 23318.000000
   vertex 2113.278230 -1839.453659 -720.000000
  endloop
 endfacet
 facet normal -0.980785 0.195090 0.000000
  outer loop
   vertex 2110.215946 -1854.848801 23318.000000
   vertex 2113.278230 -1839.453659 -720.000000
   vertex 2110.215946 -1854.848801 -720.000000
  endloop
 endfacet
 facet normal -0.946930 0.321439 0.000000
  outer loop
   vertex 2113.278230 -1839.453659 23318.000000
   vertex 2118.323786 -1824.589932 23318.000000
   vertex 2118.323786 -1824.589932 -720.000000
  endloop
 endfacet
 facet normal -0.946930 0.321439 0.000000
  outer loop
   vertex 2113.278230 -1839.453659 23318.000000
   vertex 2118.323786 -1824.589932 -720.000000
   vertex 2113.278230 -1839.453659 -720.000000
  endloop
 endfacet
 facet normal -0.896873 0.442289 0.000000
  outer loop
   vertex 2118.323786 -1824.589932 23318.000000
   vertex 2125.266281 -1810.511944 23318.000000
   vertex 2125.266281 -1810.511944 -720.000000
  endloop
 endfacet
 facet normal -0.896873 0.442289 0.000000
  outer loop
   vertex 2118.323786 -1824.589932 23318.000000
   vertex 2125.266281 -1810.511944 -720.000000
   vertex 2118.323786 -1824.589932 -720.000000
  endloop
 endfacet
 facet normal -0.831470 0.555570 0.000000
  outer loop
   vertex 2125.266281 -1810.511944 23318.000000
   vertex 2133.986929 -1797.460573 23318.000000
   vertex 2133.986929 -1797.460573 -720.000000
  endloop
 endfacet
 facet normal -0.831470 0.555570 0.000000
  outer loop
   vertex 2125.266281 -1810.511944 23318.000000
   vertex 2133.986929 -1797.460573 -720.000000
   vertex 2125.266281 -1810.511944 -720.000000
  endloop
 endfacet
 facet normal -0.751840 0.659346 0.000000
  outer loop
   vertex 2133.986929 -1797.460573 23318.000000
   vertex 2144.336516 -1785.659130 23318.000000
   vertex 2144.336516 -1785.659130 -720.000000
  endloop
 endfacet
 facet normal -0.751840 0.659346 0.000000
  outer loop
   vertex 2133.986929 -1797.460573 23318.000000
   vertex 2144.336516 -1785.659130 -720.000000
   vertex 2133.986929 -1797.460573 -720.000000
  endloop
 endfacet
 facet normal -0.659346 0.751840 0.000000
  outer loop
   vertex 2144.336516 -1785.659130 23318.000000
   vertex 2156.137958 -1775.309543 23318.000000
   vertex 2156.137958 -1775.309543 -720.000000
  endloop
 endfacet
 facet normal -0.659346 0.751840 0.000000
  outer loop
   vertex 2144.336516 -1785.659130 23318.000000
   vertex 2156.137958 -1775.309543 -720.000000
   vertex 2144.336516 -1785.659130 -720.000000
  endloop
 endfacet
 facet normal -0.555570 0.831470 0.000000
  outer loop
   vertex 2156.137958 -1775.309543 23318.000000
   vertex 2169.189329 -1766.588896 23318.000000
   vertex 2169.189329 -1766.588896 -720.000000
  endloop
 endfacet
 facet normal -0.555570 0.831470 0.000000
  outer loop
   vertex 2156.137958 -1775.309543 23318.000000
   vertex 2169.189329 -1766.588896 -720.000000
   vertex 2156.137958 -1775.309543 -720.000000
  endloop
 endfacet
 facet normal -0.442289 0.896873 0.000000
  outer loop
   vertex 2169.189329 -1766.588896 23318.000000
   vertex 2183.267318 -1759.646400 23318.000000
   vertex 2183.267318 -1759.646400 -720.000000
  endloop
 endfacet
 facet normal -0.442289 0.896873 0.000000
  outer loop
   vertex 2169.189329 -1766.588896 23318.000000
   vertex 2183.267318 -1759.646400 -720.000000
   vertex 2169.189329 -1766.588896 -720.000000
  endloop
 endfacet
 facet normal -0.321439 0.946930 0.000000
  outer loop
   vertex 2183.267318 -1759.646400 23318.000000
   vertex 2198.131044 -1754.600845 23318.000000
   vertex 2198.131044 -1754.600845 -720.000000
  endloop
 endfacet
 facet normal -0.321439 0.946930 0.000000
  outer loop
   vertex 2183.267318 -1759.646400 23318.000000
   vertex 2198.131044 -1754.600845 -720.000000
   vertex 2183.267318 -1759.646400 -720.000000
  endloop
 endfacet
 facet normal -0.195090 0.980785 0.000000
  outer loop
   vertex 2198.131044 -1754.600845 23318.000000
   vertex 2213.526186 -1751.538561 23318.000000
   vertex 2213.526186 -1751.538561 -720.000000
  endloop
 endfacet
 facet normal -0.195090 0.980785 0.000000
  outer loop
   vertex 2198.131044 -1754.600845 23318.000000
   vertex 2213.526186 -1751.538561 -720.000000
   vertex 2198.131044 -1754.600845 -720.000000
  endloop
 endfacet
 facet normal -0.065403 0.997859 0.000000
  outer loop
   vertex 2213.526186 -1751.538561 23318.000000
   vertex 2229.189329 -1750.511944 23318.000000
   vertex 2229.189329 -1750.511944 -720.000000
  endloop
 endfacet
 facet normal -0.065403 0.997859 0.000000
  outer loop
   vertex 2213.526186 -1751.538561 23318.000000
   vertex 2229.189329 -1750.511944 -720.000000
   vertex 2213.526186 -1751.538561 -720.000000
  endloop
 endfacet
 facet normal -0.065403 -0.997859 0.000000
  outer loop
   vertex 2242.764053 -1767.401679 -720.000000
   vertex 2242.764053 -1767.401679 23318.000000
   vertex 2229.189329 -1766.511944 23318.000000
  endloop
 endfacet
 facet normal -0.065403 -0.997859 0.000000
  outer loop
   vertex 2229.189329 -1766.511944 -720.000000
   vertex 2242.764053 -1767.401679 -720.000000
   vertex 2229.189329 -1766.511944 23318.000000
  endloop
 endfacet
 facet normal -0.195090 -0.980785 0.000000
  outer loop
   vertex 2256.106510 -1770.055658 -720.000000
   vertex 2256.106510 -1770.055658 23318.000000
   vertex 2242.764053 -1767.401679 23318.000000
  endloop
 endfacet
 facet normal -0.195090 -0.980785 0.000000
  outer loop
   vertex 2242.764053 -1767.401679 -720.000000
   vertex 2256.106510 -1770.055658 -720.000000
   vertex 2242.764053 -1767.401679 23318.000000
  endloop
 endfacet
 facet normal -0.321439 -0.946930 0.000000
  outer loop
   vertex 2268.988406 -1774.428473 -720.000000
   vertex 2268.988406 -1774.428473 23318.000000
   vertex 2256.106510 -1770.055658 23318.000000
  endloop
 endfacet
 facet normal -0.321439 -0.946930 0.000000
  outer loop
   vertex 2256.106510 -1770.055658 -720.000000
   vertex 2268.988406 -1774.428473 -720.000000
   vertex 2256.106510 -1770.055658 23318.000000
  endloop
 endfacet
 facet normal -0.442289 -0.896873 0.000000
  outer loop
   vertex 2281.189329 -1780.445302 -720.000000
   vertex 2281.189329 -1780.445302 23318.000000
   vertex 2268.988406 -1774.428473 23318.000000
  endloop
 endfacet
 facet normal -0.442289 -0.896873 0.000000
  outer loop
   vertex 2268.988406 -1774.428473 -720.000000
   vertex 2281.189329 -1780.445302 -720.000000
   vertex 2268.988406 -1774.428473 23318.000000
  endloop
 endfacet
 facet normal -0.555570 -0.831470 0.000000
  outer loop
   vertex 2292.500518 -1788.003197 -720.000000
   vertex 2292.500518 -1788.003197 23318.000000
   vertex 2281.189329 -1780.445302 23318.000000
  endloop
 endfacet
 facet normal -0.555570 -0.831470 0.000000
  outer loop
   vertex 2281.189329 -1780.445302 -720.000000
   vertex 2292.500518 -1788.003197 -720.000000
   vertex 2281.189329 -1780.445302 23318.000000
  endloop
 endfacet
 facet normal -0.659346 -0.751840 0.000000
  outer loop
   vertex 2302.728435 -1796.972839 -720.000000
   vertex 2302.728435 -1796.972839 23318.000000
   vertex 2292.500518 -1788.003197 23318.000000
  endloop
 endfacet
 facet normal -0.659346 -0.751840 0.000000
  outer loop
   vertex 2292.500518 -1788.003197 -720.000000
   vertex 2302.728435 -1796.972839 -720.000000
   vertex 2292.500518 -1788.003197 23318.000000
  endloop
 endfacet
 facet normal -0.751840 -0.659346 0.000000
  outer loop
   vertex 2311.698077 -1807.200756 -720.000000
   vertex 2311.698077 -1807.200756 23318.000000
   vertex 2302.728435 -1796.972839 23318.000000
  endloop
 endfacet
 facet normal -0.751840 -0.659346 0.000000
  outer loop
   vertex 2302.728435 -1796.972839 -720.000000
   vertex 2311.698077 -1807.200756 -720.000000
   vertex 2302.728435 -1796.972839 23318.000000
  endloop
 endfacet
 facet normal -0.831470 -0.555570 0.000000
  outer loop
   vertex 2319.255971 -1818.511944 -720.000000
   vertex 2319.255971 -1818.511944 23318.000000
   vertex 2311.698077 -1807.200756 23318.000000
  endloop
 endfacet
 facet normal -0.831470 -0.555570 0.000000
  outer loop
   vertex 2311.698077 -1807.200756 -720.000000
   vertex 2319.255971 -1818.511944 -720.000000
   vertex 2311.698077 -1807.200756 23318.000000
  endloop
 endfacet
 facet normal -0.896873 -0.442289 0.000000
  outer loop
   vertex 2325.272801 -1830.712867 -720.000000
   vertex 2325.272801 -1830.712867 23318.000000
   vertex 2319.255971 -1818.511944 23318.000000
  endloop
 endfacet
 facet normal -0.896873 -0.442289 0.000000
  outer loop
   vertex 2319.255971 -1818.511944 -720.000000
   vertex 2325.272801 -1830.712867 -720.000000
   vertex 2319.255971 -1818.511944 23318.000000
  endloop
 endfacet
 facet normal -0.946930 -0.321439 0.000000
  outer loop
   vertex 2329.645615 -1843.594763 -720.000000
   vertex 2329.645615 -1843.594763 23318.000000
   vertex 2325.272801 -1830.712867 23318.000000
  endloop
 endfacet
 facet normal -0.946930 -0.321439 0.000000
  outer loop
   vertex 2325.272801 -1830.712867 -720.000000
   vertex 2329.645615 -1843.594763 -720.000000
   vertex 2325.272801 -1830.712867 23318.000000
  endloop
 endfacet
 facet normal -0.980785 -0.195090 0.000000
  outer loop
   vertex 2332.299595 -1856.937220 -720.000000
   vertex 2332.299595 -1856.937220 23318.000000
   vertex 2329.645615 -1843.594763 23318.000000
  endloop
 endfacet
 facet normal -0.980785 -0.195090 0.000000
  outer loop
   vertex 2329.645615 -1843.594763 -720.000000
   vertex 2332.299595 -1856.937220 -720.000000
   vertex 2329.645615 -1843.594763 23318.000000
  endloop
 endfacet
 facet normal -0.997859 -0.065403 0.000000
  outer loop
   vertex 2333.189329 -1870.511944 -720.000000
   vertex 2333.189329 -1870.511944 23318.000000
   vertex 2332.299595 -1856.937220 23318.000000
  endloop
 endfacet
 facet normal -0.997859 -0.065403 0.000000
  outer loop
   vertex 2332.299595 -1856.937220 -720.000000
   vertex 2333.189329 -1870.511944 -720.000000
   vertex 2332.299595 -1856.937220 23318.000000
  endloop
 endfacet
 facet normal -0.997859 0.065403 0.000000
  outer loop
   vertex 2332.299595 -1884.086668 -720.000000
   vertex 2332.299595 -1884.086668 23318.000000
   vertex 2333.189329 -1870.511944 23318.000000
  endloop
 endfacet
 facet normal -0.997859 0.065403 0.000000
  outer loop
   vertex 2333.189329 -1870.511944 -720.000000
   vertex 2332.299595 -1884.086668 -720.000000
   vertex 2333.189329 -1870.511944 23318.000000
  endloop
 endfacet
 facet normal -0.980785 0.195090 0.000000
  outer loop
   vertex 2329.645615 -1897.429125 -720.000000
   vertex 2329.645615 -1897.429125 23318.000000
   vertex 2332.299595 -1884.086668 23318.000000
  endloop
 endfacet
 facet normal -0.980785 0.195090 0.000000
  outer loop
   vertex 2332.299595 -1884.086668 -720.000000
   vertex 2329.645615 -1897.429125 -720.000000
   vertex 2332.299595 -1884.086668 23318.000000
  endloop
 endfacet
 facet normal -0.946930 0.321439 0.000000
  outer loop
   vertex 2325.272801 -1910.311021 -720.000000
   vertex 2325.272801 -1910.311021 23318.000000
   vertex 2329.645615 -1897.429125 23318.000000
  endloop
 endfacet
 facet normal -0.946930 0.321439 0.000000
  outer loop
   vertex 2329.645615 -1897.429125 -720.000000
   vertex 2325.272801 -1910.311021 -720.000000
   vertex 2329.645615 -1897.429125 23318.000000
  endloop
 endfacet
 facet normal -0.896873 0.442289 0.000000
  outer loop
   vertex 2319.255971 -1922.511944 -720.000000
   vertex 2319.255971 -1922.511944 23318.000000
   vertex 2325.272801 -1910.311021 23318.000000
  endloop
 endfacet
 facet normal -0.896873 0.442289 0.000000
  outer loop
   vertex 2325.272801 -1910.311021 -720.000000
   vertex 2319.255971 -1922.511944 -720.000000
   vertex 2325.272801 -1910.311021 23318.000000
  endloop
 endfacet
 facet normal -0.831470 0.555570 0.000000
  outer loop
   vertex 2311.698077 -1933.823133 -720.000000
   vertex 2311.698077 -1933.823133 23318.000000
   vertex 2319.255971 -1922.511944 23318.000000
  endloop
 endfacet
 facet normal -0.831470 0.555570 0.000000
  outer loop
   vertex 2319.255971 -1922.511944 -720.000000
   vertex 2311.698077 -1933.823133 -720.000000
   vertex 2319.255971 -1922.511944 23318.000000
  endloop
 endfacet
 facet normal -0.751840 0.659346 0.000000
  outer loop
   vertex 2302.728435 -1944.051049 -720.000000
   vertex 2302.728435 -1944.051049 23318.000000
   vertex 2311.698077 -1933.823133 23318.000000
  endloop
 endfacet
 facet normal -0.751840 0.659346 0.000000
  outer loop
   vertex 2311.698077 -1933.823133 -720.000000
   vertex 2302.728435 -1944.051049 -720.000000
   vertex 2311.698077 -1933.823133 23318.000000
  endloop
 endfacet
 facet normal -0.659346 0.751840 0.000000
  outer loop
   vertex 2292.500518 -1953.020692 -720.000000
   vertex 2292.500518 -1953.020692 23318.000000
   vertex 2302.728435 -1944.051049 23318.000000
  endloop
 endfacet
 facet normal -0.659346 0.751840 0.000000
  outer loop
   vertex 2302.728435 -1944.051049 -720.000000
   vertex 2292.500518 -1953.020692 -720.000000
   vertex 2302.728435 -1944.051049 23318.000000
  endloop
 endfacet
 facet normal -0.555570 0.831470 0.000000
  outer loop
   vertex 2281.189329 -1960.578586 -720.000000
   vertex 2281.189329 -1960.578586 23318.000000
   vertex 2292.500518 -1953.020692 23318.000000
  endloop
 endfacet
 facet normal -0.555570 0.831470 0.000000
  outer loop
   vertex 2292.500518 -1953.020692 -720.000000
   vertex 2281.189329 -1960.578586 -720.000000
   vertex 2292.500518 -1953.020692 23318.000000
  endloop
 endfacet
 facet normal -0.442289 0.896873 0.000000
  outer loop
   vertex 2268.988406 -1966.595416 -720.000000
   vertex 2268.988406 -1966.595416 23318.000000
   vertex 2281.189329 -1960.578586 23318.000000
  endloop
 endfacet
 facet normal -0.442289 0.896873 0.000000
  outer loop
   vertex 2281.189329 -1960.578586 -720.000000
   vertex 2268.988406 -1966.595416 -720.000000
   vertex 2281.189329 -1960.578586 23318.000000
  endloop
 endfacet
 facet normal -0.321439 0.946930 0.000000
  outer loop
   vertex 2256.106510 -1970.968230 -720.000000
   vertex 2256.106510 -1970.968230 23318.000000
   vertex 2268.988406 -1966.595416 23318.000000
  endloop
 endfacet
 facet normal -0.321439 0.946930 0.000000
  outer loop
   vertex 2268.988406 -1966.595416 -720.000000
   vertex 2256.106510 -1970.968230 -720.000000
   vertex 2268.988406 -1966.595416 23318.000000
  endloop
 endfacet
 facet normal -0.195090 0.980785 0.000000
  outer loop
   vertex 2242.764053 -1973.622210 -720.000000
   vertex 2242.764053 -1973.622210 23318.000000
   vertex 2256.106510 -1970.968230 23318.000000
  endloop
 endfacet
 facet normal -0.195090 0.980785 0.000000
  outer loop
   vertex 2256.106510 -1970.968230 -720.000000
   vertex 2242.764053 -1973.622210 -720.000000
   vertex 2256.106510 -1970.968230 23318.000000
  endloop
 endfacet
 facet normal -0.065403 0.997859 0.000000
  outer loop
   vertex 2229.189329 -1974.511944 -720.000000
   vertex 2229.189329 -1974.511944 23318.000000
   vertex 2242.764053 -1973.622210 23318.000000
  endloop
 endfacet
 facet normal -0.065403 0.997859 0.000000
  outer loop
   vertex 2242.764053 -1973.622210 -720.000000
   vertex 2229.189329 -1974.511944 -720.000000
   vertex 2242.764053 -1973.622210 23318.000000
  endloop
 endfacet
 facet normal 0.065403 0.997859 -0.000000
  outer loop
   vertex 2215.614605 -1973.622210 -720.000000
   vertex 2215.614605 -1973.622210 23318.000000
   vertex 2229.189329 -1974.511944 23318.000000
  endloop
 endfacet
 facet normal 0.065403 0.997859 -0.000000
  outer loop
   vertex 2229.189329 -1974.511944 -720.000000
   vertex 2215.614605 -1973.622210 -720.000000
   vertex 2229.189329 -1974.511944 23318.000000
  endloop
 endfacet
 facet normal 0.195090 0.980785 -0.000000
  outer loop
   vertex 2202.272149 -1970.968230 -720.000000
   vertex 2202.272149 -1970.968230 23318.000000
   vertex 2215.614605 -1973.622210 23318.000000
  endloop
 endfacet
 facet normal 0.195090 0.980785 -0.000000
  outer loop
   vertex 2215.614605 -1973.622210 -720.000000
   vertex 2202.272149 -1970.968230 -720.000000
   vertex 2215.614605 -1973.622210 23318.000000
  endloop
 endfacet
 facet normal 0.321439 0.946930 -0.000000
  outer loop
   vertex 2189.390253 -1966.595416 -720.000000
   vertex 2189.390253 -1966.595416 23318.000000
   vertex 2202.272149 -1970.968230 23318.000000
  endloop
 endfacet
 facet normal 0.321439 0.946930 -0.000000
  outer loop
   vertex 2202.272149 -1970.968230 -720.000000
   vertex 2189.390253 -1966.595416 -720.000000
   vertex 2202.272149 -1970.968230 23318.000000
  endloop
 endfacet
 facet normal 0.442289 0.896873 -0.000000
  outer loop
   vertex 2177.189329 -1960.578586 -720.000000
   vertex 2177.189329 -1960.578586 23318.000000
   vertex 2189.390253 -1966.595416 23318.000000
  endloop
 endfacet
 facet normal 0.442289 0.896873 -0.000000
  outer loop
   vertex 2189.390253 -1966.595416 -720.000000
   vertex 2177.189329 -1960.578586 -720.000000
   vertex 2189.390253 -1966.595416 23318.000000
  endloop
 endfacet
 facet normal 0.555570 0.831470 -0.000000
  outer loop
   vertex 2165.878141 -1953.020692 -720.000000
   vertex 2165.878141 -1953.020692 23318.000000
   vertex 2177.189329 -1960.578586 23318.000000
  endloop
 endfacet
 facet normal 0.555570 0.831470 -0.000000
  outer loop
   vertex 2177.189329 -1960.578586 -720.000000
   vertex 2165.878141 -1953.020692 -720.000000
   vertex 2177.189329 -1960.578586 23318.000000
  endloop
 endfacet
 facet normal 0.659346 0.751840 -0.000000
  outer loop
   vertex 2155.650224 -1944.051049 -720.000000
   vertex 2155.650224 -1944.051049 23318.000000
   vertex 2165.878141 -1953.020692 23318.000000
  endloop
 endfacet
 facet normal 0.659346 0.751840 -0.000000
  outer loop
   vertex 2165.878141 -1953.020692 -720.000000
   vertex 2155.650224 -1944.051049 -720.000000
   vertex 2165.878141 -1953.020692 23318.000000
  endloop
 endfacet
 facet normal 0.751840 0.659346 -0.000000
  outer loop
   vertex 2146.680582 -1933.823133 -720.000000
   vertex 2146.680582 -1933.823133 23318.000000
   vertex 2155.650224 -1944.051049 23318.000000
  endloop
 endfacet
 facet normal 0.751840 0.659346 -0.000000
  outer loop
   vertex 2155.650224 -1944.051049 -720.000000
   vertex 2146.680582 -1933.823133 -720.000000
   vertex 2155.650224 -1944.051049 23318.000000
  endloop
 endfacet
 facet normal 0.831470 0.555570 -0.000000
  outer loop
   vertex 2139.122687 -1922.511944 -720.000000
   vertex 2139.122687 -1922.511944 23318.000000
   vertex 2146.680582 -1933.823133 23318.000000
  endloop
 endfacet
 facet normal 0.831470 0.555570 -0.000000
  outer loop
   vertex 2146.680582 -1933.823133 -720.000000
   vertex 2139.122687 -1922.511944 -720.000000
   vertex 2146.680582 -1933.823133 23318.000000
  endloop
 endfacet
 facet normal 0.896873 0.442289 -0.000000
  outer loop
   vertex 2133.105858 -1910.311021 -720.000000
   vertex 2133.105858 -1910.311021 23318.000000
   vertex 2139.122687 -1922.511944 23318.000000
  endloop
 endfacet
 facet normal 0.896873 0.442289 -0.000000
  outer loop
   vertex 2139.122687 -1922.511944 -720.000000
   vertex 2133.105858 -1910.311021 -720.000000
   vertex 2139.122687 -1922.511944 23318.000000
  endloop
 endfacet
 facet normal 0.946930 0.321439 -0.000000
  outer loop
   vertex 2128.733044 -1897.429125 -720.000000
   vertex 2128.733044 -1897.429125 23318.000000
   vertex 2133.105858 -1910.311021 23318.000000
  endloop
 endfacet
 facet normal 0.946930 0.321439 -0.000000
  outer loop
   vertex 2133.105858 -1910.311021 -720.000000
   vertex 2128.733044 -1897.429125 -720.000000
   vertex 2133.105858 -1910.311021 23318.000000
  endloop
 endfacet
 facet normal 0.980785 0.195090 -0.000000
  outer loop
   vertex 2126.079064 -1884.086668 -720.000000
   vertex 2126.079064 -1884.086668 23318.000000
   vertex 2128.733044 -1897.429125 23318.000000
  endloop
 endfacet
 facet normal 0.980785 0.195090 -0.000000
  outer loop
   vertex 2128.733044 -1897.429125 -720.000000
   vertex 2126.079064 -1884.086668 -720.000000
   vertex 2128.733044 -1897.429125 23318.000000
  endloop
 endfacet
 facet normal 0.997859 0.065403 -0.000000
  outer loop
   vertex 2125.189329 -1870.511944 -720.000000
   vertex 2125.189329 -1870.511944 23318.000000
   vertex 2126.079064 -1884.086668 23318.000000
  endloop
 endfacet
 facet normal 0.997859 0.065403 -0.000000
  outer loop
   vertex 2126.079064 -1884.086668 -720.000000
   vertex 2125.189329 -1870.511944 -720.000000
   vertex 2126.079064 -1884.086668 23318.000000
  endloop
 endfacet
 facet normal 0.997859 -0.065403 0.000000
  outer loop
   vertex 2126.079064 -1856.937220 -720.000000
   vertex 2126.079064 -1856.937220 23318.000000
   vertex 2125.189329 -1870.511944 23318.000000
  endloop
 endfacet
 facet normal 0.997859 -0.065403 0.000000
  outer loop
   vertex 2125.189329 -1870.511944 -720.000000
   vertex 2126.079064 -1856.937220 -720.000000
   vertex 2125.189329 -1870.511944 23318.000000
  endloop
 endfacet
 facet normal 0.980785 -0.195090 0.000000
  outer loop
   vertex 2128.733044 -1843.594763 -720.000000
   vertex 2128.733044 -1843.594763 23318.000000
   vertex 2126.079064 -1856.937220 23318.000000
  endloop
 endfacet
 facet normal 0.980785 -0.195090 0.000000
  outer loop
   vertex 2126.079064 -1856.937220 -720.000000
   vertex 2128.733044 -1843.594763 -720.000000
   vertex 2126.079064 -1856.937220 23318.000000
  endloop
 endfacet
 facet normal 0.946930 -0.321439 0.000000
  outer loop
   vertex 2133.105858 -1830.712867 -720.000000
   vertex 2133.105858 -1830.712867 23318.000000
   vertex 2128.733044 -1843.594763 23318.000000
  endloop
 endfacet
 facet normal 0.946930 -0.321439 0.000000
  outer loop
   vertex 2128.733044 -1843.594763 -720.000000
   vertex 2133.105858 -1830.712867 -720.000000
   vertex 2128.733044 -1843.594763 23318.000000
  endloop
 endfacet
 facet normal 0.896873 -0.442289 0.000000
  outer loop
   vertex 2139.122687 -1818.511944 -720.000000
   vertex 2139.122687 -1818.511944 23318.000000
   vertex 2133.105858 -1830.712867 23318.000000
  endloop
 endfacet
 facet normal 0.896873 -0.442289 0.000000
  outer loop
   vertex 2133.105858 -1830.712867 -720.000000
   vertex 2139.122687 -1818.511944 -720.000000
   vertex 2133.105858 -1830.712867 23318.000000
  endloop
 endfacet
 facet normal 0.831470 -0.555570 0.000000
  outer loop
   vertex 2146.680582 -1807.200756 -720.000000
   vertex 2146.680582 -1807.200756 23318.000000
   vertex 2139.122687 -1818.511944 23318.000000
  endloop
 endfacet
 facet normal 0.831470 -0.555570 0.000000
  outer loop
   vertex 2139.122687 -1818.511944 -720.000000
   vertex 2146.680582 -1807.200756 -720.000000
   vertex 2139.122687 -1818.511944 23318.000000
  endloop
 endfacet
 facet normal 0.751840 -0.659346 0.000000
  outer loop
   vertex 2155.650224 -1796.972839 -720.000000
   vertex 2155.650224 -1796.972839 23318.000000
   vertex 2146.680582 -1807.200756 23318.000000
  endloop
 endfacet
 facet normal 0.751840 -0.659346 0.000000
  outer loop
   vertex 2146.680582 -1807.200756 -720.000000
   vertex 2155.650224 -1796.972839 -720.000000
   vertex 2146.680582 -1807.200756 23318.000000
  endloop
 endfacet
 facet normal 0.659346 -0.751840 0.000000
  outer loop
   vertex 2165.878141 -1788.003197 -720.000000
   vertex 2165.878141 -1788.003197 23318.000000
   vertex 2155.650224 -1796.972839 23318.000000
  endloop
 endfacet
 facet normal 0.659346 -0.751840 0.000000
  outer loop
   vertex 2155.650224 -1796.972839 -720.000000
   vertex 2165.878141 -1788.003197 -720.000000
   vertex 2155.650224 -1796.972839 23318.000000
  endloop
 endfacet
 facet normal 0.555570 -0.831470 0.000000
  outer loop
   vertex 2177.189329 -1780.445302 -720.000000
   vertex 2177.189329 -1780.445302 23318.000000
   vertex 2165.878141 -1788.003197 23318.000000
  endloop
 endfacet
 facet normal 0.555570 -0.831470 0.000000
  outer loop
   vertex 2165.878141 -1788.003197 -720.000000
   vertex 2177.189329 -1780.445302 -720.000000
   vertex 2165.878141 -1788.003197 23318.000000
  endloop
 endfacet
 facet normal 0.442289 -0.896873 0.000000
  outer loop
   vertex 2189.390253 -1774.428473 -720.000000
   vertex 2189.390253 -1774.428473 23318.000000
   vertex 2177.189329 -1780.445302 23318.000000
  endloop
 endfacet
 facet normal 0.442289 -0.896873 0.000000
  outer loop
   vertex 2177.189329 -1780.445302 -720.000000
   vertex 2189.390253 -1774.428473 -720.000000
   vertex 2177.189329 -1780.445302 23318.000000
  endloop
 endfacet
 facet normal 0.321439 -0.946930 0.000000
  outer loop
   vertex 2202.272149 -1770.055658 -720.000000
   vertex 2202.272149 -1770.055658 23318.000000
   vertex 2189.390253 -1774.428473 23318.000000
  endloop
 endfacet
 facet normal 0.321439 -0.946930 0.000000
  outer loop
   vertex 2189.390253 -1774.428473 -720.000000
   vertex 2202.272149 -1770.055658 -720.000000
   vertex 2189.390253 -1774.428473 23318.000000
  endloop
 endfacet
 facet normal 0.195090 -0.980785 0.000000
  outer loop
   vertex 2215.614605 -1767.401679 -720.000000
   vertex 2215.614605 -1767.401679 23318.000000
   vertex 2202.272149 -1770.055658 23318.000000
  endloop
 endfacet
 facet normal 0.195090 -0.980785 0.000000
  outer loop
   vertex 2202.272149 -1770.055658 -720.000000
   vertex 2215.614605 -1767.401679 -720.000000
   vertex 2202.272149 -1770.055658 23318.000000
  endloop
 endfacet
 facet normal 0.065403 -0.997859 0.000000
  outer loop
   vertex 2229.189329 -1766.511944 -720.000000
   vertex 2229.189329 -1766.511944 23318.000000
   vertex 2215.614605 -1767.401679 23318.000000
  endloop
 endfacet
 facet normal 0.065403 -0.997859 0.000000
  outer loop
   vertex 2215.614605 -1767.401679 -720.000000
   vertex 2229.189329 -1766.511944 -720.000000
   vertex 2215.614605 -1767.401679 23318.000000
  endloop
 endfacet
endsolid SIC_RP1_DOWNCOMER
