solid F1_inlet_stub_4
 facet normal 0.065403 0.997859 0.000000
  outer loop
   vertex 1430.003960 2521.766859 -2580.000000
   vertex 1435.877639 2521.381878 -2580.000000
   vertex 1435.877639 2521.381878 -2780.000000
  endloop
 endfacet
 facet normal 0.065403 0.997859 0.000000
  outer loop
   vertex 1430.003960 2521.766859 -2580.000000
   vertex 1435.877639 2521.381878 -2780.000000
   vertex 1430.003960 2521.766859 -2780.000000
  endloop
 endfacet
 facet normal 0.195090 0.980785 0.000000
  outer loop
   vertex 1435.877639 2521.381878 -2580.000000
   vertex 1441.650817 2520.233521 -2580.000000
   vertex 1441.650817 2520.233521 -2780.000000
  endloop
 endfacet
 facet normal 0.195090 0.980785 0.000000
  outer loop
   vertex 1435.877639 2521.381878 -2580.000000
   vertex 1441.650817 2520.233521 -2780.000000
   vertex 1435.877639 2521.381878 -2780.000000
  endloop
 endfacet
 facet normal 0.321439 0.946930 0.000000
  outer loop
   vertex 1441.650817 2520.233521 -2580.000000
   vertex 1447.224715 2518.341438 -2580.000000
   vertex 1447.224715 2518.341438 -2780.000000
  endloop
 endfacet
 facet normal 0.321439 0.946930 0.000000
  outer loop
   vertex 1441.650817 2520.233521 -2580.000000
   vertex 1447.224715 2518.341438 -2780.000000
   vertex 1441.650817 2520.233521 -2780.000000
  endloop
 endfacet
 facet normal 0.442289 0.896873 0.000000
  outer loop
   vertex 1447.224715 2518.341438 -2580.000000
   vertex 1452.503960 2515.738002 -2580.000000
   vertex 1452.503960 2515.738002 -2780.000000
  endloop
 endfacet
 facet normal 0.442289 0.896873 0.000000
  outer loop
   vertex 1447.224715 2518.341438 -2580.000000
   vertex 1452.503960 2515.738002 -2780.000000
   vertex 1447.224715 2518.341438 -2780.000000
  endloop
 endfacet
 facet normal 0.555570 0.831470 0.000000
  outer loop
   vertex 1452.503960 2515.738002 -2580.000000
   vertex 1457.398224 2512.467759 -2580.000000
   vertex 1457.398224 2512.467759 -2780.000000
  endloop
 endfacet
 facet normal 0.555570 0.831470 0.000000
  outer loop
   vertex 1452.503960 2515.738002 -2580.000000
   vertex 1457.398224 2512.467759 -2780.000000
   vertex 1452.503960 2515.738002 -2780.000000
  endloop
 endfacet
 facet normal 0.659346 0.751840 0.000000
  outer loop
   vertex 1457.398224 2512.467759 -2580.000000
   vertex 1461.823765 2508.586664 -2580.000000
   vertex 1461.823765 2508.586664 -2780.000000
  endloop
 endfacet
 facet normal 0.659346 0.751840 0.000000
  outer loop
   vertex 1457.398224 2512.467759 -2580.000000
   vertex 1461.823765 2508.586664 -2780.000000
   vertex 1457.398224 2512.467759 -2780.000000
  endloop
 endfacet
 facet normal 0.751840 0.659346 0.000000
  outer loop
   vertex 1461.823765 2508.586664 -2580.000000
   vertex 1465.704860 2504.161123 -2580.000000
   vertex 1465.704860 2504.161123 -2780.000000
  endloop
 endfacet
 facet normal 0.751840 0.659346 0.000000
  outer loop
   vertex 1461.823765 2508.586664 -2580.000000
   vertex 1465.704860 2504.161123 -2780.000000
   vertex 1461.823765 2508.586664 -2780.000000
  endloop
 endfacet
 facet normal 0.831470 0.555570 0.000000
  outer loop
   vertex 1465.704860 2504.161123 -2580.000000
   vertex 1468.975103 2499.266859 -2580.000000
   vertex 1468.975103 2499.266859 -2780.000000
  endloop
 endfacet
 facet normal 0.831470 0.555570 0.000000
  outer loop
   vertex 1465.704860 2504.161123 -2580.000000
   vertex 1468.975103 2499.266859 -2780.000000
   vertex 1465.704860 2504.161123 -2780.000000
  endloop
 endfacet
 facet normal 0.896873 0.442289 0.000000
  outer loop
   vertex 1468.975103 2499.266859 -2580.000000
   vertex 1471.578539 2493.987613 -2580.000000
   vertex 1471.578539 2493.987613 -2780.000000
  endloop
 endfacet
 facet normal 0.896873 0.442289 0.000000
  outer loop
   vertex 1468.975103 2499.266859 -2580.000000
   vertex 1471.578539 2493.987613 -2780.000000
   vertex 1468.975103 2499.266859 -2780.000000
  endloop
 endfacet
 facet normal 0.946930 0.321439 0.000000
  outer loop
   vertex 1471.578539 2493.987613 -2580.000000
   vertex 1473.470622 2488.413716 -2580.000000
   vertex 1473.470622 2488.413716 -2780.000000
  endloop
 endfacet
 facet normal 0.946930 0.321439 0.000000
  outer loop
   vertex 1471.578539 2493.987613 -2580.000000
   vertex 1473.470622 2488.413716 -2780.000000
   vertex 1471.578539 2493.987613 -2780.000000
  endloop
 endfacet
 facet normal 0.980785 0.195090 0.000000
  outer loop
   vertex 1473.470622 2488.413716 -2580.000000
   vertex 1474.618979 2482.640538 -2580.000000
   vertex 1474.618979 2482.640538 -2780.000000
  endloop
 endfacet
 facet normal 0.980785 0.195090 0.000000
  outer loop
   vertex 1473.470622 2488.413716 -2580.000000
   vertex 1474.618979 2482.640538 -2780.000000
   vertex 1473.470622 2488.413716 -2780.000000
  endloop
 endfacet
 facet normal 0.997859 0.065403 0.000000
  outer loop
   vertex 1474.618979 2482.640538 -2580.000000
   vertex 1475.003960 2476.766859 -2580.000000
   vertex 1475.003960 2476.766859 -2780.000000
  endloop
 endfacet
 facet normal 0.997859 0.065403 0.000000
  outer loop
   vertex 1474.618979 2482.640538 -2580.000000
   vertex 1475.003960 2476.766859 -2780.000000
   vertex 1474.618979 2482.640538 -2780.000000
  endloop
 endfacet
 facet normal 0.997859 -0.065403 0.000000
  outer loop
   vertex 1475.003960 2476.766859 -2580.000000
   vertex 1474.618979 2470.893180 -2580.000000
   vertex 1474.618979 2470.893180 -2780.000000
  endloop
 endfacet
 facet normal 0.997859 -0.065403 0.000000
  outer loop
   vertex 1475.003960 2476.766859 -2580.000000
   vertex 1474.618979 2470.893180 -2780.000000
   vertex 1475.003960 2476.766859 -2780.000000
  endloop
 endfacet
 facet normal 0.980785 -0.195090 0.000000
  outer loop
   vertex 1474.618979 2470.893180 -2580.000000
   vertex 1473.470622 2465.120002 -2580.000000
   vertex 1473.470622 2465.120002 -2780.000000
  endloop
 endfacet
 facet normal 0.980785 -0.195090 0.000000
  outer loop
   vertex 1474.618979 2470.893180 -2580.000000
   vertex 1473.470622 2465.120002 -2780.000000
   vertex 1474.618979 2470.893180 -2780.000000
  endloop
 endfacet
 facet normal 0.946930 -0.321439 0.000000
  outer loop
   vertex 1473.470622 2465.120002 -2580.000000
   vertex 1471.578539 2459.546104 -2580.000000
   vertex 1471.578539 2459.546104 -2780.000000
  endloop
 endfacet
 facet normal 0.946930 -0.321439 0.000000
  outer loop
   vertex 1473.470622 2465.120002 -2580.000000
   vertex 1471.578539 2459.546104 -2780.000000
   vertex 1473.470622 2465.120002 -2780.000000
  endloop
 endfacet
 facet normal 0.896873 -0.442289 0.000000
  outer loop
   vertex 1471.578539 2459.546104 -2580.000000
   vertex 1468.975103 2454.266859 -2580.000000
   vertex 1468.975103 2454.266859 -2780.000000
  endloop
 endfacet
 facet normal 0.896873 -0.442289 0.000000
  outer loop
   vertex 1471.578539 2459.546104 -2580.000000
   vertex 1468.975103 2454.266859 -2780.000000
   vertex 1471.578539 2459.546104 -2780.000000
  endloop
 endfacet
 facet normal 0.831470 -0.555570 0.000000
  outer loop
   vertex 1468.975103 2454.266859 -2580.000000
   vertex 1465.704860 2449.372595 -2580.000000
   vertex 1465.704860 2449.372595 -2780.000000
  endloop
 endfacet
 facet normal 0.831470 -0.555570 0.000000
  outer loop
   vertex 1468.975103 2454.266859 -2580.000000
   vertex 1465.704860 2449.372595 -2780.000000
   vertex 1468.975103 2454.266859 -2780.000000
  endloop
 endfacet
 facet normal 0.751840 -0.659346 0.000000
  outer loop
   vertex 1465.704860 2449.372595 -2580.000000
   vertex 1461.823765 2444.947054 -2580.000000
   vertex 1461.823765 2444.947054 -2780.000000
  endloop
 endfacet
 facet normal 0.751840 -0.659346 0.000000
  outer loop
   vertex 1465.704860 2449.372595 -2580.000000
   vertex 1461.823765 2444.947054 -2780.000000
   vertex 1465.704860 2449.372595 -2780.000000
  endloop
 endfacet
 facet normal 0.659346 -0.751840 0.000000
  outer loop
   vertex 1461.823765 2444.947054 -2580.000000
   vertex 1457.398224 2441.065959 -2580.000000
   vertex 1457.398224 2441.065959 -2780.000000
  endloop
 endfacet
 facet normal 0.659346 -0.751840 0.000000
  outer loop
   vertex 1461.823765 2444.947054 -2580.000000
   vertex 1457.398224 2441.065959 -2780.000000
   vertex 1461.823765 2444.947054 -2780.000000
  endloop
 endfacet
 facet normal 0.555570 -0.831470 0.000000
  outer loop
   vertex 1457.398224 2441.065959 -2580.000000
   vertex 1452.503960 2437.795716 -2580.000000
   vertex 1452.503960 2437.795716 -2780.000000
  endloop
 endfacet
 facet normal 0.555570 -0.831470 0.000000
  outer loop
   vertex 1457.398224 2441.065959 -2580.000000
   vertex 1452.503960 2437.795716 -2780.000000
   vertex 1457.398224 2441.065959 -2780.000000
  endloop
 endfacet
 facet normal 0.442289 -0.896873 0.000000
  outer loop
   vertex 1452.503960 2437.795716 -2580.000000
   vertex 1447.224715 2435.192280 -2580.000000
   vertex 1447.224715 2435.192280 -2780.000000
  endloop
 endfacet
 facet normal 0.442289 -0.896873 0.000000
  outer loop
   vertex 1452.503960 2437.795716 -2580.000000
   vertex 1447.224715 2435.192280 -2780.000000
   vertex 1452.503960 2437.795716 -2780.000000
  endloop
 endfacet
 facet normal 0.321439 -0.946930 0.000000
  outer loop
   vertex 1447.224715 2435.192280 -2580.000000
   vertex 1441.650817 2433.300197 -2580.000000
   vertex 1441.650817 2433.300197 -2780.000000
  endloop
 endfacet
 facet normal 0.321439 -0.946930 0.000000
  outer loop
   vertex 1447.224715 2435.192280 -2580.000000
   vertex 1441.650817 2433.300197 -2780.000000
   vertex 1447.224715 2435.192280 -2780.000000
  endloop
 endfacet
 facet normal 0.195090 -0.980785 0.000000
  outer loop
   vertex 1441.650817 2433.300197 -2580.000000
   vertex 1435.877639 2432.151840 -2580.000000
   vertex 1435.877639 2432.151840 -2780.000000
  endloop
 endfacet
 facet normal 0.195090 -0.980785 0.000000
  outer loop
   vertex 1441.650817 2433.300197 -2580.000000
   vertex 1435.877639 2432.151840 -2780.000000
   vertex 1441.650817 2433.300197 -2780.000000
  endloop
 endfacet
 facet normal 0.065403 -0.997859 0.000000
  outer loop
   vertex 1435.877639 2432.151840 -2580.000000
   vertex 1430.003960 2431.766859 -2580.000000
   vertex 1430.003960 2431.766859 -2780.000000
  endloop
 endfacet
 facet normal 0.065403 -0.997859 0.000000
  outer loop
   vertex 1435.877639 2432.151840 -2580.000000
   vertex 1430.003960 2431.766859 -2780.000000
   vertex 1435.877639 2432.151840 -2780.000000
  endloop
 endfacet
 facet normal -0.065403 -0.997859 0.000000
  outer loop
   vertex 1430.003960 2431.766859 -2580.000000
   vertex 1424.130281 2432.151840 -2580.000000
   vertex 1424.130281 2432.151840 -2780.000000
  endloop
 endfacet
 facet normal -0.065403 -0.997859 -0.000000
  outer loop
   vertex 1430.003960 2431.766859 -2580.000000
   vertex 1424.130281 2432.151840 -2780.000000
   vertex 1430.003960 2431.766859 -2780.000000
  endloop
 endfacet
 facet normal -0.195090 -0.980785 0.000000
  outer loop
   vertex 1424.130281 2432.151840 -2580.000000
   vertex 1418.357103 2433.300197 -2580.000000
   vertex 1418.357103 2433.300197 -2780.000000
  endloop
 endfacet
 facet normal -0.195090 -0.980785 -0.000000
  outer loop
   vertex 1424.130281 2432.151840 -2580.000000
   vertex 1418.357103 2433.300197 -2780.000000
   vertex 1424.130281 2432.151840 -2780.000000
  endloop
 endfacet
 facet normal -0.321439 -0.946930 0.000000
  outer loop
   vertex 1418.357103 2433.300197 -2580.000000
   vertex 1412.783206 2435.192280 -2580.000000
   vertex 1412.783206 2435.192280 -2780.000000
  endloop
 endfacet
 facet normal -0.321439 -0.946930 -0.000000
  outer loop
   vertex 1418.357103 2433.300197 -2580.000000
   vertex 1412.783206 2435.192280 -2780.000000
   vertex 1418.357103 2433.300197 -2780.000000
  endloop
 endfacet
 facet normal -0.442289 -0.896873 0.000000
  outer loop
   vertex 1412.783206 2435.192280 -2580.000000
   vertex 1407.503960 2437.795716 -2580.000000
   vertex 1407.503960 2437.795716 -2780.000000
  endloop
 endfacet
 facet normal -0.442289 -0.896873 -0.000000
  outer loop
   vertex 1412.783206 2435.192280 -2580.000000
   vertex 1407.503960 2437.795716 -2780.000000
   vertex 1412.783206 2435.192280 -2780.000000
  endloop
 endfacet
 facet normal -0.555570 -0.831470 0.000000
  outer loop
   vertex 1407.503960 2437.795716 -2580.000000
   vertex 1402.609696 2441.065959 -2580.000000
   vertex 1402.609696 2441.065959 -2780.000000
  endloop
 endfacet
 facet normal -0.555570 -0.831470 -0.000000
  outer loop
   vertex 1407.503960 2437.795716 -2580.000000
   vertex 1402.609696 2441.065959 -2780.000000
   vertex 1407.503960 2437.795716 -2780.000000
  endloop
 endfacet
 facet normal -0.659346 -0.751840 0.000000
  outer loop
   vertex 1402.609696 2441.065959 -2580.000000
   vertex 1398.184155 2444.947054 -2580.000000
   vertex 1398.184155 2444.947054 -2780.000000
  endloop
 endfacet
 facet normal -0.659346 -0.751840 -0.000000
  outer loop
   vertex 1402.609696 2441.065959 -2580.000000
   vertex 1398.184155 2444.947054 -2780.000000
   vertex 1402.609696 2441.065959 -2780.000000
  endloop
 endfacet
 facet normal -0.751840 -0.659346 0.000000
  outer loop
   vertex 1398.184155 2444.947054 -2580.000000
   vertex 1394.303060 2449.372595 -2580.000000
   vertex 1394.303060 2449.372595 -2780.000000
  endloop
 endfacet
 facet normal -0.751840 -0.659346 -0.000000
  outer loop
   vertex 1398.184155 2444.947054 -2580.000000
   vertex 1394.303060 2449.372595 -2780.000000
   vertex 1398.184155 2444.947054 -2780.000000
  endloop
 endfacet
 facet normal -0.831470 -0.555570 0.000000
  outer loop
   vertex 1394.303060 2449.372595 -2580.000000
   vertex 1391.032817 2454.266859 -2580.000000
   vertex 1391.032817 2454.266859 -2780.000000
  endloop
 endfacet
 facet normal -0.831470 -0.555570 -0.000000
  outer loop
   vertex 1394.303060 2449.372595 -2580.000000
   vertex 1391.032817 2454.266859 -2780.000000
   vertex 1394.303060 2449.372595 -2780.000000
  endloop
 endfacet
 facet normal -0.896873 -0.442289 0.000000
  outer loop
   vertex 1391.032817 2454.266859 -2580.000000
   vertex 1388.429381 2459.546104 -2580.000000
   vertex 1388.429381 2459.546104 -2780.000000
  endloop
 endfacet
 facet normal -0.896873 -0.442289 -0.000000
  outer loop
   vertex 1391.032817 2454.266859 -2580.000000
   vertex 1388.429381 2459.546104 -2780.000000
   vertex 1391.032817 2454.266859 -2780.000000
  endloop
 endfacet
 facet normal -0.946930 -0.321439 0.000000
  outer loop
   vertex 1388.429381 2459.546104 -2580.000000
   vertex 1386.537298 2465.120002 -2580.000000
   vertex 1386.537298 2465.120002 -2780.000000
  endloop
 endfacet
 facet normal -0.946930 -0.321439 -0.000000
  outer loop
   vertex 1388.429381 2459.546104 -2580.000000
   vertex 1386.537298 2465.120002 -2780.000000
   vertex 1388.429381 2459.546104 -2780.000000
  endloop
 endfacet
 facet normal -0.980785 -0.195090 0.000000
  outer loop
   vertex 1386.537298 2465.120002 -2580.000000
   vertex 1385.388941 2470.893180 -2580.000000
   vertex 1385.388941 2470.893180 -2780.000000
  endloop
 endfacet
 facet normal -0.980785 -0.195090 -0.000000
  outer loop
   vertex 1386.537298 2465.120002 -2580.000000
   vertex 1385.388941 2470.893180 -2780.000000
   vertex 1386.537298 2465.120002 -2780.000000
  endloop
 endfacet
 facet normal -0.997859 -0.065403 0.000000
  outer loop
   vertex 1385.388941 2470.893180 -2580.000000
   vertex 1385.003960 2476.766859 -2580.000000
   vertex 1385.003960 2476.766859 -2780.000000
  endloop
 endfacet
 facet normal -0.997859 -0.065403 -0.000000
  outer loop
   vertex 1385.388941 2470.893180 -2580.000000
   vertex 1385.003960 2476.766859 -2780.000000
   vertex 1385.388941 2470.893180 -2780.000000
  endloop
 endfacet
 facet normal -0.997859 0.065403 0.000000
  outer loop
   vertex 1385.003960 2476.766859 -2580.000000
   vertex 1385.388941 2482.640538 -2580.000000
   vertex 1385.388941 2482.640538 -2780.000000
  endloop
 endfacet
 facet normal -0.997859 0.065403 0.000000
  outer loop
   vertex 1385.003960 2476.766859 -2580.000000
   vertex 1385.388941 2482.640538 -2780.000000
   vertex 1385.003960 2476.766859 -2780.000000
  endloop
 endfacet
 facet normal -0.980785 0.195090 0.000000
  outer loop
   vertex 1385.388941 2482.640538 -2580.000000
   vertex 1386.537298 2488.413716 -2580.000000
   vertex 1386.537298 2488.413716 -2780.000000
  endloop
 endfacet
 facet normal -0.980785 0.195090 0.000000
  outer loop
   vertex 1385.388941 2482.640538 -2580.000000
   vertex 1386.537298 2488.413716 -2780.000000
   vertex 1385.388941 2482.640538 -2780.000000
  endloop
 endfacet
 facet normal -0.946930 0.321439 0.000000
  outer loop
   vertex 1386.537298 2488.413716 -2580.000000
   vertex 1388.429381 2493.987613 -2580.000000
   vertex 1388.429381 2493.987613 -2780.000000
  endloop
 endfacet
 facet normal -0.946930 0.321439 0.000000
  outer loop
   vertex 1386.537298 2488.413716 -2580.000000
   vertex 1388.429381 2493.987613 -2780.000000
   vertex 1386.537298 2488.413716 -2780.000000
  endloop
 endfacet
 facet normal -0.896873 0.442289 0.000000
  outer loop
   vertex 1388.429381 2493.987613 -2580.000000
   vertex 1391.032817 2499.266859 -2580.000000
   vertex 1391.032817 2499.266859 -2780.000000
  endloop
 endfacet
 facet normal -0.896873 0.442289 0.000000
  outer loop
   vertex 1388.429381 2493.987613 -2580.000000
   vertex 1391.032817 2499.266859 -2780.000000
   vertex 1388.429381 2493.987613 -2780.000000
  endloop
 endfacet
 facet normal -0.831470 0.555570 0.000000
  outer loop
   vertex 1391.032817 2499.266859 -2580.000000
   vertex 1394.303060 2504.161123 -2580.000000
   vertex 1394.303060 2504.161123 -2780.000000
  endloop
 endfacet
 facet normal -0.831470 0.555570 0.000000
  outer loop
   vertex 1391.032817 2499.266859 -2580.000000
   vertex 1394.303060 2504.161123 -2780.000000
   vertex 1391.032817 2499.266859 -2780.000000
  endloop
 endfacet
 facet normal -0.751840 0.659346 0.000000
  outer loop
   vertex 1394.303060 2504.161123 -2580.000000
   vertex 1398.184155 2508.586664 -2580.000000
   vertex 1398.184155 2508.586664 -2780.000000
  endloop
 endfacet
 facet normal -0.751840 0.659346 0.000000
  outer loop
   vertex 1394.303060 2504.161123 -2580.000000
   vertex 1398.184155 2508.586664 -2780.000000
   vertex 1394.303060 2504.161123 -2780.000000
  endloop
 endfacet
 facet normal -0.659346 0.751840 0.000000
  outer loop
   vertex 1398.184155 2508.586664 -2580.000000
   vertex 1402.609696 2512.467759 -2580.000000
   vertex 1402.609696 2512.467759 -2780.000000
  endloop
 endfacet
 facet normal -0.659346 0.751840 0.000000
  outer loop
   vertex 1398.184155 2508.586664 -2580.000000
   vertex 1402.609696 2512.467759 -2780.000000
   vertex 1398.184155 2508.586664 -2780.000000
  endloop
 endfacet
 facet normal -0.555570 0.831470 0.000000
  outer loop
   vertex 1402.609696 2512.467759 -2580.000000
   vertex 1407.503960 2515.738002 -2580.000000
   vertex 1407.503960 2515.738002 -2780.000000
  endloop
 endfacet
 facet normal -0.555570 0.831470 0.000000
  outer loop
   vertex 1402.609696 2512.467759 -2580.000000
   vertex 1407.503960 2515.738002 -2780.000000
   vertex 1402.609696 2512.467759 -2780.000000
  endloop
 endfacet
 facet normal -0.442289 0.896873 0.000000
  outer loop
   vertex 1407.503960 2515.738002 -2580.000000
   vertex 1412.783206 2518.341438 -2580.000000
   vertex 1412.783206 2518.341438 -2780.000000
  endloop
 endfacet
 facet normal -0.442289 0.896873 0.000000
  outer loop
   vertex 1407.503960 2515.738002 -2580.000000
   vertex 1412.783206 2518.341438 -2780.000000
   vertex 1407.503960 2515.738002 -2780.000000
  endloop
 endfacet
 facet normal -0.321439 0.946930 0.000000
  outer loop
   vertex 1412.783206 2518.341438 -2580.000000
   vertex 1418.357103 2520.233521 -2580.000000
   vertex 1418.357103 2520.233521 -2780.000000
  endloop
 endfacet
 facet normal -0.321439 0.946930 0.000000
  outer loop
   vertex 1412.783206 2518.341438 -2580.000000
   vertex 1418.357103 2520.233521 -2780.000000
   vertex 1412.783206 2518.341438 -2780.000000
  endloop
 endfacet
 facet normal -0.195090 0.980785 0.000000
  outer loop
   vertex 1418.357103 2520.233521 -2580.000000
   vertex 1424.130281 2521.381878 -2580.000000
   vertex 1424.130281 2521.381878 -2780.000000
  endloop
 endfacet
 facet normal -0.195090 0.980785 0.000000
  outer loop
   vertex 1418.357103 2520.233521 -2580.000000
   vertex 1424.130281 2521.381878 -2780.000000
   vertex 1418.357103 2520.233521 -2780.000000
  endloop
 endfacet
 facet normal -0.065403 0.997859 0.000000
  outer loop
   vertex 1424.130281 2521.381878 -2580.000000
   vertex 1430.003960 2521.766859 -2580.000000
   vertex 1430.003960 2521.766859 -2780.000000
  endloop
 endfacet
 facet normal -0.065403 0.997859 0.000000
  outer loop
   vertex 1424.130281 2521.381878 -2580.000000
   vertex 1430.003960 2521.766859 -2780.000000
   vertex 1424.130281 2521.381878 -2780.000000
  endloop
 endfacet
 facet normal -0.065403 -0.997859 0.000000
  outer loop
   vertex 1434.409219 2510.228123 -2780.000000
   vertex 1434.409219 2510.228123 -2580.000000
   vertex 1430.003960 2510.516859 -2580.000000
  endloop
 endfacet
 facet normal -0.065403 -0.997859 0.000000
  outer loop
   vertex 1430.003960 2510.516859 -2780.000000
   vertex 1434.409219 2510.228123 -2780.000000
   vertex 1430.003960 2510.516859 -2580.000000
  endloop
 endfacet
 facet normal -0.195090 -0.980785 0.000000
  outer loop
   vertex 1438.739103 2509.366856 -2780.000000
   vertex 1438.739103 2509.366856 -2580.000000
   vertex 1434.409219 2510.228123 -2580.000000
  endloop
 endfacet
 facet normal -0.195090 -0.980785 0.000000
  outer loop
   vertex 1434.409219 2510.228123 -2780.000000
   vertex 1438.739103 2509.366856 -2780.000000
   vertex 1434.409219 2510.228123 -2580.000000
  endloop
 endfacet
 facet normal -0.321439 -0.946930 0.000000
  outer loop
   vertex 1442.919526 2507.947793 -2780.000000
   vertex 1442.919526 2507.947793 -2580.000000
   vertex 1438.739103 2509.366856 -2580.000000
  endloop
 endfacet
 facet normal -0.321439 -0.946930 0.000000
  outer loop
   vertex 1438.739103 2509.366856 -2780.000000
   vertex 1442.919526 2507.947793 -2780.000000
   vertex 1438.739103 2509.366856 -2580.000000
  endloop
 endfacet
 facet normal -0.442289 -0.896873 0.000000
  outer loop
   vertex 1446.878960 2505.995216 -2780.000000
   vertex 1446.878960 2505.995216 -2580.000000
   vertex 1442.919526 2507.947793 -2580.000000
  endloop
 endfacet
 facet normal -0.442289 -0.896873 0.000000
  outer loop
   vertex 1442.919526 2507.947793 -2780.000000
   vertex 1446.878960 2505.995216 -2780.000000
   vertex 1442.919526 2507.947793 -2580.000000
  endloop
 endfacet
 facet normal -0.555570 -0.831470 0.000000
  outer loop
   vertex 1450.549658 2503.542534 -2780.000000
   vertex 1450.549658 2503.542534 -2580.000000
   vertex 1446.878960 2505.995216 -2580.000000
  endloop
 endfacet
 facet normal -0.555570 -0.831470 0.000000
  outer loop
   vertex 1446.878960 2505.995216 -2780.000000
   vertex 1450.549658 2503.542534 -2780.000000
   vertex 1446.878960 2505.995216 -2580.000000
  endloop
 endfacet
 facet normal -0.659346 -0.751840 0.000000
  outer loop
   vertex 1453.868814 2500.631713 -2780.000000
   vertex 1453.868814 2500.631713 -2580.000000
   vertex 1450.549658 2503.542534 -2580.000000
  endloop
 endfacet
 facet normal -0.659346 -0.751840 0.000000
  outer loop
   vertex 1450.549658 2503.542534 -2780.000000
   vertex 1453.868814 2500.631713 -2780.000000
   vertex 1450.549658 2503.542534 -2580.000000
  endloop
 endfacet
 facet normal -0.751840 -0.659346 0.000000
  outer loop
   vertex 1456.779635 2497.312557 -2780.000000
   vertex 1456.779635 2497.312557 -2580.000000
   vertex 1453.868814 2500.631713 -2580.000000
  endloop
 endfacet
 facet normal -0.751840 -0.659346 0.000000
  outer loop
   vertex 1453.868814 2500.631713 -2780.000000
   vertex 1456.779635 2497.312557 -2780.000000
   vertex 1453.868814 2500.631713 -2580.000000
  endloop
 endfacet
 facet normal -0.831470 -0.555570 0.000000
  outer loop
   vertex 1459.232318 2493.641859 -2780.000000
   vertex 1459.232318 2493.641859 -2580.000000
   vertex 1456.779635 2497.312557 -2580.000000
  endloop
 endfacet
 facet normal -0.831470 -0.555570 0.000000
  outer loop
   vertex 1456.779635 2497.312557 -2780.000000
   vertex 1459.232318 2493.641859 -2780.000000
   vertex 1456.779635 2497.312557 -2580.000000
  endloop
 endfacet
 facet normal -0.896873 -0.442289 0.000000
  outer loop
   vertex 1461.184894 2489.682425 -2780.000000
   vertex 1461.184894 2489.682425 -2580.000000
   vertex 1459.232318 2493.641859 -2580.000000
  endloop
 endfacet
 facet normal -0.896873 -0.442289 0.000000
  outer loop
   vertex 1459.232318 2493.641859 -2780.000000
   vertex 1461.184894 2489.682425 -2780.000000
   vertex 1459.232318 2493.641859 -2580.000000
  endloop
 endfacet
 facet normal -0.946930 -0.321439 0.000000
  outer loop
   vertex 1462.603957 2485.502002 -2780.000000
   vertex 1462.603957 2485.502002 -2580.000000
   vertex 1461.184894 2489.682425 -2580.000000
  endloop
 endfacet
 facet normal -0.946930 -0.321439 0.000000
  outer loop
   vertex 1461.184894 2489.682425 -2780.000000
   vertex 1462.603957 2485.502002 -2780.000000
   vertex 1461.184894 2489.682425 -2580.000000
  endloop
 endfacet
 facet normal -0.980785 -0.195090 0.000000
  outer loop
   vertex 1463.465224 2481.172118 -2780.000000
   vertex 1463.465224 2481.172118 -2580.000000
   vertex 1462.603957 2485.502002 -2580.000000
  endloop
 endfacet
 facet normal -0.980785 -0.195090 0.000000
  outer loop
   vertex 1462.603957 2485.502002 -2780.000000
   vertex 1463.465224 2481.172118 -2780.000000
   vertex 1462.603957 2485.502002 -2580.000000
  endloop
 endfacet
 facet normal -0.997859 -0.065403 0.000000
  outer loop
   vertex 1463.753960 2476.766859 -2780.000000
   vertex 1463.753960 2476.766859 -2580.000000
   vertex 1463.465224 2481.172118 -2580.000000
  endloop
 endfacet
 facet normal -0.997859 -0.065403 0.000000
  outer loop
   vertex 1463.465224 2481.172118 -2780.000000
   vertex 1463.753960 2476.766859 -2780.000000
   vertex 1463.465224 2481.172118 -2580.000000
  endloop
 endfacet
 facet normal -0.997859 0.065403 0.000000
  outer loop
   vertex 1463.465224 2472.361600 -2780.000000
   vertex 1463.465224 2472.361600 -2580.000000
   vertex 1463.753960 2476.766859 -2580.000000
  endloop
 endfacet
 facet normal -0.997859 0.065403 0.000000
  outer loop
   vertex 1463.753960 2476.766859 -2780.000000
   vertex 1463.465224 2472.361600 -2780.000000
   vertex 1463.753960 2476.766859 -2580.000000
  endloop
 endfacet
 facet normal -0.980785 0.195090 0.000000
  outer loop
   vertex 1462.603957 2468.031716 -2780.000000
   vertex 1462.603957 2468.031716 -2580.000000
   vertex 1463.465224 2472.361600 -2580.000000
  endloop
 endfacet
 facet normal -0.980785 0.195090 0.000000
  outer loop
   vertex 1463.465224 2472.361600 -2780.000000
   vertex 1462.603957 2468.031716 -2780.000000
   vertex 1463.465224 2472.361600 -2580.000000
  endloop
 endfacet
 facet normal -0.946930 0.321439 0.000000
  outer loop
   vertex 1461.184894 2463.851293 -2780.000000
   vertex 1461.184894 2463.851293 -2580.000000
   vertex 1462.603957 2468.031716 -2580.000000
  endloop
 endfacet
 facet normal -0.946930 0.321439 0.000000
  outer loop
   vertex 1462.603957 2468.031716 -2780.000000
   vertex 1461.184894 2463.851293 -2780.000000
   vertex 1462.603957 2468.031716 -2580.000000
  endloop
 endfacet
 facet normal -0.896873 0.442289 0.000000
  outer loop
   vertex 1459.232318 2459.891859 -2780.000000
   vertex 1459.232318 2459.891859 -2580.000000
   vertex 1461.184894 2463.851293 -2580.000000
  endloop
 endfacet
 facet normal -0.896873 0.442289 0.000000
  outer loop
   vertex 1461.184894 2463.851293 -2780.000000
   vertex 1459.232318 2459.891859 -2780.000000
   vertex 1461.184894 2463.851293 -2580.000000
  endloop
 endfacet
 facet normal -0.831470 0.555570 0.000000
  outer loop
   vertex 1456.779635 2456.221161 -2780.000000
   vertex 1456.779635 2456.221161 -2580.000000
   vertex 1459.232318 2459.891859 -2580.000000
  endloop
 endfacet
 facet normal -0.831470 0.555570 0.000000
  outer loop
   vertex 1459.232318 2459.891859 -2780.000000
   vertex 1456.779635 2456.221161 -2780.000000
   vertex 1459.232318 2459.891859 -2580.000000
  endloop
 endfacet
 facet normal -0.751840 0.659346 0.000000
  outer loop
   vertex 1453.868814 2452.902005 -2780.000000
   vertex 1453.868814 2452.902005 -2580.000000
   vertex 1456.779635 2456.221161 -2580.000000
  endloop
 endfacet
 facet normal -0.751840 0.659346 0.000000
  outer loop
   vertex 1456.779635 2456.221161 -2780.000000
   vertex 1453.868814 2452.902005 -2780.000000
   vertex 1456.779635 2456.221161 -2580.000000
  endloop
 endfacet
 facet normal -0.659346 0.751840 0.000000
  outer loop
   vertex 1450.549658 2449.991184 -2780.000000
   vertex 1450.549658 2449.991184 -2580.000000
   vertex 1453.868814 2452.902005 -2580.000000
  endloop
 endfacet
 facet normal -0.659346 0.751840 0.000000
  outer loop
   vertex 1453.868814 2452.902005 -2780.000000
   vertex 1450.549658 2449.991184 -2780.000000
   vertex 1453.868814 2452.902005 -2580.000000
  endloop
 endfacet
 facet normal -0.555570 0.831470 0.000000
  outer loop
   vertex 1446.878960 2447.538502 -2780.000000
   vertex 1446.878960 2447.538502 -2580.000000
   vertex 1450.549658 2449.991184 -2580.000000
  endloop
 endfacet
 facet normal -0.555570 0.831470 0.000000
  outer loop
   vertex 1450.549658 2449.991184 -2780.000000
   vertex 1446.878960 2447.538502 -2780.000000
   vertex 1450.549658 2449.991184 -2580.000000
  endloop
 endfacet
 facet normal -0.442289 0.896873 0.000000
  outer loop
   vertex 1442.919526 2445.585925 -2780.000000
   vertex 1442.919526 2445.585925 -2580.000000
   vertex 1446.878960 2447.538502 -2580.000000
  endloop
 endfacet
 facet normal -0.442289 0.896873 0.000000
  outer loop
   vertex 1446.878960 2447.538502 -2780.000000
   vertex 1442.919526 2445.585925 -2780.000000
   vertex 1446.878960 2447.538502 -2580.000000
  endloop
 endfacet
 facet normal -0.321439 0.946930 0.000000
  outer loop
   vertex 1438.739103 2444.166862 -2780.000000
   vertex 1438.739103 2444.166862 -2580.000000
   vertex 1442.919526 2445.585925 -2580.000000
  endloop
 endfacet
 facet normal -0.321439 0.946930 0.000000
  outer loop
   vertex 1442.919526 2445.585925 -2780.000000
   vertex 1438.739103 2444.166862 -2780.000000
   vertex 1442.919526 2445.585925 -2580.000000
  endloop
 endfacet
 facet normal -0.195090 0.980785 0.000000
  outer loop
   vertex 1434.409219 2443.305595 -2780.000000
   vertex 1434.409219 2443.305595 -2580.000000
   vertex 1438.739103 2444.166862 -2580.000000
  endloop
 endfacet
 facet normal -0.195090 0.980785 0.000000
  outer loop
   vertex 1438.739103 2444.166862 -2780.000000
   vertex 1434.409219 2443.305595 -2780.000000
   vertex 1438.739103 2444.166862 -2580.000000
  endloop
 endfacet
 facet normal -0.065403 0.997859 0.000000
  outer loop
   vertex 1430.003960 2443.016859 -2780.000000
   vertex 1430.003960 2443.016859 -2580.000000
   vertex 1434.409219 2443.305595 -2580.000000
  endloop
 endfacet
 facet normal -0.065403 0.997859 0.000000
  outer loop
   vertex 1434.409219 2443.305595 -2780.000000
   vertex 1430.003960 2443.016859 -2780.000000
   vertex 1434.409219 2443.305595 -2580.000000
  endloop
 endfacet
 facet normal 0.065403 0.997859 -0.000000
  outer loop
   vertex 1425.598701 2443.305595 -2780.000000
   vertex 1425.598701 2443.305595 -2580.000000
   vertex 1430.003960 2443.016859 -2580.000000
  endloop
 endfacet
 facet normal 0.065403 0.997859 -0.000000
  outer loop
   vertex 1430.003960 2443.016859 -2780.000000
   vertex 1425.598701 2443.305595 -2780.000000
   vertex 1430.003960 2443.016859 -2580.000000
  endloop
 endfacet
 facet normal 0.195090 0.980785 -0.000000
  outer loop
   vertex 1421.268817 2444.166862 -2780.000000
   vertex 1421.268817 2444.166862 -2580.000000
   vertex 1425.598701 2443.305595 -2580.000000
  endloop
 endfacet
 facet normal 0.195090 0.980785 -0.000000
  outer loop
   vertex 1425.598701 2443.305595 -2780.000000
   vertex 1421.268817 2444.166862 -2780.000000
   vertex 1425.598701 2443.305595 -2580.000000
  endloop
 endfacet
 facet normal 0.321439 0.946930 -0.000000
  outer loop
   vertex 1417.088394 2445.585925 -2780.000000
   vertex 1417.088394 2445.585925 -2580.000000
   vertex 1421.268817 2444.166862 -2580.000000
  endloop
 endfacet
 facet normal 0.321439 0.946930 -0.000000
  outer loop
   vertex 1421.268817 2444.166862 -2780.000000
   vertex 1417.088394 2445.585925 -2780.000000
   vertex 1421.268817 2444.166862 -2580.000000
  endloop
 endfacet
 facet normal 0.442289 0.896873 -0.000000
  outer loop
   vertex 1413.128960 2447.538502 -2780.000000
   vertex 1413.128960 2447.538502 -2580.000000
   vertex 1417.088394 2445.585925 -2580.000000
  endloop
 endfacet
 facet normal 0.442289 0.896873 -0.000000
  outer loop
   vertex 1417.088394 2445.585925 -2780.000000
   vertex 1413.128960 2447.538502 -2780.000000
   vertex 1417.088394 2445.585925 -2580.000000
  endloop
 endfacet
 facet normal 0.555570 0.831470 -0.000000
  outer loop
   vertex 1409.458262 2449.991184 -2780.000000
   vertex 1409.458262 2449.991184 -2580.000000
   vertex 1413.128960 2447.538502 -2580.000000
  endloop
 endfacet
 facet normal 0.555570 0.831470 -0.000000
  outer loop
   vertex 1413.128960 2447.538502 -2780.000000
   vertex 1409.458262 2449.991184 -2780.000000
   vertex 1413.128960 2447.538502 -2580.000000
  endloop
 endfacet
 facet normal 0.659346 0.751840 -0.000000
  outer loop
   vertex 1406.139106 2452.902005 -2780.000000
   vertex 1406.139106 2452.902005 -2580.000000
   vertex 1409.458262 2449.991184 -2580.000000
  endloop
 endfacet
 facet normal 0.659346 0.751840 -0.000000
  outer loop
   vertex 1409.458262 2449.991184 -2780.000000
   vertex 1406.139106 2452.902005 -2780.000000
   vertex 1409.458262 2449.991184 -2580.000000
  endloop
 endfacet
 facet normal 0.751840 0.659346 -0.000000
  outer loop
   vertex 1403.228285 2456.221161 -2780.000000
   vertex 1403.228285 2456.221161 -2580.000000
   vertex 1406.139106 2452.902005 -2580.000000
  endloop
 endfacet
 facet normal 0.751840 0.659346 -0.000000
  outer loop
   vertex 1406.139106 2452.902005 -2780.000000
   vertex 1403.228285 2456.221161 -2780.000000
   vertex 1406.139106 2452.902005 -2580.000000
  endloop
 endfacet
 facet normal 0.831470 0.555570 -0.000000
  outer loop
   vertex 1400.775603 2459.891859 -2780.000000
   vertex 1400.775603 2459.891859 -2580.000000
   vertex 1403.228285 2456.221161 -2580.000000
  endloop
 endfacet
 facet normal 0.831470 0.555570 -0.000000
  outer loop
   vertex 1403.228285 2456.221161 -2780.000000
   vertex 1400.775603 2459.891859 -2780.000000
   vertex 1403.228285 2456.221161 -2580.000000
  endloop
 endfacet
 facet normal 0.896873 0.442289 -0.000000
  outer loop
   vertex 1398.823026 2463.851293 -2780.000000
   vertex 1398.823026 2463.851293 -2580.000000
   vertex 1400.775603 2459.891859 -2580.000000
  endloop
 endfacet
 facet normal 0.896873 0.442289 -0.000000
  outer loop
   vertex 1400.775603 2459.891859 -2780.000000
   vertex 1398.823026 2463.851293 -2780.000000
   vertex 1400.775603 2459.891859 -2580.000000
  endloop
 endfacet
 facet normal 0.946930 0.321439 -0.000000
  outer loop
   vertex 1397.403963 2468.031716 -2780.000000
   vertex 1397.403963 2468.031716 -2580.000000
   vertex 1398.823026 2463.851293 -2580.000000
  endloop
 endfacet
 facet normal 0.946930 0.321439 -0.000000
  outer loop
   vertex 1398.823026 2463.851293 -2780.000000
   vertex 1397.403963 2468.031716 -2780.000000
   vertex 1398.823026 2463.851293 -2580.000000
  endloop
 endfacet
 facet normal 0.980785 0.195090 -0.000000
  outer loop
   vertex 1396.542696 2472.361600 -2780.000000
   vertex 1396.542696 2472.361600 -2580.000000
   vertex 1397.403963 2468.031716 -2580.000000
  endloop
 endfacet
 facet normal 0.980785 0.195090 -0.000000
  outer loop
   vertex 1397.403963 2468.031716 -2780.000000
   vertex 1396.542696 2472.361600 -2780.000000
   vertex 1397.403963 2468.031716 -2580.000000
  endloop
 endfacet
 facet normal 0.997859 0.065403 -0.000000
  outer loop
   vertex 1396.253960 2476.766859 -2780.000000
   vertex 1396.253960 2476.766859 -2580.000000
   vertex 1396.542696 2472.361600 -2580.000000
  endloop
 endfacet
 facet normal 0.997859 0.065403 -0.000000
  outer loop
   vertex 1396.542696 2472.361600 -2780.000000
   vertex 1396.253960 2476.766859 -2780.000000
   vertex 1396.542696 2472.361600 -2580.000000
  endloop
 endfacet
 facet normal 0.997859 -0.065403 0.000000
  outer loop
   vertex 1396.542696 2481.172118 -2780.000000
   vertex 1396.542696 2481.172118 -2580.000000
   vertex 1396.253960 2476.766859 -2580.000000
  endloop
 endfacet
 facet normal 0.997859 -0.065403 0.000000
  outer loop
   vertex 1396.253960 2476.766859 -2780.000000
   vertex 1396.542696 2481.172118 -2780.000000
   vertex 1396.253960 2476.766859 -2580.000000
  endloop
 endfacet
 facet normal 0.980785 -0.195090 0.000000
  outer loop
   vertex 1397.403963 2485.502002 -2780.000000
   vertex 1397.403963 2485.502002 -2580.000000
   vertex 1396.542696 2481.172118 -2580.000000
  endloop
 endfacet
 facet normal 0.980785 -0.195090 0.000000
  outer loop
   vertex 1396.542696 2481.172118 -2780.000000
   vertex 1397.403963 2485.502002 -2780.000000
   vertex 1396.542696 2481.172118 -2580.000000
  endloop
 endfacet
 facet normal 0.946930 -0.321439 0.000000
  outer loop
   vertex 1398.823026 2489.682425 -2780.000000
   vertex 1398.823026 2489.682425 -2580.000000
   vertex 1397.403963 2485.502002 -2580.000000
  endloop
 endfacet
 facet normal 0.946930 -0.321439 0.000000
  outer loop
   vertex 1397.403963 2485.502002 -2780.000000
   vertex 1398.823026 2489.682425 -2780.000000
   vertex 1397.403963 2485.502002 -2580.000000
  endloop
 endfacet
 facet normal 0.896873 -0.442289 0.000000
  outer loop
   vertex 1400.775603 2493.641859 -2780.000000
   vertex 1400.775603 2493.641859 -2580.000000
   vertex 1398.823026 2489.682425 -2580.000000
  endloop
 endfacet
 facet normal 0.896873 -0.442289 0.000000
  outer loop
   vertex 1398.823026 2489.682425 -2780.000000
   vertex 1400.775603 2493.641859 -2780.000000
   vertex 1398.823026 2489.682425 -2580.000000
  endloop
 endfacet
 facet normal 0.831470 -0.555570 0.000000
  outer loop
   vertex 1403.228285 2497.312557 -2780.000000
   vertex 1403.228285 2497.312557 -2580.000000
   vertex 1400.775603 2493.641859 -2580.000000
  endloop
 endfacet
 facet normal 0.831470 -0.555570 0.000000
  outer loop
   vertex 1400.775603 2493.641859 -2780.000000
   vertex 1403.228285 2497.312557 -2780.000000
   vertex 1400.775603 2493.641859 -2580.000000
  endloop
 endfacet
 facet normal 0.751840 -0.659346 0.000000
  outer loop
   vertex 1406.139106 2500.631713 -2780.000000
   vertex 1406.139106 2500.631713 -2580.000000
   vertex 1403.228285 2497.312557 -2580.000000
  endloop
 endfacet
 facet normal 0.751840 -0.659346 0.000000
  outer loop
   vertex 1403.228285 2497.312557 -2780.000000
   vertex 1406.139106 2500.631713 -2780.000000
   vertex 1403.228285 2497.312557 -2580.000000
  endloop
 endfacet
 facet normal 0.659346 -0.751840 0.000000
  outer loop
   vertex 1409.458262 2503.542534 -2780.000000
   vertex 1409.458262 2503.542534 -2580.000000
   vertex 1406.139106 2500.631713 -2580.000000
  endloop
 endfacet
 facet normal 0.659346 -0.751840 0.000000
  outer loop
   vertex 1406.139106 2500.631713 -2780.000000
   vertex 1409.458262 2503.542534 -2780.000000
   vertex 1406.139106 2500.631713 -2580.000000
  endloop
 endfacet
 facet normal 0.555570 -0.831470 0.000000
  outer loop
   vertex 1413.128960 2505.995216 -2780.000000
   vertex 1413.128960 2505.995216 -2580.000000
   vertex 1409.458262 2503.542534 -2580.000000
  endloop
 endfacet
 facet normal 0.555570 -0.831470 0.000000
  outer loop
   vertex 1409.458262 2503.542534 -2780.000000
   vertex 1413.128960 2505.995216 -2780.000000
   vertex 1409.458262 2503.542534 -2580.000000
  endloop
 endfacet
 facet normal 0.442289 -0.896873 0.000000
  outer loop
   vertex 1417.088394 2507.947793 -2780.000000
   vertex 1417.088394 2507.947793 -2580.000000
   vertex 1413.128960 2505.995216 -2580.000000
  endloop
 endfacet
 facet normal 0.442289 -0.896873 0.000000
  outer loop
   vertex 1413.128960 2505.995216 -2780.000000
   vertex 1417.088394 2507.947793 -2780.000000
   vertex 1413.128960 2505.995216 -2580.000000
  endloop
 endfacet
 facet normal 0.321439 -0.946930 0.000000
  outer loop
   vertex 1421.268817 2509.366856 -2780.000000
   vertex 1421.268817 2509.366856 -2580.000000
   vertex 1417.088394 2507.947793 -2580.000000
  endloop
 endfacet
 facet normal 0.321439 -0.946930 0.000000
  outer loop
   vertex 1417.088394 2507.947793 -2780.000000
   vertex 1421.268817 2509.366856 -2780.000000
   vertex 1417.088394 2507.947793 -2580.000000
  endloop
 endfacet
 facet normal 0.195090 -0.980785 0.000000
  outer loop
   vertex 1425.598701 2510.228123 -2780.000000
   vertex 1425.598701 2510.228123 -2580.000000
   vertex 1421.268817 2509.366856 -2580.000000
  endloop
 endfacet
 facet normal 0.195090 -0.980785 0.000000
  outer loop
   vertex 1421.268817 2509.366856 -2780.000000
   vertex 1425.598701 2510.228123 -2780.000000
   vertex 1421.268817 2509.366856 -2580.000000
  endloop
 endfacet
 facet normal 0.065403 -0.997859 0.000000
  outer loop
   vertex 1430.003960 2510.516859 -2780.000000
   vertex 1430.003960 2510.516859 -2580.000000
   vertex 1425.598701 2510.228123 -2580.000000
  endloop
 endfacet
 facet normal 0.065403 -0.997859 0.000000
  outer loop
   vertex 1425.598701 2510.228123 -2780.000000
   vertex 1430.003960 2510.516859 -2780.000000
   vertex 1425.598701 2510.228123 -2580.000000
  endloop
 endfacet
endsolid F1_inlet_stub_4
