solid SIC_LOX_feed_1_Hrun
 facet normal 0.000000 -0.997859 0.065403
  outer loop
   vertex 3170.000000 -100.000000 -450.000000
   vertex 3170.000000 -99.144486 -436.947381
   vertex 2631.200000 -99.144486 -436.947381
  endloop
 endfacet
 facet normal 0.000000 -0.997859 0.065403
  outer loop
   vertex 3170.000000 -100.000000 -450.000000
   vertex 2631.200000 -99.144486 -436.947381
   vertex 2631.200000 -100.000000 -450.000000
  endloop
 endfacet
 facet normal 0.000000 -0.980785 0.195090
  outer loop
   vertex 3170.000000 -99.144486 -436.947381
   vertex 3170.000000 -96.592583 -424.118095
   vertex 2631.200000 -96.592583 -424.118095
  endloop
 endfacet
 facet normal 0.000000 -0.980785 0.195090
  outer loop
   vertex 3170.000000 -99.144486 -436.947381
   vertex 2631.200000 -96.592583 -424.118095
   vertex 2631.200000 -99.144486 -436.947381
  endloop
 endfacet
 facet normal 0.000000 -0.946930 0.321439
  outer loop
   vertex 3170.000000 -96.592583 -424.118095
   vertex 3170.000000 -92.387953 -411.731657
   vertex 2631.200000 -92.387953 -411.731657
  endloop
 endfacet
 facet normal 0.000000 -0.946930 0.321439
  outer loop
   vertex 3170.000000 -96.592583 -424.118095
   vertex 2631.200000 -92.387953 -411.731657
   vertex 2631.200000 -96.592583 -424.118095
  endloop
 endfacet
 facet normal 0.000000 -0.896873 0.442289
  outer loop
   vertex 3170.000000 -92.387953 -411.731657
   vertex 3170.000000 -86.602540 -400.000000
   vertex 2631.200000 -86.602540 -400.000000
  endloop
 endfacet
 facet normal 0.000000 -0.896873 0.442289
  outer loop
   vertex 3170.000000 -92.387953 -411.731657
   vertex 2631.200000 -86.602540 -400.000000
   vertex 2631.200000 -92.387953 -411.731657
  endloop
 endfacet
 facet normal 0.000000 -0.831470 0.555570
  outer loop
   vertex 3170.000000 -86.602540 -400.000000
   vertex 3170.000000 -79.335334 -389.123857
   vertex 2631.200000 -79.335334 -389.123857
  endloop
 endfacet
 facet normal 0.000000 -0.831470 0.555570
  outer loop
   vertex 3170.000000 -86.602540 -400.000000
   vertex 2631.200000 -79.335334 -389.123857
   vertex 2631.200000 -86.602540 -400.000000
  endloop
 endfacet
 facet normal 0.000000 -0.751840 0.659346
  outer loop
   vertex 3170.000000 -79.335334 -389.123857
   vertex 3170.000000 -70.710678 -379.289322
   vertex 2631.200000 -70.710678 -379.289322
  endloop
 endfacet
 facet normal 0.000000 -0.751840 0.659346
  outer loop
   vertex 3170.000000 -79.335334 -389.123857
   vertex 2631.200000 -70.710678 -379.289322
   vertex 2631.200000 -79.335334 -389.123857
  endloop
 endfacet
 facet normal 0.000000 -0.659346 0.751840
  outer loop
   vertex 3170.000000 -70.710678 -379.289322
   vertex 3170.000000 -60.876143 -370.664666
   vertex 2631.200000 -60.876143 -370.664666
  endloop
 endfacet
 facet normal 0.000000 -0.659346 0.751840
  outer loop
   vertex 3170.000000 -70.710678 -379.289322
   vertex 2631.200000 -60.876143 -370.664666
   vertex 2631.200000 -70.710678 -379.289322
  endloop
 endfacet
 facet normal 0.000000 -0.555570 0.831470
  outer loop
   vertex 3170.000000 -60.876143 -370.664666
   vertex 3170.000000 -50.000000 -363.397460
   vertex 2631.200000 -50.000000 -363.397460
  endloop
 endfacet
 facet normal 0.000000 -0.555570 0.831470
  outer loop
   vertex 3170.000000 -60.876143 -370.664666
   vertex 2631.200000 -50.000000 -363.397460
   vertex 2631.200000 -60.876143 -370.664666
  endloop
 endfacet
 facet normal 0.000000 -0.442289 0.896873
  outer loop
   vertex 3170.000000 -50.000000 -363.397460
   vertex 3170.000000 -38.268343 -357.612047
   vertex 2631.200000 -38.268343 -357.612047
  endloop
 endfacet
 facet normal 0.000000 -0.442289 0.896873
  outer loop
   vertex 3170.000000 -50.000000 -363.397460
   vertex 2631.200000 -38.268343 -357.612047
   vertex 2631.200000 -50.000000 -363.397460
  endloop
 endfacet
 facet normal 0.000000 -0.321439 0.946930
  outer loop
   vertex 3170.000000 -38.268343 -357.612047
   vertex 3170.000000 -25.881905 -353.407417
   vertex 2631.200000 -25.881905 -353.407417
  endloop
 endfacet
 facet normal 0.000000 -0.321439 0.946930
  outer loop
   vertex 3170.000000 -38.268343 -357.612047
   vertex 2631.200000 -25.881905 -353.407417
   vertex 2631.200000 -38.268343 -357.612047
  endloop
 endfacet
 facet normal 0.000000 -0.195090 0.980785
  outer loop
   vertex 3170.000000 -25.881905 -353.407417
   vertex 3170.000000 -13.052619 -350.855514
   vertex 2631.200000 -13.052619 -350.855514
  endloop
 endfacet
 facet normal 0.000000 -0.195090 0.980785
  outer loop
   vertex 3170.000000 -25.881905 -353.407417
   vertex 2631.200000 -13.052619 -350.855514
   vertex 2631.200000 -25.881905 -353.407417
  endloop
 endfacet
 facet normal 0.000000 -0.065403 0.997859
  outer loop
   vertex 3170.000000 -13.052619 -350.855514
   vertex 3170.000000 -0.000000 -350.000000
   vertex 2631.200000 -0.000000 -350.000000
  endloop
 endfacet
 facet normal 0.000000 -0.065403 0.997859
  outer loop
   vertex 3170.000000 -13.052619 -350.855514
   vertex 2631.200000 -0.000000 -350.000000
   vertex 2631.200000 -13.052619 -350.855514
  endloop
 endfacet
 facet normal 0.000000 0.065403 0.997859
  outer loop
   vertex 3170.000000 -0.000000 -350.000000
   vertex 3170.000000 13.052619 -350.855514
   vertex 2631.200000 13.052619 -350.855514
  endloop
 endfacet
 facet normal 0.000000 0.065403 0.997859
  outer loop
   vertex 3170.000000 -0.000000 -350.000000
   vertex 2631.200000 13.052619 -350.855514
   vertex 2631.200000 -0.000000 -350.000000
  endloop
 endfacet
 facet normal 0.000000 0.195090 0.980785
  outer loop
   vertex 3170.000000 13.052619 -350.855514
   vertex 3170.000000 25.881905 -353.407417
   vertex 2631.200000 25.881905 -353.407417
  endloop
 endfacet
 facet normal 0.000000 0.195090 0.980785
  outer loop
   vertex 3170.000000 13.052619 -350.855514
   vertex 2631.200000 25.881905 -353.407417
   vertex 2631.200000 13.052619 -350.855514
  endloop
 endfacet
 facet normal 0.000000 0.321439 0.946930
  outer loop
   vertex 3170.000000 25.881905 -353.407417
   vertex 3170.000000 38.268343 -357.612047
   vertex 2631.200000 38.268343 -357.612047
  endloop
 endfacet
 facet normal 0.000000 0.321439 0.946930
  outer loop
   vertex 3170.000000 25.881905 -353.407417
   vertex 2631.200000 38.268343 -357.612047
   vertex 2631.200000 25.881905 -353.407417
  endloop
 endfacet
 facet normal 0.000000 0.442289 0.896873
  outer loop
   vertex 3170.000000 38.268343 -357.612047
   vertex 3170.000000 50.000000 -363.397460
   vertex 2631.200000 50.000000 -363.397460
  endloop
 endfacet
 facet normal 0.000000 0.442289 0.896873
  outer loop
   vertex 3170.000000 38.268343 -357.612047
   vertex 2631.200000 50.000000 -363.397460
   vertex 2631.200000 38.268343 -357.612047
  endloop
 endfacet
 facet normal 0.000000 0.555570 0.831470
  outer loop
   vertex 3170.000000 50.000000 -363.397460
   vertex 3170.000000 60.876143 -370.664666
   vertex 2631.200000 60.876143 -370.664666
  endloop
 endfacet
 facet normal 0.000000 0.555570 0.831470
  outer loop
   vertex 3170.000000 50.000000 -363.397460
   vertex 2631.200000 60.876143 -370.664666
   vertex 2631.200000 50.000000 -363.397460
  endloop
 endfacet
 facet normal 0.000000 0.659346 0.751840
  outer loop
   vertex 3170.000000 60.876143 -370.664666
   vertex 3170.000000 70.710678 -379.289322
   vertex 2631.200000 70.710678 -379.289322
  endloop
 endfacet
 facet normal 0.000000 0.659346 0.751840
  outer loop
   vertex 3170.000000 60.876143 -370.664666
   vertex 2631.200000 70.710678 -379.289322
   vertex 2631.200000 60.876143 -370.664666
  endloop
 endfacet
 facet normal 0.000000 0.751840 0.659346
  outer loop
   vertex 3170.000000 70.710678 -379.289322
   vertex 3170.000000 79.335334 -389.123857
   vertex 2631.200000 79.335334 -389.123857
  endloop
 endfacet
 facet normal 0.000000 0.751840 0.659346
  outer loop
   vertex 3170.000000 70.710678 -379.289322
   vertex 2631.200000 79.335334 -389.123857
   vertex 2631.200000 70.710678 -379.289322
  endloop
 endfacet
 facet normal 0.000000 0.831470 0.555570
  outer loop
   vertex 3170.000000 79.335334 -389.123857
   vertex 3170.000000 86.602540 -400.000000
   vertex 2631.200000 86.602540 -400.000000
  endloop
 endfacet
 facet normal 0.000000 0.831470 0.555570
  outer loop
   vertex 3170.000000 79.335334 -389.123857
   vertex 2631.200000 86.602540 -400.000000
   vertex 2631.200000 79.335334 -389.123857
  endloop
 endfacet
 facet normal 0.000000 0.896873 0.442289
  outer loop
   vertex 3170.000000 86.602540 -400.000000
   vertex 3170.000000 92.387953 -411.731657
   vertex 2631.200000 92.387953 -411.731657
  endloop
 endfacet
 facet normal 0.000000 0.896873 0.442289
  outer loop
   vertex 3170.000000 86.602540 -400.000000
   vertex 2631.200000 92.387953 -411.731657
   vertex 2631.200000 86.602540 -400.000000
  endloop
 endfacet
 facet normal 0.000000 0.946930 0.321439
  outer loop
   vertex 3170.000000 92.387953 -411.731657
   vertex 3170.000000 96.592583 -424.118095
   vertex 2631.200000 96.592583 -424.118095
  endloop
 endfacet
 facet normal 0.000000 0.946930 0.321439
  outer loop
   vertex 3170.000000 92.387953 -411.731657
   vertex 2631.200000 96.592583 -424.118095
   vertex 2631.200000 92.387953 -411.731657
  endloop
 endfacet
 facet normal 0.000000 0.980785 0.195090
  outer loop
   vertex 3170.000000 96.592583 -424.118095
   vertex 3170.000000 99.144486 -436.947381
   vertex 2631.200000 99.144486 -436.947381
  endloop
 endfacet
 facet normal 0.000000 0.980785 0.195090
  outer loop
   vertex 3170.000000 96.592583 -424.118095
   vertex 2631.200000 99.144486 -436.947381
   vertex 2631.200000 96.592583 -424.118095
  endloop
 endfacet
 facet normal 0.000000 0.997859 0.065403
  outer loop
   vertex 3170.000000 99.144486 -436.947381
   vertex 3170.000000 100.000000 -450.000000
   vertex 2631.200000 100.000000 -450.000000
  endloop
 endfacet
 facet normal 0.000000 0.997859 0.065403
  outer loop
   vertex 3170.000000 99.144486 -436.947381
   vertex 2631.200000 100.000000 -450.000000
   vertex 2631.200000 99.144486 -436.947381
  endloop
 endfacet
 facet normal 0.000000 0.997859 -0.065403
  outer loop
   vertex 3170.000000 100.000000 -450.000000
   vertex 3170.000000 99.144486 -463.052619
   vertex 2631.200000 99.144486 -463.052619
  endloop
 endfacet
 facet normal 0.000000 0.997859 -0.065403
  outer loop
   vertex 3170.000000 100.000000 -450.000000
   vertex 2631.200000 99.144486 -463.052619
   vertex 2631.200000 100.000000 -450.000000
  endloop
 endfacet
 facet normal 0.000000 0.980785 -0.195090
  outer loop
   vertex 3170.000000 99.144486 -463.052619
   vertex 3170.000000 96.592583 -475.881905
   vertex 2631.200000 96.592583 -475.881905
  endloop
 endfacet
 facet normal 0.000000 0.980785 -0.195090
  outer loop
   vertex 3170.000000 99.144486 -463.052619
   vertex 2631.200000 96.592583 -475.881905
   vertex 2631.200000 99.144486 -463.052619
  endloop
 endfacet
 facet normal 0.000000 0.946930 -0.321439
  outer loop
   vertex 3170.000000 96.592583 -475.881905
   vertex 3170.000000 92.387953 -488.268343
   vertex 2631.200000 92.387953 -488.268343
  endloop
 endfacet
 facet normal 0.000000 0.946930 -0.321439
  outer loop
   vertex 3170.000000 96.592583 -475.881905
   vertex 2631.200000 92.387953 -488.268343
   vertex 2631.200000 96.592583 -475.881905
  endloop
 endfacet
 facet normal 0.000000 0.896873 -0.442289
  outer loop
   vertex 3170.000000 92.387953 -488.268343
   vertex 3170.000000 86.602540 -500.000000
   vertex 2631.200000 86.602540 -500.000000
  endloop
 endfacet
 facet normal 0.000000 0.896873 -0.442289
  outer loop
   vertex 3170.000000 92.387953 -488.268343
   vertex 2631.200000 86.602540 -500.000000
   vertex 2631.200000 92.387953 -488.268343
  endloop
 endfacet
 facet normal 0.000000 0.831470 -0.555570
  outer loop
   vertex 3170.000000 86.602540 -500.000000
   vertex 3170.000000 79.335334 -510.876143
   vertex 2631.200000 79.335334 -510.876143
  endloop
 endfacet
 facet normal 0.000000 0.831470 -0.555570
  outer loop
   vertex 3170.000000 86.602540 -500.000000
   vertex 2631.200000 79.335334 -510.876143
   vertex 2631.200000 86.602540 -500.000000
  endloop
 endfacet
 facet normal 0.000000 0.751840 -0.659346
  outer loop
   vertex 3170.000000 79.335334 -510.876143
   vertex 3170.000000 70.710678 -520.710678
   vertex 2631.200000 70.710678 -520.710678
  endloop
 endfacet
 facet normal 0.000000 0.751840 -0.659346
  outer loop
   vertex 3170.000000 79.335334 -510.876143
   vertex 2631.200000 70.710678 -520.710678
   vertex 2631.200000 79.335334 -510.876143
  endloop
 endfacet
 facet normal 0.000000 0.659346 -0.751840
  outer loop
   vertex 3170.000000 70.710678 -520.710678
   vertex 3170.000000 60.876143 -529.335334
   vertex 2631.200000 60.876143 -529.335334
  endloop
 endfacet
 facet normal 0.000000 0.659346 -0.751840
  outer loop
   vertex 3170.000000 70.710678 -520.710678
   vertex 2631.200000 60.876143 -529.335334
   vertex 2631.200000 70.710678 -520.710678
  endloop
 endfacet
 facet normal 0.000000 0.555570 -0.831470
  outer loop
   vertex 3170.000000 60.876143 -529.335334
   vertex 3170.000000 50.000000 -536.602540
   vertex 2631.200000 50.000000 -536.602540
  endloop
 endfacet
 facet normal 0.000000 0.555570 -0.831470
  outer loop
   vertex 3170.000000 60.876143 -529.335334
   vertex 2631.200000 50.000000 -536.602540
   vertex 2631.200000 60.876143 -529.335334
  endloop
 endfacet
 facet normal 0.000000 0.442289 -0.896873
  outer loop
   vertex 3170.000000 50.000000 -536.602540
   vertex 3170.000000 38.268343 -542.387953
   vertex 2631.200000 38.268343 -542.387953
  endloop
 endfacet
 facet normal 0.000000 0.442289 -0.896873
  outer loop
   vertex 3170.000000 50.000000 -536.602540
   vertex 2631.200000 38.268343 -542.387953
   vertex 2631.200000 50.000000 -536.602540
  endloop
 endfacet
 facet normal 0.000000 0.321439 -0.946930
  outer loop
   vertex 3170.000000 38.268343 -542.387953
   vertex 3170.000000 25.881905 -546.592583
   vertex 2631.200000 25.881905 -546.592583
  endloop
 endfacet
 facet normal 0.000000 0.321439 -0.946930
  outer loop
   vertex 3170.000000 38.268343 -542.387953
   vertex 2631.200000 25.881905 -546.592583
   vertex 2631.200000 38.268343 -542.387953
  endloop
 endfacet
 facet normal 0.000000 0.195090 -0.980785
  outer loop
   vertex 3170.000000 25.881905 -546.592583
   vertex 3170.000000 13.052619 -549.144486
   vertex 2631.200000 13.052619 -549.144486
  endloop
 endfacet
 facet normal 0.000000 0.195090 -0.980785
  outer loop
   vertex 3170.000000 25.881905 -546.592583
   vertex 2631.200000 13.052619 -549.144486
   vertex 2631.200000 25.881905 -546.592583
  endloop
 endfacet
 facet normal 0.000000 0.065403 -0.997859
  outer loop
   vertex 3170.000000 13.052619 -549.144486
   vertex 3170.000000 0.000000 -550.000000
   vertex 2631.200000 0.000000 -550.000000
  endloop
 endfacet
 facet normal 0.000000 0.065403 -0.997859
  outer loop
   vertex 3170.000000 13.052619 -549.144486
   vertex 2631.200000 0.000000 -550.000000
   vertex 2631.200000 13.052619 -549.144486
  endloop
 endfacet
 facet normal 0.000000 -0.065403 -0.997859
  outer loop
   vertex 3170.000000 0.000000 -550.000000
   vertex 3170.000000 -13.052619 -549.144486
   vertex 2631.200000 -13.052619 -549.144486
  endloop
 endfacet
 facet normal -0.000000 -0.065403 -0.997859
  outer loop
   vertex 3170.000000 0.000000 -550.000000
   vertex 2631.200000 -13.052619 -549.144486
   vertex 2631.200000 0.000000 -550.000000
  endloop
 endfacet
 facet normal 0.000000 -0.195090 -0.980785
  outer loop
   vertex 3170.000000 -13.052619 -549.144486
   vertex 3170.000000 -25.881905 -546.592583
   vertex 2631.200000 -25.881905 -546.592583
  endloop
 endfacet
 facet normal -0.000000 -0.195090 -0.980785
  outer loop
   vertex 3170.000000 -13.052619 -549.144486
   vertex 2631.200000 -25.881905 -546.592583
   vertex 2631.200000 -13.052619 -549.144486
  endloop
 endfacet
 facet normal 0.000000 -0.321439 -0.946930
  outer loop
   vertex 3170.000000 -25.881905 -546.592583
   vertex 3170.000000 -38.268343 -542.387953
   vertex 2631.200000 -38.268343 -542.387953
  endloop
 endfacet
 facet normal -0.000000 -0.321439 -0.946930
  outer loop
   vertex 3170.000000 -25.881905 -546.592583
   vertex 2631.200000 -38.268343 -542.387953
   vertex 2631.200000 -25.881905 -546.592583
  endloop
 endfacet
 facet normal 0.000000 -0.442289 -0.896873
  outer loop
   vertex 3170.000000 -38.268343 -542.387953
   vertex 3170.000000 -50.000000 -536.602540
   vertex 2631.200000 -50.000000 -536.602540
  endloop
 endfacet
 facet normal -0.000000 -0.442289 -0.896873
  outer loop
   vertex 3170.000000 -38.268343 -542.387953
   vertex 2631.200000 -50.000000 -536.602540
   vertex 2631.200000 -38.268343 -542.387953
  endloop
 endfacet
 facet normal 0.000000 -0.555570 -0.831470
  outer loop
   vertex 3170.000000 -50.000000 -536.602540
   vertex 3170.000000 -60.876143 -529.335334
   vertex 2631.200000 -60.876143 -529.335334
  endloop
 endfacet
 facet normal -0.000000 -0.555570 -0.831470
  outer loop
   vertex 3170.000000 -50.000000 -536.602540
   vertex 2631.200000 -60.876143 -529.335334
   vertex 2631.200000 -50.000000 -536.602540
  endloop
 endfacet
 facet normal 0.000000 -0.659346 -0.751840
  outer loop
   vertex 3170.000000 -60.876143 -529.335334
   vertex 3170.000000 -70.710678 -520.710678
   vertex 2631.200000 -70.710678 -520.710678
  endloop
 endfacet
 facet normal -0.000000 -0.659346 -0.751840
  outer loop
   vertex 3170.000000 -60.876143 -529.335334
   vertex 2631.200000 -70.710678 -520.710678
   vertex 2631.200000 -60.876143 -529.335334
  endloop
 endfacet
 facet normal 0.000000 -0.751840 -0.659346
  outer loop
   vertex 3170.000000 -70.710678 -520.710678
   vertex 3170.000000 -79.335334 -510.876143
   vertex 2631.200000 -79.335334 -510.876143
  endloop
 endfacet
 facet normal -0.000000 -0.751840 -0.659346
  outer loop
   vertex 3170.000000 -70.710678 -520.710678
   vertex 2631.200000 -79.335334 -510.876143
   vertex 2631.200000 -70.710678 -520.710678
  endloop
 endfacet
 facet normal 0.000000 -0.831470 -0.555570
  outer loop
   vertex 3170.000000 -79.335334 -510.876143
   vertex 3170.000000 -86.602540 -500.000000
   vertex 2631.200000 -86.602540 -500.000000
  endloop
 endfacet
 facet normal -0.000000 -0.831470 -0.555570
  outer loop
   vertex 3170.000000 -79.335334 -510.876143
   vertex 2631.200000 -86.602540 -500.000000
   vertex 2631.200000 -79.335334 -510.876143
  endloop
 endfacet
 facet normal 0.000000 -0.896873 -0.442289
  outer loop
   vertex 3170.000000 -86.602540 -500.000000
   vertex 3170.000000 -92.387953 -488.268343
   vertex 2631.200000 -92.387953 -488.268343
  endloop
 endfacet
 facet normal -0.000000 -0.896873 -0.442289
  outer loop
   vertex 3170.000000 -86.602540 -500.000000
   vertex 2631.200000 -92.387953 -488.268343
   vertex 2631.200000 -86.602540 -500.000000
  endloop
 endfacet
 facet normal 0.000000 -0.946930 -0.321439
  outer loop
   vertex 3170.000000 -92.387953 -488.268343
   vertex 3170.000000 -96.592583 -475.881905
   vertex 2631.200000 -96.592583 -475.881905
  endloop
 endfacet
 facet normal -0.000000 -0.946930 -0.321439
  outer loop
   vertex 3170.000000 -92.387953 -488.268343
   vertex 2631.200000 -96.592583 -475.881905
   vertex 2631.200000 -92.387953 -488.268343
  endloop
 endfacet
 facet normal 0.000000 -0.980785 -0.195090
  outer loop
   vertex 3170.000000 -96.592583 -475.881905
   vertex 3170.000000 -99.144486 -463.052619
   vertex 2631.200000 -99.144486 -463.052619
  endloop
 endfacet
 facet normal -0.000000 -0.980785 -0.195090
  outer loop
   vertex 3170.000000 -96.592583 -475.881905
   vertex 2631.200000 -99.144486 -463.052619
   vertex 2631.200000 -96.592583 -475.881905
  endloop
 endfacet
 facet normal 0.000000 -0.997859 -0.065403
  outer loop
   vertex 3170.000000 -99.144486 -463.052619
   vertex 3170.000000 -100.000000 -450.000000
   vertex 2631.200000 -100.000000 -450.000000
  endloop
 endfacet
 facet normal -0.000000 -0.997859 -0.065403
  outer loop
   vertex 3170.000000 -99.144486 -463.052619
   vertex 2631.200000 -100.000000 -450.000000
   vertex 2631.200000 -99.144486 -463.052619
  endloop
 endfacet
 facet normal 0.000000 0.997859 -0.065403
  outer loop
   vertex 2631.200000 -87.247148 -438.513695
   vertex 3170.000000 -87.247148 -438.513695
   vertex 3170.000000 -88.000000 -450.000000
  endloop
 endfacet
 facet normal 0.000000 0.997859 -0.065403
  outer loop
   vertex 2631.200000 -88.000000 -450.000000
   vertex 2631.200000 -87.247148 -438.513695
   vertex 3170.000000 -88.000000 -450.000000
  endloop
 endfacet
 facet normal 0.000000 0.980785 -0.195090
  outer loop
   vertex 2631.200000 -85.001473 -427.223924
   vertex 3170.000000 -85.001473 -427.223924
   vertex 3170.000000 -87.247148 -438.513695
  endloop
 endfacet
 facet normal 0.000000 0.980785 -0.195090
  outer loop
   vertex 2631.200000 -87.247148 -438.513695
   vertex 2631.200000 -85.001473 -427.223924
   vertex 3170.000000 -87.247148 -438.513695
  endloop
 endfacet
 facet normal 0.000000 0.946930 -0.321439
  outer loop
   vertex 2631.200000 -81.301399 -416.323858
   vertex 3170.000000 -81.301399 -416.323858
   vertex 3170.000000 -85.001473 -427.223924
  endloop
 endfacet
 facet normal 0.000000 0.946930 -0.321439
  outer loop
   vertex 2631.200000 -85.001473 -427.223924
   vertex 2631.200000 -81.301399 -416.323858
   vertex 3170.000000 -85.001473 -427.223924
  endloop
 endfacet
 facet normal 0.000000 0.896873 -0.442289
  outer loop
   vertex 2631.200000 -76.210236 -406.000000
   vertex 3170.000000 -76.210236 -406.000000
   vertex 3170.000000 -81.301399 -416.323858
  endloop
 endfacet
 facet normal 0.000000 0.896873 -0.442289
  outer loop
   vertex 2631.200000 -81.301399 -416.323858
   vertex 2631.200000 -76.210236 -406.000000
   vertex 3170.000000 -81.301399 -416.323858
  endloop
 endfacet
 facet normal 0.000000 0.831470 -0.555570
  outer loop
   vertex 2631.200000 -69.815094 -396.428994
   vertex 3170.000000 -69.815094 -396.428994
   vertex 3170.000000 -76.210236 -406.000000
  endloop
 endfacet
 facet normal 0.000000 0.831470 -0.555570
  outer loop
   vertex 2631.200000 -76.210236 -406.000000
   vertex 2631.200000 -69.815094 -396.428994
   vertex 3170.000000 -76.210236 -406.000000
  endloop
 endfacet
 facet normal 0.000000 0.751840 -0.659346
  outer loop
   vertex 2631.200000 -62.225397 -387.774603
   vertex 3170.000000 -62.225397 -387.774603
   vertex 3170.000000 -69.815094 -396.428994
  endloop
 endfacet
 facet normal 0.000000 0.751840 -0.659346
  outer loop
   vertex 2631.200000 -69.815094 -396.428994
   vertex 2631.200000 -62.225397 -387.774603
   vertex 3170.000000 -69.815094 -396.428994
  endloop
 endfacet
 facet normal 0.000000 0.659346 -0.751840
  outer loop
   vertex 2631.200000 -53.571006 -380.184906
   vertex 3170.000000 -53.571006 -380.184906
   vertex 3170.000000 -62.225397 -387.774603
  endloop
 endfacet
 facet normal 0.000000 0.659346 -0.751840
  outer loop
   vertex 2631.200000 -62.225397 -387.774603
   vertex 2631.200000 -53.571006 -380.184906
   vertex 3170.000000 -62.225397 -387.774603
  endloop
 endfacet
 facet normal 0.000000 0.555570 -0.831470
  outer loop
   vertex 2631.200000 -44.000000 -373.789764
   vertex 3170.000000 -44.000000 -373.789764
   vertex 3170.000000 -53.571006 -380.184906
  endloop
 endfacet
 facet normal 0.000000 0.555570 -0.831470
  outer loop
   vertex 2631.200000 -53.571006 -380.184906
   vertex 2631.200000 -44.000000 -373.789764
   vertex 3170.000000 -53.571006 -380.184906
  endloop
 endfacet
 facet normal 0.000000 0.442289 -0.896873
  outer loop
   vertex 2631.200000 -33.676142 -368.698601
   vertex 3170.000000 -33.676142 -368.698601
   vertex 3170.000000 -44.000000 -373.789764
  endloop
 endfacet
 facet normal 0.000000 0.442289 -0.896873
  outer loop
   vertex 2631.200000 -44.000000 -373.789764
   vertex 2631.200000 -33.676142 -368.698601
   vertex 3170.000000 -44.000000 -373.789764
  endloop
 endfacet
 facet normal 0.000000 0.321439 -0.946930
  outer loop
   vertex 2631.200000 -22.776076 -364.998527
   vertex 3170.000000 -22.776076 -364.998527
   vertex 3170.000000 -33.676142 -368.698601
  endloop
 endfacet
 facet normal 0.000000 0.321439 -0.946930
  outer loop
   vertex 2631.200000 -33.676142 -368.698601
   vertex 2631.200000 -22.776076 -364.998527
   vertex 3170.000000 -33.676142 -368.698601
  endloop
 endfacet
 facet normal 0.000000 0.195090 -0.980785
  outer loop
   vertex 2631.200000 -11.486305 -362.752852
   vertex 3170.000000 -11.486305 -362.752852
   vertex 3170.000000 -22.776076 -364.998527
  endloop
 endfacet
 facet normal 0.000000 0.195090 -0.980785
  outer loop
   vertex 2631.200000 -22.776076 -364.998527
   vertex 2631.200000 -11.486305 -362.752852
   vertex 3170.000000 -22.776076 -364.998527
  endloop
 endfacet
 facet normal 0.000000 0.065403 -0.997859
  outer loop
   vertex 2631.200000 -0.000000 -362.000000
   vertex 3170.000000 -0.000000 -362.000000
   vertex 3170.000000 -11.486305 -362.752852
  endloop
 endfacet
 facet normal 0.000000 0.065403 -0.997859
  outer loop
   vertex 2631.200000 -11.486305 -362.752852
   vertex 2631.200000 -0.000000 -362.000000
   vertex 3170.000000 -11.486305 -362.752852
  endloop
 endfacet
 facet normal 0.000000 -0.065403 -0.997859
  outer loop
   vertex 2631.200000 11.486305 -362.752852
   vertex 3170.000000 11.486305 -362.752852
   vertex 3170.000000 -0.000000 -362.000000
  endloop
 endfacet
 facet normal 0.000000 -0.065403 -0.997859
  outer loop
   vertex 2631.200000 -0.000000 -362.000000
   vertex 2631.200000 11.486305 -362.752852
   vertex 3170.000000 -0.000000 -362.000000
  endloop
 endfacet
 facet normal 0.000000 -0.195090 -0.980785
  outer loop
   vertex 2631.200000 22.776076 -364.998527
   vertex 3170.000000 22.776076 -364.998527
   vertex 3170.000000 11.486305 -362.752852
  endloop
 endfacet
 facet normal 0.000000 -0.195090 -0.980785
  outer loop
   vertex 2631.200000 11.486305 -362.752852
   vertex 2631.200000 22.776076 -364.998527
   vertex 3170.000000 11.486305 -362.752852
  endloop
 endfacet
 facet normal 0.000000 -0.321439 -0.946930
  outer loop
   vertex 2631.200000 33.676142 -368.698601
   vertex 3170.000000 33.676142 -368.698601
   vertex 3170.000000 22.776076 -364.998527
  endloop
 endfacet
 facet normal 0.000000 -0.321439 -0.946930
  outer loop
   vertex 2631.200000 22.776076 -364.998527
   vertex 2631.200000 33.676142 -368.698601
   vertex 3170.000000 22.776076 -364.998527
  endloop
 endfacet
 facet normal 0.000000 -0.442289 -0.896873
  outer loop
   vertex 2631.200000 44.000000 -373.789764
   vertex 3170.000000 44.000000 -373.789764
   vertex 3170.000000 33.676142 -368.698601
  endloop
 endfacet
 facet normal 0.000000 -0.442289 -0.896873
  outer loop
   vertex 2631.200000 33.676142 -368.698601
   vertex 2631.200000 44.000000 -373.789764
   vertex 3170.000000 33.676142 -368.698601
  endloop
 endfacet
 facet normal 0.000000 -0.555570 -0.831470
  outer loop
   vertex 2631.200000 53.571006 -380.184906
   vertex 3170.000000 53.571006 -380.184906
   vertex 3170.000000 44.000000 -373.789764
  endloop
 endfacet
 facet normal 0.000000 -0.555570 -0.831470
  outer loop
   vertex 2631.200000 44.000000 -373.789764
   vertex 2631.200000 53.571006 -380.184906
   vertex 3170.000000 44.000000 -373.789764
  endloop
 endfacet
 facet normal 0.000000 -0.659346 -0.751840
  outer loop
   vertex 2631.200000 62.225397 -387.774603
   vertex 3170.000000 62.225397 -387.774603
   vertex 3170.000000 53.571006 -380.184906
  endloop
 endfacet
 facet normal 0.000000 -0.659346 -0.751840
  outer loop
   vertex 2631.200000 53.571006 -380.184906
   vertex 2631.200000 62.225397 -387.774603
   vertex 3170.000000 53.571006 -380.184906
  endloop
 endfacet
 facet normal 0.000000 -0.751840 -0.659346
  outer loop
   vertex 2631.200000 69.815094 -396.428994
   vertex 3170.000000 69.815094 -396.428994
   vertex 3170.000000 62.225397 -387.774603
  endloop
 endfacet
 facet normal 0.000000 -0.751840 -0.659346
  outer loop
   vertex 2631.200000 62.225397 -387.774603
   vertex 2631.200000 69.815094 -396.428994
   vertex 3170.000000 62.225397 -387.774603
  endloop
 endfacet
 facet normal 0.000000 -0.831470 -0.555570
  outer loop
   vertex 2631.200000 76.210236 -406.000000
   vertex 3170.000000 76.210236 -406.000000
   vertex 3170.000000 69.815094 -396.428994
  endloop
 endfacet
 facet normal 0.000000 -0.831470 -0.555570
  outer loop
   vertex 2631.200000 69.815094 -396.428994
   vertex 2631.200000 76.210236 -406.000000
   vertex 3170.000000 69.815094 -396.428994
  endloop
 endfacet
 facet normal 0.000000 -0.896873 -0.442289
  outer loop
   vertex 2631.200000 81.301399 -416.323858
   vertex 3170.000000 81.301399 -416.323858
   vertex 3170.000000 76.210236 -406.000000
  endloop
 endfacet
 facet normal 0.000000 -0.896873 -0.442289
  outer loop
   vertex 2631.200000 76.210236 -406.000000
   vertex 2631.200000 81.301399 -416.323858
   vertex 3170.000000 76.210236 -406.000000
  endloop
 endfacet
 facet normal 0.000000 -0.946930 -0.321439
  outer loop
   vertex 2631.200000 85.001473 -427.223924
   vertex 3170.000000 85.001473 -427.223924
   vertex 3170.000000 81.301399 -416.323858
  endloop
 endfacet
 facet normal 0.000000 -0.946930 -0.321439
  outer loop
   vertex 2631.200000 81.301399 -416.323858
   vertex 2631.200000 85.001473 -427.223924
   vertex 3170.000000 81.301399 -416.323858
  endloop
 endfacet
 facet normal 0.000000 -0.980785 -0.195090
  outer loop
   vertex 2631.200000 87.247148 -438.513695
   vertex 3170.000000 87.247148 -438.513695
   vertex 3170.000000 85.001473 -427.223924
  endloop
 endfacet
 facet normal 0.000000 -0.980785 -0.195090
  outer loop
   vertex 2631.200000 85.001473 -427.223924
   vertex 2631.200000 87.247148 -438.513695
   vertex 3170.000000 85.001473 -427.223924
  endloop
 endfacet
 facet normal 0.000000 -0.997859 -0.065403
  outer loop
   vertex 2631.200000 88.000000 -450.000000
   vertex 3170.000000 88.000000 -450.000000
   vertex 3170.000000 87.247148 -438.513695
  endloop
 endfacet
 facet normal 0.000000 -0.997859 -0.065403
  outer loop
   vertex 2631.200000 87.247148 -438.513695
   vertex 2631.200000 88.000000 -450.000000
   vertex 3170.000000 87.247148 -438.513695
  endloop
 endfacet
 facet normal 0.000000 -0.997859 0.065403
  outer loop
   vertex 2631.200000 87.247148 -461.486305
   vertex 3170.000000 87.247148 -461.486305
   vertex 3170.000000 88.000000 -450.000000
  endloop
 endfacet
 facet normal 0.000000 -0.997859 0.065403
  outer loop
   vertex 2631.200000 88.000000 -450.000000
   vertex 2631.200000 87.247148 -461.486305
   vertex 3170.000000 88.000000 -450.000000
  endloop
 endfacet
 facet normal 0.000000 -0.980785 0.195090
  outer loop
   vertex 2631.200000 85.001473 -472.776076
   vertex 3170.000000 85.001473 -472.776076
   vertex 3170.000000 87.247148 -461.486305
  endloop
 endfacet
 facet normal 0.000000 -0.980785 0.195090
  outer loop
   vertex 2631.200000 87.247148 -461.486305
   vertex 2631.200000 85.001473 -472.776076
   vertex 3170.000000 87.247148 -461.486305
  endloop
 endfacet
 facet normal 0.000000 -0.946930 0.321439
  outer loop
   vertex 2631.200000 81.301399 -483.676142
   vertex 3170.000000 81.301399 -483.676142
   vertex 3170.000000 85.001473 -472.776076
  endloop
 endfacet
 facet normal 0.000000 -0.946930 0.321439
  outer loop
   vertex 2631.200000 85.001473 -472.776076
   vertex 2631.200000 81.301399 -483.676142
   vertex 3170.000000 85.001473 -472.776076
  endloop
 endfacet
 facet normal 0.000000 -0.896873 0.442289
  outer loop
   vertex 2631.200000 76.210236 -494.000000
   vertex 3170.000000 76.210236 -494.000000
   vertex 3170.000000 81.301399 -483.676142
  endloop
 endfacet
 facet normal 0.000000 -0.896873 0.442289
  outer loop
   vertex 2631.200000 81.301399 -483.676142
   vertex 2631.200000 76.210236 -494.000000
   vertex 3170.000000 81.301399 -483.676142
  endloop
 endfacet
 facet normal 0.000000 -0.831470 0.555570
  outer loop
   vertex 2631.200000 69.815094 -503.571006
   vertex 3170.000000 69.815094 -503.571006
   vertex 3170.000000 76.210236 -494.000000
  endloop
 endfacet
 facet normal 0.000000 -0.831470 0.555570
  outer loop
   vertex 2631.200000 76.210236 -494.000000
   vertex 2631.200000 69.815094 -503.571006
   vertex 3170.000000 76.210236 -494.000000
  endloop
 endfacet
 facet normal 0.000000 -0.751840 0.659346
  outer loop
   vertex 2631.200000 62.225397 -512.225397
   vertex 3170.000000 62.225397 -512.225397
   vertex 3170.000000 69.815094 -503.571006
  endloop
 endfacet
 facet normal 0.000000 -0.751840 0.659346
  outer loop
   vertex 2631.200000 69.815094 -503.571006
   vertex 2631.200000 62.225397 -512.225397
   vertex 3170.000000 69.815094 -503.571006
  endloop
 endfacet
 facet normal 0.000000 -0.659346 0.751840
  outer loop
   vertex 2631.200000 53.571006 -519.815094
   vertex 3170.000000 53.571006 -519.815094
   vertex 3170.000000 62.225397 -512.225397
  endloop
 endfacet
 facet normal 0.000000 -0.659346 0.751840
  outer loop
   vertex 2631.200000 62.225397 -512.225397
   vertex 2631.200000 53.571006 -519.815094
   vertex 3170.000000 62.225397 -512.225397
  endloop
 endfacet
 facet normal 0.000000 -0.555570 0.831470
  outer loop
   vertex 2631.200000 44.000000 -526.210236
   vertex 3170.000000 44.000000 -526.210236
   vertex 3170.000000 53.571006 -519.815094
  endloop
 endfacet
 facet normal 0.000000 -0.555570 0.831470
  outer loop
   vertex 2631.200000 53.571006 -519.815094
   vertex 2631.200000 44.000000 -526.210236
   vertex 3170.000000 53.571006 -519.815094
  endloop
 endfacet
 facet normal 0.000000 -0.442289 0.896873
  outer loop
   vertex 2631.200000 33.676142 -531.301399
   vertex 3170.000000 33.676142 -531.301399
   vertex 3170.000000 44.000000 -526.210236
  endloop
 endfacet
 facet normal 0.000000 -0.442289 0.896873
  outer loop
   vertex 2631.200000 44.000000 -526.210236
   vertex 2631.200000 33.676142 -531.301399
   vertex 3170.000000 44.000000 -526.210236
  endloop
 endfacet
 facet normal 0.000000 -0.321439 0.946930
  outer loop
   vertex 2631.200000 22.776076 -535.001473
   vertex 3170.000000 22.776076 -535.001473
   vertex 3170.000000 33.676142 -531.301399
  endloop
 endfacet
 facet normal 0.000000 -0.321439 0.946930
  outer loop
   vertex 2631.200000 33.676142 -531.301399
   vertex 2631.200000 22.776076 -535.001473
   vertex 3170.000000 33.676142 -531.301399
  endloop
 endfacet
 facet normal 0.000000 -0.195090 0.980785
  outer loop
   vertex 2631.200000 11.486305 -537.247148
   vertex 3170.000000 11.486305 -537.247148
   vertex 3170.000000 22.776076 -535.001473
  endloop
 endfacet
 facet normal 0.000000 -0.195090 0.980785
  outer loop
   vertex 2631.200000 22.776076 -535.001473
   vertex 2631.200000 11.486305 -537.247148
   vertex 3170.000000 22.776076 -535.001473
  endloop
 endfacet
 facet normal 0.000000 -0.065403 0.997859
  outer loop
   vertex 2631.200000 0.000000 -538.000000
   vertex 3170.000000 0.000000 -538.000000
   vertex 3170.000000 11.486305 -537.247148
  endloop
 endfacet
 facet normal 0.000000 -0.065403 0.997859
  outer loop
   vertex 2631.200000 11.486305 -537.247148
   vertex 2631.200000 0.000000 -538.000000
   vertex 3170.000000 11.486305 -537.247148
  endloop
 endfacet
 facet normal -0.000000 0.065403 0.997859
  outer loop
   vertex 2631.200000 -11.486305 -537.247148
   vertex 3170.000000 -11.486305 -537.247148
   vertex 3170.000000 0.000000 -538.000000
  endloop
 endfacet
 facet normal -0.000000 0.065403 0.997859
  outer loop
   vertex 2631.200000 0.000000 -538.000000
   vertex 2631.200000 -11.486305 -537.247148
   vertex 3170.000000 0.000000 -538.000000
  endloop
 endfacet
 facet normal -0.000000 0.195090 0.980785
  outer loop
   vertex 2631.200000 -22.776076 -535.001473
   vertex 3170.000000 -22.776076 -535.001473
   vertex 3170.000000 -11.486305 -537.247148
  endloop
 endfacet
 facet normal -0.000000 0.195090 0.980785
  outer loop
   vertex 2631.200000 -11.486305 -537.247148
   vertex 2631.200000 -22.776076 -535.001473
   vertex 3170.000000 -11.486305 -537.247148
  endloop
 endfacet
 facet normal -0.000000 0.321439 0.946930
  outer loop
   vertex 2631.200000 -33.676142 -531.301399
   vertex 3170.000000 -33.676142 -531.301399
   vertex 3170.000000 -22.776076 -535.001473
  endloop
 endfacet
 facet normal -0.000000 0.321439 0.946930
  outer loop
   vertex 2631.200000 -22.776076 -535.001473
   vertex 2631.200000 -33.676142 -531.301399
   vertex 3170.000000 -22.776076 -535.001473
  endloop
 endfacet
 facet normal -0.000000 0.442289 0.896873
  outer loop
   vertex 2631.200000 -44.000000 -526.210236
   vertex 3170.000000 -44.000000 -526.210236
   vertex 3170.000000 -33.676142 -531.301399
  endloop
 endfacet
 facet normal -0.000000 0.442289 0.896873
  outer loop
   vertex 2631.200000 -33.676142 -531.301399
   vertex 2631.200000 -44.000000 -526.210236
   vertex 3170.000000 -33.676142 -531.301399
  endloop
 endfacet
 facet normal -0.000000 0.555570 0.831470
  outer loop
   vertex 2631.200000 -53.571006 -519.815094
   vertex 3170.000000 -53.571006 -519.815094
   vertex 3170.000000 -44.000000 -526.210236
  endloop
 endfacet
 facet normal -0.000000 0.555570 0.831470
  outer loop
   vertex 2631.200000 -44.000000 -526.210236
   vertex 2631.200000 -53.571006 -519.815094
   vertex 3170.000000 -44.000000 -526.210236
  endloop
 endfacet
 facet normal -0.000000 0.659346 0.751840
  outer loop
   vertex 2631.200000 -62.225397 -512.225397
   vertex 3170.000000 -62.225397 -512.225397
   vertex 3170.000000 -53.571006 -519.815094
  endloop
 endfacet
 facet normal -0.000000 0.659346 0.751840
  outer loop
   vertex 2631.200000 -53.571006 -519.815094
   vertex 2631.200000 -62.225397 -512.225397
   vertex 3170.000000 -53.571006 -519.815094
  endloop
 endfacet
 facet normal -0.000000 0.751840 0.659346
  outer loop
   vertex 2631.200000 -69.815094 -503.571006
   vertex 3170.000000 -69.815094 -503.571006
   vertex 3170.000000 -62.225397 -512.225397
  endloop
 endfacet
 facet normal -0.000000 0.751840 0.659346
  outer loop
   vertex 2631.200000 -62.225397 -512.225397
   vertex 2631.200000 -69.815094 -503.571006
   vertex 3170.000000 -62.225397 -512.225397
  endloop
 endfacet
 facet normal -0.000000 0.831470 0.555570
  outer loop
   vertex 2631.200000 -76.210236 -494.000000
   vertex 3170.000000 -76.210236 -494.000000
   vertex 3170.000000 -69.815094 -503.571006
  endloop
 endfacet
 facet normal -0.000000 0.831470 0.555570
  outer loop
   vertex 2631.200000 -69.815094 -503.571006
   vertex 2631.200000 -76.210236 -494.000000
   vertex 3170.000000 -69.815094 -503.571006
  endloop
 endfacet
 facet normal -0.000000 0.896873 0.442289
  outer loop
   vertex 2631.200000 -81.301399 -483.676142
   vertex 3170.000000 -81.301399 -483.676142
   vertex 3170.000000 -76.210236 -494.000000
  endloop
 endfacet
 facet normal -0.000000 0.896873 0.442289
  outer loop
   vertex 2631.200000 -76.210236 -494.000000
   vertex 2631.200000 -81.301399 -483.676142
   vertex 3170.000000 -76.210236 -494.000000
  endloop
 endfacet
 facet normal -0.000000 0.946930 0.321439
  outer loop
   vertex 2631.200000 -85.001473 -472.776076
   vertex 3170.000000 -85.001473 -472.776076
   vertex 3170.000000 -81.301399 -483.676142
  endloop
 endfacet
 facet normal -0.000000 0.946930 0.321439
  outer loop
   vertex 2631.200000 -81.301399 -483.676142
   vertex 2631.200000 -85.001473 -472.776076
   vertex 3170.000000 -81.301399 -483.676142
  endloop
 endfacet
 facet normal -0.000000 0.980785 0.195090
  outer loop
   vertex 2631.200000 -87.247148 -461.486305
   vertex 3170.000000 -87.247148 -461.486305
   vertex 3170.000000 -85.001473 -472.776076
  endloop
 endfacet
 facet normal -0.000000 0.980785 0.195090
  outer loop
   vertex 2631.200000 -85.001473 -472.776076
   vertex 2631.200000 -87.247148 -461.486305
   vertex 3170.000000 -85.001473 -472.776076
  endloop
 endfacet
 facet normal -0.000000 0.997859 0.065403
  outer loop
   vertex 2631.200000 -88.000000 -450.000000
   vertex 3170.000000 -88.000000 -450.000000
   vertex 3170.000000 -87.247148 -461.486305
  endloop
 endfacet
 facet normal -0.000000 0.997859 0.065403
  outer loop
   vertex 2631.200000 -87.247148 -461.486305
   vertex 2631.200000 -88.000000 -450.000000
   vertex 3170.000000 -87.247148 -461.486305
  endloop
 endfacet
endsolid SIC_LOX_feed_1_Hrun
