solid SIC_LOX_feed_3_Hrun
 facet normal -0.864165 0.498940 0.065403
  outer loop
   vertex -1671.636776 -2695.279297 -450.000000
   vertex -1670.895885 -2695.707063 -436.947381
   vertex -1401.464657 -2229.052177 -436.947381
  endloop
 endfacet
 facet normal -0.864165 0.498940 0.065403
  outer loop
   vertex -1671.636776 -2695.279297 -450.000000
   vertex -1401.464657 -2229.052177 -436.947381
   vertex -1402.205549 -2228.624410 -450.000000
  endloop
 endfacet
 facet normal -0.849379 0.490403 0.195090
  outer loop
   vertex -1670.895885 -2695.707063 -436.947381
   vertex -1668.685888 -2696.983043 -424.118095
   vertex -1399.254660 -2230.328156 -424.118095
  endloop
 endfacet
 facet normal -0.849379 0.490403 0.195090
  outer loop
   vertex -1670.895885 -2695.707063 -436.947381
   vertex -1399.254660 -2230.328156 -424.118095
   vertex -1401.464657 -2229.052177 -436.947381
  endloop
 endfacet
 facet normal -0.820060 0.473475 0.321439
  outer loop
   vertex -1668.685888 -2696.983043 -424.118095
   vertex -1665.044599 -2699.085404 -411.731657
   vertex -1395.613371 -2232.430517 -411.731657
  endloop
 endfacet
 facet normal -0.820060 0.473475 0.321439
  outer loop
   vertex -1668.685888 -2696.983043 -424.118095
   vertex -1395.613371 -2232.430517 -411.731657
   vertex -1399.254660 -2230.328156 -424.118095
  endloop
 endfacet
 facet normal -0.776709 0.448446 0.442289
  outer loop
   vertex -1665.044599 -2699.085404 -411.731657
   vertex -1660.034321 -2701.978174 -400.000000
   vertex -1390.603093 -2235.323287 -400.000000
  endloop
 endfacet
 facet normal -0.776709 0.448446 0.442289
  outer loop
   vertex -1665.044599 -2699.085404 -411.731657
   vertex -1390.603093 -2235.323287 -400.000000
   vertex -1395.613371 -2232.430517 -411.731657
  endloop
 endfacet
 facet normal -0.720069 0.415744 0.555570
  outer loop
   vertex -1660.034321 -2701.978174 -400.000000
   vertex -1653.740782 -2705.611857 -389.123857
   vertex -1384.309554 -2238.956970 -389.123857
  endloop
 endfacet
 facet normal -0.720069 0.415744 0.555570
  outer loop
   vertex -1660.034321 -2701.978174 -400.000000
   vertex -1384.309554 -2238.956970 -389.123857
   vertex -1390.603093 -2235.323287 -400.000000
  endloop
 endfacet
 facet normal -0.651108 0.375928 0.659346
  outer loop
   vertex -1653.740782 -2705.611857 -389.123857
   vertex -1646.271666 -2709.924280 -379.289322
   vertex -1376.840438 -2243.269393 -379.289322
  endloop
 endfacet
 facet normal -0.651108 0.375928 0.659346
  outer loop
   vertex -1653.740782 -2705.611857 -389.123857
   vertex -1376.840438 -2243.269393 -379.289322
   vertex -1384.309554 -2238.956970 -389.123857
  endloop
 endfacet
 facet normal -0.571006 0.329680 0.751840
  outer loop
   vertex -1646.271666 -2709.924280 -379.289322
   vertex -1637.754771 -2714.841656 -370.664666
   vertex -1368.323543 -2248.186769 -370.664666
  endloop
 endfacet
 facet normal -0.571006 0.329680 0.751840
  outer loop
   vertex -1646.271666 -2709.924280 -379.289322
   vertex -1368.323543 -2248.186769 -370.664666
   vertex -1376.840438 -2243.269393 -379.289322
  endloop
 endfacet
 facet normal -0.481134 0.277791 0.831470
  outer loop
   vertex -1637.754771 -2714.841656 -370.664666
   vertex -1628.335824 -2720.279847 -363.397460
   vertex -1358.904596 -2253.624960 -363.397460
  endloop
 endfacet
 facet normal -0.481134 0.277791 0.831470
  outer loop
   vertex -1637.754771 -2714.841656 -370.664666
   vertex -1358.904596 -2253.624960 -363.397460
   vertex -1368.323543 -2248.186769 -370.664666
  endloop
 endfacet
 facet normal -0.383030 0.221149 0.896873
  outer loop
   vertex -1628.335824 -2720.279847 -363.397460
   vertex -1618.175986 -2726.145804 -357.612047
   vertex -1348.744758 -2259.490918 -357.612047
  endloop
 endfacet
 facet normal -0.383030 0.221149 0.896873
  outer loop
   vertex -1628.335824 -2720.279847 -363.397460
   vertex -1348.744758 -2259.490918 -357.612047
   vertex -1358.904596 -2253.624960 -363.397460
  endloop
 endfacet
 facet normal -0.278373 0.160723 0.946930
  outer loop
   vertex -1618.175986 -2726.145804 -357.612047
   vertex -1607.449094 -2732.339160 -353.407417
   vertex -1338.017866 -2265.684273 -353.407417
  endloop
 endfacet
 facet normal -0.278373 0.160723 0.946930
  outer loop
   vertex -1618.175986 -2726.145804 -357.612047
   vertex -1338.017866 -2265.684273 -353.407417
   vertex -1348.744758 -2259.490918 -357.612047
  endloop
 endfacet
 facet normal -0.168952 0.097547 0.980785
  outer loop
   vertex -1607.449094 -2732.339160 -353.407417
   vertex -1596.338688 -2738.753944 -350.855514
   vertex -1326.907460 -2272.099057 -350.855514
  endloop
 endfacet
 facet normal -0.168952 0.097547 0.980785
  outer loop
   vertex -1607.449094 -2732.339160 -353.407417
   vertex -1326.907460 -2272.099057 -350.855514
   vertex -1338.017866 -2265.684273 -353.407417
  endloop
 endfacet
 facet normal -0.056640 0.032702 0.997859
  outer loop
   vertex -1596.338688 -2738.753944 -350.855514
   vertex -1585.034871 -2745.280397 -350.000000
   vertex -1315.603643 -2278.625510 -350.000000
  endloop
 endfacet
 facet normal -0.056640 0.032702 0.997859
  outer loop
   vertex -1596.338688 -2738.753944 -350.855514
   vertex -1315.603643 -2278.625510 -350.000000
   vertex -1326.907460 -2272.099057 -350.855514
  endloop
 endfacet
 facet normal 0.056640 -0.032702 0.997859
  outer loop
   vertex -1585.034871 -2745.280397 -350.000000
   vertex -1573.731054 -2751.806850 -350.855514
   vertex -1304.299826 -2285.151963 -350.855514
  endloop
 endfacet
 facet normal 0.056640 -0.032702 0.997859
  outer loop
   vertex -1585.034871 -2745.280397 -350.000000
   vertex -1304.299826 -2285.151963 -350.855514
   vertex -1315.603643 -2278.625510 -350.000000
  endloop
 endfacet
 facet normal 0.168952 -0.097547 0.980785
  outer loop
   vertex -1573.731054 -2751.806850 -350.855514
   vertex -1562.620649 -2758.221634 -353.407417
   vertex -1293.189421 -2291.566747 -353.407417
  endloop
 endfacet
 facet normal 0.168952 -0.097547 0.980785
  outer loop
   vertex -1573.731054 -2751.806850 -350.855514
   vertex -1293.189421 -2291.566747 -353.407417
   vertex -1304.299826 -2285.151963 -350.855514
  endloop
 endfacet
 facet normal 0.278373 -0.160723 0.946930
  outer loop
   vertex -1562.620649 -2758.221634 -353.407417
   vertex -1551.893757 -2764.414989 -357.612047
   vertex -1282.462529 -2297.760103 -357.612047
  endloop
 endfacet
 facet normal 0.278373 -0.160723 0.946930
  outer loop
   vertex -1562.620649 -2758.221634 -353.407417
   vertex -1282.462529 -2297.760103 -357.612047
   vertex -1293.189421 -2291.566747 -353.407417
  endloop
 endfacet
 facet normal 0.383030 -0.221149 0.896873
  outer loop
   vertex -1551.893757 -2764.414989 -357.612047
   vertex -1541.733919 -2770.280947 -363.397460
   vertex -1272.302691 -2303.626060 -363.397460
  endloop
 endfacet
 facet normal 0.383030 -0.221149 0.896873
  outer loop
   vertex -1551.893757 -2764.414989 -357.612047
   vertex -1272.302691 -2303.626060 -363.397460
   vertex -1282.462529 -2297.760103 -357.612047
  endloop
 endfacet
 facet normal 0.481134 -0.277791 0.831470
  outer loop
   vertex -1541.733919 -2770.280947 -363.397460
   vertex -1532.314972 -2775.719138 -370.664666
   vertex -1262.883744 -2309.064251 -370.664666
  endloop
 endfacet
 facet normal 0.481134 -0.277791 0.831470
  outer loop
   vertex -1541.733919 -2770.280947 -363.397460
   vertex -1262.883744 -2309.064251 -370.664666
   vertex -1272.302691 -2303.626060 -363.397460
  endloop
 endfacet
 facet normal 0.571006 -0.329680 0.751840
  outer loop
   vertex -1532.314972 -2775.719138 -370.664666
   vertex -1523.798077 -2780.636514 -379.289322
   vertex -1254.366849 -2313.981627 -379.289322
  endloop
 endfacet
 facet normal 0.571006 -0.329680 0.751840
  outer loop
   vertex -1532.314972 -2775.719138 -370.664666
   vertex -1254.366849 -2313.981627 -379.289322
   vertex -1262.883744 -2309.064251 -370.664666
  endloop
 endfacet
 facet normal 0.651108 -0.375928 0.659346
  outer loop
   vertex -1523.798077 -2780.636514 -379.289322
   vertex -1516.328960 -2784.948937 -389.123857
   vertex -1246.897733 -2318.294050 -389.123857
  endloop
 endfacet
 facet normal 0.651108 -0.375928 0.659346
  outer loop
   vertex -1523.798077 -2780.636514 -379.289322
   vertex -1246.897733 -2318.294050 -389.123857
   vertex -1254.366849 -2313.981627 -379.289322
  endloop
 endfacet
 facet normal 0.720069 -0.415744 0.555570
  outer loop
   vertex -1516.328960 -2784.948937 -389.123857
   vertex -1510.035421 -2788.582620 -400.000000
   vertex -1240.604193 -2321.927733 -400.000000
  endloop
 endfacet
 facet normal 0.720069 -0.415744 0.555570
  outer loop
   vertex -1516.328960 -2784.948937 -389.123857
   vertex -1240.604193 -2321.927733 -400.000000
   vertex -1246.897733 -2318.294050 -389.123857
  endloop
 endfacet
 facet normal 0.776709 -0.448446 0.442289
  outer loop
   vertex -1510.035421 -2788.582620 -400.000000
   vertex -1505.025143 -2791.475390 -411.731657
   vertex -1235.593916 -2324.820503 -411.731657
  endloop
 endfacet
 facet normal 0.776709 -0.448446 0.442289
  outer loop
   vertex -1510.035421 -2788.582620 -400.000000
   vertex -1235.593916 -2324.820503 -411.731657
   vertex -1240.604193 -2321.927733 -400.000000
  endloop
 endfacet
 facet normal 0.820060 -0.473475 0.321439
  outer loop
   vertex -1505.025143 -2791.475390 -411.731657
   vertex -1501.383854 -2793.577751 -424.118095
   vertex -1231.952626 -2326.922864 -424.118095
  endloop
 endfacet
 facet normal 0.820060 -0.473475 0.321439
  outer loop
   vertex -1505.025143 -2791.475390 -411.731657
   vertex -1231.952626 -2326.922864 -424.118095
   vertex -1235.593916 -2324.820503 -411.731657
  endloop
 endfacet
 facet normal 0.849379 -0.490403 0.195090
  outer loop
   vertex -1501.383854 -2793.577751 -424.118095
   vertex -1499.173857 -2794.853731 -436.947381
   vertex -1229.742629 -2328.198844 -436.947381
  endloop
 endfacet
 facet normal 0.849379 -0.490403 0.195090
  outer loop
   vertex -1501.383854 -2793.577751 -424.118095
   vertex -1229.742629 -2328.198844 -436.947381
   vertex -1231.952626 -2326.922864 -424.118095
  endloop
 endfacet
 facet normal 0.864165 -0.498940 0.065403
  outer loop
   vertex -1499.173857 -2794.853731 -436.947381
   vertex -1498.432966 -2795.281497 -450.000000
   vertex -1229.001738 -2328.626610 -450.000000
  endloop
 endfacet
 facet normal 0.864165 -0.498940 0.065403
  outer loop
   vertex -1499.173857 -2794.853731 -436.947381
   vertex -1229.001738 -2328.626610 -450.000000
   vertex -1229.742629 -2328.198844 -436.947381
  endloop
 endfacet
 facet normal 0.864165 -0.498940 -0.065403
  outer loop
   vertex -1498.432966 -2795.281497 -450.000000
   vertex -1499.173857 -2794.853731 -463.052619
   vertex -1229.742629 -2328.198844 -463.052619
  endloop
 endfacet
 facet normal 0.864165 -0.498940 -0.065403
  outer loop
   vertex -1498.432966 -2795.281497 -450.000000
   vertex -1229.742629 -2328.198844 -463.052619
   vertex -1229.001738 -2328.626610 -450.000000
  endloop
 endfacet
 facet normal 0.849379 -0.490403 -0.195090
  outer loop
   vertex -1499.173857 -2794.853731 -463.052619
   vertex -1501.383854 -2793.577751 -475.881905
   vertex -1231.952626 -2326.922864 -475.881905
  endloop
 endfacet
 facet normal 0.849379 -0.490403 -0.195090
  outer loop
   vertex -1499.173857 -2794.853731 -463.052619
   vertex -1231.952626 -2326.922864 -475.881905
   vertex -1229.742629 -2328.198844 -463.052619
  endloop
 endfacet
 facet normal 0.820060 -0.473475 -0.321439
  outer loop
   vertex -1501.383854 -2793.577751 -475.881905
   vertex -1505.025143 -2791.475390 -488.268343
   vertex -1235.593916 -2324.820503 -488.268343
  endloop
 endfacet
 facet normal 0.820060 -0.473475 -0.321439
  outer loop
   vertex -1501.383854 -2793.577751 -475.881905
   vertex -1235.593916 -2324.820503 -488.268343
   vertex -1231.952626 -2326.922864 -475.881905
  endloop
 endfacet
 facet normal 0.776709 -0.448446 -0.442289
  outer loop
   vertex -1505.025143 -2791.475390 -488.268343
   vertex -1510.035421 -2788.582620 -500.000000
   vertex -1240.604193 -2321.927733 -500.000000
  endloop
 endfacet
 facet normal 0.776709 -0.448446 -0.442289
  outer loop
   vertex -1505.025143 -2791.475390 -488.268343
   vertex -1240.604193 -2321.927733 -500.000000
   vertex -1235.593916 -2324.820503 -488.268343
  endloop
 endfacet
 facet normal 0.720069 -0.415744 -0.555570
  outer loop
   vertex -1510.035421 -2788.582620 -500.000000
   vertex -1516.328960 -2784.948937 -510.876143
   vertex -1246.897733 -2318.294050 -510.876143
  endloop
 endfacet
 facet normal 0.720069 -0.415744 -0.555570
  outer loop
   vertex -1510.035421 -2788.582620 -500.000000
   vertex -1246.897733 -2318.294050 -510.876143
   vertex -1240.604193 -2321.927733 -500.000000
  endloop
 endfacet
 facet normal 0.651108 -0.375928 -0.659346
  outer loop
   vertex -1516.328960 -2784.948937 -510.876143
   vertex -1523.798077 -2780.636514 -520.710678
   vertex -1254.366849 -2313.981627 -520.710678
  endloop
 endfacet
 facet normal 0.651108 -0.375928 -0.659346
  outer loop
   vertex -1516.328960 -2784.948937 -510.876143
   vertex -1254.366849 -2313.981627 -520.710678
   vertex -1246.897733 -2318.294050 -510.876143
  endloop
 endfacet
 facet normal 0.571006 -0.329680 -0.751840
  outer loop
   vertex -1523.798077 -2780.636514 -520.710678
   vertex -1532.314972 -2775.719138 -529.335334
   vertex -1262.883744 -2309.064251 -529.335334
  endloop
 endfacet
 facet normal 0.571006 -0.329680 -0.751840
  outer loop
   vertex -1523.798077 -2780.636514 -520.710678
   vertex -1262.883744 -2309.064251 -529.335334
   vertex -1254.366849 -2313.981627 -520.710678
  endloop
 endfacet
 facet normal 0.481134 -0.277791 -0.831470
  outer loop
   vertex -1532.314972 -2775.719138 -529.335334
   vertex -1541.733919 -2770.280947 -536.602540
   vertex -1272.302691 -2303.626060 -536.602540
  endloop
 endfacet
 facet normal 0.481134 -0.277791 -0.831470
  outer loop
   vertex -1532.314972 -2775.719138 -529.335334
   vertex -1272.302691 -2303.626060 -536.602540
   vertex -1262.883744 -2309.064251 -529.335334
  endloop
 endfacet
 facet normal 0.383030 -0.221149 -0.896873
  outer loop
   vertex -1541.733919 -2770.280947 -536.602540
   vertex -1551.893757 -2764.414989 -542.387953
   vertex -1282.462529 -2297.760103 -542.387953
  endloop
 endfacet
 facet normal 0.383030 -0.221149 -0.896873
  outer loop
   vertex -1541.733919 -2770.280947 -536.602540
   vertex -1282.462529 -2297.760103 -542.387953
   vertex -1272.302691 -2303.626060 -536.602540
  endloop
 endfacet
 facet normal 0.278373 -0.160723 -0.946930
  outer loop
   vertex -1551.893757 -2764.414989 -542.387953
   vertex -1562.620649 -2758.221634 -546.592583
   vertex -1293.189421 -2291.566747 -546.592583
  endloop
 endfacet
 facet normal 0.278373 -0.160723 -0.946930
  outer loop
   vertex -1551.893757 -2764.414989 -542.387953
   vertex -1293.189421 -2291.566747 -546.592583
   vertex -1282.462529 -2297.760103 -542.387953
  endloop
 endfacet
 facet normal 0.168952 -0.097547 -0.980785
  outer loop
   vertex -1562.620649 -2758.221634 -546.592583
   vertex -1573.731054 -2751.806850 -549.144486
   vertex -1304.299826 -2285.151963 -549.144486
  endloop
 endfacet
 facet normal 0.168952 -0.097547 -0.980785
  outer loop
   vertex -1562.620649 -2758.221634 -546.592583
   vertex -1304.299826 -2285.151963 -549.144486
   vertex -1293.189421 -2291.566747 -546.592583
  endloop
 endfacet
 facet normal 0.056640 -0.032702 -0.997859
  outer loop
   vertex -1573.731054 -2751.806850 -549.144486
   vertex -1585.034871 -2745.280397 -550.000000
   vertex -1315.603643 -2278.625510 -550.000000
  endloop
 endfacet
 facet normal 0.056640 -0.032702 -0.997859
  outer loop
   vertex -1573.731054 -2751.806850 -549.144486
   vertex -1315.603643 -2278.625510 -550.000000
   vertex -1304.299826 -2285.151963 -549.144486
  endloop
 endfacet
 facet normal -0.056640 0.032702 -0.997859
  outer loop
   vertex -1585.034871 -2745.280397 -550.000000
   vertex -1596.338688 -2738.753944 -549.144486
   vertex -1326.907460 -2272.099057 -549.144486
  endloop
 endfacet
 facet normal -0.056640 0.032702 -0.997859
  outer loop
   vertex -1585.034871 -2745.280397 -550.000000
   vertex -1326.907460 -2272.099057 -549.144486
   vertex -1315.603643 -2278.625510 -550.000000
  endloop
 endfacet
 facet normal -0.168952 0.097547 -0.980785
  outer loop
   vertex -1596.338688 -2738.753944 -549.144486
   vertex -1607.449094 -2732.339160 -546.592583
   vertex -1338.017866 -2265.684273 -546.592583
  endloop
 endfacet
 facet normal -0.168952 0.097547 -0.980785
  outer loop
   vertex -1596.338688 -2738.753944 -549.144486
   vertex -1338.017866 -2265.684273 -546.592583
   vertex -1326.907460 -2272.099057 -549.144486
  endloop
 endfacet
 facet normal -0.278373 0.160723 -0.946930
  outer loop
   vertex -1607.449094 -2732.339160 -546.592583
   vertex -1618.175986 -2726.145804 -542.387953
   vertex -1348.744758 -2259.490918 -542.387953
  endloop
 endfacet
 facet normal -0.278373 0.160723 -0.946930
  outer loop
   vertex -1607.449094 -2732.339160 -546.592583
   vertex -1348.744758 -2259.490918 -542.387953
   vertex -1338.017866 -2265.684273 -546.592583
  endloop
 endfacet
 facet normal -0.383030 0.221149 -0.896873
  outer loop
   vertex -1618.175986 -2726.145804 -542.387953
   vertex -1628.335824 -2720.279847 -536.602540
   vertex -1358.904596 -2253.624960 -536.602540
  endloop
 endfacet
 facet normal -0.383030 0.221149 -0.896873
  outer loop
   vertex -1618.175986 -2726.145804 -542.387953
   vertex -1358.904596 -2253.624960 -536.602540
   vertex -1348.744758 -2259.490918 -542.387953
  endloop
 endfacet
 facet normal -0.481134 0.277791 -0.831470
  outer loop
   vertex -1628.335824 -2720.279847 -536.602540
   vertex -1637.754771 -2714.841656 -529.335334
   vertex -1368.323543 -2248.186769 -529.335334
  endloop
 endfacet
 facet normal -0.481134 0.277791 -0.831470
  outer loop
   vertex -1628.335824 -2720.279847 -536.602540
   vertex -1368.323543 -2248.186769 -529.335334
   vertex -1358.904596 -2253.624960 -536.602540
  endloop
 endfacet
 facet normal -0.571006 0.329680 -0.751840
  outer loop
   vertex -1637.754771 -2714.841656 -529.335334
   vertex -1646.271666 -2709.924280 -520.710678
   vertex -1376.840438 -2243.269393 -520.710678
  endloop
 endfacet
 facet normal -0.571006 0.329680 -0.751840
  outer loop
   vertex -1637.754771 -2714.841656 -529.335334
   vertex -1376.840438 -2243.269393 -520.710678
   vertex -1368.323543 -2248.186769 -529.335334
  endloop
 endfacet
 facet normal -0.651108 0.375928 -0.659346
  outer loop
   vertex -1646.271666 -2709.924280 -520.710678
   vertex -1653.740782 -2705.611857 -510.876143
   vertex -1384.309554 -2238.956970 -510.876143
  endloop
 endfacet
 facet normal -0.651108 0.375928 -0.659346
  outer loop
   vertex -1646.271666 -2709.924280 -520.710678
   vertex -1384.309554 -2238.956970 -510.876143
   vertex -1376.840438 -2243.269393 -520.710678
  endloop
 endfacet
 facet normal -0.720069 0.415744 -0.555570
  outer loop
   vertex -1653.740782 -2705.611857 -510.876143
   vertex -1660.034321 -2701.978174 -500.000000
   vertex -1390.603093 -2235.323287 -500.000000
  endloop
 endfacet
 facet normal -0.720069 0.415744 -0.555570
  outer loop
   vertex -1653.740782 -2705.611857 -510.876143
   vertex -1390.603093 -2235.323287 -500.000000
   vertex -1384.309554 -2238.956970 -510.876143
  endloop
 endfacet
 facet normal -0.776709 0.448446 -0.442289
  outer loop
   vertex -1660.034321 -2701.978174 -500.000000
   vertex -1665.044599 -2699.085404 -488.268343
   vertex -1395.613371 -2232.430517 -488.268343
  endloop
 endfacet
 facet normal -0.776709 0.448446 -0.442289
  outer loop
   vertex -1660.034321 -2701.978174 -500.000000
   vertex -1395.613371 -2232.430517 -488.268343
   vertex -1390.603093 -2235.323287 -500.000000
  endloop
 endfacet
 facet normal -0.820060 0.473475 -0.321439
  outer loop
   vertex -1665.044599 -2699.085404 -488.268343
   vertex -1668.685888 -2696.983043 -475.881905
   vertex -1399.254660 -2230.328156 -475.881905
  endloop
 endfacet
 facet normal -0.820060 0.473475 -0.321439
  outer loop
   vertex -1665.044599 -2699.085404 -488.268343
   vertex -1399.254660 -2230.328156 -475.881905
   vertex -1395.613371 -2232.430517 -488.268343
  endloop
 endfacet
 facet normal -0.849379 0.490403 -0.195090
  outer loop
   vertex -1668.685888 -2696.983043 -475.881905
   vertex -1670.895885 -2695.707063 -463.052619
   vertex -1401.464657 -2229.052177 -463.052619
  endloop
 endfacet
 facet normal -0.849379 0.490403 -0.195090
  outer loop
   vertex -1668.685888 -2696.983043 -475.881905
   vertex -1401.464657 -2229.052177 -463.052619
   vertex -1399.254660 -2230.328156 -475.881905
  endloop
 endfacet
 facet normal -0.864165 0.498940 -0.065403
  outer loop
   vertex -1670.895885 -2695.707063 -463.052619
   vertex -1671.636776 -2695.279297 -450.000000
   vertex -1402.205549 -2228.624410 -450.000000
  endloop
 endfacet
 facet normal -0.864165 0.498940 -0.065403
  outer loop
   vertex -1670.895885 -2695.707063 -463.052619
   vertex -1402.205549 -2228.624410 -450.000000
   vertex -1401.464657 -2229.052177 -463.052619
  endloop
 endfacet
 facet normal 0.864165 -0.498940 -0.065403
  outer loop
   vertex -1391.161336 -2235.000977 -438.513695
   vertex -1660.592563 -2701.655863 -438.513695
   vertex -1661.244548 -2701.279429 -450.000000
  endloop
 endfacet
 facet normal 0.864165 -0.498940 -0.065403
  outer loop
   vertex -1391.813320 -2234.624542 -450.000000
   vertex -1391.161336 -2235.000977 -438.513695
   vertex -1661.244548 -2701.279429 -450.000000
  endloop
 endfacet
 facet normal 0.849379 -0.490403 -0.195090
  outer loop
   vertex -1389.216538 -2236.123839 -427.223924
   vertex -1658.647766 -2702.778725 -427.223924
   vertex -1660.592563 -2701.655863 -438.513695
  endloop
 endfacet
 facet normal 0.849379 -0.490403 -0.195090
  outer loop
   vertex -1391.161336 -2235.000977 -438.513695
   vertex -1389.216538 -2236.123839 -427.223924
   vertex -1660.592563 -2701.655863 -438.513695
  endloop
 endfacet
 facet normal 0.820060 -0.473475 -0.321439
  outer loop
   vertex -1386.012204 -2237.973916 -416.323858
   vertex -1655.443432 -2704.628803 -416.323858
   vertex -1658.647766 -2702.778725 -427.223924
  endloop
 endfacet
 facet normal 0.820060 -0.473475 -0.321439
  outer loop
   vertex -1389.216538 -2236.123839 -427.223924
   vertex -1386.012204 -2237.973916 -416.323858
   vertex -1658.647766 -2702.778725 -427.223924
  endloop
 endfacet
 facet normal 0.776709 -0.448446 -0.442289
  outer loop
   vertex -1381.603159 -2240.519554 -406.000000
   vertex -1651.034387 -2707.174441 -406.000000
   vertex -1655.443432 -2704.628803 -416.323858
  endloop
 endfacet
 facet normal 0.776709 -0.448446 -0.442289
  outer loop
   vertex -1386.012204 -2237.973916 -416.323858
   vertex -1381.603159 -2240.519554 -406.000000
   vertex -1655.443432 -2704.628803 -416.323858
  endloop
 endfacet
 facet normal 0.720069 -0.415744 -0.555570
  outer loop
   vertex -1376.064845 -2243.717195 -396.428994
   vertex -1645.496073 -2710.372082 -396.428994
   vertex -1651.034387 -2707.174441 -406.000000
  endloop
 endfacet
 facet normal 0.720069 -0.415744 -0.555570
  outer loop
   vertex -1381.603159 -2240.519554 -406.000000
   vertex -1376.064845 -2243.717195 -396.428994
   vertex -1651.034387 -2707.174441 -406.000000
  endloop
 endfacet
 facet normal 0.651108 -0.375928 -0.659346
  outer loop
   vertex -1369.492022 -2247.512127 -387.774603
   vertex -1638.923250 -2714.167014 -387.774603
   vertex -1645.496073 -2710.372082 -396.428994
  endloop
 endfacet
 facet normal 0.651108 -0.375928 -0.659346
  outer loop
   vertex -1376.064845 -2243.717195 -396.428994
   vertex -1369.492022 -2247.512127 -387.774603
   vertex -1645.496073 -2710.372082 -396.428994
  endloop
 endfacet
 facet normal 0.571006 -0.329680 -0.751840
  outer loop
   vertex -1361.997155 -2251.839418 -380.184906
   vertex -1631.428383 -2718.494305 -380.184906
   vertex -1638.923250 -2714.167014 -387.774603
  endloop
 endfacet
 facet normal 0.571006 -0.329680 -0.751840
  outer loop
   vertex -1369.492022 -2247.512127 -387.774603
   vertex -1361.997155 -2251.839418 -380.184906
   vertex -1638.923250 -2714.167014 -387.774603
  endloop
 endfacet
 facet normal 0.481134 -0.277791 -0.831470
  outer loop
   vertex -1353.708482 -2256.625026 -373.789764
   vertex -1623.139709 -2723.279913 -373.789764
   vertex -1631.428383 -2718.494305 -380.184906
  endloop
 endfacet
 facet normal 0.481134 -0.277791 -0.831470
  outer loop
   vertex -1361.997155 -2251.839418 -380.184906
   vertex -1353.708482 -2256.625026 -373.789764
   vertex -1631.428383 -2718.494305 -380.184906
  endloop
 endfacet
 facet normal 0.383030 -0.221149 -0.896873
  outer loop
   vertex -1344.767824 -2261.787069 -368.698601
   vertex -1614.199052 -2728.441955 -368.698601
   vertex -1623.139709 -2723.279913 -373.789764
  endloop
 endfacet
 facet normal 0.383030 -0.221149 -0.896873
  outer loop
   vertex -1353.708482 -2256.625026 -373.789764
   vertex -1344.767824 -2261.787069 -368.698601
   vertex -1623.139709 -2723.279913 -373.789764
  endloop
 endfacet
 facet normal 0.278373 -0.160723 -0.946930
  outer loop
   vertex -1335.328159 -2267.237222 -364.998527
   vertex -1604.759387 -2733.892108 -364.998527
   vertex -1614.199052 -2728.441955 -368.698601
  endloop
 endfacet
 facet normal 0.278373 -0.160723 -0.946930
  outer loop
   vertex -1344.767824 -2261.787069 -368.698601
   vertex -1335.328159 -2267.237222 -364.998527
   vertex -1614.199052 -2728.441955 -368.698601
  endloop
 endfacet
 facet normal 0.168952 -0.097547 -0.980785
  outer loop
   vertex -1325.551002 -2272.882231 -362.752852
   vertex -1594.982230 -2739.537118 -362.752852
   vertex -1604.759387 -2733.892108 -364.998527
  endloop
 endfacet
 facet normal 0.168952 -0.097547 -0.980785
  outer loop
   vertex -1335.328159 -2267.237222 -364.998527
   vertex -1325.551002 -2272.882231 -362.752852
   vertex -1604.759387 -2733.892108 -364.998527
  endloop
 endfacet
 facet normal 0.056640 -0.032702 -0.997859
  outer loop
   vertex -1315.603643 -2278.625510 -362.000000
   vertex -1585.034871 -2745.280397 -362.000000
   vertex -1594.982230 -2739.537118 -362.752852
  endloop
 endfacet
 facet normal 0.056640 -0.032702 -0.997859
  outer loop
   vertex -1325.551002 -2272.882231 -362.752852
   vertex -1315.603643 -2278.625510 -362.000000
   vertex -1594.982230 -2739.537118 -362.752852
  endloop
 endfacet
 facet normal -0.056640 0.032702 -0.997859
  outer loop
   vertex -1305.656284 -2284.368789 -362.752852
   vertex -1575.087512 -2751.023676 -362.752852
   vertex -1585.034871 -2745.280397 -362.000000
  endloop
 endfacet
 facet normal -0.056640 0.032702 -0.997859
  outer loop
   vertex -1315.603643 -2278.625510 -362.000000
   vertex -1305.656284 -2284.368789 -362.752852
   vertex -1585.034871 -2745.280397 -362.000000
  endloop
 endfacet
 facet normal -0.168952 0.097547 -0.980785
  outer loop
   vertex -1295.879128 -2290.013799 -364.998527
   vertex -1565.310355 -2756.668685 -364.998527
   vertex -1575.087512 -2751.023676 -362.752852
  endloop
 endfacet
 facet normal -0.168952 0.097547 -0.980785
  outer loop
   vertex -1305.656284 -2284.368789 -362.752852
   vertex -1295.879128 -2290.013799 -364.998527
   vertex -1575.087512 -2751.023676 -362.752852
  endloop
 endfacet
 facet normal -0.278373 0.160723 -0.946930
  outer loop
   vertex -1286.439463 -2295.463952 -368.698601
   vertex -1555.870691 -2762.118838 -368.698601
   vertex -1565.310355 -2756.668685 -364.998527
  endloop
 endfacet
 facet normal -0.278373 0.160723 -0.946930
  outer loop
   vertex -1295.879128 -2290.013799 -364.998527
   vertex -1286.439463 -2295.463952 -368.698601
   vertex -1565.310355 -2756.668685 -364.998527
  endloop
 endfacet
 facet normal -0.383030 0.221149 -0.896873
  outer loop
   vertex -1277.498805 -2300.625994 -373.789764
   vertex -1546.930033 -2767.280881 -373.789764
   vertex -1555.870691 -2762.118838 -368.698601
  endloop
 endfacet
 facet normal -0.383030 0.221149 -0.896873
  outer loop
   vertex -1286.439463 -2295.463952 -368.698601
   vertex -1277.498805 -2300.625994 -373.789764
   vertex -1555.870691 -2762.118838 -368.698601
  endloop
 endfacet
 facet normal -0.481134 0.277791 -0.831470
  outer loop
   vertex -1269.210132 -2305.411602 -380.184906
   vertex -1538.641360 -2772.066489 -380.184906
   vertex -1546.930033 -2767.280881 -373.789764
  endloop
 endfacet
 facet normal -0.481134 0.277791 -0.831470
  outer loop
   vertex -1277.498805 -2300.625994 -373.789764
   vertex -1269.210132 -2305.411602 -380.184906
   vertex -1546.930033 -2767.280881 -373.789764
  endloop
 endfacet
 facet normal -0.571006 0.329680 -0.751840
  outer loop
   vertex -1261.715264 -2309.738893 -387.774603
   vertex -1531.146492 -2776.393780 -387.774603
   vertex -1538.641360 -2772.066489 -380.184906
  endloop
 endfacet
 facet normal -0.571006 0.329680 -0.751840
  outer loop
   vertex -1269.210132 -2305.411602 -380.184906
   vertex -1261.715264 -2309.738893 -387.774603
   vertex -1538.641360 -2772.066489 -380.184906
  endloop
 endfacet
 facet normal -0.651108 0.375928 -0.659346
  outer loop
   vertex -1255.142442 -2313.533825 -396.428994
   vertex -1524.573670 -2780.188712 -396.428994
   vertex -1531.146492 -2776.393780 -387.774603
  endloop
 endfacet
 facet normal -0.651108 0.375928 -0.659346
  outer loop
   vertex -1261.715264 -2309.738893 -387.774603
   vertex -1255.142442 -2313.533825 -396.428994
   vertex -1531.146492 -2776.393780 -387.774603
  endloop
 endfacet
 facet normal -0.720069 0.415744 -0.555570
  outer loop
   vertex -1249.604127 -2316.731466 -406.000000
   vertex -1519.035355 -2783.386353 -406.000000
   vertex -1524.573670 -2780.188712 -396.428994
  endloop
 endfacet
 facet normal -0.720069 0.415744 -0.555570
  outer loop
   vertex -1255.142442 -2313.533825 -396.428994
   vertex -1249.604127 -2316.731466 -406.000000
   vertex -1524.573670 -2780.188712 -396.428994
  endloop
 endfacet
 facet normal -0.776709 0.448446 -0.442289
  outer loop
   vertex -1245.195083 -2319.277104 -416.323858
   vertex -1514.626311 -2785.931991 -416.323858
   vertex -1519.035355 -2783.386353 -406.000000
  endloop
 endfacet
 facet normal -0.776709 0.448446 -0.442289
  outer loop
   vertex -1249.604127 -2316.731466 -406.000000
   vertex -1245.195083 -2319.277104 -416.323858
   vertex -1519.035355 -2783.386353 -406.000000
  endloop
 endfacet
 facet normal -0.820060 0.473475 -0.321439
  outer loop
   vertex -1241.990748 -2321.127182 -427.223924
   vertex -1511.421976 -2787.782068 -427.223924
   vertex -1514.626311 -2785.931991 -416.323858
  endloop
 endfacet
 facet normal -0.820060 0.473475 -0.321439
  outer loop
   vertex -1245.195083 -2319.277104 -416.323858
   vertex -1241.990748 -2321.127182 -427.223924
   vertex -1514.626311 -2785.931991 -416.323858
  endloop
 endfacet
 facet normal -0.849379 0.490403 -0.195090
  outer loop
   vertex -1240.045951 -2322.250044 -438.513695
   vertex -1509.477179 -2788.904930 -438.513695
   vertex -1511.421976 -2787.782068 -427.223924
  endloop
 endfacet
 facet normal -0.849379 0.490403 -0.195090
  outer loop
   vertex -1241.990748 -2321.127182 -427.223924
   vertex -1240.045951 -2322.250044 -438.513695
   vertex -1511.421976 -2787.782068 -427.223924
  endloop
 endfacet
 facet normal -0.864165 0.498940 -0.065403
  outer loop
   vertex -1239.393967 -2322.626478 -450.000000
   vertex -1508.825195 -2789.281365 -450.000000
   vertex -1509.477179 -2788.904930 -438.513695
  endloop
 endfacet
 facet normal -0.864165 0.498940 -0.065403
  outer loop
   vertex -1240.045951 -2322.250044 -438.513695
   vertex -1239.393967 -2322.626478 -450.000000
   vertex -1509.477179 -2788.904930 -438.513695
  endloop
 endfacet
 facet normal -0.864165 0.498940 0.065403
  outer loop
   vertex -1240.045951 -2322.250044 -461.486305
   vertex -1509.477179 -2788.904930 -461.486305
   vertex -1508.825195 -2789.281365 -450.000000
  endloop
 endfacet
 facet normal -0.864165 0.498940 0.065403
  outer loop
   vertex -1239.393967 -2322.626478 -450.000000
   vertex -1240.045951 -2322.250044 -461.486305
   vertex -1508.825195 -2789.281365 -450.000000
  endloop
 endfacet
 facet normal -0.849379 0.490403 0.195090
  outer loop
   vertex -1241.990748 -2321.127182 -472.776076
   vertex -1511.421976 -2787.782068 -472.776076
   vertex -1509.477179 -2788.904930 -461.486305
  endloop
 endfacet
 facet normal -0.849379 0.490403 0.195090
  outer loop
   vertex -1240.045951 -2322.250044 -461.486305
   vertex -1241.990748 -2321.127182 -472.776076
   vertex -1509.477179 -2788.904930 -461.486305
  endloop
 endfacet
 facet normal -0.820060 0.473475 0.321439
  outer loop
   vertex -1245.195083 -2319.277104 -483.676142
   vertex -1514.626311 -2785.931991 -483.676142
   vertex -1511.421976 -2787.782068 -472.776076
  endloop
 endfacet
 facet normal -0.820060 0.473475 0.321439
  outer loop
   vertex -1241.990748 -2321.127182 -472.776076
   vertex -1245.195083 -2319.277104 -483.676142
   vertex -1511.421976 -2787.782068 -472.776076
  endloop
 endfacet
 facet normal -0.776709 0.448446 0.442289
  outer loop
   vertex -1249.604127 -2316.731466 -494.000000
   vertex -1519.035355 -2783.386353 -494.000000
   vertex -1514.626311 -2785.931991 -483.676142
  endloop
 endfacet
 facet normal -0.776709 0.448446 0.442289
  outer loop
   vertex -1245.195083 -2319.277104 -483.676142
   vertex -1249.604127 -2316.731466 -494.000000
   vertex -1514.626311 -2785.931991 -483.676142
  endloop
 endfacet
 facet normal -0.720069 0.415744 0.555570
  outer loop
   vertex -1255.142442 -2313.533825 -503.571006
   vertex -1524.573670 -2780.188712 -503.571006
   vertex -1519.035355 -2783.386353 -494.000000
  endloop
 endfacet
 facet normal -0.720069 0.415744 0.555570
  outer loop
   vertex -1249.604127 -2316.731466 -494.000000
   vertex -1255.142442 -2313.533825 -503.571006
   vertex -1519.035355 -2783.386353 -494.000000
  endloop
 endfacet
 facet normal -0.651108 0.375928 0.659346
  outer loop
   vertex -1261.715264 -2309.738893 -512.225397
   vertex -1531.146492 -2776.393780 -512.225397
   vertex -1524.573670 -2780.188712 -503.571006
  endloop
 endfacet
 facet normal -0.651108 0.375928 0.659346
  outer loop
   vertex -1255.142442 -2313.533825 -503.571006
   vertex -1261.715264 -2309.738893 -512.225397
   vertex -1524.573670 -2780.188712 -503.571006
  endloop
 endfacet
 facet normal -0.571006 0.329680 0.751840
  outer loop
   vertex -1269.210132 -2305.411602 -519.815094
   vertex -1538.641360 -2772.066489 -519.815094
   vertex -1531.146492 -2776.393780 -512.225397
  endloop
 endfacet
 facet normal -0.571006 0.329680 0.751840
  outer loop
   vertex -1261.715264 -2309.738893 -512.225397
   vertex -1269.210132 -2305.411602 -519.815094
   vertex -1531.146492 -2776.393780 -512.225397
  endloop
 endfacet
 facet normal -0.481134 0.277791 0.831470
  outer loop
   vertex -1277.498805 -2300.625994 -526.210236
   vertex -1546.930033 -2767.280881 -526.210236
   vertex -1538.641360 -2772.066489 -519.815094
  endloop
 endfacet
 facet normal -0.481134 0.277791 0.831470
  outer loop
   vertex -1269.210132 -2305.411602 -519.815094
   vertex -1277.498805 -2300.625994 -526.210236
   vertex -1538.641360 -2772.066489 -519.815094
  endloop
 endfacet
 facet normal -0.383030 0.221149 0.896873
  outer loop
   vertex -1286.439463 -2295.463952 -531.301399
   vertex -1555.870691 -2762.118838 -531.301399
   vertex -1546.930033 -2767.280881 -526.210236
  endloop
 endfacet
 facet normal -0.383030 0.221149 0.896873
  outer loop
   vertex -1277.498805 -2300.625994 -526.210236
   vertex -1286.439463 -2295.463952 -531.301399
   vertex -1546.930033 -2767.280881 -526.210236
  endloop
 endfacet
 facet normal -0.278373 0.160723 0.946930
  outer loop
   vertex -1295.879128 -2290.013799 -535.001473
   vertex -1565.310355 -2756.668685 -535.001473
   vertex -1555.870691 -2762.118838 -531.301399
  endloop
 endfacet
 facet normal -0.278373 0.160723 0.946930
  outer loop
   vertex -1286.439463 -2295.463952 -531.301399
   vertex -1295.879128 -2290.013799 -535.001473
   vertex -1555.870691 -2762.118838 -531.301399
  endloop
 endfacet
 facet normal -0.168952 0.097547 0.980785
  outer loop
   vertex -1305.656284 -2284.368789 -537.247148
   vertex -1575.087512 -2751.023676 -537.247148
   vertex -1565.310355 -2756.668685 -535.001473
  endloop
 endfacet
 facet normal -0.168952 0.097547 0.980785
  outer loop
   vertex -1295.879128 -2290.013799 -535.001473
   vertex -1305.656284 -2284.368789 -537.247148
   vertex -1565.310355 -2756.668685 -535.001473
  endloop
 endfacet
 facet normal -0.056640 0.032702 0.997859
  outer loop
   vertex -1315.603643 -2278.625510 -538.000000
   vertex -1585.034871 -2745.280397 -538.000000
   vertex -1575.087512 -2751.023676 -537.247148
  endloop
 endfacet
 facet normal -0.056640 0.032702 0.997859
  outer loop
   vertex -1305.656284 -2284.368789 -537.247148
   vertex -1315.603643 -2278.625510 -538.000000
   vertex -1575.087512 -2751.023676 -537.247148
  endloop
 endfacet
 facet normal 0.056640 -0.032702 0.997859
  outer loop
   vertex -1325.551002 -2272.882231 -537.247148
   vertex -1594.982230 -2739.537118 -537.247148
   vertex -1585.034871 -2745.280397 -538.000000
  endloop
 endfacet
 facet normal 0.056640 -0.032702 0.997859
  outer loop
   vertex -1315.603643 -2278.625510 -538.000000
   vertex -1325.551002 -2272.882231 -537.247148
   vertex -1585.034871 -2745.280397 -538.000000
  endloop
 endfacet
 facet normal 0.168952 -0.097547 0.980785
  outer loop
   vertex -1335.328159 -2267.237222 -535.001473
   vertex -1604.759387 -2733.892108 -535.001473
   vertex -1594.982230 -2739.537118 -537.247148
  endloop
 endfacet
 facet normal 0.168952 -0.097547 0.980785
  outer loop
   vertex -1325.551002 -2272.882231 -537.247148
   vertex -1335.328159 -2267.237222 -535.001473
   vertex -1594.982230 -2739.537118 -537.247148
  endloop
 endfacet
 facet normal 0.278373 -0.160723 0.946930
  outer loop
   vertex -1344.767824 -2261.787069 -531.301399
   vertex -1614.199052 -2728.441955 -531.301399
   vertex -1604.759387 -2733.892108 -535.001473
  endloop
 endfacet
 facet normal 0.278373 -0.160723 0.946930
  outer loop
   vertex -1335.328159 -2267.237222 -535.001473
   vertex -1344.767824 -2261.787069 -531.301399
   vertex -1604.759387 -2733.892108 -535.001473
  endloop
 endfacet
 facet normal 0.383030 -0.221149 0.896873
  outer loop
   vertex -1353.708482 -2256.625026 -526.210236
   vertex -1623.139709 -2723.279913 -526.210236
   vertex -1614.199052 -2728.441955 -531.301399
  endloop
 endfacet
 facet normal 0.383030 -0.221149 0.896873
  outer loop
   vertex -1344.767824 -2261.787069 -531.301399
   vertex -1353.708482 -2256.625026 -526.210236
   vertex -1614.199052 -2728.441955 -531.301399
  endloop
 endfacet
 facet normal 0.481134 -0.277791 0.831470
  outer loop
   vertex -1361.997155 -2251.839418 -519.815094
   vertex -1631.428383 -2718.494305 -519.815094
   vertex -1623.139709 -2723.279913 -526.210236
  endloop
 endfacet
 facet normal 0.481134 -0.277791 0.831470
  outer loop
   vertex -1353.708482 -2256.625026 -526.210236
   vertex -1361.997155 -2251.839418 -519.815094
   vertex -1623.139709 -2723.279913 -526.210236
  endloop
 endfacet
 facet normal 0.571006 -0.329680 0.751840
  outer loop
   vertex -1369.492022 -2247.512127 -512.225397
   vertex -1638.923250 -2714.167014 -512.225397
   vertex -1631.428383 -2718.494305 -519.815094
  endloop
 endfacet
 facet normal 0.571006 -0.329680 0.751840
  outer loop
   vertex -1361.997155 -2251.839418 -519.815094
   vertex -1369.492022 -2247.512127 -512.225397
   vertex -1631.428383 -2718.494305 -519.815094
  endloop
 endfacet
 facet normal 0.651108 -0.375928 0.659346
  outer loop
   vertex -1376.064845 -2243.717195 -503.571006
   vertex -1645.496073 -2710.372082 -503.571006
   vertex -1638.923250 -2714.167014 -512.225397
  endloop
 endfacet
 facet normal 0.651108 -0.375928 0.659346
  outer loop
   vertex -1369.492022 -2247.512127 -512.225397
   vertex -1376.064845 -2243.717195 -503.571006
   vertex -1638.923250 -2714.167014 -512.225397
  endloop
 endfacet
 facet normal 0.720069 -0.415744 0.555570
  outer loop
   vertex -1381.603159 -2240.519554 -494.000000
   vertex -1651.034387 -2707.174441 -494.000000
   vertex -1645.496073 -2710.372082 -503.571006
  endloop
 endfacet
 facet normal 0.720069 -0.415744 0.555570
  outer loop
   vertex -1376.064845 -2243.717195 -503.571006
   vertex -1381.603159 -2240.519554 -494.000000
   vertex -1645.496073 -2710.372082 -503.571006
  endloop
 endfacet
 facet normal 0.776709 -0.448446 0.442289
  outer loop
   vertex -1386.012204 -2237.973916 -483.676142
   vertex -1655.443432 -2704.628803 -483.676142
   vertex -1651.034387 -2707.174441 -494.000000
  endloop
 endfacet
 facet normal 0.776709 -0.448446 0.442289
  outer loop
   vertex -1381.603159 -2240.519554 -494.000000
   vertex -1386.012204 -2237.973916 -483.676142
   vertex -1651.034387 -2707.174441 -494.000000
  endloop
 endfacet
 facet normal 0.820060 -0.473475 0.321439
  outer loop
   vertex -1389.216538 -2236.123839 -472.776076
   vertex -1658.647766 -2702.778725 -472.776076
   vertex -1655.443432 -2704.628803 -483.676142
  endloop
 endfacet
 facet normal 0.820060 -0.473475 0.321439
  outer loop
   vertex -1386.012204 -2237.973916 -483.676142
   vertex -1389.216538 -2236.123839 -472.776076
   vertex -1655.443432 -2704.628803 -483.676142
  endloop
 endfacet
 facet normal 0.849379 -0.490403 0.195090
  outer loop
   vertex -1391.161336 -2235.000977 -461.486305
   vertex -1660.592563 -2701.655863 -461.486305
   vertex -1658.647766 -2702.778725 -472.776076
  endloop
 endfacet
 facet normal 0.849379 -0.490403 0.195090
  outer loop
   vertex -1389.216538 -2236.123839 -472.776076
   vertex -1391.161336 -2235.000977 -461.486305
   vertex -1658.647766 -2702.778725 -472.776076
  endloop
 endfacet
 facet normal 0.864165 -0.498940 0.065403
  outer loop
   vertex -1391.813320 -2234.624542 -450.000000
   vertex -1661.244548 -2701.279429 -450.000000
   vertex -1660.592563 -2701.655863 -461.486305
  endloop
 endfacet
 facet normal 0.864165 -0.498940 0.065403
  outer loop
   vertex -1391.161336 -2235.000977 -461.486305
   vertex -1391.813320 -2234.624542 -450.000000
   vertex -1660.592563 -2701.655863 -461.486305
  endloop
 endfacet
endsolid SIC_LOX_feed_3_Hrun
