solid SIC_RP1_feed_3_drop
 facet normal 0.064566 0.955100 -0.289163
  outer loop
   vertex -1315.603643 -2182.618227 -1067.975018
   vertex -1302.718024 -2184.021818 -1069.733856
   vertex -1417.118340 -2382.163167 -1749.733856
  endloop
 endfacet
 facet normal 0.064566 0.955100 -0.289163
  outer loop
   vertex -1315.603643 -2182.618227 -1067.975018
   vertex -1417.118340 -2382.163167 -1749.733856
   vertex -1430.003960 -2380.759576 -1747.975018
  endloop
 endfacet
 facet normal 0.192594 0.932923 -0.304240
  outer loop
   vertex -1302.718024 -2184.021818 -1069.733856
   vertex -1290.052880 -2187.044104 -1070.983939
   vertex -1404.453197 -2385.185452 -1750.983939
  endloop
 endfacet
 facet normal 0.192594 0.932923 -0.304240
  outer loop
   vertex -1302.718024 -2184.021818 -1069.733856
   vertex -1404.453197 -2385.185452 -1750.983939
   vertex -1417.118340 -2382.163167 -1749.733856
  endloop
 endfacet
 facet normal 0.317327 0.894784 -0.314112
  outer loop
   vertex -1290.052880 -2187.044104 -1070.983939
   vertex -1277.824918 -2191.633373 -1071.703879
   vertex -1392.225235 -2389.774722 -1751.703879
  endloop
 endfacet
 facet normal 0.317327 0.894784 -0.314112
  outer loop
   vertex -1290.052880 -2187.044104 -1070.983939
   vertex -1392.225235 -2389.774722 -1751.703879
   vertex -1404.453197 -2385.185452 -1750.983939
  endloop
 endfacet
 facet normal 0.436630 0.841334 -0.318608
  outer loop
   vertex -1277.824918 -2191.633373 -1071.703879
   vertex -1266.243360 -2197.711102 -1071.881356
   vertex -1380.643676 -2395.852450 -1751.881356
  endloop
 endfacet
 facet normal 0.436630 0.841334 -0.318608
  outer loop
   vertex -1277.824918 -2191.633373 -1071.703879
   vertex -1380.643676 -2395.852450 -1751.881356
   vertex -1392.225235 -2389.774722 -1751.703879
  endloop
 endfacet
 facet normal 0.548462 0.773489 -0.317654
  outer loop
   vertex -1266.243360 -2197.711102 -1071.881356
   vertex -1255.506370 -2205.173298 -1071.513335
   vertex -1369.906687 -2403.314647 -1751.513335
  endloop
 endfacet
 facet normal 0.548462 0.773489 -0.317654
  outer loop
   vertex -1266.243360 -2197.711102 -1071.881356
   vertex -1369.906687 -2403.314647 -1751.513335
   vertex -1380.643676 -2395.852450 -1751.881356
  endloop
 endfacet
 facet normal 0.650910 0.692410 -0.311264
  outer loop
   vertex -1255.506370 -2205.173298 -1071.513335
   vertex -1245.797661 -2213.892283 -1070.606111
   vertex -1360.197978 -2412.033631 -1750.606111
  endloop
 endfacet
 facet normal 0.650910 0.692410 -0.311264
  outer loop
   vertex -1255.506370 -2205.173298 -1071.513335
   vertex -1360.197978 -2412.033631 -1750.606111
   vertex -1369.906687 -2403.314647 -1751.513335
  endloop
 endfacet
 facet normal 0.742221 0.599483 -0.299548
  outer loop
   vertex -1245.797661 -2213.892283 -1070.606111
   vertex -1237.283352 -2223.718870 -1069.175209
   vertex -1351.683668 -2421.860219 -1749.175209
  endloop
 endfacet
 facet normal 0.742221 0.599483 -0.299548
  outer loop
   vertex -1245.797661 -2213.892283 -1070.606111
   vertex -1351.683668 -2421.860219 -1749.175209
   vertex -1360.197978 -2412.033631 -1750.606111
  endloop
 endfacet
 facet normal 0.820832 0.496299 -0.282707
  outer loop
   vertex -1237.283352 -2223.718870 -1069.175209
   vertex -1230.109124 -2234.484926 -1067.245110
   vertex -1344.509441 -2432.626275 -1747.245110
  endloop
 endfacet
 facet normal 0.820832 0.496299 -0.282707
  outer loop
   vertex -1237.283352 -2223.718870 -1069.175209
   vertex -1344.509441 -2432.626275 -1747.245110
   vertex -1351.683668 -2421.860219 -1749.175209
  endloop
 endfacet
 facet normal 0.885398 0.384623 -0.261029
  outer loop
   vertex -1230.109124 -2234.484926 -1067.245110
   vertex -1224.397732 -2246.006239 -1064.848840
   vertex -1338.798049 -2444.147588 -1744.848840
  endloop
 endfacet
 facet normal 0.885398 0.384623 -0.261029
  outer loop
   vertex -1230.109124 -2234.484926 -1067.245110
   vertex -1338.798049 -2444.147588 -1744.848840
   vertex -1344.509441 -2432.626275 -1747.245110
  endloop
 endfacet
 facet normal 0.934815 0.266366 -0.234884
  outer loop
   vertex -1224.397732 -2246.006239 -1064.848840
   vertex -1220.246898 -2258.085678 -1062.027400
   vertex -1334.647215 -2456.227026 -1742.027400
  endloop
 endfacet
 facet normal 0.934815 0.266366 -0.234884
  outer loop
   vertex -1224.397732 -2246.006239 -1064.848840
   vertex -1334.647215 -2456.227026 -1742.027400
   vertex -1338.798049 -2444.147588 -1744.848840
  endloop
 endfacet
 facet normal 0.968237 0.143551 -0.204721
  outer loop
   vertex -1220.246898 -2258.085678 -1062.027400
   vertex -1217.727644 -2270.516558 -1058.829065
   vertex -1332.127961 -2468.657907 -1738.829065
  endloop
 endfacet
 facet normal 0.968237 0.143551 -0.204721
  outer loop
   vertex -1220.246898 -2258.085678 -1062.027400
   vertex -1332.127961 -2468.657907 -1738.829065
   vertex -1334.647215 -2456.227026 -1742.027400
  endloop
 endfacet
 facet normal 0.985092 0.018281 -0.171054
  outer loop
   vertex -1217.727644 -2270.516558 -1058.829065
   vertex -1216.883076 -2283.086185 -1055.308559
   vertex -1331.283393 -2481.227533 -1735.308559
  endloop
 endfacet
 facet normal 0.985092 0.018281 -0.171054
  outer loop
   vertex -1217.727644 -2270.516558 -1058.829065
   vertex -1331.283393 -2481.227533 -1735.308559
   vertex -1332.127961 -2468.657907 -1738.829065
  endloop
 endfacet
 facet normal 0.985092 -0.107303 -0.134461
  outer loop
   vertex -1216.883076 -2283.086185 -1055.308559
   vertex -1217.727644 -2295.579488 -1051.526120
   vertex -1332.127961 -2493.720837 -1731.526120
  endloop
 endfacet
 facet normal 0.985092 -0.107303 -0.134461
  outer loop
   vertex -1216.883076 -2283.086185 -1055.308559
   vertex -1332.127961 -2493.720837 -1731.526120
   vertex -1331.283393 -2481.227533 -1735.308559
  endloop
 endfacet
 facet normal 0.968237 -0.231051 -0.095568
  outer loop
   vertex -1217.727644 -2295.579488 -1051.526120
   vertex -1220.246898 -2307.782704 -1047.546465
   vertex -1334.647215 -2505.924053 -1727.546465
  endloop
 endfacet
 facet normal 0.968237 -0.231051 -0.095568
  outer loop
   vertex -1217.727644 -2295.579488 -1051.526120
   vertex -1334.647215 -2505.924053 -1727.546465
   vertex -1332.127961 -2493.720837 -1731.526120
  endloop
 endfacet
 facet normal 0.934815 -0.350845 -0.055039
  outer loop
   vertex -1220.246898 -2307.782704 -1047.546465
   vertex -1224.397732 -2319.487032 -1043.437688
   vertex -1338.798049 -2517.628381 -1723.437688
  endloop
 endfacet
 facet normal 0.934815 -0.350845 -0.055039
  outer loop
   vertex -1220.246898 -2307.782704 -1047.546465
   vertex -1338.798049 -2517.628381 -1723.437688
   vertex -1334.647215 -2505.924053 -1727.546465
  endloop
 endfacet
 facet normal 0.885398 -0.464636 -0.013568
  outer loop
   vertex -1224.397732 -2319.487032 -1043.437688
   vertex -1230.109124 -2330.492209 -1039.270092
   vertex -1344.509441 -2528.633558 -1719.270092
  endloop
 endfacet
 facet normal 0.885398 -0.464636 -0.013568
  outer loop
   vertex -1224.397732 -2319.487032 -1043.437688
   vertex -1344.509441 -2528.633558 -1719.270092
   vertex -1338.798049 -2517.628381 -1723.437688
  endloop
 endfacet
 facet normal 0.820832 -0.570477 0.028135
  outer loop
   vertex -1230.109124 -2330.492209 -1039.270092
   vertex -1237.283352 -2340.609932 -1035.114984
   vertex -1351.683668 -2538.751280 -1715.114984
  endloop
 endfacet
 facet normal 0.820832 -0.570477 0.028135
  outer loop
   vertex -1230.109124 -2330.492209 -1039.270092
   vertex -1351.683668 -2538.751280 -1715.114984
   vertex -1344.509441 -2528.633558 -1719.270092
  endloop
 endfacet
 facet normal 0.742221 -0.666557 0.069356
  outer loop
   vertex -1237.283352 -2340.609932 -1035.114984
   vertex -1245.797661 -2349.667084 -1031.043461
   vertex -1360.197978 -2547.808433 -1711.043461
  endloop
 endfacet
 facet normal 0.742221 -0.666557 0.069356
  outer loop
   vertex -1237.283352 -2340.609932 -1035.114984
   vertex -1360.197978 -2547.808433 -1711.043461
   vertex -1351.683668 -2538.751280 -1715.114984
  endloop
 endfacet
 facet normal 0.650910 -0.751232 0.109391
  outer loop
   vertex -1245.797661 -2349.667084 -1031.043461
   vertex -1255.506370 -2357.508695 -1027.125186
   vertex -1369.906687 -2555.650044 -1707.125186
  endloop
 endfacet
 facet normal 0.650910 -0.751232 0.109391
  outer loop
   vertex -1245.797661 -2349.667084 -1031.043461
   vertex -1369.906687 -2555.650044 -1707.125186
   vertex -1360.197978 -2547.808433 -1711.043461
  endloop
 endfacet
 facet normal 0.548462 -0.823054 0.147554
  outer loop
   vertex -1255.506370 -2357.508695 -1027.125186
   vertex -1266.243360 -2364.000593 -1023.427203
   vertex -1380.643676 -2562.141942 -1703.427203
  endloop
 endfacet
 facet normal 0.548462 -0.823054 0.147554
  outer loop
   vertex -1255.506370 -2357.508695 -1027.125186
   vertex -1380.643676 -2562.141942 -1703.427203
   vertex -1369.906687 -2555.650044 -1707.125186
  endloop
 endfacet
 facet normal 0.436630 -0.880792 0.183192
  outer loop
   vertex -1266.243360 -2364.000593 -1023.427203
   vertex -1277.824918 -2369.031700 -1020.012785
   vertex -1392.225235 -2567.173049 -1700.012785
  endloop
 endfacet
 facet normal 0.436630 -0.880792 0.183192
  outer loop
   vertex -1266.243360 -2364.000593 -1023.427203
   vertex -1392.225235 -2567.173049 -1700.012785
   vertex -1380.643676 -2562.141942 -1703.427203
  endloop
 endfacet
 facet normal 0.317327 -0.923460 0.215696
  outer loop
   vertex -1277.824918 -2369.031700 -1020.012785
   vertex -1290.052880 -2372.515932 -1016.940354
   vertex -1404.453197 -2570.657280 -1696.940354
  endloop
 endfacet
 facet normal 0.317327 -0.923460 0.215696
  outer loop
   vertex -1277.824918 -2369.031700 -1020.012785
   vertex -1404.453197 -2570.657280 -1696.940354
   vertex -1392.225235 -2567.173049 -1700.012785
  endloop
 endfacet
 facet normal 0.192594 -0.950328 0.244509
  outer loop
   vertex -1290.052880 -2372.515932 -1016.940354
   vertex -1302.718024 -2374.393672 -1014.262480
   vertex -1417.118340 -2572.535021 -1694.262480
  endloop
 endfacet
 facet normal 0.192594 -0.950328 0.244509
  outer loop
   vertex -1290.052880 -2372.515932 -1016.940354
   vertex -1417.118340 -2572.535021 -1694.262480
   vertex -1404.453197 -2570.657280 -1696.940354
  endloop
 endfacet
 facet normal 0.064566 -0.960935 0.269139
  outer loop
   vertex -1302.718024 -2374.393672 -1014.262480
   vertex -1315.603643 -2374.632793 -1012.024982
   vertex -1430.003960 -2572.774142 -1692.024982
  endloop
 endfacet
 facet normal 0.064566 -0.960935 0.269139
  outer loop
   vertex -1302.718024 -2374.393672 -1014.262480
   vertex -1430.003960 -2572.774142 -1692.024982
   vertex -1417.118340 -2572.535021 -1694.262480
  endloop
 endfacet
 facet normal -0.064566 -0.955100 0.289163
  outer loop
   vertex -1315.603643 -2374.632793 -1012.024982
   vertex -1328.489263 -2373.229203 -1010.266144
   vertex -1442.889580 -2571.370551 -1690.266144
  endloop
 endfacet
 facet normal -0.064566 -0.955100 0.289163
  outer loop
   vertex -1315.603643 -2374.632793 -1012.024982
   vertex -1442.889580 -2571.370551 -1690.266144
   vertex -1430.003960 -2572.774142 -1692.024982
  endloop
 endfacet
 facet normal -0.192594 -0.932923 0.304240
  outer loop
   vertex -1328.489263 -2373.229203 -1010.266144
   vertex -1341.154406 -2370.206917 -1009.016061
   vertex -1455.554723 -2568.348265 -1689.016061
  endloop
 endfacet
 facet normal -0.192594 -0.932923 0.304240
  outer loop
   vertex -1328.489263 -2373.229203 -1010.266144
   vertex -1455.554723 -2568.348265 -1689.016061
   vertex -1442.889580 -2571.370551 -1690.266144
  endloop
 endfacet
 facet normal -0.317327 -0.894784 0.314112
  outer loop
   vertex -1341.154406 -2370.206917 -1009.016061
   vertex -1353.382369 -2365.617648 -1008.296121
   vertex -1467.782686 -2563.758996 -1688.296121
  endloop
 endfacet
 facet normal -0.317327 -0.894784 0.314112
  outer loop
   vertex -1341.154406 -2370.206917 -1009.016061
   vertex -1467.782686 -2563.758996 -1688.296121
   vertex -1455.554723 -2568.348265 -1689.016061
  endloop
 endfacet
 facet normal -0.436630 -0.841334 0.318608
  outer loop
   vertex -1353.382369 -2365.617648 -1008.296121
   vertex -1364.963927 -2359.539919 -1008.118644
   vertex -1479.364244 -2557.681268 -1688.118644
  endloop
 endfacet
 facet normal -0.436630 -0.841334 0.318608
  outer loop
   vertex -1353.382369 -2365.617648 -1008.296121
   vertex -1479.364244 -2557.681268 -1688.118644
   vertex -1467.782686 -2563.758996 -1688.296121
  endloop
 endfacet
 facet normal -0.548462 -0.773489 0.317654
  outer loop
   vertex -1364.963927 -2359.539919 -1008.118644
   vertex -1375.700917 -2352.077722 -1008.486665
   vertex -1490.101234 -2550.219071 -1688.486665
  endloop
 endfacet
 facet normal -0.548462 -0.773489 0.317654
  outer loop
   vertex -1364.963927 -2359.539919 -1008.118644
   vertex -1490.101234 -2550.219071 -1688.486665
   vertex -1479.364244 -2557.681268 -1688.118644
  endloop
 endfacet
 facet normal -0.650910 -0.692410 0.311264
  outer loop
   vertex -1375.700917 -2352.077722 -1008.486665
   vertex -1385.409626 -2343.358738 -1009.393889
   vertex -1499.809943 -2541.500087 -1689.393889
  endloop
 endfacet
 facet normal -0.650910 -0.692410 0.311264
  outer loop
   vertex -1375.700917 -2352.077722 -1008.486665
   vertex -1499.809943 -2541.500087 -1689.393889
   vertex -1490.101234 -2550.219071 -1688.486665
  endloop
 endfacet
 facet normal -0.742221 -0.599483 0.299548
  outer loop
   vertex -1385.409626 -2343.358738 -1009.393889
   vertex -1393.923935 -2333.532150 -1010.824791
   vertex -1508.324252 -2531.673499 -1690.824791
  endloop
 endfacet
 facet normal -0.742221 -0.599483 0.299548
  outer loop
   vertex -1385.409626 -2343.358738 -1009.393889
   vertex -1508.324252 -2531.673499 -1690.824791
   vertex -1499.809943 -2541.500087 -1689.393889
  endloop
 endfacet
 facet normal -0.820832 -0.496299 0.282707
  outer loop
   vertex -1393.923935 -2333.532150 -1010.824791
   vertex -1401.098162 -2322.766094 -1012.754890
   vertex -1515.498479 -2520.907443 -1692.754890
  endloop
 endfacet
 facet normal -0.820832 -0.496299 0.282707
  outer loop
   vertex -1393.923935 -2333.532150 -1010.824791
   vertex -1515.498479 -2520.907443 -1692.754890
   vertex -1508.324252 -2531.673499 -1690.824791
  endloop
 endfacet
 facet normal -0.885398 -0.384623 0.261029
  outer loop
   vertex -1401.098162 -2322.766094 -1012.754890
   vertex -1406.809555 -2311.244781 -1015.151160
   vertex -1521.209872 -2509.386130 -1695.151160
  endloop
 endfacet
 facet normal -0.885398 -0.384623 0.261029
  outer loop
   vertex -1401.098162 -2322.766094 -1012.754890
   vertex -1521.209872 -2509.386130 -1695.151160
   vertex -1515.498479 -2520.907443 -1692.754890
  endloop
 endfacet
 facet normal -0.934815 -0.266366 0.234884
  outer loop
   vertex -1406.809555 -2311.244781 -1015.151160
   vertex -1410.960389 -2299.165343 -1017.972600
   vertex -1525.360706 -2497.306692 -1697.972600
  endloop
 endfacet
 facet normal -0.934815 -0.266366 0.234884
  outer loop
   vertex -1406.809555 -2311.244781 -1015.151160
   vertex -1525.360706 -2497.306692 -1697.972600
   vertex -1521.209872 -2509.386130 -1695.151160
  endloop
 endfacet
 facet normal -0.968237 -0.143551 0.204721
  outer loop
   vertex -1410.960389 -2299.165343 -1017.972600
   vertex -1413.479642 -2286.734463 -1021.170935
   vertex -1527.879959 -2484.875811 -1701.170935
  endloop
 endfacet
 facet normal -0.968237 -0.143551 0.204721
  outer loop
   vertex -1410.960389 -2299.165343 -1017.972600
   vertex -1527.879959 -2484.875811 -1701.170935
   vertex -1525.360706 -2497.306692 -1697.972600
  endloop
 endfacet
 facet normal -0.985092 -0.018281 0.171054
  outer loop
   vertex -1413.479642 -2286.734463 -1021.170935
   vertex -1414.324211 -2274.164836 -1024.691441
   vertex -1528.724527 -2472.306185 -1704.691441
  endloop
 endfacet
 facet normal -0.985092 -0.018281 0.171054
  outer loop
   vertex -1413.479642 -2286.734463 -1021.170935
   vertex -1528.724527 -2472.306185 -1704.691441
   vertex -1527.879959 -2484.875811 -1701.170935
  endloop
 endfacet
 facet normal -0.985092 0.107303 0.134461
  outer loop
   vertex -1414.324211 -2274.164836 -1024.691441
   vertex -1413.479642 -2261.671533 -1028.473880
   vertex -1527.879959 -2459.812881 -1708.473880
  endloop
 endfacet
 facet normal -0.985092 0.107303 0.134461
  outer loop
   vertex -1414.324211 -2274.164836 -1024.691441
   vertex -1527.879959 -2459.812881 -1708.473880
   vertex -1528.724527 -2472.306185 -1704.691441
  endloop
 endfacet
 facet normal -0.968237 0.231051 0.095568
  outer loop
   vertex -1413.479642 -2261.671533 -1028.473880
   vertex -1410.960389 -2249.468316 -1032.453535
   vertex -1525.360706 -2447.609665 -1712.453535
  endloop
 endfacet
 facet normal -0.968237 0.231051 0.095568
  outer loop
   vertex -1413.479642 -2261.671533 -1028.473880
   vertex -1525.360706 -2447.609665 -1712.453535
   vertex -1527.879959 -2459.812881 -1708.473880
  endloop
 endfacet
 facet normal -0.934815 0.350845 0.055039
  outer loop
   vertex -1410.960389 -2249.468316 -1032.453535
   vertex -1406.809555 -2237.763988 -1036.562312
   vertex -1521.209872 -2435.905337 -1716.562312
  endloop
 endfacet
 facet normal -0.934815 0.350845 0.055039
  outer loop
   vertex -1410.960389 -2249.468316 -1032.453535
   vertex -1521.209872 -2435.905337 -1716.562312
   vertex -1525.360706 -2447.609665 -1712.453535
  endloop
 endfacet
 facet normal -0.885398 0.464636 0.013568
  outer loop
   vertex -1406.809555 -2237.763988 -1036.562312
   vertex -1401.098162 -2226.758812 -1040.729908
   vertex -1515.498479 -2424.900160 -1720.729908
  endloop
 endfacet
 facet normal -0.885398 0.464636 0.013568
  outer loop
   vertex -1406.809555 -2237.763988 -1036.562312
   vertex -1515.498479 -2424.900160 -1720.729908
   vertex -1521.209872 -2435.905337 -1716.562312
  endloop
 endfacet
 facet normal -0.820832 0.570477 -0.028135
  outer loop
   vertex -1401.098162 -2226.758812 -1040.729908
   vertex -1393.923935 -2216.641089 -1044.885016
   vertex -1508.324252 -2414.782437 -1724.885016
  endloop
 endfacet
 facet normal -0.820832 0.570477 -0.028135
  outer loop
   vertex -1401.098162 -2226.758812 -1040.729908
   vertex -1508.324252 -2414.782437 -1724.885016
   vertex -1515.498479 -2424.900160 -1720.729908
  endloop
 endfacet
 facet normal -0.742221 0.666557 -0.069356
  outer loop
   vertex -1393.923935 -2216.641089 -1044.885016
   vertex -1385.409626 -2207.583936 -1048.956539
   vertex -1499.809943 -2405.725285 -1728.956539
  endloop
 endfacet
 facet normal -0.742221 0.666557 -0.069356
  outer loop
   vertex -1393.923935 -2216.641089 -1044.885016
   vertex -1499.809943 -2405.725285 -1728.956539
   vertex -1508.324252 -2414.782437 -1724.885016
  endloop
 endfacet
 facet normal -0.650910 0.751232 -0.109391
  outer loop
   vertex -1385.409626 -2207.583936 -1048.956539
   vertex -1375.700917 -2199.742325 -1052.874814
   vertex -1490.101234 -2397.883674 -1732.874814
  endloop
 endfacet
 facet normal -0.650910 0.751232 -0.109391
  outer loop
   vertex -1385.409626 -2207.583936 -1048.956539
   vertex -1490.101234 -2397.883674 -1732.874814
   vertex -1499.809943 -2405.725285 -1728.956539
  endloop
 endfacet
 facet normal -0.548462 0.823054 -0.147554
  outer loop
   vertex -1375.700917 -2199.742325 -1052.874814
   vertex -1364.963927 -2193.250427 -1056.572797
   vertex -1479.364244 -2391.391776 -1736.572797
  endloop
 endfacet
 facet normal -0.548462 0.823054 -0.147554
  outer loop
   vertex -1375.700917 -2199.742325 -1052.874814
   vertex -1479.364244 -2391.391776 -1736.572797
   vertex -1490.101234 -2397.883674 -1732.874814
  endloop
 endfacet
 facet normal -0.436630 0.880792 -0.183192
  outer loop
   vertex -1364.963927 -2193.250427 -1056.572797
   vertex -1353.382369 -2188.219321 -1059.987215
   vertex -1467.782686 -2386.360669 -1739.987215
  endloop
 endfacet
 facet normal -0.436630 0.880792 -0.183192
  outer loop
   vertex -1364.963927 -2193.250427 -1056.572797
   vertex -1467.782686 -2386.360669 -1739.987215
   vertex -1479.364244 -2391.391776 -1736.572797
  endloop
 endfacet
 facet normal -0.317327 0.923460 -0.215696
  outer loop
   vertex -1353.382369 -2188.219321 -1059.987215
   vertex -1341.154406 -2184.735089 -1063.059646
   vertex -1455.554723 -2382.876438 -1743.059646
  endloop
 endfacet
 facet normal -0.317327 0.923460 -0.215696
  outer loop
   vertex -1353.382369 -2188.219321 -1059.987215
   vertex -1455.554723 -2382.876438 -1743.059646
   vertex -1467.782686 -2386.360669 -1739.987215
  endloop
 endfacet
 facet normal -0.192594 0.950328 -0.244509
  outer loop
   vertex -1341.154406 -2184.735089 -1063.059646
   vertex -1328.489263 -2182.857348 -1065.737520
   vertex -1442.889580 -2380.998697 -1745.737520
  endloop
 endfacet
 facet normal -0.192594 0.950328 -0.244509
  outer loop
   vertex -1341.154406 -2184.735089 -1063.059646
   vertex -1442.889580 -2380.998697 -1745.737520
   vertex -1455.554723 -2382.876438 -1743.059646
  endloop
 endfacet
 facet normal -0.064566 0.960935 -0.269139
  outer loop
   vertex -1328.489263 -2182.857348 -1065.737520
   vertex -1315.603643 -2182.618227 -1067.975018
   vertex -1430.003960 -2380.759576 -1747.975018
  endloop
 endfacet
 facet normal -0.064566 0.960935 -0.269139
  outer loop
   vertex -1328.489263 -2182.857348 -1065.737520
   vertex -1430.003960 -2380.759576 -1747.975018
   vertex -1442.889580 -2380.998697 -1745.737520
  endloop
 endfacet
 facet normal -0.064566 -0.955100 0.289163
  outer loop
   vertex -1418.664615 -2393.515610 -1746.165793
   vertex -1304.264298 -2195.374261 -1066.165793
   vertex -1315.603643 -2194.139101 -1064.618016
  endloop
 endfacet
 facet normal -0.064566 -0.955100 0.289163
  outer loop
   vertex -1430.003960 -2392.280450 -1744.618016
   vertex -1418.664615 -2393.515610 -1746.165793
   vertex -1315.603643 -2194.139101 -1064.618016
  endloop
 endfacet
 facet normal -0.192594 -0.932923 0.304240
  outer loop
   vertex -1407.519289 -2396.175221 -1747.265867
   vertex -1293.118972 -2198.033873 -1067.265867
   vertex -1304.264298 -2195.374261 -1066.165793
  endloop
 endfacet
 facet normal -0.192594 -0.932923 0.304240
  outer loop
   vertex -1418.664615 -2393.515610 -1746.165793
   vertex -1407.519289 -2396.175221 -1747.265867
   vertex -1304.264298 -2195.374261 -1066.165793
  endloop
 endfacet
 facet normal -0.317327 -0.894784 0.314112
  outer loop
   vertex -1396.758682 -2400.213778 -1747.899413
   vertex -1282.358365 -2202.072429 -1067.899413
   vertex -1293.118972 -2198.033873 -1067.265867
  endloop
 endfacet
 facet normal -0.317327 -0.894784 0.314112
  outer loop
   vertex -1407.519289 -2396.175221 -1747.265867
   vertex -1396.758682 -2400.213778 -1747.899413
   vertex -1293.118972 -2198.033873 -1067.265867
  endloop
 endfacet
 facet normal -0.436630 -0.841334 0.318608
  outer loop
   vertex -1386.566911 -2405.562179 -1748.055593
   vertex -1272.166594 -2207.420831 -1068.055593
   vertex -1282.358365 -2202.072429 -1067.899413
  endloop
 endfacet
 facet normal -0.436630 -0.841334 0.318608
  outer loop
   vertex -1396.758682 -2400.213778 -1747.899413
   vertex -1386.566911 -2405.562179 -1748.055593
   vertex -1282.358365 -2202.072429 -1067.899413
  endloop
 endfacet
 facet normal -0.548462 -0.773489 0.317654
  outer loop
   vertex -1377.118359 -2412.128912 -1747.731734
   vertex -1262.718043 -2213.987564 -1067.731734
   vertex -1272.166594 -2207.420831 -1068.055593
  endloop
 endfacet
 facet normal -0.548462 -0.773489 0.317654
  outer loop
   vertex -1386.566911 -2405.562179 -1748.055593
   vertex -1377.118359 -2412.128912 -1747.731734
   vertex -1272.166594 -2207.420831 -1068.055593
  endloop
 endfacet
 facet normal -0.650910 -0.692410 0.311264
  outer loop
   vertex -1368.574695 -2419.801619 -1746.933378
   vertex -1254.174379 -2221.660270 -1066.933378
   vertex -1262.718043 -2213.987564 -1067.731734
  endloop
 endfacet
 facet normal -0.650910 -0.692410 0.311264
  outer loop
   vertex -1377.118359 -2412.128912 -1747.731734
   vertex -1368.574695 -2419.801619 -1746.933378
   vertex -1262.718043 -2213.987564 -1067.731734
  endloop
 endfacet
 facet normal -0.742221 -0.599483 0.299548
  outer loop
   vertex -1361.082103 -2428.449016 -1745.674184
   vertex -1246.681787 -2230.307667 -1065.674184
   vertex -1254.174379 -2221.660270 -1066.933378
  endloop
 endfacet
 facet normal -0.742221 -0.599483 0.299548
  outer loop
   vertex -1368.574695 -2419.801619 -1746.933378
   vertex -1361.082103 -2428.449016 -1745.674184
   vertex -1254.174379 -2221.660270 -1066.933378
  endloop
 endfacet
 facet normal -0.820832 -0.496299 0.282707
  outer loop
   vertex -1354.768783 -2437.923145 -1743.975697
   vertex -1240.368466 -2239.781796 -1063.975697
   vertex -1246.681787 -2230.307667 -1065.674184
  endloop
 endfacet
 facet normal -0.820832 -0.496299 0.282707
  outer loop
   vertex -1361.082103 -2428.449016 -1745.674184
   vertex -1354.768783 -2437.923145 -1743.975697
   vertex -1246.681787 -2230.307667 -1065.674184
  endloop
 endfacet
 facet normal -0.885398 -0.384623 0.261029
  outer loop
   vertex -1349.742758 -2448.061901 -1741.866980
   vertex -1235.342441 -2249.920552 -1061.866980
   vertex -1240.368466 -2239.781796 -1063.975697
  endloop
 endfacet
 facet normal -0.885398 -0.384623 0.261029
  outer loop
   vertex -1354.768783 -2437.923145 -1743.975697
   vertex -1349.742758 -2448.061901 -1741.866980
   vertex -1240.368466 -2239.781796 -1063.975697
  endloop
 endfacet
 facet normal -0.934815 -0.266366 0.234884
  outer loop
   vertex -1346.090024 -2458.691806 -1739.384112
   vertex -1231.689707 -2260.550457 -1059.384112
   vertex -1235.342441 -2249.920552 -1061.866980
  endloop
 endfacet
 facet normal -0.934815 -0.266366 0.234884
  outer loop
   vertex -1349.742758 -2448.061901 -1741.866980
   vertex -1346.090024 -2458.691806 -1739.384112
   vertex -1235.342441 -2249.920552 -1061.866980
  endloop
 endfacet
 facet normal -0.968237 -0.143551 0.204721
  outer loop
   vertex -1343.873081 -2469.630981 -1736.569577
   vertex -1229.472764 -2271.489632 -1056.569577
   vertex -1231.689707 -2260.550457 -1059.384112
  endloop
 endfacet
 facet normal -0.968237 -0.143551 0.204721
  outer loop
   vertex -1346.090024 -2458.691806 -1739.384112
   vertex -1343.873081 -2469.630981 -1736.569577
   vertex -1231.689707 -2260.550457 -1059.384112
  endloop
 endfacet
 facet normal -0.985092 -0.018281 0.171054
  outer loop
   vertex -1343.129861 -2480.692252 -1733.471532
   vertex -1228.729544 -2282.550904 -1053.471532
   vertex -1229.472764 -2271.489632 -1056.569577
  endloop
 endfacet
 facet normal -0.985092 -0.018281 0.171054
  outer loop
   vertex -1343.873081 -2469.630981 -1736.569577
   vertex -1343.129861 -2480.692252 -1733.471532
   vertex -1229.472764 -2271.489632 -1056.569577
  endloop
 endfacet
 facet normal -0.985092 0.107303 0.134461
  outer loop
   vertex -1343.873081 -2491.686359 -1730.142985
   vertex -1229.472764 -2293.545011 -1050.142985
   vertex -1228.729544 -2282.550904 -1053.471532
  endloop
 endfacet
 facet normal -0.985092 0.107303 0.134461
  outer loop
   vertex -1343.129861 -2480.692252 -1733.471532
   vertex -1343.873081 -2491.686359 -1730.142985
   vertex -1228.729544 -2282.550904 -1053.471532
  endloop
 endfacet
 facet normal -0.968237 0.231051 0.095568
  outer loop
   vertex -1346.090024 -2502.425189 -1726.640889
   vertex -1231.689707 -2304.283841 -1046.640889
   vertex -1229.472764 -2293.545011 -1050.142985
  endloop
 endfacet
 facet normal -0.968237 0.231051 0.095568
  outer loop
   vertex -1343.873081 -2491.686359 -1730.142985
   vertex -1346.090024 -2502.425189 -1726.640889
   vertex -1229.472764 -2293.545011 -1050.142985
  endloop
 endfacet
 facet normal -0.934815 0.350845 0.055039
  outer loop
   vertex -1349.742758 -2512.724998 -1723.025166
   vertex -1235.342441 -2314.583650 -1043.025166
   vertex -1231.689707 -2304.283841 -1046.640889
  endloop
 endfacet
 facet normal -0.934815 0.350845 0.055039
  outer loop
   vertex -1346.090024 -2502.425189 -1726.640889
   vertex -1349.742758 -2512.724998 -1723.025166
   vertex -1231.689707 -2304.283841 -1046.640889
  endloop
 endfacet
 facet normal -0.885398 0.464636 0.013568
  outer loop
   vertex -1354.768783 -2522.409554 -1719.357681
   vertex -1240.368466 -2324.268205 -1039.357681
   vertex -1235.342441 -2314.583650 -1043.025166
  endloop
 endfacet
 facet normal -0.885398 0.464636 0.013568
  outer loop
   vertex -1349.742758 -2512.724998 -1723.025166
   vertex -1354.768783 -2522.409554 -1719.357681
   vertex -1235.342441 -2314.583650 -1043.025166
  endloop
 endfacet
 facet normal -0.820832 0.570477 -0.028135
  outer loop
   vertex -1361.082103 -2531.313150 -1715.701186
   vertex -1246.681787 -2333.171801 -1035.701186
   vertex -1240.368466 -2324.268205 -1039.357681
  endloop
 endfacet
 facet normal -0.820832 0.570477 -0.028135
  outer loop
   vertex -1354.768783 -2522.409554 -1719.357681
   vertex -1361.082103 -2531.313150 -1715.701186
   vertex -1240.368466 -2324.268205 -1039.357681
  endloop
 endfacet
 facet normal -0.742221 0.666557 -0.069356
  outer loop
   vertex -1368.574695 -2539.283444 -1712.118245
   vertex -1254.174379 -2341.142095 -1032.118245
   vertex -1246.681787 -2333.171801 -1035.701186
  endloop
 endfacet
 facet normal -0.742221 0.666557 -0.069356
  outer loop
   vertex -1361.082103 -2531.313150 -1715.701186
   vertex -1368.574695 -2539.283444 -1712.118245
   vertex -1246.681787 -2333.171801 -1035.701186
  endloop
 endfacet
 facet normal -0.650910 0.751232 -0.109391
  outer loop
   vertex -1377.118359 -2546.184062 -1708.670164
   vertex -1262.718043 -2348.042713 -1028.670164
   vertex -1254.174379 -2341.142095 -1032.118245
  endloop
 endfacet
 facet normal -0.650910 0.751232 -0.109391
  outer loop
   vertex -1368.574695 -2539.283444 -1712.118245
   vertex -1377.118359 -2546.184062 -1708.670164
   vertex -1254.174379 -2341.142095 -1032.118245
  endloop
 endfacet
 facet normal -0.548462 0.823054 -0.147554
  outer loop
   vertex -1386.566911 -2551.896932 -1705.415939
   vertex -1272.166594 -2353.755583 -1025.415939
   vertex -1262.718043 -2348.042713 -1028.670164
  endloop
 endfacet
 facet normal -0.548462 0.823054 -0.147554
  outer loop
   vertex -1377.118359 -2546.184062 -1708.670164
   vertex -1386.566911 -2551.896932 -1705.415939
   vertex -1262.718043 -2348.042713 -1028.670164
  endloop
 endfacet
 facet normal -0.436630 0.880792 -0.183192
  outer loop
   vertex -1396.758682 -2556.324306 -1702.411251
   vertex -1282.358365 -2358.182957 -1022.411251
   vertex -1272.166594 -2353.755583 -1025.415939
  endloop
 endfacet
 facet normal -0.436630 0.880792 -0.183192
  outer loop
   vertex -1386.566911 -2551.896932 -1705.415939
   vertex -1396.758682 -2556.324306 -1702.411251
   vertex -1272.166594 -2353.755583 -1025.415939
  endloop
 endfacet
 facet normal -0.317327 0.923460 -0.215696
  outer loop
   vertex -1407.519289 -2559.390430 -1699.707511
   vertex -1293.118972 -2361.249081 -1019.707511
   vertex -1282.358365 -2358.182957 -1022.411251
  endloop
 endfacet
 facet normal -0.317327 0.923460 -0.215696
  outer loop
   vertex -1396.758682 -2556.324306 -1702.411251
   vertex -1407.519289 -2559.390430 -1699.707511
   vertex -1282.358365 -2358.182957 -1022.411251
  endloop
 endfacet
 facet normal -0.192594 0.950328 -0.244509
  outer loop
   vertex -1418.664615 -2561.042842 -1697.350982
   vertex -1304.264298 -2362.901493 -1017.350982
   vertex -1293.118972 -2361.249081 -1019.707511
  endloop
 endfacet
 facet normal -0.192594 0.950328 -0.244509
  outer loop
   vertex -1407.519289 -2559.390430 -1699.707511
   vertex -1418.664615 -2561.042842 -1697.350982
   vertex -1293.118972 -2361.249081 -1019.707511
  endloop
 endfacet
 facet normal -0.064566 0.960935 -0.269139
  outer loop
   vertex -1430.003960 -2561.253268 -1695.381984
   vertex -1315.603643 -2363.111919 -1015.381984
   vertex -1304.264298 -2362.901493 -1017.350982
  endloop
 endfacet
 facet normal -0.064566 0.960935 -0.269139
  outer loop
   vertex -1418.664615 -2561.042842 -1697.350982
   vertex -1430.003960 -2561.253268 -1695.381984
   vertex -1304.264298 -2362.901493 -1017.350982
  endloop
 endfacet
 facet normal 0.064566 0.955100 -0.289163
  outer loop
   vertex -1441.343306 -2560.018108 -1693.834207
   vertex -1326.942989 -2361.876759 -1013.834207
   vertex -1315.603643 -2363.111919 -1015.381984
  endloop
 endfacet
 facet normal 0.064566 0.955100 -0.289163
  outer loop
   vertex -1430.003960 -2561.253268 -1695.381984
   vertex -1441.343306 -2560.018108 -1693.834207
   vertex -1315.603643 -2363.111919 -1015.381984
  endloop
 endfacet
 facet normal 0.192594 0.932923 -0.304240
  outer loop
   vertex -1452.488632 -2557.358497 -1692.734133
   vertex -1338.088315 -2359.217148 -1012.734133
   vertex -1326.942989 -2361.876759 -1013.834207
  endloop
 endfacet
 facet normal 0.192594 0.932923 -0.304240
  outer loop
   vertex -1441.343306 -2560.018108 -1693.834207
   vertex -1452.488632 -2557.358497 -1692.734133
   vertex -1326.942989 -2361.876759 -1013.834207
  endloop
 endfacet
 facet normal 0.317327 0.894784 -0.314112
  outer loop
   vertex -1463.249239 -2553.319940 -1692.100587
   vertex -1348.848922 -2355.178591 -1012.100587
   vertex -1338.088315 -2359.217148 -1012.734133
  endloop
 endfacet
 facet normal 0.317327 0.894784 -0.314112
  outer loop
   vertex -1452.488632 -2557.358497 -1692.734133
   vertex -1463.249239 -2553.319940 -1692.100587
   vertex -1338.088315 -2359.217148 -1012.734133
  endloop
 endfacet
 facet normal 0.436630 0.841334 -0.318608
  outer loop
   vertex -1473.441010 -2547.971539 -1691.944407
   vertex -1359.040693 -2349.830190 -1011.944407
   vertex -1348.848922 -2355.178591 -1012.100587
  endloop
 endfacet
 facet normal 0.436630 0.841334 -0.318608
  outer loop
   vertex -1463.249239 -2553.319940 -1692.100587
   vertex -1473.441010 -2547.971539 -1691.944407
   vertex -1348.848922 -2355.178591 -1012.100587
  endloop
 endfacet
 facet normal 0.548462 0.773489 -0.317654
  outer loop
   vertex -1482.889561 -2541.404806 -1692.268266
   vertex -1368.489244 -2343.263457 -1012.268266
   vertex -1359.040693 -2349.830190 -1011.944407
  endloop
 endfacet
 facet normal 0.548462 0.773489 -0.317654
  outer loop
   vertex -1473.441010 -2547.971539 -1691.944407
   vertex -1482.889561 -2541.404806 -1692.268266
   vertex -1359.040693 -2349.830190 -1011.944407
  endloop
 endfacet
 facet normal 0.650910 0.692410 -0.311264
  outer loop
   vertex -1491.433225 -2533.732099 -1693.066622
   vertex -1377.032908 -2335.590751 -1013.066622
   vertex -1368.489244 -2343.263457 -1012.268266
  endloop
 endfacet
 facet normal 0.650910 0.692410 -0.311264
  outer loop
   vertex -1482.889561 -2541.404806 -1692.268266
   vertex -1491.433225 -2533.732099 -1693.066622
   vertex -1368.489244 -2343.263457 -1012.268266
  endloop
 endfacet
 facet normal 0.742221 0.599483 -0.299548
  outer loop
   vertex -1498.925817 -2525.084702 -1694.325816
   vertex -1384.525500 -2326.943353 -1014.325816
   vertex -1377.032908 -2335.590751 -1013.066622
  endloop
 endfacet
 facet normal 0.742221 0.599483 -0.299548
  outer loop
   vertex -1491.433225 -2533.732099 -1693.066622
   vertex -1498.925817 -2525.084702 -1694.325816
   vertex -1377.032908 -2335.590751 -1013.066622
  endloop
 endfacet
 facet normal 0.820832 0.496299 -0.282707
  outer loop
   vertex -1505.239137 -2515.610573 -1696.024303
   vertex -1390.838820 -2317.469224 -1016.024303
   vertex -1384.525500 -2326.943353 -1014.325816
  endloop
 endfacet
 facet normal 0.820832 0.496299 -0.282707
  outer loop
   vertex -1498.925817 -2525.084702 -1694.325816
   vertex -1505.239137 -2515.610573 -1696.024303
   vertex -1384.525500 -2326.943353 -1014.325816
  endloop
 endfacet
 facet normal 0.885398 0.384623 -0.261029
  outer loop
   vertex -1510.265162 -2505.471817 -1698.133020
   vertex -1395.864845 -2307.330469 -1018.133020
   vertex -1390.838820 -2317.469224 -1016.024303
  endloop
 endfacet
 facet normal 0.885398 0.384623 -0.261029
  outer loop
   vertex -1505.239137 -2515.610573 -1696.024303
   vertex -1510.265162 -2505.471817 -1698.133020
   vertex -1390.838820 -2317.469224 -1016.024303
  endloop
 endfacet
 facet normal 0.934815 0.266366 -0.234884
  outer loop
   vertex -1513.917896 -2494.841912 -1700.615888
   vertex -1399.517579 -2296.700563 -1020.615888
   vertex -1395.864845 -2307.330469 -1018.133020
  endloop
 endfacet
 facet normal 0.934815 0.266366 -0.234884
  outer loop
   vertex -1510.265162 -2505.471817 -1698.133020
   vertex -1513.917896 -2494.841912 -1700.615888
   vertex -1395.864845 -2307.330469 -1018.133020
  endloop
 endfacet
 facet normal 0.968237 0.143551 -0.204721
  outer loop
   vertex -1516.134839 -2483.902737 -1703.430423
   vertex -1401.734523 -2285.761388 -1023.430423
   vertex -1399.517579 -2296.700563 -1020.615888
  endloop
 endfacet
 facet normal 0.968237 0.143551 -0.204721
  outer loop
   vertex -1513.917896 -2494.841912 -1700.615888
   vertex -1516.134839 -2483.902737 -1703.430423
   vertex -1399.517579 -2296.700563 -1020.615888
  endloop
 endfacet
 facet normal 0.985092 0.018281 -0.171054
  outer loop
   vertex -1516.878059 -2472.841466 -1706.528468
   vertex -1402.477743 -2274.700117 -1026.528468
   vertex -1401.734523 -2285.761388 -1023.430423
  endloop
 endfacet
 facet normal 0.985092 0.018281 -0.171054
  outer loop
   vertex -1516.134839 -2483.902737 -1703.430423
   vertex -1516.878059 -2472.841466 -1706.528468
   vertex -1401.734523 -2285.761388 -1023.430423
  endloop
 endfacet
 facet normal 0.985092 -0.107303 -0.134461
  outer loop
   vertex -1516.134839 -2461.847359 -1709.857015
   vertex -1401.734523 -2263.706010 -1029.857015
   vertex -1402.477743 -2274.700117 -1026.528468
  endloop
 endfacet
 facet normal 0.985092 -0.107303 -0.134461
  outer loop
   vertex -1516.878059 -2472.841466 -1706.528468
   vertex -1516.134839 -2461.847359 -1709.857015
   vertex -1402.477743 -2274.700117 -1026.528468
  endloop
 endfacet
 facet normal 0.968237 -0.231051 -0.095568
  outer loop
   vertex -1513.917896 -2451.108528 -1713.359111
   vertex -1399.517579 -2252.967180 -1033.359111
   vertex -1401.734523 -2263.706010 -1029.857015
  endloop
 endfacet
 facet normal 0.968237 -0.231051 -0.095568
  outer loop
   vertex -1516.134839 -2461.847359 -1709.857015
   vertex -1513.917896 -2451.108528 -1713.359111
   vertex -1401.734523 -2263.706010 -1029.857015
  endloop
 endfacet
 facet normal 0.934815 -0.350845 -0.055039
  outer loop
   vertex -1510.265162 -2440.808719 -1716.974834
   vertex -1395.864845 -2242.667371 -1036.974834
   vertex -1399.517579 -2252.967180 -1033.359111
  endloop
 endfacet
 facet normal 0.934815 -0.350845 -0.055039
  outer loop
   vertex -1513.917896 -2451.108528 -1713.359111
   vertex -1510.265162 -2440.808719 -1716.974834
   vertex -1399.517579 -2252.967180 -1033.359111
  endloop
 endfacet
 facet normal 0.885398 -0.464636 -0.013568
  outer loop
   vertex -1505.239137 -2431.124164 -1720.642319
   vertex -1390.838820 -2232.982815 -1040.642319
   vertex -1395.864845 -2242.667371 -1036.974834
  endloop
 endfacet
 facet normal 0.885398 -0.464636 -0.013568
  outer loop
   vertex -1510.265162 -2440.808719 -1716.974834
   vertex -1505.239137 -2431.124164 -1720.642319
   vertex -1395.864845 -2242.667371 -1036.974834
  endloop
 endfacet
 facet normal 0.820832 -0.570477 0.028135
  outer loop
   vertex -1498.925817 -2422.220568 -1724.298814
   vertex -1384.525500 -2224.079219 -1044.298814
   vertex -1390.838820 -2232.982815 -1040.642319
  endloop
 endfacet
 facet normal 0.820832 -0.570477 0.028135
  outer loop
   vertex -1505.239137 -2431.124164 -1720.642319
   vertex -1498.925817 -2422.220568 -1724.298814
   vertex -1390.838820 -2232.982815 -1040.642319
  endloop
 endfacet
 facet normal 0.742221 -0.666557 0.069356
  outer loop
   vertex -1491.433225 -2414.250274 -1727.881755
   vertex -1377.032908 -2216.108925 -1047.881755
   vertex -1384.525500 -2224.079219 -1044.298814
  endloop
 endfacet
 facet normal 0.742221 -0.666557 0.069356
  outer loop
   vertex -1498.925817 -2422.220568 -1724.298814
   vertex -1491.433225 -2414.250274 -1727.881755
   vertex -1384.525500 -2224.079219 -1044.298814
  endloop
 endfacet
 facet normal 0.650910 -0.751232 0.109391
  outer loop
   vertex -1482.889561 -2407.349656 -1731.329836
   vertex -1368.489244 -2209.208307 -1051.329836
   vertex -1377.032908 -2216.108925 -1047.881755
  endloop
 endfacet
 facet normal 0.650910 -0.751232 0.109391
  outer loop
   vertex -1491.433225 -2414.250274 -1727.881755
   vertex -1482.889561 -2407.349656 -1731.329836
   vertex -1377.032908 -2216.108925 -1047.881755
  endloop
 endfacet
 facet normal 0.548462 -0.823054 0.147554
  outer loop
   vertex -1473.441010 -2401.636786 -1734.584061
   vertex -1359.040693 -2203.495437 -1054.584061
   vertex -1368.489244 -2209.208307 -1051.329836
  endloop
 endfacet
 facet normal 0.548462 -0.823054 0.147554
  outer loop
   vertex -1482.889561 -2407.349656 -1731.329836
   vertex -1473.441010 -2401.636786 -1734.584061
   vertex -1368.489244 -2209.208307 -1051.329836
  endloop
 endfacet
 facet normal 0.436630 -0.880792 0.183192
  outer loop
   vertex -1463.249239 -2397.209412 -1737.588749
   vertex -1348.848922 -2199.068063 -1057.588749
   vertex -1359.040693 -2203.495437 -1054.584061
  endloop
 endfacet
 facet normal 0.436630 -0.880792 0.183192
  outer loop
   vertex -1473.441010 -2401.636786 -1734.584061
   vertex -1463.249239 -2397.209412 -1737.588749
   vertex -1359.040693 -2203.495437 -1054.584061
  endloop
 endfacet
 facet normal 0.317327 -0.923460 0.215696
  outer loop
   vertex -1452.488632 -2394.143288 -1740.292489
   vertex -1338.088315 -2196.001939 -1060.292489
   vertex -1348.848922 -2199.068063 -1057.588749
  endloop
 endfacet
 facet normal 0.317327 -0.923460 0.215696
  outer loop
   vertex -1463.249239 -2397.209412 -1737.588749
   vertex -1452.488632 -2394.143288 -1740.292489
   vertex -1348.848922 -2199.068063 -1057.588749
  endloop
 endfacet
 facet normal 0.192594 -0.950328 0.244509
  outer loop
   vertex -1441.343306 -2392.490876 -1742.649018
   vertex -1326.942989 -2194.349528 -1062.649018
   vertex -1338.088315 -2196.001939 -1060.292489
  endloop
 endfacet
 facet normal 0.192594 -0.950328 0.244509
  outer loop
   vertex -1452.488632 -2394.143288 -1740.292489
   vertex -1441.343306 -2392.490876 -1742.649018
   vertex -1338.088315 -2196.001939 -1060.292489
  endloop
 endfacet
 facet normal 0.064566 -0.960935 0.269139
  outer loop
   vertex -1430.003960 -2392.280450 -1744.618016
   vertex -1315.603643 -2194.139101 -1064.618016
   vertex -1326.942989 -2194.349528 -1062.649018
  endloop
 endfacet
 facet normal 0.064566 -0.960935 0.269139
  outer loop
   vertex -1441.343306 -2392.490876 -1742.649018
   vertex -1430.003960 -2392.280450 -1744.618016
   vertex -1326.942989 -2194.349528 -1062.649018
  endloop
 endfacet
endsolid SIC_RP1_feed_3_drop
