solid SIC_RP1_riser
 facet normal 0.054013 0.997859 0.036880
  outer loop
   vertex 1900.000000 75.000000 1200.000000
   vertex 1908.084643 74.358365 1205.520159
   vertex 3178.084643 74.358365 -654.479841
  endloop
 endfacet
 facet normal 0.054013 0.997859 0.036880
  outer loop
   vertex 1900.000000 75.000000 1200.000000
   vertex 3178.084643 74.358365 -654.479841
   vertex 3170.000000 75.000000 -660.000000
  endloop
 endfacet
 facet normal 0.161116 0.980785 0.110009
  outer loop
   vertex 1908.084643 74.358365 1205.520159
   vertex 1916.030956 72.444437 1210.945868
   vertex 3186.030956 72.444437 -649.054132
  endloop
 endfacet
 facet normal 0.161116 0.980785 0.110009
  outer loop
   vertex 1908.084643 74.358365 1205.520159
   vertex 3186.030956 72.444437 -649.054132
   vertex 3178.084643 74.358365 -654.479841
  endloop
 endfacet
 facet normal 0.265461 0.946930 0.181256
  outer loop
   vertex 1916.030956 72.444437 1210.945868
   vertex 1923.702974 69.290965 1216.184289
   vertex 3193.702974 69.290965 -643.815711
  endloop
 endfacet
 facet normal 0.265461 0.946930 0.181256
  outer loop
   vertex 1916.030956 72.444437 1210.945868
   vertex 3193.702974 69.290965 -643.815711
   vertex 3186.030956 72.444437 -649.054132
  endloop
 endfacet
 facet normal 0.365265 0.896873 0.249401
  outer loop
   vertex 1923.702974 69.290965 1216.184289
   vertex 1930.969428 64.951905 1221.145792
   vertex 3200.969428 64.951905 -638.854208
  endloop
 endfacet
 facet normal 0.365265 0.896873 0.249401
  outer loop
   vertex 1923.702974 69.290965 1216.184289
   vertex 3200.969428 64.951905 -638.854208
   vertex 3193.702974 69.290965 -643.815711
  endloop
 endfacet
 facet normal 0.458818 0.831470 0.313279
  outer loop
   vertex 1930.969428 64.951905 1221.145792
   vertex 1937.705986 59.501501 1225.745485
   vertex 3207.705986 59.501501 -634.254515
  endloop
 endfacet
 facet normal 0.458818 0.831470 0.313279
  outer loop
   vertex 1930.969428 64.951905 1221.145792
   vertex 3207.705986 59.501501 -634.254515
   vertex 3200.969428 64.951905 -638.854208
  endloop
 endfacet
 facet normal 0.544522 0.751840 0.371797
  outer loop
   vertex 1937.705986 59.501501 1225.745485
   vertex 1943.797385 53.033009 1229.904666
   vertex 3213.797385 53.033009 -630.095334
  endloop
 endfacet
 facet normal 0.544522 0.751840 0.371797
  outer loop
   vertex 1937.705986 59.501501 1225.745485
   vertex 3213.797385 53.033009 -630.095334
   vertex 3207.705986 59.501501 -634.254515
  endloop
 endfacet
 facet normal 0.620908 0.659346 0.423953
  outer loop
   vertex 1943.797385 53.033009 1229.904666
   vertex 1949.139398 45.657107 1233.552170
   vertex 3219.139398 45.657107 -626.447830
  endloop
 endfacet
 facet normal 0.620908 0.659346 0.423953
  outer loop
   vertex 1943.797385 53.033009 1229.904666
   vertex 3219.139398 45.657107 -626.447830
   vertex 3213.797385 53.033009 -630.095334
  endloop
 endfacet
 facet normal 0.686670 0.555570 0.468856
  outer loop
   vertex 1949.139398 45.657107 1233.552170
   vertex 1953.640623 37.500000 1236.625587
   vertex 3223.640623 37.500000 -623.374413
  endloop
 endfacet
 facet normal 0.686670 0.555570 0.468856
  outer loop
   vertex 1949.139398 45.657107 1233.552170
   vertex 3223.640623 37.500000 -623.374413
   vertex 3219.139398 45.657107 -626.447830
  endloop
 endfacet
 facet normal 0.740684 0.442289 0.505736
  outer loop
   vertex 1953.640623 37.500000 1236.625587
   vertex 1957.224041 28.701257 1239.072329
   vertex 3227.224041 28.701257 -620.927671
  endloop
 endfacet
 facet normal 0.740684 0.442289 0.505736
  outer loop
   vertex 1953.640623 37.500000 1236.625587
   vertex 3227.224041 28.701257 -620.927671
   vertex 3223.640623 37.500000 -623.374413
  endloop
 endfacet
 facet normal 0.782024 0.321439 0.533962
  outer loop
   vertex 1957.224041 28.701257 1239.072329
   vertex 1959.828341 19.411428 1240.850534
   vertex 3229.828341 19.411428 -619.149466
  endloop
 endfacet
 facet normal 0.782024 0.321439 0.533962
  outer loop
   vertex 1957.224041 28.701257 1239.072329
   vertex 3229.828341 19.411428 -619.149466
   vertex 3227.224041 28.701257 -620.927671
  endloop
 endfacet
 facet normal 0.809983 0.195090 0.553053
  outer loop
   vertex 1959.828341 19.411428 1240.850534
   vertex 1961.408961 9.789464 1241.929774
   vertex 3231.408961 9.789464 -618.070226
  endloop
 endfacet
 facet normal 0.809983 0.195090 0.553053
  outer loop
   vertex 1959.828341 19.411428 1240.850534
   vertex 3231.408961 9.789464 -618.070226
   vertex 3229.828341 19.411428 -619.149466
  endloop
 endfacet
 facet normal 0.824083 0.065403 0.562680
  outer loop
   vertex 1961.408961 9.789464 1241.929774
   vertex 1961.938856 0.000000 1242.291584
   vertex 3231.938856 0.000000 -617.708416
  endloop
 endfacet
 facet normal 0.824083 0.065403 0.562680
  outer loop
   vertex 1961.408961 9.789464 1241.929774
   vertex 3231.938856 0.000000 -617.708416
   vertex 3231.408961 9.789464 -618.070226
  endloop
 endfacet
 facet normal 0.824083 -0.065403 0.562680
  outer loop
   vertex 1961.938856 0.000000 1242.291584
   vertex 1961.408961 -9.789464 1241.929774
   vertex 3231.408961 -9.789464 -618.070226
  endloop
 endfacet
 facet normal 0.824083 -0.065403 0.562680
  outer loop
   vertex 1961.938856 0.000000 1242.291584
   vertex 3231.408961 -9.789464 -618.070226
   vertex 3231.938856 0.000000 -617.708416
  endloop
 endfacet
 facet normal 0.809983 -0.195090 0.553053
  outer loop
   vertex 1961.408961 -9.789464 1241.929774
   vertex 1959.828341 -19.411428 1240.850534
   vertex 3229.828341 -19.411428 -619.149466
  endloop
 endfacet
 facet normal 0.809983 -0.195090 0.553053
  outer loop
   vertex 1961.408961 -9.789464 1241.929774
   vertex 3229.828341 -19.411428 -619.149466
   vertex 3231.408961 -9.789464 -618.070226
  endloop
 endfacet
 facet normal 0.782024 -0.321439 0.533962
  outer loop
   vertex 1959.828341 -19.411428 1240.850534
   vertex 1957.224041 -28.701257 1239.072329
   vertex 3227.224041 -28.701257 -620.927671
  endloop
 endfacet
 facet normal 0.782024 -0.321439 0.533962
  outer loop
   vertex 1959.828341 -19.411428 1240.850534
   vertex 3227.224041 -28.701257 -620.927671
   vertex 3229.828341 -19.411428 -619.149466
  endloop
 endfacet
 facet normal 0.740684 -0.442289 0.505736
  outer loop
   vertex 1957.224041 -28.701257 1239.072329
   vertex 1953.640623 -37.500000 1236.625587
   vertex 3223.640623 -37.500000 -623.374413
  endloop
 endfacet
 facet normal 0.740684 -0.442289 0.505736
  outer loop
   vertex 1957.224041 -28.701257 1239.072329
   vertex 3223.640623 -37.500000 -623.374413
   vertex 3227.224041 -28.701257 -620.927671
  endloop
 endfacet
 facet normal 0.686670 -0.555570 0.468856
  outer loop
   vertex 1953.640623 -37.500000 1236.625587
   vertex 1949.139398 -45.657107 1233.552170
   vertex 3219.139398 -45.657107 -626.447830
  endloop
 endfacet
 facet normal 0.686670 -0.555570 0.468856
  outer loop
   vertex 1953.640623 -37.500000 1236.625587
   vertex 3219.139398 -45.657107 -626.447830
   vertex 3223.640623 -37.500000 -623.374413
  endloop
 endfacet
 facet normal 0.620908 -0.659346 0.423953
  outer loop
   vertex 1949.139398 -45.657107 1233.552170
   vertex 1943.797385 -53.033009 1229.904666
   vertex 3213.797385 -53.033009 -630.095334
  endloop
 endfacet
 facet normal 0.620908 -0.659346 0.423953
  outer loop
   vertex 1949.139398 -45.657107 1233.552170
   vertex 3213.797385 -53.033009 -630.095334
   vertex 3219.139398 -45.657107 -626.447830
  endloop
 endfacet
 facet normal 0.544522 -0.751840 0.371797
  outer loop
   vertex 1943.797385 -53.033009 1229.904666
   vertex 1937.705986 -59.501501 1225.745485
   vertex 3207.705986 -59.501501 -634.254515
  endloop
 endfacet
 facet normal 0.544522 -0.751840 0.371797
  outer loop
   vertex 1943.797385 -53.033009 1229.904666
   vertex 3207.705986 -59.501501 -634.254515
   vertex 3213.797385 -53.033009 -630.095334
  endloop
 endfacet
 facet normal 0.458818 -0.831470 0.313279
  outer loop
   vertex 1937.705986 -59.501501 1225.745485
   vertex 1930.969428 -64.951905 1221.145792
   vertex 3200.969428 -64.951905 -638.854208
  endloop
 endfacet
 facet normal 0.458818 -0.831470 0.313279
  outer loop
   vertex 1937.705986 -59.501501 1225.745485
   vertex 3200.969428 -64.951905 -638.854208
   vertex 3207.705986 -59.501501 -634.254515
  endloop
 endfacet
 facet normal 0.365265 -0.896873 0.249401
  outer loop
   vertex 1930.969428 -64.951905 1221.145792
   vertex 1923.702974 -69.290965 1216.184289
   vertex 3193.702974 -69.290965 -643.815711
  endloop
 endfacet
 facet normal 0.365265 -0.896873 0.249401
  outer loop
   vertex 1930.969428 -64.951905 1221.145792
   vertex 3193.702974 -69.290965 -643.815711
   vertex 3200.969428 -64.951905 -638.854208
  endloop
 endfacet
 facet normal 0.265461 -0.946930 0.181256
  outer loop
   vertex 1923.702974 -69.290965 1216.184289
   vertex 1916.030956 -72.444437 1210.945868
   vertex 3186.030956 -72.444437 -649.054132
  endloop
 endfacet
 facet normal 0.265461 -0.946930 0.181256
  outer loop
   vertex 1923.702974 -69.290965 1216.184289
   vertex 3186.030956 -72.444437 -649.054132
   vertex 3193.702974 -69.290965 -643.815711
  endloop
 endfacet
 facet normal 0.161116 -0.980785 0.110009
  outer loop
   vertex 1916.030956 -72.444437 1210.945868
   vertex 1908.084643 -74.358365 1205.520159
   vertex 3178.084643 -74.358365 -654.479841
  endloop
 endfacet
 facet normal 0.161116 -0.980785 0.110009
  outer loop
   vertex 1916.030956 -72.444437 1210.945868
   vertex 3178.084643 -74.358365 -654.479841
   vertex 3186.030956 -72.444437 -649.054132
  endloop
 endfacet
 facet normal 0.054013 -0.997859 0.036880
  outer loop
   vertex 1908.084643 -74.358365 1205.520159
   vertex 1900.000000 -75.000000 1200.000000
   vertex 3170.000000 -75.000000 -660.000000
  endloop
 endfacet
 facet normal 0.054013 -0.997859 0.036880
  outer loop
   vertex 1908.084643 -74.358365 1205.520159
   vertex 3170.000000 -75.000000 -660.000000
   vertex 3178.084643 -74.358365 -654.479841
  endloop
 endfacet
 facet normal -0.054013 -0.997859 -0.036880
  outer loop
   vertex 1900.000000 -75.000000 1200.000000
   vertex 1891.915357 -74.358365 1194.479841
   vertex 3161.915357 -74.358365 -665.520159
  endloop
 endfacet
 facet normal -0.054013 -0.997859 -0.036880
  outer loop
   vertex 1900.000000 -75.000000 1200.000000
   vertex 3161.915357 -74.358365 -665.520159
   vertex 3170.000000 -75.000000 -660.000000
  endloop
 endfacet
 facet normal -0.161116 -0.980785 -0.110009
  outer loop
   vertex 1891.915357 -74.358365 1194.479841
   vertex 1883.969044 -72.444437 1189.054132
   vertex 3153.969044 -72.444437 -670.945868
  endloop
 endfacet
 facet normal -0.161116 -0.980785 -0.110009
  outer loop
   vertex 1891.915357 -74.358365 1194.479841
   vertex 3153.969044 -72.444437 -670.945868
   vertex 3161.915357 -74.358365 -665.520159
  endloop
 endfacet
 facet normal -0.265461 -0.946930 -0.181256
  outer loop
   vertex 1883.969044 -72.444437 1189.054132
   vertex 1876.297026 -69.290965 1183.815711
   vertex 3146.297026 -69.290965 -676.184289
  endloop
 endfacet
 facet normal -0.265461 -0.946930 -0.181256
  outer loop
   vertex 1883.969044 -72.444437 1189.054132
   vertex 3146.297026 -69.290965 -676.184289
   vertex 3153.969044 -72.444437 -670.945868
  endloop
 endfacet
 facet normal -0.365265 -0.896873 -0.249401
  outer loop
   vertex 1876.297026 -69.290965 1183.815711
   vertex 1869.030572 -64.951905 1178.854208
   vertex 3139.030572 -64.951905 -681.145792
  endloop
 endfacet
 facet normal -0.365265 -0.896873 -0.249401
  outer loop
   vertex 1876.297026 -69.290965 1183.815711
   vertex 3139.030572 -64.951905 -681.145792
   vertex 3146.297026 -69.290965 -676.184289
  endloop
 endfacet
 facet normal -0.458818 -0.831470 -0.313279
  outer loop
   vertex 1869.030572 -64.951905 1178.854208
   vertex 1862.294014 -59.501501 1174.254515
   vertex 3132.294014 -59.501501 -685.745485
  endloop
 endfacet
 facet normal -0.458818 -0.831470 -0.313279
  outer loop
   vertex 1869.030572 -64.951905 1178.854208
   vertex 3132.294014 -59.501501 -685.745485
   vertex 3139.030572 -64.951905 -681.145792
  endloop
 endfacet
 facet normal -0.544522 -0.751840 -0.371797
  outer loop
   vertex 1862.294014 -59.501501 1174.254515
   vertex 1856.202615 -53.033009 1170.095334
   vertex 3126.202615 -53.033009 -689.904666
  endloop
 endfacet
 facet normal -0.544522 -0.751840 -0.371797
  outer loop
   vertex 1862.294014 -59.501501 1174.254515
   vertex 3126.202615 -53.033009 -689.904666
   vertex 3132.294014 -59.501501 -685.745485
  endloop
 endfacet
 facet normal -0.620908 -0.659346 -0.423953
  outer loop
   vertex 1856.202615 -53.033009 1170.095334
   vertex 1850.860602 -45.657107 1166.447830
   vertex 3120.860602 -45.657107 -693.552170
  endloop
 endfacet
 facet normal -0.620908 -0.659346 -0.423953
  outer loop
   vertex 1856.202615 -53.033009 1170.095334
   vertex 3120.860602 -45.657107 -693.552170
   vertex 3126.202615 -53.033009 -689.904666
  endloop
 endfacet
 facet normal -0.686670 -0.555570 -0.468856
  outer loop
   vertex 1850.860602 -45.657107 1166.447830
   vertex 1846.359377 -37.500000 1163.374413
   vertex 3116.359377 -37.500000 -696.625587
  endloop
 endfacet
 facet normal -0.686670 -0.555570 -0.468856
  outer loop
   vertex 1850.860602 -45.657107 1166.447830
   vertex 3116.359377 -37.500000 -696.625587
   vertex 3120.860602 -45.657107 -693.552170
  endloop
 endfacet
 facet normal -0.740684 -0.442289 -0.505736
  outer loop
   vertex 1846.359377 -37.500000 1163.374413
   vertex 1842.775959 -28.701257 1160.927671
   vertex 3112.775959 -28.701257 -699.072329
  endloop
 endfacet
 facet normal -0.740684 -0.442289 -0.505736
  outer loop
   vertex 1846.359377 -37.500000 1163.374413
   vertex 3112.775959 -28.701257 -699.072329
   vertex 3116.359377 -37.500000 -696.625587
  endloop
 endfacet
 facet normal -0.782024 -0.321439 -0.533962
  outer loop
   vertex 1842.775959 -28.701257 1160.927671
   vertex 1840.171659 -19.411428 1159.149466
   vertex 3110.171659 -19.411428 -700.850534
  endloop
 endfacet
 facet normal -0.782024 -0.321439 -0.533962
  outer loop
   vertex 1842.775959 -28.701257 1160.927671
   vertex 3110.171659 -19.411428 -700.850534
   vertex 3112.775959 -28.701257 -699.072329
  endloop
 endfacet
 facet normal -0.809983 -0.195090 -0.553053
  outer loop
   vertex 1840.171659 -19.411428 1159.149466
   vertex 1838.591039 -9.789464 1158.070226
   vertex 3108.591039 -9.789464 -701.929774
  endloop
 endfacet
 facet normal -0.809983 -0.195090 -0.553053
  outer loop
   vertex 1840.171659 -19.411428 1159.149466
   vertex 3108.591039 -9.789464 -701.929774
   vertex 3110.171659 -19.411428 -700.850534
  endloop
 endfacet
 facet normal -0.824083 -0.065403 -0.562680
  outer loop
   vertex 1838.591039 -9.789464 1158.070226
   vertex 1838.061144 -0.000000 1157.708416
   vertex 3108.061144 -0.000000 -702.291584
  endloop
 endfacet
 facet normal -0.824083 -0.065403 -0.562680
  outer loop
   vertex 1838.591039 -9.789464 1158.070226
   vertex 3108.061144 -0.000000 -702.291584
   vertex 3108.591039 -9.789464 -701.929774
  endloop
 endfacet
 facet normal -0.824083 0.065403 -0.562680
  outer loop
   vertex 1838.061144 -0.000000 1157.708416
   vertex 1838.591039 9.789464 1158.070226
   vertex 3108.591039 9.789464 -701.929774
  endloop
 endfacet
 facet normal -0.824083 0.065403 -0.562680
  outer loop
   vertex 1838.061144 -0.000000 1157.708416
   vertex 3108.591039 9.789464 -701.929774
   vertex 3108.061144 -0.000000 -702.291584
  endloop
 endfacet
 facet normal -0.809983 0.195090 -0.553053
  outer loop
   vertex 1838.591039 9.789464 1158.070226
   vertex 1840.171659 19.411428 1159.149466
   vertex 3110.171659 19.411428 -700.850534
  endloop
 endfacet
 facet normal -0.809983 0.195090 -0.553053
  outer loop
   vertex 1838.591039 9.789464 1158.070226
   vertex 3110.171659 19.411428 -700.850534
   vertex 3108.591039 9.789464 -701.929774
  endloop
 endfacet
 facet normal -0.782024 0.321439 -0.533962
  outer loop
   vertex 1840.171659 19.411428 1159.149466
   vertex 1842.775959 28.701257 1160.927671
   vertex 3112.775959 28.701257 -699.072329
  endloop
 endfacet
 facet normal -0.782024 0.321439 -0.533962
  outer loop
   vertex 1840.171659 19.411428 1159.149466
   vertex 3112.775959 28.701257 -699.072329
   vertex 3110.171659 19.411428 -700.850534
  endloop
 endfacet
 facet normal -0.740684 0.442289 -0.505736
  outer loop
   vertex 1842.775959 28.701257 1160.927671
   vertex 1846.359377 37.500000 1163.374413
   vertex 3116.359377 37.500000 -696.625587
  endloop
 endfacet
 facet normal -0.740684 0.442289 -0.505736
  outer loop
   vertex 1842.775959 28.701257 1160.927671
   vertex 3116.359377 37.500000 -696.625587
   vertex 3112.775959 28.701257 -699.072329
  endloop
 endfacet
 facet normal -0.686670 0.555570 -0.468856
  outer loop
   vertex 1846.359377 37.500000 1163.374413
   vertex 1850.860602 45.657107 1166.447830
   vertex 3120.860602 45.657107 -693.552170
  endloop
 endfacet
 facet normal -0.686670 0.555570 -0.468856
  outer loop
   vertex 1846.359377 37.500000 1163.374413
   vertex 3120.860602 45.657107 -693.552170
   vertex 3116.359377 37.500000 -696.625587
  endloop
 endfacet
 facet normal -0.620908 0.659346 -0.423953
  outer loop
   vertex 1850.860602 45.657107 1166.447830
   vertex 1856.202615 53.033009 1170.095334
   vertex 3126.202615 53.033009 -689.904666
  endloop
 endfacet
 facet normal -0.620908 0.659346 -0.423953
  outer loop
   vertex 1850.860602 45.657107 1166.447830
   vertex 3126.202615 53.033009 -689.904666
   vertex 3120.860602 45.657107 -693.552170
  endloop
 endfacet
 facet normal -0.544522 0.751840 -0.371797
  outer loop
   vertex 1856.202615 53.033009 1170.095334
   vertex 1862.294014 59.501501 1174.254515
   vertex 3132.294014 59.501501 -685.745485
  endloop
 endfacet
 facet normal -0.544522 0.751840 -0.371797
  outer loop
   vertex 1856.202615 53.033009 1170.095334
   vertex 3132.294014 59.501501 -685.745485
   vertex 3126.202615 53.033009 -689.904666
  endloop
 endfacet
 facet normal -0.458818 0.831470 -0.313279
  outer loop
   vertex 1862.294014 59.501501 1174.254515
   vertex 1869.030572 64.951905 1178.854208
   vertex 3139.030572 64.951905 -681.145792
  endloop
 endfacet
 facet normal -0.458818 0.831470 -0.313279
  outer loop
   vertex 1862.294014 59.501501 1174.254515
   vertex 3139.030572 64.951905 -681.145792
   vertex 3132.294014 59.501501 -685.745485
  endloop
 endfacet
 facet normal -0.365265 0.896873 -0.249401
  outer loop
   vertex 1869.030572 64.951905 1178.854208
   vertex 1876.297026 69.290965 1183.815711
   vertex 3146.297026 69.290965 -676.184289
  endloop
 endfacet
 facet normal -0.365265 0.896873 -0.249401
  outer loop
   vertex 1869.030572 64.951905 1178.854208
   vertex 3146.297026 69.290965 -676.184289
   vertex 3139.030572 64.951905 -681.145792
  endloop
 endfacet
 facet normal -0.265461 0.946930 -0.181256
  outer loop
   vertex 1876.297026 69.290965 1183.815711
   vertex 1883.969044 72.444437 1189.054132
   vertex 3153.969044 72.444437 -670.945868
  endloop
 endfacet
 facet normal -0.265461 0.946930 -0.181256
  outer loop
   vertex 1876.297026 69.290965 1183.815711
   vertex 3153.969044 72.444437 -670.945868
   vertex 3146.297026 69.290965 -676.184289
  endloop
 endfacet
 facet normal -0.161116 0.980785 -0.110009
  outer loop
   vertex 1883.969044 72.444437 1189.054132
   vertex 1891.915357 74.358365 1194.479841
   vertex 3161.915357 74.358365 -665.520159
  endloop
 endfacet
 facet normal -0.161116 0.980785 -0.110009
  outer loop
   vertex 1883.969044 72.444437 1189.054132
   vertex 3161.915357 74.358365 -665.520159
   vertex 3153.969044 72.444437 -670.945868
  endloop
 endfacet
 facet normal -0.054013 0.997859 -0.036880
  outer loop
   vertex 1891.915357 74.358365 1194.479841
   vertex 1900.000000 75.000000 1200.000000
   vertex 3170.000000 75.000000 -660.000000
  endloop
 endfacet
 facet normal -0.054013 0.997859 -0.036880
  outer loop
   vertex 1891.915357 74.358365 1194.479841
   vertex 3170.000000 75.000000 -660.000000
   vertex 3161.915357 74.358365 -665.520159
  endloop
 endfacet
 facet normal -0.054013 -0.997859 -0.036880
  outer loop
   vertex 3176.791100 62.461026 -655.363066
   vertex 1906.791100 62.461026 1204.636934
   vertex 1900.000000 63.000000 1200.000000
  endloop
 endfacet
 facet normal -0.054013 -0.997859 -0.036880
  outer loop
   vertex 3170.000000 63.000000 -660.000000
   vertex 3176.791100 62.461026 -655.363066
   vertex 1900.000000 63.000000 1200.000000
  endloop
 endfacet
 facet normal -0.161116 -0.980785 -0.110009
  outer loop
   vertex 3183.466003 60.853327 -650.805471
   vertex 1913.466003 60.853327 1209.194529
   vertex 1906.791100 62.461026 1204.636934
  endloop
 endfacet
 facet normal -0.161116 -0.980785 -0.110009
  outer loop
   vertex 3176.791100 62.461026 -655.363066
   vertex 3183.466003 60.853327 -650.805471
   vertex 1906.791100 62.461026 1204.636934
  endloop
 endfacet
 facet normal -0.265461 -0.946930 -0.181256
  outer loop
   vertex 3189.910498 58.204411 -646.405197
   vertex 1919.910498 58.204411 1213.594803
   vertex 1913.466003 60.853327 1209.194529
  endloop
 endfacet
 facet normal -0.265461 -0.946930 -0.181256
  outer loop
   vertex 3183.466003 60.853327 -650.805471
   vertex 3189.910498 58.204411 -646.405197
   vertex 1913.466003 60.853327 1209.194529
  endloop
 endfacet
 facet normal -0.365265 -0.896873 -0.249401
  outer loop
   vertex 3196.014320 54.559600 -642.237535
   vertex 1926.014320 54.559600 1217.762465
   vertex 1919.910498 58.204411 1213.594803
  endloop
 endfacet
 facet normal -0.365265 -0.896873 -0.249401
  outer loop
   vertex 3189.910498 58.204411 -646.405197
   vertex 3196.014320 54.559600 -642.237535
   vertex 1919.910498 58.204411 1213.594803
  endloop
 endfacet
 facet normal -0.458818 -0.831470 -0.313279
  outer loop
   vertex 3201.673029 49.981260 -638.373792
   vertex 1931.673029 49.981260 1221.626208
   vertex 1926.014320 54.559600 1217.762465
  endloop
 endfacet
 facet normal -0.458818 -0.831470 -0.313279
  outer loop
   vertex 3196.014320 54.559600 -642.237535
   vertex 3201.673029 49.981260 -638.373792
   vertex 1926.014320 54.559600 1217.762465
  endloop
 endfacet
 facet normal -0.544522 -0.751840 -0.371797
  outer loop
   vertex 3206.789803 44.547727 -634.880080
   vertex 1936.789803 44.547727 1225.119920
   vertex 1931.673029 49.981260 1221.626208
  endloop
 endfacet
 facet normal -0.544522 -0.751840 -0.371797
  outer loop
   vertex 3201.673029 49.981260 -638.373792
   vertex 3206.789803 44.547727 -634.880080
   vertex 1931.673029 49.981260 1221.626208
  endloop
 endfacet
 facet normal -0.620908 -0.659346 -0.423953
  outer loop
   vertex 3211.277095 38.351970 -631.816177
   vertex 1941.277095 38.351970 1228.183823
   vertex 1936.789803 44.547727 1225.119920
  endloop
 endfacet
 facet normal -0.620908 -0.659346 -0.423953
  outer loop
   vertex 3206.789803 44.547727 -634.880080
   vertex 3211.277095 38.351970 -631.816177
   vertex 1936.789803 44.547727 1225.119920
  endloop
 endfacet
 facet normal -0.686670 -0.555570 -0.468856
  outer loop
   vertex 3215.058123 31.500000 -629.234507
   vertex 1945.058123 31.500000 1230.765493
   vertex 1941.277095 38.351970 1228.183823
  endloop
 endfacet
 facet normal -0.686670 -0.555570 -0.468856
  outer loop
   vertex 3211.277095 38.351970 -631.816177
   vertex 3215.058123 31.500000 -629.234507
   vertex 1941.277095 38.351970 1228.183823
  endloop
 endfacet
 facet normal -0.740684 -0.442289 -0.505736
  outer loop
   vertex 3218.068195 24.109056 -627.179243
   vertex 1948.068195 24.109056 1232.820757
   vertex 1945.058123 31.500000 1230.765493
  endloop
 endfacet
 facet normal -0.740684 -0.442289 -0.505736
  outer loop
   vertex 3215.058123 31.500000 -629.234507
   vertex 3218.068195 24.109056 -627.179243
   vertex 1945.058123 31.500000 1230.765493
  endloop
 endfacet
 facet normal -0.782024 -0.321439 -0.533962
  outer loop
   vertex 3220.255806 16.305600 -625.685552
   vertex 1950.255806 16.305600 1234.314448
   vertex 1948.068195 24.109056 1232.820757
  endloop
 endfacet
 facet normal -0.782024 -0.321439 -0.533962
  outer loop
   vertex 3218.068195 24.109056 -627.179243
   vertex 3220.255806 16.305600 -625.685552
   vertex 1948.068195 24.109056 1232.820757
  endloop
 endfacet
 facet normal -0.809983 -0.195090 -0.553053
  outer loop
   vertex 3221.583527 8.223150 -624.778990
   vertex 1951.583527 8.223150 1235.221010
   vertex 1950.255806 16.305600 1234.314448
  endloop
 endfacet
 facet normal -0.809983 -0.195090 -0.553053
  outer loop
   vertex 3220.255806 16.305600 -625.685552
   vertex 3221.583527 8.223150 -624.778990
   vertex 1950.255806 16.305600 1234.314448
  endloop
 endfacet
 facet normal -0.824083 -0.065403 -0.562680
  outer loop
   vertex 3222.028639 0.000000 -624.475069
   vertex 1952.028639 0.000000 1235.524931
   vertex 1951.583527 8.223150 1235.221010
  endloop
 endfacet
 facet normal -0.824083 -0.065403 -0.562680
  outer loop
   vertex 3221.583527 8.223150 -624.778990
   vertex 3222.028639 0.000000 -624.475069
   vertex 1951.583527 8.223150 1235.221010
  endloop
 endfacet
 facet normal -0.824083 0.065403 -0.562680
  outer loop
   vertex 3221.583527 -8.223150 -624.778990
   vertex 1951.583527 -8.223150 1235.221010
   vertex 1952.028639 0.000000 1235.524931
  endloop
 endfacet
 facet normal -0.824083 0.065403 -0.562680
  outer loop
   vertex 3222.028639 0.000000 -624.475069
   vertex 3221.583527 -8.223150 -624.778990
   vertex 1952.028639 0.000000 1235.524931
  endloop
 endfacet
 facet normal -0.809983 0.195090 -0.553053
  outer loop
   vertex 3220.255806 -16.305600 -625.685552
   vertex 1950.255806 -16.305600 1234.314448
   vertex 1951.583527 -8.223150 1235.221010
  endloop
 endfacet
 facet normal -0.809983 0.195090 -0.553053
  outer loop
   vertex 3221.583527 -8.223150 -624.778990
   vertex 3220.255806 -16.305600 -625.685552
   vertex 1951.583527 -8.223150 1235.221010
  endloop
 endfacet
 facet normal -0.782024 0.321439 -0.533962
  outer loop
   vertex 3218.068195 -24.109056 -627.179243
   vertex 1948.068195 -24.109056 1232.820757
   vertex 1950.255806 -16.305600 1234.314448
  endloop
 endfacet
 facet normal -0.782024 0.321439 -0.533962
  outer loop
   vertex 3220.255806 -16.305600 -625.685552
   vertex 3218.068195 -24.109056 -627.179243
   vertex 1950.255806 -16.305600 1234.314448
  endloop
 endfacet
 facet normal -0.740684 0.442289 -0.505736
  outer loop
   vertex 3215.058123 -31.500000 -629.234507
   vertex 1945.058123 -31.500000 1230.765493
   vertex 1948.068195 -24.109056 1232.820757
  endloop
 endfacet
 facet normal -0.740684 0.442289 -0.505736
  outer loop
   vertex 3218.068195 -24.109056 -627.179243
   vertex 3215.058123 -31.500000 -629.234507
   vertex 1948.068195 -24.109056 1232.820757
  endloop
 endfacet
 facet normal -0.686670 0.555570 -0.468856
  outer loop
   vertex 3211.277095 -38.351970 -631.816177
   vertex 1941.277095 -38.351970 1228.183823
   vertex 1945.058123 -31.500000 1230.765493
  endloop
 endfacet
 facet normal -0.686670 0.555570 -0.468856
  outer loop
   vertex 3215.058123 -31.500000 -629.234507
   vertex 3211.277095 -38.351970 -631.816177
   vertex 1945.058123 -31.500000 1230.765493
  endloop
 endfacet
 facet normal -0.620908 0.659346 -0.423953
  outer loop
   vertex 3206.789803 -44.547727 -634.880080
   vertex 1936.789803 -44.547727 1225.119920
   vertex 1941.277095 -38.351970 1228.183823
  endloop
 endfacet
 facet normal -0.620908 0.659346 -0.423953
  outer loop
   vertex 3211.277095 -38.351970 -631.816177
   vertex 3206.789803 -44.547727 -634.880080
   vertex 1941.277095 -38.351970 1228.183823
  endloop
 endfacet
 facet normal -0.544522 0.751840 -0.371797
  outer loop
   vertex 3201.673029 -49.981260 -638.373792
   vertex 1931.673029 -49.981260 1221.626208
   vertex 1936.789803 -44.547727 1225.119920
  endloop
 endfacet
 facet normal -0.544522 0.751840 -0.371797
  outer loop
   vertex 3206.789803 -44.547727 -634.880080
   vertex 3201.673029 -49.981260 -638.373792
   vertex 1936.789803 -44.547727 1225.119920
  endloop
 endfacet
 facet normal -0.458818 0.831470 -0.313279
  outer loop
   vertex 3196.014320 -54.559600 -642.237535
   vertex 1926.014320 -54.559600 1217.762465
   vertex 1931.673029 -49.981260 1221.626208
  endloop
 endfacet
 facet normal -0.458818 0.831470 -0.313279
  outer loop
   vertex 3201.673029 -49.981260 -638.373792
   vertex 3196.014320 -54.559600 -642.237535
   vertex 1931.673029 -49.981260 1221.626208
  endloop
 endfacet
 facet normal -0.365265 0.896873 -0.249401
  outer loop
   vertex 3189.910498 -58.204411 -646.405197
   vertex 1919.910498 -58.204411 1213.594803
   vertex 1926.014320 -54.559600 1217.762465
  endloop
 endfacet
 facet normal -0.365265 0.896873 -0.249401
  outer loop
   vertex 3196.014320 -54.559600 -642.237535
   vertex 3189.910498 -58.204411 -646.405197
   vertex 1926.014320 -54.559600 1217.762465
  endloop
 endfacet
 facet normal -0.265461 0.946930 -0.181256
  outer loop
   vertex 3183.466003 -60.853327 -650.805471
   vertex 1913.466003 -60.853327 1209.194529
   vertex 1919.910498 -58.204411 1213.594803
  endloop
 endfacet
 facet normal -0.265461 0.946930 -0.181256
  outer loop
   vertex 3189.910498 -58.204411 -646.405197
   vertex 3183.466003 -60.853327 -650.805471
   vertex 1919.910498 -58.204411 1213.594803
  endloop
 endfacet
 facet normal -0.161116 0.980785 -0.110009
  outer loop
   vertex 3176.791100 -62.461026 -655.363066
   vertex 1906.791100 -62.461026 1204.636934
   vertex 1913.466003 -60.853327 1209.194529
  endloop
 endfacet
 facet normal -0.161116 0.980785 -0.110009
  outer loop
   vertex 3183.466003 -60.853327 -650.805471
   vertex 3176.791100 -62.461026 -655.363066
   vertex 1913.466003 -60.853327 1209.194529
  endloop
 endfacet
 facet normal -0.054013 0.997859 -0.036880
  outer loop
   vertex 3170.000000 -63.000000 -660.000000
   vertex 1900.000000 -63.000000 1200.000000
   vertex 1906.791100 -62.461026 1204.636934
  endloop
 endfacet
 facet normal -0.054013 0.997859 -0.036880
  outer loop
   vertex 3176.791100 -62.461026 -655.363066
   vertex 3170.000000 -63.000000 -660.000000
   vertex 1906.791100 -62.461026 1204.636934
  endloop
 endfacet
 facet normal 0.054013 0.997859 0.036880
  outer loop
   vertex 3163.208900 -62.461026 -664.636934
   vertex 1893.208900 -62.461026 1195.363066
   vertex 1900.000000 -63.000000 1200.000000
  endloop
 endfacet
 facet normal 0.054013 0.997859 0.036880
  outer loop
   vertex 3170.000000 -63.000000 -660.000000
   vertex 3163.208900 -62.461026 -664.636934
   vertex 1900.000000 -63.000000 1200.000000
  endloop
 endfacet
 facet normal 0.161116 0.980785 0.110009
  outer loop
   vertex 3156.533997 -60.853327 -669.194529
   vertex 1886.533997 -60.853327 1190.805471
   vertex 1893.208900 -62.461026 1195.363066
  endloop
 endfacet
 facet normal 0.161116 0.980785 0.110009
  outer loop
   vertex 3163.208900 -62.461026 -664.636934
   vertex 3156.533997 -60.853327 -669.194529
   vertex 1893.208900 -62.461026 1195.363066
  endloop
 endfacet
 facet normal 0.265461 0.946930 0.181256
  outer loop
   vertex 3150.089502 -58.204411 -673.594803
   vertex 1880.089502 -58.204411 1186.405197
   vertex 1886.533997 -60.853327 1190.805471
  endloop
 endfacet
 facet normal 0.265461 0.946930 0.181256
  outer loop
   vertex 3156.533997 -60.853327 -669.194529
   vertex 3150.089502 -58.204411 -673.594803
   vertex 1886.533997 -60.853327 1190.805471
  endloop
 endfacet
 facet normal 0.365265 0.896873 0.249401
  outer loop
   vertex 3143.985680 -54.559600 -677.762465
   vertex 1873.985680 -54.559600 1182.237535
   vertex 1880.089502 -58.204411 1186.405197
  endloop
 endfacet
 facet normal 0.365265 0.896873 0.249401
  outer loop
   vertex 3150.089502 -58.204411 -673.594803
   vertex 3143.985680 -54.559600 -677.762465
   vertex 1880.089502 -58.204411 1186.405197
  endloop
 endfacet
 facet normal 0.458818 0.831470 0.313279
  outer loop
   vertex 3138.326971 -49.981260 -681.626208
   vertex 1868.326971 -49.981260 1178.373792
   vertex 1873.985680 -54.559600 1182.237535
  endloop
 endfacet
 facet normal 0.458818 0.831470 0.313279
  outer loop
   vertex 3143.985680 -54.559600 -677.762465
   vertex 3138.326971 -49.981260 -681.626208
   vertex 1873.985680 -54.559600 1182.237535
  endloop
 endfacet
 facet normal 0.544522 0.751840 0.371797
  outer loop
   vertex 3133.210197 -44.547727 -685.119920
   vertex 1863.210197 -44.547727 1174.880080
   vertex 1868.326971 -49.981260 1178.373792
  endloop
 endfacet
 facet normal 0.544522 0.751840 0.371797
  outer loop
   vertex 3138.326971 -49.981260 -681.626208
   vertex 3133.210197 -44.547727 -685.119920
   vertex 1868.326971 -49.981260 1178.373792
  endloop
 endfacet
 facet normal 0.620908 0.659346 0.423953
  outer loop
   vertex 3128.722905 -38.351970 -688.183823
   vertex 1858.722905 -38.351970 1171.816177
   vertex 1863.210197 -44.547727 1174.880080
  endloop
 endfacet
 facet normal 0.620908 0.659346 0.423953
  outer loop
   vertex 3133.210197 -44.547727 -685.119920
   vertex 3128.722905 -38.351970 -688.183823
   vertex 1863.210197 -44.547727 1174.880080
  endloop
 endfacet
 facet normal 0.686670 0.555570 0.468856
  outer loop
   vertex 3124.941877 -31.500000 -690.765493
   vertex 1854.941877 -31.500000 1169.234507
   vertex 1858.722905 -38.351970 1171.816177
  endloop
 endfacet
 facet normal 0.686670 0.555570 0.468856
  outer loop
   vertex 3128.722905 -38.351970 -688.183823
   vertex 3124.941877 -31.500000 -690.765493
   vertex 1858.722905 -38.351970 1171.816177
  endloop
 endfacet
 facet normal 0.740684 0.442289 0.505736
  outer loop
   vertex 3121.931805 -24.109056 -692.820757
   vertex 1851.931805 -24.109056 1167.179243
   vertex 1854.941877 -31.500000 1169.234507
  endloop
 endfacet
 facet normal 0.740684 0.442289 0.505736
  outer loop
   vertex 3124.941877 -31.500000 -690.765493
   vertex 3121.931805 -24.109056 -692.820757
   vertex 1854.941877 -31.500000 1169.234507
  endloop
 endfacet
 facet normal 0.782024 0.321439 0.533962
  outer loop
   vertex 3119.744194 -16.305600 -694.314448
   vertex 1849.744194 -16.305600 1165.685552
   vertex 1851.931805 -24.109056 1167.179243
  endloop
 endfacet
 facet normal 0.782024 0.321439 0.533962
  outer loop
   vertex 3121.931805 -24.109056 -692.820757
   vertex 3119.744194 -16.305600 -694.314448
   vertex 1851.931805 -24.109056 1167.179243
  endloop
 endfacet
 facet normal 0.809983 0.195090 0.553053
  outer loop
   vertex 3118.416473 -8.223150 -695.221010
   vertex 1848.416473 -8.223150 1164.778990
   vertex 1849.744194 -16.305600 1165.685552
  endloop
 endfacet
 facet normal 0.809983 0.195090 0.553053
  outer loop
   vertex 3119.744194 -16.305600 -694.314448
   vertex 3118.416473 -8.223150 -695.221010
   vertex 1849.744194 -16.305600 1165.685552
  endloop
 endfacet
 facet normal 0.824083 0.065403 0.562680
  outer loop
   vertex 3117.971361 -0.000000 -695.524931
   vertex 1847.971361 -0.000000 1164.475069
   vertex 1848.416473 -8.223150 1164.778990
  endloop
 endfacet
 facet normal 0.824083 0.065403 0.562680
  outer loop
   vertex 3118.416473 -8.223150 -695.221010
   vertex 3117.971361 -0.000000 -695.524931
   vertex 1848.416473 -8.223150 1164.778990
  endloop
 endfacet
 facet normal 0.824083 -0.065403 0.562680
  outer loop
   vertex 3118.416473 8.223150 -695.221010
   vertex 1848.416473 8.223150 1164.778990
   vertex 1847.971361 -0.000000 1164.475069
  endloop
 endfacet
 facet normal 0.824083 -0.065403 0.562680
  outer loop
   vertex 3117.971361 -0.000000 -695.524931
   vertex 3118.416473 8.223150 -695.221010
   vertex 1847.971361 -0.000000 1164.475069
  endloop
 endfacet
 facet normal 0.809983 -0.195090 0.553053
  outer loop
   vertex 3119.744194 16.305600 -694.314448
   vertex 1849.744194 16.305600 1165.685552
   vertex 1848.416473 8.223150 1164.778990
  endloop
 endfacet
 facet normal 0.809983 -0.195090 0.553053
  outer loop
   vertex 3118.416473 8.223150 -695.221010
   vertex 3119.744194 16.305600 -694.314448
   vertex 1848.416473 8.223150 1164.778990
  endloop
 endfacet
 facet normal 0.782024 -0.321439 0.533962
  outer loop
   vertex 3121.931805 24.109056 -692.820757
   vertex 1851.931805 24.109056 1167.179243
   vertex 1849.744194 16.305600 1165.685552
  endloop
 endfacet
 facet normal 0.782024 -0.321439 0.533962
  outer loop
   vertex 3119.744194 16.305600 -694.314448
   vertex 3121.931805 24.109056 -692.820757
   vertex 1849.744194 16.305600 1165.685552
  endloop
 endfacet
 facet normal 0.740684 -0.442289 0.505736
  outer loop
   vertex 3124.941877 31.500000 -690.765493
   vertex 1854.941877 31.500000 1169.234507
   vertex 1851.931805 24.109056 1167.179243
  endloop
 endfacet
 facet normal 0.740684 -0.442289 0.505736
  outer loop
   vertex 3121.931805 24.109056 -692.820757
   vertex 3124.941877 31.500000 -690.765493
   vertex 1851.931805 24.109056 1167.179243
  endloop
 endfacet
 facet normal 0.686670 -0.555570 0.468856
  outer loop
   vertex 3128.722905 38.351970 -688.183823
   vertex 1858.722905 38.351970 1171.816177
   vertex 1854.941877 31.500000 1169.234507
  endloop
 endfacet
 facet normal 0.686670 -0.555570 0.468856
  outer loop
   vertex 3124.941877 31.500000 -690.765493
   vertex 3128.722905 38.351970 -688.183823
   vertex 1854.941877 31.500000 1169.234507
  endloop
 endfacet
 facet normal 0.620908 -0.659346 0.423953
  outer loop
   vertex 3133.210197 44.547727 -685.119920
   vertex 1863.210197 44.547727 1174.880080
   vertex 1858.722905 38.351970 1171.816177
  endloop
 endfacet
 facet normal 0.620908 -0.659346 0.423953
  outer loop
   vertex 3128.722905 38.351970 -688.183823
   vertex 3133.210197 44.547727 -685.119920
   vertex 1858.722905 38.351970 1171.816177
  endloop
 endfacet
 facet normal 0.544522 -0.751840 0.371797
  outer loop
   vertex 3138.326971 49.981260 -681.626208
   vertex 1868.326971 49.981260 1178.373792
   vertex 1863.210197 44.547727 1174.880080
  endloop
 endfacet
 facet normal 0.544522 -0.751840 0.371797
  outer loop
   vertex 3133.210197 44.547727 -685.119920
   vertex 3138.326971 49.981260 -681.626208
   vertex 1863.210197 44.547727 1174.880080
  endloop
 endfacet
 facet normal 0.458818 -0.831470 0.313279
  outer loop
   vertex 3143.985680 54.559600 -677.762465
   vertex 1873.985680 54.559600 1182.237535
   vertex 1868.326971 49.981260 1178.373792
  endloop
 endfacet
 facet normal 0.458818 -0.831470 0.313279
  outer loop
   vertex 3138.326971 49.981260 -681.626208
   vertex 3143.985680 54.559600 -677.762465
   vertex 1868.326971 49.981260 1178.373792
  endloop
 endfacet
 facet normal 0.365265 -0.896873 0.249401
  outer loop
   vertex 3150.089502 58.204411 -673.594803
   vertex 1880.089502 58.204411 1186.405197
   vertex 1873.985680 54.559600 1182.237535
  endloop
 endfacet
 facet normal 0.365265 -0.896873 0.249401
  outer loop
   vertex 3143.985680 54.559600 -677.762465
   vertex 3150.089502 58.204411 -673.594803
   vertex 1873.985680 54.559600 1182.237535
  endloop
 endfacet
 facet normal 0.265461 -0.946930 0.181256
  outer loop
   vertex 3156.533997 60.853327 -669.194529
   vertex 1886.533997 60.853327 1190.805471
   vertex 1880.089502 58.204411 1186.405197
  endloop
 endfacet
 facet normal 0.265461 -0.946930 0.181256
  outer loop
   vertex 3150.089502 58.204411 -673.594803
   vertex 3156.533997 60.853327 -669.194529
   vertex 1880.089502 58.204411 1186.405197
  endloop
 endfacet
 facet normal 0.161116 -0.980785 0.110009
  outer loop
   vertex 3163.208900 62.461026 -664.636934
   vertex 1893.208900 62.461026 1195.363066
   vertex 1886.533997 60.853327 1190.805471
  endloop
 endfacet
 facet normal 0.161116 -0.980785 0.110009
  outer loop
   vertex 3156.533997 60.853327 -669.194529
   vertex 3163.208900 62.461026 -664.636934
   vertex 1886.533997 60.853327 1190.805471
  endloop
 endfacet
 facet normal 0.054013 -0.997859 0.036880
  outer loop
   vertex 3170.000000 63.000000 -660.000000
   vertex 1900.000000 63.000000 1200.000000
   vertex 1893.208900 62.461026 1195.363066
  endloop
 endfacet
 facet normal 0.054013 -0.997859 0.036880
  outer loop
   vertex 3163.208900 62.461026 -664.636934
   vertex 3170.000000 63.000000 -660.000000
   vertex 1893.208900 62.461026 1195.363066
  endloop
 endfacet
endsolid SIC_RP1_riser
