solid SIC_RP1_feed_1_elbow
 facet normal 0.065403 0.997859 0.000000
  outer loop
   vertex 2631.200000 100.000000 -520.000000
   vertex 2644.252619 99.144486 -520.000000
   vertex 2644.252619 99.144486 -1040.000000
  endloop
 endfacet
 facet normal 0.065403 0.997859 0.000000
  outer loop
   vertex 2631.200000 100.000000 -520.000000
   vertex 2644.252619 99.144486 -1040.000000
   vertex 2631.200000 100.000000 -1040.000000
  endloop
 endfacet
 facet normal 0.195090 0.980785 0.000000
  outer loop
   vertex 2644.252619 99.144486 -520.000000
   vertex 2657.081905 96.592583 -520.000000
   vertex 2657.081905 96.592583 -1040.000000
  endloop
 endfacet
 facet normal 0.195090 0.980785 0.000000
  outer loop
   vertex 2644.252619 99.144486 -520.000000
   vertex 2657.081905 96.592583 -1040.000000
   vertex 2644.252619 99.144486 -1040.000000
  endloop
 endfacet
 facet normal 0.321439 0.946930 0.000000
  outer loop
   vertex 2657.081905 96.592583 -520.000000
   vertex 2669.468343 92.387953 -520.000000
   vertex 2669.468343 92.387953 -1040.000000
  endloop
 endfacet
 facet normal 0.321439 0.946930 0.000000
  outer loop
   vertex 2657.081905 96.592583 -520.000000
   vertex 2669.468343 92.387953 -1040.000000
   vertex 2657.081905 96.592583 -1040.000000
  endloop
 endfacet
 facet normal 0.442289 0.896873 0.000000
  outer loop
   vertex 2669.468343 92.387953 -520.000000
   vertex 2681.200000 86.602540 -520.000000
   vertex 2681.200000 86.602540 -1040.000000
  endloop
 endfacet
 facet normal 0.442289 0.896873 0.000000
  outer loop
   vertex 2669.468343 92.387953 -520.000000
   vertex 2681.200000 86.602540 -1040.000000
   vertex 2669.468343 92.387953 -1040.000000
  endloop
 endfacet
 facet normal 0.555570 0.831470 0.000000
  outer loop
   vertex 2681.200000 86.602540 -520.000000
   vertex 2692.076143 79.335334 -520.000000
   vertex 2692.076143 79.335334 -1040.000000
  endloop
 endfacet
 facet normal 0.555570 0.831470 0.000000
  outer loop
   vertex 2681.200000 86.602540 -520.000000
   vertex 2692.076143 79.335334 -1040.000000
   vertex 2681.200000 86.602540 -1040.000000
  endloop
 endfacet
 facet normal 0.659346 0.751840 0.000000
  outer loop
   vertex 2692.076143 79.335334 -520.000000
   vertex 2701.910678 70.710678 -520.000000
   vertex 2701.910678 70.710678 -1040.000000
  endloop
 endfacet
 facet normal 0.659346 0.751840 0.000000
  outer loop
   vertex 2692.076143 79.335334 -520.000000
   vertex 2701.910678 70.710678 -1040.000000
   vertex 2692.076143 79.335334 -1040.000000
  endloop
 endfacet
 facet normal 0.751840 0.659346 0.000000
  outer loop
   vertex 2701.910678 70.710678 -520.000000
   vertex 2710.535334 60.876143 -520.000000
   vertex 2710.535334 60.876143 -1040.000000
  endloop
 endfacet
 facet normal 0.751840 0.659346 0.000000
  outer loop
   vertex 2701.910678 70.710678 -520.000000
   vertex 2710.535334 60.876143 -1040.000000
   vertex 2701.910678 70.710678 -1040.000000
  endloop
 endfacet
 facet normal 0.831470 0.555570 0.000000
  outer loop
   vertex 2710.535334 60.876143 -520.000000
   vertex 2717.802540 50.000000 -520.000000
   vertex 2717.802540 50.000000 -1040.000000
  endloop
 endfacet
 facet normal 0.831470 0.555570 0.000000
  outer loop
   vertex 2710.535334 60.876143 -520.000000
   vertex 2717.802540 50.000000 -1040.000000
   vertex 2710.535334 60.876143 -1040.000000
  endloop
 endfacet
 facet normal 0.896873 0.442289 0.000000
  outer loop
   vertex 2717.802540 50.000000 -520.000000
   vertex 2723.587953 38.268343 -520.000000
   vertex 2723.587953 38.268343 -1040.000000
  endloop
 endfacet
 facet normal 0.896873 0.442289 0.000000
  outer loop
   vertex 2717.802540 50.000000 -520.000000
   vertex 2723.587953 38.268343 -1040.000000
   vertex 2717.802540 50.000000 -1040.000000
  endloop
 endfacet
 facet normal 0.946930 0.321439 0.000000
  outer loop
   vertex 2723.587953 38.268343 -520.000000
   vertex 2727.792583 25.881905 -520.000000
   vertex 2727.792583 25.881905 -1040.000000
  endloop
 endfacet
 facet normal 0.946930 0.321439 0.000000
  outer loop
   vertex 2723.587953 38.268343 -520.000000
   vertex 2727.792583 25.881905 -1040.000000
   vertex 2723.587953 38.268343 -1040.000000
  endloop
 endfacet
 facet normal 0.980785 0.195090 0.000000
  outer loop
   vertex 2727.792583 25.881905 -520.000000
   vertex 2730.344486 13.052619 -520.000000
   vertex 2730.344486 13.052619 -1040.000000
  endloop
 endfacet
 facet normal 0.980785 0.195090 0.000000
  outer loop
   vertex 2727.792583 25.881905 -520.000000
   vertex 2730.344486 13.052619 -1040.000000
   vertex 2727.792583 25.881905 -1040.000000
  endloop
 endfacet
 facet normal 0.997859 0.065403 0.000000
  outer loop
   vertex 2730.344486 13.052619 -520.000000
   vertex 2731.200000 0.000000 -520.000000
   vertex 2731.200000 0.000000 -1040.000000
  endloop
 endfacet
 facet normal 0.997859 0.065403 0.000000
  outer loop
   vertex 2730.344486 13.052619 -520.000000
   vertex 2731.200000 0.000000 -1040.000000
   vertex 2730.344486 13.052619 -1040.000000
  endloop
 endfacet
 facet normal 0.997859 -0.065403 0.000000
  outer loop
   vertex 2731.200000 0.000000 -520.000000
   vertex 2730.344486 -13.052619 -520.000000
   vertex 2730.344486 -13.052619 -1040.000000
  endloop
 endfacet
 facet normal 0.997859 -0.065403 0.000000
  outer loop
   vertex 2731.200000 0.000000 -520.000000
   vertex 2730.344486 -13.052619 -1040.000000
   vertex 2731.200000 0.000000 -1040.000000
  endloop
 endfacet
 facet normal 0.980785 -0.195090 0.000000
  outer loop
   vertex 2730.344486 -13.052619 -520.000000
   vertex 2727.792583 -25.881905 -520.000000
   vertex 2727.792583 -25.881905 -1040.000000
  endloop
 endfacet
 facet normal 0.980785 -0.195090 0.000000
  outer loop
   vertex 2730.344486 -13.052619 -520.000000
   vertex 2727.792583 -25.881905 -1040.000000
   vertex 2730.344486 -13.052619 -1040.000000
  endloop
 endfacet
 facet normal 0.946930 -0.321439 0.000000
  outer loop
   vertex 2727.792583 -25.881905 -520.000000
   vertex 2723.587953 -38.268343 -520.000000
   vertex 2723.587953 -38.268343 -1040.000000
  endloop
 endfacet
 facet normal 0.946930 -0.321439 0.000000
  outer loop
   vertex 2727.792583 -25.881905 -520.000000
   vertex 2723.587953 -38.268343 -1040.000000
   vertex 2727.792583 -25.881905 -1040.000000
  endloop
 endfacet
 facet normal 0.896873 -0.442289 0.000000
  outer loop
   vertex 2723.587953 -38.268343 -520.000000
   vertex 2717.802540 -50.000000 -520.000000
   vertex 2717.802540 -50.000000 -1040.000000
  endloop
 endfacet
 facet normal 0.896873 -0.442289 0.000000
  outer loop
   vertex 2723.587953 -38.268343 -520.000000
   vertex 2717.802540 -50.000000 -1040.000000
   vertex 2723.587953 -38.268343 -1040.000000
  endloop
 endfacet
 facet normal 0.831470 -0.555570 0.000000
  outer loop
   vertex 2717.802540 -50.000000 -520.000000
   vertex 2710.535334 -60.876143 -520.000000
   vertex 2710.535334 -60.876143 -1040.000000
  endloop
 endfacet
 facet normal 0.831470 -0.555570 0.000000
  outer loop
   vertex 2717.802540 -50.000000 -520.000000
   vertex 2710.535334 -60.876143 -1040.000000
   vertex 2717.802540 -50.000000 -1040.000000
  endloop
 endfacet
 facet normal 0.751840 -0.659346 0.000000
  outer loop
   vertex 2710.535334 -60.876143 -520.000000
   vertex 2701.910678 -70.710678 -520.000000
   vertex 2701.910678 -70.710678 -1040.000000
  endloop
 endfacet
 facet normal 0.751840 -0.659346 0.000000
  outer loop
   vertex 2710.535334 -60.876143 -520.000000
   vertex 2701.910678 -70.710678 -1040.000000
   vertex 2710.535334 -60.876143 -1040.000000
  endloop
 endfacet
 facet normal 0.659346 -0.751840 0.000000
  outer loop
   vertex 2701.910678 -70.710678 -520.000000
   vertex 2692.076143 -79.335334 -520.000000
   vertex 2692.076143 -79.335334 -1040.000000
  endloop
 endfacet
 facet normal 0.659346 -0.751840 0.000000
  outer loop
   vertex 2701.910678 -70.710678 -520.000000
   vertex 2692.076143 -79.335334 -1040.000000
   vertex 2701.910678 -70.710678 -1040.000000
  endloop
 endfacet
 facet normal 0.555570 -0.831470 0.000000
  outer loop
   vertex 2692.076143 -79.335334 -520.000000
   vertex 2681.200000 -86.602540 -520.000000
   vertex 2681.200000 -86.602540 -1040.000000
  endloop
 endfacet
 facet normal 0.555570 -0.831470 0.000000
  outer loop
   vertex 2692.076143 -79.335334 -520.000000
   vertex 2681.200000 -86.602540 -1040.000000
   vertex 2692.076143 -79.335334 -1040.000000
  endloop
 endfacet
 facet normal 0.442289 -0.896873 0.000000
  outer loop
   vertex 2681.200000 -86.602540 -520.000000
   vertex 2669.468343 -92.387953 -520.000000
   vertex 2669.468343 -92.387953 -1040.000000
  endloop
 endfacet
 facet normal 0.442289 -0.896873 0.000000
  outer loop
   vertex 2681.200000 -86.602540 -520.000000
   vertex 2669.468343 -92.387953 -1040.000000
   vertex 2681.200000 -86.602540 -1040.000000
  endloop
 endfacet
 facet normal 0.321439 -0.946930 0.000000
  outer loop
   vertex 2669.468343 -92.387953 -520.000000
   vertex 2657.081905 -96.592583 -520.000000
   vertex 2657.081905 -96.592583 -1040.000000
  endloop
 endfacet
 facet normal 0.321439 -0.946930 0.000000
  outer loop
   vertex 2669.468343 -92.387953 -520.000000
   vertex 2657.081905 -96.592583 -1040.000000
   vertex 2669.468343 -92.387953 -1040.000000
  endloop
 endfacet
 facet normal 0.195090 -0.980785 0.000000
  outer loop
   vertex 2657.081905 -96.592583 -520.000000
   vertex 2644.252619 -99.144486 -520.000000
   vertex 2644.252619 -99.144486 -1040.000000
  endloop
 endfacet
 facet normal 0.195090 -0.980785 0.000000
  outer loop
   vertex 2657.081905 -96.592583 -520.000000
   vertex 2644.252619 -99.144486 -1040.000000
   vertex 2657.081905 -96.592583 -1040.000000
  endloop
 endfacet
 facet normal 0.065403 -0.997859 0.000000
  outer loop
   vertex 2644.252619 -99.144486 -520.000000
   vertex 2631.200000 -100.000000 -520.000000
   vertex 2631.200000 -100.000000 -1040.000000
  endloop
 endfacet
 facet normal 0.065403 -0.997859 0.000000
  outer loop
   vertex 2644.252619 -99.144486 -520.000000
   vertex 2631.200000 -100.000000 -1040.000000
   vertex 2644.252619 -99.144486 -1040.000000
  endloop
 endfacet
 facet normal -0.065403 -0.997859 0.000000
  outer loop
   vertex 2631.200000 -100.000000 -520.000000
   vertex 2618.147381 -99.144486 -520.000000
   vertex 2618.147381 -99.144486 -1040.000000
  endloop
 endfacet
 facet normal -0.065403 -0.997859 -0.000000
  outer loop
   vertex 2631.200000 -100.000000 -520.000000
   vertex 2618.147381 -99.144486 -1040.000000
   vertex 2631.200000 -100.000000 -1040.000000
  endloop
 endfacet
 facet normal -0.195090 -0.980785 0.000000
  outer loop
   vertex 2618.147381 -99.144486 -520.000000
   vertex 2605.318095 -96.592583 -520.000000
   vertex 2605.318095 -96.592583 -1040.000000
  endloop
 endfacet
 facet normal -0.195090 -0.980785 -0.000000
  outer loop
   vertex 2618.147381 -99.144486 -520.000000
   vertex 2605.318095 -96.592583 -1040.000000
   vertex 2618.147381 -99.144486 -1040.000000
  endloop
 endfacet
 facet normal -0.321439 -0.946930 0.000000
  outer loop
   vertex 2605.318095 -96.592583 -520.000000
   vertex 2592.931657 -92.387953 -520.000000
   vertex 2592.931657 -92.387953 -1040.000000
  endloop
 endfacet
 facet normal -0.321439 -0.946930 -0.000000
  outer loop
   vertex 2605.318095 -96.592583 -520.000000
   vertex 2592.931657 -92.387953 -1040.000000
   vertex 2605.318095 -96.592583 -1040.000000
  endloop
 endfacet
 facet normal -0.442289 -0.896873 0.000000
  outer loop
   vertex 2592.931657 -92.387953 -520.000000
   vertex 2581.200000 -86.602540 -520.000000
   vertex 2581.200000 -86.602540 -1040.000000
  endloop
 endfacet
 facet normal -0.442289 -0.896873 -0.000000
  outer loop
   vertex 2592.931657 -92.387953 -520.000000
   vertex 2581.200000 -86.602540 -1040.000000
   vertex 2592.931657 -92.387953 -1040.000000
  endloop
 endfacet
 facet normal -0.555570 -0.831470 0.000000
  outer loop
   vertex 2581.200000 -86.602540 -520.000000
   vertex 2570.323857 -79.335334 -520.000000
   vertex 2570.323857 -79.335334 -1040.000000
  endloop
 endfacet
 facet normal -0.555570 -0.831470 -0.000000
  outer loop
   vertex 2581.200000 -86.602540 -520.000000
   vertex 2570.323857 -79.335334 -1040.000000
   vertex 2581.200000 -86.602540 -1040.000000
  endloop
 endfacet
 facet normal -0.659346 -0.751840 0.000000
  outer loop
   vertex 2570.323857 -79.335334 -520.000000
   vertex 2560.489322 -70.710678 -520.000000
   vertex 2560.489322 -70.710678 -1040.000000
  endloop
 endfacet
 facet normal -0.659346 -0.751840 -0.000000
  outer loop
   vertex 2570.323857 -79.335334 -520.000000
   vertex 2560.489322 -70.710678 -1040.000000
   vertex 2570.323857 -79.335334 -1040.000000
  endloop
 endfacet
 facet normal -0.751840 -0.659346 0.000000
  outer loop
   vertex 2560.489322 -70.710678 -520.000000
   vertex 2551.864666 -60.876143 -520.000000
   vertex 2551.864666 -60.876143 -1040.000000
  endloop
 endfacet
 facet normal -0.751840 -0.659346 -0.000000
  outer loop
   vertex 2560.489322 -70.710678 -520.000000
   vertex 2551.864666 -60.876143 -1040.000000
   vertex 2560.489322 -70.710678 -1040.000000
  endloop
 endfacet
 facet normal -0.831470 -0.555570 0.000000
  outer loop
   vertex 2551.864666 -60.876143 -520.000000
   vertex 2544.597460 -50.000000 -520.000000
   vertex 2544.597460 -50.000000 -1040.000000
  endloop
 endfacet
 facet normal -0.831470 -0.555570 -0.000000
  outer loop
   vertex 2551.864666 -60.876143 -520.000000
   vertex 2544.597460 -50.000000 -1040.000000
   vertex 2551.864666 -60.876143 -1040.000000
  endloop
 endfacet
 facet normal -0.896873 -0.442289 0.000000
  outer loop
   vertex 2544.597460 -50.000000 -520.000000
   vertex 2538.812047 -38.268343 -520.000000
   vertex 2538.812047 -38.268343 -1040.000000
  endloop
 endfacet
 facet normal -0.896873 -0.442289 -0.000000
  outer loop
   vertex 2544.597460 -50.000000 -520.000000
   vertex 2538.812047 -38.268343 -1040.000000
   vertex 2544.597460 -50.000000 -1040.000000
  endloop
 endfacet
 facet normal -0.946930 -0.321439 0.000000
  outer loop
   vertex 2538.812047 -38.268343 -520.000000
   vertex 2534.607417 -25.881905 -520.000000
   vertex 2534.607417 -25.881905 -1040.000000
  endloop
 endfacet
 facet normal -0.946930 -0.321439 -0.000000
  outer loop
   vertex 2538.812047 -38.268343 -520.000000
   vertex 2534.607417 -25.881905 -1040.000000
   vertex 2538.812047 -38.268343 -1040.000000
  endloop
 endfacet
 facet normal -0.980785 -0.195090 0.000000
  outer loop
   vertex 2534.607417 -25.881905 -520.000000
   vertex 2532.055514 -13.052619 -520.000000
   vertex 2532.055514 -13.052619 -1040.000000
  endloop
 endfacet
 facet normal -0.980785 -0.195090 -0.000000
  outer loop
   vertex 2534.607417 -25.881905 -520.000000
   vertex 2532.055514 -13.052619 -1040.000000
   vertex 2534.607417 -25.881905 -1040.000000
  endloop
 endfacet
 facet normal -0.997859 -0.065403 0.000000
  outer loop
   vertex 2532.055514 -13.052619 -520.000000
   vertex 2531.200000 -0.000000 -520.000000
   vertex 2531.200000 -0.000000 -1040.000000
  endloop
 endfacet
 facet normal -0.997859 -0.065403 -0.000000
  outer loop
   vertex 2532.055514 -13.052619 -520.000000
   vertex 2531.200000 -0.000000 -1040.000000
   vertex 2532.055514 -13.052619 -1040.000000
  endloop
 endfacet
 facet normal -0.997859 0.065403 0.000000
  outer loop
   vertex 2531.200000 -0.000000 -520.000000
   vertex 2532.055514 13.052619 -520.000000
   vertex 2532.055514 13.052619 -1040.000000
  endloop
 endfacet
 facet normal -0.997859 0.065403 0.000000
  outer loop
   vertex 2531.200000 -0.000000 -520.000000
   vertex 2532.055514 13.052619 -1040.000000
   vertex 2531.200000 -0.000000 -1040.000000
  endloop
 endfacet
 facet normal -0.980785 0.195090 0.000000
  outer loop
   vertex 2532.055514 13.052619 -520.000000
   vertex 2534.607417 25.881905 -520.000000
   vertex 2534.607417 25.881905 -1040.000000
  endloop
 endfacet
 facet normal -0.980785 0.195090 0.000000
  outer loop
   vertex 2532.055514 13.052619 -520.000000
   vertex 2534.607417 25.881905 -1040.000000
   vertex 2532.055514 13.052619 -1040.000000
  endloop
 endfacet
 facet normal -0.946930 0.321439 0.000000
  outer loop
   vertex 2534.607417 25.881905 -520.000000
   vertex 2538.812047 38.268343 -520.000000
   vertex 2538.812047 38.268343 -1040.000000
  endloop
 endfacet
 facet normal -0.946930 0.321439 0.000000
  outer loop
   vertex 2534.607417 25.881905 -520.000000
   vertex 2538.812047 38.268343 -1040.000000
   vertex 2534.607417 25.881905 -1040.000000
  endloop
 endfacet
 facet normal -0.896873 0.442289 0.000000
  outer loop
   vertex 2538.812047 38.268343 -520.000000
   vertex 2544.597460 50.000000 -520.000000
   vertex 2544.597460 50.000000 -1040.000000
  endloop
 endfacet
 facet normal -0.896873 0.442289 0.000000
  outer loop
   vertex 2538.812047 38.268343 -520.000000
   vertex 2544.597460 50.000000 -1040.000000
   vertex 2538.812047 38.268343 -1040.000000
  endloop
 endfacet
 facet normal -0.831470 0.555570 0.000000
  outer loop
   vertex 2544.597460 50.000000 -520.000000
   vertex 2551.864666 60.876143 -520.000000
   vertex 2551.864666 60.876143 -1040.000000
  endloop
 endfacet
 facet normal -0.831470 0.555570 0.000000
  outer loop
   vertex 2544.597460 50.000000 -520.000000
   vertex 2551.864666 60.876143 -1040.000000
   vertex 2544.597460 50.000000 -1040.000000
  endloop
 endfacet
 facet normal -0.751840 0.659346 0.000000
  outer loop
   vertex 2551.864666 60.876143 -520.000000
   vertex 2560.489322 70.710678 -520.000000
   vertex 2560.489322 70.710678 -1040.000000
  endloop
 endfacet
 facet normal -0.751840 0.659346 0.000000
  outer loop
   vertex 2551.864666 60.876143 -520.000000
   vertex 2560.489322 70.710678 -1040.000000
   vertex 2551.864666 60.876143 -1040.000000
  endloop
 endfacet
 facet normal -0.659346 0.751840 0.000000
  outer loop
   vertex 2560.489322 70.710678 -520.000000
   vertex 2570.323857 79.335334 -520.000000
   vertex 2570.323857 79.335334 -1040.000000
  endloop
 endfacet
 facet normal -0.659346 0.751840 0.000000
  outer loop
   vertex 2560.489322 70.710678 -520.000000
   vertex 2570.323857 79.335334 -1040.000000
   vertex 2560.489322 70.710678 -1040.000000
  endloop
 endfacet
 facet normal -0.555570 0.831470 0.000000
  outer loop
   vertex 2570.323857 79.335334 -520.000000
   vertex 2581.200000 86.602540 -520.000000
   vertex 2581.200000 86.602540 -1040.000000
  endloop
 endfacet
 facet normal -0.555570 0.831470 0.000000
  outer loop
   vertex 2570.323857 79.335334 -520.000000
   vertex 2581.200000 86.602540 -1040.000000
   vertex 2570.323857 79.335334 -1040.000000
  endloop
 endfacet
 facet normal -0.442289 0.896873 0.000000
  outer loop
   vertex 2581.200000 86.602540 -520.000000
   vertex 2592.931657 92.387953 -520.000000
   vertex 2592.931657 92.387953 -1040.000000
  endloop
 endfacet
 facet normal -0.442289 0.896873 0.000000
  outer loop
   vertex 2581.200000 86.602540 -520.000000
   vertex 2592.931657 92.387953 -1040.000000
   vertex 2581.200000 86.602540 -1040.000000
  endloop
 endfacet
 facet normal -0.321439 0.946930 0.000000
  outer loop
   vertex 2592.931657 92.387953 -520.000000
   vertex 2605.318095 96.592583 -520.000000
   vertex 2605.318095 96.592583 -1040.000000
  endloop
 endfacet
 facet normal -0.321439 0.946930 0.000000
  outer loop
   vertex 2592.931657 92.387953 -520.000000
   vertex 2605.318095 96.592583 -1040.000000
   vertex 2592.931657 92.387953 -1040.000000
  endloop
 endfacet
 facet normal -0.195090 0.980785 0.000000
  outer loop
   vertex 2605.318095 96.592583 -520.000000
   vertex 2618.147381 99.144486 -520.000000
   vertex 2618.147381 99.144486 -1040.000000
  endloop
 endfacet
 facet normal -0.195090 0.980785 0.000000
  outer loop
   vertex 2605.318095 96.592583 -520.000000
   vertex 2618.147381 99.144486 -1040.000000
   vertex 2605.318095 96.592583 -1040.000000
  endloop
 endfacet
 facet normal -0.065403 0.997859 0.000000
  outer loop
   vertex 2618.147381 99.144486 -520.000000
   vertex 2631.200000 100.000000 -520.000000
   vertex 2631.200000 100.000000 -1040.000000
  endloop
 endfacet
 facet normal -0.065403 0.997859 0.000000
  outer loop
   vertex 2618.147381 99.144486 -520.000000
   vertex 2631.200000 100.000000 -1040.000000
   vertex 2618.147381 99.144486 -1040.000000
  endloop
 endfacet
 facet normal -0.065403 -0.997859 0.000000
  outer loop
   vertex 2642.686305 87.247148 -1040.000000
   vertex 2642.686305 87.247148 -520.000000
   vertex 2631.200000 88.000000 -520.000000
  endloop
 endfacet
 facet normal -0.065403 -0.997859 0.000000
  outer loop
   vertex 2631.200000 88.000000 -1040.000000
   vertex 2642.686305 87.247148 -1040.000000
   vertex 2631.200000 88.000000 -520.000000
  endloop
 endfacet
 facet normal -0.195090 -0.980785 0.000000
  outer loop
   vertex 2653.976076 85.001473 -1040.000000
   vertex 2653.976076 85.001473 -520.000000
   vertex 2642.686305 87.247148 -520.000000
  endloop
 endfacet
 facet normal -0.195090 -0.980785 0.000000
  outer loop
   vertex 2642.686305 87.247148 -1040.000000
   vertex 2653.976076 85.001473 -1040.000000
   vertex 2642.686305 87.247148 -520.000000
  endloop
 endfacet
 facet normal -0.321439 -0.946930 0.000000
  outer loop
   vertex 2664.876142 81.301399 -1040.000000
   vertex 2664.876142 81.301399 -520.000000
   vertex 2653.976076 85.001473 -520.000000
  endloop
 endfacet
 facet normal -0.321439 -0.946930 0.000000
  outer loop
   vertex 2653.976076 85.001473 -1040.000000
   vertex 2664.876142 81.301399 -1040.000000
   vertex 2653.976076 85.001473 -520.000000
  endloop
 endfacet
 facet normal -0.442289 -0.896873 0.000000
  outer loop
   vertex 2675.200000 76.210236 -1040.000000
   vertex 2675.200000 76.210236 -520.000000
   vertex 2664.876142 81.301399 -520.000000
  endloop
 endfacet
 facet normal -0.442289 -0.896873 0.000000
  outer loop
   vertex 2664.876142 81.301399 -1040.000000
   vertex 2675.200000 76.210236 -1040.000000
   vertex 2664.876142 81.301399 -520.000000
  endloop
 endfacet
 facet normal -0.555570 -0.831470 0.000000
  outer loop
   vertex 2684.771006 69.815094 -1040.000000
   vertex 2684.771006 69.815094 -520.000000
   vertex 2675.200000 76.210236 -520.000000
  endloop
 endfacet
 facet normal -0.555570 -0.831470 0.000000
  outer loop
   vertex 2675.200000 76.210236 -1040.000000
   vertex 2684.771006 69.815094 -1040.000000
   vertex 2675.200000 76.210236 -520.000000
  endloop
 endfacet
 facet normal -0.659346 -0.751840 0.000000
  outer loop
   vertex 2693.425397 62.225397 -1040.000000
   vertex 2693.425397 62.225397 -520.000000
   vertex 2684.771006 69.815094 -520.000000
  endloop
 endfacet
 facet normal -0.659346 -0.751840 0.000000
  outer loop
   vertex 2684.771006 69.815094 -1040.000000
   vertex 2693.425397 62.225397 -1040.000000
   vertex 2684.771006 69.815094 -520.000000
  endloop
 endfacet
 facet normal -0.751840 -0.659346 0.000000
  outer loop
   vertex 2701.015094 53.571006 -1040.000000
   vertex 2701.015094 53.571006 -520.000000
   vertex 2693.425397 62.225397 -520.000000
  endloop
 endfacet
 facet normal -0.751840 -0.659346 0.000000
  outer loop
   vertex 2693.425397 62.225397 -1040.000000
   vertex 2701.015094 53.571006 -1040.000000
   vertex 2693.425397 62.225397 -520.000000
  endloop
 endfacet
 facet normal -0.831470 -0.555570 0.000000
  outer loop
   vertex 2707.410236 44.000000 -1040.000000
   vertex 2707.410236 44.000000 -520.000000
   vertex 2701.015094 53.571006 -520.000000
  endloop
 endfacet
 facet normal -0.831470 -0.555570 0.000000
  outer loop
   vertex 2701.015094 53.571006 -1040.000000
   vertex 2707.410236 44.000000 -1040.000000
   vertex 2701.015094 53.571006 -520.000000
  endloop
 endfacet
 facet normal -0.896873 -0.442289 0.000000
  outer loop
   vertex 2712.501399 33.676142 -1040.000000
   vertex 2712.501399 33.676142 -520.000000
   vertex 2707.410236 44.000000 -520.000000
  endloop
 endfacet
 facet normal -0.896873 -0.442289 0.000000
  outer loop
   vertex 2707.410236 44.000000 -1040.000000
   vertex 2712.501399 33.676142 -1040.000000
   vertex 2707.410236 44.000000 -520.000000
  endloop
 endfacet
 facet normal -0.946930 -0.321439 0.000000
  outer loop
   vertex 2716.201473 22.776076 -1040.000000
   vertex 2716.201473 22.776076 -520.000000
   vertex 2712.501399 33.676142 -520.000000
  endloop
 endfacet
 facet normal -0.946930 -0.321439 0.000000
  outer loop
   vertex 2712.501399 33.676142 -1040.000000
   vertex 2716.201473 22.776076 -1040.000000
   vertex 2712.501399 33.676142 -520.000000
  endloop
 endfacet
 facet normal -0.980785 -0.195090 0.000000
  outer loop
   vertex 2718.447148 11.486305 -1040.000000
   vertex 2718.447148 11.486305 -520.000000
   vertex 2716.201473 22.776076 -520.000000
  endloop
 endfacet
 facet normal -0.980785 -0.195090 0.000000
  outer loop
   vertex 2716.201473 22.776076 -1040.000000
   vertex 2718.447148 11.486305 -1040.000000
   vertex 2716.201473 22.776076 -520.000000
  endloop
 endfacet
 facet normal -0.997859 -0.065403 0.000000
  outer loop
   vertex 2719.200000 0.000000 -1040.000000
   vertex 2719.200000 0.000000 -520.000000
   vertex 2718.447148 11.486305 -520.000000
  endloop
 endfacet
 facet normal -0.997859 -0.065403 0.000000
  outer loop
   vertex 2718.447148 11.486305 -1040.000000
   vertex 2719.200000 0.000000 -1040.000000
   vertex 2718.447148 11.486305 -520.000000
  endloop
 endfacet
 facet normal -0.997859 0.065403 0.000000
  outer loop
   vertex 2718.447148 -11.486305 -1040.000000
   vertex 2718.447148 -11.486305 -520.000000
   vertex 2719.200000 0.000000 -520.000000
  endloop
 endfacet
 facet normal -0.997859 0.065403 0.000000
  outer loop
   vertex 2719.200000 0.000000 -1040.000000
   vertex 2718.447148 -11.486305 -1040.000000
   vertex 2719.200000 0.000000 -520.000000
  endloop
 endfacet
 facet normal -0.980785 0.195090 0.000000
  outer loop
   vertex 2716.201473 -22.776076 -1040.000000
   vertex 2716.201473 -22.776076 -520.000000
   vertex 2718.447148 -11.486305 -520.000000
  endloop
 endfacet
 facet normal -0.980785 0.195090 0.000000
  outer loop
   vertex 2718.447148 -11.486305 -1040.000000
   vertex 2716.201473 -22.776076 -1040.000000
   vertex 2718.447148 -11.486305 -520.000000
  endloop
 endfacet
 facet normal -0.946930 0.321439 0.000000
  outer loop
   vertex 2712.501399 -33.676142 -1040.000000
   vertex 2712.501399 -33.676142 -520.000000
   vertex 2716.201473 -22.776076 -520.000000
  endloop
 endfacet
 facet normal -0.946930 0.321439 0.000000
  outer loop
   vertex 2716.201473 -22.776076 -1040.000000
   vertex 2712.501399 -33.676142 -1040.000000
   vertex 2716.201473 -22.776076 -520.000000
  endloop
 endfacet
 facet normal -0.896873 0.442289 0.000000
  outer loop
   vertex 2707.410236 -44.000000 -1040.000000
   vertex 2707.410236 -44.000000 -520.000000
   vertex 2712.501399 -33.676142 -520.000000
  endloop
 endfacet
 facet normal -0.896873 0.442289 0.000000
  outer loop
   vertex 2712.501399 -33.676142 -1040.000000
   vertex 2707.410236 -44.000000 -1040.000000
   vertex 2712.501399 -33.676142 -520.000000
  endloop
 endfacet
 facet normal -0.831470 0.555570 0.000000
  outer loop
   vertex 2701.015094 -53.571006 -1040.000000
   vertex 2701.015094 -53.571006 -520.000000
   vertex 2707.410236 -44.000000 -520.000000
  endloop
 endfacet
 facet normal -0.831470 0.555570 0.000000
  outer loop
   vertex 2707.410236 -44.000000 -1040.000000
   vertex 2701.015094 -53.571006 -1040.000000
   vertex 2707.410236 -44.000000 -520.000000
  endloop
 endfacet
 facet normal -0.751840 0.659346 0.000000
  outer loop
   vertex 2693.425397 -62.225397 -1040.000000
   vertex 2693.425397 -62.225397 -520.000000
   vertex 2701.015094 -53.571006 -520.000000
  endloop
 endfacet
 facet normal -0.751840 0.659346 0.000000
  outer loop
   vertex 2701.015094 -53.571006 -1040.000000
   vertex 2693.425397 -62.225397 -1040.000000
   vertex 2701.015094 -53.571006 -520.000000
  endloop
 endfacet
 facet normal -0.659346 0.751840 0.000000
  outer loop
   vertex 2684.771006 -69.815094 -1040.000000
   vertex 2684.771006 -69.815094 -520.000000
   vertex 2693.425397 -62.225397 -520.000000
  endloop
 endfacet
 facet normal -0.659346 0.751840 0.000000
  outer loop
   vertex 2693.425397 -62.225397 -1040.000000
   vertex 2684.771006 -69.815094 -1040.000000
   vertex 2693.425397 -62.225397 -520.000000
  endloop
 endfacet
 facet normal -0.555570 0.831470 0.000000
  outer loop
   vertex 2675.200000 -76.210236 -1040.000000
   vertex 2675.200000 -76.210236 -520.000000
   vertex 2684.771006 -69.815094 -520.000000
  endloop
 endfacet
 facet normal -0.555570 0.831470 0.000000
  outer loop
   vertex 2684.771006 -69.815094 -1040.000000
   vertex 2675.200000 -76.210236 -1040.000000
   vertex 2684.771006 -69.815094 -520.000000
  endloop
 endfacet
 facet normal -0.442289 0.896873 0.000000
  outer loop
   vertex 2664.876142 -81.301399 -1040.000000
   vertex 2664.876142 -81.301399 -520.000000
   vertex 2675.200000 -76.210236 -520.000000
  endloop
 endfacet
 facet normal -0.442289 0.896873 0.000000
  outer loop
   vertex 2675.200000 -76.210236 -1040.000000
   vertex 2664.876142 -81.301399 -1040.000000
   vertex 2675.200000 -76.210236 -520.000000
  endloop
 endfacet
 facet normal -0.321439 0.946930 0.000000
  outer loop
   vertex 2653.976076 -85.001473 -1040.000000
   vertex 2653.976076 -85.001473 -520.000000
   vertex 2664.876142 -81.301399 -520.000000
  endloop
 endfacet
 facet normal -0.321439 0.946930 0.000000
  outer loop
   vertex 2664.876142 -81.301399 -1040.000000
   vertex 2653.976076 -85.001473 -1040.000000
   vertex 2664.876142 -81.301399 -520.000000
  endloop
 endfacet
 facet normal -0.195090 0.980785 0.000000
  outer loop
   vertex 2642.686305 -87.247148 -1040.000000
   vertex 2642.686305 -87.247148 -520.000000
   vertex 2653.976076 -85.001473 -520.000000
  endloop
 endfacet
 facet normal -0.195090 0.980785 0.000000
  outer loop
   vertex 2653.976076 -85.001473 -1040.000000
   vertex 2642.686305 -87.247148 -1040.000000
   vertex 2653.976076 -85.001473 -520.000000
  endloop
 endfacet
 facet normal -0.065403 0.997859 0.000000
  outer loop
   vertex 2631.200000 -88.000000 -1040.000000
   vertex 2631.200000 -88.000000 -520.000000
   vertex 2642.686305 -87.247148 -520.000000
  endloop
 endfacet
 facet normal -0.065403 0.997859 0.000000
  outer loop
   vertex 2642.686305 -87.247148 -1040.000000
   vertex 2631.200000 -88.000000 -1040.000000
   vertex 2642.686305 -87.247148 -520.000000
  endloop
 endfacet
 facet normal 0.065403 0.997859 -0.000000
  outer loop
   vertex 2619.713695 -87.247148 -1040.000000
   vertex 2619.713695 -87.247148 -520.000000
   vertex 2631.200000 -88.000000 -520.000000
  endloop
 endfacet
 facet normal 0.065403 0.997859 -0.000000
  outer loop
   vertex 2631.200000 -88.000000 -1040.000000
   vertex 2619.713695 -87.247148 -1040.000000
   vertex 2631.200000 -88.000000 -520.000000
  endloop
 endfacet
 facet normal 0.195090 0.980785 -0.000000
  outer loop
   vertex 2608.423924 -85.001473 -1040.000000
   vertex 2608.423924 -85.001473 -520.000000
   vertex 2619.713695 -87.247148 -520.000000
  endloop
 endfacet
 facet normal 0.195090 0.980785 -0.000000
  outer loop
   vertex 2619.713695 -87.247148 -1040.000000
   vertex 2608.423924 -85.001473 -1040.000000
   vertex 2619.713695 -87.247148 -520.000000
  endloop
 endfacet
 facet normal 0.321439 0.946930 -0.000000
  outer loop
   vertex 2597.523858 -81.301399 -1040.000000
   vertex 2597.523858 -81.301399 -520.000000
   vertex 2608.423924 -85.001473 -520.000000
  endloop
 endfacet
 facet normal 0.321439 0.946930 -0.000000
  outer loop
   vertex 2608.423924 -85.001473 -1040.000000
   vertex 2597.523858 -81.301399 -1040.000000
   vertex 2608.423924 -85.001473 -520.000000
  endloop
 endfacet
 facet normal 0.442289 0.896873 -0.000000
  outer loop
   vertex 2587.200000 -76.210236 -1040.000000
   vertex 2587.200000 -76.210236 -520.000000
   vertex 2597.523858 -81.301399 -520.000000
  endloop
 endfacet
 facet normal 0.442289 0.896873 -0.000000
  outer loop
   vertex 2597.523858 -81.301399 -1040.000000
   vertex 2587.200000 -76.210236 -1040.000000
   vertex 2597.523858 -81.301399 -520.000000
  endloop
 endfacet
 facet normal 0.555570 0.831470 -0.000000
  outer loop
   vertex 2577.628994 -69.815094 -1040.000000
   vertex 2577.628994 -69.815094 -520.000000
   vertex 2587.200000 -76.210236 -520.000000
  endloop
 endfacet
 facet normal 0.555570 0.831470 -0.000000
  outer loop
   vertex 2587.200000 -76.210236 -1040.000000
   vertex 2577.628994 -69.815094 -1040.000000
   vertex 2587.200000 -76.210236 -520.000000
  endloop
 endfacet
 facet normal 0.659346 0.751840 -0.000000
  outer loop
   vertex 2568.974603 -62.225397 -1040.000000
   vertex 2568.974603 -62.225397 -520.000000
   vertex 2577.628994 -69.815094 -520.000000
  endloop
 endfacet
 facet normal 0.659346 0.751840 -0.000000
  outer loop
   vertex 2577.628994 -69.815094 -1040.000000
   vertex 2568.974603 -62.225397 -1040.000000
   vertex 2577.628994 -69.815094 -520.000000
  endloop
 endfacet
 facet normal 0.751840 0.659346 -0.000000
  outer loop
   vertex 2561.384906 -53.571006 -1040.000000
   vertex 2561.384906 -53.571006 -520.000000
   vertex 2568.974603 -62.225397 -520.000000
  endloop
 endfacet
 facet normal 0.751840 0.659346 -0.000000
  outer loop
   vertex 2568.974603 -62.225397 -1040.000000
   vertex 2561.384906 -53.571006 -1040.000000
   vertex 2568.974603 -62.225397 -520.000000
  endloop
 endfacet
 facet normal 0.831470 0.555570 -0.000000
  outer loop
   vertex 2554.989764 -44.000000 -1040.000000
   vertex 2554.989764 -44.000000 -520.000000
   vertex 2561.384906 -53.571006 -520.000000
  endloop
 endfacet
 facet normal 0.831470 0.555570 -0.000000
  outer loop
   vertex 2561.384906 -53.571006 -1040.000000
   vertex 2554.989764 -44.000000 -1040.000000
   vertex 2561.384906 -53.571006 -520.000000
  endloop
 endfacet
 facet normal 0.896873 0.442289 -0.000000
  outer loop
   vertex 2549.898601 -33.676142 -1040.000000
   vertex 2549.898601 -33.676142 -520.000000
   vertex 2554.989764 -44.000000 -520.000000
  endloop
 endfacet
 facet normal 0.896873 0.442289 -0.000000
  outer loop
   vertex 2554.989764 -44.000000 -1040.000000
   vertex 2549.898601 -33.676142 -1040.000000
   vertex 2554.989764 -44.000000 -520.000000
  endloop
 endfacet
 facet normal 0.946930 0.321439 -0.000000
  outer loop
   vertex 2546.198527 -22.776076 -1040.000000
   vertex 2546.198527 -22.776076 -520.000000
   vertex 2549.898601 -33.676142 -520.000000
  endloop
 endfacet
 facet normal 0.946930 0.321439 -0.000000
  outer loop
   vertex 2549.898601 -33.676142 -1040.000000
   vertex 2546.198527 -22.776076 -1040.000000
   vertex 2549.898601 -33.676142 -520.000000
  endloop
 endfacet
 facet normal 0.980785 0.195090 -0.000000
  outer loop
   vertex 2543.952852 -11.486305 -1040.000000
   vertex 2543.952852 -11.486305 -520.000000
   vertex 2546.198527 -22.776076 -520.000000
  endloop
 endfacet
 facet normal 0.980785 0.195090 -0.000000
  outer loop
   vertex 2546.198527 -22.776076 -1040.000000
   vertex 2543.952852 -11.486305 -1040.000000
   vertex 2546.198527 -22.776076 -520.000000
  endloop
 endfacet
 facet normal 0.997859 0.065403 -0.000000
  outer loop
   vertex 2543.200000 -0.000000 -1040.000000
   vertex 2543.200000 -0.000000 -520.000000
   vertex 2543.952852 -11.486305 -520.000000
  endloop
 endfacet
 facet normal 0.997859 0.065403 -0.000000
  outer loop
   vertex 2543.952852 -11.486305 -1040.000000
   vertex 2543.200000 -0.000000 -1040.000000
   vertex 2543.952852 -11.486305 -520.000000
  endloop
 endfacet
 facet normal 0.997859 -0.065403 0.000000
  outer loop
   vertex 2543.952852 11.486305 -1040.000000
   vertex 2543.952852 11.486305 -520.000000
   vertex 2543.200000 -0.000000 -520.000000
  endloop
 endfacet
 facet normal 0.997859 -0.065403 0.000000
  outer loop
   vertex 2543.200000 -0.000000 -1040.000000
   vertex 2543.952852 11.486305 -1040.000000
   vertex 2543.200000 -0.000000 -520.000000
  endloop
 endfacet
 facet normal 0.980785 -0.195090 0.000000
  outer loop
   vertex 2546.198527 22.776076 -1040.000000
   vertex 2546.198527 22.776076 -520.000000
   vertex 2543.952852 11.486305 -520.000000
  endloop
 endfacet
 facet normal 0.980785 -0.195090 0.000000
  outer loop
   vertex 2543.952852 11.486305 -1040.000000
   vertex 2546.198527 22.776076 -1040.000000
   vertex 2543.952852 11.486305 -520.000000
  endloop
 endfacet
 facet normal 0.946930 -0.321439 0.000000
  outer loop
   vertex 2549.898601 33.676142 -1040.000000
   vertex 2549.898601 33.676142 -520.000000
   vertex 2546.198527 22.776076 -520.000000
  endloop
 endfacet
 facet normal 0.946930 -0.321439 0.000000
  outer loop
   vertex 2546.198527 22.776076 -1040.000000
   vertex 2549.898601 33.676142 -1040.000000
   vertex 2546.198527 22.776076 -520.000000
  endloop
 endfacet
 facet normal 0.896873 -0.442289 0.000000
  outer loop
   vertex 2554.989764 44.000000 -1040.000000
   vertex 2554.989764 44.000000 -520.000000
   vertex 2549.898601 33.676142 -520.000000
  endloop
 endfacet
 facet normal 0.896873 -0.442289 0.000000
  outer loop
   vertex 2549.898601 33.676142 -1040.000000
   vertex 2554.989764 44.000000 -1040.000000
   vertex 2549.898601 33.676142 -520.000000
  endloop
 endfacet
 facet normal 0.831470 -0.555570 0.000000
  outer loop
   vertex 2561.384906 53.571006 -1040.000000
   vertex 2561.384906 53.571006 -520.000000
   vertex 2554.989764 44.000000 -520.000000
  endloop
 endfacet
 facet normal 0.831470 -0.555570 0.000000
  outer loop
   vertex 2554.989764 44.000000 -1040.000000
   vertex 2561.384906 53.571006 -1040.000000
   vertex 2554.989764 44.000000 -520.000000
  endloop
 endfacet
 facet normal 0.751840 -0.659346 0.000000
  outer loop
   vertex 2568.974603 62.225397 -1040.000000
   vertex 2568.974603 62.225397 -520.000000
   vertex 2561.384906 53.571006 -520.000000
  endloop
 endfacet
 facet normal 0.751840 -0.659346 0.000000
  outer loop
   vertex 2561.384906 53.571006 -1040.000000
   vertex 2568.974603 62.225397 -1040.000000
   vertex 2561.384906 53.571006 -520.000000
  endloop
 endfacet
 facet normal 0.659346 -0.751840 0.000000
  outer loop
   vertex 2577.628994 69.815094 -1040.000000
   vertex 2577.628994 69.815094 -520.000000
   vertex 2568.974603 62.225397 -520.000000
  endloop
 endfacet
 facet normal 0.659346 -0.751840 0.000000
  outer loop
   vertex 2568.974603 62.225397 -1040.000000
   vertex 2577.628994 69.815094 -1040.000000
   vertex 2568.974603 62.225397 -520.000000
  endloop
 endfacet
 facet normal 0.555570 -0.831470 0.000000
  outer loop
   vertex 2587.200000 76.210236 -1040.000000
   vertex 2587.200000 76.210236 -520.000000
   vertex 2577.628994 69.815094 -520.000000
  endloop
 endfacet
 facet normal 0.555570 -0.831470 0.000000
  outer loop
   vertex 2577.628994 69.815094 -1040.000000
   vertex 2587.200000 76.210236 -1040.000000
   vertex 2577.628994 69.815094 -520.000000
  endloop
 endfacet
 facet normal 0.442289 -0.896873 0.000000
  outer loop
   vertex 2597.523858 81.301399 -1040.000000
   vertex 2597.523858 81.301399 -520.000000
   vertex 2587.200000 76.210236 -520.000000
  endloop
 endfacet
 facet normal 0.442289 -0.896873 0.000000
  outer loop
   vertex 2587.200000 76.210236 -1040.000000
   vertex 2597.523858 81.301399 -1040.000000
   vertex 2587.200000 76.210236 -520.000000
  endloop
 endfacet
 facet normal 0.321439 -0.946930 0.000000
  outer loop
   vertex 2608.423924 85.001473 -1040.000000
   vertex 2608.423924 85.001473 -520.000000
   vertex 2597.523858 81.301399 -520.000000
  endloop
 endfacet
 facet normal 0.321439 -0.946930 0.000000
  outer loop
   vertex 2597.523858 81.301399 -1040.000000
   vertex 2608.423924 85.001473 -1040.000000
   vertex 2597.523858 81.301399 -520.000000
  endloop
 endfacet
 facet normal 0.195090 -0.980785 0.000000
  outer loop
   vertex 2619.713695 87.247148 -1040.000000
   vertex 2619.713695 87.247148 -520.000000
   vertex 2608.423924 85.001473 -520.000000
  endloop
 endfacet
 facet normal 0.195090 -0.980785 0.000000
  outer loop
   vertex 2608.423924 85.001473 -1040.000000
   vertex 2619.713695 87.247148 -1040.000000
   vertex 2608.423924 85.001473 -520.000000
  endloop
 endfacet
 facet normal 0.065403 -0.997859 0.000000
  outer loop
   vertex 2631.200000 88.000000 -1040.000000
   vertex 2631.200000 88.000000 -520.000000
   vertex 2619.713695 87.247148 -520.000000
  endloop
 endfacet
 facet normal 0.065403 -0.997859 0.000000
  outer loop
   vertex 2619.713695 87.247148 -1040.000000
   vertex 2631.200000 88.000000 -1040.000000
   vertex 2619.713695 87.247148 -520.000000
  endloop
 endfacet
endsolid SIC_RP1_feed_1_elbow
