solid INFRA_PadBase
 facet normal 0.000000 0.000000 1.000000
  outer loop
   vertex -13000.000000 -13000.000000 -2000.000000
   vertex 13000.000000 -13000.000000 -2000.000000
   vertex 13000.000000 13000.000000 -2000.000000
  endloop
 endfacet
 facet normal 0.000000 0.000000 1.000000
  outer loop
   vertex -13000.000000 -13000.000000 -2000.000000
   vertex 13000.000000 13000.000000 -2000.000000
   vertex -13000.000000 13000.000000 -2000.000000
  endloop
 endfacet
 facet normal 0.000000 0.000000 1.000000
  outer loop
   vertex -13000.000000 -13000.000000 -200.000000
   vertex 13000.000000 -13000.000000 -200.000000
   vertex 13000.000000 13000.000000 -200.000000
  endloop
 endfacet
 facet normal 0.000000 0.000000 1.000000
  outer loop
   vertex -13000.000000 -13000.000000 -200.000000
   vertex 13000.000000 13000.000000 -200.000000
   vertex -13000.000000 13000.000000 -200.000000
  endloop
 endfacet
 facet normal 0.000000 -1.000000 0.000000
  outer loop
   vertex -13000.000000 -13000.000000 -2000.000000
   vertex 13000.000000 -13000.000000 -2000.000000
   vertex 13000.000000 -13000.000000 -200.000000
  endloop
 endfacet
 facet normal 0.000000 -1.000000 0.000000
  outer loop
   vertex -13000.000000 -13000.000000 -2000.000000
   vertex 13000.000000 -13000.000000 -200.000000
   vertex -13000.000000 -13000.000000 -200.000000
  endloop
 endfacet
 facet normal 1.000000 0.000000 0.000000
  outer loop
   vertex 13000.000000 -13000.000000 -2000.000000
   vertex 13000.000000 13000.000000 -2000.000000
   vertex 13000.000000 13000.000000 -200.000000
  endloop
 endfacet
 facet normal 1.000000 0.000000 0.000000
  outer loop
   vertex 13000.000000 -13000.000000 -2000.000000
   vertex 13000.000000 13000.000000 -200.000000
   vertex 13000.000000 -13000.000000 -200.000000
  endloop
 endfacet
 facet normal 0.000000 1.000000 0.000000
  outer loop
   vertex 13000.000000 13000.000000 -2000.000000
   vertex -13000.000000 13000.000000 -2000.000000
   vertex -13000.000000 13000.000000 -200.000000
  endloop
 endfacet
 facet normal 0.000000 1.000000 -0.000000
  outer loop
   vertex 13000.000000 13000.000000 -2000.000000
   vertex -13000.000000 13000.000000 -200.000000
   vertex 13000.000000 13000.000000 -200.000000
  endloop
 endfacet
 facet normal -1.000000 0.000000 0.000000
  outer loop
   vertex -13000.000000 13000.000000 -2000.000000
   vertex -13000.000000 -13000.000000 -2000.000000
   vertex -13000.000000 -13000.000000 -200.000000
  endloop
 endfacet
 facet normal -1.000000 0.000000 0.000000
  outer loop
   vertex -13000.000000 13000.000000 -2000.000000
   vertex -13000.000000 -13000.000000 -200.000000
   vertex -13000.000000 13000.000000 -200.000000
  endloop
 endfacet
endsolid part
