solid INFRA_Post_7
 facet normal 0.000000 0.000000 1.000000
  outer loop
   vertex 3669.087297 -4109.087297 -200.000000
   vertex 4109.087297 -4109.087297 -200.000000
   vertex 4109.087297 -3669.087297 -200.000000
  endloop
 endfacet
 facet normal 0.000000 0.000000 1.000000
  outer loop
   vertex 3669.087297 -4109.087297 -200.000000
   vertex 4109.087297 -3669.087297 -200.000000
   vertex 3669.087297 -3669.087297 -200.000000
  endloop
 endfacet
 facet normal 0.000000 0.000000 1.000000
  outer loop
   vertex 3669.087297 -4109.087297 1400.000000
   vertex 4109.087297 -4109.087297 1400.000000
   vertex 4109.087297 -3669.087297 1400.000000
  endloop
 endfacet
 facet normal 0.000000 0.000000 1.000000
  outer loop
   vertex 3669.087297 -4109.087297 1400.000000
   vertex 4109.087297 -3669.087297 1400.000000
   vertex 3669.087297 -3669.087297 1400.000000
  endloop
 endfacet
 facet normal 0.000000 -1.000000 0.000000
  outer loop
   vertex 3669.087297 -4109.087297 -200.000000
   vertex 4109.087297 -4109.087297 -200.000000
   vertex 4109.087297 -4109.087297 1400.000000
  endloop
 endfacet
 facet normal 0.000000 -1.000000 0.000000
  outer loop
   vertex 3669.087297 -4109.087297 -200.000000
   vertex 4109.087297 -4109.087297 1400.000000
   vertex 3669.087297 -4109.087297 1400.000000
  endloop
 endfacet
 facet normal 1.000000 0.000000 0.000000
  outer loop
   vertex 4109.087297 -4109.087297 -200.000000
   vertex 4109.087297 -3669.087297 -200.000000
   vertex 4109.087297 -3669.087297 1400.000000
  endloop
 endfacet
 facet normal 1.000000 0.000000 0.000000
  outer loop
   vertex 4109.087297 -4109.087297 -200.000000
   vertex 4109.087297 -3669.087297 1400.000000
   vertex 4109.087297 -4109.087297 1400.000000
  endloop
 endfacet
 facet normal 0.000000 1.000000 0.000000
  outer loop
   vertex 4109.087297 -3669.087297 -200.000000
   vertex 3669.087297 -3669.087297 -200.000000
   vertex 3669.087297 -3669.087297 1400.000000
  endloop
 endfacet
 facet normal 0.000000 1.000000 -0.000000
  outer loop
   vertex 4109.087297 -3669.087297 -200.000000
   vertex 3669.087297 -3669.087297 1400.000000
   vertex 4109.087297 -3669.087297 1400.000000
  endloop
 endfacet
 facet normal -1.000000 0.000000 0.000000
  outer loop
   vertex 3669.087297 -3669.087297 -200.000000
   vertex 3669.087297 -4109.087297 -200.000000
   vertex 3669.087297 -4109.087297 1400.000000
  endloop
 endfacet
 facet normal -1.000000 0.000000 0.000000
  outer loop
   vertex 3669.087297 -3669.087297 -200.000000
   vertex 3669.087297 -4109.087297 1400.000000
   vertex 3669.087297 -3669.087297 1400.000000
  endloop
 endfacet
endsolid part
