solid INFRA_ServiceArm_1
 facet normal 0.000000 0.000000 1.000000
  outer loop
   vertex -12300.000000 -200.000000 67800.000000
   vertex -5650.000000 -200.000000 67800.000000
   vertex -5650.000000 200.000000 67800.000000
  endloop
 endfacet
 facet normal 0.000000 0.000000 1.000000
  outer loop
   vertex -12300.000000 -200.000000 67800.000000
   vertex -5650.000000 200.000000 67800.000000
   vertex -12300.000000 200.000000 67800.000000
  endloop
 endfacet
 facet normal 0.000000 0.000000 1.000000
  outer loop
   vertex -12300.000000 -200.000000 68100.000000
   vertex -5650.000000 -200.000000 68100.000000
   vertex -5650.000000 200.000000 68100.000000
  endloop
 endfacet
 facet normal 0.000000 0.000000 1.000000
  outer loop
   vertex -12300.000000 -200.000000 68100.000000
   vertex -5650.000000 200.000000 68100.000000
   vertex -12300.000000 200.000000 68100.000000
  endloop
 endfacet
 facet normal 0.000000 -1.000000 0.000000
  outer loop
   vertex -12300.000000 -200.000000 67800.000000
   vertex -5650.000000 -200.000000 67800.000000
   vertex -5650.000000 -200.000000 68100.000000
  endloop
 endfacet
 facet normal 0.000000 -1.000000 0.000000
  outer loop
   vertex -12300.000000 -200.000000 67800.000000
   vertex -5650.000000 -200.000000 68100.000000
   vertex -12300.000000 -200.000000 68100.000000
  endloop
 endfacet
 facet normal 1.000000 0.000000 0.000000
  outer loop
   vertex -5650.000000 -200.000000 67800.000000
   vertex -5650.000000 200.000000 67800.000000
   vertex -5650.000000 200.000000 68100.000000
  endloop
 endfacet
 facet normal 1.000000 0.000000 0.000000
  outer loop
   vertex -5650.000000 -200.000000 67800.000000
   vertex -5650.000000 200.000000 68100.000000
   vertex -5650.000000 -200.000000 68100.000000
  endloop
 endfacet
 facet normal 0.000000 1.000000 0.000000
  outer loop
   vertex -5650.000000 200.000000 67800.000000
   vertex -12300.000000 200.000000 67800.000000
   vertex -12300.000000 200.000000 68100.000000
  endloop
 endfacet
 facet normal 0.000000 1.000000 -0.000000
  outer loop
   vertex -5650.000000 200.000000 67800.000000
   vertex -12300.000000 200.000000 68100.000000
   vertex -5650.000000 200.000000 68100.000000
  endloop
 endfacet
 facet normal -1.000000 0.000000 0.000000
  outer loop
   vertex -12300.000000 200.000000 67800.000000
   vertex -12300.000000 -200.000000 67800.000000
   vertex -12300.000000 -200.000000 68100.000000
  endloop
 endfacet
 facet normal -1.000000 0.000000 0.000000
  outer loop
   vertex -12300.000000 200.000000 67800.000000
   vertex -12300.000000 -200.000000 68100.000000
   vertex -12300.000000 200.000000 68100.000000
  endloop
 endfacet
endsolid part
