solid IU_EEE_2
 facet normal 0.078459 -0.996917 0.000000
  outer loop
   vertex 0.000000 1976.000000 88670.000000
   vertex 10.950413 1976.861816 88670.000000
   vertex 10.950413 1976.861816 89370.000000
  endloop
 endfacet
 facet normal 0.078459 -0.996917 0.000000
  outer loop
   vertex 0.000000 1976.000000 88670.000000
   vertex 10.950413 1976.861816 89370.000000
   vertex 0.000000 1976.000000 89370.000000
  endloop
 endfacet
 facet normal 0.233445 -0.972370 0.000000
  outer loop
   vertex 10.950413 1976.861816 88670.000000
   vertex 21.631190 1979.426044 88670.000000
   vertex 21.631190 1979.426044 89370.000000
  endloop
 endfacet
 facet normal 0.233445 -0.972370 0.000000
  outer loop
   vertex 10.950413 1976.861816 88670.000000
   vertex 21.631190 1979.426044 89370.000000
   vertex 10.950413 1976.861816 89370.000000
  endloop
 endfacet
 facet normal 0.382683 -0.923880 0.000000
  outer loop
   vertex 21.631190 1979.426044 88670.000000
   vertex 31.779335 1983.629543 88670.000000
   vertex 31.779335 1983.629543 89370.000000
  endloop
 endfacet
 facet normal 0.382683 -0.923880 0.000000
  outer loop
   vertex 21.631190 1979.426044 88670.000000
   vertex 31.779335 1983.629543 89370.000000
   vertex 21.631190 1979.426044 89370.000000
  endloop
 endfacet
 facet normal 0.522499 -0.852640 0.000000
  outer loop
   vertex 31.779335 1983.629543 88670.000000
   vertex 41.144968 1989.368810 88670.000000
   vertex 41.144968 1989.368810 89370.000000
  endloop
 endfacet
 facet normal 0.522499 -0.852640 0.000000
  outer loop
   vertex 31.779335 1983.629543 88670.000000
   vertex 41.144968 1989.368810 89370.000000
   vertex 31.779335 1983.629543 89370.000000
  endloop
 endfacet
 facet normal 0.649448 -0.760406 0.000000
  outer loop
   vertex 41.144968 1989.368810 88670.000000
   vertex 49.497475 1996.502525 88670.000000
   vertex 49.497475 1996.502525 89370.000000
  endloop
 endfacet
 facet normal 0.649448 -0.760406 0.000000
  outer loop
   vertex 41.144968 1989.368810 88670.000000
   vertex 49.497475 1996.502525 89370.000000
   vertex 41.144968 1989.368810 89370.000000
  endloop
 endfacet
 facet normal 0.760406 -0.649448 0.000000
  outer loop
   vertex 49.497475 1996.502525 88670.000000
   vertex 56.631190 2004.855032 88670.000000
   vertex 56.631190 2004.855032 89370.000000
  endloop
 endfacet
 facet normal 0.760406 -0.649448 0.000000
  outer loop
   vertex 49.497475 1996.502525 88670.000000
   vertex 56.631190 2004.855032 89370.000000
   vertex 49.497475 1996.502525 89370.000000
  endloop
 endfacet
 facet normal 0.852640 -0.522499 0.000000
  outer loop
   vertex 56.631190 2004.855032 88670.000000
   vertex 62.370457 2014.220665 88670.000000
   vertex 62.370457 2014.220665 89370.000000
  endloop
 endfacet
 facet normal 0.852640 -0.522499 0.000000
  outer loop
   vertex 56.631190 2004.855032 88670.000000
   vertex 62.370457 2014.220665 89370.000000
   vertex 56.631190 2004.855032 89370.000000
  endloop
 endfacet
 facet normal 0.923880 -0.382683 0.000000
  outer loop
   vertex 62.370457 2014.220665 88670.000000
   vertex 66.573956 2024.368810 88670.000000
   vertex 66.573956 2024.368810 89370.000000
  endloop
 endfacet
 facet normal 0.923880 -0.382683 0.000000
  outer loop
   vertex 62.370457 2014.220665 88670.000000
   vertex 66.573956 2024.368810 89370.000000
   vertex 62.370457 2014.220665 89370.000000
  endloop
 endfacet
 facet normal 0.972370 -0.233445 0.000000
  outer loop
   vertex 66.573956 2024.368810 88670.000000
   vertex 69.138184 2035.049587 88670.000000
   vertex 69.138184 2035.049587 89370.000000
  endloop
 endfacet
 facet normal 0.972370 -0.233445 0.000000
  outer loop
   vertex 66.573956 2024.368810 88670.000000
   vertex 69.138184 2035.049587 89370.000000
   vertex 66.573956 2024.368810 89370.000000
  endloop
 endfacet
 facet normal 0.996917 -0.078459 0.000000
  outer loop
   vertex 69.138184 2035.049587 88670.000000
   vertex 70.000000 2046.000000 88670.000000
   vertex 70.000000 2046.000000 89370.000000
  endloop
 endfacet
 facet normal 0.996917 -0.078459 0.000000
  outer loop
   vertex 69.138184 2035.049587 88670.000000
   vertex 70.000000 2046.000000 89370.000000
   vertex 69.138184 2035.049587 89370.000000
  endloop
 endfacet
 facet normal 0.996917 0.078459 0.000000
  outer loop
   vertex 70.000000 2046.000000 88670.000000
   vertex 69.138184 2056.950413 88670.000000
   vertex 69.138184 2056.950413 89370.000000
  endloop
 endfacet
 facet normal 0.996917 0.078459 -0.000000
  outer loop
   vertex 70.000000 2046.000000 88670.000000
   vertex 69.138184 2056.950413 89370.000000
   vertex 70.000000 2046.000000 89370.000000
  endloop
 endfacet
 facet normal 0.972370 0.233445 0.000000
  outer loop
   vertex 69.138184 2056.950413 88670.000000
   vertex 66.573956 2067.631190 88670.000000
   vertex 66.573956 2067.631190 89370.000000
  endloop
 endfacet
 facet normal 0.972370 0.233445 -0.000000
  outer loop
   vertex 69.138184 2056.950413 88670.000000
   vertex 66.573956 2067.631190 89370.000000
   vertex 69.138184 2056.950413 89370.000000
  endloop
 endfacet
 facet normal 0.923880 0.382683 0.000000
  outer loop
   vertex 66.573956 2067.631190 88670.000000
   vertex 62.370457 2077.779335 88670.000000
   vertex 62.370457 2077.779335 89370.000000
  endloop
 endfacet
 facet normal 0.923880 0.382683 -0.000000
  outer loop
   vertex 66.573956 2067.631190 88670.000000
   vertex 62.370457 2077.779335 89370.000000
   vertex 66.573956 2067.631190 89370.000000
  endloop
 endfacet
 facet normal 0.852640 0.522499 0.000000
  outer loop
   vertex 62.370457 2077.779335 88670.000000
   vertex 56.631190 2087.144968 88670.000000
   vertex 56.631190 2087.144968 89370.000000
  endloop
 endfacet
 facet normal 0.852640 0.522499 -0.000000
  outer loop
   vertex 62.370457 2077.779335 88670.000000
   vertex 56.631190 2087.144968 89370.000000
   vertex 62.370457 2077.779335 89370.000000
  endloop
 endfacet
 facet normal 0.760406 0.649448 0.000000
  outer loop
   vertex 56.631190 2087.144968 88670.000000
   vertex 49.497475 2095.497475 88670.000000
   vertex 49.497475 2095.497475 89370.000000
  endloop
 endfacet
 facet normal 0.760406 0.649448 -0.000000
  outer loop
   vertex 56.631190 2087.144968 88670.000000
   vertex 49.497475 2095.497475 89370.000000
   vertex 56.631190 2087.144968 89370.000000
  endloop
 endfacet
 facet normal 0.649448 0.760406 0.000000
  outer loop
   vertex 49.497475 2095.497475 88670.000000
   vertex 41.144968 2102.631190 88670.000000
   vertex 41.144968 2102.631190 89370.000000
  endloop
 endfacet
 facet normal 0.649448 0.760406 -0.000000
  outer loop
   vertex 49.497475 2095.497475 88670.000000
   vertex 41.144968 2102.631190 89370.000000
   vertex 49.497475 2095.497475 89370.000000
  endloop
 endfacet
 facet normal 0.522499 0.852640 0.000000
  outer loop
   vertex 41.144968 2102.631190 88670.000000
   vertex 31.779335 2108.370457 88670.000000
   vertex 31.779335 2108.370457 89370.000000
  endloop
 endfacet
 facet normal 0.522499 0.852640 -0.000000
  outer loop
   vertex 41.144968 2102.631190 88670.000000
   vertex 31.779335 2108.370457 89370.000000
   vertex 41.144968 2102.631190 89370.000000
  endloop
 endfacet
 facet normal 0.382683 0.923880 0.000000
  outer loop
   vertex 31.779335 2108.370457 88670.000000
   vertex 21.631190 2112.573956 88670.000000
   vertex 21.631190 2112.573956 89370.000000
  endloop
 endfacet
 facet normal 0.382683 0.923880 -0.000000
  outer loop
   vertex 31.779335 2108.370457 88670.000000
   vertex 21.631190 2112.573956 89370.000000
   vertex 31.779335 2108.370457 89370.000000
  endloop
 endfacet
 facet normal 0.233445 0.972370 0.000000
  outer loop
   vertex 21.631190 2112.573956 88670.000000
   vertex 10.950413 2115.138184 88670.000000
   vertex 10.950413 2115.138184 89370.000000
  endloop
 endfacet
 facet normal 0.233445 0.972370 -0.000000
  outer loop
   vertex 21.631190 2112.573956 88670.000000
   vertex 10.950413 2115.138184 89370.000000
   vertex 21.631190 2112.573956 89370.000000
  endloop
 endfacet
 facet normal 0.078459 0.996917 0.000000
  outer loop
   vertex 10.950413 2115.138184 88670.000000
   vertex 0.000000 2116.000000 88670.000000
   vertex 0.000000 2116.000000 89370.000000
  endloop
 endfacet
 facet normal 0.078459 0.996917 -0.000000
  outer loop
   vertex 10.950413 2115.138184 88670.000000
   vertex 0.000000 2116.000000 89370.000000
   vertex 10.950413 2115.138184 89370.000000
  endloop
 endfacet
 facet normal -0.078459 0.996917 0.000000
  outer loop
   vertex 0.000000 2116.000000 88670.000000
   vertex -10.950413 2115.138184 88670.000000
   vertex -10.950413 2115.138184 89370.000000
  endloop
 endfacet
 facet normal -0.078459 0.996917 0.000000
  outer loop
   vertex 0.000000 2116.000000 88670.000000
   vertex -10.950413 2115.138184 89370.000000
   vertex 0.000000 2116.000000 89370.000000
  endloop
 endfacet
 facet normal -0.233445 0.972370 0.000000
  outer loop
   vertex -10.950413 2115.138184 88670.000000
   vertex -21.631190 2112.573956 88670.000000
   vertex -21.631190 2112.573956 89370.000000
  endloop
 endfacet
 facet normal -0.233445 0.972370 0.000000
  outer loop
   vertex -10.950413 2115.138184 88670.000000
   vertex -21.631190 2112.573956 89370.000000
   vertex -10.950413 2115.138184 89370.000000
  endloop
 endfacet
 facet normal -0.382683 0.923880 0.000000
  outer loop
   vertex -21.631190 2112.573956 88670.000000
   vertex -31.779335 2108.370457 88670.000000
   vertex -31.779335 2108.370457 89370.000000
  endloop
 endfacet
 facet normal -0.382683 0.923880 0.000000
  outer loop
   vertex -21.631190 2112.573956 88670.000000
   vertex -31.779335 2108.370457 89370.000000
   vertex -21.631190 2112.573956 89370.000000
  endloop
 endfacet
 facet normal -0.522499 0.852640 0.000000
  outer loop
   vertex -31.779335 2108.370457 88670.000000
   vertex -41.144968 2102.631190 88670.000000
   vertex -41.144968 2102.631190 89370.000000
  endloop
 endfacet
 facet normal -0.522499 0.852640 0.000000
  outer loop
   vertex -31.779335 2108.370457 88670.000000
   vertex -41.144968 2102.631190 89370.000000
   vertex -31.779335 2108.370457 89370.000000
  endloop
 endfacet
 facet normal -0.649448 0.760406 0.000000
  outer loop
   vertex -41.144968 2102.631190 88670.000000
   vertex -49.497475 2095.497475 88670.000000
   vertex -49.497475 2095.497475 89370.000000
  endloop
 endfacet
 facet normal -0.649448 0.760406 0.000000
  outer loop
   vertex -41.144968 2102.631190 88670.000000
   vertex -49.497475 2095.497475 89370.000000
   vertex -41.144968 2102.631190 89370.000000
  endloop
 endfacet
 facet normal -0.760406 0.649448 0.000000
  outer loop
   vertex -49.497475 2095.497475 88670.000000
   vertex -56.631190 2087.144968 88670.000000
   vertex -56.631190 2087.144968 89370.000000
  endloop
 endfacet
 facet normal -0.760406 0.649448 0.000000
  outer loop
   vertex -49.497475 2095.497475 88670.000000
   vertex -56.631190 2087.144968 89370.000000
   vertex -49.497475 2095.497475 89370.000000
  endloop
 endfacet
 facet normal -0.852640 0.522499 0.000000
  outer loop
   vertex -56.631190 2087.144968 88670.000000
   vertex -62.370457 2077.779335 88670.000000
   vertex -62.370457 2077.779335 89370.000000
  endloop
 endfacet
 facet normal -0.852640 0.522499 0.000000
  outer loop
   vertex -56.631190 2087.144968 88670.000000
   vertex -62.370457 2077.779335 89370.000000
   vertex -56.631190 2087.144968 89370.000000
  endloop
 endfacet
 facet normal -0.923880 0.382683 0.000000
  outer loop
   vertex -62.370457 2077.779335 88670.000000
   vertex -66.573956 2067.631190 88670.000000
   vertex -66.573956 2067.631190 89370.000000
  endloop
 endfacet
 facet normal -0.923880 0.382683 0.000000
  outer loop
   vertex -62.370457 2077.779335 88670.000000
   vertex -66.573956 2067.631190 89370.000000
   vertex -62.370457 2077.779335 89370.000000
  endloop
 endfacet
 facet normal -0.972370 0.233445 0.000000
  outer loop
   vertex -66.573956 2067.631190 88670.000000
   vertex -69.138184 2056.950413 88670.000000
   vertex -69.138184 2056.950413 89370.000000
  endloop
 endfacet
 facet normal -0.972370 0.233445 0.000000
  outer loop
   vertex -66.573956 2067.631190 88670.000000
   vertex -69.138184 2056.950413 89370.000000
   vertex -66.573956 2067.631190 89370.000000
  endloop
 endfacet
 facet normal -0.996917 0.078459 0.000000
  outer loop
   vertex -69.138184 2056.950413 88670.000000
   vertex -70.000000 2046.000000 88670.000000
   vertex -70.000000 2046.000000 89370.000000
  endloop
 endfacet
 facet normal -0.996917 0.078459 0.000000
  outer loop
   vertex -69.138184 2056.950413 88670.000000
   vertex -70.000000 2046.000000 89370.000000
   vertex -69.138184 2056.950413 89370.000000
  endloop
 endfacet
 facet normal -0.996917 -0.078459 0.000000
  outer loop
   vertex -70.000000 2046.000000 88670.000000
   vertex -69.138184 2035.049587 88670.000000
   vertex -69.138184 2035.049587 89370.000000
  endloop
 endfacet
 facet normal -0.996917 -0.078459 0.000000
  outer loop
   vertex -70.000000 2046.000000 88670.000000
   vertex -69.138184 2035.049587 89370.000000
   vertex -70.000000 2046.000000 89370.000000
  endloop
 endfacet
 facet normal -0.972370 -0.233445 0.000000
  outer loop
   vertex -69.138184 2035.049587 88670.000000
   vertex -66.573956 2024.368810 88670.000000
   vertex -66.573956 2024.368810 89370.000000
  endloop
 endfacet
 facet normal -0.972370 -0.233445 0.000000
  outer loop
   vertex -69.138184 2035.049587 88670.000000
   vertex -66.573956 2024.368810 89370.000000
   vertex -69.138184 2035.049587 89370.000000
  endloop
 endfacet
 facet normal -0.923880 -0.382683 0.000000
  outer loop
   vertex -66.573956 2024.368810 88670.000000
   vertex -62.370457 2014.220665 88670.000000
   vertex -62.370457 2014.220665 89370.000000
  endloop
 endfacet
 facet normal -0.923880 -0.382683 0.000000
  outer loop
   vertex -66.573956 2024.368810 88670.000000
   vertex -62.370457 2014.220665 89370.000000
   vertex -66.573956 2024.368810 89370.000000
  endloop
 endfacet
 facet normal -0.852640 -0.522499 0.000000
  outer loop
   vertex -62.370457 2014.220665 88670.000000
   vertex -56.631190 2004.855032 88670.000000
   vertex -56.631190 2004.855032 89370.000000
  endloop
 endfacet
 facet normal -0.852640 -0.522499 0.000000
  outer loop
   vertex -62.370457 2014.220665 88670.000000
   vertex -56.631190 2004.855032 89370.000000
   vertex -62.370457 2014.220665 89370.000000
  endloop
 endfacet
 facet normal -0.760406 -0.649448 0.000000
  outer loop
   vertex -56.631190 2004.855032 88670.000000
   vertex -49.497475 1996.502525 88670.000000
   vertex -49.497475 1996.502525 89370.000000
  endloop
 endfacet
 facet normal -0.760406 -0.649448 0.000000
  outer loop
   vertex -56.631190 2004.855032 88670.000000
   vertex -49.497475 1996.502525 89370.000000
   vertex -56.631190 2004.855032 89370.000000
  endloop
 endfacet
 facet normal -0.649448 -0.760406 0.000000
  outer loop
   vertex -49.497475 1996.502525 88670.000000
   vertex -41.144968 1989.368810 88670.000000
   vertex -41.144968 1989.368810 89370.000000
  endloop
 endfacet
 facet normal -0.649448 -0.760406 0.000000
  outer loop
   vertex -49.497475 1996.502525 88670.000000
   vertex -41.144968 1989.368810 89370.000000
   vertex -49.497475 1996.502525 89370.000000
  endloop
 endfacet
 facet normal -0.522499 -0.852640 0.000000
  outer loop
   vertex -41.144968 1989.368810 88670.000000
   vertex -31.779335 1983.629543 88670.000000
   vertex -31.779335 1983.629543 89370.000000
  endloop
 endfacet
 facet normal -0.522499 -0.852640 0.000000
  outer loop
   vertex -41.144968 1989.368810 88670.000000
   vertex -31.779335 1983.629543 89370.000000
   vertex -41.144968 1989.368810 89370.000000
  endloop
 endfacet
 facet normal -0.382683 -0.923880 0.000000
  outer loop
   vertex -31.779335 1983.629543 88670.000000
   vertex -21.631190 1979.426044 88670.000000
   vertex -21.631190 1979.426044 89370.000000
  endloop
 endfacet
 facet normal -0.382683 -0.923880 0.000000
  outer loop
   vertex -31.779335 1983.629543 88670.000000
   vertex -21.631190 1979.426044 89370.000000
   vertex -31.779335 1983.629543 89370.000000
  endloop
 endfacet
 facet normal -0.233445 -0.972370 0.000000
  outer loop
   vertex -21.631190 1979.426044 88670.000000
   vertex -10.950413 1976.861816 88670.000000
   vertex -10.950413 1976.861816 89370.000000
  endloop
 endfacet
 facet normal -0.233445 -0.972370 0.000000
  outer loop
   vertex -21.631190 1979.426044 88670.000000
   vertex -10.950413 1976.861816 89370.000000
   vertex -21.631190 1979.426044 89370.000000
  endloop
 endfacet
 facet normal -0.078459 -0.996917 0.000000
  outer loop
   vertex -10.950413 1976.861816 88670.000000
   vertex 0.000000 1976.000000 88670.000000
   vertex 0.000000 1976.000000 89370.000000
  endloop
 endfacet
 facet normal -0.078459 -0.996917 0.000000
  outer loop
   vertex -10.950413 1976.861816 88670.000000
   vertex 0.000000 1976.000000 89370.000000
   vertex -10.950413 1976.861816 89370.000000
  endloop
 endfacet
 facet normal -0.078459 0.996917 0.000000
  outer loop
   vertex 9.698937 1984.763323 89370.000000
   vertex 9.698937 1984.763323 88670.000000
   vertex 0.000000 1984.000000 88670.000000
  endloop
 endfacet
 facet normal -0.078459 0.996917 0.000000
  outer loop
   vertex 0.000000 1984.000000 89370.000000
   vertex 9.698937 1984.763323 89370.000000
   vertex 0.000000 1984.000000 88670.000000
  endloop
 endfacet
 facet normal -0.233445 0.972370 0.000000
  outer loop
   vertex 19.159054 1987.034496 89370.000000
   vertex 19.159054 1987.034496 88670.000000
   vertex 9.698937 1984.763323 88670.000000
  endloop
 endfacet
 facet normal -0.233445 0.972370 0.000000
  outer loop
   vertex 9.698937 1984.763323 89370.000000
   vertex 19.159054 1987.034496 89370.000000
   vertex 9.698937 1984.763323 88670.000000
  endloop
 endfacet
 facet normal -0.382683 0.923880 0.000000
  outer loop
   vertex 28.147411 1990.757596 89370.000000
   vertex 28.147411 1990.757596 88670.000000
   vertex 19.159054 1987.034496 88670.000000
  endloop
 endfacet
 facet normal -0.382683 0.923880 0.000000
  outer loop
   vertex 19.159054 1987.034496 89370.000000
   vertex 28.147411 1990.757596 89370.000000
   vertex 19.159054 1987.034496 88670.000000
  endloop
 endfacet
 facet normal -0.522499 0.852640 0.000000
  outer loop
   vertex 36.442686 1995.840946 89370.000000
   vertex 36.442686 1995.840946 88670.000000
   vertex 28.147411 1990.757596 88670.000000
  endloop
 endfacet
 facet normal -0.522499 0.852640 0.000000
  outer loop
   vertex 28.147411 1990.757596 89370.000000
   vertex 36.442686 1995.840946 89370.000000
   vertex 28.147411 1990.757596 88670.000000
  endloop
 endfacet
 facet normal -0.649448 0.760406 0.000000
  outer loop
   vertex 43.840620 2002.159380 89370.000000
   vertex 43.840620 2002.159380 88670.000000
   vertex 36.442686 1995.840946 88670.000000
  endloop
 endfacet
 facet normal -0.649448 0.760406 0.000000
  outer loop
   vertex 36.442686 1995.840946 89370.000000
   vertex 43.840620 2002.159380 89370.000000
   vertex 36.442686 1995.840946 88670.000000
  endloop
 endfacet
 facet normal -0.760406 0.649448 0.000000
  outer loop
   vertex 50.159054 2009.557314 89370.000000
   vertex 50.159054 2009.557314 88670.000000
   vertex 43.840620 2002.159380 88670.000000
  endloop
 endfacet
 facet normal -0.760406 0.649448 0.000000
  outer loop
   vertex 43.840620 2002.159380 89370.000000
   vertex 50.159054 2009.557314 89370.000000
   vertex 43.840620 2002.159380 88670.000000
  endloop
 endfacet
 facet normal -0.852640 0.522499 0.000000
  outer loop
   vertex 55.242404 2017.852589 89370.000000
   vertex 55.242404 2017.852589 88670.000000
   vertex 50.159054 2009.557314 88670.000000
  endloop
 endfacet
 facet normal -0.852640 0.522499 0.000000
  outer loop
   vertex 50.159054 2009.557314 89370.000000
   vertex 55.242404 2017.852589 89370.000000
   vertex 50.159054 2009.557314 88670.000000
  endloop
 endfacet
 facet normal -0.923880 0.382683 0.000000
  outer loop
   vertex 58.965504 2026.840946 89370.000000
   vertex 58.965504 2026.840946 88670.000000
   vertex 55.242404 2017.852589 88670.000000
  endloop
 endfacet
 facet normal -0.923880 0.382683 0.000000
  outer loop
   vertex 55.242404 2017.852589 89370.000000
   vertex 58.965504 2026.840946 89370.000000
   vertex 55.242404 2017.852589 88670.000000
  endloop
 endfacet
 facet normal -0.972370 0.233445 0.000000
  outer loop
   vertex 61.236677 2036.301063 89370.000000
   vertex 61.236677 2036.301063 88670.000000
   vertex 58.965504 2026.840946 88670.000000
  endloop
 endfacet
 facet normal -0.972370 0.233445 0.000000
  outer loop
   vertex 58.965504 2026.840946 89370.000000
   vertex 61.236677 2036.301063 89370.000000
   vertex 58.965504 2026.840946 88670.000000
  endloop
 endfacet
 facet normal -0.996917 0.078459 0.000000
  outer loop
   vertex 62.000000 2046.000000 89370.000000
   vertex 62.000000 2046.000000 88670.000000
   vertex 61.236677 2036.301063 88670.000000
  endloop
 endfacet
 facet normal -0.996917 0.078459 0.000000
  outer loop
   vertex 61.236677 2036.301063 89370.000000
   vertex 62.000000 2046.000000 89370.000000
   vertex 61.236677 2036.301063 88670.000000
  endloop
 endfacet
 facet normal -0.996917 -0.078459 -0.000000
  outer loop
   vertex 61.236677 2055.698937 89370.000000
   vertex 61.236677 2055.698937 88670.000000
   vertex 62.000000 2046.000000 88670.000000
  endloop
 endfacet
 facet normal -0.996917 -0.078459 -0.000000
  outer loop
   vertex 62.000000 2046.000000 89370.000000
   vertex 61.236677 2055.698937 89370.000000
   vertex 62.000000 2046.000000 88670.000000
  endloop
 endfacet
 facet normal -0.972370 -0.233445 -0.000000
  outer loop
   vertex 58.965504 2065.159054 89370.000000
   vertex 58.965504 2065.159054 88670.000000
   vertex 61.236677 2055.698937 88670.000000
  endloop
 endfacet
 facet normal -0.972370 -0.233445 -0.000000
  outer loop
   vertex 61.236677 2055.698937 89370.000000
   vertex 58.965504 2065.159054 89370.000000
   vertex 61.236677 2055.698937 88670.000000
  endloop
 endfacet
 facet normal -0.923880 -0.382683 -0.000000
  outer loop
   vertex 55.242404 2074.147411 89370.000000
   vertex 55.242404 2074.147411 88670.000000
   vertex 58.965504 2065.159054 88670.000000
  endloop
 endfacet
 facet normal -0.923880 -0.382683 -0.000000
  outer loop
   vertex 58.965504 2065.159054 89370.000000
   vertex 55.242404 2074.147411 89370.000000
   vertex 58.965504 2065.159054 88670.000000
  endloop
 endfacet
 facet normal -0.852640 -0.522499 -0.000000
  outer loop
   vertex 50.159054 2082.442686 89370.000000
   vertex 50.159054 2082.442686 88670.000000
   vertex 55.242404 2074.147411 88670.000000
  endloop
 endfacet
 facet normal -0.852640 -0.522499 -0.000000
  outer loop
   vertex 55.242404 2074.147411 89370.000000
   vertex 50.159054 2082.442686 89370.000000
   vertex 55.242404 2074.147411 88670.000000
  endloop
 endfacet
 facet normal -0.760406 -0.649448 -0.000000
  outer loop
   vertex 43.840620 2089.840620 89370.000000
   vertex 43.840620 2089.840620 88670.000000
   vertex 50.159054 2082.442686 88670.000000
  endloop
 endfacet
 facet normal -0.760406 -0.649448 -0.000000
  outer loop
   vertex 50.159054 2082.442686 89370.000000
   vertex 43.840620 2089.840620 89370.000000
   vertex 50.159054 2082.442686 88670.000000
  endloop
 endfacet
 facet normal -0.649448 -0.760406 -0.000000
  outer loop
   vertex 36.442686 2096.159054 89370.000000
   vertex 36.442686 2096.159054 88670.000000
   vertex 43.840620 2089.840620 88670.000000
  endloop
 endfacet
 facet normal -0.649448 -0.760406 -0.000000
  outer loop
   vertex 43.840620 2089.840620 89370.000000
   vertex 36.442686 2096.159054 89370.000000
   vertex 43.840620 2089.840620 88670.000000
  endloop
 endfacet
 facet normal -0.522499 -0.852640 -0.000000
  outer loop
   vertex 28.147411 2101.242404 89370.000000
   vertex 28.147411 2101.242404 88670.000000
   vertex 36.442686 2096.159054 88670.000000
  endloop
 endfacet
 facet normal -0.522499 -0.852640 -0.000000
  outer loop
   vertex 36.442686 2096.159054 89370.000000
   vertex 28.147411 2101.242404 89370.000000
   vertex 36.442686 2096.159054 88670.000000
  endloop
 endfacet
 facet normal -0.382683 -0.923880 -0.000000
  outer loop
   vertex 19.159054 2104.965504 89370.000000
   vertex 19.159054 2104.965504 88670.000000
   vertex 28.147411 2101.242404 88670.000000
  endloop
 endfacet
 facet normal -0.382683 -0.923880 -0.000000
  outer loop
   vertex 28.147411 2101.242404 89370.000000
   vertex 19.159054 2104.965504 89370.000000
   vertex 28.147411 2101.242404 88670.000000
  endloop
 endfacet
 facet normal -0.233445 -0.972370 -0.000000
  outer loop
   vertex 9.698937 2107.236677 89370.000000
   vertex 9.698937 2107.236677 88670.000000
   vertex 19.159054 2104.965504 88670.000000
  endloop
 endfacet
 facet normal -0.233445 -0.972370 -0.000000
  outer loop
   vertex 19.159054 2104.965504 89370.000000
   vertex 9.698937 2107.236677 89370.000000
   vertex 19.159054 2104.965504 88670.000000
  endloop
 endfacet
 facet normal -0.078459 -0.996917 -0.000000
  outer loop
   vertex 0.000000 2108.000000 89370.000000
   vertex 0.000000 2108.000000 88670.000000
   vertex 9.698937 2107.236677 88670.000000
  endloop
 endfacet
 facet normal -0.078459 -0.996917 -0.000000
  outer loop
   vertex 9.698937 2107.236677 89370.000000
   vertex 0.000000 2108.000000 89370.000000
   vertex 9.698937 2107.236677 88670.000000
  endloop
 endfacet
 facet normal 0.078459 -0.996917 0.000000
  outer loop
   vertex -9.698937 2107.236677 89370.000000
   vertex -9.698937 2107.236677 88670.000000
   vertex 0.000000 2108.000000 88670.000000
  endloop
 endfacet
 facet normal 0.078459 -0.996917 0.000000
  outer loop
   vertex 0.000000 2108.000000 89370.000000
   vertex -9.698937 2107.236677 89370.000000
   vertex 0.000000 2108.000000 88670.000000
  endloop
 endfacet
 facet normal 0.233445 -0.972370 0.000000
  outer loop
   vertex -19.159054 2104.965504 89370.000000
   vertex -19.159054 2104.965504 88670.000000
   vertex -9.698937 2107.236677 88670.000000
  endloop
 endfacet
 facet normal 0.233445 -0.972370 0.000000
  outer loop
   vertex -9.698937 2107.236677 89370.000000
   vertex -19.159054 2104.965504 89370.000000
   vertex -9.698937 2107.236677 88670.000000
  endloop
 endfacet
 facet normal 0.382683 -0.923880 0.000000
  outer loop
   vertex -28.147411 2101.242404 89370.000000
   vertex -28.147411 2101.242404 88670.000000
   vertex -19.159054 2104.965504 88670.000000
  endloop
 endfacet
 facet normal 0.382683 -0.923880 0.000000
  outer loop
   vertex -19.159054 2104.965504 89370.000000
   vertex -28.147411 2101.242404 89370.000000
   vertex -19.159054 2104.965504 88670.000000
  endloop
 endfacet
 facet normal 0.522499 -0.852640 0.000000
  outer loop
   vertex -36.442686 2096.159054 89370.000000
   vertex -36.442686 2096.159054 88670.000000
   vertex -28.147411 2101.242404 88670.000000
  endloop
 endfacet
 facet normal 0.522499 -0.852640 0.000000
  outer loop
   vertex -28.147411 2101.242404 89370.000000
   vertex -36.442686 2096.159054 89370.000000
   vertex -28.147411 2101.242404 88670.000000
  endloop
 endfacet
 facet normal 0.649448 -0.760406 0.000000
  outer loop
   vertex -43.840620 2089.840620 89370.000000
   vertex -43.840620 2089.840620 88670.000000
   vertex -36.442686 2096.159054 88670.000000
  endloop
 endfacet
 facet normal 0.649448 -0.760406 0.000000
  outer loop
   vertex -36.442686 2096.159054 89370.000000
   vertex -43.840620 2089.840620 89370.000000
   vertex -36.442686 2096.159054 88670.000000
  endloop
 endfacet
 facet normal 0.760406 -0.649448 0.000000
  outer loop
   vertex -50.159054 2082.442686 89370.000000
   vertex -50.159054 2082.442686 88670.000000
   vertex -43.840620 2089.840620 88670.000000
  endloop
 endfacet
 facet normal 0.760406 -0.649448 0.000000
  outer loop
   vertex -43.840620 2089.840620 89370.000000
   vertex -50.159054 2082.442686 89370.000000
   vertex -43.840620 2089.840620 88670.000000
  endloop
 endfacet
 facet normal 0.852640 -0.522499 0.000000
  outer loop
   vertex -55.242404 2074.147411 89370.000000
   vertex -55.242404 2074.147411 88670.000000
   vertex -50.159054 2082.442686 88670.000000
  endloop
 endfacet
 facet normal 0.852640 -0.522499 0.000000
  outer loop
   vertex -50.159054 2082.442686 89370.000000
   vertex -55.242404 2074.147411 89370.000000
   vertex -50.159054 2082.442686 88670.000000
  endloop
 endfacet
 facet normal 0.923880 -0.382683 0.000000
  outer loop
   vertex -58.965504 2065.159054 89370.000000
   vertex -58.965504 2065.159054 88670.000000
   vertex -55.242404 2074.147411 88670.000000
  endloop
 endfacet
 facet normal 0.923880 -0.382683 0.000000
  outer loop
   vertex -55.242404 2074.147411 89370.000000
   vertex -58.965504 2065.159054 89370.000000
   vertex -55.242404 2074.147411 88670.000000
  endloop
 endfacet
 facet normal 0.972370 -0.233445 0.000000
  outer loop
   vertex -61.236677 2055.698937 89370.000000
   vertex -61.236677 2055.698937 88670.000000
   vertex -58.965504 2065.159054 88670.000000
  endloop
 endfacet
 facet normal 0.972370 -0.233445 0.000000
  outer loop
   vertex -58.965504 2065.159054 89370.000000
   vertex -61.236677 2055.698937 89370.000000
   vertex -58.965504 2065.159054 88670.000000
  endloop
 endfacet
 facet normal 0.996917 -0.078459 0.000000
  outer loop
   vertex -62.000000 2046.000000 89370.000000
   vertex -62.000000 2046.000000 88670.000000
   vertex -61.236677 2055.698937 88670.000000
  endloop
 endfacet
 facet normal 0.996917 -0.078459 0.000000
  outer loop
   vertex -61.236677 2055.698937 89370.000000
   vertex -62.000000 2046.000000 89370.000000
   vertex -61.236677 2055.698937 88670.000000
  endloop
 endfacet
 facet normal 0.996917 0.078459 0.000000
  outer loop
   vertex -61.236677 2036.301063 89370.000000
   vertex -61.236677 2036.301063 88670.000000
   vertex -62.000000 2046.000000 88670.000000
  endloop
 endfacet
 facet normal 0.996917 0.078459 0.000000
  outer loop
   vertex -62.000000 2046.000000 89370.000000
   vertex -61.236677 2036.301063 89370.000000
   vertex -62.000000 2046.000000 88670.000000
  endloop
 endfacet
 facet normal 0.972370 0.233445 0.000000
  outer loop
   vertex -58.965504 2026.840946 89370.000000
   vertex -58.965504 2026.840946 88670.000000
   vertex -61.236677 2036.301063 88670.000000
  endloop
 endfacet
 facet normal 0.972370 0.233445 0.000000
  outer loop
   vertex -61.236677 2036.301063 89370.000000
   vertex -58.965504 2026.840946 89370.000000
   vertex -61.236677 2036.301063 88670.000000
  endloop
 endfacet
 facet normal 0.923880 0.382683 0.000000
  outer loop
   vertex -55.242404 2017.852589 89370.000000
   vertex -55.242404 2017.852589 88670.000000
   vertex -58.965504 2026.840946 88670.000000
  endloop
 endfacet
 facet normal 0.923880 0.382683 0.000000
  outer loop
   vertex -58.965504 2026.840946 89370.000000
   vertex -55.242404 2017.852589 89370.000000
   vertex -58.965504 2026.840946 88670.000000
  endloop
 endfacet
 facet normal 0.852640 0.522499 0.000000
  outer loop
   vertex -50.159054 2009.557314 89370.000000
   vertex -50.159054 2009.557314 88670.000000
   vertex -55.242404 2017.852589 88670.000000
  endloop
 endfacet
 facet normal 0.852640 0.522499 0.000000
  outer loop
   vertex -55.242404 2017.852589 89370.000000
   vertex -50.159054 2009.557314 89370.000000
   vertex -55.242404 2017.852589 88670.000000
  endloop
 endfacet
 facet normal 0.760406 0.649448 0.000000
  outer loop
   vertex -43.840620 2002.159380 89370.000000
   vertex -43.840620 2002.159380 88670.000000
   vertex -50.159054 2009.557314 88670.000000
  endloop
 endfacet
 facet normal 0.760406 0.649448 0.000000
  outer loop
   vertex -50.159054 2009.557314 89370.000000
   vertex -43.840620 2002.159380 89370.000000
   vertex -50.159054 2009.557314 88670.000000
  endloop
 endfacet
 facet normal 0.649448 0.760406 0.000000
  outer loop
   vertex -36.442686 1995.840946 89370.000000
   vertex -36.442686 1995.840946 88670.000000
   vertex -43.840620 2002.159380 88670.000000
  endloop
 endfacet
 facet normal 0.649448 0.760406 0.000000
  outer loop
   vertex -43.840620 2002.159380 89370.000000
   vertex -36.442686 1995.840946 89370.000000
   vertex -43.840620 2002.159380 88670.000000
  endloop
 endfacet
 facet normal 0.522499 0.852640 0.000000
  outer loop
   vertex -28.147411 1990.757596 89370.000000
   vertex -28.147411 1990.757596 88670.000000
   vertex -36.442686 1995.840946 88670.000000
  endloop
 endfacet
 facet normal 0.522499 0.852640 0.000000
  outer loop
   vertex -36.442686 1995.840946 89370.000000
   vertex -28.147411 1990.757596 89370.000000
   vertex -36.442686 1995.840946 88670.000000
  endloop
 endfacet
 facet normal 0.382683 0.923880 0.000000
  outer loop
   vertex -19.159054 1987.034496 89370.000000
   vertex -19.159054 1987.034496 88670.000000
   vertex -28.147411 1990.757596 88670.000000
  endloop
 endfacet
 facet normal 0.382683 0.923880 0.000000
  outer loop
   vertex -28.147411 1990.757596 89370.000000
   vertex -19.159054 1987.034496 89370.000000
   vertex -28.147411 1990.757596 88670.000000
  endloop
 endfacet
 facet normal 0.233445 0.972370 0.000000
  outer loop
   vertex -9.698937 1984.763323 89370.000000
   vertex -9.698937 1984.763323 88670.000000
   vertex -19.159054 1987.034496 88670.000000
  endloop
 endfacet
 facet normal 0.233445 0.972370 0.000000
  outer loop
   vertex -19.159054 1987.034496 89370.000000
   vertex -9.698937 1984.763323 89370.000000
   vertex -19.159054 1987.034496 88670.000000
  endloop
 endfacet
 facet normal 0.078459 0.996917 0.000000
  outer loop
   vertex 0.000000 1984.000000 89370.000000
   vertex 0.000000 1984.000000 88670.000000
   vertex -9.698937 1984.763323 88670.000000
  endloop
 endfacet
 facet normal 0.078459 0.996917 0.000000
  outer loop
   vertex -9.698937 1984.763323 89370.000000
   vertex 0.000000 1984.000000 89370.000000
   vertex -9.698937 1984.763323 88670.000000
  endloop
 endfacet
endsolid part
