solid J2_chamber_2
 facet normal 0.989239 0.032384 -0.142679
  outer loop
   vertex 472.500000 0.000000 44720.000000
   vertex 471.488341 30.902979 44720.000000
   vertex 583.747470 38.260831 45500.000000
  endloop
 endfacet
 facet normal 0.989239 0.032384 -0.142679
  outer loop
   vertex 472.500000 0.000000 44720.000000
   vertex 583.747470 38.260831 45500.000000
   vertex 585.000000 0.000000 45500.000000
  endloop
 endfacet
 facet normal 0.985003 0.097014 -0.142679
  outer loop
   vertex 471.488341 30.902979 44720.000000
   vertex 468.457697 61.673626 44720.000000
   vertex 579.995244 76.357822 45500.000000
  endloop
 endfacet
 facet normal 0.985003 0.097014 -0.142679
  outer loop
   vertex 471.488341 30.902979 44720.000000
   vertex 579.995244 76.357822 45500.000000
   vertex 583.747470 38.260831 45500.000000
  endloop
 endfacet
 facet normal 0.976549 0.161229 -0.142679
  outer loop
   vertex 468.457697 61.673626 44720.000000
   vertex 463.421045 92.180177 44720.000000
   vertex 573.759389 114.127838 45500.000000
  endloop
 endfacet
 facet normal 0.976549 0.161229 -0.142679
  outer loop
   vertex 468.457697 61.673626 44720.000000
   vertex 573.759389 114.127838 45500.000000
   vertex 579.995244 76.357822 45500.000000
  endloop
 endfacet
 facet normal 0.963913 0.224753 -0.142679
  outer loop
   vertex 463.421045 92.180177 44720.000000
   vertex 456.399953 122.291999 44720.000000
   vertex 565.066608 151.409141 45500.000000
  endloop
 endfacet
 facet normal 0.963913 0.224753 -0.142679
  outer loop
   vertex 463.421045 92.180177 44720.000000
   vertex 565.066608 151.409141 45500.000000
   vertex 573.759389 114.127838 45500.000000
  endloop
 endfacet
 facet normal 0.947150 0.287315 -0.142679
  outer loop
   vertex 456.399953 122.291999 44720.000000
   vertex 447.424486 151.880147 44720.000000
   vertex 553.954126 188.042087 45500.000000
  endloop
 endfacet
 facet normal 0.947150 0.287315 -0.142679
  outer loop
   vertex 456.399953 122.291999 44720.000000
   vertex 553.954126 188.042087 45500.000000
   vertex 565.066608 151.409141 45500.000000
  endloop
 endfacet
 facet normal 0.926331 0.348646 -0.142679
  outer loop
   vertex 447.424486 151.880147 44720.000000
   vertex 436.533079 180.817922 44720.000000
   vertex 540.469527 223.869808 45500.000000
  endloop
 endfacet
 facet normal 0.926331 0.348646 -0.142679
  outer loop
   vertex 447.424486 151.880147 44720.000000
   vertex 540.469527 223.869808 45500.000000
   vertex 553.954126 188.042087 45500.000000
  endloop
 endfacet
 facet normal 0.901545 0.408485 -0.142679
  outer loop
   vertex 436.533079 180.817922 44720.000000
   vertex 423.772370 208.981406 44720.000000
   vertex 524.670554 258.738884 45500.000000
  endloop
 endfacet
 facet normal 0.901545 0.408485 -0.142679
  outer loop
   vertex 436.533079 180.817922 44720.000000
   vertex 524.670554 258.738884 45500.000000
   vertex 540.469527 223.869808 45500.000000
  endloop
 endfacet
 facet normal 0.872898 0.466574 -0.142679
  outer loop
   vertex 423.772370 208.981406 44720.000000
   vertex 409.197003 236.250000 44720.000000
   vertex 506.624861 292.500000 45500.000000
  endloop
 endfacet
 facet normal 0.872898 0.466574 -0.142679
  outer loop
   vertex 423.772370 208.981406 44720.000000
   vertex 506.624861 292.500000 45500.000000
   vertex 524.670554 258.738884 45500.000000
  endloop
 endfacet
 facet normal 0.840514 0.522665 -0.142679
  outer loop
   vertex 409.197003 236.250000 44720.000000
   vertex 392.869392 262.506935 44720.000000
   vertex 486.409723 325.008586 45500.000000
  endloop
 endfacet
 facet normal 0.840514 0.522665 -0.142679
  outer loop
   vertex 409.197003 236.250000 44720.000000
   vertex 486.409723 325.008586 45500.000000
   vertex 506.624861 292.500000 45500.000000
  endloop
 endfacet
 facet normal 0.804530 0.576518 -0.142679
  outer loop
   vertex 392.869392 262.506935 44720.000000
   vertex 374.859453 287.639775 44720.000000
   vertex 464.111704 356.125436 45500.000000
  endloop
 endfacet
 facet normal 0.804530 0.576518 -0.142679
  outer loop
   vertex 392.869392 262.506935 44720.000000
   vertex 464.111704 356.125436 45500.000000
   vertex 486.409723 325.008586 45500.000000
  endloop
 endfacet
 facet normal 0.765102 0.627903 -0.142679
  outer loop
   vertex 374.859453 287.639775 44720.000000
   vertex 355.244309 311.540898 44720.000000
   vertex 439.826287 385.717302 45500.000000
  endloop
 endfacet
 facet normal 0.765102 0.627903 -0.142679
  outer loop
   vertex 374.859453 287.639775 44720.000000
   vertex 439.826287 385.717302 45500.000000
   vertex 464.111704 356.125436 45500.000000
  endloop
 endfacet
 facet normal 0.722397 0.676599 -0.142679
  outer loop
   vertex 355.244309 311.540898 44720.000000
   vertex 334.107954 334.107954 44720.000000
   vertex 413.657467 413.657467 45500.000000
  endloop
 endfacet
 facet normal 0.722397 0.676599 -0.142679
  outer loop
   vertex 355.244309 311.540898 44720.000000
   vertex 413.657467 413.657467 45500.000000
   vertex 439.826287 385.717302 45500.000000
  endloop
 endfacet
 facet normal 0.676599 0.722397 -0.142679
  outer loop
   vertex 334.107954 334.107954 44720.000000
   vertex 311.540898 355.244309 44720.000000
   vertex 385.717302 439.826287 45500.000000
  endloop
 endfacet
 facet normal 0.676599 0.722397 -0.142679
  outer loop
   vertex 334.107954 334.107954 44720.000000
   vertex 385.717302 439.826287 45500.000000
   vertex 413.657467 413.657467 45500.000000
  endloop
 endfacet
 facet normal 0.627903 0.765102 -0.142679
  outer loop
   vertex 311.540898 355.244309 44720.000000
   vertex 287.639775 374.859453 44720.000000
   vertex 356.125436 464.111704 45500.000000
  endloop
 endfacet
 facet normal 0.627903 0.765102 -0.142679
  outer loop
   vertex 311.540898 355.244309 44720.000000
   vertex 356.125436 464.111704 45500.000000
   vertex 385.717302 439.826287 45500.000000
  endloop
 endfacet
 facet normal 0.576518 0.804530 -0.142679
  outer loop
   vertex 287.639775 374.859453 44720.000000
   vertex 262.506935 392.869392 44720.000000
   vertex 325.008586 486.409723 45500.000000
  endloop
 endfacet
 facet normal 0.576518 0.804530 -0.142679
  outer loop
   vertex 287.639775 374.859453 44720.000000
   vertex 325.008586 486.409723 45500.000000
   vertex 356.125436 464.111704 45500.000000
  endloop
 endfacet
 facet normal 0.522665 0.840514 -0.142679
  outer loop
   vertex 262.506935 392.869392 44720.000000
   vertex 236.250000 409.197003 44720.000000
   vertex 292.500000 506.624861 45500.000000
  endloop
 endfacet
 facet normal 0.522665 0.840514 -0.142679
  outer loop
   vertex 262.506935 392.869392 44720.000000
   vertex 292.500000 506.624861 45500.000000
   vertex 325.008586 486.409723 45500.000000
  endloop
 endfacet
 facet normal 0.466574 0.872898 -0.142679
  outer loop
   vertex 236.250000 409.197003 44720.000000
   vertex 208.981406 423.772370 44720.000000
   vertex 258.738884 524.670554 45500.000000
  endloop
 endfacet
 facet normal 0.466574 0.872898 -0.142679
  outer loop
   vertex 236.250000 409.197003 44720.000000
   vertex 258.738884 524.670554 45500.000000
   vertex 292.500000 506.624861 45500.000000
  endloop
 endfacet
 facet normal 0.408485 0.901545 -0.142679
  outer loop
   vertex 208.981406 423.772370 44720.000000
   vertex 180.817922 436.533079 44720.000000
   vertex 223.869808 540.469527 45500.000000
  endloop
 endfacet
 facet normal 0.408485 0.901545 -0.142679
  outer loop
   vertex 208.981406 423.772370 44720.000000
   vertex 223.869808 540.469527 45500.000000
   vertex 258.738884 524.670554 45500.000000
  endloop
 endfacet
 facet normal 0.348646 0.926331 -0.142679
  outer loop
   vertex 180.817922 436.533079 44720.000000
   vertex 151.880147 447.424486 44720.000000
   vertex 188.042087 553.954126 45500.000000
  endloop
 endfacet
 facet normal 0.348646 0.926331 -0.142679
  outer loop
   vertex 180.817922 436.533079 44720.000000
   vertex 188.042087 553.954126 45500.000000
   vertex 223.869808 540.469527 45500.000000
  endloop
 endfacet
 facet normal 0.287315 0.947150 -0.142679
  outer loop
   vertex 151.880147 447.424486 44720.000000
   vertex 122.291999 456.399953 44720.000000
   vertex 151.409141 565.066608 45500.000000
  endloop
 endfacet
 facet normal 0.287315 0.947150 -0.142679
  outer loop
   vertex 151.880147 447.424486 44720.000000
   vertex 151.409141 565.066608 45500.000000
   vertex 188.042087 553.954126 45500.000000
  endloop
 endfacet
 facet normal 0.224753 0.963913 -0.142679
  outer loop
   vertex 122.291999 456.399953 44720.000000
   vertex 92.180177 463.421045 44720.000000
   vertex 114.127838 573.759389 45500.000000
  endloop
 endfacet
 facet normal 0.224753 0.963913 -0.142679
  outer loop
   vertex 122.291999 456.399953 44720.000000
   vertex 114.127838 573.759389 45500.000000
   vertex 151.409141 565.066608 45500.000000
  endloop
 endfacet
 facet normal 0.161229 0.976549 -0.142679
  outer loop
   vertex 92.180177 463.421045 44720.000000
   vertex 61.673626 468.457697 44720.000000
   vertex 76.357822 579.995244 45500.000000
  endloop
 endfacet
 facet normal 0.161229 0.976549 -0.142679
  outer loop
   vertex 92.180177 463.421045 44720.000000
   vertex 76.357822 579.995244 45500.000000
   vertex 114.127838 573.759389 45500.000000
  endloop
 endfacet
 facet normal 0.097014 0.985003 -0.142679
  outer loop
   vertex 61.673626 468.457697 44720.000000
   vertex 30.902979 471.488341 44720.000000
   vertex 38.260831 583.747470 45500.000000
  endloop
 endfacet
 facet normal 0.097014 0.985003 -0.142679
  outer loop
   vertex 61.673626 468.457697 44720.000000
   vertex 38.260831 583.747470 45500.000000
   vertex 76.357822 579.995244 45500.000000
  endloop
 endfacet
 facet normal 0.032384 0.989239 -0.142679
  outer loop
   vertex 30.902979 471.488341 44720.000000
   vertex 0.000000 472.500000 44720.000000
   vertex 0.000000 585.000000 45500.000000
  endloop
 endfacet
 facet normal 0.032384 0.989239 -0.142679
  outer loop
   vertex 30.902979 471.488341 44720.000000
   vertex 0.000000 585.000000 45500.000000
   vertex 38.260831 583.747470 45500.000000
  endloop
 endfacet
 facet normal -0.032384 0.989239 -0.142679
  outer loop
   vertex 0.000000 472.500000 44720.000000
   vertex -30.902979 471.488341 44720.000000
   vertex -38.260831 583.747470 45500.000000
  endloop
 endfacet
 facet normal -0.032384 0.989239 -0.142679
  outer loop
   vertex 0.000000 472.500000 44720.000000
   vertex -38.260831 583.747470 45500.000000
   vertex 0.000000 585.000000 45500.000000
  endloop
 endfacet
 facet normal -0.097014 0.985003 -0.142679
  outer loop
   vertex -30.902979 471.488341 44720.000000
   vertex -61.673626 468.457697 44720.000000
   vertex -76.357822 579.995244 45500.000000
  endloop
 endfacet
 facet normal -0.097014 0.985003 -0.142679
  outer loop
   vertex -30.902979 471.488341 44720.000000
   vertex -76.357822 579.995244 45500.000000
   vertex -38.260831 583.747470 45500.000000
  endloop
 endfacet
 facet normal -0.161229 0.976549 -0.142679
  outer loop
   vertex -61.673626 468.457697 44720.000000
   vertex -92.180177 463.421045 44720.000000
   vertex -114.127838 573.759389 45500.000000
  endloop
 endfacet
 facet normal -0.161229 0.976549 -0.142679
  outer loop
   vertex -61.673626 468.457697 44720.000000
   vertex -114.127838 573.759389 45500.000000
   vertex -76.357822 579.995244 45500.000000
  endloop
 endfacet
 facet normal -0.224753 0.963913 -0.142679
  outer loop
   vertex -92.180177 463.421045 44720.000000
   vertex -122.291999 456.399953 44720.000000
   vertex -151.409141 565.066608 45500.000000
  endloop
 endfacet
 facet normal -0.224753 0.963913 -0.142679
  outer loop
   vertex -92.180177 463.421045 44720.000000
   vertex -151.409141 565.066608 45500.000000
   vertex -114.127838 573.759389 45500.000000
  endloop
 endfacet
 facet normal -0.287315 0.947150 -0.142679
  outer loop
   vertex -122.291999 456.399953 44720.000000
   vertex -151.880147 447.424486 44720.000000
   vertex -188.042087 553.954126 45500.000000
  endloop
 endfacet
 facet normal -0.287315 0.947150 -0.142679
  outer loop
   vertex -122.291999 456.399953 44720.000000
   vertex -188.042087 553.954126 45500.000000
   vertex -151.409141 565.066608 45500.000000
  endloop
 endfacet
 facet normal -0.348646 0.926331 -0.142679
  outer loop
   vertex -151.880147 447.424486 44720.000000
   vertex -180.817922 436.533079 44720.000000
   vertex -223.869808 540.469527 45500.000000
  endloop
 endfacet
 facet normal -0.348646 0.926331 -0.142679
  outer loop
   vertex -151.880147 447.424486 44720.000000
   vertex -223.869808 540.469527 45500.000000
   vertex -188.042087 553.954126 45500.000000
  endloop
 endfacet
 facet normal -0.408485 0.901545 -0.142679
  outer loop
   vertex -180.817922 436.533079 44720.000000
   vertex -208.981406 423.772370 44720.000000
   vertex -258.738884 524.670554 45500.000000
  endloop
 endfacet
 facet normal -0.408485 0.901545 -0.142679
  outer loop
   vertex -180.817922 436.533079 44720.000000
   vertex -258.738884 524.670554 45500.000000
   vertex -223.869808 540.469527 45500.000000
  endloop
 endfacet
 facet normal -0.466574 0.872898 -0.142679
  outer loop
   vertex -208.981406 423.772370 44720.000000
   vertex -236.250000 409.197003 44720.000000
   vertex -292.500000 506.624861 45500.000000
  endloop
 endfacet
 facet normal -0.466574 0.872898 -0.142679
  outer loop
   vertex -208.981406 423.772370 44720.000000
   vertex -292.500000 506.624861 45500.000000
   vertex -258.738884 524.670554 45500.000000
  endloop
 endfacet
 facet normal -0.522665 0.840514 -0.142679
  outer loop
   vertex -236.250000 409.197003 44720.000000
   vertex -262.506935 392.869392 44720.000000
   vertex -325.008586 486.409723 45500.000000
  endloop
 endfacet
 facet normal -0.522665 0.840514 -0.142679
  outer loop
   vertex -236.250000 409.197003 44720.000000
   vertex -325.008586 486.409723 45500.000000
   vertex -292.500000 506.624861 45500.000000
  endloop
 endfacet
 facet normal -0.576518 0.804530 -0.142679
  outer loop
   vertex -262.506935 392.869392 44720.000000
   vertex -287.639775 374.859453 44720.000000
   vertex -356.125436 464.111704 45500.000000
  endloop
 endfacet
 facet normal -0.576518 0.804530 -0.142679
  outer loop
   vertex -262.506935 392.869392 44720.000000
   vertex -356.125436 464.111704 45500.000000
   vertex -325.008586 486.409723 45500.000000
  endloop
 endfacet
 facet normal -0.627903 0.765102 -0.142679
  outer loop
   vertex -287.639775 374.859453 44720.000000
   vertex -311.540898 355.244309 44720.000000
   vertex -385.717302 439.826287 45500.000000
  endloop
 endfacet
 facet normal -0.627903 0.765102 -0.142679
  outer loop
   vertex -287.639775 374.859453 44720.000000
   vertex -385.717302 439.826287 45500.000000
   vertex -356.125436 464.111704 45500.000000
  endloop
 endfacet
 facet normal -0.676599 0.722397 -0.142679
  outer loop
   vertex -311.540898 355.244309 44720.000000
   vertex -334.107954 334.107954 44720.000000
   vertex -413.657467 413.657467 45500.000000
  endloop
 endfacet
 facet normal -0.676599 0.722397 -0.142679
  outer loop
   vertex -311.540898 355.244309 44720.000000
   vertex -413.657467 413.657467 45500.000000
   vertex -385.717302 439.826287 45500.000000
  endloop
 endfacet
 facet normal -0.722397 0.676599 -0.142679
  outer loop
   vertex -334.107954 334.107954 44720.000000
   vertex -355.244309 311.540898 44720.000000
   vertex -439.826287 385.717302 45500.000000
  endloop
 endfacet
 facet normal -0.722397 0.676599 -0.142679
  outer loop
   vertex -334.107954 334.107954 44720.000000
   vertex -439.826287 385.717302 45500.000000
   vertex -413.657467 413.657467 45500.000000
  endloop
 endfacet
 facet normal -0.765102 0.627903 -0.142679
  outer loop
   vertex -355.244309 311.540898 44720.000000
   vertex -374.859453 287.639775 44720.000000
   vertex -464.111704 356.125436 45500.000000
  endloop
 endfacet
 facet normal -0.765102 0.627903 -0.142679
  outer loop
   vertex -355.244309 311.540898 44720.000000
   vertex -464.111704 356.125436 45500.000000
   vertex -439.826287 385.717302 45500.000000
  endloop
 endfacet
 facet normal -0.804530 0.576518 -0.142679
  outer loop
   vertex -374.859453 287.639775 44720.000000
   vertex -392.869392 262.506935 44720.000000
   vertex -486.409723 325.008586 45500.000000
  endloop
 endfacet
 facet normal -0.804530 0.576518 -0.142679
  outer loop
   vertex -374.859453 287.639775 44720.000000
   vertex -486.409723 325.008586 45500.000000
   vertex -464.111704 356.125436 45500.000000
  endloop
 endfacet
 facet normal -0.840514 0.522665 -0.142679
  outer loop
   vertex -392.869392 262.506935 44720.000000
   vertex -409.197003 236.250000 44720.000000
   vertex -506.624861 292.500000 45500.000000
  endloop
 endfacet
 facet normal -0.840514 0.522665 -0.142679
  outer loop
   vertex -392.869392 262.506935 44720.000000
   vertex -506.624861 292.500000 45500.000000
   vertex -486.409723 325.008586 45500.000000
  endloop
 endfacet
 facet normal -0.872898 0.466574 -0.142679
  outer loop
   vertex -409.197003 236.250000 44720.000000
   vertex -423.772370 208.981406 44720.000000
   vertex -524.670554 258.738884 45500.000000
  endloop
 endfacet
 facet normal -0.872898 0.466574 -0.142679
  outer loop
   vertex -409.197003 236.250000 44720.000000
   vertex -524.670554 258.738884 45500.000000
   vertex -506.624861 292.500000 45500.000000
  endloop
 endfacet
 facet normal -0.901545 0.408485 -0.142679
  outer loop
   vertex -423.772370 208.981406 44720.000000
   vertex -436.533079 180.817922 44720.000000
   vertex -540.469527 223.869808 45500.000000
  endloop
 endfacet
 facet normal -0.901545 0.408485 -0.142679
  outer loop
   vertex -423.772370 208.981406 44720.000000
   vertex -540.469527 223.869808 45500.000000
   vertex -524.670554 258.738884 45500.000000
  endloop
 endfacet
 facet normal -0.926331 0.348646 -0.142679
  outer loop
   vertex -436.533079 180.817922 44720.000000
   vertex -447.424486 151.880147 44720.000000
   vertex -553.954126 188.042087 45500.000000
  endloop
 endfacet
 facet normal -0.926331 0.348646 -0.142679
  outer loop
   vertex -436.533079 180.817922 44720.000000
   vertex -553.954126 188.042087 45500.000000
   vertex -540.469527 223.869808 45500.000000
  endloop
 endfacet
 facet normal -0.947150 0.287315 -0.142679
  outer loop
   vertex -447.424486 151.880147 44720.000000
   vertex -456.399953 122.291999 44720.000000
   vertex -565.066608 151.409141 45500.000000
  endloop
 endfacet
 facet normal -0.947150 0.287315 -0.142679
  outer loop
   vertex -447.424486 151.880147 44720.000000
   vertex -565.066608 151.409141 45500.000000
   vertex -553.954126 188.042087 45500.000000
  endloop
 endfacet
 facet normal -0.963913 0.224753 -0.142679
  outer loop
   vertex -456.399953 122.291999 44720.000000
   vertex -463.421045 92.180177 44720.000000
   vertex -573.759389 114.127838 45500.000000
  endloop
 endfacet
 facet normal -0.963913 0.224753 -0.142679
  outer loop
   vertex -456.399953 122.291999 44720.000000
   vertex -573.759389 114.127838 45500.000000
   vertex -565.066608 151.409141 45500.000000
  endloop
 endfacet
 facet normal -0.976549 0.161229 -0.142679
  outer loop
   vertex -463.421045 92.180177 44720.000000
   vertex -468.457697 61.673626 44720.000000
   vertex -579.995244 76.357822 45500.000000
  endloop
 endfacet
 facet normal -0.976549 0.161229 -0.142679
  outer loop
   vertex -463.421045 92.180177 44720.000000
   vertex -579.995244 76.357822 45500.000000
   vertex -573.759389 114.127838 45500.000000
  endloop
 endfacet
 facet normal -0.985003 0.097014 -0.142679
  outer loop
   vertex -468.457697 61.673626 44720.000000
   vertex -471.488341 30.902979 44720.000000
   vertex -583.747470 38.260831 45500.000000
  endloop
 endfacet
 facet normal -0.985003 0.097014 -0.142679
  outer loop
   vertex -468.457697 61.673626 44720.000000
   vertex -583.747470 38.260831 45500.000000
   vertex -579.995244 76.357822 45500.000000
  endloop
 endfacet
 facet normal -0.989239 0.032384 -0.142679
  outer loop
   vertex -471.488341 30.902979 44720.000000
   vertex -472.500000 0.000000 44720.000000
   vertex -585.000000 0.000000 45500.000000
  endloop
 endfacet
 facet normal -0.989239 0.032384 -0.142679
  outer loop
   vertex -471.488341 30.902979 44720.000000
   vertex -585.000000 0.000000 45500.000000
   vertex -583.747470 38.260831 45500.000000
  endloop
 endfacet
 facet normal -0.989239 -0.032384 -0.142679
  outer loop
   vertex -472.500000 0.000000 44720.000000
   vertex -471.488341 -30.902979 44720.000000
   vertex -583.747470 -38.260831 45500.000000
  endloop
 endfacet
 facet normal -0.989239 -0.032384 -0.142679
  outer loop
   vertex -472.500000 0.000000 44720.000000
   vertex -583.747470 -38.260831 45500.000000
   vertex -585.000000 0.000000 45500.000000
  endloop
 endfacet
 facet normal -0.985003 -0.097014 -0.142679
  outer loop
   vertex -471.488341 -30.902979 44720.000000
   vertex -468.457697 -61.673626 44720.000000
   vertex -579.995244 -76.357822 45500.000000
  endloop
 endfacet
 facet normal -0.985003 -0.097014 -0.142679
  outer loop
   vertex -471.488341 -30.902979 44720.000000
   vertex -579.995244 -76.357822 45500.000000
   vertex -583.747470 -38.260831 45500.000000
  endloop
 endfacet
 facet normal -0.976549 -0.161229 -0.142679
  outer loop
   vertex -468.457697 -61.673626 44720.000000
   vertex -463.421045 -92.180177 44720.000000
   vertex -573.759389 -114.127838 45500.000000
  endloop
 endfacet
 facet normal -0.976549 -0.161229 -0.142679
  outer loop
   vertex -468.457697 -61.673626 44720.000000
   vertex -573.759389 -114.127838 45500.000000
   vertex -579.995244 -76.357822 45500.000000
  endloop
 endfacet
 facet normal -0.963913 -0.224753 -0.142679
  outer loop
   vertex -463.421045 -92.180177 44720.000000
   vertex -456.399953 -122.291999 44720.000000
   vertex -565.066608 -151.409141 45500.000000
  endloop
 endfacet
 facet normal -0.963913 -0.224753 -0.142679
  outer loop
   vertex -463.421045 -92.180177 44720.000000
   vertex -565.066608 -151.409141 45500.000000
   vertex -573.759389 -114.127838 45500.000000
  endloop
 endfacet
 facet normal -0.947150 -0.287315 -0.142679
  outer loop
   vertex -456.399953 -122.291999 44720.000000
   vertex -447.424486 -151.880147 44720.000000
   vertex -553.954126 -188.042087 45500.000000
  endloop
 endfacet
 facet normal -0.947150 -0.287315 -0.142679
  outer loop
   vertex -456.399953 -122.291999 44720.000000
   vertex -553.954126 -188.042087 45500.000000
   vertex -565.066608 -151.409141 45500.000000
  endloop
 endfacet
 facet normal -0.926331 -0.348646 -0.142679
  outer loop
   vertex -447.424486 -151.880147 44720.000000
   vertex -436.533079 -180.817922 44720.000000
   vertex -540.469527 -223.869808 45500.000000
  endloop
 endfacet
 facet normal -0.926331 -0.348646 -0.142679
  outer loop
   vertex -447.424486 -151.880147 44720.000000
   vertex -540.469527 -223.869808 45500.000000
   vertex -553.954126 -188.042087 45500.000000
  endloop
 endfacet
 facet normal -0.901545 -0.408485 -0.142679
  outer loop
   vertex -436.533079 -180.817922 44720.000000
   vertex -423.772370 -208.981406 44720.000000
   vertex -524.670554 -258.738884 45500.000000
  endloop
 endfacet
 facet normal -0.901545 -0.408485 -0.142679
  outer loop
   vertex -436.533079 -180.817922 44720.000000
   vertex -524.670554 -258.738884 45500.000000
   vertex -540.469527 -223.869808 45500.000000
  endloop
 endfacet
 facet normal -0.872898 -0.466574 -0.142679
  outer loop
   vertex -423.772370 -208.981406 44720.000000
   vertex -409.197003 -236.250000 44720.000000
   vertex -506.624861 -292.500000 45500.000000
  endloop
 endfacet
 facet normal -0.872898 -0.466574 -0.142679
  outer loop
   vertex -423.772370 -208.981406 44720.000000
   vertex -506.624861 -292.500000 45500.000000
   vertex -524.670554 -258.738884 45500.000000
  endloop
 endfacet
 facet normal -0.840514 -0.522665 -0.142679
  outer loop
   vertex -409.197003 -236.250000 44720.000000
   vertex -392.869392 -262.506935 44720.000000
   vertex -486.409723 -325.008586 45500.000000
  endloop
 endfacet
 facet normal -0.840514 -0.522665 -0.142679
  outer loop
   vertex -409.197003 -236.250000 44720.000000
   vertex -486.409723 -325.008586 45500.000000
   vertex -506.624861 -292.500000 45500.000000
  endloop
 endfacet
 facet normal -0.804530 -0.576518 -0.142679
  outer loop
   vertex -392.869392 -262.506935 44720.000000
   vertex -374.859453 -287.639775 44720.000000
   vertex -464.111704 -356.125436 45500.000000
  endloop
 endfacet
 facet normal -0.804530 -0.576518 -0.142679
  outer loop
   vertex -392.869392 -262.506935 44720.000000
   vertex -464.111704 -356.125436 45500.000000
   vertex -486.409723 -325.008586 45500.000000
  endloop
 endfacet
 facet normal -0.765102 -0.627903 -0.142679
  outer loop
   vertex -374.859453 -287.639775 44720.000000
   vertex -355.244309 -311.540898 44720.000000
   vertex -439.826287 -385.717302 45500.000000
  endloop
 endfacet
 facet normal -0.765102 -0.627903 -0.142679
  outer loop
   vertex -374.859453 -287.639775 44720.000000
   vertex -439.826287 -385.717302 45500.000000
   vertex -464.111704 -356.125436 45500.000000
  endloop
 endfacet
 facet normal -0.722397 -0.676599 -0.142679
  outer loop
   vertex -355.244309 -311.540898 44720.000000
   vertex -334.107954 -334.107954 44720.000000
   vertex -413.657467 -413.657467 45500.000000
  endloop
 endfacet
 facet normal -0.722397 -0.676599 -0.142679
  outer loop
   vertex -355.244309 -311.540898 44720.000000
   vertex -413.657467 -413.657467 45500.000000
   vertex -439.826287 -385.717302 45500.000000
  endloop
 endfacet
 facet normal -0.676599 -0.722397 -0.142679
  outer loop
   vertex -334.107954 -334.107954 44720.000000
   vertex -311.540898 -355.244309 44720.000000
   vertex -385.717302 -439.826287 45500.000000
  endloop
 endfacet
 facet normal -0.676599 -0.722397 -0.142679
  outer loop
   vertex -334.107954 -334.107954 44720.000000
   vertex -385.717302 -439.826287 45500.000000
   vertex -413.657467 -413.657467 45500.000000
  endloop
 endfacet
 facet normal -0.627903 -0.765102 -0.142679
  outer loop
   vertex -311.540898 -355.244309 44720.000000
   vertex -287.639775 -374.859453 44720.000000
   vertex -356.125436 -464.111704 45500.000000
  endloop
 endfacet
 facet normal -0.627903 -0.765102 -0.142679
  outer loop
   vertex -311.540898 -355.244309 44720.000000
   vertex -356.125436 -464.111704 45500.000000
   vertex -385.717302 -439.826287 45500.000000
  endloop
 endfacet
 facet normal -0.576518 -0.804530 -0.142679
  outer loop
   vertex -287.639775 -374.859453 44720.000000
   vertex -262.506935 -392.869392 44720.000000
   vertex -325.008586 -486.409723 45500.000000
  endloop
 endfacet
 facet normal -0.576518 -0.804530 -0.142679
  outer loop
   vertex -287.639775 -374.859453 44720.000000
   vertex -325.008586 -486.409723 45500.000000
   vertex -356.125436 -464.111704 45500.000000
  endloop
 endfacet
 facet normal -0.522665 -0.840514 -0.142679
  outer loop
   vertex -262.506935 -392.869392 44720.000000
   vertex -236.250000 -409.197003 44720.000000
   vertex -292.500000 -506.624861 45500.000000
  endloop
 endfacet
 facet normal -0.522665 -0.840514 -0.142679
  outer loop
   vertex -262.506935 -392.869392 44720.000000
   vertex -292.500000 -506.624861 45500.000000
   vertex -325.008586 -486.409723 45500.000000
  endloop
 endfacet
 facet normal -0.466574 -0.872898 -0.142679
  outer loop
   vertex -236.250000 -409.197003 44720.000000
   vertex -208.981406 -423.772370 44720.000000
   vertex -258.738884 -524.670554 45500.000000
  endloop
 endfacet
 facet normal -0.466574 -0.872898 -0.142679
  outer loop
   vertex -236.250000 -409.197003 44720.000000
   vertex -258.738884 -524.670554 45500.000000
   vertex -292.500000 -506.624861 45500.000000
  endloop
 endfacet
 facet normal -0.408485 -0.901545 -0.142679
  outer loop
   vertex -208.981406 -423.772370 44720.000000
   vertex -180.817922 -436.533079 44720.000000
   vertex -223.869808 -540.469527 45500.000000
  endloop
 endfacet
 facet normal -0.408485 -0.901545 -0.142679
  outer loop
   vertex -208.981406 -423.772370 44720.000000
   vertex -223.869808 -540.469527 45500.000000
   vertex -258.738884 -524.670554 45500.000000
  endloop
 endfacet
 facet normal -0.348646 -0.926331 -0.142679
  outer loop
   vertex -180.817922 -436.533079 44720.000000
   vertex -151.880147 -447.424486 44720.000000
   vertex -188.042087 -553.954126 45500.000000
  endloop
 endfacet
 facet normal -0.348646 -0.926331 -0.142679
  outer loop
   vertex -180.817922 -436.533079 44720.000000
   vertex -188.042087 -553.954126 45500.000000
   vertex -223.869808 -540.469527 45500.000000
  endloop
 endfacet
 facet normal -0.287315 -0.947150 -0.142679
  outer loop
   vertex -151.880147 -447.424486 44720.000000
   vertex -122.291999 -456.399953 44720.000000
   vertex -151.409141 -565.066608 45500.000000
  endloop
 endfacet
 facet normal -0.287315 -0.947150 -0.142679
  outer loop
   vertex -151.880147 -447.424486 44720.000000
   vertex -151.409141 -565.066608 45500.000000
   vertex -188.042087 -553.954126 45500.000000
  endloop
 endfacet
 facet normal -0.224753 -0.963913 -0.142679
  outer loop
   vertex -122.291999 -456.399953 44720.000000
   vertex -92.180177 -463.421045 44720.000000
   vertex -114.127838 -573.759389 45500.000000
  endloop
 endfacet
 facet normal -0.224753 -0.963913 -0.142679
  outer loop
   vertex -122.291999 -456.399953 44720.000000
   vertex -114.127838 -573.759389 45500.000000
   vertex -151.409141 -565.066608 45500.000000
  endloop
 endfacet
 facet normal -0.161229 -0.976549 -0.142679
  outer loop
   vertex -92.180177 -463.421045 44720.000000
   vertex -61.673626 -468.457697 44720.000000
   vertex -76.357822 -579.995244 45500.000000
  endloop
 endfacet
 facet normal -0.161229 -0.976549 -0.142679
  outer loop
   vertex -92.180177 -463.421045 44720.000000
   vertex -76.357822 -579.995244 45500.000000
   vertex -114.127838 -573.759389 45500.000000
  endloop
 endfacet
 facet normal -0.097014 -0.985003 -0.142679
  outer loop
   vertex -61.673626 -468.457697 44720.000000
   vertex -30.902979 -471.488341 44720.000000
   vertex -38.260831 -583.747470 45500.000000
  endloop
 endfacet
 facet normal -0.097014 -0.985003 -0.142679
  outer loop
   vertex -61.673626 -468.457697 44720.000000
   vertex -38.260831 -583.747470 45500.000000
   vertex -76.357822 -579.995244 45500.000000
  endloop
 endfacet
 facet normal -0.032384 -0.989239 -0.142679
  outer loop
   vertex -30.902979 -471.488341 44720.000000
   vertex -0.000000 -472.500000 44720.000000
   vertex -0.000000 -585.000000 45500.000000
  endloop
 endfacet
 facet normal -0.032384 -0.989239 -0.142679
  outer loop
   vertex -30.902979 -471.488341 44720.000000
   vertex -0.000000 -585.000000 45500.000000
   vertex -38.260831 -583.747470 45500.000000
  endloop
 endfacet
 facet normal 0.032384 -0.989239 -0.142679
  outer loop
   vertex -0.000000 -472.500000 44720.000000
   vertex 30.902979 -471.488341 44720.000000
   vertex 38.260831 -583.747470 45500.000000
  endloop
 endfacet
 facet normal 0.032384 -0.989239 -0.142679
  outer loop
   vertex -0.000000 -472.500000 44720.000000
   vertex 38.260831 -583.747470 45500.000000
   vertex -0.000000 -585.000000 45500.000000
  endloop
 endfacet
 facet normal 0.097014 -0.985003 -0.142679
  outer loop
   vertex 30.902979 -471.488341 44720.000000
   vertex 61.673626 -468.457697 44720.000000
   vertex 76.357822 -579.995244 45500.000000
  endloop
 endfacet
 facet normal 0.097014 -0.985003 -0.142679
  outer loop
   vertex 30.902979 -471.488341 44720.000000
   vertex 76.357822 -579.995244 45500.000000
   vertex 38.260831 -583.747470 45500.000000
  endloop
 endfacet
 facet normal 0.161229 -0.976549 -0.142679
  outer loop
   vertex 61.673626 -468.457697 44720.000000
   vertex 92.180177 -463.421045 44720.000000
   vertex 114.127838 -573.759389 45500.000000
  endloop
 endfacet
 facet normal 0.161229 -0.976549 -0.142679
  outer loop
   vertex 61.673626 -468.457697 44720.000000
   vertex 114.127838 -573.759389 45500.000000
   vertex 76.357822 -579.995244 45500.000000
  endloop
 endfacet
 facet normal 0.224753 -0.963913 -0.142679
  outer loop
   vertex 92.180177 -463.421045 44720.000000
   vertex 122.291999 -456.399953 44720.000000
   vertex 151.409141 -565.066608 45500.000000
  endloop
 endfacet
 facet normal 0.224753 -0.963913 -0.142679
  outer loop
   vertex 92.180177 -463.421045 44720.000000
   vertex 151.409141 -565.066608 45500.000000
   vertex 114.127838 -573.759389 45500.000000
  endloop
 endfacet
 facet normal 0.287315 -0.947150 -0.142679
  outer loop
   vertex 122.291999 -456.399953 44720.000000
   vertex 151.880147 -447.424486 44720.000000
   vertex 188.042087 -553.954126 45500.000000
  endloop
 endfacet
 facet normal 0.287315 -0.947150 -0.142679
  outer loop
   vertex 122.291999 -456.399953 44720.000000
   vertex 188.042087 -553.954126 45500.000000
   vertex 151.409141 -565.066608 45500.000000
  endloop
 endfacet
 facet normal 0.348646 -0.926331 -0.142679
  outer loop
   vertex 151.880147 -447.424486 44720.000000
   vertex 180.817922 -436.533079 44720.000000
   vertex 223.869808 -540.469527 45500.000000
  endloop
 endfacet
 facet normal 0.348646 -0.926331 -0.142679
  outer loop
   vertex 151.880147 -447.424486 44720.000000
   vertex 223.869808 -540.469527 45500.000000
   vertex 188.042087 -553.954126 45500.000000
  endloop
 endfacet
 facet normal 0.408485 -0.901545 -0.142679
  outer loop
   vertex 180.817922 -436.533079 44720.000000
   vertex 208.981406 -423.772370 44720.000000
   vertex 258.738884 -524.670554 45500.000000
  endloop
 endfacet
 facet normal 0.408485 -0.901545 -0.142679
  outer loop
   vertex 180.817922 -436.533079 44720.000000
   vertex 258.738884 -524.670554 45500.000000
   vertex 223.869808 -540.469527 45500.000000
  endloop
 endfacet
 facet normal 0.466574 -0.872898 -0.142679
  outer loop
   vertex 208.981406 -423.772370 44720.000000
   vertex 236.250000 -409.197003 44720.000000
   vertex 292.500000 -506.624861 45500.000000
  endloop
 endfacet
 facet normal 0.466574 -0.872898 -0.142679
  outer loop
   vertex 208.981406 -423.772370 44720.000000
   vertex 292.500000 -506.624861 45500.000000
   vertex 258.738884 -524.670554 45500.000000
  endloop
 endfacet
 facet normal 0.522665 -0.840514 -0.142679
  outer loop
   vertex 236.250000 -409.197003 44720.000000
   vertex 262.506935 -392.869392 44720.000000
   vertex 325.008586 -486.409723 45500.000000
  endloop
 endfacet
 facet normal 0.522665 -0.840514 -0.142679
  outer loop
   vertex 236.250000 -409.197003 44720.000000
   vertex 325.008586 -486.409723 45500.000000
   vertex 292.500000 -506.624861 45500.000000
  endloop
 endfacet
 facet normal 0.576518 -0.804530 -0.142679
  outer loop
   vertex 262.506935 -392.869392 44720.000000
   vertex 287.639775 -374.859453 44720.000000
   vertex 356.125436 -464.111704 45500.000000
  endloop
 endfacet
 facet normal 0.576518 -0.804530 -0.142679
  outer loop
   vertex 262.506935 -392.869392 44720.000000
   vertex 356.125436 -464.111704 45500.000000
   vertex 325.008586 -486.409723 45500.000000
  endloop
 endfacet
 facet normal 0.627903 -0.765102 -0.142679
  outer loop
   vertex 287.639775 -374.859453 44720.000000
   vertex 311.540898 -355.244309 44720.000000
   vertex 385.717302 -439.826287 45500.000000
  endloop
 endfacet
 facet normal 0.627903 -0.765102 -0.142679
  outer loop
   vertex 287.639775 -374.859453 44720.000000
   vertex 385.717302 -439.826287 45500.000000
   vertex 356.125436 -464.111704 45500.000000
  endloop
 endfacet
 facet normal 0.676599 -0.722397 -0.142679
  outer loop
   vertex 311.540898 -355.244309 44720.000000
   vertex 334.107954 -334.107954 44720.000000
   vertex 413.657467 -413.657467 45500.000000
  endloop
 endfacet
 facet normal 0.676599 -0.722397 -0.142679
  outer loop
   vertex 311.540898 -355.244309 44720.000000
   vertex 413.657467 -413.657467 45500.000000
   vertex 385.717302 -439.826287 45500.000000
  endloop
 endfacet
 facet normal 0.722397 -0.676599 -0.142679
  outer loop
   vertex 334.107954 -334.107954 44720.000000
   vertex 355.244309 -311.540898 44720.000000
   vertex 439.826287 -385.717302 45500.000000
  endloop
 endfacet
 facet normal 0.722397 -0.676599 -0.142679
  outer loop
   vertex 334.107954 -334.107954 44720.000000
   vertex 439.826287 -385.717302 45500.000000
   vertex 413.657467 -413.657467 45500.000000
  endloop
 endfacet
 facet normal 0.765102 -0.627903 -0.142679
  outer loop
   vertex 355.244309 -311.540898 44720.000000
   vertex 374.859453 -287.639775 44720.000000
   vertex 464.111704 -356.125436 45500.000000
  endloop
 endfacet
 facet normal 0.765102 -0.627903 -0.142679
  outer loop
   vertex 355.244309 -311.540898 44720.000000
   vertex 464.111704 -356.125436 45500.000000
   vertex 439.826287 -385.717302 45500.000000
  endloop
 endfacet
 facet normal 0.804530 -0.576518 -0.142679
  outer loop
   vertex 374.859453 -287.639775 44720.000000
   vertex 392.869392 -262.506935 44720.000000
   vertex 486.409723 -325.008586 45500.000000
  endloop
 endfacet
 facet normal 0.804530 -0.576518 -0.142679
  outer loop
   vertex 374.859453 -287.639775 44720.000000
   vertex 486.409723 -325.008586 45500.000000
   vertex 464.111704 -356.125436 45500.000000
  endloop
 endfacet
 facet normal 0.840514 -0.522665 -0.142679
  outer loop
   vertex 392.869392 -262.506935 44720.000000
   vertex 409.197003 -236.250000 44720.000000
   vertex 506.624861 -292.500000 45500.000000
  endloop
 endfacet
 facet normal 0.840514 -0.522665 -0.142679
  outer loop
   vertex 392.869392 -262.506935 44720.000000
   vertex 506.624861 -292.500000 45500.000000
   vertex 486.409723 -325.008586 45500.000000
  endloop
 endfacet
 facet normal 0.872898 -0.466574 -0.142679
  outer loop
   vertex 409.197003 -236.250000 44720.000000
   vertex 423.772370 -208.981406 44720.000000
   vertex 524.670554 -258.738884 45500.000000
  endloop
 endfacet
 facet normal 0.872898 -0.466574 -0.142679
  outer loop
   vertex 409.197003 -236.250000 44720.000000
   vertex 524.670554 -258.738884 45500.000000
   vertex 506.624861 -292.500000 45500.000000
  endloop
 endfacet
 facet normal 0.901545 -0.408485 -0.142679
  outer loop
   vertex 423.772370 -208.981406 44720.000000
   vertex 436.533079 -180.817922 44720.000000
   vertex 540.469527 -223.869808 45500.000000
  endloop
 endfacet
 facet normal 0.901545 -0.408485 -0.142679
  outer loop
   vertex 423.772370 -208.981406 44720.000000
   vertex 540.469527 -223.869808 45500.000000
   vertex 524.670554 -258.738884 45500.000000
  endloop
 endfacet
 facet normal 0.926331 -0.348646 -0.142679
  outer loop
   vertex 436.533079 -180.817922 44720.000000
   vertex 447.424486 -151.880147 44720.000000
   vertex 553.954126 -188.042087 45500.000000
  endloop
 endfacet
 facet normal 0.926331 -0.348646 -0.142679
  outer loop
   vertex 436.533079 -180.817922 44720.000000
   vertex 553.954126 -188.042087 45500.000000
   vertex 540.469527 -223.869808 45500.000000
  endloop
 endfacet
 facet normal 0.947150 -0.287315 -0.142679
  outer loop
   vertex 447.424486 -151.880147 44720.000000
   vertex 456.399953 -122.291999 44720.000000
   vertex 565.066608 -151.409141 45500.000000
  endloop
 endfacet
 facet normal 0.947150 -0.287315 -0.142679
  outer loop
   vertex 447.424486 -151.880147 44720.000000
   vertex 565.066608 -151.409141 45500.000000
   vertex 553.954126 -188.042087 45500.000000
  endloop
 endfacet
 facet normal 0.963913 -0.224753 -0.142679
  outer loop
   vertex 456.399953 -122.291999 44720.000000
   vertex 463.421045 -92.180177 44720.000000
   vertex 573.759389 -114.127838 45500.000000
  endloop
 endfacet
 facet normal 0.963913 -0.224753 -0.142679
  outer loop
   vertex 456.399953 -122.291999 44720.000000
   vertex 573.759389 -114.127838 45500.000000
   vertex 565.066608 -151.409141 45500.000000
  endloop
 endfacet
 facet normal 0.976549 -0.161229 -0.142679
  outer loop
   vertex 463.421045 -92.180177 44720.000000
   vertex 468.457697 -61.673626 44720.000000
   vertex 579.995244 -76.357822 45500.000000
  endloop
 endfacet
 facet normal 0.976549 -0.161229 -0.142679
  outer loop
   vertex 463.421045 -92.180177 44720.000000
   vertex 579.995244 -76.357822 45500.000000
   vertex 573.759389 -114.127838 45500.000000
  endloop
 endfacet
 facet normal 0.985003 -0.097014 -0.142679
  outer loop
   vertex 468.457697 -61.673626 44720.000000
   vertex 471.488341 -30.902979 44720.000000
   vertex 583.747470 -38.260831 45500.000000
  endloop
 endfacet
 facet normal 0.985003 -0.097014 -0.142679
  outer loop
   vertex 468.457697 -61.673626 44720.000000
   vertex 583.747470 -38.260831 45500.000000
   vertex 579.995244 -76.357822 45500.000000
  endloop
 endfacet
 facet normal 0.989239 -0.032384 -0.142679
  outer loop
   vertex 471.488341 -30.902979 44720.000000
   vertex 472.500000 0.000000 44720.000000
   vertex 585.000000 0.000000 45500.000000
  endloop
 endfacet
 facet normal 0.989239 -0.032384 -0.142679
  outer loop
   vertex 471.488341 -30.902979 44720.000000
   vertex 585.000000 0.000000 45500.000000
   vertex 583.747470 -38.260831 45500.000000
  endloop
 endfacet
endsolid part
