solid LES_fairing
 facet normal 0.925508 0.045467 0.375988
  outer loop
   vertex 1000.000000 0.000000 99670.000000
   vertex 995.184727 98.017140 99670.000000
   vertex 348.314654 34.305999 101270.000000
  endloop
 endfacet
 facet normal 0.925508 0.045467 0.375988
  outer loop
   vertex 1000.000000 0.000000 99670.000000
   vertex 348.314654 34.305999 101270.000000
   vertex 350.000000 0.000000 101270.000000
  endloop
 endfacet
 facet normal 0.916595 0.135964 0.375988
  outer loop
   vertex 995.184727 98.017140 99670.000000
   vertex 980.785280 195.090322 99670.000000
   vertex 343.274848 68.281613 101270.000000
  endloop
 endfacet
 facet normal 0.916595 0.135964 0.375988
  outer loop
   vertex 995.184727 98.017140 99670.000000
   vertex 343.274848 68.281613 101270.000000
   vertex 348.314654 34.305999 101270.000000
  endloop
 endfacet
 facet normal 0.898855 0.225151 0.375988
  outer loop
   vertex 980.785280 195.090322 99670.000000
   vertex 956.940336 290.284677 99670.000000
   vertex 334.929118 101.599637 101270.000000
  endloop
 endfacet
 facet normal 0.898855 0.225151 0.375988
  outer loop
   vertex 980.785280 195.090322 99670.000000
   vertex 334.929118 101.599637 101270.000000
   vertex 343.274848 68.281613 101270.000000
  endloop
 endfacet
 facet normal 0.872458 0.312170 0.375988
  outer loop
   vertex 956.940336 290.284677 99670.000000
   vertex 923.879533 382.683432 99670.000000
   vertex 323.357836 133.939201 101270.000000
  endloop
 endfacet
 facet normal 0.872458 0.312170 0.375988
  outer loop
   vertex 956.940336 290.284677 99670.000000
   vertex 323.357836 133.939201 101270.000000
   vertex 334.929118 101.599637 101270.000000
  endloop
 endfacet
 facet normal 0.837659 0.396183 0.375988
  outer loop
   vertex 923.879533 382.683432 99670.000000
   vertex 881.921264 471.396737 99670.000000
   vertex 308.672443 164.988858 101270.000000
  endloop
 endfacet
 facet normal 0.837659 0.396183 0.375988
  outer loop
   vertex 923.879533 382.683432 99670.000000
   vertex 308.672443 164.988858 101270.000000
   vertex 323.357836 133.939201 101270.000000
  endloop
 endfacet
 facet normal 0.794792 0.476380 0.375988
  outer loop
   vertex 881.921264 471.396737 99670.000000
   vertex 831.469612 555.570233 99670.000000
   vertex 291.014364 194.449582 101270.000000
  endloop
 endfacet
 facet normal 0.794792 0.476380 0.375988
  outer loop
   vertex 881.921264 471.396737 99670.000000
   vertex 291.014364 194.449582 101270.000000
   vertex 308.672443 164.988858 101270.000000
  endloop
 endfacet
 facet normal 0.744272 0.551990 0.375988
  outer loop
   vertex 831.469612 555.570233 99670.000000
   vertex 773.010453 634.393284 99670.000000
   vertex 270.553659 222.037649 101270.000000
  endloop
 endfacet
 facet normal 0.744272 0.551990 0.375988
  outer loop
   vertex 831.469612 555.570233 99670.000000
   vertex 270.553659 222.037649 101270.000000
   vertex 291.014364 194.449582 101270.000000
  endloop
 endfacet
 facet normal 0.686584 0.622283 0.375988
  outer loop
   vertex 773.010453 634.393284 99670.000000
   vertex 707.106781 707.106781 99670.000000
   vertex 247.487373 247.487373 101270.000000
  endloop
 endfacet
 facet normal 0.686584 0.622283 0.375988
  outer loop
   vertex 773.010453 634.393284 99670.000000
   vertex 247.487373 247.487373 101270.000000
   vertex 270.553659 222.037649 101270.000000
  endloop
 endfacet
 facet normal 0.622283 0.686584 0.375988
  outer loop
   vertex 707.106781 707.106781 99670.000000
   vertex 634.393284 773.010453 99670.000000
   vertex 222.037649 270.553659 101270.000000
  endloop
 endfacet
 facet normal 0.622283 0.686584 0.375988
  outer loop
   vertex 707.106781 707.106781 99670.000000
   vertex 222.037649 270.553659 101270.000000
   vertex 247.487373 247.487373 101270.000000
  endloop
 endfacet
 facet normal 0.551990 0.744272 0.375988
  outer loop
   vertex 634.393284 773.010453 99670.000000
   vertex 555.570233 831.469612 99670.000000
   vertex 194.449582 291.014364 101270.000000
  endloop
 endfacet
 facet normal 0.551990 0.744272 0.375988
  outer loop
   vertex 634.393284 773.010453 99670.000000
   vertex 194.449582 291.014364 101270.000000
   vertex 222.037649 270.553659 101270.000000
  endloop
 endfacet
 facet normal 0.476380 0.794792 0.375988
  outer loop
   vertex 555.570233 831.469612 99670.000000
   vertex 471.396737 881.921264 99670.000000
   vertex 164.988858 308.672443 101270.000000
  endloop
 endfacet
 facet normal 0.476380 0.794792 0.375988
  outer loop
   vertex 555.570233 831.469612 99670.000000
   vertex 164.988858 308.672443 101270.000000
   vertex 194.449582 291.014364 101270.000000
  endloop
 endfacet
 facet normal 0.396183 0.837659 0.375988
  outer loop
   vertex 471.396737 881.921264 99670.000000
   vertex 382.683432 923.879533 99670.000000
   vertex 133.939201 323.357836 101270.000000
  endloop
 endfacet
 facet normal 0.396183 0.837659 0.375988
  outer loop
   vertex 471.396737 881.921264 99670.000000
   vertex 133.939201 323.357836 101270.000000
   vertex 164.988858 308.672443 101270.000000
  endloop
 endfacet
 facet normal 0.312170 0.872458 0.375988
  outer loop
   vertex 382.683432 923.879533 99670.000000
   vertex 290.284677 956.940336 99670.000000
   vertex 101.599637 334.929118 101270.000000
  endloop
 endfacet
 facet normal 0.312170 0.872458 0.375988
  outer loop
   vertex 382.683432 923.879533 99670.000000
   vertex 101.599637 334.929118 101270.000000
   vertex 133.939201 323.357836 101270.000000
  endloop
 endfacet
 facet normal 0.225151 0.898855 0.375988
  outer loop
   vertex 290.284677 956.940336 99670.000000
   vertex 195.090322 980.785280 99670.000000
   vertex 68.281613 343.274848 101270.000000
  endloop
 endfacet
 facet normal 0.225151 0.898855 0.375988
  outer loop
   vertex 290.284677 956.940336 99670.000000
   vertex 68.281613 343.274848 101270.000000
   vertex 101.599637 334.929118 101270.000000
  endloop
 endfacet
 facet normal 0.135964 0.916595 0.375988
  outer loop
   vertex 195.090322 980.785280 99670.000000
   vertex 98.017140 995.184727 99670.000000
   vertex 34.305999 348.314654 101270.000000
  endloop
 endfacet
 facet normal 0.135964 0.916595 0.375988
  outer loop
   vertex 195.090322 980.785280 99670.000000
   vertex 34.305999 348.314654 101270.000000
   vertex 68.281613 343.274848 101270.000000
  endloop
 endfacet
 facet normal 0.045467 0.925508 0.375988
  outer loop
   vertex 98.017140 995.184727 99670.000000
   vertex 0.000000 1000.000000 99670.000000
   vertex 0.000000 350.000000 101270.000000
  endloop
 endfacet
 facet normal 0.045467 0.925508 0.375988
  outer loop
   vertex 98.017140 995.184727 99670.000000
   vertex 0.000000 350.000000 101270.000000
   vertex 34.305999 348.314654 101270.000000
  endloop
 endfacet
 facet normal -0.045467 0.925508 0.375988
  outer loop
   vertex 0.000000 1000.000000 99670.000000
   vertex -98.017140 995.184727 99670.000000
   vertex -34.305999 348.314654 101270.000000
  endloop
 endfacet
 facet normal -0.045467 0.925508 0.375988
  outer loop
   vertex 0.000000 1000.000000 99670.000000
   vertex -34.305999 348.314654 101270.000000
   vertex 0.000000 350.000000 101270.000000
  endloop
 endfacet
 facet normal -0.135964 0.916595 0.375988
  outer loop
   vertex -98.017140 995.184727 99670.000000
   vertex -195.090322 980.785280 99670.000000
   vertex -68.281613 343.274848 101270.000000
  endloop
 endfacet
 facet normal -0.135964 0.916595 0.375988
  outer loop
   vertex -98.017140 995.184727 99670.000000
   vertex -68.281613 343.274848 101270.000000
   vertex -34.305999 348.314654 101270.000000
  endloop
 endfacet
 facet normal -0.225151 0.898855 0.375988
  outer loop
   vertex -195.090322 980.785280 99670.000000
   vertex -290.284677 956.940336 99670.000000
   vertex -101.599637 334.929118 101270.000000
  endloop
 endfacet
 facet normal -0.225151 0.898855 0.375988
  outer loop
   vertex -195.090322 980.785280 99670.000000
   vertex -101.599637 334.929118 101270.000000
   vertex -68.281613 343.274848 101270.000000
  endloop
 endfacet
 facet normal -0.312170 0.872458 0.375988
  outer loop
   vertex -290.284677 956.940336 99670.000000
   vertex -382.683432 923.879533 99670.000000
   vertex -133.939201 323.357836 101270.000000
  endloop
 endfacet
 facet normal -0.312170 0.872458 0.375988
  outer loop
   vertex -290.284677 956.940336 99670.000000
   vertex -133.939201 323.357836 101270.000000
   vertex -101.599637 334.929118 101270.000000
  endloop
 endfacet
 facet normal -0.396183 0.837659 0.375988
  outer loop
   vertex -382.683432 923.879533 99670.000000
   vertex -471.396737 881.921264 99670.000000
   vertex -164.988858 308.672443 101270.000000
  endloop
 endfacet
 facet normal -0.396183 0.837659 0.375988
  outer loop
   vertex -382.683432 923.879533 99670.000000
   vertex -164.988858 308.672443 101270.000000
   vertex -133.939201 323.357836 101270.000000
  endloop
 endfacet
 facet normal -0.476380 0.794792 0.375988
  outer loop
   vertex -471.396737 881.921264 99670.000000
   vertex -555.570233 831.469612 99670.000000
   vertex -194.449582 291.014364 101270.000000
  endloop
 endfacet
 facet normal -0.476380 0.794792 0.375988
  outer loop
   vertex -471.396737 881.921264 99670.000000
   vertex -194.449582 291.014364 101270.000000
   vertex -164.988858 308.672443 101270.000000
  endloop
 endfacet
 facet normal -0.551990 0.744272 0.375988
  outer loop
   vertex -555.570233 831.469612 99670.000000
   vertex -634.393284 773.010453 99670.000000
   vertex -222.037649 270.553659 101270.000000
  endloop
 endfacet
 facet normal -0.551990 0.744272 0.375988
  outer loop
   vertex -555.570233 831.469612 99670.000000
   vertex -222.037649 270.553659 101270.000000
   vertex -194.449582 291.014364 101270.000000
  endloop
 endfacet
 facet normal -0.622283 0.686584 0.375988
  outer loop
   vertex -634.393284 773.010453 99670.000000
   vertex -707.106781 707.106781 99670.000000
   vertex -247.487373 247.487373 101270.000000
  endloop
 endfacet
 facet normal -0.622283 0.686584 0.375988
  outer loop
   vertex -634.393284 773.010453 99670.000000
   vertex -247.487373 247.487373 101270.000000
   vertex -222.037649 270.553659 101270.000000
  endloop
 endfacet
 facet normal -0.686584 0.622283 0.375988
  outer loop
   vertex -707.106781 707.106781 99670.000000
   vertex -773.010453 634.393284 99670.000000
   vertex -270.553659 222.037649 101270.000000
  endloop
 endfacet
 facet normal -0.686584 0.622283 0.375988
  outer loop
   vertex -707.106781 707.106781 99670.000000
   vertex -270.553659 222.037649 101270.000000
   vertex -247.487373 247.487373 101270.000000
  endloop
 endfacet
 facet normal -0.744272 0.551990 0.375988
  outer loop
   vertex -773.010453 634.393284 99670.000000
   vertex -831.469612 555.570233 99670.000000
   vertex -291.014364 194.449582 101270.000000
  endloop
 endfacet
 facet normal -0.744272 0.551990 0.375988
  outer loop
   vertex -773.010453 634.393284 99670.000000
   vertex -291.014364 194.449582 101270.000000
   vertex -270.553659 222.037649 101270.000000
  endloop
 endfacet
 facet normal -0.794792 0.476380 0.375988
  outer loop
   vertex -831.469612 555.570233 99670.000000
   vertex -881.921264 471.396737 99670.000000
   vertex -308.672443 164.988858 101270.000000
  endloop
 endfacet
 facet normal -0.794792 0.476380 0.375988
  outer loop
   vertex -831.469612 555.570233 99670.000000
   vertex -308.672443 164.988858 101270.000000
   vertex -291.014364 194.449582 101270.000000
  endloop
 endfacet
 facet normal -0.837659 0.396183 0.375988
  outer loop
   vertex -881.921264 471.396737 99670.000000
   vertex -923.879533 382.683432 99670.000000
   vertex -323.357836 133.939201 101270.000000
  endloop
 endfacet
 facet normal -0.837659 0.396183 0.375988
  outer loop
   vertex -881.921264 471.396737 99670.000000
   vertex -323.357836 133.939201 101270.000000
   vertex -308.672443 164.988858 101270.000000
  endloop
 endfacet
 facet normal -0.872458 0.312170 0.375988
  outer loop
   vertex -923.879533 382.683432 99670.000000
   vertex -956.940336 290.284677 99670.000000
   vertex -334.929118 101.599637 101270.000000
  endloop
 endfacet
 facet normal -0.872458 0.312170 0.375988
  outer loop
   vertex -923.879533 382.683432 99670.000000
   vertex -334.929118 101.599637 101270.000000
   vertex -323.357836 133.939201 101270.000000
  endloop
 endfacet
 facet normal -0.898855 0.225151 0.375988
  outer loop
   vertex -956.940336 290.284677 99670.000000
   vertex -980.785280 195.090322 99670.000000
   vertex -343.274848 68.281613 101270.000000
  endloop
 endfacet
 facet normal -0.898855 0.225151 0.375988
  outer loop
   vertex -956.940336 290.284677 99670.000000
   vertex -343.274848 68.281613 101270.000000
   vertex -334.929118 101.599637 101270.000000
  endloop
 endfacet
 facet normal -0.916595 0.135964 0.375988
  outer loop
   vertex -980.785280 195.090322 99670.000000
   vertex -995.184727 98.017140 99670.000000
   vertex -348.314654 34.305999 101270.000000
  endloop
 endfacet
 facet normal -0.916595 0.135964 0.375988
  outer loop
   vertex -980.785280 195.090322 99670.000000
   vertex -348.314654 34.305999 101270.000000
   vertex -343.274848 68.281613 101270.000000
  endloop
 endfacet
 facet normal -0.925508 0.045467 0.375988
  outer loop
   vertex -995.184727 98.017140 99670.000000
   vertex -1000.000000 0.000000 99670.000000
   vertex -350.000000 0.000000 101270.000000
  endloop
 endfacet
 facet normal -0.925508 0.045467 0.375988
  outer loop
   vertex -995.184727 98.017140 99670.000000
   vertex -350.000000 0.000000 101270.000000
   vertex -348.314654 34.305999 101270.000000
  endloop
 endfacet
 facet normal -0.925508 -0.045467 0.375988
  outer loop
   vertex -1000.000000 0.000000 99670.000000
   vertex -995.184727 -98.017140 99670.000000
   vertex -348.314654 -34.305999 101270.000000
  endloop
 endfacet
 facet normal -0.925508 -0.045467 0.375988
  outer loop
   vertex -1000.000000 0.000000 99670.000000
   vertex -348.314654 -34.305999 101270.000000
   vertex -350.000000 0.000000 101270.000000
  endloop
 endfacet
 facet normal -0.916595 -0.135964 0.375988
  outer loop
   vertex -995.184727 -98.017140 99670.000000
   vertex -980.785280 -195.090322 99670.000000
   vertex -343.274848 -68.281613 101270.000000
  endloop
 endfacet
 facet normal -0.916595 -0.135964 0.375988
  outer loop
   vertex -995.184727 -98.017140 99670.000000
   vertex -343.274848 -68.281613 101270.000000
   vertex -348.314654 -34.305999 101270.000000
  endloop
 endfacet
 facet normal -0.898855 -0.225151 0.375988
  outer loop
   vertex -980.785280 -195.090322 99670.000000
   vertex -956.940336 -290.284677 99670.000000
   vertex -334.929118 -101.599637 101270.000000
  endloop
 endfacet
 facet normal -0.898855 -0.225151 0.375988
  outer loop
   vertex -980.785280 -195.090322 99670.000000
   vertex -334.929118 -101.599637 101270.000000
   vertex -343.274848 -68.281613 101270.000000
  endloop
 endfacet
 facet normal -0.872458 -0.312170 0.375988
  outer loop
   vertex -956.940336 -290.284677 99670.000000
   vertex -923.879533 -382.683432 99670.000000
   vertex -323.357836 -133.939201 101270.000000
  endloop
 endfacet
 facet normal -0.872458 -0.312170 0.375988
  outer loop
   vertex -956.940336 -290.284677 99670.000000
   vertex -323.357836 -133.939201 101270.000000
   vertex -334.929118 -101.599637 101270.000000
  endloop
 endfacet
 facet normal -0.837659 -0.396183 0.375988
  outer loop
   vertex -923.879533 -382.683432 99670.000000
   vertex -881.921264 -471.396737 99670.000000
   vertex -308.672443 -164.988858 101270.000000
  endloop
 endfacet
 facet normal -0.837659 -0.396183 0.375988
  outer loop
   vertex -923.879533 -382.683432 99670.000000
   vertex -308.672443 -164.988858 101270.000000
   vertex -323.357836 -133.939201 101270.000000
  endloop
 endfacet
 facet normal -0.794792 -0.476380 0.375988
  outer loop
   vertex -881.921264 -471.396737 99670.000000
   vertex -831.469612 -555.570233 99670.000000
   vertex -291.014364 -194.449582 101270.000000
  endloop
 endfacet
 facet normal -0.794792 -0.476380 0.375988
  outer loop
   vertex -881.921264 -471.396737 99670.000000
   vertex -291.014364 -194.449582 101270.000000
   vertex -308.672443 -164.988858 101270.000000
  endloop
 endfacet
 facet normal -0.744272 -0.551990 0.375988
  outer loop
   vertex -831.469612 -555.570233 99670.000000
   vertex -773.010453 -634.393284 99670.000000
   vertex -270.553659 -222.037649 101270.000000
  endloop
 endfacet
 facet normal -0.744272 -0.551990 0.375988
  outer loop
   vertex -831.469612 -555.570233 99670.000000
   vertex -270.553659 -222.037649 101270.000000
   vertex -291.014364 -194.449582 101270.000000
  endloop
 endfacet
 facet normal -0.686584 -0.622283 0.375988
  outer loop
   vertex -773.010453 -634.393284 99670.000000
   vertex -707.106781 -707.106781 99670.000000
   vertex -247.487373 -247.487373 101270.000000
  endloop
 endfacet
 facet normal -0.686584 -0.622283 0.375988
  outer loop
   vertex -773.010453 -634.393284 99670.000000
   vertex -247.487373 -247.487373 101270.000000
   vertex -270.553659 -222.037649 101270.000000
  endloop
 endfacet
 facet normal -0.622283 -0.686584 0.375988
  outer loop
   vertex -707.106781 -707.106781 99670.000000
   vertex -634.393284 -773.010453 99670.000000
   vertex -222.037649 -270.553659 101270.000000
  endloop
 endfacet
 facet normal -0.622283 -0.686584 0.375988
  outer loop
   vertex -707.106781 -707.106781 99670.000000
   vertex -222.037649 -270.553659 101270.000000
   vertex -247.487373 -247.487373 101270.000000
  endloop
 endfacet
 facet normal -0.551990 -0.744272 0.375988
  outer loop
   vertex -634.393284 -773.010453 99670.000000
   vertex -555.570233 -831.469612 99670.000000
   vertex -194.449582 -291.014364 101270.000000
  endloop
 endfacet
 facet normal -0.551990 -0.744272 0.375988
  outer loop
   vertex -634.393284 -773.010453 99670.000000
   vertex -194.449582 -291.014364 101270.000000
   vertex -222.037649 -270.553659 101270.000000
  endloop
 endfacet
 facet normal -0.476380 -0.794792 0.375988
  outer loop
   vertex -555.570233 -831.469612 99670.000000
   vertex -471.396737 -881.921264 99670.000000
   vertex -164.988858 -308.672443 101270.000000
  endloop
 endfacet
 facet normal -0.476380 -0.794792 0.375988
  outer loop
   vertex -555.570233 -831.469612 99670.000000
   vertex -164.988858 -308.672443 101270.000000
   vertex -194.449582 -291.014364 101270.000000
  endloop
 endfacet
 facet normal -0.396183 -0.837659 0.375988
  outer loop
   vertex -471.396737 -881.921264 99670.000000
   vertex -382.683432 -923.879533 99670.000000
   vertex -133.939201 -323.357836 101270.000000
  endloop
 endfacet
 facet normal -0.396183 -0.837659 0.375988
  outer loop
   vertex -471.396737 -881.921264 99670.000000
   vertex -133.939201 -323.357836 101270.000000
   vertex -164.988858 -308.672443 101270.000000
  endloop
 endfacet
 facet normal -0.312170 -0.872458 0.375988
  outer loop
   vertex -382.683432 -923.879533 99670.000000
   vertex -290.284677 -956.940336 99670.000000
   vertex -101.599637 -334.929118 101270.000000
  endloop
 endfacet
 facet normal -0.312170 -0.872458 0.375988
  outer loop
   vertex -382.683432 -923.879533 99670.000000
   vertex -101.599637 -334.929118 101270.000000
   vertex -133.939201 -323.357836 101270.000000
  endloop
 endfacet
 facet normal -0.225151 -0.898855 0.375988
  outer loop
   vertex -290.284677 -956.940336 99670.000000
   vertex -195.090322 -980.785280 99670.000000
   vertex -68.281613 -343.274848 101270.000000
  endloop
 endfacet
 facet normal -0.225151 -0.898855 0.375988
  outer loop
   vertex -290.284677 -956.940336 99670.000000
   vertex -68.281613 -343.274848 101270.000000
   vertex -101.599637 -334.929118 101270.000000
  endloop
 endfacet
 facet normal -0.135964 -0.916595 0.375988
  outer loop
   vertex -195.090322 -980.785280 99670.000000
   vertex -98.017140 -995.184727 99670.000000
   vertex -34.305999 -348.314654 101270.000000
  endloop
 endfacet
 facet normal -0.135964 -0.916595 0.375988
  outer loop
   vertex -195.090322 -980.785280 99670.000000
   vertex -34.305999 -348.314654 101270.000000
   vertex -68.281613 -343.274848 101270.000000
  endloop
 endfacet
 facet normal -0.045467 -0.925508 0.375988
  outer loop
   vertex -98.017140 -995.184727 99670.000000
   vertex -0.000000 -1000.000000 99670.000000
   vertex -0.000000 -350.000000 101270.000000
  endloop
 endfacet
 facet normal -0.045467 -0.925508 0.375988
  outer loop
   vertex -98.017140 -995.184727 99670.000000
   vertex -0.000000 -350.000000 101270.000000
   vertex -34.305999 -348.314654 101270.000000
  endloop
 endfacet
 facet normal 0.045467 -0.925508 0.375988
  outer loop
   vertex -0.000000 -1000.000000 99670.000000
   vertex 98.017140 -995.184727 99670.000000
   vertex 34.305999 -348.314654 101270.000000
  endloop
 endfacet
 facet normal 0.045467 -0.925508 0.375988
  outer loop
   vertex -0.000000 -1000.000000 99670.000000
   vertex 34.305999 -348.314654 101270.000000
   vertex -0.000000 -350.000000 101270.000000
  endloop
 endfacet
 facet normal 0.135964 -0.916595 0.375988
  outer loop
   vertex 98.017140 -995.184727 99670.000000
   vertex 195.090322 -980.785280 99670.000000
   vertex 68.281613 -343.274848 101270.000000
  endloop
 endfacet
 facet normal 0.135964 -0.916595 0.375988
  outer loop
   vertex 98.017140 -995.184727 99670.000000
   vertex 68.281613 -343.274848 101270.000000
   vertex 34.305999 -348.314654 101270.000000
  endloop
 endfacet
 facet normal 0.225151 -0.898855 0.375988
  outer loop
   vertex 195.090322 -980.785280 99670.000000
   vertex 290.284677 -956.940336 99670.000000
   vertex 101.599637 -334.929118 101270.000000
  endloop
 endfacet
 facet normal 0.225151 -0.898855 0.375988
  outer loop
   vertex 195.090322 -980.785280 99670.000000
   vertex 101.599637 -334.929118 101270.000000
   vertex 68.281613 -343.274848 101270.000000
  endloop
 endfacet
 facet normal 0.312170 -0.872458 0.375988
  outer loop
   vertex 290.284677 -956.940336 99670.000000
   vertex 382.683432 -923.879533 99670.000000
   vertex 133.939201 -323.357836 101270.000000
  endloop
 endfacet
 facet normal 0.312170 -0.872458 0.375988
  outer loop
   vertex 290.284677 -956.940336 99670.000000
   vertex 133.939201 -323.357836 101270.000000
   vertex 101.599637 -334.929118 101270.000000
  endloop
 endfacet
 facet normal 0.396183 -0.837659 0.375988
  outer loop
   vertex 382.683432 -923.879533 99670.000000
   vertex 471.396737 -881.921264 99670.000000
   vertex 164.988858 -308.672443 101270.000000
  endloop
 endfacet
 facet normal 0.396183 -0.837659 0.375988
  outer loop
   vertex 382.683432 -923.879533 99670.000000
   vertex 164.988858 -308.672443 101270.000000
   vertex 133.939201 -323.357836 101270.000000
  endloop
 endfacet
 facet normal 0.476380 -0.794792 0.375988
  outer loop
   vertex 471.396737 -881.921264 99670.000000
   vertex 555.570233 -831.469612 99670.000000
   vertex 194.449582 -291.014364 101270.000000
  endloop
 endfacet
 facet normal 0.476380 -0.794792 0.375988
  outer loop
   vertex 471.396737 -881.921264 99670.000000
   vertex 194.449582 -291.014364 101270.000000
   vertex 164.988858 -308.672443 101270.000000
  endloop
 endfacet
 facet normal 0.551990 -0.744272 0.375988
  outer loop
   vertex 555.570233 -831.469612 99670.000000
   vertex 634.393284 -773.010453 99670.000000
   vertex 222.037649 -270.553659 101270.000000
  endloop
 endfacet
 facet normal 0.551990 -0.744272 0.375988
  outer loop
   vertex 555.570233 -831.469612 99670.000000
   vertex 222.037649 -270.553659 101270.000000
   vertex 194.449582 -291.014364 101270.000000
  endloop
 endfacet
 facet normal 0.622283 -0.686584 0.375988
  outer loop
   vertex 634.393284 -773.010453 99670.000000
   vertex 707.106781 -707.106781 99670.000000
   vertex 247.487373 -247.487373 101270.000000
  endloop
 endfacet
 facet normal 0.622283 -0.686584 0.375988
  outer loop
   vertex 634.393284 -773.010453 99670.000000
   vertex 247.487373 -247.487373 101270.000000
   vertex 222.037649 -270.553659 101270.000000
  endloop
 endfacet
 facet normal 0.686584 -0.622283 0.375988
  outer loop
   vertex 707.106781 -707.106781 99670.000000
   vertex 773.010453 -634.393284 99670.000000
   vertex 270.553659 -222.037649 101270.000000
  endloop
 endfacet
 facet normal 0.686584 -0.622283 0.375988
  outer loop
   vertex 707.106781 -707.106781 99670.000000
   vertex 270.553659 -222.037649 101270.000000
   vertex 247.487373 -247.487373 101270.000000
  endloop
 endfacet
 facet normal 0.744272 -0.551990 0.375988
  outer loop
   vertex 773.010453 -634.393284 99670.000000
   vertex 831.469612 -555.570233 99670.000000
   vertex 291.014364 -194.449582 101270.000000
  endloop
 endfacet
 facet normal 0.744272 -0.551990 0.375988
  outer loop
   vertex 773.010453 -634.393284 99670.000000
   vertex 291.014364 -194.449582 101270.000000
   vertex 270.553659 -222.037649 101270.000000
  endloop
 endfacet
 facet normal 0.794792 -0.476380 0.375988
  outer loop
   vertex 831.469612 -555.570233 99670.000000
   vertex 881.921264 -471.396737 99670.000000
   vertex 308.672443 -164.988858 101270.000000
  endloop
 endfacet
 facet normal 0.794792 -0.476380 0.375988
  outer loop
   vertex 831.469612 -555.570233 99670.000000
   vertex 308.672443 -164.988858 101270.000000
   vertex 291.014364 -194.449582 101270.000000
  endloop
 endfacet
 facet normal 0.837659 -0.396183 0.375988
  outer loop
   vertex 881.921264 -471.396737 99670.000000
   vertex 923.879533 -382.683432 99670.000000
   vertex 323.357836 -133.939201 101270.000000
  endloop
 endfacet
 facet normal 0.837659 -0.396183 0.375988
  outer loop
   vertex 881.921264 -471.396737 99670.000000
   vertex 323.357836 -133.939201 101270.000000
   vertex 308.672443 -164.988858 101270.000000
  endloop
 endfacet
 facet normal 0.872458 -0.312170 0.375988
  outer loop
   vertex 923.879533 -382.683432 99670.000000
   vertex 956.940336 -290.284677 99670.000000
   vertex 334.929118 -101.599637 101270.000000
  endloop
 endfacet
 facet normal 0.872458 -0.312170 0.375988
  outer loop
   vertex 923.879533 -382.683432 99670.000000
   vertex 334.929118 -101.599637 101270.000000
   vertex 323.357836 -133.939201 101270.000000
  endloop
 endfacet
 facet normal 0.898855 -0.225151 0.375988
  outer loop
   vertex 956.940336 -290.284677 99670.000000
   vertex 980.785280 -195.090322 99670.000000
   vertex 343.274848 -68.281613 101270.000000
  endloop
 endfacet
 facet normal 0.898855 -0.225151 0.375988
  outer loop
   vertex 956.940336 -290.284677 99670.000000
   vertex 343.274848 -68.281613 101270.000000
   vertex 334.929118 -101.599637 101270.000000
  endloop
 endfacet
 facet normal 0.916595 -0.135964 0.375988
  outer loop
   vertex 980.785280 -195.090322 99670.000000
   vertex 995.184727 -98.017140 99670.000000
   vertex 348.314654 -34.305999 101270.000000
  endloop
 endfacet
 facet normal 0.916595 -0.135964 0.375988
  outer loop
   vertex 980.785280 -195.090322 99670.000000
   vertex 348.314654 -34.305999 101270.000000
   vertex 343.274848 -68.281613 101270.000000
  endloop
 endfacet
 facet normal 0.925508 -0.045467 0.375988
  outer loop
   vertex 995.184727 -98.017140 99670.000000
   vertex 1000.000000 0.000000 99670.000000
   vertex 350.000000 0.000000 101270.000000
  endloop
 endfacet
 facet normal 0.925508 -0.045467 0.375988
  outer loop
   vertex 995.184727 -98.017140 99670.000000
   vertex 350.000000 0.000000 101270.000000
   vertex 348.314654 -34.305999 101270.000000
  endloop
 endfacet
endsolid part
