solid LES_tower
 facet normal 0.997859 0.065403 0.000000
  outer loop
   vertex 320.000000 0.000000 101270.000000
   vertex 317.262356 41.768382 101270.000000
   vertex 317.262356 41.768382 102270.000000
  endloop
 endfacet
 facet normal 0.997859 0.065403 -0.000000
  outer loop
   vertex 320.000000 0.000000 101270.000000
   vertex 317.262356 41.768382 102270.000000
   vertex 320.000000 0.000000 102270.000000
  endloop
 endfacet
 facet normal 0.980785 0.195090 0.000000
  outer loop
   vertex 317.262356 41.768382 101270.000000
   vertex 309.096264 82.822094 101270.000000
   vertex 309.096264 82.822094 102270.000000
  endloop
 endfacet
 facet normal 0.980785 0.195090 -0.000000
  outer loop
   vertex 317.262356 41.768382 101270.000000
   vertex 309.096264 82.822094 102270.000000
   vertex 317.262356 41.768382 102270.000000
  endloop
 endfacet
 facet normal 0.946930 0.321439 0.000000
  outer loop
   vertex 309.096264 82.822094 101270.000000
   vertex 295.641450 122.458698 101270.000000
   vertex 295.641450 122.458698 102270.000000
  endloop
 endfacet
 facet normal 0.946930 0.321439 -0.000000
  outer loop
   vertex 309.096264 82.822094 101270.000000
   vertex 295.641450 122.458698 102270.000000
   vertex 309.096264 82.822094 102270.000000
  endloop
 endfacet
 facet normal 0.896873 0.442289 0.000000
  outer loop
   vertex 295.641450 122.458698 101270.000000
   vertex 277.128129 160.000000 101270.000000
   vertex 277.128129 160.000000 102270.000000
  endloop
 endfacet
 facet normal 0.896873 0.442289 -0.000000
  outer loop
   vertex 295.641450 122.458698 101270.000000
   vertex 277.128129 160.000000 102270.000000
   vertex 295.641450 122.458698 102270.000000
  endloop
 endfacet
 facet normal 0.831470 0.555570 0.000000
  outer loop
   vertex 277.128129 160.000000 101270.000000
   vertex 253.873069 194.803657 101270.000000
   vertex 253.873069 194.803657 102270.000000
  endloop
 endfacet
 facet normal 0.831470 0.555570 -0.000000
  outer loop
   vertex 277.128129 160.000000 101270.000000
   vertex 253.873069 194.803657 102270.000000
   vertex 277.128129 160.000000 102270.000000
  endloop
 endfacet
 facet normal 0.751840 0.659346 0.000000
  outer loop
   vertex 253.873069 194.803657 101270.000000
   vertex 226.274170 226.274170 101270.000000
   vertex 226.274170 226.274170 102270.000000
  endloop
 endfacet
 facet normal 0.751840 0.659346 -0.000000
  outer loop
   vertex 253.873069 194.803657 101270.000000
   vertex 226.274170 226.274170 102270.000000
   vertex 253.873069 194.803657 102270.000000
  endloop
 endfacet
 facet normal 0.659346 0.751840 0.000000
  outer loop
   vertex 226.274170 226.274170 101270.000000
   vertex 194.803657 253.873069 101270.000000
   vertex 194.803657 253.873069 102270.000000
  endloop
 endfacet
 facet normal 0.659346 0.751840 -0.000000
  outer loop
   vertex 226.274170 226.274170 101270.000000
   vertex 194.803657 253.873069 102270.000000
   vertex 226.274170 226.274170 102270.000000
  endloop
 endfacet
 facet normal 0.555570 0.831470 0.000000
  outer loop
   vertex 194.803657 253.873069 101270.000000
   vertex 160.000000 277.128129 101270.000000
   vertex 160.000000 277.128129 102270.000000
  endloop
 endfacet
 facet normal 0.555570 0.831470 -0.000000
  outer loop
   vertex 194.803657 253.873069 101270.000000
   vertex 160.000000 277.128129 102270.000000
   vertex 194.803657 253.873069 102270.000000
  endloop
 endfacet
 facet normal 0.442289 0.896873 0.000000
  outer loop
   vertex 160.000000 277.128129 101270.000000
   vertex 122.458698 295.641450 101270.000000
   vertex 122.458698 295.641450 102270.000000
  endloop
 endfacet
 facet normal 0.442289 0.896873 -0.000000
  outer loop
   vertex 160.000000 277.128129 101270.000000
   vertex 122.458698 295.641450 102270.000000
   vertex 160.000000 277.128129 102270.000000
  endloop
 endfacet
 facet normal 0.321439 0.946930 0.000000
  outer loop
   vertex 122.458698 295.641450 101270.000000
   vertex 82.822094 309.096264 101270.000000
   vertex 82.822094 309.096264 102270.000000
  endloop
 endfacet
 facet normal 0.321439 0.946930 -0.000000
  outer loop
   vertex 122.458698 295.641450 101270.000000
   vertex 82.822094 309.096264 102270.000000
   vertex 122.458698 295.641450 102270.000000
  endloop
 endfacet
 facet normal 0.195090 0.980785 0.000000
  outer loop
   vertex 82.822094 309.096264 101270.000000
   vertex 41.768382 317.262356 101270.000000
   vertex 41.768382 317.262356 102270.000000
  endloop
 endfacet
 facet normal 0.195090 0.980785 -0.000000
  outer loop
   vertex 82.822094 309.096264 101270.000000
   vertex 41.768382 317.262356 102270.000000
   vertex 82.822094 309.096264 102270.000000
  endloop
 endfacet
 facet normal 0.065403 0.997859 0.000000
  outer loop
   vertex 41.768382 317.262356 101270.000000
   vertex 0.000000 320.000000 101270.000000
   vertex 0.000000 320.000000 102270.000000
  endloop
 endfacet
 facet normal 0.065403 0.997859 -0.000000
  outer loop
   vertex 41.768382 317.262356 101270.000000
   vertex 0.000000 320.000000 102270.000000
   vertex 41.768382 317.262356 102270.000000
  endloop
 endfacet
 facet normal -0.065403 0.997859 0.000000
  outer loop
   vertex 0.000000 320.000000 101270.000000
   vertex -41.768382 317.262356 101270.000000
   vertex -41.768382 317.262356 102270.000000
  endloop
 endfacet
 facet normal -0.065403 0.997859 0.000000
  outer loop
   vertex 0.000000 320.000000 101270.000000
   vertex -41.768382 317.262356 102270.000000
   vertex 0.000000 320.000000 102270.000000
  endloop
 endfacet
 facet normal -0.195090 0.980785 0.000000
  outer loop
   vertex -41.768382 317.262356 101270.000000
   vertex -82.822094 309.096264 101270.000000
   vertex -82.822094 309.096264 102270.000000
  endloop
 endfacet
 facet normal -0.195090 0.980785 0.000000
  outer loop
   vertex -41.768382 317.262356 101270.000000
   vertex -82.822094 309.096264 102270.000000
   vertex -41.768382 317.262356 102270.000000
  endloop
 endfacet
 facet normal -0.321439 0.946930 0.000000
  outer loop
   vertex -82.822094 309.096264 101270.000000
   vertex -122.458698 295.641450 101270.000000
   vertex -122.458698 295.641450 102270.000000
  endloop
 endfacet
 facet normal -0.321439 0.946930 0.000000
  outer loop
   vertex -82.822094 309.096264 101270.000000
   vertex -122.458698 295.641450 102270.000000
   vertex -82.822094 309.096264 102270.000000
  endloop
 endfacet
 facet normal -0.442289 0.896873 0.000000
  outer loop
   vertex -122.458698 295.641450 101270.000000
   vertex -160.000000 277.128129 101270.000000
   vertex -160.000000 277.128129 102270.000000
  endloop
 endfacet
 facet normal -0.442289 0.896873 0.000000
  outer loop
   vertex -122.458698 295.641450 101270.000000
   vertex -160.000000 277.128129 102270.000000
   vertex -122.458698 295.641450 102270.000000
  endloop
 endfacet
 facet normal -0.555570 0.831470 0.000000
  outer loop
   vertex -160.000000 277.128129 101270.000000
   vertex -194.803657 253.873069 101270.000000
   vertex -194.803657 253.873069 102270.000000
  endloop
 endfacet
 facet normal -0.555570 0.831470 0.000000
  outer loop
   vertex -160.000000 277.128129 101270.000000
   vertex -194.803657 253.873069 102270.000000
   vertex -160.000000 277.128129 102270.000000
  endloop
 endfacet
 facet normal -0.659346 0.751840 0.000000
  outer loop
   vertex -194.803657 253.873069 101270.000000
   vertex -226.274170 226.274170 101270.000000
   vertex -226.274170 226.274170 102270.000000
  endloop
 endfacet
 facet normal -0.659346 0.751840 0.000000
  outer loop
   vertex -194.803657 253.873069 101270.000000
   vertex -226.274170 226.274170 102270.000000
   vertex -194.803657 253.873069 102270.000000
  endloop
 endfacet
 facet normal -0.751840 0.659346 0.000000
  outer loop
   vertex -226.274170 226.274170 101270.000000
   vertex -253.873069 194.803657 101270.000000
   vertex -253.873069 194.803657 102270.000000
  endloop
 endfacet
 facet normal -0.751840 0.659346 0.000000
  outer loop
   vertex -226.274170 226.274170 101270.000000
   vertex -253.873069 194.803657 102270.000000
   vertex -226.274170 226.274170 102270.000000
  endloop
 endfacet
 facet normal -0.831470 0.555570 0.000000
  outer loop
   vertex -253.873069 194.803657 101270.000000
   vertex -277.128129 160.000000 101270.000000
   vertex -277.128129 160.000000 102270.000000
  endloop
 endfacet
 facet normal -0.831470 0.555570 0.000000
  outer loop
   vertex -253.873069 194.803657 101270.000000
   vertex -277.128129 160.000000 102270.000000
   vertex -253.873069 194.803657 102270.000000
  endloop
 endfacet
 facet normal -0.896873 0.442289 0.000000
  outer loop
   vertex -277.128129 160.000000 101270.000000
   vertex -295.641450 122.458698 101270.000000
   vertex -295.641450 122.458698 102270.000000
  endloop
 endfacet
 facet normal -0.896873 0.442289 0.000000
  outer loop
   vertex -277.128129 160.000000 101270.000000
   vertex -295.641450 122.458698 102270.000000
   vertex -277.128129 160.000000 102270.000000
  endloop
 endfacet
 facet normal -0.946930 0.321439 0.000000
  outer loop
   vertex -295.641450 122.458698 101270.000000
   vertex -309.096264 82.822094 101270.000000
   vertex -309.096264 82.822094 102270.000000
  endloop
 endfacet
 facet normal -0.946930 0.321439 0.000000
  outer loop
   vertex -295.641450 122.458698 101270.000000
   vertex -309.096264 82.822094 102270.000000
   vertex -295.641450 122.458698 102270.000000
  endloop
 endfacet
 facet normal -0.980785 0.195090 0.000000
  outer loop
   vertex -309.096264 82.822094 101270.000000
   vertex -317.262356 41.768382 101270.000000
   vertex -317.262356 41.768382 102270.000000
  endloop
 endfacet
 facet normal -0.980785 0.195090 0.000000
  outer loop
   vertex -309.096264 82.822094 101270.000000
   vertex -317.262356 41.768382 102270.000000
   vertex -309.096264 82.822094 102270.000000
  endloop
 endfacet
 facet normal -0.997859 0.065403 0.000000
  outer loop
   vertex -317.262356 41.768382 101270.000000
   vertex -320.000000 0.000000 101270.000000
   vertex -320.000000 0.000000 102270.000000
  endloop
 endfacet
 facet normal -0.997859 0.065403 0.000000
  outer loop
   vertex -317.262356 41.768382 101270.000000
   vertex -320.000000 0.000000 102270.000000
   vertex -317.262356 41.768382 102270.000000
  endloop
 endfacet
 facet normal -0.997859 -0.065403 0.000000
  outer loop
   vertex -320.000000 0.000000 101270.000000
   vertex -317.262356 -41.768382 101270.000000
   vertex -317.262356 -41.768382 102270.000000
  endloop
 endfacet
 facet normal -0.997859 -0.065403 0.000000
  outer loop
   vertex -320.000000 0.000000 101270.000000
   vertex -317.262356 -41.768382 102270.000000
   vertex -320.000000 0.000000 102270.000000
  endloop
 endfacet
 facet normal -0.980785 -0.195090 0.000000
  outer loop
   vertex -317.262356 -41.768382 101270.000000
   vertex -309.096264 -82.822094 101270.000000
   vertex -309.096264 -82.822094 102270.000000
  endloop
 endfacet
 facet normal -0.980785 -0.195090 0.000000
  outer loop
   vertex -317.262356 -41.768382 101270.000000
   vertex -309.096264 -82.822094 102270.000000
   vertex -317.262356 -41.768382 102270.000000
  endloop
 endfacet
 facet normal -0.946930 -0.321439 0.000000
  outer loop
   vertex -309.096264 -82.822094 101270.000000
   vertex -295.641450 -122.458698 101270.000000
   vertex -295.641450 -122.458698 102270.000000
  endloop
 endfacet
 facet normal -0.946930 -0.321439 0.000000
  outer loop
   vertex -309.096264 -82.822094 101270.000000
   vertex -295.641450 -122.458698 102270.000000
   vertex -309.096264 -82.822094 102270.000000
  endloop
 endfacet
 facet normal -0.896873 -0.442289 0.000000
  outer loop
   vertex -295.641450 -122.458698 101270.000000
   vertex -277.128129 -160.000000 101270.000000
   vertex -277.128129 -160.000000 102270.000000
  endloop
 endfacet
 facet normal -0.896873 -0.442289 0.000000
  outer loop
   vertex -295.641450 -122.458698 101270.000000
   vertex -277.128129 -160.000000 102270.000000
   vertex -295.641450 -122.458698 102270.000000
  endloop
 endfacet
 facet normal -0.831470 -0.555570 0.000000
  outer loop
   vertex -277.128129 -160.000000 101270.000000
   vertex -253.873069 -194.803657 101270.000000
   vertex -253.873069 -194.803657 102270.000000
  endloop
 endfacet
 facet normal -0.831470 -0.555570 0.000000
  outer loop
   vertex -277.128129 -160.000000 101270.000000
   vertex -253.873069 -194.803657 102270.000000
   vertex -277.128129 -160.000000 102270.000000
  endloop
 endfacet
 facet normal -0.751840 -0.659346 0.000000
  outer loop
   vertex -253.873069 -194.803657 101270.000000
   vertex -226.274170 -226.274170 101270.000000
   vertex -226.274170 -226.274170 102270.000000
  endloop
 endfacet
 facet normal -0.751840 -0.659346 0.000000
  outer loop
   vertex -253.873069 -194.803657 101270.000000
   vertex -226.274170 -226.274170 102270.000000
   vertex -253.873069 -194.803657 102270.000000
  endloop
 endfacet
 facet normal -0.659346 -0.751840 0.000000
  outer loop
   vertex -226.274170 -226.274170 101270.000000
   vertex -194.803657 -253.873069 101270.000000
   vertex -194.803657 -253.873069 102270.000000
  endloop
 endfacet
 facet normal -0.659346 -0.751840 0.000000
  outer loop
   vertex -226.274170 -226.274170 101270.000000
   vertex -194.803657 -253.873069 102270.000000
   vertex -226.274170 -226.274170 102270.000000
  endloop
 endfacet
 facet normal -0.555570 -0.831470 0.000000
  outer loop
   vertex -194.803657 -253.873069 101270.000000
   vertex -160.000000 -277.128129 101270.000000
   vertex -160.000000 -277.128129 102270.000000
  endloop
 endfacet
 facet normal -0.555570 -0.831470 0.000000
  outer loop
   vertex -194.803657 -253.873069 101270.000000
   vertex -160.000000 -277.128129 102270.000000
   vertex -194.803657 -253.873069 102270.000000
  endloop
 endfacet
 facet normal -0.442289 -0.896873 0.000000
  outer loop
   vertex -160.000000 -277.128129 101270.000000
   vertex -122.458698 -295.641450 101270.000000
   vertex -122.458698 -295.641450 102270.000000
  endloop
 endfacet
 facet normal -0.442289 -0.896873 0.000000
  outer loop
   vertex -160.000000 -277.128129 101270.000000
   vertex -122.458698 -295.641450 102270.000000
   vertex -160.000000 -277.128129 102270.000000
  endloop
 endfacet
 facet normal -0.321439 -0.946930 0.000000
  outer loop
   vertex -122.458698 -295.641450 101270.000000
   vertex -82.822094 -309.096264 101270.000000
   vertex -82.822094 -309.096264 102270.000000
  endloop
 endfacet
 facet normal -0.321439 -0.946930 0.000000
  outer loop
   vertex -122.458698 -295.641450 101270.000000
   vertex -82.822094 -309.096264 102270.000000
   vertex -122.458698 -295.641450 102270.000000
  endloop
 endfacet
 facet normal -0.195090 -0.980785 0.000000
  outer loop
   vertex -82.822094 -309.096264 101270.000000
   vertex -41.768382 -317.262356 101270.000000
   vertex -41.768382 -317.262356 102270.000000
  endloop
 endfacet
 facet normal -0.195090 -0.980785 0.000000
  outer loop
   vertex -82.822094 -309.096264 101270.000000
   vertex -41.768382 -317.262356 102270.000000
   vertex -82.822094 -309.096264 102270.000000
  endloop
 endfacet
 facet normal -0.065403 -0.997859 0.000000
  outer loop
   vertex -41.768382 -317.262356 101270.000000
   vertex -0.000000 -320.000000 101270.000000
   vertex -0.000000 -320.000000 102270.000000
  endloop
 endfacet
 facet normal -0.065403 -0.997859 0.000000
  outer loop
   vertex -41.768382 -317.262356 101270.000000
   vertex -0.000000 -320.000000 102270.000000
   vertex -41.768382 -317.262356 102270.000000
  endloop
 endfacet
 facet normal 0.065403 -0.997859 0.000000
  outer loop
   vertex -0.000000 -320.000000 101270.000000
   vertex 41.768382 -317.262356 101270.000000
   vertex 41.768382 -317.262356 102270.000000
  endloop
 endfacet
 facet normal 0.065403 -0.997859 0.000000
  outer loop
   vertex -0.000000 -320.000000 101270.000000
   vertex 41.768382 -317.262356 102270.000000
   vertex -0.000000 -320.000000 102270.000000
  endloop
 endfacet
 facet normal 0.195090 -0.980785 0.000000
  outer loop
   vertex 41.768382 -317.262356 101270.000000
   vertex 82.822094 -309.096264 101270.000000
   vertex 82.822094 -309.096264 102270.000000
  endloop
 endfacet
 facet normal 0.195090 -0.980785 0.000000
  outer loop
   vertex 41.768382 -317.262356 101270.000000
   vertex 82.822094 -309.096264 102270.000000
   vertex 41.768382 -317.262356 102270.000000
  endloop
 endfacet
 facet normal 0.321439 -0.946930 0.000000
  outer loop
   vertex 82.822094 -309.096264 101270.000000
   vertex 122.458698 -295.641450 101270.000000
   vertex 122.458698 -295.641450 102270.000000
  endloop
 endfacet
 facet normal 0.321439 -0.946930 0.000000
  outer loop
   vertex 82.822094 -309.096264 101270.000000
   vertex 122.458698 -295.641450 102270.000000
   vertex 82.822094 -309.096264 102270.000000
  endloop
 endfacet
 facet normal 0.442289 -0.896873 0.000000
  outer loop
   vertex 122.458698 -295.641450 101270.000000
   vertex 160.000000 -277.128129 101270.000000
   vertex 160.000000 -277.128129 102270.000000
  endloop
 endfacet
 facet normal 0.442289 -0.896873 0.000000
  outer loop
   vertex 122.458698 -295.641450 101270.000000
   vertex 160.000000 -277.128129 102270.000000
   vertex 122.458698 -295.641450 102270.000000
  endloop
 endfacet
 facet normal 0.555570 -0.831470 0.000000
  outer loop
   vertex 160.000000 -277.128129 101270.000000
   vertex 194.803657 -253.873069 101270.000000
   vertex 194.803657 -253.873069 102270.000000
  endloop
 endfacet
 facet normal 0.555570 -0.831470 0.000000
  outer loop
   vertex 160.000000 -277.128129 101270.000000
   vertex 194.803657 -253.873069 102270.000000
   vertex 160.000000 -277.128129 102270.000000
  endloop
 endfacet
 facet normal 0.659346 -0.751840 0.000000
  outer loop
   vertex 194.803657 -253.873069 101270.000000
   vertex 226.274170 -226.274170 101270.000000
   vertex 226.274170 -226.274170 102270.000000
  endloop
 endfacet
 facet normal 0.659346 -0.751840 0.000000
  outer loop
   vertex 194.803657 -253.873069 101270.000000
   vertex 226.274170 -226.274170 102270.000000
   vertex 194.803657 -253.873069 102270.000000
  endloop
 endfacet
 facet normal 0.751840 -0.659346 0.000000
  outer loop
   vertex 226.274170 -226.274170 101270.000000
   vertex 253.873069 -194.803657 101270.000000
   vertex 253.873069 -194.803657 102270.000000
  endloop
 endfacet
 facet normal 0.751840 -0.659346 0.000000
  outer loop
   vertex 226.274170 -226.274170 101270.000000
   vertex 253.873069 -194.803657 102270.000000
   vertex 226.274170 -226.274170 102270.000000
  endloop
 endfacet
 facet normal 0.831470 -0.555570 0.000000
  outer loop
   vertex 253.873069 -194.803657 101270.000000
   vertex 277.128129 -160.000000 101270.000000
   vertex 277.128129 -160.000000 102270.000000
  endloop
 endfacet
 facet normal 0.831470 -0.555570 0.000000
  outer loop
   vertex 253.873069 -194.803657 101270.000000
   vertex 277.128129 -160.000000 102270.000000
   vertex 253.873069 -194.803657 102270.000000
  endloop
 endfacet
 facet normal 0.896873 -0.442289 0.000000
  outer loop
   vertex 277.128129 -160.000000 101270.000000
   vertex 295.641450 -122.458698 101270.000000
   vertex 295.641450 -122.458698 102270.000000
  endloop
 endfacet
 facet normal 0.896873 -0.442289 0.000000
  outer loop
   vertex 277.128129 -160.000000 101270.000000
   vertex 295.641450 -122.458698 102270.000000
   vertex 277.128129 -160.000000 102270.000000
  endloop
 endfacet
 facet normal 0.946930 -0.321439 0.000000
  outer loop
   vertex 295.641450 -122.458698 101270.000000
   vertex 309.096264 -82.822094 101270.000000
   vertex 309.096264 -82.822094 102270.000000
  endloop
 endfacet
 facet normal 0.946930 -0.321439 0.000000
  outer loop
   vertex 295.641450 -122.458698 101270.000000
   vertex 309.096264 -82.822094 102270.000000
   vertex 295.641450 -122.458698 102270.000000
  endloop
 endfacet
 facet normal 0.980785 -0.195090 0.000000
  outer loop
   vertex 309.096264 -82.822094 101270.000000
   vertex 317.262356 -41.768382 101270.000000
   vertex 317.262356 -41.768382 102270.000000
  endloop
 endfacet
 facet normal 0.980785 -0.195090 0.000000
  outer loop
   vertex 309.096264 -82.822094 101270.000000
   vertex 317.262356 -41.768382 102270.000000
   vertex 309.096264 -82.822094 102270.000000
  endloop
 endfacet
 facet normal 0.997859 -0.065403 0.000000
  outer loop
   vertex 317.262356 -41.768382 101270.000000
   vertex 320.000000 0.000000 101270.000000
   vertex 320.000000 0.000000 102270.000000
  endloop
 endfacet
 facet normal 0.997859 -0.065403 0.000000
  outer loop
   vertex 317.262356 -41.768382 101270.000000
   vertex 320.000000 0.000000 102270.000000
   vertex 317.262356 -41.768382 102270.000000
  endloop
 endfacet
 facet normal -0.997859 -0.065403 -0.000000
  outer loop
   vertex 314.288021 41.376803 102270.000000
   vertex 314.288021 41.376803 101270.000000
   vertex 317.000000 0.000000 101270.000000
  endloop
 endfacet
 facet normal -0.997859 -0.065403 -0.000000
  outer loop
   vertex 317.000000 0.000000 102270.000000
   vertex 314.288021 41.376803 102270.000000
   vertex 317.000000 0.000000 101270.000000
  endloop
 endfacet
 facet normal -0.980785 -0.195090 -0.000000
  outer loop
   vertex 306.198487 82.045637 102270.000000
   vertex 306.198487 82.045637 101270.000000
   vertex 314.288021 41.376803 101270.000000
  endloop
 endfacet
 facet normal -0.980785 -0.195090 -0.000000
  outer loop
   vertex 314.288021 41.376803 102270.000000
   vertex 306.198487 82.045637 102270.000000
   vertex 314.288021 41.376803 101270.000000
  endloop
 endfacet
 facet normal -0.946930 -0.321439 -0.000000
  outer loop
   vertex 292.869812 121.310648 102270.000000
   vertex 292.869812 121.310648 101270.000000
   vertex 306.198487 82.045637 101270.000000
  endloop
 endfacet
 facet normal -0.946930 -0.321439 -0.000000
  outer loop
   vertex 306.198487 82.045637 102270.000000
   vertex 292.869812 121.310648 102270.000000
   vertex 306.198487 82.045637 101270.000000
  endloop
 endfacet
 facet normal -0.896873 -0.442289 -0.000000
  outer loop
   vertex 274.530053 158.500000 102270.000000
   vertex 274.530053 158.500000 101270.000000
   vertex 292.869812 121.310648 101270.000000
  endloop
 endfacet
 facet normal -0.896873 -0.442289 -0.000000
  outer loop
   vertex 292.869812 121.310648 102270.000000
   vertex 274.530053 158.500000 102270.000000
   vertex 292.869812 121.310648 101270.000000
  endloop
 endfacet
 facet normal -0.831470 -0.555570 -0.000000
  outer loop
   vertex 251.493009 192.977373 102270.000000
   vertex 251.493009 192.977373 101270.000000
   vertex 274.530053 158.500000 101270.000000
  endloop
 endfacet
 facet normal -0.831470 -0.555570 -0.000000
  outer loop
   vertex 274.530053 158.500000 102270.000000
   vertex 251.493009 192.977373 102270.000000
   vertex 274.530053 158.500000 101270.000000
  endloop
 endfacet
 facet normal -0.751840 -0.659346 -0.000000
  outer loop
   vertex 224.152850 224.152850 102270.000000
   vertex 224.152850 224.152850 101270.000000
   vertex 251.493009 192.977373 101270.000000
  endloop
 endfacet
 facet normal -0.751840 -0.659346 -0.000000
  outer loop
   vertex 251.493009 192.977373 102270.000000
   vertex 224.152850 224.152850 102270.000000
   vertex 251.493009 192.977373 101270.000000
  endloop
 endfacet
 facet normal -0.659346 -0.751840 -0.000000
  outer loop
   vertex 192.977373 251.493009 102270.000000
   vertex 192.977373 251.493009 101270.000000
   vertex 224.152850 224.152850 101270.000000
  endloop
 endfacet
 facet normal -0.659346 -0.751840 -0.000000
  outer loop
   vertex 224.152850 224.152850 102270.000000
   vertex 192.977373 251.493009 102270.000000
   vertex 224.152850 224.152850 101270.000000
  endloop
 endfacet
 facet normal -0.555570 -0.831470 -0.000000
  outer loop
   vertex 158.500000 274.530053 102270.000000
   vertex 158.500000 274.530053 101270.000000
   vertex 192.977373 251.493009 101270.000000
  endloop
 endfacet
 facet normal -0.555570 -0.831470 -0.000000
  outer loop
   vertex 192.977373 251.493009 102270.000000
   vertex 158.500000 274.530053 102270.000000
   vertex 192.977373 251.493009 101270.000000
  endloop
 endfacet
 facet normal -0.442289 -0.896873 -0.000000
  outer loop
   vertex 121.310648 292.869812 102270.000000
   vertex 121.310648 292.869812 101270.000000
   vertex 158.500000 274.530053 101270.000000
  endloop
 endfacet
 facet normal -0.442289 -0.896873 -0.000000
  outer loop
   vertex 158.500000 274.530053 102270.000000
   vertex 121.310648 292.869812 102270.000000
   vertex 158.500000 274.530053 101270.000000
  endloop
 endfacet
 facet normal -0.321439 -0.946930 -0.000000
  outer loop
   vertex 82.045637 306.198487 102270.000000
   vertex 82.045637 306.198487 101270.000000
   vertex 121.310648 292.869812 101270.000000
  endloop
 endfacet
 facet normal -0.321439 -0.946930 -0.000000
  outer loop
   vertex 121.310648 292.869812 102270.000000
   vertex 82.045637 306.198487 102270.000000
   vertex 121.310648 292.869812 101270.000000
  endloop
 endfacet
 facet normal -0.195090 -0.980785 -0.000000
  outer loop
   vertex 41.376803 314.288021 102270.000000
   vertex 41.376803 314.288021 101270.000000
   vertex 82.045637 306.198487 101270.000000
  endloop
 endfacet
 facet normal -0.195090 -0.980785 -0.000000
  outer loop
   vertex 82.045637 306.198487 102270.000000
   vertex 41.376803 314.288021 102270.000000
   vertex 82.045637 306.198487 101270.000000
  endloop
 endfacet
 facet normal -0.065403 -0.997859 -0.000000
  outer loop
   vertex 0.000000 317.000000 102270.000000
   vertex 0.000000 317.000000 101270.000000
   vertex 41.376803 314.288021 101270.000000
  endloop
 endfacet
 facet normal -0.065403 -0.997859 -0.000000
  outer loop
   vertex 41.376803 314.288021 102270.000000
   vertex 0.000000 317.000000 102270.000000
   vertex 41.376803 314.288021 101270.000000
  endloop
 endfacet
 facet normal 0.065403 -0.997859 0.000000
  outer loop
   vertex -41.376803 314.288021 102270.000000
   vertex -41.376803 314.288021 101270.000000
   vertex 0.000000 317.000000 101270.000000
  endloop
 endfacet
 facet normal 0.065403 -0.997859 0.000000
  outer loop
   vertex 0.000000 317.000000 102270.000000
   vertex -41.376803 314.288021 102270.000000
   vertex 0.000000 317.000000 101270.000000
  endloop
 endfacet
 facet normal 0.195090 -0.980785 0.000000
  outer loop
   vertex -82.045637 306.198487 102270.000000
   vertex -82.045637 306.198487 101270.000000
   vertex -41.376803 314.288021 101270.000000
  endloop
 endfacet
 facet normal 0.195090 -0.980785 0.000000
  outer loop
   vertex -41.376803 314.288021 102270.000000
   vertex -82.045637 306.198487 102270.000000
   vertex -41.376803 314.288021 101270.000000
  endloop
 endfacet
 facet normal 0.321439 -0.946930 0.000000
  outer loop
   vertex -121.310648 292.869812 102270.000000
   vertex -121.310648 292.869812 101270.000000
   vertex -82.045637 306.198487 101270.000000
  endloop
 endfacet
 facet normal 0.321439 -0.946930 0.000000
  outer loop
   vertex -82.045637 306.198487 102270.000000
   vertex -121.310648 292.869812 102270.000000
   vertex -82.045637 306.198487 101270.000000
  endloop
 endfacet
 facet normal 0.442289 -0.896873 0.000000
  outer loop
   vertex -158.500000 274.530053 102270.000000
   vertex -158.500000 274.530053 101270.000000
   vertex -121.310648 292.869812 101270.000000
  endloop
 endfacet
 facet normal 0.442289 -0.896873 0.000000
  outer loop
   vertex -121.310648 292.869812 102270.000000
   vertex -158.500000 274.530053 102270.000000
   vertex -121.310648 292.869812 101270.000000
  endloop
 endfacet
 facet normal 0.555570 -0.831470 0.000000
  outer loop
   vertex -192.977373 251.493009 102270.000000
   vertex -192.977373 251.493009 101270.000000
   vertex -158.500000 274.530053 101270.000000
  endloop
 endfacet
 facet normal 0.555570 -0.831470 0.000000
  outer loop
   vertex -158.500000 274.530053 102270.000000
   vertex -192.977373 251.493009 102270.000000
   vertex -158.500000 274.530053 101270.000000
  endloop
 endfacet
 facet normal 0.659346 -0.751840 0.000000
  outer loop
   vertex -224.152850 224.152850 102270.000000
   vertex -224.152850 224.152850 101270.000000
   vertex -192.977373 251.493009 101270.000000
  endloop
 endfacet
 facet normal 0.659346 -0.751840 0.000000
  outer loop
   vertex -192.977373 251.493009 102270.000000
   vertex -224.152850 224.152850 102270.000000
   vertex -192.977373 251.493009 101270.000000
  endloop
 endfacet
 facet normal 0.751840 -0.659346 0.000000
  outer loop
   vertex -251.493009 192.977373 102270.000000
   vertex -251.493009 192.977373 101270.000000
   vertex -224.152850 224.152850 101270.000000
  endloop
 endfacet
 facet normal 0.751840 -0.659346 0.000000
  outer loop
   vertex -224.152850 224.152850 102270.000000
   vertex -251.493009 192.977373 102270.000000
   vertex -224.152850 224.152850 101270.000000
  endloop
 endfacet
 facet normal 0.831470 -0.555570 0.000000
  outer loop
   vertex -274.530053 158.500000 102270.000000
   vertex -274.530053 158.500000 101270.000000
   vertex -251.493009 192.977373 101270.000000
  endloop
 endfacet
 facet normal 0.831470 -0.555570 0.000000
  outer loop
   vertex -251.493009 192.977373 102270.000000
   vertex -274.530053 158.500000 102270.000000
   vertex -251.493009 192.977373 101270.000000
  endloop
 endfacet
 facet normal 0.896873 -0.442289 0.000000
  outer loop
   vertex -292.869812 121.310648 102270.000000
   vertex -292.869812 121.310648 101270.000000
   vertex -274.530053 158.500000 101270.000000
  endloop
 endfacet
 facet normal 0.896873 -0.442289 0.000000
  outer loop
   vertex -274.530053 158.500000 102270.000000
   vertex -292.869812 121.310648 102270.000000
   vertex -274.530053 158.500000 101270.000000
  endloop
 endfacet
 facet normal 0.946930 -0.321439 0.000000
  outer loop
   vertex -306.198487 82.045637 102270.000000
   vertex -306.198487 82.045637 101270.000000
   vertex -292.869812 121.310648 101270.000000
  endloop
 endfacet
 facet normal 0.946930 -0.321439 0.000000
  outer loop
   vertex -292.869812 121.310648 102270.000000
   vertex -306.198487 82.045637 102270.000000
   vertex -292.869812 121.310648 101270.000000
  endloop
 endfacet
 facet normal 0.980785 -0.195090 0.000000
  outer loop
   vertex -314.288021 41.376803 102270.000000
   vertex -314.288021 41.376803 101270.000000
   vertex -306.198487 82.045637 101270.000000
  endloop
 endfacet
 facet normal 0.980785 -0.195090 0.000000
  outer loop
   vertex -306.198487 82.045637 102270.000000
   vertex -314.288021 41.376803 102270.000000
   vertex -306.198487 82.045637 101270.000000
  endloop
 endfacet
 facet normal 0.997859 -0.065403 0.000000
  outer loop
   vertex -317.000000 0.000000 102270.000000
   vertex -317.000000 0.000000 101270.000000
   vertex -314.288021 41.376803 101270.000000
  endloop
 endfacet
 facet normal 0.997859 -0.065403 0.000000
  outer loop
   vertex -314.288021 41.376803 102270.000000
   vertex -317.000000 0.000000 102270.000000
   vertex -314.288021 41.376803 101270.000000
  endloop
 endfacet
 facet normal 0.997859 0.065403 0.000000
  outer loop
   vertex -314.288021 -41.376803 102270.000000
   vertex -314.288021 -41.376803 101270.000000
   vertex -317.000000 0.000000 101270.000000
  endloop
 endfacet
 facet normal 0.997859 0.065403 0.000000
  outer loop
   vertex -317.000000 0.000000 102270.000000
   vertex -314.288021 -41.376803 102270.000000
   vertex -317.000000 0.000000 101270.000000
  endloop
 endfacet
 facet normal 0.980785 0.195090 0.000000
  outer loop
   vertex -306.198487 -82.045637 102270.000000
   vertex -306.198487 -82.045637 101270.000000
   vertex -314.288021 -41.376803 101270.000000
  endloop
 endfacet
 facet normal 0.980785 0.195090 0.000000
  outer loop
   vertex -314.288021 -41.376803 102270.000000
   vertex -306.198487 -82.045637 102270.000000
   vertex -314.288021 -41.376803 101270.000000
  endloop
 endfacet
 facet normal 0.946930 0.321439 0.000000
  outer loop
   vertex -292.869812 -121.310648 102270.000000
   vertex -292.869812 -121.310648 101270.000000
   vertex -306.198487 -82.045637 101270.000000
  endloop
 endfacet
 facet normal 0.946930 0.321439 0.000000
  outer loop
   vertex -306.198487 -82.045637 102270.000000
   vertex -292.869812 -121.310648 102270.000000
   vertex -306.198487 -82.045637 101270.000000
  endloop
 endfacet
 facet normal 0.896873 0.442289 0.000000
  outer loop
   vertex -274.530053 -158.500000 102270.000000
   vertex -274.530053 -158.500000 101270.000000
   vertex -292.869812 -121.310648 101270.000000
  endloop
 endfacet
 facet normal 0.896873 0.442289 0.000000
  outer loop
   vertex -292.869812 -121.310648 102270.000000
   vertex -274.530053 -158.500000 102270.000000
   vertex -292.869812 -121.310648 101270.000000
  endloop
 endfacet
 facet normal 0.831470 0.555570 0.000000
  outer loop
   vertex -251.493009 -192.977373 102270.000000
   vertex -251.493009 -192.977373 101270.000000
   vertex -274.530053 -158.500000 101270.000000
  endloop
 endfacet
 facet normal 0.831470 0.555570 0.000000
  outer loop
   vertex -274.530053 -158.500000 102270.000000
   vertex -251.493009 -192.977373 102270.000000
   vertex -274.530053 -158.500000 101270.000000
  endloop
 endfacet
 facet normal 0.751840 0.659346 0.000000
  outer loop
   vertex -224.152850 -224.152850 102270.000000
   vertex -224.152850 -224.152850 101270.000000
   vertex -251.493009 -192.977373 101270.000000
  endloop
 endfacet
 facet normal 0.751840 0.659346 0.000000
  outer loop
   vertex -251.493009 -192.977373 102270.000000
   vertex -224.152850 -224.152850 102270.000000
   vertex -251.493009 -192.977373 101270.000000
  endloop
 endfacet
 facet normal 0.659346 0.751840 0.000000
  outer loop
   vertex -192.977373 -251.493009 102270.000000
   vertex -192.977373 -251.493009 101270.000000
   vertex -224.152850 -224.152850 101270.000000
  endloop
 endfacet
 facet normal 0.659346 0.751840 0.000000
  outer loop
   vertex -224.152850 -224.152850 102270.000000
   vertex -192.977373 -251.493009 102270.000000
   vertex -224.152850 -224.152850 101270.000000
  endloop
 endfacet
 facet normal 0.555570 0.831470 0.000000
  outer loop
   vertex -158.500000 -274.530053 102270.000000
   vertex -158.500000 -274.530053 101270.000000
   vertex -192.977373 -251.493009 101270.000000
  endloop
 endfacet
 facet normal 0.555570 0.831470 0.000000
  outer loop
   vertex -192.977373 -251.493009 102270.000000
   vertex -158.500000 -274.530053 102270.000000
   vertex -192.977373 -251.493009 101270.000000
  endloop
 endfacet
 facet normal 0.442289 0.896873 0.000000
  outer loop
   vertex -121.310648 -292.869812 102270.000000
   vertex -121.310648 -292.869812 101270.000000
   vertex -158.500000 -274.530053 101270.000000
  endloop
 endfacet
 facet normal 0.442289 0.896873 0.000000
  outer loop
   vertex -158.500000 -274.530053 102270.000000
   vertex -121.310648 -292.869812 102270.000000
   vertex -158.500000 -274.530053 101270.000000
  endloop
 endfacet
 facet normal 0.321439 0.946930 0.000000
  outer loop
   vertex -82.045637 -306.198487 102270.000000
   vertex -82.045637 -306.198487 101270.000000
   vertex -121.310648 -292.869812 101270.000000
  endloop
 endfacet
 facet normal 0.321439 0.946930 0.000000
  outer loop
   vertex -121.310648 -292.869812 102270.000000
   vertex -82.045637 -306.198487 102270.000000
   vertex -121.310648 -292.869812 101270.000000
  endloop
 endfacet
 facet normal 0.195090 0.980785 0.000000
  outer loop
   vertex -41.376803 -314.288021 102270.000000
   vertex -41.376803 -314.288021 101270.000000
   vertex -82.045637 -306.198487 101270.000000
  endloop
 endfacet
 facet normal 0.195090 0.980785 0.000000
  outer loop
   vertex -82.045637 -306.198487 102270.000000
   vertex -41.376803 -314.288021 102270.000000
   vertex -82.045637 -306.198487 101270.000000
  endloop
 endfacet
 facet normal 0.065403 0.997859 0.000000
  outer loop
   vertex -0.000000 -317.000000 102270.000000
   vertex -0.000000 -317.000000 101270.000000
   vertex -41.376803 -314.288021 101270.000000
  endloop
 endfacet
 facet normal 0.065403 0.997859 0.000000
  outer loop
   vertex -41.376803 -314.288021 102270.000000
   vertex -0.000000 -317.000000 102270.000000
   vertex -41.376803 -314.288021 101270.000000
  endloop
 endfacet
 facet normal -0.065403 0.997859 0.000000
  outer loop
   vertex 41.376803 -314.288021 102270.000000
   vertex 41.376803 -314.288021 101270.000000
   vertex -0.000000 -317.000000 101270.000000
  endloop
 endfacet
 facet normal -0.065403 0.997859 0.000000
  outer loop
   vertex -0.000000 -317.000000 102270.000000
   vertex 41.376803 -314.288021 102270.000000
   vertex -0.000000 -317.000000 101270.000000
  endloop
 endfacet
 facet normal -0.195090 0.980785 0.000000
  outer loop
   vertex 82.045637 -306.198487 102270.000000
   vertex 82.045637 -306.198487 101270.000000
   vertex 41.376803 -314.288021 101270.000000
  endloop
 endfacet
 facet normal -0.195090 0.980785 0.000000
  outer loop
   vertex 41.376803 -314.288021 102270.000000
   vertex 82.045637 -306.198487 102270.000000
   vertex 41.376803 -314.288021 101270.000000
  endloop
 endfacet
 facet normal -0.321439 0.946930 0.000000
  outer loop
   vertex 121.310648 -292.869812 102270.000000
   vertex 121.310648 -292.869812 101270.000000
   vertex 82.045637 -306.198487 101270.000000
  endloop
 endfacet
 facet normal -0.321439 0.946930 0.000000
  outer loop
   vertex 82.045637 -306.198487 102270.000000
   vertex 121.310648 -292.869812 102270.000000
   vertex 82.045637 -306.198487 101270.000000
  endloop
 endfacet
 facet normal -0.442289 0.896873 0.000000
  outer loop
   vertex 158.500000 -274.530053 102270.000000
   vertex 158.500000 -274.530053 101270.000000
   vertex 121.310648 -292.869812 101270.000000
  endloop
 endfacet
 facet normal -0.442289 0.896873 0.000000
  outer loop
   vertex 121.310648 -292.869812 102270.000000
   vertex 158.500000 -274.530053 102270.000000
   vertex 121.310648 -292.869812 101270.000000
  endloop
 endfacet
 facet normal -0.555570 0.831470 0.000000
  outer loop
   vertex 192.977373 -251.493009 102270.000000
   vertex 192.977373 -251.493009 101270.000000
   vertex 158.500000 -274.530053 101270.000000
  endloop
 endfacet
 facet normal -0.555570 0.831470 0.000000
  outer loop
   vertex 158.500000 -274.530053 102270.000000
   vertex 192.977373 -251.493009 102270.000000
   vertex 158.500000 -274.530053 101270.000000
  endloop
 endfacet
 facet normal -0.659346 0.751840 0.000000
  outer loop
   vertex 224.152850 -224.152850 102270.000000
   vertex 224.152850 -224.152850 101270.000000
   vertex 192.977373 -251.493009 101270.000000
  endloop
 endfacet
 facet normal -0.659346 0.751840 0.000000
  outer loop
   vertex 192.977373 -251.493009 102270.000000
   vertex 224.152850 -224.152850 102270.000000
   vertex 192.977373 -251.493009 101270.000000
  endloop
 endfacet
 facet normal -0.751840 0.659346 0.000000
  outer loop
   vertex 251.493009 -192.977373 102270.000000
   vertex 251.493009 -192.977373 101270.000000
   vertex 224.152850 -224.152850 101270.000000
  endloop
 endfacet
 facet normal -0.751840 0.659346 0.000000
  outer loop
   vertex 224.152850 -224.152850 102270.000000
   vertex 251.493009 -192.977373 102270.000000
   vertex 224.152850 -224.152850 101270.000000
  endloop
 endfacet
 facet normal -0.831470 0.555570 0.000000
  outer loop
   vertex 274.530053 -158.500000 102270.000000
   vertex 274.530053 -158.500000 101270.000000
   vertex 251.493009 -192.977373 101270.000000
  endloop
 endfacet
 facet normal -0.831470 0.555570 0.000000
  outer loop
   vertex 251.493009 -192.977373 102270.000000
   vertex 274.530053 -158.500000 102270.000000
   vertex 251.493009 -192.977373 101270.000000
  endloop
 endfacet
 facet normal -0.896873 0.442289 0.000000
  outer loop
   vertex 292.869812 -121.310648 102270.000000
   vertex 292.869812 -121.310648 101270.000000
   vertex 274.530053 -158.500000 101270.000000
  endloop
 endfacet
 facet normal -0.896873 0.442289 0.000000
  outer loop
   vertex 274.530053 -158.500000 102270.000000
   vertex 292.869812 -121.310648 102270.000000
   vertex 274.530053 -158.500000 101270.000000
  endloop
 endfacet
 facet normal -0.946930 0.321439 0.000000
  outer loop
   vertex 306.198487 -82.045637 102270.000000
   vertex 306.198487 -82.045637 101270.000000
   vertex 292.869812 -121.310648 101270.000000
  endloop
 endfacet
 facet normal -0.946930 0.321439 0.000000
  outer loop
   vertex 292.869812 -121.310648 102270.000000
   vertex 306.198487 -82.045637 102270.000000
   vertex 292.869812 -121.310648 101270.000000
  endloop
 endfacet
 facet normal -0.980785 0.195090 0.000000
  outer loop
   vertex 314.288021 -41.376803 102270.000000
   vertex 314.288021 -41.376803 101270.000000
   vertex 306.198487 -82.045637 101270.000000
  endloop
 endfacet
 facet normal -0.980785 0.195090 0.000000
  outer loop
   vertex 306.198487 -82.045637 102270.000000
   vertex 314.288021 -41.376803 102270.000000
   vertex 306.198487 -82.045637 101270.000000
  endloop
 endfacet
 facet normal -0.997859 0.065403 0.000000
  outer loop
   vertex 317.000000 0.000000 102270.000000
   vertex 317.000000 0.000000 101270.000000
   vertex 314.288021 -41.376803 101270.000000
  endloop
 endfacet
 facet normal -0.997859 0.065403 0.000000
  outer loop
   vertex 314.288021 -41.376803 102270.000000
   vertex 317.000000 0.000000 102270.000000
   vertex 314.288021 -41.376803 101270.000000
  endloop
 endfacet
 facet normal 0.000000 0.000000 1.000000
  outer loop
   vertex 320.000000 0.000000 101270.000000
   vertex 314.288021 41.376803 101270.000000
   vertex 317.000000 0.000000 101270.000000
  endloop
 endfacet
 facet normal 0.000000 0.000000 1.000000
  outer loop
   vertex 320.000000 0.000000 101270.000000
   vertex 317.262356 41.768382 101270.000000
   vertex 314.288021 41.376803 101270.000000
  endloop
 endfacet
 facet normal 0.000000 0.000000 1.000000
  outer loop
   vertex 317.262356 41.768382 101270.000000
   vertex 306.198487 82.045637 101270.000000
   vertex 314.288021 41.376803 101270.000000
  endloop
 endfacet
 facet normal 0.000000 0.000000 1.000000
  outer loop
   vertex 317.262356 41.768382 101270.000000
   vertex 309.096264 82.822094 101270.000000
   vertex 306.198487 82.045637 101270.000000
  endloop
 endfacet
 facet normal 0.000000 0.000000 1.000000
  outer loop
   vertex 309.096264 82.822094 101270.000000
   vertex 292.869812 121.310648 101270.000000
   vertex 306.198487 82.045637 101270.000000
  endloop
 endfacet
 facet normal 0.000000 0.000000 1.000000
  outer loop
   vertex 309.096264 82.822094 101270.000000
   vertex 295.641450 122.458698 101270.000000
   vertex 292.869812 121.310648 101270.000000
  endloop
 endfacet
 facet normal 0.000000 0.000000 1.000000
  outer loop
   vertex 295.641450 122.458698 101270.000000
   vertex 274.530053 158.500000 101270.000000
   vertex 292.869812 121.310648 101270.000000
  endloop
 endfacet
 facet normal 0.000000 0.000000 1.000000
  outer loop
   vertex 295.641450 122.458698 101270.000000
   vertex 277.128129 160.000000 101270.000000
   vertex 274.530053 158.500000 101270.000000
  endloop
 endfacet
 facet normal 0.000000 0.000000 1.000000
  outer loop
   vertex 277.128129 160.000000 101270.000000
   vertex 251.493009 192.977373 101270.000000
   vertex 274.530053 158.500000 101270.000000
  endloop
 endfacet
 facet normal 0.000000 0.000000 1.000000
  outer loop
   vertex 277.128129 160.000000 101270.000000
   vertex 253.873069 194.803657 101270.000000
   vertex 251.493009 192.977373 101270.000000
  endloop
 endfacet
 facet normal 0.000000 0.000000 1.000000
  outer loop
   vertex 253.873069 194.803657 101270.000000
   vertex 224.152850 224.152850 101270.000000
   vertex 251.493009 192.977373 101270.000000
  endloop
 endfacet
 facet normal 0.000000 0.000000 1.000000
  outer loop
   vertex 253.873069 194.803657 101270.000000
   vertex 226.274170 226.274170 101270.000000
   vertex 224.152850 224.152850 101270.000000
  endloop
 endfacet
 facet normal 0.000000 0.000000 1.000000
  outer loop
   vertex 226.274170 226.274170 101270.000000
   vertex 192.977373 251.493009 101270.000000
   vertex 224.152850 224.152850 101270.000000
  endloop
 endfacet
 facet normal 0.000000 0.000000 1.000000
  outer loop
   vertex 226.274170 226.274170 101270.000000
   vertex 194.803657 253.873069 101270.000000
   vertex 192.977373 251.493009 101270.000000
  endloop
 endfacet
 facet normal 0.000000 0.000000 1.000000
  outer loop
   vertex 194.803657 253.873069 101270.000000
   vertex 158.500000 274.530053 101270.000000
   vertex 192.977373 251.493009 101270.000000
  endloop
 endfacet
 facet normal 0.000000 0.000000 1.000000
  outer loop
   vertex 194.803657 253.873069 101270.000000
   vertex 160.000000 277.128129 101270.000000
   vertex 158.500000 274.530053 101270.000000
  endloop
 endfacet
 facet normal 0.000000 0.000000 1.000000
  outer loop
   vertex 160.000000 277.128129 101270.000000
   vertex 121.310648 292.869812 101270.000000
   vertex 158.500000 274.530053 101270.000000
  endloop
 endfacet
 facet normal 0.000000 0.000000 1.000000
  outer loop
   vertex 160.000000 277.128129 101270.000000
   vertex 122.458698 295.641450 101270.000000
   vertex 121.310648 292.869812 101270.000000
  endloop
 endfacet
 facet normal 0.000000 0.000000 1.000000
  outer loop
   vertex 122.458698 295.641450 101270.000000
   vertex 82.045637 306.198487 101270.000000
   vertex 121.310648 292.869812 101270.000000
  endloop
 endfacet
 facet normal 0.000000 0.000000 1.000000
  outer loop
   vertex 122.458698 295.641450 101270.000000
   vertex 82.822094 309.096264 101270.000000
   vertex 82.045637 306.198487 101270.000000
  endloop
 endfacet
 facet normal 0.000000 0.000000 1.000000
  outer loop
   vertex 82.822094 309.096264 101270.000000
   vertex 41.376803 314.288021 101270.000000
   vertex 82.045637 306.198487 101270.000000
  endloop
 endfacet
 facet normal 0.000000 0.000000 1.000000
  outer loop
   vertex 82.822094 309.096264 101270.000000
   vertex 41.768382 317.262356 101270.000000
   vertex 41.376803 314.288021 101270.000000
  endloop
 endfacet
 facet normal 0.000000 0.000000 1.000000
  outer loop
   vertex 41.768382 317.262356 101270.000000
   vertex 0.000000 317.000000 101270.000000
   vertex 41.376803 314.288021 101270.000000
  endloop
 endfacet
 facet normal 0.000000 0.000000 1.000000
  outer loop
   vertex 41.768382 317.262356 101270.000000
   vertex 0.000000 320.000000 101270.000000
   vertex 0.000000 317.000000 101270.000000
  endloop
 endfacet
 facet normal 0.000000 0.000000 1.000000
  outer loop
   vertex 0.000000 320.000000 101270.000000
   vertex -41.376803 314.288021 101270.000000
   vertex 0.000000 317.000000 101270.000000
  endloop
 endfacet
 facet normal 0.000000 0.000000 1.000000
  outer loop
   vertex 0.000000 320.000000 101270.000000
   vertex -41.768382 317.262356 101270.000000
   vertex -41.376803 314.288021 101270.000000
  endloop
 endfacet
 facet normal 0.000000 0.000000 1.000000
  outer loop
   vertex -41.768382 317.262356 101270.000000
   vertex -82.045637 306.198487 101270.000000
   vertex -41.376803 314.288021 101270.000000
  endloop
 endfacet
 facet normal 0.000000 0.000000 1.000000
  outer loop
   vertex -41.768382 317.262356 101270.000000
   vertex -82.822094 309.096264 101270.000000
   vertex -82.045637 306.198487 101270.000000
  endloop
 endfacet
 facet normal 0.000000 0.000000 1.000000
  outer loop
   vertex -82.822094 309.096264 101270.000000
   vertex -121.310648 292.869812 101270.000000
   vertex -82.045637 306.198487 101270.000000
  endloop
 endfacet
 facet normal 0.000000 0.000000 1.000000
  outer loop
   vertex -82.822094 309.096264 101270.000000
   vertex -122.458698 295.641450 101270.000000
   vertex -121.310648 292.869812 101270.000000
  endloop
 endfacet
 facet normal 0.000000 0.000000 1.000000
  outer loop
   vertex -122.458698 295.641450 101270.000000
   vertex -158.500000 274.530053 101270.000000
   vertex -121.310648 292.869812 101270.000000
  endloop
 endfacet
 facet normal 0.000000 0.000000 1.000000
  outer loop
   vertex -122.458698 295.641450 101270.000000
   vertex -160.000000 277.128129 101270.000000
   vertex -158.500000 274.530053 101270.000000
  endloop
 endfacet
 facet normal 0.000000 0.000000 1.000000
  outer loop
   vertex -160.000000 277.128129 101270.000000
   vertex -192.977373 251.493009 101270.000000
   vertex -158.500000 274.530053 101270.000000
  endloop
 endfacet
 facet normal 0.000000 0.000000 1.000000
  outer loop
   vertex -160.000000 277.128129 101270.000000
   vertex -194.803657 253.873069 101270.000000
   vertex -192.977373 251.493009 101270.000000
  endloop
 endfacet
 facet normal 0.000000 0.000000 1.000000
  outer loop
   vertex -194.803657 253.873069 101270.000000
   vertex -224.152850 224.152850 101270.000000
   vertex -192.977373 251.493009 101270.000000
  endloop
 endfacet
 facet normal 0.000000 0.000000 1.000000
  outer loop
   vertex -194.803657 253.873069 101270.000000
   vertex -226.274170 226.274170 101270.000000
   vertex -224.152850 224.152850 101270.000000
  endloop
 endfacet
 facet normal 0.000000 0.000000 1.000000
  outer loop
   vertex -226.274170 226.274170 101270.000000
   vertex -251.493009 192.977373 101270.000000
   vertex -224.152850 224.152850 101270.000000
  endloop
 endfacet
 facet normal 0.000000 0.000000 1.000000
  outer loop
   vertex -226.274170 226.274170 101270.000000
   vertex -253.873069 194.803657 101270.000000
   vertex -251.493009 192.977373 101270.000000
  endloop
 endfacet
 facet normal 0.000000 0.000000 1.000000
  outer loop
   vertex -253.873069 194.803657 101270.000000
   vertex -274.530053 158.500000 101270.000000
   vertex -251.493009 192.977373 101270.000000
  endloop
 endfacet
 facet normal 0.000000 0.000000 1.000000
  outer loop
   vertex -253.873069 194.803657 101270.000000
   vertex -277.128129 160.000000 101270.000000
   vertex -274.530053 158.500000 101270.000000
  endloop
 endfacet
 facet normal 0.000000 0.000000 1.000000
  outer loop
   vertex -277.128129 160.000000 101270.000000
   vertex -292.869812 121.310648 101270.000000
   vertex -274.530053 158.500000 101270.000000
  endloop
 endfacet
 facet normal 0.000000 0.000000 1.000000
  outer loop
   vertex -277.128129 160.000000 101270.000000
   vertex -295.641450 122.458698 101270.000000
   vertex -292.869812 121.310648 101270.000000
  endloop
 endfacet
 facet normal 0.000000 0.000000 1.000000
  outer loop
   vertex -295.641450 122.458698 101270.000000
   vertex -306.198487 82.045637 101270.000000
   vertex -292.869812 121.310648 101270.000000
  endloop
 endfacet
 facet normal 0.000000 0.000000 1.000000
  outer loop
   vertex -295.641450 122.458698 101270.000000
   vertex -309.096264 82.822094 101270.000000
   vertex -306.198487 82.045637 101270.000000
  endloop
 endfacet
 facet normal 0.000000 0.000000 1.000000
  outer loop
   vertex -309.096264 82.822094 101270.000000
   vertex -314.288021 41.376803 101270.000000
   vertex -306.198487 82.045637 101270.000000
  endloop
 endfacet
 facet normal 0.000000 0.000000 1.000000
  outer loop
   vertex -309.096264 82.822094 101270.000000
   vertex -317.262356 41.768382 101270.000000
   vertex -314.288021 41.376803 101270.000000
  endloop
 endfacet
 facet normal 0.000000 0.000000 1.000000
  outer loop
   vertex -317.262356 41.768382 101270.000000
   vertex -317.000000 0.000000 101270.000000
   vertex -314.288021 41.376803 101270.000000
  endloop
 endfacet
 facet normal 0.000000 0.000000 1.000000
  outer loop
   vertex -317.262356 41.768382 101270.000000
   vertex -320.000000 0.000000 101270.000000
   vertex -317.000000 0.000000 101270.000000
  endloop
 endfacet
 facet normal 0.000000 0.000000 1.000000
  outer loop
   vertex -320.000000 0.000000 101270.000000
   vertex -314.288021 -41.376803 101270.000000
   vertex -317.000000 0.000000 101270.000000
  endloop
 endfacet
 facet normal 0.000000 0.000000 1.000000
  outer loop
   vertex -320.000000 0.000000 101270.000000
   vertex -317.262356 -41.768382 101270.000000
   vertex -314.288021 -41.376803 101270.000000
  endloop
 endfacet
 facet normal -0.000000 0.000000 1.000000
  outer loop
   vertex -317.262356 -41.768382 101270.000000
   vertex -306.198487 -82.045637 101270.000000
   vertex -314.288021 -41.376803 101270.000000
  endloop
 endfacet
 facet normal 0.000000 0.000000 1.000000
  outer loop
   vertex -317.262356 -41.768382 101270.000000
   vertex -309.096264 -82.822094 101270.000000
   vertex -306.198487 -82.045637 101270.000000
  endloop
 endfacet
 facet normal -0.000000 0.000000 1.000000
  outer loop
   vertex -309.096264 -82.822094 101270.000000
   vertex -292.869812 -121.310648 101270.000000
   vertex -306.198487 -82.045637 101270.000000
  endloop
 endfacet
 facet normal 0.000000 0.000000 1.000000
  outer loop
   vertex -309.096264 -82.822094 101270.000000
   vertex -295.641450 -122.458698 101270.000000
   vertex -292.869812 -121.310648 101270.000000
  endloop
 endfacet
 facet normal -0.000000 0.000000 1.000000
  outer loop
   vertex -295.641450 -122.458698 101270.000000
   vertex -274.530053 -158.500000 101270.000000
   vertex -292.869812 -121.310648 101270.000000
  endloop
 endfacet
 facet normal 0.000000 0.000000 1.000000
  outer loop
   vertex -295.641450 -122.458698 101270.000000
   vertex -277.128129 -160.000000 101270.000000
   vertex -274.530053 -158.500000 101270.000000
  endloop
 endfacet
 facet normal -0.000000 0.000000 1.000000
  outer loop
   vertex -277.128129 -160.000000 101270.000000
   vertex -251.493009 -192.977373 101270.000000
   vertex -274.530053 -158.500000 101270.000000
  endloop
 endfacet
 facet normal 0.000000 0.000000 1.000000
  outer loop
   vertex -277.128129 -160.000000 101270.000000
   vertex -253.873069 -194.803657 101270.000000
   vertex -251.493009 -192.977373 101270.000000
  endloop
 endfacet
 facet normal -0.000000 0.000000 1.000000
  outer loop
   vertex -253.873069 -194.803657 101270.000000
   vertex -224.152850 -224.152850 101270.000000
   vertex -251.493009 -192.977373 101270.000000
  endloop
 endfacet
 facet normal 0.000000 0.000000 1.000000
  outer loop
   vertex -253.873069 -194.803657 101270.000000
   vertex -226.274170 -226.274170 101270.000000
   vertex -224.152850 -224.152850 101270.000000
  endloop
 endfacet
 facet normal -0.000000 0.000000 1.000000
  outer loop
   vertex -226.274170 -226.274170 101270.000000
   vertex -192.977373 -251.493009 101270.000000
   vertex -224.152850 -224.152850 101270.000000
  endloop
 endfacet
 facet normal 0.000000 0.000000 1.000000
  outer loop
   vertex -226.274170 -226.274170 101270.000000
   vertex -194.803657 -253.873069 101270.000000
   vertex -192.977373 -251.493009 101270.000000
  endloop
 endfacet
 facet normal -0.000000 0.000000 1.000000
  outer loop
   vertex -194.803657 -253.873069 101270.000000
   vertex -158.500000 -274.530053 101270.000000
   vertex -192.977373 -251.493009 101270.000000
  endloop
 endfacet
 facet normal 0.000000 0.000000 1.000000
  outer loop
   vertex -194.803657 -253.873069 101270.000000
   vertex -160.000000 -277.128129 101270.000000
   vertex -158.500000 -274.530053 101270.000000
  endloop
 endfacet
 facet normal -0.000000 0.000000 1.000000
  outer loop
   vertex -160.000000 -277.128129 101270.000000
   vertex -121.310648 -292.869812 101270.000000
   vertex -158.500000 -274.530053 101270.000000
  endloop
 endfacet
 facet normal 0.000000 0.000000 1.000000
  outer loop
   vertex -160.000000 -277.128129 101270.000000
   vertex -122.458698 -295.641450 101270.000000
   vertex -121.310648 -292.869812 101270.000000
  endloop
 endfacet
 facet normal -0.000000 0.000000 1.000000
  outer loop
   vertex -122.458698 -295.641450 101270.000000
   vertex -82.045637 -306.198487 101270.000000
   vertex -121.310648 -292.869812 101270.000000
  endloop
 endfacet
 facet normal 0.000000 0.000000 1.000000
  outer loop
   vertex -122.458698 -295.641450 101270.000000
   vertex -82.822094 -309.096264 101270.000000
   vertex -82.045637 -306.198487 101270.000000
  endloop
 endfacet
 facet normal -0.000000 0.000000 1.000000
  outer loop
   vertex -82.822094 -309.096264 101270.000000
   vertex -41.376803 -314.288021 101270.000000
   vertex -82.045637 -306.198487 101270.000000
  endloop
 endfacet
 facet normal 0.000000 0.000000 1.000000
  outer loop
   vertex -82.822094 -309.096264 101270.000000
   vertex -41.768382 -317.262356 101270.000000
   vertex -41.376803 -314.288021 101270.000000
  endloop
 endfacet
 facet normal 0.000000 0.000000 1.000000
  outer loop
   vertex -41.768382 -317.262356 101270.000000
   vertex -0.000000 -317.000000 101270.000000
   vertex -41.376803 -314.288021 101270.000000
  endloop
 endfacet
 facet normal -0.000000 0.000000 1.000000
  outer loop
   vertex -41.768382 -317.262356 101270.000000
   vertex -0.000000 -320.000000 101270.000000
   vertex -0.000000 -317.000000 101270.000000
  endloop
 endfacet
 facet normal 0.000000 0.000000 1.000000
  outer loop
   vertex -0.000000 -320.000000 101270.000000
   vertex 41.376803 -314.288021 101270.000000
   vertex -0.000000 -317.000000 101270.000000
  endloop
 endfacet
 facet normal 0.000000 0.000000 1.000000
  outer loop
   vertex -0.000000 -320.000000 101270.000000
   vertex 41.768382 -317.262356 101270.000000
   vertex 41.376803 -314.288021 101270.000000
  endloop
 endfacet
 facet normal 0.000000 -0.000000 1.000000
  outer loop
   vertex 41.768382 -317.262356 101270.000000
   vertex 82.045637 -306.198487 101270.000000
   vertex 41.376803 -314.288021 101270.000000
  endloop
 endfacet
 facet normal 0.000000 0.000000 1.000000
  outer loop
   vertex 41.768382 -317.262356 101270.000000
   vertex 82.822094 -309.096264 101270.000000
   vertex 82.045637 -306.198487 101270.000000
  endloop
 endfacet
 facet normal 0.000000 -0.000000 1.000000
  outer loop
   vertex 82.822094 -309.096264 101270.000000
   vertex 121.310648 -292.869812 101270.000000
   vertex 82.045637 -306.198487 101270.000000
  endloop
 endfacet
 facet normal 0.000000 0.000000 1.000000
  outer loop
   vertex 82.822094 -309.096264 101270.000000
   vertex 122.458698 -295.641450 101270.000000
   vertex 121.310648 -292.869812 101270.000000
  endloop
 endfacet
 facet normal 0.000000 -0.000000 1.000000
  outer loop
   vertex 122.458698 -295.641450 101270.000000
   vertex 158.500000 -274.530053 101270.000000
   vertex 121.310648 -292.869812 101270.000000
  endloop
 endfacet
 facet normal 0.000000 0.000000 1.000000
  outer loop
   vertex 122.458698 -295.641450 101270.000000
   vertex 160.000000 -277.128129 101270.000000
   vertex 158.500000 -274.530053 101270.000000
  endloop
 endfacet
 facet normal 0.000000 -0.000000 1.000000
  outer loop
   vertex 160.000000 -277.128129 101270.000000
   vertex 192.977373 -251.493009 101270.000000
   vertex 158.500000 -274.530053 101270.000000
  endloop
 endfacet
 facet normal 0.000000 0.000000 1.000000
  outer loop
   vertex 160.000000 -277.128129 101270.000000
   vertex 194.803657 -253.873069 101270.000000
   vertex 192.977373 -251.493009 101270.000000
  endloop
 endfacet
 facet normal 0.000000 -0.000000 1.000000
  outer loop
   vertex 194.803657 -253.873069 101270.000000
   vertex 224.152850 -224.152850 101270.000000
   vertex 192.977373 -251.493009 101270.000000
  endloop
 endfacet
 facet normal 0.000000 0.000000 1.000000
  outer loop
   vertex 194.803657 -253.873069 101270.000000
   vertex 226.274170 -226.274170 101270.000000
   vertex 224.152850 -224.152850 101270.000000
  endloop
 endfacet
 facet normal 0.000000 -0.000000 1.000000
  outer loop
   vertex 226.274170 -226.274170 101270.000000
   vertex 251.493009 -192.977373 101270.000000
   vertex 224.152850 -224.152850 101270.000000
  endloop
 endfacet
 facet normal 0.000000 0.000000 1.000000
  outer loop
   vertex 226.274170 -226.274170 101270.000000
   vertex 253.873069 -194.803657 101270.000000
   vertex 251.493009 -192.977373 101270.000000
  endloop
 endfacet
 facet normal 0.000000 -0.000000 1.000000
  outer loop
   vertex 253.873069 -194.803657 101270.000000
   vertex 274.530053 -158.500000 101270.000000
   vertex 251.493009 -192.977373 101270.000000
  endloop
 endfacet
 facet normal 0.000000 0.000000 1.000000
  outer loop
   vertex 253.873069 -194.803657 101270.000000
   vertex 277.128129 -160.000000 101270.000000
   vertex 274.530053 -158.500000 101270.000000
  endloop
 endfacet
 facet normal 0.000000 -0.000000 1.000000
  outer loop
   vertex 277.128129 -160.000000 101270.000000
   vertex 292.869812 -121.310648 101270.000000
   vertex 274.530053 -158.500000 101270.000000
  endloop
 endfacet
 facet normal 0.000000 0.000000 1.000000
  outer loop
   vertex 277.128129 -160.000000 101270.000000
   vertex 295.641450 -122.458698 101270.000000
   vertex 292.869812 -121.310648 101270.000000
  endloop
 endfacet
 facet normal 0.000000 -0.000000 1.000000
  outer loop
   vertex 295.641450 -122.458698 101270.000000
   vertex 306.198487 -82.045637 101270.000000
   vertex 292.869812 -121.310648 101270.000000
  endloop
 endfacet
 facet normal 0.000000 0.000000 1.000000
  outer loop
   vertex 295.641450 -122.458698 101270.000000
   vertex 309.096264 -82.822094 101270.000000
   vertex 306.198487 -82.045637 101270.000000
  endloop
 endfacet
 facet normal 0.000000 -0.000000 1.000000
  outer loop
   vertex 309.096264 -82.822094 101270.000000
   vertex 314.288021 -41.376803 101270.000000
   vertex 306.198487 -82.045637 101270.000000
  endloop
 endfacet
 facet normal 0.000000 0.000000 1.000000
  outer loop
   vertex 309.096264 -82.822094 101270.000000
   vertex 317.262356 -41.768382 101270.000000
   vertex 314.288021 -41.376803 101270.000000
  endloop
 endfacet
 facet normal 0.000000 0.000000 1.000000
  outer loop
   vertex 317.262356 -41.768382 101270.000000
   vertex 317.000000 0.000000 101270.000000
   vertex 314.288021 -41.376803 101270.000000
  endloop
 endfacet
 facet normal 0.000000 -0.000000 1.000000
  outer loop
   vertex 317.262356 -41.768382 101270.000000
   vertex 320.000000 0.000000 101270.000000
   vertex 317.000000 0.000000 101270.000000
  endloop
 endfacet
 facet normal 0.000000 0.000000 -1.000000
  outer loop
   vertex 320.000000 0.000000 102270.000000
   vertex 317.000000 0.000000 102270.000000
   vertex 314.288021 41.376803 102270.000000
  endloop
 endfacet
 facet normal 0.000000 0.000000 -1.000000
  outer loop
   vertex 320.000000 0.000000 102270.000000
   vertex 314.288021 41.376803 102270.000000
   vertex 317.262356 41.768382 102270.000000
  endloop
 endfacet
 facet normal -0.000000 0.000000 -1.000000
  outer loop
   vertex 317.262356 41.768382 102270.000000
   vertex 314.288021 41.376803 102270.000000
   vertex 306.198487 82.045637 102270.000000
  endloop
 endfacet
 facet normal 0.000000 0.000000 -1.000000
  outer loop
   vertex 317.262356 41.768382 102270.000000
   vertex 306.198487 82.045637 102270.000000
   vertex 309.096264 82.822094 102270.000000
  endloop
 endfacet
 facet normal -0.000000 0.000000 -1.000000
  outer loop
   vertex 309.096264 82.822094 102270.000000
   vertex 306.198487 82.045637 102270.000000
   vertex 292.869812 121.310648 102270.000000
  endloop
 endfacet
 facet normal 0.000000 0.000000 -1.000000
  outer loop
   vertex 309.096264 82.822094 102270.000000
   vertex 292.869812 121.310648 102270.000000
   vertex 295.641450 122.458698 102270.000000
  endloop
 endfacet
 facet normal -0.000000 0.000000 -1.000000
  outer loop
   vertex 295.641450 122.458698 102270.000000
   vertex 292.869812 121.310648 102270.000000
   vertex 274.530053 158.500000 102270.000000
  endloop
 endfacet
 facet normal 0.000000 0.000000 -1.000000
  outer loop
   vertex 295.641450 122.458698 102270.000000
   vertex 274.530053 158.500000 102270.000000
   vertex 277.128129 160.000000 102270.000000
  endloop
 endfacet
 facet normal -0.000000 0.000000 -1.000000
  outer loop
   vertex 277.128129 160.000000 102270.000000
   vertex 274.530053 158.500000 102270.000000
   vertex 251.493009 192.977373 102270.000000
  endloop
 endfacet
 facet normal 0.000000 0.000000 -1.000000
  outer loop
   vertex 277.128129 160.000000 102270.000000
   vertex 251.493009 192.977373 102270.000000
   vertex 253.873069 194.803657 102270.000000
  endloop
 endfacet
 facet normal -0.000000 0.000000 -1.000000
  outer loop
   vertex 253.873069 194.803657 102270.000000
   vertex 251.493009 192.977373 102270.000000
   vertex 224.152850 224.152850 102270.000000
  endloop
 endfacet
 facet normal 0.000000 0.000000 -1.000000
  outer loop
   vertex 253.873069 194.803657 102270.000000
   vertex 224.152850 224.152850 102270.000000
   vertex 226.274170 226.274170 102270.000000
  endloop
 endfacet
 facet normal -0.000000 0.000000 -1.000000
  outer loop
   vertex 226.274170 226.274170 102270.000000
   vertex 224.152850 224.152850 102270.000000
   vertex 192.977373 251.493009 102270.000000
  endloop
 endfacet
 facet normal 0.000000 0.000000 -1.000000
  outer loop
   vertex 226.274170 226.274170 102270.000000
   vertex 192.977373 251.493009 102270.000000
   vertex 194.803657 253.873069 102270.000000
  endloop
 endfacet
 facet normal -0.000000 0.000000 -1.000000
  outer loop
   vertex 194.803657 253.873069 102270.000000
   vertex 192.977373 251.493009 102270.000000
   vertex 158.500000 274.530053 102270.000000
  endloop
 endfacet
 facet normal 0.000000 0.000000 -1.000000
  outer loop
   vertex 194.803657 253.873069 102270.000000
   vertex 158.500000 274.530053 102270.000000
   vertex 160.000000 277.128129 102270.000000
  endloop
 endfacet
 facet normal -0.000000 0.000000 -1.000000
  outer loop
   vertex 160.000000 277.128129 102270.000000
   vertex 158.500000 274.530053 102270.000000
   vertex 121.310648 292.869812 102270.000000
  endloop
 endfacet
 facet normal 0.000000 0.000000 -1.000000
  outer loop
   vertex 160.000000 277.128129 102270.000000
   vertex 121.310648 292.869812 102270.000000
   vertex 122.458698 295.641450 102270.000000
  endloop
 endfacet
 facet normal -0.000000 0.000000 -1.000000
  outer loop
   vertex 122.458698 295.641450 102270.000000
   vertex 121.310648 292.869812 102270.000000
   vertex 82.045637 306.198487 102270.000000
  endloop
 endfacet
 facet normal 0.000000 0.000000 -1.000000
  outer loop
   vertex 122.458698 295.641450 102270.000000
   vertex 82.045637 306.198487 102270.000000
   vertex 82.822094 309.096264 102270.000000
  endloop
 endfacet
 facet normal -0.000000 0.000000 -1.000000
  outer loop
   vertex 82.822094 309.096264 102270.000000
   vertex 82.045637 306.198487 102270.000000
   vertex 41.376803 314.288021 102270.000000
  endloop
 endfacet
 facet normal 0.000000 0.000000 -1.000000
  outer loop
   vertex 82.822094 309.096264 102270.000000
   vertex 41.376803 314.288021 102270.000000
   vertex 41.768382 317.262356 102270.000000
  endloop
 endfacet
 facet normal 0.000000 0.000000 -1.000000
  outer loop
   vertex 41.768382 317.262356 102270.000000
   vertex 41.376803 314.288021 102270.000000
   vertex 0.000000 317.000000 102270.000000
  endloop
 endfacet
 facet normal -0.000000 0.000000 -1.000000
  outer loop
   vertex 41.768382 317.262356 102270.000000
   vertex 0.000000 317.000000 102270.000000
   vertex 0.000000 320.000000 102270.000000
  endloop
 endfacet
 facet normal 0.000000 0.000000 -1.000000
  outer loop
   vertex 0.000000 320.000000 102270.000000
   vertex 0.000000 317.000000 102270.000000
   vertex -41.376803 314.288021 102270.000000
  endloop
 endfacet
 facet normal 0.000000 0.000000 -1.000000
  outer loop
   vertex 0.000000 320.000000 102270.000000
   vertex -41.376803 314.288021 102270.000000
   vertex -41.768382 317.262356 102270.000000
  endloop
 endfacet
 facet normal 0.000000 -0.000000 -1.000000
  outer loop
   vertex -41.768382 317.262356 102270.000000
   vertex -41.376803 314.288021 102270.000000
   vertex -82.045637 306.198487 102270.000000
  endloop
 endfacet
 facet normal 0.000000 0.000000 -1.000000
  outer loop
   vertex -41.768382 317.262356 102270.000000
   vertex -82.045637 306.198487 102270.000000
   vertex -82.822094 309.096264 102270.000000
  endloop
 endfacet
 facet normal 0.000000 -0.000000 -1.000000
  outer loop
   vertex -82.822094 309.096264 102270.000000
   vertex -82.045637 306.198487 102270.000000
   vertex -121.310648 292.869812 102270.000000
  endloop
 endfacet
 facet normal 0.000000 0.000000 -1.000000
  outer loop
   vertex -82.822094 309.096264 102270.000000
   vertex -121.310648 292.869812 102270.000000
   vertex -122.458698 295.641450 102270.000000
  endloop
 endfacet
 facet normal 0.000000 -0.000000 -1.000000
  outer loop
   vertex -122.458698 295.641450 102270.000000
   vertex -121.310648 292.869812 102270.000000
   vertex -158.500000 274.530053 102270.000000
  endloop
 endfacet
 facet normal 0.000000 0.000000 -1.000000
  outer loop
   vertex -122.458698 295.641450 102270.000000
   vertex -158.500000 274.530053 102270.000000
   vertex -160.000000 277.128129 102270.000000
  endloop
 endfacet
 facet normal 0.000000 -0.000000 -1.000000
  outer loop
   vertex -160.000000 277.128129 102270.000000
   vertex -158.500000 274.530053 102270.000000
   vertex -192.977373 251.493009 102270.000000
  endloop
 endfacet
 facet normal 0.000000 0.000000 -1.000000
  outer loop
   vertex -160.000000 277.128129 102270.000000
   vertex -192.977373 251.493009 102270.000000
   vertex -194.803657 253.873069 102270.000000
  endloop
 endfacet
 facet normal 0.000000 -0.000000 -1.000000
  outer loop
   vertex -194.803657 253.873069 102270.000000
   vertex -192.977373 251.493009 102270.000000
   vertex -224.152850 224.152850 102270.000000
  endloop
 endfacet
 facet normal 0.000000 0.000000 -1.000000
  outer loop
   vertex -194.803657 253.873069 102270.000000
   vertex -224.152850 224.152850 102270.000000
   vertex -226.274170 226.274170 102270.000000
  endloop
 endfacet
 facet normal 0.000000 -0.000000 -1.000000
  outer loop
   vertex -226.274170 226.274170 102270.000000
   vertex -224.152850 224.152850 102270.000000
   vertex -251.493009 192.977373 102270.000000
  endloop
 endfacet
 facet normal 0.000000 0.000000 -1.000000
  outer loop
   vertex -226.274170 226.274170 102270.000000
   vertex -251.493009 192.977373 102270.000000
   vertex -253.873069 194.803657 102270.000000
  endloop
 endfacet
 facet normal 0.000000 -0.000000 -1.000000
  outer loop
   vertex -253.873069 194.803657 102270.000000
   vertex -251.493009 192.977373 102270.000000
   vertex -274.530053 158.500000 102270.000000
  endloop
 endfacet
 facet normal 0.000000 0.000000 -1.000000
  outer loop
   vertex -253.873069 194.803657 102270.000000
   vertex -274.530053 158.500000 102270.000000
   vertex -277.128129 160.000000 102270.000000
  endloop
 endfacet
 facet normal 0.000000 -0.000000 -1.000000
  outer loop
   vertex -277.128129 160.000000 102270.000000
   vertex -274.530053 158.500000 102270.000000
   vertex -292.869812 121.310648 102270.000000
  endloop
 endfacet
 facet normal 0.000000 0.000000 -1.000000
  outer loop
   vertex -277.128129 160.000000 102270.000000
   vertex -292.869812 121.310648 102270.000000
   vertex -295.641450 122.458698 102270.000000
  endloop
 endfacet
 facet normal 0.000000 -0.000000 -1.000000
  outer loop
   vertex -295.641450 122.458698 102270.000000
   vertex -292.869812 121.310648 102270.000000
   vertex -306.198487 82.045637 102270.000000
  endloop
 endfacet
 facet normal 0.000000 0.000000 -1.000000
  outer loop
   vertex -295.641450 122.458698 102270.000000
   vertex -306.198487 82.045637 102270.000000
   vertex -309.096264 82.822094 102270.000000
  endloop
 endfacet
 facet normal 0.000000 -0.000000 -1.000000
  outer loop
   vertex -309.096264 82.822094 102270.000000
   vertex -306.198487 82.045637 102270.000000
   vertex -314.288021 41.376803 102270.000000
  endloop
 endfacet
 facet normal 0.000000 0.000000 -1.000000
  outer loop
   vertex -309.096264 82.822094 102270.000000
   vertex -314.288021 41.376803 102270.000000
   vertex -317.262356 41.768382 102270.000000
  endloop
 endfacet
 facet normal 0.000000 0.000000 -1.000000
  outer loop
   vertex -317.262356 41.768382 102270.000000
   vertex -314.288021 41.376803 102270.000000
   vertex -317.000000 0.000000 102270.000000
  endloop
 endfacet
 facet normal 0.000000 -0.000000 -1.000000
  outer loop
   vertex -317.262356 41.768382 102270.000000
   vertex -317.000000 0.000000 102270.000000
   vertex -320.000000 0.000000 102270.000000
  endloop
 endfacet
 facet normal 0.000000 0.000000 -1.000000
  outer loop
   vertex -320.000000 0.000000 102270.000000
   vertex -317.000000 0.000000 102270.000000
   vertex -314.288021 -41.376803 102270.000000
  endloop
 endfacet
 facet normal 0.000000 0.000000 -1.000000
  outer loop
   vertex -320.000000 0.000000 102270.000000
   vertex -314.288021 -41.376803 102270.000000
   vertex -317.262356 -41.768382 102270.000000
  endloop
 endfacet
 facet normal 0.000000 0.000000 -1.000000
  outer loop
   vertex -317.262356 -41.768382 102270.000000
   vertex -314.288021 -41.376803 102270.000000
   vertex -306.198487 -82.045637 102270.000000
  endloop
 endfacet
 facet normal 0.000000 0.000000 -1.000000
  outer loop
   vertex -317.262356 -41.768382 102270.000000
   vertex -306.198487 -82.045637 102270.000000
   vertex -309.096264 -82.822094 102270.000000
  endloop
 endfacet
 facet normal 0.000000 0.000000 -1.000000
  outer loop
   vertex -309.096264 -82.822094 102270.000000
   vertex -306.198487 -82.045637 102270.000000
   vertex -292.869812 -121.310648 102270.000000
  endloop
 endfacet
 facet normal 0.000000 0.000000 -1.000000
  outer loop
   vertex -309.096264 -82.822094 102270.000000
   vertex -292.869812 -121.310648 102270.000000
   vertex -295.641450 -122.458698 102270.000000
  endloop
 endfacet
 facet normal 0.000000 0.000000 -1.000000
  outer loop
   vertex -295.641450 -122.458698 102270.000000
   vertex -292.869812 -121.310648 102270.000000
   vertex -274.530053 -158.500000 102270.000000
  endloop
 endfacet
 facet normal 0.000000 0.000000 -1.000000
  outer loop
   vertex -295.641450 -122.458698 102270.000000
   vertex -274.530053 -158.500000 102270.000000
   vertex -277.128129 -160.000000 102270.000000
  endloop
 endfacet
 facet normal 0.000000 0.000000 -1.000000
  outer loop
   vertex -277.128129 -160.000000 102270.000000
   vertex -274.530053 -158.500000 102270.000000
   vertex -251.493009 -192.977373 102270.000000
  endloop
 endfacet
 facet normal 0.000000 0.000000 -1.000000
  outer loop
   vertex -277.128129 -160.000000 102270.000000
   vertex -251.493009 -192.977373 102270.000000
   vertex -253.873069 -194.803657 102270.000000
  endloop
 endfacet
 facet normal 0.000000 0.000000 -1.000000
  outer loop
   vertex -253.873069 -194.803657 102270.000000
   vertex -251.493009 -192.977373 102270.000000
   vertex -224.152850 -224.152850 102270.000000
  endloop
 endfacet
 facet normal 0.000000 0.000000 -1.000000
  outer loop
   vertex -253.873069 -194.803657 102270.000000
   vertex -224.152850 -224.152850 102270.000000
   vertex -226.274170 -226.274170 102270.000000
  endloop
 endfacet
 facet normal 0.000000 0.000000 -1.000000
  outer loop
   vertex -226.274170 -226.274170 102270.000000
   vertex -224.152850 -224.152850 102270.000000
   vertex -192.977373 -251.493009 102270.000000
  endloop
 endfacet
 facet normal 0.000000 0.000000 -1.000000
  outer loop
   vertex -226.274170 -226.274170 102270.000000
   vertex -192.977373 -251.493009 102270.000000
   vertex -194.803657 -253.873069 102270.000000
  endloop
 endfacet
 facet normal 0.000000 0.000000 -1.000000
  outer loop
   vertex -194.803657 -253.873069 102270.000000
   vertex -192.977373 -251.493009 102270.000000
   vertex -158.500000 -274.530053 102270.000000
  endloop
 endfacet
 facet normal 0.000000 0.000000 -1.000000
  outer loop
   vertex -194.803657 -253.873069 102270.000000
   vertex -158.500000 -274.530053 102270.000000
   vertex -160.000000 -277.128129 102270.000000
  endloop
 endfacet
 facet normal 0.000000 0.000000 -1.000000
  outer loop
   vertex -160.000000 -277.128129 102270.000000
   vertex -158.500000 -274.530053 102270.000000
   vertex -121.310648 -292.869812 102270.000000
  endloop
 endfacet
 facet normal 0.000000 0.000000 -1.000000
  outer loop
   vertex -160.000000 -277.128129 102270.000000
   vertex -121.310648 -292.869812 102270.000000
   vertex -122.458698 -295.641450 102270.000000
  endloop
 endfacet
 facet normal 0.000000 0.000000 -1.000000
  outer loop
   vertex -122.458698 -295.641450 102270.000000
   vertex -121.310648 -292.869812 102270.000000
   vertex -82.045637 -306.198487 102270.000000
  endloop
 endfacet
 facet normal 0.000000 0.000000 -1.000000
  outer loop
   vertex -122.458698 -295.641450 102270.000000
   vertex -82.045637 -306.198487 102270.000000
   vertex -82.822094 -309.096264 102270.000000
  endloop
 endfacet
 facet normal 0.000000 0.000000 -1.000000
  outer loop
   vertex -82.822094 -309.096264 102270.000000
   vertex -82.045637 -306.198487 102270.000000
   vertex -41.376803 -314.288021 102270.000000
  endloop
 endfacet
 facet normal 0.000000 0.000000 -1.000000
  outer loop
   vertex -82.822094 -309.096264 102270.000000
   vertex -41.376803 -314.288021 102270.000000
   vertex -41.768382 -317.262356 102270.000000
  endloop
 endfacet
 facet normal 0.000000 0.000000 -1.000000
  outer loop
   vertex -41.768382 -317.262356 102270.000000
   vertex -41.376803 -314.288021 102270.000000
   vertex -0.000000 -317.000000 102270.000000
  endloop
 endfacet
 facet normal 0.000000 0.000000 -1.000000
  outer loop
   vertex -41.768382 -317.262356 102270.000000
   vertex -0.000000 -317.000000 102270.000000
   vertex -0.000000 -320.000000 102270.000000
  endloop
 endfacet
 facet normal 0.000000 0.000000 -1.000000
  outer loop
   vertex -0.000000 -320.000000 102270.000000
   vertex -0.000000 -317.000000 102270.000000
   vertex 41.376803 -314.288021 102270.000000
  endloop
 endfacet
 facet normal 0.000000 0.000000 -1.000000
  outer loop
   vertex -0.000000 -320.000000 102270.000000
   vertex 41.376803 -314.288021 102270.000000
   vertex 41.768382 -317.262356 102270.000000
  endloop
 endfacet
 facet normal 0.000000 0.000000 -1.000000
  outer loop
   vertex 41.768382 -317.262356 102270.000000
   vertex 41.376803 -314.288021 102270.000000
   vertex 82.045637 -306.198487 102270.000000
  endloop
 endfacet
 facet normal 0.000000 0.000000 -1.000000
  outer loop
   vertex 41.768382 -317.262356 102270.000000
   vertex 82.045637 -306.198487 102270.000000
   vertex 82.822094 -309.096264 102270.000000
  endloop
 endfacet
 facet normal 0.000000 0.000000 -1.000000
  outer loop
   vertex 82.822094 -309.096264 102270.000000
   vertex 82.045637 -306.198487 102270.000000
   vertex 121.310648 -292.869812 102270.000000
  endloop
 endfacet
 facet normal 0.000000 0.000000 -1.000000
  outer loop
   vertex 82.822094 -309.096264 102270.000000
   vertex 121.310648 -292.869812 102270.000000
   vertex 122.458698 -295.641450 102270.000000
  endloop
 endfacet
 facet normal 0.000000 0.000000 -1.000000
  outer loop
   vertex 122.458698 -295.641450 102270.000000
   vertex 121.310648 -292.869812 102270.000000
   vertex 158.500000 -274.530053 102270.000000
  endloop
 endfacet
 facet normal 0.000000 0.000000 -1.000000
  outer loop
   vertex 122.458698 -295.641450 102270.000000
   vertex 158.500000 -274.530053 102270.000000
   vertex 160.000000 -277.128129 102270.000000
  endloop
 endfacet
 facet normal 0.000000 0.000000 -1.000000
  outer loop
   vertex 160.000000 -277.128129 102270.000000
   vertex 158.500000 -274.530053 102270.000000
   vertex 192.977373 -251.493009 102270.000000
  endloop
 endfacet
 facet normal 0.000000 0.000000 -1.000000
  outer loop
   vertex 160.000000 -277.128129 102270.000000
   vertex 192.977373 -251.493009 102270.000000
   vertex 194.803657 -253.873069 102270.000000
  endloop
 endfacet
 facet normal 0.000000 0.000000 -1.000000
  outer loop
   vertex 194.803657 -253.873069 102270.000000
   vertex 192.977373 -251.493009 102270.000000
   vertex 224.152850 -224.152850 102270.000000
  endloop
 endfacet
 facet normal 0.000000 0.000000 -1.000000
  outer loop
   vertex 194.803657 -253.873069 102270.000000
   vertex 224.152850 -224.152850 102270.000000
   vertex 226.274170 -226.274170 102270.000000
  endloop
 endfacet
 facet normal 0.000000 0.000000 -1.000000
  outer loop
   vertex 226.274170 -226.274170 102270.000000
   vertex 224.152850 -224.152850 102270.000000
   vertex 251.493009 -192.977373 102270.000000
  endloop
 endfacet
 facet normal 0.000000 0.000000 -1.000000
  outer loop
   vertex 226.274170 -226.274170 102270.000000
   vertex 251.493009 -192.977373 102270.000000
   vertex 253.873069 -194.803657 102270.000000
  endloop
 endfacet
 facet normal 0.000000 0.000000 -1.000000
  outer loop
   vertex 253.873069 -194.803657 102270.000000
   vertex 251.493009 -192.977373 102270.000000
   vertex 274.530053 -158.500000 102270.000000
  endloop
 endfacet
 facet normal 0.000000 0.000000 -1.000000
  outer loop
   vertex 253.873069 -194.803657 102270.000000
   vertex 274.530053 -158.500000 102270.000000
   vertex 277.128129 -160.000000 102270.000000
  endloop
 endfacet
 facet normal 0.000000 0.000000 -1.000000
  outer loop
   vertex 277.128129 -160.000000 102270.000000
   vertex 274.530053 -158.500000 102270.000000
   vertex 292.869812 -121.310648 102270.000000
  endloop
 endfacet
 facet normal 0.000000 0.000000 -1.000000
  outer loop
   vertex 277.128129 -160.000000 102270.000000
   vertex 292.869812 -121.310648 102270.000000
   vertex 295.641450 -122.458698 102270.000000
  endloop
 endfacet
 facet normal 0.000000 0.000000 -1.000000
  outer loop
   vertex 295.641450 -122.458698 102270.000000
   vertex 292.869812 -121.310648 102270.000000
   vertex 306.198487 -82.045637 102270.000000
  endloop
 endfacet
 facet normal 0.000000 0.000000 -1.000000
  outer loop
   vertex 295.641450 -122.458698 102270.000000
   vertex 306.198487 -82.045637 102270.000000
   vertex 309.096264 -82.822094 102270.000000
  endloop
 endfacet
 facet normal 0.000000 0.000000 -1.000000
  outer loop
   vertex 309.096264 -82.822094 102270.000000
   vertex 306.198487 -82.045637 102270.000000
   vertex 314.288021 -41.376803 102270.000000
  endloop
 endfacet
 facet normal 0.000000 0.000000 -1.000000
  outer loop
   vertex 309.096264 -82.822094 102270.000000
   vertex 314.288021 -41.376803 102270.000000
   vertex 317.262356 -41.768382 102270.000000
  endloop
 endfacet
 facet normal 0.000000 0.000000 -1.000000
  outer loop
   vertex 317.262356 -41.768382 102270.000000
   vertex 314.288021 -41.376803 102270.000000
   vertex 317.000000 0.000000 102270.000000
  endloop
 endfacet
 facet normal 0.000000 0.000000 -1.000000
  outer loop
   vertex 317.262356 -41.768382 102270.000000
   vertex 317.000000 0.000000 102270.000000
   vertex 320.000000 0.000000 102270.000000
  endloop
 endfacet
endsolid part
