solid SIC_RP1_riser
 facet normal 0.054105 0.997859 0.036745
  outer loop
   vertex 1900.000000 82.500000 1200.000000
   vertex 1908.908227 81.794201 1206.049972
   vertex 3178.908227 81.794201 -663.950028
  endloop
 endfacet
 facet normal 0.054105 0.997859 0.036745
  outer loop
   vertex 1900.000000 82.500000 1200.000000
   vertex 3178.908227 81.794201 -663.950028
   vertex 3170.000000 82.500000 -670.000000
  endloop
 endfacet
 facet normal 0.161390 0.980785 0.109607
  outer loop
   vertex 1908.908227 81.794201 1206.049972
   vertex 1917.664032 79.688881 1211.996428
   vertex 3187.664032 79.688881 -658.003572
  endloop
 endfacet
 facet normal 0.161390 0.980785 0.109607
  outer loop
   vertex 1908.908227 81.794201 1206.049972
   vertex 3187.664032 79.688881 -658.003572
   vertex 3178.908227 81.794201 -663.950028
  endloop
 endfacet
 facet normal 0.265913 0.946930 0.180593
  outer loop
   vertex 1917.664032 79.688881 1211.996428
   vertex 1926.117600 76.220061 1217.737621
   vertex 3196.117600 76.220061 -652.262379
  endloop
 endfacet
 facet normal 0.265913 0.946930 0.180593
  outer loop
   vertex 1917.664032 79.688881 1211.996428
   vertex 3196.117600 76.220061 -652.262379
   vertex 3187.664032 79.688881 -658.003572
  endloop
 endfacet
 facet normal 0.365886 0.896873 0.248489
  outer loop
   vertex 1926.117600 76.220061 1217.737621
   vertex 1934.124289 71.447096 1223.175319
   vertex 3204.124289 71.447096 -646.824681
  endloop
 endfacet
 facet normal 0.365886 0.896873 0.248489
  outer loop
   vertex 1926.117600 76.220061 1217.737621
   vertex 3204.124289 71.447096 -646.824681
   vertex 3196.117600 76.220061 -652.262379
  endloop
 endfacet
 facet normal 0.459599 0.831470 0.312134
  outer loop
   vertex 1934.124289 71.447096 1223.175319
   vertex 1941.547102 65.451651 1228.216481
   vertex 3211.547102 65.451651 -641.783519
  endloop
 endfacet
 facet normal 0.459599 0.831470 0.312134
  outer loop
   vertex 1934.124289 71.447096 1223.175319
   vertex 3211.547102 65.451651 -641.783519
   vertex 3204.124289 71.447096 -646.824681
  endloop
 endfacet
 facet normal 0.545447 0.751840 0.370438
  outer loop
   vertex 1941.547102 65.451651 1228.216481
   vertex 1948.259032 58.336309 1232.774851
   vertex 3218.259032 58.336309 -637.225149
  endloop
 endfacet
 facet normal 0.545447 0.751840 0.370438
  outer loop
   vertex 1941.547102 65.451651 1228.216481
   vertex 3218.259032 58.336309 -637.225149
   vertex 3211.547102 65.451651 -641.783519
  endloop
 endfacet
 facet normal 0.621964 0.659346 0.422403
  outer loop
   vertex 1948.259032 58.336309 1232.774851
   vertex 1954.145237 50.222818 1236.772434
   vertex 3224.145237 50.222818 -633.227566
  endloop
 endfacet
 facet normal 0.621964 0.659346 0.422403
  outer loop
   vertex 1948.259032 58.336309 1232.774851
   vertex 3224.145237 50.222818 -633.227566
   vertex 3218.259032 58.336309 -637.225149
  endloop
 endfacet
 facet normal 0.687838 0.555570 0.467141
  outer loop
   vertex 1954.145237 50.222818 1236.772434
   vertex 1959.105002 41.250000 1240.140830
   vertex 3229.105002 41.250000 -629.859170
  endloop
 endfacet
 facet normal 0.687838 0.555570 0.467141
  outer loop
   vertex 1954.145237 50.222818 1236.772434
   vertex 3229.105002 41.250000 -629.859170
   vertex 3224.145237 50.222818 -633.227566
  endloop
 endfacet
 facet normal 0.741943 0.442289 0.503886
  outer loop
   vertex 1959.105002 41.250000 1240.140830
   vertex 1963.053464 31.571383 1242.822406
   vertex 3233.053464 31.571383 -627.177594
  endloop
 endfacet
 facet normal 0.741943 0.442289 0.503886
  outer loop
   vertex 1959.105002 41.250000 1240.140830
   vertex 3233.053464 31.571383 -627.177594
   vertex 3229.105002 41.250000 -629.859170
  endloop
 endfacet
 facet normal 0.783353 0.321439 0.532010
  outer loop
   vertex 1963.053464 31.571383 1242.822406
   vertex 1965.923064 21.352571 1244.771279
   vertex 3235.923064 21.352571 -625.228721
  endloop
 endfacet
 facet normal 0.783353 0.321439 0.532010
  outer loop
   vertex 1963.053464 31.571383 1242.822406
   vertex 3235.923064 21.352571 -625.228721
   vertex 3233.053464 31.571383 -627.177594
  endloop
 endfacet
 facet normal 0.811360 0.195090 0.551031
  outer loop
   vertex 1965.923064 21.352571 1244.771279
   vertex 1967.664701 10.768411 1245.954102
   vertex 3237.664701 10.768411 -624.045898
  endloop
 endfacet
 facet normal 0.811360 0.195090 0.551031
  outer loop
   vertex 1965.923064 21.352571 1244.771279
   vertex 3237.664701 10.768411 -624.045898
   vertex 3235.923064 21.352571 -625.228721
  endloop
 endfacet
 facet normal 0.825484 0.065403 0.560623
  outer loop
   vertex 1967.664701 10.768411 1245.954102
   vertex 1968.248578 0.000000 1246.350638
   vertex 3238.248578 0.000000 -623.649362
  endloop
 endfacet
 facet normal 0.825484 0.065403 0.560623
  outer loop
   vertex 1967.664701 10.768411 1245.954102
   vertex 3238.248578 0.000000 -623.649362
   vertex 3237.664701 10.768411 -624.045898
  endloop
 endfacet
 facet normal 0.825484 -0.065403 0.560623
  outer loop
   vertex 1968.248578 0.000000 1246.350638
   vertex 1967.664701 -10.768411 1245.954102
   vertex 3237.664701 -10.768411 -624.045898
  endloop
 endfacet
 facet normal 0.825484 -0.065403 0.560623
  outer loop
   vertex 1968.248578 0.000000 1246.350638
   vertex 3237.664701 -10.768411 -624.045898
   vertex 3238.248578 0.000000 -623.649362
  endloop
 endfacet
 facet normal 0.811360 -0.195090 0.551031
  outer loop
   vertex 1967.664701 -10.768411 1245.954102
   vertex 1965.923064 -21.352571 1244.771279
   vertex 3235.923064 -21.352571 -625.228721
  endloop
 endfacet
 facet normal 0.811360 -0.195090 0.551031
  outer loop
   vertex 1967.664701 -10.768411 1245.954102
   vertex 3235.923064 -21.352571 -625.228721
   vertex 3237.664701 -10.768411 -624.045898
  endloop
 endfacet
 facet normal 0.783353 -0.321439 0.532010
  outer loop
   vertex 1965.923064 -21.352571 1244.771279
   vertex 1963.053464 -31.571383 1242.822406
   vertex 3233.053464 -31.571383 -627.177594
  endloop
 endfacet
 facet normal 0.783353 -0.321439 0.532010
  outer loop
   vertex 1965.923064 -21.352571 1244.771279
   vertex 3233.053464 -31.571383 -627.177594
   vertex 3235.923064 -21.352571 -625.228721
  endloop
 endfacet
 facet normal 0.741943 -0.442289 0.503886
  outer loop
   vertex 1963.053464 -31.571383 1242.822406
   vertex 1959.105002 -41.250000 1240.140830
   vertex 3229.105002 -41.250000 -629.859170
  endloop
 endfacet
 facet normal 0.741943 -0.442289 0.503886
  outer loop
   vertex 1963.053464 -31.571383 1242.822406
   vertex 3229.105002 -41.250000 -629.859170
   vertex 3233.053464 -31.571383 -627.177594
  endloop
 endfacet
 facet normal 0.687838 -0.555570 0.467141
  outer loop
   vertex 1959.105002 -41.250000 1240.140830
   vertex 1954.145237 -50.222818 1236.772434
   vertex 3224.145237 -50.222818 -633.227566
  endloop
 endfacet
 facet normal 0.687838 -0.555570 0.467141
  outer loop
   vertex 1959.105002 -41.250000 1240.140830
   vertex 3224.145237 -50.222818 -633.227566
   vertex 3229.105002 -41.250000 -629.859170
  endloop
 endfacet
 facet normal 0.621964 -0.659346 0.422403
  outer loop
   vertex 1954.145237 -50.222818 1236.772434
   vertex 1948.259032 -58.336309 1232.774851
   vertex 3218.259032 -58.336309 -637.225149
  endloop
 endfacet
 facet normal 0.621964 -0.659346 0.422403
  outer loop
   vertex 1954.145237 -50.222818 1236.772434
   vertex 3218.259032 -58.336309 -637.225149
   vertex 3224.145237 -50.222818 -633.227566
  endloop
 endfacet
 facet normal 0.545447 -0.751840 0.370438
  outer loop
   vertex 1948.259032 -58.336309 1232.774851
   vertex 1941.547102 -65.451651 1228.216481
   vertex 3211.547102 -65.451651 -641.783519
  endloop
 endfacet
 facet normal 0.545447 -0.751840 0.370438
  outer loop
   vertex 1948.259032 -58.336309 1232.774851
   vertex 3211.547102 -65.451651 -641.783519
   vertex 3218.259032 -58.336309 -637.225149
  endloop
 endfacet
 facet normal 0.459599 -0.831470 0.312134
  outer loop
   vertex 1941.547102 -65.451651 1228.216481
   vertex 1934.124289 -71.447096 1223.175319
   vertex 3204.124289 -71.447096 -646.824681
  endloop
 endfacet
 facet normal 0.459599 -0.831470 0.312134
  outer loop
   vertex 1941.547102 -65.451651 1228.216481
   vertex 3204.124289 -71.447096 -646.824681
   vertex 3211.547102 -65.451651 -641.783519
  endloop
 endfacet
 facet normal 0.365886 -0.896873 0.248489
  outer loop
   vertex 1934.124289 -71.447096 1223.175319
   vertex 1926.117600 -76.220061 1217.737621
   vertex 3196.117600 -76.220061 -652.262379
  endloop
 endfacet
 facet normal 0.365886 -0.896873 0.248489
  outer loop
   vertex 1934.124289 -71.447096 1223.175319
   vertex 3196.117600 -76.220061 -652.262379
   vertex 3204.124289 -71.447096 -646.824681
  endloop
 endfacet
 facet normal 0.265913 -0.946930 0.180593
  outer loop
   vertex 1926.117600 -76.220061 1217.737621
   vertex 1917.664032 -79.688881 1211.996428
   vertex 3187.664032 -79.688881 -658.003572
  endloop
 endfacet
 facet normal 0.265913 -0.946930 0.180593
  outer loop
   vertex 1926.117600 -76.220061 1217.737621
   vertex 3187.664032 -79.688881 -658.003572
   vertex 3196.117600 -76.220061 -652.262379
  endloop
 endfacet
 facet normal 0.161390 -0.980785 0.109607
  outer loop
   vertex 1917.664032 -79.688881 1211.996428
   vertex 1908.908227 -81.794201 1206.049972
   vertex 3178.908227 -81.794201 -663.950028
  endloop
 endfacet
 facet normal 0.161390 -0.980785 0.109607
  outer loop
   vertex 1917.664032 -79.688881 1211.996428
   vertex 3178.908227 -81.794201 -663.950028
   vertex 3187.664032 -79.688881 -658.003572
  endloop
 endfacet
 facet normal 0.054105 -0.997859 0.036745
  outer loop
   vertex 1908.908227 -81.794201 1206.049972
   vertex 1900.000000 -82.500000 1200.000000
   vertex 3170.000000 -82.500000 -670.000000
  endloop
 endfacet
 facet normal 0.054105 -0.997859 0.036745
  outer loop
   vertex 1908.908227 -81.794201 1206.049972
   vertex 3170.000000 -82.500000 -670.000000
   vertex 3178.908227 -81.794201 -663.950028
  endloop
 endfacet
 facet normal -0.054105 -0.997859 -0.036745
  outer loop
   vertex 1900.000000 -82.500000 1200.000000
   vertex 1891.091773 -81.794201 1193.950028
   vertex 3161.091773 -81.794201 -676.049972
  endloop
 endfacet
 facet normal -0.054105 -0.997859 -0.036745
  outer loop
   vertex 1900.000000 -82.500000 1200.000000
   vertex 3161.091773 -81.794201 -676.049972
   vertex 3170.000000 -82.500000 -670.000000
  endloop
 endfacet
 facet normal -0.161390 -0.980785 -0.109607
  outer loop
   vertex 1891.091773 -81.794201 1193.950028
   vertex 1882.335968 -79.688881 1188.003572
   vertex 3152.335968 -79.688881 -681.996428
  endloop
 endfacet
 facet normal -0.161390 -0.980785 -0.109607
  outer loop
   vertex 1891.091773 -81.794201 1193.950028
   vertex 3152.335968 -79.688881 -681.996428
   vertex 3161.091773 -81.794201 -676.049972
  endloop
 endfacet
 facet normal -0.265913 -0.946930 -0.180593
  outer loop
   vertex 1882.335968 -79.688881 1188.003572
   vertex 1873.882400 -76.220061 1182.262379
   vertex 3143.882400 -76.220061 -687.737621
  endloop
 endfacet
 facet normal -0.265913 -0.946930 -0.180593
  outer loop
   vertex 1882.335968 -79.688881 1188.003572
   vertex 3143.882400 -76.220061 -687.737621
   vertex 3152.335968 -79.688881 -681.996428
  endloop
 endfacet
 facet normal -0.365886 -0.896873 -0.248489
  outer loop
   vertex 1873.882400 -76.220061 1182.262379
   vertex 1865.875711 -71.447096 1176.824681
   vertex 3135.875711 -71.447096 -693.175319
  endloop
 endfacet
 facet normal -0.365886 -0.896873 -0.248489
  outer loop
   vertex 1873.882400 -76.220061 1182.262379
   vertex 3135.875711 -71.447096 -693.175319
   vertex 3143.882400 -76.220061 -687.737621
  endloop
 endfacet
 facet normal -0.459599 -0.831470 -0.312134
  outer loop
   vertex 1865.875711 -71.447096 1176.824681
   vertex 1858.452898 -65.451651 1171.783519
   vertex 3128.452898 -65.451651 -698.216481
  endloop
 endfacet
 facet normal -0.459599 -0.831470 -0.312134
  outer loop
   vertex 1865.875711 -71.447096 1176.824681
   vertex 3128.452898 -65.451651 -698.216481
   vertex 3135.875711 -71.447096 -693.175319
  endloop
 endfacet
 facet normal -0.545447 -0.751840 -0.370438
  outer loop
   vertex 1858.452898 -65.451651 1171.783519
   vertex 1851.740968 -58.336309 1167.225149
   vertex 3121.740968 -58.336309 -702.774851
  endloop
 endfacet
 facet normal -0.545447 -0.751840 -0.370438
  outer loop
   vertex 1858.452898 -65.451651 1171.783519
   vertex 3121.740968 -58.336309 -702.774851
   vertex 3128.452898 -65.451651 -698.216481
  endloop
 endfacet
 facet normal -0.621964 -0.659346 -0.422403
  outer loop
   vertex 1851.740968 -58.336309 1167.225149
   vertex 1845.854763 -50.222818 1163.227566
   vertex 3115.854763 -50.222818 -706.772434
  endloop
 endfacet
 facet normal -0.621964 -0.659346 -0.422403
  outer loop
   vertex 1851.740968 -58.336309 1167.225149
   vertex 3115.854763 -50.222818 -706.772434
   vertex 3121.740968 -58.336309 -702.774851
  endloop
 endfacet
 facet normal -0.687838 -0.555570 -0.467141
  outer loop
   vertex 1845.854763 -50.222818 1163.227566
   vertex 1840.894998 -41.250000 1159.859170
   vertex 3110.894998 -41.250000 -710.140830
  endloop
 endfacet
 facet normal -0.687838 -0.555570 -0.467141
  outer loop
   vertex 1845.854763 -50.222818 1163.227566
   vertex 3110.894998 -41.250000 -710.140830
   vertex 3115.854763 -50.222818 -706.772434
  endloop
 endfacet
 facet normal -0.741943 -0.442289 -0.503886
  outer loop
   vertex 1840.894998 -41.250000 1159.859170
   vertex 1836.946536 -31.571383 1157.177594
   vertex 3106.946536 -31.571383 -712.822406
  endloop
 endfacet
 facet normal -0.741943 -0.442289 -0.503886
  outer loop
   vertex 1840.894998 -41.250000 1159.859170
   vertex 3106.946536 -31.571383 -712.822406
   vertex 3110.894998 -41.250000 -710.140830
  endloop
 endfacet
 facet normal -0.783353 -0.321439 -0.532010
  outer loop
   vertex 1836.946536 -31.571383 1157.177594
   vertex 1834.076936 -21.352571 1155.228721
   vertex 3104.076936 -21.352571 -714.771279
  endloop
 endfacet
 facet normal -0.783353 -0.321439 -0.532010
  outer loop
   vertex 1836.946536 -31.571383 1157.177594
   vertex 3104.076936 -21.352571 -714.771279
   vertex 3106.946536 -31.571383 -712.822406
  endloop
 endfacet
 facet normal -0.811360 -0.195090 -0.551031
  outer loop
   vertex 1834.076936 -21.352571 1155.228721
   vertex 1832.335299 -10.768411 1154.045898
   vertex 3102.335299 -10.768411 -715.954102
  endloop
 endfacet
 facet normal -0.811360 -0.195090 -0.551031
  outer loop
   vertex 1834.076936 -21.352571 1155.228721
   vertex 3102.335299 -10.768411 -715.954102
   vertex 3104.076936 -21.352571 -714.771279
  endloop
 endfacet
 facet normal -0.825484 -0.065403 -0.560623
  outer loop
   vertex 1832.335299 -10.768411 1154.045898
   vertex 1831.751422 -0.000000 1153.649362
   vertex 3101.751422 -0.000000 -716.350638
  endloop
 endfacet
 facet normal -0.825484 -0.065403 -0.560623
  outer loop
   vertex 1832.335299 -10.768411 1154.045898
   vertex 3101.751422 -0.000000 -716.350638
   vertex 3102.335299 -10.768411 -715.954102
  endloop
 endfacet
 facet normal -0.825484 0.065403 -0.560623
  outer loop
   vertex 1831.751422 -0.000000 1153.649362
   vertex 1832.335299 10.768411 1154.045898
   vertex 3102.335299 10.768411 -715.954102
  endloop
 endfacet
 facet normal -0.825484 0.065403 -0.560623
  outer loop
   vertex 1831.751422 -0.000000 1153.649362
   vertex 3102.335299 10.768411 -715.954102
   vertex 3101.751422 -0.000000 -716.350638
  endloop
 endfacet
 facet normal -0.811360 0.195090 -0.551031
  outer loop
   vertex 1832.335299 10.768411 1154.045898
   vertex 1834.076936 21.352571 1155.228721
   vertex 3104.076936 21.352571 -714.771279
  endloop
 endfacet
 facet normal -0.811360 0.195090 -0.551031
  outer loop
   vertex 1832.335299 10.768411 1154.045898
   vertex 3104.076936 21.352571 -714.771279
   vertex 3102.335299 10.768411 -715.954102
  endloop
 endfacet
 facet normal -0.783353 0.321439 -0.532010
  outer loop
   vertex 1834.076936 21.352571 1155.228721
   vertex 1836.946536 31.571383 1157.177594
   vertex 3106.946536 31.571383 -712.822406
  endloop
 endfacet
 facet normal -0.783353 0.321439 -0.532010
  outer loop
   vertex 1834.076936 21.352571 1155.228721
   vertex 3106.946536 31.571383 -712.822406
   vertex 3104.076936 21.352571 -714.771279
  endloop
 endfacet
 facet normal -0.741943 0.442289 -0.503886
  outer loop
   vertex 1836.946536 31.571383 1157.177594
   vertex 1840.894998 41.250000 1159.859170
   vertex 3110.894998 41.250000 -710.140830
  endloop
 endfacet
 facet normal -0.741943 0.442289 -0.503886
  outer loop
   vertex 1836.946536 31.571383 1157.177594
   vertex 3110.894998 41.250000 -710.140830
   vertex 3106.946536 31.571383 -712.822406
  endloop
 endfacet
 facet normal -0.687838 0.555570 -0.467141
  outer loop
   vertex 1840.894998 41.250000 1159.859170
   vertex 1845.854763 50.222818 1163.227566
   vertex 3115.854763 50.222818 -706.772434
  endloop
 endfacet
 facet normal -0.687838 0.555570 -0.467141
  outer loop
   vertex 1840.894998 41.250000 1159.859170
   vertex 3115.854763 50.222818 -706.772434
   vertex 3110.894998 41.250000 -710.140830
  endloop
 endfacet
 facet normal -0.621964 0.659346 -0.422403
  outer loop
   vertex 1845.854763 50.222818 1163.227566
   vertex 1851.740968 58.336309 1167.225149
   vertex 3121.740968 58.336309 -702.774851
  endloop
 endfacet
 facet normal -0.621964 0.659346 -0.422403
  outer loop
   vertex 1845.854763 50.222818 1163.227566
   vertex 3121.740968 58.336309 -702.774851
   vertex 3115.854763 50.222818 -706.772434
  endloop
 endfacet
 facet normal -0.545447 0.751840 -0.370438
  outer loop
   vertex 1851.740968 58.336309 1167.225149
   vertex 1858.452898 65.451651 1171.783519
   vertex 3128.452898 65.451651 -698.216481
  endloop
 endfacet
 facet normal -0.545447 0.751840 -0.370438
  outer loop
   vertex 1851.740968 58.336309 1167.225149
   vertex 3128.452898 65.451651 -698.216481
   vertex 3121.740968 58.336309 -702.774851
  endloop
 endfacet
 facet normal -0.459599 0.831470 -0.312134
  outer loop
   vertex 1858.452898 65.451651 1171.783519
   vertex 1865.875711 71.447096 1176.824681
   vertex 3135.875711 71.447096 -693.175319
  endloop
 endfacet
 facet normal -0.459599 0.831470 -0.312134
  outer loop
   vertex 1858.452898 65.451651 1171.783519
   vertex 3135.875711 71.447096 -693.175319
   vertex 3128.452898 65.451651 -698.216481
  endloop
 endfacet
 facet normal -0.365886 0.896873 -0.248489
  outer loop
   vertex 1865.875711 71.447096 1176.824681
   vertex 1873.882400 76.220061 1182.262379
   vertex 3143.882400 76.220061 -687.737621
  endloop
 endfacet
 facet normal -0.365886 0.896873 -0.248489
  outer loop
   vertex 1865.875711 71.447096 1176.824681
   vertex 3143.882400 76.220061 -687.737621
   vertex 3135.875711 71.447096 -693.175319
  endloop
 endfacet
 facet normal -0.265913 0.946930 -0.180593
  outer loop
   vertex 1873.882400 76.220061 1182.262379
   vertex 1882.335968 79.688881 1188.003572
   vertex 3152.335968 79.688881 -681.996428
  endloop
 endfacet
 facet normal -0.265913 0.946930 -0.180593
  outer loop
   vertex 1873.882400 76.220061 1182.262379
   vertex 3152.335968 79.688881 -681.996428
   vertex 3143.882400 76.220061 -687.737621
  endloop
 endfacet
 facet normal -0.161390 0.980785 -0.109607
  outer loop
   vertex 1882.335968 79.688881 1188.003572
   vertex 1891.091773 81.794201 1193.950028
   vertex 3161.091773 81.794201 -676.049972
  endloop
 endfacet
 facet normal -0.161390 0.980785 -0.109607
  outer loop
   vertex 1882.335968 79.688881 1188.003572
   vertex 3161.091773 81.794201 -676.049972
   vertex 3152.335968 79.688881 -681.996428
  endloop
 endfacet
 facet normal -0.054105 0.997859 -0.036745
  outer loop
   vertex 1891.091773 81.794201 1193.950028
   vertex 1900.000000 82.500000 1200.000000
   vertex 3170.000000 82.500000 -670.000000
  endloop
 endfacet
 facet normal -0.054105 0.997859 -0.036745
  outer loop
   vertex 1891.091773 81.794201 1193.950028
   vertex 3170.000000 82.500000 -670.000000
   vertex 3161.091773 81.794201 -676.049972
  endloop
 endfacet
 facet normal -0.054105 -0.997859 -0.036745
  outer loop
   vertex 3177.396528 67.913973 -664.976690
   vertex 1907.396528 67.913973 1205.023310
   vertex 1900.000000 68.500000 1200.000000
  endloop
 endfacet
 facet normal -0.054105 -0.997859 -0.036745
  outer loop
   vertex 3170.000000 68.500000 -670.000000
   vertex 3177.396528 67.913973 -664.976690
   vertex 1900.000000 68.500000 1200.000000
  endloop
 endfacet
 facet normal -0.161390 -0.980785 -0.109607
  outer loop
   vertex 3184.666499 66.165919 -660.039330
   vertex 1914.666499 66.165919 1209.960670
   vertex 1907.396528 67.913973 1205.023310
  endloop
 endfacet
 facet normal -0.161390 -0.980785 -0.109607
  outer loop
   vertex 3177.396528 67.913973 -664.976690
   vertex 3184.666499 66.165919 -660.039330
   vertex 1907.396528 67.913973 1205.023310
  endloop
 endfacet
 facet normal -0.265913 -0.946930 -0.180593
  outer loop
   vertex 3191.685522 63.285748 -655.272399
   vertex 1921.685522 63.285748 1214.727601
   vertex 1914.666499 66.165919 1209.960670
  endloop
 endfacet
 facet normal -0.265913 -0.946930 -0.180593
  outer loop
   vertex 3184.666499 66.165919 -660.039330
   vertex 3191.685522 63.285748 -655.272399
   vertex 1914.666499 66.165919 1209.960670
  endloop
 endfacet
 facet normal -0.365886 -0.896873 -0.248489
  outer loop
   vertex 3198.333500 59.322740 -650.757462
   vertex 1928.333500 59.322740 1219.242538
   vertex 1921.685522 63.285748 1214.727601
  endloop
 endfacet
 facet normal -0.365886 -0.896873 -0.248489
  outer loop
   vertex 3191.685522 63.285748 -655.272399
   vertex 3198.333500 59.322740 -650.757462
   vertex 1921.685522 63.285748 1214.727601
  endloop
 endfacet
 facet normal -0.459599 -0.831470 -0.312134
  outer loop
   vertex 3204.496684 54.344704 -646.571771
   vertex 1934.496684 54.344704 1223.428229
   vertex 1928.333500 59.322740 1219.242538
  endloop
 endfacet
 facet normal -0.459599 -0.831470 -0.312134
  outer loop
   vertex 3198.333500 59.322740 -650.757462
   vertex 3204.496684 54.344704 -646.571771
   vertex 1928.333500 59.322740 1219.242538
  endloop
 endfacet
 facet normal -0.545447 -0.751840 -0.370438
  outer loop
   vertex 3210.069620 48.436815 -642.786942
   vertex 1940.069620 48.436815 1227.213058
   vertex 1934.496684 54.344704 1223.428229
  endloop
 endfacet
 facet normal -0.545447 -0.751840 -0.370438
  outer loop
   vertex 3204.496684 54.344704 -646.571771
   vertex 3210.069620 48.436815 -642.786942
   vertex 1934.496684 54.344704 1223.428229
  endloop
 endfacet
 facet normal -0.621964 -0.659346 -0.422403
  outer loop
   vertex 3214.956954 41.700158 -639.467737
   vertex 1944.956954 41.700158 1230.532263
   vertex 1940.069620 48.436815 1227.213058
  endloop
 endfacet
 facet normal -0.621964 -0.659346 -0.422403
  outer loop
   vertex 3210.069620 48.436815 -642.786942
   vertex 3214.956954 41.700158 -639.467737
   vertex 1940.069620 48.436815 1227.213058
  endloop
 endfacet
 facet normal -0.687838 -0.555570 -0.467141
  outer loop
   vertex 3219.075062 34.250000 -636.670947
   vertex 1949.075062 34.250000 1233.329053
   vertex 1944.956954 41.700158 1230.532263
  endloop
 endfacet
 facet normal -0.687838 -0.555570 -0.467141
  outer loop
   vertex 3214.956954 41.700158 -639.467737
   vertex 3219.075062 34.250000 -636.670947
   vertex 1944.956954 41.700158 1230.532263
  endloop
 endfacet
 facet normal -0.741943 -0.442289 -0.503886
  outer loop
   vertex 3222.353482 26.213815 -634.444427
   vertex 1952.353482 26.213815 1235.555573
   vertex 1949.075062 34.250000 1233.329053
  endloop
 endfacet
 facet normal -0.741943 -0.442289 -0.503886
  outer loop
   vertex 3219.075062 34.250000 -636.670947
   vertex 3222.353482 26.213815 -634.444427
   vertex 1949.075062 34.250000 1233.329053
  endloop
 endfacet
 facet normal -0.783353 -0.321439 -0.532010
  outer loop
   vertex 3224.736120 17.729105 -632.826272
   vertex 1954.736120 17.729105 1237.173728
   vertex 1952.353482 26.213815 1235.555573
  endloop
 endfacet
 facet normal -0.783353 -0.321439 -0.532010
  outer loop
   vertex 3222.353482 26.213815 -634.444427
   vertex 3224.736120 17.729105 -632.826272
   vertex 1952.353482 26.213815 1235.555573
  endloop
 endfacet
 facet normal -0.811360 -0.195090 -0.551031
  outer loop
   vertex 3226.182207 8.941044 -631.844170
   vertex 1956.182207 8.941044 1238.155830
   vertex 1954.736120 17.729105 1237.173728
  endloop
 endfacet
 facet normal -0.811360 -0.195090 -0.551031
  outer loop
   vertex 3224.736120 17.729105 -632.826272
   vertex 3226.182207 8.941044 -631.844170
   vertex 1954.736120 17.729105 1237.173728
  endloop
 endfacet
 facet normal -0.825484 -0.065403 -0.560623
  outer loop
   vertex 3226.667001 0.000000 -631.514925
   vertex 1956.667001 0.000000 1238.485075
   vertex 1956.182207 8.941044 1238.155830
  endloop
 endfacet
 facet normal -0.825484 -0.065403 -0.560623
  outer loop
   vertex 3226.182207 8.941044 -631.844170
   vertex 3226.667001 0.000000 -631.514925
   vertex 1956.182207 8.941044 1238.155830
  endloop
 endfacet
 facet normal -0.825484 0.065403 -0.560623
  outer loop
   vertex 3226.182207 -8.941044 -631.844170
   vertex 1956.182207 -8.941044 1238.155830
   vertex 1956.667001 0.000000 1238.485075
  endloop
 endfacet
 facet normal -0.825484 0.065403 -0.560623
  outer loop
   vertex 3226.667001 0.000000 -631.514925
   vertex 3226.182207 -8.941044 -631.844170
   vertex 1956.667001 0.000000 1238.485075
  endloop
 endfacet
 facet normal -0.811360 0.195090 -0.551031
  outer loop
   vertex 3224.736120 -17.729105 -632.826272
   vertex 1954.736120 -17.729105 1237.173728
   vertex 1956.182207 -8.941044 1238.155830
  endloop
 endfacet
 facet normal -0.811360 0.195090 -0.551031
  outer loop
   vertex 3226.182207 -8.941044 -631.844170
   vertex 3224.736120 -17.729105 -632.826272
   vertex 1956.182207 -8.941044 1238.155830
  endloop
 endfacet
 facet normal -0.783353 0.321439 -0.532010
  outer loop
   vertex 3222.353482 -26.213815 -634.444427
   vertex 1952.353482 -26.213815 1235.555573
   vertex 1954.736120 -17.729105 1237.173728
  endloop
 endfacet
 facet normal -0.783353 0.321439 -0.532010
  outer loop
   vertex 3224.736120 -17.729105 -632.826272
   vertex 3222.353482 -26.213815 -634.444427
   vertex 1954.736120 -17.729105 1237.173728
  endloop
 endfacet
 facet normal -0.741943 0.442289 -0.503886
  outer loop
   vertex 3219.075062 -34.250000 -636.670947
   vertex 1949.075062 -34.250000 1233.329053
   vertex 1952.353482 -26.213815 1235.555573
  endloop
 endfacet
 facet normal -0.741943 0.442289 -0.503886
  outer loop
   vertex 3222.353482 -26.213815 -634.444427
   vertex 3219.075062 -34.250000 -636.670947
   vertex 1952.353482 -26.213815 1235.555573
  endloop
 endfacet
 facet normal -0.687838 0.555570 -0.467141
  outer loop
   vertex 3214.956954 -41.700158 -639.467737
   vertex 1944.956954 -41.700158 1230.532263
   vertex 1949.075062 -34.250000 1233.329053
  endloop
 endfacet
 facet normal -0.687838 0.555570 -0.467141
  outer loop
   vertex 3219.075062 -34.250000 -636.670947
   vertex 3214.956954 -41.700158 -639.467737
   vertex 1949.075062 -34.250000 1233.329053
  endloop
 endfacet
 facet normal -0.621964 0.659346 -0.422403
  outer loop
   vertex 3210.069620 -48.436815 -642.786942
   vertex 1940.069620 -48.436815 1227.213058
   vertex 1944.956954 -41.700158 1230.532263
  endloop
 endfacet
 facet normal -0.621964 0.659346 -0.422403
  outer loop
   vertex 3214.956954 -41.700158 -639.467737
   vertex 3210.069620 -48.436815 -642.786942
   vertex 1944.956954 -41.700158 1230.532263
  endloop
 endfacet
 facet normal -0.545447 0.751840 -0.370438
  outer loop
   vertex 3204.496684 -54.344704 -646.571771
   vertex 1934.496684 -54.344704 1223.428229
   vertex 1940.069620 -48.436815 1227.213058
  endloop
 endfacet
 facet normal -0.545447 0.751840 -0.370438
  outer loop
   vertex 3210.069620 -48.436815 -642.786942
   vertex 3204.496684 -54.344704 -646.571771
   vertex 1940.069620 -48.436815 1227.213058
  endloop
 endfacet
 facet normal -0.459599 0.831470 -0.312134
  outer loop
   vertex 3198.333500 -59.322740 -650.757462
   vertex 1928.333500 -59.322740 1219.242538
   vertex 1934.496684 -54.344704 1223.428229
  endloop
 endfacet
 facet normal -0.459599 0.831470 -0.312134
  outer loop
   vertex 3204.496684 -54.344704 -646.571771
   vertex 3198.333500 -59.322740 -650.757462
   vertex 1934.496684 -54.344704 1223.428229
  endloop
 endfacet
 facet normal -0.365886 0.896873 -0.248489
  outer loop
   vertex 3191.685522 -63.285748 -655.272399
   vertex 1921.685522 -63.285748 1214.727601
   vertex 1928.333500 -59.322740 1219.242538
  endloop
 endfacet
 facet normal -0.365886 0.896873 -0.248489
  outer loop
   vertex 3198.333500 -59.322740 -650.757462
   vertex 3191.685522 -63.285748 -655.272399
   vertex 1928.333500 -59.322740 1219.242538
  endloop
 endfacet
 facet normal -0.265913 0.946930 -0.180593
  outer loop
   vertex 3184.666499 -66.165919 -660.039330
   vertex 1914.666499 -66.165919 1209.960670
   vertex 1921.685522 -63.285748 1214.727601
  endloop
 endfacet
 facet normal -0.265913 0.946930 -0.180593
  outer loop
   vertex 3191.685522 -63.285748 -655.272399
   vertex 3184.666499 -66.165919 -660.039330
   vertex 1921.685522 -63.285748 1214.727601
  endloop
 endfacet
 facet normal -0.161390 0.980785 -0.109607
  outer loop
   vertex 3177.396528 -67.913973 -664.976690
   vertex 1907.396528 -67.913973 1205.023310
   vertex 1914.666499 -66.165919 1209.960670
  endloop
 endfacet
 facet normal -0.161390 0.980785 -0.109607
  outer loop
   vertex 3184.666499 -66.165919 -660.039330
   vertex 3177.396528 -67.913973 -664.976690
   vertex 1914.666499 -66.165919 1209.960670
  endloop
 endfacet
 facet normal -0.054105 0.997859 -0.036745
  outer loop
   vertex 3170.000000 -68.500000 -670.000000
   vertex 1900.000000 -68.500000 1200.000000
   vertex 1907.396528 -67.913973 1205.023310
  endloop
 endfacet
 facet normal -0.054105 0.997859 -0.036745
  outer loop
   vertex 3177.396528 -67.913973 -664.976690
   vertex 3170.000000 -68.500000 -670.000000
   vertex 1907.396528 -67.913973 1205.023310
  endloop
 endfacet
 facet normal 0.054105 0.997859 0.036745
  outer loop
   vertex 3162.603472 -67.913973 -675.023310
   vertex 1892.603472 -67.913973 1194.976690
   vertex 1900.000000 -68.500000 1200.000000
  endloop
 endfacet
 facet normal 0.054105 0.997859 0.036745
  outer loop
   vertex 3170.000000 -68.500000 -670.000000
   vertex 3162.603472 -67.913973 -675.023310
   vertex 1900.000000 -68.500000 1200.000000
  endloop
 endfacet
 facet normal 0.161390 0.980785 0.109607
  outer loop
   vertex 3155.333501 -66.165919 -679.960670
   vertex 1885.333501 -66.165919 1190.039330
   vertex 1892.603472 -67.913973 1194.976690
  endloop
 endfacet
 facet normal 0.161390 0.980785 0.109607
  outer loop
   vertex 3162.603472 -67.913973 -675.023310
   vertex 3155.333501 -66.165919 -679.960670
   vertex 1892.603472 -67.913973 1194.976690
  endloop
 endfacet
 facet normal 0.265913 0.946930 0.180593
  outer loop
   vertex 3148.314478 -63.285748 -684.727601
   vertex 1878.314478 -63.285748 1185.272399
   vertex 1885.333501 -66.165919 1190.039330
  endloop
 endfacet
 facet normal 0.265913 0.946930 0.180593
  outer loop
   vertex 3155.333501 -66.165919 -679.960670
   vertex 3148.314478 -63.285748 -684.727601
   vertex 1885.333501 -66.165919 1190.039330
  endloop
 endfacet
 facet normal 0.365886 0.896873 0.248489
  outer loop
   vertex 3141.666500 -59.322740 -689.242538
   vertex 1871.666500 -59.322740 1180.757462
   vertex 1878.314478 -63.285748 1185.272399
  endloop
 endfacet
 facet normal 0.365886 0.896873 0.248489
  outer loop
   vertex 3148.314478 -63.285748 -684.727601
   vertex 3141.666500 -59.322740 -689.242538
   vertex 1878.314478 -63.285748 1185.272399
  endloop
 endfacet
 facet normal 0.459599 0.831470 0.312134
  outer loop
   vertex 3135.503316 -54.344704 -693.428229
   vertex 1865.503316 -54.344704 1176.571771
   vertex 1871.666500 -59.322740 1180.757462
  endloop
 endfacet
 facet normal 0.459599 0.831470 0.312134
  outer loop
   vertex 3141.666500 -59.322740 -689.242538
   vertex 3135.503316 -54.344704 -693.428229
   vertex 1871.666500 -59.322740 1180.757462
  endloop
 endfacet
 facet normal 0.545447 0.751840 0.370438
  outer loop
   vertex 3129.930380 -48.436815 -697.213058
   vertex 1859.930380 -48.436815 1172.786942
   vertex 1865.503316 -54.344704 1176.571771
  endloop
 endfacet
 facet normal 0.545447 0.751840 0.370438
  outer loop
   vertex 3135.503316 -54.344704 -693.428229
   vertex 3129.930380 -48.436815 -697.213058
   vertex 1865.503316 -54.344704 1176.571771
  endloop
 endfacet
 facet normal 0.621964 0.659346 0.422403
  outer loop
   vertex 3125.043046 -41.700158 -700.532263
   vertex 1855.043046 -41.700158 1169.467737
   vertex 1859.930380 -48.436815 1172.786942
  endloop
 endfacet
 facet normal 0.621964 0.659346 0.422403
  outer loop
   vertex 3129.930380 -48.436815 -697.213058
   vertex 3125.043046 -41.700158 -700.532263
   vertex 1859.930380 -48.436815 1172.786942
  endloop
 endfacet
 facet normal 0.687838 0.555570 0.467141
  outer loop
   vertex 3120.924938 -34.250000 -703.329053
   vertex 1850.924938 -34.250000 1166.670947
   vertex 1855.043046 -41.700158 1169.467737
  endloop
 endfacet
 facet normal 0.687838 0.555570 0.467141
  outer loop
   vertex 3125.043046 -41.700158 -700.532263
   vertex 3120.924938 -34.250000 -703.329053
   vertex 1855.043046 -41.700158 1169.467737
  endloop
 endfacet
 facet normal 0.741943 0.442289 0.503886
  outer loop
   vertex 3117.646518 -26.213815 -705.555573
   vertex 1847.646518 -26.213815 1164.444427
   vertex 1850.924938 -34.250000 1166.670947
  endloop
 endfacet
 facet normal 0.741943 0.442289 0.503886
  outer loop
   vertex 3120.924938 -34.250000 -703.329053
   vertex 3117.646518 -26.213815 -705.555573
   vertex 1850.924938 -34.250000 1166.670947
  endloop
 endfacet
 facet normal 0.783353 0.321439 0.532010
  outer loop
   vertex 3115.263880 -17.729105 -707.173728
   vertex 1845.263880 -17.729105 1162.826272
   vertex 1847.646518 -26.213815 1164.444427
  endloop
 endfacet
 facet normal 0.783353 0.321439 0.532010
  outer loop
   vertex 3117.646518 -26.213815 -705.555573
   vertex 3115.263880 -17.729105 -707.173728
   vertex 1847.646518 -26.213815 1164.444427
  endloop
 endfacet
 facet normal 0.811360 0.195090 0.551031
  outer loop
   vertex 3113.817793 -8.941044 -708.155830
   vertex 1843.817793 -8.941044 1161.844170
   vertex 1845.263880 -17.729105 1162.826272
  endloop
 endfacet
 facet normal 0.811360 0.195090 0.551031
  outer loop
   vertex 3115.263880 -17.729105 -707.173728
   vertex 3113.817793 -8.941044 -708.155830
   vertex 1845.263880 -17.729105 1162.826272
  endloop
 endfacet
 facet normal 0.825484 0.065403 0.560623
  outer loop
   vertex 3113.332999 -0.000000 -708.485075
   vertex 1843.332999 -0.000000 1161.514925
   vertex 1843.817793 -8.941044 1161.844170
  endloop
 endfacet
 facet normal 0.825484 0.065403 0.560623
  outer loop
   vertex 3113.817793 -8.941044 -708.155830
   vertex 3113.332999 -0.000000 -708.485075
   vertex 1843.817793 -8.941044 1161.844170
  endloop
 endfacet
 facet normal 0.825484 -0.065403 0.560623
  outer loop
   vertex 3113.817793 8.941044 -708.155830
   vertex 1843.817793 8.941044 1161.844170
   vertex 1843.332999 -0.000000 1161.514925
  endloop
 endfacet
 facet normal 0.825484 -0.065403 0.560623
  outer loop
   vertex 3113.332999 -0.000000 -708.485075
   vertex 3113.817793 8.941044 -708.155830
   vertex 1843.332999 -0.000000 1161.514925
  endloop
 endfacet
 facet normal 0.811360 -0.195090 0.551031
  outer loop
   vertex 3115.263880 17.729105 -707.173728
   vertex 1845.263880 17.729105 1162.826272
   vertex 1843.817793 8.941044 1161.844170
  endloop
 endfacet
 facet normal 0.811360 -0.195090 0.551031
  outer loop
   vertex 3113.817793 8.941044 -708.155830
   vertex 3115.263880 17.729105 -707.173728
   vertex 1843.817793 8.941044 1161.844170
  endloop
 endfacet
 facet normal 0.783353 -0.321439 0.532010
  outer loop
   vertex 3117.646518 26.213815 -705.555573
   vertex 1847.646518 26.213815 1164.444427
   vertex 1845.263880 17.729105 1162.826272
  endloop
 endfacet
 facet normal 0.783353 -0.321439 0.532010
  outer loop
   vertex 3115.263880 17.729105 -707.173728
   vertex 3117.646518 26.213815 -705.555573
   vertex 1845.263880 17.729105 1162.826272
  endloop
 endfacet
 facet normal 0.741943 -0.442289 0.503886
  outer loop
   vertex 3120.924938 34.250000 -703.329053
   vertex 1850.924938 34.250000 1166.670947
   vertex 1847.646518 26.213815 1164.444427
  endloop
 endfacet
 facet normal 0.741943 -0.442289 0.503886
  outer loop
   vertex 3117.646518 26.213815 -705.555573
   vertex 3120.924938 34.250000 -703.329053
   vertex 1847.646518 26.213815 1164.444427
  endloop
 endfacet
 facet normal 0.687838 -0.555570 0.467141
  outer loop
   vertex 3125.043046 41.700158 -700.532263
   vertex 1855.043046 41.700158 1169.467737
   vertex 1850.924938 34.250000 1166.670947
  endloop
 endfacet
 facet normal 0.687838 -0.555570 0.467141
  outer loop
   vertex 3120.924938 34.250000 -703.329053
   vertex 3125.043046 41.700158 -700.532263
   vertex 1850.924938 34.250000 1166.670947
  endloop
 endfacet
 facet normal 0.621964 -0.659346 0.422403
  outer loop
   vertex 3129.930380 48.436815 -697.213058
   vertex 1859.930380 48.436815 1172.786942
   vertex 1855.043046 41.700158 1169.467737
  endloop
 endfacet
 facet normal 0.621964 -0.659346 0.422403
  outer loop
   vertex 3125.043046 41.700158 -700.532263
   vertex 3129.930380 48.436815 -697.213058
   vertex 1855.043046 41.700158 1169.467737
  endloop
 endfacet
 facet normal 0.545447 -0.751840 0.370438
  outer loop
   vertex 3135.503316 54.344704 -693.428229
   vertex 1865.503316 54.344704 1176.571771
   vertex 1859.930380 48.436815 1172.786942
  endloop
 endfacet
 facet normal 0.545447 -0.751840 0.370438
  outer loop
   vertex 3129.930380 48.436815 -697.213058
   vertex 3135.503316 54.344704 -693.428229
   vertex 1859.930380 48.436815 1172.786942
  endloop
 endfacet
 facet normal 0.459599 -0.831470 0.312134
  outer loop
   vertex 3141.666500 59.322740 -689.242538
   vertex 1871.666500 59.322740 1180.757462
   vertex 1865.503316 54.344704 1176.571771
  endloop
 endfacet
 facet normal 0.459599 -0.831470 0.312134
  outer loop
   vertex 3135.503316 54.344704 -693.428229
   vertex 3141.666500 59.322740 -689.242538
   vertex 1865.503316 54.344704 1176.571771
  endloop
 endfacet
 facet normal 0.365886 -0.896873 0.248489
  outer loop
   vertex 3148.314478 63.285748 -684.727601
   vertex 1878.314478 63.285748 1185.272399
   vertex 1871.666500 59.322740 1180.757462
  endloop
 endfacet
 facet normal 0.365886 -0.896873 0.248489
  outer loop
   vertex 3141.666500 59.322740 -689.242538
   vertex 3148.314478 63.285748 -684.727601
   vertex 1871.666500 59.322740 1180.757462
  endloop
 endfacet
 facet normal 0.265913 -0.946930 0.180593
  outer loop
   vertex 3155.333501 66.165919 -679.960670
   vertex 1885.333501 66.165919 1190.039330
   vertex 1878.314478 63.285748 1185.272399
  endloop
 endfacet
 facet normal 0.265913 -0.946930 0.180593
  outer loop
   vertex 3148.314478 63.285748 -684.727601
   vertex 3155.333501 66.165919 -679.960670
   vertex 1878.314478 63.285748 1185.272399
  endloop
 endfacet
 facet normal 0.161390 -0.980785 0.109607
  outer loop
   vertex 3162.603472 67.913973 -675.023310
   vertex 1892.603472 67.913973 1194.976690
   vertex 1885.333501 66.165919 1190.039330
  endloop
 endfacet
 facet normal 0.161390 -0.980785 0.109607
  outer loop
   vertex 3155.333501 66.165919 -679.960670
   vertex 3162.603472 67.913973 -675.023310
   vertex 1885.333501 66.165919 1190.039330
  endloop
 endfacet
 facet normal 0.054105 -0.997859 0.036745
  outer loop
   vertex 3170.000000 68.500000 -670.000000
   vertex 1900.000000 68.500000 1200.000000
   vertex 1892.603472 67.913973 1194.976690
  endloop
 endfacet
 facet normal 0.054105 -0.997859 0.036745
  outer loop
   vertex 3162.603472 67.913973 -675.023310
   vertex 3170.000000 68.500000 -670.000000
   vertex 1892.603472 67.913973 1194.976690
  endloop
 endfacet
endsolid SIC_RP1_riser
