solid SII_LOX_feed_1_elbow
 facet normal 0.044626 0.998795 0.020400
  outer loop
   vertex 2208.000000 90.000000 45200.000000
   vertex 2216.022968 89.566625 45203.667642
   vertex 2408.022968 89.566625 44783.667642
  endloop
 endfacet
 facet normal 0.044626 0.998795 0.020400
  outer loop
   vertex 2208.000000 90.000000 45200.000000
   vertex 2408.022968 89.566625 44783.667642
   vertex 2400.000000 90.000000 44780.000000
  endloop
 endfacet
 facet normal 0.133448 0.989177 0.061005
  outer loop
   vertex 2216.022968 89.566625 45203.667642
   vertex 2223.968670 88.270675 45207.299963
   vertex 2415.968670 88.270675 44787.299963
  endloop
 endfacet
 facet normal 0.133448 0.989177 0.061005
  outer loop
   vertex 2216.022968 89.566625 45203.667642
   vertex 2415.968670 88.270675 44787.299963
   vertex 2408.022968 89.566625 44783.667642
  endloop
 endfacet
 facet normal 0.220984 0.970031 0.101021
  outer loop
   vertex 2223.968670 88.270675 45207.299963
   vertex 2231.760585 86.124630 45210.861982
   vertex 2423.760585 86.124630 44790.861982
  endloop
 endfacet
 facet normal 0.220984 0.970031 0.101021
  outer loop
   vertex 2223.968670 88.270675 45207.299963
   vertex 2423.760585 86.124630 44790.861982
   vertex 2415.968670 88.270675 44787.299963
  endloop
 endfacet
 facet normal 0.306393 0.941544 0.140065
  outer loop
   vertex 2231.760585 86.124630 45210.861982
   vertex 2239.323673 83.149158 45214.319393
   vertex 2431.323673 83.149158 44794.319393
  endloop
 endfacet
 facet normal 0.306393 0.941544 0.140065
  outer loop
   vertex 2231.760585 86.124630 45210.861982
   vertex 2431.323673 83.149158 44794.319393
   vertex 2423.760585 86.124630 44790.861982
  endloop
 endfacet
 facet normal 0.388850 0.903989 0.177760
  outer loop
   vertex 2239.323673 83.149158 45214.319393
   vertex 2246.585097 79.372914 45217.638901
   vertex 2438.585097 79.372914 44797.638901
  endloop
 endfacet
 facet normal 0.388850 0.903989 0.177760
  outer loop
   vertex 2239.323673 83.149158 45214.319393
   vertex 2438.585097 79.372914 44797.638901
   vertex 2431.323673 83.149158 44794.319393
  endloop
 endfacet
 facet normal 0.467563 0.857729 0.213743
  outer loop
   vertex 2246.585097 79.372914 45217.638901
   vertex 2253.474925 74.832265 45220.788537
   vertex 2445.474925 74.832265 44800.788537
  endloop
 endfacet
 facet normal 0.467563 0.857729 0.213743
  outer loop
   vertex 2246.585097 79.372914 45217.638901
   vertex 2445.474925 74.832265 44800.788537
   vertex 2438.585097 79.372914 44797.638901
  endloop
 endfacet
 facet normal 0.541773 0.803208 0.247668
  outer loop
   vertex 2253.474925 74.832265 45220.788537
   vertex 2259.926805 69.570941 45223.737968
   vertex 2451.926805 69.570941 44803.737968
  endloop
 endfacet
 facet normal 0.541773 0.803208 0.247668
  outer loop
   vertex 2253.474925 74.832265 45220.788537
   vertex 2451.926805 69.570941 44803.737968
   vertex 2445.474925 74.832265 44800.788537
  endloop
 endfacet
 facet normal 0.610766 0.740951 0.279207
  outer loop
   vertex 2259.926805 69.570941 45223.737968
   vertex 2265.878601 63.639610 45226.458789
   vertex 2457.878601 63.639610 44806.458789
  endloop
 endfacet
 facet normal 0.610766 0.740951 0.279207
  outer loop
   vertex 2259.926805 69.570941 45223.737968
   vertex 2457.878601 63.639610 44806.458789
   vertex 2451.926805 69.570941 44803.737968
  endloop
 endfacet
 facet normal 0.673876 0.671559 0.308058
  outer loop
   vertex 2265.878601 63.639610 45226.458789
   vertex 2271.272995 57.095396 45228.924798
   vertex 2463.272995 57.095396 44808.924798
  endloop
 endfacet
 facet normal 0.673876 0.671559 0.308058
  outer loop
   vertex 2265.878601 63.639610 45226.458789
   vertex 2463.272995 57.095396 44808.924798
   vertex 2457.878601 63.639610 44806.458789
  endloop
 endfacet
 facet normal 0.730497 0.595699 0.333941
  outer loop
   vertex 2271.272995 57.095396 45228.924798
   vertex 2276.058035 50.001321 45231.112245
   vertex 2468.058035 50.001321 44811.112245
  endloop
 endfacet
 facet normal 0.730497 0.595699 0.333941
  outer loop
   vertex 2271.272995 57.095396 45228.924798
   vertex 2468.058035 50.001321 44811.112245
   vertex 2463.272995 57.095396 44808.924798
  endloop
 endfacet
 facet normal 0.780082 0.514103 0.356609
  outer loop
   vertex 2276.058035 50.001321 45231.112245
   vertex 2280.187639 42.425706 45233.000064
   vertex 2472.187639 42.425706 44813.000064
  endloop
 endfacet
 facet normal 0.780082 0.514103 0.356609
  outer loop
   vertex 2276.058035 50.001321 45231.112245
   vertex 2472.187639 42.425706 44813.000064
   vertex 2468.058035 50.001321 44811.112245
  endloop
 endfacet
 facet normal 0.822155 0.427555 0.375842
  outer loop
   vertex 2280.187639 42.425706 45233.000064
   vertex 2283.622037 34.441509 45234.570074
   vertex 2475.622037 34.441509 44814.570074
  endloop
 endfacet
 facet normal 0.822155 0.427555 0.375842
  outer loop
   vertex 2280.187639 42.425706 45233.000064
   vertex 2475.622037 34.441509 44814.570074
   vertex 2472.187639 42.425706 44813.000064
  endloop
 endfacet
 facet normal 0.856310 0.336890 0.391456
  outer loop
   vertex 2283.622037 34.441509 45234.570074
   vertex 2286.328153 26.125621 45235.807156
   vertex 2478.328153 26.125621 44815.807156
  endloop
 endfacet
 facet normal 0.856310 0.336890 0.391456
  outer loop
   vertex 2283.622037 34.441509 45234.570074
   vertex 2478.328153 26.125621 44815.807156
   vertex 2475.622037 34.441509 44814.570074
  endloop
 endfacet
 facet normal 0.882219 0.242980 0.403300
  outer loop
   vertex 2286.328153 26.125621 45235.807156
   vertex 2288.279926 17.558129 45236.699395
   vertex 2480.279926 17.558129 44816.699395
  endloop
 endfacet
 facet normal 0.882219 0.242980 0.403300
  outer loop
   vertex 2286.328153 26.125621 45235.807156
   vertex 2480.279926 17.558129 44816.699395
   vertex 2478.328153 26.125621 44815.807156
  endloop
 endfacet
 facet normal 0.899631 0.146730 0.411260
  outer loop
   vertex 2288.279926 17.558129 45236.699395
   vertex 2289.458560 8.821543 45237.238199
   vertex 2481.458560 8.821543 44817.238199
  endloop
 endfacet
 facet normal 0.899631 0.146730 0.411260
  outer loop
   vertex 2288.279926 17.558129 45236.699395
   vertex 2481.458560 8.821543 44817.238199
   vertex 2480.279926 17.558129 44816.699395
  endloop
 endfacet
 facet normal 0.908379 0.049068 0.415259
  outer loop
   vertex 2289.458560 8.821543 45237.238199
   vertex 2289.852703 0.000000 45237.418378
   vertex 2481.852703 0.000000 44817.418378
  endloop
 endfacet
 facet normal 0.908379 0.049068 0.415259
  outer loop
   vertex 2289.458560 8.821543 45237.238199
   vertex 2481.852703 0.000000 44817.418378
   vertex 2481.458560 8.821543 44817.238199
  endloop
 endfacet
 facet normal 0.908379 -0.049068 0.415259
  outer loop
   vertex 2289.852703 0.000000 45237.418378
   vertex 2289.458560 -8.821543 45237.238199
   vertex 2481.458560 -8.821543 44817.238199
  endloop
 endfacet
 facet normal 0.908379 -0.049068 0.415259
  outer loop
   vertex 2289.852703 0.000000 45237.418378
   vertex 2481.458560 -8.821543 44817.238199
   vertex 2481.852703 0.000000 44817.418378
  endloop
 endfacet
 facet normal 0.899631 -0.146730 0.411260
  outer loop
   vertex 2289.458560 -8.821543 45237.238199
   vertex 2288.279926 -17.558129 45236.699395
   vertex 2480.279926 -17.558129 44816.699395
  endloop
 endfacet
 facet normal 0.899631 -0.146730 0.411260
  outer loop
   vertex 2289.458560 -8.821543 45237.238199
   vertex 2480.279926 -17.558129 44816.699395
   vertex 2481.458560 -8.821543 44817.238199
  endloop
 endfacet
 facet normal 0.882219 -0.242980 0.403300
  outer loop
   vertex 2288.279926 -17.558129 45236.699395
   vertex 2286.328153 -26.125621 45235.807156
   vertex 2478.328153 -26.125621 44815.807156
  endloop
 endfacet
 facet normal 0.882219 -0.242980 0.403300
  outer loop
   vertex 2288.279926 -17.558129 45236.699395
   vertex 2478.328153 -26.125621 44815.807156
   vertex 2480.279926 -17.558129 44816.699395
  endloop
 endfacet
 facet normal 0.856310 -0.336890 0.391456
  outer loop
   vertex 2286.328153 -26.125621 45235.807156
   vertex 2283.622037 -34.441509 45234.570074
   vertex 2475.622037 -34.441509 44814.570074
  endloop
 endfacet
 facet normal 0.856310 -0.336890 0.391456
  outer loop
   vertex 2286.328153 -26.125621 45235.807156
   vertex 2475.622037 -34.441509 44814.570074
   vertex 2478.328153 -26.125621 44815.807156
  endloop
 endfacet
 facet normal 0.822155 -0.427555 0.375842
  outer loop
   vertex 2283.622037 -34.441509 45234.570074
   vertex 2280.187639 -42.425706 45233.000064
   vertex 2472.187639 -42.425706 44813.000064
  endloop
 endfacet
 facet normal 0.822155 -0.427555 0.375842
  outer loop
   vertex 2283.622037 -34.441509 45234.570074
   vertex 2472.187639 -42.425706 44813.000064
   vertex 2475.622037 -34.441509 44814.570074
  endloop
 endfacet
 facet normal 0.780082 -0.514103 0.356609
  outer loop
   vertex 2280.187639 -42.425706 45233.000064
   vertex 2276.058035 -50.001321 45231.112245
   vertex 2468.058035 -50.001321 44811.112245
  endloop
 endfacet
 facet normal 0.780082 -0.514103 0.356609
  outer loop
   vertex 2280.187639 -42.425706 45233.000064
   vertex 2468.058035 -50.001321 44811.112245
   vertex 2472.187639 -42.425706 44813.000064
  endloop
 endfacet
 facet normal 0.730497 -0.595699 0.333941
  outer loop
   vertex 2276.058035 -50.001321 45231.112245
   vertex 2271.272995 -57.095396 45228.924798
   vertex 2463.272995 -57.095396 44808.924798
  endloop
 endfacet
 facet normal 0.730497 -0.595699 0.333941
  outer loop
   vertex 2276.058035 -50.001321 45231.112245
   vertex 2463.272995 -57.095396 44808.924798
   vertex 2468.058035 -50.001321 44811.112245
  endloop
 endfacet
 facet normal 0.673876 -0.671559 0.308058
  outer loop
   vertex 2271.272995 -57.095396 45228.924798
   vertex 2265.878601 -63.639610 45226.458789
   vertex 2457.878601 -63.639610 44806.458789
  endloop
 endfacet
 facet normal 0.673876 -0.671559 0.308058
  outer loop
   vertex 2271.272995 -57.095396 45228.924798
   vertex 2457.878601 -63.639610 44806.458789
   vertex 2463.272995 -57.095396 44808.924798
  endloop
 endfacet
 facet normal 0.610766 -0.740951 0.279207
  outer loop
   vertex 2265.878601 -63.639610 45226.458789
   vertex 2259.926805 -69.570941 45223.737968
   vertex 2451.926805 -69.570941 44803.737968
  endloop
 endfacet
 facet normal 0.610766 -0.740951 0.279207
  outer loop
   vertex 2265.878601 -63.639610 45226.458789
   vertex 2451.926805 -69.570941 44803.737968
   vertex 2457.878601 -63.639610 44806.458789
  endloop
 endfacet
 facet normal 0.541773 -0.803208 0.247668
  outer loop
   vertex 2259.926805 -69.570941 45223.737968
   vertex 2253.474925 -74.832265 45220.788537
   vertex 2445.474925 -74.832265 44800.788537
  endloop
 endfacet
 facet normal 0.541773 -0.803208 0.247668
  outer loop
   vertex 2259.926805 -69.570941 45223.737968
   vertex 2445.474925 -74.832265 44800.788537
   vertex 2451.926805 -69.570941 44803.737968
  endloop
 endfacet
 facet normal 0.467563 -0.857729 0.213743
  outer loop
   vertex 2253.474925 -74.832265 45220.788537
   vertex 2246.585097 -79.372914 45217.638901
   vertex 2438.585097 -79.372914 44797.638901
  endloop
 endfacet
 facet normal 0.467563 -0.857729 0.213743
  outer loop
   vertex 2253.474925 -74.832265 45220.788537
   vertex 2438.585097 -79.372914 44797.638901
   vertex 2445.474925 -74.832265 44800.788537
  endloop
 endfacet
 facet normal 0.388850 -0.903989 0.177760
  outer loop
   vertex 2246.585097 -79.372914 45217.638901
   vertex 2239.323673 -83.149158 45214.319393
   vertex 2431.323673 -83.149158 44794.319393
  endloop
 endfacet
 facet normal 0.388850 -0.903989 0.177760
  outer loop
   vertex 2246.585097 -79.372914 45217.638901
   vertex 2431.323673 -83.149158 44794.319393
   vertex 2438.585097 -79.372914 44797.638901
  endloop
 endfacet
 facet normal 0.306393 -0.941544 0.140065
  outer loop
   vertex 2239.323673 -83.149158 45214.319393
   vertex 2231.760585 -86.124630 45210.861982
   vertex 2423.760585 -86.124630 44790.861982
  endloop
 endfacet
 facet normal 0.306393 -0.941544 0.140065
  outer loop
   vertex 2239.323673 -83.149158 45214.319393
   vertex 2423.760585 -86.124630 44790.861982
   vertex 2431.323673 -83.149158 44794.319393
  endloop
 endfacet
 facet normal 0.220984 -0.970031 0.101021
  outer loop
   vertex 2231.760585 -86.124630 45210.861982
   vertex 2223.968670 -88.270675 45207.299963
   vertex 2415.968670 -88.270675 44787.299963
  endloop
 endfacet
 facet normal 0.220984 -0.970031 0.101021
  outer loop
   vertex 2231.760585 -86.124630 45210.861982
   vertex 2415.968670 -88.270675 44787.299963
   vertex 2423.760585 -86.124630 44790.861982
  endloop
 endfacet
 facet normal 0.133448 -0.989177 0.061005
  outer loop
   vertex 2223.968670 -88.270675 45207.299963
   vertex 2216.022968 -89.566625 45203.667642
   vertex 2408.022968 -89.566625 44783.667642
  endloop
 endfacet
 facet normal 0.133448 -0.989177 0.061005
  outer loop
   vertex 2223.968670 -88.270675 45207.299963
   vertex 2408.022968 -89.566625 44783.667642
   vertex 2415.968670 -88.270675 44787.299963
  endloop
 endfacet
 facet normal 0.044626 -0.998795 0.020400
  outer loop
   vertex 2216.022968 -89.566625 45203.667642
   vertex 2208.000000 -90.000000 45200.000000
   vertex 2400.000000 -90.000000 44780.000000
  endloop
 endfacet
 facet normal 0.044626 -0.998795 0.020400
  outer loop
   vertex 2216.022968 -89.566625 45203.667642
   vertex 2400.000000 -90.000000 44780.000000
   vertex 2408.022968 -89.566625 44783.667642
  endloop
 endfacet
 facet normal -0.044626 -0.998795 -0.020400
  outer loop
   vertex 2208.000000 -90.000000 45200.000000
   vertex 2199.977032 -89.566625 45196.332358
   vertex 2391.977032 -89.566625 44776.332358
  endloop
 endfacet
 facet normal -0.044626 -0.998795 -0.020400
  outer loop
   vertex 2208.000000 -90.000000 45200.000000
   vertex 2391.977032 -89.566625 44776.332358
   vertex 2400.000000 -90.000000 44780.000000
  endloop
 endfacet
 facet normal -0.133448 -0.989177 -0.061005
  outer loop
   vertex 2199.977032 -89.566625 45196.332358
   vertex 2192.031330 -88.270675 45192.700037
   vertex 2384.031330 -88.270675 44772.700037
  endloop
 endfacet
 facet normal -0.133448 -0.989177 -0.061005
  outer loop
   vertex 2199.977032 -89.566625 45196.332358
   vertex 2384.031330 -88.270675 44772.700037
   vertex 2391.977032 -89.566625 44776.332358
  endloop
 endfacet
 facet normal -0.220984 -0.970031 -0.101021
  outer loop
   vertex 2192.031330 -88.270675 45192.700037
   vertex 2184.239415 -86.124630 45189.138018
   vertex 2376.239415 -86.124630 44769.138018
  endloop
 endfacet
 facet normal -0.220984 -0.970031 -0.101021
  outer loop
   vertex 2192.031330 -88.270675 45192.700037
   vertex 2376.239415 -86.124630 44769.138018
   vertex 2384.031330 -88.270675 44772.700037
  endloop
 endfacet
 facet normal -0.306393 -0.941544 -0.140065
  outer loop
   vertex 2184.239415 -86.124630 45189.138018
   vertex 2176.676327 -83.149158 45185.680607
   vertex 2368.676327 -83.149158 44765.680607
  endloop
 endfacet
 facet normal -0.306393 -0.941544 -0.140065
  outer loop
   vertex 2184.239415 -86.124630 45189.138018
   vertex 2368.676327 -83.149158 44765.680607
   vertex 2376.239415 -86.124630 44769.138018
  endloop
 endfacet
 facet normal -0.388850 -0.903989 -0.177760
  outer loop
   vertex 2176.676327 -83.149158 45185.680607
   vertex 2169.414903 -79.372914 45182.361099
   vertex 2361.414903 -79.372914 44762.361099
  endloop
 endfacet
 facet normal -0.388850 -0.903989 -0.177760
  outer loop
   vertex 2176.676327 -83.149158 45185.680607
   vertex 2361.414903 -79.372914 44762.361099
   vertex 2368.676327 -83.149158 44765.680607
  endloop
 endfacet
 facet normal -0.467563 -0.857729 -0.213743
  outer loop
   vertex 2169.414903 -79.372914 45182.361099
   vertex 2162.525075 -74.832265 45179.211463
   vertex 2354.525075 -74.832265 44759.211463
  endloop
 endfacet
 facet normal -0.467563 -0.857729 -0.213743
  outer loop
   vertex 2169.414903 -79.372914 45182.361099
   vertex 2354.525075 -74.832265 44759.211463
   vertex 2361.414903 -79.372914 44762.361099
  endloop
 endfacet
 facet normal -0.541773 -0.803208 -0.247668
  outer loop
   vertex 2162.525075 -74.832265 45179.211463
   vertex 2156.073195 -69.570941 45176.262032
   vertex 2348.073195 -69.570941 44756.262032
  endloop
 endfacet
 facet normal -0.541773 -0.803208 -0.247668
  outer loop
   vertex 2162.525075 -74.832265 45179.211463
   vertex 2348.073195 -69.570941 44756.262032
   vertex 2354.525075 -74.832265 44759.211463
  endloop
 endfacet
 facet normal -0.610766 -0.740951 -0.279207
  outer loop
   vertex 2156.073195 -69.570941 45176.262032
   vertex 2150.121399 -63.639610 45173.541211
   vertex 2342.121399 -63.639610 44753.541211
  endloop
 endfacet
 facet normal -0.610766 -0.740951 -0.279207
  outer loop
   vertex 2156.073195 -69.570941 45176.262032
   vertex 2342.121399 -63.639610 44753.541211
   vertex 2348.073195 -69.570941 44756.262032
  endloop
 endfacet
 facet normal -0.673876 -0.671559 -0.308058
  outer loop
   vertex 2150.121399 -63.639610 45173.541211
   vertex 2144.727005 -57.095396 45171.075202
   vertex 2336.727005 -57.095396 44751.075202
  endloop
 endfacet
 facet normal -0.673876 -0.671559 -0.308058
  outer loop
   vertex 2150.121399 -63.639610 45173.541211
   vertex 2336.727005 -57.095396 44751.075202
   vertex 2342.121399 -63.639610 44753.541211
  endloop
 endfacet
 facet normal -0.730497 -0.595699 -0.333941
  outer loop
   vertex 2144.727005 -57.095396 45171.075202
   vertex 2139.941965 -50.001321 45168.887755
   vertex 2331.941965 -50.001321 44748.887755
  endloop
 endfacet
 facet normal -0.730497 -0.595699 -0.333941
  outer loop
   vertex 2144.727005 -57.095396 45171.075202
   vertex 2331.941965 -50.001321 44748.887755
   vertex 2336.727005 -57.095396 44751.075202
  endloop
 endfacet
 facet normal -0.780082 -0.514103 -0.356609
  outer loop
   vertex 2139.941965 -50.001321 45168.887755
   vertex 2135.812361 -42.425706 45166.999936
   vertex 2327.812361 -42.425706 44746.999936
  endloop
 endfacet
 facet normal -0.780082 -0.514103 -0.356609
  outer loop
   vertex 2139.941965 -50.001321 45168.887755
   vertex 2327.812361 -42.425706 44746.999936
   vertex 2331.941965 -50.001321 44748.887755
  endloop
 endfacet
 facet normal -0.822155 -0.427555 -0.375842
  outer loop
   vertex 2135.812361 -42.425706 45166.999936
   vertex 2132.377963 -34.441509 45165.429926
   vertex 2324.377963 -34.441509 44745.429926
  endloop
 endfacet
 facet normal -0.822155 -0.427555 -0.375842
  outer loop
   vertex 2135.812361 -42.425706 45166.999936
   vertex 2324.377963 -34.441509 44745.429926
   vertex 2327.812361 -42.425706 44746.999936
  endloop
 endfacet
 facet normal -0.856310 -0.336890 -0.391456
  outer loop
   vertex 2132.377963 -34.441509 45165.429926
   vertex 2129.671847 -26.125621 45164.192844
   vertex 2321.671847 -26.125621 44744.192844
  endloop
 endfacet
 facet normal -0.856310 -0.336890 -0.391456
  outer loop
   vertex 2132.377963 -34.441509 45165.429926
   vertex 2321.671847 -26.125621 44744.192844
   vertex 2324.377963 -34.441509 44745.429926
  endloop
 endfacet
 facet normal -0.882219 -0.242980 -0.403300
  outer loop
   vertex 2129.671847 -26.125621 45164.192844
   vertex 2127.720074 -17.558129 45163.300605
   vertex 2319.720074 -17.558129 44743.300605
  endloop
 endfacet
 facet normal -0.882219 -0.242980 -0.403300
  outer loop
   vertex 2129.671847 -26.125621 45164.192844
   vertex 2319.720074 -17.558129 44743.300605
   vertex 2321.671847 -26.125621 44744.192844
  endloop
 endfacet
 facet normal -0.899631 -0.146730 -0.411260
  outer loop
   vertex 2127.720074 -17.558129 45163.300605
   vertex 2126.541440 -8.821543 45162.761801
   vertex 2318.541440 -8.821543 44742.761801
  endloop
 endfacet
 facet normal -0.899631 -0.146730 -0.411260
  outer loop
   vertex 2127.720074 -17.558129 45163.300605
   vertex 2318.541440 -8.821543 44742.761801
   vertex 2319.720074 -17.558129 44743.300605
  endloop
 endfacet
 facet normal -0.908379 -0.049068 -0.415259
  outer loop
   vertex 2126.541440 -8.821543 45162.761801
   vertex 2126.147297 -0.000000 45162.581622
   vertex 2318.147297 -0.000000 44742.581622
  endloop
 endfacet
 facet normal -0.908379 -0.049068 -0.415259
  outer loop
   vertex 2126.541440 -8.821543 45162.761801
   vertex 2318.147297 -0.000000 44742.581622
   vertex 2318.541440 -8.821543 44742.761801
  endloop
 endfacet
 facet normal -0.908379 0.049068 -0.415259
  outer loop
   vertex 2126.147297 -0.000000 45162.581622
   vertex 2126.541440 8.821543 45162.761801
   vertex 2318.541440 8.821543 44742.761801
  endloop
 endfacet
 facet normal -0.908379 0.049068 -0.415259
  outer loop
   vertex 2126.147297 -0.000000 45162.581622
   vertex 2318.541440 8.821543 44742.761801
   vertex 2318.147297 -0.000000 44742.581622
  endloop
 endfacet
 facet normal -0.899631 0.146730 -0.411260
  outer loop
   vertex 2126.541440 8.821543 45162.761801
   vertex 2127.720074 17.558129 45163.300605
   vertex 2319.720074 17.558129 44743.300605
  endloop
 endfacet
 facet normal -0.899631 0.146730 -0.411260
  outer loop
   vertex 2126.541440 8.821543 45162.761801
   vertex 2319.720074 17.558129 44743.300605
   vertex 2318.541440 8.821543 44742.761801
  endloop
 endfacet
 facet normal -0.882219 0.242980 -0.403300
  outer loop
   vertex 2127.720074 17.558129 45163.300605
   vertex 2129.671847 26.125621 45164.192844
   vertex 2321.671847 26.125621 44744.192844
  endloop
 endfacet
 facet normal -0.882219 0.242980 -0.403300
  outer loop
   vertex 2127.720074 17.558129 45163.300605
   vertex 2321.671847 26.125621 44744.192844
   vertex 2319.720074 17.558129 44743.300605
  endloop
 endfacet
 facet normal -0.856310 0.336890 -0.391456
  outer loop
   vertex 2129.671847 26.125621 45164.192844
   vertex 2132.377963 34.441509 45165.429926
   vertex 2324.377963 34.441509 44745.429926
  endloop
 endfacet
 facet normal -0.856310 0.336890 -0.391456
  outer loop
   vertex 2129.671847 26.125621 45164.192844
   vertex 2324.377963 34.441509 44745.429926
   vertex 2321.671847 26.125621 44744.192844
  endloop
 endfacet
 facet normal -0.822155 0.427555 -0.375842
  outer loop
   vertex 2132.377963 34.441509 45165.429926
   vertex 2135.812361 42.425706 45166.999936
   vertex 2327.812361 42.425706 44746.999936
  endloop
 endfacet
 facet normal -0.822155 0.427555 -0.375842
  outer loop
   vertex 2132.377963 34.441509 45165.429926
   vertex 2327.812361 42.425706 44746.999936
   vertex 2324.377963 34.441509 44745.429926
  endloop
 endfacet
 facet normal -0.780082 0.514103 -0.356609
  outer loop
   vertex 2135.812361 42.425706 45166.999936
   vertex 2139.941965 50.001321 45168.887755
   vertex 2331.941965 50.001321 44748.887755
  endloop
 endfacet
 facet normal -0.780082 0.514103 -0.356609
  outer loop
   vertex 2135.812361 42.425706 45166.999936
   vertex 2331.941965 50.001321 44748.887755
   vertex 2327.812361 42.425706 44746.999936
  endloop
 endfacet
 facet normal -0.730497 0.595699 -0.333941
  outer loop
   vertex 2139.941965 50.001321 45168.887755
   vertex 2144.727005 57.095396 45171.075202
   vertex 2336.727005 57.095396 44751.075202
  endloop
 endfacet
 facet normal -0.730497 0.595699 -0.333941
  outer loop
   vertex 2139.941965 50.001321 45168.887755
   vertex 2336.727005 57.095396 44751.075202
   vertex 2331.941965 50.001321 44748.887755
  endloop
 endfacet
 facet normal -0.673876 0.671559 -0.308058
  outer loop
   vertex 2144.727005 57.095396 45171.075202
   vertex 2150.121399 63.639610 45173.541211
   vertex 2342.121399 63.639610 44753.541211
  endloop
 endfacet
 facet normal -0.673876 0.671559 -0.308058
  outer loop
   vertex 2144.727005 57.095396 45171.075202
   vertex 2342.121399 63.639610 44753.541211
   vertex 2336.727005 57.095396 44751.075202
  endloop
 endfacet
 facet normal -0.610766 0.740951 -0.279207
  outer loop
   vertex 2150.121399 63.639610 45173.541211
   vertex 2156.073195 69.570941 45176.262032
   vertex 2348.073195 69.570941 44756.262032
  endloop
 endfacet
 facet normal -0.610766 0.740951 -0.279207
  outer loop
   vertex 2150.121399 63.639610 45173.541211
   vertex 2348.073195 69.570941 44756.262032
   vertex 2342.121399 63.639610 44753.541211
  endloop
 endfacet
 facet normal -0.541773 0.803208 -0.247668
  outer loop
   vertex 2156.073195 69.570941 45176.262032
   vertex 2162.525075 74.832265 45179.211463
   vertex 2354.525075 74.832265 44759.211463
  endloop
 endfacet
 facet normal -0.541773 0.803208 -0.247668
  outer loop
   vertex 2156.073195 69.570941 45176.262032
   vertex 2354.525075 74.832265 44759.211463
   vertex 2348.073195 69.570941 44756.262032
  endloop
 endfacet
 facet normal -0.467563 0.857729 -0.213743
  outer loop
   vertex 2162.525075 74.832265 45179.211463
   vertex 2169.414903 79.372914 45182.361099
   vertex 2361.414903 79.372914 44762.361099
  endloop
 endfacet
 facet normal -0.467563 0.857729 -0.213743
  outer loop
   vertex 2162.525075 74.832265 45179.211463
   vertex 2361.414903 79.372914 44762.361099
   vertex 2354.525075 74.832265 44759.211463
  endloop
 endfacet
 facet normal -0.388850 0.903989 -0.177760
  outer loop
   vertex 2169.414903 79.372914 45182.361099
   vertex 2176.676327 83.149158 45185.680607
   vertex 2368.676327 83.149158 44765.680607
  endloop
 endfacet
 facet normal -0.388850 0.903989 -0.177760
  outer loop
   vertex 2169.414903 79.372914 45182.361099
   vertex 2368.676327 83.149158 44765.680607
   vertex 2361.414903 79.372914 44762.361099
  endloop
 endfacet
 facet normal -0.306393 0.941544 -0.140065
  outer loop
   vertex 2176.676327 83.149158 45185.680607
   vertex 2184.239415 86.124630 45189.138018
   vertex 2376.239415 86.124630 44769.138018
  endloop
 endfacet
 facet normal -0.306393 0.941544 -0.140065
  outer loop
   vertex 2176.676327 83.149158 45185.680607
   vertex 2376.239415 86.124630 44769.138018
   vertex 2368.676327 83.149158 44765.680607
  endloop
 endfacet
 facet normal -0.220984 0.970031 -0.101021
  outer loop
   vertex 2184.239415 86.124630 45189.138018
   vertex 2192.031330 88.270675 45192.700037
   vertex 2384.031330 88.270675 44772.700037
  endloop
 endfacet
 facet normal -0.220984 0.970031 -0.101021
  outer loop
   vertex 2184.239415 86.124630 45189.138018
   vertex 2384.031330 88.270675 44772.700037
   vertex 2376.239415 86.124630 44769.138018
  endloop
 endfacet
 facet normal -0.133448 0.989177 -0.061005
  outer loop
   vertex 2192.031330 88.270675 45192.700037
   vertex 2199.977032 89.566625 45196.332358
   vertex 2391.977032 89.566625 44776.332358
  endloop
 endfacet
 facet normal -0.133448 0.989177 -0.061005
  outer loop
   vertex 2192.031330 88.270675 45192.700037
   vertex 2391.977032 89.566625 44776.332358
   vertex 2384.031330 88.270675 44772.700037
  endloop
 endfacet
 facet normal -0.044626 0.998795 -0.020400
  outer loop
   vertex 2199.977032 89.566625 45196.332358
   vertex 2208.000000 90.000000 45200.000000
   vertex 2400.000000 90.000000 44780.000000
  endloop
 endfacet
 facet normal -0.044626 0.998795 -0.020400
  outer loop
   vertex 2199.977032 89.566625 45196.332358
   vertex 2400.000000 90.000000 44780.000000
   vertex 2391.977032 89.566625 44776.332358
  endloop
 endfacet
 facet normal -0.044626 -0.998795 -0.020400
  outer loop
   vertex 2407.131527 79.614778 44783.260127
   vertex 2215.131527 79.614778 45203.260127
   vertex 2208.000000 80.000000 45200.000000
  endloop
 endfacet
 facet normal -0.044626 -0.998795 -0.020400
  outer loop
   vertex 2400.000000 80.000000 44780.000000
   vertex 2407.131527 79.614778 44783.260127
   vertex 2208.000000 80.000000 45200.000000
  endloop
 endfacet
 facet normal -0.133448 -0.989177 -0.061005
  outer loop
   vertex 2414.194373 78.462822 44786.488856
   vertex 2222.194373 78.462822 45206.488856
   vertex 2215.131527 79.614778 45203.260127
  endloop
 endfacet
 facet normal -0.133448 -0.989177 -0.061005
  outer loop
   vertex 2407.131527 79.614778 44783.260127
   vertex 2414.194373 78.462822 44786.488856
   vertex 2215.131527 79.614778 45203.260127
  endloop
 endfacet
 facet normal -0.220984 -0.970031 -0.101021
  outer loop
   vertex 2421.120520 76.555227 44789.655095
   vertex 2229.120520 76.555227 45209.655095
   vertex 2222.194373 78.462822 45206.488856
  endloop
 endfacet
 facet normal -0.220984 -0.970031 -0.101021
  outer loop
   vertex 2414.194373 78.462822 44786.488856
   vertex 2421.120520 76.555227 44789.655095
   vertex 2222.194373 78.462822 45206.488856
  endloop
 endfacet
 facet normal -0.306393 -0.941544 -0.140065
  outer loop
   vertex 2427.843265 73.910363 44792.728350
   vertex 2235.843265 73.910363 45212.728350
   vertex 2229.120520 76.555227 45209.655095
  endloop
 endfacet
 facet normal -0.306393 -0.941544 -0.140065
  outer loop
   vertex 2421.120520 76.555227 44789.655095
   vertex 2427.843265 73.910363 44792.728350
   vertex 2229.120520 76.555227 45209.655095
  endloop
 endfacet
 facet normal -0.388850 -0.903989 -0.177760
  outer loop
   vertex 2434.297864 70.553701 44795.679024
   vertex 2242.297864 70.553701 45215.679024
   vertex 2235.843265 73.910363 45212.728350
  endloop
 endfacet
 facet normal -0.388850 -0.903989 -0.177760
  outer loop
   vertex 2427.843265 73.910363 44792.728350
   vertex 2434.297864 70.553701 44795.679024
   vertex 2235.843265 73.910363 45212.728350
  endloop
 endfacet
 facet normal -0.467563 -0.857729 -0.213743
  outer loop
   vertex 2440.422156 66.517569 44798.478700
   vertex 2248.422156 66.517569 45218.478700
   vertex 2242.297864 70.553701 45215.679024
  endloop
 endfacet
 facet normal -0.467563 -0.857729 -0.213743
  outer loop
   vertex 2434.297864 70.553701 44795.679024
   vertex 2440.422156 66.517569 44798.478700
   vertex 2242.297864 70.553701 45215.679024
  endloop
 endfacet
 facet normal -0.541773 -0.803208 -0.247668
  outer loop
   vertex 2446.157160 61.840836 44801.100416
   vertex 2254.157160 61.840836 45221.100416
   vertex 2248.422156 66.517569 45218.478700
  endloop
 endfacet
 facet normal -0.541773 -0.803208 -0.247668
  outer loop
   vertex 2440.422156 66.517569 44798.478700
   vertex 2446.157160 61.840836 44801.100416
   vertex 2248.422156 66.517569 45218.478700
  endloop
 endfacet
 facet normal -0.610766 -0.740951 -0.279207
  outer loop
   vertex 2451.447646 56.568542 44803.518924
   vertex 2259.447646 56.568542 45223.518924
   vertex 2254.157160 61.840836 45221.100416
  endloop
 endfacet
 facet normal -0.610766 -0.740951 -0.279207
  outer loop
   vertex 2446.157160 61.840836 44801.100416
   vertex 2451.447646 56.568542 44803.518924
   vertex 2254.157160 61.840836 45221.100416
  endloop
 endfacet
 facet normal -0.673876 -0.671559 -0.308058
  outer loop
   vertex 2456.242662 50.751463 44805.710931
   vertex 2264.242662 50.751463 45225.710931
   vertex 2259.447646 56.568542 45223.518924
  endloop
 endfacet
 facet normal -0.673876 -0.671559 -0.308058
  outer loop
   vertex 2451.447646 56.568542 44803.518924
   vertex 2456.242662 50.751463 44805.710931
   vertex 2259.447646 56.568542 45223.518924
  endloop
 endfacet
 facet normal -0.730497 -0.595699 -0.333941
  outer loop
   vertex 2460.496031 44.445619 44807.655329
   vertex 2268.496031 44.445619 45227.655329
   vertex 2264.242662 50.751463 45225.710931
  endloop
 endfacet
 facet normal -0.730497 -0.595699 -0.333941
  outer loop
   vertex 2456.242662 50.751463 44805.710931
   vertex 2460.496031 44.445619 44807.655329
   vertex 2264.242662 50.751463 45225.710931
  endloop
 endfacet
 facet normal -0.780082 -0.514103 -0.356609
  outer loop
   vertex 2464.166790 37.711739 44809.333390
   vertex 2272.166790 37.711739 45229.333390
   vertex 2268.496031 44.445619 45227.655329
  endloop
 endfacet
 facet normal -0.780082 -0.514103 -0.356609
  outer loop
   vertex 2460.496031 44.445619 44807.655329
   vertex 2464.166790 37.711739 44809.333390
   vertex 2268.496031 44.445619 45227.655329
  endloop
 endfacet
 facet normal -0.822155 -0.427555 -0.375842
  outer loop
   vertex 2467.219588 30.614675 44810.728955
   vertex 2275.219588 30.614675 45230.728955
   vertex 2272.166790 37.711739 45229.333390
  endloop
 endfacet
 facet normal -0.822155 -0.427555 -0.375842
  outer loop
   vertex 2464.166790 37.711739 44809.333390
   vertex 2467.219588 30.614675 44810.728955
   vertex 2272.166790 37.711739 45229.333390
  endloop
 endfacet
 facet normal -0.856310 -0.336890 -0.391456
  outer loop
   vertex 2469.625025 23.222774 44811.828583
   vertex 2277.625025 23.222774 45231.828583
   vertex 2275.219588 30.614675 45230.728955
  endloop
 endfacet
 facet normal -0.856310 -0.336890 -0.391456
  outer loop
   vertex 2467.219588 30.614675 44810.728955
   vertex 2469.625025 23.222774 44811.828583
   vertex 2275.219588 30.614675 45230.728955
  endloop
 endfacet
 facet normal -0.882219 -0.242980 -0.403300
  outer loop
   vertex 2471.359934 15.607226 44812.621684
   vertex 2279.359934 15.607226 45232.621684
   vertex 2277.625025 23.222774 45231.828583
  endloop
 endfacet
 facet normal -0.882219 -0.242980 -0.403300
  outer loop
   vertex 2469.625025 23.222774 44811.828583
   vertex 2471.359934 15.607226 44812.621684
   vertex 2277.625025 23.222774 45231.828583
  endloop
 endfacet
 facet normal -0.899631 -0.146730 -0.411260
  outer loop
   vertex 2472.407609 7.841371 44813.100621
   vertex 2280.407609 7.841371 45233.100621
   vertex 2279.359934 15.607226 45232.621684
  endloop
 endfacet
 facet normal -0.899631 -0.146730 -0.411260
  outer loop
   vertex 2471.359934 15.607226 44812.621684
   vertex 2472.407609 7.841371 44813.100621
   vertex 2279.359934 15.607226 45232.621684
  endloop
 endfacet
 facet normal -0.908379 -0.049068 -0.415259
  outer loop
   vertex 2472.757958 0.000000 44813.260781
   vertex 2280.757958 0.000000 45233.260781
   vertex 2280.407609 7.841371 45233.100621
  endloop
 endfacet
 facet normal -0.908379 -0.049068 -0.415259
  outer loop
   vertex 2472.407609 7.841371 44813.100621
   vertex 2472.757958 0.000000 44813.260781
   vertex 2280.407609 7.841371 45233.100621
  endloop
 endfacet
 facet normal -0.908379 0.049068 -0.415259
  outer loop
   vertex 2472.407609 -7.841371 44813.100621
   vertex 2280.407609 -7.841371 45233.100621
   vertex 2280.757958 0.000000 45233.260781
  endloop
 endfacet
 facet normal -0.908379 0.049068 -0.415259
  outer loop
   vertex 2472.757958 0.000000 44813.260781
   vertex 2472.407609 -7.841371 44813.100621
   vertex 2280.757958 0.000000 45233.260781
  endloop
 endfacet
 facet normal -0.899631 0.146730 -0.411260
  outer loop
   vertex 2471.359934 -15.607226 44812.621684
   vertex 2279.359934 -15.607226 45232.621684
   vertex 2280.407609 -7.841371 45233.100621
  endloop
 endfacet
 facet normal -0.899631 0.146730 -0.411260
  outer loop
   vertex 2472.407609 -7.841371 44813.100621
   vertex 2471.359934 -15.607226 44812.621684
   vertex 2280.407609 -7.841371 45233.100621
  endloop
 endfacet
 facet normal -0.882219 0.242980 -0.403300
  outer loop
   vertex 2469.625025 -23.222774 44811.828583
   vertex 2277.625025 -23.222774 45231.828583
   vertex 2279.359934 -15.607226 45232.621684
  endloop
 endfacet
 facet normal -0.882219 0.242980 -0.403300
  outer loop
   vertex 2471.359934 -15.607226 44812.621684
   vertex 2469.625025 -23.222774 44811.828583
   vertex 2279.359934 -15.607226 45232.621684
  endloop
 endfacet
 facet normal -0.856310 0.336890 -0.391456
  outer loop
   vertex 2467.219588 -30.614675 44810.728955
   vertex 2275.219588 -30.614675 45230.728955
   vertex 2277.625025 -23.222774 45231.828583
  endloop
 endfacet
 facet normal -0.856310 0.336890 -0.391456
  outer loop
   vertex 2469.625025 -23.222774 44811.828583
   vertex 2467.219588 -30.614675 44810.728955
   vertex 2277.625025 -23.222774 45231.828583
  endloop
 endfacet
 facet normal -0.822155 0.427555 -0.375842
  outer loop
   vertex 2464.166790 -37.711739 44809.333390
   vertex 2272.166790 -37.711739 45229.333390
   vertex 2275.219588 -30.614675 45230.728955
  endloop
 endfacet
 facet normal -0.822155 0.427555 -0.375842
  outer loop
   vertex 2467.219588 -30.614675 44810.728955
   vertex 2464.166790 -37.711739 44809.333390
   vertex 2275.219588 -30.614675 45230.728955
  endloop
 endfacet
 facet normal -0.780082 0.514103 -0.356609
  outer loop
   vertex 2460.496031 -44.445619 44807.655329
   vertex 2268.496031 -44.445619 45227.655329
   vertex 2272.166790 -37.711739 45229.333390
  endloop
 endfacet
 facet normal -0.780082 0.514103 -0.356609
  outer loop
   vertex 2464.166790 -37.711739 44809.333390
   vertex 2460.496031 -44.445619 44807.655329
   vertex 2272.166790 -37.711739 45229.333390
  endloop
 endfacet
 facet normal -0.730497 0.595699 -0.333941
  outer loop
   vertex 2456.242662 -50.751463 44805.710931
   vertex 2264.242662 -50.751463 45225.710931
   vertex 2268.496031 -44.445619 45227.655329
  endloop
 endfacet
 facet normal -0.730497 0.595699 -0.333941
  outer loop
   vertex 2460.496031 -44.445619 44807.655329
   vertex 2456.242662 -50.751463 44805.710931
   vertex 2268.496031 -44.445619 45227.655329
  endloop
 endfacet
 facet normal -0.673876 0.671559 -0.308058
  outer loop
   vertex 2451.447646 -56.568542 44803.518924
   vertex 2259.447646 -56.568542 45223.518924
   vertex 2264.242662 -50.751463 45225.710931
  endloop
 endfacet
 facet normal -0.673876 0.671559 -0.308058
  outer loop
   vertex 2456.242662 -50.751463 44805.710931
   vertex 2451.447646 -56.568542 44803.518924
   vertex 2264.242662 -50.751463 45225.710931
  endloop
 endfacet
 facet normal -0.610766 0.740951 -0.279207
  outer loop
   vertex 2446.157160 -61.840836 44801.100416
   vertex 2254.157160 -61.840836 45221.100416
   vertex 2259.447646 -56.568542 45223.518924
  endloop
 endfacet
 facet normal -0.610766 0.740951 -0.279207
  outer loop
   vertex 2451.447646 -56.568542 44803.518924
   vertex 2446.157160 -61.840836 44801.100416
   vertex 2259.447646 -56.568542 45223.518924
  endloop
 endfacet
 facet normal -0.541773 0.803208 -0.247668
  outer loop
   vertex 2440.422156 -66.517569 44798.478700
   vertex 2248.422156 -66.517569 45218.478700
   vertex 2254.157160 -61.840836 45221.100416
  endloop
 endfacet
 facet normal -0.541773 0.803208 -0.247668
  outer loop
   vertex 2446.157160 -61.840836 44801.100416
   vertex 2440.422156 -66.517569 44798.478700
   vertex 2254.157160 -61.840836 45221.100416
  endloop
 endfacet
 facet normal -0.467563 0.857729 -0.213743
  outer loop
   vertex 2434.297864 -70.553701 44795.679024
   vertex 2242.297864 -70.553701 45215.679024
   vertex 2248.422156 -66.517569 45218.478700
  endloop
 endfacet
 facet normal -0.467563 0.857729 -0.213743
  outer loop
   vertex 2440.422156 -66.517569 44798.478700
   vertex 2434.297864 -70.553701 44795.679024
   vertex 2248.422156 -66.517569 45218.478700
  endloop
 endfacet
 facet normal -0.388850 0.903989 -0.177760
  outer loop
   vertex 2427.843265 -73.910363 44792.728350
   vertex 2235.843265 -73.910363 45212.728350
   vertex 2242.297864 -70.553701 45215.679024
  endloop
 endfacet
 facet normal -0.388850 0.903989 -0.177760
  outer loop
   vertex 2434.297864 -70.553701 44795.679024
   vertex 2427.843265 -73.910363 44792.728350
   vertex 2242.297864 -70.553701 45215.679024
  endloop
 endfacet
 facet normal -0.306393 0.941544 -0.140065
  outer loop
   vertex 2421.120520 -76.555227 44789.655095
   vertex 2229.120520 -76.555227 45209.655095
   vertex 2235.843265 -73.910363 45212.728350
  endloop
 endfacet
 facet normal -0.306393 0.941544 -0.140065
  outer loop
   vertex 2427.843265 -73.910363 44792.728350
   vertex 2421.120520 -76.555227 44789.655095
   vertex 2235.843265 -73.910363 45212.728350
  endloop
 endfacet
 facet normal -0.220984 0.970031 -0.101021
  outer loop
   vertex 2414.194373 -78.462822 44786.488856
   vertex 2222.194373 -78.462822 45206.488856
   vertex 2229.120520 -76.555227 45209.655095
  endloop
 endfacet
 facet normal -0.220984 0.970031 -0.101021
  outer loop
   vertex 2421.120520 -76.555227 44789.655095
   vertex 2414.194373 -78.462822 44786.488856
   vertex 2229.120520 -76.555227 45209.655095
  endloop
 endfacet
 facet normal -0.133448 0.989177 -0.061005
  outer loop
   vertex 2407.131527 -79.614778 44783.260127
   vertex 2215.131527 -79.614778 45203.260127
   vertex 2222.194373 -78.462822 45206.488856
  endloop
 endfacet
 facet normal -0.133448 0.989177 -0.061005
  outer loop
   vertex 2414.194373 -78.462822 44786.488856
   vertex 2407.131527 -79.614778 44783.260127
   vertex 2222.194373 -78.462822 45206.488856
  endloop
 endfacet
 facet normal -0.044626 0.998795 -0.020400
  outer loop
   vertex 2400.000000 -80.000000 44780.000000
   vertex 2208.000000 -80.000000 45200.000000
   vertex 2215.131527 -79.614778 45203.260127
  endloop
 endfacet
 facet normal -0.044626 0.998795 -0.020400
  outer loop
   vertex 2407.131527 -79.614778 44783.260127
   vertex 2400.000000 -80.000000 44780.000000
   vertex 2215.131527 -79.614778 45203.260127
  endloop
 endfacet
 facet normal 0.044626 0.998795 0.020400
  outer loop
   vertex 2392.868473 -79.614778 44776.739873
   vertex 2200.868473 -79.614778 45196.739873
   vertex 2208.000000 -80.000000 45200.000000
  endloop
 endfacet
 facet normal 0.044626 0.998795 0.020400
  outer loop
   vertex 2400.000000 -80.000000 44780.000000
   vertex 2392.868473 -79.614778 44776.739873
   vertex 2208.000000 -80.000000 45200.000000
  endloop
 endfacet
 facet normal 0.133448 0.989177 0.061005
  outer loop
   vertex 2385.805627 -78.462822 44773.511144
   vertex 2193.805627 -78.462822 45193.511144
   vertex 2200.868473 -79.614778 45196.739873
  endloop
 endfacet
 facet normal 0.133448 0.989177 0.061005
  outer loop
   vertex 2392.868473 -79.614778 44776.739873
   vertex 2385.805627 -78.462822 44773.511144
   vertex 2200.868473 -79.614778 45196.739873
  endloop
 endfacet
 facet normal 0.220984 0.970031 0.101021
  outer loop
   vertex 2378.879480 -76.555227 44770.344905
   vertex 2186.879480 -76.555227 45190.344905
   vertex 2193.805627 -78.462822 45193.511144
  endloop
 endfacet
 facet normal 0.220984 0.970031 0.101021
  outer loop
   vertex 2385.805627 -78.462822 44773.511144
   vertex 2378.879480 -76.555227 44770.344905
   vertex 2193.805627 -78.462822 45193.511144
  endloop
 endfacet
 facet normal 0.306393 0.941544 0.140065
  outer loop
   vertex 2372.156735 -73.910363 44767.271650
   vertex 2180.156735 -73.910363 45187.271650
   vertex 2186.879480 -76.555227 45190.344905
  endloop
 endfacet
 facet normal 0.306393 0.941544 0.140065
  outer loop
   vertex 2378.879480 -76.555227 44770.344905
   vertex 2372.156735 -73.910363 44767.271650
   vertex 2186.879480 -76.555227 45190.344905
  endloop
 endfacet
 facet normal 0.388850 0.903989 0.177760
  outer loop
   vertex 2365.702136 -70.553701 44764.320976
   vertex 2173.702136 -70.553701 45184.320976
   vertex 2180.156735 -73.910363 45187.271650
  endloop
 endfacet
 facet normal 0.388850 0.903989 0.177760
  outer loop
   vertex 2372.156735 -73.910363 44767.271650
   vertex 2365.702136 -70.553701 44764.320976
   vertex 2180.156735 -73.910363 45187.271650
  endloop
 endfacet
 facet normal 0.467563 0.857729 0.213743
  outer loop
   vertex 2359.577844 -66.517569 44761.521300
   vertex 2167.577844 -66.517569 45181.521300
   vertex 2173.702136 -70.553701 45184.320976
  endloop
 endfacet
 facet normal 0.467563 0.857729 0.213743
  outer loop
   vertex 2365.702136 -70.553701 44764.320976
   vertex 2359.577844 -66.517569 44761.521300
   vertex 2173.702136 -70.553701 45184.320976
  endloop
 endfacet
 facet normal 0.541773 0.803208 0.247668
  outer loop
   vertex 2353.842840 -61.840836 44758.899584
   vertex 2161.842840 -61.840836 45178.899584
   vertex 2167.577844 -66.517569 45181.521300
  endloop
 endfacet
 facet normal 0.541773 0.803208 0.247668
  outer loop
   vertex 2359.577844 -66.517569 44761.521300
   vertex 2353.842840 -61.840836 44758.899584
   vertex 2167.577844 -66.517569 45181.521300
  endloop
 endfacet
 facet normal 0.610766 0.740951 0.279207
  outer loop
   vertex 2348.552354 -56.568542 44756.481076
   vertex 2156.552354 -56.568542 45176.481076
   vertex 2161.842840 -61.840836 45178.899584
  endloop
 endfacet
 facet normal 0.610766 0.740951 0.279207
  outer loop
   vertex 2353.842840 -61.840836 44758.899584
   vertex 2348.552354 -56.568542 44756.481076
   vertex 2161.842840 -61.840836 45178.899584
  endloop
 endfacet
 facet normal 0.673876 0.671559 0.308058
  outer loop
   vertex 2343.757338 -50.751463 44754.289069
   vertex 2151.757338 -50.751463 45174.289069
   vertex 2156.552354 -56.568542 45176.481076
  endloop
 endfacet
 facet normal 0.673876 0.671559 0.308058
  outer loop
   vertex 2348.552354 -56.568542 44756.481076
   vertex 2343.757338 -50.751463 44754.289069
   vertex 2156.552354 -56.568542 45176.481076
  endloop
 endfacet
 facet normal 0.730497 0.595699 0.333941
  outer loop
   vertex 2339.503969 -44.445619 44752.344671
   vertex 2147.503969 -44.445619 45172.344671
   vertex 2151.757338 -50.751463 45174.289069
  endloop
 endfacet
 facet normal 0.730497 0.595699 0.333941
  outer loop
   vertex 2343.757338 -50.751463 44754.289069
   vertex 2339.503969 -44.445619 44752.344671
   vertex 2151.757338 -50.751463 45174.289069
  endloop
 endfacet
 facet normal 0.780082 0.514103 0.356609
  outer loop
   vertex 2335.833210 -37.711739 44750.666610
   vertex 2143.833210 -37.711739 45170.666610
   vertex 2147.503969 -44.445619 45172.344671
  endloop
 endfacet
 facet normal 0.780082 0.514103 0.356609
  outer loop
   vertex 2339.503969 -44.445619 44752.344671
   vertex 2335.833210 -37.711739 44750.666610
   vertex 2147.503969 -44.445619 45172.344671
  endloop
 endfacet
 facet normal 0.822155 0.427555 0.375842
  outer loop
   vertex 2332.780412 -30.614675 44749.271045
   vertex 2140.780412 -30.614675 45169.271045
   vertex 2143.833210 -37.711739 45170.666610
  endloop
 endfacet
 facet normal 0.822155 0.427555 0.375842
  outer loop
   vertex 2335.833210 -37.711739 44750.666610
   vertex 2332.780412 -30.614675 44749.271045
   vertex 2143.833210 -37.711739 45170.666610
  endloop
 endfacet
 facet normal 0.856310 0.336890 0.391456
  outer loop
   vertex 2330.374975 -23.222774 44748.171417
   vertex 2138.374975 -23.222774 45168.171417
   vertex 2140.780412 -30.614675 45169.271045
  endloop
 endfacet
 facet normal 0.856310 0.336890 0.391456
  outer loop
   vertex 2332.780412 -30.614675 44749.271045
   vertex 2330.374975 -23.222774 44748.171417
   vertex 2140.780412 -30.614675 45169.271045
  endloop
 endfacet
 facet normal 0.882219 0.242980 0.403300
  outer loop
   vertex 2328.640066 -15.607226 44747.378316
   vertex 2136.640066 -15.607226 45167.378316
   vertex 2138.374975 -23.222774 45168.171417
  endloop
 endfacet
 facet normal 0.882219 0.242980 0.403300
  outer loop
   vertex 2330.374975 -23.222774 44748.171417
   vertex 2328.640066 -15.607226 44747.378316
   vertex 2138.374975 -23.222774 45168.171417
  endloop
 endfacet
 facet normal 0.899631 0.146730 0.411260
  outer loop
   vertex 2327.592391 -7.841371 44746.899379
   vertex 2135.592391 -7.841371 45166.899379
   vertex 2136.640066 -15.607226 45167.378316
  endloop
 endfacet
 facet normal 0.899631 0.146730 0.411260
  outer loop
   vertex 2328.640066 -15.607226 44747.378316
   vertex 2327.592391 -7.841371 44746.899379
   vertex 2136.640066 -15.607226 45167.378316
  endloop
 endfacet
 facet normal 0.908379 0.049068 0.415259
  outer loop
   vertex 2327.242042 -0.000000 44746.739219
   vertex 2135.242042 -0.000000 45166.739219
   vertex 2135.592391 -7.841371 45166.899379
  endloop
 endfacet
 facet normal 0.908379 0.049068 0.415259
  outer loop
   vertex 2327.592391 -7.841371 44746.899379
   vertex 2327.242042 -0.000000 44746.739219
   vertex 2135.592391 -7.841371 45166.899379
  endloop
 endfacet
 facet normal 0.908379 -0.049068 0.415259
  outer loop
   vertex 2327.592391 7.841371 44746.899379
   vertex 2135.592391 7.841371 45166.899379
   vertex 2135.242042 -0.000000 45166.739219
  endloop
 endfacet
 facet normal 0.908379 -0.049068 0.415259
  outer loop
   vertex 2327.242042 -0.000000 44746.739219
   vertex 2327.592391 7.841371 44746.899379
   vertex 2135.242042 -0.000000 45166.739219
  endloop
 endfacet
 facet normal 0.899631 -0.146730 0.411260
  outer loop
   vertex 2328.640066 15.607226 44747.378316
   vertex 2136.640066 15.607226 45167.378316
   vertex 2135.592391 7.841371 45166.899379
  endloop
 endfacet
 facet normal 0.899631 -0.146730 0.411260
  outer loop
   vertex 2327.592391 7.841371 44746.899379
   vertex 2328.640066 15.607226 44747.378316
   vertex 2135.592391 7.841371 45166.899379
  endloop
 endfacet
 facet normal 0.882219 -0.242980 0.403300
  outer loop
   vertex 2330.374975 23.222774 44748.171417
   vertex 2138.374975 23.222774 45168.171417
   vertex 2136.640066 15.607226 45167.378316
  endloop
 endfacet
 facet normal 0.882219 -0.242980 0.403300
  outer loop
   vertex 2328.640066 15.607226 44747.378316
   vertex 2330.374975 23.222774 44748.171417
   vertex 2136.640066 15.607226 45167.378316
  endloop
 endfacet
 facet normal 0.856310 -0.336890 0.391456
  outer loop
   vertex 2332.780412 30.614675 44749.271045
   vertex 2140.780412 30.614675 45169.271045
   vertex 2138.374975 23.222774 45168.171417
  endloop
 endfacet
 facet normal 0.856310 -0.336890 0.391456
  outer loop
   vertex 2330.374975 23.222774 44748.171417
   vertex 2332.780412 30.614675 44749.271045
   vertex 2138.374975 23.222774 45168.171417
  endloop
 endfacet
 facet normal 0.822155 -0.427555 0.375842
  outer loop
   vertex 2335.833210 37.711739 44750.666610
   vertex 2143.833210 37.711739 45170.666610
   vertex 2140.780412 30.614675 45169.271045
  endloop
 endfacet
 facet normal 0.822155 -0.427555 0.375842
  outer loop
   vertex 2332.780412 30.614675 44749.271045
   vertex 2335.833210 37.711739 44750.666610
   vertex 2140.780412 30.614675 45169.271045
  endloop
 endfacet
 facet normal 0.780082 -0.514103 0.356609
  outer loop
   vertex 2339.503969 44.445619 44752.344671
   vertex 2147.503969 44.445619 45172.344671
   vertex 2143.833210 37.711739 45170.666610
  endloop
 endfacet
 facet normal 0.780082 -0.514103 0.356609
  outer loop
   vertex 2335.833210 37.711739 44750.666610
   vertex 2339.503969 44.445619 44752.344671
   vertex 2143.833210 37.711739 45170.666610
  endloop
 endfacet
 facet normal 0.730497 -0.595699 0.333941
  outer loop
   vertex 2343.757338 50.751463 44754.289069
   vertex 2151.757338 50.751463 45174.289069
   vertex 2147.503969 44.445619 45172.344671
  endloop
 endfacet
 facet normal 0.730497 -0.595699 0.333941
  outer loop
   vertex 2339.503969 44.445619 44752.344671
   vertex 2343.757338 50.751463 44754.289069
   vertex 2147.503969 44.445619 45172.344671
  endloop
 endfacet
 facet normal 0.673876 -0.671559 0.308058
  outer loop
   vertex 2348.552354 56.568542 44756.481076
   vertex 2156.552354 56.568542 45176.481076
   vertex 2151.757338 50.751463 45174.289069
  endloop
 endfacet
 facet normal 0.673876 -0.671559 0.308058
  outer loop
   vertex 2343.757338 50.751463 44754.289069
   vertex 2348.552354 56.568542 44756.481076
   vertex 2151.757338 50.751463 45174.289069
  endloop
 endfacet
 facet normal 0.610766 -0.740951 0.279207
  outer loop
   vertex 2353.842840 61.840836 44758.899584
   vertex 2161.842840 61.840836 45178.899584
   vertex 2156.552354 56.568542 45176.481076
  endloop
 endfacet
 facet normal 0.610766 -0.740951 0.279207
  outer loop
   vertex 2348.552354 56.568542 44756.481076
   vertex 2353.842840 61.840836 44758.899584
   vertex 2156.552354 56.568542 45176.481076
  endloop
 endfacet
 facet normal 0.541773 -0.803208 0.247668
  outer loop
   vertex 2359.577844 66.517569 44761.521300
   vertex 2167.577844 66.517569 45181.521300
   vertex 2161.842840 61.840836 45178.899584
  endloop
 endfacet
 facet normal 0.541773 -0.803208 0.247668
  outer loop
   vertex 2353.842840 61.840836 44758.899584
   vertex 2359.577844 66.517569 44761.521300
   vertex 2161.842840 61.840836 45178.899584
  endloop
 endfacet
 facet normal 0.467563 -0.857729 0.213743
  outer loop
   vertex 2365.702136 70.553701 44764.320976
   vertex 2173.702136 70.553701 45184.320976
   vertex 2167.577844 66.517569 45181.521300
  endloop
 endfacet
 facet normal 0.467563 -0.857729 0.213743
  outer loop
   vertex 2359.577844 66.517569 44761.521300
   vertex 2365.702136 70.553701 44764.320976
   vertex 2167.577844 66.517569 45181.521300
  endloop
 endfacet
 facet normal 0.388850 -0.903989 0.177760
  outer loop
   vertex 2372.156735 73.910363 44767.271650
   vertex 2180.156735 73.910363 45187.271650
   vertex 2173.702136 70.553701 45184.320976
  endloop
 endfacet
 facet normal 0.388850 -0.903989 0.177760
  outer loop
   vertex 2365.702136 70.553701 44764.320976
   vertex 2372.156735 73.910363 44767.271650
   vertex 2173.702136 70.553701 45184.320976
  endloop
 endfacet
 facet normal 0.306393 -0.941544 0.140065
  outer loop
   vertex 2378.879480 76.555227 44770.344905
   vertex 2186.879480 76.555227 45190.344905
   vertex 2180.156735 73.910363 45187.271650
  endloop
 endfacet
 facet normal 0.306393 -0.941544 0.140065
  outer loop
   vertex 2372.156735 73.910363 44767.271650
   vertex 2378.879480 76.555227 44770.344905
   vertex 2180.156735 73.910363 45187.271650
  endloop
 endfacet
 facet normal 0.220984 -0.970031 0.101021
  outer loop
   vertex 2385.805627 78.462822 44773.511144
   vertex 2193.805627 78.462822 45193.511144
   vertex 2186.879480 76.555227 45190.344905
  endloop
 endfacet
 facet normal 0.220984 -0.970031 0.101021
  outer loop
   vertex 2378.879480 76.555227 44770.344905
   vertex 2385.805627 78.462822 44773.511144
   vertex 2186.879480 76.555227 45190.344905
  endloop
 endfacet
 facet normal 0.133448 -0.989177 0.061005
  outer loop
   vertex 2392.868473 79.614778 44776.739873
   vertex 2200.868473 79.614778 45196.739873
   vertex 2193.805627 78.462822 45193.511144
  endloop
 endfacet
 facet normal 0.133448 -0.989177 0.061005
  outer loop
   vertex 2385.805627 78.462822 44773.511144
   vertex 2392.868473 79.614778 44776.739873
   vertex 2193.805627 78.462822 45193.511144
  endloop
 endfacet
 facet normal 0.044626 -0.998795 0.020400
  outer loop
   vertex 2400.000000 80.000000 44780.000000
   vertex 2208.000000 80.000000 45200.000000
   vertex 2200.868473 79.614778 45196.739873
  endloop
 endfacet
 facet normal 0.044626 -0.998795 0.020400
  outer loop
   vertex 2392.868473 79.614778 44776.739873
   vertex 2400.000000 80.000000 44780.000000
   vertex 2200.868473 79.614778 45196.739873
  endloop
 endfacet
endsolid part
