solid SII_LOX_feed_0_Hrun
 facet normal 0.000000 0.998795 0.049068
  outer loop
   vertex -3140.000000 90.000000 45200.000000
   vertex -3140.000000 89.566625 45208.821543
   vertex -2208.000000 89.566625 45208.821543
  endloop
 endfacet
 facet normal 0.000000 0.998795 0.049068
  outer loop
   vertex -3140.000000 90.000000 45200.000000
   vertex -2208.000000 89.566625 45208.821543
   vertex -2208.000000 90.000000 45200.000000
  endloop
 endfacet
 facet normal 0.000000 0.989177 0.146730
  outer loop
   vertex -3140.000000 89.566625 45208.821543
   vertex -3140.000000 88.270675 45217.558129
   vertex -2208.000000 88.270675 45217.558129
  endloop
 endfacet
 facet normal 0.000000 0.989177 0.146730
  outer loop
   vertex -3140.000000 89.566625 45208.821543
   vertex -2208.000000 88.270675 45217.558129
   vertex -2208.000000 89.566625 45208.821543
  endloop
 endfacet
 facet normal 0.000000 0.970031 0.242980
  outer loop
   vertex -3140.000000 88.270675 45217.558129
   vertex -3140.000000 86.124630 45226.125621
   vertex -2208.000000 86.124630 45226.125621
  endloop
 endfacet
 facet normal 0.000000 0.970031 0.242980
  outer loop
   vertex -3140.000000 88.270675 45217.558129
   vertex -2208.000000 86.124630 45226.125621
   vertex -2208.000000 88.270675 45217.558129
  endloop
 endfacet
 facet normal 0.000000 0.941544 0.336890
  outer loop
   vertex -3140.000000 86.124630 45226.125621
   vertex -3140.000000 83.149158 45234.441509
   vertex -2208.000000 83.149158 45234.441509
  endloop
 endfacet
 facet normal 0.000000 0.941544 0.336890
  outer loop
   vertex -3140.000000 86.124630 45226.125621
   vertex -2208.000000 83.149158 45234.441509
   vertex -2208.000000 86.124630 45226.125621
  endloop
 endfacet
 facet normal 0.000000 0.903989 0.427555
  outer loop
   vertex -3140.000000 83.149158 45234.441509
   vertex -3140.000000 79.372914 45242.425706
   vertex -2208.000000 79.372914 45242.425706
  endloop
 endfacet
 facet normal 0.000000 0.903989 0.427555
  outer loop
   vertex -3140.000000 83.149158 45234.441509
   vertex -2208.000000 79.372914 45242.425706
   vertex -2208.000000 83.149158 45234.441509
  endloop
 endfacet
 facet normal 0.000000 0.857729 0.514103
  outer loop
   vertex -3140.000000 79.372914 45242.425706
   vertex -3140.000000 74.832265 45250.001321
   vertex -2208.000000 74.832265 45250.001321
  endloop
 endfacet
 facet normal 0.000000 0.857729 0.514103
  outer loop
   vertex -3140.000000 79.372914 45242.425706
   vertex -2208.000000 74.832265 45250.001321
   vertex -2208.000000 79.372914 45242.425706
  endloop
 endfacet
 facet normal 0.000000 0.803208 0.595699
  outer loop
   vertex -3140.000000 74.832265 45250.001321
   vertex -3140.000000 69.570941 45257.095396
   vertex -2208.000000 69.570941 45257.095396
  endloop
 endfacet
 facet normal 0.000000 0.803208 0.595699
  outer loop
   vertex -3140.000000 74.832265 45250.001321
   vertex -2208.000000 69.570941 45257.095396
   vertex -2208.000000 74.832265 45250.001321
  endloop
 endfacet
 facet normal 0.000000 0.740951 0.671559
  outer loop
   vertex -3140.000000 69.570941 45257.095396
   vertex -3140.000000 63.639610 45263.639610
   vertex -2208.000000 63.639610 45263.639610
  endloop
 endfacet
 facet normal 0.000000 0.740951 0.671559
  outer loop
   vertex -3140.000000 69.570941 45257.095396
   vertex -2208.000000 63.639610 45263.639610
   vertex -2208.000000 69.570941 45257.095396
  endloop
 endfacet
 facet normal 0.000000 0.671559 0.740951
  outer loop
   vertex -3140.000000 63.639610 45263.639610
   vertex -3140.000000 57.095396 45269.570941
   vertex -2208.000000 57.095396 45269.570941
  endloop
 endfacet
 facet normal 0.000000 0.671559 0.740951
  outer loop
   vertex -3140.000000 63.639610 45263.639610
   vertex -2208.000000 57.095396 45269.570941
   vertex -2208.000000 63.639610 45263.639610
  endloop
 endfacet
 facet normal 0.000000 0.595699 0.803208
  outer loop
   vertex -3140.000000 57.095396 45269.570941
   vertex -3140.000000 50.001321 45274.832265
   vertex -2208.000000 50.001321 45274.832265
  endloop
 endfacet
 facet normal 0.000000 0.595699 0.803208
  outer loop
   vertex -3140.000000 57.095396 45269.570941
   vertex -2208.000000 50.001321 45274.832265
   vertex -2208.000000 57.095396 45269.570941
  endloop
 endfacet
 facet normal 0.000000 0.514103 0.857729
  outer loop
   vertex -3140.000000 50.001321 45274.832265
   vertex -3140.000000 42.425706 45279.372914
   vertex -2208.000000 42.425706 45279.372914
  endloop
 endfacet
 facet normal 0.000000 0.514103 0.857729
  outer loop
   vertex -3140.000000 50.001321 45274.832265
   vertex -2208.000000 42.425706 45279.372914
   vertex -2208.000000 50.001321 45274.832265
  endloop
 endfacet
 facet normal 0.000000 0.427555 0.903989
  outer loop
   vertex -3140.000000 42.425706 45279.372914
   vertex -3140.000000 34.441509 45283.149158
   vertex -2208.000000 34.441509 45283.149158
  endloop
 endfacet
 facet normal 0.000000 0.427555 0.903989
  outer loop
   vertex -3140.000000 42.425706 45279.372914
   vertex -2208.000000 34.441509 45283.149158
   vertex -2208.000000 42.425706 45279.372914
  endloop
 endfacet
 facet normal 0.000000 0.336890 0.941544
  outer loop
   vertex -3140.000000 34.441509 45283.149158
   vertex -3140.000000 26.125621 45286.124630
   vertex -2208.000000 26.125621 45286.124630
  endloop
 endfacet
 facet normal 0.000000 0.336890 0.941544
  outer loop
   vertex -3140.000000 34.441509 45283.149158
   vertex -2208.000000 26.125621 45286.124630
   vertex -2208.000000 34.441509 45283.149158
  endloop
 endfacet
 facet normal 0.000000 0.242980 0.970031
  outer loop
   vertex -3140.000000 26.125621 45286.124630
   vertex -3140.000000 17.558129 45288.270675
   vertex -2208.000000 17.558129 45288.270675
  endloop
 endfacet
 facet normal 0.000000 0.242980 0.970031
  outer loop
   vertex -3140.000000 26.125621 45286.124630
   vertex -2208.000000 17.558129 45288.270675
   vertex -2208.000000 26.125621 45286.124630
  endloop
 endfacet
 facet normal 0.000000 0.146730 0.989177
  outer loop
   vertex -3140.000000 17.558129 45288.270675
   vertex -3140.000000 8.821543 45289.566625
   vertex -2208.000000 8.821543 45289.566625
  endloop
 endfacet
 facet normal 0.000000 0.146730 0.989177
  outer loop
   vertex -3140.000000 17.558129 45288.270675
   vertex -2208.000000 8.821543 45289.566625
   vertex -2208.000000 17.558129 45288.270675
  endloop
 endfacet
 facet normal 0.000000 0.049068 0.998795
  outer loop
   vertex -3140.000000 8.821543 45289.566625
   vertex -3140.000000 0.000000 45290.000000
   vertex -2208.000000 0.000000 45290.000000
  endloop
 endfacet
 facet normal 0.000000 0.049068 0.998795
  outer loop
   vertex -3140.000000 8.821543 45289.566625
   vertex -2208.000000 0.000000 45290.000000
   vertex -2208.000000 8.821543 45289.566625
  endloop
 endfacet
 facet normal -0.000000 -0.049068 0.998795
  outer loop
   vertex -3140.000000 0.000000 45290.000000
   vertex -3140.000000 -8.821543 45289.566625
   vertex -2208.000000 -8.821543 45289.566625
  endloop
 endfacet
 facet normal -0.000000 -0.049068 0.998795
  outer loop
   vertex -3140.000000 0.000000 45290.000000
   vertex -2208.000000 -8.821543 45289.566625
   vertex -2208.000000 0.000000 45290.000000
  endloop
 endfacet
 facet normal -0.000000 -0.146730 0.989177
  outer loop
   vertex -3140.000000 -8.821543 45289.566625
   vertex -3140.000000 -17.558129 45288.270675
   vertex -2208.000000 -17.558129 45288.270675
  endloop
 endfacet
 facet normal -0.000000 -0.146730 0.989177
  outer loop
   vertex -3140.000000 -8.821543 45289.566625
   vertex -2208.000000 -17.558129 45288.270675
   vertex -2208.000000 -8.821543 45289.566625
  endloop
 endfacet
 facet normal -0.000000 -0.242980 0.970031
  outer loop
   vertex -3140.000000 -17.558129 45288.270675
   vertex -3140.000000 -26.125621 45286.124630
   vertex -2208.000000 -26.125621 45286.124630
  endloop
 endfacet
 facet normal -0.000000 -0.242980 0.970031
  outer loop
   vertex -3140.000000 -17.558129 45288.270675
   vertex -2208.000000 -26.125621 45286.124630
   vertex -2208.000000 -17.558129 45288.270675
  endloop
 endfacet
 facet normal -0.000000 -0.336890 0.941544
  outer loop
   vertex -3140.000000 -26.125621 45286.124630
   vertex -3140.000000 -34.441509 45283.149158
   vertex -2208.000000 -34.441509 45283.149158
  endloop
 endfacet
 facet normal -0.000000 -0.336890 0.941544
  outer loop
   vertex -3140.000000 -26.125621 45286.124630
   vertex -2208.000000 -34.441509 45283.149158
   vertex -2208.000000 -26.125621 45286.124630
  endloop
 endfacet
 facet normal -0.000000 -0.427555 0.903989
  outer loop
   vertex -3140.000000 -34.441509 45283.149158
   vertex -3140.000000 -42.425706 45279.372914
   vertex -2208.000000 -42.425706 45279.372914
  endloop
 endfacet
 facet normal -0.000000 -0.427555 0.903989
  outer loop
   vertex -3140.000000 -34.441509 45283.149158
   vertex -2208.000000 -42.425706 45279.372914
   vertex -2208.000000 -34.441509 45283.149158
  endloop
 endfacet
 facet normal -0.000000 -0.514103 0.857729
  outer loop
   vertex -3140.000000 -42.425706 45279.372914
   vertex -3140.000000 -50.001321 45274.832265
   vertex -2208.000000 -50.001321 45274.832265
  endloop
 endfacet
 facet normal -0.000000 -0.514103 0.857729
  outer loop
   vertex -3140.000000 -42.425706 45279.372914
   vertex -2208.000000 -50.001321 45274.832265
   vertex -2208.000000 -42.425706 45279.372914
  endloop
 endfacet
 facet normal -0.000000 -0.595699 0.803208
  outer loop
   vertex -3140.000000 -50.001321 45274.832265
   vertex -3140.000000 -57.095396 45269.570941
   vertex -2208.000000 -57.095396 45269.570941
  endloop
 endfacet
 facet normal -0.000000 -0.595699 0.803208
  outer loop
   vertex -3140.000000 -50.001321 45274.832265
   vertex -2208.000000 -57.095396 45269.570941
   vertex -2208.000000 -50.001321 45274.832265
  endloop
 endfacet
 facet normal -0.000000 -0.671559 0.740951
  outer loop
   vertex -3140.000000 -57.095396 45269.570941
   vertex -3140.000000 -63.639610 45263.639610
   vertex -2208.000000 -63.639610 45263.639610
  endloop
 endfacet
 facet normal -0.000000 -0.671559 0.740951
  outer loop
   vertex -3140.000000 -57.095396 45269.570941
   vertex -2208.000000 -63.639610 45263.639610
   vertex -2208.000000 -57.095396 45269.570941
  endloop
 endfacet
 facet normal -0.000000 -0.740951 0.671559
  outer loop
   vertex -3140.000000 -63.639610 45263.639610
   vertex -3140.000000 -69.570941 45257.095396
   vertex -2208.000000 -69.570941 45257.095396
  endloop
 endfacet
 facet normal -0.000000 -0.740951 0.671559
  outer loop
   vertex -3140.000000 -63.639610 45263.639610
   vertex -2208.000000 -69.570941 45257.095396
   vertex -2208.000000 -63.639610 45263.639610
  endloop
 endfacet
 facet normal -0.000000 -0.803208 0.595699
  outer loop
   vertex -3140.000000 -69.570941 45257.095396
   vertex -3140.000000 -74.832265 45250.001321
   vertex -2208.000000 -74.832265 45250.001321
  endloop
 endfacet
 facet normal -0.000000 -0.803208 0.595699
  outer loop
   vertex -3140.000000 -69.570941 45257.095396
   vertex -2208.000000 -74.832265 45250.001321
   vertex -2208.000000 -69.570941 45257.095396
  endloop
 endfacet
 facet normal -0.000000 -0.857729 0.514103
  outer loop
   vertex -3140.000000 -74.832265 45250.001321
   vertex -3140.000000 -79.372914 45242.425706
   vertex -2208.000000 -79.372914 45242.425706
  endloop
 endfacet
 facet normal -0.000000 -0.857729 0.514103
  outer loop
   vertex -3140.000000 -74.832265 45250.001321
   vertex -2208.000000 -79.372914 45242.425706
   vertex -2208.000000 -74.832265 45250.001321
  endloop
 endfacet
 facet normal -0.000000 -0.903989 0.427555
  outer loop
   vertex -3140.000000 -79.372914 45242.425706
   vertex -3140.000000 -83.149158 45234.441509
   vertex -2208.000000 -83.149158 45234.441509
  endloop
 endfacet
 facet normal -0.000000 -0.903989 0.427555
  outer loop
   vertex -3140.000000 -79.372914 45242.425706
   vertex -2208.000000 -83.149158 45234.441509
   vertex -2208.000000 -79.372914 45242.425706
  endloop
 endfacet
 facet normal -0.000000 -0.941544 0.336890
  outer loop
   vertex -3140.000000 -83.149158 45234.441509
   vertex -3140.000000 -86.124630 45226.125621
   vertex -2208.000000 -86.124630 45226.125621
  endloop
 endfacet
 facet normal -0.000000 -0.941544 0.336890
  outer loop
   vertex -3140.000000 -83.149158 45234.441509
   vertex -2208.000000 -86.124630 45226.125621
   vertex -2208.000000 -83.149158 45234.441509
  endloop
 endfacet
 facet normal -0.000000 -0.970031 0.242980
  outer loop
   vertex -3140.000000 -86.124630 45226.125621
   vertex -3140.000000 -88.270675 45217.558129
   vertex -2208.000000 -88.270675 45217.558129
  endloop
 endfacet
 facet normal -0.000000 -0.970031 0.242980
  outer loop
   vertex -3140.000000 -86.124630 45226.125621
   vertex -2208.000000 -88.270675 45217.558129
   vertex -2208.000000 -86.124630 45226.125621
  endloop
 endfacet
 facet normal -0.000000 -0.989177 0.146730
  outer loop
   vertex -3140.000000 -88.270675 45217.558129
   vertex -3140.000000 -89.566625 45208.821543
   vertex -2208.000000 -89.566625 45208.821543
  endloop
 endfacet
 facet normal -0.000000 -0.989177 0.146730
  outer loop
   vertex -3140.000000 -88.270675 45217.558129
   vertex -2208.000000 -89.566625 45208.821543
   vertex -2208.000000 -88.270675 45217.558129
  endloop
 endfacet
 facet normal -0.000000 -0.998795 0.049068
  outer loop
   vertex -3140.000000 -89.566625 45208.821543
   vertex -3140.000000 -90.000000 45200.000000
   vertex -2208.000000 -90.000000 45200.000000
  endloop
 endfacet
 facet normal -0.000000 -0.998795 0.049068
  outer loop
   vertex -3140.000000 -89.566625 45208.821543
   vertex -2208.000000 -90.000000 45200.000000
   vertex -2208.000000 -89.566625 45208.821543
  endloop
 endfacet
 facet normal -0.000000 -0.998795 -0.049068
  outer loop
   vertex -3140.000000 -90.000000 45200.000000
   vertex -3140.000000 -89.566625 45191.178457
   vertex -2208.000000 -89.566625 45191.178457
  endloop
 endfacet
 facet normal -0.000000 -0.998795 -0.049068
  outer loop
   vertex -3140.000000 -90.000000 45200.000000
   vertex -2208.000000 -89.566625 45191.178457
   vertex -2208.000000 -90.000000 45200.000000
  endloop
 endfacet
 facet normal -0.000000 -0.989177 -0.146730
  outer loop
   vertex -3140.000000 -89.566625 45191.178457
   vertex -3140.000000 -88.270675 45182.441871
   vertex -2208.000000 -88.270675 45182.441871
  endloop
 endfacet
 facet normal -0.000000 -0.989177 -0.146730
  outer loop
   vertex -3140.000000 -89.566625 45191.178457
   vertex -2208.000000 -88.270675 45182.441871
   vertex -2208.000000 -89.566625 45191.178457
  endloop
 endfacet
 facet normal -0.000000 -0.970031 -0.242980
  outer loop
   vertex -3140.000000 -88.270675 45182.441871
   vertex -3140.000000 -86.124630 45173.874379
   vertex -2208.000000 -86.124630 45173.874379
  endloop
 endfacet
 facet normal -0.000000 -0.970031 -0.242980
  outer loop
   vertex -3140.000000 -88.270675 45182.441871
   vertex -2208.000000 -86.124630 45173.874379
   vertex -2208.000000 -88.270675 45182.441871
  endloop
 endfacet
 facet normal -0.000000 -0.941544 -0.336890
  outer loop
   vertex -3140.000000 -86.124630 45173.874379
   vertex -3140.000000 -83.149158 45165.558491
   vertex -2208.000000 -83.149158 45165.558491
  endloop
 endfacet
 facet normal -0.000000 -0.941544 -0.336890
  outer loop
   vertex -3140.000000 -86.124630 45173.874379
   vertex -2208.000000 -83.149158 45165.558491
   vertex -2208.000000 -86.124630 45173.874379
  endloop
 endfacet
 facet normal -0.000000 -0.903989 -0.427555
  outer loop
   vertex -3140.000000 -83.149158 45165.558491
   vertex -3140.000000 -79.372914 45157.574294
   vertex -2208.000000 -79.372914 45157.574294
  endloop
 endfacet
 facet normal -0.000000 -0.903989 -0.427555
  outer loop
   vertex -3140.000000 -83.149158 45165.558491
   vertex -2208.000000 -79.372914 45157.574294
   vertex -2208.000000 -83.149158 45165.558491
  endloop
 endfacet
 facet normal -0.000000 -0.857729 -0.514103
  outer loop
   vertex -3140.000000 -79.372914 45157.574294
   vertex -3140.000000 -74.832265 45149.998679
   vertex -2208.000000 -74.832265 45149.998679
  endloop
 endfacet
 facet normal -0.000000 -0.857729 -0.514103
  outer loop
   vertex -3140.000000 -79.372914 45157.574294
   vertex -2208.000000 -74.832265 45149.998679
   vertex -2208.000000 -79.372914 45157.574294
  endloop
 endfacet
 facet normal -0.000000 -0.803208 -0.595699
  outer loop
   vertex -3140.000000 -74.832265 45149.998679
   vertex -3140.000000 -69.570941 45142.904604
   vertex -2208.000000 -69.570941 45142.904604
  endloop
 endfacet
 facet normal -0.000000 -0.803208 -0.595699
  outer loop
   vertex -3140.000000 -74.832265 45149.998679
   vertex -2208.000000 -69.570941 45142.904604
   vertex -2208.000000 -74.832265 45149.998679
  endloop
 endfacet
 facet normal -0.000000 -0.740951 -0.671559
  outer loop
   vertex -3140.000000 -69.570941 45142.904604
   vertex -3140.000000 -63.639610 45136.360390
   vertex -2208.000000 -63.639610 45136.360390
  endloop
 endfacet
 facet normal -0.000000 -0.740951 -0.671559
  outer loop
   vertex -3140.000000 -69.570941 45142.904604
   vertex -2208.000000 -63.639610 45136.360390
   vertex -2208.000000 -69.570941 45142.904604
  endloop
 endfacet
 facet normal -0.000000 -0.671559 -0.740951
  outer loop
   vertex -3140.000000 -63.639610 45136.360390
   vertex -3140.000000 -57.095396 45130.429059
   vertex -2208.000000 -57.095396 45130.429059
  endloop
 endfacet
 facet normal -0.000000 -0.671559 -0.740951
  outer loop
   vertex -3140.000000 -63.639610 45136.360390
   vertex -2208.000000 -57.095396 45130.429059
   vertex -2208.000000 -63.639610 45136.360390
  endloop
 endfacet
 facet normal -0.000000 -0.595699 -0.803208
  outer loop
   vertex -3140.000000 -57.095396 45130.429059
   vertex -3140.000000 -50.001321 45125.167735
   vertex -2208.000000 -50.001321 45125.167735
  endloop
 endfacet
 facet normal -0.000000 -0.595699 -0.803208
  outer loop
   vertex -3140.000000 -57.095396 45130.429059
   vertex -2208.000000 -50.001321 45125.167735
   vertex -2208.000000 -57.095396 45130.429059
  endloop
 endfacet
 facet normal -0.000000 -0.514103 -0.857729
  outer loop
   vertex -3140.000000 -50.001321 45125.167735
   vertex -3140.000000 -42.425706 45120.627086
   vertex -2208.000000 -42.425706 45120.627086
  endloop
 endfacet
 facet normal -0.000000 -0.514103 -0.857729
  outer loop
   vertex -3140.000000 -50.001321 45125.167735
   vertex -2208.000000 -42.425706 45120.627086
   vertex -2208.000000 -50.001321 45125.167735
  endloop
 endfacet
 facet normal -0.000000 -0.427555 -0.903989
  outer loop
   vertex -3140.000000 -42.425706 45120.627086
   vertex -3140.000000 -34.441509 45116.850842
   vertex -2208.000000 -34.441509 45116.850842
  endloop
 endfacet
 facet normal -0.000000 -0.427555 -0.903989
  outer loop
   vertex -3140.000000 -42.425706 45120.627086
   vertex -2208.000000 -34.441509 45116.850842
   vertex -2208.000000 -42.425706 45120.627086
  endloop
 endfacet
 facet normal -0.000000 -0.336890 -0.941544
  outer loop
   vertex -3140.000000 -34.441509 45116.850842
   vertex -3140.000000 -26.125621 45113.875370
   vertex -2208.000000 -26.125621 45113.875370
  endloop
 endfacet
 facet normal -0.000000 -0.336890 -0.941544
  outer loop
   vertex -3140.000000 -34.441509 45116.850842
   vertex -2208.000000 -26.125621 45113.875370
   vertex -2208.000000 -34.441509 45116.850842
  endloop
 endfacet
 facet normal -0.000000 -0.242980 -0.970031
  outer loop
   vertex -3140.000000 -26.125621 45113.875370
   vertex -3140.000000 -17.558129 45111.729325
   vertex -2208.000000 -17.558129 45111.729325
  endloop
 endfacet
 facet normal -0.000000 -0.242980 -0.970031
  outer loop
   vertex -3140.000000 -26.125621 45113.875370
   vertex -2208.000000 -17.558129 45111.729325
   vertex -2208.000000 -26.125621 45113.875370
  endloop
 endfacet
 facet normal -0.000000 -0.146730 -0.989177
  outer loop
   vertex -3140.000000 -17.558129 45111.729325
   vertex -3140.000000 -8.821543 45110.433375
   vertex -2208.000000 -8.821543 45110.433375
  endloop
 endfacet
 facet normal -0.000000 -0.146730 -0.989177
  outer loop
   vertex -3140.000000 -17.558129 45111.729325
   vertex -2208.000000 -8.821543 45110.433375
   vertex -2208.000000 -17.558129 45111.729325
  endloop
 endfacet
 facet normal -0.000000 -0.049068 -0.998795
  outer loop
   vertex -3140.000000 -8.821543 45110.433375
   vertex -3140.000000 0.000000 45110.000000
   vertex -2208.000000 -0.000000 45110.000000
  endloop
 endfacet
 facet normal -0.000000 -0.049068 -0.998795
  outer loop
   vertex -3140.000000 -8.821543 45110.433375
   vertex -2208.000000 -0.000000 45110.000000
   vertex -2208.000000 -8.821543 45110.433375
  endloop
 endfacet
 facet normal 0.000000 0.049068 -0.998795
  outer loop
   vertex -3140.000000 0.000000 45110.000000
   vertex -3140.000000 8.821543 45110.433375
   vertex -2208.000000 8.821543 45110.433375
  endloop
 endfacet
 facet normal 0.000000 0.049068 -0.998795
  outer loop
   vertex -3140.000000 0.000000 45110.000000
   vertex -2208.000000 8.821543 45110.433375
   vertex -2208.000000 -0.000000 45110.000000
  endloop
 endfacet
 facet normal 0.000000 0.146730 -0.989177
  outer loop
   vertex -3140.000000 8.821543 45110.433375
   vertex -3140.000000 17.558129 45111.729325
   vertex -2208.000000 17.558129 45111.729325
  endloop
 endfacet
 facet normal 0.000000 0.146730 -0.989177
  outer loop
   vertex -3140.000000 8.821543 45110.433375
   vertex -2208.000000 17.558129 45111.729325
   vertex -2208.000000 8.821543 45110.433375
  endloop
 endfacet
 facet normal 0.000000 0.242980 -0.970031
  outer loop
   vertex -3140.000000 17.558129 45111.729325
   vertex -3140.000000 26.125621 45113.875370
   vertex -2208.000000 26.125621 45113.875370
  endloop
 endfacet
 facet normal 0.000000 0.242980 -0.970031
  outer loop
   vertex -3140.000000 17.558129 45111.729325
   vertex -2208.000000 26.125621 45113.875370
   vertex -2208.000000 17.558129 45111.729325
  endloop
 endfacet
 facet normal 0.000000 0.336890 -0.941544
  outer loop
   vertex -3140.000000 26.125621 45113.875370
   vertex -3140.000000 34.441509 45116.850842
   vertex -2208.000000 34.441509 45116.850842
  endloop
 endfacet
 facet normal 0.000000 0.336890 -0.941544
  outer loop
   vertex -3140.000000 26.125621 45113.875370
   vertex -2208.000000 34.441509 45116.850842
   vertex -2208.000000 26.125621 45113.875370
  endloop
 endfacet
 facet normal 0.000000 0.427555 -0.903989
  outer loop
   vertex -3140.000000 34.441509 45116.850842
   vertex -3140.000000 42.425706 45120.627086
   vertex -2208.000000 42.425706 45120.627086
  endloop
 endfacet
 facet normal 0.000000 0.427555 -0.903989
  outer loop
   vertex -3140.000000 34.441509 45116.850842
   vertex -2208.000000 42.425706 45120.627086
   vertex -2208.000000 34.441509 45116.850842
  endloop
 endfacet
 facet normal 0.000000 0.514103 -0.857729
  outer loop
   vertex -3140.000000 42.425706 45120.627086
   vertex -3140.000000 50.001321 45125.167735
   vertex -2208.000000 50.001321 45125.167735
  endloop
 endfacet
 facet normal 0.000000 0.514103 -0.857729
  outer loop
   vertex -3140.000000 42.425706 45120.627086
   vertex -2208.000000 50.001321 45125.167735
   vertex -2208.000000 42.425706 45120.627086
  endloop
 endfacet
 facet normal 0.000000 0.595699 -0.803208
  outer loop
   vertex -3140.000000 50.001321 45125.167735
   vertex -3140.000000 57.095396 45130.429059
   vertex -2208.000000 57.095396 45130.429059
  endloop
 endfacet
 facet normal 0.000000 0.595699 -0.803208
  outer loop
   vertex -3140.000000 50.001321 45125.167735
   vertex -2208.000000 57.095396 45130.429059
   vertex -2208.000000 50.001321 45125.167735
  endloop
 endfacet
 facet normal 0.000000 0.671559 -0.740951
  outer loop
   vertex -3140.000000 57.095396 45130.429059
   vertex -3140.000000 63.639610 45136.360390
   vertex -2208.000000 63.639610 45136.360390
  endloop
 endfacet
 facet normal 0.000000 0.671559 -0.740951
  outer loop
   vertex -3140.000000 57.095396 45130.429059
   vertex -2208.000000 63.639610 45136.360390
   vertex -2208.000000 57.095396 45130.429059
  endloop
 endfacet
 facet normal 0.000000 0.740951 -0.671559
  outer loop
   vertex -3140.000000 63.639610 45136.360390
   vertex -3140.000000 69.570941 45142.904604
   vertex -2208.000000 69.570941 45142.904604
  endloop
 endfacet
 facet normal 0.000000 0.740951 -0.671559
  outer loop
   vertex -3140.000000 63.639610 45136.360390
   vertex -2208.000000 69.570941 45142.904604
   vertex -2208.000000 63.639610 45136.360390
  endloop
 endfacet
 facet normal 0.000000 0.803208 -0.595699
  outer loop
   vertex -3140.000000 69.570941 45142.904604
   vertex -3140.000000 74.832265 45149.998679
   vertex -2208.000000 74.832265 45149.998679
  endloop
 endfacet
 facet normal 0.000000 0.803208 -0.595699
  outer loop
   vertex -3140.000000 69.570941 45142.904604
   vertex -2208.000000 74.832265 45149.998679
   vertex -2208.000000 69.570941 45142.904604
  endloop
 endfacet
 facet normal 0.000000 0.857729 -0.514103
  outer loop
   vertex -3140.000000 74.832265 45149.998679
   vertex -3140.000000 79.372914 45157.574294
   vertex -2208.000000 79.372914 45157.574294
  endloop
 endfacet
 facet normal 0.000000 0.857729 -0.514103
  outer loop
   vertex -3140.000000 74.832265 45149.998679
   vertex -2208.000000 79.372914 45157.574294
   vertex -2208.000000 74.832265 45149.998679
  endloop
 endfacet
 facet normal 0.000000 0.903989 -0.427555
  outer loop
   vertex -3140.000000 79.372914 45157.574294
   vertex -3140.000000 83.149158 45165.558491
   vertex -2208.000000 83.149158 45165.558491
  endloop
 endfacet
 facet normal 0.000000 0.903989 -0.427555
  outer loop
   vertex -3140.000000 79.372914 45157.574294
   vertex -2208.000000 83.149158 45165.558491
   vertex -2208.000000 79.372914 45157.574294
  endloop
 endfacet
 facet normal 0.000000 0.941544 -0.336890
  outer loop
   vertex -3140.000000 83.149158 45165.558491
   vertex -3140.000000 86.124630 45173.874379
   vertex -2208.000000 86.124630 45173.874379
  endloop
 endfacet
 facet normal 0.000000 0.941544 -0.336890
  outer loop
   vertex -3140.000000 83.149158 45165.558491
   vertex -2208.000000 86.124630 45173.874379
   vertex -2208.000000 83.149158 45165.558491
  endloop
 endfacet
 facet normal 0.000000 0.970031 -0.242980
  outer loop
   vertex -3140.000000 86.124630 45173.874379
   vertex -3140.000000 88.270675 45182.441871
   vertex -2208.000000 88.270675 45182.441871
  endloop
 endfacet
 facet normal 0.000000 0.970031 -0.242980
  outer loop
   vertex -3140.000000 86.124630 45173.874379
   vertex -2208.000000 88.270675 45182.441871
   vertex -2208.000000 86.124630 45173.874379
  endloop
 endfacet
 facet normal 0.000000 0.989177 -0.146730
  outer loop
   vertex -3140.000000 88.270675 45182.441871
   vertex -3140.000000 89.566625 45191.178457
   vertex -2208.000000 89.566625 45191.178457
  endloop
 endfacet
 facet normal 0.000000 0.989177 -0.146730
  outer loop
   vertex -3140.000000 88.270675 45182.441871
   vertex -2208.000000 89.566625 45191.178457
   vertex -2208.000000 88.270675 45182.441871
  endloop
 endfacet
 facet normal 0.000000 0.998795 -0.049068
  outer loop
   vertex -3140.000000 89.566625 45191.178457
   vertex -3140.000000 90.000000 45200.000000
   vertex -2208.000000 90.000000 45200.000000
  endloop
 endfacet
 facet normal 0.000000 0.998795 -0.049068
  outer loop
   vertex -3140.000000 89.566625 45191.178457
   vertex -2208.000000 90.000000 45200.000000
   vertex -2208.000000 89.566625 45191.178457
  endloop
 endfacet
 facet normal -0.000000 -0.998795 -0.049068
  outer loop
   vertex -2208.000000 79.614778 45207.841371
   vertex -3140.000000 79.614778 45207.841371
   vertex -3140.000000 80.000000 45200.000000
  endloop
 endfacet
 facet normal -0.000000 -0.998795 -0.049068
  outer loop
   vertex -2208.000000 80.000000 45200.000000
   vertex -2208.000000 79.614778 45207.841371
   vertex -3140.000000 80.000000 45200.000000
  endloop
 endfacet
 facet normal -0.000000 -0.989177 -0.146730
  outer loop
   vertex -2208.000000 78.462822 45215.607226
   vertex -3140.000000 78.462822 45215.607226
   vertex -3140.000000 79.614778 45207.841371
  endloop
 endfacet
 facet normal -0.000000 -0.989177 -0.146730
  outer loop
   vertex -2208.000000 79.614778 45207.841371
   vertex -2208.000000 78.462822 45215.607226
   vertex -3140.000000 79.614778 45207.841371
  endloop
 endfacet
 facet normal -0.000000 -0.970031 -0.242980
  outer loop
   vertex -2208.000000 76.555227 45223.222774
   vertex -3140.000000 76.555227 45223.222774
   vertex -3140.000000 78.462822 45215.607226
  endloop
 endfacet
 facet normal -0.000000 -0.970031 -0.242980
  outer loop
   vertex -2208.000000 78.462822 45215.607226
   vertex -2208.000000 76.555227 45223.222774
   vertex -3140.000000 78.462822 45215.607226
  endloop
 endfacet
 facet normal -0.000000 -0.941544 -0.336890
  outer loop
   vertex -2208.000000 73.910363 45230.614675
   vertex -3140.000000 73.910363 45230.614675
   vertex -3140.000000 76.555227 45223.222774
  endloop
 endfacet
 facet normal -0.000000 -0.941544 -0.336890
  outer loop
   vertex -2208.000000 76.555227 45223.222774
   vertex -2208.000000 73.910363 45230.614675
   vertex -3140.000000 76.555227 45223.222774
  endloop
 endfacet
 facet normal -0.000000 -0.903989 -0.427555
  outer loop
   vertex -2208.000000 70.553701 45237.711739
   vertex -3140.000000 70.553701 45237.711739
   vertex -3140.000000 73.910363 45230.614675
  endloop
 endfacet
 facet normal -0.000000 -0.903989 -0.427555
  outer loop
   vertex -2208.000000 73.910363 45230.614675
   vertex -2208.000000 70.553701 45237.711739
   vertex -3140.000000 73.910363 45230.614675
  endloop
 endfacet
 facet normal -0.000000 -0.857729 -0.514103
  outer loop
   vertex -2208.000000 66.517569 45244.445619
   vertex -3140.000000 66.517569 45244.445619
   vertex -3140.000000 70.553701 45237.711739
  endloop
 endfacet
 facet normal -0.000000 -0.857729 -0.514103
  outer loop
   vertex -2208.000000 70.553701 45237.711739
   vertex -2208.000000 66.517569 45244.445619
   vertex -3140.000000 70.553701 45237.711739
  endloop
 endfacet
 facet normal -0.000000 -0.803208 -0.595699
  outer loop
   vertex -2208.000000 61.840836 45250.751463
   vertex -3140.000000 61.840836 45250.751463
   vertex -3140.000000 66.517569 45244.445619
  endloop
 endfacet
 facet normal -0.000000 -0.803208 -0.595699
  outer loop
   vertex -2208.000000 66.517569 45244.445619
   vertex -2208.000000 61.840836 45250.751463
   vertex -3140.000000 66.517569 45244.445619
  endloop
 endfacet
 facet normal -0.000000 -0.740951 -0.671559
  outer loop
   vertex -2208.000000 56.568542 45256.568542
   vertex -3140.000000 56.568542 45256.568542
   vertex -3140.000000 61.840836 45250.751463
  endloop
 endfacet
 facet normal -0.000000 -0.740951 -0.671559
  outer loop
   vertex -2208.000000 61.840836 45250.751463
   vertex -2208.000000 56.568542 45256.568542
   vertex -3140.000000 61.840836 45250.751463
  endloop
 endfacet
 facet normal -0.000000 -0.671559 -0.740951
  outer loop
   vertex -2208.000000 50.751463 45261.840836
   vertex -3140.000000 50.751463 45261.840836
   vertex -3140.000000 56.568542 45256.568542
  endloop
 endfacet
 facet normal -0.000000 -0.671559 -0.740951
  outer loop
   vertex -2208.000000 56.568542 45256.568542
   vertex -2208.000000 50.751463 45261.840836
   vertex -3140.000000 56.568542 45256.568542
  endloop
 endfacet
 facet normal -0.000000 -0.595699 -0.803208
  outer loop
   vertex -2208.000000 44.445619 45266.517569
   vertex -3140.000000 44.445619 45266.517569
   vertex -3140.000000 50.751463 45261.840836
  endloop
 endfacet
 facet normal -0.000000 -0.595699 -0.803208
  outer loop
   vertex -2208.000000 50.751463 45261.840836
   vertex -2208.000000 44.445619 45266.517569
   vertex -3140.000000 50.751463 45261.840836
  endloop
 endfacet
 facet normal -0.000000 -0.514103 -0.857729
  outer loop
   vertex -2208.000000 37.711739 45270.553701
   vertex -3140.000000 37.711739 45270.553701
   vertex -3140.000000 44.445619 45266.517569
  endloop
 endfacet
 facet normal -0.000000 -0.514103 -0.857729
  outer loop
   vertex -2208.000000 44.445619 45266.517569
   vertex -2208.000000 37.711739 45270.553701
   vertex -3140.000000 44.445619 45266.517569
  endloop
 endfacet
 facet normal -0.000000 -0.427555 -0.903989
  outer loop
   vertex -2208.000000 30.614675 45273.910363
   vertex -3140.000000 30.614675 45273.910363
   vertex -3140.000000 37.711739 45270.553701
  endloop
 endfacet
 facet normal -0.000000 -0.427555 -0.903989
  outer loop
   vertex -2208.000000 37.711739 45270.553701
   vertex -2208.000000 30.614675 45273.910363
   vertex -3140.000000 37.711739 45270.553701
  endloop
 endfacet
 facet normal -0.000000 -0.336890 -0.941544
  outer loop
   vertex -2208.000000 23.222774 45276.555227
   vertex -3140.000000 23.222774 45276.555227
   vertex -3140.000000 30.614675 45273.910363
  endloop
 endfacet
 facet normal -0.000000 -0.336890 -0.941544
  outer loop
   vertex -2208.000000 30.614675 45273.910363
   vertex -2208.000000 23.222774 45276.555227
   vertex -3140.000000 30.614675 45273.910363
  endloop
 endfacet
 facet normal -0.000000 -0.242980 -0.970031
  outer loop
   vertex -2208.000000 15.607226 45278.462822
   vertex -3140.000000 15.607226 45278.462822
   vertex -3140.000000 23.222774 45276.555227
  endloop
 endfacet
 facet normal -0.000000 -0.242980 -0.970031
  outer loop
   vertex -2208.000000 23.222774 45276.555227
   vertex -2208.000000 15.607226 45278.462822
   vertex -3140.000000 23.222774 45276.555227
  endloop
 endfacet
 facet normal -0.000000 -0.146730 -0.989177
  outer loop
   vertex -2208.000000 7.841371 45279.614778
   vertex -3140.000000 7.841371 45279.614778
   vertex -3140.000000 15.607226 45278.462822
  endloop
 endfacet
 facet normal -0.000000 -0.146730 -0.989177
  outer loop
   vertex -2208.000000 15.607226 45278.462822
   vertex -2208.000000 7.841371 45279.614778
   vertex -3140.000000 15.607226 45278.462822
  endloop
 endfacet
 facet normal -0.000000 -0.049068 -0.998795
  outer loop
   vertex -2208.000000 0.000000 45280.000000
   vertex -3140.000000 0.000000 45280.000000
   vertex -3140.000000 7.841371 45279.614778
  endloop
 endfacet
 facet normal -0.000000 -0.049068 -0.998795
  outer loop
   vertex -2208.000000 7.841371 45279.614778
   vertex -2208.000000 0.000000 45280.000000
   vertex -3140.000000 7.841371 45279.614778
  endloop
 endfacet
 facet normal 0.000000 0.049068 -0.998795
  outer loop
   vertex -2208.000000 -7.841371 45279.614778
   vertex -3140.000000 -7.841371 45279.614778
   vertex -3140.000000 0.000000 45280.000000
  endloop
 endfacet
 facet normal 0.000000 0.049068 -0.998795
  outer loop
   vertex -2208.000000 0.000000 45280.000000
   vertex -2208.000000 -7.841371 45279.614778
   vertex -3140.000000 0.000000 45280.000000
  endloop
 endfacet
 facet normal 0.000000 0.146730 -0.989177
  outer loop
   vertex -2208.000000 -15.607226 45278.462822
   vertex -3140.000000 -15.607226 45278.462822
   vertex -3140.000000 -7.841371 45279.614778
  endloop
 endfacet
 facet normal 0.000000 0.146730 -0.989177
  outer loop
   vertex -2208.000000 -7.841371 45279.614778
   vertex -2208.000000 -15.607226 45278.462822
   vertex -3140.000000 -7.841371 45279.614778
  endloop
 endfacet
 facet normal 0.000000 0.242980 -0.970031
  outer loop
   vertex -2208.000000 -23.222774 45276.555227
   vertex -3140.000000 -23.222774 45276.555227
   vertex -3140.000000 -15.607226 45278.462822
  endloop
 endfacet
 facet normal 0.000000 0.242980 -0.970031
  outer loop
   vertex -2208.000000 -15.607226 45278.462822
   vertex -2208.000000 -23.222774 45276.555227
   vertex -3140.000000 -15.607226 45278.462822
  endloop
 endfacet
 facet normal 0.000000 0.336890 -0.941544
  outer loop
   vertex -2208.000000 -30.614675 45273.910363
   vertex -3140.000000 -30.614675 45273.910363
   vertex -3140.000000 -23.222774 45276.555227
  endloop
 endfacet
 facet normal 0.000000 0.336890 -0.941544
  outer loop
   vertex -2208.000000 -23.222774 45276.555227
   vertex -2208.000000 -30.614675 45273.910363
   vertex -3140.000000 -23.222774 45276.555227
  endloop
 endfacet
 facet normal 0.000000 0.427555 -0.903989
  outer loop
   vertex -2208.000000 -37.711739 45270.553701
   vertex -3140.000000 -37.711739 45270.553701
   vertex -3140.000000 -30.614675 45273.910363
  endloop
 endfacet
 facet normal 0.000000 0.427555 -0.903989
  outer loop
   vertex -2208.000000 -30.614675 45273.910363
   vertex -2208.000000 -37.711739 45270.553701
   vertex -3140.000000 -30.614675 45273.910363
  endloop
 endfacet
 facet normal 0.000000 0.514103 -0.857729
  outer loop
   vertex -2208.000000 -44.445619 45266.517569
   vertex -3140.000000 -44.445619 45266.517569
   vertex -3140.000000 -37.711739 45270.553701
  endloop
 endfacet
 facet normal 0.000000 0.514103 -0.857729
  outer loop
   vertex -2208.000000 -37.711739 45270.553701
   vertex -2208.000000 -44.445619 45266.517569
   vertex -3140.000000 -37.711739 45270.553701
  endloop
 endfacet
 facet normal 0.000000 0.595699 -0.803208
  outer loop
   vertex -2208.000000 -50.751463 45261.840836
   vertex -3140.000000 -50.751463 45261.840836
   vertex -3140.000000 -44.445619 45266.517569
  endloop
 endfacet
 facet normal 0.000000 0.595699 -0.803208
  outer loop
   vertex -2208.000000 -44.445619 45266.517569
   vertex -2208.000000 -50.751463 45261.840836
   vertex -3140.000000 -44.445619 45266.517569
  endloop
 endfacet
 facet normal 0.000000 0.671559 -0.740951
  outer loop
   vertex -2208.000000 -56.568542 45256.568542
   vertex -3140.000000 -56.568542 45256.568542
   vertex -3140.000000 -50.751463 45261.840836
  endloop
 endfacet
 facet normal 0.000000 0.671559 -0.740951
  outer loop
   vertex -2208.000000 -50.751463 45261.840836
   vertex -2208.000000 -56.568542 45256.568542
   vertex -3140.000000 -50.751463 45261.840836
  endloop
 endfacet
 facet normal 0.000000 0.740951 -0.671559
  outer loop
   vertex -2208.000000 -61.840836 45250.751463
   vertex -3140.000000 -61.840836 45250.751463
   vertex -3140.000000 -56.568542 45256.568542
  endloop
 endfacet
 facet normal 0.000000 0.740951 -0.671559
  outer loop
   vertex -2208.000000 -56.568542 45256.568542
   vertex -2208.000000 -61.840836 45250.751463
   vertex -3140.000000 -56.568542 45256.568542
  endloop
 endfacet
 facet normal 0.000000 0.803208 -0.595699
  outer loop
   vertex -2208.000000 -66.517569 45244.445619
   vertex -3140.000000 -66.517569 45244.445619
   vertex -3140.000000 -61.840836 45250.751463
  endloop
 endfacet
 facet normal 0.000000 0.803208 -0.595699
  outer loop
   vertex -2208.000000 -61.840836 45250.751463
   vertex -2208.000000 -66.517569 45244.445619
   vertex -3140.000000 -61.840836 45250.751463
  endloop
 endfacet
 facet normal 0.000000 0.857729 -0.514103
  outer loop
   vertex -2208.000000 -70.553701 45237.711739
   vertex -3140.000000 -70.553701 45237.711739
   vertex -3140.000000 -66.517569 45244.445619
  endloop
 endfacet
 facet normal 0.000000 0.857729 -0.514103
  outer loop
   vertex -2208.000000 -66.517569 45244.445619
   vertex -2208.000000 -70.553701 45237.711739
   vertex -3140.000000 -66.517569 45244.445619
  endloop
 endfacet
 facet normal 0.000000 0.903989 -0.427555
  outer loop
   vertex -2208.000000 -73.910363 45230.614675
   vertex -3140.000000 -73.910363 45230.614675
   vertex -3140.000000 -70.553701 45237.711739
  endloop
 endfacet
 facet normal 0.000000 0.903989 -0.427555
  outer loop
   vertex -2208.000000 -70.553701 45237.711739
   vertex -2208.000000 -73.910363 45230.614675
   vertex -3140.000000 -70.553701 45237.711739
  endloop
 endfacet
 facet normal 0.000000 0.941544 -0.336890
  outer loop
   vertex -2208.000000 -76.555227 45223.222774
   vertex -3140.000000 -76.555227 45223.222774
   vertex -3140.000000 -73.910363 45230.614675
  endloop
 endfacet
 facet normal 0.000000 0.941544 -0.336890
  outer loop
   vertex -2208.000000 -73.910363 45230.614675
   vertex -2208.000000 -76.555227 45223.222774
   vertex -3140.000000 -73.910363 45230.614675
  endloop
 endfacet
 facet normal 0.000000 0.970031 -0.242980
  outer loop
   vertex -2208.000000 -78.462822 45215.607226
   vertex -3140.000000 -78.462822 45215.607226
   vertex -3140.000000 -76.555227 45223.222774
  endloop
 endfacet
 facet normal 0.000000 0.970031 -0.242980
  outer loop
   vertex -2208.000000 -76.555227 45223.222774
   vertex -2208.000000 -78.462822 45215.607226
   vertex -3140.000000 -76.555227 45223.222774
  endloop
 endfacet
 facet normal 0.000000 0.989177 -0.146730
  outer loop
   vertex -2208.000000 -79.614778 45207.841371
   vertex -3140.000000 -79.614778 45207.841371
   vertex -3140.000000 -78.462822 45215.607226
  endloop
 endfacet
 facet normal 0.000000 0.989177 -0.146730
  outer loop
   vertex -2208.000000 -78.462822 45215.607226
   vertex -2208.000000 -79.614778 45207.841371
   vertex -3140.000000 -78.462822 45215.607226
  endloop
 endfacet
 facet normal 0.000000 0.998795 -0.049068
  outer loop
   vertex -2208.000000 -80.000000 45200.000000
   vertex -3140.000000 -80.000000 45200.000000
   vertex -3140.000000 -79.614778 45207.841371
  endloop
 endfacet
 facet normal 0.000000 0.998795 -0.049068
  outer loop
   vertex -2208.000000 -79.614778 45207.841371
   vertex -2208.000000 -80.000000 45200.000000
   vertex -3140.000000 -79.614778 45207.841371
  endloop
 endfacet
 facet normal 0.000000 0.998795 0.049068
  outer loop
   vertex -2208.000000 -79.614778 45192.158629
   vertex -3140.000000 -79.614778 45192.158629
   vertex -3140.000000 -80.000000 45200.000000
  endloop
 endfacet
 facet normal 0.000000 0.998795 0.049068
  outer loop
   vertex -2208.000000 -80.000000 45200.000000
   vertex -2208.000000 -79.614778 45192.158629
   vertex -3140.000000 -80.000000 45200.000000
  endloop
 endfacet
 facet normal 0.000000 0.989177 0.146730
  outer loop
   vertex -2208.000000 -78.462822 45184.392774
   vertex -3140.000000 -78.462822 45184.392774
   vertex -3140.000000 -79.614778 45192.158629
  endloop
 endfacet
 facet normal 0.000000 0.989177 0.146730
  outer loop
   vertex -2208.000000 -79.614778 45192.158629
   vertex -2208.000000 -78.462822 45184.392774
   vertex -3140.000000 -79.614778 45192.158629
  endloop
 endfacet
 facet normal 0.000000 0.970031 0.242980
  outer loop
   vertex -2208.000000 -76.555227 45176.777226
   vertex -3140.000000 -76.555227 45176.777226
   vertex -3140.000000 -78.462822 45184.392774
  endloop
 endfacet
 facet normal 0.000000 0.970031 0.242980
  outer loop
   vertex -2208.000000 -78.462822 45184.392774
   vertex -2208.000000 -76.555227 45176.777226
   vertex -3140.000000 -78.462822 45184.392774
  endloop
 endfacet
 facet normal 0.000000 0.941544 0.336890
  outer loop
   vertex -2208.000000 -73.910363 45169.385325
   vertex -3140.000000 -73.910363 45169.385325
   vertex -3140.000000 -76.555227 45176.777226
  endloop
 endfacet
 facet normal 0.000000 0.941544 0.336890
  outer loop
   vertex -2208.000000 -76.555227 45176.777226
   vertex -2208.000000 -73.910363 45169.385325
   vertex -3140.000000 -76.555227 45176.777226
  endloop
 endfacet
 facet normal 0.000000 0.903989 0.427555
  outer loop
   vertex -2208.000000 -70.553701 45162.288261
   vertex -3140.000000 -70.553701 45162.288261
   vertex -3140.000000 -73.910363 45169.385325
  endloop
 endfacet
 facet normal 0.000000 0.903989 0.427555
  outer loop
   vertex -2208.000000 -73.910363 45169.385325
   vertex -2208.000000 -70.553701 45162.288261
   vertex -3140.000000 -73.910363 45169.385325
  endloop
 endfacet
 facet normal 0.000000 0.857729 0.514103
  outer loop
   vertex -2208.000000 -66.517569 45155.554381
   vertex -3140.000000 -66.517569 45155.554381
   vertex -3140.000000 -70.553701 45162.288261
  endloop
 endfacet
 facet normal 0.000000 0.857729 0.514103
  outer loop
   vertex -2208.000000 -70.553701 45162.288261
   vertex -2208.000000 -66.517569 45155.554381
   vertex -3140.000000 -70.553701 45162.288261
  endloop
 endfacet
 facet normal 0.000000 0.803208 0.595699
  outer loop
   vertex -2208.000000 -61.840836 45149.248537
   vertex -3140.000000 -61.840836 45149.248537
   vertex -3140.000000 -66.517569 45155.554381
  endloop
 endfacet
 facet normal 0.000000 0.803208 0.595699
  outer loop
   vertex -2208.000000 -66.517569 45155.554381
   vertex -2208.000000 -61.840836 45149.248537
   vertex -3140.000000 -66.517569 45155.554381
  endloop
 endfacet
 facet normal 0.000000 0.740951 0.671559
  outer loop
   vertex -2208.000000 -56.568542 45143.431458
   vertex -3140.000000 -56.568542 45143.431458
   vertex -3140.000000 -61.840836 45149.248537
  endloop
 endfacet
 facet normal 0.000000 0.740951 0.671559
  outer loop
   vertex -2208.000000 -61.840836 45149.248537
   vertex -2208.000000 -56.568542 45143.431458
   vertex -3140.000000 -61.840836 45149.248537
  endloop
 endfacet
 facet normal 0.000000 0.671559 0.740951
  outer loop
   vertex -2208.000000 -50.751463 45138.159164
   vertex -3140.000000 -50.751463 45138.159164
   vertex -3140.000000 -56.568542 45143.431458
  endloop
 endfacet
 facet normal 0.000000 0.671559 0.740951
  outer loop
   vertex -2208.000000 -56.568542 45143.431458
   vertex -2208.000000 -50.751463 45138.159164
   vertex -3140.000000 -56.568542 45143.431458
  endloop
 endfacet
 facet normal 0.000000 0.595699 0.803208
  outer loop
   vertex -2208.000000 -44.445619 45133.482431
   vertex -3140.000000 -44.445619 45133.482431
   vertex -3140.000000 -50.751463 45138.159164
  endloop
 endfacet
 facet normal 0.000000 0.595699 0.803208
  outer loop
   vertex -2208.000000 -50.751463 45138.159164
   vertex -2208.000000 -44.445619 45133.482431
   vertex -3140.000000 -50.751463 45138.159164
  endloop
 endfacet
 facet normal 0.000000 0.514103 0.857729
  outer loop
   vertex -2208.000000 -37.711739 45129.446299
   vertex -3140.000000 -37.711739 45129.446299
   vertex -3140.000000 -44.445619 45133.482431
  endloop
 endfacet
 facet normal 0.000000 0.514103 0.857729
  outer loop
   vertex -2208.000000 -44.445619 45133.482431
   vertex -2208.000000 -37.711739 45129.446299
   vertex -3140.000000 -44.445619 45133.482431
  endloop
 endfacet
 facet normal 0.000000 0.427555 0.903989
  outer loop
   vertex -2208.000000 -30.614675 45126.089637
   vertex -3140.000000 -30.614675 45126.089637
   vertex -3140.000000 -37.711739 45129.446299
  endloop
 endfacet
 facet normal 0.000000 0.427555 0.903989
  outer loop
   vertex -2208.000000 -37.711739 45129.446299
   vertex -2208.000000 -30.614675 45126.089637
   vertex -3140.000000 -37.711739 45129.446299
  endloop
 endfacet
 facet normal 0.000000 0.336890 0.941544
  outer loop
   vertex -2208.000000 -23.222774 45123.444773
   vertex -3140.000000 -23.222774 45123.444773
   vertex -3140.000000 -30.614675 45126.089637
  endloop
 endfacet
 facet normal 0.000000 0.336890 0.941544
  outer loop
   vertex -2208.000000 -30.614675 45126.089637
   vertex -2208.000000 -23.222774 45123.444773
   vertex -3140.000000 -30.614675 45126.089637
  endloop
 endfacet
 facet normal 0.000000 0.242980 0.970031
  outer loop
   vertex -2208.000000 -15.607226 45121.537178
   vertex -3140.000000 -15.607226 45121.537178
   vertex -3140.000000 -23.222774 45123.444773
  endloop
 endfacet
 facet normal 0.000000 0.242980 0.970031
  outer loop
   vertex -2208.000000 -23.222774 45123.444773
   vertex -2208.000000 -15.607226 45121.537178
   vertex -3140.000000 -23.222774 45123.444773
  endloop
 endfacet
 facet normal 0.000000 0.146730 0.989177
  outer loop
   vertex -2208.000000 -7.841371 45120.385222
   vertex -3140.000000 -7.841371 45120.385222
   vertex -3140.000000 -15.607226 45121.537178
  endloop
 endfacet
 facet normal 0.000000 0.146730 0.989177
  outer loop
   vertex -2208.000000 -15.607226 45121.537178
   vertex -2208.000000 -7.841371 45120.385222
   vertex -3140.000000 -15.607226 45121.537178
  endloop
 endfacet
 facet normal 0.000000 0.049068 0.998795
  outer loop
   vertex -2208.000000 -0.000000 45120.000000
   vertex -3140.000000 0.000000 45120.000000
   vertex -3140.000000 -7.841371 45120.385222
  endloop
 endfacet
 facet normal 0.000000 0.049068 0.998795
  outer loop
   vertex -2208.000000 -7.841371 45120.385222
   vertex -2208.000000 -0.000000 45120.000000
   vertex -3140.000000 -7.841371 45120.385222
  endloop
 endfacet
 facet normal -0.000000 -0.049068 0.998795
  outer loop
   vertex -2208.000000 7.841371 45120.385222
   vertex -3140.000000 7.841371 45120.385222
   vertex -3140.000000 0.000000 45120.000000
  endloop
 endfacet
 facet normal -0.000000 -0.049068 0.998795
  outer loop
   vertex -2208.000000 -0.000000 45120.000000
   vertex -2208.000000 7.841371 45120.385222
   vertex -3140.000000 0.000000 45120.000000
  endloop
 endfacet
 facet normal -0.000000 -0.146730 0.989177
  outer loop
   vertex -2208.000000 15.607226 45121.537178
   vertex -3140.000000 15.607226 45121.537178
   vertex -3140.000000 7.841371 45120.385222
  endloop
 endfacet
 facet normal -0.000000 -0.146730 0.989177
  outer loop
   vertex -2208.000000 7.841371 45120.385222
   vertex -2208.000000 15.607226 45121.537178
   vertex -3140.000000 7.841371 45120.385222
  endloop
 endfacet
 facet normal -0.000000 -0.242980 0.970031
  outer loop
   vertex -2208.000000 23.222774 45123.444773
   vertex -3140.000000 23.222774 45123.444773
   vertex -3140.000000 15.607226 45121.537178
  endloop
 endfacet
 facet normal -0.000000 -0.242980 0.970031
  outer loop
   vertex -2208.000000 15.607226 45121.537178
   vertex -2208.000000 23.222774 45123.444773
   vertex -3140.000000 15.607226 45121.537178
  endloop
 endfacet
 facet normal -0.000000 -0.336890 0.941544
  outer loop
   vertex -2208.000000 30.614675 45126.089637
   vertex -3140.000000 30.614675 45126.089637
   vertex -3140.000000 23.222774 45123.444773
  endloop
 endfacet
 facet normal -0.000000 -0.336890 0.941544
  outer loop
   vertex -2208.000000 23.222774 45123.444773
   vertex -2208.000000 30.614675 45126.089637
   vertex -3140.000000 23.222774 45123.444773
  endloop
 endfacet
 facet normal -0.000000 -0.427555 0.903989
  outer loop
   vertex -2208.000000 37.711739 45129.446299
   vertex -3140.000000 37.711739 45129.446299
   vertex -3140.000000 30.614675 45126.089637
  endloop
 endfacet
 facet normal -0.000000 -0.427555 0.903989
  outer loop
   vertex -2208.000000 30.614675 45126.089637
   vertex -2208.000000 37.711739 45129.446299
   vertex -3140.000000 30.614675 45126.089637
  endloop
 endfacet
 facet normal -0.000000 -0.514103 0.857729
  outer loop
   vertex -2208.000000 44.445619 45133.482431
   vertex -3140.000000 44.445619 45133.482431
   vertex -3140.000000 37.711739 45129.446299
  endloop
 endfacet
 facet normal -0.000000 -0.514103 0.857729
  outer loop
   vertex -2208.000000 37.711739 45129.446299
   vertex -2208.000000 44.445619 45133.482431
   vertex -3140.000000 37.711739 45129.446299
  endloop
 endfacet
 facet normal -0.000000 -0.595699 0.803208
  outer loop
   vertex -2208.000000 50.751463 45138.159164
   vertex -3140.000000 50.751463 45138.159164
   vertex -3140.000000 44.445619 45133.482431
  endloop
 endfacet
 facet normal -0.000000 -0.595699 0.803208
  outer loop
   vertex -2208.000000 44.445619 45133.482431
   vertex -2208.000000 50.751463 45138.159164
   vertex -3140.000000 44.445619 45133.482431
  endloop
 endfacet
 facet normal -0.000000 -0.671559 0.740951
  outer loop
   vertex -2208.000000 56.568542 45143.431458
   vertex -3140.000000 56.568542 45143.431458
   vertex -3140.000000 50.751463 45138.159164
  endloop
 endfacet
 facet normal -0.000000 -0.671559 0.740951
  outer loop
   vertex -2208.000000 50.751463 45138.159164
   vertex -2208.000000 56.568542 45143.431458
   vertex -3140.000000 50.751463 45138.159164
  endloop
 endfacet
 facet normal -0.000000 -0.740951 0.671559
  outer loop
   vertex -2208.000000 61.840836 45149.248537
   vertex -3140.000000 61.840836 45149.248537
   vertex -3140.000000 56.568542 45143.431458
  endloop
 endfacet
 facet normal -0.000000 -0.740951 0.671559
  outer loop
   vertex -2208.000000 56.568542 45143.431458
   vertex -2208.000000 61.840836 45149.248537
   vertex -3140.000000 56.568542 45143.431458
  endloop
 endfacet
 facet normal -0.000000 -0.803208 0.595699
  outer loop
   vertex -2208.000000 66.517569 45155.554381
   vertex -3140.000000 66.517569 45155.554381
   vertex -3140.000000 61.840836 45149.248537
  endloop
 endfacet
 facet normal -0.000000 -0.803208 0.595699
  outer loop
   vertex -2208.000000 61.840836 45149.248537
   vertex -2208.000000 66.517569 45155.554381
   vertex -3140.000000 61.840836 45149.248537
  endloop
 endfacet
 facet normal -0.000000 -0.857729 0.514103
  outer loop
   vertex -2208.000000 70.553701 45162.288261
   vertex -3140.000000 70.553701 45162.288261
   vertex -3140.000000 66.517569 45155.554381
  endloop
 endfacet
 facet normal -0.000000 -0.857729 0.514103
  outer loop
   vertex -2208.000000 66.517569 45155.554381
   vertex -2208.000000 70.553701 45162.288261
   vertex -3140.000000 66.517569 45155.554381
  endloop
 endfacet
 facet normal -0.000000 -0.903989 0.427555
  outer loop
   vertex -2208.000000 73.910363 45169.385325
   vertex -3140.000000 73.910363 45169.385325
   vertex -3140.000000 70.553701 45162.288261
  endloop
 endfacet
 facet normal -0.000000 -0.903989 0.427555
  outer loop
   vertex -2208.000000 70.553701 45162.288261
   vertex -2208.000000 73.910363 45169.385325
   vertex -3140.000000 70.553701 45162.288261
  endloop
 endfacet
 facet normal -0.000000 -0.941544 0.336890
  outer loop
   vertex -2208.000000 76.555227 45176.777226
   vertex -3140.000000 76.555227 45176.777226
   vertex -3140.000000 73.910363 45169.385325
  endloop
 endfacet
 facet normal -0.000000 -0.941544 0.336890
  outer loop
   vertex -2208.000000 73.910363 45169.385325
   vertex -2208.000000 76.555227 45176.777226
   vertex -3140.000000 73.910363 45169.385325
  endloop
 endfacet
 facet normal -0.000000 -0.970031 0.242980
  outer loop
   vertex -2208.000000 78.462822 45184.392774
   vertex -3140.000000 78.462822 45184.392774
   vertex -3140.000000 76.555227 45176.777226
  endloop
 endfacet
 facet normal -0.000000 -0.970031 0.242980
  outer loop
   vertex -2208.000000 76.555227 45176.777226
   vertex -2208.000000 78.462822 45184.392774
   vertex -3140.000000 76.555227 45176.777226
  endloop
 endfacet
 facet normal -0.000000 -0.989177 0.146730
  outer loop
   vertex -2208.000000 79.614778 45192.158629
   vertex -3140.000000 79.614778 45192.158629
   vertex -3140.000000 78.462822 45184.392774
  endloop
 endfacet
 facet normal -0.000000 -0.989177 0.146730
  outer loop
   vertex -2208.000000 78.462822 45184.392774
   vertex -2208.000000 79.614778 45192.158629
   vertex -3140.000000 78.462822 45184.392774
  endloop
 endfacet
 facet normal -0.000000 -0.998795 0.049068
  outer loop
   vertex -2208.000000 80.000000 45200.000000
   vertex -3140.000000 80.000000 45200.000000
   vertex -3140.000000 79.614778 45192.158629
  endloop
 endfacet
 facet normal -0.000000 -0.998795 0.049068
  outer loop
   vertex -2208.000000 79.614778 45192.158629
   vertex -2208.000000 80.000000 45200.000000
   vertex -3140.000000 79.614778 45192.158629
  endloop
 endfacet
endsolid part
