solid Tribute_star_5
 facet normal 0.608761 -0.793353 0.000000
  outer loop
   vertex 410.000000 -710.140831 97104.000000
   vertex 579.827561 -579.827561 97104.000000
   vertex 579.827561 -579.827561 97116.000000
  endloop
 endfacet
 facet normal 0.608761 -0.793353 0.000000
  outer loop
   vertex 410.000000 -710.140831 97104.000000
   vertex 579.827561 -579.827561 97116.000000
   vertex 410.000000 -710.140831 97116.000000
  endloop
 endfacet
 facet normal 0.793353 -0.608761 0.000000
  outer loop
   vertex 579.827561 -579.827561 97104.000000
   vertex 710.140831 -410.000000 97104.000000
   vertex 710.140831 -410.000000 97116.000000
  endloop
 endfacet
 facet normal 0.793353 -0.608761 0.000000
  outer loop
   vertex 579.827561 -579.827561 97104.000000
   vertex 710.140831 -410.000000 97116.000000
   vertex 579.827561 -579.827561 97116.000000
  endloop
 endfacet
 facet normal 0.923880 -0.382683 0.000000
  outer loop
   vertex 710.140831 -410.000000 97104.000000
   vertex 792.059178 -212.231617 97104.000000
   vertex 792.059178 -212.231617 97116.000000
  endloop
 endfacet
 facet normal 0.923880 -0.382683 0.000000
  outer loop
   vertex 710.140831 -410.000000 97104.000000
   vertex 792.059178 -212.231617 97116.000000
   vertex 710.140831 -410.000000 97116.000000
  endloop
 endfacet
 facet normal 0.991445 -0.130526 0.000000
  outer loop
   vertex 792.059178 -212.231617 97104.000000
   vertex 820.000000 -0.000000 97104.000000
   vertex 820.000000 -0.000000 97116.000000
  endloop
 endfacet
 facet normal 0.991445 -0.130526 0.000000
  outer loop
   vertex 792.059178 -212.231617 97104.000000
   vertex 820.000000 -0.000000 97116.000000
   vertex 792.059178 -212.231617 97116.000000
  endloop
 endfacet
 facet normal 0.991445 0.130526 0.000000
  outer loop
   vertex 820.000000 -0.000000 97104.000000
   vertex 792.059178 212.231617 97104.000000
   vertex 792.059178 212.231617 97116.000000
  endloop
 endfacet
 facet normal 0.991445 0.130526 -0.000000
  outer loop
   vertex 820.000000 -0.000000 97104.000000
   vertex 792.059178 212.231617 97116.000000
   vertex 820.000000 -0.000000 97116.000000
  endloop
 endfacet
 facet normal 0.923880 0.382683 0.000000
  outer loop
   vertex 792.059178 212.231617 97104.000000
   vertex 710.140831 410.000000 97104.000000
   vertex 710.140831 410.000000 97116.000000
  endloop
 endfacet
 facet normal 0.923880 0.382683 -0.000000
  outer loop
   vertex 792.059178 212.231617 97104.000000
   vertex 710.140831 410.000000 97116.000000
   vertex 792.059178 212.231617 97116.000000
  endloop
 endfacet
 facet normal 0.793353 0.608761 0.000000
  outer loop
   vertex 710.140831 410.000000 97104.000000
   vertex 579.827561 579.827561 97104.000000
   vertex 579.827561 579.827561 97116.000000
  endloop
 endfacet
 facet normal 0.793353 0.608761 -0.000000
  outer loop
   vertex 710.140831 410.000000 97104.000000
   vertex 579.827561 579.827561 97116.000000
   vertex 710.140831 410.000000 97116.000000
  endloop
 endfacet
 facet normal 0.608761 0.793353 0.000000
  outer loop
   vertex 579.827561 579.827561 97104.000000
   vertex 410.000000 710.140831 97104.000000
   vertex 410.000000 710.140831 97116.000000
  endloop
 endfacet
 facet normal 0.608761 0.793353 -0.000000
  outer loop
   vertex 579.827561 579.827561 97104.000000
   vertex 410.000000 710.140831 97116.000000
   vertex 579.827561 579.827561 97116.000000
  endloop
 endfacet
 facet normal 0.382683 0.923880 0.000000
  outer loop
   vertex 410.000000 710.140831 97104.000000
   vertex 212.231617 792.059178 97104.000000
   vertex 212.231617 792.059178 97116.000000
  endloop
 endfacet
 facet normal 0.382683 0.923880 -0.000000
  outer loop
   vertex 410.000000 710.140831 97104.000000
   vertex 212.231617 792.059178 97116.000000
   vertex 410.000000 710.140831 97116.000000
  endloop
 endfacet
 facet normal 0.130526 0.991445 0.000000
  outer loop
   vertex 212.231617 792.059178 97104.000000
   vertex -0.000000 820.000000 97104.000000
   vertex -0.000000 820.000000 97116.000000
  endloop
 endfacet
 facet normal 0.130526 0.991445 -0.000000
  outer loop
   vertex 212.231617 792.059178 97104.000000
   vertex -0.000000 820.000000 97116.000000
   vertex 212.231617 792.059178 97116.000000
  endloop
 endfacet
 facet normal -0.130526 0.991445 0.000000
  outer loop
   vertex -0.000000 820.000000 97104.000000
   vertex -212.231617 792.059178 97104.000000
   vertex -212.231617 792.059178 97116.000000
  endloop
 endfacet
 facet normal -0.130526 0.991445 0.000000
  outer loop
   vertex -0.000000 820.000000 97104.000000
   vertex -212.231617 792.059178 97116.000000
   vertex -0.000000 820.000000 97116.000000
  endloop
 endfacet
 facet normal -0.382683 0.923880 0.000000
  outer loop
   vertex -212.231617 792.059178 97104.000000
   vertex -410.000000 710.140831 97104.000000
   vertex -410.000000 710.140831 97116.000000
  endloop
 endfacet
 facet normal -0.382683 0.923880 0.000000
  outer loop
   vertex -212.231617 792.059178 97104.000000
   vertex -410.000000 710.140831 97116.000000
   vertex -212.231617 792.059178 97116.000000
  endloop
 endfacet
 facet normal -0.608761 0.793353 0.000000
  outer loop
   vertex -410.000000 710.140831 97104.000000
   vertex -579.827561 579.827561 97104.000000
   vertex -579.827561 579.827561 97116.000000
  endloop
 endfacet
 facet normal -0.608761 0.793353 0.000000
  outer loop
   vertex -410.000000 710.140831 97104.000000
   vertex -579.827561 579.827561 97116.000000
   vertex -410.000000 710.140831 97116.000000
  endloop
 endfacet
 facet normal -0.793353 0.608761 0.000000
  outer loop
   vertex -579.827561 579.827561 97104.000000
   vertex -710.140831 410.000000 97104.000000
   vertex -710.140831 410.000000 97116.000000
  endloop
 endfacet
 facet normal -0.793353 0.608761 0.000000
  outer loop
   vertex -579.827561 579.827561 97104.000000
   vertex -710.140831 410.000000 97116.000000
   vertex -579.827561 579.827561 97116.000000
  endloop
 endfacet
 facet normal -0.923880 0.382683 0.000000
  outer loop
   vertex -710.140831 410.000000 97104.000000
   vertex -792.059178 212.231617 97104.000000
   vertex -792.059178 212.231617 97116.000000
  endloop
 endfacet
 facet normal -0.923880 0.382683 0.000000
  outer loop
   vertex -710.140831 410.000000 97104.000000
   vertex -792.059178 212.231617 97116.000000
   vertex -710.140831 410.000000 97116.000000
  endloop
 endfacet
 facet normal -0.991445 0.130526 0.000000
  outer loop
   vertex -792.059178 212.231617 97104.000000
   vertex -820.000000 0.000000 97104.000000
   vertex -820.000000 0.000000 97116.000000
  endloop
 endfacet
 facet normal -0.991445 0.130526 0.000000
  outer loop
   vertex -792.059178 212.231617 97104.000000
   vertex -820.000000 0.000000 97116.000000
   vertex -792.059178 212.231617 97116.000000
  endloop
 endfacet
 facet normal -0.991445 -0.130526 0.000000
  outer loop
   vertex -820.000000 0.000000 97104.000000
   vertex -792.059178 -212.231617 97104.000000
   vertex -792.059178 -212.231617 97116.000000
  endloop
 endfacet
 facet normal -0.991445 -0.130526 0.000000
  outer loop
   vertex -820.000000 0.000000 97104.000000
   vertex -792.059178 -212.231617 97116.000000
   vertex -820.000000 0.000000 97116.000000
  endloop
 endfacet
 facet normal -0.923880 -0.382683 0.000000
  outer loop
   vertex -792.059178 -212.231617 97104.000000
   vertex -710.140831 -410.000000 97104.000000
   vertex -710.140831 -410.000000 97116.000000
  endloop
 endfacet
 facet normal -0.923880 -0.382683 0.000000
  outer loop
   vertex -792.059178 -212.231617 97104.000000
   vertex -710.140831 -410.000000 97116.000000
   vertex -792.059178 -212.231617 97116.000000
  endloop
 endfacet
 facet normal -0.793353 -0.608761 0.000000
  outer loop
   vertex -710.140831 -410.000000 97104.000000
   vertex -579.827561 -579.827561 97104.000000
   vertex -579.827561 -579.827561 97116.000000
  endloop
 endfacet
 facet normal -0.793353 -0.608761 0.000000
  outer loop
   vertex -710.140831 -410.000000 97104.000000
   vertex -579.827561 -579.827561 97116.000000
   vertex -710.140831 -410.000000 97116.000000
  endloop
 endfacet
 facet normal -0.608761 -0.793353 0.000000
  outer loop
   vertex -579.827561 -579.827561 97104.000000
   vertex -410.000000 -710.140831 97104.000000
   vertex -410.000000 -710.140831 97116.000000
  endloop
 endfacet
 facet normal -0.608761 -0.793353 0.000000
  outer loop
   vertex -579.827561 -579.827561 97104.000000
   vertex -410.000000 -710.140831 97116.000000
   vertex -579.827561 -579.827561 97116.000000
  endloop
 endfacet
 facet normal -0.382683 -0.923880 0.000000
  outer loop
   vertex -410.000000 -710.140831 97104.000000
   vertex -212.231617 -792.059178 97104.000000
   vertex -212.231617 -792.059178 97116.000000
  endloop
 endfacet
 facet normal -0.382683 -0.923880 0.000000
  outer loop
   vertex -410.000000 -710.140831 97104.000000
   vertex -212.231617 -792.059178 97116.000000
   vertex -410.000000 -710.140831 97116.000000
  endloop
 endfacet
 facet normal -0.130526 -0.991445 0.000000
  outer loop
   vertex -212.231617 -792.059178 97104.000000
   vertex -0.000000 -820.000000 97104.000000
   vertex -0.000000 -820.000000 97116.000000
  endloop
 endfacet
 facet normal -0.130526 -0.991445 0.000000
  outer loop
   vertex -212.231617 -792.059178 97104.000000
   vertex -0.000000 -820.000000 97116.000000
   vertex -212.231617 -792.059178 97116.000000
  endloop
 endfacet
 facet normal 0.130526 -0.991445 0.000000
  outer loop
   vertex -0.000000 -820.000000 97104.000000
   vertex 212.231617 -792.059178 97104.000000
   vertex 212.231617 -792.059178 97116.000000
  endloop
 endfacet
 facet normal 0.130526 -0.991445 0.000000
  outer loop
   vertex -0.000000 -820.000000 97104.000000
   vertex 212.231617 -792.059178 97116.000000
   vertex -0.000000 -820.000000 97116.000000
  endloop
 endfacet
 facet normal 0.382683 -0.923880 0.000000
  outer loop
   vertex 212.231617 -792.059178 97104.000000
   vertex 410.000000 -710.140831 97104.000000
   vertex 410.000000 -710.140831 97116.000000
  endloop
 endfacet
 facet normal 0.382683 -0.923880 0.000000
  outer loop
   vertex 212.231617 -792.059178 97104.000000
   vertex 410.000000 -710.140831 97116.000000
   vertex 212.231617 -792.059178 97116.000000
  endloop
 endfacet
 facet normal -0.608761 0.793353 0.000000
  outer loop
   vertex 576.999133 -576.999133 97116.000000
   vertex 576.999133 -576.999133 97104.000000
   vertex 408.000000 -706.676729 97104.000000
  endloop
 endfacet
 facet normal -0.608761 0.793353 0.000000
  outer loop
   vertex 408.000000 -706.676729 97116.000000
   vertex 576.999133 -576.999133 97116.000000
   vertex 408.000000 -706.676729 97104.000000
  endloop
 endfacet
 facet normal -0.793353 0.608761 0.000000
  outer loop
   vertex 706.676729 -408.000000 97116.000000
   vertex 706.676729 -408.000000 97104.000000
   vertex 576.999133 -576.999133 97104.000000
  endloop
 endfacet
 facet normal -0.793353 0.608761 0.000000
  outer loop
   vertex 576.999133 -576.999133 97116.000000
   vertex 706.676729 -408.000000 97116.000000
   vertex 576.999133 -576.999133 97104.000000
  endloop
 endfacet
 facet normal -0.923880 0.382683 0.000000
  outer loop
   vertex 788.195474 -211.196341 97116.000000
   vertex 788.195474 -211.196341 97104.000000
   vertex 706.676729 -408.000000 97104.000000
  endloop
 endfacet
 facet normal -0.923880 0.382683 0.000000
  outer loop
   vertex 706.676729 -408.000000 97116.000000
   vertex 788.195474 -211.196341 97116.000000
   vertex 706.676729 -408.000000 97104.000000
  endloop
 endfacet
 facet normal -0.991445 0.130526 0.000000
  outer loop
   vertex 816.000000 -0.000000 97116.000000
   vertex 816.000000 -0.000000 97104.000000
   vertex 788.195474 -211.196341 97104.000000
  endloop
 endfacet
 facet normal -0.991445 0.130526 0.000000
  outer loop
   vertex 788.195474 -211.196341 97116.000000
   vertex 816.000000 -0.000000 97116.000000
   vertex 788.195474 -211.196341 97104.000000
  endloop
 endfacet
 facet normal -0.991445 -0.130526 -0.000000
  outer loop
   vertex 788.195474 211.196341 97116.000000
   vertex 788.195474 211.196341 97104.000000
   vertex 816.000000 -0.000000 97104.000000
  endloop
 endfacet
 facet normal -0.991445 -0.130526 -0.000000
  outer loop
   vertex 816.000000 -0.000000 97116.000000
   vertex 788.195474 211.196341 97116.000000
   vertex 816.000000 -0.000000 97104.000000
  endloop
 endfacet
 facet normal -0.923880 -0.382683 -0.000000
  outer loop
   vertex 706.676729 408.000000 97116.000000
   vertex 706.676729 408.000000 97104.000000
   vertex 788.195474 211.196341 97104.000000
  endloop
 endfacet
 facet normal -0.923880 -0.382683 -0.000000
  outer loop
   vertex 788.195474 211.196341 97116.000000
   vertex 706.676729 408.000000 97116.000000
   vertex 788.195474 211.196341 97104.000000
  endloop
 endfacet
 facet normal -0.793353 -0.608761 -0.000000
  outer loop
   vertex 576.999133 576.999133 97116.000000
   vertex 576.999133 576.999133 97104.000000
   vertex 706.676729 408.000000 97104.000000
  endloop
 endfacet
 facet normal -0.793353 -0.608761 -0.000000
  outer loop
   vertex 706.676729 408.000000 97116.000000
   vertex 576.999133 576.999133 97116.000000
   vertex 706.676729 408.000000 97104.000000
  endloop
 endfacet
 facet normal -0.608761 -0.793353 -0.000000
  outer loop
   vertex 408.000000 706.676729 97116.000000
   vertex 408.000000 706.676729 97104.000000
   vertex 576.999133 576.999133 97104.000000
  endloop
 endfacet
 facet normal -0.608761 -0.793353 -0.000000
  outer loop
   vertex 576.999133 576.999133 97116.000000
   vertex 408.000000 706.676729 97116.000000
   vertex 576.999133 576.999133 97104.000000
  endloop
 endfacet
 facet normal -0.382683 -0.923880 -0.000000
  outer loop
   vertex 211.196341 788.195474 97116.000000
   vertex 211.196341 788.195474 97104.000000
   vertex 408.000000 706.676729 97104.000000
  endloop
 endfacet
 facet normal -0.382683 -0.923880 -0.000000
  outer loop
   vertex 408.000000 706.676729 97116.000000
   vertex 211.196341 788.195474 97116.000000
   vertex 408.000000 706.676729 97104.000000
  endloop
 endfacet
 facet normal -0.130526 -0.991445 -0.000000
  outer loop
   vertex -0.000000 816.000000 97116.000000
   vertex -0.000000 816.000000 97104.000000
   vertex 211.196341 788.195474 97104.000000
  endloop
 endfacet
 facet normal -0.130526 -0.991445 -0.000000
  outer loop
   vertex 211.196341 788.195474 97116.000000
   vertex -0.000000 816.000000 97116.000000
   vertex 211.196341 788.195474 97104.000000
  endloop
 endfacet
 facet normal 0.130526 -0.991445 0.000000
  outer loop
   vertex -211.196341 788.195474 97116.000000
   vertex -211.196341 788.195474 97104.000000
   vertex -0.000000 816.000000 97104.000000
  endloop
 endfacet
 facet normal 0.130526 -0.991445 0.000000
  outer loop
   vertex -0.000000 816.000000 97116.000000
   vertex -211.196341 788.195474 97116.000000
   vertex -0.000000 816.000000 97104.000000
  endloop
 endfacet
 facet normal 0.382683 -0.923880 0.000000
  outer loop
   vertex -408.000000 706.676729 97116.000000
   vertex -408.000000 706.676729 97104.000000
   vertex -211.196341 788.195474 97104.000000
  endloop
 endfacet
 facet normal 0.382683 -0.923880 0.000000
  outer loop
   vertex -211.196341 788.195474 97116.000000
   vertex -408.000000 706.676729 97116.000000
   vertex -211.196341 788.195474 97104.000000
  endloop
 endfacet
 facet normal 0.608761 -0.793353 0.000000
  outer loop
   vertex -576.999133 576.999133 97116.000000
   vertex -576.999133 576.999133 97104.000000
   vertex -408.000000 706.676729 97104.000000
  endloop
 endfacet
 facet normal 0.608761 -0.793353 0.000000
  outer loop
   vertex -408.000000 706.676729 97116.000000
   vertex -576.999133 576.999133 97116.000000
   vertex -408.000000 706.676729 97104.000000
  endloop
 endfacet
 facet normal 0.793353 -0.608761 0.000000
  outer loop
   vertex -706.676729 408.000000 97116.000000
   vertex -706.676729 408.000000 97104.000000
   vertex -576.999133 576.999133 97104.000000
  endloop
 endfacet
 facet normal 0.793353 -0.608761 0.000000
  outer loop
   vertex -576.999133 576.999133 97116.000000
   vertex -706.676729 408.000000 97116.000000
   vertex -576.999133 576.999133 97104.000000
  endloop
 endfacet
 facet normal 0.923880 -0.382683 0.000000
  outer loop
   vertex -788.195474 211.196341 97116.000000
   vertex -788.195474 211.196341 97104.000000
   vertex -706.676729 408.000000 97104.000000
  endloop
 endfacet
 facet normal 0.923880 -0.382683 0.000000
  outer loop
   vertex -706.676729 408.000000 97116.000000
   vertex -788.195474 211.196341 97116.000000
   vertex -706.676729 408.000000 97104.000000
  endloop
 endfacet
 facet normal 0.991445 -0.130526 0.000000
  outer loop
   vertex -816.000000 0.000000 97116.000000
   vertex -816.000000 0.000000 97104.000000
   vertex -788.195474 211.196341 97104.000000
  endloop
 endfacet
 facet normal 0.991445 -0.130526 0.000000
  outer loop
   vertex -788.195474 211.196341 97116.000000
   vertex -816.000000 0.000000 97116.000000
   vertex -788.195474 211.196341 97104.000000
  endloop
 endfacet
 facet normal 0.991445 0.130526 0.000000
  outer loop
   vertex -788.195474 -211.196341 97116.000000
   vertex -788.195474 -211.196341 97104.000000
   vertex -816.000000 0.000000 97104.000000
  endloop
 endfacet
 facet normal 0.991445 0.130526 0.000000
  outer loop
   vertex -816.000000 0.000000 97116.000000
   vertex -788.195474 -211.196341 97116.000000
   vertex -816.000000 0.000000 97104.000000
  endloop
 endfacet
 facet normal 0.923880 0.382683 0.000000
  outer loop
   vertex -706.676729 -408.000000 97116.000000
   vertex -706.676729 -408.000000 97104.000000
   vertex -788.195474 -211.196341 97104.000000
  endloop
 endfacet
 facet normal 0.923880 0.382683 0.000000
  outer loop
   vertex -788.195474 -211.196341 97116.000000
   vertex -706.676729 -408.000000 97116.000000
   vertex -788.195474 -211.196341 97104.000000
  endloop
 endfacet
 facet normal 0.793353 0.608761 0.000000
  outer loop
   vertex -576.999133 -576.999133 97116.000000
   vertex -576.999133 -576.999133 97104.000000
   vertex -706.676729 -408.000000 97104.000000
  endloop
 endfacet
 facet normal 0.793353 0.608761 0.000000
  outer loop
   vertex -706.676729 -408.000000 97116.000000
   vertex -576.999133 -576.999133 97116.000000
   vertex -706.676729 -408.000000 97104.000000
  endloop
 endfacet
 facet normal 0.608761 0.793353 0.000000
  outer loop
   vertex -408.000000 -706.676729 97116.000000
   vertex -408.000000 -706.676729 97104.000000
   vertex -576.999133 -576.999133 97104.000000
  endloop
 endfacet
 facet normal 0.608761 0.793353 0.000000
  outer loop
   vertex -576.999133 -576.999133 97116.000000
   vertex -408.000000 -706.676729 97116.000000
   vertex -576.999133 -576.999133 97104.000000
  endloop
 endfacet
 facet normal 0.382683 0.923880 0.000000
  outer loop
   vertex -211.196341 -788.195474 97116.000000
   vertex -211.196341 -788.195474 97104.000000
   vertex -408.000000 -706.676729 97104.000000
  endloop
 endfacet
 facet normal 0.382683 0.923880 0.000000
  outer loop
   vertex -408.000000 -706.676729 97116.000000
   vertex -211.196341 -788.195474 97116.000000
   vertex -408.000000 -706.676729 97104.000000
  endloop
 endfacet
 facet normal 0.130526 0.991445 0.000000
  outer loop
   vertex -0.000000 -816.000000 97116.000000
   vertex -0.000000 -816.000000 97104.000000
   vertex -211.196341 -788.195474 97104.000000
  endloop
 endfacet
 facet normal 0.130526 0.991445 0.000000
  outer loop
   vertex -211.196341 -788.195474 97116.000000
   vertex -0.000000 -816.000000 97116.000000
   vertex -211.196341 -788.195474 97104.000000
  endloop
 endfacet
 facet normal -0.130526 0.991445 0.000000
  outer loop
   vertex 211.196341 -788.195474 97116.000000
   vertex 211.196341 -788.195474 97104.000000
   vertex -0.000000 -816.000000 97104.000000
  endloop
 endfacet
 facet normal -0.130526 0.991445 0.000000
  outer loop
   vertex -0.000000 -816.000000 97116.000000
   vertex 211.196341 -788.195474 97116.000000
   vertex -0.000000 -816.000000 97104.000000
  endloop
 endfacet
 facet normal -0.382683 0.923880 0.000000
  outer loop
   vertex 408.000000 -706.676729 97116.000000
   vertex 408.000000 -706.676729 97104.000000
   vertex 211.196341 -788.195474 97104.000000
  endloop
 endfacet
 facet normal -0.382683 0.923880 0.000000
  outer loop
   vertex 211.196341 -788.195474 97116.000000
   vertex 408.000000 -706.676729 97116.000000
   vertex 211.196341 -788.195474 97104.000000
  endloop
 endfacet
 facet normal 0.000000 -0.000000 1.000000
  outer loop
   vertex 410.000000 -710.140831 97104.000000
   vertex 576.999133 -576.999133 97104.000000
   vertex 408.000000 -706.676729 97104.000000
  endloop
 endfacet
 facet normal 0.000000 0.000000 1.000000
  outer loop
   vertex 410.000000 -710.140831 97104.000000
   vertex 579.827561 -579.827561 97104.000000
   vertex 576.999133 -576.999133 97104.000000
  endloop
 endfacet
 facet normal 0.000000 -0.000000 1.000000
  outer loop
   vertex 579.827561 -579.827561 97104.000000
   vertex 706.676729 -408.000000 97104.000000
   vertex 576.999133 -576.999133 97104.000000
  endloop
 endfacet
 facet normal 0.000000 0.000000 1.000000
  outer loop
   vertex 579.827561 -579.827561 97104.000000
   vertex 710.140831 -410.000000 97104.000000
   vertex 706.676729 -408.000000 97104.000000
  endloop
 endfacet
 facet normal 0.000000 -0.000000 1.000000
  outer loop
   vertex 710.140831 -410.000000 97104.000000
   vertex 788.195474 -211.196341 97104.000000
   vertex 706.676729 -408.000000 97104.000000
  endloop
 endfacet
 facet normal 0.000000 0.000000 1.000000
  outer loop
   vertex 710.140831 -410.000000 97104.000000
   vertex 792.059178 -212.231617 97104.000000
   vertex 788.195474 -211.196341 97104.000000
  endloop
 endfacet
 facet normal 0.000000 -0.000000 1.000000
  outer loop
   vertex 792.059178 -212.231617 97104.000000
   vertex 816.000000 -0.000000 97104.000000
   vertex 788.195474 -211.196341 97104.000000
  endloop
 endfacet
 facet normal 0.000000 0.000000 1.000000
  outer loop
   vertex 792.059178 -212.231617 97104.000000
   vertex 820.000000 -0.000000 97104.000000
   vertex 816.000000 -0.000000 97104.000000
  endloop
 endfacet
 facet normal 0.000000 0.000000 1.000000
  outer loop
   vertex 820.000000 -0.000000 97104.000000
   vertex 788.195474 211.196341 97104.000000
   vertex 816.000000 -0.000000 97104.000000
  endloop
 endfacet
 facet normal 0.000000 0.000000 1.000000
  outer loop
   vertex 820.000000 -0.000000 97104.000000
   vertex 792.059178 212.231617 97104.000000
   vertex 788.195474 211.196341 97104.000000
  endloop
 endfacet
 facet normal 0.000000 0.000000 1.000000
  outer loop
   vertex 792.059178 212.231617 97104.000000
   vertex 706.676729 408.000000 97104.000000
   vertex 788.195474 211.196341 97104.000000
  endloop
 endfacet
 facet normal 0.000000 0.000000 1.000000
  outer loop
   vertex 792.059178 212.231617 97104.000000
   vertex 710.140831 410.000000 97104.000000
   vertex 706.676729 408.000000 97104.000000
  endloop
 endfacet
 facet normal 0.000000 0.000000 1.000000
  outer loop
   vertex 710.140831 410.000000 97104.000000
   vertex 576.999133 576.999133 97104.000000
   vertex 706.676729 408.000000 97104.000000
  endloop
 endfacet
 facet normal 0.000000 0.000000 1.000000
  outer loop
   vertex 710.140831 410.000000 97104.000000
   vertex 579.827561 579.827561 97104.000000
   vertex 576.999133 576.999133 97104.000000
  endloop
 endfacet
 facet normal 0.000000 0.000000 1.000000
  outer loop
   vertex 579.827561 579.827561 97104.000000
   vertex 408.000000 706.676729 97104.000000
   vertex 576.999133 576.999133 97104.000000
  endloop
 endfacet
 facet normal 0.000000 0.000000 1.000000
  outer loop
   vertex 579.827561 579.827561 97104.000000
   vertex 410.000000 710.140831 97104.000000
   vertex 408.000000 706.676729 97104.000000
  endloop
 endfacet
 facet normal 0.000000 0.000000 1.000000
  outer loop
   vertex 410.000000 710.140831 97104.000000
   vertex 211.196341 788.195474 97104.000000
   vertex 408.000000 706.676729 97104.000000
  endloop
 endfacet
 facet normal 0.000000 0.000000 1.000000
  outer loop
   vertex 410.000000 710.140831 97104.000000
   vertex 212.231617 792.059178 97104.000000
   vertex 211.196341 788.195474 97104.000000
  endloop
 endfacet
 facet normal 0.000000 0.000000 1.000000
  outer loop
   vertex 212.231617 792.059178 97104.000000
   vertex -0.000000 816.000000 97104.000000
   vertex 211.196341 788.195474 97104.000000
  endloop
 endfacet
 facet normal 0.000000 0.000000 1.000000
  outer loop
   vertex 212.231617 792.059178 97104.000000
   vertex -0.000000 820.000000 97104.000000
   vertex -0.000000 816.000000 97104.000000
  endloop
 endfacet
 facet normal 0.000000 0.000000 1.000000
  outer loop
   vertex -0.000000 820.000000 97104.000000
   vertex -211.196341 788.195474 97104.000000
   vertex -0.000000 816.000000 97104.000000
  endloop
 endfacet
 facet normal 0.000000 0.000000 1.000000
  outer loop
   vertex -0.000000 820.000000 97104.000000
   vertex -212.231617 792.059178 97104.000000
   vertex -211.196341 788.195474 97104.000000
  endloop
 endfacet
 facet normal 0.000000 0.000000 1.000000
  outer loop
   vertex -212.231617 792.059178 97104.000000
   vertex -408.000000 706.676729 97104.000000
   vertex -211.196341 788.195474 97104.000000
  endloop
 endfacet
 facet normal 0.000000 0.000000 1.000000
  outer loop
   vertex -212.231617 792.059178 97104.000000
   vertex -410.000000 710.140831 97104.000000
   vertex -408.000000 706.676729 97104.000000
  endloop
 endfacet
 facet normal 0.000000 0.000000 1.000000
  outer loop
   vertex -410.000000 710.140831 97104.000000
   vertex -576.999133 576.999133 97104.000000
   vertex -408.000000 706.676729 97104.000000
  endloop
 endfacet
 facet normal 0.000000 0.000000 1.000000
  outer loop
   vertex -410.000000 710.140831 97104.000000
   vertex -579.827561 579.827561 97104.000000
   vertex -576.999133 576.999133 97104.000000
  endloop
 endfacet
 facet normal 0.000000 0.000000 1.000000
  outer loop
   vertex -579.827561 579.827561 97104.000000
   vertex -706.676729 408.000000 97104.000000
   vertex -576.999133 576.999133 97104.000000
  endloop
 endfacet
 facet normal 0.000000 0.000000 1.000000
  outer loop
   vertex -579.827561 579.827561 97104.000000
   vertex -710.140831 410.000000 97104.000000
   vertex -706.676729 408.000000 97104.000000
  endloop
 endfacet
 facet normal 0.000000 0.000000 1.000000
  outer loop
   vertex -710.140831 410.000000 97104.000000
   vertex -788.195474 211.196341 97104.000000
   vertex -706.676729 408.000000 97104.000000
  endloop
 endfacet
 facet normal 0.000000 0.000000 1.000000
  outer loop
   vertex -710.140831 410.000000 97104.000000
   vertex -792.059178 212.231617 97104.000000
   vertex -788.195474 211.196341 97104.000000
  endloop
 endfacet
 facet normal 0.000000 0.000000 1.000000
  outer loop
   vertex -792.059178 212.231617 97104.000000
   vertex -816.000000 0.000000 97104.000000
   vertex -788.195474 211.196341 97104.000000
  endloop
 endfacet
 facet normal 0.000000 0.000000 1.000000
  outer loop
   vertex -792.059178 212.231617 97104.000000
   vertex -820.000000 0.000000 97104.000000
   vertex -816.000000 0.000000 97104.000000
  endloop
 endfacet
 facet normal -0.000000 0.000000 1.000000
  outer loop
   vertex -820.000000 0.000000 97104.000000
   vertex -788.195474 -211.196341 97104.000000
   vertex -816.000000 0.000000 97104.000000
  endloop
 endfacet
 facet normal 0.000000 0.000000 1.000000
  outer loop
   vertex -820.000000 0.000000 97104.000000
   vertex -792.059178 -212.231617 97104.000000
   vertex -788.195474 -211.196341 97104.000000
  endloop
 endfacet
 facet normal -0.000000 0.000000 1.000000
  outer loop
   vertex -792.059178 -212.231617 97104.000000
   vertex -706.676729 -408.000000 97104.000000
   vertex -788.195474 -211.196341 97104.000000
  endloop
 endfacet
 facet normal 0.000000 0.000000 1.000000
  outer loop
   vertex -792.059178 -212.231617 97104.000000
   vertex -710.140831 -410.000000 97104.000000
   vertex -706.676729 -408.000000 97104.000000
  endloop
 endfacet
 facet normal -0.000000 0.000000 1.000000
  outer loop
   vertex -710.140831 -410.000000 97104.000000
   vertex -576.999133 -576.999133 97104.000000
   vertex -706.676729 -408.000000 97104.000000
  endloop
 endfacet
 facet normal 0.000000 0.000000 1.000000
  outer loop
   vertex -710.140831 -410.000000 97104.000000
   vertex -579.827561 -579.827561 97104.000000
   vertex -576.999133 -576.999133 97104.000000
  endloop
 endfacet
 facet normal -0.000000 0.000000 1.000000
  outer loop
   vertex -579.827561 -579.827561 97104.000000
   vertex -408.000000 -706.676729 97104.000000
   vertex -576.999133 -576.999133 97104.000000
  endloop
 endfacet
 facet normal 0.000000 0.000000 1.000000
  outer loop
   vertex -579.827561 -579.827561 97104.000000
   vertex -410.000000 -710.140831 97104.000000
   vertex -408.000000 -706.676729 97104.000000
  endloop
 endfacet
 facet normal -0.000000 0.000000 1.000000
  outer loop
   vertex -410.000000 -710.140831 97104.000000
   vertex -211.196341 -788.195474 97104.000000
   vertex -408.000000 -706.676729 97104.000000
  endloop
 endfacet
 facet normal 0.000000 0.000000 1.000000
  outer loop
   vertex -410.000000 -710.140831 97104.000000
   vertex -212.231617 -792.059178 97104.000000
   vertex -211.196341 -788.195474 97104.000000
  endloop
 endfacet
 facet normal -0.000000 0.000000 1.000000
  outer loop
   vertex -212.231617 -792.059178 97104.000000
   vertex -0.000000 -816.000000 97104.000000
   vertex -211.196341 -788.195474 97104.000000
  endloop
 endfacet
 facet normal 0.000000 0.000000 1.000000
  outer loop
   vertex -212.231617 -792.059178 97104.000000
   vertex -0.000000 -820.000000 97104.000000
   vertex -0.000000 -816.000000 97104.000000
  endloop
 endfacet
 facet normal 0.000000 -0.000000 1.000000
  outer loop
   vertex -0.000000 -820.000000 97104.000000
   vertex 211.196341 -788.195474 97104.000000
   vertex -0.000000 -816.000000 97104.000000
  endloop
 endfacet
 facet normal 0.000000 0.000000 1.000000
  outer loop
   vertex -0.000000 -820.000000 97104.000000
   vertex 212.231617 -792.059178 97104.000000
   vertex 211.196341 -788.195474 97104.000000
  endloop
 endfacet
 facet normal 0.000000 -0.000000 1.000000
  outer loop
   vertex 212.231617 -792.059178 97104.000000
   vertex 408.000000 -706.676729 97104.000000
   vertex 211.196341 -788.195474 97104.000000
  endloop
 endfacet
 facet normal 0.000000 0.000000 1.000000
  outer loop
   vertex 212.231617 -792.059178 97104.000000
   vertex 410.000000 -710.140831 97104.000000
   vertex 408.000000 -706.676729 97104.000000
  endloop
 endfacet
 facet normal 0.000000 0.000000 -1.000000
  outer loop
   vertex 410.000000 -710.140831 97116.000000
   vertex 408.000000 -706.676729 97116.000000
   vertex 576.999133 -576.999133 97116.000000
  endloop
 endfacet
 facet normal 0.000000 0.000000 -1.000000
  outer loop
   vertex 410.000000 -710.140831 97116.000000
   vertex 576.999133 -576.999133 97116.000000
   vertex 579.827561 -579.827561 97116.000000
  endloop
 endfacet
 facet normal 0.000000 0.000000 -1.000000
  outer loop
   vertex 579.827561 -579.827561 97116.000000
   vertex 576.999133 -576.999133 97116.000000
   vertex 706.676729 -408.000000 97116.000000
  endloop
 endfacet
 facet normal 0.000000 0.000000 -1.000000
  outer loop
   vertex 579.827561 -579.827561 97116.000000
   vertex 706.676729 -408.000000 97116.000000
   vertex 710.140831 -410.000000 97116.000000
  endloop
 endfacet
 facet normal 0.000000 0.000000 -1.000000
  outer loop
   vertex 710.140831 -410.000000 97116.000000
   vertex 706.676729 -408.000000 97116.000000
   vertex 788.195474 -211.196341 97116.000000
  endloop
 endfacet
 facet normal 0.000000 0.000000 -1.000000
  outer loop
   vertex 710.140831 -410.000000 97116.000000
   vertex 788.195474 -211.196341 97116.000000
   vertex 792.059178 -212.231617 97116.000000
  endloop
 endfacet
 facet normal 0.000000 0.000000 -1.000000
  outer loop
   vertex 792.059178 -212.231617 97116.000000
   vertex 788.195474 -211.196341 97116.000000
   vertex 816.000000 -0.000000 97116.000000
  endloop
 endfacet
 facet normal 0.000000 0.000000 -1.000000
  outer loop
   vertex 792.059178 -212.231617 97116.000000
   vertex 816.000000 -0.000000 97116.000000
   vertex 820.000000 -0.000000 97116.000000
  endloop
 endfacet
 facet normal 0.000000 0.000000 -1.000000
  outer loop
   vertex 820.000000 -0.000000 97116.000000
   vertex 816.000000 -0.000000 97116.000000
   vertex 788.195474 211.196341 97116.000000
  endloop
 endfacet
 facet normal 0.000000 0.000000 -1.000000
  outer loop
   vertex 820.000000 -0.000000 97116.000000
   vertex 788.195474 211.196341 97116.000000
   vertex 792.059178 212.231617 97116.000000
  endloop
 endfacet
 facet normal -0.000000 0.000000 -1.000000
  outer loop
   vertex 792.059178 212.231617 97116.000000
   vertex 788.195474 211.196341 97116.000000
   vertex 706.676729 408.000000 97116.000000
  endloop
 endfacet
 facet normal 0.000000 0.000000 -1.000000
  outer loop
   vertex 792.059178 212.231617 97116.000000
   vertex 706.676729 408.000000 97116.000000
   vertex 710.140831 410.000000 97116.000000
  endloop
 endfacet
 facet normal -0.000000 0.000000 -1.000000
  outer loop
   vertex 710.140831 410.000000 97116.000000
   vertex 706.676729 408.000000 97116.000000
   vertex 576.999133 576.999133 97116.000000
  endloop
 endfacet
 facet normal 0.000000 0.000000 -1.000000
  outer loop
   vertex 710.140831 410.000000 97116.000000
   vertex 576.999133 576.999133 97116.000000
   vertex 579.827561 579.827561 97116.000000
  endloop
 endfacet
 facet normal -0.000000 0.000000 -1.000000
  outer loop
   vertex 579.827561 579.827561 97116.000000
   vertex 576.999133 576.999133 97116.000000
   vertex 408.000000 706.676729 97116.000000
  endloop
 endfacet
 facet normal 0.000000 0.000000 -1.000000
  outer loop
   vertex 579.827561 579.827561 97116.000000
   vertex 408.000000 706.676729 97116.000000
   vertex 410.000000 710.140831 97116.000000
  endloop
 endfacet
 facet normal -0.000000 0.000000 -1.000000
  outer loop
   vertex 410.000000 710.140831 97116.000000
   vertex 408.000000 706.676729 97116.000000
   vertex 211.196341 788.195474 97116.000000
  endloop
 endfacet
 facet normal 0.000000 0.000000 -1.000000
  outer loop
   vertex 410.000000 710.140831 97116.000000
   vertex 211.196341 788.195474 97116.000000
   vertex 212.231617 792.059178 97116.000000
  endloop
 endfacet
 facet normal -0.000000 0.000000 -1.000000
  outer loop
   vertex 212.231617 792.059178 97116.000000
   vertex 211.196341 788.195474 97116.000000
   vertex -0.000000 816.000000 97116.000000
  endloop
 endfacet
 facet normal 0.000000 0.000000 -1.000000
  outer loop
   vertex 212.231617 792.059178 97116.000000
   vertex -0.000000 816.000000 97116.000000
   vertex -0.000000 820.000000 97116.000000
  endloop
 endfacet
 facet normal 0.000000 -0.000000 -1.000000
  outer loop
   vertex -0.000000 820.000000 97116.000000
   vertex -0.000000 816.000000 97116.000000
   vertex -211.196341 788.195474 97116.000000
  endloop
 endfacet
 facet normal 0.000000 0.000000 -1.000000
  outer loop
   vertex -0.000000 820.000000 97116.000000
   vertex -211.196341 788.195474 97116.000000
   vertex -212.231617 792.059178 97116.000000
  endloop
 endfacet
 facet normal 0.000000 -0.000000 -1.000000
  outer loop
   vertex -212.231617 792.059178 97116.000000
   vertex -211.196341 788.195474 97116.000000
   vertex -408.000000 706.676729 97116.000000
  endloop
 endfacet
 facet normal 0.000000 0.000000 -1.000000
  outer loop
   vertex -212.231617 792.059178 97116.000000
   vertex -408.000000 706.676729 97116.000000
   vertex -410.000000 710.140831 97116.000000
  endloop
 endfacet
 facet normal 0.000000 -0.000000 -1.000000
  outer loop
   vertex -410.000000 710.140831 97116.000000
   vertex -408.000000 706.676729 97116.000000
   vertex -576.999133 576.999133 97116.000000
  endloop
 endfacet
 facet normal 0.000000 0.000000 -1.000000
  outer loop
   vertex -410.000000 710.140831 97116.000000
   vertex -576.999133 576.999133 97116.000000
   vertex -579.827561 579.827561 97116.000000
  endloop
 endfacet
 facet normal 0.000000 -0.000000 -1.000000
  outer loop
   vertex -579.827561 579.827561 97116.000000
   vertex -576.999133 576.999133 97116.000000
   vertex -706.676729 408.000000 97116.000000
  endloop
 endfacet
 facet normal 0.000000 0.000000 -1.000000
  outer loop
   vertex -579.827561 579.827561 97116.000000
   vertex -706.676729 408.000000 97116.000000
   vertex -710.140831 410.000000 97116.000000
  endloop
 endfacet
 facet normal 0.000000 -0.000000 -1.000000
  outer loop
   vertex -710.140831 410.000000 97116.000000
   vertex -706.676729 408.000000 97116.000000
   vertex -788.195474 211.196341 97116.000000
  endloop
 endfacet
 facet normal 0.000000 0.000000 -1.000000
  outer loop
   vertex -710.140831 410.000000 97116.000000
   vertex -788.195474 211.196341 97116.000000
   vertex -792.059178 212.231617 97116.000000
  endloop
 endfacet
 facet normal 0.000000 -0.000000 -1.000000
  outer loop
   vertex -792.059178 212.231617 97116.000000
   vertex -788.195474 211.196341 97116.000000
   vertex -816.000000 0.000000 97116.000000
  endloop
 endfacet
 facet normal 0.000000 0.000000 -1.000000
  outer loop
   vertex -792.059178 212.231617 97116.000000
   vertex -816.000000 0.000000 97116.000000
   vertex -820.000000 0.000000 97116.000000
  endloop
 endfacet
 facet normal 0.000000 0.000000 -1.000000
  outer loop
   vertex -820.000000 0.000000 97116.000000
   vertex -816.000000 0.000000 97116.000000
   vertex -788.195474 -211.196341 97116.000000
  endloop
 endfacet
 facet normal 0.000000 0.000000 -1.000000
  outer loop
   vertex -820.000000 0.000000 97116.000000
   vertex -788.195474 -211.196341 97116.000000
   vertex -792.059178 -212.231617 97116.000000
  endloop
 endfacet
 facet normal 0.000000 0.000000 -1.000000
  outer loop
   vertex -792.059178 -212.231617 97116.000000
   vertex -788.195474 -211.196341 97116.000000
   vertex -706.676729 -408.000000 97116.000000
  endloop
 endfacet
 facet normal 0.000000 0.000000 -1.000000
  outer loop
   vertex -792.059178 -212.231617 97116.000000
   vertex -706.676729 -408.000000 97116.000000
   vertex -710.140831 -410.000000 97116.000000
  endloop
 endfacet
 facet normal 0.000000 0.000000 -1.000000
  outer loop
   vertex -710.140831 -410.000000 97116.000000
   vertex -706.676729 -408.000000 97116.000000
   vertex -576.999133 -576.999133 97116.000000
  endloop
 endfacet
 facet normal 0.000000 0.000000 -1.000000
  outer loop
   vertex -710.140831 -410.000000 97116.000000
   vertex -576.999133 -576.999133 97116.000000
   vertex -579.827561 -579.827561 97116.000000
  endloop
 endfacet
 facet normal 0.000000 0.000000 -1.000000
  outer loop
   vertex -579.827561 -579.827561 97116.000000
   vertex -576.999133 -576.999133 97116.000000
   vertex -408.000000 -706.676729 97116.000000
  endloop
 endfacet
 facet normal 0.000000 0.000000 -1.000000
  outer loop
   vertex -579.827561 -579.827561 97116.000000
   vertex -408.000000 -706.676729 97116.000000
   vertex -410.000000 -710.140831 97116.000000
  endloop
 endfacet
 facet normal 0.000000 0.000000 -1.000000
  outer loop
   vertex -410.000000 -710.140831 97116.000000
   vertex -408.000000 -706.676729 97116.000000
   vertex -211.196341 -788.195474 97116.000000
  endloop
 endfacet
 facet normal 0.000000 0.000000 -1.000000
  outer loop
   vertex -410.000000 -710.140831 97116.000000
   vertex -211.196341 -788.195474 97116.000000
   vertex -212.231617 -792.059178 97116.000000
  endloop
 endfacet
 facet normal 0.000000 0.000000 -1.000000
  outer loop
   vertex -212.231617 -792.059178 97116.000000
   vertex -211.196341 -788.195474 97116.000000
   vertex -0.000000 -816.000000 97116.000000
  endloop
 endfacet
 facet normal 0.000000 0.000000 -1.000000
  outer loop
   vertex -212.231617 -792.059178 97116.000000
   vertex -0.000000 -816.000000 97116.000000
   vertex -0.000000 -820.000000 97116.000000
  endloop
 endfacet
 facet normal 0.000000 0.000000 -1.000000
  outer loop
   vertex -0.000000 -820.000000 97116.000000
   vertex -0.000000 -816.000000 97116.000000
   vertex 211.196341 -788.195474 97116.000000
  endloop
 endfacet
 facet normal 0.000000 0.000000 -1.000000
  outer loop
   vertex -0.000000 -820.000000 97116.000000
   vertex 211.196341 -788.195474 97116.000000
   vertex 212.231617 -792.059178 97116.000000
  endloop
 endfacet
 facet normal 0.000000 0.000000 -1.000000
  outer loop
   vertex 212.231617 -792.059178 97116.000000
   vertex 211.196341 -788.195474 97116.000000
   vertex 408.000000 -706.676729 97116.000000
  endloop
 endfacet
 facet normal 0.000000 0.000000 -1.000000
  outer loop
   vertex 212.231617 -792.059178 97116.000000
   vertex 408.000000 -706.676729 97116.000000
   vertex 410.000000 -710.140831 97116.000000
  endloop
 endfacet
endsolid part
