solid LOX_VALVE
 facet normal 0.993712 0.111964 0.000000
  outer loop
   vertex -1031.250000 -2165.000000 -730.000000
   vertex -1036.734519 -2116.323546 -730.000000
   vertex -1036.734519 -2116.323546 -650.000000
  endloop
 endfacet
 facet normal 0.993712 0.111964 -0.000000
  outer loop
   vertex -1031.250000 -2165.000000 -730.000000
   vertex -1036.734519 -2116.323546 -650.000000
   vertex -1031.250000 -2165.000000 -650.000000
  endloop
 endfacet
 facet normal 0.943883 0.330279 0.000000
  outer loop
   vertex -1036.734519 -2116.323546 -730.000000
   vertex -1052.913060 -2070.087932 -730.000000
   vertex -1052.913060 -2070.087932 -650.000000
  endloop
 endfacet
 facet normal 0.943883 0.330279 -0.000000
  outer loop
   vertex -1036.734519 -2116.323546 -730.000000
   vertex -1052.913060 -2070.087932 -650.000000
   vertex -1036.734519 -2116.323546 -650.000000
  endloop
 endfacet
 facet normal 0.846724 0.532032 0.000000
  outer loop
   vertex -1052.913060 -2070.087932 -730.000000
   vertex -1078.974363 -2028.611606 -730.000000
   vertex -1078.974363 -2028.611606 -650.000000
  endloop
 endfacet
 facet normal 0.846724 0.532032 -0.000000
  outer loop
   vertex -1052.913060 -2070.087932 -730.000000
   vertex -1078.974363 -2028.611606 -650.000000
   vertex -1052.913060 -2070.087932 -650.000000
  endloop
 endfacet
 facet normal 0.707107 0.707107 0.000000
  outer loop
   vertex -1078.974363 -2028.611606 -730.000000
   vertex -1113.611606 -1993.974363 -730.000000
   vertex -1113.611606 -1993.974363 -650.000000
  endloop
 endfacet
 facet normal 0.707107 0.707107 -0.000000
  outer loop
   vertex -1078.974363 -2028.611606 -730.000000
   vertex -1113.611606 -1993.974363 -650.000000
   vertex -1078.974363 -2028.611606 -650.000000
  endloop
 endfacet
 facet normal 0.532032 0.846724 0.000000
  outer loop
   vertex -1113.611606 -1993.974363 -730.000000
   vertex -1155.087932 -1967.913060 -730.000000
   vertex -1155.087932 -1967.913060 -650.000000
  endloop
 endfacet
 facet normal 0.532032 0.846724 -0.000000
  outer loop
   vertex -1113.611606 -1993.974363 -730.000000
   vertex -1155.087932 -1967.913060 -650.000000
   vertex -1113.611606 -1993.974363 -650.000000
  endloop
 endfacet
 facet normal 0.330279 0.943883 0.000000
  outer loop
   vertex -1155.087932 -1967.913060 -730.000000
   vertex -1201.323546 -1951.734519 -730.000000
   vertex -1201.323546 -1951.734519 -650.000000
  endloop
 endfacet
 facet normal 0.330279 0.943883 -0.000000
  outer loop
   vertex -1155.087932 -1967.913060 -730.000000
   vertex -1201.323546 -1951.734519 -650.000000
   vertex -1155.087932 -1967.913060 -650.000000
  endloop
 endfacet
 facet normal 0.111964 0.993712 0.000000
  outer loop
   vertex -1201.323546 -1951.734519 -730.000000
   vertex -1250.000000 -1946.250000 -730.000000
   vertex -1250.000000 -1946.250000 -650.000000
  endloop
 endfacet
 facet normal 0.111964 0.993712 -0.000000
  outer loop
   vertex -1201.323546 -1951.734519 -730.000000
   vertex -1250.000000 -1946.250000 -650.000000
   vertex -1201.323546 -1951.734519 -650.000000
  endloop
 endfacet
 facet normal -0.111964 0.993712 0.000000
  outer loop
   vertex -1250.000000 -1946.250000 -730.000000
   vertex -1298.676454 -1951.734519 -730.000000
   vertex -1298.676454 -1951.734519 -650.000000
  endloop
 endfacet
 facet normal -0.111964 0.993712 0.000000
  outer loop
   vertex -1250.000000 -1946.250000 -730.000000
   vertex -1298.676454 -1951.734519 -650.000000
   vertex -1250.000000 -1946.250000 -650.000000
  endloop
 endfacet
 facet normal -0.330279 0.943883 0.000000
  outer loop
   vertex -1298.676454 -1951.734519 -730.000000
   vertex -1344.912068 -1967.913060 -730.000000
   vertex -1344.912068 -1967.913060 -650.000000
  endloop
 endfacet
 facet normal -0.330279 0.943883 0.000000
  outer loop
   vertex -1298.676454 -1951.734519 -730.000000
   vertex -1344.912068 -1967.913060 -650.000000
   vertex -1298.676454 -1951.734519 -650.000000
  endloop
 endfacet
 facet normal -0.532032 0.846724 0.000000
  outer loop
   vertex -1344.912068 -1967.913060 -730.000000
   vertex -1386.388394 -1993.974363 -730.000000
   vertex -1386.388394 -1993.974363 -650.000000
  endloop
 endfacet
 facet normal -0.532032 0.846724 0.000000
  outer loop
   vertex -1344.912068 -1967.913060 -730.000000
   vertex -1386.388394 -1993.974363 -650.000000
   vertex -1344.912068 -1967.913060 -650.000000
  endloop
 endfacet
 facet normal -0.707107 0.707107 0.000000
  outer loop
   vertex -1386.388394 -1993.974363 -730.000000
   vertex -1421.025637 -2028.611606 -730.000000
   vertex -1421.025637 -2028.611606 -650.000000
  endloop
 endfacet
 facet normal -0.707107 0.707107 0.000000
  outer loop
   vertex -1386.388394 -1993.974363 -730.000000
   vertex -1421.025637 -2028.611606 -650.000000
   vertex -1386.388394 -1993.974363 -650.000000
  endloop
 endfacet
 facet normal -0.846724 0.532032 0.000000
  outer loop
   vertex -1421.025637 -2028.611606 -730.000000
   vertex -1447.086940 -2070.087932 -730.000000
   vertex -1447.086940 -2070.087932 -650.000000
  endloop
 endfacet
 facet normal -0.846724 0.532032 0.000000
  outer loop
   vertex -1421.025637 -2028.611606 -730.000000
   vertex -1447.086940 -2070.087932 -650.000000
   vertex -1421.025637 -2028.611606 -650.000000
  endloop
 endfacet
 facet normal -0.943883 0.330279 0.000000
  outer loop
   vertex -1447.086940 -2070.087932 -730.000000
   vertex -1463.265481 -2116.323546 -730.000000
   vertex -1463.265481 -2116.323546 -650.000000
  endloop
 endfacet
 facet normal -0.943883 0.330279 0.000000
  outer loop
   vertex -1447.086940 -2070.087932 -730.000000
   vertex -1463.265481 -2116.323546 -650.000000
   vertex -1447.086940 -2070.087932 -650.000000
  endloop
 endfacet
 facet normal -0.993712 0.111964 0.000000
  outer loop
   vertex -1463.265481 -2116.323546 -730.000000
   vertex -1468.750000 -2165.000000 -730.000000
   vertex -1468.750000 -2165.000000 -650.000000
  endloop
 endfacet
 facet normal -0.993712 0.111964 0.000000
  outer loop
   vertex -1463.265481 -2116.323546 -730.000000
   vertex -1468.750000 -2165.000000 -650.000000
   vertex -1463.265481 -2116.323546 -650.000000
  endloop
 endfacet
 facet normal -0.993712 -0.111964 0.000000
  outer loop
   vertex -1468.750000 -2165.000000 -730.000000
   vertex -1463.265481 -2213.676454 -730.000000
   vertex -1463.265481 -2213.676454 -650.000000
  endloop
 endfacet
 facet normal -0.993712 -0.111964 0.000000
  outer loop
   vertex -1468.750000 -2165.000000 -730.000000
   vertex -1463.265481 -2213.676454 -650.000000
   vertex -1468.750000 -2165.000000 -650.000000
  endloop
 endfacet
 facet normal -0.943883 -0.330279 0.000000
  outer loop
   vertex -1463.265481 -2213.676454 -730.000000
   vertex -1447.086940 -2259.912068 -730.000000
   vertex -1447.086940 -2259.912068 -650.000000
  endloop
 endfacet
 facet normal -0.943883 -0.330279 0.000000
  outer loop
   vertex -1463.265481 -2213.676454 -730.000000
   vertex -1447.086940 -2259.912068 -650.000000
   vertex -1463.265481 -2213.676454 -650.000000
  endloop
 endfacet
 facet normal -0.846724 -0.532032 0.000000
  outer loop
   vertex -1447.086940 -2259.912068 -730.000000
   vertex -1421.025637 -2301.388394 -730.000000
   vertex -1421.025637 -2301.388394 -650.000000
  endloop
 endfacet
 facet normal -0.846724 -0.532032 0.000000
  outer loop
   vertex -1447.086940 -2259.912068 -730.000000
   vertex -1421.025637 -2301.388394 -650.000000
   vertex -1447.086940 -2259.912068 -650.000000
  endloop
 endfacet
 facet normal -0.707107 -0.707107 0.000000
  outer loop
   vertex -1421.025637 -2301.388394 -730.000000
   vertex -1386.388394 -2336.025637 -730.000000
   vertex -1386.388394 -2336.025637 -650.000000
  endloop
 endfacet
 facet normal -0.707107 -0.707107 0.000000
  outer loop
   vertex -1421.025637 -2301.388394 -730.000000
   vertex -1386.388394 -2336.025637 -650.000000
   vertex -1421.025637 -2301.388394 -650.000000
  endloop
 endfacet
 facet normal -0.532032 -0.846724 0.000000
  outer loop
   vertex -1386.388394 -2336.025637 -730.000000
   vertex -1344.912068 -2362.086940 -730.000000
   vertex -1344.912068 -2362.086940 -650.000000
  endloop
 endfacet
 facet normal -0.532032 -0.846724 0.000000
  outer loop
   vertex -1386.388394 -2336.025637 -730.000000
   vertex -1344.912068 -2362.086940 -650.000000
   vertex -1386.388394 -2336.025637 -650.000000
  endloop
 endfacet
 facet normal -0.330279 -0.943883 0.000000
  outer loop
   vertex -1344.912068 -2362.086940 -730.000000
   vertex -1298.676454 -2378.265481 -730.000000
   vertex -1298.676454 -2378.265481 -650.000000
  endloop
 endfacet
 facet normal -0.330279 -0.943883 0.000000
  outer loop
   vertex -1344.912068 -2362.086940 -730.000000
   vertex -1298.676454 -2378.265481 -650.000000
   vertex -1344.912068 -2362.086940 -650.000000
  endloop
 endfacet
 facet normal -0.111964 -0.993712 0.000000
  outer loop
   vertex -1298.676454 -2378.265481 -730.000000
   vertex -1250.000000 -2383.750000 -730.000000
   vertex -1250.000000 -2383.750000 -650.000000
  endloop
 endfacet
 facet normal -0.111964 -0.993712 0.000000
  outer loop
   vertex -1298.676454 -2378.265481 -730.000000
   vertex -1250.000000 -2383.750000 -650.000000
   vertex -1298.676454 -2378.265481 -650.000000
  endloop
 endfacet
 facet normal 0.111964 -0.993712 0.000000
  outer loop
   vertex -1250.000000 -2383.750000 -730.000000
   vertex -1201.323546 -2378.265481 -730.000000
   vertex -1201.323546 -2378.265481 -650.000000
  endloop
 endfacet
 facet normal 0.111964 -0.993712 0.000000
  outer loop
   vertex -1250.000000 -2383.750000 -730.000000
   vertex -1201.323546 -2378.265481 -650.000000
   vertex -1250.000000 -2383.750000 -650.000000
  endloop
 endfacet
 facet normal 0.330279 -0.943883 0.000000
  outer loop
   vertex -1201.323546 -2378.265481 -730.000000
   vertex -1155.087932 -2362.086940 -730.000000
   vertex -1155.087932 -2362.086940 -650.000000
  endloop
 endfacet
 facet normal 0.330279 -0.943883 0.000000
  outer loop
   vertex -1201.323546 -2378.265481 -730.000000
   vertex -1155.087932 -2362.086940 -650.000000
   vertex -1201.323546 -2378.265481 -650.000000
  endloop
 endfacet
 facet normal 0.532032 -0.846724 0.000000
  outer loop
   vertex -1155.087932 -2362.086940 -730.000000
   vertex -1113.611606 -2336.025637 -730.000000
   vertex -1113.611606 -2336.025637 -650.000000
  endloop
 endfacet
 facet normal 0.532032 -0.846724 0.000000
  outer loop
   vertex -1155.087932 -2362.086940 -730.000000
   vertex -1113.611606 -2336.025637 -650.000000
   vertex -1155.087932 -2362.086940 -650.000000
  endloop
 endfacet
 facet normal 0.707107 -0.707107 0.000000
  outer loop
   vertex -1113.611606 -2336.025637 -730.000000
   vertex -1078.974363 -2301.388394 -730.000000
   vertex -1078.974363 -2301.388394 -650.000000
  endloop
 endfacet
 facet normal 0.707107 -0.707107 0.000000
  outer loop
   vertex -1113.611606 -2336.025637 -730.000000
   vertex -1078.974363 -2301.388394 -650.000000
   vertex -1113.611606 -2336.025637 -650.000000
  endloop
 endfacet
 facet normal 0.846724 -0.532032 0.000000
  outer loop
   vertex -1078.974363 -2301.388394 -730.000000
   vertex -1052.913060 -2259.912068 -730.000000
   vertex -1052.913060 -2259.912068 -650.000000
  endloop
 endfacet
 facet normal 0.846724 -0.532032 0.000000
  outer loop
   vertex -1078.974363 -2301.388394 -730.000000
   vertex -1052.913060 -2259.912068 -650.000000
   vertex -1078.974363 -2301.388394 -650.000000
  endloop
 endfacet
 facet normal 0.943883 -0.330279 0.000000
  outer loop
   vertex -1052.913060 -2259.912068 -730.000000
   vertex -1036.734519 -2213.676454 -730.000000
   vertex -1036.734519 -2213.676454 -650.000000
  endloop
 endfacet
 facet normal 0.943883 -0.330279 0.000000
  outer loop
   vertex -1052.913060 -2259.912068 -730.000000
   vertex -1036.734519 -2213.676454 -650.000000
   vertex -1052.913060 -2259.912068 -650.000000
  endloop
 endfacet
 facet normal 0.993712 -0.111964 0.000000
  outer loop
   vertex -1036.734519 -2213.676454 -730.000000
   vertex -1031.250000 -2165.000000 -730.000000
   vertex -1031.250000 -2165.000000 -650.000000
  endloop
 endfacet
 facet normal 0.993712 -0.111964 0.000000
  outer loop
   vertex -1036.734519 -2213.676454 -730.000000
   vertex -1031.250000 -2165.000000 -650.000000
   vertex -1036.734519 -2213.676454 -650.000000
  endloop
 endfacet
 facet normal 0.000000 0.000000 -1.000000
  outer loop
   vertex -1250.000000 -2165.000000 -730.000000
   vertex -1036.734519 -2116.323546 -730.000000
   vertex -1031.250000 -2165.000000 -730.000000
  endloop
 endfacet
 facet normal 0.000000 0.000000 1.000000
  outer loop
   vertex -1250.000000 -2165.000000 -650.000000
   vertex -1031.250000 -2165.000000 -650.000000
   vertex -1036.734519 -2116.323546 -650.000000
  endloop
 endfacet
 facet normal 0.000000 0.000000 -1.000000
  outer loop
   vertex -1250.000000 -2165.000000 -730.000000
   vertex -1052.913060 -2070.087932 -730.000000
   vertex -1036.734519 -2116.323546 -730.000000
  endloop
 endfacet
 facet normal 0.000000 0.000000 1.000000
  outer loop
   vertex -1250.000000 -2165.000000 -650.000000
   vertex -1036.734519 -2116.323546 -650.000000
   vertex -1052.913060 -2070.087932 -650.000000
  endloop
 endfacet
 facet normal 0.000000 0.000000 -1.000000
  outer loop
   vertex -1250.000000 -2165.000000 -730.000000
   vertex -1078.974363 -2028.611606 -730.000000
   vertex -1052.913060 -2070.087932 -730.000000
  endloop
 endfacet
 facet normal 0.000000 0.000000 1.000000
  outer loop
   vertex -1250.000000 -2165.000000 -650.000000
   vertex -1052.913060 -2070.087932 -650.000000
   vertex -1078.974363 -2028.611606 -650.000000
  endloop
 endfacet
 facet normal 0.000000 0.000000 -1.000000
  outer loop
   vertex -1250.000000 -2165.000000 -730.000000
   vertex -1113.611606 -1993.974363 -730.000000
   vertex -1078.974363 -2028.611606 -730.000000
  endloop
 endfacet
 facet normal 0.000000 0.000000 1.000000
  outer loop
   vertex -1250.000000 -2165.000000 -650.000000
   vertex -1078.974363 -2028.611606 -650.000000
   vertex -1113.611606 -1993.974363 -650.000000
  endloop
 endfacet
 facet normal 0.000000 0.000000 -1.000000
  outer loop
   vertex -1250.000000 -2165.000000 -730.000000
   vertex -1155.087932 -1967.913060 -730.000000
   vertex -1113.611606 -1993.974363 -730.000000
  endloop
 endfacet
 facet normal 0.000000 0.000000 1.000000
  outer loop
   vertex -1250.000000 -2165.000000 -650.000000
   vertex -1113.611606 -1993.974363 -650.000000
   vertex -1155.087932 -1967.913060 -650.000000
  endloop
 endfacet
 facet normal 0.000000 0.000000 -1.000000
  outer loop
   vertex -1250.000000 -2165.000000 -730.000000
   vertex -1201.323546 -1951.734519 -730.000000
   vertex -1155.087932 -1967.913060 -730.000000
  endloop
 endfacet
 facet normal 0.000000 0.000000 1.000000
  outer loop
   vertex -1250.000000 -2165.000000 -650.000000
   vertex -1155.087932 -1967.913060 -650.000000
   vertex -1201.323546 -1951.734519 -650.000000
  endloop
 endfacet
 facet normal 0.000000 0.000000 -1.000000
  outer loop
   vertex -1250.000000 -2165.000000 -730.000000
   vertex -1250.000000 -1946.250000 -730.000000
   vertex -1201.323546 -1951.734519 -730.000000
  endloop
 endfacet
 facet normal 0.000000 0.000000 1.000000
  outer loop
   vertex -1250.000000 -2165.000000 -650.000000
   vertex -1201.323546 -1951.734519 -650.000000
   vertex -1250.000000 -1946.250000 -650.000000
  endloop
 endfacet
 facet normal 0.000000 0.000000 -1.000000
  outer loop
   vertex -1250.000000 -2165.000000 -730.000000
   vertex -1298.676454 -1951.734519 -730.000000
   vertex -1250.000000 -1946.250000 -730.000000
  endloop
 endfacet
 facet normal 0.000000 -0.000000 1.000000
  outer loop
   vertex -1250.000000 -2165.000000 -650.000000
   vertex -1250.000000 -1946.250000 -650.000000
   vertex -1298.676454 -1951.734519 -650.000000
  endloop
 endfacet
 facet normal 0.000000 0.000000 -1.000000
  outer loop
   vertex -1250.000000 -2165.000000 -730.000000
   vertex -1344.912068 -1967.913060 -730.000000
   vertex -1298.676454 -1951.734519 -730.000000
  endloop
 endfacet
 facet normal 0.000000 0.000000 1.000000
  outer loop
   vertex -1250.000000 -2165.000000 -650.000000
   vertex -1298.676454 -1951.734519 -650.000000
   vertex -1344.912068 -1967.913060 -650.000000
  endloop
 endfacet
 facet normal 0.000000 0.000000 -1.000000
  outer loop
   vertex -1250.000000 -2165.000000 -730.000000
   vertex -1386.388394 -1993.974363 -730.000000
   vertex -1344.912068 -1967.913060 -730.000000
  endloop
 endfacet
 facet normal 0.000000 0.000000 1.000000
  outer loop
   vertex -1250.000000 -2165.000000 -650.000000
   vertex -1344.912068 -1967.913060 -650.000000
   vertex -1386.388394 -1993.974363 -650.000000
  endloop
 endfacet
 facet normal 0.000000 0.000000 -1.000000
  outer loop
   vertex -1250.000000 -2165.000000 -730.000000
   vertex -1421.025637 -2028.611606 -730.000000
   vertex -1386.388394 -1993.974363 -730.000000
  endloop
 endfacet
 facet normal 0.000000 0.000000 1.000000
  outer loop
   vertex -1250.000000 -2165.000000 -650.000000
   vertex -1386.388394 -1993.974363 -650.000000
   vertex -1421.025637 -2028.611606 -650.000000
  endloop
 endfacet
 facet normal 0.000000 0.000000 -1.000000
  outer loop
   vertex -1250.000000 -2165.000000 -730.000000
   vertex -1447.086940 -2070.087932 -730.000000
   vertex -1421.025637 -2028.611606 -730.000000
  endloop
 endfacet
 facet normal 0.000000 0.000000 1.000000
  outer loop
   vertex -1250.000000 -2165.000000 -650.000000
   vertex -1421.025637 -2028.611606 -650.000000
   vertex -1447.086940 -2070.087932 -650.000000
  endloop
 endfacet
 facet normal 0.000000 0.000000 -1.000000
  outer loop
   vertex -1250.000000 -2165.000000 -730.000000
   vertex -1463.265481 -2116.323546 -730.000000
   vertex -1447.086940 -2070.087932 -730.000000
  endloop
 endfacet
 facet normal 0.000000 0.000000 1.000000
  outer loop
   vertex -1250.000000 -2165.000000 -650.000000
   vertex -1447.086940 -2070.087932 -650.000000
   vertex -1463.265481 -2116.323546 -650.000000
  endloop
 endfacet
 facet normal 0.000000 0.000000 -1.000000
  outer loop
   vertex -1250.000000 -2165.000000 -730.000000
   vertex -1468.750000 -2165.000000 -730.000000
   vertex -1463.265481 -2116.323546 -730.000000
  endloop
 endfacet
 facet normal 0.000000 0.000000 1.000000
  outer loop
   vertex -1250.000000 -2165.000000 -650.000000
   vertex -1463.265481 -2116.323546 -650.000000
   vertex -1468.750000 -2165.000000 -650.000000
  endloop
 endfacet
 facet normal -0.000000 0.000000 -1.000000
  outer loop
   vertex -1250.000000 -2165.000000 -730.000000
   vertex -1463.265481 -2213.676454 -730.000000
   vertex -1468.750000 -2165.000000 -730.000000
  endloop
 endfacet
 facet normal 0.000000 0.000000 1.000000
  outer loop
   vertex -1250.000000 -2165.000000 -650.000000
   vertex -1468.750000 -2165.000000 -650.000000
   vertex -1463.265481 -2213.676454 -650.000000
  endloop
 endfacet
 facet normal 0.000000 0.000000 -1.000000
  outer loop
   vertex -1250.000000 -2165.000000 -730.000000
   vertex -1447.086940 -2259.912068 -730.000000
   vertex -1463.265481 -2213.676454 -730.000000
  endloop
 endfacet
 facet normal 0.000000 0.000000 1.000000
  outer loop
   vertex -1250.000000 -2165.000000 -650.000000
   vertex -1463.265481 -2213.676454 -650.000000
   vertex -1447.086940 -2259.912068 -650.000000
  endloop
 endfacet
 facet normal 0.000000 0.000000 -1.000000
  outer loop
   vertex -1250.000000 -2165.000000 -730.000000
   vertex -1421.025637 -2301.388394 -730.000000
   vertex -1447.086940 -2259.912068 -730.000000
  endloop
 endfacet
 facet normal 0.000000 0.000000 1.000000
  outer loop
   vertex -1250.000000 -2165.000000 -650.000000
   vertex -1447.086940 -2259.912068 -650.000000
   vertex -1421.025637 -2301.388394 -650.000000
  endloop
 endfacet
 facet normal 0.000000 0.000000 -1.000000
  outer loop
   vertex -1250.000000 -2165.000000 -730.000000
   vertex -1386.388394 -2336.025637 -730.000000
   vertex -1421.025637 -2301.388394 -730.000000
  endloop
 endfacet
 facet normal 0.000000 0.000000 1.000000
  outer loop
   vertex -1250.000000 -2165.000000 -650.000000
   vertex -1421.025637 -2301.388394 -650.000000
   vertex -1386.388394 -2336.025637 -650.000000
  endloop
 endfacet
 facet normal 0.000000 0.000000 -1.000000
  outer loop
   vertex -1250.000000 -2165.000000 -730.000000
   vertex -1344.912068 -2362.086940 -730.000000
   vertex -1386.388394 -2336.025637 -730.000000
  endloop
 endfacet
 facet normal 0.000000 0.000000 1.000000
  outer loop
   vertex -1250.000000 -2165.000000 -650.000000
   vertex -1386.388394 -2336.025637 -650.000000
   vertex -1344.912068 -2362.086940 -650.000000
  endloop
 endfacet
 facet normal 0.000000 0.000000 -1.000000
  outer loop
   vertex -1250.000000 -2165.000000 -730.000000
   vertex -1298.676454 -2378.265481 -730.000000
   vertex -1344.912068 -2362.086940 -730.000000
  endloop
 endfacet
 facet normal 0.000000 0.000000 1.000000
  outer loop
   vertex -1250.000000 -2165.000000 -650.000000
   vertex -1344.912068 -2362.086940 -650.000000
   vertex -1298.676454 -2378.265481 -650.000000
  endloop
 endfacet
 facet normal 0.000000 -0.000000 -1.000000
  outer loop
   vertex -1250.000000 -2165.000000 -730.000000
   vertex -1250.000000 -2383.750000 -730.000000
   vertex -1298.676454 -2378.265481 -730.000000
  endloop
 endfacet
 facet normal 0.000000 0.000000 1.000000
  outer loop
   vertex -1250.000000 -2165.000000 -650.000000
   vertex -1298.676454 -2378.265481 -650.000000
   vertex -1250.000000 -2383.750000 -650.000000
  endloop
 endfacet
 facet normal 0.000000 0.000000 -1.000000
  outer loop
   vertex -1250.000000 -2165.000000 -730.000000
   vertex -1201.323546 -2378.265481 -730.000000
   vertex -1250.000000 -2383.750000 -730.000000
  endloop
 endfacet
 facet normal 0.000000 0.000000 1.000000
  outer loop
   vertex -1250.000000 -2165.000000 -650.000000
   vertex -1250.000000 -2383.750000 -650.000000
   vertex -1201.323546 -2378.265481 -650.000000
  endloop
 endfacet
 facet normal 0.000000 0.000000 -1.000000
  outer loop
   vertex -1250.000000 -2165.000000 -730.000000
   vertex -1155.087932 -2362.086940 -730.000000
   vertex -1201.323546 -2378.265481 -730.000000
  endloop
 endfacet
 facet normal 0.000000 0.000000 1.000000
  outer loop
   vertex -1250.000000 -2165.000000 -650.000000
   vertex -1201.323546 -2378.265481 -650.000000
   vertex -1155.087932 -2362.086940 -650.000000
  endloop
 endfacet
 facet normal 0.000000 0.000000 -1.000000
  outer loop
   vertex -1250.000000 -2165.000000 -730.000000
   vertex -1113.611606 -2336.025637 -730.000000
   vertex -1155.087932 -2362.086940 -730.000000
  endloop
 endfacet
 facet normal 0.000000 0.000000 1.000000
  outer loop
   vertex -1250.000000 -2165.000000 -650.000000
   vertex -1155.087932 -2362.086940 -650.000000
   vertex -1113.611606 -2336.025637 -650.000000
  endloop
 endfacet
 facet normal 0.000000 0.000000 -1.000000
  outer loop
   vertex -1250.000000 -2165.000000 -730.000000
   vertex -1078.974363 -2301.388394 -730.000000
   vertex -1113.611606 -2336.025637 -730.000000
  endloop
 endfacet
 facet normal 0.000000 0.000000 1.000000
  outer loop
   vertex -1250.000000 -2165.000000 -650.000000
   vertex -1113.611606 -2336.025637 -650.000000
   vertex -1078.974363 -2301.388394 -650.000000
  endloop
 endfacet
 facet normal 0.000000 0.000000 -1.000000
  outer loop
   vertex -1250.000000 -2165.000000 -730.000000
   vertex -1052.913060 -2259.912068 -730.000000
   vertex -1078.974363 -2301.388394 -730.000000
  endloop
 endfacet
 facet normal 0.000000 0.000000 1.000000
  outer loop
   vertex -1250.000000 -2165.000000 -650.000000
   vertex -1078.974363 -2301.388394 -650.000000
   vertex -1052.913060 -2259.912068 -650.000000
  endloop
 endfacet
 facet normal 0.000000 0.000000 -1.000000
  outer loop
   vertex -1250.000000 -2165.000000 -730.000000
   vertex -1036.734519 -2213.676454 -730.000000
   vertex -1052.913060 -2259.912068 -730.000000
  endloop
 endfacet
 facet normal 0.000000 0.000000 1.000000
  outer loop
   vertex -1250.000000 -2165.000000 -650.000000
   vertex -1052.913060 -2259.912068 -650.000000
   vertex -1036.734519 -2213.676454 -650.000000
  endloop
 endfacet
 facet normal 0.000000 0.000000 -1.000000
  outer loop
   vertex -1250.000000 -2165.000000 -730.000000
   vertex -1031.250000 -2165.000000 -730.000000
   vertex -1036.734519 -2213.676454 -730.000000
  endloop
 endfacet
 facet normal -0.000000 0.000000 1.000000
  outer loop
   vertex -1250.000000 -2165.000000 -650.000000
   vertex -1036.734519 -2213.676454 -650.000000
   vertex -1031.250000 -2165.000000 -650.000000
  endloop
 endfacet
endsolid LOX_VALVE
