solid J2_chamber_2
 facet normal 0.985545 0.032263 -0.166311
  outer loop
   vertex 472.500000 0.000000 -600.000000
   vertex 471.488341 30.902979 -600.000000
   vertex 606.199296 39.732401 200.000000
  endloop
 endfacet
 facet normal 0.985545 0.032263 -0.166311
  outer loop
   vertex 472.500000 0.000000 -600.000000
   vertex 606.199296 39.732401 200.000000
   vertex 607.500000 0.000000 200.000000
  endloop
 endfacet
 facet normal 0.981325 0.096652 -0.166311
  outer loop
   vertex 471.488341 30.902979 -600.000000
   vertex 468.457697 61.673626 -600.000000
   vertex 602.302753 79.294662 200.000000
  endloop
 endfacet
 facet normal 0.981325 0.096652 -0.166311
  outer loop
   vertex 471.488341 30.902979 -600.000000
   vertex 602.302753 79.294662 200.000000
   vertex 606.199296 39.732401 200.000000
  endloop
 endfacet
 facet normal 0.972903 0.160627 -0.166311
  outer loop
   vertex 468.457697 61.673626 -600.000000
   vertex 463.421045 92.180177 -600.000000
   vertex 595.827058 118.517371 200.000000
  endloop
 endfacet
 facet normal 0.972903 0.160627 -0.166311
  outer loop
   vertex 468.457697 61.673626 -600.000000
   vertex 595.827058 118.517371 200.000000
   vertex 602.302753 79.294662 200.000000
  endloop
 endfacet
 facet normal 0.960314 0.223914 -0.166311
  outer loop
   vertex 463.421045 92.180177 -600.000000
   vertex 456.399953 122.291999 -600.000000
   vertex 586.799939 157.232570 200.000000
  endloop
 endfacet
 facet normal 0.960314 0.223914 -0.166311
  outer loop
   vertex 463.421045 92.180177 -600.000000
   vertex 586.799939 157.232570 200.000000
   vertex 595.827058 118.517371 200.000000
  endloop
 endfacet
 facet normal 0.943613 0.286242 -0.166311
  outer loop
   vertex 456.399953 122.291999 -600.000000
   vertex 447.424486 151.880147 -600.000000
   vertex 575.260054 195.274475 200.000000
  endloop
 endfacet
 facet normal 0.943613 0.286242 -0.166311
  outer loop
   vertex 456.399953 122.291999 -600.000000
   vertex 575.260054 195.274475 200.000000
   vertex 586.799939 157.232570 200.000000
  endloop
 endfacet
 facet normal 0.922872 0.347344 -0.166311
  outer loop
   vertex 447.424486 151.880147 -600.000000
   vertex 436.533079 180.817922 -600.000000
   vertex 561.256816 232.480185 200.000000
  endloop
 endfacet
 facet normal 0.922872 0.347344 -0.166311
  outer loop
   vertex 447.424486 151.880147 -600.000000
   vertex 561.256816 232.480185 200.000000
   vertex 575.260054 195.274475 200.000000
  endloop
 endfacet
 facet normal 0.898179 0.406959 -0.166311
  outer loop
   vertex 436.533079 180.817922 -600.000000
   vertex 423.772370 208.981406 -600.000000
   vertex 544.850190 268.690379 200.000000
  endloop
 endfacet
 facet normal 0.898179 0.406959 -0.166311
  outer loop
   vertex 436.533079 180.817922 -600.000000
   vertex 544.850190 268.690379 200.000000
   vertex 561.256816 232.480185 200.000000
  endloop
 endfacet
 facet normal 0.869639 0.464832 -0.166311
  outer loop
   vertex 423.772370 208.981406 -600.000000
   vertex 409.197003 236.250000 -600.000000
   vertex 526.110433 303.750000 200.000000
  endloop
 endfacet
 facet normal 0.869639 0.464832 -0.166311
  outer loop
   vertex 423.772370 208.981406 -600.000000
   vertex 526.110433 303.750000 200.000000
   vertex 544.850190 268.690379 200.000000
  endloop
 endfacet
 facet normal 0.837376 0.520714 -0.166311
  outer loop
   vertex 409.197003 236.250000 -600.000000
   vertex 392.869392 262.506935 -600.000000
   vertex 505.117789 337.508917 200.000000
  endloop
 endfacet
 facet normal 0.837376 0.520714 -0.166311
  outer loop
   vertex 409.197003 236.250000 -600.000000
   vertex 505.117789 337.508917 200.000000
   vertex 526.110433 303.750000 200.000000
  endloop
 endfacet
 facet normal 0.801526 0.574366 -0.166311
  outer loop
   vertex 392.869392 262.506935 -600.000000
   vertex 374.859453 287.639775 -600.000000
   vertex 481.962154 369.822568 200.000000
  endloop
 endfacet
 facet normal 0.801526 0.574366 -0.166311
  outer loop
   vertex 392.869392 262.506935 -600.000000
   vertex 481.962154 369.822568 200.000000
   vertex 505.117789 337.508917 200.000000
  endloop
 endfacet
 facet normal 0.762245 0.625558 -0.166311
  outer loop
   vertex 374.859453 287.639775 -600.000000
   vertex 355.244309 311.540898 -600.000000
   vertex 456.742683 400.552583 200.000000
  endloop
 endfacet
 facet normal 0.762245 0.625558 -0.166311
  outer loop
   vertex 374.859453 287.639775 -600.000000
   vertex 456.742683 400.552583 200.000000
   vertex 481.962154 369.822568 200.000000
  endloop
 endfacet
 facet normal 0.719700 0.674072 -0.166311
  outer loop
   vertex 355.244309 311.540898 -600.000000
   vertex 334.107954 334.107954 -600.000000
   vertex 429.567370 429.567370 200.000000
  endloop
 endfacet
 facet normal 0.719700 0.674072 -0.166311
  outer loop
   vertex 355.244309 311.540898 -600.000000
   vertex 429.567370 429.567370 200.000000
   vertex 456.742683 400.552583 200.000000
  endloop
 endfacet
 facet normal 0.674072 0.719700 -0.166311
  outer loop
   vertex 334.107954 334.107954 -600.000000
   vertex 311.540898 355.244309 -600.000000
   vertex 400.552583 456.742683 200.000000
  endloop
 endfacet
 facet normal 0.674072 0.719700 -0.166311
  outer loop
   vertex 334.107954 334.107954 -600.000000
   vertex 400.552583 456.742683 200.000000
   vertex 429.567370 429.567370 200.000000
  endloop
 endfacet
 facet normal 0.625558 0.762245 -0.166311
  outer loop
   vertex 311.540898 355.244309 -600.000000
   vertex 287.639775 374.859453 -600.000000
   vertex 369.822568 481.962154 200.000000
  endloop
 endfacet
 facet normal 0.625558 0.762245 -0.166311
  outer loop
   vertex 311.540898 355.244309 -600.000000
   vertex 369.822568 481.962154 200.000000
   vertex 400.552583 456.742683 200.000000
  endloop
 endfacet
 facet normal 0.574366 0.801526 -0.166311
  outer loop
   vertex 287.639775 374.859453 -600.000000
   vertex 262.506935 392.869392 -600.000000
   vertex 337.508917 505.117789 200.000000
  endloop
 endfacet
 facet normal 0.574366 0.801526 -0.166311
  outer loop
   vertex 287.639775 374.859453 -600.000000
   vertex 337.508917 505.117789 200.000000
   vertex 369.822568 481.962154 200.000000
  endloop
 endfacet
 facet normal 0.520714 0.837376 -0.166311
  outer loop
   vertex 262.506935 392.869392 -600.000000
   vertex 236.250000 409.197003 -600.000000
   vertex 303.750000 526.110433 200.000000
  endloop
 endfacet
 facet normal 0.520714 0.837376 -0.166311
  outer loop
   vertex 262.506935 392.869392 -600.000000
   vertex 303.750000 526.110433 200.000000
   vertex 337.508917 505.117789 200.000000
  endloop
 endfacet
 facet normal 0.464832 0.869639 -0.166311
  outer loop
   vertex 236.250000 409.197003 -600.000000
   vertex 208.981406 423.772370 -600.000000
   vertex 268.690379 544.850190 200.000000
  endloop
 endfacet
 facet normal 0.464832 0.869639 -0.166311
  outer loop
   vertex 236.250000 409.197003 -600.000000
   vertex 268.690379 544.850190 200.000000
   vertex 303.750000 526.110433 200.000000
  endloop
 endfacet
 facet normal 0.406959 0.898179 -0.166311
  outer loop
   vertex 208.981406 423.772370 -600.000000
   vertex 180.817922 436.533079 -600.000000
   vertex 232.480185 561.256816 200.000000
  endloop
 endfacet
 facet normal 0.406959 0.898179 -0.166311
  outer loop
   vertex 208.981406 423.772370 -600.000000
   vertex 232.480185 561.256816 200.000000
   vertex 268.690379 544.850190 200.000000
  endloop
 endfacet
 facet normal 0.347344 0.922872 -0.166311
  outer loop
   vertex 180.817922 436.533079 -600.000000
   vertex 151.880147 447.424486 -600.000000
   vertex 195.274475 575.260054 200.000000
  endloop
 endfacet
 facet normal 0.347344 0.922872 -0.166311
  outer loop
   vertex 180.817922 436.533079 -600.000000
   vertex 195.274475 575.260054 200.000000
   vertex 232.480185 561.256816 200.000000
  endloop
 endfacet
 facet normal 0.286242 0.943613 -0.166311
  outer loop
   vertex 151.880147 447.424486 -600.000000
   vertex 122.291999 456.399953 -600.000000
   vertex 157.232570 586.799939 200.000000
  endloop
 endfacet
 facet normal 0.286242 0.943613 -0.166311
  outer loop
   vertex 151.880147 447.424486 -600.000000
   vertex 157.232570 586.799939 200.000000
   vertex 195.274475 575.260054 200.000000
  endloop
 endfacet
 facet normal 0.223914 0.960314 -0.166311
  outer loop
   vertex 122.291999 456.399953 -600.000000
   vertex 92.180177 463.421045 -600.000000
   vertex 118.517371 595.827058 200.000000
  endloop
 endfacet
 facet normal 0.223914 0.960314 -0.166311
  outer loop
   vertex 122.291999 456.399953 -600.000000
   vertex 118.517371 595.827058 200.000000
   vertex 157.232570 586.799939 200.000000
  endloop
 endfacet
 facet normal 0.160627 0.972903 -0.166311
  outer loop
   vertex 92.180177 463.421045 -600.000000
   vertex 61.673626 468.457697 -600.000000
   vertex 79.294662 602.302753 200.000000
  endloop
 endfacet
 facet normal 0.160627 0.972903 -0.166311
  outer loop
   vertex 92.180177 463.421045 -600.000000
   vertex 79.294662 602.302753 200.000000
   vertex 118.517371 595.827058 200.000000
  endloop
 endfacet
 facet normal 0.096652 0.981325 -0.166311
  outer loop
   vertex 61.673626 468.457697 -600.000000
   vertex 30.902979 471.488341 -600.000000
   vertex 39.732401 606.199296 200.000000
  endloop
 endfacet
 facet normal 0.096652 0.981325 -0.166311
  outer loop
   vertex 61.673626 468.457697 -600.000000
   vertex 39.732401 606.199296 200.000000
   vertex 79.294662 602.302753 200.000000
  endloop
 endfacet
 facet normal 0.032263 0.985545 -0.166311
  outer loop
   vertex 30.902979 471.488341 -600.000000
   vertex 0.000000 472.500000 -600.000000
   vertex 0.000000 607.500000 200.000000
  endloop
 endfacet
 facet normal 0.032263 0.985545 -0.166311
  outer loop
   vertex 30.902979 471.488341 -600.000000
   vertex 0.000000 607.500000 200.000000
   vertex 39.732401 606.199296 200.000000
  endloop
 endfacet
 facet normal -0.032263 0.985545 -0.166311
  outer loop
   vertex 0.000000 472.500000 -600.000000
   vertex -30.902979 471.488341 -600.000000
   vertex -39.732401 606.199296 200.000000
  endloop
 endfacet
 facet normal -0.032263 0.985545 -0.166311
  outer loop
   vertex 0.000000 472.500000 -600.000000
   vertex -39.732401 606.199296 200.000000
   vertex 0.000000 607.500000 200.000000
  endloop
 endfacet
 facet normal -0.096652 0.981325 -0.166311
  outer loop
   vertex -30.902979 471.488341 -600.000000
   vertex -61.673626 468.457697 -600.000000
   vertex -79.294662 602.302753 200.000000
  endloop
 endfacet
 facet normal -0.096652 0.981325 -0.166311
  outer loop
   vertex -30.902979 471.488341 -600.000000
   vertex -79.294662 602.302753 200.000000
   vertex -39.732401 606.199296 200.000000
  endloop
 endfacet
 facet normal -0.160627 0.972903 -0.166311
  outer loop
   vertex -61.673626 468.457697 -600.000000
   vertex -92.180177 463.421045 -600.000000
   vertex -118.517371 595.827058 200.000000
  endloop
 endfacet
 facet normal -0.160627 0.972903 -0.166311
  outer loop
   vertex -61.673626 468.457697 -600.000000
   vertex -118.517371 595.827058 200.000000
   vertex -79.294662 602.302753 200.000000
  endloop
 endfacet
 facet normal -0.223914 0.960314 -0.166311
  outer loop
   vertex -92.180177 463.421045 -600.000000
   vertex -122.291999 456.399953 -600.000000
   vertex -157.232570 586.799939 200.000000
  endloop
 endfacet
 facet normal -0.223914 0.960314 -0.166311
  outer loop
   vertex -92.180177 463.421045 -600.000000
   vertex -157.232570 586.799939 200.000000
   vertex -118.517371 595.827058 200.000000
  endloop
 endfacet
 facet normal -0.286242 0.943613 -0.166311
  outer loop
   vertex -122.291999 456.399953 -600.000000
   vertex -151.880147 447.424486 -600.000000
   vertex -195.274475 575.260054 200.000000
  endloop
 endfacet
 facet normal -0.286242 0.943613 -0.166311
  outer loop
   vertex -122.291999 456.399953 -600.000000
   vertex -195.274475 575.260054 200.000000
   vertex -157.232570 586.799939 200.000000
  endloop
 endfacet
 facet normal -0.347344 0.922872 -0.166311
  outer loop
   vertex -151.880147 447.424486 -600.000000
   vertex -180.817922 436.533079 -600.000000
   vertex -232.480185 561.256816 200.000000
  endloop
 endfacet
 facet normal -0.347344 0.922872 -0.166311
  outer loop
   vertex -151.880147 447.424486 -600.000000
   vertex -232.480185 561.256816 200.000000
   vertex -195.274475 575.260054 200.000000
  endloop
 endfacet
 facet normal -0.406959 0.898179 -0.166311
  outer loop
   vertex -180.817922 436.533079 -600.000000
   vertex -208.981406 423.772370 -600.000000
   vertex -268.690379 544.850190 200.000000
  endloop
 endfacet
 facet normal -0.406959 0.898179 -0.166311
  outer loop
   vertex -180.817922 436.533079 -600.000000
   vertex -268.690379 544.850190 200.000000
   vertex -232.480185 561.256816 200.000000
  endloop
 endfacet
 facet normal -0.464832 0.869639 -0.166311
  outer loop
   vertex -208.981406 423.772370 -600.000000
   vertex -236.250000 409.197003 -600.000000
   vertex -303.750000 526.110433 200.000000
  endloop
 endfacet
 facet normal -0.464832 0.869639 -0.166311
  outer loop
   vertex -208.981406 423.772370 -600.000000
   vertex -303.750000 526.110433 200.000000
   vertex -268.690379 544.850190 200.000000
  endloop
 endfacet
 facet normal -0.520714 0.837376 -0.166311
  outer loop
   vertex -236.250000 409.197003 -600.000000
   vertex -262.506935 392.869392 -600.000000
   vertex -337.508917 505.117789 200.000000
  endloop
 endfacet
 facet normal -0.520714 0.837376 -0.166311
  outer loop
   vertex -236.250000 409.197003 -600.000000
   vertex -337.508917 505.117789 200.000000
   vertex -303.750000 526.110433 200.000000
  endloop
 endfacet
 facet normal -0.574366 0.801526 -0.166311
  outer loop
   vertex -262.506935 392.869392 -600.000000
   vertex -287.639775 374.859453 -600.000000
   vertex -369.822568 481.962154 200.000000
  endloop
 endfacet
 facet normal -0.574366 0.801526 -0.166311
  outer loop
   vertex -262.506935 392.869392 -600.000000
   vertex -369.822568 481.962154 200.000000
   vertex -337.508917 505.117789 200.000000
  endloop
 endfacet
 facet normal -0.625558 0.762245 -0.166311
  outer loop
   vertex -287.639775 374.859453 -600.000000
   vertex -311.540898 355.244309 -600.000000
   vertex -400.552583 456.742683 200.000000
  endloop
 endfacet
 facet normal -0.625558 0.762245 -0.166311
  outer loop
   vertex -287.639775 374.859453 -600.000000
   vertex -400.552583 456.742683 200.000000
   vertex -369.822568 481.962154 200.000000
  endloop
 endfacet
 facet normal -0.674072 0.719700 -0.166311
  outer loop
   vertex -311.540898 355.244309 -600.000000
   vertex -334.107954 334.107954 -600.000000
   vertex -429.567370 429.567370 200.000000
  endloop
 endfacet
 facet normal -0.674072 0.719700 -0.166311
  outer loop
   vertex -311.540898 355.244309 -600.000000
   vertex -429.567370 429.567370 200.000000
   vertex -400.552583 456.742683 200.000000
  endloop
 endfacet
 facet normal -0.719700 0.674072 -0.166311
  outer loop
   vertex -334.107954 334.107954 -600.000000
   vertex -355.244309 311.540898 -600.000000
   vertex -456.742683 400.552583 200.000000
  endloop
 endfacet
 facet normal -0.719700 0.674072 -0.166311
  outer loop
   vertex -334.107954 334.107954 -600.000000
   vertex -456.742683 400.552583 200.000000
   vertex -429.567370 429.567370 200.000000
  endloop
 endfacet
 facet normal -0.762245 0.625558 -0.166311
  outer loop
   vertex -355.244309 311.540898 -600.000000
   vertex -374.859453 287.639775 -600.000000
   vertex -481.962154 369.822568 200.000000
  endloop
 endfacet
 facet normal -0.762245 0.625558 -0.166311
  outer loop
   vertex -355.244309 311.540898 -600.000000
   vertex -481.962154 369.822568 200.000000
   vertex -456.742683 400.552583 200.000000
  endloop
 endfacet
 facet normal -0.801526 0.574366 -0.166311
  outer loop
   vertex -374.859453 287.639775 -600.000000
   vertex -392.869392 262.506935 -600.000000
   vertex -505.117789 337.508917 200.000000
  endloop
 endfacet
 facet normal -0.801526 0.574366 -0.166311
  outer loop
   vertex -374.859453 287.639775 -600.000000
   vertex -505.117789 337.508917 200.000000
   vertex -481.962154 369.822568 200.000000
  endloop
 endfacet
 facet normal -0.837376 0.520714 -0.166311
  outer loop
   vertex -392.869392 262.506935 -600.000000
   vertex -409.197003 236.250000 -600.000000
   vertex -526.110433 303.750000 200.000000
  endloop
 endfacet
 facet normal -0.837376 0.520714 -0.166311
  outer loop
   vertex -392.869392 262.506935 -600.000000
   vertex -526.110433 303.750000 200.000000
   vertex -505.117789 337.508917 200.000000
  endloop
 endfacet
 facet normal -0.869639 0.464832 -0.166311
  outer loop
   vertex -409.197003 236.250000 -600.000000
   vertex -423.772370 208.981406 -600.000000
   vertex -544.850190 268.690379 200.000000
  endloop
 endfacet
 facet normal -0.869639 0.464832 -0.166311
  outer loop
   vertex -409.197003 236.250000 -600.000000
   vertex -544.850190 268.690379 200.000000
   vertex -526.110433 303.750000 200.000000
  endloop
 endfacet
 facet normal -0.898179 0.406959 -0.166311
  outer loop
   vertex -423.772370 208.981406 -600.000000
   vertex -436.533079 180.817922 -600.000000
   vertex -561.256816 232.480185 200.000000
  endloop
 endfacet
 facet normal -0.898179 0.406959 -0.166311
  outer loop
   vertex -423.772370 208.981406 -600.000000
   vertex -561.256816 232.480185 200.000000
   vertex -544.850190 268.690379 200.000000
  endloop
 endfacet
 facet normal -0.922872 0.347344 -0.166311
  outer loop
   vertex -436.533079 180.817922 -600.000000
   vertex -447.424486 151.880147 -600.000000
   vertex -575.260054 195.274475 200.000000
  endloop
 endfacet
 facet normal -0.922872 0.347344 -0.166311
  outer loop
   vertex -436.533079 180.817922 -600.000000
   vertex -575.260054 195.274475 200.000000
   vertex -561.256816 232.480185 200.000000
  endloop
 endfacet
 facet normal -0.943613 0.286242 -0.166311
  outer loop
   vertex -447.424486 151.880147 -600.000000
   vertex -456.399953 122.291999 -600.000000
   vertex -586.799939 157.232570 200.000000
  endloop
 endfacet
 facet normal -0.943613 0.286242 -0.166311
  outer loop
   vertex -447.424486 151.880147 -600.000000
   vertex -586.799939 157.232570 200.000000
   vertex -575.260054 195.274475 200.000000
  endloop
 endfacet
 facet normal -0.960314 0.223914 -0.166311
  outer loop
   vertex -456.399953 122.291999 -600.000000
   vertex -463.421045 92.180177 -600.000000
   vertex -595.827058 118.517371 200.000000
  endloop
 endfacet
 facet normal -0.960314 0.223914 -0.166311
  outer loop
   vertex -456.399953 122.291999 -600.000000
   vertex -595.827058 118.517371 200.000000
   vertex -586.799939 157.232570 200.000000
  endloop
 endfacet
 facet normal -0.972903 0.160627 -0.166311
  outer loop
   vertex -463.421045 92.180177 -600.000000
   vertex -468.457697 61.673626 -600.000000
   vertex -602.302753 79.294662 200.000000
  endloop
 endfacet
 facet normal -0.972903 0.160627 -0.166311
  outer loop
   vertex -463.421045 92.180177 -600.000000
   vertex -602.302753 79.294662 200.000000
   vertex -595.827058 118.517371 200.000000
  endloop
 endfacet
 facet normal -0.981325 0.096652 -0.166311
  outer loop
   vertex -468.457697 61.673626 -600.000000
   vertex -471.488341 30.902979 -600.000000
   vertex -606.199296 39.732401 200.000000
  endloop
 endfacet
 facet normal -0.981325 0.096652 -0.166311
  outer loop
   vertex -468.457697 61.673626 -600.000000
   vertex -606.199296 39.732401 200.000000
   vertex -602.302753 79.294662 200.000000
  endloop
 endfacet
 facet normal -0.985545 0.032263 -0.166311
  outer loop
   vertex -471.488341 30.902979 -600.000000
   vertex -472.500000 0.000000 -600.000000
   vertex -607.500000 0.000000 200.000000
  endloop
 endfacet
 facet normal -0.985545 0.032263 -0.166311
  outer loop
   vertex -471.488341 30.902979 -600.000000
   vertex -607.500000 0.000000 200.000000
   vertex -606.199296 39.732401 200.000000
  endloop
 endfacet
 facet normal -0.985545 -0.032263 -0.166311
  outer loop
   vertex -472.500000 0.000000 -600.000000
   vertex -471.488341 -30.902979 -600.000000
   vertex -606.199296 -39.732401 200.000000
  endloop
 endfacet
 facet normal -0.985545 -0.032263 -0.166311
  outer loop
   vertex -472.500000 0.000000 -600.000000
   vertex -606.199296 -39.732401 200.000000
   vertex -607.500000 0.000000 200.000000
  endloop
 endfacet
 facet normal -0.981325 -0.096652 -0.166311
  outer loop
   vertex -471.488341 -30.902979 -600.000000
   vertex -468.457697 -61.673626 -600.000000
   vertex -602.302753 -79.294662 200.000000
  endloop
 endfacet
 facet normal -0.981325 -0.096652 -0.166311
  outer loop
   vertex -471.488341 -30.902979 -600.000000
   vertex -602.302753 -79.294662 200.000000
   vertex -606.199296 -39.732401 200.000000
  endloop
 endfacet
 facet normal -0.972903 -0.160627 -0.166311
  outer loop
   vertex -468.457697 -61.673626 -600.000000
   vertex -463.421045 -92.180177 -600.000000
   vertex -595.827058 -118.517371 200.000000
  endloop
 endfacet
 facet normal -0.972903 -0.160627 -0.166311
  outer loop
   vertex -468.457697 -61.673626 -600.000000
   vertex -595.827058 -118.517371 200.000000
   vertex -602.302753 -79.294662 200.000000
  endloop
 endfacet
 facet normal -0.960314 -0.223914 -0.166311
  outer loop
   vertex -463.421045 -92.180177 -600.000000
   vertex -456.399953 -122.291999 -600.000000
   vertex -586.799939 -157.232570 200.000000
  endloop
 endfacet
 facet normal -0.960314 -0.223914 -0.166311
  outer loop
   vertex -463.421045 -92.180177 -600.000000
   vertex -586.799939 -157.232570 200.000000
   vertex -595.827058 -118.517371 200.000000
  endloop
 endfacet
 facet normal -0.943613 -0.286242 -0.166311
  outer loop
   vertex -456.399953 -122.291999 -600.000000
   vertex -447.424486 -151.880147 -600.000000
   vertex -575.260054 -195.274475 200.000000
  endloop
 endfacet
 facet normal -0.943613 -0.286242 -0.166311
  outer loop
   vertex -456.399953 -122.291999 -600.000000
   vertex -575.260054 -195.274475 200.000000
   vertex -586.799939 -157.232570 200.000000
  endloop
 endfacet
 facet normal -0.922872 -0.347344 -0.166311
  outer loop
   vertex -447.424486 -151.880147 -600.000000
   vertex -436.533079 -180.817922 -600.000000
   vertex -561.256816 -232.480185 200.000000
  endloop
 endfacet
 facet normal -0.922872 -0.347344 -0.166311
  outer loop
   vertex -447.424486 -151.880147 -600.000000
   vertex -561.256816 -232.480185 200.000000
   vertex -575.260054 -195.274475 200.000000
  endloop
 endfacet
 facet normal -0.898179 -0.406959 -0.166311
  outer loop
   vertex -436.533079 -180.817922 -600.000000
   vertex -423.772370 -208.981406 -600.000000
   vertex -544.850190 -268.690379 200.000000
  endloop
 endfacet
 facet normal -0.898179 -0.406959 -0.166311
  outer loop
   vertex -436.533079 -180.817922 -600.000000
   vertex -544.850190 -268.690379 200.000000
   vertex -561.256816 -232.480185 200.000000
  endloop
 endfacet
 facet normal -0.869639 -0.464832 -0.166311
  outer loop
   vertex -423.772370 -208.981406 -600.000000
   vertex -409.197003 -236.250000 -600.000000
   vertex -526.110433 -303.750000 200.000000
  endloop
 endfacet
 facet normal -0.869639 -0.464832 -0.166311
  outer loop
   vertex -423.772370 -208.981406 -600.000000
   vertex -526.110433 -303.750000 200.000000
   vertex -544.850190 -268.690379 200.000000
  endloop
 endfacet
 facet normal -0.837376 -0.520714 -0.166311
  outer loop
   vertex -409.197003 -236.250000 -600.000000
   vertex -392.869392 -262.506935 -600.000000
   vertex -505.117789 -337.508917 200.000000
  endloop
 endfacet
 facet normal -0.837376 -0.520714 -0.166311
  outer loop
   vertex -409.197003 -236.250000 -600.000000
   vertex -505.117789 -337.508917 200.000000
   vertex -526.110433 -303.750000 200.000000
  endloop
 endfacet
 facet normal -0.801526 -0.574366 -0.166311
  outer loop
   vertex -392.869392 -262.506935 -600.000000
   vertex -374.859453 -287.639775 -600.000000
   vertex -481.962154 -369.822568 200.000000
  endloop
 endfacet
 facet normal -0.801526 -0.574366 -0.166311
  outer loop
   vertex -392.869392 -262.506935 -600.000000
   vertex -481.962154 -369.822568 200.000000
   vertex -505.117789 -337.508917 200.000000
  endloop
 endfacet
 facet normal -0.762245 -0.625558 -0.166311
  outer loop
   vertex -374.859453 -287.639775 -600.000000
   vertex -355.244309 -311.540898 -600.000000
   vertex -456.742683 -400.552583 200.000000
  endloop
 endfacet
 facet normal -0.762245 -0.625558 -0.166311
  outer loop
   vertex -374.859453 -287.639775 -600.000000
   vertex -456.742683 -400.552583 200.000000
   vertex -481.962154 -369.822568 200.000000
  endloop
 endfacet
 facet normal -0.719700 -0.674072 -0.166311
  outer loop
   vertex -355.244309 -311.540898 -600.000000
   vertex -334.107954 -334.107954 -600.000000
   vertex -429.567370 -429.567370 200.000000
  endloop
 endfacet
 facet normal -0.719700 -0.674072 -0.166311
  outer loop
   vertex -355.244309 -311.540898 -600.000000
   vertex -429.567370 -429.567370 200.000000
   vertex -456.742683 -400.552583 200.000000
  endloop
 endfacet
 facet normal -0.674072 -0.719700 -0.166311
  outer loop
   vertex -334.107954 -334.107954 -600.000000
   vertex -311.540898 -355.244309 -600.000000
   vertex -400.552583 -456.742683 200.000000
  endloop
 endfacet
 facet normal -0.674072 -0.719700 -0.166311
  outer loop
   vertex -334.107954 -334.107954 -600.000000
   vertex -400.552583 -456.742683 200.000000
   vertex -429.567370 -429.567370 200.000000
  endloop
 endfacet
 facet normal -0.625558 -0.762245 -0.166311
  outer loop
   vertex -311.540898 -355.244309 -600.000000
   vertex -287.639775 -374.859453 -600.000000
   vertex -369.822568 -481.962154 200.000000
  endloop
 endfacet
 facet normal -0.625558 -0.762245 -0.166311
  outer loop
   vertex -311.540898 -355.244309 -600.000000
   vertex -369.822568 -481.962154 200.000000
   vertex -400.552583 -456.742683 200.000000
  endloop
 endfacet
 facet normal -0.574366 -0.801526 -0.166311
  outer loop
   vertex -287.639775 -374.859453 -600.000000
   vertex -262.506935 -392.869392 -600.000000
   vertex -337.508917 -505.117789 200.000000
  endloop
 endfacet
 facet normal -0.574366 -0.801526 -0.166311
  outer loop
   vertex -287.639775 -374.859453 -600.000000
   vertex -337.508917 -505.117789 200.000000
   vertex -369.822568 -481.962154 200.000000
  endloop
 endfacet
 facet normal -0.520714 -0.837376 -0.166311
  outer loop
   vertex -262.506935 -392.869392 -600.000000
   vertex -236.250000 -409.197003 -600.000000
   vertex -303.750000 -526.110433 200.000000
  endloop
 endfacet
 facet normal -0.520714 -0.837376 -0.166311
  outer loop
   vertex -262.506935 -392.869392 -600.000000
   vertex -303.750000 -526.110433 200.000000
   vertex -337.508917 -505.117789 200.000000
  endloop
 endfacet
 facet normal -0.464832 -0.869639 -0.166311
  outer loop
   vertex -236.250000 -409.197003 -600.000000
   vertex -208.981406 -423.772370 -600.000000
   vertex -268.690379 -544.850190 200.000000
  endloop
 endfacet
 facet normal -0.464832 -0.869639 -0.166311
  outer loop
   vertex -236.250000 -409.197003 -600.000000
   vertex -268.690379 -544.850190 200.000000
   vertex -303.750000 -526.110433 200.000000
  endloop
 endfacet
 facet normal -0.406959 -0.898179 -0.166311
  outer loop
   vertex -208.981406 -423.772370 -600.000000
   vertex -180.817922 -436.533079 -600.000000
   vertex -232.480185 -561.256816 200.000000
  endloop
 endfacet
 facet normal -0.406959 -0.898179 -0.166311
  outer loop
   vertex -208.981406 -423.772370 -600.000000
   vertex -232.480185 -561.256816 200.000000
   vertex -268.690379 -544.850190 200.000000
  endloop
 endfacet
 facet normal -0.347344 -0.922872 -0.166311
  outer loop
   vertex -180.817922 -436.533079 -600.000000
   vertex -151.880147 -447.424486 -600.000000
   vertex -195.274475 -575.260054 200.000000
  endloop
 endfacet
 facet normal -0.347344 -0.922872 -0.166311
  outer loop
   vertex -180.817922 -436.533079 -600.000000
   vertex -195.274475 -575.260054 200.000000
   vertex -232.480185 -561.256816 200.000000
  endloop
 endfacet
 facet normal -0.286242 -0.943613 -0.166311
  outer loop
   vertex -151.880147 -447.424486 -600.000000
   vertex -122.291999 -456.399953 -600.000000
   vertex -157.232570 -586.799939 200.000000
  endloop
 endfacet
 facet normal -0.286242 -0.943613 -0.166311
  outer loop
   vertex -151.880147 -447.424486 -600.000000
   vertex -157.232570 -586.799939 200.000000
   vertex -195.274475 -575.260054 200.000000
  endloop
 endfacet
 facet normal -0.223914 -0.960314 -0.166311
  outer loop
   vertex -122.291999 -456.399953 -600.000000
   vertex -92.180177 -463.421045 -600.000000
   vertex -118.517371 -595.827058 200.000000
  endloop
 endfacet
 facet normal -0.223914 -0.960314 -0.166311
  outer loop
   vertex -122.291999 -456.399953 -600.000000
   vertex -118.517371 -595.827058 200.000000
   vertex -157.232570 -586.799939 200.000000
  endloop
 endfacet
 facet normal -0.160627 -0.972903 -0.166311
  outer loop
   vertex -92.180177 -463.421045 -600.000000
   vertex -61.673626 -468.457697 -600.000000
   vertex -79.294662 -602.302753 200.000000
  endloop
 endfacet
 facet normal -0.160627 -0.972903 -0.166311
  outer loop
   vertex -92.180177 -463.421045 -600.000000
   vertex -79.294662 -602.302753 200.000000
   vertex -118.517371 -595.827058 200.000000
  endloop
 endfacet
 facet normal -0.096652 -0.981325 -0.166311
  outer loop
   vertex -61.673626 -468.457697 -600.000000
   vertex -30.902979 -471.488341 -600.000000
   vertex -39.732401 -606.199296 200.000000
  endloop
 endfacet
 facet normal -0.096652 -0.981325 -0.166311
  outer loop
   vertex -61.673626 -468.457697 -600.000000
   vertex -39.732401 -606.199296 200.000000
   vertex -79.294662 -602.302753 200.000000
  endloop
 endfacet
 facet normal -0.032263 -0.985545 -0.166311
  outer loop
   vertex -30.902979 -471.488341 -600.000000
   vertex -0.000000 -472.500000 -600.000000
   vertex -0.000000 -607.500000 200.000000
  endloop
 endfacet
 facet normal -0.032263 -0.985545 -0.166311
  outer loop
   vertex -30.902979 -471.488341 -600.000000
   vertex -0.000000 -607.500000 200.000000
   vertex -39.732401 -606.199296 200.000000
  endloop
 endfacet
 facet normal 0.032263 -0.985545 -0.166311
  outer loop
   vertex -0.000000 -472.500000 -600.000000
   vertex 30.902979 -471.488341 -600.000000
   vertex 39.732401 -606.199296 200.000000
  endloop
 endfacet
 facet normal 0.032263 -0.985545 -0.166311
  outer loop
   vertex -0.000000 -472.500000 -600.000000
   vertex 39.732401 -606.199296 200.000000
   vertex -0.000000 -607.500000 200.000000
  endloop
 endfacet
 facet normal 0.096652 -0.981325 -0.166311
  outer loop
   vertex 30.902979 -471.488341 -600.000000
   vertex 61.673626 -468.457697 -600.000000
   vertex 79.294662 -602.302753 200.000000
  endloop
 endfacet
 facet normal 0.096652 -0.981325 -0.166311
  outer loop
   vertex 30.902979 -471.488341 -600.000000
   vertex 79.294662 -602.302753 200.000000
   vertex 39.732401 -606.199296 200.000000
  endloop
 endfacet
 facet normal 0.160627 -0.972903 -0.166311
  outer loop
   vertex 61.673626 -468.457697 -600.000000
   vertex 92.180177 -463.421045 -600.000000
   vertex 118.517371 -595.827058 200.000000
  endloop
 endfacet
 facet normal 0.160627 -0.972903 -0.166311
  outer loop
   vertex 61.673626 -468.457697 -600.000000
   vertex 118.517371 -595.827058 200.000000
   vertex 79.294662 -602.302753 200.000000
  endloop
 endfacet
 facet normal 0.223914 -0.960314 -0.166311
  outer loop
   vertex 92.180177 -463.421045 -600.000000
   vertex 122.291999 -456.399953 -600.000000
   vertex 157.232570 -586.799939 200.000000
  endloop
 endfacet
 facet normal 0.223914 -0.960314 -0.166311
  outer loop
   vertex 92.180177 -463.421045 -600.000000
   vertex 157.232570 -586.799939 200.000000
   vertex 118.517371 -595.827058 200.000000
  endloop
 endfacet
 facet normal 0.286242 -0.943613 -0.166311
  outer loop
   vertex 122.291999 -456.399953 -600.000000
   vertex 151.880147 -447.424486 -600.000000
   vertex 195.274475 -575.260054 200.000000
  endloop
 endfacet
 facet normal 0.286242 -0.943613 -0.166311
  outer loop
   vertex 122.291999 -456.399953 -600.000000
   vertex 195.274475 -575.260054 200.000000
   vertex 157.232570 -586.799939 200.000000
  endloop
 endfacet
 facet normal 0.347344 -0.922872 -0.166311
  outer loop
   vertex 151.880147 -447.424486 -600.000000
   vertex 180.817922 -436.533079 -600.000000
   vertex 232.480185 -561.256816 200.000000
  endloop
 endfacet
 facet normal 0.347344 -0.922872 -0.166311
  outer loop
   vertex 151.880147 -447.424486 -600.000000
   vertex 232.480185 -561.256816 200.000000
   vertex 195.274475 -575.260054 200.000000
  endloop
 endfacet
 facet normal 0.406959 -0.898179 -0.166311
  outer loop
   vertex 180.817922 -436.533079 -600.000000
   vertex 208.981406 -423.772370 -600.000000
   vertex 268.690379 -544.850190 200.000000
  endloop
 endfacet
 facet normal 0.406959 -0.898179 -0.166311
  outer loop
   vertex 180.817922 -436.533079 -600.000000
   vertex 268.690379 -544.850190 200.000000
   vertex 232.480185 -561.256816 200.000000
  endloop
 endfacet
 facet normal 0.464832 -0.869639 -0.166311
  outer loop
   vertex 208.981406 -423.772370 -600.000000
   vertex 236.250000 -409.197003 -600.000000
   vertex 303.750000 -526.110433 200.000000
  endloop
 endfacet
 facet normal 0.464832 -0.869639 -0.166311
  outer loop
   vertex 208.981406 -423.772370 -600.000000
   vertex 303.750000 -526.110433 200.000000
   vertex 268.690379 -544.850190 200.000000
  endloop
 endfacet
 facet normal 0.520714 -0.837376 -0.166311
  outer loop
   vertex 236.250000 -409.197003 -600.000000
   vertex 262.506935 -392.869392 -600.000000
   vertex 337.508917 -505.117789 200.000000
  endloop
 endfacet
 facet normal 0.520714 -0.837376 -0.166311
  outer loop
   vertex 236.250000 -409.197003 -600.000000
   vertex 337.508917 -505.117789 200.000000
   vertex 303.750000 -526.110433 200.000000
  endloop
 endfacet
 facet normal 0.574366 -0.801526 -0.166311
  outer loop
   vertex 262.506935 -392.869392 -600.000000
   vertex 287.639775 -374.859453 -600.000000
   vertex 369.822568 -481.962154 200.000000
  endloop
 endfacet
 facet normal 0.574366 -0.801526 -0.166311
  outer loop
   vertex 262.506935 -392.869392 -600.000000
   vertex 369.822568 -481.962154 200.000000
   vertex 337.508917 -505.117789 200.000000
  endloop
 endfacet
 facet normal 0.625558 -0.762245 -0.166311
  outer loop
   vertex 287.639775 -374.859453 -600.000000
   vertex 311.540898 -355.244309 -600.000000
   vertex 400.552583 -456.742683 200.000000
  endloop
 endfacet
 facet normal 0.625558 -0.762245 -0.166311
  outer loop
   vertex 287.639775 -374.859453 -600.000000
   vertex 400.552583 -456.742683 200.000000
   vertex 369.822568 -481.962154 200.000000
  endloop
 endfacet
 facet normal 0.674072 -0.719700 -0.166311
  outer loop
   vertex 311.540898 -355.244309 -600.000000
   vertex 334.107954 -334.107954 -600.000000
   vertex 429.567370 -429.567370 200.000000
  endloop
 endfacet
 facet normal 0.674072 -0.719700 -0.166311
  outer loop
   vertex 311.540898 -355.244309 -600.000000
   vertex 429.567370 -429.567370 200.000000
   vertex 400.552583 -456.742683 200.000000
  endloop
 endfacet
 facet normal 0.719700 -0.674072 -0.166311
  outer loop
   vertex 334.107954 -334.107954 -600.000000
   vertex 355.244309 -311.540898 -600.000000
   vertex 456.742683 -400.552583 200.000000
  endloop
 endfacet
 facet normal 0.719700 -0.674072 -0.166311
  outer loop
   vertex 334.107954 -334.107954 -600.000000
   vertex 456.742683 -400.552583 200.000000
   vertex 429.567370 -429.567370 200.000000
  endloop
 endfacet
 facet normal 0.762245 -0.625558 -0.166311
  outer loop
   vertex 355.244309 -311.540898 -600.000000
   vertex 374.859453 -287.639775 -600.000000
   vertex 481.962154 -369.822568 200.000000
  endloop
 endfacet
 facet normal 0.762245 -0.625558 -0.166311
  outer loop
   vertex 355.244309 -311.540898 -600.000000
   vertex 481.962154 -369.822568 200.000000
   vertex 456.742683 -400.552583 200.000000
  endloop
 endfacet
 facet normal 0.801526 -0.574366 -0.166311
  outer loop
   vertex 374.859453 -287.639775 -600.000000
   vertex 392.869392 -262.506935 -600.000000
   vertex 505.117789 -337.508917 200.000000
  endloop
 endfacet
 facet normal 0.801526 -0.574366 -0.166311
  outer loop
   vertex 374.859453 -287.639775 -600.000000
   vertex 505.117789 -337.508917 200.000000
   vertex 481.962154 -369.822568 200.000000
  endloop
 endfacet
 facet normal 0.837376 -0.520714 -0.166311
  outer loop
   vertex 392.869392 -262.506935 -600.000000
   vertex 409.197003 -236.250000 -600.000000
   vertex 526.110433 -303.750000 200.000000
  endloop
 endfacet
 facet normal 0.837376 -0.520714 -0.166311
  outer loop
   vertex 392.869392 -262.506935 -600.000000
   vertex 526.110433 -303.750000 200.000000
   vertex 505.117789 -337.508917 200.000000
  endloop
 endfacet
 facet normal 0.869639 -0.464832 -0.166311
  outer loop
   vertex 409.197003 -236.250000 -600.000000
   vertex 423.772370 -208.981406 -600.000000
   vertex 544.850190 -268.690379 200.000000
  endloop
 endfacet
 facet normal 0.869639 -0.464832 -0.166311
  outer loop
   vertex 409.197003 -236.250000 -600.000000
   vertex 544.850190 -268.690379 200.000000
   vertex 526.110433 -303.750000 200.000000
  endloop
 endfacet
 facet normal 0.898179 -0.406959 -0.166311
  outer loop
   vertex 423.772370 -208.981406 -600.000000
   vertex 436.533079 -180.817922 -600.000000
   vertex 561.256816 -232.480185 200.000000
  endloop
 endfacet
 facet normal 0.898179 -0.406959 -0.166311
  outer loop
   vertex 423.772370 -208.981406 -600.000000
   vertex 561.256816 -232.480185 200.000000
   vertex 544.850190 -268.690379 200.000000
  endloop
 endfacet
 facet normal 0.922872 -0.347344 -0.166311
  outer loop
   vertex 436.533079 -180.817922 -600.000000
   vertex 447.424486 -151.880147 -600.000000
   vertex 575.260054 -195.274475 200.000000
  endloop
 endfacet
 facet normal 0.922872 -0.347344 -0.166311
  outer loop
   vertex 436.533079 -180.817922 -600.000000
   vertex 575.260054 -195.274475 200.000000
   vertex 561.256816 -232.480185 200.000000
  endloop
 endfacet
 facet normal 0.943613 -0.286242 -0.166311
  outer loop
   vertex 447.424486 -151.880147 -600.000000
   vertex 456.399953 -122.291999 -600.000000
   vertex 586.799939 -157.232570 200.000000
  endloop
 endfacet
 facet normal 0.943613 -0.286242 -0.166311
  outer loop
   vertex 447.424486 -151.880147 -600.000000
   vertex 586.799939 -157.232570 200.000000
   vertex 575.260054 -195.274475 200.000000
  endloop
 endfacet
 facet normal 0.960314 -0.223914 -0.166311
  outer loop
   vertex 456.399953 -122.291999 -600.000000
   vertex 463.421045 -92.180177 -600.000000
   vertex 595.827058 -118.517371 200.000000
  endloop
 endfacet
 facet normal 0.960314 -0.223914 -0.166311
  outer loop
   vertex 456.399953 -122.291999 -600.000000
   vertex 595.827058 -118.517371 200.000000
   vertex 586.799939 -157.232570 200.000000
  endloop
 endfacet
 facet normal 0.972903 -0.160627 -0.166311
  outer loop
   vertex 463.421045 -92.180177 -600.000000
   vertex 468.457697 -61.673626 -600.000000
   vertex 602.302753 -79.294662 200.000000
  endloop
 endfacet
 facet normal 0.972903 -0.160627 -0.166311
  outer loop
   vertex 463.421045 -92.180177 -600.000000
   vertex 602.302753 -79.294662 200.000000
   vertex 595.827058 -118.517371 200.000000
  endloop
 endfacet
 facet normal 0.981325 -0.096652 -0.166311
  outer loop
   vertex 468.457697 -61.673626 -600.000000
   vertex 471.488341 -30.902979 -600.000000
   vertex 606.199296 -39.732401 200.000000
  endloop
 endfacet
 facet normal 0.981325 -0.096652 -0.166311
  outer loop
   vertex 468.457697 -61.673626 -600.000000
   vertex 606.199296 -39.732401 200.000000
   vertex 602.302753 -79.294662 200.000000
  endloop
 endfacet
 facet normal 0.985545 -0.032263 -0.166311
  outer loop
   vertex 471.488341 -30.902979 -600.000000
   vertex 472.500000 0.000000 -600.000000
   vertex 607.500000 0.000000 200.000000
  endloop
 endfacet
 facet normal 0.985545 -0.032263 -0.166311
  outer loop
   vertex 471.488341 -30.902979 -600.000000
   vertex 607.500000 0.000000 200.000000
   vertex 606.199296 -39.732401 200.000000
  endloop
 endfacet
endsolid J2_chamber_2
