solid J2_nozzle_2
 facet normal -0.949864 -0.024873 -0.311674
  outer loop
   vertex 450.000000 0.000000 -1100.000000
   vertex 449.383291 23.551180 -1100.000000
   vertex 1497.944302 78.503934 -4300.000000
  endloop
 endfacet
 facet normal -0.949864 -0.024873 -0.311674
  outer loop
   vertex 450.000000 0.000000 -1100.000000
   vertex 1497.944302 78.503934 -4300.000000
   vertex 1500.000000 0.000000 -4300.000000
  endloop
 endfacet
 facet normal -0.947260 -0.074551 -0.311674
  outer loop
   vertex 449.383291 23.551180 -1100.000000
   vertex 447.534853 47.037808 -1100.000000
   vertex 1491.782843 156.792695 -4300.000000
  endloop
 endfacet
 facet normal -0.947260 -0.074551 -0.311674
  outer loop
   vertex 449.383291 23.551180 -1100.000000
   vertex 1491.782843 156.792695 -4300.000000
   vertex 1497.944302 78.503934 -4300.000000
  endloop
 endfacet
 facet normal -0.942060 -0.124025 -0.311674
  outer loop
   vertex 447.534853 47.037808 -1100.000000
   vertex 444.459753 70.395509 -1100.000000
   vertex 1481.532511 234.651698 -4300.000000
  endloop
 endfacet
 facet normal -0.942060 -0.124025 -0.311674
  outer loop
   vertex 447.534853 47.037808 -1100.000000
   vertex 1481.532511 234.651698 -4300.000000
   vertex 1491.782843 156.792695 -4300.000000
  endloop
 endfacet
 facet normal -0.934278 -0.173158 -0.311674
  outer loop
   vertex 444.459753 70.395509 -1100.000000
   vertex 440.166420 93.560261 -1100.000000
   vertex 1467.221401 311.867536 -4300.000000
  endloop
 endfacet
 facet normal -0.934278 -0.173158 -0.311674
  outer loop
   vertex 444.459753 70.395509 -1100.000000
   vertex 1467.221401 311.867536 -4300.000000
   vertex 1481.532511 234.651698 -4300.000000
  endloop
 endfacet
 facet normal -0.923935 -0.221817 -0.311674
  outer loop
   vertex 440.166420 93.560261 -1100.000000
   vertex 434.666622 116.468570 -1100.000000
   vertex 1448.888739 388.228568 -4300.000000
  endloop
 endfacet
 facet normal -0.923935 -0.221817 -0.311674
  outer loop
   vertex 440.166420 93.560261 -1100.000000
   vertex 1448.888739 388.228568 -4300.000000
   vertex 1467.221401 311.867536 -4300.000000
  endloop
 endfacet
 facet normal -0.911060 -0.269868 -0.311674
  outer loop
   vertex 434.666622 116.468570 -1100.000000
   vertex 427.975432 139.057647 -1100.000000
   vertex 1426.584774 463.525492 -4300.000000
  endloop
 endfacet
 facet normal -0.911060 -0.269868 -0.311674
  outer loop
   vertex 434.666622 116.468570 -1100.000000
   vertex 1426.584774 463.525492 -4300.000000
   vertex 1448.888739 388.228568 -4300.000000
  endloop
 endfacet
 facet normal -0.895688 -0.317180 -0.311674
  outer loop
   vertex 427.975432 139.057647 -1100.000000
   vertex 420.111192 161.265577 -1100.000000
   vertex 1400.370640 537.551924 -4300.000000
  endloop
 endfacet
 facet normal -0.895688 -0.317180 -0.311674
  outer loop
   vertex 427.975432 139.057647 -1100.000000
   vertex 1400.370640 537.551924 -4300.000000
   vertex 1426.584774 463.525492 -4300.000000
  endloop
 endfacet
 facet normal -0.877860 -0.363622 -0.311674
  outer loop
   vertex 420.111192 161.265577 -1100.000000
   vertex 411.095456 183.031489 -1100.000000
   vertex 1370.318186 610.104965 -4300.000000
  endloop
 endfacet
 facet normal -0.877860 -0.363622 -0.311674
  outer loop
   vertex 420.111192 161.265577 -1100.000000
   vertex 1370.318186 610.104965 -4300.000000
   vertex 1400.370640 537.551924 -4300.000000
  endloop
 endfacet
 facet normal -0.857627 -0.409067 -0.311674
  outer loop
   vertex 411.095456 183.031489 -1100.000000
   vertex 400.952936 204.295725 -1100.000000
   vertex 1336.509786 680.985750 -4300.000000
  endloop
 endfacet
 facet normal -0.857627 -0.409067 -0.311674
  outer loop
   vertex 411.095456 183.031489 -1100.000000
   vertex 1336.509786 680.985750 -4300.000000
   vertex 1370.318186 610.104965 -4300.000000
  endloop
 endfacet
 facet normal -0.835042 -0.453391 -0.311674
  outer loop
   vertex 400.952936 204.295725 -1100.000000
   vertex 389.711432 225.000000 -1100.000000
   vertex 1299.038106 750.000000 -4300.000000
  endloop
 endfacet
 facet normal -0.835042 -0.453391 -0.311674
  outer loop
   vertex 400.952936 204.295725 -1100.000000
   vertex 1299.038106 750.000000 -4300.000000
   vertex 1336.509786 680.985750 -4300.000000
  endloop
 endfacet
 facet normal -0.810169 -0.496472 -0.311674
  outer loop
   vertex 389.711432 225.000000 -1100.000000
   vertex 377.401756 245.087566 -1100.000000
   vertex 1258.005852 816.958553 -4300.000000
  endloop
 endfacet
 facet normal -0.810169 -0.496472 -0.311674
  outer loop
   vertex 389.711432 225.000000 -1100.000000
   vertex 1258.005852 816.958553 -4300.000000
   vertex 1299.038106 750.000000 -4300.000000
  endloop
 endfacet
 facet normal -0.783076 -0.538193 -0.311674
  outer loop
   vertex 377.401756 245.087566 -1100.000000
   vertex 364.057647 264.503364 -1100.000000
   vertex 1213.525492 881.677878 -4300.000000
  endloop
 endfacet
 facet normal -0.783076 -0.538193 -0.311674
  outer loop
   vertex 377.401756 245.087566 -1100.000000
   vertex 1213.525492 881.677878 -4300.000000
   vertex 1258.005852 816.958553 -4300.000000
  endloop
 endfacet
 facet normal -0.753836 -0.578438 -0.311674
  outer loop
   vertex 364.057647 264.503364 -1100.000000
   vertex 349.715683 283.194176 -1100.000000
   vertex 1165.718942 943.980587 -4300.000000
  endloop
 endfacet
 facet normal -0.753836 -0.578438 -0.311674
  outer loop
   vertex 364.057647 264.503364 -1100.000000
   vertex 1165.718942 943.980587 -4300.000000
   vertex 1213.525492 881.677878 -4300.000000
  endloop
 endfacet
 facet normal -0.722529 -0.617098 -0.311674
  outer loop
   vertex 349.715683 283.194176 -1100.000000
   vertex 334.415171 301.108773 -1100.000000
   vertex 1114.717238 1003.695910 -4300.000000
  endloop
 endfacet
 facet normal -0.722529 -0.617098 -0.311674
  outer loop
   vertex 349.715683 283.194176 -1100.000000
   vertex 1114.717238 1003.695910 -4300.000000
   vertex 1165.718942 943.980587 -4300.000000
  endloop
 endfacet
 facet normal -0.689243 -0.654067 -0.311674
  outer loop
   vertex 334.415171 301.108773 -1100.000000
   vertex 318.198052 318.198052 -1100.000000
   vertex 1060.660172 1060.660172 -4300.000000
  endloop
 endfacet
 facet normal -0.689243 -0.654067 -0.311674
  outer loop
   vertex 334.415171 301.108773 -1100.000000
   vertex 1060.660172 1060.660172 -4300.000000
   vertex 1114.717238 1003.695910 -4300.000000
  endloop
 endfacet
 facet normal -0.654067 -0.689243 -0.311674
  outer loop
   vertex 318.198052 318.198052 -1100.000000
   vertex 301.108773 334.415171 -1100.000000
   vertex 1003.695910 1114.717238 -4300.000000
  endloop
 endfacet
 facet normal -0.654067 -0.689243 -0.311674
  outer loop
   vertex 318.198052 318.198052 -1100.000000
   vertex 1003.695910 1114.717238 -4300.000000
   vertex 1060.660172 1060.660172 -4300.000000
  endloop
 endfacet
 facet normal -0.617098 -0.722529 -0.311674
  outer loop
   vertex 301.108773 334.415171 -1100.000000
   vertex 283.194176 349.715683 -1100.000000
   vertex 943.980587 1165.718942 -4300.000000
  endloop
 endfacet
 facet normal -0.617098 -0.722529 -0.311674
  outer loop
   vertex 301.108773 334.415171 -1100.000000
   vertex 943.980587 1165.718942 -4300.000000
   vertex 1003.695910 1114.717238 -4300.000000
  endloop
 endfacet
 facet normal -0.578438 -0.753836 -0.311674
  outer loop
   vertex 283.194176 349.715683 -1100.000000
   vertex 264.503364 364.057647 -1100.000000
   vertex 881.677878 1213.525492 -4300.000000
  endloop
 endfacet
 facet normal -0.578438 -0.753836 -0.311674
  outer loop
   vertex 283.194176 349.715683 -1100.000000
   vertex 881.677878 1213.525492 -4300.000000
   vertex 943.980587 1165.718942 -4300.000000
  endloop
 endfacet
 facet normal -0.538193 -0.783076 -0.311674
  outer loop
   vertex 264.503364 364.057647 -1100.000000
   vertex 245.087566 377.401756 -1100.000000
   vertex 816.958553 1258.005852 -4300.000000
  endloop
 endfacet
 facet normal -0.538193 -0.783076 -0.311674
  outer loop
   vertex 264.503364 364.057647 -1100.000000
   vertex 816.958553 1258.005852 -4300.000000
   vertex 881.677878 1213.525492 -4300.000000
  endloop
 endfacet
 facet normal -0.496472 -0.810169 -0.311674
  outer loop
   vertex 245.087566 377.401756 -1100.000000
   vertex 225.000000 389.711432 -1100.000000
   vertex 750.000000 1299.038106 -4300.000000
  endloop
 endfacet
 facet normal -0.496472 -0.810169 -0.311674
  outer loop
   vertex 245.087566 377.401756 -1100.000000
   vertex 750.000000 1299.038106 -4300.000000
   vertex 816.958553 1258.005852 -4300.000000
  endloop
 endfacet
 facet normal -0.453391 -0.835042 -0.311674
  outer loop
   vertex 225.000000 389.711432 -1100.000000
   vertex 204.295725 400.952936 -1100.000000
   vertex 680.985750 1336.509786 -4300.000000
  endloop
 endfacet
 facet normal -0.453391 -0.835042 -0.311674
  outer loop
   vertex 225.000000 389.711432 -1100.000000
   vertex 680.985750 1336.509786 -4300.000000
   vertex 750.000000 1299.038106 -4300.000000
  endloop
 endfacet
 facet normal -0.409067 -0.857627 -0.311674
  outer loop
   vertex 204.295725 400.952936 -1100.000000
   vertex 183.031489 411.095456 -1100.000000
   vertex 610.104965 1370.318186 -4300.000000
  endloop
 endfacet
 facet normal -0.409067 -0.857627 -0.311674
  outer loop
   vertex 204.295725 400.952936 -1100.000000
   vertex 610.104965 1370.318186 -4300.000000
   vertex 680.985750 1336.509786 -4300.000000
  endloop
 endfacet
 facet normal -0.363622 -0.877860 -0.311674
  outer loop
   vertex 183.031489 411.095456 -1100.000000
   vertex 161.265577 420.111192 -1100.000000
   vertex 537.551924 1400.370640 -4300.000000
  endloop
 endfacet
 facet normal -0.363622 -0.877860 -0.311674
  outer loop
   vertex 183.031489 411.095456 -1100.000000
   vertex 537.551924 1400.370640 -4300.000000
   vertex 610.104965 1370.318186 -4300.000000
  endloop
 endfacet
 facet normal -0.317180 -0.895688 -0.311674
  outer loop
   vertex 161.265577 420.111192 -1100.000000
   vertex 139.057647 427.975432 -1100.000000
   vertex 463.525492 1426.584774 -4300.000000
  endloop
 endfacet
 facet normal -0.317180 -0.895688 -0.311674
  outer loop
   vertex 161.265577 420.111192 -1100.000000
   vertex 463.525492 1426.584774 -4300.000000
   vertex 537.551924 1400.370640 -4300.000000
  endloop
 endfacet
 facet normal -0.269868 -0.911060 -0.311674
  outer loop
   vertex 139.057647 427.975432 -1100.000000
   vertex 116.468570 434.666622 -1100.000000
   vertex 388.228568 1448.888739 -4300.000000
  endloop
 endfacet
 facet normal -0.269868 -0.911060 -0.311674
  outer loop
   vertex 139.057647 427.975432 -1100.000000
   vertex 388.228568 1448.888739 -4300.000000
   vertex 463.525492 1426.584774 -4300.000000
  endloop
 endfacet
 facet normal -0.221817 -0.923935 -0.311674
  outer loop
   vertex 116.468570 434.666622 -1100.000000
   vertex 93.560261 440.166420 -1100.000000
   vertex 311.867536 1467.221401 -4300.000000
  endloop
 endfacet
 facet normal -0.221817 -0.923935 -0.311674
  outer loop
   vertex 116.468570 434.666622 -1100.000000
   vertex 311.867536 1467.221401 -4300.000000
   vertex 388.228568 1448.888739 -4300.000000
  endloop
 endfacet
 facet normal -0.173158 -0.934278 -0.311674
  outer loop
   vertex 93.560261 440.166420 -1100.000000
   vertex 70.395509 444.459753 -1100.000000
   vertex 234.651698 1481.532511 -4300.000000
  endloop
 endfacet
 facet normal -0.173158 -0.934278 -0.311674
  outer loop
   vertex 93.560261 440.166420 -1100.000000
   vertex 234.651698 1481.532511 -4300.000000
   vertex 311.867536 1467.221401 -4300.000000
  endloop
 endfacet
 facet normal -0.124025 -0.942060 -0.311674
  outer loop
   vertex 70.395509 444.459753 -1100.000000
   vertex 47.037808 447.534853 -1100.000000
   vertex 156.792695 1491.782843 -4300.000000
  endloop
 endfacet
 facet normal -0.124025 -0.942060 -0.311674
  outer loop
   vertex 70.395509 444.459753 -1100.000000
   vertex 156.792695 1491.782843 -4300.000000
   vertex 234.651698 1481.532511 -4300.000000
  endloop
 endfacet
 facet normal -0.074551 -0.947260 -0.311674
  outer loop
   vertex 47.037808 447.534853 -1100.000000
   vertex 23.551180 449.383291 -1100.000000
   vertex 78.503934 1497.944302 -4300.000000
  endloop
 endfacet
 facet normal -0.074551 -0.947260 -0.311674
  outer loop
   vertex 47.037808 447.534853 -1100.000000
   vertex 78.503934 1497.944302 -4300.000000
   vertex 156.792695 1491.782843 -4300.000000
  endloop
 endfacet
 facet normal -0.024873 -0.949864 -0.311674
  outer loop
   vertex 23.551180 449.383291 -1100.000000
   vertex 0.000000 450.000000 -1100.000000
   vertex 0.000000 1500.000000 -4300.000000
  endloop
 endfacet
 facet normal -0.024873 -0.949864 -0.311674
  outer loop
   vertex 23.551180 449.383291 -1100.000000
   vertex 0.000000 1500.000000 -4300.000000
   vertex 78.503934 1497.944302 -4300.000000
  endloop
 endfacet
 facet normal 0.024873 -0.949864 -0.311674
  outer loop
   vertex 0.000000 450.000000 -1100.000000
   vertex -23.551180 449.383291 -1100.000000
   vertex -78.503934 1497.944302 -4300.000000
  endloop
 endfacet
 facet normal 0.024873 -0.949864 -0.311674
  outer loop
   vertex 0.000000 450.000000 -1100.000000
   vertex -78.503934 1497.944302 -4300.000000
   vertex 0.000000 1500.000000 -4300.000000
  endloop
 endfacet
 facet normal 0.074551 -0.947260 -0.311674
  outer loop
   vertex -23.551180 449.383291 -1100.000000
   vertex -47.037808 447.534853 -1100.000000
   vertex -156.792695 1491.782843 -4300.000000
  endloop
 endfacet
 facet normal 0.074551 -0.947260 -0.311674
  outer loop
   vertex -23.551180 449.383291 -1100.000000
   vertex -156.792695 1491.782843 -4300.000000
   vertex -78.503934 1497.944302 -4300.000000
  endloop
 endfacet
 facet normal 0.124025 -0.942060 -0.311674
  outer loop
   vertex -47.037808 447.534853 -1100.000000
   vertex -70.395509 444.459753 -1100.000000
   vertex -234.651698 1481.532511 -4300.000000
  endloop
 endfacet
 facet normal 0.124025 -0.942060 -0.311674
  outer loop
   vertex -47.037808 447.534853 -1100.000000
   vertex -234.651698 1481.532511 -4300.000000
   vertex -156.792695 1491.782843 -4300.000000
  endloop
 endfacet
 facet normal 0.173158 -0.934278 -0.311674
  outer loop
   vertex -70.395509 444.459753 -1100.000000
   vertex -93.560261 440.166420 -1100.000000
   vertex -311.867536 1467.221401 -4300.000000
  endloop
 endfacet
 facet normal 0.173158 -0.934278 -0.311674
  outer loop
   vertex -70.395509 444.459753 -1100.000000
   vertex -311.867536 1467.221401 -4300.000000
   vertex -234.651698 1481.532511 -4300.000000
  endloop
 endfacet
 facet normal 0.221817 -0.923935 -0.311674
  outer loop
   vertex -93.560261 440.166420 -1100.000000
   vertex -116.468570 434.666622 -1100.000000
   vertex -388.228568 1448.888739 -4300.000000
  endloop
 endfacet
 facet normal 0.221817 -0.923935 -0.311674
  outer loop
   vertex -93.560261 440.166420 -1100.000000
   vertex -388.228568 1448.888739 -4300.000000
   vertex -311.867536 1467.221401 -4300.000000
  endloop
 endfacet
 facet normal 0.269868 -0.911060 -0.311674
  outer loop
   vertex -116.468570 434.666622 -1100.000000
   vertex -139.057647 427.975432 -1100.000000
   vertex -463.525492 1426.584774 -4300.000000
  endloop
 endfacet
 facet normal 0.269868 -0.911060 -0.311674
  outer loop
   vertex -116.468570 434.666622 -1100.000000
   vertex -463.525492 1426.584774 -4300.000000
   vertex -388.228568 1448.888739 -4300.000000
  endloop
 endfacet
 facet normal 0.317180 -0.895688 -0.311674
  outer loop
   vertex -139.057647 427.975432 -1100.000000
   vertex -161.265577 420.111192 -1100.000000
   vertex -537.551924 1400.370640 -4300.000000
  endloop
 endfacet
 facet normal 0.317180 -0.895688 -0.311674
  outer loop
   vertex -139.057647 427.975432 -1100.000000
   vertex -537.551924 1400.370640 -4300.000000
   vertex -463.525492 1426.584774 -4300.000000
  endloop
 endfacet
 facet normal 0.363622 -0.877860 -0.311674
  outer loop
   vertex -161.265577 420.111192 -1100.000000
   vertex -183.031489 411.095456 -1100.000000
   vertex -610.104965 1370.318186 -4300.000000
  endloop
 endfacet
 facet normal 0.363622 -0.877860 -0.311674
  outer loop
   vertex -161.265577 420.111192 -1100.000000
   vertex -610.104965 1370.318186 -4300.000000
   vertex -537.551924 1400.370640 -4300.000000
  endloop
 endfacet
 facet normal 0.409067 -0.857627 -0.311674
  outer loop
   vertex -183.031489 411.095456 -1100.000000
   vertex -204.295725 400.952936 -1100.000000
   vertex -680.985750 1336.509786 -4300.000000
  endloop
 endfacet
 facet normal 0.409067 -0.857627 -0.311674
  outer loop
   vertex -183.031489 411.095456 -1100.000000
   vertex -680.985750 1336.509786 -4300.000000
   vertex -610.104965 1370.318186 -4300.000000
  endloop
 endfacet
 facet normal 0.453391 -0.835042 -0.311674
  outer loop
   vertex -204.295725 400.952936 -1100.000000
   vertex -225.000000 389.711432 -1100.000000
   vertex -750.000000 1299.038106 -4300.000000
  endloop
 endfacet
 facet normal 0.453391 -0.835042 -0.311674
  outer loop
   vertex -204.295725 400.952936 -1100.000000
   vertex -750.000000 1299.038106 -4300.000000
   vertex -680.985750 1336.509786 -4300.000000
  endloop
 endfacet
 facet normal 0.496472 -0.810169 -0.311674
  outer loop
   vertex -225.000000 389.711432 -1100.000000
   vertex -245.087566 377.401756 -1100.000000
   vertex -816.958553 1258.005852 -4300.000000
  endloop
 endfacet
 facet normal 0.496472 -0.810169 -0.311674
  outer loop
   vertex -225.000000 389.711432 -1100.000000
   vertex -816.958553 1258.005852 -4300.000000
   vertex -750.000000 1299.038106 -4300.000000
  endloop
 endfacet
 facet normal 0.538193 -0.783076 -0.311674
  outer loop
   vertex -245.087566 377.401756 -1100.000000
   vertex -264.503364 364.057647 -1100.000000
   vertex -881.677878 1213.525492 -4300.000000
  endloop
 endfacet
 facet normal 0.538193 -0.783076 -0.311674
  outer loop
   vertex -245.087566 377.401756 -1100.000000
   vertex -881.677878 1213.525492 -4300.000000
   vertex -816.958553 1258.005852 -4300.000000
  endloop
 endfacet
 facet normal 0.578438 -0.753836 -0.311674
  outer loop
   vertex -264.503364 364.057647 -1100.000000
   vertex -283.194176 349.715683 -1100.000000
   vertex -943.980587 1165.718942 -4300.000000
  endloop
 endfacet
 facet normal 0.578438 -0.753836 -0.311674
  outer loop
   vertex -264.503364 364.057647 -1100.000000
   vertex -943.980587 1165.718942 -4300.000000
   vertex -881.677878 1213.525492 -4300.000000
  endloop
 endfacet
 facet normal 0.617098 -0.722529 -0.311674
  outer loop
   vertex -283.194176 349.715683 -1100.000000
   vertex -301.108773 334.415171 -1100.000000
   vertex -1003.695910 1114.717238 -4300.000000
  endloop
 endfacet
 facet normal 0.617098 -0.722529 -0.311674
  outer loop
   vertex -283.194176 349.715683 -1100.000000
   vertex -1003.695910 1114.717238 -4300.000000
   vertex -943.980587 1165.718942 -4300.000000
  endloop
 endfacet
 facet normal 0.654067 -0.689243 -0.311674
  outer loop
   vertex -301.108773 334.415171 -1100.000000
   vertex -318.198052 318.198052 -1100.000000
   vertex -1060.660172 1060.660172 -4300.000000
  endloop
 endfacet
 facet normal 0.654067 -0.689243 -0.311674
  outer loop
   vertex -301.108773 334.415171 -1100.000000
   vertex -1060.660172 1060.660172 -4300.000000
   vertex -1003.695910 1114.717238 -4300.000000
  endloop
 endfacet
 facet normal 0.689243 -0.654067 -0.311674
  outer loop
   vertex -318.198052 318.198052 -1100.000000
   vertex -334.415171 301.108773 -1100.000000
   vertex -1114.717238 1003.695910 -4300.000000
  endloop
 endfacet
 facet normal 0.689243 -0.654067 -0.311674
  outer loop
   vertex -318.198052 318.198052 -1100.000000
   vertex -1114.717238 1003.695910 -4300.000000
   vertex -1060.660172 1060.660172 -4300.000000
  endloop
 endfacet
 facet normal 0.722529 -0.617098 -0.311674
  outer loop
   vertex -334.415171 301.108773 -1100.000000
   vertex -349.715683 283.194176 -1100.000000
   vertex -1165.718942 943.980587 -4300.000000
  endloop
 endfacet
 facet normal 0.722529 -0.617098 -0.311674
  outer loop
   vertex -334.415171 301.108773 -1100.000000
   vertex -1165.718942 943.980587 -4300.000000
   vertex -1114.717238 1003.695910 -4300.000000
  endloop
 endfacet
 facet normal 0.753836 -0.578438 -0.311674
  outer loop
   vertex -349.715683 283.194176 -1100.000000
   vertex -364.057647 264.503364 -1100.000000
   vertex -1213.525492 881.677878 -4300.000000
  endloop
 endfacet
 facet normal 0.753836 -0.578438 -0.311674
  outer loop
   vertex -349.715683 283.194176 -1100.000000
   vertex -1213.525492 881.677878 -4300.000000
   vertex -1165.718942 943.980587 -4300.000000
  endloop
 endfacet
 facet normal 0.783076 -0.538193 -0.311674
  outer loop
   vertex -364.057647 264.503364 -1100.000000
   vertex -377.401756 245.087566 -1100.000000
   vertex -1258.005852 816.958553 -4300.000000
  endloop
 endfacet
 facet normal 0.783076 -0.538193 -0.311674
  outer loop
   vertex -364.057647 264.503364 -1100.000000
   vertex -1258.005852 816.958553 -4300.000000
   vertex -1213.525492 881.677878 -4300.000000
  endloop
 endfacet
 facet normal 0.810169 -0.496472 -0.311674
  outer loop
   vertex -377.401756 245.087566 -1100.000000
   vertex -389.711432 225.000000 -1100.000000
   vertex -1299.038106 750.000000 -4300.000000
  endloop
 endfacet
 facet normal 0.810169 -0.496472 -0.311674
  outer loop
   vertex -377.401756 245.087566 -1100.000000
   vertex -1299.038106 750.000000 -4300.000000
   vertex -1258.005852 816.958553 -4300.000000
  endloop
 endfacet
 facet normal 0.835042 -0.453391 -0.311674
  outer loop
   vertex -389.711432 225.000000 -1100.000000
   vertex -400.952936 204.295725 -1100.000000
   vertex -1336.509786 680.985750 -4300.000000
  endloop
 endfacet
 facet normal 0.835042 -0.453391 -0.311674
  outer loop
   vertex -389.711432 225.000000 -1100.000000
   vertex -1336.509786 680.985750 -4300.000000
   vertex -1299.038106 750.000000 -4300.000000
  endloop
 endfacet
 facet normal 0.857627 -0.409067 -0.311674
  outer loop
   vertex -400.952936 204.295725 -1100.000000
   vertex -411.095456 183.031489 -1100.000000
   vertex -1370.318186 610.104965 -4300.000000
  endloop
 endfacet
 facet normal 0.857627 -0.409067 -0.311674
  outer loop
   vertex -400.952936 204.295725 -1100.000000
   vertex -1370.318186 610.104965 -4300.000000
   vertex -1336.509786 680.985750 -4300.000000
  endloop
 endfacet
 facet normal 0.877860 -0.363622 -0.311674
  outer loop
   vertex -411.095456 183.031489 -1100.000000
   vertex -420.111192 161.265577 -1100.000000
   vertex -1400.370640 537.551924 -4300.000000
  endloop
 endfacet
 facet normal 0.877860 -0.363622 -0.311674
  outer loop
   vertex -411.095456 183.031489 -1100.000000
   vertex -1400.370640 537.551924 -4300.000000
   vertex -1370.318186 610.104965 -4300.000000
  endloop
 endfacet
 facet normal 0.895688 -0.317180 -0.311674
  outer loop
   vertex -420.111192 161.265577 -1100.000000
   vertex -427.975432 139.057647 -1100.000000
   vertex -1426.584774 463.525492 -4300.000000
  endloop
 endfacet
 facet normal 0.895688 -0.317180 -0.311674
  outer loop
   vertex -420.111192 161.265577 -1100.000000
   vertex -1426.584774 463.525492 -4300.000000
   vertex -1400.370640 537.551924 -4300.000000
  endloop
 endfacet
 facet normal 0.911060 -0.269868 -0.311674
  outer loop
   vertex -427.975432 139.057647 -1100.000000
   vertex -434.666622 116.468570 -1100.000000
   vertex -1448.888739 388.228568 -4300.000000
  endloop
 endfacet
 facet normal 0.911060 -0.269868 -0.311674
  outer loop
   vertex -427.975432 139.057647 -1100.000000
   vertex -1448.888739 388.228568 -4300.000000
   vertex -1426.584774 463.525492 -4300.000000
  endloop
 endfacet
 facet normal 0.923935 -0.221817 -0.311674
  outer loop
   vertex -434.666622 116.468570 -1100.000000
   vertex -440.166420 93.560261 -1100.000000
   vertex -1467.221401 311.867536 -4300.000000
  endloop
 endfacet
 facet normal 0.923935 -0.221817 -0.311674
  outer loop
   vertex -434.666622 116.468570 -1100.000000
   vertex -1467.221401 311.867536 -4300.000000
   vertex -1448.888739 388.228568 -4300.000000
  endloop
 endfacet
 facet normal 0.934278 -0.173158 -0.311674
  outer loop
   vertex -440.166420 93.560261 -1100.000000
   vertex -444.459753 70.395509 -1100.000000
   vertex -1481.532511 234.651698 -4300.000000
  endloop
 endfacet
 facet normal 0.934278 -0.173158 -0.311674
  outer loop
   vertex -440.166420 93.560261 -1100.000000
   vertex -1481.532511 234.651698 -4300.000000
   vertex -1467.221401 311.867536 -4300.000000
  endloop
 endfacet
 facet normal 0.942060 -0.124025 -0.311674
  outer loop
   vertex -444.459753 70.395509 -1100.000000
   vertex -447.534853 47.037808 -1100.000000
   vertex -1491.782843 156.792695 -4300.000000
  endloop
 endfacet
 facet normal 0.942060 -0.124025 -0.311674
  outer loop
   vertex -444.459753 70.395509 -1100.000000
   vertex -1491.782843 156.792695 -4300.000000
   vertex -1481.532511 234.651698 -4300.000000
  endloop
 endfacet
 facet normal 0.947260 -0.074551 -0.311674
  outer loop
   vertex -447.534853 47.037808 -1100.000000
   vertex -449.383291 23.551180 -1100.000000
   vertex -1497.944302 78.503934 -4300.000000
  endloop
 endfacet
 facet normal 0.947260 -0.074551 -0.311674
  outer loop
   vertex -447.534853 47.037808 -1100.000000
   vertex -1497.944302 78.503934 -4300.000000
   vertex -1491.782843 156.792695 -4300.000000
  endloop
 endfacet
 facet normal 0.949864 -0.024873 -0.311674
  outer loop
   vertex -449.383291 23.551180 -1100.000000
   vertex -450.000000 0.000000 -1100.000000
   vertex -1500.000000 0.000000 -4300.000000
  endloop
 endfacet
 facet normal 0.949864 -0.024873 -0.311674
  outer loop
   vertex -449.383291 23.551180 -1100.000000
   vertex -1500.000000 0.000000 -4300.000000
   vertex -1497.944302 78.503934 -4300.000000
  endloop
 endfacet
 facet normal 0.949864 0.024873 -0.311674
  outer loop
   vertex -450.000000 0.000000 -1100.000000
   vertex -449.383291 -23.551180 -1100.000000
   vertex -1497.944302 -78.503934 -4300.000000
  endloop
 endfacet
 facet normal 0.949864 0.024873 -0.311674
  outer loop
   vertex -450.000000 0.000000 -1100.000000
   vertex -1497.944302 -78.503934 -4300.000000
   vertex -1500.000000 0.000000 -4300.000000
  endloop
 endfacet
 facet normal 0.947260 0.074551 -0.311674
  outer loop
   vertex -449.383291 -23.551180 -1100.000000
   vertex -447.534853 -47.037808 -1100.000000
   vertex -1491.782843 -156.792695 -4300.000000
  endloop
 endfacet
 facet normal 0.947260 0.074551 -0.311674
  outer loop
   vertex -449.383291 -23.551180 -1100.000000
   vertex -1491.782843 -156.792695 -4300.000000
   vertex -1497.944302 -78.503934 -4300.000000
  endloop
 endfacet
 facet normal 0.942060 0.124025 -0.311674
  outer loop
   vertex -447.534853 -47.037808 -1100.000000
   vertex -444.459753 -70.395509 -1100.000000
   vertex -1481.532511 -234.651698 -4300.000000
  endloop
 endfacet
 facet normal 0.942060 0.124025 -0.311674
  outer loop
   vertex -447.534853 -47.037808 -1100.000000
   vertex -1481.532511 -234.651698 -4300.000000
   vertex -1491.782843 -156.792695 -4300.000000
  endloop
 endfacet
 facet normal 0.934278 0.173158 -0.311674
  outer loop
   vertex -444.459753 -70.395509 -1100.000000
   vertex -440.166420 -93.560261 -1100.000000
   vertex -1467.221401 -311.867536 -4300.000000
  endloop
 endfacet
 facet normal 0.934278 0.173158 -0.311674
  outer loop
   vertex -444.459753 -70.395509 -1100.000000
   vertex -1467.221401 -311.867536 -4300.000000
   vertex -1481.532511 -234.651698 -4300.000000
  endloop
 endfacet
 facet normal 0.923935 0.221817 -0.311674
  outer loop
   vertex -440.166420 -93.560261 -1100.000000
   vertex -434.666622 -116.468570 -1100.000000
   vertex -1448.888739 -388.228568 -4300.000000
  endloop
 endfacet
 facet normal 0.923935 0.221817 -0.311674
  outer loop
   vertex -440.166420 -93.560261 -1100.000000
   vertex -1448.888739 -388.228568 -4300.000000
   vertex -1467.221401 -311.867536 -4300.000000
  endloop
 endfacet
 facet normal 0.911060 0.269868 -0.311674
  outer loop
   vertex -434.666622 -116.468570 -1100.000000
   vertex -427.975432 -139.057647 -1100.000000
   vertex -1426.584774 -463.525492 -4300.000000
  endloop
 endfacet
 facet normal 0.911060 0.269868 -0.311674
  outer loop
   vertex -434.666622 -116.468570 -1100.000000
   vertex -1426.584774 -463.525492 -4300.000000
   vertex -1448.888739 -388.228568 -4300.000000
  endloop
 endfacet
 facet normal 0.895688 0.317180 -0.311674
  outer loop
   vertex -427.975432 -139.057647 -1100.000000
   vertex -420.111192 -161.265577 -1100.000000
   vertex -1400.370640 -537.551924 -4300.000000
  endloop
 endfacet
 facet normal 0.895688 0.317180 -0.311674
  outer loop
   vertex -427.975432 -139.057647 -1100.000000
   vertex -1400.370640 -537.551924 -4300.000000
   vertex -1426.584774 -463.525492 -4300.000000
  endloop
 endfacet
 facet normal 0.877860 0.363622 -0.311674
  outer loop
   vertex -420.111192 -161.265577 -1100.000000
   vertex -411.095456 -183.031489 -1100.000000
   vertex -1370.318186 -610.104965 -4300.000000
  endloop
 endfacet
 facet normal 0.877860 0.363622 -0.311674
  outer loop
   vertex -420.111192 -161.265577 -1100.000000
   vertex -1370.318186 -610.104965 -4300.000000
   vertex -1400.370640 -537.551924 -4300.000000
  endloop
 endfacet
 facet normal 0.857627 0.409067 -0.311674
  outer loop
   vertex -411.095456 -183.031489 -1100.000000
   vertex -400.952936 -204.295725 -1100.000000
   vertex -1336.509786 -680.985750 -4300.000000
  endloop
 endfacet
 facet normal 0.857627 0.409067 -0.311674
  outer loop
   vertex -411.095456 -183.031489 -1100.000000
   vertex -1336.509786 -680.985750 -4300.000000
   vertex -1370.318186 -610.104965 -4300.000000
  endloop
 endfacet
 facet normal 0.835042 0.453391 -0.311674
  outer loop
   vertex -400.952936 -204.295725 -1100.000000
   vertex -389.711432 -225.000000 -1100.000000
   vertex -1299.038106 -750.000000 -4300.000000
  endloop
 endfacet
 facet normal 0.835042 0.453391 -0.311674
  outer loop
   vertex -400.952936 -204.295725 -1100.000000
   vertex -1299.038106 -750.000000 -4300.000000
   vertex -1336.509786 -680.985750 -4300.000000
  endloop
 endfacet
 facet normal 0.810169 0.496472 -0.311674
  outer loop
   vertex -389.711432 -225.000000 -1100.000000
   vertex -377.401756 -245.087566 -1100.000000
   vertex -1258.005852 -816.958553 -4300.000000
  endloop
 endfacet
 facet normal 0.810169 0.496472 -0.311674
  outer loop
   vertex -389.711432 -225.000000 -1100.000000
   vertex -1258.005852 -816.958553 -4300.000000
   vertex -1299.038106 -750.000000 -4300.000000
  endloop
 endfacet
 facet normal 0.783076 0.538193 -0.311674
  outer loop
   vertex -377.401756 -245.087566 -1100.000000
   vertex -364.057647 -264.503364 -1100.000000
   vertex -1213.525492 -881.677878 -4300.000000
  endloop
 endfacet
 facet normal 0.783076 0.538193 -0.311674
  outer loop
   vertex -377.401756 -245.087566 -1100.000000
   vertex -1213.525492 -881.677878 -4300.000000
   vertex -1258.005852 -816.958553 -4300.000000
  endloop
 endfacet
 facet normal 0.753836 0.578438 -0.311674
  outer loop
   vertex -364.057647 -264.503364 -1100.000000
   vertex -349.715683 -283.194176 -1100.000000
   vertex -1165.718942 -943.980587 -4300.000000
  endloop
 endfacet
 facet normal 0.753836 0.578438 -0.311674
  outer loop
   vertex -364.057647 -264.503364 -1100.000000
   vertex -1165.718942 -943.980587 -4300.000000
   vertex -1213.525492 -881.677878 -4300.000000
  endloop
 endfacet
 facet normal 0.722529 0.617098 -0.311674
  outer loop
   vertex -349.715683 -283.194176 -1100.000000
   vertex -334.415171 -301.108773 -1100.000000
   vertex -1114.717238 -1003.695910 -4300.000000
  endloop
 endfacet
 facet normal 0.722529 0.617098 -0.311674
  outer loop
   vertex -349.715683 -283.194176 -1100.000000
   vertex -1114.717238 -1003.695910 -4300.000000
   vertex -1165.718942 -943.980587 -4300.000000
  endloop
 endfacet
 facet normal 0.689243 0.654067 -0.311674
  outer loop
   vertex -334.415171 -301.108773 -1100.000000
   vertex -318.198052 -318.198052 -1100.000000
   vertex -1060.660172 -1060.660172 -4300.000000
  endloop
 endfacet
 facet normal 0.689243 0.654067 -0.311674
  outer loop
   vertex -334.415171 -301.108773 -1100.000000
   vertex -1060.660172 -1060.660172 -4300.000000
   vertex -1114.717238 -1003.695910 -4300.000000
  endloop
 endfacet
 facet normal 0.654067 0.689243 -0.311674
  outer loop
   vertex -318.198052 -318.198052 -1100.000000
   vertex -301.108773 -334.415171 -1100.000000
   vertex -1003.695910 -1114.717238 -4300.000000
  endloop
 endfacet
 facet normal 0.654067 0.689243 -0.311674
  outer loop
   vertex -318.198052 -318.198052 -1100.000000
   vertex -1003.695910 -1114.717238 -4300.000000
   vertex -1060.660172 -1060.660172 -4300.000000
  endloop
 endfacet
 facet normal 0.617098 0.722529 -0.311674
  outer loop
   vertex -301.108773 -334.415171 -1100.000000
   vertex -283.194176 -349.715683 -1100.000000
   vertex -943.980587 -1165.718942 -4300.000000
  endloop
 endfacet
 facet normal 0.617098 0.722529 -0.311674
  outer loop
   vertex -301.108773 -334.415171 -1100.000000
   vertex -943.980587 -1165.718942 -4300.000000
   vertex -1003.695910 -1114.717238 -4300.000000
  endloop
 endfacet
 facet normal 0.578438 0.753836 -0.311674
  outer loop
   vertex -283.194176 -349.715683 -1100.000000
   vertex -264.503364 -364.057647 -1100.000000
   vertex -881.677878 -1213.525492 -4300.000000
  endloop
 endfacet
 facet normal 0.578438 0.753836 -0.311674
  outer loop
   vertex -283.194176 -349.715683 -1100.000000
   vertex -881.677878 -1213.525492 -4300.000000
   vertex -943.980587 -1165.718942 -4300.000000
  endloop
 endfacet
 facet normal 0.538193 0.783076 -0.311674
  outer loop
   vertex -264.503364 -364.057647 -1100.000000
   vertex -245.087566 -377.401756 -1100.000000
   vertex -816.958553 -1258.005852 -4300.000000
  endloop
 endfacet
 facet normal 0.538193 0.783076 -0.311674
  outer loop
   vertex -264.503364 -364.057647 -1100.000000
   vertex -816.958553 -1258.005852 -4300.000000
   vertex -881.677878 -1213.525492 -4300.000000
  endloop
 endfacet
 facet normal 0.496472 0.810169 -0.311674
  outer loop
   vertex -245.087566 -377.401756 -1100.000000
   vertex -225.000000 -389.711432 -1100.000000
   vertex -750.000000 -1299.038106 -4300.000000
  endloop
 endfacet
 facet normal 0.496472 0.810169 -0.311674
  outer loop
   vertex -245.087566 -377.401756 -1100.000000
   vertex -750.000000 -1299.038106 -4300.000000
   vertex -816.958553 -1258.005852 -4300.000000
  endloop
 endfacet
 facet normal 0.453391 0.835042 -0.311674
  outer loop
   vertex -225.000000 -389.711432 -1100.000000
   vertex -204.295725 -400.952936 -1100.000000
   vertex -680.985750 -1336.509786 -4300.000000
  endloop
 endfacet
 facet normal 0.453391 0.835042 -0.311674
  outer loop
   vertex -225.000000 -389.711432 -1100.000000
   vertex -680.985750 -1336.509786 -4300.000000
   vertex -750.000000 -1299.038106 -4300.000000
  endloop
 endfacet
 facet normal 0.409067 0.857627 -0.311674
  outer loop
   vertex -204.295725 -400.952936 -1100.000000
   vertex -183.031489 -411.095456 -1100.000000
   vertex -610.104965 -1370.318186 -4300.000000
  endloop
 endfacet
 facet normal 0.409067 0.857627 -0.311674
  outer loop
   vertex -204.295725 -400.952936 -1100.000000
   vertex -610.104965 -1370.318186 -4300.000000
   vertex -680.985750 -1336.509786 -4300.000000
  endloop
 endfacet
 facet normal 0.363622 0.877860 -0.311674
  outer loop
   vertex -183.031489 -411.095456 -1100.000000
   vertex -161.265577 -420.111192 -1100.000000
   vertex -537.551924 -1400.370640 -4300.000000
  endloop
 endfacet
 facet normal 0.363622 0.877860 -0.311674
  outer loop
   vertex -183.031489 -411.095456 -1100.000000
   vertex -537.551924 -1400.370640 -4300.000000
   vertex -610.104965 -1370.318186 -4300.000000
  endloop
 endfacet
 facet normal 0.317180 0.895688 -0.311674
  outer loop
   vertex -161.265577 -420.111192 -1100.000000
   vertex -139.057647 -427.975432 -1100.000000
   vertex -463.525492 -1426.584774 -4300.000000
  endloop
 endfacet
 facet normal 0.317180 0.895688 -0.311674
  outer loop
   vertex -161.265577 -420.111192 -1100.000000
   vertex -463.525492 -1426.584774 -4300.000000
   vertex -537.551924 -1400.370640 -4300.000000
  endloop
 endfacet
 facet normal 0.269868 0.911060 -0.311674
  outer loop
   vertex -139.057647 -427.975432 -1100.000000
   vertex -116.468570 -434.666622 -1100.000000
   vertex -388.228568 -1448.888739 -4300.000000
  endloop
 endfacet
 facet normal 0.269868 0.911060 -0.311674
  outer loop
   vertex -139.057647 -427.975432 -1100.000000
   vertex -388.228568 -1448.888739 -4300.000000
   vertex -463.525492 -1426.584774 -4300.000000
  endloop
 endfacet
 facet normal 0.221817 0.923935 -0.311674
  outer loop
   vertex -116.468570 -434.666622 -1100.000000
   vertex -93.560261 -440.166420 -1100.000000
   vertex -311.867536 -1467.221401 -4300.000000
  endloop
 endfacet
 facet normal 0.221817 0.923935 -0.311674
  outer loop
   vertex -116.468570 -434.666622 -1100.000000
   vertex -311.867536 -1467.221401 -4300.000000
   vertex -388.228568 -1448.888739 -4300.000000
  endloop
 endfacet
 facet normal 0.173158 0.934278 -0.311674
  outer loop
   vertex -93.560261 -440.166420 -1100.000000
   vertex -70.395509 -444.459753 -1100.000000
   vertex -234.651698 -1481.532511 -4300.000000
  endloop
 endfacet
 facet normal 0.173158 0.934278 -0.311674
  outer loop
   vertex -93.560261 -440.166420 -1100.000000
   vertex -234.651698 -1481.532511 -4300.000000
   vertex -311.867536 -1467.221401 -4300.000000
  endloop
 endfacet
 facet normal 0.124025 0.942060 -0.311674
  outer loop
   vertex -70.395509 -444.459753 -1100.000000
   vertex -47.037808 -447.534853 -1100.000000
   vertex -156.792695 -1491.782843 -4300.000000
  endloop
 endfacet
 facet normal 0.124025 0.942060 -0.311674
  outer loop
   vertex -70.395509 -444.459753 -1100.000000
   vertex -156.792695 -1491.782843 -4300.000000
   vertex -234.651698 -1481.532511 -4300.000000
  endloop
 endfacet
 facet normal 0.074551 0.947260 -0.311674
  outer loop
   vertex -47.037808 -447.534853 -1100.000000
   vertex -23.551180 -449.383291 -1100.000000
   vertex -78.503934 -1497.944302 -4300.000000
  endloop
 endfacet
 facet normal 0.074551 0.947260 -0.311674
  outer loop
   vertex -47.037808 -447.534853 -1100.000000
   vertex -78.503934 -1497.944302 -4300.000000
   vertex -156.792695 -1491.782843 -4300.000000
  endloop
 endfacet
 facet normal 0.024873 0.949864 -0.311674
  outer loop
   vertex -23.551180 -449.383291 -1100.000000
   vertex -0.000000 -450.000000 -1100.000000
   vertex -0.000000 -1500.000000 -4300.000000
  endloop
 endfacet
 facet normal 0.024873 0.949864 -0.311674
  outer loop
   vertex -23.551180 -449.383291 -1100.000000
   vertex -0.000000 -1500.000000 -4300.000000
   vertex -78.503934 -1497.944302 -4300.000000
  endloop
 endfacet
 facet normal -0.024873 0.949864 -0.311674
  outer loop
   vertex -0.000000 -450.000000 -1100.000000
   vertex 23.551180 -449.383291 -1100.000000
   vertex 78.503934 -1497.944302 -4300.000000
  endloop
 endfacet
 facet normal -0.024873 0.949864 -0.311674
  outer loop
   vertex -0.000000 -450.000000 -1100.000000
   vertex 78.503934 -1497.944302 -4300.000000
   vertex -0.000000 -1500.000000 -4300.000000
  endloop
 endfacet
 facet normal -0.074551 0.947260 -0.311674
  outer loop
   vertex 23.551180 -449.383291 -1100.000000
   vertex 47.037808 -447.534853 -1100.000000
   vertex 156.792695 -1491.782843 -4300.000000
  endloop
 endfacet
 facet normal -0.074551 0.947260 -0.311674
  outer loop
   vertex 23.551180 -449.383291 -1100.000000
   vertex 156.792695 -1491.782843 -4300.000000
   vertex 78.503934 -1497.944302 -4300.000000
  endloop
 endfacet
 facet normal -0.124025 0.942060 -0.311674
  outer loop
   vertex 47.037808 -447.534853 -1100.000000
   vertex 70.395509 -444.459753 -1100.000000
   vertex 234.651698 -1481.532511 -4300.000000
  endloop
 endfacet
 facet normal -0.124025 0.942060 -0.311674
  outer loop
   vertex 47.037808 -447.534853 -1100.000000
   vertex 234.651698 -1481.532511 -4300.000000
   vertex 156.792695 -1491.782843 -4300.000000
  endloop
 endfacet
 facet normal -0.173158 0.934278 -0.311674
  outer loop
   vertex 70.395509 -444.459753 -1100.000000
   vertex 93.560261 -440.166420 -1100.000000
   vertex 311.867536 -1467.221401 -4300.000000
  endloop
 endfacet
 facet normal -0.173158 0.934278 -0.311674
  outer loop
   vertex 70.395509 -444.459753 -1100.000000
   vertex 311.867536 -1467.221401 -4300.000000
   vertex 234.651698 -1481.532511 -4300.000000
  endloop
 endfacet
 facet normal -0.221817 0.923935 -0.311674
  outer loop
   vertex 93.560261 -440.166420 -1100.000000
   vertex 116.468570 -434.666622 -1100.000000
   vertex 388.228568 -1448.888739 -4300.000000
  endloop
 endfacet
 facet normal -0.221817 0.923935 -0.311674
  outer loop
   vertex 93.560261 -440.166420 -1100.000000
   vertex 388.228568 -1448.888739 -4300.000000
   vertex 311.867536 -1467.221401 -4300.000000
  endloop
 endfacet
 facet normal -0.269868 0.911060 -0.311674
  outer loop
   vertex 116.468570 -434.666622 -1100.000000
   vertex 139.057647 -427.975432 -1100.000000
   vertex 463.525492 -1426.584774 -4300.000000
  endloop
 endfacet
 facet normal -0.269868 0.911060 -0.311674
  outer loop
   vertex 116.468570 -434.666622 -1100.000000
   vertex 463.525492 -1426.584774 -4300.000000
   vertex 388.228568 -1448.888739 -4300.000000
  endloop
 endfacet
 facet normal -0.317180 0.895688 -0.311674
  outer loop
   vertex 139.057647 -427.975432 -1100.000000
   vertex 161.265577 -420.111192 -1100.000000
   vertex 537.551924 -1400.370640 -4300.000000
  endloop
 endfacet
 facet normal -0.317180 0.895688 -0.311674
  outer loop
   vertex 139.057647 -427.975432 -1100.000000
   vertex 537.551924 -1400.370640 -4300.000000
   vertex 463.525492 -1426.584774 -4300.000000
  endloop
 endfacet
 facet normal -0.363622 0.877860 -0.311674
  outer loop
   vertex 161.265577 -420.111192 -1100.000000
   vertex 183.031489 -411.095456 -1100.000000
   vertex 610.104965 -1370.318186 -4300.000000
  endloop
 endfacet
 facet normal -0.363622 0.877860 -0.311674
  outer loop
   vertex 161.265577 -420.111192 -1100.000000
   vertex 610.104965 -1370.318186 -4300.000000
   vertex 537.551924 -1400.370640 -4300.000000
  endloop
 endfacet
 facet normal -0.409067 0.857627 -0.311674
  outer loop
   vertex 183.031489 -411.095456 -1100.000000
   vertex 204.295725 -400.952936 -1100.000000
   vertex 680.985750 -1336.509786 -4300.000000
  endloop
 endfacet
 facet normal -0.409067 0.857627 -0.311674
  outer loop
   vertex 183.031489 -411.095456 -1100.000000
   vertex 680.985750 -1336.509786 -4300.000000
   vertex 610.104965 -1370.318186 -4300.000000
  endloop
 endfacet
 facet normal -0.453391 0.835042 -0.311674
  outer loop
   vertex 204.295725 -400.952936 -1100.000000
   vertex 225.000000 -389.711432 -1100.000000
   vertex 750.000000 -1299.038106 -4300.000000
  endloop
 endfacet
 facet normal -0.453391 0.835042 -0.311674
  outer loop
   vertex 204.295725 -400.952936 -1100.000000
   vertex 750.000000 -1299.038106 -4300.000000
   vertex 680.985750 -1336.509786 -4300.000000
  endloop
 endfacet
 facet normal -0.496472 0.810169 -0.311674
  outer loop
   vertex 225.000000 -389.711432 -1100.000000
   vertex 245.087566 -377.401756 -1100.000000
   vertex 816.958553 -1258.005852 -4300.000000
  endloop
 endfacet
 facet normal -0.496472 0.810169 -0.311674
  outer loop
   vertex 225.000000 -389.711432 -1100.000000
   vertex 816.958553 -1258.005852 -4300.000000
   vertex 750.000000 -1299.038106 -4300.000000
  endloop
 endfacet
 facet normal -0.538193 0.783076 -0.311674
  outer loop
   vertex 245.087566 -377.401756 -1100.000000
   vertex 264.503364 -364.057647 -1100.000000
   vertex 881.677878 -1213.525492 -4300.000000
  endloop
 endfacet
 facet normal -0.538193 0.783076 -0.311674
  outer loop
   vertex 245.087566 -377.401756 -1100.000000
   vertex 881.677878 -1213.525492 -4300.000000
   vertex 816.958553 -1258.005852 -4300.000000
  endloop
 endfacet
 facet normal -0.578438 0.753836 -0.311674
  outer loop
   vertex 264.503364 -364.057647 -1100.000000
   vertex 283.194176 -349.715683 -1100.000000
   vertex 943.980587 -1165.718942 -4300.000000
  endloop
 endfacet
 facet normal -0.578438 0.753836 -0.311674
  outer loop
   vertex 264.503364 -364.057647 -1100.000000
   vertex 943.980587 -1165.718942 -4300.000000
   vertex 881.677878 -1213.525492 -4300.000000
  endloop
 endfacet
 facet normal -0.617098 0.722529 -0.311674
  outer loop
   vertex 283.194176 -349.715683 -1100.000000
   vertex 301.108773 -334.415171 -1100.000000
   vertex 1003.695910 -1114.717238 -4300.000000
  endloop
 endfacet
 facet normal -0.617098 0.722529 -0.311674
  outer loop
   vertex 283.194176 -349.715683 -1100.000000
   vertex 1003.695910 -1114.717238 -4300.000000
   vertex 943.980587 -1165.718942 -4300.000000
  endloop
 endfacet
 facet normal -0.654067 0.689243 -0.311674
  outer loop
   vertex 301.108773 -334.415171 -1100.000000
   vertex 318.198052 -318.198052 -1100.000000
   vertex 1060.660172 -1060.660172 -4300.000000
  endloop
 endfacet
 facet normal -0.654067 0.689243 -0.311674
  outer loop
   vertex 301.108773 -334.415171 -1100.000000
   vertex 1060.660172 -1060.660172 -4300.000000
   vertex 1003.695910 -1114.717238 -4300.000000
  endloop
 endfacet
 facet normal -0.689243 0.654067 -0.311674
  outer loop
   vertex 318.198052 -318.198052 -1100.000000
   vertex 334.415171 -301.108773 -1100.000000
   vertex 1114.717238 -1003.695910 -4300.000000
  endloop
 endfacet
 facet normal -0.689243 0.654067 -0.311674
  outer loop
   vertex 318.198052 -318.198052 -1100.000000
   vertex 1114.717238 -1003.695910 -4300.000000
   vertex 1060.660172 -1060.660172 -4300.000000
  endloop
 endfacet
 facet normal -0.722529 0.617098 -0.311674
  outer loop
   vertex 334.415171 -301.108773 -1100.000000
   vertex 349.715683 -283.194176 -1100.000000
   vertex 1165.718942 -943.980587 -4300.000000
  endloop
 endfacet
 facet normal -0.722529 0.617098 -0.311674
  outer loop
   vertex 334.415171 -301.108773 -1100.000000
   vertex 1165.718942 -943.980587 -4300.000000
   vertex 1114.717238 -1003.695910 -4300.000000
  endloop
 endfacet
 facet normal -0.753836 0.578438 -0.311674
  outer loop
   vertex 349.715683 -283.194176 -1100.000000
   vertex 364.057647 -264.503364 -1100.000000
   vertex 1213.525492 -881.677878 -4300.000000
  endloop
 endfacet
 facet normal -0.753836 0.578438 -0.311674
  outer loop
   vertex 349.715683 -283.194176 -1100.000000
   vertex 1213.525492 -881.677878 -4300.000000
   vertex 1165.718942 -943.980587 -4300.000000
  endloop
 endfacet
 facet normal -0.783076 0.538193 -0.311674
  outer loop
   vertex 364.057647 -264.503364 -1100.000000
   vertex 377.401756 -245.087566 -1100.000000
   vertex 1258.005852 -816.958553 -4300.000000
  endloop
 endfacet
 facet normal -0.783076 0.538193 -0.311674
  outer loop
   vertex 364.057647 -264.503364 -1100.000000
   vertex 1258.005852 -816.958553 -4300.000000
   vertex 1213.525492 -881.677878 -4300.000000
  endloop
 endfacet
 facet normal -0.810169 0.496472 -0.311674
  outer loop
   vertex 377.401756 -245.087566 -1100.000000
   vertex 389.711432 -225.000000 -1100.000000
   vertex 1299.038106 -750.000000 -4300.000000
  endloop
 endfacet
 facet normal -0.810169 0.496472 -0.311674
  outer loop
   vertex 377.401756 -245.087566 -1100.000000
   vertex 1299.038106 -750.000000 -4300.000000
   vertex 1258.005852 -816.958553 -4300.000000
  endloop
 endfacet
 facet normal -0.835042 0.453391 -0.311674
  outer loop
   vertex 389.711432 -225.000000 -1100.000000
   vertex 400.952936 -204.295725 -1100.000000
   vertex 1336.509786 -680.985750 -4300.000000
  endloop
 endfacet
 facet normal -0.835042 0.453391 -0.311674
  outer loop
   vertex 389.711432 -225.000000 -1100.000000
   vertex 1336.509786 -680.985750 -4300.000000
   vertex 1299.038106 -750.000000 -4300.000000
  endloop
 endfacet
 facet normal -0.857627 0.409067 -0.311674
  outer loop
   vertex 400.952936 -204.295725 -1100.000000
   vertex 411.095456 -183.031489 -1100.000000
   vertex 1370.318186 -610.104965 -4300.000000
  endloop
 endfacet
 facet normal -0.857627 0.409067 -0.311674
  outer loop
   vertex 400.952936 -204.295725 -1100.000000
   vertex 1370.318186 -610.104965 -4300.000000
   vertex 1336.509786 -680.985750 -4300.000000
  endloop
 endfacet
 facet normal -0.877860 0.363622 -0.311674
  outer loop
   vertex 411.095456 -183.031489 -1100.000000
   vertex 420.111192 -161.265577 -1100.000000
   vertex 1400.370640 -537.551924 -4300.000000
  endloop
 endfacet
 facet normal -0.877860 0.363622 -0.311674
  outer loop
   vertex 411.095456 -183.031489 -1100.000000
   vertex 1400.370640 -537.551924 -4300.000000
   vertex 1370.318186 -610.104965 -4300.000000
  endloop
 endfacet
 facet normal -0.895688 0.317180 -0.311674
  outer loop
   vertex 420.111192 -161.265577 -1100.000000
   vertex 427.975432 -139.057647 -1100.000000
   vertex 1426.584774 -463.525492 -4300.000000
  endloop
 endfacet
 facet normal -0.895688 0.317180 -0.311674
  outer loop
   vertex 420.111192 -161.265577 -1100.000000
   vertex 1426.584774 -463.525492 -4300.000000
   vertex 1400.370640 -537.551924 -4300.000000
  endloop
 endfacet
 facet normal -0.911060 0.269868 -0.311674
  outer loop
   vertex 427.975432 -139.057647 -1100.000000
   vertex 434.666622 -116.468570 -1100.000000
   vertex 1448.888739 -388.228568 -4300.000000
  endloop
 endfacet
 facet normal -0.911060 0.269868 -0.311674
  outer loop
   vertex 427.975432 -139.057647 -1100.000000
   vertex 1448.888739 -388.228568 -4300.000000
   vertex 1426.584774 -463.525492 -4300.000000
  endloop
 endfacet
 facet normal -0.923935 0.221817 -0.311674
  outer loop
   vertex 434.666622 -116.468570 -1100.000000
   vertex 440.166420 -93.560261 -1100.000000
   vertex 1467.221401 -311.867536 -4300.000000
  endloop
 endfacet
 facet normal -0.923935 0.221817 -0.311674
  outer loop
   vertex 434.666622 -116.468570 -1100.000000
   vertex 1467.221401 -311.867536 -4300.000000
   vertex 1448.888739 -388.228568 -4300.000000
  endloop
 endfacet
 facet normal -0.934278 0.173158 -0.311674
  outer loop
   vertex 440.166420 -93.560261 -1100.000000
   vertex 444.459753 -70.395509 -1100.000000
   vertex 1481.532511 -234.651698 -4300.000000
  endloop
 endfacet
 facet normal -0.934278 0.173158 -0.311674
  outer loop
   vertex 440.166420 -93.560261 -1100.000000
   vertex 1481.532511 -234.651698 -4300.000000
   vertex 1467.221401 -311.867536 -4300.000000
  endloop
 endfacet
 facet normal -0.942060 0.124025 -0.311674
  outer loop
   vertex 444.459753 -70.395509 -1100.000000
   vertex 447.534853 -47.037808 -1100.000000
   vertex 1491.782843 -156.792695 -4300.000000
  endloop
 endfacet
 facet normal -0.942060 0.124025 -0.311674
  outer loop
   vertex 444.459753 -70.395509 -1100.000000
   vertex 1491.782843 -156.792695 -4300.000000
   vertex 1481.532511 -234.651698 -4300.000000
  endloop
 endfacet
 facet normal -0.947260 0.074551 -0.311674
  outer loop
   vertex 447.534853 -47.037808 -1100.000000
   vertex 449.383291 -23.551180 -1100.000000
   vertex 1497.944302 -78.503934 -4300.000000
  endloop
 endfacet
 facet normal -0.947260 0.074551 -0.311674
  outer loop
   vertex 447.534853 -47.037808 -1100.000000
   vertex 1497.944302 -78.503934 -4300.000000
   vertex 1491.782843 -156.792695 -4300.000000
  endloop
 endfacet
 facet normal -0.949864 0.024873 -0.311674
  outer loop
   vertex 449.383291 -23.551180 -1100.000000
   vertex 450.000000 0.000000 -1100.000000
   vertex 1500.000000 0.000000 -4300.000000
  endloop
 endfacet
 facet normal -0.949864 0.024873 -0.311674
  outer loop
   vertex 449.383291 -23.551180 -1100.000000
   vertex 1500.000000 0.000000 -4300.000000
   vertex 1497.944302 -78.503934 -4300.000000
  endloop
 endfacet
endsolid J2_nozzle_2
