solid SIC_LOX_downcomer
 facet normal 0.065349 0.997859 -0.002652
  outer loop
   vertex 4700.000000 93.500000 37100.000000
   vertex 4712.194161 92.700095 37099.505118
   vertex 3182.194161 92.700095 -600.494882
  endloop
 endfacet
 facet normal 0.065349 0.997859 -0.002652
  outer loop
   vertex 4700.000000 93.500000 37100.000000
   vertex 3182.194161 92.700095 -600.494882
   vertex 3170.000000 93.500000 -600.000000
  endloop
 endfacet
 facet normal 0.194930 0.980785 -0.007911
  outer loop
   vertex 4712.194161 92.700095 37099.505118
   vertex 4724.179677 90.314065 37099.018703
   vertex 3194.179677 90.314065 -600.981297
  endloop
 endfacet
 facet normal 0.194930 0.980785 -0.007911
  outer loop
   vertex 4712.194161 92.700095 37099.505118
   vertex 3194.179677 90.314065 -600.981297
   vertex 3182.194161 92.700095 -600.494882
  endloop
 endfacet
 facet normal 0.321175 0.946930 -0.013034
  outer loop
   vertex 4724.179677 90.314065 37099.018703
   vertex 4735.751471 86.382736 37098.549078
   vertex 3205.751471 86.382736 -601.450922
  endloop
 endfacet
 facet normal 0.321175 0.946930 -0.013034
  outer loop
   vertex 4724.179677 90.314065 37099.018703
   vertex 3205.751471 86.382736 -601.450922
   vertex 3194.179677 90.314065 -600.981297
  endloop
 endfacet
 facet normal 0.441925 0.896873 -0.017935
  outer loop
   vertex 4735.751471 86.382736 37098.549078
   vertex 4746.711548 80.973375 37098.104279
   vertex 3216.711548 80.973375 -601.895721
  endloop
 endfacet
 facet normal 0.441925 0.896873 -0.017935
  outer loop
   vertex 4735.751471 86.382736 37098.549078
   vertex 3216.711548 80.973375 -601.895721
   vertex 3205.751471 86.382736 -601.450922
  endloop
 endfacet
 facet normal 0.555113 0.831470 -0.022528
  outer loop
   vertex 4746.711548 80.973375 37098.104279
   vertex 4756.872378 74.178537 37097.691917
   vertex 3226.872378 74.178537 -602.308083
  endloop
 endfacet
 facet normal 0.555113 0.831470 -0.022528
  outer loop
   vertex 4746.711548 80.973375 37098.104279
   vertex 3226.872378 74.178537 -602.308083
   vertex 3216.711548 80.973375 -601.895721
  endloop
 endfacet
 facet normal 0.658804 0.751840 -0.026737
  outer loop
   vertex 4756.872378 74.178537 37097.691917
   vertex 4766.060105 66.114484 37097.319046
   vertex 3236.060105 66.114484 -602.680954
  endloop
 endfacet
 facet normal 0.658804 0.751840 -0.026737
  outer loop
   vertex 4756.872378 74.178537 37097.691917
   vertex 3236.060105 66.114484 -602.680954
   vertex 3226.872378 74.178537 -602.308083
  endloop
 endfacet
 facet normal 0.751221 0.659346 -0.030487
  outer loop
   vertex 4766.060105 66.114484 37097.319046
   vertex 4774.117526 56.919194 37096.992047
   vertex 3244.117526 56.919194 -603.007953
  endloop
 endfacet
 facet normal 0.751221 0.659346 -0.030487
  outer loop
   vertex 4766.060105 66.114484 37097.319046
   vertex 3244.117526 56.919194 -603.007953
   vertex 3236.060105 66.114484 -602.680954
  endloop
 endfacet
 facet normal 0.830786 0.555570 -0.033716
  outer loop
   vertex 4774.117526 56.919194 37096.992047
   vertex 4780.906775 46.750000 37096.716516
   vertex 3250.906775 46.750000 -603.283484
  endloop
 endfacet
 facet normal 0.830786 0.555570 -0.033716
  outer loop
   vertex 4774.117526 56.919194 37096.992047
   vertex 3250.906775 46.750000 -603.283484
   vertex 3244.117526 56.919194 -603.007953
  endloop
 endfacet
 facet normal 0.896135 0.442289 -0.036368
  outer loop
   vertex 4780.906775 46.750000 37096.716516
   vertex 4786.311687 35.780901 37096.497165
   vertex 3256.311687 35.780901 -603.502835
  endloop
 endfacet
 facet normal 0.896135 0.442289 -0.036368
  outer loop
   vertex 4780.906775 46.750000 37096.716516
   vertex 3256.311687 35.780901 -603.502835
   vertex 3250.906775 46.750000 -603.283484
  endloop
 endfacet
 facet normal 0.946151 0.321439 -0.038398
  outer loop
   vertex 4786.311687 35.780901 37096.497165
   vertex 4790.239782 24.199581 37096.337749
   vertex 3260.239782 24.199581 -603.662251
  endloop
 endfacet
 facet normal 0.946151 0.321439 -0.038398
  outer loop
   vertex 4786.311687 35.780901 37096.497165
   vertex 3260.239782 24.199581 -603.662251
   vertex 3256.311687 35.780901 -603.502835
  endloop
 endfacet
 facet normal 0.979979 0.195090 -0.039771
  outer loop
   vertex 4790.239782 24.199581 37096.337749
   vertex 4792.623849 12.204199 37096.240995
   vertex 3262.623849 12.204199 -603.759005
  endloop
 endfacet
 facet normal 0.979979 0.195090 -0.039771
  outer loop
   vertex 4790.239782 24.199581 37096.337749
   vertex 3262.623849 12.204199 -603.759005
   vertex 3260.239782 24.199581 -603.662251
  endloop
 endfacet
 facet normal 0.997038 0.065403 -0.040463
  outer loop
   vertex 4792.623849 12.204199 37096.240995
   vertex 4793.423097 0.000000 37096.208559
   vertex 3263.423097 0.000000 -603.791441
  endloop
 endfacet
 facet normal 0.997038 0.065403 -0.040463
  outer loop
   vertex 4792.623849 12.204199 37096.240995
   vertex 3263.423097 0.000000 -603.791441
   vertex 3262.623849 12.204199 -603.759005
  endloop
 endfacet
 facet normal 0.997038 -0.065403 -0.040463
  outer loop
   vertex 4793.423097 0.000000 37096.208559
   vertex 4792.623849 -12.204199 37096.240995
   vertex 3262.623849 -12.204199 -603.759005
  endloop
 endfacet
 facet normal 0.997038 -0.065403 -0.040463
  outer loop
   vertex 4793.423097 0.000000 37096.208559
   vertex 3262.623849 -12.204199 -603.759005
   vertex 3263.423097 0.000000 -603.791441
  endloop
 endfacet
 facet normal 0.979979 -0.195090 -0.039771
  outer loop
   vertex 4792.623849 -12.204199 37096.240995
   vertex 4790.239782 -24.199581 37096.337749
   vertex 3260.239782 -24.199581 -603.662251
  endloop
 endfacet
 facet normal 0.979979 -0.195090 -0.039771
  outer loop
   vertex 4792.623849 -12.204199 37096.240995
   vertex 3260.239782 -24.199581 -603.662251
   vertex 3262.623849 -12.204199 -603.759005
  endloop
 endfacet
 facet normal 0.946151 -0.321439 -0.038398
  outer loop
   vertex 4790.239782 -24.199581 37096.337749
   vertex 4786.311687 -35.780901 37096.497165
   vertex 3256.311687 -35.780901 -603.502835
  endloop
 endfacet
 facet normal 0.946151 -0.321439 -0.038398
  outer loop
   vertex 4790.239782 -24.199581 37096.337749
   vertex 3256.311687 -35.780901 -603.502835
   vertex 3260.239782 -24.199581 -603.662251
  endloop
 endfacet
 facet normal 0.896135 -0.442289 -0.036368
  outer loop
   vertex 4786.311687 -35.780901 37096.497165
   vertex 4780.906775 -46.750000 37096.716516
   vertex 3250.906775 -46.750000 -603.283484
  endloop
 endfacet
 facet normal 0.896135 -0.442289 -0.036368
  outer loop
   vertex 4786.311687 -35.780901 37096.497165
   vertex 3250.906775 -46.750000 -603.283484
   vertex 3256.311687 -35.780901 -603.502835
  endloop
 endfacet
 facet normal 0.830786 -0.555570 -0.033716
  outer loop
   vertex 4780.906775 -46.750000 37096.716516
   vertex 4774.117526 -56.919194 37096.992047
   vertex 3244.117526 -56.919194 -603.007953
  endloop
 endfacet
 facet normal 0.830786 -0.555570 -0.033716
  outer loop
   vertex 4780.906775 -46.750000 37096.716516
   vertex 3244.117526 -56.919194 -603.007953
   vertex 3250.906775 -46.750000 -603.283484
  endloop
 endfacet
 facet normal 0.751221 -0.659346 -0.030487
  outer loop
   vertex 4774.117526 -56.919194 37096.992047
   vertex 4766.060105 -66.114484 37097.319046
   vertex 3236.060105 -66.114484 -602.680954
  endloop
 endfacet
 facet normal 0.751221 -0.659346 -0.030487
  outer loop
   vertex 4774.117526 -56.919194 37096.992047
   vertex 3236.060105 -66.114484 -602.680954
   vertex 3244.117526 -56.919194 -603.007953
  endloop
 endfacet
 facet normal 0.658804 -0.751840 -0.026737
  outer loop
   vertex 4766.060105 -66.114484 37097.319046
   vertex 4756.872378 -74.178537 37097.691917
   vertex 3226.872378 -74.178537 -602.308083
  endloop
 endfacet
 facet normal 0.658804 -0.751840 -0.026737
  outer loop
   vertex 4766.060105 -66.114484 37097.319046
   vertex 3226.872378 -74.178537 -602.308083
   vertex 3236.060105 -66.114484 -602.680954
  endloop
 endfacet
 facet normal 0.555113 -0.831470 -0.022528
  outer loop
   vertex 4756.872378 -74.178537 37097.691917
   vertex 4746.711548 -80.973375 37098.104279
   vertex 3216.711548 -80.973375 -601.895721
  endloop
 endfacet
 facet normal 0.555113 -0.831470 -0.022528
  outer loop
   vertex 4756.872378 -74.178537 37097.691917
   vertex 3216.711548 -80.973375 -601.895721
   vertex 3226.872378 -74.178537 -602.308083
  endloop
 endfacet
 facet normal 0.441925 -0.896873 -0.017935
  outer loop
   vertex 4746.711548 -80.973375 37098.104279
   vertex 4735.751471 -86.382736 37098.549078
   vertex 3205.751471 -86.382736 -601.450922
  endloop
 endfacet
 facet normal 0.441925 -0.896873 -0.017935
  outer loop
   vertex 4746.711548 -80.973375 37098.104279
   vertex 3205.751471 -86.382736 -601.450922
   vertex 3216.711548 -80.973375 -601.895721
  endloop
 endfacet
 facet normal 0.321175 -0.946930 -0.013034
  outer loop
   vertex 4735.751471 -86.382736 37098.549078
   vertex 4724.179677 -90.314065 37099.018703
   vertex 3194.179677 -90.314065 -600.981297
  endloop
 endfacet
 facet normal 0.321175 -0.946930 -0.013034
  outer loop
   vertex 4735.751471 -86.382736 37098.549078
   vertex 3194.179677 -90.314065 -600.981297
   vertex 3205.751471 -86.382736 -601.450922
  endloop
 endfacet
 facet normal 0.194930 -0.980785 -0.007911
  outer loop
   vertex 4724.179677 -90.314065 37099.018703
   vertex 4712.194161 -92.700095 37099.505118
   vertex 3182.194161 -92.700095 -600.494882
  endloop
 endfacet
 facet normal 0.194930 -0.980785 -0.007911
  outer loop
   vertex 4724.179677 -90.314065 37099.018703
   vertex 3182.194161 -92.700095 -600.494882
   vertex 3194.179677 -90.314065 -600.981297
  endloop
 endfacet
 facet normal 0.065349 -0.997859 -0.002652
  outer loop
   vertex 4712.194161 -92.700095 37099.505118
   vertex 4700.000000 -93.500000 37100.000000
   vertex 3170.000000 -93.500000 -600.000000
  endloop
 endfacet
 facet normal 0.065349 -0.997859 -0.002652
  outer loop
   vertex 4712.194161 -92.700095 37099.505118
   vertex 3170.000000 -93.500000 -600.000000
   vertex 3182.194161 -92.700095 -600.494882
  endloop
 endfacet
 facet normal -0.065349 -0.997859 0.002652
  outer loop
   vertex 4700.000000 -93.500000 37100.000000
   vertex 4687.805839 -92.700095 37100.494882
   vertex 3157.805839 -92.700095 -599.505118
  endloop
 endfacet
 facet normal -0.065349 -0.997859 0.002652
  outer loop
   vertex 4700.000000 -93.500000 37100.000000
   vertex 3157.805839 -92.700095 -599.505118
   vertex 3170.000000 -93.500000 -600.000000
  endloop
 endfacet
 facet normal -0.194930 -0.980785 0.007911
  outer loop
   vertex 4687.805839 -92.700095 37100.494882
   vertex 4675.820323 -90.314065 37100.981297
   vertex 3145.820323 -90.314065 -599.018703
  endloop
 endfacet
 facet normal -0.194930 -0.980785 0.007911
  outer loop
   vertex 4687.805839 -92.700095 37100.494882
   vertex 3145.820323 -90.314065 -599.018703
   vertex 3157.805839 -92.700095 -599.505118
  endloop
 endfacet
 facet normal -0.321175 -0.946930 0.013034
  outer loop
   vertex 4675.820323 -90.314065 37100.981297
   vertex 4664.248529 -86.382736 37101.450922
   vertex 3134.248529 -86.382736 -598.549078
  endloop
 endfacet
 facet normal -0.321175 -0.946930 0.013034
  outer loop
   vertex 4675.820323 -90.314065 37100.981297
   vertex 3134.248529 -86.382736 -598.549078
   vertex 3145.820323 -90.314065 -599.018703
  endloop
 endfacet
 facet normal -0.441925 -0.896873 0.017935
  outer loop
   vertex 4664.248529 -86.382736 37101.450922
   vertex 4653.288452 -80.973375 37101.895721
   vertex 3123.288452 -80.973375 -598.104279
  endloop
 endfacet
 facet normal -0.441925 -0.896873 0.017935
  outer loop
   vertex 4664.248529 -86.382736 37101.450922
   vertex 3123.288452 -80.973375 -598.104279
   vertex 3134.248529 -86.382736 -598.549078
  endloop
 endfacet
 facet normal -0.555113 -0.831470 0.022528
  outer loop
   vertex 4653.288452 -80.973375 37101.895721
   vertex 4643.127622 -74.178537 37102.308083
   vertex 3113.127622 -74.178537 -597.691917
  endloop
 endfacet
 facet normal -0.555113 -0.831470 0.022528
  outer loop
   vertex 4653.288452 -80.973375 37101.895721
   vertex 3113.127622 -74.178537 -597.691917
   vertex 3123.288452 -80.973375 -598.104279
  endloop
 endfacet
 facet normal -0.658804 -0.751840 0.026737
  outer loop
   vertex 4643.127622 -74.178537 37102.308083
   vertex 4633.939895 -66.114484 37102.680954
   vertex 3103.939895 -66.114484 -597.319046
  endloop
 endfacet
 facet normal -0.658804 -0.751840 0.026737
  outer loop
   vertex 4643.127622 -74.178537 37102.308083
   vertex 3103.939895 -66.114484 -597.319046
   vertex 3113.127622 -74.178537 -597.691917
  endloop
 endfacet
 facet normal -0.751221 -0.659346 0.030487
  outer loop
   vertex 4633.939895 -66.114484 37102.680954
   vertex 4625.882474 -56.919194 37103.007953
   vertex 3095.882474 -56.919194 -596.992047
  endloop
 endfacet
 facet normal -0.751221 -0.659346 0.030487
  outer loop
   vertex 4633.939895 -66.114484 37102.680954
   vertex 3095.882474 -56.919194 -596.992047
   vertex 3103.939895 -66.114484 -597.319046
  endloop
 endfacet
 facet normal -0.830786 -0.555570 0.033716
  outer loop
   vertex 4625.882474 -56.919194 37103.007953
   vertex 4619.093225 -46.750000 37103.283484
   vertex 3089.093225 -46.750000 -596.716516
  endloop
 endfacet
 facet normal -0.830786 -0.555570 0.033716
  outer loop
   vertex 4625.882474 -56.919194 37103.007953
   vertex 3089.093225 -46.750000 -596.716516
   vertex 3095.882474 -56.919194 -596.992047
  endloop
 endfacet
 facet normal -0.896135 -0.442289 0.036368
  outer loop
   vertex 4619.093225 -46.750000 37103.283484
   vertex 4613.688313 -35.780901 37103.502835
   vertex 3083.688313 -35.780901 -596.497165
  endloop
 endfacet
 facet normal -0.896135 -0.442289 0.036368
  outer loop
   vertex 4619.093225 -46.750000 37103.283484
   vertex 3083.688313 -35.780901 -596.497165
   vertex 3089.093225 -46.750000 -596.716516
  endloop
 endfacet
 facet normal -0.946151 -0.321439 0.038398
  outer loop
   vertex 4613.688313 -35.780901 37103.502835
   vertex 4609.760218 -24.199581 37103.662251
   vertex 3079.760218 -24.199581 -596.337749
  endloop
 endfacet
 facet normal -0.946151 -0.321439 0.038398
  outer loop
   vertex 4613.688313 -35.780901 37103.502835
   vertex 3079.760218 -24.199581 -596.337749
   vertex 3083.688313 -35.780901 -596.497165
  endloop
 endfacet
 facet normal -0.979979 -0.195090 0.039771
  outer loop
   vertex 4609.760218 -24.199581 37103.662251
   vertex 4607.376151 -12.204199 37103.759005
   vertex 3077.376151 -12.204199 -596.240995
  endloop
 endfacet
 facet normal -0.979979 -0.195090 0.039771
  outer loop
   vertex 4609.760218 -24.199581 37103.662251
   vertex 3077.376151 -12.204199 -596.240995
   vertex 3079.760218 -24.199581 -596.337749
  endloop
 endfacet
 facet normal -0.997038 -0.065403 0.040463
  outer loop
   vertex 4607.376151 -12.204199 37103.759005
   vertex 4606.576903 -0.000000 37103.791441
   vertex 3076.576903 -0.000000 -596.208559
  endloop
 endfacet
 facet normal -0.997038 -0.065403 0.040463
  outer loop
   vertex 4607.376151 -12.204199 37103.759005
   vertex 3076.576903 -0.000000 -596.208559
   vertex 3077.376151 -12.204199 -596.240995
  endloop
 endfacet
 facet normal -0.997038 0.065403 0.040463
  outer loop
   vertex 4606.576903 -0.000000 37103.791441
   vertex 4607.376151 12.204199 37103.759005
   vertex 3077.376151 12.204199 -596.240995
  endloop
 endfacet
 facet normal -0.997038 0.065403 0.040463
  outer loop
   vertex 4606.576903 -0.000000 37103.791441
   vertex 3077.376151 12.204199 -596.240995
   vertex 3076.576903 -0.000000 -596.208559
  endloop
 endfacet
 facet normal -0.979979 0.195090 0.039771
  outer loop
   vertex 4607.376151 12.204199 37103.759005
   vertex 4609.760218 24.199581 37103.662251
   vertex 3079.760218 24.199581 -596.337749
  endloop
 endfacet
 facet normal -0.979979 0.195090 0.039771
  outer loop
   vertex 4607.376151 12.204199 37103.759005
   vertex 3079.760218 24.199581 -596.337749
   vertex 3077.376151 12.204199 -596.240995
  endloop
 endfacet
 facet normal -0.946151 0.321439 0.038398
  outer loop
   vertex 4609.760218 24.199581 37103.662251
   vertex 4613.688313 35.780901 37103.502835
   vertex 3083.688313 35.780901 -596.497165
  endloop
 endfacet
 facet normal -0.946151 0.321439 0.038398
  outer loop
   vertex 4609.760218 24.199581 37103.662251
   vertex 3083.688313 35.780901 -596.497165
   vertex 3079.760218 24.199581 -596.337749
  endloop
 endfacet
 facet normal -0.896135 0.442289 0.036368
  outer loop
   vertex 4613.688313 35.780901 37103.502835
   vertex 4619.093225 46.750000 37103.283484
   vertex 3089.093225 46.750000 -596.716516
  endloop
 endfacet
 facet normal -0.896135 0.442289 0.036368
  outer loop
   vertex 4613.688313 35.780901 37103.502835
   vertex 3089.093225 46.750000 -596.716516
   vertex 3083.688313 35.780901 -596.497165
  endloop
 endfacet
 facet normal -0.830786 0.555570 0.033716
  outer loop
   vertex 4619.093225 46.750000 37103.283484
   vertex 4625.882474 56.919194 37103.007953
   vertex 3095.882474 56.919194 -596.992047
  endloop
 endfacet
 facet normal -0.830786 0.555570 0.033716
  outer loop
   vertex 4619.093225 46.750000 37103.283484
   vertex 3095.882474 56.919194 -596.992047
   vertex 3089.093225 46.750000 -596.716516
  endloop
 endfacet
 facet normal -0.751221 0.659346 0.030487
  outer loop
   vertex 4625.882474 56.919194 37103.007953
   vertex 4633.939895 66.114484 37102.680954
   vertex 3103.939895 66.114484 -597.319046
  endloop
 endfacet
 facet normal -0.751221 0.659346 0.030487
  outer loop
   vertex 4625.882474 56.919194 37103.007953
   vertex 3103.939895 66.114484 -597.319046
   vertex 3095.882474 56.919194 -596.992047
  endloop
 endfacet
 facet normal -0.658804 0.751840 0.026737
  outer loop
   vertex 4633.939895 66.114484 37102.680954
   vertex 4643.127622 74.178537 37102.308083
   vertex 3113.127622 74.178537 -597.691917
  endloop
 endfacet
 facet normal -0.658804 0.751840 0.026737
  outer loop
   vertex 4633.939895 66.114484 37102.680954
   vertex 3113.127622 74.178537 -597.691917
   vertex 3103.939895 66.114484 -597.319046
  endloop
 endfacet
 facet normal -0.555113 0.831470 0.022528
  outer loop
   vertex 4643.127622 74.178537 37102.308083
   vertex 4653.288452 80.973375 37101.895721
   vertex 3123.288452 80.973375 -598.104279
  endloop
 endfacet
 facet normal -0.555113 0.831470 0.022528
  outer loop
   vertex 4643.127622 74.178537 37102.308083
   vertex 3123.288452 80.973375 -598.104279
   vertex 3113.127622 74.178537 -597.691917
  endloop
 endfacet
 facet normal -0.441925 0.896873 0.017935
  outer loop
   vertex 4653.288452 80.973375 37101.895721
   vertex 4664.248529 86.382736 37101.450922
   vertex 3134.248529 86.382736 -598.549078
  endloop
 endfacet
 facet normal -0.441925 0.896873 0.017935
  outer loop
   vertex 4653.288452 80.973375 37101.895721
   vertex 3134.248529 86.382736 -598.549078
   vertex 3123.288452 80.973375 -598.104279
  endloop
 endfacet
 facet normal -0.321175 0.946930 0.013034
  outer loop
   vertex 4664.248529 86.382736 37101.450922
   vertex 4675.820323 90.314065 37100.981297
   vertex 3145.820323 90.314065 -599.018703
  endloop
 endfacet
 facet normal -0.321175 0.946930 0.013034
  outer loop
   vertex 4664.248529 86.382736 37101.450922
   vertex 3145.820323 90.314065 -599.018703
   vertex 3134.248529 86.382736 -598.549078
  endloop
 endfacet
 facet normal -0.194930 0.980785 0.007911
  outer loop
   vertex 4675.820323 90.314065 37100.981297
   vertex 4687.805839 92.700095 37100.494882
   vertex 3157.805839 92.700095 -599.505118
  endloop
 endfacet
 facet normal -0.194930 0.980785 0.007911
  outer loop
   vertex 4675.820323 90.314065 37100.981297
   vertex 3157.805839 92.700095 -599.505118
   vertex 3145.820323 90.314065 -599.018703
  endloop
 endfacet
 facet normal -0.065349 0.997859 0.002652
  outer loop
   vertex 4687.805839 92.700095 37100.494882
   vertex 4700.000000 93.500000 37100.000000
   vertex 3170.000000 93.500000 -600.000000
  endloop
 endfacet
 facet normal -0.065349 0.997859 0.002652
  outer loop
   vertex 4687.805839 92.700095 37100.494882
   vertex 3170.000000 93.500000 -600.000000
   vertex 3157.805839 92.700095 -599.505118
  endloop
 endfacet
 facet normal -0.065349 -0.997859 0.002652
  outer loop
   vertex 3180.368297 78.819866 -600.420782
   vertex 4710.368297 78.819866 37099.579218
   vertex 4700.000000 79.500000 37100.000000
  endloop
 endfacet
 facet normal -0.065349 -0.997859 0.002652
  outer loop
   vertex 3170.000000 79.500000 -600.000000
   vertex 3180.368297 78.819866 -600.420782
   vertex 4700.000000 79.500000 37100.000000
  endloop
 endfacet
 facet normal -0.194930 -0.980785 0.007911
  outer loop
   vertex 3190.559190 76.791103 -600.834365
   vertex 4720.559190 76.791103 37099.165635
   vertex 4710.368297 78.819866 37099.579218
  endloop
 endfacet
 facet normal -0.194930 -0.980785 0.007911
  outer loop
   vertex 3180.368297 78.819866 -600.420782
   vertex 3190.559190 76.791103 -600.834365
   vertex 4710.368297 78.819866 37099.579218
  endloop
 endfacet
 facet normal -0.321175 -0.946930 0.013034
  outer loop
   vertex 3200.398310 73.448423 -601.233671
   vertex 4730.398310 73.448423 37098.766329
   vertex 4720.559190 76.791103 37099.165635
  endloop
 endfacet
 facet normal -0.321175 -0.946930 0.013034
  outer loop
   vertex 3190.559190 76.791103 -600.834365
   vertex 3200.398310 73.448423 -601.233671
   vertex 4720.559190 76.791103 37099.165635
  endloop
 endfacet
 facet normal -0.441925 -0.896873 0.017935
  outer loop
   vertex 3209.717306 68.849020 -601.611869
   vertex 4739.717306 68.849020 37098.388131
   vertex 4730.398310 73.448423 37098.766329
  endloop
 endfacet
 facet normal -0.441925 -0.896873 0.017935
  outer loop
   vertex 3200.398310 73.448423 -601.233671
   vertex 3209.717306 68.849020 -601.611869
   vertex 4730.398310 73.448423 37098.766329
  endloop
 endfacet
 facet normal -0.555113 -0.831470 0.022528
  outer loop
   vertex 3218.356728 63.071591 -601.962488
   vertex 4748.356728 63.071591 37098.037512
   vertex 4739.717306 68.849020 37098.388131
  endloop
 endfacet
 facet normal -0.555113 -0.831470 0.022528
  outer loop
   vertex 3209.717306 68.849020 -601.611869
   vertex 3218.356728 63.071591 -601.962488
   vertex 4739.717306 68.849020 37098.388131
  endloop
 endfacet
 facet normal -0.658804 -0.751840 0.026737
  outer loop
   vertex 3226.168752 56.214989 -602.279528
   vertex 4756.168752 56.214989 37097.720472
   vertex 4748.356728 63.071591 37098.037512
  endloop
 endfacet
 facet normal -0.658804 -0.751840 0.026737
  outer loop
   vertex 3218.356728 63.071591 -601.962488
   vertex 3226.168752 56.214989 -602.279528
   vertex 4748.356728 63.071591 37098.037512
  endloop
 endfacet
 facet normal -0.751221 -0.659346 0.030487
  outer loop
   vertex 3233.019714 48.396534 -602.557564
   vertex 4763.019714 48.396534 37097.442436
   vertex 4756.168752 56.214989 37097.720472
  endloop
 endfacet
 facet normal -0.751221 -0.659346 0.030487
  outer loop
   vertex 3226.168752 56.214989 -602.279528
   vertex 3233.019714 48.396534 -602.557564
   vertex 4756.168752 56.214989 37097.720472
  endloop
 endfacet
 facet normal -0.830786 -0.555570 0.033716
  outer loop
   vertex 3238.792392 39.750000 -602.791840
   vertex 4768.792392 39.750000 37097.208160
   vertex 4763.019714 48.396534 37097.442436
  endloop
 endfacet
 facet normal -0.830786 -0.555570 0.033716
  outer loop
   vertex 3233.019714 48.396534 -602.557564
   vertex 3238.792392 39.750000 -602.791840
   vertex 4763.019714 48.396534 37097.442436
  endloop
 endfacet
 facet normal -0.896135 -0.442289 0.036368
  outer loop
   vertex 3243.388012 30.423333 -602.978346
   vertex 4773.388012 30.423333 37097.021654
   vertex 4768.792392 39.750000 37097.208160
  endloop
 endfacet
 facet normal -0.896135 -0.442289 0.036368
  outer loop
   vertex 3238.792392 39.750000 -602.791840
   vertex 3243.388012 30.423333 -602.978346
   vertex 4768.792392 39.750000 37097.208160
  endloop
 endfacet
 facet normal -0.946151 -0.321439 0.038398
  outer loop
   vertex 3246.727943 20.576114 -603.113893
   vertex 4776.727943 20.576114 37096.886107
   vertex 4773.388012 30.423333 37097.021654
  endloop
 endfacet
 facet normal -0.946151 -0.321439 0.038398
  outer loop
   vertex 3243.388012 30.423333 -602.978346
   vertex 3246.727943 20.576114 -603.113893
   vertex 4773.388012 30.423333 37097.021654
  endloop
 endfacet
 facet normal -0.979979 -0.195090 0.039771
  outer loop
   vertex 3248.755037 10.376832 -603.196159
   vertex 4778.755037 10.376832 37096.803841
   vertex 4776.727943 20.576114 37096.886107
  endloop
 endfacet
 facet normal -0.979979 -0.195090 0.039771
  outer loop
   vertex 3246.727943 20.576114 -603.113893
   vertex 3248.755037 10.376832 -603.196159
   vertex 4776.727943 20.576114 37096.886107
  endloop
 endfacet
 facet normal -0.997038 -0.065403 0.040463
  outer loop
   vertex 3249.434612 0.000000 -603.223739
   vertex 4779.434612 0.000000 37096.776261
   vertex 4778.755037 10.376832 37096.803841
  endloop
 endfacet
 facet normal -0.997038 -0.065403 0.040463
  outer loop
   vertex 3248.755037 10.376832 -603.196159
   vertex 3249.434612 0.000000 -603.223739
   vertex 4778.755037 10.376832 37096.803841
  endloop
 endfacet
 facet normal -0.997038 0.065403 0.040463
  outer loop
   vertex 3248.755037 -10.376832 -603.196159
   vertex 4778.755037 -10.376832 37096.803841
   vertex 4779.434612 0.000000 37096.776261
  endloop
 endfacet
 facet normal -0.997038 0.065403 0.040463
  outer loop
   vertex 3249.434612 0.000000 -603.223739
   vertex 3248.755037 -10.376832 -603.196159
   vertex 4779.434612 0.000000 37096.776261
  endloop
 endfacet
 facet normal -0.979979 0.195090 0.039771
  outer loop
   vertex 3246.727943 -20.576114 -603.113893
   vertex 4776.727943 -20.576114 37096.886107
   vertex 4778.755037 -10.376832 37096.803841
  endloop
 endfacet
 facet normal -0.979979 0.195090 0.039771
  outer loop
   vertex 3248.755037 -10.376832 -603.196159
   vertex 3246.727943 -20.576114 -603.113893
   vertex 4778.755037 -10.376832 37096.803841
  endloop
 endfacet
 facet normal -0.946151 0.321439 0.038398
  outer loop
   vertex 3243.388012 -30.423333 -602.978346
   vertex 4773.388012 -30.423333 37097.021654
   vertex 4776.727943 -20.576114 37096.886107
  endloop
 endfacet
 facet normal -0.946151 0.321439 0.038398
  outer loop
   vertex 3246.727943 -20.576114 -603.113893
   vertex 3243.388012 -30.423333 -602.978346
   vertex 4776.727943 -20.576114 37096.886107
  endloop
 endfacet
 facet normal -0.896135 0.442289 0.036368
  outer loop
   vertex 3238.792392 -39.750000 -602.791840
   vertex 4768.792392 -39.750000 37097.208160
   vertex 4773.388012 -30.423333 37097.021654
  endloop
 endfacet
 facet normal -0.896135 0.442289 0.036368
  outer loop
   vertex 3243.388012 -30.423333 -602.978346
   vertex 3238.792392 -39.750000 -602.791840
   vertex 4773.388012 -30.423333 37097.021654
  endloop
 endfacet
 facet normal -0.830786 0.555570 0.033716
  outer loop
   vertex 3233.019714 -48.396534 -602.557564
   vertex 4763.019714 -48.396534 37097.442436
   vertex 4768.792392 -39.750000 37097.208160
  endloop
 endfacet
 facet normal -0.830786 0.555570 0.033716
  outer loop
   vertex 3238.792392 -39.750000 -602.791840
   vertex 3233.019714 -48.396534 -602.557564
   vertex 4768.792392 -39.750000 37097.208160
  endloop
 endfacet
 facet normal -0.751221 0.659346 0.030487
  outer loop
   vertex 3226.168752 -56.214989 -602.279528
   vertex 4756.168752 -56.214989 37097.720472
   vertex 4763.019714 -48.396534 37097.442436
  endloop
 endfacet
 facet normal -0.751221 0.659346 0.030487
  outer loop
   vertex 3233.019714 -48.396534 -602.557564
   vertex 3226.168752 -56.214989 -602.279528
   vertex 4763.019714 -48.396534 37097.442436
  endloop
 endfacet
 facet normal -0.658804 0.751840 0.026737
  outer loop
   vertex 3218.356728 -63.071591 -601.962488
   vertex 4748.356728 -63.071591 37098.037512
   vertex 4756.168752 -56.214989 37097.720472
  endloop
 endfacet
 facet normal -0.658804 0.751840 0.026737
  outer loop
   vertex 3226.168752 -56.214989 -602.279528
   vertex 3218.356728 -63.071591 -601.962488
   vertex 4756.168752 -56.214989 37097.720472
  endloop
 endfacet
 facet normal -0.555113 0.831470 0.022528
  outer loop
   vertex 3209.717306 -68.849020 -601.611869
   vertex 4739.717306 -68.849020 37098.388131
   vertex 4748.356728 -63.071591 37098.037512
  endloop
 endfacet
 facet normal -0.555113 0.831470 0.022528
  outer loop
   vertex 3218.356728 -63.071591 -601.962488
   vertex 3209.717306 -68.849020 -601.611869
   vertex 4748.356728 -63.071591 37098.037512
  endloop
 endfacet
 facet normal -0.441925 0.896873 0.017935
  outer loop
   vertex 3200.398310 -73.448423 -601.233671
   vertex 4730.398310 -73.448423 37098.766329
   vertex 4739.717306 -68.849020 37098.388131
  endloop
 endfacet
 facet normal -0.441925 0.896873 0.017935
  outer loop
   vertex 3209.717306 -68.849020 -601.611869
   vertex 3200.398310 -73.448423 -601.233671
   vertex 4739.717306 -68.849020 37098.388131
  endloop
 endfacet
 facet normal -0.321175 0.946930 0.013034
  outer loop
   vertex 3190.559190 -76.791103 -600.834365
   vertex 4720.559190 -76.791103 37099.165635
   vertex 4730.398310 -73.448423 37098.766329
  endloop
 endfacet
 facet normal -0.321175 0.946930 0.013034
  outer loop
   vertex 3200.398310 -73.448423 -601.233671
   vertex 3190.559190 -76.791103 -600.834365
   vertex 4730.398310 -73.448423 37098.766329
  endloop
 endfacet
 facet normal -0.194930 0.980785 0.007911
  outer loop
   vertex 3180.368297 -78.819866 -600.420782
   vertex 4710.368297 -78.819866 37099.579218
   vertex 4720.559190 -76.791103 37099.165635
  endloop
 endfacet
 facet normal -0.194930 0.980785 0.007911
  outer loop
   vertex 3190.559190 -76.791103 -600.834365
   vertex 3180.368297 -78.819866 -600.420782
   vertex 4720.559190 -76.791103 37099.165635
  endloop
 endfacet
 facet normal -0.065349 0.997859 0.002652
  outer loop
   vertex 3170.000000 -79.500000 -600.000000
   vertex 4700.000000 -79.500000 37100.000000
   vertex 4710.368297 -78.819866 37099.579218
  endloop
 endfacet
 facet normal -0.065349 0.997859 0.002652
  outer loop
   vertex 3180.368297 -78.819866 -600.420782
   vertex 3170.000000 -79.500000 -600.000000
   vertex 4710.368297 -78.819866 37099.579218
  endloop
 endfacet
 facet normal 0.065349 0.997859 -0.002652
  outer loop
   vertex 3159.631703 -78.819866 -599.579218
   vertex 4689.631703 -78.819866 37100.420782
   vertex 4700.000000 -79.500000 37100.000000
  endloop
 endfacet
 facet normal 0.065349 0.997859 -0.002652
  outer loop
   vertex 3170.000000 -79.500000 -600.000000
   vertex 3159.631703 -78.819866 -599.579218
   vertex 4700.000000 -79.500000 37100.000000
  endloop
 endfacet
 facet normal 0.194930 0.980785 -0.007911
  outer loop
   vertex 3149.440810 -76.791103 -599.165635
   vertex 4679.440810 -76.791103 37100.834365
   vertex 4689.631703 -78.819866 37100.420782
  endloop
 endfacet
 facet normal 0.194930 0.980785 -0.007911
  outer loop
   vertex 3159.631703 -78.819866 -599.579218
   vertex 3149.440810 -76.791103 -599.165635
   vertex 4689.631703 -78.819866 37100.420782
  endloop
 endfacet
 facet normal 0.321175 0.946930 -0.013034
  outer loop
   vertex 3139.601690 -73.448423 -598.766329
   vertex 4669.601690 -73.448423 37101.233671
   vertex 4679.440810 -76.791103 37100.834365
  endloop
 endfacet
 facet normal 0.321175 0.946930 -0.013034
  outer loop
   vertex 3149.440810 -76.791103 -599.165635
   vertex 3139.601690 -73.448423 -598.766329
   vertex 4679.440810 -76.791103 37100.834365
  endloop
 endfacet
 facet normal 0.441925 0.896873 -0.017935
  outer loop
   vertex 3130.282694 -68.849020 -598.388131
   vertex 4660.282694 -68.849020 37101.611869
   vertex 4669.601690 -73.448423 37101.233671
  endloop
 endfacet
 facet normal 0.441925 0.896873 -0.017935
  outer loop
   vertex 3139.601690 -73.448423 -598.766329
   vertex 3130.282694 -68.849020 -598.388131
   vertex 4669.601690 -73.448423 37101.233671
  endloop
 endfacet
 facet normal 0.555113 0.831470 -0.022528
  outer loop
   vertex 3121.643272 -63.071591 -598.037512
   vertex 4651.643272 -63.071591 37101.962488
   vertex 4660.282694 -68.849020 37101.611869
  endloop
 endfacet
 facet normal 0.555113 0.831470 -0.022528
  outer loop
   vertex 3130.282694 -68.849020 -598.388131
   vertex 3121.643272 -63.071591 -598.037512
   vertex 4660.282694 -68.849020 37101.611869
  endloop
 endfacet
 facet normal 0.658804 0.751840 -0.026737
  outer loop
   vertex 3113.831248 -56.214989 -597.720472
   vertex 4643.831248 -56.214989 37102.279528
   vertex 4651.643272 -63.071591 37101.962488
  endloop
 endfacet
 facet normal 0.658804 0.751840 -0.026737
  outer loop
   vertex 3121.643272 -63.071591 -598.037512
   vertex 3113.831248 -56.214989 -597.720472
   vertex 4651.643272 -63.071591 37101.962488
  endloop
 endfacet
 facet normal 0.751221 0.659346 -0.030487
  outer loop
   vertex 3106.980286 -48.396534 -597.442436
   vertex 4636.980286 -48.396534 37102.557564
   vertex 4643.831248 -56.214989 37102.279528
  endloop
 endfacet
 facet normal 0.751221 0.659346 -0.030487
  outer loop
   vertex 3113.831248 -56.214989 -597.720472
   vertex 3106.980286 -48.396534 -597.442436
   vertex 4643.831248 -56.214989 37102.279528
  endloop
 endfacet
 facet normal 0.830786 0.555570 -0.033716
  outer loop
   vertex 3101.207608 -39.750000 -597.208160
   vertex 4631.207608 -39.750000 37102.791840
   vertex 4636.980286 -48.396534 37102.557564
  endloop
 endfacet
 facet normal 0.830786 0.555570 -0.033716
  outer loop
   vertex 3106.980286 -48.396534 -597.442436
   vertex 3101.207608 -39.750000 -597.208160
   vertex 4636.980286 -48.396534 37102.557564
  endloop
 endfacet
 facet normal 0.896135 0.442289 -0.036368
  outer loop
   vertex 3096.611988 -30.423333 -597.021654
   vertex 4626.611988 -30.423333 37102.978346
   vertex 4631.207608 -39.750000 37102.791840
  endloop
 endfacet
 facet normal 0.896135 0.442289 -0.036368
  outer loop
   vertex 3101.207608 -39.750000 -597.208160
   vertex 3096.611988 -30.423333 -597.021654
   vertex 4631.207608 -39.750000 37102.791840
  endloop
 endfacet
 facet normal 0.946151 0.321439 -0.038398
  outer loop
   vertex 3093.272057 -20.576114 -596.886107
   vertex 4623.272057 -20.576114 37103.113893
   vertex 4626.611988 -30.423333 37102.978346
  endloop
 endfacet
 facet normal 0.946151 0.321439 -0.038398
  outer loop
   vertex 3096.611988 -30.423333 -597.021654
   vertex 3093.272057 -20.576114 -596.886107
   vertex 4626.611988 -30.423333 37102.978346
  endloop
 endfacet
 facet normal 0.979979 0.195090 -0.039771
  outer loop
   vertex 3091.244963 -10.376832 -596.803841
   vertex 4621.244963 -10.376832 37103.196159
   vertex 4623.272057 -20.576114 37103.113893
  endloop
 endfacet
 facet normal 0.979979 0.195090 -0.039771
  outer loop
   vertex 3093.272057 -20.576114 -596.886107
   vertex 3091.244963 -10.376832 -596.803841
   vertex 4623.272057 -20.576114 37103.113893
  endloop
 endfacet
 facet normal 0.997038 0.065403 -0.040463
  outer loop
   vertex 3090.565388 -0.000000 -596.776261
   vertex 4620.565388 -0.000000 37103.223739
   vertex 4621.244963 -10.376832 37103.196159
  endloop
 endfacet
 facet normal 0.997038 0.065403 -0.040463
  outer loop
   vertex 3091.244963 -10.376832 -596.803841
   vertex 3090.565388 -0.000000 -596.776261
   vertex 4621.244963 -10.376832 37103.196159
  endloop
 endfacet
 facet normal 0.997038 -0.065403 -0.040463
  outer loop
   vertex 3091.244963 10.376832 -596.803841
   vertex 4621.244963 10.376832 37103.196159
   vertex 4620.565388 -0.000000 37103.223739
  endloop
 endfacet
 facet normal 0.997038 -0.065403 -0.040463
  outer loop
   vertex 3090.565388 -0.000000 -596.776261
   vertex 3091.244963 10.376832 -596.803841
   vertex 4620.565388 -0.000000 37103.223739
  endloop
 endfacet
 facet normal 0.979979 -0.195090 -0.039771
  outer loop
   vertex 3093.272057 20.576114 -596.886107
   vertex 4623.272057 20.576114 37103.113893
   vertex 4621.244963 10.376832 37103.196159
  endloop
 endfacet
 facet normal 0.979979 -0.195090 -0.039771
  outer loop
   vertex 3091.244963 10.376832 -596.803841
   vertex 3093.272057 20.576114 -596.886107
   vertex 4621.244963 10.376832 37103.196159
  endloop
 endfacet
 facet normal 0.946151 -0.321439 -0.038398
  outer loop
   vertex 3096.611988 30.423333 -597.021654
   vertex 4626.611988 30.423333 37102.978346
   vertex 4623.272057 20.576114 37103.113893
  endloop
 endfacet
 facet normal 0.946151 -0.321439 -0.038398
  outer loop
   vertex 3093.272057 20.576114 -596.886107
   vertex 3096.611988 30.423333 -597.021654
   vertex 4623.272057 20.576114 37103.113893
  endloop
 endfacet
 facet normal 0.896135 -0.442289 -0.036368
  outer loop
   vertex 3101.207608 39.750000 -597.208160
   vertex 4631.207608 39.750000 37102.791840
   vertex 4626.611988 30.423333 37102.978346
  endloop
 endfacet
 facet normal 0.896135 -0.442289 -0.036368
  outer loop
   vertex 3096.611988 30.423333 -597.021654
   vertex 3101.207608 39.750000 -597.208160
   vertex 4626.611988 30.423333 37102.978346
  endloop
 endfacet
 facet normal 0.830786 -0.555570 -0.033716
  outer loop
   vertex 3106.980286 48.396534 -597.442436
   vertex 4636.980286 48.396534 37102.557564
   vertex 4631.207608 39.750000 37102.791840
  endloop
 endfacet
 facet normal 0.830786 -0.555570 -0.033716
  outer loop
   vertex 3101.207608 39.750000 -597.208160
   vertex 3106.980286 48.396534 -597.442436
   vertex 4631.207608 39.750000 37102.791840
  endloop
 endfacet
 facet normal 0.751221 -0.659346 -0.030487
  outer loop
   vertex 3113.831248 56.214989 -597.720472
   vertex 4643.831248 56.214989 37102.279528
   vertex 4636.980286 48.396534 37102.557564
  endloop
 endfacet
 facet normal 0.751221 -0.659346 -0.030487
  outer loop
   vertex 3106.980286 48.396534 -597.442436
   vertex 3113.831248 56.214989 -597.720472
   vertex 4636.980286 48.396534 37102.557564
  endloop
 endfacet
 facet normal 0.658804 -0.751840 -0.026737
  outer loop
   vertex 3121.643272 63.071591 -598.037512
   vertex 4651.643272 63.071591 37101.962488
   vertex 4643.831248 56.214989 37102.279528
  endloop
 endfacet
 facet normal 0.658804 -0.751840 -0.026737
  outer loop
   vertex 3113.831248 56.214989 -597.720472
   vertex 3121.643272 63.071591 -598.037512
   vertex 4643.831248 56.214989 37102.279528
  endloop
 endfacet
 facet normal 0.555113 -0.831470 -0.022528
  outer loop
   vertex 3130.282694 68.849020 -598.388131
   vertex 4660.282694 68.849020 37101.611869
   vertex 4651.643272 63.071591 37101.962488
  endloop
 endfacet
 facet normal 0.555113 -0.831470 -0.022528
  outer loop
   vertex 3121.643272 63.071591 -598.037512
   vertex 3130.282694 68.849020 -598.388131
   vertex 4651.643272 63.071591 37101.962488
  endloop
 endfacet
 facet normal 0.441925 -0.896873 -0.017935
  outer loop
   vertex 3139.601690 73.448423 -598.766329
   vertex 4669.601690 73.448423 37101.233671
   vertex 4660.282694 68.849020 37101.611869
  endloop
 endfacet
 facet normal 0.441925 -0.896873 -0.017935
  outer loop
   vertex 3130.282694 68.849020 -598.388131
   vertex 3139.601690 73.448423 -598.766329
   vertex 4660.282694 68.849020 37101.611869
  endloop
 endfacet
 facet normal 0.321175 -0.946930 -0.013034
  outer loop
   vertex 3149.440810 76.791103 -599.165635
   vertex 4679.440810 76.791103 37100.834365
   vertex 4669.601690 73.448423 37101.233671
  endloop
 endfacet
 facet normal 0.321175 -0.946930 -0.013034
  outer loop
   vertex 3139.601690 73.448423 -598.766329
   vertex 3149.440810 76.791103 -599.165635
   vertex 4669.601690 73.448423 37101.233671
  endloop
 endfacet
 facet normal 0.194930 -0.980785 -0.007911
  outer loop
   vertex 3159.631703 78.819866 -599.579218
   vertex 4689.631703 78.819866 37100.420782
   vertex 4679.440810 76.791103 37100.834365
  endloop
 endfacet
 facet normal 0.194930 -0.980785 -0.007911
  outer loop
   vertex 3149.440810 76.791103 -599.165635
   vertex 3159.631703 78.819866 -599.579218
   vertex 4679.440810 76.791103 37100.834365
  endloop
 endfacet
 facet normal 0.065349 -0.997859 -0.002652
  outer loop
   vertex 3170.000000 79.500000 -600.000000
   vertex 4700.000000 79.500000 37100.000000
   vertex 4689.631703 78.819866 37100.420782
  endloop
 endfacet
 facet normal 0.065349 -0.997859 -0.002652
  outer loop
   vertex 3159.631703 78.819866 -599.579218
   vertex 3170.000000 79.500000 -600.000000
   vertex 4689.631703 78.819866 37100.420782
  endloop
 endfacet
endsolid SIC_LOX_downcomer
