solid SIC_RP1_feed_0_elbow
 facet normal 0.065403 0.997859 0.000000
  outer loop
   vertex -3183.200000 110.000000 -520.000000
   vertex -3168.842119 109.058935 -520.000000
   vertex -3168.842119 109.058935 -940.000000
  endloop
 endfacet
 facet normal 0.065403 0.997859 0.000000
  outer loop
   vertex -3183.200000 110.000000 -520.000000
   vertex -3168.842119 109.058935 -940.000000
   vertex -3183.200000 110.000000 -940.000000
  endloop
 endfacet
 facet normal 0.195090 0.980785 0.000000
  outer loop
   vertex -3168.842119 109.058935 -520.000000
   vertex -3154.729905 106.251841 -520.000000
   vertex -3154.729905 106.251841 -940.000000
  endloop
 endfacet
 facet normal 0.195090 0.980785 0.000000
  outer loop
   vertex -3168.842119 109.058935 -520.000000
   vertex -3154.729905 106.251841 -940.000000
   vertex -3168.842119 109.058935 -940.000000
  endloop
 endfacet
 facet normal 0.321439 0.946930 0.000000
  outer loop
   vertex -3154.729905 106.251841 -520.000000
   vertex -3141.104822 101.626749 -520.000000
   vertex -3141.104822 101.626749 -940.000000
  endloop
 endfacet
 facet normal 0.321439 0.946930 0.000000
  outer loop
   vertex -3154.729905 106.251841 -520.000000
   vertex -3141.104822 101.626749 -940.000000
   vertex -3154.729905 106.251841 -940.000000
  endloop
 endfacet
 facet normal 0.442289 0.896873 0.000000
  outer loop
   vertex -3141.104822 101.626749 -520.000000
   vertex -3128.200000 95.262794 -520.000000
   vertex -3128.200000 95.262794 -940.000000
  endloop
 endfacet
 facet normal 0.442289 0.896873 0.000000
  outer loop
   vertex -3141.104822 101.626749 -520.000000
   vertex -3128.200000 95.262794 -940.000000
   vertex -3141.104822 101.626749 -940.000000
  endloop
 endfacet
 facet normal 0.555570 0.831470 0.000000
  outer loop
   vertex -3128.200000 95.262794 -520.000000
   vertex -3116.236243 87.268867 -520.000000
   vertex -3116.236243 87.268867 -940.000000
  endloop
 endfacet
 facet normal 0.555570 0.831470 0.000000
  outer loop
   vertex -3128.200000 95.262794 -520.000000
   vertex -3116.236243 87.268867 -940.000000
   vertex -3128.200000 95.262794 -940.000000
  endloop
 endfacet
 facet normal 0.659346 0.751840 0.000000
  outer loop
   vertex -3116.236243 87.268867 -520.000000
   vertex -3105.418254 77.781746 -520.000000
   vertex -3105.418254 77.781746 -940.000000
  endloop
 endfacet
 facet normal 0.659346 0.751840 0.000000
  outer loop
   vertex -3116.236243 87.268867 -520.000000
   vertex -3105.418254 77.781746 -940.000000
   vertex -3116.236243 87.268867 -940.000000
  endloop
 endfacet
 facet normal 0.751840 0.659346 0.000000
  outer loop
   vertex -3105.418254 77.781746 -520.000000
   vertex -3095.931133 66.963757 -520.000000
   vertex -3095.931133 66.963757 -940.000000
  endloop
 endfacet
 facet normal 0.751840 0.659346 0.000000
  outer loop
   vertex -3105.418254 77.781746 -520.000000
   vertex -3095.931133 66.963757 -940.000000
   vertex -3105.418254 77.781746 -940.000000
  endloop
 endfacet
 facet normal 0.831470 0.555570 0.000000
  outer loop
   vertex -3095.931133 66.963757 -520.000000
   vertex -3087.937206 55.000000 -520.000000
   vertex -3087.937206 55.000000 -940.000000
  endloop
 endfacet
 facet normal 0.831470 0.555570 0.000000
  outer loop
   vertex -3095.931133 66.963757 -520.000000
   vertex -3087.937206 55.000000 -940.000000
   vertex -3095.931133 66.963757 -940.000000
  endloop
 endfacet
 facet normal 0.896873 0.442289 0.000000
  outer loop
   vertex -3087.937206 55.000000 -520.000000
   vertex -3081.573251 42.095178 -520.000000
   vertex -3081.573251 42.095178 -940.000000
  endloop
 endfacet
 facet normal 0.896873 0.442289 0.000000
  outer loop
   vertex -3087.937206 55.000000 -520.000000
   vertex -3081.573251 42.095178 -940.000000
   vertex -3087.937206 55.000000 -940.000000
  endloop
 endfacet
 facet normal 0.946930 0.321439 0.000000
  outer loop
   vertex -3081.573251 42.095178 -520.000000
   vertex -3076.948159 28.470095 -520.000000
   vertex -3076.948159 28.470095 -940.000000
  endloop
 endfacet
 facet normal 0.946930 0.321439 0.000000
  outer loop
   vertex -3081.573251 42.095178 -520.000000
   vertex -3076.948159 28.470095 -940.000000
   vertex -3081.573251 42.095178 -940.000000
  endloop
 endfacet
 facet normal 0.980785 0.195090 0.000000
  outer loop
   vertex -3076.948159 28.470095 -520.000000
   vertex -3074.141065 14.357881 -520.000000
   vertex -3074.141065 14.357881 -940.000000
  endloop
 endfacet
 facet normal 0.980785 0.195090 0.000000
  outer loop
   vertex -3076.948159 28.470095 -520.000000
   vertex -3074.141065 14.357881 -940.000000
   vertex -3076.948159 28.470095 -940.000000
  endloop
 endfacet
 facet normal 0.997859 0.065403 0.000000
  outer loop
   vertex -3074.141065 14.357881 -520.000000
   vertex -3073.200000 0.000000 -520.000000
   vertex -3073.200000 0.000000 -940.000000
  endloop
 endfacet
 facet normal 0.997859 0.065403 0.000000
  outer loop
   vertex -3074.141065 14.357881 -520.000000
   vertex -3073.200000 0.000000 -940.000000
   vertex -3074.141065 14.357881 -940.000000
  endloop
 endfacet
 facet normal 0.997859 -0.065403 0.000000
  outer loop
   vertex -3073.200000 0.000000 -520.000000
   vertex -3074.141065 -14.357881 -520.000000
   vertex -3074.141065 -14.357881 -940.000000
  endloop
 endfacet
 facet normal 0.997859 -0.065403 0.000000
  outer loop
   vertex -3073.200000 0.000000 -520.000000
   vertex -3074.141065 -14.357881 -940.000000
   vertex -3073.200000 0.000000 -940.000000
  endloop
 endfacet
 facet normal 0.980785 -0.195090 0.000000
  outer loop
   vertex -3074.141065 -14.357881 -520.000000
   vertex -3076.948159 -28.470095 -520.000000
   vertex -3076.948159 -28.470095 -940.000000
  endloop
 endfacet
 facet normal 0.980785 -0.195090 0.000000
  outer loop
   vertex -3074.141065 -14.357881 -520.000000
   vertex -3076.948159 -28.470095 -940.000000
   vertex -3074.141065 -14.357881 -940.000000
  endloop
 endfacet
 facet normal 0.946930 -0.321439 0.000000
  outer loop
   vertex -3076.948159 -28.470095 -520.000000
   vertex -3081.573251 -42.095178 -520.000000
   vertex -3081.573251 -42.095178 -940.000000
  endloop
 endfacet
 facet normal 0.946930 -0.321439 0.000000
  outer loop
   vertex -3076.948159 -28.470095 -520.000000
   vertex -3081.573251 -42.095178 -940.000000
   vertex -3076.948159 -28.470095 -940.000000
  endloop
 endfacet
 facet normal 0.896873 -0.442289 0.000000
  outer loop
   vertex -3081.573251 -42.095178 -520.000000
   vertex -3087.937206 -55.000000 -520.000000
   vertex -3087.937206 -55.000000 -940.000000
  endloop
 endfacet
 facet normal 0.896873 -0.442289 0.000000
  outer loop
   vertex -3081.573251 -42.095178 -520.000000
   vertex -3087.937206 -55.000000 -940.000000
   vertex -3081.573251 -42.095178 -940.000000
  endloop
 endfacet
 facet normal 0.831470 -0.555570 0.000000
  outer loop
   vertex -3087.937206 -55.000000 -520.000000
   vertex -3095.931133 -66.963757 -520.000000
   vertex -3095.931133 -66.963757 -940.000000
  endloop
 endfacet
 facet normal 0.831470 -0.555570 0.000000
  outer loop
   vertex -3087.937206 -55.000000 -520.000000
   vertex -3095.931133 -66.963757 -940.000000
   vertex -3087.937206 -55.000000 -940.000000
  endloop
 endfacet
 facet normal 0.751840 -0.659346 0.000000
  outer loop
   vertex -3095.931133 -66.963757 -520.000000
   vertex -3105.418254 -77.781746 -520.000000
   vertex -3105.418254 -77.781746 -940.000000
  endloop
 endfacet
 facet normal 0.751840 -0.659346 0.000000
  outer loop
   vertex -3095.931133 -66.963757 -520.000000
   vertex -3105.418254 -77.781746 -940.000000
   vertex -3095.931133 -66.963757 -940.000000
  endloop
 endfacet
 facet normal 0.659346 -0.751840 0.000000
  outer loop
   vertex -3105.418254 -77.781746 -520.000000
   vertex -3116.236243 -87.268867 -520.000000
   vertex -3116.236243 -87.268867 -940.000000
  endloop
 endfacet
 facet normal 0.659346 -0.751840 0.000000
  outer loop
   vertex -3105.418254 -77.781746 -520.000000
   vertex -3116.236243 -87.268867 -940.000000
   vertex -3105.418254 -77.781746 -940.000000
  endloop
 endfacet
 facet normal 0.555570 -0.831470 0.000000
  outer loop
   vertex -3116.236243 -87.268867 -520.000000
   vertex -3128.200000 -95.262794 -520.000000
   vertex -3128.200000 -95.262794 -940.000000
  endloop
 endfacet
 facet normal 0.555570 -0.831470 0.000000
  outer loop
   vertex -3116.236243 -87.268867 -520.000000
   vertex -3128.200000 -95.262794 -940.000000
   vertex -3116.236243 -87.268867 -940.000000
  endloop
 endfacet
 facet normal 0.442289 -0.896873 0.000000
  outer loop
   vertex -3128.200000 -95.262794 -520.000000
   vertex -3141.104822 -101.626749 -520.000000
   vertex -3141.104822 -101.626749 -940.000000
  endloop
 endfacet
 facet normal 0.442289 -0.896873 0.000000
  outer loop
   vertex -3128.200000 -95.262794 -520.000000
   vertex -3141.104822 -101.626749 -940.000000
   vertex -3128.200000 -95.262794 -940.000000
  endloop
 endfacet
 facet normal 0.321439 -0.946930 0.000000
  outer loop
   vertex -3141.104822 -101.626749 -520.000000
   vertex -3154.729905 -106.251841 -520.000000
   vertex -3154.729905 -106.251841 -940.000000
  endloop
 endfacet
 facet normal 0.321439 -0.946930 0.000000
  outer loop
   vertex -3141.104822 -101.626749 -520.000000
   vertex -3154.729905 -106.251841 -940.000000
   vertex -3141.104822 -101.626749 -940.000000
  endloop
 endfacet
 facet normal 0.195090 -0.980785 0.000000
  outer loop
   vertex -3154.729905 -106.251841 -520.000000
   vertex -3168.842119 -109.058935 -520.000000
   vertex -3168.842119 -109.058935 -940.000000
  endloop
 endfacet
 facet normal 0.195090 -0.980785 0.000000
  outer loop
   vertex -3154.729905 -106.251841 -520.000000
   vertex -3168.842119 -109.058935 -940.000000
   vertex -3154.729905 -106.251841 -940.000000
  endloop
 endfacet
 facet normal 0.065403 -0.997859 0.000000
  outer loop
   vertex -3168.842119 -109.058935 -520.000000
   vertex -3183.200000 -110.000000 -520.000000
   vertex -3183.200000 -110.000000 -940.000000
  endloop
 endfacet
 facet normal 0.065403 -0.997859 0.000000
  outer loop
   vertex -3168.842119 -109.058935 -520.000000
   vertex -3183.200000 -110.000000 -940.000000
   vertex -3168.842119 -109.058935 -940.000000
  endloop
 endfacet
 facet normal -0.065403 -0.997859 0.000000
  outer loop
   vertex -3183.200000 -110.000000 -520.000000
   vertex -3197.557881 -109.058935 -520.000000
   vertex -3197.557881 -109.058935 -940.000000
  endloop
 endfacet
 facet normal -0.065403 -0.997859 -0.000000
  outer loop
   vertex -3183.200000 -110.000000 -520.000000
   vertex -3197.557881 -109.058935 -940.000000
   vertex -3183.200000 -110.000000 -940.000000
  endloop
 endfacet
 facet normal -0.195090 -0.980785 0.000000
  outer loop
   vertex -3197.557881 -109.058935 -520.000000
   vertex -3211.670095 -106.251841 -520.000000
   vertex -3211.670095 -106.251841 -940.000000
  endloop
 endfacet
 facet normal -0.195090 -0.980785 -0.000000
  outer loop
   vertex -3197.557881 -109.058935 -520.000000
   vertex -3211.670095 -106.251841 -940.000000
   vertex -3197.557881 -109.058935 -940.000000
  endloop
 endfacet
 facet normal -0.321439 -0.946930 0.000000
  outer loop
   vertex -3211.670095 -106.251841 -520.000000
   vertex -3225.295178 -101.626749 -520.000000
   vertex -3225.295178 -101.626749 -940.000000
  endloop
 endfacet
 facet normal -0.321439 -0.946930 -0.000000
  outer loop
   vertex -3211.670095 -106.251841 -520.000000
   vertex -3225.295178 -101.626749 -940.000000
   vertex -3211.670095 -106.251841 -940.000000
  endloop
 endfacet
 facet normal -0.442289 -0.896873 0.000000
  outer loop
   vertex -3225.295178 -101.626749 -520.000000
   vertex -3238.200000 -95.262794 -520.000000
   vertex -3238.200000 -95.262794 -940.000000
  endloop
 endfacet
 facet normal -0.442289 -0.896873 -0.000000
  outer loop
   vertex -3225.295178 -101.626749 -520.000000
   vertex -3238.200000 -95.262794 -940.000000
   vertex -3225.295178 -101.626749 -940.000000
  endloop
 endfacet
 facet normal -0.555570 -0.831470 0.000000
  outer loop
   vertex -3238.200000 -95.262794 -520.000000
   vertex -3250.163757 -87.268867 -520.000000
   vertex -3250.163757 -87.268867 -940.000000
  endloop
 endfacet
 facet normal -0.555570 -0.831470 -0.000000
  outer loop
   vertex -3238.200000 -95.262794 -520.000000
   vertex -3250.163757 -87.268867 -940.000000
   vertex -3238.200000 -95.262794 -940.000000
  endloop
 endfacet
 facet normal -0.659346 -0.751840 0.000000
  outer loop
   vertex -3250.163757 -87.268867 -520.000000
   vertex -3260.981746 -77.781746 -520.000000
   vertex -3260.981746 -77.781746 -940.000000
  endloop
 endfacet
 facet normal -0.659346 -0.751840 -0.000000
  outer loop
   vertex -3250.163757 -87.268867 -520.000000
   vertex -3260.981746 -77.781746 -940.000000
   vertex -3250.163757 -87.268867 -940.000000
  endloop
 endfacet
 facet normal -0.751840 -0.659346 0.000000
  outer loop
   vertex -3260.981746 -77.781746 -520.000000
   vertex -3270.468867 -66.963757 -520.000000
   vertex -3270.468867 -66.963757 -940.000000
  endloop
 endfacet
 facet normal -0.751840 -0.659346 -0.000000
  outer loop
   vertex -3260.981746 -77.781746 -520.000000
   vertex -3270.468867 -66.963757 -940.000000
   vertex -3260.981746 -77.781746 -940.000000
  endloop
 endfacet
 facet normal -0.831470 -0.555570 0.000000
  outer loop
   vertex -3270.468867 -66.963757 -520.000000
   vertex -3278.462794 -55.000000 -520.000000
   vertex -3278.462794 -55.000000 -940.000000
  endloop
 endfacet
 facet normal -0.831470 -0.555570 -0.000000
  outer loop
   vertex -3270.468867 -66.963757 -520.000000
   vertex -3278.462794 -55.000000 -940.000000
   vertex -3270.468867 -66.963757 -940.000000
  endloop
 endfacet
 facet normal -0.896873 -0.442289 0.000000
  outer loop
   vertex -3278.462794 -55.000000 -520.000000
   vertex -3284.826749 -42.095178 -520.000000
   vertex -3284.826749 -42.095178 -940.000000
  endloop
 endfacet
 facet normal -0.896873 -0.442289 -0.000000
  outer loop
   vertex -3278.462794 -55.000000 -520.000000
   vertex -3284.826749 -42.095178 -940.000000
   vertex -3278.462794 -55.000000 -940.000000
  endloop
 endfacet
 facet normal -0.946930 -0.321439 0.000000
  outer loop
   vertex -3284.826749 -42.095178 -520.000000
   vertex -3289.451841 -28.470095 -520.000000
   vertex -3289.451841 -28.470095 -940.000000
  endloop
 endfacet
 facet normal -0.946930 -0.321439 -0.000000
  outer loop
   vertex -3284.826749 -42.095178 -520.000000
   vertex -3289.451841 -28.470095 -940.000000
   vertex -3284.826749 -42.095178 -940.000000
  endloop
 endfacet
 facet normal -0.980785 -0.195090 0.000000
  outer loop
   vertex -3289.451841 -28.470095 -520.000000
   vertex -3292.258935 -14.357881 -520.000000
   vertex -3292.258935 -14.357881 -940.000000
  endloop
 endfacet
 facet normal -0.980785 -0.195090 -0.000000
  outer loop
   vertex -3289.451841 -28.470095 -520.000000
   vertex -3292.258935 -14.357881 -940.000000
   vertex -3289.451841 -28.470095 -940.000000
  endloop
 endfacet
 facet normal -0.997859 -0.065403 0.000000
  outer loop
   vertex -3292.258935 -14.357881 -520.000000
   vertex -3293.200000 -0.000000 -520.000000
   vertex -3293.200000 -0.000000 -940.000000
  endloop
 endfacet
 facet normal -0.997859 -0.065403 -0.000000
  outer loop
   vertex -3292.258935 -14.357881 -520.000000
   vertex -3293.200000 -0.000000 -940.000000
   vertex -3292.258935 -14.357881 -940.000000
  endloop
 endfacet
 facet normal -0.997859 0.065403 0.000000
  outer loop
   vertex -3293.200000 -0.000000 -520.000000
   vertex -3292.258935 14.357881 -520.000000
   vertex -3292.258935 14.357881 -940.000000
  endloop
 endfacet
 facet normal -0.997859 0.065403 0.000000
  outer loop
   vertex -3293.200000 -0.000000 -520.000000
   vertex -3292.258935 14.357881 -940.000000
   vertex -3293.200000 -0.000000 -940.000000
  endloop
 endfacet
 facet normal -0.980785 0.195090 0.000000
  outer loop
   vertex -3292.258935 14.357881 -520.000000
   vertex -3289.451841 28.470095 -520.000000
   vertex -3289.451841 28.470095 -940.000000
  endloop
 endfacet
 facet normal -0.980785 0.195090 0.000000
  outer loop
   vertex -3292.258935 14.357881 -520.000000
   vertex -3289.451841 28.470095 -940.000000
   vertex -3292.258935 14.357881 -940.000000
  endloop
 endfacet
 facet normal -0.946930 0.321439 0.000000
  outer loop
   vertex -3289.451841 28.470095 -520.000000
   vertex -3284.826749 42.095178 -520.000000
   vertex -3284.826749 42.095178 -940.000000
  endloop
 endfacet
 facet normal -0.946930 0.321439 0.000000
  outer loop
   vertex -3289.451841 28.470095 -520.000000
   vertex -3284.826749 42.095178 -940.000000
   vertex -3289.451841 28.470095 -940.000000
  endloop
 endfacet
 facet normal -0.896873 0.442289 0.000000
  outer loop
   vertex -3284.826749 42.095178 -520.000000
   vertex -3278.462794 55.000000 -520.000000
   vertex -3278.462794 55.000000 -940.000000
  endloop
 endfacet
 facet normal -0.896873 0.442289 0.000000
  outer loop
   vertex -3284.826749 42.095178 -520.000000
   vertex -3278.462794 55.000000 -940.000000
   vertex -3284.826749 42.095178 -940.000000
  endloop
 endfacet
 facet normal -0.831470 0.555570 0.000000
  outer loop
   vertex -3278.462794 55.000000 -520.000000
   vertex -3270.468867 66.963757 -520.000000
   vertex -3270.468867 66.963757 -940.000000
  endloop
 endfacet
 facet normal -0.831470 0.555570 0.000000
  outer loop
   vertex -3278.462794 55.000000 -520.000000
   vertex -3270.468867 66.963757 -940.000000
   vertex -3278.462794 55.000000 -940.000000
  endloop
 endfacet
 facet normal -0.751840 0.659346 0.000000
  outer loop
   vertex -3270.468867 66.963757 -520.000000
   vertex -3260.981746 77.781746 -520.000000
   vertex -3260.981746 77.781746 -940.000000
  endloop
 endfacet
 facet normal -0.751840 0.659346 0.000000
  outer loop
   vertex -3270.468867 66.963757 -520.000000
   vertex -3260.981746 77.781746 -940.000000
   vertex -3270.468867 66.963757 -940.000000
  endloop
 endfacet
 facet normal -0.659346 0.751840 0.000000
  outer loop
   vertex -3260.981746 77.781746 -520.000000
   vertex -3250.163757 87.268867 -520.000000
   vertex -3250.163757 87.268867 -940.000000
  endloop
 endfacet
 facet normal -0.659346 0.751840 0.000000
  outer loop
   vertex -3260.981746 77.781746 -520.000000
   vertex -3250.163757 87.268867 -940.000000
   vertex -3260.981746 77.781746 -940.000000
  endloop
 endfacet
 facet normal -0.555570 0.831470 0.000000
  outer loop
   vertex -3250.163757 87.268867 -520.000000
   vertex -3238.200000 95.262794 -520.000000
   vertex -3238.200000 95.262794 -940.000000
  endloop
 endfacet
 facet normal -0.555570 0.831470 0.000000
  outer loop
   vertex -3250.163757 87.268867 -520.000000
   vertex -3238.200000 95.262794 -940.000000
   vertex -3250.163757 87.268867 -940.000000
  endloop
 endfacet
 facet normal -0.442289 0.896873 0.000000
  outer loop
   vertex -3238.200000 95.262794 -520.000000
   vertex -3225.295178 101.626749 -520.000000
   vertex -3225.295178 101.626749 -940.000000
  endloop
 endfacet
 facet normal -0.442289 0.896873 0.000000
  outer loop
   vertex -3238.200000 95.262794 -520.000000
   vertex -3225.295178 101.626749 -940.000000
   vertex -3238.200000 95.262794 -940.000000
  endloop
 endfacet
 facet normal -0.321439 0.946930 0.000000
  outer loop
   vertex -3225.295178 101.626749 -520.000000
   vertex -3211.670095 106.251841 -520.000000
   vertex -3211.670095 106.251841 -940.000000
  endloop
 endfacet
 facet normal -0.321439 0.946930 0.000000
  outer loop
   vertex -3225.295178 101.626749 -520.000000
   vertex -3211.670095 106.251841 -940.000000
   vertex -3225.295178 101.626749 -940.000000
  endloop
 endfacet
 facet normal -0.195090 0.980785 0.000000
  outer loop
   vertex -3211.670095 106.251841 -520.000000
   vertex -3197.557881 109.058935 -520.000000
   vertex -3197.557881 109.058935 -940.000000
  endloop
 endfacet
 facet normal -0.195090 0.980785 0.000000
  outer loop
   vertex -3211.670095 106.251841 -520.000000
   vertex -3197.557881 109.058935 -940.000000
   vertex -3211.670095 106.251841 -940.000000
  endloop
 endfacet
 facet normal -0.065403 0.997859 0.000000
  outer loop
   vertex -3197.557881 109.058935 -520.000000
   vertex -3183.200000 110.000000 -520.000000
   vertex -3183.200000 110.000000 -940.000000
  endloop
 endfacet
 facet normal -0.065403 0.997859 0.000000
  outer loop
   vertex -3197.557881 109.058935 -520.000000
   vertex -3183.200000 110.000000 -940.000000
   vertex -3197.557881 109.058935 -940.000000
  endloop
 endfacet
 facet normal -0.065403 -0.997859 0.000000
  outer loop
   vertex -3170.669486 95.178707 -940.000000
   vertex -3170.669486 95.178707 -520.000000
   vertex -3183.200000 96.000000 -520.000000
  endloop
 endfacet
 facet normal -0.065403 -0.997859 0.000000
  outer loop
   vertex -3183.200000 96.000000 -940.000000
   vertex -3170.669486 95.178707 -940.000000
   vertex -3183.200000 96.000000 -520.000000
  endloop
 endfacet
 facet normal -0.195090 -0.980785 0.000000
  outer loop
   vertex -3158.353372 92.728879 -940.000000
   vertex -3158.353372 92.728879 -520.000000
   vertex -3170.669486 95.178707 -520.000000
  endloop
 endfacet
 facet normal -0.195090 -0.980785 0.000000
  outer loop
   vertex -3170.669486 95.178707 -940.000000
   vertex -3158.353372 92.728879 -940.000000
   vertex -3170.669486 95.178707 -520.000000
  endloop
 endfacet
 facet normal -0.321439 -0.946930 0.000000
  outer loop
   vertex -3146.462390 88.692435 -940.000000
   vertex -3146.462390 88.692435 -520.000000
   vertex -3158.353372 92.728879 -520.000000
  endloop
 endfacet
 facet normal -0.321439 -0.946930 0.000000
  outer loop
   vertex -3158.353372 92.728879 -940.000000
   vertex -3146.462390 88.692435 -940.000000
   vertex -3158.353372 92.728879 -520.000000
  endloop
 endfacet
 facet normal -0.442289 -0.896873 0.000000
  outer loop
   vertex -3135.200000 83.138439 -940.000000
   vertex -3135.200000 83.138439 -520.000000
   vertex -3146.462390 88.692435 -520.000000
  endloop
 endfacet
 facet normal -0.442289 -0.896873 0.000000
  outer loop
   vertex -3146.462390 88.692435 -940.000000
   vertex -3135.200000 83.138439 -940.000000
   vertex -3146.462390 88.692435 -520.000000
  endloop
 endfacet
 facet normal -0.555570 -0.831470 0.000000
  outer loop
   vertex -3124.758903 76.161921 -940.000000
   vertex -3124.758903 76.161921 -520.000000
   vertex -3135.200000 83.138439 -520.000000
  endloop
 endfacet
 facet normal -0.555570 -0.831470 0.000000
  outer loop
   vertex -3135.200000 83.138439 -940.000000
   vertex -3124.758903 76.161921 -940.000000
   vertex -3135.200000 83.138439 -520.000000
  endloop
 endfacet
 facet normal -0.659346 -0.751840 0.000000
  outer loop
   vertex -3115.317749 67.882251 -940.000000
   vertex -3115.317749 67.882251 -520.000000
   vertex -3124.758903 76.161921 -520.000000
  endloop
 endfacet
 facet normal -0.659346 -0.751840 0.000000
  outer loop
   vertex -3124.758903 76.161921 -940.000000
   vertex -3115.317749 67.882251 -940.000000
   vertex -3124.758903 76.161921 -520.000000
  endloop
 endfacet
 facet normal -0.751840 -0.659346 0.000000
  outer loop
   vertex -3107.038079 58.441097 -940.000000
   vertex -3107.038079 58.441097 -520.000000
   vertex -3115.317749 67.882251 -520.000000
  endloop
 endfacet
 facet normal -0.751840 -0.659346 0.000000
  outer loop
   vertex -3115.317749 67.882251 -940.000000
   vertex -3107.038079 58.441097 -940.000000
   vertex -3115.317749 67.882251 -520.000000
  endloop
 endfacet
 facet normal -0.831470 -0.555570 0.000000
  outer loop
   vertex -3100.061561 48.000000 -940.000000
   vertex -3100.061561 48.000000 -520.000000
   vertex -3107.038079 58.441097 -520.000000
  endloop
 endfacet
 facet normal -0.831470 -0.555570 0.000000
  outer loop
   vertex -3107.038079 58.441097 -940.000000
   vertex -3100.061561 48.000000 -940.000000
   vertex -3107.038079 58.441097 -520.000000
  endloop
 endfacet
 facet normal -0.896873 -0.442289 0.000000
  outer loop
   vertex -3094.507565 36.737610 -940.000000
   vertex -3094.507565 36.737610 -520.000000
   vertex -3100.061561 48.000000 -520.000000
  endloop
 endfacet
 facet normal -0.896873 -0.442289 0.000000
  outer loop
   vertex -3100.061561 48.000000 -940.000000
   vertex -3094.507565 36.737610 -940.000000
   vertex -3100.061561 48.000000 -520.000000
  endloop
 endfacet
 facet normal -0.946930 -0.321439 0.000000
  outer loop
   vertex -3090.471121 24.846628 -940.000000
   vertex -3090.471121 24.846628 -520.000000
   vertex -3094.507565 36.737610 -520.000000
  endloop
 endfacet
 facet normal -0.946930 -0.321439 0.000000
  outer loop
   vertex -3094.507565 36.737610 -940.000000
   vertex -3090.471121 24.846628 -940.000000
   vertex -3094.507565 36.737610 -520.000000
  endloop
 endfacet
 facet normal -0.980785 -0.195090 0.000000
  outer loop
   vertex -3088.021293 12.530514 -940.000000
   vertex -3088.021293 12.530514 -520.000000
   vertex -3090.471121 24.846628 -520.000000
  endloop
 endfacet
 facet normal -0.980785 -0.195090 0.000000
  outer loop
   vertex -3090.471121 24.846628 -940.000000
   vertex -3088.021293 12.530514 -940.000000
   vertex -3090.471121 24.846628 -520.000000
  endloop
 endfacet
 facet normal -0.997859 -0.065403 0.000000
  outer loop
   vertex -3087.200000 0.000000 -940.000000
   vertex -3087.200000 0.000000 -520.000000
   vertex -3088.021293 12.530514 -520.000000
  endloop
 endfacet
 facet normal -0.997859 -0.065403 0.000000
  outer loop
   vertex -3088.021293 12.530514 -940.000000
   vertex -3087.200000 0.000000 -940.000000
   vertex -3088.021293 12.530514 -520.000000
  endloop
 endfacet
 facet normal -0.997859 0.065403 0.000000
  outer loop
   vertex -3088.021293 -12.530514 -940.000000
   vertex -3088.021293 -12.530514 -520.000000
   vertex -3087.200000 0.000000 -520.000000
  endloop
 endfacet
 facet normal -0.997859 0.065403 0.000000
  outer loop
   vertex -3087.200000 0.000000 -940.000000
   vertex -3088.021293 -12.530514 -940.000000
   vertex -3087.200000 0.000000 -520.000000
  endloop
 endfacet
 facet normal -0.980785 0.195090 0.000000
  outer loop
   vertex -3090.471121 -24.846628 -940.000000
   vertex -3090.471121 -24.846628 -520.000000
   vertex -3088.021293 -12.530514 -520.000000
  endloop
 endfacet
 facet normal -0.980785 0.195090 0.000000
  outer loop
   vertex -3088.021293 -12.530514 -940.000000
   vertex -3090.471121 -24.846628 -940.000000
   vertex -3088.021293 -12.530514 -520.000000
  endloop
 endfacet
 facet normal -0.946930 0.321439 0.000000
  outer loop
   vertex -3094.507565 -36.737610 -940.000000
   vertex -3094.507565 -36.737610 -520.000000
   vertex -3090.471121 -24.846628 -520.000000
  endloop
 endfacet
 facet normal -0.946930 0.321439 0.000000
  outer loop
   vertex -3090.471121 -24.846628 -940.000000
   vertex -3094.507565 -36.737610 -940.000000
   vertex -3090.471121 -24.846628 -520.000000
  endloop
 endfacet
 facet normal -0.896873 0.442289 0.000000
  outer loop
   vertex -3100.061561 -48.000000 -940.000000
   vertex -3100.061561 -48.000000 -520.000000
   vertex -3094.507565 -36.737610 -520.000000
  endloop
 endfacet
 facet normal -0.896873 0.442289 0.000000
  outer loop
   vertex -3094.507565 -36.737610 -940.000000
   vertex -3100.061561 -48.000000 -940.000000
   vertex -3094.507565 -36.737610 -520.000000
  endloop
 endfacet
 facet normal -0.831470 0.555570 0.000000
  outer loop
   vertex -3107.038079 -58.441097 -940.000000
   vertex -3107.038079 -58.441097 -520.000000
   vertex -3100.061561 -48.000000 -520.000000
  endloop
 endfacet
 facet normal -0.831470 0.555570 0.000000
  outer loop
   vertex -3100.061561 -48.000000 -940.000000
   vertex -3107.038079 -58.441097 -940.000000
   vertex -3100.061561 -48.000000 -520.000000
  endloop
 endfacet
 facet normal -0.751840 0.659346 0.000000
  outer loop
   vertex -3115.317749 -67.882251 -940.000000
   vertex -3115.317749 -67.882251 -520.000000
   vertex -3107.038079 -58.441097 -520.000000
  endloop
 endfacet
 facet normal -0.751840 0.659346 0.000000
  outer loop
   vertex -3107.038079 -58.441097 -940.000000
   vertex -3115.317749 -67.882251 -940.000000
   vertex -3107.038079 -58.441097 -520.000000
  endloop
 endfacet
 facet normal -0.659346 0.751840 0.000000
  outer loop
   vertex -3124.758903 -76.161921 -940.000000
   vertex -3124.758903 -76.161921 -520.000000
   vertex -3115.317749 -67.882251 -520.000000
  endloop
 endfacet
 facet normal -0.659346 0.751840 0.000000
  outer loop
   vertex -3115.317749 -67.882251 -940.000000
   vertex -3124.758903 -76.161921 -940.000000
   vertex -3115.317749 -67.882251 -520.000000
  endloop
 endfacet
 facet normal -0.555570 0.831470 0.000000
  outer loop
   vertex -3135.200000 -83.138439 -940.000000
   vertex -3135.200000 -83.138439 -520.000000
   vertex -3124.758903 -76.161921 -520.000000
  endloop
 endfacet
 facet normal -0.555570 0.831470 0.000000
  outer loop
   vertex -3124.758903 -76.161921 -940.000000
   vertex -3135.200000 -83.138439 -940.000000
   vertex -3124.758903 -76.161921 -520.000000
  endloop
 endfacet
 facet normal -0.442289 0.896873 0.000000
  outer loop
   vertex -3146.462390 -88.692435 -940.000000
   vertex -3146.462390 -88.692435 -520.000000
   vertex -3135.200000 -83.138439 -520.000000
  endloop
 endfacet
 facet normal -0.442289 0.896873 0.000000
  outer loop
   vertex -3135.200000 -83.138439 -940.000000
   vertex -3146.462390 -88.692435 -940.000000
   vertex -3135.200000 -83.138439 -520.000000
  endloop
 endfacet
 facet normal -0.321439 0.946930 0.000000
  outer loop
   vertex -3158.353372 -92.728879 -940.000000
   vertex -3158.353372 -92.728879 -520.000000
   vertex -3146.462390 -88.692435 -520.000000
  endloop
 endfacet
 facet normal -0.321439 0.946930 0.000000
  outer loop
   vertex -3146.462390 -88.692435 -940.000000
   vertex -3158.353372 -92.728879 -940.000000
   vertex -3146.462390 -88.692435 -520.000000
  endloop
 endfacet
 facet normal -0.195090 0.980785 0.000000
  outer loop
   vertex -3170.669486 -95.178707 -940.000000
   vertex -3170.669486 -95.178707 -520.000000
   vertex -3158.353372 -92.728879 -520.000000
  endloop
 endfacet
 facet normal -0.195090 0.980785 0.000000
  outer loop
   vertex -3158.353372 -92.728879 -940.000000
   vertex -3170.669486 -95.178707 -940.000000
   vertex -3158.353372 -92.728879 -520.000000
  endloop
 endfacet
 facet normal -0.065403 0.997859 0.000000
  outer loop
   vertex -3183.200000 -96.000000 -940.000000
   vertex -3183.200000 -96.000000 -520.000000
   vertex -3170.669486 -95.178707 -520.000000
  endloop
 endfacet
 facet normal -0.065403 0.997859 0.000000
  outer loop
   vertex -3170.669486 -95.178707 -940.000000
   vertex -3183.200000 -96.000000 -940.000000
   vertex -3170.669486 -95.178707 -520.000000
  endloop
 endfacet
 facet normal 0.065403 0.997859 -0.000000
  outer loop
   vertex -3195.730514 -95.178707 -940.000000
   vertex -3195.730514 -95.178707 -520.000000
   vertex -3183.200000 -96.000000 -520.000000
  endloop
 endfacet
 facet normal 0.065403 0.997859 -0.000000
  outer loop
   vertex -3183.200000 -96.000000 -940.000000
   vertex -3195.730514 -95.178707 -940.000000
   vertex -3183.200000 -96.000000 -520.000000
  endloop
 endfacet
 facet normal 0.195090 0.980785 -0.000000
  outer loop
   vertex -3208.046628 -92.728879 -940.000000
   vertex -3208.046628 -92.728879 -520.000000
   vertex -3195.730514 -95.178707 -520.000000
  endloop
 endfacet
 facet normal 0.195090 0.980785 -0.000000
  outer loop
   vertex -3195.730514 -95.178707 -940.000000
   vertex -3208.046628 -92.728879 -940.000000
   vertex -3195.730514 -95.178707 -520.000000
  endloop
 endfacet
 facet normal 0.321439 0.946930 -0.000000
  outer loop
   vertex -3219.937610 -88.692435 -940.000000
   vertex -3219.937610 -88.692435 -520.000000
   vertex -3208.046628 -92.728879 -520.000000
  endloop
 endfacet
 facet normal 0.321439 0.946930 -0.000000
  outer loop
   vertex -3208.046628 -92.728879 -940.000000
   vertex -3219.937610 -88.692435 -940.000000
   vertex -3208.046628 -92.728879 -520.000000
  endloop
 endfacet
 facet normal 0.442289 0.896873 -0.000000
  outer loop
   vertex -3231.200000 -83.138439 -940.000000
   vertex -3231.200000 -83.138439 -520.000000
   vertex -3219.937610 -88.692435 -520.000000
  endloop
 endfacet
 facet normal 0.442289 0.896873 -0.000000
  outer loop
   vertex -3219.937610 -88.692435 -940.000000
   vertex -3231.200000 -83.138439 -940.000000
   vertex -3219.937610 -88.692435 -520.000000
  endloop
 endfacet
 facet normal 0.555570 0.831470 -0.000000
  outer loop
   vertex -3241.641097 -76.161921 -940.000000
   vertex -3241.641097 -76.161921 -520.000000
   vertex -3231.200000 -83.138439 -520.000000
  endloop
 endfacet
 facet normal 0.555570 0.831470 -0.000000
  outer loop
   vertex -3231.200000 -83.138439 -940.000000
   vertex -3241.641097 -76.161921 -940.000000
   vertex -3231.200000 -83.138439 -520.000000
  endloop
 endfacet
 facet normal 0.659346 0.751840 -0.000000
  outer loop
   vertex -3251.082251 -67.882251 -940.000000
   vertex -3251.082251 -67.882251 -520.000000
   vertex -3241.641097 -76.161921 -520.000000
  endloop
 endfacet
 facet normal 0.659346 0.751840 -0.000000
  outer loop
   vertex -3241.641097 -76.161921 -940.000000
   vertex -3251.082251 -67.882251 -940.000000
   vertex -3241.641097 -76.161921 -520.000000
  endloop
 endfacet
 facet normal 0.751840 0.659346 -0.000000
  outer loop
   vertex -3259.361921 -58.441097 -940.000000
   vertex -3259.361921 -58.441097 -520.000000
   vertex -3251.082251 -67.882251 -520.000000
  endloop
 endfacet
 facet normal 0.751840 0.659346 -0.000000
  outer loop
   vertex -3251.082251 -67.882251 -940.000000
   vertex -3259.361921 -58.441097 -940.000000
   vertex -3251.082251 -67.882251 -520.000000
  endloop
 endfacet
 facet normal 0.831470 0.555570 -0.000000
  outer loop
   vertex -3266.338439 -48.000000 -940.000000
   vertex -3266.338439 -48.000000 -520.000000
   vertex -3259.361921 -58.441097 -520.000000
  endloop
 endfacet
 facet normal 0.831470 0.555570 -0.000000
  outer loop
   vertex -3259.361921 -58.441097 -940.000000
   vertex -3266.338439 -48.000000 -940.000000
   vertex -3259.361921 -58.441097 -520.000000
  endloop
 endfacet
 facet normal 0.896873 0.442289 -0.000000
  outer loop
   vertex -3271.892435 -36.737610 -940.000000
   vertex -3271.892435 -36.737610 -520.000000
   vertex -3266.338439 -48.000000 -520.000000
  endloop
 endfacet
 facet normal 0.896873 0.442289 -0.000000
  outer loop
   vertex -3266.338439 -48.000000 -940.000000
   vertex -3271.892435 -36.737610 -940.000000
   vertex -3266.338439 -48.000000 -520.000000
  endloop
 endfacet
 facet normal 0.946930 0.321439 -0.000000
  outer loop
   vertex -3275.928879 -24.846628 -940.000000
   vertex -3275.928879 -24.846628 -520.000000
   vertex -3271.892435 -36.737610 -520.000000
  endloop
 endfacet
 facet normal 0.946930 0.321439 -0.000000
  outer loop
   vertex -3271.892435 -36.737610 -940.000000
   vertex -3275.928879 -24.846628 -940.000000
   vertex -3271.892435 -36.737610 -520.000000
  endloop
 endfacet
 facet normal 0.980785 0.195090 -0.000000
  outer loop
   vertex -3278.378707 -12.530514 -940.000000
   vertex -3278.378707 -12.530514 -520.000000
   vertex -3275.928879 -24.846628 -520.000000
  endloop
 endfacet
 facet normal 0.980785 0.195090 -0.000000
  outer loop
   vertex -3275.928879 -24.846628 -940.000000
   vertex -3278.378707 -12.530514 -940.000000
   vertex -3275.928879 -24.846628 -520.000000
  endloop
 endfacet
 facet normal 0.997859 0.065403 -0.000000
  outer loop
   vertex -3279.200000 -0.000000 -940.000000
   vertex -3279.200000 -0.000000 -520.000000
   vertex -3278.378707 -12.530514 -520.000000
  endloop
 endfacet
 facet normal 0.997859 0.065403 -0.000000
  outer loop
   vertex -3278.378707 -12.530514 -940.000000
   vertex -3279.200000 -0.000000 -940.000000
   vertex -3278.378707 -12.530514 -520.000000
  endloop
 endfacet
 facet normal 0.997859 -0.065403 0.000000
  outer loop
   vertex -3278.378707 12.530514 -940.000000
   vertex -3278.378707 12.530514 -520.000000
   vertex -3279.200000 -0.000000 -520.000000
  endloop
 endfacet
 facet normal 0.997859 -0.065403 0.000000
  outer loop
   vertex -3279.200000 -0.000000 -940.000000
   vertex -3278.378707 12.530514 -940.000000
   vertex -3279.200000 -0.000000 -520.000000
  endloop
 endfacet
 facet normal 0.980785 -0.195090 0.000000
  outer loop
   vertex -3275.928879 24.846628 -940.000000
   vertex -3275.928879 24.846628 -520.000000
   vertex -3278.378707 12.530514 -520.000000
  endloop
 endfacet
 facet normal 0.980785 -0.195090 0.000000
  outer loop
   vertex -3278.378707 12.530514 -940.000000
   vertex -3275.928879 24.846628 -940.000000
   vertex -3278.378707 12.530514 -520.000000
  endloop
 endfacet
 facet normal 0.946930 -0.321439 0.000000
  outer loop
   vertex -3271.892435 36.737610 -940.000000
   vertex -3271.892435 36.737610 -520.000000
   vertex -3275.928879 24.846628 -520.000000
  endloop
 endfacet
 facet normal 0.946930 -0.321439 0.000000
  outer loop
   vertex -3275.928879 24.846628 -940.000000
   vertex -3271.892435 36.737610 -940.000000
   vertex -3275.928879 24.846628 -520.000000
  endloop
 endfacet
 facet normal 0.896873 -0.442289 0.000000
  outer loop
   vertex -3266.338439 48.000000 -940.000000
   vertex -3266.338439 48.000000 -520.000000
   vertex -3271.892435 36.737610 -520.000000
  endloop
 endfacet
 facet normal 0.896873 -0.442289 0.000000
  outer loop
   vertex -3271.892435 36.737610 -940.000000
   vertex -3266.338439 48.000000 -940.000000
   vertex -3271.892435 36.737610 -520.000000
  endloop
 endfacet
 facet normal 0.831470 -0.555570 0.000000
  outer loop
   vertex -3259.361921 58.441097 -940.000000
   vertex -3259.361921 58.441097 -520.000000
   vertex -3266.338439 48.000000 -520.000000
  endloop
 endfacet
 facet normal 0.831470 -0.555570 0.000000
  outer loop
   vertex -3266.338439 48.000000 -940.000000
   vertex -3259.361921 58.441097 -940.000000
   vertex -3266.338439 48.000000 -520.000000
  endloop
 endfacet
 facet normal 0.751840 -0.659346 0.000000
  outer loop
   vertex -3251.082251 67.882251 -940.000000
   vertex -3251.082251 67.882251 -520.000000
   vertex -3259.361921 58.441097 -520.000000
  endloop
 endfacet
 facet normal 0.751840 -0.659346 0.000000
  outer loop
   vertex -3259.361921 58.441097 -940.000000
   vertex -3251.082251 67.882251 -940.000000
   vertex -3259.361921 58.441097 -520.000000
  endloop
 endfacet
 facet normal 0.659346 -0.751840 0.000000
  outer loop
   vertex -3241.641097 76.161921 -940.000000
   vertex -3241.641097 76.161921 -520.000000
   vertex -3251.082251 67.882251 -520.000000
  endloop
 endfacet
 facet normal 0.659346 -0.751840 0.000000
  outer loop
   vertex -3251.082251 67.882251 -940.000000
   vertex -3241.641097 76.161921 -940.000000
   vertex -3251.082251 67.882251 -520.000000
  endloop
 endfacet
 facet normal 0.555570 -0.831470 0.000000
  outer loop
   vertex -3231.200000 83.138439 -940.000000
   vertex -3231.200000 83.138439 -520.000000
   vertex -3241.641097 76.161921 -520.000000
  endloop
 endfacet
 facet normal 0.555570 -0.831470 0.000000
  outer loop
   vertex -3241.641097 76.161921 -940.000000
   vertex -3231.200000 83.138439 -940.000000
   vertex -3241.641097 76.161921 -520.000000
  endloop
 endfacet
 facet normal 0.442289 -0.896873 0.000000
  outer loop
   vertex -3219.937610 88.692435 -940.000000
   vertex -3219.937610 88.692435 -520.000000
   vertex -3231.200000 83.138439 -520.000000
  endloop
 endfacet
 facet normal 0.442289 -0.896873 0.000000
  outer loop
   vertex -3231.200000 83.138439 -940.000000
   vertex -3219.937610 88.692435 -940.000000
   vertex -3231.200000 83.138439 -520.000000
  endloop
 endfacet
 facet normal 0.321439 -0.946930 0.000000
  outer loop
   vertex -3208.046628 92.728879 -940.000000
   vertex -3208.046628 92.728879 -520.000000
   vertex -3219.937610 88.692435 -520.000000
  endloop
 endfacet
 facet normal 0.321439 -0.946930 0.000000
  outer loop
   vertex -3219.937610 88.692435 -940.000000
   vertex -3208.046628 92.728879 -940.000000
   vertex -3219.937610 88.692435 -520.000000
  endloop
 endfacet
 facet normal 0.195090 -0.980785 0.000000
  outer loop
   vertex -3195.730514 95.178707 -940.000000
   vertex -3195.730514 95.178707 -520.000000
   vertex -3208.046628 92.728879 -520.000000
  endloop
 endfacet
 facet normal 0.195090 -0.980785 0.000000
  outer loop
   vertex -3208.046628 92.728879 -940.000000
   vertex -3195.730514 95.178707 -940.000000
   vertex -3208.046628 92.728879 -520.000000
  endloop
 endfacet
 facet normal 0.065403 -0.997859 0.000000
  outer loop
   vertex -3183.200000 96.000000 -940.000000
   vertex -3183.200000 96.000000 -520.000000
   vertex -3195.730514 95.178707 -520.000000
  endloop
 endfacet
 facet normal 0.065403 -0.997859 0.000000
  outer loop
   vertex -3195.730514 95.178707 -940.000000
   vertex -3183.200000 96.000000 -940.000000
   vertex -3195.730514 95.178707 -520.000000
  endloop
 endfacet
endsolid SIC_RP1_feed_0_elbow
