solid SIC_RP1_feed_3_Hrun
 facet normal 0.864165 -0.498940 0.065403
  outer loop
   vertex -1489.772775 -2800.281607 -520.000000
   vertex -1490.587756 -2799.811064 -505.642119
   vertex -1497.162600 -2811.198694 -505.642119
  endloop
 endfacet
 facet normal 0.864165 -0.498940 0.065403
  outer loop
   vertex -1489.772775 -2800.281607 -520.000000
   vertex -1497.162600 -2811.198694 -505.642119
   vertex -1496.347620 -2811.669237 -520.000000
  endloop
 endfacet
 facet normal 0.849379 -0.490403 0.195090
  outer loop
   vertex -1490.587756 -2799.811064 -505.642119
   vertex -1493.018753 -2798.407486 -491.529905
   vertex -1499.593597 -2809.795117 -491.529905
  endloop
 endfacet
 facet normal 0.849379 -0.490403 0.195090
  outer loop
   vertex -1490.587756 -2799.811064 -505.642119
   vertex -1499.593597 -2809.795117 -491.529905
   vertex -1497.162600 -2811.198694 -505.642119
  endloop
 endfacet
 facet normal 0.820060 -0.473475 0.321439
  outer loop
   vertex -1493.018753 -2798.407486 -491.529905
   vertex -1497.024171 -2796.094889 -477.904822
   vertex -1503.599015 -2807.482520 -477.904822
  endloop
 endfacet
 facet normal 0.820060 -0.473475 0.321439
  outer loop
   vertex -1493.018753 -2798.407486 -491.529905
   vertex -1503.599015 -2807.482520 -477.904822
   vertex -1499.593597 -2809.795117 -491.529905
  endloop
 endfacet
 facet normal 0.776709 -0.448446 0.442289
  outer loop
   vertex -1497.024171 -2796.094889 -477.904822
   vertex -1502.535476 -2792.912842 -465.000000
   vertex -1509.110321 -2804.300472 -465.000000
  endloop
 endfacet
 facet normal 0.776709 -0.448446 0.442289
  outer loop
   vertex -1497.024171 -2796.094889 -477.904822
   vertex -1509.110321 -2804.300472 -465.000000
   vertex -1503.599015 -2807.482520 -477.904822
  endloop
 endfacet
 facet normal 0.720069 -0.415744 0.555570
  outer loop
   vertex -1502.535476 -2792.912842 -465.000000
   vertex -1509.458369 -2788.915791 -453.036243
   vertex -1516.033214 -2800.303421 -453.036243
  endloop
 endfacet
 facet normal 0.720069 -0.415744 0.555570
  outer loop
   vertex -1502.535476 -2792.912842 -465.000000
   vertex -1516.033214 -2800.303421 -453.036243
   vertex -1509.110321 -2804.300472 -465.000000
  endloop
 endfacet
 facet normal 0.651108 -0.375928 0.659346
  outer loop
   vertex -1509.458369 -2788.915791 -453.036243
   vertex -1517.674397 -2784.172125 -442.218254
   vertex -1524.249242 -2795.559756 -442.218254
  endloop
 endfacet
 facet normal 0.651108 -0.375928 0.659346
  outer loop
   vertex -1509.458369 -2788.915791 -453.036243
   vertex -1524.249242 -2795.559756 -442.218254
   vertex -1516.033214 -2800.303421 -453.036243
  endloop
 endfacet
 facet normal 0.571006 -0.329680 0.751840
  outer loop
   vertex -1517.674397 -2784.172125 -442.218254
   vertex -1527.042982 -2778.763012 -432.731133
   vertex -1533.617826 -2790.150643 -432.731133
  endloop
 endfacet
 facet normal 0.571006 -0.329680 0.751840
  outer loop
   vertex -1517.674397 -2784.172125 -442.218254
   vertex -1533.617826 -2790.150643 -432.731133
   vertex -1524.249242 -2795.559756 -442.218254
  endloop
 endfacet
 facet normal 0.481134 -0.277791 0.831470
  outer loop
   vertex -1527.042982 -2778.763012 -432.731133
   vertex -1537.403823 -2772.781002 -424.737206
   vertex -1543.978668 -2784.168632 -424.737206
  endloop
 endfacet
 facet normal 0.481134 -0.277791 0.831470
  outer loop
   vertex -1527.042982 -2778.763012 -432.731133
   vertex -1543.978668 -2784.168632 -424.737206
   vertex -1533.617826 -2790.150643 -432.731133
  endloop
 endfacet
 facet normal 0.383030 -0.221149 0.896873
  outer loop
   vertex -1537.403823 -2772.781002 -424.737206
   vertex -1548.579645 -2766.328449 -418.373251
   vertex -1555.154490 -2777.716079 -418.373251
  endloop
 endfacet
 facet normal 0.383030 -0.221149 0.896873
  outer loop
   vertex -1537.403823 -2772.781002 -424.737206
   vertex -1555.154490 -2777.716079 -418.373251
   vertex -1543.978668 -2784.168632 -424.737206
  endloop
 endfacet
 facet normal 0.278373 -0.160723 0.946930
  outer loop
   vertex -1548.579645 -2766.328449 -418.373251
   vertex -1560.379226 -2759.515757 -413.748159
   vertex -1566.954071 -2770.903388 -413.748159
  endloop
 endfacet
 facet normal 0.278373 -0.160723 0.946930
  outer loop
   vertex -1548.579645 -2766.328449 -418.373251
   vertex -1566.954071 -2770.903388 -413.748159
   vertex -1555.154490 -2777.716079 -418.373251
  endloop
 endfacet
 facet normal 0.168952 -0.097547 0.980785
  outer loop
   vertex -1560.379226 -2759.515757 -413.748159
   vertex -1572.600673 -2752.459495 -410.941065
   vertex -1579.175517 -2763.847126 -410.941065
  endloop
 endfacet
 facet normal 0.168952 -0.097547 0.980785
  outer loop
   vertex -1560.379226 -2759.515757 -413.748159
   vertex -1579.175517 -2763.847126 -410.941065
   vertex -1566.954071 -2770.903388 -413.748159
  endloop
 endfacet
 facet normal 0.056640 -0.032702 0.997859
  outer loop
   vertex -1572.600673 -2752.459495 -410.941065
   vertex -1585.034871 -2745.280397 -410.000000
   vertex -1591.609716 -2756.668027 -410.000000
  endloop
 endfacet
 facet normal 0.056640 -0.032702 0.997859
  outer loop
   vertex -1572.600673 -2752.459495 -410.941065
   vertex -1591.609716 -2756.668027 -410.000000
   vertex -1579.175517 -2763.847126 -410.941065
  endloop
 endfacet
 facet normal -0.056640 0.032702 0.997859
  outer loop
   vertex -1585.034871 -2745.280397 -410.000000
   vertex -1597.469070 -2738.101298 -410.941065
   vertex -1604.043914 -2749.488929 -410.941065
  endloop
 endfacet
 facet normal -0.056640 0.032702 0.997859
  outer loop
   vertex -1585.034871 -2745.280397 -410.000000
   vertex -1604.043914 -2749.488929 -410.941065
   vertex -1591.609716 -2756.668027 -410.000000
  endloop
 endfacet
 facet normal -0.168952 0.097547 0.980785
  outer loop
   vertex -1597.469070 -2738.101298 -410.941065
   vertex -1609.690516 -2731.045036 -413.748159
   vertex -1616.265360 -2742.432667 -413.748159
  endloop
 endfacet
 facet normal -0.168952 0.097547 0.980785
  outer loop
   vertex -1597.469070 -2738.101298 -410.941065
   vertex -1616.265360 -2742.432667 -413.748159
   vertex -1604.043914 -2749.488929 -410.941065
  endloop
 endfacet
 facet normal -0.278373 0.160723 0.946930
  outer loop
   vertex -1609.690516 -2731.045036 -413.748159
   vertex -1621.490097 -2724.232345 -418.373251
   vertex -1628.064941 -2735.619975 -418.373251
  endloop
 endfacet
 facet normal -0.278373 0.160723 0.946930
  outer loop
   vertex -1609.690516 -2731.045036 -413.748159
   vertex -1628.064941 -2735.619975 -418.373251
   vertex -1616.265360 -2742.432667 -413.748159
  endloop
 endfacet
 facet normal -0.383030 0.221149 0.896873
  outer loop
   vertex -1621.490097 -2724.232345 -418.373251
   vertex -1632.665919 -2717.779792 -424.737206
   vertex -1639.240763 -2729.167422 -424.737206
  endloop
 endfacet
 facet normal -0.383030 0.221149 0.896873
  outer loop
   vertex -1621.490097 -2724.232345 -418.373251
   vertex -1639.240763 -2729.167422 -424.737206
   vertex -1628.064941 -2735.619975 -418.373251
  endloop
 endfacet
 facet normal -0.481134 0.277791 0.831470
  outer loop
   vertex -1632.665919 -2717.779792 -424.737206
   vertex -1643.026761 -2711.797782 -432.731133
   vertex -1649.601605 -2723.185412 -432.731133
  endloop
 endfacet
 facet normal -0.481134 0.277791 0.831470
  outer loop
   vertex -1632.665919 -2717.779792 -424.737206
   vertex -1649.601605 -2723.185412 -432.731133
   vertex -1639.240763 -2729.167422 -424.737206
  endloop
 endfacet
 facet normal -0.571006 0.329680 0.751840
  outer loop
   vertex -1643.026761 -2711.797782 -432.731133
   vertex -1652.395345 -2706.388668 -442.218254
   vertex -1658.970189 -2717.776299 -442.218254
  endloop
 endfacet
 facet normal -0.571006 0.329680 0.751840
  outer loop
   vertex -1643.026761 -2711.797782 -432.731133
   vertex -1658.970189 -2717.776299 -442.218254
   vertex -1649.601605 -2723.185412 -432.731133
  endloop
 endfacet
 facet normal -0.651108 0.375928 0.659346
  outer loop
   vertex -1652.395345 -2706.388668 -442.218254
   vertex -1660.611373 -2701.645003 -453.036243
   vertex -1667.186217 -2713.032634 -453.036243
  endloop
 endfacet
 facet normal -0.651108 0.375928 0.659346
  outer loop
   vertex -1652.395345 -2706.388668 -442.218254
   vertex -1667.186217 -2713.032634 -453.036243
   vertex -1658.970189 -2717.776299 -442.218254
  endloop
 endfacet
 facet normal -0.720069 0.415744 0.555570
  outer loop
   vertex -1660.611373 -2701.645003 -453.036243
   vertex -1667.534266 -2697.647952 -465.000000
   vertex -1674.109110 -2709.035582 -465.000000
  endloop
 endfacet
 facet normal -0.720069 0.415744 0.555570
  outer loop
   vertex -1660.611373 -2701.645003 -453.036243
   vertex -1674.109110 -2709.035582 -465.000000
   vertex -1667.186217 -2713.032634 -453.036243
  endloop
 endfacet
 facet normal -0.776709 0.448446 0.442289
  outer loop
   vertex -1667.534266 -2697.647952 -465.000000
   vertex -1673.045572 -2694.465905 -477.904822
   vertex -1679.620416 -2705.853535 -477.904822
  endloop
 endfacet
 facet normal -0.776709 0.448446 0.442289
  outer loop
   vertex -1667.534266 -2697.647952 -465.000000
   vertex -1679.620416 -2705.853535 -477.904822
   vertex -1674.109110 -2709.035582 -465.000000
  endloop
 endfacet
 facet normal -0.820060 0.473475 0.321439
  outer loop
   vertex -1673.045572 -2694.465905 -477.904822
   vertex -1677.050990 -2692.153308 -491.529905
   vertex -1683.625834 -2703.540938 -491.529905
  endloop
 endfacet
 facet normal -0.820060 0.473475 0.321439
  outer loop
   vertex -1673.045572 -2694.465905 -477.904822
   vertex -1683.625834 -2703.540938 -491.529905
   vertex -1679.620416 -2705.853535 -477.904822
  endloop
 endfacet
 facet normal -0.849379 0.490403 0.195090
  outer loop
   vertex -1677.050990 -2692.153308 -491.529905
   vertex -1679.481987 -2690.749730 -505.642119
   vertex -1686.056831 -2702.137360 -505.642119
  endloop
 endfacet
 facet normal -0.849379 0.490403 0.195090
  outer loop
   vertex -1677.050990 -2692.153308 -491.529905
   vertex -1686.056831 -2702.137360 -505.642119
   vertex -1683.625834 -2703.540938 -491.529905
  endloop
 endfacet
 facet normal -0.864165 0.498940 0.065403
  outer loop
   vertex -1679.481987 -2690.749730 -505.642119
   vertex -1680.296967 -2690.279187 -520.000000
   vertex -1686.871811 -2701.666817 -520.000000
  endloop
 endfacet
 facet normal -0.864165 0.498940 0.065403
  outer loop
   vertex -1679.481987 -2690.749730 -505.642119
   vertex -1686.871811 -2701.666817 -520.000000
   vertex -1686.056831 -2702.137360 -505.642119
  endloop
 endfacet
 facet normal -0.864165 0.498940 -0.065403
  outer loop
   vertex -1680.296967 -2690.279187 -520.000000
   vertex -1679.481987 -2690.749730 -534.357881
   vertex -1686.056831 -2702.137360 -534.357881
  endloop
 endfacet
 facet normal -0.864165 0.498940 -0.065403
  outer loop
   vertex -1680.296967 -2690.279187 -520.000000
   vertex -1686.056831 -2702.137360 -534.357881
   vertex -1686.871811 -2701.666817 -520.000000
  endloop
 endfacet
 facet normal -0.849379 0.490403 -0.195090
  outer loop
   vertex -1679.481987 -2690.749730 -534.357881
   vertex -1677.050990 -2692.153308 -548.470095
   vertex -1683.625834 -2703.540938 -548.470095
  endloop
 endfacet
 facet normal -0.849379 0.490403 -0.195090
  outer loop
   vertex -1679.481987 -2690.749730 -534.357881
   vertex -1683.625834 -2703.540938 -548.470095
   vertex -1686.056831 -2702.137360 -534.357881
  endloop
 endfacet
 facet normal -0.820060 0.473475 -0.321439
  outer loop
   vertex -1677.050990 -2692.153308 -548.470095
   vertex -1673.045572 -2694.465905 -562.095178
   vertex -1679.620416 -2705.853535 -562.095178
  endloop
 endfacet
 facet normal -0.820060 0.473475 -0.321439
  outer loop
   vertex -1677.050990 -2692.153308 -548.470095
   vertex -1679.620416 -2705.853535 -562.095178
   vertex -1683.625834 -2703.540938 -548.470095
  endloop
 endfacet
 facet normal -0.776709 0.448446 -0.442289
  outer loop
   vertex -1673.045572 -2694.465905 -562.095178
   vertex -1667.534266 -2697.647952 -575.000000
   vertex -1674.109110 -2709.035582 -575.000000
  endloop
 endfacet
 facet normal -0.776709 0.448446 -0.442289
  outer loop
   vertex -1673.045572 -2694.465905 -562.095178
   vertex -1674.109110 -2709.035582 -575.000000
   vertex -1679.620416 -2705.853535 -562.095178
  endloop
 endfacet
 facet normal -0.720069 0.415744 -0.555570
  outer loop
   vertex -1667.534266 -2697.647952 -575.000000
   vertex -1660.611373 -2701.645003 -586.963757
   vertex -1667.186217 -2713.032634 -586.963757
  endloop
 endfacet
 facet normal -0.720069 0.415744 -0.555570
  outer loop
   vertex -1667.534266 -2697.647952 -575.000000
   vertex -1667.186217 -2713.032634 -586.963757
   vertex -1674.109110 -2709.035582 -575.000000
  endloop
 endfacet
 facet normal -0.651108 0.375928 -0.659346
  outer loop
   vertex -1660.611373 -2701.645003 -586.963757
   vertex -1652.395345 -2706.388668 -597.781746
   vertex -1658.970189 -2717.776299 -597.781746
  endloop
 endfacet
 facet normal -0.651108 0.375928 -0.659346
  outer loop
   vertex -1660.611373 -2701.645003 -586.963757
   vertex -1658.970189 -2717.776299 -597.781746
   vertex -1667.186217 -2713.032634 -586.963757
  endloop
 endfacet
 facet normal -0.571006 0.329680 -0.751840
  outer loop
   vertex -1652.395345 -2706.388668 -597.781746
   vertex -1643.026761 -2711.797782 -607.268867
   vertex -1649.601605 -2723.185412 -607.268867
  endloop
 endfacet
 facet normal -0.571006 0.329680 -0.751840
  outer loop
   vertex -1652.395345 -2706.388668 -597.781746
   vertex -1649.601605 -2723.185412 -607.268867
   vertex -1658.970189 -2717.776299 -597.781746
  endloop
 endfacet
 facet normal -0.481134 0.277791 -0.831470
  outer loop
   vertex -1643.026761 -2711.797782 -607.268867
   vertex -1632.665919 -2717.779792 -615.262794
   vertex -1639.240763 -2729.167422 -615.262794
  endloop
 endfacet
 facet normal -0.481134 0.277791 -0.831470
  outer loop
   vertex -1643.026761 -2711.797782 -607.268867
   vertex -1639.240763 -2729.167422 -615.262794
   vertex -1649.601605 -2723.185412 -607.268867
  endloop
 endfacet
 facet normal -0.383030 0.221149 -0.896873
  outer loop
   vertex -1632.665919 -2717.779792 -615.262794
   vertex -1621.490097 -2724.232345 -621.626749
   vertex -1628.064941 -2735.619975 -621.626749
  endloop
 endfacet
 facet normal -0.383030 0.221149 -0.896873
  outer loop
   vertex -1632.665919 -2717.779792 -615.262794
   vertex -1628.064941 -2735.619975 -621.626749
   vertex -1639.240763 -2729.167422 -615.262794
  endloop
 endfacet
 facet normal -0.278373 0.160723 -0.946930
  outer loop
   vertex -1621.490097 -2724.232345 -621.626749
   vertex -1609.690516 -2731.045036 -626.251841
   vertex -1616.265360 -2742.432667 -626.251841
  endloop
 endfacet
 facet normal -0.278373 0.160723 -0.946930
  outer loop
   vertex -1621.490097 -2724.232345 -621.626749
   vertex -1616.265360 -2742.432667 -626.251841
   vertex -1628.064941 -2735.619975 -621.626749
  endloop
 endfacet
 facet normal -0.168952 0.097547 -0.980785
  outer loop
   vertex -1609.690516 -2731.045036 -626.251841
   vertex -1597.469070 -2738.101298 -629.058935
   vertex -1604.043914 -2749.488929 -629.058935
  endloop
 endfacet
 facet normal -0.168952 0.097547 -0.980785
  outer loop
   vertex -1609.690516 -2731.045036 -626.251841
   vertex -1604.043914 -2749.488929 -629.058935
   vertex -1616.265360 -2742.432667 -626.251841
  endloop
 endfacet
 facet normal -0.056640 0.032702 -0.997859
  outer loop
   vertex -1597.469070 -2738.101298 -629.058935
   vertex -1585.034871 -2745.280397 -630.000000
   vertex -1591.609716 -2756.668027 -630.000000
  endloop
 endfacet
 facet normal -0.056640 0.032702 -0.997859
  outer loop
   vertex -1597.469070 -2738.101298 -629.058935
   vertex -1591.609716 -2756.668027 -630.000000
   vertex -1604.043914 -2749.488929 -629.058935
  endloop
 endfacet
 facet normal 0.056640 -0.032702 -0.997859
  outer loop
   vertex -1585.034871 -2745.280397 -630.000000
   vertex -1572.600673 -2752.459495 -629.058935
   vertex -1579.175517 -2763.847126 -629.058935
  endloop
 endfacet
 facet normal 0.056640 -0.032702 -0.997859
  outer loop
   vertex -1585.034871 -2745.280397 -630.000000
   vertex -1579.175517 -2763.847126 -629.058935
   vertex -1591.609716 -2756.668027 -630.000000
  endloop
 endfacet
 facet normal 0.168952 -0.097547 -0.980785
  outer loop
   vertex -1572.600673 -2752.459495 -629.058935
   vertex -1560.379226 -2759.515757 -626.251841
   vertex -1566.954071 -2770.903388 -626.251841
  endloop
 endfacet
 facet normal 0.168952 -0.097547 -0.980785
  outer loop
   vertex -1572.600673 -2752.459495 -629.058935
   vertex -1566.954071 -2770.903388 -626.251841
   vertex -1579.175517 -2763.847126 -629.058935
  endloop
 endfacet
 facet normal 0.278373 -0.160723 -0.946930
  outer loop
   vertex -1560.379226 -2759.515757 -626.251841
   vertex -1548.579645 -2766.328449 -621.626749
   vertex -1555.154490 -2777.716079 -621.626749
  endloop
 endfacet
 facet normal 0.278373 -0.160723 -0.946930
  outer loop
   vertex -1560.379226 -2759.515757 -626.251841
   vertex -1555.154490 -2777.716079 -621.626749
   vertex -1566.954071 -2770.903388 -626.251841
  endloop
 endfacet
 facet normal 0.383030 -0.221149 -0.896873
  outer loop
   vertex -1548.579645 -2766.328449 -621.626749
   vertex -1537.403823 -2772.781002 -615.262794
   vertex -1543.978668 -2784.168632 -615.262794
  endloop
 endfacet
 facet normal 0.383030 -0.221149 -0.896873
  outer loop
   vertex -1548.579645 -2766.328449 -621.626749
   vertex -1543.978668 -2784.168632 -615.262794
   vertex -1555.154490 -2777.716079 -621.626749
  endloop
 endfacet
 facet normal 0.481134 -0.277791 -0.831470
  outer loop
   vertex -1537.403823 -2772.781002 -615.262794
   vertex -1527.042982 -2778.763012 -607.268867
   vertex -1533.617826 -2790.150643 -607.268867
  endloop
 endfacet
 facet normal 0.481134 -0.277791 -0.831470
  outer loop
   vertex -1537.403823 -2772.781002 -615.262794
   vertex -1533.617826 -2790.150643 -607.268867
   vertex -1543.978668 -2784.168632 -615.262794
  endloop
 endfacet
 facet normal 0.571006 -0.329680 -0.751840
  outer loop
   vertex -1527.042982 -2778.763012 -607.268867
   vertex -1517.674397 -2784.172125 -597.781746
   vertex -1524.249242 -2795.559756 -597.781746
  endloop
 endfacet
 facet normal 0.571006 -0.329680 -0.751840
  outer loop
   vertex -1527.042982 -2778.763012 -607.268867
   vertex -1524.249242 -2795.559756 -597.781746
   vertex -1533.617826 -2790.150643 -607.268867
  endloop
 endfacet
 facet normal 0.651108 -0.375928 -0.659346
  outer loop
   vertex -1517.674397 -2784.172125 -597.781746
   vertex -1509.458369 -2788.915791 -586.963757
   vertex -1516.033214 -2800.303421 -586.963757
  endloop
 endfacet
 facet normal 0.651108 -0.375928 -0.659346
  outer loop
   vertex -1517.674397 -2784.172125 -597.781746
   vertex -1516.033214 -2800.303421 -586.963757
   vertex -1524.249242 -2795.559756 -597.781746
  endloop
 endfacet
 facet normal 0.720069 -0.415744 -0.555570
  outer loop
   vertex -1509.458369 -2788.915791 -586.963757
   vertex -1502.535476 -2792.912842 -575.000000
   vertex -1509.110321 -2804.300472 -575.000000
  endloop
 endfacet
 facet normal 0.720069 -0.415744 -0.555570
  outer loop
   vertex -1509.458369 -2788.915791 -586.963757
   vertex -1509.110321 -2804.300472 -575.000000
   vertex -1516.033214 -2800.303421 -586.963757
  endloop
 endfacet
 facet normal 0.776709 -0.448446 -0.442289
  outer loop
   vertex -1502.535476 -2792.912842 -575.000000
   vertex -1497.024171 -2796.094889 -562.095178
   vertex -1503.599015 -2807.482520 -562.095178
  endloop
 endfacet
 facet normal 0.776709 -0.448446 -0.442289
  outer loop
   vertex -1502.535476 -2792.912842 -575.000000
   vertex -1503.599015 -2807.482520 -562.095178
   vertex -1509.110321 -2804.300472 -575.000000
  endloop
 endfacet
 facet normal 0.820060 -0.473475 -0.321439
  outer loop
   vertex -1497.024171 -2796.094889 -562.095178
   vertex -1493.018753 -2798.407486 -548.470095
   vertex -1499.593597 -2809.795117 -548.470095
  endloop
 endfacet
 facet normal 0.820060 -0.473475 -0.321439
  outer loop
   vertex -1497.024171 -2796.094889 -562.095178
   vertex -1499.593597 -2809.795117 -548.470095
   vertex -1503.599015 -2807.482520 -562.095178
  endloop
 endfacet
 facet normal 0.849379 -0.490403 -0.195090
  outer loop
   vertex -1493.018753 -2798.407486 -548.470095
   vertex -1490.587756 -2799.811064 -534.357881
   vertex -1497.162600 -2811.198694 -534.357881
  endloop
 endfacet
 facet normal 0.849379 -0.490403 -0.195090
  outer loop
   vertex -1493.018753 -2798.407486 -548.470095
   vertex -1497.162600 -2811.198694 -534.357881
   vertex -1499.593597 -2809.795117 -548.470095
  endloop
 endfacet
 facet normal 0.864165 -0.498940 -0.065403
  outer loop
   vertex -1490.587756 -2799.811064 -534.357881
   vertex -1489.772775 -2800.281607 -520.000000
   vertex -1496.347620 -2811.669237 -520.000000
  endloop
 endfacet
 facet normal 0.864165 -0.498940 -0.065403
  outer loop
   vertex -1490.587756 -2799.811064 -534.357881
   vertex -1496.347620 -2811.669237 -520.000000
   vertex -1497.162600 -2811.198694 -534.357881
  endloop
 endfacet
 facet normal -0.864165 0.498940 -0.065403
  outer loop
   vertex -1509.183142 -2804.258428 -507.469486
   vertex -1502.608298 -2792.870797 -507.469486
   vertex -1501.897042 -2793.281453 -520.000000
  endloop
 endfacet
 facet normal -0.864165 0.498940 -0.065403
  outer loop
   vertex -1508.471886 -2804.669083 -520.000000
   vertex -1509.183142 -2804.258428 -507.469486
   vertex -1501.897042 -2793.281453 -520.000000
  endloop
 endfacet
 facet normal -0.849379 0.490403 -0.195090
  outer loop
   vertex -1511.304739 -2803.033487 -495.153372
   vertex -1504.729895 -2791.645857 -495.153372
   vertex -1502.608298 -2792.870797 -507.469486
  endloop
 endfacet
 facet normal -0.849379 0.490403 -0.195090
  outer loop
   vertex -1509.183142 -2804.258428 -507.469486
   vertex -1511.304739 -2803.033487 -495.153372
   vertex -1502.608298 -2792.870797 -507.469486
  endloop
 endfacet
 facet normal -0.820060 0.473475 -0.321439
  outer loop
   vertex -1514.800377 -2801.015220 -483.262390
   vertex -1508.225533 -2789.627590 -483.262390
   vertex -1504.729895 -2791.645857 -495.153372
  endloop
 endfacet
 facet normal -0.820060 0.473475 -0.321439
  outer loop
   vertex -1511.304739 -2803.033487 -495.153372
   vertex -1514.800377 -2801.015220 -483.262390
   vertex -1504.729895 -2791.645857 -495.153372
  endloop
 endfacet
 facet normal -0.776709 0.448446 -0.442289
  outer loop
   vertex -1519.610244 -2798.238161 -472.000000
   vertex -1513.035399 -2786.850531 -472.000000
   vertex -1508.225533 -2789.627590 -483.262390
  endloop
 endfacet
 facet normal -0.776709 0.448446 -0.442289
  outer loop
   vertex -1514.800377 -2801.015220 -483.262390
   vertex -1519.610244 -2798.238161 -472.000000
   vertex -1508.225533 -2789.627590 -483.262390
  endloop
 endfacet
 facet normal -0.720069 0.415744 -0.555570
  outer loop
   vertex -1525.652041 -2794.749825 -461.558903
   vertex -1519.077197 -2783.362195 -461.558903
   vertex -1513.035399 -2786.850531 -472.000000
  endloop
 endfacet
 facet normal -0.720069 0.415744 -0.555570
  outer loop
   vertex -1519.610244 -2798.238161 -472.000000
   vertex -1525.652041 -2794.749825 -461.558903
   vertex -1513.035399 -2786.850531 -472.000000
  endloop
 endfacet
 facet normal -0.651108 0.375928 -0.659346
  outer loop
   vertex -1532.822393 -2790.609900 -452.117749
   vertex -1526.247548 -2779.222269 -452.117749
   vertex -1519.077197 -2783.362195 -461.558903
  endloop
 endfacet
 facet normal -0.651108 0.375928 -0.659346
  outer loop
   vertex -1525.652041 -2794.749825 -461.558903
   vertex -1532.822393 -2790.609900 -452.117749
   vertex -1519.077197 -2783.362195 -461.558903
  endloop
 endfacet
 facet normal -0.571006 0.329680 -0.751840
  outer loop
   vertex -1540.998612 -2785.889219 -443.838079
   vertex -1534.423768 -2774.501588 -443.838079
   vertex -1526.247548 -2779.222269 -452.117749
  endloop
 endfacet
 facet normal -0.571006 0.329680 -0.751840
  outer loop
   vertex -1532.822393 -2790.609900 -452.117749
   vertex -1540.998612 -2785.889219 -443.838079
   vertex -1526.247548 -2779.222269 -452.117749
  endloop
 endfacet
 facet normal -0.481134 0.277791 -0.831470
  outer loop
   vertex -1550.040801 -2780.668555 -436.861561
   vertex -1543.465957 -2769.280925 -436.861561
   vertex -1534.423768 -2774.501588 -443.838079
  endloop
 endfacet
 facet normal -0.481134 0.277791 -0.831470
  outer loop
   vertex -1540.998612 -2785.889219 -443.838079
   vertex -1550.040801 -2780.668555 -436.861561
   vertex -1534.423768 -2774.501588 -443.838079
  endloop
 endfacet
 facet normal -0.383030 0.221149 -0.896873
  outer loop
   vertex -1559.794246 -2775.037236 -431.307565
   vertex -1553.219401 -2763.649606 -431.307565
   vertex -1543.465957 -2769.280925 -436.861561
  endloop
 endfacet
 facet normal -0.383030 0.221149 -0.896873
  outer loop
   vertex -1550.040801 -2780.668555 -436.861561
   vertex -1559.794246 -2775.037236 -431.307565
   vertex -1543.465957 -2769.280925 -436.861561
  endloop
 endfacet
 facet normal -0.278373 0.160723 -0.946930
  outer loop
   vertex -1570.092062 -2769.091615 -427.271121
   vertex -1563.517218 -2757.703984 -427.271121
   vertex -1553.219401 -2763.649606 -431.307565
  endloop
 endfacet
 facet normal -0.278373 0.160723 -0.946930
  outer loop
   vertex -1559.794246 -2775.037236 -431.307565
   vertex -1570.092062 -2769.091615 -427.271121
   vertex -1553.219401 -2763.649606 -431.307565
  endloop
 endfacet
 facet normal -0.168952 0.097547 -0.980785
  outer loop
   vertex -1580.758051 -2762.933422 -424.821293
   vertex -1574.183207 -2751.545792 -424.821293
   vertex -1563.517218 -2757.703984 -427.271121
  endloop
 endfacet
 facet normal -0.168952 0.097547 -0.980785
  outer loop
   vertex -1570.092062 -2769.091615 -427.271121
   vertex -1580.758051 -2762.933422 -424.821293
   vertex -1563.517218 -2757.703984 -427.271121
  endloop
 endfacet
 facet normal -0.056640 0.032702 -0.997859
  outer loop
   vertex -1591.609716 -2756.668027 -424.000000
   vertex -1585.034871 -2745.280397 -424.000000
   vertex -1574.183207 -2751.545792 -424.821293
  endloop
 endfacet
 facet normal -0.056640 0.032702 -0.997859
  outer loop
   vertex -1580.758051 -2762.933422 -424.821293
   vertex -1591.609716 -2756.668027 -424.000000
   vertex -1574.183207 -2751.545792 -424.821293
  endloop
 endfacet
 facet normal 0.056640 -0.032702 -0.997859
  outer loop
   vertex -1602.461380 -2750.402632 -424.821293
   vertex -1595.886535 -2739.015002 -424.821293
   vertex -1585.034871 -2745.280397 -424.000000
  endloop
 endfacet
 facet normal 0.056640 -0.032702 -0.997859
  outer loop
   vertex -1591.609716 -2756.668027 -424.000000
   vertex -1602.461380 -2750.402632 -424.821293
   vertex -1585.034871 -2745.280397 -424.000000
  endloop
 endfacet
 facet normal 0.168952 -0.097547 -0.980785
  outer loop
   vertex -1613.127369 -2744.244440 -427.271121
   vertex -1606.552525 -2732.856809 -427.271121
   vertex -1595.886535 -2739.015002 -424.821293
  endloop
 endfacet
 facet normal 0.168952 -0.097547 -0.980785
  outer loop
   vertex -1602.461380 -2750.402632 -424.821293
   vertex -1613.127369 -2744.244440 -427.271121
   vertex -1595.886535 -2739.015002 -424.821293
  endloop
 endfacet
 facet normal 0.278373 -0.160723 -0.946930
  outer loop
   vertex -1623.425185 -2738.298818 -431.307565
   vertex -1616.850341 -2726.911188 -431.307565
   vertex -1606.552525 -2732.856809 -427.271121
  endloop
 endfacet
 facet normal 0.278373 -0.160723 -0.946930
  outer loop
   vertex -1613.127369 -2744.244440 -427.271121
   vertex -1623.425185 -2738.298818 -431.307565
   vertex -1606.552525 -2732.856809 -427.271121
  endloop
 endfacet
 facet normal 0.383030 -0.221149 -0.896873
  outer loop
   vertex -1633.178630 -2732.667499 -436.861561
   vertex -1626.603786 -2721.279869 -436.861561
   vertex -1616.850341 -2726.911188 -431.307565
  endloop
 endfacet
 facet normal 0.383030 -0.221149 -0.896873
  outer loop
   vertex -1623.425185 -2738.298818 -431.307565
   vertex -1633.178630 -2732.667499 -436.861561
   vertex -1616.850341 -2726.911188 -431.307565
  endloop
 endfacet
 facet normal 0.481134 -0.277791 -0.831470
  outer loop
   vertex -1642.220819 -2727.446836 -443.838079
   vertex -1635.645975 -2716.059205 -443.838079
   vertex -1626.603786 -2721.279869 -436.861561
  endloop
 endfacet
 facet normal 0.481134 -0.277791 -0.831470
  outer loop
   vertex -1633.178630 -2732.667499 -436.861561
   vertex -1642.220819 -2727.446836 -443.838079
   vertex -1626.603786 -2721.279869 -436.861561
  endloop
 endfacet
 facet normal 0.571006 -0.329680 -0.751840
  outer loop
   vertex -1650.397038 -2722.726155 -452.117749
   vertex -1643.822194 -2711.338525 -452.117749
   vertex -1635.645975 -2716.059205 -443.838079
  endloop
 endfacet
 facet normal 0.571006 -0.329680 -0.751840
  outer loop
   vertex -1642.220819 -2727.446836 -443.838079
   vertex -1650.397038 -2722.726155 -452.117749
   vertex -1635.645975 -2716.059205 -443.838079
  endloop
 endfacet
 facet normal 0.651108 -0.375928 -0.659346
  outer loop
   vertex -1657.567390 -2718.586229 -461.558903
   vertex -1650.992546 -2707.198599 -461.558903
   vertex -1643.822194 -2711.338525 -452.117749
  endloop
 endfacet
 facet normal 0.651108 -0.375928 -0.659346
  outer loop
   vertex -1650.397038 -2722.726155 -452.117749
   vertex -1657.567390 -2718.586229 -461.558903
   vertex -1643.822194 -2711.338525 -452.117749
  endloop
 endfacet
 facet normal 0.720069 -0.415744 -0.555570
  outer loop
   vertex -1663.609187 -2715.097893 -472.000000
   vertex -1657.034343 -2703.710263 -472.000000
   vertex -1650.992546 -2707.198599 -461.558903
  endloop
 endfacet
 facet normal 0.720069 -0.415744 -0.555570
  outer loop
   vertex -1657.567390 -2718.586229 -461.558903
   vertex -1663.609187 -2715.097893 -472.000000
   vertex -1650.992546 -2707.198599 -461.558903
  endloop
 endfacet
 facet normal 0.776709 -0.448446 -0.442289
  outer loop
   vertex -1668.419054 -2712.320834 -483.262390
   vertex -1661.844210 -2700.933204 -483.262390
   vertex -1657.034343 -2703.710263 -472.000000
  endloop
 endfacet
 facet normal 0.776709 -0.448446 -0.442289
  outer loop
   vertex -1663.609187 -2715.097893 -472.000000
   vertex -1668.419054 -2712.320834 -483.262390
   vertex -1657.034343 -2703.710263 -472.000000
  endloop
 endfacet
 facet normal 0.820060 -0.473475 -0.321439
  outer loop
   vertex -1671.914692 -2710.302568 -495.153372
   vertex -1665.339847 -2698.914937 -495.153372
   vertex -1661.844210 -2700.933204 -483.262390
  endloop
 endfacet
 facet normal 0.820060 -0.473475 -0.321439
  outer loop
   vertex -1668.419054 -2712.320834 -483.262390
   vertex -1671.914692 -2710.302568 -495.153372
   vertex -1661.844210 -2700.933204 -483.262390
  endloop
 endfacet
 facet normal 0.849379 -0.490403 -0.195090
  outer loop
   vertex -1674.036289 -2709.077627 -507.469486
   vertex -1667.461445 -2697.689996 -507.469486
   vertex -1665.339847 -2698.914937 -495.153372
  endloop
 endfacet
 facet normal 0.849379 -0.490403 -0.195090
  outer loop
   vertex -1671.914692 -2710.302568 -495.153372
   vertex -1674.036289 -2709.077627 -507.469486
   vertex -1665.339847 -2698.914937 -495.153372
  endloop
 endfacet
 facet normal 0.864165 -0.498940 -0.065403
  outer loop
   vertex -1674.747545 -2708.666971 -520.000000
   vertex -1668.172700 -2697.279341 -520.000000
   vertex -1667.461445 -2697.689996 -507.469486
  endloop
 endfacet
 facet normal 0.864165 -0.498940 -0.065403
  outer loop
   vertex -1674.036289 -2709.077627 -507.469486
   vertex -1674.747545 -2708.666971 -520.000000
   vertex -1667.461445 -2697.689996 -507.469486
  endloop
 endfacet
 facet normal 0.864165 -0.498940 0.065403
  outer loop
   vertex -1674.036289 -2709.077627 -532.530514
   vertex -1667.461445 -2697.689996 -532.530514
   vertex -1668.172700 -2697.279341 -520.000000
  endloop
 endfacet
 facet normal 0.864165 -0.498940 0.065403
  outer loop
   vertex -1674.747545 -2708.666971 -520.000000
   vertex -1674.036289 -2709.077627 -532.530514
   vertex -1668.172700 -2697.279341 -520.000000
  endloop
 endfacet
 facet normal 0.849379 -0.490403 0.195090
  outer loop
   vertex -1671.914692 -2710.302568 -544.846628
   vertex -1665.339847 -2698.914937 -544.846628
   vertex -1667.461445 -2697.689996 -532.530514
  endloop
 endfacet
 facet normal 0.849379 -0.490403 0.195090
  outer loop
   vertex -1674.036289 -2709.077627 -532.530514
   vertex -1671.914692 -2710.302568 -544.846628
   vertex -1667.461445 -2697.689996 -532.530514
  endloop
 endfacet
 facet normal 0.820060 -0.473475 0.321439
  outer loop
   vertex -1668.419054 -2712.320834 -556.737610
   vertex -1661.844210 -2700.933204 -556.737610
   vertex -1665.339847 -2698.914937 -544.846628
  endloop
 endfacet
 facet normal 0.820060 -0.473475 0.321439
  outer loop
   vertex -1671.914692 -2710.302568 -544.846628
   vertex -1668.419054 -2712.320834 -556.737610
   vertex -1665.339847 -2698.914937 -544.846628
  endloop
 endfacet
 facet normal 0.776709 -0.448446 0.442289
  outer loop
   vertex -1663.609187 -2715.097893 -568.000000
   vertex -1657.034343 -2703.710263 -568.000000
   vertex -1661.844210 -2700.933204 -556.737610
  endloop
 endfacet
 facet normal 0.776709 -0.448446 0.442289
  outer loop
   vertex -1668.419054 -2712.320834 -556.737610
   vertex -1663.609187 -2715.097893 -568.000000
   vertex -1661.844210 -2700.933204 -556.737610
  endloop
 endfacet
 facet normal 0.720069 -0.415744 0.555570
  outer loop
   vertex -1657.567390 -2718.586229 -578.441097
   vertex -1650.992546 -2707.198599 -578.441097
   vertex -1657.034343 -2703.710263 -568.000000
  endloop
 endfacet
 facet normal 0.720069 -0.415744 0.555570
  outer loop
   vertex -1663.609187 -2715.097893 -568.000000
   vertex -1657.567390 -2718.586229 -578.441097
   vertex -1657.034343 -2703.710263 -568.000000
  endloop
 endfacet
 facet normal 0.651108 -0.375928 0.659346
  outer loop
   vertex -1650.397038 -2722.726155 -587.882251
   vertex -1643.822194 -2711.338525 -587.882251
   vertex -1650.992546 -2707.198599 -578.441097
  endloop
 endfacet
 facet normal 0.651108 -0.375928 0.659346
  outer loop
   vertex -1657.567390 -2718.586229 -578.441097
   vertex -1650.397038 -2722.726155 -587.882251
   vertex -1650.992546 -2707.198599 -578.441097
  endloop
 endfacet
 facet normal 0.571006 -0.329680 0.751840
  outer loop
   vertex -1642.220819 -2727.446836 -596.161921
   vertex -1635.645975 -2716.059205 -596.161921
   vertex -1643.822194 -2711.338525 -587.882251
  endloop
 endfacet
 facet normal 0.571006 -0.329680 0.751840
  outer loop
   vertex -1650.397038 -2722.726155 -587.882251
   vertex -1642.220819 -2727.446836 -596.161921
   vertex -1643.822194 -2711.338525 -587.882251
  endloop
 endfacet
 facet normal 0.481134 -0.277791 0.831470
  outer loop
   vertex -1633.178630 -2732.667499 -603.138439
   vertex -1626.603786 -2721.279869 -603.138439
   vertex -1635.645975 -2716.059205 -596.161921
  endloop
 endfacet
 facet normal 0.481134 -0.277791 0.831470
  outer loop
   vertex -1642.220819 -2727.446836 -596.161921
   vertex -1633.178630 -2732.667499 -603.138439
   vertex -1635.645975 -2716.059205 -596.161921
  endloop
 endfacet
 facet normal 0.383030 -0.221149 0.896873
  outer loop
   vertex -1623.425185 -2738.298818 -608.692435
   vertex -1616.850341 -2726.911188 -608.692435
   vertex -1626.603786 -2721.279869 -603.138439
  endloop
 endfacet
 facet normal 0.383030 -0.221149 0.896873
  outer loop
   vertex -1633.178630 -2732.667499 -603.138439
   vertex -1623.425185 -2738.298818 -608.692435
   vertex -1626.603786 -2721.279869 -603.138439
  endloop
 endfacet
 facet normal 0.278373 -0.160723 0.946930
  outer loop
   vertex -1613.127369 -2744.244440 -612.728879
   vertex -1606.552525 -2732.856809 -612.728879
   vertex -1616.850341 -2726.911188 -608.692435
  endloop
 endfacet
 facet normal 0.278373 -0.160723 0.946930
  outer loop
   vertex -1623.425185 -2738.298818 -608.692435
   vertex -1613.127369 -2744.244440 -612.728879
   vertex -1616.850341 -2726.911188 -608.692435
  endloop
 endfacet
 facet normal 0.168952 -0.097547 0.980785
  outer loop
   vertex -1602.461380 -2750.402632 -615.178707
   vertex -1595.886535 -2739.015002 -615.178707
   vertex -1606.552525 -2732.856809 -612.728879
  endloop
 endfacet
 facet normal 0.168952 -0.097547 0.980785
  outer loop
   vertex -1613.127369 -2744.244440 -612.728879
   vertex -1602.461380 -2750.402632 -615.178707
   vertex -1606.552525 -2732.856809 -612.728879
  endloop
 endfacet
 facet normal 0.056640 -0.032702 0.997859
  outer loop
   vertex -1591.609716 -2756.668027 -616.000000
   vertex -1585.034871 -2745.280397 -616.000000
   vertex -1595.886535 -2739.015002 -615.178707
  endloop
 endfacet
 facet normal 0.056640 -0.032702 0.997859
  outer loop
   vertex -1602.461380 -2750.402632 -615.178707
   vertex -1591.609716 -2756.668027 -616.000000
   vertex -1595.886535 -2739.015002 -615.178707
  endloop
 endfacet
 facet normal -0.056640 0.032702 0.997859
  outer loop
   vertex -1580.758051 -2762.933422 -615.178707
   vertex -1574.183207 -2751.545792 -615.178707
   vertex -1585.034871 -2745.280397 -616.000000
  endloop
 endfacet
 facet normal -0.056640 0.032702 0.997859
  outer loop
   vertex -1591.609716 -2756.668027 -616.000000
   vertex -1580.758051 -2762.933422 -615.178707
   vertex -1585.034871 -2745.280397 -616.000000
  endloop
 endfacet
 facet normal -0.168952 0.097547 0.980785
  outer loop
   vertex -1570.092062 -2769.091615 -612.728879
   vertex -1563.517218 -2757.703984 -612.728879
   vertex -1574.183207 -2751.545792 -615.178707
  endloop
 endfacet
 facet normal -0.168952 0.097547 0.980785
  outer loop
   vertex -1580.758051 -2762.933422 -615.178707
   vertex -1570.092062 -2769.091615 -612.728879
   vertex -1574.183207 -2751.545792 -615.178707
  endloop
 endfacet
 facet normal -0.278373 0.160723 0.946930
  outer loop
   vertex -1559.794246 -2775.037236 -608.692435
   vertex -1553.219401 -2763.649606 -608.692435
   vertex -1563.517218 -2757.703984 -612.728879
  endloop
 endfacet
 facet normal -0.278373 0.160723 0.946930
  outer loop
   vertex -1570.092062 -2769.091615 -612.728879
   vertex -1559.794246 -2775.037236 -608.692435
   vertex -1563.517218 -2757.703984 -612.728879
  endloop
 endfacet
 facet normal -0.383030 0.221149 0.896873
  outer loop
   vertex -1550.040801 -2780.668555 -603.138439
   vertex -1543.465957 -2769.280925 -603.138439
   vertex -1553.219401 -2763.649606 -608.692435
  endloop
 endfacet
 facet normal -0.383030 0.221149 0.896873
  outer loop
   vertex -1559.794246 -2775.037236 -608.692435
   vertex -1550.040801 -2780.668555 -603.138439
   vertex -1553.219401 -2763.649606 -608.692435
  endloop
 endfacet
 facet normal -0.481134 0.277791 0.831470
  outer loop
   vertex -1540.998612 -2785.889219 -596.161921
   vertex -1534.423768 -2774.501588 -596.161921
   vertex -1543.465957 -2769.280925 -603.138439
  endloop
 endfacet
 facet normal -0.481134 0.277791 0.831470
  outer loop
   vertex -1550.040801 -2780.668555 -603.138439
   vertex -1540.998612 -2785.889219 -596.161921
   vertex -1543.465957 -2769.280925 -603.138439
  endloop
 endfacet
 facet normal -0.571006 0.329680 0.751840
  outer loop
   vertex -1532.822393 -2790.609900 -587.882251
   vertex -1526.247548 -2779.222269 -587.882251
   vertex -1534.423768 -2774.501588 -596.161921
  endloop
 endfacet
 facet normal -0.571006 0.329680 0.751840
  outer loop
   vertex -1540.998612 -2785.889219 -596.161921
   vertex -1532.822393 -2790.609900 -587.882251
   vertex -1534.423768 -2774.501588 -596.161921
  endloop
 endfacet
 facet normal -0.651108 0.375928 0.659346
  outer loop
   vertex -1525.652041 -2794.749825 -578.441097
   vertex -1519.077197 -2783.362195 -578.441097
   vertex -1526.247548 -2779.222269 -587.882251
  endloop
 endfacet
 facet normal -0.651108 0.375928 0.659346
  outer loop
   vertex -1532.822393 -2790.609900 -587.882251
   vertex -1525.652041 -2794.749825 -578.441097
   vertex -1526.247548 -2779.222269 -587.882251
  endloop
 endfacet
 facet normal -0.720069 0.415744 0.555570
  outer loop
   vertex -1519.610244 -2798.238161 -568.000000
   vertex -1513.035399 -2786.850531 -568.000000
   vertex -1519.077197 -2783.362195 -578.441097
  endloop
 endfacet
 facet normal -0.720069 0.415744 0.555570
  outer loop
   vertex -1525.652041 -2794.749825 -578.441097
   vertex -1519.610244 -2798.238161 -568.000000
   vertex -1519.077197 -2783.362195 -578.441097
  endloop
 endfacet
 facet normal -0.776709 0.448446 0.442289
  outer loop
   vertex -1514.800377 -2801.015220 -556.737610
   vertex -1508.225533 -2789.627590 -556.737610
   vertex -1513.035399 -2786.850531 -568.000000
  endloop
 endfacet
 facet normal -0.776709 0.448446 0.442289
  outer loop
   vertex -1519.610244 -2798.238161 -568.000000
   vertex -1514.800377 -2801.015220 -556.737610
   vertex -1513.035399 -2786.850531 -568.000000
  endloop
 endfacet
 facet normal -0.820060 0.473475 0.321439
  outer loop
   vertex -1511.304739 -2803.033487 -544.846628
   vertex -1504.729895 -2791.645857 -544.846628
   vertex -1508.225533 -2789.627590 -556.737610
  endloop
 endfacet
 facet normal -0.820060 0.473475 0.321439
  outer loop
   vertex -1514.800377 -2801.015220 -556.737610
   vertex -1511.304739 -2803.033487 -544.846628
   vertex -1508.225533 -2789.627590 -556.737610
  endloop
 endfacet
 facet normal -0.849379 0.490403 0.195090
  outer loop
   vertex -1509.183142 -2804.258428 -532.530514
   vertex -1502.608298 -2792.870797 -532.530514
   vertex -1504.729895 -2791.645857 -544.846628
  endloop
 endfacet
 facet normal -0.849379 0.490403 0.195090
  outer loop
   vertex -1511.304739 -2803.033487 -544.846628
   vertex -1509.183142 -2804.258428 -532.530514
   vertex -1504.729895 -2791.645857 -544.846628
  endloop
 endfacet
 facet normal -0.864165 0.498940 0.065403
  outer loop
   vertex -1508.471886 -2804.669083 -520.000000
   vertex -1501.897042 -2793.281453 -520.000000
   vertex -1502.608298 -2792.870797 -532.530514
  endloop
 endfacet
 facet normal -0.864165 0.498940 0.065403
  outer loop
   vertex -1509.183142 -2804.258428 -532.530514
   vertex -1508.471886 -2804.669083 -520.000000
   vertex -1502.608298 -2792.870797 -532.530514
  endloop
 endfacet
endsolid SIC_RP1_feed_3_Hrun
