solid SII_LOX_downcomer
 facet normal 0.047655 0.998795 -0.011691
  outer loop
   vertex 4450.000000 81.000000 5100.000000
   vertex 4457.710757 80.609963 5098.108410
   vertex 3147.710757 80.609963 -241.891590
  endloop
 endfacet
 facet normal 0.047655 0.998795 -0.011691
  outer loop
   vertex 4450.000000 81.000000 5100.000000
   vertex 3147.710757 80.609963 -241.891590
   vertex 3140.000000 81.000000 -240.000000
  endloop
 endfacet
 facet normal 0.142505 0.989177 -0.034959
  outer loop
   vertex 4457.710757 80.609963 5098.108410
   vertex 4465.347255 79.443608 5096.235037
   vertex 3155.347255 79.443608 -243.764963
  endloop
 endfacet
 facet normal 0.142505 0.989177 -0.034959
  outer loop
   vertex 4457.710757 80.609963 5098.108410
   vertex 3155.347255 79.443608 -243.764963
   vertex 3147.710757 80.609963 -241.891590
  endloop
 endfacet
 facet normal 0.235983 0.970031 -0.057891
  outer loop
   vertex 4465.347255 79.443608 5096.235037
   vertex 4472.835951 77.512167 5094.397922
   vertex 3162.835951 77.512167 -245.602078
  endloop
 endfacet
 facet normal 0.235983 0.970031 -0.057891
  outer loop
   vertex 4465.347255 79.443608 5096.235037
   vertex 3162.835951 77.512167 -245.602078
   vertex 3155.347255 79.443608 -243.764963
  endloop
 endfacet
 facet normal 0.327188 0.941544 -0.080265
  outer loop
   vertex 4472.835951 77.512167 5094.397922
   vertex 4480.104724 74.834242 5092.614759
   vertex 3170.104724 74.834242 -247.385241
  endloop
 endfacet
 facet normal 0.327188 0.941544 -0.080265
  outer loop
   vertex 4472.835951 77.512167 5094.397922
   vertex 3170.104724 74.834242 -247.385241
   vertex 3162.835951 77.512167 -245.602078
  endloop
 endfacet
 facet normal 0.415243 0.903989 -0.101867
  outer loop
   vertex 4480.104724 74.834242 5092.614759
   vertex 4487.083572 71.435622 5090.902719
   vertex 3177.083572 71.435622 -249.097281
  endloop
 endfacet
 facet normal 0.415243 0.903989 -0.101867
  outer loop
   vertex 4480.104724 74.834242 5092.614759
   vertex 3177.083572 71.435622 -249.097281
   vertex 3170.104724 74.834242 -247.385241
  endloop
 endfacet
 facet normal 0.499298 0.857729 -0.122487
  outer loop
   vertex 4487.083572 71.435622 5090.902719
   vertex 4493.705285 67.349039 5089.278291
   vertex 3183.705285 67.349039 -250.721709
  endloop
 endfacet
 facet normal 0.499298 0.857729 -0.122487
  outer loop
   vertex 4487.083572 71.435622 5090.902719
   vertex 3183.705285 67.349039 -250.721709
   vertex 3177.083572 71.435622 -249.097281
  endloop
 endfacet
 facet normal 0.578545 0.803208 -0.141928
  outer loop
   vertex 4493.705285 67.349039 5089.278291
   vertex 4499.906093 62.613847 5087.757120
   vertex 3189.906093 62.613847 -252.242880
  endloop
 endfacet
 facet normal 0.578545 0.803208 -0.141928
  outer loop
   vertex 4493.705285 67.349039 5089.278291
   vertex 3189.906093 62.613847 -252.242880
   vertex 3183.705285 67.349039 -250.721709
  endloop
 endfacet
 facet normal 0.652220 0.740951 -0.160002
  outer loop
   vertex 4499.906093 62.613847 5087.757120
   vertex 4505.626277 57.275649 5086.353853
   vertex 3195.626277 57.275649 -253.646147
  endloop
 endfacet
 facet normal 0.652220 0.740951 -0.160002
  outer loop
   vertex 4499.906093 62.613847 5087.757120
   vertex 3195.626277 57.275649 -253.646147
   vertex 3189.906093 62.613847 -252.242880
  endloop
 endfacet
 facet normal 0.719614 0.671559 -0.176534
  outer loop
   vertex 4505.626277 57.275649 5086.353853
   vertex 4510.810750 51.385856 5085.082007
   vertex 3200.810750 51.385856 -254.917993
  endloop
 endfacet
 facet normal 0.719614 0.671559 -0.176534
  outer loop
   vertex 4505.626277 57.275649 5086.353853
   vertex 3200.810750 51.385856 -254.917993
   vertex 3195.626277 57.275649 -253.646147
  endloop
 endfacet
 facet normal 0.780077 0.595699 -0.191367
  outer loop
   vertex 4510.810750 51.385856 5085.082007
   vertex 4515.409582 45.001189 5083.953829
   vertex 3205.409582 45.001189 -256.046171
  endloop
 endfacet
 facet normal 0.780077 0.595699 -0.191367
  outer loop
   vertex 4510.810750 51.385856 5085.082007
   vertex 3205.409582 45.001189 -256.046171
   vertex 3200.810750 51.385856 -254.917993
  endloop
 endfacet
 facet normal 0.833029 0.514103 -0.204357
  outer loop
   vertex 4515.409582 45.001189 5083.953829
   vertex 4519.378484 38.183136 5082.980185
   vertex 3209.378484 38.183136 -257.019815
  endloop
 endfacet
 facet normal 0.833029 0.514103 -0.204357
  outer loop
   vertex 4515.409582 45.001189 5083.953829
   vertex 3209.378484 38.183136 -257.019815
   vertex 3205.409582 45.001189 -256.046171
  endloop
 endfacet
 facet normal 0.877957 0.427555 -0.215379
  outer loop
   vertex 4519.378484 38.183136 5082.980185
   vertex 4522.679233 30.997358 5082.170450
   vertex 3212.679233 30.997358 -257.829550
  endloop
 endfacet
 facet normal 0.877957 0.427555 -0.215379
  outer loop
   vertex 4519.378484 38.183136 5082.980185
   vertex 3212.679233 30.997358 -257.829550
   vertex 3209.378484 38.183136 -257.019815
  endloop
 endfacet
 facet normal 0.914430 0.336890 -0.224327
  outer loop
   vertex 4522.679233 30.997358 5082.170450
   vertex 4525.280042 23.513059 5081.532424
   vertex 3215.280042 23.513059 -258.467576
  endloop
 endfacet
 facet normal 0.914430 0.336890 -0.224327
  outer loop
   vertex 4522.679233 30.997358 5082.170450
   vertex 3215.280042 23.513059 -258.467576
   vertex 3212.679233 30.997358 -257.829550
  endloop
 endfacet
 facet normal 0.942097 0.242980 -0.231114
  outer loop
   vertex 4525.280042 23.513059 5081.532424
   vertex 4527.155863 15.802316 5081.072251
   vertex 3217.155863 15.802316 -258.927749
  endloop
 endfacet
 facet normal 0.942097 0.242980 -0.231114
  outer loop
   vertex 4525.280042 23.513059 5081.532424
   vertex 3217.155863 15.802316 -258.927749
   vertex 3215.280042 23.513059 -258.467576
  endloop
 endfacet
 facet normal 0.960691 0.146730 -0.235675
  outer loop
   vertex 4527.155863 15.802316 5081.072251
   vertex 4528.288630 7.939388 5080.794362
   vertex 3218.288630 7.939388 -259.205638
  endloop
 endfacet
 facet normal 0.960691 0.146730 -0.235675
  outer loop
   vertex 4527.155863 15.802316 5081.072251
   vertex 3218.288630 7.939388 -259.205638
   vertex 3217.155863 15.802316 -258.927749
  endloop
 endfacet
 facet normal 0.970033 0.049068 -0.237967
  outer loop
   vertex 4528.288630 7.939388 5080.794362
   vertex 4528.667435 0.000000 5080.701434
   vertex 3218.667435 0.000000 -259.298566
  endloop
 endfacet
 facet normal 0.970033 0.049068 -0.237967
  outer loop
   vertex 4528.288630 7.939388 5080.794362
   vertex 3218.667435 0.000000 -259.298566
   vertex 3218.288630 7.939388 -259.205638
  endloop
 endfacet
 facet normal 0.970033 -0.049068 -0.237967
  outer loop
   vertex 4528.667435 0.000000 5080.701434
   vertex 4528.288630 -7.939388 5080.794362
   vertex 3218.288630 -7.939388 -259.205638
  endloop
 endfacet
 facet normal 0.970033 -0.049068 -0.237967
  outer loop
   vertex 4528.667435 0.000000 5080.701434
   vertex 3218.288630 -7.939388 -259.205638
   vertex 3218.667435 0.000000 -259.298566
  endloop
 endfacet
 facet normal 0.960691 -0.146730 -0.235675
  outer loop
   vertex 4528.288630 -7.939388 5080.794362
   vertex 4527.155863 -15.802316 5081.072251
   vertex 3217.155863 -15.802316 -258.927749
  endloop
 endfacet
 facet normal 0.960691 -0.146730 -0.235675
  outer loop
   vertex 4528.288630 -7.939388 5080.794362
   vertex 3217.155863 -15.802316 -258.927749
   vertex 3218.288630 -7.939388 -259.205638
  endloop
 endfacet
 facet normal 0.942097 -0.242980 -0.231114
  outer loop
   vertex 4527.155863 -15.802316 5081.072251
   vertex 4525.280042 -23.513059 5081.532424
   vertex 3215.280042 -23.513059 -258.467576
  endloop
 endfacet
 facet normal 0.942097 -0.242980 -0.231114
  outer loop
   vertex 4527.155863 -15.802316 5081.072251
   vertex 3215.280042 -23.513059 -258.467576
   vertex 3217.155863 -15.802316 -258.927749
  endloop
 endfacet
 facet normal 0.914430 -0.336890 -0.224327
  outer loop
   vertex 4525.280042 -23.513059 5081.532424
   vertex 4522.679233 -30.997358 5082.170450
   vertex 3212.679233 -30.997358 -257.829550
  endloop
 endfacet
 facet normal 0.914430 -0.336890 -0.224327
  outer loop
   vertex 4525.280042 -23.513059 5081.532424
   vertex 3212.679233 -30.997358 -257.829550
   vertex 3215.280042 -23.513059 -258.467576
  endloop
 endfacet
 facet normal 0.877957 -0.427555 -0.215379
  outer loop
   vertex 4522.679233 -30.997358 5082.170450
   vertex 4519.378484 -38.183136 5082.980185
   vertex 3209.378484 -38.183136 -257.019815
  endloop
 endfacet
 facet normal 0.877957 -0.427555 -0.215379
  outer loop
   vertex 4522.679233 -30.997358 5082.170450
   vertex 3209.378484 -38.183136 -257.019815
   vertex 3212.679233 -30.997358 -257.829550
  endloop
 endfacet
 facet normal 0.833029 -0.514103 -0.204357
  outer loop
   vertex 4519.378484 -38.183136 5082.980185
   vertex 4515.409582 -45.001189 5083.953829
   vertex 3205.409582 -45.001189 -256.046171
  endloop
 endfacet
 facet normal 0.833029 -0.514103 -0.204357
  outer loop
   vertex 4519.378484 -38.183136 5082.980185
   vertex 3205.409582 -45.001189 -256.046171
   vertex 3209.378484 -38.183136 -257.019815
  endloop
 endfacet
 facet normal 0.780077 -0.595699 -0.191367
  outer loop
   vertex 4515.409582 -45.001189 5083.953829
   vertex 4510.810750 -51.385856 5085.082007
   vertex 3200.810750 -51.385856 -254.917993
  endloop
 endfacet
 facet normal 0.780077 -0.595699 -0.191367
  outer loop
   vertex 4515.409582 -45.001189 5083.953829
   vertex 3200.810750 -51.385856 -254.917993
   vertex 3205.409582 -45.001189 -256.046171
  endloop
 endfacet
 facet normal 0.719614 -0.671559 -0.176534
  outer loop
   vertex 4510.810750 -51.385856 5085.082007
   vertex 4505.626277 -57.275649 5086.353853
   vertex 3195.626277 -57.275649 -253.646147
  endloop
 endfacet
 facet normal 0.719614 -0.671559 -0.176534
  outer loop
   vertex 4510.810750 -51.385856 5085.082007
   vertex 3195.626277 -57.275649 -253.646147
   vertex 3200.810750 -51.385856 -254.917993
  endloop
 endfacet
 facet normal 0.652220 -0.740951 -0.160002
  outer loop
   vertex 4505.626277 -57.275649 5086.353853
   vertex 4499.906093 -62.613847 5087.757120
   vertex 3189.906093 -62.613847 -252.242880
  endloop
 endfacet
 facet normal 0.652220 -0.740951 -0.160002
  outer loop
   vertex 4505.626277 -57.275649 5086.353853
   vertex 3189.906093 -62.613847 -252.242880
   vertex 3195.626277 -57.275649 -253.646147
  endloop
 endfacet
 facet normal 0.578545 -0.803208 -0.141928
  outer loop
   vertex 4499.906093 -62.613847 5087.757120
   vertex 4493.705285 -67.349039 5089.278291
   vertex 3183.705285 -67.349039 -250.721709
  endloop
 endfacet
 facet normal 0.578545 -0.803208 -0.141928
  outer loop
   vertex 4499.906093 -62.613847 5087.757120
   vertex 3183.705285 -67.349039 -250.721709
   vertex 3189.906093 -62.613847 -252.242880
  endloop
 endfacet
 facet normal 0.499298 -0.857729 -0.122487
  outer loop
   vertex 4493.705285 -67.349039 5089.278291
   vertex 4487.083572 -71.435622 5090.902719
   vertex 3177.083572 -71.435622 -249.097281
  endloop
 endfacet
 facet normal 0.499298 -0.857729 -0.122487
  outer loop
   vertex 4493.705285 -67.349039 5089.278291
   vertex 3177.083572 -71.435622 -249.097281
   vertex 3183.705285 -67.349039 -250.721709
  endloop
 endfacet
 facet normal 0.415243 -0.903989 -0.101867
  outer loop
   vertex 4487.083572 -71.435622 5090.902719
   vertex 4480.104724 -74.834242 5092.614759
   vertex 3170.104724 -74.834242 -247.385241
  endloop
 endfacet
 facet normal 0.415243 -0.903989 -0.101867
  outer loop
   vertex 4487.083572 -71.435622 5090.902719
   vertex 3170.104724 -74.834242 -247.385241
   vertex 3177.083572 -71.435622 -249.097281
  endloop
 endfacet
 facet normal 0.327188 -0.941544 -0.080265
  outer loop
   vertex 4480.104724 -74.834242 5092.614759
   vertex 4472.835951 -77.512167 5094.397922
   vertex 3162.835951 -77.512167 -245.602078
  endloop
 endfacet
 facet normal 0.327188 -0.941544 -0.080265
  outer loop
   vertex 4480.104724 -74.834242 5092.614759
   vertex 3162.835951 -77.512167 -245.602078
   vertex 3170.104724 -74.834242 -247.385241
  endloop
 endfacet
 facet normal 0.235983 -0.970031 -0.057891
  outer loop
   vertex 4472.835951 -77.512167 5094.397922
   vertex 4465.347255 -79.443608 5096.235037
   vertex 3155.347255 -79.443608 -243.764963
  endloop
 endfacet
 facet normal 0.235983 -0.970031 -0.057891
  outer loop
   vertex 4472.835951 -77.512167 5094.397922
   vertex 3155.347255 -79.443608 -243.764963
   vertex 3162.835951 -77.512167 -245.602078
  endloop
 endfacet
 facet normal 0.142505 -0.989177 -0.034959
  outer loop
   vertex 4465.347255 -79.443608 5096.235037
   vertex 4457.710757 -80.609963 5098.108410
   vertex 3147.710757 -80.609963 -241.891590
  endloop
 endfacet
 facet normal 0.142505 -0.989177 -0.034959
  outer loop
   vertex 4465.347255 -79.443608 5096.235037
   vertex 3147.710757 -80.609963 -241.891590
   vertex 3155.347255 -79.443608 -243.764963
  endloop
 endfacet
 facet normal 0.047655 -0.998795 -0.011691
  outer loop
   vertex 4457.710757 -80.609963 5098.108410
   vertex 4450.000000 -81.000000 5100.000000
   vertex 3140.000000 -81.000000 -240.000000
  endloop
 endfacet
 facet normal 0.047655 -0.998795 -0.011691
  outer loop
   vertex 4457.710757 -80.609963 5098.108410
   vertex 3140.000000 -81.000000 -240.000000
   vertex 3147.710757 -80.609963 -241.891590
  endloop
 endfacet
 facet normal -0.047655 -0.998795 0.011691
  outer loop
   vertex 4450.000000 -81.000000 5100.000000
   vertex 4442.289243 -80.609963 5101.891590
   vertex 3132.289243 -80.609963 -238.108410
  endloop
 endfacet
 facet normal -0.047655 -0.998795 0.011691
  outer loop
   vertex 4450.000000 -81.000000 5100.000000
   vertex 3132.289243 -80.609963 -238.108410
   vertex 3140.000000 -81.000000 -240.000000
  endloop
 endfacet
 facet normal -0.142505 -0.989177 0.034959
  outer loop
   vertex 4442.289243 -80.609963 5101.891590
   vertex 4434.652745 -79.443608 5103.764963
   vertex 3124.652745 -79.443608 -236.235037
  endloop
 endfacet
 facet normal -0.142505 -0.989177 0.034959
  outer loop
   vertex 4442.289243 -80.609963 5101.891590
   vertex 3124.652745 -79.443608 -236.235037
   vertex 3132.289243 -80.609963 -238.108410
  endloop
 endfacet
 facet normal -0.235983 -0.970031 0.057891
  outer loop
   vertex 4434.652745 -79.443608 5103.764963
   vertex 4427.164049 -77.512167 5105.602078
   vertex 3117.164049 -77.512167 -234.397922
  endloop
 endfacet
 facet normal -0.235983 -0.970031 0.057891
  outer loop
   vertex 4434.652745 -79.443608 5103.764963
   vertex 3117.164049 -77.512167 -234.397922
   vertex 3124.652745 -79.443608 -236.235037
  endloop
 endfacet
 facet normal -0.327188 -0.941544 0.080265
  outer loop
   vertex 4427.164049 -77.512167 5105.602078
   vertex 4419.895276 -74.834242 5107.385241
   vertex 3109.895276 -74.834242 -232.614759
  endloop
 endfacet
 facet normal -0.327188 -0.941544 0.080265
  outer loop
   vertex 4427.164049 -77.512167 5105.602078
   vertex 3109.895276 -74.834242 -232.614759
   vertex 3117.164049 -77.512167 -234.397922
  endloop
 endfacet
 facet normal -0.415243 -0.903989 0.101867
  outer loop
   vertex 4419.895276 -74.834242 5107.385241
   vertex 4412.916428 -71.435622 5109.097281
   vertex 3102.916428 -71.435622 -230.902719
  endloop
 endfacet
 facet normal -0.415243 -0.903989 0.101867
  outer loop
   vertex 4419.895276 -74.834242 5107.385241
   vertex 3102.916428 -71.435622 -230.902719
   vertex 3109.895276 -74.834242 -232.614759
  endloop
 endfacet
 facet normal -0.499298 -0.857729 0.122487
  outer loop
   vertex 4412.916428 -71.435622 5109.097281
   vertex 4406.294715 -67.349039 5110.721709
   vertex 3096.294715 -67.349039 -229.278291
  endloop
 endfacet
 facet normal -0.499298 -0.857729 0.122487
  outer loop
   vertex 4412.916428 -71.435622 5109.097281
   vertex 3096.294715 -67.349039 -229.278291
   vertex 3102.916428 -71.435622 -230.902719
  endloop
 endfacet
 facet normal -0.578545 -0.803208 0.141928
  outer loop
   vertex 4406.294715 -67.349039 5110.721709
   vertex 4400.093907 -62.613847 5112.242880
   vertex 3090.093907 -62.613847 -227.757120
  endloop
 endfacet
 facet normal -0.578545 -0.803208 0.141928
  outer loop
   vertex 4406.294715 -67.349039 5110.721709
   vertex 3090.093907 -62.613847 -227.757120
   vertex 3096.294715 -67.349039 -229.278291
  endloop
 endfacet
 facet normal -0.652220 -0.740951 0.160002
  outer loop
   vertex 4400.093907 -62.613847 5112.242880
   vertex 4394.373723 -57.275649 5113.646147
   vertex 3084.373723 -57.275649 -226.353853
  endloop
 endfacet
 facet normal -0.652220 -0.740951 0.160002
  outer loop
   vertex 4400.093907 -62.613847 5112.242880
   vertex 3084.373723 -57.275649 -226.353853
   vertex 3090.093907 -62.613847 -227.757120
  endloop
 endfacet
 facet normal -0.719614 -0.671559 0.176534
  outer loop
   vertex 4394.373723 -57.275649 5113.646147
   vertex 4389.189250 -51.385856 5114.917993
   vertex 3079.189250 -51.385856 -225.082007
  endloop
 endfacet
 facet normal -0.719614 -0.671559 0.176534
  outer loop
   vertex 4394.373723 -57.275649 5113.646147
   vertex 3079.189250 -51.385856 -225.082007
   vertex 3084.373723 -57.275649 -226.353853
  endloop
 endfacet
 facet normal -0.780077 -0.595699 0.191367
  outer loop
   vertex 4389.189250 -51.385856 5114.917993
   vertex 4384.590418 -45.001189 5116.046171
   vertex 3074.590418 -45.001189 -223.953829
  endloop
 endfacet
 facet normal -0.780077 -0.595699 0.191367
  outer loop
   vertex 4389.189250 -51.385856 5114.917993
   vertex 3074.590418 -45.001189 -223.953829
   vertex 3079.189250 -51.385856 -225.082007
  endloop
 endfacet
 facet normal -0.833029 -0.514103 0.204357
  outer loop
   vertex 4384.590418 -45.001189 5116.046171
   vertex 4380.621516 -38.183136 5117.019815
   vertex 3070.621516 -38.183136 -222.980185
  endloop
 endfacet
 facet normal -0.833029 -0.514103 0.204357
  outer loop
   vertex 4384.590418 -45.001189 5116.046171
   vertex 3070.621516 -38.183136 -222.980185
   vertex 3074.590418 -45.001189 -223.953829
  endloop
 endfacet
 facet normal -0.877957 -0.427555 0.215379
  outer loop
   vertex 4380.621516 -38.183136 5117.019815
   vertex 4377.320767 -30.997358 5117.829550
   vertex 3067.320767 -30.997358 -222.170450
  endloop
 endfacet
 facet normal -0.877957 -0.427555 0.215379
  outer loop
   vertex 4380.621516 -38.183136 5117.019815
   vertex 3067.320767 -30.997358 -222.170450
   vertex 3070.621516 -38.183136 -222.980185
  endloop
 endfacet
 facet normal -0.914430 -0.336890 0.224327
  outer loop
   vertex 4377.320767 -30.997358 5117.829550
   vertex 4374.719958 -23.513059 5118.467576
   vertex 3064.719958 -23.513059 -221.532424
  endloop
 endfacet
 facet normal -0.914430 -0.336890 0.224327
  outer loop
   vertex 4377.320767 -30.997358 5117.829550
   vertex 3064.719958 -23.513059 -221.532424
   vertex 3067.320767 -30.997358 -222.170450
  endloop
 endfacet
 facet normal -0.942097 -0.242980 0.231114
  outer loop
   vertex 4374.719958 -23.513059 5118.467576
   vertex 4372.844137 -15.802316 5118.927749
   vertex 3062.844137 -15.802316 -221.072251
  endloop
 endfacet
 facet normal -0.942097 -0.242980 0.231114
  outer loop
   vertex 4374.719958 -23.513059 5118.467576
   vertex 3062.844137 -15.802316 -221.072251
   vertex 3064.719958 -23.513059 -221.532424
  endloop
 endfacet
 facet normal -0.960691 -0.146730 0.235675
  outer loop
   vertex 4372.844137 -15.802316 5118.927749
   vertex 4371.711370 -7.939388 5119.205638
   vertex 3061.711370 -7.939388 -220.794362
  endloop
 endfacet
 facet normal -0.960691 -0.146730 0.235675
  outer loop
   vertex 4372.844137 -15.802316 5118.927749
   vertex 3061.711370 -7.939388 -220.794362
   vertex 3062.844137 -15.802316 -221.072251
  endloop
 endfacet
 facet normal -0.970033 -0.049068 0.237967
  outer loop
   vertex 4371.711370 -7.939388 5119.205638
   vertex 4371.332565 -0.000000 5119.298566
   vertex 3061.332565 -0.000000 -220.701434
  endloop
 endfacet
 facet normal -0.970033 -0.049068 0.237967
  outer loop
   vertex 4371.711370 -7.939388 5119.205638
   vertex 3061.332565 -0.000000 -220.701434
   vertex 3061.711370 -7.939388 -220.794362
  endloop
 endfacet
 facet normal -0.970033 0.049068 0.237967
  outer loop
   vertex 4371.332565 -0.000000 5119.298566
   vertex 4371.711370 7.939388 5119.205638
   vertex 3061.711370 7.939388 -220.794362
  endloop
 endfacet
 facet normal -0.970033 0.049068 0.237967
  outer loop
   vertex 4371.332565 -0.000000 5119.298566
   vertex 3061.711370 7.939388 -220.794362
   vertex 3061.332565 -0.000000 -220.701434
  endloop
 endfacet
 facet normal -0.960691 0.146730 0.235675
  outer loop
   vertex 4371.711370 7.939388 5119.205638
   vertex 4372.844137 15.802316 5118.927749
   vertex 3062.844137 15.802316 -221.072251
  endloop
 endfacet
 facet normal -0.960691 0.146730 0.235675
  outer loop
   vertex 4371.711370 7.939388 5119.205638
   vertex 3062.844137 15.802316 -221.072251
   vertex 3061.711370 7.939388 -220.794362
  endloop
 endfacet
 facet normal -0.942097 0.242980 0.231114
  outer loop
   vertex 4372.844137 15.802316 5118.927749
   vertex 4374.719958 23.513059 5118.467576
   vertex 3064.719958 23.513059 -221.532424
  endloop
 endfacet
 facet normal -0.942097 0.242980 0.231114
  outer loop
   vertex 4372.844137 15.802316 5118.927749
   vertex 3064.719958 23.513059 -221.532424
   vertex 3062.844137 15.802316 -221.072251
  endloop
 endfacet
 facet normal -0.914430 0.336890 0.224327
  outer loop
   vertex 4374.719958 23.513059 5118.467576
   vertex 4377.320767 30.997358 5117.829550
   vertex 3067.320767 30.997358 -222.170450
  endloop
 endfacet
 facet normal -0.914430 0.336890 0.224327
  outer loop
   vertex 4374.719958 23.513059 5118.467576
   vertex 3067.320767 30.997358 -222.170450
   vertex 3064.719958 23.513059 -221.532424
  endloop
 endfacet
 facet normal -0.877957 0.427555 0.215379
  outer loop
   vertex 4377.320767 30.997358 5117.829550
   vertex 4380.621516 38.183136 5117.019815
   vertex 3070.621516 38.183136 -222.980185
  endloop
 endfacet
 facet normal -0.877957 0.427555 0.215379
  outer loop
   vertex 4377.320767 30.997358 5117.829550
   vertex 3070.621516 38.183136 -222.980185
   vertex 3067.320767 30.997358 -222.170450
  endloop
 endfacet
 facet normal -0.833029 0.514103 0.204357
  outer loop
   vertex 4380.621516 38.183136 5117.019815
   vertex 4384.590418 45.001189 5116.046171
   vertex 3074.590418 45.001189 -223.953829
  endloop
 endfacet
 facet normal -0.833029 0.514103 0.204357
  outer loop
   vertex 4380.621516 38.183136 5117.019815
   vertex 3074.590418 45.001189 -223.953829
   vertex 3070.621516 38.183136 -222.980185
  endloop
 endfacet
 facet normal -0.780077 0.595699 0.191367
  outer loop
   vertex 4384.590418 45.001189 5116.046171
   vertex 4389.189250 51.385856 5114.917993
   vertex 3079.189250 51.385856 -225.082007
  endloop
 endfacet
 facet normal -0.780077 0.595699 0.191367
  outer loop
   vertex 4384.590418 45.001189 5116.046171
   vertex 3079.189250 51.385856 -225.082007
   vertex 3074.590418 45.001189 -223.953829
  endloop
 endfacet
 facet normal -0.719614 0.671559 0.176534
  outer loop
   vertex 4389.189250 51.385856 5114.917993
   vertex 4394.373723 57.275649 5113.646147
   vertex 3084.373723 57.275649 -226.353853
  endloop
 endfacet
 facet normal -0.719614 0.671559 0.176534
  outer loop
   vertex 4389.189250 51.385856 5114.917993
   vertex 3084.373723 57.275649 -226.353853
   vertex 3079.189250 51.385856 -225.082007
  endloop
 endfacet
 facet normal -0.652220 0.740951 0.160002
  outer loop
   vertex 4394.373723 57.275649 5113.646147
   vertex 4400.093907 62.613847 5112.242880
   vertex 3090.093907 62.613847 -227.757120
  endloop
 endfacet
 facet normal -0.652220 0.740951 0.160002
  outer loop
   vertex 4394.373723 57.275649 5113.646147
   vertex 3090.093907 62.613847 -227.757120
   vertex 3084.373723 57.275649 -226.353853
  endloop
 endfacet
 facet normal -0.578545 0.803208 0.141928
  outer loop
   vertex 4400.093907 62.613847 5112.242880
   vertex 4406.294715 67.349039 5110.721709
   vertex 3096.294715 67.349039 -229.278291
  endloop
 endfacet
 facet normal -0.578545 0.803208 0.141928
  outer loop
   vertex 4400.093907 62.613847 5112.242880
   vertex 3096.294715 67.349039 -229.278291
   vertex 3090.093907 62.613847 -227.757120
  endloop
 endfacet
 facet normal -0.499298 0.857729 0.122487
  outer loop
   vertex 4406.294715 67.349039 5110.721709
   vertex 4412.916428 71.435622 5109.097281
   vertex 3102.916428 71.435622 -230.902719
  endloop
 endfacet
 facet normal -0.499298 0.857729 0.122487
  outer loop
   vertex 4406.294715 67.349039 5110.721709
   vertex 3102.916428 71.435622 -230.902719
   vertex 3096.294715 67.349039 -229.278291
  endloop
 endfacet
 facet normal -0.415243 0.903989 0.101867
  outer loop
   vertex 4412.916428 71.435622 5109.097281
   vertex 4419.895276 74.834242 5107.385241
   vertex 3109.895276 74.834242 -232.614759
  endloop
 endfacet
 facet normal -0.415243 0.903989 0.101867
  outer loop
   vertex 4412.916428 71.435622 5109.097281
   vertex 3109.895276 74.834242 -232.614759
   vertex 3102.916428 71.435622 -230.902719
  endloop
 endfacet
 facet normal -0.327188 0.941544 0.080265
  outer loop
   vertex 4419.895276 74.834242 5107.385241
   vertex 4427.164049 77.512167 5105.602078
   vertex 3117.164049 77.512167 -234.397922
  endloop
 endfacet
 facet normal -0.327188 0.941544 0.080265
  outer loop
   vertex 4419.895276 74.834242 5107.385241
   vertex 3117.164049 77.512167 -234.397922
   vertex 3109.895276 74.834242 -232.614759
  endloop
 endfacet
 facet normal -0.235983 0.970031 0.057891
  outer loop
   vertex 4427.164049 77.512167 5105.602078
   vertex 4434.652745 79.443608 5103.764963
   vertex 3124.652745 79.443608 -236.235037
  endloop
 endfacet
 facet normal -0.235983 0.970031 0.057891
  outer loop
   vertex 4427.164049 77.512167 5105.602078
   vertex 3124.652745 79.443608 -236.235037
   vertex 3117.164049 77.512167 -234.397922
  endloop
 endfacet
 facet normal -0.142505 0.989177 0.034959
  outer loop
   vertex 4434.652745 79.443608 5103.764963
   vertex 4442.289243 80.609963 5101.891590
   vertex 3132.289243 80.609963 -238.108410
  endloop
 endfacet
 facet normal -0.142505 0.989177 0.034959
  outer loop
   vertex 4434.652745 79.443608 5103.764963
   vertex 3132.289243 80.609963 -238.108410
   vertex 3124.652745 79.443608 -236.235037
  endloop
 endfacet
 facet normal -0.047655 0.998795 0.011691
  outer loop
   vertex 4442.289243 80.609963 5101.891590
   vertex 4450.000000 81.000000 5100.000000
   vertex 3140.000000 81.000000 -240.000000
  endloop
 endfacet
 facet normal -0.047655 0.998795 0.011691
  outer loop
   vertex 4442.289243 80.609963 5101.891590
   vertex 3140.000000 81.000000 -240.000000
   vertex 3132.289243 80.609963 -238.108410
  endloop
 endfacet
 facet normal -0.047655 -0.998795 0.011691
  outer loop
   vertex 3146.758812 70.658116 -241.658061
   vertex 4456.758812 70.658116 5098.341939
   vertex 4450.000000 71.000000 5100.000000
  endloop
 endfacet
 facet normal -0.047655 -0.998795 0.011691
  outer loop
   vertex 3140.000000 71.000000 -240.000000
   vertex 3146.758812 70.658116 -241.658061
   vertex 4450.000000 71.000000 5100.000000
  endloop
 endfacet
 facet normal -0.142505 -0.989177 0.034959
  outer loop
   vertex 3153.452532 69.635755 -243.300153
   vertex 4463.452532 69.635755 5096.699847
   vertex 4456.758812 70.658116 5098.341939
  endloop
 endfacet
 facet normal -0.142505 -0.989177 0.034959
  outer loop
   vertex 3146.758812 70.658116 -241.658061
   vertex 3153.452532 69.635755 -243.300153
   vertex 4456.758812 70.658116 5098.341939
  endloop
 endfacet
 facet normal -0.235983 -0.970031 0.057891
  outer loop
   vertex 3160.016698 67.942764 -244.910463
   vertex 4470.016698 67.942764 5095.089537
   vertex 4463.452532 69.635755 5096.699847
  endloop
 endfacet
 facet normal -0.235983 -0.970031 0.057891
  outer loop
   vertex 3153.452532 69.635755 -243.300153
   vertex 3160.016698 67.942764 -244.910463
   vertex 4463.452532 69.635755 5096.699847
  endloop
 endfacet
 facet normal -0.327188 -0.941544 0.080265
  outer loop
   vertex 3166.388092 65.595447 -246.473483
   vertex 4476.388092 65.595447 5093.526517
   vertex 4470.016698 67.942764 5095.089537
  endloop
 endfacet
 facet normal -0.327188 -0.941544 0.080265
  outer loop
   vertex 3160.016698 67.942764 -244.910463
   vertex 3166.388092 65.595447 -246.473483
   vertex 4470.016698 67.942764 5095.089537
  endloop
 endfacet
 facet normal -0.415243 -0.903989 0.101867
  outer loop
   vertex 3172.505353 62.616410 -247.974160
   vertex 4482.505353 62.616410 5092.025840
   vertex 4476.388092 65.595447 5093.526517
  endloop
 endfacet
 facet normal -0.415243 -0.903989 0.101867
  outer loop
   vertex 3166.388092 65.595447 -246.473483
   vertex 3172.505353 62.616410 -247.974160
   vertex 4476.388092 65.595447 5093.526517
  endloop
 endfacet
 facet normal -0.499298 -0.857729 0.122487
  outer loop
   vertex 3178.309571 59.034342 -249.398041
   vertex 4488.309571 59.034342 5090.601959
   vertex 4482.505353 62.616410 5092.025840
  endloop
 endfacet
 facet normal -0.499298 -0.857729 0.122487
  outer loop
   vertex 3172.505353 62.616410 -247.974160
   vertex 3178.309571 59.034342 -249.398041
   vertex 4482.505353 62.616410 5092.025840
  endloop
 endfacet
 facet normal -0.578545 -0.803208 0.141928
  outer loop
   vertex 3183.744847 54.883742 -250.731414
   vertex 4493.744847 54.883742 5089.268586
   vertex 4488.309571 59.034342 5090.601959
  endloop
 endfacet
 facet normal -0.578545 -0.803208 0.141928
  outer loop
   vertex 3178.309571 59.034342 -249.398041
   vertex 3183.744847 54.883742 -250.731414
   vertex 4488.309571 59.034342 5090.601959
  endloop
 endfacet
 facet normal -0.652220 -0.740951 0.160002
  outer loop
   vertex 3188.758835 50.204581 -251.961437
   vertex 4498.758835 50.204581 5088.038563
   vertex 4493.744847 54.883742 5089.268586
  endloop
 endfacet
 facet normal -0.652220 -0.740951 0.160002
  outer loop
   vertex 3183.744847 54.883742 -250.731414
   vertex 3188.758835 50.204581 -251.961437
   vertex 4493.744847 54.883742 5089.268586
  endloop
 endfacet
 facet normal -0.719614 -0.671559 0.176534
  outer loop
   vertex 3193.303250 45.041923 -253.076265
   vertex 4503.303250 45.041923 5086.923735
   vertex 4498.758835 50.204581 5088.038563
  endloop
 endfacet
 facet normal -0.719614 -0.671559 0.176534
  outer loop
   vertex 3188.758835 50.204581 -251.961437
   vertex 3193.303250 45.041923 -253.076265
   vertex 4498.758835 50.204581 5088.038563
  endloop
 endfacet
 facet normal -0.780077 -0.595699 0.191367
  outer loop
   vertex 3197.334325 39.445487 -254.065162
   vertex 4507.334325 39.445487 5085.934838
   vertex 4503.303250 45.041923 5086.923735
  endloop
 endfacet
 facet normal -0.780077 -0.595699 0.191367
  outer loop
   vertex 3193.303250 45.041923 -253.076265
   vertex 3197.334325 39.445487 -254.065162
   vertex 4503.303250 45.041923 5086.923735
  endloop
 endfacet
 facet normal -0.833029 -0.514103 0.204357
  outer loop
   vertex 3200.813239 33.469168 -254.918604
   vertex 4510.813239 33.469168 5085.081396
   vertex 4507.334325 39.445487 5085.934838
  endloop
 endfacet
 facet normal -0.833029 -0.514103 0.204357
  outer loop
   vertex 3197.334325 39.445487 -254.065162
   vertex 3200.813239 33.469168 -254.918604
   vertex 4507.334325 39.445487 5085.934838
  endloop
 endfacet
 facet normal -0.877957 -0.427555 0.215379
  outer loop
   vertex 3203.706488 27.170524 -255.628371
   vertex 4513.706488 27.170524 5084.371629
   vertex 4510.813239 33.469168 5085.081396
  endloop
 endfacet
 facet normal -0.877957 -0.427555 0.215379
  outer loop
   vertex 3200.813239 33.469168 -254.918604
   vertex 3203.706488 27.170524 -255.628371
   vertex 4510.813239 33.469168 5085.081396
  endloop
 endfacet
 facet normal -0.914430 -0.336890 0.224327
  outer loop
   vertex 3205.986210 20.610212 -256.187628
   vertex 4515.986210 20.610212 5083.812372
   vertex 4513.706488 27.170524 5084.371629
  endloop
 endfacet
 facet normal -0.914430 -0.336890 0.224327
  outer loop
   vertex 3203.706488 27.170524 -255.628371
   vertex 3205.986210 20.610212 -256.187628
   vertex 4513.706488 27.170524 5084.371629
  endloop
 endfacet
 facet normal -0.942097 -0.242980 0.231114
  outer loop
   vertex 3207.630447 13.851413 -256.590990
   vertex 4517.630447 13.851413 5083.409010
   vertex 4515.986210 20.610212 5083.812372
  endloop
 endfacet
 facet normal -0.942097 -0.242980 0.231114
  outer loop
   vertex 3205.986210 20.610212 -256.187628
   vertex 3207.630447 13.851413 -256.590990
   vertex 4515.986210 20.610212 5083.812372
  endloop
 endfacet
 facet normal -0.960691 -0.146730 0.235675
  outer loop
   vertex 3208.623367 6.959217 -256.834571
   vertex 4518.623367 6.959217 5083.165429
   vertex 4517.630447 13.851413 5083.409010
  endloop
 endfacet
 facet normal -0.960691 -0.146730 0.235675
  outer loop
   vertex 3207.630447 13.851413 -256.590990
   vertex 3208.623367 6.959217 -256.834571
   vertex 4517.630447 13.851413 5083.409010
  endloop
 endfacet
 facet normal -0.970033 -0.049068 0.237967
  outer loop
   vertex 3208.955406 0.000000 -256.916027
   vertex 4518.955406 0.000000 5083.083973
   vertex 4518.623367 6.959217 5083.165429
  endloop
 endfacet
 facet normal -0.970033 -0.049068 0.237967
  outer loop
   vertex 3208.623367 6.959217 -256.834571
   vertex 3208.955406 0.000000 -256.916027
   vertex 4518.623367 6.959217 5083.165429
  endloop
 endfacet
 facet normal -0.970033 0.049068 0.237967
  outer loop
   vertex 3208.623367 -6.959217 -256.834571
   vertex 4518.623367 -6.959217 5083.165429
   vertex 4518.955406 0.000000 5083.083973
  endloop
 endfacet
 facet normal -0.970033 0.049068 0.237967
  outer loop
   vertex 3208.955406 0.000000 -256.916027
   vertex 3208.623367 -6.959217 -256.834571
   vertex 4518.955406 0.000000 5083.083973
  endloop
 endfacet
 facet normal -0.960691 0.146730 0.235675
  outer loop
   vertex 3207.630447 -13.851413 -256.590990
   vertex 4517.630447 -13.851413 5083.409010
   vertex 4518.623367 -6.959217 5083.165429
  endloop
 endfacet
 facet normal -0.960691 0.146730 0.235675
  outer loop
   vertex 3208.623367 -6.959217 -256.834571
   vertex 3207.630447 -13.851413 -256.590990
   vertex 4518.623367 -6.959217 5083.165429
  endloop
 endfacet
 facet normal -0.942097 0.242980 0.231114
  outer loop
   vertex 3205.986210 -20.610212 -256.187628
   vertex 4515.986210 -20.610212 5083.812372
   vertex 4517.630447 -13.851413 5083.409010
  endloop
 endfacet
 facet normal -0.942097 0.242980 0.231114
  outer loop
   vertex 3207.630447 -13.851413 -256.590990
   vertex 3205.986210 -20.610212 -256.187628
   vertex 4517.630447 -13.851413 5083.409010
  endloop
 endfacet
 facet normal -0.914430 0.336890 0.224327
  outer loop
   vertex 3203.706488 -27.170524 -255.628371
   vertex 4513.706488 -27.170524 5084.371629
   vertex 4515.986210 -20.610212 5083.812372
  endloop
 endfacet
 facet normal -0.914430 0.336890 0.224327
  outer loop
   vertex 3205.986210 -20.610212 -256.187628
   vertex 3203.706488 -27.170524 -255.628371
   vertex 4515.986210 -20.610212 5083.812372
  endloop
 endfacet
 facet normal -0.877957 0.427555 0.215379
  outer loop
   vertex 3200.813239 -33.469168 -254.918604
   vertex 4510.813239 -33.469168 5085.081396
   vertex 4513.706488 -27.170524 5084.371629
  endloop
 endfacet
 facet normal -0.877957 0.427555 0.215379
  outer loop
   vertex 3203.706488 -27.170524 -255.628371
   vertex 3200.813239 -33.469168 -254.918604
   vertex 4513.706488 -27.170524 5084.371629
  endloop
 endfacet
 facet normal -0.833029 0.514103 0.204357
  outer loop
   vertex 3197.334325 -39.445487 -254.065162
   vertex 4507.334325 -39.445487 5085.934838
   vertex 4510.813239 -33.469168 5085.081396
  endloop
 endfacet
 facet normal -0.833029 0.514103 0.204357
  outer loop
   vertex 3200.813239 -33.469168 -254.918604
   vertex 3197.334325 -39.445487 -254.065162
   vertex 4510.813239 -33.469168 5085.081396
  endloop
 endfacet
 facet normal -0.780077 0.595699 0.191367
  outer loop
   vertex 3193.303250 -45.041923 -253.076265
   vertex 4503.303250 -45.041923 5086.923735
   vertex 4507.334325 -39.445487 5085.934838
  endloop
 endfacet
 facet normal -0.780077 0.595699 0.191367
  outer loop
   vertex 3197.334325 -39.445487 -254.065162
   vertex 3193.303250 -45.041923 -253.076265
   vertex 4507.334325 -39.445487 5085.934838
  endloop
 endfacet
 facet normal -0.719614 0.671559 0.176534
  outer loop
   vertex 3188.758835 -50.204581 -251.961437
   vertex 4498.758835 -50.204581 5088.038563
   vertex 4503.303250 -45.041923 5086.923735
  endloop
 endfacet
 facet normal -0.719614 0.671559 0.176534
  outer loop
   vertex 3193.303250 -45.041923 -253.076265
   vertex 3188.758835 -50.204581 -251.961437
   vertex 4503.303250 -45.041923 5086.923735
  endloop
 endfacet
 facet normal -0.652220 0.740951 0.160002
  outer loop
   vertex 3183.744847 -54.883742 -250.731414
   vertex 4493.744847 -54.883742 5089.268586
   vertex 4498.758835 -50.204581 5088.038563
  endloop
 endfacet
 facet normal -0.652220 0.740951 0.160002
  outer loop
   vertex 3188.758835 -50.204581 -251.961437
   vertex 3183.744847 -54.883742 -250.731414
   vertex 4498.758835 -50.204581 5088.038563
  endloop
 endfacet
 facet normal -0.578545 0.803208 0.141928
  outer loop
   vertex 3178.309571 -59.034342 -249.398041
   vertex 4488.309571 -59.034342 5090.601959
   vertex 4493.744847 -54.883742 5089.268586
  endloop
 endfacet
 facet normal -0.578545 0.803208 0.141928
  outer loop
   vertex 3183.744847 -54.883742 -250.731414
   vertex 3178.309571 -59.034342 -249.398041
   vertex 4493.744847 -54.883742 5089.268586
  endloop
 endfacet
 facet normal -0.499298 0.857729 0.122487
  outer loop
   vertex 3172.505353 -62.616410 -247.974160
   vertex 4482.505353 -62.616410 5092.025840
   vertex 4488.309571 -59.034342 5090.601959
  endloop
 endfacet
 facet normal -0.499298 0.857729 0.122487
  outer loop
   vertex 3178.309571 -59.034342 -249.398041
   vertex 3172.505353 -62.616410 -247.974160
   vertex 4488.309571 -59.034342 5090.601959
  endloop
 endfacet
 facet normal -0.415243 0.903989 0.101867
  outer loop
   vertex 3166.388092 -65.595447 -246.473483
   vertex 4476.388092 -65.595447 5093.526517
   vertex 4482.505353 -62.616410 5092.025840
  endloop
 endfacet
 facet normal -0.415243 0.903989 0.101867
  outer loop
   vertex 3172.505353 -62.616410 -247.974160
   vertex 3166.388092 -65.595447 -246.473483
   vertex 4482.505353 -62.616410 5092.025840
  endloop
 endfacet
 facet normal -0.327188 0.941544 0.080265
  outer loop
   vertex 3160.016698 -67.942764 -244.910463
   vertex 4470.016698 -67.942764 5095.089537
   vertex 4476.388092 -65.595447 5093.526517
  endloop
 endfacet
 facet normal -0.327188 0.941544 0.080265
  outer loop
   vertex 3166.388092 -65.595447 -246.473483
   vertex 3160.016698 -67.942764 -244.910463
   vertex 4476.388092 -65.595447 5093.526517
  endloop
 endfacet
 facet normal -0.235983 0.970031 0.057891
  outer loop
   vertex 3153.452532 -69.635755 -243.300153
   vertex 4463.452532 -69.635755 5096.699847
   vertex 4470.016698 -67.942764 5095.089537
  endloop
 endfacet
 facet normal -0.235983 0.970031 0.057891
  outer loop
   vertex 3160.016698 -67.942764 -244.910463
   vertex 3153.452532 -69.635755 -243.300153
   vertex 4470.016698 -67.942764 5095.089537
  endloop
 endfacet
 facet normal -0.142505 0.989177 0.034959
  outer loop
   vertex 3146.758812 -70.658116 -241.658061
   vertex 4456.758812 -70.658116 5098.341939
   vertex 4463.452532 -69.635755 5096.699847
  endloop
 endfacet
 facet normal -0.142505 0.989177 0.034959
  outer loop
   vertex 3153.452532 -69.635755 -243.300153
   vertex 3146.758812 -70.658116 -241.658061
   vertex 4463.452532 -69.635755 5096.699847
  endloop
 endfacet
 facet normal -0.047655 0.998795 0.011691
  outer loop
   vertex 3140.000000 -71.000000 -240.000000
   vertex 4450.000000 -71.000000 5100.000000
   vertex 4456.758812 -70.658116 5098.341939
  endloop
 endfacet
 facet normal -0.047655 0.998795 0.011691
  outer loop
   vertex 3146.758812 -70.658116 -241.658061
   vertex 3140.000000 -71.000000 -240.000000
   vertex 4456.758812 -70.658116 5098.341939
  endloop
 endfacet
 facet normal 0.047655 0.998795 -0.011691
  outer loop
   vertex 3133.241188 -70.658116 -238.341939
   vertex 4443.241188 -70.658116 5101.658061
   vertex 4450.000000 -71.000000 5100.000000
  endloop
 endfacet
 facet normal 0.047655 0.998795 -0.011691
  outer loop
   vertex 3140.000000 -71.000000 -240.000000
   vertex 3133.241188 -70.658116 -238.341939
   vertex 4450.000000 -71.000000 5100.000000
  endloop
 endfacet
 facet normal 0.142505 0.989177 -0.034959
  outer loop
   vertex 3126.547468 -69.635755 -236.699847
   vertex 4436.547468 -69.635755 5103.300153
   vertex 4443.241188 -70.658116 5101.658061
  endloop
 endfacet
 facet normal 0.142505 0.989177 -0.034959
  outer loop
   vertex 3133.241188 -70.658116 -238.341939
   vertex 3126.547468 -69.635755 -236.699847
   vertex 4443.241188 -70.658116 5101.658061
  endloop
 endfacet
 facet normal 0.235983 0.970031 -0.057891
  outer loop
   vertex 3119.983302 -67.942764 -235.089537
   vertex 4429.983302 -67.942764 5104.910463
   vertex 4436.547468 -69.635755 5103.300153
  endloop
 endfacet
 facet normal 0.235983 0.970031 -0.057891
  outer loop
   vertex 3126.547468 -69.635755 -236.699847
   vertex 3119.983302 -67.942764 -235.089537
   vertex 4436.547468 -69.635755 5103.300153
  endloop
 endfacet
 facet normal 0.327188 0.941544 -0.080265
  outer loop
   vertex 3113.611908 -65.595447 -233.526517
   vertex 4423.611908 -65.595447 5106.473483
   vertex 4429.983302 -67.942764 5104.910463
  endloop
 endfacet
 facet normal 0.327188 0.941544 -0.080265
  outer loop
   vertex 3119.983302 -67.942764 -235.089537
   vertex 3113.611908 -65.595447 -233.526517
   vertex 4429.983302 -67.942764 5104.910463
  endloop
 endfacet
 facet normal 0.415243 0.903989 -0.101867
  outer loop
   vertex 3107.494647 -62.616410 -232.025840
   vertex 4417.494647 -62.616410 5107.974160
   vertex 4423.611908 -65.595447 5106.473483
  endloop
 endfacet
 facet normal 0.415243 0.903989 -0.101867
  outer loop
   vertex 3113.611908 -65.595447 -233.526517
   vertex 3107.494647 -62.616410 -232.025840
   vertex 4423.611908 -65.595447 5106.473483
  endloop
 endfacet
 facet normal 0.499298 0.857729 -0.122487
  outer loop
   vertex 3101.690429 -59.034342 -230.601959
   vertex 4411.690429 -59.034342 5109.398041
   vertex 4417.494647 -62.616410 5107.974160
  endloop
 endfacet
 facet normal 0.499298 0.857729 -0.122487
  outer loop
   vertex 3107.494647 -62.616410 -232.025840
   vertex 3101.690429 -59.034342 -230.601959
   vertex 4417.494647 -62.616410 5107.974160
  endloop
 endfacet
 facet normal 0.578545 0.803208 -0.141928
  outer loop
   vertex 3096.255153 -54.883742 -229.268586
   vertex 4406.255153 -54.883742 5110.731414
   vertex 4411.690429 -59.034342 5109.398041
  endloop
 endfacet
 facet normal 0.578545 0.803208 -0.141928
  outer loop
   vertex 3101.690429 -59.034342 -230.601959
   vertex 3096.255153 -54.883742 -229.268586
   vertex 4411.690429 -59.034342 5109.398041
  endloop
 endfacet
 facet normal 0.652220 0.740951 -0.160002
  outer loop
   vertex 3091.241165 -50.204581 -228.038563
   vertex 4401.241165 -50.204581 5111.961437
   vertex 4406.255153 -54.883742 5110.731414
  endloop
 endfacet
 facet normal 0.652220 0.740951 -0.160002
  outer loop
   vertex 3096.255153 -54.883742 -229.268586
   vertex 3091.241165 -50.204581 -228.038563
   vertex 4406.255153 -54.883742 5110.731414
  endloop
 endfacet
 facet normal 0.719614 0.671559 -0.176534
  outer loop
   vertex 3086.696750 -45.041923 -226.923735
   vertex 4396.696750 -45.041923 5113.076265
   vertex 4401.241165 -50.204581 5111.961437
  endloop
 endfacet
 facet normal 0.719614 0.671559 -0.176534
  outer loop
   vertex 3091.241165 -50.204581 -228.038563
   vertex 3086.696750 -45.041923 -226.923735
   vertex 4401.241165 -50.204581 5111.961437
  endloop
 endfacet
 facet normal 0.780077 0.595699 -0.191367
  outer loop
   vertex 3082.665675 -39.445487 -225.934838
   vertex 4392.665675 -39.445487 5114.065162
   vertex 4396.696750 -45.041923 5113.076265
  endloop
 endfacet
 facet normal 0.780077 0.595699 -0.191367
  outer loop
   vertex 3086.696750 -45.041923 -226.923735
   vertex 3082.665675 -39.445487 -225.934838
   vertex 4396.696750 -45.041923 5113.076265
  endloop
 endfacet
 facet normal 0.833029 0.514103 -0.204357
  outer loop
   vertex 3079.186761 -33.469168 -225.081396
   vertex 4389.186761 -33.469168 5114.918604
   vertex 4392.665675 -39.445487 5114.065162
  endloop
 endfacet
 facet normal 0.833029 0.514103 -0.204357
  outer loop
   vertex 3082.665675 -39.445487 -225.934838
   vertex 3079.186761 -33.469168 -225.081396
   vertex 4392.665675 -39.445487 5114.065162
  endloop
 endfacet
 facet normal 0.877957 0.427555 -0.215379
  outer loop
   vertex 3076.293512 -27.170524 -224.371629
   vertex 4386.293512 -27.170524 5115.628371
   vertex 4389.186761 -33.469168 5114.918604
  endloop
 endfacet
 facet normal 0.877957 0.427555 -0.215379
  outer loop
   vertex 3079.186761 -33.469168 -225.081396
   vertex 3076.293512 -27.170524 -224.371629
   vertex 4389.186761 -33.469168 5114.918604
  endloop
 endfacet
 facet normal 0.914430 0.336890 -0.224327
  outer loop
   vertex 3074.013790 -20.610212 -223.812372
   vertex 4384.013790 -20.610212 5116.187628
   vertex 4386.293512 -27.170524 5115.628371
  endloop
 endfacet
 facet normal 0.914430 0.336890 -0.224327
  outer loop
   vertex 3076.293512 -27.170524 -224.371629
   vertex 3074.013790 -20.610212 -223.812372
   vertex 4386.293512 -27.170524 5115.628371
  endloop
 endfacet
 facet normal 0.942097 0.242980 -0.231114
  outer loop
   vertex 3072.369553 -13.851413 -223.409010
   vertex 4382.369553 -13.851413 5116.590990
   vertex 4384.013790 -20.610212 5116.187628
  endloop
 endfacet
 facet normal 0.942097 0.242980 -0.231114
  outer loop
   vertex 3074.013790 -20.610212 -223.812372
   vertex 3072.369553 -13.851413 -223.409010
   vertex 4384.013790 -20.610212 5116.187628
  endloop
 endfacet
 facet normal 0.960691 0.146730 -0.235675
  outer loop
   vertex 3071.376633 -6.959217 -223.165429
   vertex 4381.376633 -6.959217 5116.834571
   vertex 4382.369553 -13.851413 5116.590990
  endloop
 endfacet
 facet normal 0.960691 0.146730 -0.235675
  outer loop
   vertex 3072.369553 -13.851413 -223.409010
   vertex 3071.376633 -6.959217 -223.165429
   vertex 4382.369553 -13.851413 5116.590990
  endloop
 endfacet
 facet normal 0.970033 0.049068 -0.237967
  outer loop
   vertex 3071.044594 -0.000000 -223.083973
   vertex 4381.044594 -0.000000 5116.916027
   vertex 4381.376633 -6.959217 5116.834571
  endloop
 endfacet
 facet normal 0.970033 0.049068 -0.237967
  outer loop
   vertex 3071.376633 -6.959217 -223.165429
   vertex 3071.044594 -0.000000 -223.083973
   vertex 4381.376633 -6.959217 5116.834571
  endloop
 endfacet
 facet normal 0.970033 -0.049068 -0.237967
  outer loop
   vertex 3071.376633 6.959217 -223.165429
   vertex 4381.376633 6.959217 5116.834571
   vertex 4381.044594 -0.000000 5116.916027
  endloop
 endfacet
 facet normal 0.970033 -0.049068 -0.237967
  outer loop
   vertex 3071.044594 -0.000000 -223.083973
   vertex 3071.376633 6.959217 -223.165429
   vertex 4381.044594 -0.000000 5116.916027
  endloop
 endfacet
 facet normal 0.960691 -0.146730 -0.235675
  outer loop
   vertex 3072.369553 13.851413 -223.409010
   vertex 4382.369553 13.851413 5116.590990
   vertex 4381.376633 6.959217 5116.834571
  endloop
 endfacet
 facet normal 0.960691 -0.146730 -0.235675
  outer loop
   vertex 3071.376633 6.959217 -223.165429
   vertex 3072.369553 13.851413 -223.409010
   vertex 4381.376633 6.959217 5116.834571
  endloop
 endfacet
 facet normal 0.942097 -0.242980 -0.231114
  outer loop
   vertex 3074.013790 20.610212 -223.812372
   vertex 4384.013790 20.610212 5116.187628
   vertex 4382.369553 13.851413 5116.590990
  endloop
 endfacet
 facet normal 0.942097 -0.242980 -0.231114
  outer loop
   vertex 3072.369553 13.851413 -223.409010
   vertex 3074.013790 20.610212 -223.812372
   vertex 4382.369553 13.851413 5116.590990
  endloop
 endfacet
 facet normal 0.914430 -0.336890 -0.224327
  outer loop
   vertex 3076.293512 27.170524 -224.371629
   vertex 4386.293512 27.170524 5115.628371
   vertex 4384.013790 20.610212 5116.187628
  endloop
 endfacet
 facet normal 0.914430 -0.336890 -0.224327
  outer loop
   vertex 3074.013790 20.610212 -223.812372
   vertex 3076.293512 27.170524 -224.371629
   vertex 4384.013790 20.610212 5116.187628
  endloop
 endfacet
 facet normal 0.877957 -0.427555 -0.215379
  outer loop
   vertex 3079.186761 33.469168 -225.081396
   vertex 4389.186761 33.469168 5114.918604
   vertex 4386.293512 27.170524 5115.628371
  endloop
 endfacet
 facet normal 0.877957 -0.427555 -0.215379
  outer loop
   vertex 3076.293512 27.170524 -224.371629
   vertex 3079.186761 33.469168 -225.081396
   vertex 4386.293512 27.170524 5115.628371
  endloop
 endfacet
 facet normal 0.833029 -0.514103 -0.204357
  outer loop
   vertex 3082.665675 39.445487 -225.934838
   vertex 4392.665675 39.445487 5114.065162
   vertex 4389.186761 33.469168 5114.918604
  endloop
 endfacet
 facet normal 0.833029 -0.514103 -0.204357
  outer loop
   vertex 3079.186761 33.469168 -225.081396
   vertex 3082.665675 39.445487 -225.934838
   vertex 4389.186761 33.469168 5114.918604
  endloop
 endfacet
 facet normal 0.780077 -0.595699 -0.191367
  outer loop
   vertex 3086.696750 45.041923 -226.923735
   vertex 4396.696750 45.041923 5113.076265
   vertex 4392.665675 39.445487 5114.065162
  endloop
 endfacet
 facet normal 0.780077 -0.595699 -0.191367
  outer loop
   vertex 3082.665675 39.445487 -225.934838
   vertex 3086.696750 45.041923 -226.923735
   vertex 4392.665675 39.445487 5114.065162
  endloop
 endfacet
 facet normal 0.719614 -0.671559 -0.176534
  outer loop
   vertex 3091.241165 50.204581 -228.038563
   vertex 4401.241165 50.204581 5111.961437
   vertex 4396.696750 45.041923 5113.076265
  endloop
 endfacet
 facet normal 0.719614 -0.671559 -0.176534
  outer loop
   vertex 3086.696750 45.041923 -226.923735
   vertex 3091.241165 50.204581 -228.038563
   vertex 4396.696750 45.041923 5113.076265
  endloop
 endfacet
 facet normal 0.652220 -0.740951 -0.160002
  outer loop
   vertex 3096.255153 54.883742 -229.268586
   vertex 4406.255153 54.883742 5110.731414
   vertex 4401.241165 50.204581 5111.961437
  endloop
 endfacet
 facet normal 0.652220 -0.740951 -0.160002
  outer loop
   vertex 3091.241165 50.204581 -228.038563
   vertex 3096.255153 54.883742 -229.268586
   vertex 4401.241165 50.204581 5111.961437
  endloop
 endfacet
 facet normal 0.578545 -0.803208 -0.141928
  outer loop
   vertex 3101.690429 59.034342 -230.601959
   vertex 4411.690429 59.034342 5109.398041
   vertex 4406.255153 54.883742 5110.731414
  endloop
 endfacet
 facet normal 0.578545 -0.803208 -0.141928
  outer loop
   vertex 3096.255153 54.883742 -229.268586
   vertex 3101.690429 59.034342 -230.601959
   vertex 4406.255153 54.883742 5110.731414
  endloop
 endfacet
 facet normal 0.499298 -0.857729 -0.122487
  outer loop
   vertex 3107.494647 62.616410 -232.025840
   vertex 4417.494647 62.616410 5107.974160
   vertex 4411.690429 59.034342 5109.398041
  endloop
 endfacet
 facet normal 0.499298 -0.857729 -0.122487
  outer loop
   vertex 3101.690429 59.034342 -230.601959
   vertex 3107.494647 62.616410 -232.025840
   vertex 4411.690429 59.034342 5109.398041
  endloop
 endfacet
 facet normal 0.415243 -0.903989 -0.101867
  outer loop
   vertex 3113.611908 65.595447 -233.526517
   vertex 4423.611908 65.595447 5106.473483
   vertex 4417.494647 62.616410 5107.974160
  endloop
 endfacet
 facet normal 0.415243 -0.903989 -0.101867
  outer loop
   vertex 3107.494647 62.616410 -232.025840
   vertex 3113.611908 65.595447 -233.526517
   vertex 4417.494647 62.616410 5107.974160
  endloop
 endfacet
 facet normal 0.327188 -0.941544 -0.080265
  outer loop
   vertex 3119.983302 67.942764 -235.089537
   vertex 4429.983302 67.942764 5104.910463
   vertex 4423.611908 65.595447 5106.473483
  endloop
 endfacet
 facet normal 0.327188 -0.941544 -0.080265
  outer loop
   vertex 3113.611908 65.595447 -233.526517
   vertex 3119.983302 67.942764 -235.089537
   vertex 4423.611908 65.595447 5106.473483
  endloop
 endfacet
 facet normal 0.235983 -0.970031 -0.057891
  outer loop
   vertex 3126.547468 69.635755 -236.699847
   vertex 4436.547468 69.635755 5103.300153
   vertex 4429.983302 67.942764 5104.910463
  endloop
 endfacet
 facet normal 0.235983 -0.970031 -0.057891
  outer loop
   vertex 3119.983302 67.942764 -235.089537
   vertex 3126.547468 69.635755 -236.699847
   vertex 4429.983302 67.942764 5104.910463
  endloop
 endfacet
 facet normal 0.142505 -0.989177 -0.034959
  outer loop
   vertex 3133.241188 70.658116 -238.341939
   vertex 4443.241188 70.658116 5101.658061
   vertex 4436.547468 69.635755 5103.300153
  endloop
 endfacet
 facet normal 0.142505 -0.989177 -0.034959
  outer loop
   vertex 3126.547468 69.635755 -236.699847
   vertex 3133.241188 70.658116 -238.341939
   vertex 4436.547468 69.635755 5103.300153
  endloop
 endfacet
 facet normal 0.047655 -0.998795 -0.011691
  outer loop
   vertex 3140.000000 71.000000 -240.000000
   vertex 4450.000000 71.000000 5100.000000
   vertex 4443.241188 70.658116 5101.658061
  endloop
 endfacet
 facet normal 0.047655 -0.998795 -0.011691
  outer loop
   vertex 3133.241188 70.658116 -238.341939
   vertex 3140.000000 71.000000 -240.000000
   vertex 4443.241188 70.658116 5101.658061
  endloop
 endfacet
endsolid SII_LOX_downcomer
