solid SII_LH2_feed_1_elbow
 facet normal 0.044626 0.998795 0.020400
  outer loop
   vertex 2208.000000 90.000000 -160.000000
   vertex 2216.022968 89.566625 -156.332358
   vertex 2408.022968 89.566625 -576.332358
  endloop
 endfacet
 facet normal 0.044626 0.998795 0.020400
  outer loop
   vertex 2208.000000 90.000000 -160.000000
   vertex 2408.022968 89.566625 -576.332358
   vertex 2400.000000 90.000000 -580.000000
  endloop
 endfacet
 facet normal 0.133448 0.989177 0.061005
  outer loop
   vertex 2216.022968 89.566625 -156.332358
   vertex 2223.968670 88.270675 -152.700037
   vertex 2415.968670 88.270675 -572.700037
  endloop
 endfacet
 facet normal 0.133448 0.989177 0.061005
  outer loop
   vertex 2216.022968 89.566625 -156.332358
   vertex 2415.968670 88.270675 -572.700037
   vertex 2408.022968 89.566625 -576.332358
  endloop
 endfacet
 facet normal 0.220984 0.970031 0.101021
  outer loop
   vertex 2223.968670 88.270675 -152.700037
   vertex 2231.760585 86.124630 -149.138018
   vertex 2423.760585 86.124630 -569.138018
  endloop
 endfacet
 facet normal 0.220984 0.970031 0.101021
  outer loop
   vertex 2223.968670 88.270675 -152.700037
   vertex 2423.760585 86.124630 -569.138018
   vertex 2415.968670 88.270675 -572.700037
  endloop
 endfacet
 facet normal 0.306393 0.941544 0.140065
  outer loop
   vertex 2231.760585 86.124630 -149.138018
   vertex 2239.323673 83.149158 -145.680607
   vertex 2431.323673 83.149158 -565.680607
  endloop
 endfacet
 facet normal 0.306393 0.941544 0.140065
  outer loop
   vertex 2231.760585 86.124630 -149.138018
   vertex 2431.323673 83.149158 -565.680607
   vertex 2423.760585 86.124630 -569.138018
  endloop
 endfacet
 facet normal 0.388850 0.903989 0.177760
  outer loop
   vertex 2239.323673 83.149158 -145.680607
   vertex 2246.585097 79.372914 -142.361099
   vertex 2438.585097 79.372914 -562.361099
  endloop
 endfacet
 facet normal 0.388850 0.903989 0.177760
  outer loop
   vertex 2239.323673 83.149158 -145.680607
   vertex 2438.585097 79.372914 -562.361099
   vertex 2431.323673 83.149158 -565.680607
  endloop
 endfacet
 facet normal 0.467563 0.857729 0.213743
  outer loop
   vertex 2246.585097 79.372914 -142.361099
   vertex 2253.474925 74.832265 -139.211463
   vertex 2445.474925 74.832265 -559.211463
  endloop
 endfacet
 facet normal 0.467563 0.857729 0.213743
  outer loop
   vertex 2246.585097 79.372914 -142.361099
   vertex 2445.474925 74.832265 -559.211463
   vertex 2438.585097 79.372914 -562.361099
  endloop
 endfacet
 facet normal 0.541773 0.803208 0.247668
  outer loop
   vertex 2253.474925 74.832265 -139.211463
   vertex 2259.926805 69.570941 -136.262032
   vertex 2451.926805 69.570941 -556.262032
  endloop
 endfacet
 facet normal 0.541773 0.803208 0.247668
  outer loop
   vertex 2253.474925 74.832265 -139.211463
   vertex 2451.926805 69.570941 -556.262032
   vertex 2445.474925 74.832265 -559.211463
  endloop
 endfacet
 facet normal 0.610766 0.740951 0.279207
  outer loop
   vertex 2259.926805 69.570941 -136.262032
   vertex 2265.878601 63.639610 -133.541211
   vertex 2457.878601 63.639610 -553.541211
  endloop
 endfacet
 facet normal 0.610766 0.740951 0.279207
  outer loop
   vertex 2259.926805 69.570941 -136.262032
   vertex 2457.878601 63.639610 -553.541211
   vertex 2451.926805 69.570941 -556.262032
  endloop
 endfacet
 facet normal 0.673876 0.671559 0.308058
  outer loop
   vertex 2265.878601 63.639610 -133.541211
   vertex 2271.272995 57.095396 -131.075202
   vertex 2463.272995 57.095396 -551.075202
  endloop
 endfacet
 facet normal 0.673876 0.671559 0.308058
  outer loop
   vertex 2265.878601 63.639610 -133.541211
   vertex 2463.272995 57.095396 -551.075202
   vertex 2457.878601 63.639610 -553.541211
  endloop
 endfacet
 facet normal 0.730497 0.595699 0.333941
  outer loop
   vertex 2271.272995 57.095396 -131.075202
   vertex 2276.058035 50.001321 -128.887755
   vertex 2468.058035 50.001321 -548.887755
  endloop
 endfacet
 facet normal 0.730497 0.595699 0.333941
  outer loop
   vertex 2271.272995 57.095396 -131.075202
   vertex 2468.058035 50.001321 -548.887755
   vertex 2463.272995 57.095396 -551.075202
  endloop
 endfacet
 facet normal 0.780082 0.514103 0.356609
  outer loop
   vertex 2276.058035 50.001321 -128.887755
   vertex 2280.187639 42.425706 -126.999936
   vertex 2472.187639 42.425706 -546.999936
  endloop
 endfacet
 facet normal 0.780082 0.514103 0.356609
  outer loop
   vertex 2276.058035 50.001321 -128.887755
   vertex 2472.187639 42.425706 -546.999936
   vertex 2468.058035 50.001321 -548.887755
  endloop
 endfacet
 facet normal 0.822155 0.427555 0.375842
  outer loop
   vertex 2280.187639 42.425706 -126.999936
   vertex 2283.622037 34.441509 -125.429926
   vertex 2475.622037 34.441509 -545.429926
  endloop
 endfacet
 facet normal 0.822155 0.427555 0.375842
  outer loop
   vertex 2280.187639 42.425706 -126.999936
   vertex 2475.622037 34.441509 -545.429926
   vertex 2472.187639 42.425706 -546.999936
  endloop
 endfacet
 facet normal 0.856310 0.336890 0.391456
  outer loop
   vertex 2283.622037 34.441509 -125.429926
   vertex 2286.328153 26.125621 -124.192844
   vertex 2478.328153 26.125621 -544.192844
  endloop
 endfacet
 facet normal 0.856310 0.336890 0.391456
  outer loop
   vertex 2283.622037 34.441509 -125.429926
   vertex 2478.328153 26.125621 -544.192844
   vertex 2475.622037 34.441509 -545.429926
  endloop
 endfacet
 facet normal 0.882219 0.242980 0.403300
  outer loop
   vertex 2286.328153 26.125621 -124.192844
   vertex 2288.279926 17.558129 -123.300605
   vertex 2480.279926 17.558129 -543.300605
  endloop
 endfacet
 facet normal 0.882219 0.242980 0.403300
  outer loop
   vertex 2286.328153 26.125621 -124.192844
   vertex 2480.279926 17.558129 -543.300605
   vertex 2478.328153 26.125621 -544.192844
  endloop
 endfacet
 facet normal 0.899631 0.146730 0.411260
  outer loop
   vertex 2288.279926 17.558129 -123.300605
   vertex 2289.458560 8.821543 -122.761801
   vertex 2481.458560 8.821543 -542.761801
  endloop
 endfacet
 facet normal 0.899631 0.146730 0.411260
  outer loop
   vertex 2288.279926 17.558129 -123.300605
   vertex 2481.458560 8.821543 -542.761801
   vertex 2480.279926 17.558129 -543.300605
  endloop
 endfacet
 facet normal 0.908379 0.049068 0.415259
  outer loop
   vertex 2289.458560 8.821543 -122.761801
   vertex 2289.852703 0.000000 -122.581622
   vertex 2481.852703 0.000000 -542.581622
  endloop
 endfacet
 facet normal 0.908379 0.049068 0.415259
  outer loop
   vertex 2289.458560 8.821543 -122.761801
   vertex 2481.852703 0.000000 -542.581622
   vertex 2481.458560 8.821543 -542.761801
  endloop
 endfacet
 facet normal 0.908379 -0.049068 0.415259
  outer loop
   vertex 2289.852703 0.000000 -122.581622
   vertex 2289.458560 -8.821543 -122.761801
   vertex 2481.458560 -8.821543 -542.761801
  endloop
 endfacet
 facet normal 0.908379 -0.049068 0.415259
  outer loop
   vertex 2289.852703 0.000000 -122.581622
   vertex 2481.458560 -8.821543 -542.761801
   vertex 2481.852703 0.000000 -542.581622
  endloop
 endfacet
 facet normal 0.899631 -0.146730 0.411260
  outer loop
   vertex 2289.458560 -8.821543 -122.761801
   vertex 2288.279926 -17.558129 -123.300605
   vertex 2480.279926 -17.558129 -543.300605
  endloop
 endfacet
 facet normal 0.899631 -0.146730 0.411260
  outer loop
   vertex 2289.458560 -8.821543 -122.761801
   vertex 2480.279926 -17.558129 -543.300605
   vertex 2481.458560 -8.821543 -542.761801
  endloop
 endfacet
 facet normal 0.882219 -0.242980 0.403300
  outer loop
   vertex 2288.279926 -17.558129 -123.300605
   vertex 2286.328153 -26.125621 -124.192844
   vertex 2478.328153 -26.125621 -544.192844
  endloop
 endfacet
 facet normal 0.882219 -0.242980 0.403300
  outer loop
   vertex 2288.279926 -17.558129 -123.300605
   vertex 2478.328153 -26.125621 -544.192844
   vertex 2480.279926 -17.558129 -543.300605
  endloop
 endfacet
 facet normal 0.856310 -0.336890 0.391456
  outer loop
   vertex 2286.328153 -26.125621 -124.192844
   vertex 2283.622037 -34.441509 -125.429926
   vertex 2475.622037 -34.441509 -545.429926
  endloop
 endfacet
 facet normal 0.856310 -0.336890 0.391456
  outer loop
   vertex 2286.328153 -26.125621 -124.192844
   vertex 2475.622037 -34.441509 -545.429926
   vertex 2478.328153 -26.125621 -544.192844
  endloop
 endfacet
 facet normal 0.822155 -0.427555 0.375842
  outer loop
   vertex 2283.622037 -34.441509 -125.429926
   vertex 2280.187639 -42.425706 -126.999936
   vertex 2472.187639 -42.425706 -546.999936
  endloop
 endfacet
 facet normal 0.822155 -0.427555 0.375842
  outer loop
   vertex 2283.622037 -34.441509 -125.429926
   vertex 2472.187639 -42.425706 -546.999936
   vertex 2475.622037 -34.441509 -545.429926
  endloop
 endfacet
 facet normal 0.780082 -0.514103 0.356609
  outer loop
   vertex 2280.187639 -42.425706 -126.999936
   vertex 2276.058035 -50.001321 -128.887755
   vertex 2468.058035 -50.001321 -548.887755
  endloop
 endfacet
 facet normal 0.780082 -0.514103 0.356609
  outer loop
   vertex 2280.187639 -42.425706 -126.999936
   vertex 2468.058035 -50.001321 -548.887755
   vertex 2472.187639 -42.425706 -546.999936
  endloop
 endfacet
 facet normal 0.730497 -0.595699 0.333941
  outer loop
   vertex 2276.058035 -50.001321 -128.887755
   vertex 2271.272995 -57.095396 -131.075202
   vertex 2463.272995 -57.095396 -551.075202
  endloop
 endfacet
 facet normal 0.730497 -0.595699 0.333941
  outer loop
   vertex 2276.058035 -50.001321 -128.887755
   vertex 2463.272995 -57.095396 -551.075202
   vertex 2468.058035 -50.001321 -548.887755
  endloop
 endfacet
 facet normal 0.673876 -0.671559 0.308058
  outer loop
   vertex 2271.272995 -57.095396 -131.075202
   vertex 2265.878601 -63.639610 -133.541211
   vertex 2457.878601 -63.639610 -553.541211
  endloop
 endfacet
 facet normal 0.673876 -0.671559 0.308058
  outer loop
   vertex 2271.272995 -57.095396 -131.075202
   vertex 2457.878601 -63.639610 -553.541211
   vertex 2463.272995 -57.095396 -551.075202
  endloop
 endfacet
 facet normal 0.610766 -0.740951 0.279207
  outer loop
   vertex 2265.878601 -63.639610 -133.541211
   vertex 2259.926805 -69.570941 -136.262032
   vertex 2451.926805 -69.570941 -556.262032
  endloop
 endfacet
 facet normal 0.610766 -0.740951 0.279207
  outer loop
   vertex 2265.878601 -63.639610 -133.541211
   vertex 2451.926805 -69.570941 -556.262032
   vertex 2457.878601 -63.639610 -553.541211
  endloop
 endfacet
 facet normal 0.541773 -0.803208 0.247668
  outer loop
   vertex 2259.926805 -69.570941 -136.262032
   vertex 2253.474925 -74.832265 -139.211463
   vertex 2445.474925 -74.832265 -559.211463
  endloop
 endfacet
 facet normal 0.541773 -0.803208 0.247668
  outer loop
   vertex 2259.926805 -69.570941 -136.262032
   vertex 2445.474925 -74.832265 -559.211463
   vertex 2451.926805 -69.570941 -556.262032
  endloop
 endfacet
 facet normal 0.467563 -0.857729 0.213743
  outer loop
   vertex 2253.474925 -74.832265 -139.211463
   vertex 2246.585097 -79.372914 -142.361099
   vertex 2438.585097 -79.372914 -562.361099
  endloop
 endfacet
 facet normal 0.467563 -0.857729 0.213743
  outer loop
   vertex 2253.474925 -74.832265 -139.211463
   vertex 2438.585097 -79.372914 -562.361099
   vertex 2445.474925 -74.832265 -559.211463
  endloop
 endfacet
 facet normal 0.388850 -0.903989 0.177760
  outer loop
   vertex 2246.585097 -79.372914 -142.361099
   vertex 2239.323673 -83.149158 -145.680607
   vertex 2431.323673 -83.149158 -565.680607
  endloop
 endfacet
 facet normal 0.388850 -0.903989 0.177760
  outer loop
   vertex 2246.585097 -79.372914 -142.361099
   vertex 2431.323673 -83.149158 -565.680607
   vertex 2438.585097 -79.372914 -562.361099
  endloop
 endfacet
 facet normal 0.306393 -0.941544 0.140065
  outer loop
   vertex 2239.323673 -83.149158 -145.680607
   vertex 2231.760585 -86.124630 -149.138018
   vertex 2423.760585 -86.124630 -569.138018
  endloop
 endfacet
 facet normal 0.306393 -0.941544 0.140065
  outer loop
   vertex 2239.323673 -83.149158 -145.680607
   vertex 2423.760585 -86.124630 -569.138018
   vertex 2431.323673 -83.149158 -565.680607
  endloop
 endfacet
 facet normal 0.220984 -0.970031 0.101021
  outer loop
   vertex 2231.760585 -86.124630 -149.138018
   vertex 2223.968670 -88.270675 -152.700037
   vertex 2415.968670 -88.270675 -572.700037
  endloop
 endfacet
 facet normal 0.220984 -0.970031 0.101021
  outer loop
   vertex 2231.760585 -86.124630 -149.138018
   vertex 2415.968670 -88.270675 -572.700037
   vertex 2423.760585 -86.124630 -569.138018
  endloop
 endfacet
 facet normal 0.133448 -0.989177 0.061005
  outer loop
   vertex 2223.968670 -88.270675 -152.700037
   vertex 2216.022968 -89.566625 -156.332358
   vertex 2408.022968 -89.566625 -576.332358
  endloop
 endfacet
 facet normal 0.133448 -0.989177 0.061005
  outer loop
   vertex 2223.968670 -88.270675 -152.700037
   vertex 2408.022968 -89.566625 -576.332358
   vertex 2415.968670 -88.270675 -572.700037
  endloop
 endfacet
 facet normal 0.044626 -0.998795 0.020400
  outer loop
   vertex 2216.022968 -89.566625 -156.332358
   vertex 2208.000000 -90.000000 -160.000000
   vertex 2400.000000 -90.000000 -580.000000
  endloop
 endfacet
 facet normal 0.044626 -0.998795 0.020400
  outer loop
   vertex 2216.022968 -89.566625 -156.332358
   vertex 2400.000000 -90.000000 -580.000000
   vertex 2408.022968 -89.566625 -576.332358
  endloop
 endfacet
 facet normal -0.044626 -0.998795 -0.020400
  outer loop
   vertex 2208.000000 -90.000000 -160.000000
   vertex 2199.977032 -89.566625 -163.667642
   vertex 2391.977032 -89.566625 -583.667642
  endloop
 endfacet
 facet normal -0.044626 -0.998795 -0.020400
  outer loop
   vertex 2208.000000 -90.000000 -160.000000
   vertex 2391.977032 -89.566625 -583.667642
   vertex 2400.000000 -90.000000 -580.000000
  endloop
 endfacet
 facet normal -0.133448 -0.989177 -0.061005
  outer loop
   vertex 2199.977032 -89.566625 -163.667642
   vertex 2192.031330 -88.270675 -167.299963
   vertex 2384.031330 -88.270675 -587.299963
  endloop
 endfacet
 facet normal -0.133448 -0.989177 -0.061005
  outer loop
   vertex 2199.977032 -89.566625 -163.667642
   vertex 2384.031330 -88.270675 -587.299963
   vertex 2391.977032 -89.566625 -583.667642
  endloop
 endfacet
 facet normal -0.220984 -0.970031 -0.101021
  outer loop
   vertex 2192.031330 -88.270675 -167.299963
   vertex 2184.239415 -86.124630 -170.861982
   vertex 2376.239415 -86.124630 -590.861982
  endloop
 endfacet
 facet normal -0.220984 -0.970031 -0.101021
  outer loop
   vertex 2192.031330 -88.270675 -167.299963
   vertex 2376.239415 -86.124630 -590.861982
   vertex 2384.031330 -88.270675 -587.299963
  endloop
 endfacet
 facet normal -0.306393 -0.941544 -0.140065
  outer loop
   vertex 2184.239415 -86.124630 -170.861982
   vertex 2176.676327 -83.149158 -174.319393
   vertex 2368.676327 -83.149158 -594.319393
  endloop
 endfacet
 facet normal -0.306393 -0.941544 -0.140065
  outer loop
   vertex 2184.239415 -86.124630 -170.861982
   vertex 2368.676327 -83.149158 -594.319393
   vertex 2376.239415 -86.124630 -590.861982
  endloop
 endfacet
 facet normal -0.388850 -0.903989 -0.177760
  outer loop
   vertex 2176.676327 -83.149158 -174.319393
   vertex 2169.414903 -79.372914 -177.638901
   vertex 2361.414903 -79.372914 -597.638901
  endloop
 endfacet
 facet normal -0.388850 -0.903989 -0.177760
  outer loop
   vertex 2176.676327 -83.149158 -174.319393
   vertex 2361.414903 -79.372914 -597.638901
   vertex 2368.676327 -83.149158 -594.319393
  endloop
 endfacet
 facet normal -0.467563 -0.857729 -0.213743
  outer loop
   vertex 2169.414903 -79.372914 -177.638901
   vertex 2162.525075 -74.832265 -180.788537
   vertex 2354.525075 -74.832265 -600.788537
  endloop
 endfacet
 facet normal -0.467563 -0.857729 -0.213743
  outer loop
   vertex 2169.414903 -79.372914 -177.638901
   vertex 2354.525075 -74.832265 -600.788537
   vertex 2361.414903 -79.372914 -597.638901
  endloop
 endfacet
 facet normal -0.541773 -0.803208 -0.247668
  outer loop
   vertex 2162.525075 -74.832265 -180.788537
   vertex 2156.073195 -69.570941 -183.737968
   vertex 2348.073195 -69.570941 -603.737968
  endloop
 endfacet
 facet normal -0.541773 -0.803208 -0.247668
  outer loop
   vertex 2162.525075 -74.832265 -180.788537
   vertex 2348.073195 -69.570941 -603.737968
   vertex 2354.525075 -74.832265 -600.788537
  endloop
 endfacet
 facet normal -0.610766 -0.740951 -0.279207
  outer loop
   vertex 2156.073195 -69.570941 -183.737968
   vertex 2150.121399 -63.639610 -186.458789
   vertex 2342.121399 -63.639610 -606.458789
  endloop
 endfacet
 facet normal -0.610766 -0.740951 -0.279207
  outer loop
   vertex 2156.073195 -69.570941 -183.737968
   vertex 2342.121399 -63.639610 -606.458789
   vertex 2348.073195 -69.570941 -603.737968
  endloop
 endfacet
 facet normal -0.673876 -0.671559 -0.308058
  outer loop
   vertex 2150.121399 -63.639610 -186.458789
   vertex 2144.727005 -57.095396 -188.924798
   vertex 2336.727005 -57.095396 -608.924798
  endloop
 endfacet
 facet normal -0.673876 -0.671559 -0.308058
  outer loop
   vertex 2150.121399 -63.639610 -186.458789
   vertex 2336.727005 -57.095396 -608.924798
   vertex 2342.121399 -63.639610 -606.458789
  endloop
 endfacet
 facet normal -0.730497 -0.595699 -0.333941
  outer loop
   vertex 2144.727005 -57.095396 -188.924798
   vertex 2139.941965 -50.001321 -191.112245
   vertex 2331.941965 -50.001321 -611.112245
  endloop
 endfacet
 facet normal -0.730497 -0.595699 -0.333941
  outer loop
   vertex 2144.727005 -57.095396 -188.924798
   vertex 2331.941965 -50.001321 -611.112245
   vertex 2336.727005 -57.095396 -608.924798
  endloop
 endfacet
 facet normal -0.780082 -0.514103 -0.356609
  outer loop
   vertex 2139.941965 -50.001321 -191.112245
   vertex 2135.812361 -42.425706 -193.000064
   vertex 2327.812361 -42.425706 -613.000064
  endloop
 endfacet
 facet normal -0.780082 -0.514103 -0.356609
  outer loop
   vertex 2139.941965 -50.001321 -191.112245
   vertex 2327.812361 -42.425706 -613.000064
   vertex 2331.941965 -50.001321 -611.112245
  endloop
 endfacet
 facet normal -0.822155 -0.427555 -0.375842
  outer loop
   vertex 2135.812361 -42.425706 -193.000064
   vertex 2132.377963 -34.441509 -194.570074
   vertex 2324.377963 -34.441509 -614.570074
  endloop
 endfacet
 facet normal -0.822155 -0.427555 -0.375842
  outer loop
   vertex 2135.812361 -42.425706 -193.000064
   vertex 2324.377963 -34.441509 -614.570074
   vertex 2327.812361 -42.425706 -613.000064
  endloop
 endfacet
 facet normal -0.856310 -0.336890 -0.391456
  outer loop
   vertex 2132.377963 -34.441509 -194.570074
   vertex 2129.671847 -26.125621 -195.807156
   vertex 2321.671847 -26.125621 -615.807156
  endloop
 endfacet
 facet normal -0.856310 -0.336890 -0.391456
  outer loop
   vertex 2132.377963 -34.441509 -194.570074
   vertex 2321.671847 -26.125621 -615.807156
   vertex 2324.377963 -34.441509 -614.570074
  endloop
 endfacet
 facet normal -0.882219 -0.242980 -0.403300
  outer loop
   vertex 2129.671847 -26.125621 -195.807156
   vertex 2127.720074 -17.558129 -196.699395
   vertex 2319.720074 -17.558129 -616.699395
  endloop
 endfacet
 facet normal -0.882219 -0.242980 -0.403300
  outer loop
   vertex 2129.671847 -26.125621 -195.807156
   vertex 2319.720074 -17.558129 -616.699395
   vertex 2321.671847 -26.125621 -615.807156
  endloop
 endfacet
 facet normal -0.899631 -0.146730 -0.411260
  outer loop
   vertex 2127.720074 -17.558129 -196.699395
   vertex 2126.541440 -8.821543 -197.238199
   vertex 2318.541440 -8.821543 -617.238199
  endloop
 endfacet
 facet normal -0.899631 -0.146730 -0.411260
  outer loop
   vertex 2127.720074 -17.558129 -196.699395
   vertex 2318.541440 -8.821543 -617.238199
   vertex 2319.720074 -17.558129 -616.699395
  endloop
 endfacet
 facet normal -0.908379 -0.049068 -0.415259
  outer loop
   vertex 2126.541440 -8.821543 -197.238199
   vertex 2126.147297 -0.000000 -197.418378
   vertex 2318.147297 -0.000000 -617.418378
  endloop
 endfacet
 facet normal -0.908379 -0.049068 -0.415259
  outer loop
   vertex 2126.541440 -8.821543 -197.238199
   vertex 2318.147297 -0.000000 -617.418378
   vertex 2318.541440 -8.821543 -617.238199
  endloop
 endfacet
 facet normal -0.908379 0.049068 -0.415259
  outer loop
   vertex 2126.147297 -0.000000 -197.418378
   vertex 2126.541440 8.821543 -197.238199
   vertex 2318.541440 8.821543 -617.238199
  endloop
 endfacet
 facet normal -0.908379 0.049068 -0.415259
  outer loop
   vertex 2126.147297 -0.000000 -197.418378
   vertex 2318.541440 8.821543 -617.238199
   vertex 2318.147297 -0.000000 -617.418378
  endloop
 endfacet
 facet normal -0.899631 0.146730 -0.411260
  outer loop
   vertex 2126.541440 8.821543 -197.238199
   vertex 2127.720074 17.558129 -196.699395
   vertex 2319.720074 17.558129 -616.699395
  endloop
 endfacet
 facet normal -0.899631 0.146730 -0.411260
  outer loop
   vertex 2126.541440 8.821543 -197.238199
   vertex 2319.720074 17.558129 -616.699395
   vertex 2318.541440 8.821543 -617.238199
  endloop
 endfacet
 facet normal -0.882219 0.242980 -0.403300
  outer loop
   vertex 2127.720074 17.558129 -196.699395
   vertex 2129.671847 26.125621 -195.807156
   vertex 2321.671847 26.125621 -615.807156
  endloop
 endfacet
 facet normal -0.882219 0.242980 -0.403300
  outer loop
   vertex 2127.720074 17.558129 -196.699395
   vertex 2321.671847 26.125621 -615.807156
   vertex 2319.720074 17.558129 -616.699395
  endloop
 endfacet
 facet normal -0.856310 0.336890 -0.391456
  outer loop
   vertex 2129.671847 26.125621 -195.807156
   vertex 2132.377963 34.441509 -194.570074
   vertex 2324.377963 34.441509 -614.570074
  endloop
 endfacet
 facet normal -0.856310 0.336890 -0.391456
  outer loop
   vertex 2129.671847 26.125621 -195.807156
   vertex 2324.377963 34.441509 -614.570074
   vertex 2321.671847 26.125621 -615.807156
  endloop
 endfacet
 facet normal -0.822155 0.427555 -0.375842
  outer loop
   vertex 2132.377963 34.441509 -194.570074
   vertex 2135.812361 42.425706 -193.000064
   vertex 2327.812361 42.425706 -613.000064
  endloop
 endfacet
 facet normal -0.822155 0.427555 -0.375842
  outer loop
   vertex 2132.377963 34.441509 -194.570074
   vertex 2327.812361 42.425706 -613.000064
   vertex 2324.377963 34.441509 -614.570074
  endloop
 endfacet
 facet normal -0.780082 0.514103 -0.356609
  outer loop
   vertex 2135.812361 42.425706 -193.000064
   vertex 2139.941965 50.001321 -191.112245
   vertex 2331.941965 50.001321 -611.112245
  endloop
 endfacet
 facet normal -0.780082 0.514103 -0.356609
  outer loop
   vertex 2135.812361 42.425706 -193.000064
   vertex 2331.941965 50.001321 -611.112245
   vertex 2327.812361 42.425706 -613.000064
  endloop
 endfacet
 facet normal -0.730497 0.595699 -0.333941
  outer loop
   vertex 2139.941965 50.001321 -191.112245
   vertex 2144.727005 57.095396 -188.924798
   vertex 2336.727005 57.095396 -608.924798
  endloop
 endfacet
 facet normal -0.730497 0.595699 -0.333941
  outer loop
   vertex 2139.941965 50.001321 -191.112245
   vertex 2336.727005 57.095396 -608.924798
   vertex 2331.941965 50.001321 -611.112245
  endloop
 endfacet
 facet normal -0.673876 0.671559 -0.308058
  outer loop
   vertex 2144.727005 57.095396 -188.924798
   vertex 2150.121399 63.639610 -186.458789
   vertex 2342.121399 63.639610 -606.458789
  endloop
 endfacet
 facet normal -0.673876 0.671559 -0.308058
  outer loop
   vertex 2144.727005 57.095396 -188.924798
   vertex 2342.121399 63.639610 -606.458789
   vertex 2336.727005 57.095396 -608.924798
  endloop
 endfacet
 facet normal -0.610766 0.740951 -0.279207
  outer loop
   vertex 2150.121399 63.639610 -186.458789
   vertex 2156.073195 69.570941 -183.737968
   vertex 2348.073195 69.570941 -603.737968
  endloop
 endfacet
 facet normal -0.610766 0.740951 -0.279207
  outer loop
   vertex 2150.121399 63.639610 -186.458789
   vertex 2348.073195 69.570941 -603.737968
   vertex 2342.121399 63.639610 -606.458789
  endloop
 endfacet
 facet normal -0.541773 0.803208 -0.247668
  outer loop
   vertex 2156.073195 69.570941 -183.737968
   vertex 2162.525075 74.832265 -180.788537
   vertex 2354.525075 74.832265 -600.788537
  endloop
 endfacet
 facet normal -0.541773 0.803208 -0.247668
  outer loop
   vertex 2156.073195 69.570941 -183.737968
   vertex 2354.525075 74.832265 -600.788537
   vertex 2348.073195 69.570941 -603.737968
  endloop
 endfacet
 facet normal -0.467563 0.857729 -0.213743
  outer loop
   vertex 2162.525075 74.832265 -180.788537
   vertex 2169.414903 79.372914 -177.638901
   vertex 2361.414903 79.372914 -597.638901
  endloop
 endfacet
 facet normal -0.467563 0.857729 -0.213743
  outer loop
   vertex 2162.525075 74.832265 -180.788537
   vertex 2361.414903 79.372914 -597.638901
   vertex 2354.525075 74.832265 -600.788537
  endloop
 endfacet
 facet normal -0.388850 0.903989 -0.177760
  outer loop
   vertex 2169.414903 79.372914 -177.638901
   vertex 2176.676327 83.149158 -174.319393
   vertex 2368.676327 83.149158 -594.319393
  endloop
 endfacet
 facet normal -0.388850 0.903989 -0.177760
  outer loop
   vertex 2169.414903 79.372914 -177.638901
   vertex 2368.676327 83.149158 -594.319393
   vertex 2361.414903 79.372914 -597.638901
  endloop
 endfacet
 facet normal -0.306393 0.941544 -0.140065
  outer loop
   vertex 2176.676327 83.149158 -174.319393
   vertex 2184.239415 86.124630 -170.861982
   vertex 2376.239415 86.124630 -590.861982
  endloop
 endfacet
 facet normal -0.306393 0.941544 -0.140065
  outer loop
   vertex 2176.676327 83.149158 -174.319393
   vertex 2376.239415 86.124630 -590.861982
   vertex 2368.676327 83.149158 -594.319393
  endloop
 endfacet
 facet normal -0.220984 0.970031 -0.101021
  outer loop
   vertex 2184.239415 86.124630 -170.861982
   vertex 2192.031330 88.270675 -167.299963
   vertex 2384.031330 88.270675 -587.299963
  endloop
 endfacet
 facet normal -0.220984 0.970031 -0.101021
  outer loop
   vertex 2184.239415 86.124630 -170.861982
   vertex 2384.031330 88.270675 -587.299963
   vertex 2376.239415 86.124630 -590.861982
  endloop
 endfacet
 facet normal -0.133448 0.989177 -0.061005
  outer loop
   vertex 2192.031330 88.270675 -167.299963
   vertex 2199.977032 89.566625 -163.667642
   vertex 2391.977032 89.566625 -583.667642
  endloop
 endfacet
 facet normal -0.133448 0.989177 -0.061005
  outer loop
   vertex 2192.031330 88.270675 -167.299963
   vertex 2391.977032 89.566625 -583.667642
   vertex 2384.031330 88.270675 -587.299963
  endloop
 endfacet
 facet normal -0.044626 0.998795 -0.020400
  outer loop
   vertex 2199.977032 89.566625 -163.667642
   vertex 2208.000000 90.000000 -160.000000
   vertex 2400.000000 90.000000 -580.000000
  endloop
 endfacet
 facet normal -0.044626 0.998795 -0.020400
  outer loop
   vertex 2199.977032 89.566625 -163.667642
   vertex 2400.000000 90.000000 -580.000000
   vertex 2391.977032 89.566625 -583.667642
  endloop
 endfacet
 facet normal -0.044626 -0.998795 -0.020400
  outer loop
   vertex 2407.131527 79.614778 -576.739873
   vertex 2215.131527 79.614778 -156.739873
   vertex 2208.000000 80.000000 -160.000000
  endloop
 endfacet
 facet normal -0.044626 -0.998795 -0.020400
  outer loop
   vertex 2400.000000 80.000000 -580.000000
   vertex 2407.131527 79.614778 -576.739873
   vertex 2208.000000 80.000000 -160.000000
  endloop
 endfacet
 facet normal -0.133448 -0.989177 -0.061005
  outer loop
   vertex 2414.194373 78.462822 -573.511144
   vertex 2222.194373 78.462822 -153.511144
   vertex 2215.131527 79.614778 -156.739873
  endloop
 endfacet
 facet normal -0.133448 -0.989177 -0.061005
  outer loop
   vertex 2407.131527 79.614778 -576.739873
   vertex 2414.194373 78.462822 -573.511144
   vertex 2215.131527 79.614778 -156.739873
  endloop
 endfacet
 facet normal -0.220984 -0.970031 -0.101021
  outer loop
   vertex 2421.120520 76.555227 -570.344905
   vertex 2229.120520 76.555227 -150.344905
   vertex 2222.194373 78.462822 -153.511144
  endloop
 endfacet
 facet normal -0.220984 -0.970031 -0.101021
  outer loop
   vertex 2414.194373 78.462822 -573.511144
   vertex 2421.120520 76.555227 -570.344905
   vertex 2222.194373 78.462822 -153.511144
  endloop
 endfacet
 facet normal -0.306393 -0.941544 -0.140065
  outer loop
   vertex 2427.843265 73.910363 -567.271650
   vertex 2235.843265 73.910363 -147.271650
   vertex 2229.120520 76.555227 -150.344905
  endloop
 endfacet
 facet normal -0.306393 -0.941544 -0.140065
  outer loop
   vertex 2421.120520 76.555227 -570.344905
   vertex 2427.843265 73.910363 -567.271650
   vertex 2229.120520 76.555227 -150.344905
  endloop
 endfacet
 facet normal -0.388850 -0.903989 -0.177760
  outer loop
   vertex 2434.297864 70.553701 -564.320976
   vertex 2242.297864 70.553701 -144.320976
   vertex 2235.843265 73.910363 -147.271650
  endloop
 endfacet
 facet normal -0.388850 -0.903989 -0.177760
  outer loop
   vertex 2427.843265 73.910363 -567.271650
   vertex 2434.297864 70.553701 -564.320976
   vertex 2235.843265 73.910363 -147.271650
  endloop
 endfacet
 facet normal -0.467563 -0.857729 -0.213743
  outer loop
   vertex 2440.422156 66.517569 -561.521300
   vertex 2248.422156 66.517569 -141.521300
   vertex 2242.297864 70.553701 -144.320976
  endloop
 endfacet
 facet normal -0.467563 -0.857729 -0.213743
  outer loop
   vertex 2434.297864 70.553701 -564.320976
   vertex 2440.422156 66.517569 -561.521300
   vertex 2242.297864 70.553701 -144.320976
  endloop
 endfacet
 facet normal -0.541773 -0.803208 -0.247668
  outer loop
   vertex 2446.157160 61.840836 -558.899584
   vertex 2254.157160 61.840836 -138.899584
   vertex 2248.422156 66.517569 -141.521300
  endloop
 endfacet
 facet normal -0.541773 -0.803208 -0.247668
  outer loop
   vertex 2440.422156 66.517569 -561.521300
   vertex 2446.157160 61.840836 -558.899584
   vertex 2248.422156 66.517569 -141.521300
  endloop
 endfacet
 facet normal -0.610766 -0.740951 -0.279207
  outer loop
   vertex 2451.447646 56.568542 -556.481076
   vertex 2259.447646 56.568542 -136.481076
   vertex 2254.157160 61.840836 -138.899584
  endloop
 endfacet
 facet normal -0.610766 -0.740951 -0.279207
  outer loop
   vertex 2446.157160 61.840836 -558.899584
   vertex 2451.447646 56.568542 -556.481076
   vertex 2254.157160 61.840836 -138.899584
  endloop
 endfacet
 facet normal -0.673876 -0.671559 -0.308058
  outer loop
   vertex 2456.242662 50.751463 -554.289069
   vertex 2264.242662 50.751463 -134.289069
   vertex 2259.447646 56.568542 -136.481076
  endloop
 endfacet
 facet normal -0.673876 -0.671559 -0.308058
  outer loop
   vertex 2451.447646 56.568542 -556.481076
   vertex 2456.242662 50.751463 -554.289069
   vertex 2259.447646 56.568542 -136.481076
  endloop
 endfacet
 facet normal -0.730497 -0.595699 -0.333941
  outer loop
   vertex 2460.496031 44.445619 -552.344671
   vertex 2268.496031 44.445619 -132.344671
   vertex 2264.242662 50.751463 -134.289069
  endloop
 endfacet
 facet normal -0.730497 -0.595699 -0.333941
  outer loop
   vertex 2456.242662 50.751463 -554.289069
   vertex 2460.496031 44.445619 -552.344671
   vertex 2264.242662 50.751463 -134.289069
  endloop
 endfacet
 facet normal -0.780082 -0.514103 -0.356609
  outer loop
   vertex 2464.166790 37.711739 -550.666610
   vertex 2272.166790 37.711739 -130.666610
   vertex 2268.496031 44.445619 -132.344671
  endloop
 endfacet
 facet normal -0.780082 -0.514103 -0.356609
  outer loop
   vertex 2460.496031 44.445619 -552.344671
   vertex 2464.166790 37.711739 -550.666610
   vertex 2268.496031 44.445619 -132.344671
  endloop
 endfacet
 facet normal -0.822155 -0.427555 -0.375842
  outer loop
   vertex 2467.219588 30.614675 -549.271045
   vertex 2275.219588 30.614675 -129.271045
   vertex 2272.166790 37.711739 -130.666610
  endloop
 endfacet
 facet normal -0.822155 -0.427555 -0.375842
  outer loop
   vertex 2464.166790 37.711739 -550.666610
   vertex 2467.219588 30.614675 -549.271045
   vertex 2272.166790 37.711739 -130.666610
  endloop
 endfacet
 facet normal -0.856310 -0.336890 -0.391456
  outer loop
   vertex 2469.625025 23.222774 -548.171417
   vertex 2277.625025 23.222774 -128.171417
   vertex 2275.219588 30.614675 -129.271045
  endloop
 endfacet
 facet normal -0.856310 -0.336890 -0.391456
  outer loop
   vertex 2467.219588 30.614675 -549.271045
   vertex 2469.625025 23.222774 -548.171417
   vertex 2275.219588 30.614675 -129.271045
  endloop
 endfacet
 facet normal -0.882219 -0.242980 -0.403300
  outer loop
   vertex 2471.359934 15.607226 -547.378316
   vertex 2279.359934 15.607226 -127.378316
   vertex 2277.625025 23.222774 -128.171417
  endloop
 endfacet
 facet normal -0.882219 -0.242980 -0.403300
  outer loop
   vertex 2469.625025 23.222774 -548.171417
   vertex 2471.359934 15.607226 -547.378316
   vertex 2277.625025 23.222774 -128.171417
  endloop
 endfacet
 facet normal -0.899631 -0.146730 -0.411260
  outer loop
   vertex 2472.407609 7.841371 -546.899379
   vertex 2280.407609 7.841371 -126.899379
   vertex 2279.359934 15.607226 -127.378316
  endloop
 endfacet
 facet normal -0.899631 -0.146730 -0.411260
  outer loop
   vertex 2471.359934 15.607226 -547.378316
   vertex 2472.407609 7.841371 -546.899379
   vertex 2279.359934 15.607226 -127.378316
  endloop
 endfacet
 facet normal -0.908379 -0.049068 -0.415259
  outer loop
   vertex 2472.757958 0.000000 -546.739219
   vertex 2280.757958 0.000000 -126.739219
   vertex 2280.407609 7.841371 -126.899379
  endloop
 endfacet
 facet normal -0.908379 -0.049068 -0.415259
  outer loop
   vertex 2472.407609 7.841371 -546.899379
   vertex 2472.757958 0.000000 -546.739219
   vertex 2280.407609 7.841371 -126.899379
  endloop
 endfacet
 facet normal -0.908379 0.049068 -0.415259
  outer loop
   vertex 2472.407609 -7.841371 -546.899379
   vertex 2280.407609 -7.841371 -126.899379
   vertex 2280.757958 0.000000 -126.739219
  endloop
 endfacet
 facet normal -0.908379 0.049068 -0.415259
  outer loop
   vertex 2472.757958 0.000000 -546.739219
   vertex 2472.407609 -7.841371 -546.899379
   vertex 2280.757958 0.000000 -126.739219
  endloop
 endfacet
 facet normal -0.899631 0.146730 -0.411260
  outer loop
   vertex 2471.359934 -15.607226 -547.378316
   vertex 2279.359934 -15.607226 -127.378316
   vertex 2280.407609 -7.841371 -126.899379
  endloop
 endfacet
 facet normal -0.899631 0.146730 -0.411260
  outer loop
   vertex 2472.407609 -7.841371 -546.899379
   vertex 2471.359934 -15.607226 -547.378316
   vertex 2280.407609 -7.841371 -126.899379
  endloop
 endfacet
 facet normal -0.882219 0.242980 -0.403300
  outer loop
   vertex 2469.625025 -23.222774 -548.171417
   vertex 2277.625025 -23.222774 -128.171417
   vertex 2279.359934 -15.607226 -127.378316
  endloop
 endfacet
 facet normal -0.882219 0.242980 -0.403300
  outer loop
   vertex 2471.359934 -15.607226 -547.378316
   vertex 2469.625025 -23.222774 -548.171417
   vertex 2279.359934 -15.607226 -127.378316
  endloop
 endfacet
 facet normal -0.856310 0.336890 -0.391456
  outer loop
   vertex 2467.219588 -30.614675 -549.271045
   vertex 2275.219588 -30.614675 -129.271045
   vertex 2277.625025 -23.222774 -128.171417
  endloop
 endfacet
 facet normal -0.856310 0.336890 -0.391456
  outer loop
   vertex 2469.625025 -23.222774 -548.171417
   vertex 2467.219588 -30.614675 -549.271045
   vertex 2277.625025 -23.222774 -128.171417
  endloop
 endfacet
 facet normal -0.822155 0.427555 -0.375842
  outer loop
   vertex 2464.166790 -37.711739 -550.666610
   vertex 2272.166790 -37.711739 -130.666610
   vertex 2275.219588 -30.614675 -129.271045
  endloop
 endfacet
 facet normal -0.822155 0.427555 -0.375842
  outer loop
   vertex 2467.219588 -30.614675 -549.271045
   vertex 2464.166790 -37.711739 -550.666610
   vertex 2275.219588 -30.614675 -129.271045
  endloop
 endfacet
 facet normal -0.780082 0.514103 -0.356609
  outer loop
   vertex 2460.496031 -44.445619 -552.344671
   vertex 2268.496031 -44.445619 -132.344671
   vertex 2272.166790 -37.711739 -130.666610
  endloop
 endfacet
 facet normal -0.780082 0.514103 -0.356609
  outer loop
   vertex 2464.166790 -37.711739 -550.666610
   vertex 2460.496031 -44.445619 -552.344671
   vertex 2272.166790 -37.711739 -130.666610
  endloop
 endfacet
 facet normal -0.730497 0.595699 -0.333941
  outer loop
   vertex 2456.242662 -50.751463 -554.289069
   vertex 2264.242662 -50.751463 -134.289069
   vertex 2268.496031 -44.445619 -132.344671
  endloop
 endfacet
 facet normal -0.730497 0.595699 -0.333941
  outer loop
   vertex 2460.496031 -44.445619 -552.344671
   vertex 2456.242662 -50.751463 -554.289069
   vertex 2268.496031 -44.445619 -132.344671
  endloop
 endfacet
 facet normal -0.673876 0.671559 -0.308058
  outer loop
   vertex 2451.447646 -56.568542 -556.481076
   vertex 2259.447646 -56.568542 -136.481076
   vertex 2264.242662 -50.751463 -134.289069
  endloop
 endfacet
 facet normal -0.673876 0.671559 -0.308058
  outer loop
   vertex 2456.242662 -50.751463 -554.289069
   vertex 2451.447646 -56.568542 -556.481076
   vertex 2264.242662 -50.751463 -134.289069
  endloop
 endfacet
 facet normal -0.610766 0.740951 -0.279207
  outer loop
   vertex 2446.157160 -61.840836 -558.899584
   vertex 2254.157160 -61.840836 -138.899584
   vertex 2259.447646 -56.568542 -136.481076
  endloop
 endfacet
 facet normal -0.610766 0.740951 -0.279207
  outer loop
   vertex 2451.447646 -56.568542 -556.481076
   vertex 2446.157160 -61.840836 -558.899584
   vertex 2259.447646 -56.568542 -136.481076
  endloop
 endfacet
 facet normal -0.541773 0.803208 -0.247668
  outer loop
   vertex 2440.422156 -66.517569 -561.521300
   vertex 2248.422156 -66.517569 -141.521300
   vertex 2254.157160 -61.840836 -138.899584
  endloop
 endfacet
 facet normal -0.541773 0.803208 -0.247668
  outer loop
   vertex 2446.157160 -61.840836 -558.899584
   vertex 2440.422156 -66.517569 -561.521300
   vertex 2254.157160 -61.840836 -138.899584
  endloop
 endfacet
 facet normal -0.467563 0.857729 -0.213743
  outer loop
   vertex 2434.297864 -70.553701 -564.320976
   vertex 2242.297864 -70.553701 -144.320976
   vertex 2248.422156 -66.517569 -141.521300
  endloop
 endfacet
 facet normal -0.467563 0.857729 -0.213743
  outer loop
   vertex 2440.422156 -66.517569 -561.521300
   vertex 2434.297864 -70.553701 -564.320976
   vertex 2248.422156 -66.517569 -141.521300
  endloop
 endfacet
 facet normal -0.388850 0.903989 -0.177760
  outer loop
   vertex 2427.843265 -73.910363 -567.271650
   vertex 2235.843265 -73.910363 -147.271650
   vertex 2242.297864 -70.553701 -144.320976
  endloop
 endfacet
 facet normal -0.388850 0.903989 -0.177760
  outer loop
   vertex 2434.297864 -70.553701 -564.320976
   vertex 2427.843265 -73.910363 -567.271650
   vertex 2242.297864 -70.553701 -144.320976
  endloop
 endfacet
 facet normal -0.306393 0.941544 -0.140065
  outer loop
   vertex 2421.120520 -76.555227 -570.344905
   vertex 2229.120520 -76.555227 -150.344905
   vertex 2235.843265 -73.910363 -147.271650
  endloop
 endfacet
 facet normal -0.306393 0.941544 -0.140065
  outer loop
   vertex 2427.843265 -73.910363 -567.271650
   vertex 2421.120520 -76.555227 -570.344905
   vertex 2235.843265 -73.910363 -147.271650
  endloop
 endfacet
 facet normal -0.220984 0.970031 -0.101021
  outer loop
   vertex 2414.194373 -78.462822 -573.511144
   vertex 2222.194373 -78.462822 -153.511144
   vertex 2229.120520 -76.555227 -150.344905
  endloop
 endfacet
 facet normal -0.220984 0.970031 -0.101021
  outer loop
   vertex 2421.120520 -76.555227 -570.344905
   vertex 2414.194373 -78.462822 -573.511144
   vertex 2229.120520 -76.555227 -150.344905
  endloop
 endfacet
 facet normal -0.133448 0.989177 -0.061005
  outer loop
   vertex 2407.131527 -79.614778 -576.739873
   vertex 2215.131527 -79.614778 -156.739873
   vertex 2222.194373 -78.462822 -153.511144
  endloop
 endfacet
 facet normal -0.133448 0.989177 -0.061005
  outer loop
   vertex 2414.194373 -78.462822 -573.511144
   vertex 2407.131527 -79.614778 -576.739873
   vertex 2222.194373 -78.462822 -153.511144
  endloop
 endfacet
 facet normal -0.044626 0.998795 -0.020400
  outer loop
   vertex 2400.000000 -80.000000 -580.000000
   vertex 2208.000000 -80.000000 -160.000000
   vertex 2215.131527 -79.614778 -156.739873
  endloop
 endfacet
 facet normal -0.044626 0.998795 -0.020400
  outer loop
   vertex 2407.131527 -79.614778 -576.739873
   vertex 2400.000000 -80.000000 -580.000000
   vertex 2215.131527 -79.614778 -156.739873
  endloop
 endfacet
 facet normal 0.044626 0.998795 0.020400
  outer loop
   vertex 2392.868473 -79.614778 -583.260127
   vertex 2200.868473 -79.614778 -163.260127
   vertex 2208.000000 -80.000000 -160.000000
  endloop
 endfacet
 facet normal 0.044626 0.998795 0.020400
  outer loop
   vertex 2400.000000 -80.000000 -580.000000
   vertex 2392.868473 -79.614778 -583.260127
   vertex 2208.000000 -80.000000 -160.000000
  endloop
 endfacet
 facet normal 0.133448 0.989177 0.061005
  outer loop
   vertex 2385.805627 -78.462822 -586.488856
   vertex 2193.805627 -78.462822 -166.488856
   vertex 2200.868473 -79.614778 -163.260127
  endloop
 endfacet
 facet normal 0.133448 0.989177 0.061005
  outer loop
   vertex 2392.868473 -79.614778 -583.260127
   vertex 2385.805627 -78.462822 -586.488856
   vertex 2200.868473 -79.614778 -163.260127
  endloop
 endfacet
 facet normal 0.220984 0.970031 0.101021
  outer loop
   vertex 2378.879480 -76.555227 -589.655095
   vertex 2186.879480 -76.555227 -169.655095
   vertex 2193.805627 -78.462822 -166.488856
  endloop
 endfacet
 facet normal 0.220984 0.970031 0.101021
  outer loop
   vertex 2385.805627 -78.462822 -586.488856
   vertex 2378.879480 -76.555227 -589.655095
   vertex 2193.805627 -78.462822 -166.488856
  endloop
 endfacet
 facet normal 0.306393 0.941544 0.140065
  outer loop
   vertex 2372.156735 -73.910363 -592.728350
   vertex 2180.156735 -73.910363 -172.728350
   vertex 2186.879480 -76.555227 -169.655095
  endloop
 endfacet
 facet normal 0.306393 0.941544 0.140065
  outer loop
   vertex 2378.879480 -76.555227 -589.655095
   vertex 2372.156735 -73.910363 -592.728350
   vertex 2186.879480 -76.555227 -169.655095
  endloop
 endfacet
 facet normal 0.388850 0.903989 0.177760
  outer loop
   vertex 2365.702136 -70.553701 -595.679024
   vertex 2173.702136 -70.553701 -175.679024
   vertex 2180.156735 -73.910363 -172.728350
  endloop
 endfacet
 facet normal 0.388850 0.903989 0.177760
  outer loop
   vertex 2372.156735 -73.910363 -592.728350
   vertex 2365.702136 -70.553701 -595.679024
   vertex 2180.156735 -73.910363 -172.728350
  endloop
 endfacet
 facet normal 0.467563 0.857729 0.213743
  outer loop
   vertex 2359.577844 -66.517569 -598.478700
   vertex 2167.577844 -66.517569 -178.478700
   vertex 2173.702136 -70.553701 -175.679024
  endloop
 endfacet
 facet normal 0.467563 0.857729 0.213743
  outer loop
   vertex 2365.702136 -70.553701 -595.679024
   vertex 2359.577844 -66.517569 -598.478700
   vertex 2173.702136 -70.553701 -175.679024
  endloop
 endfacet
 facet normal 0.541773 0.803208 0.247668
  outer loop
   vertex 2353.842840 -61.840836 -601.100416
   vertex 2161.842840 -61.840836 -181.100416
   vertex 2167.577844 -66.517569 -178.478700
  endloop
 endfacet
 facet normal 0.541773 0.803208 0.247668
  outer loop
   vertex 2359.577844 -66.517569 -598.478700
   vertex 2353.842840 -61.840836 -601.100416
   vertex 2167.577844 -66.517569 -178.478700
  endloop
 endfacet
 facet normal 0.610766 0.740951 0.279207
  outer loop
   vertex 2348.552354 -56.568542 -603.518924
   vertex 2156.552354 -56.568542 -183.518924
   vertex 2161.842840 -61.840836 -181.100416
  endloop
 endfacet
 facet normal 0.610766 0.740951 0.279207
  outer loop
   vertex 2353.842840 -61.840836 -601.100416
   vertex 2348.552354 -56.568542 -603.518924
   vertex 2161.842840 -61.840836 -181.100416
  endloop
 endfacet
 facet normal 0.673876 0.671559 0.308058
  outer loop
   vertex 2343.757338 -50.751463 -605.710931
   vertex 2151.757338 -50.751463 -185.710931
   vertex 2156.552354 -56.568542 -183.518924
  endloop
 endfacet
 facet normal 0.673876 0.671559 0.308058
  outer loop
   vertex 2348.552354 -56.568542 -603.518924
   vertex 2343.757338 -50.751463 -605.710931
   vertex 2156.552354 -56.568542 -183.518924
  endloop
 endfacet
 facet normal 0.730497 0.595699 0.333941
  outer loop
   vertex 2339.503969 -44.445619 -607.655329
   vertex 2147.503969 -44.445619 -187.655329
   vertex 2151.757338 -50.751463 -185.710931
  endloop
 endfacet
 facet normal 0.730497 0.595699 0.333941
  outer loop
   vertex 2343.757338 -50.751463 -605.710931
   vertex 2339.503969 -44.445619 -607.655329
   vertex 2151.757338 -50.751463 -185.710931
  endloop
 endfacet
 facet normal 0.780082 0.514103 0.356609
  outer loop
   vertex 2335.833210 -37.711739 -609.333390
   vertex 2143.833210 -37.711739 -189.333390
   vertex 2147.503969 -44.445619 -187.655329
  endloop
 endfacet
 facet normal 0.780082 0.514103 0.356609
  outer loop
   vertex 2339.503969 -44.445619 -607.655329
   vertex 2335.833210 -37.711739 -609.333390
   vertex 2147.503969 -44.445619 -187.655329
  endloop
 endfacet
 facet normal 0.822155 0.427555 0.375842
  outer loop
   vertex 2332.780412 -30.614675 -610.728955
   vertex 2140.780412 -30.614675 -190.728955
   vertex 2143.833210 -37.711739 -189.333390
  endloop
 endfacet
 facet normal 0.822155 0.427555 0.375842
  outer loop
   vertex 2335.833210 -37.711739 -609.333390
   vertex 2332.780412 -30.614675 -610.728955
   vertex 2143.833210 -37.711739 -189.333390
  endloop
 endfacet
 facet normal 0.856310 0.336890 0.391456
  outer loop
   vertex 2330.374975 -23.222774 -611.828583
   vertex 2138.374975 -23.222774 -191.828583
   vertex 2140.780412 -30.614675 -190.728955
  endloop
 endfacet
 facet normal 0.856310 0.336890 0.391456
  outer loop
   vertex 2332.780412 -30.614675 -610.728955
   vertex 2330.374975 -23.222774 -611.828583
   vertex 2140.780412 -30.614675 -190.728955
  endloop
 endfacet
 facet normal 0.882219 0.242980 0.403300
  outer loop
   vertex 2328.640066 -15.607226 -612.621684
   vertex 2136.640066 -15.607226 -192.621684
   vertex 2138.374975 -23.222774 -191.828583
  endloop
 endfacet
 facet normal 0.882219 0.242980 0.403300
  outer loop
   vertex 2330.374975 -23.222774 -611.828583
   vertex 2328.640066 -15.607226 -612.621684
   vertex 2138.374975 -23.222774 -191.828583
  endloop
 endfacet
 facet normal 0.899631 0.146730 0.411260
  outer loop
   vertex 2327.592391 -7.841371 -613.100621
   vertex 2135.592391 -7.841371 -193.100621
   vertex 2136.640066 -15.607226 -192.621684
  endloop
 endfacet
 facet normal 0.899631 0.146730 0.411260
  outer loop
   vertex 2328.640066 -15.607226 -612.621684
   vertex 2327.592391 -7.841371 -613.100621
   vertex 2136.640066 -15.607226 -192.621684
  endloop
 endfacet
 facet normal 0.908379 0.049068 0.415259
  outer loop
   vertex 2327.242042 -0.000000 -613.260781
   vertex 2135.242042 -0.000000 -193.260781
   vertex 2135.592391 -7.841371 -193.100621
  endloop
 endfacet
 facet normal 0.908379 0.049068 0.415259
  outer loop
   vertex 2327.592391 -7.841371 -613.100621
   vertex 2327.242042 -0.000000 -613.260781
   vertex 2135.592391 -7.841371 -193.100621
  endloop
 endfacet
 facet normal 0.908379 -0.049068 0.415259
  outer loop
   vertex 2327.592391 7.841371 -613.100621
   vertex 2135.592391 7.841371 -193.100621
   vertex 2135.242042 -0.000000 -193.260781
  endloop
 endfacet
 facet normal 0.908379 -0.049068 0.415259
  outer loop
   vertex 2327.242042 -0.000000 -613.260781
   vertex 2327.592391 7.841371 -613.100621
   vertex 2135.242042 -0.000000 -193.260781
  endloop
 endfacet
 facet normal 0.899631 -0.146730 0.411260
  outer loop
   vertex 2328.640066 15.607226 -612.621684
   vertex 2136.640066 15.607226 -192.621684
   vertex 2135.592391 7.841371 -193.100621
  endloop
 endfacet
 facet normal 0.899631 -0.146730 0.411260
  outer loop
   vertex 2327.592391 7.841371 -613.100621
   vertex 2328.640066 15.607226 -612.621684
   vertex 2135.592391 7.841371 -193.100621
  endloop
 endfacet
 facet normal 0.882219 -0.242980 0.403300
  outer loop
   vertex 2330.374975 23.222774 -611.828583
   vertex 2138.374975 23.222774 -191.828583
   vertex 2136.640066 15.607226 -192.621684
  endloop
 endfacet
 facet normal 0.882219 -0.242980 0.403300
  outer loop
   vertex 2328.640066 15.607226 -612.621684
   vertex 2330.374975 23.222774 -611.828583
   vertex 2136.640066 15.607226 -192.621684
  endloop
 endfacet
 facet normal 0.856310 -0.336890 0.391456
  outer loop
   vertex 2332.780412 30.614675 -610.728955
   vertex 2140.780412 30.614675 -190.728955
   vertex 2138.374975 23.222774 -191.828583
  endloop
 endfacet
 facet normal 0.856310 -0.336890 0.391456
  outer loop
   vertex 2330.374975 23.222774 -611.828583
   vertex 2332.780412 30.614675 -610.728955
   vertex 2138.374975 23.222774 -191.828583
  endloop
 endfacet
 facet normal 0.822155 -0.427555 0.375842
  outer loop
   vertex 2335.833210 37.711739 -609.333390
   vertex 2143.833210 37.711739 -189.333390
   vertex 2140.780412 30.614675 -190.728955
  endloop
 endfacet
 facet normal 0.822155 -0.427555 0.375842
  outer loop
   vertex 2332.780412 30.614675 -610.728955
   vertex 2335.833210 37.711739 -609.333390
   vertex 2140.780412 30.614675 -190.728955
  endloop
 endfacet
 facet normal 0.780082 -0.514103 0.356609
  outer loop
   vertex 2339.503969 44.445619 -607.655329
   vertex 2147.503969 44.445619 -187.655329
   vertex 2143.833210 37.711739 -189.333390
  endloop
 endfacet
 facet normal 0.780082 -0.514103 0.356609
  outer loop
   vertex 2335.833210 37.711739 -609.333390
   vertex 2339.503969 44.445619 -607.655329
   vertex 2143.833210 37.711739 -189.333390
  endloop
 endfacet
 facet normal 0.730497 -0.595699 0.333941
  outer loop
   vertex 2343.757338 50.751463 -605.710931
   vertex 2151.757338 50.751463 -185.710931
   vertex 2147.503969 44.445619 -187.655329
  endloop
 endfacet
 facet normal 0.730497 -0.595699 0.333941
  outer loop
   vertex 2339.503969 44.445619 -607.655329
   vertex 2343.757338 50.751463 -605.710931
   vertex 2147.503969 44.445619 -187.655329
  endloop
 endfacet
 facet normal 0.673876 -0.671559 0.308058
  outer loop
   vertex 2348.552354 56.568542 -603.518924
   vertex 2156.552354 56.568542 -183.518924
   vertex 2151.757338 50.751463 -185.710931
  endloop
 endfacet
 facet normal 0.673876 -0.671559 0.308058
  outer loop
   vertex 2343.757338 50.751463 -605.710931
   vertex 2348.552354 56.568542 -603.518924
   vertex 2151.757338 50.751463 -185.710931
  endloop
 endfacet
 facet normal 0.610766 -0.740951 0.279207
  outer loop
   vertex 2353.842840 61.840836 -601.100416
   vertex 2161.842840 61.840836 -181.100416
   vertex 2156.552354 56.568542 -183.518924
  endloop
 endfacet
 facet normal 0.610766 -0.740951 0.279207
  outer loop
   vertex 2348.552354 56.568542 -603.518924
   vertex 2353.842840 61.840836 -601.100416
   vertex 2156.552354 56.568542 -183.518924
  endloop
 endfacet
 facet normal 0.541773 -0.803208 0.247668
  outer loop
   vertex 2359.577844 66.517569 -598.478700
   vertex 2167.577844 66.517569 -178.478700
   vertex 2161.842840 61.840836 -181.100416
  endloop
 endfacet
 facet normal 0.541773 -0.803208 0.247668
  outer loop
   vertex 2353.842840 61.840836 -601.100416
   vertex 2359.577844 66.517569 -598.478700
   vertex 2161.842840 61.840836 -181.100416
  endloop
 endfacet
 facet normal 0.467563 -0.857729 0.213743
  outer loop
   vertex 2365.702136 70.553701 -595.679024
   vertex 2173.702136 70.553701 -175.679024
   vertex 2167.577844 66.517569 -178.478700
  endloop
 endfacet
 facet normal 0.467563 -0.857729 0.213743
  outer loop
   vertex 2359.577844 66.517569 -598.478700
   vertex 2365.702136 70.553701 -595.679024
   vertex 2167.577844 66.517569 -178.478700
  endloop
 endfacet
 facet normal 0.388850 -0.903989 0.177760
  outer loop
   vertex 2372.156735 73.910363 -592.728350
   vertex 2180.156735 73.910363 -172.728350
   vertex 2173.702136 70.553701 -175.679024
  endloop
 endfacet
 facet normal 0.388850 -0.903989 0.177760
  outer loop
   vertex 2365.702136 70.553701 -595.679024
   vertex 2372.156735 73.910363 -592.728350
   vertex 2173.702136 70.553701 -175.679024
  endloop
 endfacet
 facet normal 0.306393 -0.941544 0.140065
  outer loop
   vertex 2378.879480 76.555227 -589.655095
   vertex 2186.879480 76.555227 -169.655095
   vertex 2180.156735 73.910363 -172.728350
  endloop
 endfacet
 facet normal 0.306393 -0.941544 0.140065
  outer loop
   vertex 2372.156735 73.910363 -592.728350
   vertex 2378.879480 76.555227 -589.655095
   vertex 2180.156735 73.910363 -172.728350
  endloop
 endfacet
 facet normal 0.220984 -0.970031 0.101021
  outer loop
   vertex 2385.805627 78.462822 -586.488856
   vertex 2193.805627 78.462822 -166.488856
   vertex 2186.879480 76.555227 -169.655095
  endloop
 endfacet
 facet normal 0.220984 -0.970031 0.101021
  outer loop
   vertex 2378.879480 76.555227 -589.655095
   vertex 2385.805627 78.462822 -586.488856
   vertex 2186.879480 76.555227 -169.655095
  endloop
 endfacet
 facet normal 0.133448 -0.989177 0.061005
  outer loop
   vertex 2392.868473 79.614778 -583.260127
   vertex 2200.868473 79.614778 -163.260127
   vertex 2193.805627 78.462822 -166.488856
  endloop
 endfacet
 facet normal 0.133448 -0.989177 0.061005
  outer loop
   vertex 2385.805627 78.462822 -586.488856
   vertex 2392.868473 79.614778 -583.260127
   vertex 2193.805627 78.462822 -166.488856
  endloop
 endfacet
 facet normal 0.044626 -0.998795 0.020400
  outer loop
   vertex 2400.000000 80.000000 -580.000000
   vertex 2208.000000 80.000000 -160.000000
   vertex 2200.868473 79.614778 -163.260127
  endloop
 endfacet
 facet normal 0.044626 -0.998795 0.020400
  outer loop
   vertex 2392.868473 79.614778 -583.260127
   vertex 2400.000000 80.000000 -580.000000
   vertex 2200.868473 79.614778 -163.260127
  endloop
 endfacet
endsolid SII_LH2_feed_1_elbow
