solid SII_LOX_feed_2_elbow
 facet normal 0.049068 0.998795 0.000000
  outer loop
   vertex 0.000000 90.000000 -100.000000
   vertex 8.821543 89.566625 -100.000000
   vertex 8.821543 89.566625 -520.000000
  endloop
 endfacet
 facet normal 0.049068 0.998795 0.000000
  outer loop
   vertex 0.000000 90.000000 -100.000000
   vertex 8.821543 89.566625 -520.000000
   vertex 0.000000 90.000000 -520.000000
  endloop
 endfacet
 facet normal 0.146730 0.989177 0.000000
  outer loop
   vertex 8.821543 89.566625 -100.000000
   vertex 17.558129 88.270675 -100.000000
   vertex 17.558129 88.270675 -520.000000
  endloop
 endfacet
 facet normal 0.146730 0.989177 0.000000
  outer loop
   vertex 8.821543 89.566625 -100.000000
   vertex 17.558129 88.270675 -520.000000
   vertex 8.821543 89.566625 -520.000000
  endloop
 endfacet
 facet normal 0.242980 0.970031 0.000000
  outer loop
   vertex 17.558129 88.270675 -100.000000
   vertex 26.125621 86.124630 -100.000000
   vertex 26.125621 86.124630 -520.000000
  endloop
 endfacet
 facet normal 0.242980 0.970031 0.000000
  outer loop
   vertex 17.558129 88.270675 -100.000000
   vertex 26.125621 86.124630 -520.000000
   vertex 17.558129 88.270675 -520.000000
  endloop
 endfacet
 facet normal 0.336890 0.941544 0.000000
  outer loop
   vertex 26.125621 86.124630 -100.000000
   vertex 34.441509 83.149158 -100.000000
   vertex 34.441509 83.149158 -520.000000
  endloop
 endfacet
 facet normal 0.336890 0.941544 0.000000
  outer loop
   vertex 26.125621 86.124630 -100.000000
   vertex 34.441509 83.149158 -520.000000
   vertex 26.125621 86.124630 -520.000000
  endloop
 endfacet
 facet normal 0.427555 0.903989 0.000000
  outer loop
   vertex 34.441509 83.149158 -100.000000
   vertex 42.425706 79.372914 -100.000000
   vertex 42.425706 79.372914 -520.000000
  endloop
 endfacet
 facet normal 0.427555 0.903989 0.000000
  outer loop
   vertex 34.441509 83.149158 -100.000000
   vertex 42.425706 79.372914 -520.000000
   vertex 34.441509 83.149158 -520.000000
  endloop
 endfacet
 facet normal 0.514103 0.857729 0.000000
  outer loop
   vertex 42.425706 79.372914 -100.000000
   vertex 50.001321 74.832265 -100.000000
   vertex 50.001321 74.832265 -520.000000
  endloop
 endfacet
 facet normal 0.514103 0.857729 0.000000
  outer loop
   vertex 42.425706 79.372914 -100.000000
   vertex 50.001321 74.832265 -520.000000
   vertex 42.425706 79.372914 -520.000000
  endloop
 endfacet
 facet normal 0.595699 0.803208 0.000000
  outer loop
   vertex 50.001321 74.832265 -100.000000
   vertex 57.095396 69.570941 -100.000000
   vertex 57.095396 69.570941 -520.000000
  endloop
 endfacet
 facet normal 0.595699 0.803208 0.000000
  outer loop
   vertex 50.001321 74.832265 -100.000000
   vertex 57.095396 69.570941 -520.000000
   vertex 50.001321 74.832265 -520.000000
  endloop
 endfacet
 facet normal 0.671559 0.740951 0.000000
  outer loop
   vertex 57.095396 69.570941 -100.000000
   vertex 63.639610 63.639610 -100.000000
   vertex 63.639610 63.639610 -520.000000
  endloop
 endfacet
 facet normal 0.671559 0.740951 0.000000
  outer loop
   vertex 57.095396 69.570941 -100.000000
   vertex 63.639610 63.639610 -520.000000
   vertex 57.095396 69.570941 -520.000000
  endloop
 endfacet
 facet normal 0.740951 0.671559 0.000000
  outer loop
   vertex 63.639610 63.639610 -100.000000
   vertex 69.570941 57.095396 -100.000000
   vertex 69.570941 57.095396 -520.000000
  endloop
 endfacet
 facet normal 0.740951 0.671559 0.000000
  outer loop
   vertex 63.639610 63.639610 -100.000000
   vertex 69.570941 57.095396 -520.000000
   vertex 63.639610 63.639610 -520.000000
  endloop
 endfacet
 facet normal 0.803208 0.595699 0.000000
  outer loop
   vertex 69.570941 57.095396 -100.000000
   vertex 74.832265 50.001321 -100.000000
   vertex 74.832265 50.001321 -520.000000
  endloop
 endfacet
 facet normal 0.803208 0.595699 0.000000
  outer loop
   vertex 69.570941 57.095396 -100.000000
   vertex 74.832265 50.001321 -520.000000
   vertex 69.570941 57.095396 -520.000000
  endloop
 endfacet
 facet normal 0.857729 0.514103 0.000000
  outer loop
   vertex 74.832265 50.001321 -100.000000
   vertex 79.372914 42.425706 -100.000000
   vertex 79.372914 42.425706 -520.000000
  endloop
 endfacet
 facet normal 0.857729 0.514103 0.000000
  outer loop
   vertex 74.832265 50.001321 -100.000000
   vertex 79.372914 42.425706 -520.000000
   vertex 74.832265 50.001321 -520.000000
  endloop
 endfacet
 facet normal 0.903989 0.427555 0.000000
  outer loop
   vertex 79.372914 42.425706 -100.000000
   vertex 83.149158 34.441509 -100.000000
   vertex 83.149158 34.441509 -520.000000
  endloop
 endfacet
 facet normal 0.903989 0.427555 0.000000
  outer loop
   vertex 79.372914 42.425706 -100.000000
   vertex 83.149158 34.441509 -520.000000
   vertex 79.372914 42.425706 -520.000000
  endloop
 endfacet
 facet normal 0.941544 0.336890 0.000000
  outer loop
   vertex 83.149158 34.441509 -100.000000
   vertex 86.124630 26.125621 -100.000000
   vertex 86.124630 26.125621 -520.000000
  endloop
 endfacet
 facet normal 0.941544 0.336890 0.000000
  outer loop
   vertex 83.149158 34.441509 -100.000000
   vertex 86.124630 26.125621 -520.000000
   vertex 83.149158 34.441509 -520.000000
  endloop
 endfacet
 facet normal 0.970031 0.242980 0.000000
  outer loop
   vertex 86.124630 26.125621 -100.000000
   vertex 88.270675 17.558129 -100.000000
   vertex 88.270675 17.558129 -520.000000
  endloop
 endfacet
 facet normal 0.970031 0.242980 0.000000
  outer loop
   vertex 86.124630 26.125621 -100.000000
   vertex 88.270675 17.558129 -520.000000
   vertex 86.124630 26.125621 -520.000000
  endloop
 endfacet
 facet normal 0.989177 0.146730 0.000000
  outer loop
   vertex 88.270675 17.558129 -100.000000
   vertex 89.566625 8.821543 -100.000000
   vertex 89.566625 8.821543 -520.000000
  endloop
 endfacet
 facet normal 0.989177 0.146730 0.000000
  outer loop
   vertex 88.270675 17.558129 -100.000000
   vertex 89.566625 8.821543 -520.000000
   vertex 88.270675 17.558129 -520.000000
  endloop
 endfacet
 facet normal 0.998795 0.049068 0.000000
  outer loop
   vertex 89.566625 8.821543 -100.000000
   vertex 90.000000 0.000000 -100.000000
   vertex 90.000000 0.000000 -520.000000
  endloop
 endfacet
 facet normal 0.998795 0.049068 0.000000
  outer loop
   vertex 89.566625 8.821543 -100.000000
   vertex 90.000000 0.000000 -520.000000
   vertex 89.566625 8.821543 -520.000000
  endloop
 endfacet
 facet normal 0.998795 -0.049068 0.000000
  outer loop
   vertex 90.000000 0.000000 -100.000000
   vertex 89.566625 -8.821543 -100.000000
   vertex 89.566625 -8.821543 -520.000000
  endloop
 endfacet
 facet normal 0.998795 -0.049068 0.000000
  outer loop
   vertex 90.000000 0.000000 -100.000000
   vertex 89.566625 -8.821543 -520.000000
   vertex 90.000000 0.000000 -520.000000
  endloop
 endfacet
 facet normal 0.989177 -0.146730 0.000000
  outer loop
   vertex 89.566625 -8.821543 -100.000000
   vertex 88.270675 -17.558129 -100.000000
   vertex 88.270675 -17.558129 -520.000000
  endloop
 endfacet
 facet normal 0.989177 -0.146730 0.000000
  outer loop
   vertex 89.566625 -8.821543 -100.000000
   vertex 88.270675 -17.558129 -520.000000
   vertex 89.566625 -8.821543 -520.000000
  endloop
 endfacet
 facet normal 0.970031 -0.242980 0.000000
  outer loop
   vertex 88.270675 -17.558129 -100.000000
   vertex 86.124630 -26.125621 -100.000000
   vertex 86.124630 -26.125621 -520.000000
  endloop
 endfacet
 facet normal 0.970031 -0.242980 0.000000
  outer loop
   vertex 88.270675 -17.558129 -100.000000
   vertex 86.124630 -26.125621 -520.000000
   vertex 88.270675 -17.558129 -520.000000
  endloop
 endfacet
 facet normal 0.941544 -0.336890 0.000000
  outer loop
   vertex 86.124630 -26.125621 -100.000000
   vertex 83.149158 -34.441509 -100.000000
   vertex 83.149158 -34.441509 -520.000000
  endloop
 endfacet
 facet normal 0.941544 -0.336890 0.000000
  outer loop
   vertex 86.124630 -26.125621 -100.000000
   vertex 83.149158 -34.441509 -520.000000
   vertex 86.124630 -26.125621 -520.000000
  endloop
 endfacet
 facet normal 0.903989 -0.427555 0.000000
  outer loop
   vertex 83.149158 -34.441509 -100.000000
   vertex 79.372914 -42.425706 -100.000000
   vertex 79.372914 -42.425706 -520.000000
  endloop
 endfacet
 facet normal 0.903989 -0.427555 0.000000
  outer loop
   vertex 83.149158 -34.441509 -100.000000
   vertex 79.372914 -42.425706 -520.000000
   vertex 83.149158 -34.441509 -520.000000
  endloop
 endfacet
 facet normal 0.857729 -0.514103 0.000000
  outer loop
   vertex 79.372914 -42.425706 -100.000000
   vertex 74.832265 -50.001321 -100.000000
   vertex 74.832265 -50.001321 -520.000000
  endloop
 endfacet
 facet normal 0.857729 -0.514103 0.000000
  outer loop
   vertex 79.372914 -42.425706 -100.000000
   vertex 74.832265 -50.001321 -520.000000
   vertex 79.372914 -42.425706 -520.000000
  endloop
 endfacet
 facet normal 0.803208 -0.595699 0.000000
  outer loop
   vertex 74.832265 -50.001321 -100.000000
   vertex 69.570941 -57.095396 -100.000000
   vertex 69.570941 -57.095396 -520.000000
  endloop
 endfacet
 facet normal 0.803208 -0.595699 0.000000
  outer loop
   vertex 74.832265 -50.001321 -100.000000
   vertex 69.570941 -57.095396 -520.000000
   vertex 74.832265 -50.001321 -520.000000
  endloop
 endfacet
 facet normal 0.740951 -0.671559 0.000000
  outer loop
   vertex 69.570941 -57.095396 -100.000000
   vertex 63.639610 -63.639610 -100.000000
   vertex 63.639610 -63.639610 -520.000000
  endloop
 endfacet
 facet normal 0.740951 -0.671559 0.000000
  outer loop
   vertex 69.570941 -57.095396 -100.000000
   vertex 63.639610 -63.639610 -520.000000
   vertex 69.570941 -57.095396 -520.000000
  endloop
 endfacet
 facet normal 0.671559 -0.740951 0.000000
  outer loop
   vertex 63.639610 -63.639610 -100.000000
   vertex 57.095396 -69.570941 -100.000000
   vertex 57.095396 -69.570941 -520.000000
  endloop
 endfacet
 facet normal 0.671559 -0.740951 0.000000
  outer loop
   vertex 63.639610 -63.639610 -100.000000
   vertex 57.095396 -69.570941 -520.000000
   vertex 63.639610 -63.639610 -520.000000
  endloop
 endfacet
 facet normal 0.595699 -0.803208 0.000000
  outer loop
   vertex 57.095396 -69.570941 -100.000000
   vertex 50.001321 -74.832265 -100.000000
   vertex 50.001321 -74.832265 -520.000000
  endloop
 endfacet
 facet normal 0.595699 -0.803208 0.000000
  outer loop
   vertex 57.095396 -69.570941 -100.000000
   vertex 50.001321 -74.832265 -520.000000
   vertex 57.095396 -69.570941 -520.000000
  endloop
 endfacet
 facet normal 0.514103 -0.857729 0.000000
  outer loop
   vertex 50.001321 -74.832265 -100.000000
   vertex 42.425706 -79.372914 -100.000000
   vertex 42.425706 -79.372914 -520.000000
  endloop
 endfacet
 facet normal 0.514103 -0.857729 0.000000
  outer loop
   vertex 50.001321 -74.832265 -100.000000
   vertex 42.425706 -79.372914 -520.000000
   vertex 50.001321 -74.832265 -520.000000
  endloop
 endfacet
 facet normal 0.427555 -0.903989 0.000000
  outer loop
   vertex 42.425706 -79.372914 -100.000000
   vertex 34.441509 -83.149158 -100.000000
   vertex 34.441509 -83.149158 -520.000000
  endloop
 endfacet
 facet normal 0.427555 -0.903989 0.000000
  outer loop
   vertex 42.425706 -79.372914 -100.000000
   vertex 34.441509 -83.149158 -520.000000
   vertex 42.425706 -79.372914 -520.000000
  endloop
 endfacet
 facet normal 0.336890 -0.941544 0.000000
  outer loop
   vertex 34.441509 -83.149158 -100.000000
   vertex 26.125621 -86.124630 -100.000000
   vertex 26.125621 -86.124630 -520.000000
  endloop
 endfacet
 facet normal 0.336890 -0.941544 0.000000
  outer loop
   vertex 34.441509 -83.149158 -100.000000
   vertex 26.125621 -86.124630 -520.000000
   vertex 34.441509 -83.149158 -520.000000
  endloop
 endfacet
 facet normal 0.242980 -0.970031 0.000000
  outer loop
   vertex 26.125621 -86.124630 -100.000000
   vertex 17.558129 -88.270675 -100.000000
   vertex 17.558129 -88.270675 -520.000000
  endloop
 endfacet
 facet normal 0.242980 -0.970031 0.000000
  outer loop
   vertex 26.125621 -86.124630 -100.000000
   vertex 17.558129 -88.270675 -520.000000
   vertex 26.125621 -86.124630 -520.000000
  endloop
 endfacet
 facet normal 0.146730 -0.989177 0.000000
  outer loop
   vertex 17.558129 -88.270675 -100.000000
   vertex 8.821543 -89.566625 -100.000000
   vertex 8.821543 -89.566625 -520.000000
  endloop
 endfacet
 facet normal 0.146730 -0.989177 0.000000
  outer loop
   vertex 17.558129 -88.270675 -100.000000
   vertex 8.821543 -89.566625 -520.000000
   vertex 17.558129 -88.270675 -520.000000
  endloop
 endfacet
 facet normal 0.049068 -0.998795 0.000000
  outer loop
   vertex 8.821543 -89.566625 -100.000000
   vertex 0.000000 -90.000000 -100.000000
   vertex 0.000000 -90.000000 -520.000000
  endloop
 endfacet
 facet normal 0.049068 -0.998795 0.000000
  outer loop
   vertex 8.821543 -89.566625 -100.000000
   vertex 0.000000 -90.000000 -520.000000
   vertex 8.821543 -89.566625 -520.000000
  endloop
 endfacet
 facet normal -0.049068 -0.998795 0.000000
  outer loop
   vertex 0.000000 -90.000000 -100.000000
   vertex -8.821543 -89.566625 -100.000000
   vertex -8.821543 -89.566625 -520.000000
  endloop
 endfacet
 facet normal -0.049068 -0.998795 -0.000000
  outer loop
   vertex 0.000000 -90.000000 -100.000000
   vertex -8.821543 -89.566625 -520.000000
   vertex 0.000000 -90.000000 -520.000000
  endloop
 endfacet
 facet normal -0.146730 -0.989177 0.000000
  outer loop
   vertex -8.821543 -89.566625 -100.000000
   vertex -17.558129 -88.270675 -100.000000
   vertex -17.558129 -88.270675 -520.000000
  endloop
 endfacet
 facet normal -0.146730 -0.989177 -0.000000
  outer loop
   vertex -8.821543 -89.566625 -100.000000
   vertex -17.558129 -88.270675 -520.000000
   vertex -8.821543 -89.566625 -520.000000
  endloop
 endfacet
 facet normal -0.242980 -0.970031 0.000000
  outer loop
   vertex -17.558129 -88.270675 -100.000000
   vertex -26.125621 -86.124630 -100.000000
   vertex -26.125621 -86.124630 -520.000000
  endloop
 endfacet
 facet normal -0.242980 -0.970031 -0.000000
  outer loop
   vertex -17.558129 -88.270675 -100.000000
   vertex -26.125621 -86.124630 -520.000000
   vertex -17.558129 -88.270675 -520.000000
  endloop
 endfacet
 facet normal -0.336890 -0.941544 0.000000
  outer loop
   vertex -26.125621 -86.124630 -100.000000
   vertex -34.441509 -83.149158 -100.000000
   vertex -34.441509 -83.149158 -520.000000
  endloop
 endfacet
 facet normal -0.336890 -0.941544 -0.000000
  outer loop
   vertex -26.125621 -86.124630 -100.000000
   vertex -34.441509 -83.149158 -520.000000
   vertex -26.125621 -86.124630 -520.000000
  endloop
 endfacet
 facet normal -0.427555 -0.903989 0.000000
  outer loop
   vertex -34.441509 -83.149158 -100.000000
   vertex -42.425706 -79.372914 -100.000000
   vertex -42.425706 -79.372914 -520.000000
  endloop
 endfacet
 facet normal -0.427555 -0.903989 -0.000000
  outer loop
   vertex -34.441509 -83.149158 -100.000000
   vertex -42.425706 -79.372914 -520.000000
   vertex -34.441509 -83.149158 -520.000000
  endloop
 endfacet
 facet normal -0.514103 -0.857729 0.000000
  outer loop
   vertex -42.425706 -79.372914 -100.000000
   vertex -50.001321 -74.832265 -100.000000
   vertex -50.001321 -74.832265 -520.000000
  endloop
 endfacet
 facet normal -0.514103 -0.857729 -0.000000
  outer loop
   vertex -42.425706 -79.372914 -100.000000
   vertex -50.001321 -74.832265 -520.000000
   vertex -42.425706 -79.372914 -520.000000
  endloop
 endfacet
 facet normal -0.595699 -0.803208 0.000000
  outer loop
   vertex -50.001321 -74.832265 -100.000000
   vertex -57.095396 -69.570941 -100.000000
   vertex -57.095396 -69.570941 -520.000000
  endloop
 endfacet
 facet normal -0.595699 -0.803208 -0.000000
  outer loop
   vertex -50.001321 -74.832265 -100.000000
   vertex -57.095396 -69.570941 -520.000000
   vertex -50.001321 -74.832265 -520.000000
  endloop
 endfacet
 facet normal -0.671559 -0.740951 0.000000
  outer loop
   vertex -57.095396 -69.570941 -100.000000
   vertex -63.639610 -63.639610 -100.000000
   vertex -63.639610 -63.639610 -520.000000
  endloop
 endfacet
 facet normal -0.671559 -0.740951 -0.000000
  outer loop
   vertex -57.095396 -69.570941 -100.000000
   vertex -63.639610 -63.639610 -520.000000
   vertex -57.095396 -69.570941 -520.000000
  endloop
 endfacet
 facet normal -0.740951 -0.671559 0.000000
  outer loop
   vertex -63.639610 -63.639610 -100.000000
   vertex -69.570941 -57.095396 -100.000000
   vertex -69.570941 -57.095396 -520.000000
  endloop
 endfacet
 facet normal -0.740951 -0.671559 -0.000000
  outer loop
   vertex -63.639610 -63.639610 -100.000000
   vertex -69.570941 -57.095396 -520.000000
   vertex -63.639610 -63.639610 -520.000000
  endloop
 endfacet
 facet normal -0.803208 -0.595699 0.000000
  outer loop
   vertex -69.570941 -57.095396 -100.000000
   vertex -74.832265 -50.001321 -100.000000
   vertex -74.832265 -50.001321 -520.000000
  endloop
 endfacet
 facet normal -0.803208 -0.595699 -0.000000
  outer loop
   vertex -69.570941 -57.095396 -100.000000
   vertex -74.832265 -50.001321 -520.000000
   vertex -69.570941 -57.095396 -520.000000
  endloop
 endfacet
 facet normal -0.857729 -0.514103 0.000000
  outer loop
   vertex -74.832265 -50.001321 -100.000000
   vertex -79.372914 -42.425706 -100.000000
   vertex -79.372914 -42.425706 -520.000000
  endloop
 endfacet
 facet normal -0.857729 -0.514103 -0.000000
  outer loop
   vertex -74.832265 -50.001321 -100.000000
   vertex -79.372914 -42.425706 -520.000000
   vertex -74.832265 -50.001321 -520.000000
  endloop
 endfacet
 facet normal -0.903989 -0.427555 0.000000
  outer loop
   vertex -79.372914 -42.425706 -100.000000
   vertex -83.149158 -34.441509 -100.000000
   vertex -83.149158 -34.441509 -520.000000
  endloop
 endfacet
 facet normal -0.903989 -0.427555 -0.000000
  outer loop
   vertex -79.372914 -42.425706 -100.000000
   vertex -83.149158 -34.441509 -520.000000
   vertex -79.372914 -42.425706 -520.000000
  endloop
 endfacet
 facet normal -0.941544 -0.336890 0.000000
  outer loop
   vertex -83.149158 -34.441509 -100.000000
   vertex -86.124630 -26.125621 -100.000000
   vertex -86.124630 -26.125621 -520.000000
  endloop
 endfacet
 facet normal -0.941544 -0.336890 -0.000000
  outer loop
   vertex -83.149158 -34.441509 -100.000000
   vertex -86.124630 -26.125621 -520.000000
   vertex -83.149158 -34.441509 -520.000000
  endloop
 endfacet
 facet normal -0.970031 -0.242980 0.000000
  outer loop
   vertex -86.124630 -26.125621 -100.000000
   vertex -88.270675 -17.558129 -100.000000
   vertex -88.270675 -17.558129 -520.000000
  endloop
 endfacet
 facet normal -0.970031 -0.242980 -0.000000
  outer loop
   vertex -86.124630 -26.125621 -100.000000
   vertex -88.270675 -17.558129 -520.000000
   vertex -86.124630 -26.125621 -520.000000
  endloop
 endfacet
 facet normal -0.989177 -0.146730 0.000000
  outer loop
   vertex -88.270675 -17.558129 -100.000000
   vertex -89.566625 -8.821543 -100.000000
   vertex -89.566625 -8.821543 -520.000000
  endloop
 endfacet
 facet normal -0.989177 -0.146730 -0.000000
  outer loop
   vertex -88.270675 -17.558129 -100.000000
   vertex -89.566625 -8.821543 -520.000000
   vertex -88.270675 -17.558129 -520.000000
  endloop
 endfacet
 facet normal -0.998795 -0.049068 0.000000
  outer loop
   vertex -89.566625 -8.821543 -100.000000
   vertex -90.000000 -0.000000 -100.000000
   vertex -90.000000 -0.000000 -520.000000
  endloop
 endfacet
 facet normal -0.998795 -0.049068 -0.000000
  outer loop
   vertex -89.566625 -8.821543 -100.000000
   vertex -90.000000 -0.000000 -520.000000
   vertex -89.566625 -8.821543 -520.000000
  endloop
 endfacet
 facet normal -0.998795 0.049068 0.000000
  outer loop
   vertex -90.000000 -0.000000 -100.000000
   vertex -89.566625 8.821543 -100.000000
   vertex -89.566625 8.821543 -520.000000
  endloop
 endfacet
 facet normal -0.998795 0.049068 0.000000
  outer loop
   vertex -90.000000 -0.000000 -100.000000
   vertex -89.566625 8.821543 -520.000000
   vertex -90.000000 -0.000000 -520.000000
  endloop
 endfacet
 facet normal -0.989177 0.146730 0.000000
  outer loop
   vertex -89.566625 8.821543 -100.000000
   vertex -88.270675 17.558129 -100.000000
   vertex -88.270675 17.558129 -520.000000
  endloop
 endfacet
 facet normal -0.989177 0.146730 0.000000
  outer loop
   vertex -89.566625 8.821543 -100.000000
   vertex -88.270675 17.558129 -520.000000
   vertex -89.566625 8.821543 -520.000000
  endloop
 endfacet
 facet normal -0.970031 0.242980 0.000000
  outer loop
   vertex -88.270675 17.558129 -100.000000
   vertex -86.124630 26.125621 -100.000000
   vertex -86.124630 26.125621 -520.000000
  endloop
 endfacet
 facet normal -0.970031 0.242980 0.000000
  outer loop
   vertex -88.270675 17.558129 -100.000000
   vertex -86.124630 26.125621 -520.000000
   vertex -88.270675 17.558129 -520.000000
  endloop
 endfacet
 facet normal -0.941544 0.336890 0.000000
  outer loop
   vertex -86.124630 26.125621 -100.000000
   vertex -83.149158 34.441509 -100.000000
   vertex -83.149158 34.441509 -520.000000
  endloop
 endfacet
 facet normal -0.941544 0.336890 0.000000
  outer loop
   vertex -86.124630 26.125621 -100.000000
   vertex -83.149158 34.441509 -520.000000
   vertex -86.124630 26.125621 -520.000000
  endloop
 endfacet
 facet normal -0.903989 0.427555 0.000000
  outer loop
   vertex -83.149158 34.441509 -100.000000
   vertex -79.372914 42.425706 -100.000000
   vertex -79.372914 42.425706 -520.000000
  endloop
 endfacet
 facet normal -0.903989 0.427555 0.000000
  outer loop
   vertex -83.149158 34.441509 -100.000000
   vertex -79.372914 42.425706 -520.000000
   vertex -83.149158 34.441509 -520.000000
  endloop
 endfacet
 facet normal -0.857729 0.514103 0.000000
  outer loop
   vertex -79.372914 42.425706 -100.000000
   vertex -74.832265 50.001321 -100.000000
   vertex -74.832265 50.001321 -520.000000
  endloop
 endfacet
 facet normal -0.857729 0.514103 0.000000
  outer loop
   vertex -79.372914 42.425706 -100.000000
   vertex -74.832265 50.001321 -520.000000
   vertex -79.372914 42.425706 -520.000000
  endloop
 endfacet
 facet normal -0.803208 0.595699 0.000000
  outer loop
   vertex -74.832265 50.001321 -100.000000
   vertex -69.570941 57.095396 -100.000000
   vertex -69.570941 57.095396 -520.000000
  endloop
 endfacet
 facet normal -0.803208 0.595699 0.000000
  outer loop
   vertex -74.832265 50.001321 -100.000000
   vertex -69.570941 57.095396 -520.000000
   vertex -74.832265 50.001321 -520.000000
  endloop
 endfacet
 facet normal -0.740951 0.671559 0.000000
  outer loop
   vertex -69.570941 57.095396 -100.000000
   vertex -63.639610 63.639610 -100.000000
   vertex -63.639610 63.639610 -520.000000
  endloop
 endfacet
 facet normal -0.740951 0.671559 0.000000
  outer loop
   vertex -69.570941 57.095396 -100.000000
   vertex -63.639610 63.639610 -520.000000
   vertex -69.570941 57.095396 -520.000000
  endloop
 endfacet
 facet normal -0.671559 0.740951 0.000000
  outer loop
   vertex -63.639610 63.639610 -100.000000
   vertex -57.095396 69.570941 -100.000000
   vertex -57.095396 69.570941 -520.000000
  endloop
 endfacet
 facet normal -0.671559 0.740951 0.000000
  outer loop
   vertex -63.639610 63.639610 -100.000000
   vertex -57.095396 69.570941 -520.000000
   vertex -63.639610 63.639610 -520.000000
  endloop
 endfacet
 facet normal -0.595699 0.803208 0.000000
  outer loop
   vertex -57.095396 69.570941 -100.000000
   vertex -50.001321 74.832265 -100.000000
   vertex -50.001321 74.832265 -520.000000
  endloop
 endfacet
 facet normal -0.595699 0.803208 0.000000
  outer loop
   vertex -57.095396 69.570941 -100.000000
   vertex -50.001321 74.832265 -520.000000
   vertex -57.095396 69.570941 -520.000000
  endloop
 endfacet
 facet normal -0.514103 0.857729 0.000000
  outer loop
   vertex -50.001321 74.832265 -100.000000
   vertex -42.425706 79.372914 -100.000000
   vertex -42.425706 79.372914 -520.000000
  endloop
 endfacet
 facet normal -0.514103 0.857729 0.000000
  outer loop
   vertex -50.001321 74.832265 -100.000000
   vertex -42.425706 79.372914 -520.000000
   vertex -50.001321 74.832265 -520.000000
  endloop
 endfacet
 facet normal -0.427555 0.903989 0.000000
  outer loop
   vertex -42.425706 79.372914 -100.000000
   vertex -34.441509 83.149158 -100.000000
   vertex -34.441509 83.149158 -520.000000
  endloop
 endfacet
 facet normal -0.427555 0.903989 0.000000
  outer loop
   vertex -42.425706 79.372914 -100.000000
   vertex -34.441509 83.149158 -520.000000
   vertex -42.425706 79.372914 -520.000000
  endloop
 endfacet
 facet normal -0.336890 0.941544 0.000000
  outer loop
   vertex -34.441509 83.149158 -100.000000
   vertex -26.125621 86.124630 -100.000000
   vertex -26.125621 86.124630 -520.000000
  endloop
 endfacet
 facet normal -0.336890 0.941544 0.000000
  outer loop
   vertex -34.441509 83.149158 -100.000000
   vertex -26.125621 86.124630 -520.000000
   vertex -34.441509 83.149158 -520.000000
  endloop
 endfacet
 facet normal -0.242980 0.970031 0.000000
  outer loop
   vertex -26.125621 86.124630 -100.000000
   vertex -17.558129 88.270675 -100.000000
   vertex -17.558129 88.270675 -520.000000
  endloop
 endfacet
 facet normal -0.242980 0.970031 0.000000
  outer loop
   vertex -26.125621 86.124630 -100.000000
   vertex -17.558129 88.270675 -520.000000
   vertex -26.125621 86.124630 -520.000000
  endloop
 endfacet
 facet normal -0.146730 0.989177 0.000000
  outer loop
   vertex -17.558129 88.270675 -100.000000
   vertex -8.821543 89.566625 -100.000000
   vertex -8.821543 89.566625 -520.000000
  endloop
 endfacet
 facet normal -0.146730 0.989177 0.000000
  outer loop
   vertex -17.558129 88.270675 -100.000000
   vertex -8.821543 89.566625 -520.000000
   vertex -17.558129 88.270675 -520.000000
  endloop
 endfacet
 facet normal -0.049068 0.998795 0.000000
  outer loop
   vertex -8.821543 89.566625 -100.000000
   vertex 0.000000 90.000000 -100.000000
   vertex 0.000000 90.000000 -520.000000
  endloop
 endfacet
 facet normal -0.049068 0.998795 0.000000
  outer loop
   vertex -8.821543 89.566625 -100.000000
   vertex 0.000000 90.000000 -520.000000
   vertex -8.821543 89.566625 -520.000000
  endloop
 endfacet
 facet normal -0.049068 -0.998795 0.000000
  outer loop
   vertex 7.841371 79.614778 -520.000000
   vertex 7.841371 79.614778 -100.000000
   vertex 0.000000 80.000000 -100.000000
  endloop
 endfacet
 facet normal -0.049068 -0.998795 0.000000
  outer loop
   vertex 0.000000 80.000000 -520.000000
   vertex 7.841371 79.614778 -520.000000
   vertex 0.000000 80.000000 -100.000000
  endloop
 endfacet
 facet normal -0.146730 -0.989177 0.000000
  outer loop
   vertex 15.607226 78.462822 -520.000000
   vertex 15.607226 78.462822 -100.000000
   vertex 7.841371 79.614778 -100.000000
  endloop
 endfacet
 facet normal -0.146730 -0.989177 0.000000
  outer loop
   vertex 7.841371 79.614778 -520.000000
   vertex 15.607226 78.462822 -520.000000
   vertex 7.841371 79.614778 -100.000000
  endloop
 endfacet
 facet normal -0.242980 -0.970031 0.000000
  outer loop
   vertex 23.222774 76.555227 -520.000000
   vertex 23.222774 76.555227 -100.000000
   vertex 15.607226 78.462822 -100.000000
  endloop
 endfacet
 facet normal -0.242980 -0.970031 0.000000
  outer loop
   vertex 15.607226 78.462822 -520.000000
   vertex 23.222774 76.555227 -520.000000
   vertex 15.607226 78.462822 -100.000000
  endloop
 endfacet
 facet normal -0.336890 -0.941544 0.000000
  outer loop
   vertex 30.614675 73.910363 -520.000000
   vertex 30.614675 73.910363 -100.000000
   vertex 23.222774 76.555227 -100.000000
  endloop
 endfacet
 facet normal -0.336890 -0.941544 0.000000
  outer loop
   vertex 23.222774 76.555227 -520.000000
   vertex 30.614675 73.910363 -520.000000
   vertex 23.222774 76.555227 -100.000000
  endloop
 endfacet
 facet normal -0.427555 -0.903989 0.000000
  outer loop
   vertex 37.711739 70.553701 -520.000000
   vertex 37.711739 70.553701 -100.000000
   vertex 30.614675 73.910363 -100.000000
  endloop
 endfacet
 facet normal -0.427555 -0.903989 0.000000
  outer loop
   vertex 30.614675 73.910363 -520.000000
   vertex 37.711739 70.553701 -520.000000
   vertex 30.614675 73.910363 -100.000000
  endloop
 endfacet
 facet normal -0.514103 -0.857729 0.000000
  outer loop
   vertex 44.445619 66.517569 -520.000000
   vertex 44.445619 66.517569 -100.000000
   vertex 37.711739 70.553701 -100.000000
  endloop
 endfacet
 facet normal -0.514103 -0.857729 0.000000
  outer loop
   vertex 37.711739 70.553701 -520.000000
   vertex 44.445619 66.517569 -520.000000
   vertex 37.711739 70.553701 -100.000000
  endloop
 endfacet
 facet normal -0.595699 -0.803208 0.000000
  outer loop
   vertex 50.751463 61.840836 -520.000000
   vertex 50.751463 61.840836 -100.000000
   vertex 44.445619 66.517569 -100.000000
  endloop
 endfacet
 facet normal -0.595699 -0.803208 0.000000
  outer loop
   vertex 44.445619 66.517569 -520.000000
   vertex 50.751463 61.840836 -520.000000
   vertex 44.445619 66.517569 -100.000000
  endloop
 endfacet
 facet normal -0.671559 -0.740951 0.000000
  outer loop
   vertex 56.568542 56.568542 -520.000000
   vertex 56.568542 56.568542 -100.000000
   vertex 50.751463 61.840836 -100.000000
  endloop
 endfacet
 facet normal -0.671559 -0.740951 0.000000
  outer loop
   vertex 50.751463 61.840836 -520.000000
   vertex 56.568542 56.568542 -520.000000
   vertex 50.751463 61.840836 -100.000000
  endloop
 endfacet
 facet normal -0.740951 -0.671559 0.000000
  outer loop
   vertex 61.840836 50.751463 -520.000000
   vertex 61.840836 50.751463 -100.000000
   vertex 56.568542 56.568542 -100.000000
  endloop
 endfacet
 facet normal -0.740951 -0.671559 0.000000
  outer loop
   vertex 56.568542 56.568542 -520.000000
   vertex 61.840836 50.751463 -520.000000
   vertex 56.568542 56.568542 -100.000000
  endloop
 endfacet
 facet normal -0.803208 -0.595699 0.000000
  outer loop
   vertex 66.517569 44.445619 -520.000000
   vertex 66.517569 44.445619 -100.000000
   vertex 61.840836 50.751463 -100.000000
  endloop
 endfacet
 facet normal -0.803208 -0.595699 0.000000
  outer loop
   vertex 61.840836 50.751463 -520.000000
   vertex 66.517569 44.445619 -520.000000
   vertex 61.840836 50.751463 -100.000000
  endloop
 endfacet
 facet normal -0.857729 -0.514103 0.000000
  outer loop
   vertex 70.553701 37.711739 -520.000000
   vertex 70.553701 37.711739 -100.000000
   vertex 66.517569 44.445619 -100.000000
  endloop
 endfacet
 facet normal -0.857729 -0.514103 0.000000
  outer loop
   vertex 66.517569 44.445619 -520.000000
   vertex 70.553701 37.711739 -520.000000
   vertex 66.517569 44.445619 -100.000000
  endloop
 endfacet
 facet normal -0.903989 -0.427555 0.000000
  outer loop
   vertex 73.910363 30.614675 -520.000000
   vertex 73.910363 30.614675 -100.000000
   vertex 70.553701 37.711739 -100.000000
  endloop
 endfacet
 facet normal -0.903989 -0.427555 0.000000
  outer loop
   vertex 70.553701 37.711739 -520.000000
   vertex 73.910363 30.614675 -520.000000
   vertex 70.553701 37.711739 -100.000000
  endloop
 endfacet
 facet normal -0.941544 -0.336890 0.000000
  outer loop
   vertex 76.555227 23.222774 -520.000000
   vertex 76.555227 23.222774 -100.000000
   vertex 73.910363 30.614675 -100.000000
  endloop
 endfacet
 facet normal -0.941544 -0.336890 0.000000
  outer loop
   vertex 73.910363 30.614675 -520.000000
   vertex 76.555227 23.222774 -520.000000
   vertex 73.910363 30.614675 -100.000000
  endloop
 endfacet
 facet normal -0.970031 -0.242980 0.000000
  outer loop
   vertex 78.462822 15.607226 -520.000000
   vertex 78.462822 15.607226 -100.000000
   vertex 76.555227 23.222774 -100.000000
  endloop
 endfacet
 facet normal -0.970031 -0.242980 0.000000
  outer loop
   vertex 76.555227 23.222774 -520.000000
   vertex 78.462822 15.607226 -520.000000
   vertex 76.555227 23.222774 -100.000000
  endloop
 endfacet
 facet normal -0.989177 -0.146730 0.000000
  outer loop
   vertex 79.614778 7.841371 -520.000000
   vertex 79.614778 7.841371 -100.000000
   vertex 78.462822 15.607226 -100.000000
  endloop
 endfacet
 facet normal -0.989177 -0.146730 0.000000
  outer loop
   vertex 78.462822 15.607226 -520.000000
   vertex 79.614778 7.841371 -520.000000
   vertex 78.462822 15.607226 -100.000000
  endloop
 endfacet
 facet normal -0.998795 -0.049068 0.000000
  outer loop
   vertex 80.000000 0.000000 -520.000000
   vertex 80.000000 0.000000 -100.000000
   vertex 79.614778 7.841371 -100.000000
  endloop
 endfacet
 facet normal -0.998795 -0.049068 0.000000
  outer loop
   vertex 79.614778 7.841371 -520.000000
   vertex 80.000000 0.000000 -520.000000
   vertex 79.614778 7.841371 -100.000000
  endloop
 endfacet
 facet normal -0.998795 0.049068 0.000000
  outer loop
   vertex 79.614778 -7.841371 -520.000000
   vertex 79.614778 -7.841371 -100.000000
   vertex 80.000000 0.000000 -100.000000
  endloop
 endfacet
 facet normal -0.998795 0.049068 0.000000
  outer loop
   vertex 80.000000 0.000000 -520.000000
   vertex 79.614778 -7.841371 -520.000000
   vertex 80.000000 0.000000 -100.000000
  endloop
 endfacet
 facet normal -0.989177 0.146730 0.000000
  outer loop
   vertex 78.462822 -15.607226 -520.000000
   vertex 78.462822 -15.607226 -100.000000
   vertex 79.614778 -7.841371 -100.000000
  endloop
 endfacet
 facet normal -0.989177 0.146730 0.000000
  outer loop
   vertex 79.614778 -7.841371 -520.000000
   vertex 78.462822 -15.607226 -520.000000
   vertex 79.614778 -7.841371 -100.000000
  endloop
 endfacet
 facet normal -0.970031 0.242980 0.000000
  outer loop
   vertex 76.555227 -23.222774 -520.000000
   vertex 76.555227 -23.222774 -100.000000
   vertex 78.462822 -15.607226 -100.000000
  endloop
 endfacet
 facet normal -0.970031 0.242980 0.000000
  outer loop
   vertex 78.462822 -15.607226 -520.000000
   vertex 76.555227 -23.222774 -520.000000
   vertex 78.462822 -15.607226 -100.000000
  endloop
 endfacet
 facet normal -0.941544 0.336890 0.000000
  outer loop
   vertex 73.910363 -30.614675 -520.000000
   vertex 73.910363 -30.614675 -100.000000
   vertex 76.555227 -23.222774 -100.000000
  endloop
 endfacet
 facet normal -0.941544 0.336890 0.000000
  outer loop
   vertex 76.555227 -23.222774 -520.000000
   vertex 73.910363 -30.614675 -520.000000
   vertex 76.555227 -23.222774 -100.000000
  endloop
 endfacet
 facet normal -0.903989 0.427555 0.000000
  outer loop
   vertex 70.553701 -37.711739 -520.000000
   vertex 70.553701 -37.711739 -100.000000
   vertex 73.910363 -30.614675 -100.000000
  endloop
 endfacet
 facet normal -0.903989 0.427555 0.000000
  outer loop
   vertex 73.910363 -30.614675 -520.000000
   vertex 70.553701 -37.711739 -520.000000
   vertex 73.910363 -30.614675 -100.000000
  endloop
 endfacet
 facet normal -0.857729 0.514103 0.000000
  outer loop
   vertex 66.517569 -44.445619 -520.000000
   vertex 66.517569 -44.445619 -100.000000
   vertex 70.553701 -37.711739 -100.000000
  endloop
 endfacet
 facet normal -0.857729 0.514103 0.000000
  outer loop
   vertex 70.553701 -37.711739 -520.000000
   vertex 66.517569 -44.445619 -520.000000
   vertex 70.553701 -37.711739 -100.000000
  endloop
 endfacet
 facet normal -0.803208 0.595699 0.000000
  outer loop
   vertex 61.840836 -50.751463 -520.000000
   vertex 61.840836 -50.751463 -100.000000
   vertex 66.517569 -44.445619 -100.000000
  endloop
 endfacet
 facet normal -0.803208 0.595699 0.000000
  outer loop
   vertex 66.517569 -44.445619 -520.000000
   vertex 61.840836 -50.751463 -520.000000
   vertex 66.517569 -44.445619 -100.000000
  endloop
 endfacet
 facet normal -0.740951 0.671559 0.000000
  outer loop
   vertex 56.568542 -56.568542 -520.000000
   vertex 56.568542 -56.568542 -100.000000
   vertex 61.840836 -50.751463 -100.000000
  endloop
 endfacet
 facet normal -0.740951 0.671559 0.000000
  outer loop
   vertex 61.840836 -50.751463 -520.000000
   vertex 56.568542 -56.568542 -520.000000
   vertex 61.840836 -50.751463 -100.000000
  endloop
 endfacet
 facet normal -0.671559 0.740951 0.000000
  outer loop
   vertex 50.751463 -61.840836 -520.000000
   vertex 50.751463 -61.840836 -100.000000
   vertex 56.568542 -56.568542 -100.000000
  endloop
 endfacet
 facet normal -0.671559 0.740951 0.000000
  outer loop
   vertex 56.568542 -56.568542 -520.000000
   vertex 50.751463 -61.840836 -520.000000
   vertex 56.568542 -56.568542 -100.000000
  endloop
 endfacet
 facet normal -0.595699 0.803208 0.000000
  outer loop
   vertex 44.445619 -66.517569 -520.000000
   vertex 44.445619 -66.517569 -100.000000
   vertex 50.751463 -61.840836 -100.000000
  endloop
 endfacet
 facet normal -0.595699 0.803208 0.000000
  outer loop
   vertex 50.751463 -61.840836 -520.000000
   vertex 44.445619 -66.517569 -520.000000
   vertex 50.751463 -61.840836 -100.000000
  endloop
 endfacet
 facet normal -0.514103 0.857729 0.000000
  outer loop
   vertex 37.711739 -70.553701 -520.000000
   vertex 37.711739 -70.553701 -100.000000
   vertex 44.445619 -66.517569 -100.000000
  endloop
 endfacet
 facet normal -0.514103 0.857729 0.000000
  outer loop
   vertex 44.445619 -66.517569 -520.000000
   vertex 37.711739 -70.553701 -520.000000
   vertex 44.445619 -66.517569 -100.000000
  endloop
 endfacet
 facet normal -0.427555 0.903989 0.000000
  outer loop
   vertex 30.614675 -73.910363 -520.000000
   vertex 30.614675 -73.910363 -100.000000
   vertex 37.711739 -70.553701 -100.000000
  endloop
 endfacet
 facet normal -0.427555 0.903989 0.000000
  outer loop
   vertex 37.711739 -70.553701 -520.000000
   vertex 30.614675 -73.910363 -520.000000
   vertex 37.711739 -70.553701 -100.000000
  endloop
 endfacet
 facet normal -0.336890 0.941544 0.000000
  outer loop
   vertex 23.222774 -76.555227 -520.000000
   vertex 23.222774 -76.555227 -100.000000
   vertex 30.614675 -73.910363 -100.000000
  endloop
 endfacet
 facet normal -0.336890 0.941544 0.000000
  outer loop
   vertex 30.614675 -73.910363 -520.000000
   vertex 23.222774 -76.555227 -520.000000
   vertex 30.614675 -73.910363 -100.000000
  endloop
 endfacet
 facet normal -0.242980 0.970031 0.000000
  outer loop
   vertex 15.607226 -78.462822 -520.000000
   vertex 15.607226 -78.462822 -100.000000
   vertex 23.222774 -76.555227 -100.000000
  endloop
 endfacet
 facet normal -0.242980 0.970031 0.000000
  outer loop
   vertex 23.222774 -76.555227 -520.000000
   vertex 15.607226 -78.462822 -520.000000
   vertex 23.222774 -76.555227 -100.000000
  endloop
 endfacet
 facet normal -0.146730 0.989177 0.000000
  outer loop
   vertex 7.841371 -79.614778 -520.000000
   vertex 7.841371 -79.614778 -100.000000
   vertex 15.607226 -78.462822 -100.000000
  endloop
 endfacet
 facet normal -0.146730 0.989177 0.000000
  outer loop
   vertex 15.607226 -78.462822 -520.000000
   vertex 7.841371 -79.614778 -520.000000
   vertex 15.607226 -78.462822 -100.000000
  endloop
 endfacet
 facet normal -0.049068 0.998795 0.000000
  outer loop
   vertex 0.000000 -80.000000 -520.000000
   vertex 0.000000 -80.000000 -100.000000
   vertex 7.841371 -79.614778 -100.000000
  endloop
 endfacet
 facet normal -0.049068 0.998795 0.000000
  outer loop
   vertex 7.841371 -79.614778 -520.000000
   vertex 0.000000 -80.000000 -520.000000
   vertex 7.841371 -79.614778 -100.000000
  endloop
 endfacet
 facet normal 0.049068 0.998795 -0.000000
  outer loop
   vertex -7.841371 -79.614778 -520.000000
   vertex -7.841371 -79.614778 -100.000000
   vertex 0.000000 -80.000000 -100.000000
  endloop
 endfacet
 facet normal 0.049068 0.998795 -0.000000
  outer loop
   vertex 0.000000 -80.000000 -520.000000
   vertex -7.841371 -79.614778 -520.000000
   vertex 0.000000 -80.000000 -100.000000
  endloop
 endfacet
 facet normal 0.146730 0.989177 -0.000000
  outer loop
   vertex -15.607226 -78.462822 -520.000000
   vertex -15.607226 -78.462822 -100.000000
   vertex -7.841371 -79.614778 -100.000000
  endloop
 endfacet
 facet normal 0.146730 0.989177 -0.000000
  outer loop
   vertex -7.841371 -79.614778 -520.000000
   vertex -15.607226 -78.462822 -520.000000
   vertex -7.841371 -79.614778 -100.000000
  endloop
 endfacet
 facet normal 0.242980 0.970031 -0.000000
  outer loop
   vertex -23.222774 -76.555227 -520.000000
   vertex -23.222774 -76.555227 -100.000000
   vertex -15.607226 -78.462822 -100.000000
  endloop
 endfacet
 facet normal 0.242980 0.970031 -0.000000
  outer loop
   vertex -15.607226 -78.462822 -520.000000
   vertex -23.222774 -76.555227 -520.000000
   vertex -15.607226 -78.462822 -100.000000
  endloop
 endfacet
 facet normal 0.336890 0.941544 -0.000000
  outer loop
   vertex -30.614675 -73.910363 -520.000000
   vertex -30.614675 -73.910363 -100.000000
   vertex -23.222774 -76.555227 -100.000000
  endloop
 endfacet
 facet normal 0.336890 0.941544 -0.000000
  outer loop
   vertex -23.222774 -76.555227 -520.000000
   vertex -30.614675 -73.910363 -520.000000
   vertex -23.222774 -76.555227 -100.000000
  endloop
 endfacet
 facet normal 0.427555 0.903989 -0.000000
  outer loop
   vertex -37.711739 -70.553701 -520.000000
   vertex -37.711739 -70.553701 -100.000000
   vertex -30.614675 -73.910363 -100.000000
  endloop
 endfacet
 facet normal 0.427555 0.903989 -0.000000
  outer loop
   vertex -30.614675 -73.910363 -520.000000
   vertex -37.711739 -70.553701 -520.000000
   vertex -30.614675 -73.910363 -100.000000
  endloop
 endfacet
 facet normal 0.514103 0.857729 -0.000000
  outer loop
   vertex -44.445619 -66.517569 -520.000000
   vertex -44.445619 -66.517569 -100.000000
   vertex -37.711739 -70.553701 -100.000000
  endloop
 endfacet
 facet normal 0.514103 0.857729 -0.000000
  outer loop
   vertex -37.711739 -70.553701 -520.000000
   vertex -44.445619 -66.517569 -520.000000
   vertex -37.711739 -70.553701 -100.000000
  endloop
 endfacet
 facet normal 0.595699 0.803208 -0.000000
  outer loop
   vertex -50.751463 -61.840836 -520.000000
   vertex -50.751463 -61.840836 -100.000000
   vertex -44.445619 -66.517569 -100.000000
  endloop
 endfacet
 facet normal 0.595699 0.803208 -0.000000
  outer loop
   vertex -44.445619 -66.517569 -520.000000
   vertex -50.751463 -61.840836 -520.000000
   vertex -44.445619 -66.517569 -100.000000
  endloop
 endfacet
 facet normal 0.671559 0.740951 -0.000000
  outer loop
   vertex -56.568542 -56.568542 -520.000000
   vertex -56.568542 -56.568542 -100.000000
   vertex -50.751463 -61.840836 -100.000000
  endloop
 endfacet
 facet normal 0.671559 0.740951 -0.000000
  outer loop
   vertex -50.751463 -61.840836 -520.000000
   vertex -56.568542 -56.568542 -520.000000
   vertex -50.751463 -61.840836 -100.000000
  endloop
 endfacet
 facet normal 0.740951 0.671559 -0.000000
  outer loop
   vertex -61.840836 -50.751463 -520.000000
   vertex -61.840836 -50.751463 -100.000000
   vertex -56.568542 -56.568542 -100.000000
  endloop
 endfacet
 facet normal 0.740951 0.671559 -0.000000
  outer loop
   vertex -56.568542 -56.568542 -520.000000
   vertex -61.840836 -50.751463 -520.000000
   vertex -56.568542 -56.568542 -100.000000
  endloop
 endfacet
 facet normal 0.803208 0.595699 -0.000000
  outer loop
   vertex -66.517569 -44.445619 -520.000000
   vertex -66.517569 -44.445619 -100.000000
   vertex -61.840836 -50.751463 -100.000000
  endloop
 endfacet
 facet normal 0.803208 0.595699 -0.000000
  outer loop
   vertex -61.840836 -50.751463 -520.000000
   vertex -66.517569 -44.445619 -520.000000
   vertex -61.840836 -50.751463 -100.000000
  endloop
 endfacet
 facet normal 0.857729 0.514103 -0.000000
  outer loop
   vertex -70.553701 -37.711739 -520.000000
   vertex -70.553701 -37.711739 -100.000000
   vertex -66.517569 -44.445619 -100.000000
  endloop
 endfacet
 facet normal 0.857729 0.514103 -0.000000
  outer loop
   vertex -66.517569 -44.445619 -520.000000
   vertex -70.553701 -37.711739 -520.000000
   vertex -66.517569 -44.445619 -100.000000
  endloop
 endfacet
 facet normal 0.903989 0.427555 -0.000000
  outer loop
   vertex -73.910363 -30.614675 -520.000000
   vertex -73.910363 -30.614675 -100.000000
   vertex -70.553701 -37.711739 -100.000000
  endloop
 endfacet
 facet normal 0.903989 0.427555 -0.000000
  outer loop
   vertex -70.553701 -37.711739 -520.000000
   vertex -73.910363 -30.614675 -520.000000
   vertex -70.553701 -37.711739 -100.000000
  endloop
 endfacet
 facet normal 0.941544 0.336890 -0.000000
  outer loop
   vertex -76.555227 -23.222774 -520.000000
   vertex -76.555227 -23.222774 -100.000000
   vertex -73.910363 -30.614675 -100.000000
  endloop
 endfacet
 facet normal 0.941544 0.336890 -0.000000
  outer loop
   vertex -73.910363 -30.614675 -520.000000
   vertex -76.555227 -23.222774 -520.000000
   vertex -73.910363 -30.614675 -100.000000
  endloop
 endfacet
 facet normal 0.970031 0.242980 -0.000000
  outer loop
   vertex -78.462822 -15.607226 -520.000000
   vertex -78.462822 -15.607226 -100.000000
   vertex -76.555227 -23.222774 -100.000000
  endloop
 endfacet
 facet normal 0.970031 0.242980 -0.000000
  outer loop
   vertex -76.555227 -23.222774 -520.000000
   vertex -78.462822 -15.607226 -520.000000
   vertex -76.555227 -23.222774 -100.000000
  endloop
 endfacet
 facet normal 0.989177 0.146730 -0.000000
  outer loop
   vertex -79.614778 -7.841371 -520.000000
   vertex -79.614778 -7.841371 -100.000000
   vertex -78.462822 -15.607226 -100.000000
  endloop
 endfacet
 facet normal 0.989177 0.146730 -0.000000
  outer loop
   vertex -78.462822 -15.607226 -520.000000
   vertex -79.614778 -7.841371 -520.000000
   vertex -78.462822 -15.607226 -100.000000
  endloop
 endfacet
 facet normal 0.998795 0.049068 -0.000000
  outer loop
   vertex -80.000000 -0.000000 -520.000000
   vertex -80.000000 -0.000000 -100.000000
   vertex -79.614778 -7.841371 -100.000000
  endloop
 endfacet
 facet normal 0.998795 0.049068 -0.000000
  outer loop
   vertex -79.614778 -7.841371 -520.000000
   vertex -80.000000 -0.000000 -520.000000
   vertex -79.614778 -7.841371 -100.000000
  endloop
 endfacet
 facet normal 0.998795 -0.049068 0.000000
  outer loop
   vertex -79.614778 7.841371 -520.000000
   vertex -79.614778 7.841371 -100.000000
   vertex -80.000000 -0.000000 -100.000000
  endloop
 endfacet
 facet normal 0.998795 -0.049068 0.000000
  outer loop
   vertex -80.000000 -0.000000 -520.000000
   vertex -79.614778 7.841371 -520.000000
   vertex -80.000000 -0.000000 -100.000000
  endloop
 endfacet
 facet normal 0.989177 -0.146730 0.000000
  outer loop
   vertex -78.462822 15.607226 -520.000000
   vertex -78.462822 15.607226 -100.000000
   vertex -79.614778 7.841371 -100.000000
  endloop
 endfacet
 facet normal 0.989177 -0.146730 0.000000
  outer loop
   vertex -79.614778 7.841371 -520.000000
   vertex -78.462822 15.607226 -520.000000
   vertex -79.614778 7.841371 -100.000000
  endloop
 endfacet
 facet normal 0.970031 -0.242980 0.000000
  outer loop
   vertex -76.555227 23.222774 -520.000000
   vertex -76.555227 23.222774 -100.000000
   vertex -78.462822 15.607226 -100.000000
  endloop
 endfacet
 facet normal 0.970031 -0.242980 0.000000
  outer loop
   vertex -78.462822 15.607226 -520.000000
   vertex -76.555227 23.222774 -520.000000
   vertex -78.462822 15.607226 -100.000000
  endloop
 endfacet
 facet normal 0.941544 -0.336890 0.000000
  outer loop
   vertex -73.910363 30.614675 -520.000000
   vertex -73.910363 30.614675 -100.000000
   vertex -76.555227 23.222774 -100.000000
  endloop
 endfacet
 facet normal 0.941544 -0.336890 0.000000
  outer loop
   vertex -76.555227 23.222774 -520.000000
   vertex -73.910363 30.614675 -520.000000
   vertex -76.555227 23.222774 -100.000000
  endloop
 endfacet
 facet normal 0.903989 -0.427555 0.000000
  outer loop
   vertex -70.553701 37.711739 -520.000000
   vertex -70.553701 37.711739 -100.000000
   vertex -73.910363 30.614675 -100.000000
  endloop
 endfacet
 facet normal 0.903989 -0.427555 0.000000
  outer loop
   vertex -73.910363 30.614675 -520.000000
   vertex -70.553701 37.711739 -520.000000
   vertex -73.910363 30.614675 -100.000000
  endloop
 endfacet
 facet normal 0.857729 -0.514103 0.000000
  outer loop
   vertex -66.517569 44.445619 -520.000000
   vertex -66.517569 44.445619 -100.000000
   vertex -70.553701 37.711739 -100.000000
  endloop
 endfacet
 facet normal 0.857729 -0.514103 0.000000
  outer loop
   vertex -70.553701 37.711739 -520.000000
   vertex -66.517569 44.445619 -520.000000
   vertex -70.553701 37.711739 -100.000000
  endloop
 endfacet
 facet normal 0.803208 -0.595699 0.000000
  outer loop
   vertex -61.840836 50.751463 -520.000000
   vertex -61.840836 50.751463 -100.000000
   vertex -66.517569 44.445619 -100.000000
  endloop
 endfacet
 facet normal 0.803208 -0.595699 0.000000
  outer loop
   vertex -66.517569 44.445619 -520.000000
   vertex -61.840836 50.751463 -520.000000
   vertex -66.517569 44.445619 -100.000000
  endloop
 endfacet
 facet normal 0.740951 -0.671559 0.000000
  outer loop
   vertex -56.568542 56.568542 -520.000000
   vertex -56.568542 56.568542 -100.000000
   vertex -61.840836 50.751463 -100.000000
  endloop
 endfacet
 facet normal 0.740951 -0.671559 0.000000
  outer loop
   vertex -61.840836 50.751463 -520.000000
   vertex -56.568542 56.568542 -520.000000
   vertex -61.840836 50.751463 -100.000000
  endloop
 endfacet
 facet normal 0.671559 -0.740951 0.000000
  outer loop
   vertex -50.751463 61.840836 -520.000000
   vertex -50.751463 61.840836 -100.000000
   vertex -56.568542 56.568542 -100.000000
  endloop
 endfacet
 facet normal 0.671559 -0.740951 0.000000
  outer loop
   vertex -56.568542 56.568542 -520.000000
   vertex -50.751463 61.840836 -520.000000
   vertex -56.568542 56.568542 -100.000000
  endloop
 endfacet
 facet normal 0.595699 -0.803208 0.000000
  outer loop
   vertex -44.445619 66.517569 -520.000000
   vertex -44.445619 66.517569 -100.000000
   vertex -50.751463 61.840836 -100.000000
  endloop
 endfacet
 facet normal 0.595699 -0.803208 0.000000
  outer loop
   vertex -50.751463 61.840836 -520.000000
   vertex -44.445619 66.517569 -520.000000
   vertex -50.751463 61.840836 -100.000000
  endloop
 endfacet
 facet normal 0.514103 -0.857729 0.000000
  outer loop
   vertex -37.711739 70.553701 -520.000000
   vertex -37.711739 70.553701 -100.000000
   vertex -44.445619 66.517569 -100.000000
  endloop
 endfacet
 facet normal 0.514103 -0.857729 0.000000
  outer loop
   vertex -44.445619 66.517569 -520.000000
   vertex -37.711739 70.553701 -520.000000
   vertex -44.445619 66.517569 -100.000000
  endloop
 endfacet
 facet normal 0.427555 -0.903989 0.000000
  outer loop
   vertex -30.614675 73.910363 -520.000000
   vertex -30.614675 73.910363 -100.000000
   vertex -37.711739 70.553701 -100.000000
  endloop
 endfacet
 facet normal 0.427555 -0.903989 0.000000
  outer loop
   vertex -37.711739 70.553701 -520.000000
   vertex -30.614675 73.910363 -520.000000
   vertex -37.711739 70.553701 -100.000000
  endloop
 endfacet
 facet normal 0.336890 -0.941544 0.000000
  outer loop
   vertex -23.222774 76.555227 -520.000000
   vertex -23.222774 76.555227 -100.000000
   vertex -30.614675 73.910363 -100.000000
  endloop
 endfacet
 facet normal 0.336890 -0.941544 0.000000
  outer loop
   vertex -30.614675 73.910363 -520.000000
   vertex -23.222774 76.555227 -520.000000
   vertex -30.614675 73.910363 -100.000000
  endloop
 endfacet
 facet normal 0.242980 -0.970031 0.000000
  outer loop
   vertex -15.607226 78.462822 -520.000000
   vertex -15.607226 78.462822 -100.000000
   vertex -23.222774 76.555227 -100.000000
  endloop
 endfacet
 facet normal 0.242980 -0.970031 0.000000
  outer loop
   vertex -23.222774 76.555227 -520.000000
   vertex -15.607226 78.462822 -520.000000
   vertex -23.222774 76.555227 -100.000000
  endloop
 endfacet
 facet normal 0.146730 -0.989177 0.000000
  outer loop
   vertex -7.841371 79.614778 -520.000000
   vertex -7.841371 79.614778 -100.000000
   vertex -15.607226 78.462822 -100.000000
  endloop
 endfacet
 facet normal 0.146730 -0.989177 0.000000
  outer loop
   vertex -15.607226 78.462822 -520.000000
   vertex -7.841371 79.614778 -520.000000
   vertex -15.607226 78.462822 -100.000000
  endloop
 endfacet
 facet normal 0.049068 -0.998795 0.000000
  outer loop
   vertex 0.000000 80.000000 -520.000000
   vertex 0.000000 80.000000 -100.000000
   vertex -7.841371 79.614778 -100.000000
  endloop
 endfacet
 facet normal 0.049068 -0.998795 0.000000
  outer loop
   vertex -7.841371 79.614778 -520.000000
   vertex 0.000000 80.000000 -520.000000
   vertex -7.841371 79.614778 -100.000000
  endloop
 endfacet
endsolid SII_LOX_feed_2_elbow
