solid SIC_RP1_feed_2_drop
 facet normal 0.065403 0.997859 0.000000
  outer loop
   vertex 0.000000 110.000000 -940.000000
   vertex 14.357881 109.058935 -940.000000
   vertex 14.357881 109.058935 -2750.000000
  endloop
 endfacet
 facet normal 0.065403 0.997859 0.000000
  outer loop
   vertex 0.000000 110.000000 -940.000000
   vertex 14.357881 109.058935 -2750.000000
   vertex 0.000000 110.000000 -2750.000000
  endloop
 endfacet
 facet normal 0.195090 0.980785 0.000000
  outer loop
   vertex 14.357881 109.058935 -940.000000
   vertex 28.470095 106.251841 -940.000000
   vertex 28.470095 106.251841 -2750.000000
  endloop
 endfacet
 facet normal 0.195090 0.980785 0.000000
  outer loop
   vertex 14.357881 109.058935 -940.000000
   vertex 28.470095 106.251841 -2750.000000
   vertex 14.357881 109.058935 -2750.000000
  endloop
 endfacet
 facet normal 0.321439 0.946930 0.000000
  outer loop
   vertex 28.470095 106.251841 -940.000000
   vertex 42.095178 101.626749 -940.000000
   vertex 42.095178 101.626749 -2750.000000
  endloop
 endfacet
 facet normal 0.321439 0.946930 0.000000
  outer loop
   vertex 28.470095 106.251841 -940.000000
   vertex 42.095178 101.626749 -2750.000000
   vertex 28.470095 106.251841 -2750.000000
  endloop
 endfacet
 facet normal 0.442289 0.896873 0.000000
  outer loop
   vertex 42.095178 101.626749 -940.000000
   vertex 55.000000 95.262794 -940.000000
   vertex 55.000000 95.262794 -2750.000000
  endloop
 endfacet
 facet normal 0.442289 0.896873 0.000000
  outer loop
   vertex 42.095178 101.626749 -940.000000
   vertex 55.000000 95.262794 -2750.000000
   vertex 42.095178 101.626749 -2750.000000
  endloop
 endfacet
 facet normal 0.555570 0.831470 0.000000
  outer loop
   vertex 55.000000 95.262794 -940.000000
   vertex 66.963757 87.268867 -940.000000
   vertex 66.963757 87.268867 -2750.000000
  endloop
 endfacet
 facet normal 0.555570 0.831470 0.000000
  outer loop
   vertex 55.000000 95.262794 -940.000000
   vertex 66.963757 87.268867 -2750.000000
   vertex 55.000000 95.262794 -2750.000000
  endloop
 endfacet
 facet normal 0.659346 0.751840 0.000000
  outer loop
   vertex 66.963757 87.268867 -940.000000
   vertex 77.781746 77.781746 -940.000000
   vertex 77.781746 77.781746 -2750.000000
  endloop
 endfacet
 facet normal 0.659346 0.751840 0.000000
  outer loop
   vertex 66.963757 87.268867 -940.000000
   vertex 77.781746 77.781746 -2750.000000
   vertex 66.963757 87.268867 -2750.000000
  endloop
 endfacet
 facet normal 0.751840 0.659346 0.000000
  outer loop
   vertex 77.781746 77.781746 -940.000000
   vertex 87.268867 66.963757 -940.000000
   vertex 87.268867 66.963757 -2750.000000
  endloop
 endfacet
 facet normal 0.751840 0.659346 0.000000
  outer loop
   vertex 77.781746 77.781746 -940.000000
   vertex 87.268867 66.963757 -2750.000000
   vertex 77.781746 77.781746 -2750.000000
  endloop
 endfacet
 facet normal 0.831470 0.555570 0.000000
  outer loop
   vertex 87.268867 66.963757 -940.000000
   vertex 95.262794 55.000000 -940.000000
   vertex 95.262794 55.000000 -2750.000000
  endloop
 endfacet
 facet normal 0.831470 0.555570 0.000000
  outer loop
   vertex 87.268867 66.963757 -940.000000
   vertex 95.262794 55.000000 -2750.000000
   vertex 87.268867 66.963757 -2750.000000
  endloop
 endfacet
 facet normal 0.896873 0.442289 0.000000
  outer loop
   vertex 95.262794 55.000000 -940.000000
   vertex 101.626749 42.095178 -940.000000
   vertex 101.626749 42.095178 -2750.000000
  endloop
 endfacet
 facet normal 0.896873 0.442289 0.000000
  outer loop
   vertex 95.262794 55.000000 -940.000000
   vertex 101.626749 42.095178 -2750.000000
   vertex 95.262794 55.000000 -2750.000000
  endloop
 endfacet
 facet normal 0.946930 0.321439 0.000000
  outer loop
   vertex 101.626749 42.095178 -940.000000
   vertex 106.251841 28.470095 -940.000000
   vertex 106.251841 28.470095 -2750.000000
  endloop
 endfacet
 facet normal 0.946930 0.321439 0.000000
  outer loop
   vertex 101.626749 42.095178 -940.000000
   vertex 106.251841 28.470095 -2750.000000
   vertex 101.626749 42.095178 -2750.000000
  endloop
 endfacet
 facet normal 0.980785 0.195090 0.000000
  outer loop
   vertex 106.251841 28.470095 -940.000000
   vertex 109.058935 14.357881 -940.000000
   vertex 109.058935 14.357881 -2750.000000
  endloop
 endfacet
 facet normal 0.980785 0.195090 0.000000
  outer loop
   vertex 106.251841 28.470095 -940.000000
   vertex 109.058935 14.357881 -2750.000000
   vertex 106.251841 28.470095 -2750.000000
  endloop
 endfacet
 facet normal 0.997859 0.065403 0.000000
  outer loop
   vertex 109.058935 14.357881 -940.000000
   vertex 110.000000 0.000000 -940.000000
   vertex 110.000000 0.000000 -2750.000000
  endloop
 endfacet
 facet normal 0.997859 0.065403 0.000000
  outer loop
   vertex 109.058935 14.357881 -940.000000
   vertex 110.000000 0.000000 -2750.000000
   vertex 109.058935 14.357881 -2750.000000
  endloop
 endfacet
 facet normal 0.997859 -0.065403 0.000000
  outer loop
   vertex 110.000000 0.000000 -940.000000
   vertex 109.058935 -14.357881 -940.000000
   vertex 109.058935 -14.357881 -2750.000000
  endloop
 endfacet
 facet normal 0.997859 -0.065403 0.000000
  outer loop
   vertex 110.000000 0.000000 -940.000000
   vertex 109.058935 -14.357881 -2750.000000
   vertex 110.000000 0.000000 -2750.000000
  endloop
 endfacet
 facet normal 0.980785 -0.195090 0.000000
  outer loop
   vertex 109.058935 -14.357881 -940.000000
   vertex 106.251841 -28.470095 -940.000000
   vertex 106.251841 -28.470095 -2750.000000
  endloop
 endfacet
 facet normal 0.980785 -0.195090 0.000000
  outer loop
   vertex 109.058935 -14.357881 -940.000000
   vertex 106.251841 -28.470095 -2750.000000
   vertex 109.058935 -14.357881 -2750.000000
  endloop
 endfacet
 facet normal 0.946930 -0.321439 0.000000
  outer loop
   vertex 106.251841 -28.470095 -940.000000
   vertex 101.626749 -42.095178 -940.000000
   vertex 101.626749 -42.095178 -2750.000000
  endloop
 endfacet
 facet normal 0.946930 -0.321439 0.000000
  outer loop
   vertex 106.251841 -28.470095 -940.000000
   vertex 101.626749 -42.095178 -2750.000000
   vertex 106.251841 -28.470095 -2750.000000
  endloop
 endfacet
 facet normal 0.896873 -0.442289 0.000000
  outer loop
   vertex 101.626749 -42.095178 -940.000000
   vertex 95.262794 -55.000000 -940.000000
   vertex 95.262794 -55.000000 -2750.000000
  endloop
 endfacet
 facet normal 0.896873 -0.442289 0.000000
  outer loop
   vertex 101.626749 -42.095178 -940.000000
   vertex 95.262794 -55.000000 -2750.000000
   vertex 101.626749 -42.095178 -2750.000000
  endloop
 endfacet
 facet normal 0.831470 -0.555570 0.000000
  outer loop
   vertex 95.262794 -55.000000 -940.000000
   vertex 87.268867 -66.963757 -940.000000
   vertex 87.268867 -66.963757 -2750.000000
  endloop
 endfacet
 facet normal 0.831470 -0.555570 0.000000
  outer loop
   vertex 95.262794 -55.000000 -940.000000
   vertex 87.268867 -66.963757 -2750.000000
   vertex 95.262794 -55.000000 -2750.000000
  endloop
 endfacet
 facet normal 0.751840 -0.659346 0.000000
  outer loop
   vertex 87.268867 -66.963757 -940.000000
   vertex 77.781746 -77.781746 -940.000000
   vertex 77.781746 -77.781746 -2750.000000
  endloop
 endfacet
 facet normal 0.751840 -0.659346 0.000000
  outer loop
   vertex 87.268867 -66.963757 -940.000000
   vertex 77.781746 -77.781746 -2750.000000
   vertex 87.268867 -66.963757 -2750.000000
  endloop
 endfacet
 facet normal 0.659346 -0.751840 0.000000
  outer loop
   vertex 77.781746 -77.781746 -940.000000
   vertex 66.963757 -87.268867 -940.000000
   vertex 66.963757 -87.268867 -2750.000000
  endloop
 endfacet
 facet normal 0.659346 -0.751840 0.000000
  outer loop
   vertex 77.781746 -77.781746 -940.000000
   vertex 66.963757 -87.268867 -2750.000000
   vertex 77.781746 -77.781746 -2750.000000
  endloop
 endfacet
 facet normal 0.555570 -0.831470 0.000000
  outer loop
   vertex 66.963757 -87.268867 -940.000000
   vertex 55.000000 -95.262794 -940.000000
   vertex 55.000000 -95.262794 -2750.000000
  endloop
 endfacet
 facet normal 0.555570 -0.831470 0.000000
  outer loop
   vertex 66.963757 -87.268867 -940.000000
   vertex 55.000000 -95.262794 -2750.000000
   vertex 66.963757 -87.268867 -2750.000000
  endloop
 endfacet
 facet normal 0.442289 -0.896873 0.000000
  outer loop
   vertex 55.000000 -95.262794 -940.000000
   vertex 42.095178 -101.626749 -940.000000
   vertex 42.095178 -101.626749 -2750.000000
  endloop
 endfacet
 facet normal 0.442289 -0.896873 0.000000
  outer loop
   vertex 55.000000 -95.262794 -940.000000
   vertex 42.095178 -101.626749 -2750.000000
   vertex 55.000000 -95.262794 -2750.000000
  endloop
 endfacet
 facet normal 0.321439 -0.946930 0.000000
  outer loop
   vertex 42.095178 -101.626749 -940.000000
   vertex 28.470095 -106.251841 -940.000000
   vertex 28.470095 -106.251841 -2750.000000
  endloop
 endfacet
 facet normal 0.321439 -0.946930 0.000000
  outer loop
   vertex 42.095178 -101.626749 -940.000000
   vertex 28.470095 -106.251841 -2750.000000
   vertex 42.095178 -101.626749 -2750.000000
  endloop
 endfacet
 facet normal 0.195090 -0.980785 0.000000
  outer loop
   vertex 28.470095 -106.251841 -940.000000
   vertex 14.357881 -109.058935 -940.000000
   vertex 14.357881 -109.058935 -2750.000000
  endloop
 endfacet
 facet normal 0.195090 -0.980785 0.000000
  outer loop
   vertex 28.470095 -106.251841 -940.000000
   vertex 14.357881 -109.058935 -2750.000000
   vertex 28.470095 -106.251841 -2750.000000
  endloop
 endfacet
 facet normal 0.065403 -0.997859 0.000000
  outer loop
   vertex 14.357881 -109.058935 -940.000000
   vertex 0.000000 -110.000000 -940.000000
   vertex 0.000000 -110.000000 -2750.000000
  endloop
 endfacet
 facet normal 0.065403 -0.997859 0.000000
  outer loop
   vertex 14.357881 -109.058935 -940.000000
   vertex 0.000000 -110.000000 -2750.000000
   vertex 14.357881 -109.058935 -2750.000000
  endloop
 endfacet
 facet normal -0.065403 -0.997859 0.000000
  outer loop
   vertex 0.000000 -110.000000 -940.000000
   vertex -14.357881 -109.058935 -940.000000
   vertex -14.357881 -109.058935 -2750.000000
  endloop
 endfacet
 facet normal -0.065403 -0.997859 -0.000000
  outer loop
   vertex 0.000000 -110.000000 -940.000000
   vertex -14.357881 -109.058935 -2750.000000
   vertex 0.000000 -110.000000 -2750.000000
  endloop
 endfacet
 facet normal -0.195090 -0.980785 0.000000
  outer loop
   vertex -14.357881 -109.058935 -940.000000
   vertex -28.470095 -106.251841 -940.000000
   vertex -28.470095 -106.251841 -2750.000000
  endloop
 endfacet
 facet normal -0.195090 -0.980785 -0.000000
  outer loop
   vertex -14.357881 -109.058935 -940.000000
   vertex -28.470095 -106.251841 -2750.000000
   vertex -14.357881 -109.058935 -2750.000000
  endloop
 endfacet
 facet normal -0.321439 -0.946930 0.000000
  outer loop
   vertex -28.470095 -106.251841 -940.000000
   vertex -42.095178 -101.626749 -940.000000
   vertex -42.095178 -101.626749 -2750.000000
  endloop
 endfacet
 facet normal -0.321439 -0.946930 -0.000000
  outer loop
   vertex -28.470095 -106.251841 -940.000000
   vertex -42.095178 -101.626749 -2750.000000
   vertex -28.470095 -106.251841 -2750.000000
  endloop
 endfacet
 facet normal -0.442289 -0.896873 0.000000
  outer loop
   vertex -42.095178 -101.626749 -940.000000
   vertex -55.000000 -95.262794 -940.000000
   vertex -55.000000 -95.262794 -2750.000000
  endloop
 endfacet
 facet normal -0.442289 -0.896873 -0.000000
  outer loop
   vertex -42.095178 -101.626749 -940.000000
   vertex -55.000000 -95.262794 -2750.000000
   vertex -42.095178 -101.626749 -2750.000000
  endloop
 endfacet
 facet normal -0.555570 -0.831470 0.000000
  outer loop
   vertex -55.000000 -95.262794 -940.000000
   vertex -66.963757 -87.268867 -940.000000
   vertex -66.963757 -87.268867 -2750.000000
  endloop
 endfacet
 facet normal -0.555570 -0.831470 -0.000000
  outer loop
   vertex -55.000000 -95.262794 -940.000000
   vertex -66.963757 -87.268867 -2750.000000
   vertex -55.000000 -95.262794 -2750.000000
  endloop
 endfacet
 facet normal -0.659346 -0.751840 0.000000
  outer loop
   vertex -66.963757 -87.268867 -940.000000
   vertex -77.781746 -77.781746 -940.000000
   vertex -77.781746 -77.781746 -2750.000000
  endloop
 endfacet
 facet normal -0.659346 -0.751840 -0.000000
  outer loop
   vertex -66.963757 -87.268867 -940.000000
   vertex -77.781746 -77.781746 -2750.000000
   vertex -66.963757 -87.268867 -2750.000000
  endloop
 endfacet
 facet normal -0.751840 -0.659346 0.000000
  outer loop
   vertex -77.781746 -77.781746 -940.000000
   vertex -87.268867 -66.963757 -940.000000
   vertex -87.268867 -66.963757 -2750.000000
  endloop
 endfacet
 facet normal -0.751840 -0.659346 -0.000000
  outer loop
   vertex -77.781746 -77.781746 -940.000000
   vertex -87.268867 -66.963757 -2750.000000
   vertex -77.781746 -77.781746 -2750.000000
  endloop
 endfacet
 facet normal -0.831470 -0.555570 0.000000
  outer loop
   vertex -87.268867 -66.963757 -940.000000
   vertex -95.262794 -55.000000 -940.000000
   vertex -95.262794 -55.000000 -2750.000000
  endloop
 endfacet
 facet normal -0.831470 -0.555570 -0.000000
  outer loop
   vertex -87.268867 -66.963757 -940.000000
   vertex -95.262794 -55.000000 -2750.000000
   vertex -87.268867 -66.963757 -2750.000000
  endloop
 endfacet
 facet normal -0.896873 -0.442289 0.000000
  outer loop
   vertex -95.262794 -55.000000 -940.000000
   vertex -101.626749 -42.095178 -940.000000
   vertex -101.626749 -42.095178 -2750.000000
  endloop
 endfacet
 facet normal -0.896873 -0.442289 -0.000000
  outer loop
   vertex -95.262794 -55.000000 -940.000000
   vertex -101.626749 -42.095178 -2750.000000
   vertex -95.262794 -55.000000 -2750.000000
  endloop
 endfacet
 facet normal -0.946930 -0.321439 0.000000
  outer loop
   vertex -101.626749 -42.095178 -940.000000
   vertex -106.251841 -28.470095 -940.000000
   vertex -106.251841 -28.470095 -2750.000000
  endloop
 endfacet
 facet normal -0.946930 -0.321439 -0.000000
  outer loop
   vertex -101.626749 -42.095178 -940.000000
   vertex -106.251841 -28.470095 -2750.000000
   vertex -101.626749 -42.095178 -2750.000000
  endloop
 endfacet
 facet normal -0.980785 -0.195090 0.000000
  outer loop
   vertex -106.251841 -28.470095 -940.000000
   vertex -109.058935 -14.357881 -940.000000
   vertex -109.058935 -14.357881 -2750.000000
  endloop
 endfacet
 facet normal -0.980785 -0.195090 -0.000000
  outer loop
   vertex -106.251841 -28.470095 -940.000000
   vertex -109.058935 -14.357881 -2750.000000
   vertex -106.251841 -28.470095 -2750.000000
  endloop
 endfacet
 facet normal -0.997859 -0.065403 0.000000
  outer loop
   vertex -109.058935 -14.357881 -940.000000
   vertex -110.000000 -0.000000 -940.000000
   vertex -110.000000 -0.000000 -2750.000000
  endloop
 endfacet
 facet normal -0.997859 -0.065403 -0.000000
  outer loop
   vertex -109.058935 -14.357881 -940.000000
   vertex -110.000000 -0.000000 -2750.000000
   vertex -109.058935 -14.357881 -2750.000000
  endloop
 endfacet
 facet normal -0.997859 0.065403 0.000000
  outer loop
   vertex -110.000000 -0.000000 -940.000000
   vertex -109.058935 14.357881 -940.000000
   vertex -109.058935 14.357881 -2750.000000
  endloop
 endfacet
 facet normal -0.997859 0.065403 0.000000
  outer loop
   vertex -110.000000 -0.000000 -940.000000
   vertex -109.058935 14.357881 -2750.000000
   vertex -110.000000 -0.000000 -2750.000000
  endloop
 endfacet
 facet normal -0.980785 0.195090 0.000000
  outer loop
   vertex -109.058935 14.357881 -940.000000
   vertex -106.251841 28.470095 -940.000000
   vertex -106.251841 28.470095 -2750.000000
  endloop
 endfacet
 facet normal -0.980785 0.195090 0.000000
  outer loop
   vertex -109.058935 14.357881 -940.000000
   vertex -106.251841 28.470095 -2750.000000
   vertex -109.058935 14.357881 -2750.000000
  endloop
 endfacet
 facet normal -0.946930 0.321439 0.000000
  outer loop
   vertex -106.251841 28.470095 -940.000000
   vertex -101.626749 42.095178 -940.000000
   vertex -101.626749 42.095178 -2750.000000
  endloop
 endfacet
 facet normal -0.946930 0.321439 0.000000
  outer loop
   vertex -106.251841 28.470095 -940.000000
   vertex -101.626749 42.095178 -2750.000000
   vertex -106.251841 28.470095 -2750.000000
  endloop
 endfacet
 facet normal -0.896873 0.442289 0.000000
  outer loop
   vertex -101.626749 42.095178 -940.000000
   vertex -95.262794 55.000000 -940.000000
   vertex -95.262794 55.000000 -2750.000000
  endloop
 endfacet
 facet normal -0.896873 0.442289 0.000000
  outer loop
   vertex -101.626749 42.095178 -940.000000
   vertex -95.262794 55.000000 -2750.000000
   vertex -101.626749 42.095178 -2750.000000
  endloop
 endfacet
 facet normal -0.831470 0.555570 0.000000
  outer loop
   vertex -95.262794 55.000000 -940.000000
   vertex -87.268867 66.963757 -940.000000
   vertex -87.268867 66.963757 -2750.000000
  endloop
 endfacet
 facet normal -0.831470 0.555570 0.000000
  outer loop
   vertex -95.262794 55.000000 -940.000000
   vertex -87.268867 66.963757 -2750.000000
   vertex -95.262794 55.000000 -2750.000000
  endloop
 endfacet
 facet normal -0.751840 0.659346 0.000000
  outer loop
   vertex -87.268867 66.963757 -940.000000
   vertex -77.781746 77.781746 -940.000000
   vertex -77.781746 77.781746 -2750.000000
  endloop
 endfacet
 facet normal -0.751840 0.659346 0.000000
  outer loop
   vertex -87.268867 66.963757 -940.000000
   vertex -77.781746 77.781746 -2750.000000
   vertex -87.268867 66.963757 -2750.000000
  endloop
 endfacet
 facet normal -0.659346 0.751840 0.000000
  outer loop
   vertex -77.781746 77.781746 -940.000000
   vertex -66.963757 87.268867 -940.000000
   vertex -66.963757 87.268867 -2750.000000
  endloop
 endfacet
 facet normal -0.659346 0.751840 0.000000
  outer loop
   vertex -77.781746 77.781746 -940.000000
   vertex -66.963757 87.268867 -2750.000000
   vertex -77.781746 77.781746 -2750.000000
  endloop
 endfacet
 facet normal -0.555570 0.831470 0.000000
  outer loop
   vertex -66.963757 87.268867 -940.000000
   vertex -55.000000 95.262794 -940.000000
   vertex -55.000000 95.262794 -2750.000000
  endloop
 endfacet
 facet normal -0.555570 0.831470 0.000000
  outer loop
   vertex -66.963757 87.268867 -940.000000
   vertex -55.000000 95.262794 -2750.000000
   vertex -66.963757 87.268867 -2750.000000
  endloop
 endfacet
 facet normal -0.442289 0.896873 0.000000
  outer loop
   vertex -55.000000 95.262794 -940.000000
   vertex -42.095178 101.626749 -940.000000
   vertex -42.095178 101.626749 -2750.000000
  endloop
 endfacet
 facet normal -0.442289 0.896873 0.000000
  outer loop
   vertex -55.000000 95.262794 -940.000000
   vertex -42.095178 101.626749 -2750.000000
   vertex -55.000000 95.262794 -2750.000000
  endloop
 endfacet
 facet normal -0.321439 0.946930 0.000000
  outer loop
   vertex -42.095178 101.626749 -940.000000
   vertex -28.470095 106.251841 -940.000000
   vertex -28.470095 106.251841 -2750.000000
  endloop
 endfacet
 facet normal -0.321439 0.946930 0.000000
  outer loop
   vertex -42.095178 101.626749 -940.000000
   vertex -28.470095 106.251841 -2750.000000
   vertex -42.095178 101.626749 -2750.000000
  endloop
 endfacet
 facet normal -0.195090 0.980785 0.000000
  outer loop
   vertex -28.470095 106.251841 -940.000000
   vertex -14.357881 109.058935 -940.000000
   vertex -14.357881 109.058935 -2750.000000
  endloop
 endfacet
 facet normal -0.195090 0.980785 0.000000
  outer loop
   vertex -28.470095 106.251841 -940.000000
   vertex -14.357881 109.058935 -2750.000000
   vertex -28.470095 106.251841 -2750.000000
  endloop
 endfacet
 facet normal -0.065403 0.997859 0.000000
  outer loop
   vertex -14.357881 109.058935 -940.000000
   vertex 0.000000 110.000000 -940.000000
   vertex 0.000000 110.000000 -2750.000000
  endloop
 endfacet
 facet normal -0.065403 0.997859 0.000000
  outer loop
   vertex -14.357881 109.058935 -940.000000
   vertex 0.000000 110.000000 -2750.000000
   vertex -14.357881 109.058935 -2750.000000
  endloop
 endfacet
 facet normal -0.065403 -0.997859 0.000000
  outer loop
   vertex 12.530514 95.178707 -2750.000000
   vertex 12.530514 95.178707 -940.000000
   vertex 0.000000 96.000000 -940.000000
  endloop
 endfacet
 facet normal -0.065403 -0.997859 0.000000
  outer loop
   vertex 0.000000 96.000000 -2750.000000
   vertex 12.530514 95.178707 -2750.000000
   vertex 0.000000 96.000000 -940.000000
  endloop
 endfacet
 facet normal -0.195090 -0.980785 0.000000
  outer loop
   vertex 24.846628 92.728879 -2750.000000
   vertex 24.846628 92.728879 -940.000000
   vertex 12.530514 95.178707 -940.000000
  endloop
 endfacet
 facet normal -0.195090 -0.980785 0.000000
  outer loop
   vertex 12.530514 95.178707 -2750.000000
   vertex 24.846628 92.728879 -2750.000000
   vertex 12.530514 95.178707 -940.000000
  endloop
 endfacet
 facet normal -0.321439 -0.946930 0.000000
  outer loop
   vertex 36.737610 88.692435 -2750.000000
   vertex 36.737610 88.692435 -940.000000
   vertex 24.846628 92.728879 -940.000000
  endloop
 endfacet
 facet normal -0.321439 -0.946930 0.000000
  outer loop
   vertex 24.846628 92.728879 -2750.000000
   vertex 36.737610 88.692435 -2750.000000
   vertex 24.846628 92.728879 -940.000000
  endloop
 endfacet
 facet normal -0.442289 -0.896873 0.000000
  outer loop
   vertex 48.000000 83.138439 -2750.000000
   vertex 48.000000 83.138439 -940.000000
   vertex 36.737610 88.692435 -940.000000
  endloop
 endfacet
 facet normal -0.442289 -0.896873 0.000000
  outer loop
   vertex 36.737610 88.692435 -2750.000000
   vertex 48.000000 83.138439 -2750.000000
   vertex 36.737610 88.692435 -940.000000
  endloop
 endfacet
 facet normal -0.555570 -0.831470 0.000000
  outer loop
   vertex 58.441097 76.161921 -2750.000000
   vertex 58.441097 76.161921 -940.000000
   vertex 48.000000 83.138439 -940.000000
  endloop
 endfacet
 facet normal -0.555570 -0.831470 0.000000
  outer loop
   vertex 48.000000 83.138439 -2750.000000
   vertex 58.441097 76.161921 -2750.000000
   vertex 48.000000 83.138439 -940.000000
  endloop
 endfacet
 facet normal -0.659346 -0.751840 0.000000
  outer loop
   vertex 67.882251 67.882251 -2750.000000
   vertex 67.882251 67.882251 -940.000000
   vertex 58.441097 76.161921 -940.000000
  endloop
 endfacet
 facet normal -0.659346 -0.751840 0.000000
  outer loop
   vertex 58.441097 76.161921 -2750.000000
   vertex 67.882251 67.882251 -2750.000000
   vertex 58.441097 76.161921 -940.000000
  endloop
 endfacet
 facet normal -0.751840 -0.659346 0.000000
  outer loop
   vertex 76.161921 58.441097 -2750.000000
   vertex 76.161921 58.441097 -940.000000
   vertex 67.882251 67.882251 -940.000000
  endloop
 endfacet
 facet normal -0.751840 -0.659346 0.000000
  outer loop
   vertex 67.882251 67.882251 -2750.000000
   vertex 76.161921 58.441097 -2750.000000
   vertex 67.882251 67.882251 -940.000000
  endloop
 endfacet
 facet normal -0.831470 -0.555570 0.000000
  outer loop
   vertex 83.138439 48.000000 -2750.000000
   vertex 83.138439 48.000000 -940.000000
   vertex 76.161921 58.441097 -940.000000
  endloop
 endfacet
 facet normal -0.831470 -0.555570 0.000000
  outer loop
   vertex 76.161921 58.441097 -2750.000000
   vertex 83.138439 48.000000 -2750.000000
   vertex 76.161921 58.441097 -940.000000
  endloop
 endfacet
 facet normal -0.896873 -0.442289 0.000000
  outer loop
   vertex 88.692435 36.737610 -2750.000000
   vertex 88.692435 36.737610 -940.000000
   vertex 83.138439 48.000000 -940.000000
  endloop
 endfacet
 facet normal -0.896873 -0.442289 0.000000
  outer loop
   vertex 83.138439 48.000000 -2750.000000
   vertex 88.692435 36.737610 -2750.000000
   vertex 83.138439 48.000000 -940.000000
  endloop
 endfacet
 facet normal -0.946930 -0.321439 0.000000
  outer loop
   vertex 92.728879 24.846628 -2750.000000
   vertex 92.728879 24.846628 -940.000000
   vertex 88.692435 36.737610 -940.000000
  endloop
 endfacet
 facet normal -0.946930 -0.321439 0.000000
  outer loop
   vertex 88.692435 36.737610 -2750.000000
   vertex 92.728879 24.846628 -2750.000000
   vertex 88.692435 36.737610 -940.000000
  endloop
 endfacet
 facet normal -0.980785 -0.195090 0.000000
  outer loop
   vertex 95.178707 12.530514 -2750.000000
   vertex 95.178707 12.530514 -940.000000
   vertex 92.728879 24.846628 -940.000000
  endloop
 endfacet
 facet normal -0.980785 -0.195090 0.000000
  outer loop
   vertex 92.728879 24.846628 -2750.000000
   vertex 95.178707 12.530514 -2750.000000
   vertex 92.728879 24.846628 -940.000000
  endloop
 endfacet
 facet normal -0.997859 -0.065403 0.000000
  outer loop
   vertex 96.000000 0.000000 -2750.000000
   vertex 96.000000 0.000000 -940.000000
   vertex 95.178707 12.530514 -940.000000
  endloop
 endfacet
 facet normal -0.997859 -0.065403 0.000000
  outer loop
   vertex 95.178707 12.530514 -2750.000000
   vertex 96.000000 0.000000 -2750.000000
   vertex 95.178707 12.530514 -940.000000
  endloop
 endfacet
 facet normal -0.997859 0.065403 0.000000
  outer loop
   vertex 95.178707 -12.530514 -2750.000000
   vertex 95.178707 -12.530514 -940.000000
   vertex 96.000000 0.000000 -940.000000
  endloop
 endfacet
 facet normal -0.997859 0.065403 0.000000
  outer loop
   vertex 96.000000 0.000000 -2750.000000
   vertex 95.178707 -12.530514 -2750.000000
   vertex 96.000000 0.000000 -940.000000
  endloop
 endfacet
 facet normal -0.980785 0.195090 0.000000
  outer loop
   vertex 92.728879 -24.846628 -2750.000000
   vertex 92.728879 -24.846628 -940.000000
   vertex 95.178707 -12.530514 -940.000000
  endloop
 endfacet
 facet normal -0.980785 0.195090 0.000000
  outer loop
   vertex 95.178707 -12.530514 -2750.000000
   vertex 92.728879 -24.846628 -2750.000000
   vertex 95.178707 -12.530514 -940.000000
  endloop
 endfacet
 facet normal -0.946930 0.321439 0.000000
  outer loop
   vertex 88.692435 -36.737610 -2750.000000
   vertex 88.692435 -36.737610 -940.000000
   vertex 92.728879 -24.846628 -940.000000
  endloop
 endfacet
 facet normal -0.946930 0.321439 0.000000
  outer loop
   vertex 92.728879 -24.846628 -2750.000000
   vertex 88.692435 -36.737610 -2750.000000
   vertex 92.728879 -24.846628 -940.000000
  endloop
 endfacet
 facet normal -0.896873 0.442289 0.000000
  outer loop
   vertex 83.138439 -48.000000 -2750.000000
   vertex 83.138439 -48.000000 -940.000000
   vertex 88.692435 -36.737610 -940.000000
  endloop
 endfacet
 facet normal -0.896873 0.442289 0.000000
  outer loop
   vertex 88.692435 -36.737610 -2750.000000
   vertex 83.138439 -48.000000 -2750.000000
   vertex 88.692435 -36.737610 -940.000000
  endloop
 endfacet
 facet normal -0.831470 0.555570 0.000000
  outer loop
   vertex 76.161921 -58.441097 -2750.000000
   vertex 76.161921 -58.441097 -940.000000
   vertex 83.138439 -48.000000 -940.000000
  endloop
 endfacet
 facet normal -0.831470 0.555570 0.000000
  outer loop
   vertex 83.138439 -48.000000 -2750.000000
   vertex 76.161921 -58.441097 -2750.000000
   vertex 83.138439 -48.000000 -940.000000
  endloop
 endfacet
 facet normal -0.751840 0.659346 0.000000
  outer loop
   vertex 67.882251 -67.882251 -2750.000000
   vertex 67.882251 -67.882251 -940.000000
   vertex 76.161921 -58.441097 -940.000000
  endloop
 endfacet
 facet normal -0.751840 0.659346 0.000000
  outer loop
   vertex 76.161921 -58.441097 -2750.000000
   vertex 67.882251 -67.882251 -2750.000000
   vertex 76.161921 -58.441097 -940.000000
  endloop
 endfacet
 facet normal -0.659346 0.751840 0.000000
  outer loop
   vertex 58.441097 -76.161921 -2750.000000
   vertex 58.441097 -76.161921 -940.000000
   vertex 67.882251 -67.882251 -940.000000
  endloop
 endfacet
 facet normal -0.659346 0.751840 0.000000
  outer loop
   vertex 67.882251 -67.882251 -2750.000000
   vertex 58.441097 -76.161921 -2750.000000
   vertex 67.882251 -67.882251 -940.000000
  endloop
 endfacet
 facet normal -0.555570 0.831470 0.000000
  outer loop
   vertex 48.000000 -83.138439 -2750.000000
   vertex 48.000000 -83.138439 -940.000000
   vertex 58.441097 -76.161921 -940.000000
  endloop
 endfacet
 facet normal -0.555570 0.831470 0.000000
  outer loop
   vertex 58.441097 -76.161921 -2750.000000
   vertex 48.000000 -83.138439 -2750.000000
   vertex 58.441097 -76.161921 -940.000000
  endloop
 endfacet
 facet normal -0.442289 0.896873 0.000000
  outer loop
   vertex 36.737610 -88.692435 -2750.000000
   vertex 36.737610 -88.692435 -940.000000
   vertex 48.000000 -83.138439 -940.000000
  endloop
 endfacet
 facet normal -0.442289 0.896873 0.000000
  outer loop
   vertex 48.000000 -83.138439 -2750.000000
   vertex 36.737610 -88.692435 -2750.000000
   vertex 48.000000 -83.138439 -940.000000
  endloop
 endfacet
 facet normal -0.321439 0.946930 0.000000
  outer loop
   vertex 24.846628 -92.728879 -2750.000000
   vertex 24.846628 -92.728879 -940.000000
   vertex 36.737610 -88.692435 -940.000000
  endloop
 endfacet
 facet normal -0.321439 0.946930 0.000000
  outer loop
   vertex 36.737610 -88.692435 -2750.000000
   vertex 24.846628 -92.728879 -2750.000000
   vertex 36.737610 -88.692435 -940.000000
  endloop
 endfacet
 facet normal -0.195090 0.980785 0.000000
  outer loop
   vertex 12.530514 -95.178707 -2750.000000
   vertex 12.530514 -95.178707 -940.000000
   vertex 24.846628 -92.728879 -940.000000
  endloop
 endfacet
 facet normal -0.195090 0.980785 0.000000
  outer loop
   vertex 24.846628 -92.728879 -2750.000000
   vertex 12.530514 -95.178707 -2750.000000
   vertex 24.846628 -92.728879 -940.000000
  endloop
 endfacet
 facet normal -0.065403 0.997859 0.000000
  outer loop
   vertex 0.000000 -96.000000 -2750.000000
   vertex 0.000000 -96.000000 -940.000000
   vertex 12.530514 -95.178707 -940.000000
  endloop
 endfacet
 facet normal -0.065403 0.997859 0.000000
  outer loop
   vertex 12.530514 -95.178707 -2750.000000
   vertex 0.000000 -96.000000 -2750.000000
   vertex 12.530514 -95.178707 -940.000000
  endloop
 endfacet
 facet normal 0.065403 0.997859 -0.000000
  outer loop
   vertex -12.530514 -95.178707 -2750.000000
   vertex -12.530514 -95.178707 -940.000000
   vertex 0.000000 -96.000000 -940.000000
  endloop
 endfacet
 facet normal 0.065403 0.997859 -0.000000
  outer loop
   vertex 0.000000 -96.000000 -2750.000000
   vertex -12.530514 -95.178707 -2750.000000
   vertex 0.000000 -96.000000 -940.000000
  endloop
 endfacet
 facet normal 0.195090 0.980785 -0.000000
  outer loop
   vertex -24.846628 -92.728879 -2750.000000
   vertex -24.846628 -92.728879 -940.000000
   vertex -12.530514 -95.178707 -940.000000
  endloop
 endfacet
 facet normal 0.195090 0.980785 -0.000000
  outer loop
   vertex -12.530514 -95.178707 -2750.000000
   vertex -24.846628 -92.728879 -2750.000000
   vertex -12.530514 -95.178707 -940.000000
  endloop
 endfacet
 facet normal 0.321439 0.946930 -0.000000
  outer loop
   vertex -36.737610 -88.692435 -2750.000000
   vertex -36.737610 -88.692435 -940.000000
   vertex -24.846628 -92.728879 -940.000000
  endloop
 endfacet
 facet normal 0.321439 0.946930 -0.000000
  outer loop
   vertex -24.846628 -92.728879 -2750.000000
   vertex -36.737610 -88.692435 -2750.000000
   vertex -24.846628 -92.728879 -940.000000
  endloop
 endfacet
 facet normal 0.442289 0.896873 -0.000000
  outer loop
   vertex -48.000000 -83.138439 -2750.000000
   vertex -48.000000 -83.138439 -940.000000
   vertex -36.737610 -88.692435 -940.000000
  endloop
 endfacet
 facet normal 0.442289 0.896873 -0.000000
  outer loop
   vertex -36.737610 -88.692435 -2750.000000
   vertex -48.000000 -83.138439 -2750.000000
   vertex -36.737610 -88.692435 -940.000000
  endloop
 endfacet
 facet normal 0.555570 0.831470 -0.000000
  outer loop
   vertex -58.441097 -76.161921 -2750.000000
   vertex -58.441097 -76.161921 -940.000000
   vertex -48.000000 -83.138439 -940.000000
  endloop
 endfacet
 facet normal 0.555570 0.831470 -0.000000
  outer loop
   vertex -48.000000 -83.138439 -2750.000000
   vertex -58.441097 -76.161921 -2750.000000
   vertex -48.000000 -83.138439 -940.000000
  endloop
 endfacet
 facet normal 0.659346 0.751840 -0.000000
  outer loop
   vertex -67.882251 -67.882251 -2750.000000
   vertex -67.882251 -67.882251 -940.000000
   vertex -58.441097 -76.161921 -940.000000
  endloop
 endfacet
 facet normal 0.659346 0.751840 -0.000000
  outer loop
   vertex -58.441097 -76.161921 -2750.000000
   vertex -67.882251 -67.882251 -2750.000000
   vertex -58.441097 -76.161921 -940.000000
  endloop
 endfacet
 facet normal 0.751840 0.659346 -0.000000
  outer loop
   vertex -76.161921 -58.441097 -2750.000000
   vertex -76.161921 -58.441097 -940.000000
   vertex -67.882251 -67.882251 -940.000000
  endloop
 endfacet
 facet normal 0.751840 0.659346 -0.000000
  outer loop
   vertex -67.882251 -67.882251 -2750.000000
   vertex -76.161921 -58.441097 -2750.000000
   vertex -67.882251 -67.882251 -940.000000
  endloop
 endfacet
 facet normal 0.831470 0.555570 -0.000000
  outer loop
   vertex -83.138439 -48.000000 -2750.000000
   vertex -83.138439 -48.000000 -940.000000
   vertex -76.161921 -58.441097 -940.000000
  endloop
 endfacet
 facet normal 0.831470 0.555570 -0.000000
  outer loop
   vertex -76.161921 -58.441097 -2750.000000
   vertex -83.138439 -48.000000 -2750.000000
   vertex -76.161921 -58.441097 -940.000000
  endloop
 endfacet
 facet normal 0.896873 0.442289 -0.000000
  outer loop
   vertex -88.692435 -36.737610 -2750.000000
   vertex -88.692435 -36.737610 -940.000000
   vertex -83.138439 -48.000000 -940.000000
  endloop
 endfacet
 facet normal 0.896873 0.442289 -0.000000
  outer loop
   vertex -83.138439 -48.000000 -2750.000000
   vertex -88.692435 -36.737610 -2750.000000
   vertex -83.138439 -48.000000 -940.000000
  endloop
 endfacet
 facet normal 0.946930 0.321439 -0.000000
  outer loop
   vertex -92.728879 -24.846628 -2750.000000
   vertex -92.728879 -24.846628 -940.000000
   vertex -88.692435 -36.737610 -940.000000
  endloop
 endfacet
 facet normal 0.946930 0.321439 -0.000000
  outer loop
   vertex -88.692435 -36.737610 -2750.000000
   vertex -92.728879 -24.846628 -2750.000000
   vertex -88.692435 -36.737610 -940.000000
  endloop
 endfacet
 facet normal 0.980785 0.195090 -0.000000
  outer loop
   vertex -95.178707 -12.530514 -2750.000000
   vertex -95.178707 -12.530514 -940.000000
   vertex -92.728879 -24.846628 -940.000000
  endloop
 endfacet
 facet normal 0.980785 0.195090 -0.000000
  outer loop
   vertex -92.728879 -24.846628 -2750.000000
   vertex -95.178707 -12.530514 -2750.000000
   vertex -92.728879 -24.846628 -940.000000
  endloop
 endfacet
 facet normal 0.997859 0.065403 -0.000000
  outer loop
   vertex -96.000000 -0.000000 -2750.000000
   vertex -96.000000 -0.000000 -940.000000
   vertex -95.178707 -12.530514 -940.000000
  endloop
 endfacet
 facet normal 0.997859 0.065403 -0.000000
  outer loop
   vertex -95.178707 -12.530514 -2750.000000
   vertex -96.000000 -0.000000 -2750.000000
   vertex -95.178707 -12.530514 -940.000000
  endloop
 endfacet
 facet normal 0.997859 -0.065403 0.000000
  outer loop
   vertex -95.178707 12.530514 -2750.000000
   vertex -95.178707 12.530514 -940.000000
   vertex -96.000000 -0.000000 -940.000000
  endloop
 endfacet
 facet normal 0.997859 -0.065403 0.000000
  outer loop
   vertex -96.000000 -0.000000 -2750.000000
   vertex -95.178707 12.530514 -2750.000000
   vertex -96.000000 -0.000000 -940.000000
  endloop
 endfacet
 facet normal 0.980785 -0.195090 0.000000
  outer loop
   vertex -92.728879 24.846628 -2750.000000
   vertex -92.728879 24.846628 -940.000000
   vertex -95.178707 12.530514 -940.000000
  endloop
 endfacet
 facet normal 0.980785 -0.195090 0.000000
  outer loop
   vertex -95.178707 12.530514 -2750.000000
   vertex -92.728879 24.846628 -2750.000000
   vertex -95.178707 12.530514 -940.000000
  endloop
 endfacet
 facet normal 0.946930 -0.321439 0.000000
  outer loop
   vertex -88.692435 36.737610 -2750.000000
   vertex -88.692435 36.737610 -940.000000
   vertex -92.728879 24.846628 -940.000000
  endloop
 endfacet
 facet normal 0.946930 -0.321439 0.000000
  outer loop
   vertex -92.728879 24.846628 -2750.000000
   vertex -88.692435 36.737610 -2750.000000
   vertex -92.728879 24.846628 -940.000000
  endloop
 endfacet
 facet normal 0.896873 -0.442289 0.000000
  outer loop
   vertex -83.138439 48.000000 -2750.000000
   vertex -83.138439 48.000000 -940.000000
   vertex -88.692435 36.737610 -940.000000
  endloop
 endfacet
 facet normal 0.896873 -0.442289 0.000000
  outer loop
   vertex -88.692435 36.737610 -2750.000000
   vertex -83.138439 48.000000 -2750.000000
   vertex -88.692435 36.737610 -940.000000
  endloop
 endfacet
 facet normal 0.831470 -0.555570 0.000000
  outer loop
   vertex -76.161921 58.441097 -2750.000000
   vertex -76.161921 58.441097 -940.000000
   vertex -83.138439 48.000000 -940.000000
  endloop
 endfacet
 facet normal 0.831470 -0.555570 0.000000
  outer loop
   vertex -83.138439 48.000000 -2750.000000
   vertex -76.161921 58.441097 -2750.000000
   vertex -83.138439 48.000000 -940.000000
  endloop
 endfacet
 facet normal 0.751840 -0.659346 0.000000
  outer loop
   vertex -67.882251 67.882251 -2750.000000
   vertex -67.882251 67.882251 -940.000000
   vertex -76.161921 58.441097 -940.000000
  endloop
 endfacet
 facet normal 0.751840 -0.659346 0.000000
  outer loop
   vertex -76.161921 58.441097 -2750.000000
   vertex -67.882251 67.882251 -2750.000000
   vertex -76.161921 58.441097 -940.000000
  endloop
 endfacet
 facet normal 0.659346 -0.751840 0.000000
  outer loop
   vertex -58.441097 76.161921 -2750.000000
   vertex -58.441097 76.161921 -940.000000
   vertex -67.882251 67.882251 -940.000000
  endloop
 endfacet
 facet normal 0.659346 -0.751840 0.000000
  outer loop
   vertex -67.882251 67.882251 -2750.000000
   vertex -58.441097 76.161921 -2750.000000
   vertex -67.882251 67.882251 -940.000000
  endloop
 endfacet
 facet normal 0.555570 -0.831470 0.000000
  outer loop
   vertex -48.000000 83.138439 -2750.000000
   vertex -48.000000 83.138439 -940.000000
   vertex -58.441097 76.161921 -940.000000
  endloop
 endfacet
 facet normal 0.555570 -0.831470 0.000000
  outer loop
   vertex -58.441097 76.161921 -2750.000000
   vertex -48.000000 83.138439 -2750.000000
   vertex -58.441097 76.161921 -940.000000
  endloop
 endfacet
 facet normal 0.442289 -0.896873 0.000000
  outer loop
   vertex -36.737610 88.692435 -2750.000000
   vertex -36.737610 88.692435 -940.000000
   vertex -48.000000 83.138439 -940.000000
  endloop
 endfacet
 facet normal 0.442289 -0.896873 0.000000
  outer loop
   vertex -48.000000 83.138439 -2750.000000
   vertex -36.737610 88.692435 -2750.000000
   vertex -48.000000 83.138439 -940.000000
  endloop
 endfacet
 facet normal 0.321439 -0.946930 0.000000
  outer loop
   vertex -24.846628 92.728879 -2750.000000
   vertex -24.846628 92.728879 -940.000000
   vertex -36.737610 88.692435 -940.000000
  endloop
 endfacet
 facet normal 0.321439 -0.946930 0.000000
  outer loop
   vertex -36.737610 88.692435 -2750.000000
   vertex -24.846628 92.728879 -2750.000000
   vertex -36.737610 88.692435 -940.000000
  endloop
 endfacet
 facet normal 0.195090 -0.980785 0.000000
  outer loop
   vertex -12.530514 95.178707 -2750.000000
   vertex -12.530514 95.178707 -940.000000
   vertex -24.846628 92.728879 -940.000000
  endloop
 endfacet
 facet normal 0.195090 -0.980785 0.000000
  outer loop
   vertex -24.846628 92.728879 -2750.000000
   vertex -12.530514 95.178707 -2750.000000
   vertex -24.846628 92.728879 -940.000000
  endloop
 endfacet
 facet normal 0.065403 -0.997859 0.000000
  outer loop
   vertex 0.000000 96.000000 -2750.000000
   vertex 0.000000 96.000000 -940.000000
   vertex -12.530514 95.178707 -940.000000
  endloop
 endfacet
 facet normal 0.065403 -0.997859 0.000000
  outer loop
   vertex -12.530514 95.178707 -2750.000000
   vertex 0.000000 96.000000 -2750.000000
   vertex -12.530514 95.178707 -940.000000
  endloop
 endfacet
endsolid SIC_RP1_feed_2_drop
