solid SIC_LOX_feed_3_elbow
 facet normal 0.065403 0.997859 0.000000
  outer loop
   vertex -1591.609716 -2646.668027 -450.000000
   vertex -1577.251834 -2647.609093 -450.000000
   vertex -1577.251834 -2647.609093 -870.000000
  endloop
 endfacet
 facet normal 0.065403 0.997859 0.000000
  outer loop
   vertex -1591.609716 -2646.668027 -450.000000
   vertex -1577.251834 -2647.609093 -870.000000
   vertex -1591.609716 -2646.668027 -870.000000
  endloop
 endfacet
 facet normal 0.195090 0.980785 0.000000
  outer loop
   vertex -1577.251834 -2647.609093 -450.000000
   vertex -1563.139621 -2650.416186 -450.000000
   vertex -1563.139621 -2650.416186 -870.000000
  endloop
 endfacet
 facet normal 0.195090 0.980785 0.000000
  outer loop
   vertex -1577.251834 -2647.609093 -450.000000
   vertex -1563.139621 -2650.416186 -870.000000
   vertex -1577.251834 -2647.609093 -870.000000
  endloop
 endfacet
 facet normal 0.321439 0.946930 0.000000
  outer loop
   vertex -1563.139621 -2650.416186 -450.000000
   vertex -1549.514538 -2655.041279 -450.000000
   vertex -1549.514538 -2655.041279 -870.000000
  endloop
 endfacet
 facet normal 0.321439 0.946930 0.000000
  outer loop
   vertex -1563.139621 -2650.416186 -450.000000
   vertex -1549.514538 -2655.041279 -870.000000
   vertex -1563.139621 -2650.416186 -870.000000
  endloop
 endfacet
 facet normal 0.442289 0.896873 0.000000
  outer loop
   vertex -1549.514538 -2655.041279 -450.000000
   vertex -1536.609716 -2661.405233 -450.000000
   vertex -1536.609716 -2661.405233 -870.000000
  endloop
 endfacet
 facet normal 0.442289 0.896873 0.000000
  outer loop
   vertex -1549.514538 -2655.041279 -450.000000
   vertex -1536.609716 -2661.405233 -870.000000
   vertex -1549.514538 -2655.041279 -870.000000
  endloop
 endfacet
 facet normal 0.555570 0.831470 0.000000
  outer loop
   vertex -1536.609716 -2661.405233 -450.000000
   vertex -1524.645958 -2669.399160 -450.000000
   vertex -1524.645958 -2669.399160 -870.000000
  endloop
 endfacet
 facet normal 0.555570 0.831470 0.000000
  outer loop
   vertex -1536.609716 -2661.405233 -450.000000
   vertex -1524.645958 -2669.399160 -870.000000
   vertex -1536.609716 -2661.405233 -870.000000
  endloop
 endfacet
 facet normal 0.659346 0.751840 0.000000
  outer loop
   vertex -1524.645958 -2669.399160 -450.000000
   vertex -1513.827970 -2678.886281 -450.000000
   vertex -1513.827970 -2678.886281 -870.000000
  endloop
 endfacet
 facet normal 0.659346 0.751840 0.000000
  outer loop
   vertex -1524.645958 -2669.399160 -450.000000
   vertex -1513.827970 -2678.886281 -870.000000
   vertex -1524.645958 -2669.399160 -870.000000
  endloop
 endfacet
 facet normal 0.751840 0.659346 0.000000
  outer loop
   vertex -1513.827970 -2678.886281 -450.000000
   vertex -1504.340848 -2689.704270 -450.000000
   vertex -1504.340848 -2689.704270 -870.000000
  endloop
 endfacet
 facet normal 0.751840 0.659346 0.000000
  outer loop
   vertex -1513.827970 -2678.886281 -450.000000
   vertex -1504.340848 -2689.704270 -870.000000
   vertex -1513.827970 -2678.886281 -870.000000
  endloop
 endfacet
 facet normal 0.831470 0.555570 0.000000
  outer loop
   vertex -1504.340848 -2689.704270 -450.000000
   vertex -1496.346921 -2701.668027 -450.000000
   vertex -1496.346921 -2701.668027 -870.000000
  endloop
 endfacet
 facet normal 0.831470 0.555570 0.000000
  outer loop
   vertex -1504.340848 -2689.704270 -450.000000
   vertex -1496.346921 -2701.668027 -870.000000
   vertex -1504.340848 -2689.704270 -870.000000
  endloop
 endfacet
 facet normal 0.896873 0.442289 0.000000
  outer loop
   vertex -1496.346921 -2701.668027 -450.000000
   vertex -1489.982967 -2714.572850 -450.000000
   vertex -1489.982967 -2714.572850 -870.000000
  endloop
 endfacet
 facet normal 0.896873 0.442289 0.000000
  outer loop
   vertex -1496.346921 -2701.668027 -450.000000
   vertex -1489.982967 -2714.572850 -870.000000
   vertex -1496.346921 -2701.668027 -870.000000
  endloop
 endfacet
 facet normal 0.946930 0.321439 0.000000
  outer loop
   vertex -1489.982967 -2714.572850 -450.000000
   vertex -1485.357875 -2728.197932 -450.000000
   vertex -1485.357875 -2728.197932 -870.000000
  endloop
 endfacet
 facet normal 0.946930 0.321439 0.000000
  outer loop
   vertex -1489.982967 -2714.572850 -450.000000
   vertex -1485.357875 -2728.197932 -870.000000
   vertex -1489.982967 -2714.572850 -870.000000
  endloop
 endfacet
 facet normal 0.980785 0.195090 0.000000
  outer loop
   vertex -1485.357875 -2728.197932 -450.000000
   vertex -1482.550781 -2742.310146 -450.000000
   vertex -1482.550781 -2742.310146 -870.000000
  endloop
 endfacet
 facet normal 0.980785 0.195090 0.000000
  outer loop
   vertex -1485.357875 -2728.197932 -450.000000
   vertex -1482.550781 -2742.310146 -870.000000
   vertex -1485.357875 -2728.197932 -870.000000
  endloop
 endfacet
 facet normal 0.997859 0.065403 0.000000
  outer loop
   vertex -1482.550781 -2742.310146 -450.000000
   vertex -1481.609716 -2756.668027 -450.000000
   vertex -1481.609716 -2756.668027 -870.000000
  endloop
 endfacet
 facet normal 0.997859 0.065403 0.000000
  outer loop
   vertex -1482.550781 -2742.310146 -450.000000
   vertex -1481.609716 -2756.668027 -870.000000
   vertex -1482.550781 -2742.310146 -870.000000
  endloop
 endfacet
 facet normal 0.997859 -0.065403 0.000000
  outer loop
   vertex -1481.609716 -2756.668027 -450.000000
   vertex -1482.550781 -2771.025908 -450.000000
   vertex -1482.550781 -2771.025908 -870.000000
  endloop
 endfacet
 facet normal 0.997859 -0.065403 0.000000
  outer loop
   vertex -1481.609716 -2756.668027 -450.000000
   vertex -1482.550781 -2771.025908 -870.000000
   vertex -1481.609716 -2756.668027 -870.000000
  endloop
 endfacet
 facet normal 0.980785 -0.195090 0.000000
  outer loop
   vertex -1482.550781 -2771.025908 -450.000000
   vertex -1485.357875 -2785.138122 -450.000000
   vertex -1485.357875 -2785.138122 -870.000000
  endloop
 endfacet
 facet normal 0.980785 -0.195090 0.000000
  outer loop
   vertex -1482.550781 -2771.025908 -450.000000
   vertex -1485.357875 -2785.138122 -870.000000
   vertex -1482.550781 -2771.025908 -870.000000
  endloop
 endfacet
 facet normal 0.946930 -0.321439 0.000000
  outer loop
   vertex -1485.357875 -2785.138122 -450.000000
   vertex -1489.982967 -2798.763205 -450.000000
   vertex -1489.982967 -2798.763205 -870.000000
  endloop
 endfacet
 facet normal 0.946930 -0.321439 0.000000
  outer loop
   vertex -1485.357875 -2785.138122 -450.000000
   vertex -1489.982967 -2798.763205 -870.000000
   vertex -1485.357875 -2785.138122 -870.000000
  endloop
 endfacet
 facet normal 0.896873 -0.442289 0.000000
  outer loop
   vertex -1489.982967 -2798.763205 -450.000000
   vertex -1496.346921 -2811.668027 -450.000000
   vertex -1496.346921 -2811.668027 -870.000000
  endloop
 endfacet
 facet normal 0.896873 -0.442289 0.000000
  outer loop
   vertex -1489.982967 -2798.763205 -450.000000
   vertex -1496.346921 -2811.668027 -870.000000
   vertex -1489.982967 -2798.763205 -870.000000
  endloop
 endfacet
 facet normal 0.831470 -0.555570 0.000000
  outer loop
   vertex -1496.346921 -2811.668027 -450.000000
   vertex -1504.340848 -2823.631784 -450.000000
   vertex -1504.340848 -2823.631784 -870.000000
  endloop
 endfacet
 facet normal 0.831470 -0.555570 0.000000
  outer loop
   vertex -1496.346921 -2811.668027 -450.000000
   vertex -1504.340848 -2823.631784 -870.000000
   vertex -1496.346921 -2811.668027 -870.000000
  endloop
 endfacet
 facet normal 0.751840 -0.659346 0.000000
  outer loop
   vertex -1504.340848 -2823.631784 -450.000000
   vertex -1513.827970 -2834.449773 -450.000000
   vertex -1513.827970 -2834.449773 -870.000000
  endloop
 endfacet
 facet normal 0.751840 -0.659346 0.000000
  outer loop
   vertex -1504.340848 -2823.631784 -450.000000
   vertex -1513.827970 -2834.449773 -870.000000
   vertex -1504.340848 -2823.631784 -870.000000
  endloop
 endfacet
 facet normal 0.659346 -0.751840 0.000000
  outer loop
   vertex -1513.827970 -2834.449773 -450.000000
   vertex -1524.645958 -2843.936895 -450.000000
   vertex -1524.645958 -2843.936895 -870.000000
  endloop
 endfacet
 facet normal 0.659346 -0.751840 0.000000
  outer loop
   vertex -1513.827970 -2834.449773 -450.000000
   vertex -1524.645958 -2843.936895 -870.000000
   vertex -1513.827970 -2834.449773 -870.000000
  endloop
 endfacet
 facet normal 0.555570 -0.831470 0.000000
  outer loop
   vertex -1524.645958 -2843.936895 -450.000000
   vertex -1536.609716 -2851.930822 -450.000000
   vertex -1536.609716 -2851.930822 -870.000000
  endloop
 endfacet
 facet normal 0.555570 -0.831470 0.000000
  outer loop
   vertex -1524.645958 -2843.936895 -450.000000
   vertex -1536.609716 -2851.930822 -870.000000
   vertex -1524.645958 -2843.936895 -870.000000
  endloop
 endfacet
 facet normal 0.442289 -0.896873 0.000000
  outer loop
   vertex -1536.609716 -2851.930822 -450.000000
   vertex -1549.514538 -2858.294776 -450.000000
   vertex -1549.514538 -2858.294776 -870.000000
  endloop
 endfacet
 facet normal 0.442289 -0.896873 0.000000
  outer loop
   vertex -1536.609716 -2851.930822 -450.000000
   vertex -1549.514538 -2858.294776 -870.000000
   vertex -1536.609716 -2851.930822 -870.000000
  endloop
 endfacet
 facet normal 0.321439 -0.946930 0.000000
  outer loop
   vertex -1549.514538 -2858.294776 -450.000000
   vertex -1563.139621 -2862.919868 -450.000000
   vertex -1563.139621 -2862.919868 -870.000000
  endloop
 endfacet
 facet normal 0.321439 -0.946930 0.000000
  outer loop
   vertex -1549.514538 -2858.294776 -450.000000
   vertex -1563.139621 -2862.919868 -870.000000
   vertex -1549.514538 -2858.294776 -870.000000
  endloop
 endfacet
 facet normal 0.195090 -0.980785 0.000000
  outer loop
   vertex -1563.139621 -2862.919868 -450.000000
   vertex -1577.251834 -2865.726962 -450.000000
   vertex -1577.251834 -2865.726962 -870.000000
  endloop
 endfacet
 facet normal 0.195090 -0.980785 0.000000
  outer loop
   vertex -1563.139621 -2862.919868 -450.000000
   vertex -1577.251834 -2865.726962 -870.000000
   vertex -1563.139621 -2862.919868 -870.000000
  endloop
 endfacet
 facet normal 0.065403 -0.997859 0.000000
  outer loop
   vertex -1577.251834 -2865.726962 -450.000000
   vertex -1591.609716 -2866.668027 -450.000000
   vertex -1591.609716 -2866.668027 -870.000000
  endloop
 endfacet
 facet normal 0.065403 -0.997859 0.000000
  outer loop
   vertex -1577.251834 -2865.726962 -450.000000
   vertex -1591.609716 -2866.668027 -870.000000
   vertex -1577.251834 -2865.726962 -870.000000
  endloop
 endfacet
 facet normal -0.065403 -0.997859 0.000000
  outer loop
   vertex -1591.609716 -2866.668027 -450.000000
   vertex -1605.967597 -2865.726962 -450.000000
   vertex -1605.967597 -2865.726962 -870.000000
  endloop
 endfacet
 facet normal -0.065403 -0.997859 -0.000000
  outer loop
   vertex -1591.609716 -2866.668027 -450.000000
   vertex -1605.967597 -2865.726962 -870.000000
   vertex -1591.609716 -2866.668027 -870.000000
  endloop
 endfacet
 facet normal -0.195090 -0.980785 0.000000
  outer loop
   vertex -1605.967597 -2865.726962 -450.000000
   vertex -1620.079810 -2862.919868 -450.000000
   vertex -1620.079810 -2862.919868 -870.000000
  endloop
 endfacet
 facet normal -0.195090 -0.980785 -0.000000
  outer loop
   vertex -1605.967597 -2865.726962 -450.000000
   vertex -1620.079810 -2862.919868 -870.000000
   vertex -1605.967597 -2865.726962 -870.000000
  endloop
 endfacet
 facet normal -0.321439 -0.946930 0.000000
  outer loop
   vertex -1620.079810 -2862.919868 -450.000000
   vertex -1633.704893 -2858.294776 -450.000000
   vertex -1633.704893 -2858.294776 -870.000000
  endloop
 endfacet
 facet normal -0.321439 -0.946930 -0.000000
  outer loop
   vertex -1620.079810 -2862.919868 -450.000000
   vertex -1633.704893 -2858.294776 -870.000000
   vertex -1620.079810 -2862.919868 -870.000000
  endloop
 endfacet
 facet normal -0.442289 -0.896873 0.000000
  outer loop
   vertex -1633.704893 -2858.294776 -450.000000
   vertex -1646.609716 -2851.930822 -450.000000
   vertex -1646.609716 -2851.930822 -870.000000
  endloop
 endfacet
 facet normal -0.442289 -0.896873 -0.000000
  outer loop
   vertex -1633.704893 -2858.294776 -450.000000
   vertex -1646.609716 -2851.930822 -870.000000
   vertex -1633.704893 -2858.294776 -870.000000
  endloop
 endfacet
 facet normal -0.555570 -0.831470 0.000000
  outer loop
   vertex -1646.609716 -2851.930822 -450.000000
   vertex -1658.573473 -2843.936895 -450.000000
   vertex -1658.573473 -2843.936895 -870.000000
  endloop
 endfacet
 facet normal -0.555570 -0.831470 -0.000000
  outer loop
   vertex -1646.609716 -2851.930822 -450.000000
   vertex -1658.573473 -2843.936895 -870.000000
   vertex -1646.609716 -2851.930822 -870.000000
  endloop
 endfacet
 facet normal -0.659346 -0.751840 0.000000
  outer loop
   vertex -1658.573473 -2843.936895 -450.000000
   vertex -1669.391461 -2834.449773 -450.000000
   vertex -1669.391461 -2834.449773 -870.000000
  endloop
 endfacet
 facet normal -0.659346 -0.751840 -0.000000
  outer loop
   vertex -1658.573473 -2843.936895 -450.000000
   vertex -1669.391461 -2834.449773 -870.000000
   vertex -1658.573473 -2843.936895 -870.000000
  endloop
 endfacet
 facet normal -0.751840 -0.659346 0.000000
  outer loop
   vertex -1669.391461 -2834.449773 -450.000000
   vertex -1678.878583 -2823.631784 -450.000000
   vertex -1678.878583 -2823.631784 -870.000000
  endloop
 endfacet
 facet normal -0.751840 -0.659346 -0.000000
  outer loop
   vertex -1669.391461 -2834.449773 -450.000000
   vertex -1678.878583 -2823.631784 -870.000000
   vertex -1669.391461 -2834.449773 -870.000000
  endloop
 endfacet
 facet normal -0.831470 -0.555570 0.000000
  outer loop
   vertex -1678.878583 -2823.631784 -450.000000
   vertex -1686.872510 -2811.668027 -450.000000
   vertex -1686.872510 -2811.668027 -870.000000
  endloop
 endfacet
 facet normal -0.831470 -0.555570 -0.000000
  outer loop
   vertex -1678.878583 -2823.631784 -450.000000
   vertex -1686.872510 -2811.668027 -870.000000
   vertex -1678.878583 -2823.631784 -870.000000
  endloop
 endfacet
 facet normal -0.896873 -0.442289 0.000000
  outer loop
   vertex -1686.872510 -2811.668027 -450.000000
   vertex -1693.236464 -2798.763205 -450.000000
   vertex -1693.236464 -2798.763205 -870.000000
  endloop
 endfacet
 facet normal -0.896873 -0.442289 -0.000000
  outer loop
   vertex -1686.872510 -2811.668027 -450.000000
   vertex -1693.236464 -2798.763205 -870.000000
   vertex -1686.872510 -2811.668027 -870.000000
  endloop
 endfacet
 facet normal -0.946930 -0.321439 0.000000
  outer loop
   vertex -1693.236464 -2798.763205 -450.000000
   vertex -1697.861556 -2785.138122 -450.000000
   vertex -1697.861556 -2785.138122 -870.000000
  endloop
 endfacet
 facet normal -0.946930 -0.321439 -0.000000
  outer loop
   vertex -1693.236464 -2798.763205 -450.000000
   vertex -1697.861556 -2785.138122 -870.000000
   vertex -1693.236464 -2798.763205 -870.000000
  endloop
 endfacet
 facet normal -0.980785 -0.195090 0.000000
  outer loop
   vertex -1697.861556 -2785.138122 -450.000000
   vertex -1700.668650 -2771.025908 -450.000000
   vertex -1700.668650 -2771.025908 -870.000000
  endloop
 endfacet
 facet normal -0.980785 -0.195090 -0.000000
  outer loop
   vertex -1697.861556 -2785.138122 -450.000000
   vertex -1700.668650 -2771.025908 -870.000000
   vertex -1697.861556 -2785.138122 -870.000000
  endloop
 endfacet
 facet normal -0.997859 -0.065403 0.000000
  outer loop
   vertex -1700.668650 -2771.025908 -450.000000
   vertex -1701.609716 -2756.668027 -450.000000
   vertex -1701.609716 -2756.668027 -870.000000
  endloop
 endfacet
 facet normal -0.997859 -0.065403 -0.000000
  outer loop
   vertex -1700.668650 -2771.025908 -450.000000
   vertex -1701.609716 -2756.668027 -870.000000
   vertex -1700.668650 -2771.025908 -870.000000
  endloop
 endfacet
 facet normal -0.997859 0.065403 0.000000
  outer loop
   vertex -1701.609716 -2756.668027 -450.000000
   vertex -1700.668650 -2742.310146 -450.000000
   vertex -1700.668650 -2742.310146 -870.000000
  endloop
 endfacet
 facet normal -0.997859 0.065403 0.000000
  outer loop
   vertex -1701.609716 -2756.668027 -450.000000
   vertex -1700.668650 -2742.310146 -870.000000
   vertex -1701.609716 -2756.668027 -870.000000
  endloop
 endfacet
 facet normal -0.980785 0.195090 0.000000
  outer loop
   vertex -1700.668650 -2742.310146 -450.000000
   vertex -1697.861556 -2728.197932 -450.000000
   vertex -1697.861556 -2728.197932 -870.000000
  endloop
 endfacet
 facet normal -0.980785 0.195090 0.000000
  outer loop
   vertex -1700.668650 -2742.310146 -450.000000
   vertex -1697.861556 -2728.197932 -870.000000
   vertex -1700.668650 -2742.310146 -870.000000
  endloop
 endfacet
 facet normal -0.946930 0.321439 0.000000
  outer loop
   vertex -1697.861556 -2728.197932 -450.000000
   vertex -1693.236464 -2714.572850 -450.000000
   vertex -1693.236464 -2714.572850 -870.000000
  endloop
 endfacet
 facet normal -0.946930 0.321439 0.000000
  outer loop
   vertex -1697.861556 -2728.197932 -450.000000
   vertex -1693.236464 -2714.572850 -870.000000
   vertex -1697.861556 -2728.197932 -870.000000
  endloop
 endfacet
 facet normal -0.896873 0.442289 0.000000
  outer loop
   vertex -1693.236464 -2714.572850 -450.000000
   vertex -1686.872510 -2701.668027 -450.000000
   vertex -1686.872510 -2701.668027 -870.000000
  endloop
 endfacet
 facet normal -0.896873 0.442289 0.000000
  outer loop
   vertex -1693.236464 -2714.572850 -450.000000
   vertex -1686.872510 -2701.668027 -870.000000
   vertex -1693.236464 -2714.572850 -870.000000
  endloop
 endfacet
 facet normal -0.831470 0.555570 0.000000
  outer loop
   vertex -1686.872510 -2701.668027 -450.000000
   vertex -1678.878583 -2689.704270 -450.000000
   vertex -1678.878583 -2689.704270 -870.000000
  endloop
 endfacet
 facet normal -0.831470 0.555570 0.000000
  outer loop
   vertex -1686.872510 -2701.668027 -450.000000
   vertex -1678.878583 -2689.704270 -870.000000
   vertex -1686.872510 -2701.668027 -870.000000
  endloop
 endfacet
 facet normal -0.751840 0.659346 0.000000
  outer loop
   vertex -1678.878583 -2689.704270 -450.000000
   vertex -1669.391461 -2678.886281 -450.000000
   vertex -1669.391461 -2678.886281 -870.000000
  endloop
 endfacet
 facet normal -0.751840 0.659346 0.000000
  outer loop
   vertex -1678.878583 -2689.704270 -450.000000
   vertex -1669.391461 -2678.886281 -870.000000
   vertex -1678.878583 -2689.704270 -870.000000
  endloop
 endfacet
 facet normal -0.659346 0.751840 0.000000
  outer loop
   vertex -1669.391461 -2678.886281 -450.000000
   vertex -1658.573473 -2669.399160 -450.000000
   vertex -1658.573473 -2669.399160 -870.000000
  endloop
 endfacet
 facet normal -0.659346 0.751840 0.000000
  outer loop
   vertex -1669.391461 -2678.886281 -450.000000
   vertex -1658.573473 -2669.399160 -870.000000
   vertex -1669.391461 -2678.886281 -870.000000
  endloop
 endfacet
 facet normal -0.555570 0.831470 0.000000
  outer loop
   vertex -1658.573473 -2669.399160 -450.000000
   vertex -1646.609716 -2661.405233 -450.000000
   vertex -1646.609716 -2661.405233 -870.000000
  endloop
 endfacet
 facet normal -0.555570 0.831470 0.000000
  outer loop
   vertex -1658.573473 -2669.399160 -450.000000
   vertex -1646.609716 -2661.405233 -870.000000
   vertex -1658.573473 -2669.399160 -870.000000
  endloop
 endfacet
 facet normal -0.442289 0.896873 0.000000
  outer loop
   vertex -1646.609716 -2661.405233 -450.000000
   vertex -1633.704893 -2655.041279 -450.000000
   vertex -1633.704893 -2655.041279 -870.000000
  endloop
 endfacet
 facet normal -0.442289 0.896873 0.000000
  outer loop
   vertex -1646.609716 -2661.405233 -450.000000
   vertex -1633.704893 -2655.041279 -870.000000
   vertex -1646.609716 -2661.405233 -870.000000
  endloop
 endfacet
 facet normal -0.321439 0.946930 0.000000
  outer loop
   vertex -1633.704893 -2655.041279 -450.000000
   vertex -1620.079810 -2650.416186 -450.000000
   vertex -1620.079810 -2650.416186 -870.000000
  endloop
 endfacet
 facet normal -0.321439 0.946930 0.000000
  outer loop
   vertex -1633.704893 -2655.041279 -450.000000
   vertex -1620.079810 -2650.416186 -870.000000
   vertex -1633.704893 -2655.041279 -870.000000
  endloop
 endfacet
 facet normal -0.195090 0.980785 0.000000
  outer loop
   vertex -1620.079810 -2650.416186 -450.000000
   vertex -1605.967597 -2647.609093 -450.000000
   vertex -1605.967597 -2647.609093 -870.000000
  endloop
 endfacet
 facet normal -0.195090 0.980785 0.000000
  outer loop
   vertex -1620.079810 -2650.416186 -450.000000
   vertex -1605.967597 -2647.609093 -870.000000
   vertex -1620.079810 -2650.416186 -870.000000
  endloop
 endfacet
 facet normal -0.065403 0.997859 0.000000
  outer loop
   vertex -1605.967597 -2647.609093 -450.000000
   vertex -1591.609716 -2646.668027 -450.000000
   vertex -1591.609716 -2646.668027 -870.000000
  endloop
 endfacet
 facet normal -0.065403 0.997859 0.000000
  outer loop
   vertex -1605.967597 -2647.609093 -450.000000
   vertex -1591.609716 -2646.668027 -870.000000
   vertex -1605.967597 -2647.609093 -870.000000
  endloop
 endfacet
 facet normal -0.065403 -0.997859 0.000000
  outer loop
   vertex -1579.079201 -2661.489321 -870.000000
   vertex -1579.079201 -2661.489321 -450.000000
   vertex -1591.609716 -2660.668027 -450.000000
  endloop
 endfacet
 facet normal -0.065403 -0.997859 0.000000
  outer loop
   vertex -1591.609716 -2660.668027 -870.000000
   vertex -1579.079201 -2661.489321 -870.000000
   vertex -1591.609716 -2660.668027 -450.000000
  endloop
 endfacet
 facet normal -0.195090 -0.980785 0.000000
  outer loop
   vertex -1566.763087 -2663.939148 -870.000000
   vertex -1566.763087 -2663.939148 -450.000000
   vertex -1579.079201 -2661.489321 -450.000000
  endloop
 endfacet
 facet normal -0.195090 -0.980785 0.000000
  outer loop
   vertex -1579.079201 -2661.489321 -870.000000
   vertex -1566.763087 -2663.939148 -870.000000
   vertex -1579.079201 -2661.489321 -450.000000
  endloop
 endfacet
 facet normal -0.321439 -0.946930 0.000000
  outer loop
   vertex -1554.872106 -2667.975592 -870.000000
   vertex -1554.872106 -2667.975592 -450.000000
   vertex -1566.763087 -2663.939148 -450.000000
  endloop
 endfacet
 facet normal -0.321439 -0.946930 0.000000
  outer loop
   vertex -1566.763087 -2663.939148 -870.000000
   vertex -1554.872106 -2667.975592 -870.000000
   vertex -1566.763087 -2663.939148 -450.000000
  endloop
 endfacet
 facet normal -0.442289 -0.896873 0.000000
  outer loop
   vertex -1543.609716 -2673.529589 -870.000000
   vertex -1543.609716 -2673.529589 -450.000000
   vertex -1554.872106 -2667.975592 -450.000000
  endloop
 endfacet
 facet normal -0.442289 -0.896873 0.000000
  outer loop
   vertex -1554.872106 -2667.975592 -870.000000
   vertex -1543.609716 -2673.529589 -870.000000
   vertex -1554.872106 -2667.975592 -450.000000
  endloop
 endfacet
 facet normal -0.555570 -0.831470 0.000000
  outer loop
   vertex -1533.168618 -2680.506107 -870.000000
   vertex -1533.168618 -2680.506107 -450.000000
   vertex -1543.609716 -2673.529589 -450.000000
  endloop
 endfacet
 facet normal -0.555570 -0.831470 0.000000
  outer loop
   vertex -1543.609716 -2673.529589 -870.000000
   vertex -1533.168618 -2680.506107 -870.000000
   vertex -1543.609716 -2673.529589 -450.000000
  endloop
 endfacet
 facet normal -0.659346 -0.751840 0.000000
  outer loop
   vertex -1523.727465 -2688.785776 -870.000000
   vertex -1523.727465 -2688.785776 -450.000000
   vertex -1533.168618 -2680.506107 -450.000000
  endloop
 endfacet
 facet normal -0.659346 -0.751840 0.000000
  outer loop
   vertex -1533.168618 -2680.506107 -870.000000
   vertex -1523.727465 -2688.785776 -870.000000
   vertex -1533.168618 -2680.506107 -450.000000
  endloop
 endfacet
 facet normal -0.751840 -0.659346 0.000000
  outer loop
   vertex -1515.447795 -2698.226930 -870.000000
   vertex -1515.447795 -2698.226930 -450.000000
   vertex -1523.727465 -2688.785776 -450.000000
  endloop
 endfacet
 facet normal -0.751840 -0.659346 0.000000
  outer loop
   vertex -1523.727465 -2688.785776 -870.000000
   vertex -1515.447795 -2698.226930 -870.000000
   vertex -1523.727465 -2688.785776 -450.000000
  endloop
 endfacet
 facet normal -0.831470 -0.555570 0.000000
  outer loop
   vertex -1508.471277 -2708.668027 -870.000000
   vertex -1508.471277 -2708.668027 -450.000000
   vertex -1515.447795 -2698.226930 -450.000000
  endloop
 endfacet
 facet normal -0.831470 -0.555570 0.000000
  outer loop
   vertex -1515.447795 -2698.226930 -870.000000
   vertex -1508.471277 -2708.668027 -870.000000
   vertex -1515.447795 -2698.226930 -450.000000
  endloop
 endfacet
 facet normal -0.896873 -0.442289 0.000000
  outer loop
   vertex -1502.917280 -2719.930418 -870.000000
   vertex -1502.917280 -2719.930418 -450.000000
   vertex -1508.471277 -2708.668027 -450.000000
  endloop
 endfacet
 facet normal -0.896873 -0.442289 0.000000
  outer loop
   vertex -1508.471277 -2708.668027 -870.000000
   vertex -1502.917280 -2719.930418 -870.000000
   vertex -1508.471277 -2708.668027 -450.000000
  endloop
 endfacet
 facet normal -0.946930 -0.321439 0.000000
  outer loop
   vertex -1498.880836 -2731.821399 -870.000000
   vertex -1498.880836 -2731.821399 -450.000000
   vertex -1502.917280 -2719.930418 -450.000000
  endloop
 endfacet
 facet normal -0.946930 -0.321439 0.000000
  outer loop
   vertex -1502.917280 -2719.930418 -870.000000
   vertex -1498.880836 -2731.821399 -870.000000
   vertex -1502.917280 -2719.930418 -450.000000
  endloop
 endfacet
 facet normal -0.980785 -0.195090 0.000000
  outer loop
   vertex -1496.431009 -2744.137513 -870.000000
   vertex -1496.431009 -2744.137513 -450.000000
   vertex -1498.880836 -2731.821399 -450.000000
  endloop
 endfacet
 facet normal -0.980785 -0.195090 0.000000
  outer loop
   vertex -1498.880836 -2731.821399 -870.000000
   vertex -1496.431009 -2744.137513 -870.000000
   vertex -1498.880836 -2731.821399 -450.000000
  endloop
 endfacet
 facet normal -0.997859 -0.065403 0.000000
  outer loop
   vertex -1495.609716 -2756.668027 -870.000000
   vertex -1495.609716 -2756.668027 -450.000000
   vertex -1496.431009 -2744.137513 -450.000000
  endloop
 endfacet
 facet normal -0.997859 -0.065403 0.000000
  outer loop
   vertex -1496.431009 -2744.137513 -870.000000
   vertex -1495.609716 -2756.668027 -870.000000
   vertex -1496.431009 -2744.137513 -450.000000
  endloop
 endfacet
 facet normal -0.997859 0.065403 0.000000
  outer loop
   vertex -1496.431009 -2769.198542 -870.000000
   vertex -1496.431009 -2769.198542 -450.000000
   vertex -1495.609716 -2756.668027 -450.000000
  endloop
 endfacet
 facet normal -0.997859 0.065403 0.000000
  outer loop
   vertex -1495.609716 -2756.668027 -870.000000
   vertex -1496.431009 -2769.198542 -870.000000
   vertex -1495.609716 -2756.668027 -450.000000
  endloop
 endfacet
 facet normal -0.980785 0.195090 0.000000
  outer loop
   vertex -1498.880836 -2781.514656 -870.000000
   vertex -1498.880836 -2781.514656 -450.000000
   vertex -1496.431009 -2769.198542 -450.000000
  endloop
 endfacet
 facet normal -0.980785 0.195090 0.000000
  outer loop
   vertex -1496.431009 -2769.198542 -870.000000
   vertex -1498.880836 -2781.514656 -870.000000
   vertex -1496.431009 -2769.198542 -450.000000
  endloop
 endfacet
 facet normal -0.946930 0.321439 0.000000
  outer loop
   vertex -1502.917280 -2793.405637 -870.000000
   vertex -1502.917280 -2793.405637 -450.000000
   vertex -1498.880836 -2781.514656 -450.000000
  endloop
 endfacet
 facet normal -0.946930 0.321439 0.000000
  outer loop
   vertex -1498.880836 -2781.514656 -870.000000
   vertex -1502.917280 -2793.405637 -870.000000
   vertex -1498.880836 -2781.514656 -450.000000
  endloop
 endfacet
 facet normal -0.896873 0.442289 0.000000
  outer loop
   vertex -1508.471277 -2804.668027 -870.000000
   vertex -1508.471277 -2804.668027 -450.000000
   vertex -1502.917280 -2793.405637 -450.000000
  endloop
 endfacet
 facet normal -0.896873 0.442289 0.000000
  outer loop
   vertex -1502.917280 -2793.405637 -870.000000
   vertex -1508.471277 -2804.668027 -870.000000
   vertex -1502.917280 -2793.405637 -450.000000
  endloop
 endfacet
 facet normal -0.831470 0.555570 0.000000
  outer loop
   vertex -1515.447795 -2815.109124 -870.000000
   vertex -1515.447795 -2815.109124 -450.000000
   vertex -1508.471277 -2804.668027 -450.000000
  endloop
 endfacet
 facet normal -0.831470 0.555570 0.000000
  outer loop
   vertex -1508.471277 -2804.668027 -870.000000
   vertex -1515.447795 -2815.109124 -870.000000
   vertex -1508.471277 -2804.668027 -450.000000
  endloop
 endfacet
 facet normal -0.751840 0.659346 0.000000
  outer loop
   vertex -1523.727465 -2824.550278 -870.000000
   vertex -1523.727465 -2824.550278 -450.000000
   vertex -1515.447795 -2815.109124 -450.000000
  endloop
 endfacet
 facet normal -0.751840 0.659346 0.000000
  outer loop
   vertex -1515.447795 -2815.109124 -870.000000
   vertex -1523.727465 -2824.550278 -870.000000
   vertex -1515.447795 -2815.109124 -450.000000
  endloop
 endfacet
 facet normal -0.659346 0.751840 0.000000
  outer loop
   vertex -1533.168618 -2832.829948 -870.000000
   vertex -1533.168618 -2832.829948 -450.000000
   vertex -1523.727465 -2824.550278 -450.000000
  endloop
 endfacet
 facet normal -0.659346 0.751840 0.000000
  outer loop
   vertex -1523.727465 -2824.550278 -870.000000
   vertex -1533.168618 -2832.829948 -870.000000
   vertex -1523.727465 -2824.550278 -450.000000
  endloop
 endfacet
 facet normal -0.555570 0.831470 0.000000
  outer loop
   vertex -1543.609716 -2839.806466 -870.000000
   vertex -1543.609716 -2839.806466 -450.000000
   vertex -1533.168618 -2832.829948 -450.000000
  endloop
 endfacet
 facet normal -0.555570 0.831470 0.000000
  outer loop
   vertex -1533.168618 -2832.829948 -870.000000
   vertex -1543.609716 -2839.806466 -870.000000
   vertex -1533.168618 -2832.829948 -450.000000
  endloop
 endfacet
 facet normal -0.442289 0.896873 0.000000
  outer loop
   vertex -1554.872106 -2845.360462 -870.000000
   vertex -1554.872106 -2845.360462 -450.000000
   vertex -1543.609716 -2839.806466 -450.000000
  endloop
 endfacet
 facet normal -0.442289 0.896873 0.000000
  outer loop
   vertex -1543.609716 -2839.806466 -870.000000
   vertex -1554.872106 -2845.360462 -870.000000
   vertex -1543.609716 -2839.806466 -450.000000
  endloop
 endfacet
 facet normal -0.321439 0.946930 0.000000
  outer loop
   vertex -1566.763087 -2849.396907 -870.000000
   vertex -1566.763087 -2849.396907 -450.000000
   vertex -1554.872106 -2845.360462 -450.000000
  endloop
 endfacet
 facet normal -0.321439 0.946930 0.000000
  outer loop
   vertex -1554.872106 -2845.360462 -870.000000
   vertex -1566.763087 -2849.396907 -870.000000
   vertex -1554.872106 -2845.360462 -450.000000
  endloop
 endfacet
 facet normal -0.195090 0.980785 0.000000
  outer loop
   vertex -1579.079201 -2851.846734 -870.000000
   vertex -1579.079201 -2851.846734 -450.000000
   vertex -1566.763087 -2849.396907 -450.000000
  endloop
 endfacet
 facet normal -0.195090 0.980785 0.000000
  outer loop
   vertex -1566.763087 -2849.396907 -870.000000
   vertex -1579.079201 -2851.846734 -870.000000
   vertex -1566.763087 -2849.396907 -450.000000
  endloop
 endfacet
 facet normal -0.065403 0.997859 0.000000
  outer loop
   vertex -1591.609716 -2852.668027 -870.000000
   vertex -1591.609716 -2852.668027 -450.000000
   vertex -1579.079201 -2851.846734 -450.000000
  endloop
 endfacet
 facet normal -0.065403 0.997859 0.000000
  outer loop
   vertex -1579.079201 -2851.846734 -870.000000
   vertex -1591.609716 -2852.668027 -870.000000
   vertex -1579.079201 -2851.846734 -450.000000
  endloop
 endfacet
 facet normal 0.065403 0.997859 -0.000000
  outer loop
   vertex -1604.140230 -2851.846734 -870.000000
   vertex -1604.140230 -2851.846734 -450.000000
   vertex -1591.609716 -2852.668027 -450.000000
  endloop
 endfacet
 facet normal 0.065403 0.997859 -0.000000
  outer loop
   vertex -1591.609716 -2852.668027 -870.000000
   vertex -1604.140230 -2851.846734 -870.000000
   vertex -1591.609716 -2852.668027 -450.000000
  endloop
 endfacet
 facet normal 0.195090 0.980785 -0.000000
  outer loop
   vertex -1616.456344 -2849.396907 -870.000000
   vertex -1616.456344 -2849.396907 -450.000000
   vertex -1604.140230 -2851.846734 -450.000000
  endloop
 endfacet
 facet normal 0.195090 0.980785 -0.000000
  outer loop
   vertex -1604.140230 -2851.846734 -870.000000
   vertex -1616.456344 -2849.396907 -870.000000
   vertex -1604.140230 -2851.846734 -450.000000
  endloop
 endfacet
 facet normal 0.321439 0.946930 -0.000000
  outer loop
   vertex -1628.347325 -2845.360462 -870.000000
   vertex -1628.347325 -2845.360462 -450.000000
   vertex -1616.456344 -2849.396907 -450.000000
  endloop
 endfacet
 facet normal 0.321439 0.946930 -0.000000
  outer loop
   vertex -1616.456344 -2849.396907 -870.000000
   vertex -1628.347325 -2845.360462 -870.000000
   vertex -1616.456344 -2849.396907 -450.000000
  endloop
 endfacet
 facet normal 0.442289 0.896873 -0.000000
  outer loop
   vertex -1639.609716 -2839.806466 -870.000000
   vertex -1639.609716 -2839.806466 -450.000000
   vertex -1628.347325 -2845.360462 -450.000000
  endloop
 endfacet
 facet normal 0.442289 0.896873 -0.000000
  outer loop
   vertex -1628.347325 -2845.360462 -870.000000
   vertex -1639.609716 -2839.806466 -870.000000
   vertex -1628.347325 -2845.360462 -450.000000
  endloop
 endfacet
 facet normal 0.555570 0.831470 -0.000000
  outer loop
   vertex -1650.050813 -2832.829948 -870.000000
   vertex -1650.050813 -2832.829948 -450.000000
   vertex -1639.609716 -2839.806466 -450.000000
  endloop
 endfacet
 facet normal 0.555570 0.831470 -0.000000
  outer loop
   vertex -1639.609716 -2839.806466 -870.000000
   vertex -1650.050813 -2832.829948 -870.000000
   vertex -1639.609716 -2839.806466 -450.000000
  endloop
 endfacet
 facet normal 0.659346 0.751840 -0.000000
  outer loop
   vertex -1659.491967 -2824.550278 -870.000000
   vertex -1659.491967 -2824.550278 -450.000000
   vertex -1650.050813 -2832.829948 -450.000000
  endloop
 endfacet
 facet normal 0.659346 0.751840 -0.000000
  outer loop
   vertex -1650.050813 -2832.829948 -870.000000
   vertex -1659.491967 -2824.550278 -870.000000
   vertex -1650.050813 -2832.829948 -450.000000
  endloop
 endfacet
 facet normal 0.751840 0.659346 -0.000000
  outer loop
   vertex -1667.771636 -2815.109124 -870.000000
   vertex -1667.771636 -2815.109124 -450.000000
   vertex -1659.491967 -2824.550278 -450.000000
  endloop
 endfacet
 facet normal 0.751840 0.659346 -0.000000
  outer loop
   vertex -1659.491967 -2824.550278 -870.000000
   vertex -1667.771636 -2815.109124 -870.000000
   vertex -1659.491967 -2824.550278 -450.000000
  endloop
 endfacet
 facet normal 0.831470 0.555570 -0.000000
  outer loop
   vertex -1674.748154 -2804.668027 -870.000000
   vertex -1674.748154 -2804.668027 -450.000000
   vertex -1667.771636 -2815.109124 -450.000000
  endloop
 endfacet
 facet normal 0.831470 0.555570 -0.000000
  outer loop
   vertex -1667.771636 -2815.109124 -870.000000
   vertex -1674.748154 -2804.668027 -870.000000
   vertex -1667.771636 -2815.109124 -450.000000
  endloop
 endfacet
 facet normal 0.896873 0.442289 -0.000000
  outer loop
   vertex -1680.302151 -2793.405637 -870.000000
   vertex -1680.302151 -2793.405637 -450.000000
   vertex -1674.748154 -2804.668027 -450.000000
  endloop
 endfacet
 facet normal 0.896873 0.442289 -0.000000
  outer loop
   vertex -1674.748154 -2804.668027 -870.000000
   vertex -1680.302151 -2793.405637 -870.000000
   vertex -1674.748154 -2804.668027 -450.000000
  endloop
 endfacet
 facet normal 0.946930 0.321439 -0.000000
  outer loop
   vertex -1684.338595 -2781.514656 -870.000000
   vertex -1684.338595 -2781.514656 -450.000000
   vertex -1680.302151 -2793.405637 -450.000000
  endloop
 endfacet
 facet normal 0.946930 0.321439 -0.000000
  outer loop
   vertex -1680.302151 -2793.405637 -870.000000
   vertex -1684.338595 -2781.514656 -870.000000
   vertex -1680.302151 -2793.405637 -450.000000
  endloop
 endfacet
 facet normal 0.980785 0.195090 -0.000000
  outer loop
   vertex -1686.788422 -2769.198542 -870.000000
   vertex -1686.788422 -2769.198542 -450.000000
   vertex -1684.338595 -2781.514656 -450.000000
  endloop
 endfacet
 facet normal 0.980785 0.195090 -0.000000
  outer loop
   vertex -1684.338595 -2781.514656 -870.000000
   vertex -1686.788422 -2769.198542 -870.000000
   vertex -1684.338595 -2781.514656 -450.000000
  endloop
 endfacet
 facet normal 0.997859 0.065403 -0.000000
  outer loop
   vertex -1687.609716 -2756.668027 -870.000000
   vertex -1687.609716 -2756.668027 -450.000000
   vertex -1686.788422 -2769.198542 -450.000000
  endloop
 endfacet
 facet normal 0.997859 0.065403 -0.000000
  outer loop
   vertex -1686.788422 -2769.198542 -870.000000
   vertex -1687.609716 -2756.668027 -870.000000
   vertex -1686.788422 -2769.198542 -450.000000
  endloop
 endfacet
 facet normal 0.997859 -0.065403 0.000000
  outer loop
   vertex -1686.788422 -2744.137513 -870.000000
   vertex -1686.788422 -2744.137513 -450.000000
   vertex -1687.609716 -2756.668027 -450.000000
  endloop
 endfacet
 facet normal 0.997859 -0.065403 0.000000
  outer loop
   vertex -1687.609716 -2756.668027 -870.000000
   vertex -1686.788422 -2744.137513 -870.000000
   vertex -1687.609716 -2756.668027 -450.000000
  endloop
 endfacet
 facet normal 0.980785 -0.195090 0.000000
  outer loop
   vertex -1684.338595 -2731.821399 -870.000000
   vertex -1684.338595 -2731.821399 -450.000000
   vertex -1686.788422 -2744.137513 -450.000000
  endloop
 endfacet
 facet normal 0.980785 -0.195090 0.000000
  outer loop
   vertex -1686.788422 -2744.137513 -870.000000
   vertex -1684.338595 -2731.821399 -870.000000
   vertex -1686.788422 -2744.137513 -450.000000
  endloop
 endfacet
 facet normal 0.946930 -0.321439 0.000000
  outer loop
   vertex -1680.302151 -2719.930418 -870.000000
   vertex -1680.302151 -2719.930418 -450.000000
   vertex -1684.338595 -2731.821399 -450.000000
  endloop
 endfacet
 facet normal 0.946930 -0.321439 0.000000
  outer loop
   vertex -1684.338595 -2731.821399 -870.000000
   vertex -1680.302151 -2719.930418 -870.000000
   vertex -1684.338595 -2731.821399 -450.000000
  endloop
 endfacet
 facet normal 0.896873 -0.442289 0.000000
  outer loop
   vertex -1674.748154 -2708.668027 -870.000000
   vertex -1674.748154 -2708.668027 -450.000000
   vertex -1680.302151 -2719.930418 -450.000000
  endloop
 endfacet
 facet normal 0.896873 -0.442289 0.000000
  outer loop
   vertex -1680.302151 -2719.930418 -870.000000
   vertex -1674.748154 -2708.668027 -870.000000
   vertex -1680.302151 -2719.930418 -450.000000
  endloop
 endfacet
 facet normal 0.831470 -0.555570 0.000000
  outer loop
   vertex -1667.771636 -2698.226930 -870.000000
   vertex -1667.771636 -2698.226930 -450.000000
   vertex -1674.748154 -2708.668027 -450.000000
  endloop
 endfacet
 facet normal 0.831470 -0.555570 0.000000
  outer loop
   vertex -1674.748154 -2708.668027 -870.000000
   vertex -1667.771636 -2698.226930 -870.000000
   vertex -1674.748154 -2708.668027 -450.000000
  endloop
 endfacet
 facet normal 0.751840 -0.659346 0.000000
  outer loop
   vertex -1659.491967 -2688.785776 -870.000000
   vertex -1659.491967 -2688.785776 -450.000000
   vertex -1667.771636 -2698.226930 -450.000000
  endloop
 endfacet
 facet normal 0.751840 -0.659346 0.000000
  outer loop
   vertex -1667.771636 -2698.226930 -870.000000
   vertex -1659.491967 -2688.785776 -870.000000
   vertex -1667.771636 -2698.226930 -450.000000
  endloop
 endfacet
 facet normal 0.659346 -0.751840 0.000000
  outer loop
   vertex -1650.050813 -2680.506107 -870.000000
   vertex -1650.050813 -2680.506107 -450.000000
   vertex -1659.491967 -2688.785776 -450.000000
  endloop
 endfacet
 facet normal 0.659346 -0.751840 0.000000
  outer loop
   vertex -1659.491967 -2688.785776 -870.000000
   vertex -1650.050813 -2680.506107 -870.000000
   vertex -1659.491967 -2688.785776 -450.000000
  endloop
 endfacet
 facet normal 0.555570 -0.831470 0.000000
  outer loop
   vertex -1639.609716 -2673.529589 -870.000000
   vertex -1639.609716 -2673.529589 -450.000000
   vertex -1650.050813 -2680.506107 -450.000000
  endloop
 endfacet
 facet normal 0.555570 -0.831470 0.000000
  outer loop
   vertex -1650.050813 -2680.506107 -870.000000
   vertex -1639.609716 -2673.529589 -870.000000
   vertex -1650.050813 -2680.506107 -450.000000
  endloop
 endfacet
 facet normal 0.442289 -0.896873 0.000000
  outer loop
   vertex -1628.347325 -2667.975592 -870.000000
   vertex -1628.347325 -2667.975592 -450.000000
   vertex -1639.609716 -2673.529589 -450.000000
  endloop
 endfacet
 facet normal 0.442289 -0.896873 0.000000
  outer loop
   vertex -1639.609716 -2673.529589 -870.000000
   vertex -1628.347325 -2667.975592 -870.000000
   vertex -1639.609716 -2673.529589 -450.000000
  endloop
 endfacet
 facet normal 0.321439 -0.946930 0.000000
  outer loop
   vertex -1616.456344 -2663.939148 -870.000000
   vertex -1616.456344 -2663.939148 -450.000000
   vertex -1628.347325 -2667.975592 -450.000000
  endloop
 endfacet
 facet normal 0.321439 -0.946930 0.000000
  outer loop
   vertex -1628.347325 -2667.975592 -870.000000
   vertex -1616.456344 -2663.939148 -870.000000
   vertex -1628.347325 -2667.975592 -450.000000
  endloop
 endfacet
 facet normal 0.195090 -0.980785 0.000000
  outer loop
   vertex -1604.140230 -2661.489321 -870.000000
   vertex -1604.140230 -2661.489321 -450.000000
   vertex -1616.456344 -2663.939148 -450.000000
  endloop
 endfacet
 facet normal 0.195090 -0.980785 0.000000
  outer loop
   vertex -1616.456344 -2663.939148 -870.000000
   vertex -1604.140230 -2661.489321 -870.000000
   vertex -1616.456344 -2663.939148 -450.000000
  endloop
 endfacet
 facet normal 0.065403 -0.997859 0.000000
  outer loop
   vertex -1591.609716 -2660.668027 -870.000000
   vertex -1591.609716 -2660.668027 -450.000000
   vertex -1604.140230 -2661.489321 -450.000000
  endloop
 endfacet
 facet normal 0.065403 -0.997859 0.000000
  outer loop
   vertex -1604.140230 -2661.489321 -870.000000
   vertex -1591.609716 -2660.668027 -870.000000
   vertex -1604.140230 -2661.489321 -450.000000
  endloop
 endfacet
endsolid SIC_LOX_feed_3_elbow
