solid SII_LOX_feed_3_Hrun
 facet normal -0.864098 0.500926 0.049068
  outer loop
   vertex -1652.668168 -2671.401865 45200.000000
   vertex -1652.293238 -2671.619216 45208.821543
   vertex -1181.487670 -1859.479611 45208.821543
  endloop
 endfacet
 facet normal -0.864098 0.500926 0.049068
  outer loop
   vertex -1652.668168 -2671.401865 45200.000000
   vertex -1181.487670 -1859.479611 45208.821543
   vertex -1181.862600 -1859.262261 45200.000000
  endloop
 endfacet
 facet normal -0.855776 0.496102 0.146730
  outer loop
   vertex -1652.293238 -2671.619216 45208.821543
   vertex -1651.172060 -2672.269174 45217.558129
   vertex -1180.366492 -1860.129570 45217.558129
  endloop
 endfacet
 facet normal -0.855776 0.496102 0.146730
  outer loop
   vertex -1652.293238 -2671.619216 45208.821543
   vertex -1180.366492 -1860.129570 45217.558129
   vertex -1181.487670 -1859.479611 45208.821543
  endloop
 endfacet
 facet normal -0.839213 0.486500 0.242980
  outer loop
   vertex -1651.172060 -2672.269174 45217.558129
   vertex -1649.315431 -2673.345481 45226.125621
   vertex -1178.509863 -1861.205877 45226.125621
  endloop
 endfacet
 facet normal -0.839213 0.486500 0.242980
  outer loop
   vertex -1651.172060 -2672.269174 45217.558129
   vertex -1178.509863 -1861.205877 45226.125621
   vertex -1180.366492 -1860.129570 45217.558129
  endloop
 endfacet
 facet normal -0.814567 0.472213 0.336890
  outer loop
   vertex -1649.315431 -2673.345481 45226.125621
   vertex -1646.741230 -2674.837771 45234.441509
   vertex -1175.935663 -1862.698167 45234.441509
  endloop
 endfacet
 facet normal -0.814567 0.472213 0.336890
  outer loop
   vertex -1649.315431 -2673.345481 45226.125621
   vertex -1175.935663 -1862.698167 45234.441509
   vertex -1178.509863 -1861.205877 45226.125621
  endloop
 endfacet
 facet normal -0.782077 0.453378 0.427555
  outer loop
   vertex -1646.741230 -2674.837771 45234.441509
   vertex -1643.474251 -2676.731673 45242.425706
   vertex -1172.668683 -1864.592068 45242.425706
  endloop
 endfacet
 facet normal -0.782077 0.453378 0.427555
  outer loop
   vertex -1646.741230 -2674.837771 45234.441509
   vertex -1172.668683 -1864.592068 45242.425706
   vertex -1175.935663 -1862.698167 45234.441509
  endloop
 endfacet
 facet normal -0.742055 0.430177 0.514103
  outer loop
   vertex -1643.474251 -2676.731673 45242.425706
   vertex -1639.545954 -2679.008946 45250.001321
   vertex -1168.740386 -1866.869341 45250.001321
  endloop
 endfacet
 facet normal -0.742055 0.430177 0.514103
  outer loop
   vertex -1643.474251 -2676.731673 45242.425706
   vertex -1168.740386 -1866.869341 45250.001321
   vertex -1172.668683 -1864.592068 45242.425706
  endloop
 endfacet
 facet normal -0.694887 0.402833 0.595699
  outer loop
   vertex -1639.545954 -2679.008946 45250.001321
   vertex -1634.994172 -2681.647660 45257.095396
   vertex -1164.188604 -1869.508056 45257.095396
  endloop
 endfacet
 facet normal -0.694887 0.402833 0.595699
  outer loop
   vertex -1639.545954 -2679.008946 45250.001321
   vertex -1164.188604 -1869.508056 45257.095396
   vertex -1168.740386 -1866.869341 45250.001321
  endloop
 endfacet
 facet normal -0.641026 0.371610 0.671559
  outer loop
   vertex -1634.994172 -2681.647660 45257.095396
   vertex -1629.862740 -2684.622403 45263.639610
   vertex -1159.057173 -1872.482799 45263.639610
  endloop
 endfacet
 facet normal -0.641026 0.371610 0.671559
  outer loop
   vertex -1634.994172 -2681.647660 45257.095396
   vertex -1159.057173 -1872.482799 45263.639610
   vertex -1164.188604 -1869.508056 45257.095396
  endloop
 endfacet
 facet normal -0.580993 0.336807 0.740951
  outer loop
   vertex -1629.862740 -2684.622403 45263.639610
   vertex -1624.201078 -2687.904526 45269.570941
   vertex -1153.395511 -1875.764921 45269.570941
  endloop
 endfacet
 facet normal -0.580993 0.336807 0.740951
  outer loop
   vertex -1629.862740 -2684.622403 45263.639610
   vertex -1153.395511 -1875.764921 45269.570941
   vertex -1159.057173 -1872.482799 45263.639610
  endloop
 endfacet
 facet normal -0.515363 0.298761 0.803208
  outer loop
   vertex -1624.201078 -2687.904526 45269.570941
   vertex -1618.063711 -2691.462420 45274.832265
   vertex -1147.258143 -1879.322816 45274.832265
  endloop
 endfacet
 facet normal -0.515363 0.298761 0.803208
  outer loop
   vertex -1624.201078 -2687.904526 45269.570941
   vertex -1147.258143 -1879.322816 45274.832265
   vertex -1153.395511 -1875.764921 45269.570941
  endloop
 endfacet
 facet normal -0.444771 0.257838 0.857729
  outer loop
   vertex -1618.063711 -2691.462420 45274.832265
   vertex -1611.509744 -2695.261822 45279.372914
   vertex -1140.704176 -1883.122217 45279.372914
  endloop
 endfacet
 facet normal -0.444771 0.257838 0.857729
  outer loop
   vertex -1618.063711 -2691.462420 45274.832265
   vertex -1140.704176 -1883.122217 45279.372914
   vertex -1147.258143 -1879.322816 45274.832265
  endloop
 endfacet
 facet normal -0.369895 0.214432 0.903989
  outer loop
   vertex -1611.509744 -2695.261822 45279.372914
   vertex -1604.602295 -2699.266140 45283.149158
   vertex -1133.796727 -1887.126535 45283.149158
  endloop
 endfacet
 facet normal -0.369895 0.214432 0.903989
  outer loop
   vertex -1611.509744 -2695.261822 45279.372914
   vertex -1133.796727 -1887.126535 45283.149158
   vertex -1140.704176 -1883.122217 45279.372914
  endloop
 endfacet
 facet normal -0.291457 0.168961 0.941544
  outer loop
   vertex -1604.602295 -2699.266140 45283.149158
   vertex -1597.407888 -2703.436811 45286.124630
   vertex -1126.602320 -1891.297206 45286.124630
  endloop
 endfacet
 facet normal -0.291457 0.168961 0.941544
  outer loop
   vertex -1604.602295 -2699.266140 45283.149158
   vertex -1126.602320 -1891.297206 45286.124630
   vertex -1133.796727 -1887.126535 45283.149158
  endloop
 endfacet
 facet normal -0.210212 0.121862 0.970031
  outer loop
   vertex -1597.407888 -2703.436811 45286.124630
   vertex -1589.995808 -2707.733669 45288.270675
   vertex -1119.190240 -1895.594064 45288.270675
  endloop
 endfacet
 facet normal -0.210212 0.121862 0.970031
  outer loop
   vertex -1597.407888 -2703.436811 45286.124630
   vertex -1119.190240 -1895.594064 45288.270675
   vertex -1126.602320 -1891.297206 45286.124630
  endloop
 endfacet
 facet normal -0.126942 0.073590 0.989177
  outer loop
   vertex -1589.995808 -2707.733669 45288.270675
   vertex -1582.437437 -2712.115332 45289.566625
   vertex -1111.631869 -1899.975728 45289.566625
  endloop
 endfacet
 facet normal -0.126942 0.073590 0.989177
  outer loop
   vertex -1589.995808 -2707.733669 45288.270675
   vertex -1111.631869 -1899.975728 45289.566625
   vertex -1119.190240 -1895.594064 45288.270675
  endloop
 endfacet
 facet normal -0.042450 0.024609 0.998795
  outer loop
   vertex -1582.437437 -2712.115332 45289.566625
   vertex -1574.805568 -2716.539605 45290.000000
   vertex -1104.000000 -1904.400000 45290.000000
  endloop
 endfacet
 facet normal -0.042450 0.024609 0.998795
  outer loop
   vertex -1582.437437 -2712.115332 45289.566625
   vertex -1104.000000 -1904.400000 45290.000000
   vertex -1111.631869 -1899.975728 45289.566625
  endloop
 endfacet
 facet normal 0.042450 -0.024609 0.998795
  outer loop
   vertex -1574.805568 -2716.539605 45290.000000
   vertex -1567.173698 -2720.963877 45289.566625
   vertex -1096.368131 -1908.824272 45289.566625
  endloop
 endfacet
 facet normal 0.042450 -0.024609 0.998795
  outer loop
   vertex -1574.805568 -2716.539605 45290.000000
   vertex -1096.368131 -1908.824272 45289.566625
   vertex -1104.000000 -1904.400000 45290.000000
  endloop
 endfacet
 facet normal 0.126942 -0.073590 0.989177
  outer loop
   vertex -1567.173698 -2720.963877 45289.566625
   vertex -1559.615328 -2725.345541 45288.270675
   vertex -1088.809760 -1913.205936 45288.270675
  endloop
 endfacet
 facet normal 0.126942 -0.073590 0.989177
  outer loop
   vertex -1567.173698 -2720.963877 45289.566625
   vertex -1088.809760 -1913.205936 45288.270675
   vertex -1096.368131 -1908.824272 45289.566625
  endloop
 endfacet
 facet normal 0.210212 -0.121862 0.970031
  outer loop
   vertex -1559.615328 -2725.345541 45288.270675
   vertex -1552.203248 -2729.642399 45286.124630
   vertex -1081.397680 -1917.502794 45286.124630
  endloop
 endfacet
 facet normal 0.210212 -0.121862 0.970031
  outer loop
   vertex -1559.615328 -2725.345541 45288.270675
   vertex -1081.397680 -1917.502794 45286.124630
   vertex -1088.809760 -1913.205936 45288.270675
  endloop
 endfacet
 facet normal 0.291457 -0.168961 0.941544
  outer loop
   vertex -1552.203248 -2729.642399 45286.124630
   vertex -1545.008841 -2733.813070 45283.149158
   vertex -1074.203273 -1921.673465 45283.149158
  endloop
 endfacet
 facet normal 0.291457 -0.168961 0.941544
  outer loop
   vertex -1552.203248 -2729.642399 45286.124630
   vertex -1074.203273 -1921.673465 45283.149158
   vertex -1081.397680 -1917.502794 45286.124630
  endloop
 endfacet
 facet normal 0.369895 -0.214432 0.903989
  outer loop
   vertex -1545.008841 -2733.813070 45283.149158
   vertex -1538.101392 -2737.817388 45279.372914
   vertex -1067.295824 -1925.677783 45279.372914
  endloop
 endfacet
 facet normal 0.369895 -0.214432 0.903989
  outer loop
   vertex -1545.008841 -2733.813070 45283.149158
   vertex -1067.295824 -1925.677783 45279.372914
   vertex -1074.203273 -1921.673465 45283.149158
  endloop
 endfacet
 facet normal 0.444771 -0.257838 0.857729
  outer loop
   vertex -1538.101392 -2737.817388 45279.372914
   vertex -1531.547425 -2741.616789 45274.832265
   vertex -1060.741857 -1929.477184 45274.832265
  endloop
 endfacet
 facet normal 0.444771 -0.257838 0.857729
  outer loop
   vertex -1538.101392 -2737.817388 45279.372914
   vertex -1060.741857 -1929.477184 45274.832265
   vertex -1067.295824 -1925.677783 45279.372914
  endloop
 endfacet
 facet normal 0.515363 -0.298761 0.803208
  outer loop
   vertex -1531.547425 -2741.616789 45274.832265
   vertex -1525.410057 -2745.174683 45269.570941
   vertex -1054.604489 -1933.035079 45269.570941
  endloop
 endfacet
 facet normal 0.515363 -0.298761 0.803208
  outer loop
   vertex -1531.547425 -2741.616789 45274.832265
   vertex -1054.604489 -1933.035079 45269.570941
   vertex -1060.741857 -1929.477184 45274.832265
  endloop
 endfacet
 facet normal 0.580993 -0.336807 0.740951
  outer loop
   vertex -1525.410057 -2745.174683 45269.570941
   vertex -1519.748395 -2748.456806 45263.639610
   vertex -1048.942827 -1936.317201 45263.639610
  endloop
 endfacet
 facet normal 0.580993 -0.336807 0.740951
  outer loop
   vertex -1525.410057 -2745.174683 45269.570941
   vertex -1048.942827 -1936.317201 45263.639610
   vertex -1054.604489 -1933.035079 45269.570941
  endloop
 endfacet
 facet normal 0.641026 -0.371610 0.671559
  outer loop
   vertex -1519.748395 -2748.456806 45263.639610
   vertex -1514.616964 -2751.431549 45257.095396
   vertex -1043.811396 -1939.291944 45257.095396
  endloop
 endfacet
 facet normal 0.641026 -0.371610 0.671559
  outer loop
   vertex -1519.748395 -2748.456806 45263.639610
   vertex -1043.811396 -1939.291944 45257.095396
   vertex -1048.942827 -1936.317201 45263.639610
  endloop
 endfacet
 facet normal 0.694887 -0.402833 0.595699
  outer loop
   vertex -1514.616964 -2751.431549 45257.095396
   vertex -1510.065182 -2754.070263 45250.001321
   vertex -1039.259614 -1941.930659 45250.001321
  endloop
 endfacet
 facet normal 0.694887 -0.402833 0.595699
  outer loop
   vertex -1514.616964 -2751.431549 45257.095396
   vertex -1039.259614 -1941.930659 45250.001321
   vertex -1043.811396 -1939.291944 45257.095396
  endloop
 endfacet
 facet normal 0.742055 -0.430177 0.514103
  outer loop
   vertex -1510.065182 -2754.070263 45250.001321
   vertex -1506.136885 -2756.347537 45242.425706
   vertex -1035.331317 -1944.207932 45242.425706
  endloop
 endfacet
 facet normal 0.742055 -0.430177 0.514103
  outer loop
   vertex -1510.065182 -2754.070263 45250.001321
   vertex -1035.331317 -1944.207932 45242.425706
   vertex -1039.259614 -1941.930659 45250.001321
  endloop
 endfacet
 facet normal 0.782077 -0.453378 0.427555
  outer loop
   vertex -1506.136885 -2756.347537 45242.425706
   vertex -1502.869905 -2758.241438 45234.441509
   vertex -1032.064337 -1946.101833 45234.441509
  endloop
 endfacet
 facet normal 0.782077 -0.453378 0.427555
  outer loop
   vertex -1506.136885 -2756.347537 45242.425706
   vertex -1032.064337 -1946.101833 45234.441509
   vertex -1035.331317 -1944.207932 45242.425706
  endloop
 endfacet
 facet normal 0.814567 -0.472213 0.336890
  outer loop
   vertex -1502.869905 -2758.241438 45234.441509
   vertex -1500.295705 -2759.733728 45226.125621
   vertex -1029.490137 -1947.594123 45226.125621
  endloop
 endfacet
 facet normal 0.814567 -0.472213 0.336890
  outer loop
   vertex -1502.869905 -2758.241438 45234.441509
   vertex -1029.490137 -1947.594123 45226.125621
   vertex -1032.064337 -1946.101833 45234.441509
  endloop
 endfacet
 facet normal 0.839213 -0.486500 0.242980
  outer loop
   vertex -1500.295705 -2759.733728 45226.125621
   vertex -1498.439076 -2760.810035 45217.558129
   vertex -1027.633508 -1948.670430 45217.558129
  endloop
 endfacet
 facet normal 0.839213 -0.486500 0.242980
  outer loop
   vertex -1500.295705 -2759.733728 45226.125621
   vertex -1027.633508 -1948.670430 45217.558129
   vertex -1029.490137 -1947.594123 45226.125621
  endloop
 endfacet
 facet normal 0.855776 -0.496102 0.146730
  outer loop
   vertex -1498.439076 -2760.810035 45217.558129
   vertex -1497.317897 -2761.459993 45208.821543
   vertex -1026.512330 -1949.320389 45208.821543
  endloop
 endfacet
 facet normal 0.855776 -0.496102 0.146730
  outer loop
   vertex -1498.439076 -2760.810035 45217.558129
   vertex -1026.512330 -1949.320389 45208.821543
   vertex -1027.633508 -1948.670430 45217.558129
  endloop
 endfacet
 facet normal 0.864098 -0.500926 0.049068
  outer loop
   vertex -1497.317897 -2761.459993 45208.821543
   vertex -1496.942968 -2761.677344 45200.000000
   vertex -1026.137400 -1949.537739 45200.000000
  endloop
 endfacet
 facet normal 0.864098 -0.500926 0.049068
  outer loop
   vertex -1497.317897 -2761.459993 45208.821543
   vertex -1026.137400 -1949.537739 45200.000000
   vertex -1026.512330 -1949.320389 45208.821543
  endloop
 endfacet
 facet normal 0.864098 -0.500926 -0.049068
  outer loop
   vertex -1496.942968 -2761.677344 45200.000000
   vertex -1497.317897 -2761.459993 45191.178457
   vertex -1026.512330 -1949.320389 45191.178457
  endloop
 endfacet
 facet normal 0.864098 -0.500926 -0.049068
  outer loop
   vertex -1496.942968 -2761.677344 45200.000000
   vertex -1026.512330 -1949.320389 45191.178457
   vertex -1026.137400 -1949.537739 45200.000000
  endloop
 endfacet
 facet normal 0.855776 -0.496102 -0.146730
  outer loop
   vertex -1497.317897 -2761.459993 45191.178457
   vertex -1498.439076 -2760.810035 45182.441871
   vertex -1027.633508 -1948.670430 45182.441871
  endloop
 endfacet
 facet normal 0.855776 -0.496102 -0.146730
  outer loop
   vertex -1497.317897 -2761.459993 45191.178457
   vertex -1027.633508 -1948.670430 45182.441871
   vertex -1026.512330 -1949.320389 45191.178457
  endloop
 endfacet
 facet normal 0.839213 -0.486500 -0.242980
  outer loop
   vertex -1498.439076 -2760.810035 45182.441871
   vertex -1500.295705 -2759.733728 45173.874379
   vertex -1029.490137 -1947.594123 45173.874379
  endloop
 endfacet
 facet normal 0.839213 -0.486500 -0.242980
  outer loop
   vertex -1498.439076 -2760.810035 45182.441871
   vertex -1029.490137 -1947.594123 45173.874379
   vertex -1027.633508 -1948.670430 45182.441871
  endloop
 endfacet
 facet normal 0.814567 -0.472213 -0.336890
  outer loop
   vertex -1500.295705 -2759.733728 45173.874379
   vertex -1502.869905 -2758.241438 45165.558491
   vertex -1032.064337 -1946.101833 45165.558491
  endloop
 endfacet
 facet normal 0.814567 -0.472213 -0.336890
  outer loop
   vertex -1500.295705 -2759.733728 45173.874379
   vertex -1032.064337 -1946.101833 45165.558491
   vertex -1029.490137 -1947.594123 45173.874379
  endloop
 endfacet
 facet normal 0.782077 -0.453378 -0.427555
  outer loop
   vertex -1502.869905 -2758.241438 45165.558491
   vertex -1506.136885 -2756.347537 45157.574294
   vertex -1035.331317 -1944.207932 45157.574294
  endloop
 endfacet
 facet normal 0.782077 -0.453378 -0.427555
  outer loop
   vertex -1502.869905 -2758.241438 45165.558491
   vertex -1035.331317 -1944.207932 45157.574294
   vertex -1032.064337 -1946.101833 45165.558491
  endloop
 endfacet
 facet normal 0.742055 -0.430177 -0.514103
  outer loop
   vertex -1506.136885 -2756.347537 45157.574294
   vertex -1510.065182 -2754.070263 45149.998679
   vertex -1039.259614 -1941.930659 45149.998679
  endloop
 endfacet
 facet normal 0.742055 -0.430177 -0.514103
  outer loop
   vertex -1506.136885 -2756.347537 45157.574294
   vertex -1039.259614 -1941.930659 45149.998679
   vertex -1035.331317 -1944.207932 45157.574294
  endloop
 endfacet
 facet normal 0.694887 -0.402833 -0.595699
  outer loop
   vertex -1510.065182 -2754.070263 45149.998679
   vertex -1514.616964 -2751.431549 45142.904604
   vertex -1043.811396 -1939.291944 45142.904604
  endloop
 endfacet
 facet normal 0.694887 -0.402833 -0.595699
  outer loop
   vertex -1510.065182 -2754.070263 45149.998679
   vertex -1043.811396 -1939.291944 45142.904604
   vertex -1039.259614 -1941.930659 45149.998679
  endloop
 endfacet
 facet normal 0.641026 -0.371610 -0.671559
  outer loop
   vertex -1514.616964 -2751.431549 45142.904604
   vertex -1519.748395 -2748.456806 45136.360390
   vertex -1048.942827 -1936.317201 45136.360390
  endloop
 endfacet
 facet normal 0.641026 -0.371610 -0.671559
  outer loop
   vertex -1514.616964 -2751.431549 45142.904604
   vertex -1048.942827 -1936.317201 45136.360390
   vertex -1043.811396 -1939.291944 45142.904604
  endloop
 endfacet
 facet normal 0.580993 -0.336807 -0.740951
  outer loop
   vertex -1519.748395 -2748.456806 45136.360390
   vertex -1525.410057 -2745.174683 45130.429059
   vertex -1054.604489 -1933.035079 45130.429059
  endloop
 endfacet
 facet normal 0.580993 -0.336807 -0.740951
  outer loop
   vertex -1519.748395 -2748.456806 45136.360390
   vertex -1054.604489 -1933.035079 45130.429059
   vertex -1048.942827 -1936.317201 45136.360390
  endloop
 endfacet
 facet normal 0.515363 -0.298761 -0.803208
  outer loop
   vertex -1525.410057 -2745.174683 45130.429059
   vertex -1531.547425 -2741.616789 45125.167735
   vertex -1060.741857 -1929.477184 45125.167735
  endloop
 endfacet
 facet normal 0.515363 -0.298761 -0.803208
  outer loop
   vertex -1525.410057 -2745.174683 45130.429059
   vertex -1060.741857 -1929.477184 45125.167735
   vertex -1054.604489 -1933.035079 45130.429059
  endloop
 endfacet
 facet normal 0.444771 -0.257838 -0.857729
  outer loop
   vertex -1531.547425 -2741.616789 45125.167735
   vertex -1538.101392 -2737.817388 45120.627086
   vertex -1067.295824 -1925.677783 45120.627086
  endloop
 endfacet
 facet normal 0.444771 -0.257838 -0.857729
  outer loop
   vertex -1531.547425 -2741.616789 45125.167735
   vertex -1067.295824 -1925.677783 45120.627086
   vertex -1060.741857 -1929.477184 45125.167735
  endloop
 endfacet
 facet normal 0.369895 -0.214432 -0.903989
  outer loop
   vertex -1538.101392 -2737.817388 45120.627086
   vertex -1545.008841 -2733.813070 45116.850842
   vertex -1074.203273 -1921.673465 45116.850842
  endloop
 endfacet
 facet normal 0.369895 -0.214432 -0.903989
  outer loop
   vertex -1538.101392 -2737.817388 45120.627086
   vertex -1074.203273 -1921.673465 45116.850842
   vertex -1067.295824 -1925.677783 45120.627086
  endloop
 endfacet
 facet normal 0.291457 -0.168961 -0.941544
  outer loop
   vertex -1545.008841 -2733.813070 45116.850842
   vertex -1552.203248 -2729.642399 45113.875370
   vertex -1081.397680 -1917.502794 45113.875370
  endloop
 endfacet
 facet normal 0.291457 -0.168961 -0.941544
  outer loop
   vertex -1545.008841 -2733.813070 45116.850842
   vertex -1081.397680 -1917.502794 45113.875370
   vertex -1074.203273 -1921.673465 45116.850842
  endloop
 endfacet
 facet normal 0.210212 -0.121862 -0.970031
  outer loop
   vertex -1552.203248 -2729.642399 45113.875370
   vertex -1559.615328 -2725.345541 45111.729325
   vertex -1088.809760 -1913.205936 45111.729325
  endloop
 endfacet
 facet normal 0.210212 -0.121862 -0.970031
  outer loop
   vertex -1552.203248 -2729.642399 45113.875370
   vertex -1088.809760 -1913.205936 45111.729325
   vertex -1081.397680 -1917.502794 45113.875370
  endloop
 endfacet
 facet normal 0.126942 -0.073590 -0.989177
  outer loop
   vertex -1559.615328 -2725.345541 45111.729325
   vertex -1567.173698 -2720.963877 45110.433375
   vertex -1096.368131 -1908.824272 45110.433375
  endloop
 endfacet
 facet normal 0.126942 -0.073590 -0.989177
  outer loop
   vertex -1559.615328 -2725.345541 45111.729325
   vertex -1096.368131 -1908.824272 45110.433375
   vertex -1088.809760 -1913.205936 45111.729325
  endloop
 endfacet
 facet normal 0.042450 -0.024609 -0.998795
  outer loop
   vertex -1567.173698 -2720.963877 45110.433375
   vertex -1574.805568 -2716.539605 45110.000000
   vertex -1104.000000 -1904.400000 45110.000000
  endloop
 endfacet
 facet normal 0.042450 -0.024609 -0.998795
  outer loop
   vertex -1567.173698 -2720.963877 45110.433375
   vertex -1104.000000 -1904.400000 45110.000000
   vertex -1096.368131 -1908.824272 45110.433375
  endloop
 endfacet
 facet normal -0.042450 0.024609 -0.998795
  outer loop
   vertex -1574.805568 -2716.539605 45110.000000
   vertex -1582.437437 -2712.115332 45110.433375
   vertex -1111.631869 -1899.975728 45110.433375
  endloop
 endfacet
 facet normal -0.042450 0.024609 -0.998795
  outer loop
   vertex -1574.805568 -2716.539605 45110.000000
   vertex -1111.631869 -1899.975728 45110.433375
   vertex -1104.000000 -1904.400000 45110.000000
  endloop
 endfacet
 facet normal -0.126942 0.073590 -0.989177
  outer loop
   vertex -1582.437437 -2712.115332 45110.433375
   vertex -1589.995808 -2707.733669 45111.729325
   vertex -1119.190240 -1895.594064 45111.729325
  endloop
 endfacet
 facet normal -0.126942 0.073590 -0.989177
  outer loop
   vertex -1582.437437 -2712.115332 45110.433375
   vertex -1119.190240 -1895.594064 45111.729325
   vertex -1111.631869 -1899.975728 45110.433375
  endloop
 endfacet
 facet normal -0.210212 0.121862 -0.970031
  outer loop
   vertex -1589.995808 -2707.733669 45111.729325
   vertex -1597.407888 -2703.436811 45113.875370
   vertex -1126.602320 -1891.297206 45113.875370
  endloop
 endfacet
 facet normal -0.210212 0.121862 -0.970031
  outer loop
   vertex -1589.995808 -2707.733669 45111.729325
   vertex -1126.602320 -1891.297206 45113.875370
   vertex -1119.190240 -1895.594064 45111.729325
  endloop
 endfacet
 facet normal -0.291457 0.168961 -0.941544
  outer loop
   vertex -1597.407888 -2703.436811 45113.875370
   vertex -1604.602295 -2699.266140 45116.850842
   vertex -1133.796727 -1887.126535 45116.850842
  endloop
 endfacet
 facet normal -0.291457 0.168961 -0.941544
  outer loop
   vertex -1597.407888 -2703.436811 45113.875370
   vertex -1133.796727 -1887.126535 45116.850842
   vertex -1126.602320 -1891.297206 45113.875370
  endloop
 endfacet
 facet normal -0.369895 0.214432 -0.903989
  outer loop
   vertex -1604.602295 -2699.266140 45116.850842
   vertex -1611.509744 -2695.261822 45120.627086
   vertex -1140.704176 -1883.122217 45120.627086
  endloop
 endfacet
 facet normal -0.369895 0.214432 -0.903989
  outer loop
   vertex -1604.602295 -2699.266140 45116.850842
   vertex -1140.704176 -1883.122217 45120.627086
   vertex -1133.796727 -1887.126535 45116.850842
  endloop
 endfacet
 facet normal -0.444771 0.257838 -0.857729
  outer loop
   vertex -1611.509744 -2695.261822 45120.627086
   vertex -1618.063711 -2691.462420 45125.167735
   vertex -1147.258143 -1879.322816 45125.167735
  endloop
 endfacet
 facet normal -0.444771 0.257838 -0.857729
  outer loop
   vertex -1611.509744 -2695.261822 45120.627086
   vertex -1147.258143 -1879.322816 45125.167735
   vertex -1140.704176 -1883.122217 45120.627086
  endloop
 endfacet
 facet normal -0.515363 0.298761 -0.803208
  outer loop
   vertex -1618.063711 -2691.462420 45125.167735
   vertex -1624.201078 -2687.904526 45130.429059
   vertex -1153.395511 -1875.764921 45130.429059
  endloop
 endfacet
 facet normal -0.515363 0.298761 -0.803208
  outer loop
   vertex -1618.063711 -2691.462420 45125.167735
   vertex -1153.395511 -1875.764921 45130.429059
   vertex -1147.258143 -1879.322816 45125.167735
  endloop
 endfacet
 facet normal -0.580993 0.336807 -0.740951
  outer loop
   vertex -1624.201078 -2687.904526 45130.429059
   vertex -1629.862740 -2684.622403 45136.360390
   vertex -1159.057173 -1872.482799 45136.360390
  endloop
 endfacet
 facet normal -0.580993 0.336807 -0.740951
  outer loop
   vertex -1624.201078 -2687.904526 45130.429059
   vertex -1159.057173 -1872.482799 45136.360390
   vertex -1153.395511 -1875.764921 45130.429059
  endloop
 endfacet
 facet normal -0.641026 0.371610 -0.671559
  outer loop
   vertex -1629.862740 -2684.622403 45136.360390
   vertex -1634.994172 -2681.647660 45142.904604
   vertex -1164.188604 -1869.508056 45142.904604
  endloop
 endfacet
 facet normal -0.641026 0.371610 -0.671559
  outer loop
   vertex -1629.862740 -2684.622403 45136.360390
   vertex -1164.188604 -1869.508056 45142.904604
   vertex -1159.057173 -1872.482799 45136.360390
  endloop
 endfacet
 facet normal -0.694887 0.402833 -0.595699
  outer loop
   vertex -1634.994172 -2681.647660 45142.904604
   vertex -1639.545954 -2679.008946 45149.998679
   vertex -1168.740386 -1866.869341 45149.998679
  endloop
 endfacet
 facet normal -0.694887 0.402833 -0.595699
  outer loop
   vertex -1634.994172 -2681.647660 45142.904604
   vertex -1168.740386 -1866.869341 45149.998679
   vertex -1164.188604 -1869.508056 45142.904604
  endloop
 endfacet
 facet normal -0.742055 0.430177 -0.514103
  outer loop
   vertex -1639.545954 -2679.008946 45149.998679
   vertex -1643.474251 -2676.731673 45157.574294
   vertex -1172.668683 -1864.592068 45157.574294
  endloop
 endfacet
 facet normal -0.742055 0.430177 -0.514103
  outer loop
   vertex -1639.545954 -2679.008946 45149.998679
   vertex -1172.668683 -1864.592068 45157.574294
   vertex -1168.740386 -1866.869341 45149.998679
  endloop
 endfacet
 facet normal -0.782077 0.453378 -0.427555
  outer loop
   vertex -1643.474251 -2676.731673 45157.574294
   vertex -1646.741230 -2674.837771 45165.558491
   vertex -1175.935663 -1862.698167 45165.558491
  endloop
 endfacet
 facet normal -0.782077 0.453378 -0.427555
  outer loop
   vertex -1643.474251 -2676.731673 45157.574294
   vertex -1175.935663 -1862.698167 45165.558491
   vertex -1172.668683 -1864.592068 45157.574294
  endloop
 endfacet
 facet normal -0.814567 0.472213 -0.336890
  outer loop
   vertex -1646.741230 -2674.837771 45165.558491
   vertex -1649.315431 -2673.345481 45173.874379
   vertex -1178.509863 -1861.205877 45173.874379
  endloop
 endfacet
 facet normal -0.814567 0.472213 -0.336890
  outer loop
   vertex -1646.741230 -2674.837771 45165.558491
   vertex -1178.509863 -1861.205877 45173.874379
   vertex -1175.935663 -1862.698167 45165.558491
  endloop
 endfacet
 facet normal -0.839213 0.486500 -0.242980
  outer loop
   vertex -1649.315431 -2673.345481 45173.874379
   vertex -1651.172060 -2672.269174 45182.441871
   vertex -1180.366492 -1860.129570 45182.441871
  endloop
 endfacet
 facet normal -0.839213 0.486500 -0.242980
  outer loop
   vertex -1649.315431 -2673.345481 45173.874379
   vertex -1180.366492 -1860.129570 45182.441871
   vertex -1178.509863 -1861.205877 45173.874379
  endloop
 endfacet
 facet normal -0.855776 0.496102 -0.146730
  outer loop
   vertex -1651.172060 -2672.269174 45182.441871
   vertex -1652.293238 -2671.619216 45191.178457
   vertex -1181.487670 -1859.479611 45191.178457
  endloop
 endfacet
 facet normal -0.855776 0.496102 -0.146730
  outer loop
   vertex -1651.172060 -2672.269174 45182.441871
   vertex -1181.487670 -1859.479611 45191.178457
   vertex -1180.366492 -1860.129570 45182.441871
  endloop
 endfacet
 facet normal -0.864098 0.500926 -0.049068
  outer loop
   vertex -1652.293238 -2671.619216 45191.178457
   vertex -1652.668168 -2671.401865 45200.000000
   vertex -1181.862600 -1859.262261 45200.000000
  endloop
 endfacet
 facet normal -0.864098 0.500926 -0.049068
  outer loop
   vertex -1652.293238 -2671.619216 45191.178457
   vertex -1181.862600 -1859.262261 45200.000000
   vertex -1181.487670 -1859.479611 45191.178457
  endloop
 endfacet
 facet normal 0.864098 -0.500926 -0.049068
  outer loop
   vertex -1172.877929 -1864.470766 45207.841371
   vertex -1643.683497 -2676.610370 45207.841371
   vertex -1644.016768 -2676.417170 45200.000000
  endloop
 endfacet
 facet normal 0.864098 -0.500926 -0.049068
  outer loop
   vertex -1173.211200 -1864.277565 45200.000000
   vertex -1172.877929 -1864.470766 45207.841371
   vertex -1644.016768 -2676.417170 45200.000000
  endloop
 endfacet
 facet normal 0.855776 -0.496102 -0.146730
  outer loop
   vertex -1171.881326 -1865.048506 45215.607226
   vertex -1642.686894 -2677.188111 45215.607226
   vertex -1643.683497 -2676.610370 45207.841371
  endloop
 endfacet
 facet normal 0.855776 -0.496102 -0.146730
  outer loop
   vertex -1172.877929 -1864.470766 45207.841371
   vertex -1171.881326 -1865.048506 45215.607226
   vertex -1643.683497 -2676.610370 45207.841371
  endloop
 endfacet
 facet normal 0.839213 -0.486500 -0.242980
  outer loop
   vertex -1170.230989 -1866.005224 45223.222774
   vertex -1641.036557 -2678.144828 45223.222774
   vertex -1642.686894 -2677.188111 45215.607226
  endloop
 endfacet
 facet normal 0.839213 -0.486500 -0.242980
  outer loop
   vertex -1171.881326 -1865.048506 45215.607226
   vertex -1170.230989 -1866.005224 45223.222774
   vertex -1642.686894 -2677.188111 45215.607226
  endloop
 endfacet
 facet normal 0.814567 -0.472213 -0.336890
  outer loop
   vertex -1167.942811 -1867.331704 45230.614675
   vertex -1638.748379 -2679.471308 45230.614675
   vertex -1641.036557 -2678.144828 45223.222774
  endloop
 endfacet
 facet normal 0.814567 -0.472213 -0.336890
  outer loop
   vertex -1170.230989 -1866.005224 45223.222774
   vertex -1167.942811 -1867.331704 45230.614675
   vertex -1641.036557 -2678.144828 45223.222774
  endloop
 endfacet
 facet normal 0.782077 -0.453378 -0.427555
  outer loop
   vertex -1165.038829 -1869.015172 45237.711739
   vertex -1635.844397 -2681.154776 45237.711739
   vertex -1638.748379 -2679.471308 45230.614675
  endloop
 endfacet
 facet normal 0.782077 -0.453378 -0.427555
  outer loop
   vertex -1167.942811 -1867.331704 45230.614675
   vertex -1165.038829 -1869.015172 45237.711739
   vertex -1638.748379 -2679.471308 45230.614675
  endloop
 endfacet
 facet normal 0.742055 -0.430177 -0.514103
  outer loop
   vertex -1161.547010 -1871.039415 45244.445619
   vertex -1632.352578 -2683.179019 45244.445619
   vertex -1635.844397 -2681.154776 45237.711739
  endloop
 endfacet
 facet normal 0.742055 -0.430177 -0.514103
  outer loop
   vertex -1165.038829 -1869.015172 45237.711739
   vertex -1161.547010 -1871.039415 45244.445619
   vertex -1635.844397 -2681.154776 45237.711739
  endloop
 endfacet
 facet normal 0.694887 -0.402833 -0.595699
  outer loop
   vertex -1157.500981 -1873.384938 45250.751463
   vertex -1628.306549 -2685.524543 45250.751463
   vertex -1632.352578 -2683.179019 45244.445619
  endloop
 endfacet
 facet normal 0.694887 -0.402833 -0.595699
  outer loop
   vertex -1161.547010 -1871.039415 45244.445619
   vertex -1157.500981 -1873.384938 45250.751463
   vertex -1632.352578 -2683.179019 45244.445619
  endloop
 endfacet
 facet normal 0.641026 -0.371610 -0.671559
  outer loop
   vertex -1152.939709 -1876.029154 45256.568542
   vertex -1623.745277 -2688.168759 45256.568542
   vertex -1628.306549 -2685.524543 45250.751463
  endloop
 endfacet
 facet normal 0.641026 -0.371610 -0.671559
  outer loop
   vertex -1157.500981 -1873.384938 45250.751463
   vertex -1152.939709 -1876.029154 45256.568542
   vertex -1628.306549 -2685.524543 45250.751463
  endloop
 endfacet
 facet normal 0.580993 -0.336807 -0.740951
  outer loop
   vertex -1147.907121 -1878.946597 45261.840836
   vertex -1618.712688 -2691.086201 45261.840836
   vertex -1623.745277 -2688.168759 45256.568542
  endloop
 endfacet
 facet normal 0.580993 -0.336807 -0.740951
  outer loop
   vertex -1152.939709 -1876.029154 45256.568542
   vertex -1147.907121 -1878.946597 45261.840836
   vertex -1623.745277 -2688.168759 45256.568542
  endloop
 endfacet
 facet normal 0.515363 -0.298761 -0.803208
  outer loop
   vertex -1142.451683 -1882.109170 45266.517569
   vertex -1613.257250 -2694.248774 45266.517569
   vertex -1618.712688 -2691.086201 45261.840836
  endloop
 endfacet
 facet normal 0.515363 -0.298761 -0.803208
  outer loop
   vertex -1147.907121 -1878.946597 45261.840836
   vertex -1142.451683 -1882.109170 45266.517569
   vertex -1618.712688 -2691.086201 45261.840836
  endloop
 endfacet
 facet normal 0.444771 -0.257838 -0.857729
  outer loop
   vertex -1136.625934 -1885.486415 45270.553701
   vertex -1607.431502 -2697.626020 45270.553701
   vertex -1613.257250 -2694.248774 45266.517569
  endloop
 endfacet
 facet normal 0.444771 -0.257838 -0.857729
  outer loop
   vertex -1142.451683 -1882.109170 45266.517569
   vertex -1136.625934 -1885.486415 45270.553701
   vertex -1613.257250 -2694.248774 45266.517569
  endloop
 endfacet
 facet normal 0.369895 -0.214432 -0.903989
  outer loop
   vertex -1130.485980 -1889.045809 45273.910363
   vertex -1601.291548 -2701.185414 45273.910363
   vertex -1607.431502 -2697.626020 45270.553701
  endloop
 endfacet
 facet normal 0.369895 -0.214432 -0.903989
  outer loop
   vertex -1136.625934 -1885.486415 45270.553701
   vertex -1130.485980 -1889.045809 45273.910363
   vertex -1607.431502 -2697.626020 45270.553701
  endloop
 endfacet
 facet normal 0.291457 -0.168961 -0.941544
  outer loop
   vertex -1124.090951 -1892.753072 45276.555227
   vertex -1594.896519 -2704.892677 45276.555227
   vertex -1601.291548 -2701.185414 45273.910363
  endloop
 endfacet
 facet normal 0.291457 -0.168961 -0.941544
  outer loop
   vertex -1130.485980 -1889.045809 45273.910363
   vertex -1124.090951 -1892.753072 45276.555227
   vertex -1601.291548 -2701.185414 45273.910363
  endloop
 endfacet
 facet normal 0.210212 -0.121862 -0.970031
  outer loop
   vertex -1117.502435 -1896.572501 45278.462822
   vertex -1588.308003 -2708.712106 45278.462822
   vertex -1594.896519 -2704.892677 45276.555227
  endloop
 endfacet
 facet normal 0.210212 -0.121862 -0.970031
  outer loop
   vertex -1124.090951 -1892.753072 45276.555227
   vertex -1117.502435 -1896.572501 45278.462822
   vertex -1594.896519 -2704.892677 45276.555227
  endloop
 endfacet
 facet normal 0.126942 -0.073590 -0.989177
  outer loop
   vertex -1110.783884 -1900.467314 45279.614778
   vertex -1581.589452 -2712.606918 45279.614778
   vertex -1588.308003 -2708.712106 45278.462822
  endloop
 endfacet
 facet normal 0.126942 -0.073590 -0.989177
  outer loop
   vertex -1117.502435 -1896.572501 45278.462822
   vertex -1110.783884 -1900.467314 45279.614778
   vertex -1588.308003 -2708.712106 45278.462822
  endloop
 endfacet
 facet normal 0.042450 -0.024609 -0.998795
  outer loop
   vertex -1104.000000 -1904.400000 45280.000000
   vertex -1574.805568 -2716.539605 45280.000000
   vertex -1581.589452 -2712.606918 45279.614778
  endloop
 endfacet
 facet normal 0.042450 -0.024609 -0.998795
  outer loop
   vertex -1110.783884 -1900.467314 45279.614778
   vertex -1104.000000 -1904.400000 45280.000000
   vertex -1581.589452 -2712.606918 45279.614778
  endloop
 endfacet
 facet normal -0.042450 0.024609 -0.998795
  outer loop
   vertex -1097.216116 -1908.332686 45279.614778
   vertex -1568.021684 -2720.472291 45279.614778
   vertex -1574.805568 -2716.539605 45280.000000
  endloop
 endfacet
 facet normal -0.042450 0.024609 -0.998795
  outer loop
   vertex -1104.000000 -1904.400000 45280.000000
   vertex -1097.216116 -1908.332686 45279.614778
   vertex -1574.805568 -2716.539605 45280.000000
  endloop
 endfacet
 facet normal -0.126942 0.073590 -0.989177
  outer loop
   vertex -1090.497565 -1912.227499 45278.462822
   vertex -1561.303133 -2724.367103 45278.462822
   vertex -1568.021684 -2720.472291 45279.614778
  endloop
 endfacet
 facet normal -0.126942 0.073590 -0.989177
  outer loop
   vertex -1097.216116 -1908.332686 45279.614778
   vertex -1090.497565 -1912.227499 45278.462822
   vertex -1568.021684 -2720.472291 45279.614778
  endloop
 endfacet
 facet normal -0.210212 0.121862 -0.970031
  outer loop
   vertex -1083.909049 -1916.046928 45276.555227
   vertex -1554.714617 -2728.186533 45276.555227
   vertex -1561.303133 -2724.367103 45278.462822
  endloop
 endfacet
 facet normal -0.210212 0.121862 -0.970031
  outer loop
   vertex -1090.497565 -1912.227499 45278.462822
   vertex -1083.909049 -1916.046928 45276.555227
   vertex -1561.303133 -2724.367103 45278.462822
  endloop
 endfacet
 facet normal -0.291457 0.168961 -0.941544
  outer loop
   vertex -1077.514020 -1919.754191 45273.910363
   vertex -1548.319588 -2731.893796 45273.910363
   vertex -1554.714617 -2728.186533 45276.555227
  endloop
 endfacet
 facet normal -0.291457 0.168961 -0.941544
  outer loop
   vertex -1083.909049 -1916.046928 45276.555227
   vertex -1077.514020 -1919.754191 45273.910363
   vertex -1554.714617 -2728.186533 45276.555227
  endloop
 endfacet
 facet normal -0.369895 0.214432 -0.903989
  outer loop
   vertex -1071.374066 -1923.313585 45270.553701
   vertex -1542.179634 -2735.453189 45270.553701
   vertex -1548.319588 -2731.893796 45273.910363
  endloop
 endfacet
 facet normal -0.369895 0.214432 -0.903989
  outer loop
   vertex -1077.514020 -1919.754191 45273.910363
   vertex -1071.374066 -1923.313585 45270.553701
   vertex -1548.319588 -2731.893796 45273.910363
  endloop
 endfacet
 facet normal -0.444771 0.257838 -0.857729
  outer loop
   vertex -1065.548317 -1926.690830 45266.517569
   vertex -1536.353885 -2738.830435 45266.517569
   vertex -1542.179634 -2735.453189 45270.553701
  endloop
 endfacet
 facet normal -0.444771 0.257838 -0.857729
  outer loop
   vertex -1071.374066 -1923.313585 45270.553701
   vertex -1065.548317 -1926.690830 45266.517569
   vertex -1542.179634 -2735.453189 45270.553701
  endloop
 endfacet
 facet normal -0.515363 0.298761 -0.803208
  outer loop
   vertex -1060.092879 -1929.853403 45261.840836
   vertex -1530.898447 -2741.993008 45261.840836
   vertex -1536.353885 -2738.830435 45266.517569
  endloop
 endfacet
 facet normal -0.515363 0.298761 -0.803208
  outer loop
   vertex -1065.548317 -1926.690830 45266.517569
   vertex -1060.092879 -1929.853403 45261.840836
   vertex -1536.353885 -2738.830435 45266.517569
  endloop
 endfacet
 facet normal -0.580993 0.336807 -0.740951
  outer loop
   vertex -1055.060291 -1932.770846 45256.568542
   vertex -1525.865859 -2744.910450 45256.568542
   vertex -1530.898447 -2741.993008 45261.840836
  endloop
 endfacet
 facet normal -0.580993 0.336807 -0.740951
  outer loop
   vertex -1060.092879 -1929.853403 45261.840836
   vertex -1055.060291 -1932.770846 45256.568542
   vertex -1530.898447 -2741.993008 45261.840836
  endloop
 endfacet
 facet normal -0.641026 0.371610 -0.671559
  outer loop
   vertex -1050.499019 -1935.415062 45250.751463
   vertex -1521.304587 -2747.554666 45250.751463
   vertex -1525.865859 -2744.910450 45256.568542
  endloop
 endfacet
 facet normal -0.641026 0.371610 -0.671559
  outer loop
   vertex -1055.060291 -1932.770846 45256.568542
   vertex -1050.499019 -1935.415062 45250.751463
   vertex -1525.865859 -2744.910450 45256.568542
  endloop
 endfacet
 facet normal -0.694887 0.402833 -0.595699
  outer loop
   vertex -1046.452990 -1937.760585 45244.445619
   vertex -1517.258558 -2749.900190 45244.445619
   vertex -1521.304587 -2747.554666 45250.751463
  endloop
 endfacet
 facet normal -0.694887 0.402833 -0.595699
  outer loop
   vertex -1050.499019 -1935.415062 45250.751463
   vertex -1046.452990 -1937.760585 45244.445619
   vertex -1521.304587 -2747.554666 45250.751463
  endloop
 endfacet
 facet normal -0.742055 0.430177 -0.514103
  outer loop
   vertex -1042.961171 -1939.784828 45237.711739
   vertex -1513.766739 -2751.924433 45237.711739
   vertex -1517.258558 -2749.900190 45244.445619
  endloop
 endfacet
 facet normal -0.742055 0.430177 -0.514103
  outer loop
   vertex -1046.452990 -1937.760585 45244.445619
   vertex -1042.961171 -1939.784828 45237.711739
   vertex -1517.258558 -2749.900190 45244.445619
  endloop
 endfacet
 facet normal -0.782077 0.453378 -0.427555
  outer loop
   vertex -1040.057189 -1941.468296 45230.614675
   vertex -1510.862757 -2753.607901 45230.614675
   vertex -1513.766739 -2751.924433 45237.711739
  endloop
 endfacet
 facet normal -0.782077 0.453378 -0.427555
  outer loop
   vertex -1042.961171 -1939.784828 45237.711739
   vertex -1040.057189 -1941.468296 45230.614675
   vertex -1513.766739 -2751.924433 45237.711739
  endloop
 endfacet
 facet normal -0.814567 0.472213 -0.336890
  outer loop
   vertex -1037.769011 -1942.794776 45223.222774
   vertex -1508.574579 -2754.934381 45223.222774
   vertex -1510.862757 -2753.607901 45230.614675
  endloop
 endfacet
 facet normal -0.814567 0.472213 -0.336890
  outer loop
   vertex -1040.057189 -1941.468296 45230.614675
   vertex -1037.769011 -1942.794776 45223.222774
   vertex -1510.862757 -2753.607901 45230.614675
  endloop
 endfacet
 facet normal -0.839213 0.486500 -0.242980
  outer loop
   vertex -1036.118674 -1943.751494 45215.607226
   vertex -1506.924242 -2755.891098 45215.607226
   vertex -1508.574579 -2754.934381 45223.222774
  endloop
 endfacet
 facet normal -0.839213 0.486500 -0.242980
  outer loop
   vertex -1037.769011 -1942.794776 45223.222774
   vertex -1036.118674 -1943.751494 45215.607226
   vertex -1508.574579 -2754.934381 45223.222774
  endloop
 endfacet
 facet normal -0.855776 0.496102 -0.146730
  outer loop
   vertex -1035.122071 -1944.329234 45207.841371
   vertex -1505.927639 -2756.468839 45207.841371
   vertex -1506.924242 -2755.891098 45215.607226
  endloop
 endfacet
 facet normal -0.855776 0.496102 -0.146730
  outer loop
   vertex -1036.118674 -1943.751494 45215.607226
   vertex -1035.122071 -1944.329234 45207.841371
   vertex -1506.924242 -2755.891098 45215.607226
  endloop
 endfacet
 facet normal -0.864098 0.500926 -0.049068
  outer loop
   vertex -1034.788800 -1944.522435 45200.000000
   vertex -1505.594368 -2756.662039 45200.000000
   vertex -1505.927639 -2756.468839 45207.841371
  endloop
 endfacet
 facet normal -0.864098 0.500926 -0.049068
  outer loop
   vertex -1035.122071 -1944.329234 45207.841371
   vertex -1034.788800 -1944.522435 45200.000000
   vertex -1505.927639 -2756.468839 45207.841371
  endloop
 endfacet
 facet normal -0.864098 0.500926 0.049068
  outer loop
   vertex -1035.122071 -1944.329234 45192.158629
   vertex -1505.927639 -2756.468839 45192.158629
   vertex -1505.594368 -2756.662039 45200.000000
  endloop
 endfacet
 facet normal -0.864098 0.500926 0.049068
  outer loop
   vertex -1034.788800 -1944.522435 45200.000000
   vertex -1035.122071 -1944.329234 45192.158629
   vertex -1505.594368 -2756.662039 45200.000000
  endloop
 endfacet
 facet normal -0.855776 0.496102 0.146730
  outer loop
   vertex -1036.118674 -1943.751494 45184.392774
   vertex -1506.924242 -2755.891098 45184.392774
   vertex -1505.927639 -2756.468839 45192.158629
  endloop
 endfacet
 facet normal -0.855776 0.496102 0.146730
  outer loop
   vertex -1035.122071 -1944.329234 45192.158629
   vertex -1036.118674 -1943.751494 45184.392774
   vertex -1505.927639 -2756.468839 45192.158629
  endloop
 endfacet
 facet normal -0.839213 0.486500 0.242980
  outer loop
   vertex -1037.769011 -1942.794776 45176.777226
   vertex -1508.574579 -2754.934381 45176.777226
   vertex -1506.924242 -2755.891098 45184.392774
  endloop
 endfacet
 facet normal -0.839213 0.486500 0.242980
  outer loop
   vertex -1036.118674 -1943.751494 45184.392774
   vertex -1037.769011 -1942.794776 45176.777226
   vertex -1506.924242 -2755.891098 45184.392774
  endloop
 endfacet
 facet normal -0.814567 0.472213 0.336890
  outer loop
   vertex -1040.057189 -1941.468296 45169.385325
   vertex -1510.862757 -2753.607901 45169.385325
   vertex -1508.574579 -2754.934381 45176.777226
  endloop
 endfacet
 facet normal -0.814567 0.472213 0.336890
  outer loop
   vertex -1037.769011 -1942.794776 45176.777226
   vertex -1040.057189 -1941.468296 45169.385325
   vertex -1508.574579 -2754.934381 45176.777226
  endloop
 endfacet
 facet normal -0.782077 0.453378 0.427555
  outer loop
   vertex -1042.961171 -1939.784828 45162.288261
   vertex -1513.766739 -2751.924433 45162.288261
   vertex -1510.862757 -2753.607901 45169.385325
  endloop
 endfacet
 facet normal -0.782077 0.453378 0.427555
  outer loop
   vertex -1040.057189 -1941.468296 45169.385325
   vertex -1042.961171 -1939.784828 45162.288261
   vertex -1510.862757 -2753.607901 45169.385325
  endloop
 endfacet
 facet normal -0.742055 0.430177 0.514103
  outer loop
   vertex -1046.452990 -1937.760585 45155.554381
   vertex -1517.258558 -2749.900190 45155.554381
   vertex -1513.766739 -2751.924433 45162.288261
  endloop
 endfacet
 facet normal -0.742055 0.430177 0.514103
  outer loop
   vertex -1042.961171 -1939.784828 45162.288261
   vertex -1046.452990 -1937.760585 45155.554381
   vertex -1513.766739 -2751.924433 45162.288261
  endloop
 endfacet
 facet normal -0.694887 0.402833 0.595699
  outer loop
   vertex -1050.499019 -1935.415062 45149.248537
   vertex -1521.304587 -2747.554666 45149.248537
   vertex -1517.258558 -2749.900190 45155.554381
  endloop
 endfacet
 facet normal -0.694887 0.402833 0.595699
  outer loop
   vertex -1046.452990 -1937.760585 45155.554381
   vertex -1050.499019 -1935.415062 45149.248537
   vertex -1517.258558 -2749.900190 45155.554381
  endloop
 endfacet
 facet normal -0.641026 0.371610 0.671559
  outer loop
   vertex -1055.060291 -1932.770846 45143.431458
   vertex -1525.865859 -2744.910450 45143.431458
   vertex -1521.304587 -2747.554666 45149.248537
  endloop
 endfacet
 facet normal -0.641026 0.371610 0.671559
  outer loop
   vertex -1050.499019 -1935.415062 45149.248537
   vertex -1055.060291 -1932.770846 45143.431458
   vertex -1521.304587 -2747.554666 45149.248537
  endloop
 endfacet
 facet normal -0.580993 0.336807 0.740951
  outer loop
   vertex -1060.092879 -1929.853403 45138.159164
   vertex -1530.898447 -2741.993008 45138.159164
   vertex -1525.865859 -2744.910450 45143.431458
  endloop
 endfacet
 facet normal -0.580993 0.336807 0.740951
  outer loop
   vertex -1055.060291 -1932.770846 45143.431458
   vertex -1060.092879 -1929.853403 45138.159164
   vertex -1525.865859 -2744.910450 45143.431458
  endloop
 endfacet
 facet normal -0.515363 0.298761 0.803208
  outer loop
   vertex -1065.548317 -1926.690830 45133.482431
   vertex -1536.353885 -2738.830435 45133.482431
   vertex -1530.898447 -2741.993008 45138.159164
  endloop
 endfacet
 facet normal -0.515363 0.298761 0.803208
  outer loop
   vertex -1060.092879 -1929.853403 45138.159164
   vertex -1065.548317 -1926.690830 45133.482431
   vertex -1530.898447 -2741.993008 45138.159164
  endloop
 endfacet
 facet normal -0.444771 0.257838 0.857729
  outer loop
   vertex -1071.374066 -1923.313585 45129.446299
   vertex -1542.179634 -2735.453189 45129.446299
   vertex -1536.353885 -2738.830435 45133.482431
  endloop
 endfacet
 facet normal -0.444771 0.257838 0.857729
  outer loop
   vertex -1065.548317 -1926.690830 45133.482431
   vertex -1071.374066 -1923.313585 45129.446299
   vertex -1536.353885 -2738.830435 45133.482431
  endloop
 endfacet
 facet normal -0.369895 0.214432 0.903989
  outer loop
   vertex -1077.514020 -1919.754191 45126.089637
   vertex -1548.319588 -2731.893796 45126.089637
   vertex -1542.179634 -2735.453189 45129.446299
  endloop
 endfacet
 facet normal -0.369895 0.214432 0.903989
  outer loop
   vertex -1071.374066 -1923.313585 45129.446299
   vertex -1077.514020 -1919.754191 45126.089637
   vertex -1542.179634 -2735.453189 45129.446299
  endloop
 endfacet
 facet normal -0.291457 0.168961 0.941544
  outer loop
   vertex -1083.909049 -1916.046928 45123.444773
   vertex -1554.714617 -2728.186533 45123.444773
   vertex -1548.319588 -2731.893796 45126.089637
  endloop
 endfacet
 facet normal -0.291457 0.168961 0.941544
  outer loop
   vertex -1077.514020 -1919.754191 45126.089637
   vertex -1083.909049 -1916.046928 45123.444773
   vertex -1548.319588 -2731.893796 45126.089637
  endloop
 endfacet
 facet normal -0.210212 0.121862 0.970031
  outer loop
   vertex -1090.497565 -1912.227499 45121.537178
   vertex -1561.303133 -2724.367103 45121.537178
   vertex -1554.714617 -2728.186533 45123.444773
  endloop
 endfacet
 facet normal -0.210212 0.121862 0.970031
  outer loop
   vertex -1083.909049 -1916.046928 45123.444773
   vertex -1090.497565 -1912.227499 45121.537178
   vertex -1554.714617 -2728.186533 45123.444773
  endloop
 endfacet
 facet normal -0.126942 0.073590 0.989177
  outer loop
   vertex -1097.216116 -1908.332686 45120.385222
   vertex -1568.021684 -2720.472291 45120.385222
   vertex -1561.303133 -2724.367103 45121.537178
  endloop
 endfacet
 facet normal -0.126942 0.073590 0.989177
  outer loop
   vertex -1090.497565 -1912.227499 45121.537178
   vertex -1097.216116 -1908.332686 45120.385222
   vertex -1561.303133 -2724.367103 45121.537178
  endloop
 endfacet
 facet normal -0.042450 0.024609 0.998795
  outer loop
   vertex -1104.000000 -1904.400000 45120.000000
   vertex -1574.805568 -2716.539605 45120.000000
   vertex -1568.021684 -2720.472291 45120.385222
  endloop
 endfacet
 facet normal -0.042450 0.024609 0.998795
  outer loop
   vertex -1097.216116 -1908.332686 45120.385222
   vertex -1104.000000 -1904.400000 45120.000000
   vertex -1568.021684 -2720.472291 45120.385222
  endloop
 endfacet
 facet normal 0.042450 -0.024609 0.998795
  outer loop
   vertex -1110.783884 -1900.467314 45120.385222
   vertex -1581.589452 -2712.606918 45120.385222
   vertex -1574.805568 -2716.539605 45120.000000
  endloop
 endfacet
 facet normal 0.042450 -0.024609 0.998795
  outer loop
   vertex -1104.000000 -1904.400000 45120.000000
   vertex -1110.783884 -1900.467314 45120.385222
   vertex -1574.805568 -2716.539605 45120.000000
  endloop
 endfacet
 facet normal 0.126942 -0.073590 0.989177
  outer loop
   vertex -1117.502435 -1896.572501 45121.537178
   vertex -1588.308003 -2708.712106 45121.537178
   vertex -1581.589452 -2712.606918 45120.385222
  endloop
 endfacet
 facet normal 0.126942 -0.073590 0.989177
  outer loop
   vertex -1110.783884 -1900.467314 45120.385222
   vertex -1117.502435 -1896.572501 45121.537178
   vertex -1581.589452 -2712.606918 45120.385222
  endloop
 endfacet
 facet normal 0.210212 -0.121862 0.970031
  outer loop
   vertex -1124.090951 -1892.753072 45123.444773
   vertex -1594.896519 -2704.892677 45123.444773
   vertex -1588.308003 -2708.712106 45121.537178
  endloop
 endfacet
 facet normal 0.210212 -0.121862 0.970031
  outer loop
   vertex -1117.502435 -1896.572501 45121.537178
   vertex -1124.090951 -1892.753072 45123.444773
   vertex -1588.308003 -2708.712106 45121.537178
  endloop
 endfacet
 facet normal 0.291457 -0.168961 0.941544
  outer loop
   vertex -1130.485980 -1889.045809 45126.089637
   vertex -1601.291548 -2701.185414 45126.089637
   vertex -1594.896519 -2704.892677 45123.444773
  endloop
 endfacet
 facet normal 0.291457 -0.168961 0.941544
  outer loop
   vertex -1124.090951 -1892.753072 45123.444773
   vertex -1130.485980 -1889.045809 45126.089637
   vertex -1594.896519 -2704.892677 45123.444773
  endloop
 endfacet
 facet normal 0.369895 -0.214432 0.903989
  outer loop
   vertex -1136.625934 -1885.486415 45129.446299
   vertex -1607.431502 -2697.626020 45129.446299
   vertex -1601.291548 -2701.185414 45126.089637
  endloop
 endfacet
 facet normal 0.369895 -0.214432 0.903989
  outer loop
   vertex -1130.485980 -1889.045809 45126.089637
   vertex -1136.625934 -1885.486415 45129.446299
   vertex -1601.291548 -2701.185414 45126.089637
  endloop
 endfacet
 facet normal 0.444771 -0.257838 0.857729
  outer loop
   vertex -1142.451683 -1882.109170 45133.482431
   vertex -1613.257250 -2694.248774 45133.482431
   vertex -1607.431502 -2697.626020 45129.446299
  endloop
 endfacet
 facet normal 0.444771 -0.257838 0.857729
  outer loop
   vertex -1136.625934 -1885.486415 45129.446299
   vertex -1142.451683 -1882.109170 45133.482431
   vertex -1607.431502 -2697.626020 45129.446299
  endloop
 endfacet
 facet normal 0.515363 -0.298761 0.803208
  outer loop
   vertex -1147.907121 -1878.946597 45138.159164
   vertex -1618.712688 -2691.086201 45138.159164
   vertex -1613.257250 -2694.248774 45133.482431
  endloop
 endfacet
 facet normal 0.515363 -0.298761 0.803208
  outer loop
   vertex -1142.451683 -1882.109170 45133.482431
   vertex -1147.907121 -1878.946597 45138.159164
   vertex -1613.257250 -2694.248774 45133.482431
  endloop
 endfacet
 facet normal 0.580993 -0.336807 0.740951
  outer loop
   vertex -1152.939709 -1876.029154 45143.431458
   vertex -1623.745277 -2688.168759 45143.431458
   vertex -1618.712688 -2691.086201 45138.159164
  endloop
 endfacet
 facet normal 0.580993 -0.336807 0.740951
  outer loop
   vertex -1147.907121 -1878.946597 45138.159164
   vertex -1152.939709 -1876.029154 45143.431458
   vertex -1618.712688 -2691.086201 45138.159164
  endloop
 endfacet
 facet normal 0.641026 -0.371610 0.671559
  outer loop
   vertex -1157.500981 -1873.384938 45149.248537
   vertex -1628.306549 -2685.524543 45149.248537
   vertex -1623.745277 -2688.168759 45143.431458
  endloop
 endfacet
 facet normal 0.641026 -0.371610 0.671559
  outer loop
   vertex -1152.939709 -1876.029154 45143.431458
   vertex -1157.500981 -1873.384938 45149.248537
   vertex -1623.745277 -2688.168759 45143.431458
  endloop
 endfacet
 facet normal 0.694887 -0.402833 0.595699
  outer loop
   vertex -1161.547010 -1871.039415 45155.554381
   vertex -1632.352578 -2683.179019 45155.554381
   vertex -1628.306549 -2685.524543 45149.248537
  endloop
 endfacet
 facet normal 0.694887 -0.402833 0.595699
  outer loop
   vertex -1157.500981 -1873.384938 45149.248537
   vertex -1161.547010 -1871.039415 45155.554381
   vertex -1628.306549 -2685.524543 45149.248537
  endloop
 endfacet
 facet normal 0.742055 -0.430177 0.514103
  outer loop
   vertex -1165.038829 -1869.015172 45162.288261
   vertex -1635.844397 -2681.154776 45162.288261
   vertex -1632.352578 -2683.179019 45155.554381
  endloop
 endfacet
 facet normal 0.742055 -0.430177 0.514103
  outer loop
   vertex -1161.547010 -1871.039415 45155.554381
   vertex -1165.038829 -1869.015172 45162.288261
   vertex -1632.352578 -2683.179019 45155.554381
  endloop
 endfacet
 facet normal 0.782077 -0.453378 0.427555
  outer loop
   vertex -1167.942811 -1867.331704 45169.385325
   vertex -1638.748379 -2679.471308 45169.385325
   vertex -1635.844397 -2681.154776 45162.288261
  endloop
 endfacet
 facet normal 0.782077 -0.453378 0.427555
  outer loop
   vertex -1165.038829 -1869.015172 45162.288261
   vertex -1167.942811 -1867.331704 45169.385325
   vertex -1635.844397 -2681.154776 45162.288261
  endloop
 endfacet
 facet normal 0.814567 -0.472213 0.336890
  outer loop
   vertex -1170.230989 -1866.005224 45176.777226
   vertex -1641.036557 -2678.144828 45176.777226
   vertex -1638.748379 -2679.471308 45169.385325
  endloop
 endfacet
 facet normal 0.814567 -0.472213 0.336890
  outer loop
   vertex -1167.942811 -1867.331704 45169.385325
   vertex -1170.230989 -1866.005224 45176.777226
   vertex -1638.748379 -2679.471308 45169.385325
  endloop
 endfacet
 facet normal 0.839213 -0.486500 0.242980
  outer loop
   vertex -1171.881326 -1865.048506 45184.392774
   vertex -1642.686894 -2677.188111 45184.392774
   vertex -1641.036557 -2678.144828 45176.777226
  endloop
 endfacet
 facet normal 0.839213 -0.486500 0.242980
  outer loop
   vertex -1170.230989 -1866.005224 45176.777226
   vertex -1171.881326 -1865.048506 45184.392774
   vertex -1641.036557 -2678.144828 45176.777226
  endloop
 endfacet
 facet normal 0.855776 -0.496102 0.146730
  outer loop
   vertex -1172.877929 -1864.470766 45192.158629
   vertex -1643.683497 -2676.610370 45192.158629
   vertex -1642.686894 -2677.188111 45184.392774
  endloop
 endfacet
 facet normal 0.855776 -0.496102 0.146730
  outer loop
   vertex -1171.881326 -1865.048506 45184.392774
   vertex -1172.877929 -1864.470766 45192.158629
   vertex -1642.686894 -2677.188111 45184.392774
  endloop
 endfacet
 facet normal 0.864098 -0.500926 0.049068
  outer loop
   vertex -1173.211200 -1864.277565 45200.000000
   vertex -1644.016768 -2676.417170 45200.000000
   vertex -1643.683497 -2676.610370 45192.158629
  endloop
 endfacet
 facet normal 0.864098 -0.500926 0.049068
  outer loop
   vertex -1172.877929 -1864.470766 45192.158629
   vertex -1173.211200 -1864.277565 45200.000000
   vertex -1643.683497 -2676.610370 45192.158629
  endloop
 endfacet
endsolid part
