solid SII_LOX_downcomer
 facet normal 0.047655 0.998795 -0.011691
  outer loop
   vertex 4450.000000 81.000000 50400.000000
   vertex 4457.710757 80.609963 50398.108410
   vertex 3147.710757 80.609963 45058.108410
  endloop
 endfacet
 facet normal 0.047655 0.998795 -0.011691
  outer loop
   vertex 4450.000000 81.000000 50400.000000
   vertex 3147.710757 80.609963 45058.108410
   vertex 3140.000000 81.000000 45060.000000
  endloop
 endfacet
 facet normal 0.142505 0.989177 -0.034959
  outer loop
   vertex 4457.710757 80.609963 50398.108410
   vertex 4465.347255 79.443608 50396.235037
   vertex 3155.347255 79.443608 45056.235037
  endloop
 endfacet
 facet normal 0.142505 0.989177 -0.034959
  outer loop
   vertex 4457.710757 80.609963 50398.108410
   vertex 3155.347255 79.443608 45056.235037
   vertex 3147.710757 80.609963 45058.108410
  endloop
 endfacet
 facet normal 0.235983 0.970031 -0.057891
  outer loop
   vertex 4465.347255 79.443608 50396.235037
   vertex 4472.835951 77.512167 50394.397922
   vertex 3162.835951 77.512167 45054.397922
  endloop
 endfacet
 facet normal 0.235983 0.970031 -0.057891
  outer loop
   vertex 4465.347255 79.443608 50396.235037
   vertex 3162.835951 77.512167 45054.397922
   vertex 3155.347255 79.443608 45056.235037
  endloop
 endfacet
 facet normal 0.327188 0.941544 -0.080265
  outer loop
   vertex 4472.835951 77.512167 50394.397922
   vertex 4480.104724 74.834242 50392.614759
   vertex 3170.104724 74.834242 45052.614759
  endloop
 endfacet
 facet normal 0.327188 0.941544 -0.080265
  outer loop
   vertex 4472.835951 77.512167 50394.397922
   vertex 3170.104724 74.834242 45052.614759
   vertex 3162.835951 77.512167 45054.397922
  endloop
 endfacet
 facet normal 0.415243 0.903989 -0.101867
  outer loop
   vertex 4480.104724 74.834242 50392.614759
   vertex 4487.083572 71.435622 50390.902719
   vertex 3177.083572 71.435622 45050.902719
  endloop
 endfacet
 facet normal 0.415243 0.903989 -0.101867
  outer loop
   vertex 4480.104724 74.834242 50392.614759
   vertex 3177.083572 71.435622 45050.902719
   vertex 3170.104724 74.834242 45052.614759
  endloop
 endfacet
 facet normal 0.499298 0.857729 -0.122487
  outer loop
   vertex 4487.083572 71.435622 50390.902719
   vertex 4493.705285 67.349039 50389.278291
   vertex 3183.705285 67.349039 45049.278291
  endloop
 endfacet
 facet normal 0.499298 0.857729 -0.122487
  outer loop
   vertex 4487.083572 71.435622 50390.902719
   vertex 3183.705285 67.349039 45049.278291
   vertex 3177.083572 71.435622 45050.902719
  endloop
 endfacet
 facet normal 0.578545 0.803208 -0.141928
  outer loop
   vertex 4493.705285 67.349039 50389.278291
   vertex 4499.906093 62.613847 50387.757120
   vertex 3189.906093 62.613847 45047.757120
  endloop
 endfacet
 facet normal 0.578545 0.803208 -0.141928
  outer loop
   vertex 4493.705285 67.349039 50389.278291
   vertex 3189.906093 62.613847 45047.757120
   vertex 3183.705285 67.349039 45049.278291
  endloop
 endfacet
 facet normal 0.652220 0.740951 -0.160002
  outer loop
   vertex 4499.906093 62.613847 50387.757120
   vertex 4505.626277 57.275649 50386.353853
   vertex 3195.626277 57.275649 45046.353853
  endloop
 endfacet
 facet normal 0.652220 0.740951 -0.160002
  outer loop
   vertex 4499.906093 62.613847 50387.757120
   vertex 3195.626277 57.275649 45046.353853
   vertex 3189.906093 62.613847 45047.757120
  endloop
 endfacet
 facet normal 0.719614 0.671559 -0.176534
  outer loop
   vertex 4505.626277 57.275649 50386.353853
   vertex 4510.810750 51.385856 50385.082007
   vertex 3200.810750 51.385856 45045.082007
  endloop
 endfacet
 facet normal 0.719614 0.671559 -0.176534
  outer loop
   vertex 4505.626277 57.275649 50386.353853
   vertex 3200.810750 51.385856 45045.082007
   vertex 3195.626277 57.275649 45046.353853
  endloop
 endfacet
 facet normal 0.780077 0.595699 -0.191367
  outer loop
   vertex 4510.810750 51.385856 50385.082007
   vertex 4515.409582 45.001189 50383.953829
   vertex 3205.409582 45.001189 45043.953829
  endloop
 endfacet
 facet normal 0.780077 0.595699 -0.191367
  outer loop
   vertex 4510.810750 51.385856 50385.082007
   vertex 3205.409582 45.001189 45043.953829
   vertex 3200.810750 51.385856 45045.082007
  endloop
 endfacet
 facet normal 0.833029 0.514103 -0.204357
  outer loop
   vertex 4515.409582 45.001189 50383.953829
   vertex 4519.378484 38.183136 50382.980185
   vertex 3209.378484 38.183136 45042.980185
  endloop
 endfacet
 facet normal 0.833029 0.514103 -0.204357
  outer loop
   vertex 4515.409582 45.001189 50383.953829
   vertex 3209.378484 38.183136 45042.980185
   vertex 3205.409582 45.001189 45043.953829
  endloop
 endfacet
 facet normal 0.877957 0.427555 -0.215379
  outer loop
   vertex 4519.378484 38.183136 50382.980185
   vertex 4522.679233 30.997358 50382.170450
   vertex 3212.679233 30.997358 45042.170450
  endloop
 endfacet
 facet normal 0.877957 0.427555 -0.215379
  outer loop
   vertex 4519.378484 38.183136 50382.980185
   vertex 3212.679233 30.997358 45042.170450
   vertex 3209.378484 38.183136 45042.980185
  endloop
 endfacet
 facet normal 0.914430 0.336890 -0.224327
  outer loop
   vertex 4522.679233 30.997358 50382.170450
   vertex 4525.280042 23.513059 50381.532424
   vertex 3215.280042 23.513059 45041.532424
  endloop
 endfacet
 facet normal 0.914430 0.336890 -0.224327
  outer loop
   vertex 4522.679233 30.997358 50382.170450
   vertex 3215.280042 23.513059 45041.532424
   vertex 3212.679233 30.997358 45042.170450
  endloop
 endfacet
 facet normal 0.942097 0.242980 -0.231114
  outer loop
   vertex 4525.280042 23.513059 50381.532424
   vertex 4527.155863 15.802316 50381.072251
   vertex 3217.155863 15.802316 45041.072251
  endloop
 endfacet
 facet normal 0.942097 0.242980 -0.231114
  outer loop
   vertex 4525.280042 23.513059 50381.532424
   vertex 3217.155863 15.802316 45041.072251
   vertex 3215.280042 23.513059 45041.532424
  endloop
 endfacet
 facet normal 0.960691 0.146730 -0.235675
  outer loop
   vertex 4527.155863 15.802316 50381.072251
   vertex 4528.288630 7.939388 50380.794362
   vertex 3218.288630 7.939388 45040.794362
  endloop
 endfacet
 facet normal 0.960691 0.146730 -0.235675
  outer loop
   vertex 4527.155863 15.802316 50381.072251
   vertex 3218.288630 7.939388 45040.794362
   vertex 3217.155863 15.802316 45041.072251
  endloop
 endfacet
 facet normal 0.970033 0.049068 -0.237967
  outer loop
   vertex 4528.288630 7.939388 50380.794362
   vertex 4528.667435 0.000000 50380.701434
   vertex 3218.667435 0.000000 45040.701434
  endloop
 endfacet
 facet normal 0.970033 0.049068 -0.237967
  outer loop
   vertex 4528.288630 7.939388 50380.794362
   vertex 3218.667435 0.000000 45040.701434
   vertex 3218.288630 7.939388 45040.794362
  endloop
 endfacet
 facet normal 0.970033 -0.049068 -0.237967
  outer loop
   vertex 4528.667435 0.000000 50380.701434
   vertex 4528.288630 -7.939388 50380.794362
   vertex 3218.288630 -7.939388 45040.794362
  endloop
 endfacet
 facet normal 0.970033 -0.049068 -0.237967
  outer loop
   vertex 4528.667435 0.000000 50380.701434
   vertex 3218.288630 -7.939388 45040.794362
   vertex 3218.667435 0.000000 45040.701434
  endloop
 endfacet
 facet normal 0.960691 -0.146730 -0.235675
  outer loop
   vertex 4528.288630 -7.939388 50380.794362
   vertex 4527.155863 -15.802316 50381.072251
   vertex 3217.155863 -15.802316 45041.072251
  endloop
 endfacet
 facet normal 0.960691 -0.146730 -0.235675
  outer loop
   vertex 4528.288630 -7.939388 50380.794362
   vertex 3217.155863 -15.802316 45041.072251
   vertex 3218.288630 -7.939388 45040.794362
  endloop
 endfacet
 facet normal 0.942097 -0.242980 -0.231114
  outer loop
   vertex 4527.155863 -15.802316 50381.072251
   vertex 4525.280042 -23.513059 50381.532424
   vertex 3215.280042 -23.513059 45041.532424
  endloop
 endfacet
 facet normal 0.942097 -0.242980 -0.231114
  outer loop
   vertex 4527.155863 -15.802316 50381.072251
   vertex 3215.280042 -23.513059 45041.532424
   vertex 3217.155863 -15.802316 45041.072251
  endloop
 endfacet
 facet normal 0.914430 -0.336890 -0.224327
  outer loop
   vertex 4525.280042 -23.513059 50381.532424
   vertex 4522.679233 -30.997358 50382.170450
   vertex 3212.679233 -30.997358 45042.170450
  endloop
 endfacet
 facet normal 0.914430 -0.336890 -0.224327
  outer loop
   vertex 4525.280042 -23.513059 50381.532424
   vertex 3212.679233 -30.997358 45042.170450
   vertex 3215.280042 -23.513059 45041.532424
  endloop
 endfacet
 facet normal 0.877957 -0.427555 -0.215379
  outer loop
   vertex 4522.679233 -30.997358 50382.170450
   vertex 4519.378484 -38.183136 50382.980185
   vertex 3209.378484 -38.183136 45042.980185
  endloop
 endfacet
 facet normal 0.877957 -0.427555 -0.215379
  outer loop
   vertex 4522.679233 -30.997358 50382.170450
   vertex 3209.378484 -38.183136 45042.980185
   vertex 3212.679233 -30.997358 45042.170450
  endloop
 endfacet
 facet normal 0.833029 -0.514103 -0.204357
  outer loop
   vertex 4519.378484 -38.183136 50382.980185
   vertex 4515.409582 -45.001189 50383.953829
   vertex 3205.409582 -45.001189 45043.953829
  endloop
 endfacet
 facet normal 0.833029 -0.514103 -0.204357
  outer loop
   vertex 4519.378484 -38.183136 50382.980185
   vertex 3205.409582 -45.001189 45043.953829
   vertex 3209.378484 -38.183136 45042.980185
  endloop
 endfacet
 facet normal 0.780077 -0.595699 -0.191367
  outer loop
   vertex 4515.409582 -45.001189 50383.953829
   vertex 4510.810750 -51.385856 50385.082007
   vertex 3200.810750 -51.385856 45045.082007
  endloop
 endfacet
 facet normal 0.780077 -0.595699 -0.191367
  outer loop
   vertex 4515.409582 -45.001189 50383.953829
   vertex 3200.810750 -51.385856 45045.082007
   vertex 3205.409582 -45.001189 45043.953829
  endloop
 endfacet
 facet normal 0.719614 -0.671559 -0.176534
  outer loop
   vertex 4510.810750 -51.385856 50385.082007
   vertex 4505.626277 -57.275649 50386.353853
   vertex 3195.626277 -57.275649 45046.353853
  endloop
 endfacet
 facet normal 0.719614 -0.671559 -0.176534
  outer loop
   vertex 4510.810750 -51.385856 50385.082007
   vertex 3195.626277 -57.275649 45046.353853
   vertex 3200.810750 -51.385856 45045.082007
  endloop
 endfacet
 facet normal 0.652220 -0.740951 -0.160002
  outer loop
   vertex 4505.626277 -57.275649 50386.353853
   vertex 4499.906093 -62.613847 50387.757120
   vertex 3189.906093 -62.613847 45047.757120
  endloop
 endfacet
 facet normal 0.652220 -0.740951 -0.160002
  outer loop
   vertex 4505.626277 -57.275649 50386.353853
   vertex 3189.906093 -62.613847 45047.757120
   vertex 3195.626277 -57.275649 45046.353853
  endloop
 endfacet
 facet normal 0.578545 -0.803208 -0.141928
  outer loop
   vertex 4499.906093 -62.613847 50387.757120
   vertex 4493.705285 -67.349039 50389.278291
   vertex 3183.705285 -67.349039 45049.278291
  endloop
 endfacet
 facet normal 0.578545 -0.803208 -0.141928
  outer loop
   vertex 4499.906093 -62.613847 50387.757120
   vertex 3183.705285 -67.349039 45049.278291
   vertex 3189.906093 -62.613847 45047.757120
  endloop
 endfacet
 facet normal 0.499298 -0.857729 -0.122487
  outer loop
   vertex 4493.705285 -67.349039 50389.278291
   vertex 4487.083572 -71.435622 50390.902719
   vertex 3177.083572 -71.435622 45050.902719
  endloop
 endfacet
 facet normal 0.499298 -0.857729 -0.122487
  outer loop
   vertex 4493.705285 -67.349039 50389.278291
   vertex 3177.083572 -71.435622 45050.902719
   vertex 3183.705285 -67.349039 45049.278291
  endloop
 endfacet
 facet normal 0.415243 -0.903989 -0.101867
  outer loop
   vertex 4487.083572 -71.435622 50390.902719
   vertex 4480.104724 -74.834242 50392.614759
   vertex 3170.104724 -74.834242 45052.614759
  endloop
 endfacet
 facet normal 0.415243 -0.903989 -0.101867
  outer loop
   vertex 4487.083572 -71.435622 50390.902719
   vertex 3170.104724 -74.834242 45052.614759
   vertex 3177.083572 -71.435622 45050.902719
  endloop
 endfacet
 facet normal 0.327188 -0.941544 -0.080265
  outer loop
   vertex 4480.104724 -74.834242 50392.614759
   vertex 4472.835951 -77.512167 50394.397922
   vertex 3162.835951 -77.512167 45054.397922
  endloop
 endfacet
 facet normal 0.327188 -0.941544 -0.080265
  outer loop
   vertex 4480.104724 -74.834242 50392.614759
   vertex 3162.835951 -77.512167 45054.397922
   vertex 3170.104724 -74.834242 45052.614759
  endloop
 endfacet
 facet normal 0.235983 -0.970031 -0.057891
  outer loop
   vertex 4472.835951 -77.512167 50394.397922
   vertex 4465.347255 -79.443608 50396.235037
   vertex 3155.347255 -79.443608 45056.235037
  endloop
 endfacet
 facet normal 0.235983 -0.970031 -0.057891
  outer loop
   vertex 4472.835951 -77.512167 50394.397922
   vertex 3155.347255 -79.443608 45056.235037
   vertex 3162.835951 -77.512167 45054.397922
  endloop
 endfacet
 facet normal 0.142505 -0.989177 -0.034959
  outer loop
   vertex 4465.347255 -79.443608 50396.235037
   vertex 4457.710757 -80.609963 50398.108410
   vertex 3147.710757 -80.609963 45058.108410
  endloop
 endfacet
 facet normal 0.142505 -0.989177 -0.034959
  outer loop
   vertex 4465.347255 -79.443608 50396.235037
   vertex 3147.710757 -80.609963 45058.108410
   vertex 3155.347255 -79.443608 45056.235037
  endloop
 endfacet
 facet normal 0.047655 -0.998795 -0.011691
  outer loop
   vertex 4457.710757 -80.609963 50398.108410
   vertex 4450.000000 -81.000000 50400.000000
   vertex 3140.000000 -81.000000 45060.000000
  endloop
 endfacet
 facet normal 0.047655 -0.998795 -0.011691
  outer loop
   vertex 4457.710757 -80.609963 50398.108410
   vertex 3140.000000 -81.000000 45060.000000
   vertex 3147.710757 -80.609963 45058.108410
  endloop
 endfacet
 facet normal -0.047655 -0.998795 0.011691
  outer loop
   vertex 4450.000000 -81.000000 50400.000000
   vertex 4442.289243 -80.609963 50401.891590
   vertex 3132.289243 -80.609963 45061.891590
  endloop
 endfacet
 facet normal -0.047655 -0.998795 0.011691
  outer loop
   vertex 4450.000000 -81.000000 50400.000000
   vertex 3132.289243 -80.609963 45061.891590
   vertex 3140.000000 -81.000000 45060.000000
  endloop
 endfacet
 facet normal -0.142505 -0.989177 0.034959
  outer loop
   vertex 4442.289243 -80.609963 50401.891590
   vertex 4434.652745 -79.443608 50403.764963
   vertex 3124.652745 -79.443608 45063.764963
  endloop
 endfacet
 facet normal -0.142505 -0.989177 0.034959
  outer loop
   vertex 4442.289243 -80.609963 50401.891590
   vertex 3124.652745 -79.443608 45063.764963
   vertex 3132.289243 -80.609963 45061.891590
  endloop
 endfacet
 facet normal -0.235983 -0.970031 0.057891
  outer loop
   vertex 4434.652745 -79.443608 50403.764963
   vertex 4427.164049 -77.512167 50405.602078
   vertex 3117.164049 -77.512167 45065.602078
  endloop
 endfacet
 facet normal -0.235983 -0.970031 0.057891
  outer loop
   vertex 4434.652745 -79.443608 50403.764963
   vertex 3117.164049 -77.512167 45065.602078
   vertex 3124.652745 -79.443608 45063.764963
  endloop
 endfacet
 facet normal -0.327188 -0.941544 0.080265
  outer loop
   vertex 4427.164049 -77.512167 50405.602078
   vertex 4419.895276 -74.834242 50407.385241
   vertex 3109.895276 -74.834242 45067.385241
  endloop
 endfacet
 facet normal -0.327188 -0.941544 0.080265
  outer loop
   vertex 4427.164049 -77.512167 50405.602078
   vertex 3109.895276 -74.834242 45067.385241
   vertex 3117.164049 -77.512167 45065.602078
  endloop
 endfacet
 facet normal -0.415243 -0.903989 0.101867
  outer loop
   vertex 4419.895276 -74.834242 50407.385241
   vertex 4412.916428 -71.435622 50409.097281
   vertex 3102.916428 -71.435622 45069.097281
  endloop
 endfacet
 facet normal -0.415243 -0.903989 0.101867
  outer loop
   vertex 4419.895276 -74.834242 50407.385241
   vertex 3102.916428 -71.435622 45069.097281
   vertex 3109.895276 -74.834242 45067.385241
  endloop
 endfacet
 facet normal -0.499298 -0.857729 0.122487
  outer loop
   vertex 4412.916428 -71.435622 50409.097281
   vertex 4406.294715 -67.349039 50410.721709
   vertex 3096.294715 -67.349039 45070.721709
  endloop
 endfacet
 facet normal -0.499298 -0.857729 0.122487
  outer loop
   vertex 4412.916428 -71.435622 50409.097281
   vertex 3096.294715 -67.349039 45070.721709
   vertex 3102.916428 -71.435622 45069.097281
  endloop
 endfacet
 facet normal -0.578545 -0.803208 0.141928
  outer loop
   vertex 4406.294715 -67.349039 50410.721709
   vertex 4400.093907 -62.613847 50412.242880
   vertex 3090.093907 -62.613847 45072.242880
  endloop
 endfacet
 facet normal -0.578545 -0.803208 0.141928
  outer loop
   vertex 4406.294715 -67.349039 50410.721709
   vertex 3090.093907 -62.613847 45072.242880
   vertex 3096.294715 -67.349039 45070.721709
  endloop
 endfacet
 facet normal -0.652220 -0.740951 0.160002
  outer loop
   vertex 4400.093907 -62.613847 50412.242880
   vertex 4394.373723 -57.275649 50413.646147
   vertex 3084.373723 -57.275649 45073.646147
  endloop
 endfacet
 facet normal -0.652220 -0.740951 0.160002
  outer loop
   vertex 4400.093907 -62.613847 50412.242880
   vertex 3084.373723 -57.275649 45073.646147
   vertex 3090.093907 -62.613847 45072.242880
  endloop
 endfacet
 facet normal -0.719614 -0.671559 0.176534
  outer loop
   vertex 4394.373723 -57.275649 50413.646147
   vertex 4389.189250 -51.385856 50414.917993
   vertex 3079.189250 -51.385856 45074.917993
  endloop
 endfacet
 facet normal -0.719614 -0.671559 0.176534
  outer loop
   vertex 4394.373723 -57.275649 50413.646147
   vertex 3079.189250 -51.385856 45074.917993
   vertex 3084.373723 -57.275649 45073.646147
  endloop
 endfacet
 facet normal -0.780077 -0.595699 0.191367
  outer loop
   vertex 4389.189250 -51.385856 50414.917993
   vertex 4384.590418 -45.001189 50416.046171
   vertex 3074.590418 -45.001189 45076.046171
  endloop
 endfacet
 facet normal -0.780077 -0.595699 0.191367
  outer loop
   vertex 4389.189250 -51.385856 50414.917993
   vertex 3074.590418 -45.001189 45076.046171
   vertex 3079.189250 -51.385856 45074.917993
  endloop
 endfacet
 facet normal -0.833029 -0.514103 0.204357
  outer loop
   vertex 4384.590418 -45.001189 50416.046171
   vertex 4380.621516 -38.183136 50417.019815
   vertex 3070.621516 -38.183136 45077.019815
  endloop
 endfacet
 facet normal -0.833029 -0.514103 0.204357
  outer loop
   vertex 4384.590418 -45.001189 50416.046171
   vertex 3070.621516 -38.183136 45077.019815
   vertex 3074.590418 -45.001189 45076.046171
  endloop
 endfacet
 facet normal -0.877957 -0.427555 0.215379
  outer loop
   vertex 4380.621516 -38.183136 50417.019815
   vertex 4377.320767 -30.997358 50417.829550
   vertex 3067.320767 -30.997358 45077.829550
  endloop
 endfacet
 facet normal -0.877957 -0.427555 0.215379
  outer loop
   vertex 4380.621516 -38.183136 50417.019815
   vertex 3067.320767 -30.997358 45077.829550
   vertex 3070.621516 -38.183136 45077.019815
  endloop
 endfacet
 facet normal -0.914430 -0.336890 0.224327
  outer loop
   vertex 4377.320767 -30.997358 50417.829550
   vertex 4374.719958 -23.513059 50418.467576
   vertex 3064.719958 -23.513059 45078.467576
  endloop
 endfacet
 facet normal -0.914430 -0.336890 0.224327
  outer loop
   vertex 4377.320767 -30.997358 50417.829550
   vertex 3064.719958 -23.513059 45078.467576
   vertex 3067.320767 -30.997358 45077.829550
  endloop
 endfacet
 facet normal -0.942097 -0.242980 0.231114
  outer loop
   vertex 4374.719958 -23.513059 50418.467576
   vertex 4372.844137 -15.802316 50418.927749
   vertex 3062.844137 -15.802316 45078.927749
  endloop
 endfacet
 facet normal -0.942097 -0.242980 0.231114
  outer loop
   vertex 4374.719958 -23.513059 50418.467576
   vertex 3062.844137 -15.802316 45078.927749
   vertex 3064.719958 -23.513059 45078.467576
  endloop
 endfacet
 facet normal -0.960691 -0.146730 0.235675
  outer loop
   vertex 4372.844137 -15.802316 50418.927749
   vertex 4371.711370 -7.939388 50419.205638
   vertex 3061.711370 -7.939388 45079.205638
  endloop
 endfacet
 facet normal -0.960691 -0.146730 0.235675
  outer loop
   vertex 4372.844137 -15.802316 50418.927749
   vertex 3061.711370 -7.939388 45079.205638
   vertex 3062.844137 -15.802316 45078.927749
  endloop
 endfacet
 facet normal -0.970033 -0.049068 0.237967
  outer loop
   vertex 4371.711370 -7.939388 50419.205638
   vertex 4371.332565 -0.000000 50419.298566
   vertex 3061.332565 -0.000000 45079.298566
  endloop
 endfacet
 facet normal -0.970033 -0.049068 0.237967
  outer loop
   vertex 4371.711370 -7.939388 50419.205638
   vertex 3061.332565 -0.000000 45079.298566
   vertex 3061.711370 -7.939388 45079.205638
  endloop
 endfacet
 facet normal -0.970033 0.049068 0.237967
  outer loop
   vertex 4371.332565 -0.000000 50419.298566
   vertex 4371.711370 7.939388 50419.205638
   vertex 3061.711370 7.939388 45079.205638
  endloop
 endfacet
 facet normal -0.970033 0.049068 0.237967
  outer loop
   vertex 4371.332565 -0.000000 50419.298566
   vertex 3061.711370 7.939388 45079.205638
   vertex 3061.332565 -0.000000 45079.298566
  endloop
 endfacet
 facet normal -0.960691 0.146730 0.235675
  outer loop
   vertex 4371.711370 7.939388 50419.205638
   vertex 4372.844137 15.802316 50418.927749
   vertex 3062.844137 15.802316 45078.927749
  endloop
 endfacet
 facet normal -0.960691 0.146730 0.235675
  outer loop
   vertex 4371.711370 7.939388 50419.205638
   vertex 3062.844137 15.802316 45078.927749
   vertex 3061.711370 7.939388 45079.205638
  endloop
 endfacet
 facet normal -0.942097 0.242980 0.231114
  outer loop
   vertex 4372.844137 15.802316 50418.927749
   vertex 4374.719958 23.513059 50418.467576
   vertex 3064.719958 23.513059 45078.467576
  endloop
 endfacet
 facet normal -0.942097 0.242980 0.231114
  outer loop
   vertex 4372.844137 15.802316 50418.927749
   vertex 3064.719958 23.513059 45078.467576
   vertex 3062.844137 15.802316 45078.927749
  endloop
 endfacet
 facet normal -0.914430 0.336890 0.224327
  outer loop
   vertex 4374.719958 23.513059 50418.467576
   vertex 4377.320767 30.997358 50417.829550
   vertex 3067.320767 30.997358 45077.829550
  endloop
 endfacet
 facet normal -0.914430 0.336890 0.224327
  outer loop
   vertex 4374.719958 23.513059 50418.467576
   vertex 3067.320767 30.997358 45077.829550
   vertex 3064.719958 23.513059 45078.467576
  endloop
 endfacet
 facet normal -0.877957 0.427555 0.215379
  outer loop
   vertex 4377.320767 30.997358 50417.829550
   vertex 4380.621516 38.183136 50417.019815
   vertex 3070.621516 38.183136 45077.019815
  endloop
 endfacet
 facet normal -0.877957 0.427555 0.215379
  outer loop
   vertex 4377.320767 30.997358 50417.829550
   vertex 3070.621516 38.183136 45077.019815
   vertex 3067.320767 30.997358 45077.829550
  endloop
 endfacet
 facet normal -0.833029 0.514103 0.204357
  outer loop
   vertex 4380.621516 38.183136 50417.019815
   vertex 4384.590418 45.001189 50416.046171
   vertex 3074.590418 45.001189 45076.046171
  endloop
 endfacet
 facet normal -0.833029 0.514103 0.204357
  outer loop
   vertex 4380.621516 38.183136 50417.019815
   vertex 3074.590418 45.001189 45076.046171
   vertex 3070.621516 38.183136 45077.019815
  endloop
 endfacet
 facet normal -0.780077 0.595699 0.191367
  outer loop
   vertex 4384.590418 45.001189 50416.046171
   vertex 4389.189250 51.385856 50414.917993
   vertex 3079.189250 51.385856 45074.917993
  endloop
 endfacet
 facet normal -0.780077 0.595699 0.191367
  outer loop
   vertex 4384.590418 45.001189 50416.046171
   vertex 3079.189250 51.385856 45074.917993
   vertex 3074.590418 45.001189 45076.046171
  endloop
 endfacet
 facet normal -0.719614 0.671559 0.176534
  outer loop
   vertex 4389.189250 51.385856 50414.917993
   vertex 4394.373723 57.275649 50413.646147
   vertex 3084.373723 57.275649 45073.646147
  endloop
 endfacet
 facet normal -0.719614 0.671559 0.176534
  outer loop
   vertex 4389.189250 51.385856 50414.917993
   vertex 3084.373723 57.275649 45073.646147
   vertex 3079.189250 51.385856 45074.917993
  endloop
 endfacet
 facet normal -0.652220 0.740951 0.160002
  outer loop
   vertex 4394.373723 57.275649 50413.646147
   vertex 4400.093907 62.613847 50412.242880
   vertex 3090.093907 62.613847 45072.242880
  endloop
 endfacet
 facet normal -0.652220 0.740951 0.160002
  outer loop
   vertex 4394.373723 57.275649 50413.646147
   vertex 3090.093907 62.613847 45072.242880
   vertex 3084.373723 57.275649 45073.646147
  endloop
 endfacet
 facet normal -0.578545 0.803208 0.141928
  outer loop
   vertex 4400.093907 62.613847 50412.242880
   vertex 4406.294715 67.349039 50410.721709
   vertex 3096.294715 67.349039 45070.721709
  endloop
 endfacet
 facet normal -0.578545 0.803208 0.141928
  outer loop
   vertex 4400.093907 62.613847 50412.242880
   vertex 3096.294715 67.349039 45070.721709
   vertex 3090.093907 62.613847 45072.242880
  endloop
 endfacet
 facet normal -0.499298 0.857729 0.122487
  outer loop
   vertex 4406.294715 67.349039 50410.721709
   vertex 4412.916428 71.435622 50409.097281
   vertex 3102.916428 71.435622 45069.097281
  endloop
 endfacet
 facet normal -0.499298 0.857729 0.122487
  outer loop
   vertex 4406.294715 67.349039 50410.721709
   vertex 3102.916428 71.435622 45069.097281
   vertex 3096.294715 67.349039 45070.721709
  endloop
 endfacet
 facet normal -0.415243 0.903989 0.101867
  outer loop
   vertex 4412.916428 71.435622 50409.097281
   vertex 4419.895276 74.834242 50407.385241
   vertex 3109.895276 74.834242 45067.385241
  endloop
 endfacet
 facet normal -0.415243 0.903989 0.101867
  outer loop
   vertex 4412.916428 71.435622 50409.097281
   vertex 3109.895276 74.834242 45067.385241
   vertex 3102.916428 71.435622 45069.097281
  endloop
 endfacet
 facet normal -0.327188 0.941544 0.080265
  outer loop
   vertex 4419.895276 74.834242 50407.385241
   vertex 4427.164049 77.512167 50405.602078
   vertex 3117.164049 77.512167 45065.602078
  endloop
 endfacet
 facet normal -0.327188 0.941544 0.080265
  outer loop
   vertex 4419.895276 74.834242 50407.385241
   vertex 3117.164049 77.512167 45065.602078
   vertex 3109.895276 74.834242 45067.385241
  endloop
 endfacet
 facet normal -0.235983 0.970031 0.057891
  outer loop
   vertex 4427.164049 77.512167 50405.602078
   vertex 4434.652745 79.443608 50403.764963
   vertex 3124.652745 79.443608 45063.764963
  endloop
 endfacet
 facet normal -0.235983 0.970031 0.057891
  outer loop
   vertex 4427.164049 77.512167 50405.602078
   vertex 3124.652745 79.443608 45063.764963
   vertex 3117.164049 77.512167 45065.602078
  endloop
 endfacet
 facet normal -0.142505 0.989177 0.034959
  outer loop
   vertex 4434.652745 79.443608 50403.764963
   vertex 4442.289243 80.609963 50401.891590
   vertex 3132.289243 80.609963 45061.891590
  endloop
 endfacet
 facet normal -0.142505 0.989177 0.034959
  outer loop
   vertex 4434.652745 79.443608 50403.764963
   vertex 3132.289243 80.609963 45061.891590
   vertex 3124.652745 79.443608 45063.764963
  endloop
 endfacet
 facet normal -0.047655 0.998795 0.011691
  outer loop
   vertex 4442.289243 80.609963 50401.891590
   vertex 4450.000000 81.000000 50400.000000
   vertex 3140.000000 81.000000 45060.000000
  endloop
 endfacet
 facet normal -0.047655 0.998795 0.011691
  outer loop
   vertex 4442.289243 80.609963 50401.891590
   vertex 3140.000000 81.000000 45060.000000
   vertex 3132.289243 80.609963 45061.891590
  endloop
 endfacet
 facet normal -0.047655 -0.998795 0.011691
  outer loop
   vertex 3146.758812 70.658116 45058.341939
   vertex 4456.758812 70.658116 50398.341939
   vertex 4450.000000 71.000000 50400.000000
  endloop
 endfacet
 facet normal -0.047655 -0.998795 0.011691
  outer loop
   vertex 3140.000000 71.000000 45060.000000
   vertex 3146.758812 70.658116 45058.341939
   vertex 4450.000000 71.000000 50400.000000
  endloop
 endfacet
 facet normal -0.142505 -0.989177 0.034959
  outer loop
   vertex 3153.452532 69.635755 45056.699847
   vertex 4463.452532 69.635755 50396.699847
   vertex 4456.758812 70.658116 50398.341939
  endloop
 endfacet
 facet normal -0.142505 -0.989177 0.034959
  outer loop
   vertex 3146.758812 70.658116 45058.341939
   vertex 3153.452532 69.635755 45056.699847
   vertex 4456.758812 70.658116 50398.341939
  endloop
 endfacet
 facet normal -0.235983 -0.970031 0.057891
  outer loop
   vertex 3160.016698 67.942764 45055.089537
   vertex 4470.016698 67.942764 50395.089537
   vertex 4463.452532 69.635755 50396.699847
  endloop
 endfacet
 facet normal -0.235983 -0.970031 0.057891
  outer loop
   vertex 3153.452532 69.635755 45056.699847
   vertex 3160.016698 67.942764 45055.089537
   vertex 4463.452532 69.635755 50396.699847
  endloop
 endfacet
 facet normal -0.327188 -0.941544 0.080265
  outer loop
   vertex 3166.388092 65.595447 45053.526517
   vertex 4476.388092 65.595447 50393.526517
   vertex 4470.016698 67.942764 50395.089537
  endloop
 endfacet
 facet normal -0.327188 -0.941544 0.080265
  outer loop
   vertex 3160.016698 67.942764 45055.089537
   vertex 3166.388092 65.595447 45053.526517
   vertex 4470.016698 67.942764 50395.089537
  endloop
 endfacet
 facet normal -0.415243 -0.903989 0.101867
  outer loop
   vertex 3172.505353 62.616410 45052.025840
   vertex 4482.505353 62.616410 50392.025840
   vertex 4476.388092 65.595447 50393.526517
  endloop
 endfacet
 facet normal -0.415243 -0.903989 0.101867
  outer loop
   vertex 3166.388092 65.595447 45053.526517
   vertex 3172.505353 62.616410 45052.025840
   vertex 4476.388092 65.595447 50393.526517
  endloop
 endfacet
 facet normal -0.499298 -0.857729 0.122487
  outer loop
   vertex 3178.309571 59.034342 45050.601959
   vertex 4488.309571 59.034342 50390.601959
   vertex 4482.505353 62.616410 50392.025840
  endloop
 endfacet
 facet normal -0.499298 -0.857729 0.122487
  outer loop
   vertex 3172.505353 62.616410 45052.025840
   vertex 3178.309571 59.034342 45050.601959
   vertex 4482.505353 62.616410 50392.025840
  endloop
 endfacet
 facet normal -0.578545 -0.803208 0.141928
  outer loop
   vertex 3183.744847 54.883742 45049.268586
   vertex 4493.744847 54.883742 50389.268586
   vertex 4488.309571 59.034342 50390.601959
  endloop
 endfacet
 facet normal -0.578545 -0.803208 0.141928
  outer loop
   vertex 3178.309571 59.034342 45050.601959
   vertex 3183.744847 54.883742 45049.268586
   vertex 4488.309571 59.034342 50390.601959
  endloop
 endfacet
 facet normal -0.652220 -0.740951 0.160002
  outer loop
   vertex 3188.758835 50.204581 45048.038563
   vertex 4498.758835 50.204581 50388.038563
   vertex 4493.744847 54.883742 50389.268586
  endloop
 endfacet
 facet normal -0.652220 -0.740951 0.160002
  outer loop
   vertex 3183.744847 54.883742 45049.268586
   vertex 3188.758835 50.204581 45048.038563
   vertex 4493.744847 54.883742 50389.268586
  endloop
 endfacet
 facet normal -0.719614 -0.671559 0.176534
  outer loop
   vertex 3193.303250 45.041923 45046.923735
   vertex 4503.303250 45.041923 50386.923735
   vertex 4498.758835 50.204581 50388.038563
  endloop
 endfacet
 facet normal -0.719614 -0.671559 0.176534
  outer loop
   vertex 3188.758835 50.204581 45048.038563
   vertex 3193.303250 45.041923 45046.923735
   vertex 4498.758835 50.204581 50388.038563
  endloop
 endfacet
 facet normal -0.780077 -0.595699 0.191367
  outer loop
   vertex 3197.334325 39.445487 45045.934838
   vertex 4507.334325 39.445487 50385.934838
   vertex 4503.303250 45.041923 50386.923735
  endloop
 endfacet
 facet normal -0.780077 -0.595699 0.191367
  outer loop
   vertex 3193.303250 45.041923 45046.923735
   vertex 3197.334325 39.445487 45045.934838
   vertex 4503.303250 45.041923 50386.923735
  endloop
 endfacet
 facet normal -0.833029 -0.514103 0.204357
  outer loop
   vertex 3200.813239 33.469168 45045.081396
   vertex 4510.813239 33.469168 50385.081396
   vertex 4507.334325 39.445487 50385.934838
  endloop
 endfacet
 facet normal -0.833029 -0.514103 0.204357
  outer loop
   vertex 3197.334325 39.445487 45045.934838
   vertex 3200.813239 33.469168 45045.081396
   vertex 4507.334325 39.445487 50385.934838
  endloop
 endfacet
 facet normal -0.877957 -0.427555 0.215379
  outer loop
   vertex 3203.706488 27.170524 45044.371629
   vertex 4513.706488 27.170524 50384.371629
   vertex 4510.813239 33.469168 50385.081396
  endloop
 endfacet
 facet normal -0.877957 -0.427555 0.215379
  outer loop
   vertex 3200.813239 33.469168 45045.081396
   vertex 3203.706488 27.170524 45044.371629
   vertex 4510.813239 33.469168 50385.081396
  endloop
 endfacet
 facet normal -0.914430 -0.336890 0.224327
  outer loop
   vertex 3205.986210 20.610212 45043.812372
   vertex 4515.986210 20.610212 50383.812372
   vertex 4513.706488 27.170524 50384.371629
  endloop
 endfacet
 facet normal -0.914430 -0.336890 0.224327
  outer loop
   vertex 3203.706488 27.170524 45044.371629
   vertex 3205.986210 20.610212 45043.812372
   vertex 4513.706488 27.170524 50384.371629
  endloop
 endfacet
 facet normal -0.942097 -0.242980 0.231114
  outer loop
   vertex 3207.630447 13.851413 45043.409010
   vertex 4517.630447 13.851413 50383.409010
   vertex 4515.986210 20.610212 50383.812372
  endloop
 endfacet
 facet normal -0.942097 -0.242980 0.231114
  outer loop
   vertex 3205.986210 20.610212 45043.812372
   vertex 3207.630447 13.851413 45043.409010
   vertex 4515.986210 20.610212 50383.812372
  endloop
 endfacet
 facet normal -0.960691 -0.146730 0.235675
  outer loop
   vertex 3208.623367 6.959217 45043.165429
   vertex 4518.623367 6.959217 50383.165429
   vertex 4517.630447 13.851413 50383.409010
  endloop
 endfacet
 facet normal -0.960691 -0.146730 0.235675
  outer loop
   vertex 3207.630447 13.851413 45043.409010
   vertex 3208.623367 6.959217 45043.165429
   vertex 4517.630447 13.851413 50383.409010
  endloop
 endfacet
 facet normal -0.970033 -0.049068 0.237967
  outer loop
   vertex 3208.955406 0.000000 45043.083973
   vertex 4518.955406 0.000000 50383.083973
   vertex 4518.623367 6.959217 50383.165429
  endloop
 endfacet
 facet normal -0.970033 -0.049068 0.237967
  outer loop
   vertex 3208.623367 6.959217 45043.165429
   vertex 3208.955406 0.000000 45043.083973
   vertex 4518.623367 6.959217 50383.165429
  endloop
 endfacet
 facet normal -0.970033 0.049068 0.237967
  outer loop
   vertex 3208.623367 -6.959217 45043.165429
   vertex 4518.623367 -6.959217 50383.165429
   vertex 4518.955406 0.000000 50383.083973
  endloop
 endfacet
 facet normal -0.970033 0.049068 0.237967
  outer loop
   vertex 3208.955406 0.000000 45043.083973
   vertex 3208.623367 -6.959217 45043.165429
   vertex 4518.955406 0.000000 50383.083973
  endloop
 endfacet
 facet normal -0.960691 0.146730 0.235675
  outer loop
   vertex 3207.630447 -13.851413 45043.409010
   vertex 4517.630447 -13.851413 50383.409010
   vertex 4518.623367 -6.959217 50383.165429
  endloop
 endfacet
 facet normal -0.960691 0.146730 0.235675
  outer loop
   vertex 3208.623367 -6.959217 45043.165429
   vertex 3207.630447 -13.851413 45043.409010
   vertex 4518.623367 -6.959217 50383.165429
  endloop
 endfacet
 facet normal -0.942097 0.242980 0.231114
  outer loop
   vertex 3205.986210 -20.610212 45043.812372
   vertex 4515.986210 -20.610212 50383.812372
   vertex 4517.630447 -13.851413 50383.409010
  endloop
 endfacet
 facet normal -0.942097 0.242980 0.231114
  outer loop
   vertex 3207.630447 -13.851413 45043.409010
   vertex 3205.986210 -20.610212 45043.812372
   vertex 4517.630447 -13.851413 50383.409010
  endloop
 endfacet
 facet normal -0.914430 0.336890 0.224327
  outer loop
   vertex 3203.706488 -27.170524 45044.371629
   vertex 4513.706488 -27.170524 50384.371629
   vertex 4515.986210 -20.610212 50383.812372
  endloop
 endfacet
 facet normal -0.914430 0.336890 0.224327
  outer loop
   vertex 3205.986210 -20.610212 45043.812372
   vertex 3203.706488 -27.170524 45044.371629
   vertex 4515.986210 -20.610212 50383.812372
  endloop
 endfacet
 facet normal -0.877957 0.427555 0.215379
  outer loop
   vertex 3200.813239 -33.469168 45045.081396
   vertex 4510.813239 -33.469168 50385.081396
   vertex 4513.706488 -27.170524 50384.371629
  endloop
 endfacet
 facet normal -0.877957 0.427555 0.215379
  outer loop
   vertex 3203.706488 -27.170524 45044.371629
   vertex 3200.813239 -33.469168 45045.081396
   vertex 4513.706488 -27.170524 50384.371629
  endloop
 endfacet
 facet normal -0.833029 0.514103 0.204357
  outer loop
   vertex 3197.334325 -39.445487 45045.934838
   vertex 4507.334325 -39.445487 50385.934838
   vertex 4510.813239 -33.469168 50385.081396
  endloop
 endfacet
 facet normal -0.833029 0.514103 0.204357
  outer loop
   vertex 3200.813239 -33.469168 45045.081396
   vertex 3197.334325 -39.445487 45045.934838
   vertex 4510.813239 -33.469168 50385.081396
  endloop
 endfacet
 facet normal -0.780077 0.595699 0.191367
  outer loop
   vertex 3193.303250 -45.041923 45046.923735
   vertex 4503.303250 -45.041923 50386.923735
   vertex 4507.334325 -39.445487 50385.934838
  endloop
 endfacet
 facet normal -0.780077 0.595699 0.191367
  outer loop
   vertex 3197.334325 -39.445487 45045.934838
   vertex 3193.303250 -45.041923 45046.923735
   vertex 4507.334325 -39.445487 50385.934838
  endloop
 endfacet
 facet normal -0.719614 0.671559 0.176534
  outer loop
   vertex 3188.758835 -50.204581 45048.038563
   vertex 4498.758835 -50.204581 50388.038563
   vertex 4503.303250 -45.041923 50386.923735
  endloop
 endfacet
 facet normal -0.719614 0.671559 0.176534
  outer loop
   vertex 3193.303250 -45.041923 45046.923735
   vertex 3188.758835 -50.204581 45048.038563
   vertex 4503.303250 -45.041923 50386.923735
  endloop
 endfacet
 facet normal -0.652220 0.740951 0.160002
  outer loop
   vertex 3183.744847 -54.883742 45049.268586
   vertex 4493.744847 -54.883742 50389.268586
   vertex 4498.758835 -50.204581 50388.038563
  endloop
 endfacet
 facet normal -0.652220 0.740951 0.160002
  outer loop
   vertex 3188.758835 -50.204581 45048.038563
   vertex 3183.744847 -54.883742 45049.268586
   vertex 4498.758835 -50.204581 50388.038563
  endloop
 endfacet
 facet normal -0.578545 0.803208 0.141928
  outer loop
   vertex 3178.309571 -59.034342 45050.601959
   vertex 4488.309571 -59.034342 50390.601959
   vertex 4493.744847 -54.883742 50389.268586
  endloop
 endfacet
 facet normal -0.578545 0.803208 0.141928
  outer loop
   vertex 3183.744847 -54.883742 45049.268586
   vertex 3178.309571 -59.034342 45050.601959
   vertex 4493.744847 -54.883742 50389.268586
  endloop
 endfacet
 facet normal -0.499298 0.857729 0.122487
  outer loop
   vertex 3172.505353 -62.616410 45052.025840
   vertex 4482.505353 -62.616410 50392.025840
   vertex 4488.309571 -59.034342 50390.601959
  endloop
 endfacet
 facet normal -0.499298 0.857729 0.122487
  outer loop
   vertex 3178.309571 -59.034342 45050.601959
   vertex 3172.505353 -62.616410 45052.025840
   vertex 4488.309571 -59.034342 50390.601959
  endloop
 endfacet
 facet normal -0.415243 0.903989 0.101867
  outer loop
   vertex 3166.388092 -65.595447 45053.526517
   vertex 4476.388092 -65.595447 50393.526517
   vertex 4482.505353 -62.616410 50392.025840
  endloop
 endfacet
 facet normal -0.415243 0.903989 0.101867
  outer loop
   vertex 3172.505353 -62.616410 45052.025840
   vertex 3166.388092 -65.595447 45053.526517
   vertex 4482.505353 -62.616410 50392.025840
  endloop
 endfacet
 facet normal -0.327188 0.941544 0.080265
  outer loop
   vertex 3160.016698 -67.942764 45055.089537
   vertex 4470.016698 -67.942764 50395.089537
   vertex 4476.388092 -65.595447 50393.526517
  endloop
 endfacet
 facet normal -0.327188 0.941544 0.080265
  outer loop
   vertex 3166.388092 -65.595447 45053.526517
   vertex 3160.016698 -67.942764 45055.089537
   vertex 4476.388092 -65.595447 50393.526517
  endloop
 endfacet
 facet normal -0.235983 0.970031 0.057891
  outer loop
   vertex 3153.452532 -69.635755 45056.699847
   vertex 4463.452532 -69.635755 50396.699847
   vertex 4470.016698 -67.942764 50395.089537
  endloop
 endfacet
 facet normal -0.235983 0.970031 0.057891
  outer loop
   vertex 3160.016698 -67.942764 45055.089537
   vertex 3153.452532 -69.635755 45056.699847
   vertex 4470.016698 -67.942764 50395.089537
  endloop
 endfacet
 facet normal -0.142505 0.989177 0.034959
  outer loop
   vertex 3146.758812 -70.658116 45058.341939
   vertex 4456.758812 -70.658116 50398.341939
   vertex 4463.452532 -69.635755 50396.699847
  endloop
 endfacet
 facet normal -0.142505 0.989177 0.034959
  outer loop
   vertex 3153.452532 -69.635755 45056.699847
   vertex 3146.758812 -70.658116 45058.341939
   vertex 4463.452532 -69.635755 50396.699847
  endloop
 endfacet
 facet normal -0.047655 0.998795 0.011691
  outer loop
   vertex 3140.000000 -71.000000 45060.000000
   vertex 4450.000000 -71.000000 50400.000000
   vertex 4456.758812 -70.658116 50398.341939
  endloop
 endfacet
 facet normal -0.047655 0.998795 0.011691
  outer loop
   vertex 3146.758812 -70.658116 45058.341939
   vertex 3140.000000 -71.000000 45060.000000
   vertex 4456.758812 -70.658116 50398.341939
  endloop
 endfacet
 facet normal 0.047655 0.998795 -0.011691
  outer loop
   vertex 3133.241188 -70.658116 45061.658061
   vertex 4443.241188 -70.658116 50401.658061
   vertex 4450.000000 -71.000000 50400.000000
  endloop
 endfacet
 facet normal 0.047655 0.998795 -0.011691
  outer loop
   vertex 3140.000000 -71.000000 45060.000000
   vertex 3133.241188 -70.658116 45061.658061
   vertex 4450.000000 -71.000000 50400.000000
  endloop
 endfacet
 facet normal 0.142505 0.989177 -0.034959
  outer loop
   vertex 3126.547468 -69.635755 45063.300153
   vertex 4436.547468 -69.635755 50403.300153
   vertex 4443.241188 -70.658116 50401.658061
  endloop
 endfacet
 facet normal 0.142505 0.989177 -0.034959
  outer loop
   vertex 3133.241188 -70.658116 45061.658061
   vertex 3126.547468 -69.635755 45063.300153
   vertex 4443.241188 -70.658116 50401.658061
  endloop
 endfacet
 facet normal 0.235983 0.970031 -0.057891
  outer loop
   vertex 3119.983302 -67.942764 45064.910463
   vertex 4429.983302 -67.942764 50404.910463
   vertex 4436.547468 -69.635755 50403.300153
  endloop
 endfacet
 facet normal 0.235983 0.970031 -0.057891
  outer loop
   vertex 3126.547468 -69.635755 45063.300153
   vertex 3119.983302 -67.942764 45064.910463
   vertex 4436.547468 -69.635755 50403.300153
  endloop
 endfacet
 facet normal 0.327188 0.941544 -0.080265
  outer loop
   vertex 3113.611908 -65.595447 45066.473483
   vertex 4423.611908 -65.595447 50406.473483
   vertex 4429.983302 -67.942764 50404.910463
  endloop
 endfacet
 facet normal 0.327188 0.941544 -0.080265
  outer loop
   vertex 3119.983302 -67.942764 45064.910463
   vertex 3113.611908 -65.595447 45066.473483
   vertex 4429.983302 -67.942764 50404.910463
  endloop
 endfacet
 facet normal 0.415243 0.903989 -0.101867
  outer loop
   vertex 3107.494647 -62.616410 45067.974160
   vertex 4417.494647 -62.616410 50407.974160
   vertex 4423.611908 -65.595447 50406.473483
  endloop
 endfacet
 facet normal 0.415243 0.903989 -0.101867
  outer loop
   vertex 3113.611908 -65.595447 45066.473483
   vertex 3107.494647 -62.616410 45067.974160
   vertex 4423.611908 -65.595447 50406.473483
  endloop
 endfacet
 facet normal 0.499298 0.857729 -0.122487
  outer loop
   vertex 3101.690429 -59.034342 45069.398041
   vertex 4411.690429 -59.034342 50409.398041
   vertex 4417.494647 -62.616410 50407.974160
  endloop
 endfacet
 facet normal 0.499298 0.857729 -0.122487
  outer loop
   vertex 3107.494647 -62.616410 45067.974160
   vertex 3101.690429 -59.034342 45069.398041
   vertex 4417.494647 -62.616410 50407.974160
  endloop
 endfacet
 facet normal 0.578545 0.803208 -0.141928
  outer loop
   vertex 3096.255153 -54.883742 45070.731414
   vertex 4406.255153 -54.883742 50410.731414
   vertex 4411.690429 -59.034342 50409.398041
  endloop
 endfacet
 facet normal 0.578545 0.803208 -0.141928
  outer loop
   vertex 3101.690429 -59.034342 45069.398041
   vertex 3096.255153 -54.883742 45070.731414
   vertex 4411.690429 -59.034342 50409.398041
  endloop
 endfacet
 facet normal 0.652220 0.740951 -0.160002
  outer loop
   vertex 3091.241165 -50.204581 45071.961437
   vertex 4401.241165 -50.204581 50411.961437
   vertex 4406.255153 -54.883742 50410.731414
  endloop
 endfacet
 facet normal 0.652220 0.740951 -0.160002
  outer loop
   vertex 3096.255153 -54.883742 45070.731414
   vertex 3091.241165 -50.204581 45071.961437
   vertex 4406.255153 -54.883742 50410.731414
  endloop
 endfacet
 facet normal 0.719614 0.671559 -0.176534
  outer loop
   vertex 3086.696750 -45.041923 45073.076265
   vertex 4396.696750 -45.041923 50413.076265
   vertex 4401.241165 -50.204581 50411.961437
  endloop
 endfacet
 facet normal 0.719614 0.671559 -0.176534
  outer loop
   vertex 3091.241165 -50.204581 45071.961437
   vertex 3086.696750 -45.041923 45073.076265
   vertex 4401.241165 -50.204581 50411.961437
  endloop
 endfacet
 facet normal 0.780077 0.595699 -0.191367
  outer loop
   vertex 3082.665675 -39.445487 45074.065162
   vertex 4392.665675 -39.445487 50414.065162
   vertex 4396.696750 -45.041923 50413.076265
  endloop
 endfacet
 facet normal 0.780077 0.595699 -0.191367
  outer loop
   vertex 3086.696750 -45.041923 45073.076265
   vertex 3082.665675 -39.445487 45074.065162
   vertex 4396.696750 -45.041923 50413.076265
  endloop
 endfacet
 facet normal 0.833029 0.514103 -0.204357
  outer loop
   vertex 3079.186761 -33.469168 45074.918604
   vertex 4389.186761 -33.469168 50414.918604
   vertex 4392.665675 -39.445487 50414.065162
  endloop
 endfacet
 facet normal 0.833029 0.514103 -0.204357
  outer loop
   vertex 3082.665675 -39.445487 45074.065162
   vertex 3079.186761 -33.469168 45074.918604
   vertex 4392.665675 -39.445487 50414.065162
  endloop
 endfacet
 facet normal 0.877957 0.427555 -0.215379
  outer loop
   vertex 3076.293512 -27.170524 45075.628371
   vertex 4386.293512 -27.170524 50415.628371
   vertex 4389.186761 -33.469168 50414.918604
  endloop
 endfacet
 facet normal 0.877957 0.427555 -0.215379
  outer loop
   vertex 3079.186761 -33.469168 45074.918604
   vertex 3076.293512 -27.170524 45075.628371
   vertex 4389.186761 -33.469168 50414.918604
  endloop
 endfacet
 facet normal 0.914430 0.336890 -0.224327
  outer loop
   vertex 3074.013790 -20.610212 45076.187628
   vertex 4384.013790 -20.610212 50416.187628
   vertex 4386.293512 -27.170524 50415.628371
  endloop
 endfacet
 facet normal 0.914430 0.336890 -0.224327
  outer loop
   vertex 3076.293512 -27.170524 45075.628371
   vertex 3074.013790 -20.610212 45076.187628
   vertex 4386.293512 -27.170524 50415.628371
  endloop
 endfacet
 facet normal 0.942097 0.242980 -0.231114
  outer loop
   vertex 3072.369553 -13.851413 45076.590990
   vertex 4382.369553 -13.851413 50416.590990
   vertex 4384.013790 -20.610212 50416.187628
  endloop
 endfacet
 facet normal 0.942097 0.242980 -0.231114
  outer loop
   vertex 3074.013790 -20.610212 45076.187628
   vertex 3072.369553 -13.851413 45076.590990
   vertex 4384.013790 -20.610212 50416.187628
  endloop
 endfacet
 facet normal 0.960691 0.146730 -0.235675
  outer loop
   vertex 3071.376633 -6.959217 45076.834571
   vertex 4381.376633 -6.959217 50416.834571
   vertex 4382.369553 -13.851413 50416.590990
  endloop
 endfacet
 facet normal 0.960691 0.146730 -0.235675
  outer loop
   vertex 3072.369553 -13.851413 45076.590990
   vertex 3071.376633 -6.959217 45076.834571
   vertex 4382.369553 -13.851413 50416.590990
  endloop
 endfacet
 facet normal 0.970033 0.049068 -0.237967
  outer loop
   vertex 3071.044594 -0.000000 45076.916027
   vertex 4381.044594 -0.000000 50416.916027
   vertex 4381.376633 -6.959217 50416.834571
  endloop
 endfacet
 facet normal 0.970033 0.049068 -0.237967
  outer loop
   vertex 3071.376633 -6.959217 45076.834571
   vertex 3071.044594 -0.000000 45076.916027
   vertex 4381.376633 -6.959217 50416.834571
  endloop
 endfacet
 facet normal 0.970033 -0.049068 -0.237967
  outer loop
   vertex 3071.376633 6.959217 45076.834571
   vertex 4381.376633 6.959217 50416.834571
   vertex 4381.044594 -0.000000 50416.916027
  endloop
 endfacet
 facet normal 0.970033 -0.049068 -0.237967
  outer loop
   vertex 3071.044594 -0.000000 45076.916027
   vertex 3071.376633 6.959217 45076.834571
   vertex 4381.044594 -0.000000 50416.916027
  endloop
 endfacet
 facet normal 0.960691 -0.146730 -0.235675
  outer loop
   vertex 3072.369553 13.851413 45076.590990
   vertex 4382.369553 13.851413 50416.590990
   vertex 4381.376633 6.959217 50416.834571
  endloop
 endfacet
 facet normal 0.960691 -0.146730 -0.235675
  outer loop
   vertex 3071.376633 6.959217 45076.834571
   vertex 3072.369553 13.851413 45076.590990
   vertex 4381.376633 6.959217 50416.834571
  endloop
 endfacet
 facet normal 0.942097 -0.242980 -0.231114
  outer loop
   vertex 3074.013790 20.610212 45076.187628
   vertex 4384.013790 20.610212 50416.187628
   vertex 4382.369553 13.851413 50416.590990
  endloop
 endfacet
 facet normal 0.942097 -0.242980 -0.231114
  outer loop
   vertex 3072.369553 13.851413 45076.590990
   vertex 3074.013790 20.610212 45076.187628
   vertex 4382.369553 13.851413 50416.590990
  endloop
 endfacet
 facet normal 0.914430 -0.336890 -0.224327
  outer loop
   vertex 3076.293512 27.170524 45075.628371
   vertex 4386.293512 27.170524 50415.628371
   vertex 4384.013790 20.610212 50416.187628
  endloop
 endfacet
 facet normal 0.914430 -0.336890 -0.224327
  outer loop
   vertex 3074.013790 20.610212 45076.187628
   vertex 3076.293512 27.170524 45075.628371
   vertex 4384.013790 20.610212 50416.187628
  endloop
 endfacet
 facet normal 0.877957 -0.427555 -0.215379
  outer loop
   vertex 3079.186761 33.469168 45074.918604
   vertex 4389.186761 33.469168 50414.918604
   vertex 4386.293512 27.170524 50415.628371
  endloop
 endfacet
 facet normal 0.877957 -0.427555 -0.215379
  outer loop
   vertex 3076.293512 27.170524 45075.628371
   vertex 3079.186761 33.469168 45074.918604
   vertex 4386.293512 27.170524 50415.628371
  endloop
 endfacet
 facet normal 0.833029 -0.514103 -0.204357
  outer loop
   vertex 3082.665675 39.445487 45074.065162
   vertex 4392.665675 39.445487 50414.065162
   vertex 4389.186761 33.469168 50414.918604
  endloop
 endfacet
 facet normal 0.833029 -0.514103 -0.204357
  outer loop
   vertex 3079.186761 33.469168 45074.918604
   vertex 3082.665675 39.445487 45074.065162
   vertex 4389.186761 33.469168 50414.918604
  endloop
 endfacet
 facet normal 0.780077 -0.595699 -0.191367
  outer loop
   vertex 3086.696750 45.041923 45073.076265
   vertex 4396.696750 45.041923 50413.076265
   vertex 4392.665675 39.445487 50414.065162
  endloop
 endfacet
 facet normal 0.780077 -0.595699 -0.191367
  outer loop
   vertex 3082.665675 39.445487 45074.065162
   vertex 3086.696750 45.041923 45073.076265
   vertex 4392.665675 39.445487 50414.065162
  endloop
 endfacet
 facet normal 0.719614 -0.671559 -0.176534
  outer loop
   vertex 3091.241165 50.204581 45071.961437
   vertex 4401.241165 50.204581 50411.961437
   vertex 4396.696750 45.041923 50413.076265
  endloop
 endfacet
 facet normal 0.719614 -0.671559 -0.176534
  outer loop
   vertex 3086.696750 45.041923 45073.076265
   vertex 3091.241165 50.204581 45071.961437
   vertex 4396.696750 45.041923 50413.076265
  endloop
 endfacet
 facet normal 0.652220 -0.740951 -0.160002
  outer loop
   vertex 3096.255153 54.883742 45070.731414
   vertex 4406.255153 54.883742 50410.731414
   vertex 4401.241165 50.204581 50411.961437
  endloop
 endfacet
 facet normal 0.652220 -0.740951 -0.160002
  outer loop
   vertex 3091.241165 50.204581 45071.961437
   vertex 3096.255153 54.883742 45070.731414
   vertex 4401.241165 50.204581 50411.961437
  endloop
 endfacet
 facet normal 0.578545 -0.803208 -0.141928
  outer loop
   vertex 3101.690429 59.034342 45069.398041
   vertex 4411.690429 59.034342 50409.398041
   vertex 4406.255153 54.883742 50410.731414
  endloop
 endfacet
 facet normal 0.578545 -0.803208 -0.141928
  outer loop
   vertex 3096.255153 54.883742 45070.731414
   vertex 3101.690429 59.034342 45069.398041
   vertex 4406.255153 54.883742 50410.731414
  endloop
 endfacet
 facet normal 0.499298 -0.857729 -0.122487
  outer loop
   vertex 3107.494647 62.616410 45067.974160
   vertex 4417.494647 62.616410 50407.974160
   vertex 4411.690429 59.034342 50409.398041
  endloop
 endfacet
 facet normal 0.499298 -0.857729 -0.122487
  outer loop
   vertex 3101.690429 59.034342 45069.398041
   vertex 3107.494647 62.616410 45067.974160
   vertex 4411.690429 59.034342 50409.398041
  endloop
 endfacet
 facet normal 0.415243 -0.903989 -0.101867
  outer loop
   vertex 3113.611908 65.595447 45066.473483
   vertex 4423.611908 65.595447 50406.473483
   vertex 4417.494647 62.616410 50407.974160
  endloop
 endfacet
 facet normal 0.415243 -0.903989 -0.101867
  outer loop
   vertex 3107.494647 62.616410 45067.974160
   vertex 3113.611908 65.595447 45066.473483
   vertex 4417.494647 62.616410 50407.974160
  endloop
 endfacet
 facet normal 0.327188 -0.941544 -0.080265
  outer loop
   vertex 3119.983302 67.942764 45064.910463
   vertex 4429.983302 67.942764 50404.910463
   vertex 4423.611908 65.595447 50406.473483
  endloop
 endfacet
 facet normal 0.327188 -0.941544 -0.080265
  outer loop
   vertex 3113.611908 65.595447 45066.473483
   vertex 3119.983302 67.942764 45064.910463
   vertex 4423.611908 65.595447 50406.473483
  endloop
 endfacet
 facet normal 0.235983 -0.970031 -0.057891
  outer loop
   vertex 3126.547468 69.635755 45063.300153
   vertex 4436.547468 69.635755 50403.300153
   vertex 4429.983302 67.942764 50404.910463
  endloop
 endfacet
 facet normal 0.235983 -0.970031 -0.057891
  outer loop
   vertex 3119.983302 67.942764 45064.910463
   vertex 3126.547468 69.635755 45063.300153
   vertex 4429.983302 67.942764 50404.910463
  endloop
 endfacet
 facet normal 0.142505 -0.989177 -0.034959
  outer loop
   vertex 3133.241188 70.658116 45061.658061
   vertex 4443.241188 70.658116 50401.658061
   vertex 4436.547468 69.635755 50403.300153
  endloop
 endfacet
 facet normal 0.142505 -0.989177 -0.034959
  outer loop
   vertex 3126.547468 69.635755 45063.300153
   vertex 3133.241188 70.658116 45061.658061
   vertex 4436.547468 69.635755 50403.300153
  endloop
 endfacet
 facet normal 0.047655 -0.998795 -0.011691
  outer loop
   vertex 3140.000000 71.000000 45060.000000
   vertex 4450.000000 71.000000 50400.000000
   vertex 4443.241188 70.658116 50401.658061
  endloop
 endfacet
 facet normal 0.047655 -0.998795 -0.011691
  outer loop
   vertex 3133.241188 70.658116 45061.658061
   vertex 3140.000000 71.000000 45060.000000
   vertex 4443.241188 70.658116 50401.658061
  endloop
 endfacet
endsolid part
