solid SII_LOX_feed_4_elbow
 facet normal 0.047995 0.925434 0.375856
  outer loop
   vertex 1104.000000 1988.126863 45233.012306
   vertex 1112.628625 1987.050689 45234.560243
   vertex 1208.628625 2152.650689 44814.560243
  endloop
 endfacet
 facet normal 0.047995 0.925434 0.375856
  outer loop
   vertex 1104.000000 1988.126863 45233.012306
   vertex 1208.628625 2152.650689 44814.560243
   vertex 1200.000000 2153.726863 44813.012306
  endloop
 endfacet
 facet normal 0.143522 0.909035 0.391225
  outer loop
   vertex 1112.628625 1987.050689 45234.560243
   vertex 1121.174151 1985.178544 45235.775346
   vertex 1217.174151 2150.778544 44815.775346
  endloop
 endfacet
 facet normal 0.143522 0.909035 0.391225
  outer loop
   vertex 1112.628625 1987.050689 45234.560243
   vertex 1217.174151 2150.778544 44815.775346
   vertex 1208.628625 2152.650689 44814.560243
  endloop
 endfacet
 facet normal 0.237666 0.883881 0.402826
  outer loop
   vertex 1121.174151 1985.178544 45235.775346
   vertex 1129.554282 1982.528457 45236.645913
   vertex 1225.554282 2148.128457 44816.645913
  endloop
 endfacet
 facet normal 0.237666 0.883881 0.402826
  outer loop
   vertex 1121.174151 1985.178544 45235.775346
   vertex 1225.554282 2148.128457 44816.645913
   vertex 1217.174151 2150.778544 44815.775346
  endloop
 endfacet
 facet normal 0.329522 0.850215 0.410547
  outer loop
   vertex 1129.554282 1982.528457 45236.645913
   vertex 1137.688310 1979.125950 45237.163560
   vertex 1233.688310 2144.725950 44817.163560
  endloop
 endfacet
 facet normal 0.329522 0.850215 0.410547
  outer loop
   vertex 1129.554282 1982.528457 45236.645913
   vertex 1233.688310 2144.725950 44817.163560
   vertex 1225.554282 2148.128457 44816.645913
  endloop
 endfacet
 facet normal 0.418205 0.808361 0.414315
  outer loop
   vertex 1137.688310 1979.125950 45237.163560
   vertex 1145.497901 1975.003792 45237.323301
   vertex 1241.497901 2140.603792 44817.323301
  endloop
 endfacet
 facet normal 0.418205 0.808361 0.414315
  outer loop
   vertex 1137.688310 1979.125950 45237.163560
   vertex 1241.497901 2140.603792 44817.323301
   vertex 1233.688310 2144.725950 44817.163560
  endloop
 endfacet
 facet normal 0.502860 0.758722 0.414093
  outer loop
   vertex 1145.497901 1975.003792 45237.323301
   vertex 1152.907846 1970.201680 45237.123598
   vertex 1248.907846 2135.801680 44817.123598
  endloop
 endfacet
 facet normal 0.502860 0.758722 0.414093
  outer loop
   vertex 1145.497901 1975.003792 45237.323301
   vertex 1248.907846 2135.801680 44817.123598
   vertex 1241.497901 2140.603792 44817.323301
  endloop
 endfacet
 facet normal 0.582672 0.701776 0.409882
  outer loop
   vertex 1152.907846 1970.201680 45237.123598
   vertex 1159.846780 1964.765862 45236.566375
   vertex 1255.846780 2130.365862 44816.566375
  endloop
 endfacet
 facet normal 0.582672 0.701776 0.409882
  outer loop
   vertex 1152.907846 1970.201680 45237.123598
   vertex 1255.846780 2130.365862 44816.566375
   vertex 1248.907846 2135.801680 44817.123598
  endloop
 endfacet
 facet normal 0.656873 0.638072 0.401725
  outer loop
   vertex 1159.846780 1964.765862 45236.566375
   vertex 1166.247880 1958.748688 45235.656998
   vertex 1262.247880 2124.348688 44815.656998
  endloop
 endfacet
 facet normal 0.656873 0.638072 0.401725
  outer loop
   vertex 1159.846780 1964.765862 45236.566375
   vertex 1262.247880 2124.348688 44815.656998
   vertex 1255.846780 2130.365862 44816.566375
  endloop
 endfacet
 facet normal 0.724747 0.568222 0.389698
  outer loop
   vertex 1166.247880 1958.748688 45235.656998
   vertex 1172.049499 1952.208107 45234.404225
   vertex 1268.049499 2117.808107 44814.404225
  endloop
 endfacet
 facet normal 0.724747 0.568222 0.389698
  outer loop
   vertex 1166.247880 1958.748688 45235.656998
   vertex 1268.049499 2117.808107 44814.404225
   vertex 1262.247880 2124.348688 44815.656998
  endloop
 endfacet
 facet normal 0.785642 0.492900 0.373919
  outer loop
   vertex 1172.049499 1952.208107 45234.404225
   vertex 1177.195763 1945.207107 45232.820119
   vertex 1273.195763 2110.807107 44812.820119
  endloop
 endfacet
 facet normal 0.785642 0.492900 0.373919
  outer loop
   vertex 1172.049499 1952.208107 45234.404225
   vertex 1273.195763 2110.807107 44812.820119
   vertex 1268.049499 2117.808107 44814.404225
  endloop
 endfacet
 facet normal 0.838971 0.412832 0.354538
  outer loop
   vertex 1177.195763 1945.207107 45232.820119
   vertex 1181.637113 1937.813112 45230.919939
   vertex 1277.637113 2103.413112 44810.919939
  endloop
 endfacet
 facet normal 0.838971 0.412832 0.354538
  outer loop
   vertex 1177.195763 1945.207107 45232.820119
   vertex 1277.637113 2103.413112 44810.919939
   vertex 1273.195763 2110.807107 44812.820119
  endloop
 endfacet
 facet normal 0.884220 0.328787 0.331744
  outer loop
   vertex 1181.637113 1937.813112 45230.919939
   vertex 1185.330775 1930.097331 45228.721982
   vertex 1281.330775 2095.697331 44808.721982
  endloop
 endfacet
 facet normal 0.884220 0.328787 0.331744
  outer loop
   vertex 1181.637113 1937.813112 45230.919939
   vertex 1281.330775 2095.697331 44808.721982
   vertex 1277.637113 2103.413112 44810.919939
  endloop
 endfacet
 facet normal 0.920954 0.241577 0.305754
  outer loop
   vertex 1185.330775 1930.097331 45228.721982
   vertex 1188.241177 1922.134071 45226.247417
   vertex 1284.241177 2087.734071 44806.247417
  endloop
 endfacet
 facet normal 0.920954 0.241577 0.305754
  outer loop
   vertex 1185.330775 1930.097331 45228.721982
   vertex 1284.241177 2087.734071 44806.247417
   vertex 1281.330775 2095.697331 44808.721982
  endloop
 endfacet
 facet normal 0.948818 0.152039 0.276820
  outer loop
   vertex 1188.241177 1922.134071 45226.247417
   vertex 1190.340290 1914.000022 45223.520075
   vertex 1286.340290 2079.600022 44803.520075
  endloop
 endfacet
 facet normal 0.948818 0.152039 0.276820
  outer loop
   vertex 1188.241177 1922.134071 45226.247417
   vertex 1286.340290 2079.600022 44803.520075
   vertex 1284.241177 2087.734071 44806.247417
  endloop
 endfacet
 facet normal 0.967544 0.061038 0.245219
  outer loop
   vertex 1190.340290 1914.000022 45223.520075
   vertex 1191.607899 1905.773519 45220.566222
   vertex 1287.607899 2071.373519 44800.566222
  endloop
 endfacet
 facet normal 0.967544 0.061038 0.245219
  outer loop
   vertex 1190.340290 1914.000022 45223.520075
   vertex 1287.607899 2071.373519 44800.566222
   vertex 1286.340290 2079.600022 44803.520075
  endloop
 endfacet
 facet normal 0.976953 -0.030552 0.211257
  outer loop
   vertex 1191.607899 1905.773519 45220.566222
   vertex 1192.031796 1897.533789 45217.414304
   vertex 1288.031796 2063.133789 44797.414304
  endloop
 endfacet
 facet normal 0.976953 -0.030552 0.211257
  outer loop
   vertex 1191.607899 1905.773519 45220.566222
   vertex 1288.031796 2063.133789 44797.414304
   vertex 1287.607899 2071.373519 44800.566222
  endloop
 endfacet
 facet normal 0.976953 -0.121847 0.175261
  outer loop
   vertex 1192.031796 1897.533789 45217.414304
   vertex 1191.607899 1889.360184 45214.094678
   vertex 1287.607899 2054.960184 44794.094678
  endloop
 endfacet
 facet normal 0.976953 -0.121847 0.175261
  outer loop
   vertex 1192.031796 1897.533789 45217.414304
   vertex 1287.607899 2054.960184 44794.094678
   vertex 1288.031796 2063.133789 44797.414304
  endloop
 endfacet
 facet normal 0.967544 -0.211969 0.137577
  outer loop
   vertex 1191.607899 1889.360184 45214.094678
   vertex 1190.340290 1881.331420 45210.639312
   vertex 1286.340290 2046.931420 44790.639312
  endloop
 endfacet
 facet normal 0.967544 -0.211969 0.137577
  outer loop
   vertex 1191.607899 1889.360184 45214.094678
   vertex 1286.340290 2046.931420 44790.639312
   vertex 1287.607899 2054.960184 44794.094678
  endloop
 endfacet
 facet normal 0.948818 -0.300049 0.098568
  outer loop
   vertex 1190.340290 1881.331420 45210.639312
   vertex 1188.241177 1873.524820 45207.081484
   vertex 1284.241177 2039.124820 44787.081484
  endloop
 endfacet
 facet normal 0.948818 -0.300049 0.098568
  outer loop
   vertex 1190.340290 1881.331420 45210.639312
   vertex 1284.241177 2039.124820 44787.081484
   vertex 1286.340290 2046.931420 44790.639312
  endloop
 endfacet
 facet normal 0.920954 -0.385240 0.058609
  outer loop
   vertex 1188.241177 1873.524820 45207.081484
   vertex 1185.330775 1866.015564 45203.455457
   vertex 1281.330775 2031.615564 44783.455457
  endloop
 endfacet
 facet normal 0.920954 -0.385240 0.058609
  outer loop
   vertex 1188.241177 1873.524820 45207.081484
   vertex 1281.330775 2031.615564 44783.455457
   vertex 1284.241177 2039.124820 44787.081484
  endloop
 endfacet
 facet normal 0.884220 -0.466720 0.018086
  outer loop
   vertex 1185.330775 1866.015564 45203.455457
   vertex 1181.637113 1858.875972 45199.796152
   vertex 1277.637113 2024.475972 44779.796152
  endloop
 endfacet
 facet normal 0.884220 -0.466720 0.018086
  outer loop
   vertex 1185.330775 1866.015564 45203.455457
   vertex 1277.637113 2024.475972 44779.796152
   vertex 1281.330775 2031.615564 44783.455457
  endloop
 endfacet
 facet normal 0.838971 -0.543706 -0.022611
  outer loop
   vertex 1181.637113 1858.875972 45199.796152
   vertex 1177.195763 1852.174801 45196.138810
   vertex 1273.195763 2017.774801 44776.138810
  endloop
 endfacet
 facet normal 0.838971 -0.543706 -0.022611
  outer loop
   vertex 1181.637113 1858.875972 45199.796152
   vertex 1273.195763 2017.774801 44776.138810
   vertex 1277.637113 2024.475972 44779.796152
  endloop
 endfacet
 facet normal 0.785642 -0.615456 -0.063090
  outer loop
   vertex 1177.195763 1852.174801 45196.138810
   vertex 1172.049499 1845.976587 45192.518654
   vertex 1268.049499 2011.576587 44772.518654
  endloop
 endfacet
 facet normal 0.785642 -0.615456 -0.063090
  outer loop
   vertex 1177.195763 1852.174801 45196.138810
   vertex 1268.049499 2011.576587 44772.518654
   vertex 1273.195763 2017.774801 44776.138810
  endloop
 endfacet
 facet normal 0.724747 -0.681278 -0.102962
  outer loop
   vertex 1172.049499 1845.976587 45192.518654
   vertex 1166.247880 1840.341023 45188.970547
   vertex 1262.247880 2005.941023 44768.970547
  endloop
 endfacet
 facet normal 0.724747 -0.681278 -0.102962
  outer loop
   vertex 1172.049499 1845.976587 45192.518654
   vertex 1262.247880 2005.941023 44768.970547
   vertex 1268.049499 2011.576587 44772.518654
  endloop
 endfacet
 facet normal 0.656873 -0.740540 -0.141842
  outer loop
   vertex 1166.247880 1840.341023 45188.970547
   vertex 1159.846780 1835.322381 45185.528660
   vertex 1255.846780 2000.922381 44765.528660
  endloop
 endfacet
 facet normal 0.656873 -0.740540 -0.141842
  outer loop
   vertex 1166.247880 1840.341023 45188.970547
   vertex 1255.846780 2000.922381 44765.528660
   vertex 1262.247880 2005.941023 44768.970547
  endloop
 endfacet
 facet normal 0.582672 -0.792669 -0.179356
  outer loop
   vertex 1159.846780 1835.322381 45185.528660
   vertex 1152.907846 1830.968995 45182.226140
   vertex 1248.907846 1996.568995 44762.226140
  endloop
 endfacet
 facet normal 0.582672 -0.792669 -0.179356
  outer loop
   vertex 1159.846780 1835.322381 45185.528660
   vertex 1248.907846 1996.568995 44762.226140
   vertex 1255.846780 2000.922381 44765.528660
  endloop
 endfacet
 facet normal 0.502860 -0.837165 -0.215143
  outer loop
   vertex 1152.907846 1830.968995 45182.226140
   vertex 1145.497901 1827.322789 45179.094791
   vertex 1241.497901 1992.922789 44759.094791
  endloop
 endfacet
 facet normal 0.502860 -0.837165 -0.215143
  outer loop
   vertex 1152.907846 1830.968995 45182.226140
   vertex 1241.497901 1992.922789 44759.094791
   vertex 1248.907846 1996.568995 44762.226140
  endloop
 endfacet
 facet normal 0.418205 -0.873599 -0.248858
  outer loop
   vertex 1145.497901 1827.322789 45179.094791
   vertex 1137.688310 1824.418879 45176.164772
   vertex 1233.688310 1990.018879 44756.164772
  endloop
 endfacet
 facet normal 0.418205 -0.873599 -0.248858
  outer loop
   vertex 1145.497901 1827.322789 45179.094791
   vertex 1233.688310 1990.018879 44756.164772
   vertex 1241.497901 1992.922789 44759.094791
  endloop
 endfacet
 facet normal 0.329522 -0.901619 -0.280176
  outer loop
   vertex 1137.688310 1824.418879 45176.164772
   vertex 1129.554282 1822.285231 45173.464298
   vertex 1225.554282 1987.885231 44753.464298
  endloop
 endfacet
 facet normal 0.329522 -0.901619 -0.280176
  outer loop
   vertex 1137.688310 1824.418879 45176.164772
   vertex 1225.554282 1987.885231 44753.464298
   vertex 1233.688310 1990.018879 44756.164772
  endloop
 endfacet
 facet normal 0.237666 -0.920956 -0.308796
  outer loop
   vertex 1129.554282 1822.285231 45173.464298
   vertex 1121.174151 1820.942393 45171.019378
   vertex 1217.174151 1986.542393 44751.019378
  endloop
 endfacet
 facet normal 0.237666 -0.920956 -0.308796
  outer loop
   vertex 1129.554282 1822.285231 45173.464298
   vertex 1217.174151 1986.542393 44751.019378
   vertex 1225.554282 1987.885231 44753.464298
  endloop
 endfacet
 facet normal 0.143522 -0.931424 -0.334442
  outer loop
   vertex 1121.174151 1820.942393 45171.019378
   vertex 1112.628625 1820.403298 45168.853557
   vertex 1208.628625 1986.003298 44748.853557
  endloop
 endfacet
 facet normal 0.143522 -0.931424 -0.334442
  outer loop
   vertex 1121.174151 1820.942393 45171.019378
   vertex 1208.628625 1986.003298 44748.853557
   vertex 1217.174151 1986.542393 44751.019378
  endloop
 endfacet
 facet normal 0.047995 -0.932921 -0.356867
  outer loop
   vertex 1112.628625 1820.403298 45168.853557
   vertex 1104.000000 1820.673137 45166.987694
   vertex 1200.000000 1986.273137 44746.987694
  endloop
 endfacet
 facet normal 0.047995 -0.932921 -0.356867
  outer loop
   vertex 1112.628625 1820.403298 45168.853557
   vertex 1200.000000 1986.273137 44746.987694
   vertex 1208.628625 1986.003298 44748.853557
  endloop
 endfacet
 facet normal -0.047995 -0.925434 -0.375856
  outer loop
   vertex 1104.000000 1820.673137 45166.987694
   vertex 1095.371375 1821.749311 45165.439757
   vertex 1191.371375 1987.349311 44745.439757
  endloop
 endfacet
 facet normal -0.047995 -0.925434 -0.375856
  outer loop
   vertex 1104.000000 1820.673137 45166.987694
   vertex 1191.371375 1987.349311 44745.439757
   vertex 1200.000000 1986.273137 44746.987694
  endloop
 endfacet
 facet normal -0.143522 -0.909035 -0.391225
  outer loop
   vertex 1095.371375 1821.749311 45165.439757
   vertex 1086.825849 1823.621456 45164.224654
   vertex 1182.825849 1989.221456 44744.224654
  endloop
 endfacet
 facet normal -0.143522 -0.909035 -0.391225
  outer loop
   vertex 1095.371375 1821.749311 45165.439757
   vertex 1182.825849 1989.221456 44744.224654
   vertex 1191.371375 1987.349311 44745.439757
  endloop
 endfacet
 facet normal -0.237666 -0.883881 -0.402826
  outer loop
   vertex 1086.825849 1823.621456 45164.224654
   vertex 1078.445718 1826.271543 45163.354087
   vertex 1174.445718 1991.871543 44743.354087
  endloop
 endfacet
 facet normal -0.237666 -0.883881 -0.402826
  outer loop
   vertex 1086.825849 1823.621456 45164.224654
   vertex 1174.445718 1991.871543 44743.354087
   vertex 1182.825849 1989.221456 44744.224654
  endloop
 endfacet
 facet normal -0.329522 -0.850215 -0.410547
  outer loop
   vertex 1078.445718 1826.271543 45163.354087
   vertex 1070.311690 1829.674050 45162.836440
   vertex 1166.311690 1995.274050 44742.836440
  endloop
 endfacet
 facet normal -0.329522 -0.850215 -0.410547
  outer loop
   vertex 1078.445718 1826.271543 45163.354087
   vertex 1166.311690 1995.274050 44742.836440
   vertex 1174.445718 1991.871543 44743.354087
  endloop
 endfacet
 facet normal -0.418205 -0.808361 -0.414315
  outer loop
   vertex 1070.311690 1829.674050 45162.836440
   vertex 1062.502099 1833.796208 45162.676699
   vertex 1158.502099 1999.396208 44742.676699
  endloop
 endfacet
 facet normal -0.418205 -0.808361 -0.414315
  outer loop
   vertex 1070.311690 1829.674050 45162.836440
   vertex 1158.502099 1999.396208 44742.676699
   vertex 1166.311690 1995.274050 44742.836440
  endloop
 endfacet
 facet normal -0.502860 -0.758722 -0.414093
  outer loop
   vertex 1062.502099 1833.796208 45162.676699
   vertex 1055.092154 1838.598320 45162.876402
   vertex 1151.092154 2004.198320 44742.876402
  endloop
 endfacet
 facet normal -0.502860 -0.758722 -0.414093
  outer loop
   vertex 1062.502099 1833.796208 45162.676699
   vertex 1151.092154 2004.198320 44742.876402
   vertex 1158.502099 1999.396208 44742.676699
  endloop
 endfacet
 facet normal -0.582672 -0.701776 -0.409882
  outer loop
   vertex 1055.092154 1838.598320 45162.876402
   vertex 1048.153220 1844.034138 45163.433625
   vertex 1144.153220 2009.634138 44743.433625
  endloop
 endfacet
 facet normal -0.582672 -0.701776 -0.409882
  outer loop
   vertex 1055.092154 1838.598320 45162.876402
   vertex 1144.153220 2009.634138 44743.433625
   vertex 1151.092154 2004.198320 44742.876402
  endloop
 endfacet
 facet normal -0.656873 -0.638072 -0.401725
  outer loop
   vertex 1048.153220 1844.034138 45163.433625
   vertex 1041.752120 1850.051312 45164.343002
   vertex 1137.752120 2015.651312 44744.343002
  endloop
 endfacet
 facet normal -0.656873 -0.638072 -0.401725
  outer loop
   vertex 1048.153220 1844.034138 45163.433625
   vertex 1137.752120 2015.651312 44744.343002
   vertex 1144.153220 2009.634138 44743.433625
  endloop
 endfacet
 facet normal -0.724747 -0.568222 -0.389698
  outer loop
   vertex 1041.752120 1850.051312 45164.343002
   vertex 1035.950501 1856.591893 45165.595775
   vertex 1131.950501 2022.191893 44745.595775
  endloop
 endfacet
 facet normal -0.724747 -0.568222 -0.389698
  outer loop
   vertex 1041.752120 1850.051312 45164.343002
   vertex 1131.950501 2022.191893 44745.595775
   vertex 1137.752120 2015.651312 44744.343002
  endloop
 endfacet
 facet normal -0.785642 -0.492900 -0.373919
  outer loop
   vertex 1035.950501 1856.591893 45165.595775
   vertex 1030.804237 1863.592893 45167.179881
   vertex 1126.804237 2029.192893 44747.179881
  endloop
 endfacet
 facet normal -0.785642 -0.492900 -0.373919
  outer loop
   vertex 1035.950501 1856.591893 45165.595775
   vertex 1126.804237 2029.192893 44747.179881
   vertex 1131.950501 2022.191893 44745.595775
  endloop
 endfacet
 facet normal -0.838971 -0.412832 -0.354538
  outer loop
   vertex 1030.804237 1863.592893 45167.179881
   vertex 1026.362887 1870.986888 45169.080061
   vertex 1122.362887 2036.586888 44749.080061
  endloop
 endfacet
 facet normal -0.838971 -0.412832 -0.354538
  outer loop
   vertex 1030.804237 1863.592893 45167.179881
   vertex 1122.362887 2036.586888 44749.080061
   vertex 1126.804237 2029.192893 44747.179881
  endloop
 endfacet
 facet normal -0.884220 -0.328787 -0.331744
  outer loop
   vertex 1026.362887 1870.986888 45169.080061
   vertex 1022.669225 1878.702669 45171.278018
   vertex 1118.669225 2044.302669 44751.278018
  endloop
 endfacet
 facet normal -0.884220 -0.328787 -0.331744
  outer loop
   vertex 1026.362887 1870.986888 45169.080061
   vertex 1118.669225 2044.302669 44751.278018
   vertex 1122.362887 2036.586888 44749.080061
  endloop
 endfacet
 facet normal -0.920954 -0.241577 -0.305754
  outer loop
   vertex 1022.669225 1878.702669 45171.278018
   vertex 1019.758823 1886.665929 45173.752583
   vertex 1115.758823 2052.265929 44753.752583
  endloop
 endfacet
 facet normal -0.920954 -0.241577 -0.305754
  outer loop
   vertex 1022.669225 1878.702669 45171.278018
   vertex 1115.758823 2052.265929 44753.752583
   vertex 1118.669225 2044.302669 44751.278018
  endloop
 endfacet
 facet normal -0.948818 -0.152039 -0.276820
  outer loop
   vertex 1019.758823 1886.665929 45173.752583
   vertex 1017.659710 1894.799978 45176.479925
   vertex 1113.659710 2060.399978 44756.479925
  endloop
 endfacet
 facet normal -0.948818 -0.152039 -0.276820
  outer loop
   vertex 1019.758823 1886.665929 45173.752583
   vertex 1113.659710 2060.399978 44756.479925
   vertex 1115.758823 2052.265929 44753.752583
  endloop
 endfacet
 facet normal -0.967544 -0.061038 -0.245219
  outer loop
   vertex 1017.659710 1894.799978 45176.479925
   vertex 1016.392101 1903.026481 45179.433778
   vertex 1112.392101 2068.626481 44759.433778
  endloop
 endfacet
 facet normal -0.967544 -0.061038 -0.245219
  outer loop
   vertex 1017.659710 1894.799978 45176.479925
   vertex 1112.392101 2068.626481 44759.433778
   vertex 1113.659710 2060.399978 44756.479925
  endloop
 endfacet
 facet normal -0.976953 0.030552 -0.211257
  outer loop
   vertex 1016.392101 1903.026481 45179.433778
   vertex 1015.968204 1911.266211 45182.585696
   vertex 1111.968204 2076.866211 44762.585696
  endloop
 endfacet
 facet normal -0.976953 0.030552 -0.211257
  outer loop
   vertex 1016.392101 1903.026481 45179.433778
   vertex 1111.968204 2076.866211 44762.585696
   vertex 1112.392101 2068.626481 44759.433778
  endloop
 endfacet
 facet normal -0.976953 0.121847 -0.175261
  outer loop
   vertex 1015.968204 1911.266211 45182.585696
   vertex 1016.392101 1919.439816 45185.905322
   vertex 1112.392101 2085.039816 44765.905322
  endloop
 endfacet
 facet normal -0.976953 0.121847 -0.175261
  outer loop
   vertex 1015.968204 1911.266211 45182.585696
   vertex 1112.392101 2085.039816 44765.905322
   vertex 1111.968204 2076.866211 44762.585696
  endloop
 endfacet
 facet normal -0.967544 0.211969 -0.137577
  outer loop
   vertex 1016.392101 1919.439816 45185.905322
   vertex 1017.659710 1927.468580 45189.360688
   vertex 1113.659710 2093.068580 44769.360688
  endloop
 endfacet
 facet normal -0.967544 0.211969 -0.137577
  outer loop
   vertex 1016.392101 1919.439816 45185.905322
   vertex 1113.659710 2093.068580 44769.360688
   vertex 1112.392101 2085.039816 44765.905322
  endloop
 endfacet
 facet normal -0.948818 0.300049 -0.098568
  outer loop
   vertex 1017.659710 1927.468580 45189.360688
   vertex 1019.758823 1935.275180 45192.918516
   vertex 1115.758823 2100.875180 44772.918516
  endloop
 endfacet
 facet normal -0.948818 0.300049 -0.098568
  outer loop
   vertex 1017.659710 1927.468580 45189.360688
   vertex 1115.758823 2100.875180 44772.918516
   vertex 1113.659710 2093.068580 44769.360688
  endloop
 endfacet
 facet normal -0.920954 0.385240 -0.058609
  outer loop
   vertex 1019.758823 1935.275180 45192.918516
   vertex 1022.669225 1942.784436 45196.544543
   vertex 1118.669225 2108.384436 44776.544543
  endloop
 endfacet
 facet normal -0.920954 0.385240 -0.058609
  outer loop
   vertex 1019.758823 1935.275180 45192.918516
   vertex 1118.669225 2108.384436 44776.544543
   vertex 1115.758823 2100.875180 44772.918516
  endloop
 endfacet
 facet normal -0.884220 0.466720 -0.018086
  outer loop
   vertex 1022.669225 1942.784436 45196.544543
   vertex 1026.362887 1949.924028 45200.203848
   vertex 1122.362887 2115.524028 44780.203848
  endloop
 endfacet
 facet normal -0.884220 0.466720 -0.018086
  outer loop
   vertex 1022.669225 1942.784436 45196.544543
   vertex 1122.362887 2115.524028 44780.203848
   vertex 1118.669225 2108.384436 44776.544543
  endloop
 endfacet
 facet normal -0.838971 0.543706 0.022611
  outer loop
   vertex 1026.362887 1949.924028 45200.203848
   vertex 1030.804237 1956.625199 45203.861190
   vertex 1126.804237 2122.225199 44783.861190
  endloop
 endfacet
 facet normal -0.838971 0.543706 0.022611
  outer loop
   vertex 1026.362887 1949.924028 45200.203848
   vertex 1126.804237 2122.225199 44783.861190
   vertex 1122.362887 2115.524028 44780.203848
  endloop
 endfacet
 facet normal -0.785642 0.615456 0.063090
  outer loop
   vertex 1030.804237 1956.625199 45203.861190
   vertex 1035.950501 1962.823413 45207.481346
   vertex 1131.950501 2128.423413 44787.481346
  endloop
 endfacet
 facet normal -0.785642 0.615456 0.063090
  outer loop
   vertex 1030.804237 1956.625199 45203.861190
   vertex 1131.950501 2128.423413 44787.481346
   vertex 1126.804237 2122.225199 44783.861190
  endloop
 endfacet
 facet normal -0.724747 0.681278 0.102962
  outer loop
   vertex 1035.950501 1962.823413 45207.481346
   vertex 1041.752120 1968.458977 45211.029453
   vertex 1137.752120 2134.058977 44791.029453
  endloop
 endfacet
 facet normal -0.724747 0.681278 0.102962
  outer loop
   vertex 1035.950501 1962.823413 45207.481346
   vertex 1137.752120 2134.058977 44791.029453
   vertex 1131.950501 2128.423413 44787.481346
  endloop
 endfacet
 facet normal -0.656873 0.740540 0.141842
  outer loop
   vertex 1041.752120 1968.458977 45211.029453
   vertex 1048.153220 1973.477619 45214.471340
   vertex 1144.153220 2139.077619 44794.471340
  endloop
 endfacet
 facet normal -0.656873 0.740540 0.141842
  outer loop
   vertex 1041.752120 1968.458977 45211.029453
   vertex 1144.153220 2139.077619 44794.471340
   vertex 1137.752120 2134.058977 44791.029453
  endloop
 endfacet
 facet normal -0.582672 0.792669 0.179356
  outer loop
   vertex 1048.153220 1973.477619 45214.471340
   vertex 1055.092154 1977.831005 45217.773860
   vertex 1151.092154 2143.431005 44797.773860
  endloop
 endfacet
 facet normal -0.582672 0.792669 0.179356
  outer loop
   vertex 1048.153220 1973.477619 45214.471340
   vertex 1151.092154 2143.431005 44797.773860
   vertex 1144.153220 2139.077619 44794.471340
  endloop
 endfacet
 facet normal -0.502860 0.837165 0.215143
  outer loop
   vertex 1055.092154 1977.831005 45217.773860
   vertex 1062.502099 1981.477211 45220.905209
   vertex 1158.502099 2147.077211 44800.905209
  endloop
 endfacet
 facet normal -0.502860 0.837165 0.215143
  outer loop
   vertex 1055.092154 1977.831005 45217.773860
   vertex 1158.502099 2147.077211 44800.905209
   vertex 1151.092154 2143.431005 44797.773860
  endloop
 endfacet
 facet normal -0.418205 0.873599 0.248858
  outer loop
   vertex 1062.502099 1981.477211 45220.905209
   vertex 1070.311690 1984.381121 45223.835228
   vertex 1166.311690 2149.981121 44803.835228
  endloop
 endfacet
 facet normal -0.418205 0.873599 0.248858
  outer loop
   vertex 1062.502099 1981.477211 45220.905209
   vertex 1166.311690 2149.981121 44803.835228
   vertex 1158.502099 2147.077211 44800.905209
  endloop
 endfacet
 facet normal -0.329522 0.901619 0.280176
  outer loop
   vertex 1070.311690 1984.381121 45223.835228
   vertex 1078.445718 1986.514769 45226.535702
   vertex 1174.445718 2152.114769 44806.535702
  endloop
 endfacet
 facet normal -0.329522 0.901619 0.280176
  outer loop
   vertex 1070.311690 1984.381121 45223.835228
   vertex 1174.445718 2152.114769 44806.535702
   vertex 1166.311690 2149.981121 44803.835228
  endloop
 endfacet
 facet normal -0.237666 0.920956 0.308796
  outer loop
   vertex 1078.445718 1986.514769 45226.535702
   vertex 1086.825849 1987.857607 45228.980622
   vertex 1182.825849 2153.457607 44808.980622
  endloop
 endfacet
 facet normal -0.237666 0.920956 0.308796
  outer loop
   vertex 1078.445718 1986.514769 45226.535702
   vertex 1182.825849 2153.457607 44808.980622
   vertex 1174.445718 2152.114769 44806.535702
  endloop
 endfacet
 facet normal -0.143522 0.931424 0.334442
  outer loop
   vertex 1086.825849 1987.857607 45228.980622
   vertex 1095.371375 1988.396702 45231.146443
   vertex 1191.371375 2153.996702 44811.146443
  endloop
 endfacet
 facet normal -0.143522 0.931424 0.334442
  outer loop
   vertex 1086.825849 1987.857607 45228.980622
   vertex 1191.371375 2153.996702 44811.146443
   vertex 1182.825849 2153.457607 44808.980622
  endloop
 endfacet
 facet normal -0.047995 0.932921 0.356867
  outer loop
   vertex 1095.371375 1988.396702 45231.146443
   vertex 1104.000000 1988.126863 45233.012306
   vertex 1200.000000 2153.726863 44813.012306
  endloop
 endfacet
 facet normal -0.047995 0.932921 0.356867
  outer loop
   vertex 1095.371375 1988.396702 45231.146443
   vertex 1200.000000 2153.726863 44813.012306
   vertex 1191.371375 2153.996702 44811.146443
  endloop
 endfacet
 facet normal -0.047995 -0.925434 -0.375856
  outer loop
   vertex 1207.669889 2143.467279 44810.720216
   vertex 1111.669889 1977.867279 45230.720216
   vertex 1104.000000 1978.823879 45229.344272
  endloop
 endfacet
 facet normal -0.047995 -0.925434 -0.375856
  outer loop
   vertex 1200.000000 2144.423879 44809.344272
   vertex 1207.669889 2143.467279 44810.720216
   vertex 1104.000000 1978.823879 45229.344272
  endloop
 endfacet
 facet normal -0.143522 -0.909035 -0.391225
  outer loop
   vertex 1215.265912 2141.803150 44811.800308
   vertex 1119.265912 1976.203150 45231.800308
   vertex 1111.669889 1977.867279 45230.720216
  endloop
 endfacet
 facet normal -0.143522 -0.909035 -0.391225
  outer loop
   vertex 1207.669889 2143.467279 44810.720216
   vertex 1215.265912 2141.803150 44811.800308
   vertex 1111.669889 1977.867279 45230.720216
  endloop
 endfacet
 facet normal -0.237666 -0.883881 -0.402826
  outer loop
   vertex 1222.714917 2139.447517 44812.574145
   vertex 1126.714917 1973.847517 45232.574145
   vertex 1119.265912 1976.203150 45231.800308
  endloop
 endfacet
 facet normal -0.237666 -0.883881 -0.402826
  outer loop
   vertex 1215.265912 2141.803150 44811.800308
   vertex 1222.714917 2139.447517 44812.574145
   vertex 1119.265912 1976.203150 45231.800308
  endloop
 endfacet
 facet normal -0.329522 -0.850215 -0.410547
  outer loop
   vertex 1229.945164 2136.423067 44813.034275
   vertex 1133.945164 1970.823067 45233.034275
   vertex 1126.714917 1973.847517 45232.574145
  endloop
 endfacet
 facet normal -0.329522 -0.850215 -0.410547
  outer loop
   vertex 1222.714917 2139.447517 44812.574145
   vertex 1229.945164 2136.423067 44813.034275
   vertex 1126.714917 1973.847517 45232.574145
  endloop
 endfacet
 facet normal -0.418205 -0.808361 -0.414315
  outer loop
   vertex 1236.887024 2132.758926 44813.176268
   vertex 1140.887024 1967.158926 45233.176268
   vertex 1133.945164 1970.823067 45233.034275
  endloop
 endfacet
 facet normal -0.418205 -0.808361 -0.414315
  outer loop
   vertex 1229.945164 2136.423067 44813.034275
   vertex 1236.887024 2132.758926 44813.176268
   vertex 1133.945164 1970.823067 45233.034275
  endloop
 endfacet
 facet normal -0.502860 -0.758722 -0.414093
  outer loop
   vertex 1243.473640 2128.490382 44812.998754
   vertex 1147.473640 1962.890382 45232.998754
   vertex 1140.887024 1967.158926 45233.176268
  endloop
 endfacet
 facet normal -0.502860 -0.758722 -0.414093
  outer loop
   vertex 1236.887024 2132.758926 44813.176268
   vertex 1243.473640 2128.490382 44812.998754
   vertex 1140.887024 1967.158926 45233.176268
  endloop
 endfacet
 facet normal -0.582672 -0.701776 -0.409882
  outer loop
   vertex 1249.641582 2123.658544 44812.503445
   vertex 1153.641582 1958.058544 45232.503445
   vertex 1147.473640 1962.890382 45232.998754
  endloop
 endfacet
 facet normal -0.582672 -0.701776 -0.409882
  outer loop
   vertex 1243.473640 2128.490382 44812.998754
   vertex 1249.641582 2123.658544 44812.503445
   vertex 1147.473640 1962.890382 45232.998754
  endloop
 endfacet
 facet normal -0.656873 -0.638072 -0.401725
  outer loop
   vertex 1255.331449 2118.309945 44811.695110
   vertex 1159.331449 1952.709945 45231.695110
   vertex 1153.641582 1958.058544 45232.503445
  endloop
 endfacet
 facet normal -0.656873 -0.638072 -0.401725
  outer loop
   vertex 1249.641582 2123.658544 44812.503445
   vertex 1255.331449 2118.309945 44811.695110
   vertex 1153.641582 1958.058544 45232.503445
  endloop
 endfacet
 facet normal -0.724747 -0.568222 -0.389698
  outer loop
   vertex 1260.488443 2112.496095 44810.581533
   vertex 1164.488443 1946.896095 45230.581533
   vertex 1159.331449 1952.709945 45231.695110
  endloop
 endfacet
 facet normal -0.724747 -0.568222 -0.389698
  outer loop
   vertex 1255.331449 2118.309945 44811.695110
   vertex 1260.488443 2112.496095 44810.581533
   vertex 1159.331449 1952.709945 45231.695110
  endloop
 endfacet
 facet normal -0.785642 -0.492900 -0.373919
  outer loop
   vertex 1265.062901 2106.272984 44809.173440
   vertex 1169.062901 1940.672984 45229.173440
   vertex 1164.488443 1946.896095 45230.581533
  endloop
 endfacet
 facet normal -0.785642 -0.492900 -0.373919
  outer loop
   vertex 1260.488443 2112.496095 44810.581533
   vertex 1265.062901 2106.272984 44809.173440
   vertex 1164.488443 1946.896095 45230.581533
  endloop
 endfacet
 facet normal -0.838971 -0.412832 -0.354538
  outer loop
   vertex 1269.010767 2099.700544 44807.484390
   vertex 1173.010767 1934.100544 45227.484390
   vertex 1169.062901 1940.672984 45229.173440
  endloop
 endfacet
 facet normal -0.838971 -0.412832 -0.354538
  outer loop
   vertex 1265.062901 2106.272984 44809.173440
   vertex 1269.010767 2099.700544 44807.484390
   vertex 1169.062901 1940.672984 45229.173440
  endloop
 endfacet
 facet normal -0.884220 -0.328787 -0.331744
  outer loop
   vertex 1272.294022 2092.842072 44805.530651
   vertex 1176.294022 1927.242072 45225.530651
   vertex 1173.010767 1934.100544 45227.484390
  endloop
 endfacet
 facet normal -0.884220 -0.328787 -0.331744
  outer loop
   vertex 1269.010767 2099.700544 44807.484390
   vertex 1272.294022 2092.842072 44805.530651
   vertex 1173.010767 1934.100544 45227.484390
  endloop
 endfacet
 facet normal -0.920954 -0.241577 -0.305754
  outer loop
   vertex 1274.881046 2085.763619 44803.331037
   vertex 1178.881046 1920.163619 45223.331037
   vertex 1176.294022 1927.242072 45225.530651
  endloop
 endfacet
 facet normal -0.920954 -0.241577 -0.305754
  outer loop
   vertex 1272.294022 2092.842072 44805.530651
   vertex 1274.881046 2085.763619 44803.331037
   vertex 1176.294022 1927.242072 45225.530651
  endloop
 endfacet
 facet normal -0.948818 -0.152039 -0.276820
  outer loop
   vertex 1276.746924 2078.533353 44800.906733
   vertex 1180.746924 1912.933353 45220.906733
   vertex 1178.881046 1920.163619 45223.331037
  endloop
 endfacet
 facet normal -0.948818 -0.152039 -0.276820
  outer loop
   vertex 1274.881046 2085.763619 44803.331037
   vertex 1276.746924 2078.533353 44800.906733
   vertex 1178.881046 1920.163619 45223.331037
  endloop
 endfacet
 facet normal -0.967544 -0.061038 -0.245219
  outer loop
   vertex 1277.873688 2071.220906 44798.281086
   vertex 1181.873688 1905.620906 45218.281086
   vertex 1180.746924 1912.933353 45220.906733
  endloop
 endfacet
 facet normal -0.967544 -0.061038 -0.245219
  outer loop
   vertex 1276.746924 2078.533353 44800.906733
   vertex 1277.873688 2071.220906 44798.281086
   vertex 1180.746924 1912.933353 45220.906733
  endloop
 endfacet
 facet normal -0.976953 0.030552 -0.211257
  outer loop
   vertex 1278.250486 2063.896701 44795.479382
   vertex 1182.250486 1898.296701 45215.479382
   vertex 1181.873688 1905.620906 45218.281086
  endloop
 endfacet
 facet normal -0.976953 0.030552 -0.211257
  outer loop
   vertex 1277.873688 2071.220906 44798.281086
   vertex 1278.250486 2063.896701 44795.479382
   vertex 1181.873688 1905.620906 45218.281086
  endloop
 endfacet
 facet normal -0.976953 0.121847 -0.175261
  outer loop
   vertex 1277.873688 2056.631274 44792.528603
   vertex 1181.873688 1891.031274 45212.528603
   vertex 1182.250486 1898.296701 45215.479382
  endloop
 endfacet
 facet normal -0.976953 0.121847 -0.175261
  outer loop
   vertex 1278.250486 2063.896701 44795.479382
   vertex 1277.873688 2056.631274 44792.528603
   vertex 1182.250486 1898.296701 45215.479382
  endloop
 endfacet
 facet normal -0.967544 0.211969 -0.137577
  outer loop
   vertex 1276.746924 2049.494596 44789.457166
   vertex 1180.746924 1883.894596 45209.457166
   vertex 1181.873688 1891.031274 45212.528603
  endloop
 endfacet
 facet normal -0.967544 0.211969 -0.137577
  outer loop
   vertex 1277.873688 2056.631274 44792.528603
   vertex 1276.746924 2049.494596 44789.457166
   vertex 1181.873688 1891.031274 45212.528603
  endloop
 endfacet
 facet normal -0.948818 0.300049 -0.098568
  outer loop
   vertex 1274.881046 2042.555395 44786.294652
   vertex 1178.881046 1876.955395 45206.294652
   vertex 1180.746924 1883.894596 45209.457166
  endloop
 endfacet
 facet normal -0.948818 0.300049 -0.098568
  outer loop
   vertex 1276.746924 2049.494596 44789.457166
   vertex 1274.881046 2042.555395 44786.294652
   vertex 1180.746924 1883.894596 45209.457166
  endloop
 endfacet
 facet normal -0.920954 0.385240 -0.058609
  outer loop
   vertex 1272.294022 2035.880502 44783.071517
   vertex 1176.294022 1870.280502 45203.071517
   vertex 1178.881046 1876.955395 45206.294652
  endloop
 endfacet
 facet normal -0.920954 0.385240 -0.058609
  outer loop
   vertex 1274.881046 2042.555395 44786.294652
   vertex 1272.294022 2035.880502 44783.071517
   vertex 1178.881046 1876.955395 45206.294652
  endloop
 endfacet
 facet normal -0.884220 0.466720 -0.018086
  outer loop
   vertex 1269.010767 2029.534197 44779.818802
   vertex 1173.010767 1863.934197 45199.818802
   vertex 1176.294022 1870.280502 45203.071517
  endloop
 endfacet
 facet normal -0.884220 0.466720 -0.018086
  outer loop
   vertex 1272.294022 2035.880502 44783.071517
   vertex 1269.010767 2029.534197 44779.818802
   vertex 1176.294022 1870.280502 45203.071517
  endloop
 endfacet
 facet normal -0.838971 0.543706 0.022611
  outer loop
   vertex 1265.062901 2023.577601 44776.567831
   vertex 1169.062901 1857.977601 45196.567831
   vertex 1173.010767 1863.934197 45199.818802
  endloop
 endfacet
 facet normal -0.838971 0.543706 0.022611
  outer loop
   vertex 1269.010767 2029.534197 44779.818802
   vertex 1265.062901 2023.577601 44776.567831
   vertex 1173.010767 1863.934197 45199.818802
  endloop
 endfacet
 facet normal -0.785642 0.615456 0.063090
  outer loop
   vertex 1260.488443 2018.068077 44773.349915
   vertex 1164.488443 1852.468077 45193.349915
   vertex 1169.062901 1857.977601 45196.567831
  endloop
 endfacet
 facet normal -0.785642 0.615456 0.063090
  outer loop
   vertex 1265.062901 2023.577601 44776.567831
   vertex 1260.488443 2018.068077 44773.349915
   vertex 1169.062901 1857.977601 45196.567831
  endloop
 endfacet
 facet normal -0.724747 0.681278 0.102962
  outer loop
   vertex 1255.331449 2013.058687 44770.196042
   vertex 1159.331449 1847.458687 45190.196042
   vertex 1164.488443 1852.468077 45193.349915
  endloop
 endfacet
 facet normal -0.724747 0.681278 0.102962
  outer loop
   vertex 1260.488443 2018.068077 44773.349915
   vertex 1255.331449 2013.058687 44770.196042
   vertex 1164.488443 1852.468077 45193.349915
  endloop
 endfacet
 facet normal -0.656873 0.740540 0.141842
  outer loop
   vertex 1249.641582 2008.597672 44767.136587
   vertex 1153.641582 1842.997672 45187.136587
   vertex 1159.331449 1847.458687 45190.196042
  endloop
 endfacet
 facet normal -0.656873 0.740540 0.141842
  outer loop
   vertex 1255.331449 2013.058687 44770.196042
   vertex 1249.641582 2008.597672 44767.136587
   vertex 1159.331449 1847.458687 45190.196042
  endloop
 endfacet
 facet normal -0.582672 0.792669 0.179356
  outer loop
   vertex 1243.473640 2004.727995 44764.201013
   vertex 1147.473640 1839.127995 45184.201013
   vertex 1153.641582 1842.997672 45187.136587
  endloop
 endfacet
 facet normal -0.582672 0.792669 0.179356
  outer loop
   vertex 1249.641582 2008.597672 44767.136587
   vertex 1243.473640 2004.727995 44764.201013
   vertex 1153.641582 1842.997672 45187.136587
  endloop
 endfacet
 facet normal -0.502860 0.837165 0.215143
  outer loop
   vertex 1236.887024 2001.486924 44761.417592
   vertex 1140.887024 1835.886924 45181.417592
   vertex 1147.473640 1839.127995 45184.201013
  endloop
 endfacet
 facet normal -0.502860 0.837165 0.215143
  outer loop
   vertex 1243.473640 2004.727995 44764.201013
   vertex 1236.887024 2001.486924 44761.417592
   vertex 1147.473640 1839.127995 45184.201013
  endloop
 endfacet
 facet normal -0.418205 0.873599 0.248858
  outer loop
   vertex 1229.945164 1998.905670 44758.813131
   vertex 1133.945164 1833.305670 45178.813131
   vertex 1140.887024 1835.886924 45181.417592
  endloop
 endfacet
 facet normal -0.418205 0.873599 0.248858
  outer loop
   vertex 1236.887024 2001.486924 44761.417592
   vertex 1229.945164 1998.905670 44758.813131
   vertex 1140.887024 1835.886924 45181.417592
  endloop
 endfacet
 facet normal -0.329522 0.901619 0.280176
  outer loop
   vertex 1222.714917 1997.009095 44756.412710
   vertex 1126.714917 1831.409095 45176.412710
   vertex 1133.945164 1833.305670 45178.813131
  endloop
 endfacet
 facet normal -0.329522 0.901619 0.280176
  outer loop
   vertex 1229.945164 1998.905670 44758.813131
   vertex 1222.714917 1997.009095 44756.412710
   vertex 1133.945164 1833.305670 45178.813131
  endloop
 endfacet
 facet normal -0.237666 0.920956 0.308796
  outer loop
   vertex 1215.265912 1995.815461 44754.239447
   vertex 1119.265912 1830.215461 45174.239447
   vertex 1126.714917 1831.409095 45176.412710
  endloop
 endfacet
 facet normal -0.237666 0.920956 0.308796
  outer loop
   vertex 1222.714917 1997.009095 44756.412710
   vertex 1215.265912 1995.815461 44754.239447
   vertex 1126.714917 1831.409095 45176.412710
  endloop
 endfacet
 facet normal -0.143522 0.931424 0.334442
  outer loop
   vertex 1207.669889 1995.336265 44752.314273
   vertex 1111.669889 1829.736265 45172.314273
   vertex 1119.265912 1830.215461 45174.239447
  endloop
 endfacet
 facet normal -0.143522 0.931424 0.334442
  outer loop
   vertex 1215.265912 1995.815461 44754.239447
   vertex 1207.669889 1995.336265 44752.314273
   vertex 1119.265912 1830.215461 45174.239447
  endloop
 endfacet
 facet normal -0.047995 0.932921 0.356867
  outer loop
   vertex 1200.000000 1995.576121 44750.655728
   vertex 1104.000000 1829.976121 45170.655728
   vertex 1111.669889 1829.736265 45172.314273
  endloop
 endfacet
 facet normal -0.047995 0.932921 0.356867
  outer loop
   vertex 1207.669889 1995.336265 44752.314273
   vertex 1200.000000 1995.576121 44750.655728
   vertex 1111.669889 1829.736265 45172.314273
  endloop
 endfacet
 facet normal 0.047995 0.925434 0.375856
  outer loop
   vertex 1192.330111 1996.532721 44749.279784
   vertex 1096.330111 1830.932721 45169.279784
   vertex 1104.000000 1829.976121 45170.655728
  endloop
 endfacet
 facet normal 0.047995 0.925434 0.375856
  outer loop
   vertex 1200.000000 1995.576121 44750.655728
   vertex 1192.330111 1996.532721 44749.279784
   vertex 1104.000000 1829.976121 45170.655728
  endloop
 endfacet
 facet normal 0.143522 0.909035 0.391225
  outer loop
   vertex 1184.734088 1998.196850 44748.199692
   vertex 1088.734088 1832.596850 45168.199692
   vertex 1096.330111 1830.932721 45169.279784
  endloop
 endfacet
 facet normal 0.143522 0.909035 0.391225
  outer loop
   vertex 1192.330111 1996.532721 44749.279784
   vertex 1184.734088 1998.196850 44748.199692
   vertex 1096.330111 1830.932721 45169.279784
  endloop
 endfacet
 facet normal 0.237666 0.883881 0.402826
  outer loop
   vertex 1177.285083 2000.552483 44747.425855
   vertex 1081.285083 1834.952483 45167.425855
   vertex 1088.734088 1832.596850 45168.199692
  endloop
 endfacet
 facet normal 0.237666 0.883881 0.402826
  outer loop
   vertex 1184.734088 1998.196850 44748.199692
   vertex 1177.285083 2000.552483 44747.425855
   vertex 1088.734088 1832.596850 45168.199692
  endloop
 endfacet
 facet normal 0.329522 0.850215 0.410547
  outer loop
   vertex 1170.054836 2003.576933 44746.965725
   vertex 1074.054836 1837.976933 45166.965725
   vertex 1081.285083 1834.952483 45167.425855
  endloop
 endfacet
 facet normal 0.329522 0.850215 0.410547
  outer loop
   vertex 1177.285083 2000.552483 44747.425855
   vertex 1170.054836 2003.576933 44746.965725
   vertex 1081.285083 1834.952483 45167.425855
  endloop
 endfacet
 facet normal 0.418205 0.808361 0.414315
  outer loop
   vertex 1163.112976 2007.241074 44746.823732
   vertex 1067.112976 1841.641074 45166.823732
   vertex 1074.054836 1837.976933 45166.965725
  endloop
 endfacet
 facet normal 0.418205 0.808361 0.414315
  outer loop
   vertex 1170.054836 2003.576933 44746.965725
   vertex 1163.112976 2007.241074 44746.823732
   vertex 1074.054836 1837.976933 45166.965725
  endloop
 endfacet
 facet normal 0.502860 0.758722 0.414093
  outer loop
   vertex 1156.526360 2011.509618 44747.001246
   vertex 1060.526360 1845.909618 45167.001246
   vertex 1067.112976 1841.641074 45166.823732
  endloop
 endfacet
 facet normal 0.502860 0.758722 0.414093
  outer loop
   vertex 1163.112976 2007.241074 44746.823732
   vertex 1156.526360 2011.509618 44747.001246
   vertex 1067.112976 1841.641074 45166.823732
  endloop
 endfacet
 facet normal 0.582672 0.701776 0.409882
  outer loop
   vertex 1150.358418 2016.341456 44747.496555
   vertex 1054.358418 1850.741456 45167.496555
   vertex 1060.526360 1845.909618 45167.001246
  endloop
 endfacet
 facet normal 0.582672 0.701776 0.409882
  outer loop
   vertex 1156.526360 2011.509618 44747.001246
   vertex 1150.358418 2016.341456 44747.496555
   vertex 1060.526360 1845.909618 45167.001246
  endloop
 endfacet
 facet normal 0.656873 0.638072 0.401725
  outer loop
   vertex 1144.668551 2021.690055 44748.304890
   vertex 1048.668551 1856.090055 45168.304890
   vertex 1054.358418 1850.741456 45167.496555
  endloop
 endfacet
 facet normal 0.656873 0.638072 0.401725
  outer loop
   vertex 1150.358418 2016.341456 44747.496555
   vertex 1144.668551 2021.690055 44748.304890
   vertex 1054.358418 1850.741456 45167.496555
  endloop
 endfacet
 facet normal 0.724747 0.568222 0.389698
  outer loop
   vertex 1139.511557 2027.503905 44749.418467
   vertex 1043.511557 1861.903905 45169.418467
   vertex 1048.668551 1856.090055 45168.304890
  endloop
 endfacet
 facet normal 0.724747 0.568222 0.389698
  outer loop
   vertex 1144.668551 2021.690055 44748.304890
   vertex 1139.511557 2027.503905 44749.418467
   vertex 1048.668551 1856.090055 45168.304890
  endloop
 endfacet
 facet normal 0.785642 0.492900 0.373919
  outer loop
   vertex 1134.937099 2033.727016 44750.826560
   vertex 1038.937099 1868.127016 45170.826560
   vertex 1043.511557 1861.903905 45169.418467
  endloop
 endfacet
 facet normal 0.785642 0.492900 0.373919
  outer loop
   vertex 1139.511557 2027.503905 44749.418467
   vertex 1134.937099 2033.727016 44750.826560
   vertex 1043.511557 1861.903905 45169.418467
  endloop
 endfacet
 facet normal 0.838971 0.412832 0.354538
  outer loop
   vertex 1130.989233 2040.299456 44752.515610
   vertex 1034.989233 1874.699456 45172.515610
   vertex 1038.937099 1868.127016 45170.826560
  endloop
 endfacet
 facet normal 0.838971 0.412832 0.354538
  outer loop
   vertex 1134.937099 2033.727016 44750.826560
   vertex 1130.989233 2040.299456 44752.515610
   vertex 1038.937099 1868.127016 45170.826560
  endloop
 endfacet
 facet normal 0.884220 0.328787 0.331744
  outer loop
   vertex 1127.705978 2047.157928 44754.469349
   vertex 1031.705978 1881.557928 45174.469349
   vertex 1034.989233 1874.699456 45172.515610
  endloop
 endfacet
 facet normal 0.884220 0.328787 0.331744
  outer loop
   vertex 1130.989233 2040.299456 44752.515610
   vertex 1127.705978 2047.157928 44754.469349
   vertex 1034.989233 1874.699456 45172.515610
  endloop
 endfacet
 facet normal 0.920954 0.241577 0.305754
  outer loop
   vertex 1125.118954 2054.236381 44756.668963
   vertex 1029.118954 1888.636381 45176.668963
   vertex 1031.705978 1881.557928 45174.469349
  endloop
 endfacet
 facet normal 0.920954 0.241577 0.305754
  outer loop
   vertex 1127.705978 2047.157928 44754.469349
   vertex 1125.118954 2054.236381 44756.668963
   vertex 1031.705978 1881.557928 45174.469349
  endloop
 endfacet
 facet normal 0.948818 0.152039 0.276820
  outer loop
   vertex 1123.253076 2061.466647 44759.093267
   vertex 1027.253076 1895.866647 45179.093267
   vertex 1029.118954 1888.636381 45176.668963
  endloop
 endfacet
 facet normal 0.948818 0.152039 0.276820
  outer loop
   vertex 1125.118954 2054.236381 44756.668963
   vertex 1123.253076 2061.466647 44759.093267
   vertex 1029.118954 1888.636381 45176.668963
  endloop
 endfacet
 facet normal 0.967544 0.061038 0.245219
  outer loop
   vertex 1122.126312 2068.779094 44761.718914
   vertex 1026.126312 1903.179094 45181.718914
   vertex 1027.253076 1895.866647 45179.093267
  endloop
 endfacet
 facet normal 0.967544 0.061038 0.245219
  outer loop
   vertex 1123.253076 2061.466647 44759.093267
   vertex 1122.126312 2068.779094 44761.718914
   vertex 1027.253076 1895.866647 45179.093267
  endloop
 endfacet
 facet normal 0.976953 -0.030552 0.211257
  outer loop
   vertex 1121.749514 2076.103299 44764.520618
   vertex 1025.749514 1910.503299 45184.520618
   vertex 1026.126312 1903.179094 45181.718914
  endloop
 endfacet
 facet normal 0.976953 -0.030552 0.211257
  outer loop
   vertex 1122.126312 2068.779094 44761.718914
   vertex 1121.749514 2076.103299 44764.520618
   vertex 1026.126312 1903.179094 45181.718914
  endloop
 endfacet
 facet normal 0.976953 -0.121847 0.175261
  outer loop
   vertex 1122.126312 2083.368726 44767.471397
   vertex 1026.126312 1917.768726 45187.471397
   vertex 1025.749514 1910.503299 45184.520618
  endloop
 endfacet
 facet normal 0.976953 -0.121847 0.175261
  outer loop
   vertex 1121.749514 2076.103299 44764.520618
   vertex 1122.126312 2083.368726 44767.471397
   vertex 1025.749514 1910.503299 45184.520618
  endloop
 endfacet
 facet normal 0.967544 -0.211969 0.137577
  outer loop
   vertex 1123.253076 2090.505404 44770.542834
   vertex 1027.253076 1924.905404 45190.542834
   vertex 1026.126312 1917.768726 45187.471397
  endloop
 endfacet
 facet normal 0.967544 -0.211969 0.137577
  outer loop
   vertex 1122.126312 2083.368726 44767.471397
   vertex 1123.253076 2090.505404 44770.542834
   vertex 1026.126312 1917.768726 45187.471397
  endloop
 endfacet
 facet normal 0.948818 -0.300049 0.098568
  outer loop
   vertex 1125.118954 2097.444605 44773.705348
   vertex 1029.118954 1931.844605 45193.705348
   vertex 1027.253076 1924.905404 45190.542834
  endloop
 endfacet
 facet normal 0.948818 -0.300049 0.098568
  outer loop
   vertex 1123.253076 2090.505404 44770.542834
   vertex 1125.118954 2097.444605 44773.705348
   vertex 1027.253076 1924.905404 45190.542834
  endloop
 endfacet
 facet normal 0.920954 -0.385240 0.058609
  outer loop
   vertex 1127.705978 2104.119498 44776.928483
   vertex 1031.705978 1938.519498 45196.928483
   vertex 1029.118954 1931.844605 45193.705348
  endloop
 endfacet
 facet normal 0.920954 -0.385240 0.058609
  outer loop
   vertex 1125.118954 2097.444605 44773.705348
   vertex 1127.705978 2104.119498 44776.928483
   vertex 1029.118954 1931.844605 45193.705348
  endloop
 endfacet
 facet normal 0.884220 -0.466720 0.018086
  outer loop
   vertex 1130.989233 2110.465803 44780.181198
   vertex 1034.989233 1944.865803 45200.181198
   vertex 1031.705978 1938.519498 45196.928483
  endloop
 endfacet
 facet normal 0.884220 -0.466720 0.018086
  outer loop
   vertex 1127.705978 2104.119498 44776.928483
   vertex 1130.989233 2110.465803 44780.181198
   vertex 1031.705978 1938.519498 45196.928483
  endloop
 endfacet
 facet normal 0.838971 -0.543706 -0.022611
  outer loop
   vertex 1134.937099 2116.422399 44783.432169
   vertex 1038.937099 1950.822399 45203.432169
   vertex 1034.989233 1944.865803 45200.181198
  endloop
 endfacet
 facet normal 0.838971 -0.543706 -0.022611
  outer loop
   vertex 1130.989233 2110.465803 44780.181198
   vertex 1134.937099 2116.422399 44783.432169
   vertex 1034.989233 1944.865803 45200.181198
  endloop
 endfacet
 facet normal 0.785642 -0.615456 -0.063090
  outer loop
   vertex 1139.511557 2121.931923 44786.650085
   vertex 1043.511557 1956.331923 45206.650085
   vertex 1038.937099 1950.822399 45203.432169
  endloop
 endfacet
 facet normal 0.785642 -0.615456 -0.063090
  outer loop
   vertex 1134.937099 2116.422399 44783.432169
   vertex 1139.511557 2121.931923 44786.650085
   vertex 1038.937099 1950.822399 45203.432169
  endloop
 endfacet
 facet normal 0.724747 -0.681278 -0.102962
  outer loop
   vertex 1144.668551 2126.941313 44789.803958
   vertex 1048.668551 1961.341313 45209.803958
   vertex 1043.511557 1956.331923 45206.650085
  endloop
 endfacet
 facet normal 0.724747 -0.681278 -0.102962
  outer loop
   vertex 1139.511557 2121.931923 44786.650085
   vertex 1144.668551 2126.941313 44789.803958
   vertex 1043.511557 1956.331923 45206.650085
  endloop
 endfacet
 facet normal 0.656873 -0.740540 -0.141842
  outer loop
   vertex 1150.358418 2131.402328 44792.863413
   vertex 1054.358418 1965.802328 45212.863413
   vertex 1048.668551 1961.341313 45209.803958
  endloop
 endfacet
 facet normal 0.656873 -0.740540 -0.141842
  outer loop
   vertex 1144.668551 2126.941313 44789.803958
   vertex 1150.358418 2131.402328 44792.863413
   vertex 1048.668551 1961.341313 45209.803958
  endloop
 endfacet
 facet normal 0.582672 -0.792669 -0.179356
  outer loop
   vertex 1156.526360 2135.272005 44795.798987
   vertex 1060.526360 1969.672005 45215.798987
   vertex 1054.358418 1965.802328 45212.863413
  endloop
 endfacet
 facet normal 0.582672 -0.792669 -0.179356
  outer loop
   vertex 1150.358418 2131.402328 44792.863413
   vertex 1156.526360 2135.272005 44795.798987
   vertex 1054.358418 1965.802328 45212.863413
  endloop
 endfacet
 facet normal 0.502860 -0.837165 -0.215143
  outer loop
   vertex 1163.112976 2138.513076 44798.582408
   vertex 1067.112976 1972.913076 45218.582408
   vertex 1060.526360 1969.672005 45215.798987
  endloop
 endfacet
 facet normal 0.502860 -0.837165 -0.215143
  outer loop
   vertex 1156.526360 2135.272005 44795.798987
   vertex 1163.112976 2138.513076 44798.582408
   vertex 1060.526360 1969.672005 45215.798987
  endloop
 endfacet
 facet normal 0.418205 -0.873599 -0.248858
  outer loop
   vertex 1170.054836 2141.094330 44801.186869
   vertex 1074.054836 1975.494330 45221.186869
   vertex 1067.112976 1972.913076 45218.582408
  endloop
 endfacet
 facet normal 0.418205 -0.873599 -0.248858
  outer loop
   vertex 1163.112976 2138.513076 44798.582408
   vertex 1170.054836 2141.094330 44801.186869
   vertex 1067.112976 1972.913076 45218.582408
  endloop
 endfacet
 facet normal 0.329522 -0.901619 -0.280176
  outer loop
   vertex 1177.285083 2142.990905 44803.587290
   vertex 1081.285083 1977.390905 45223.587290
   vertex 1074.054836 1975.494330 45221.186869
  endloop
 endfacet
 facet normal 0.329522 -0.901619 -0.280176
  outer loop
   vertex 1170.054836 2141.094330 44801.186869
   vertex 1177.285083 2142.990905 44803.587290
   vertex 1074.054836 1975.494330 45221.186869
  endloop
 endfacet
 facet normal 0.237666 -0.920956 -0.308796
  outer loop
   vertex 1184.734088 2144.184539 44805.760553
   vertex 1088.734088 1978.584539 45225.760553
   vertex 1081.285083 1977.390905 45223.587290
  endloop
 endfacet
 facet normal 0.237666 -0.920956 -0.308796
  outer loop
   vertex 1177.285083 2142.990905 44803.587290
   vertex 1184.734088 2144.184539 44805.760553
   vertex 1081.285083 1977.390905 45223.587290
  endloop
 endfacet
 facet normal 0.143522 -0.931424 -0.334442
  outer loop
   vertex 1192.330111 2144.663735 44807.685727
   vertex 1096.330111 1979.063735 45227.685727
   vertex 1088.734088 1978.584539 45225.760553
  endloop
 endfacet
 facet normal 0.143522 -0.931424 -0.334442
  outer loop
   vertex 1184.734088 2144.184539 44805.760553
   vertex 1192.330111 2144.663735 44807.685727
   vertex 1088.734088 1978.584539 45225.760553
  endloop
 endfacet
 facet normal 0.047995 -0.932921 -0.356867
  outer loop
   vertex 1200.000000 2144.423879 44809.344272
   vertex 1104.000000 1978.823879 45229.344272
   vertex 1096.330111 1979.063735 45227.685727
  endloop
 endfacet
 facet normal 0.047995 -0.932921 -0.356867
  outer loop
   vertex 1192.330111 2144.663735 44807.685727
   vertex 1200.000000 2144.423879 44809.344272
   vertex 1096.330111 1979.063735 45227.685727
  endloop
 endfacet
endsolid part
