solid SII_LOX_feed_4_drop
 facet normal 0.049068 -0.998795 0.000000
  outer loop
   vertex 1200.000000 1980.000000 44780.000000
   vertex 1208.821543 1980.433375 44780.000000
   vertex 1208.821543 1980.433375 45300.000000
  endloop
 endfacet
 facet normal 0.049068 -0.998795 0.000000
  outer loop
   vertex 1200.000000 1980.000000 44780.000000
   vertex 1208.821543 1980.433375 45300.000000
   vertex 1200.000000 1980.000000 45300.000000
  endloop
 endfacet
 facet normal 0.146730 -0.989177 0.000000
  outer loop
   vertex 1208.821543 1980.433375 44780.000000
   vertex 1217.558129 1981.729325 44780.000000
   vertex 1217.558129 1981.729325 45300.000000
  endloop
 endfacet
 facet normal 0.146730 -0.989177 0.000000
  outer loop
   vertex 1208.821543 1980.433375 44780.000000
   vertex 1217.558129 1981.729325 45300.000000
   vertex 1208.821543 1980.433375 45300.000000
  endloop
 endfacet
 facet normal 0.242980 -0.970031 0.000000
  outer loop
   vertex 1217.558129 1981.729325 44780.000000
   vertex 1226.125621 1983.875370 44780.000000
   vertex 1226.125621 1983.875370 45300.000000
  endloop
 endfacet
 facet normal 0.242980 -0.970031 0.000000
  outer loop
   vertex 1217.558129 1981.729325 44780.000000
   vertex 1226.125621 1983.875370 45300.000000
   vertex 1217.558129 1981.729325 45300.000000
  endloop
 endfacet
 facet normal 0.336890 -0.941544 0.000000
  outer loop
   vertex 1226.125621 1983.875370 44780.000000
   vertex 1234.441509 1986.850842 44780.000000
   vertex 1234.441509 1986.850842 45300.000000
  endloop
 endfacet
 facet normal 0.336890 -0.941544 0.000000
  outer loop
   vertex 1226.125621 1983.875370 44780.000000
   vertex 1234.441509 1986.850842 45300.000000
   vertex 1226.125621 1983.875370 45300.000000
  endloop
 endfacet
 facet normal 0.427555 -0.903989 0.000000
  outer loop
   vertex 1234.441509 1986.850842 44780.000000
   vertex 1242.425706 1990.627086 44780.000000
   vertex 1242.425706 1990.627086 45300.000000
  endloop
 endfacet
 facet normal 0.427555 -0.903989 0.000000
  outer loop
   vertex 1234.441509 1986.850842 44780.000000
   vertex 1242.425706 1990.627086 45300.000000
   vertex 1234.441509 1986.850842 45300.000000
  endloop
 endfacet
 facet normal 0.514103 -0.857729 0.000000
  outer loop
   vertex 1242.425706 1990.627086 44780.000000
   vertex 1250.001321 1995.167735 44780.000000
   vertex 1250.001321 1995.167735 45300.000000
  endloop
 endfacet
 facet normal 0.514103 -0.857729 0.000000
  outer loop
   vertex 1242.425706 1990.627086 44780.000000
   vertex 1250.001321 1995.167735 45300.000000
   vertex 1242.425706 1990.627086 45300.000000
  endloop
 endfacet
 facet normal 0.595699 -0.803208 0.000000
  outer loop
   vertex 1250.001321 1995.167735 44780.000000
   vertex 1257.095396 2000.429059 44780.000000
   vertex 1257.095396 2000.429059 45300.000000
  endloop
 endfacet
 facet normal 0.595699 -0.803208 0.000000
  outer loop
   vertex 1250.001321 1995.167735 44780.000000
   vertex 1257.095396 2000.429059 45300.000000
   vertex 1250.001321 1995.167735 45300.000000
  endloop
 endfacet
 facet normal 0.671559 -0.740951 0.000000
  outer loop
   vertex 1257.095396 2000.429059 44780.000000
   vertex 1263.639610 2006.360390 44780.000000
   vertex 1263.639610 2006.360390 45300.000000
  endloop
 endfacet
 facet normal 0.671559 -0.740951 0.000000
  outer loop
   vertex 1257.095396 2000.429059 44780.000000
   vertex 1263.639610 2006.360390 45300.000000
   vertex 1257.095396 2000.429059 45300.000000
  endloop
 endfacet
 facet normal 0.740951 -0.671559 0.000000
  outer loop
   vertex 1263.639610 2006.360390 44780.000000
   vertex 1269.570941 2012.904604 44780.000000
   vertex 1269.570941 2012.904604 45300.000000
  endloop
 endfacet
 facet normal 0.740951 -0.671559 0.000000
  outer loop
   vertex 1263.639610 2006.360390 44780.000000
   vertex 1269.570941 2012.904604 45300.000000
   vertex 1263.639610 2006.360390 45300.000000
  endloop
 endfacet
 facet normal 0.803208 -0.595699 0.000000
  outer loop
   vertex 1269.570941 2012.904604 44780.000000
   vertex 1274.832265 2019.998679 44780.000000
   vertex 1274.832265 2019.998679 45300.000000
  endloop
 endfacet
 facet normal 0.803208 -0.595699 0.000000
  outer loop
   vertex 1269.570941 2012.904604 44780.000000
   vertex 1274.832265 2019.998679 45300.000000
   vertex 1269.570941 2012.904604 45300.000000
  endloop
 endfacet
 facet normal 0.857729 -0.514103 0.000000
  outer loop
   vertex 1274.832265 2019.998679 44780.000000
   vertex 1279.372914 2027.574294 44780.000000
   vertex 1279.372914 2027.574294 45300.000000
  endloop
 endfacet
 facet normal 0.857729 -0.514103 0.000000
  outer loop
   vertex 1274.832265 2019.998679 44780.000000
   vertex 1279.372914 2027.574294 45300.000000
   vertex 1274.832265 2019.998679 45300.000000
  endloop
 endfacet
 facet normal 0.903989 -0.427555 0.000000
  outer loop
   vertex 1279.372914 2027.574294 44780.000000
   vertex 1283.149158 2035.558491 44780.000000
   vertex 1283.149158 2035.558491 45300.000000
  endloop
 endfacet
 facet normal 0.903989 -0.427555 0.000000
  outer loop
   vertex 1279.372914 2027.574294 44780.000000
   vertex 1283.149158 2035.558491 45300.000000
   vertex 1279.372914 2027.574294 45300.000000
  endloop
 endfacet
 facet normal 0.941544 -0.336890 0.000000
  outer loop
   vertex 1283.149158 2035.558491 44780.000000
   vertex 1286.124630 2043.874379 44780.000000
   vertex 1286.124630 2043.874379 45300.000000
  endloop
 endfacet
 facet normal 0.941544 -0.336890 0.000000
  outer loop
   vertex 1283.149158 2035.558491 44780.000000
   vertex 1286.124630 2043.874379 45300.000000
   vertex 1283.149158 2035.558491 45300.000000
  endloop
 endfacet
 facet normal 0.970031 -0.242980 0.000000
  outer loop
   vertex 1286.124630 2043.874379 44780.000000
   vertex 1288.270675 2052.441871 44780.000000
   vertex 1288.270675 2052.441871 45300.000000
  endloop
 endfacet
 facet normal 0.970031 -0.242980 0.000000
  outer loop
   vertex 1286.124630 2043.874379 44780.000000
   vertex 1288.270675 2052.441871 45300.000000
   vertex 1286.124630 2043.874379 45300.000000
  endloop
 endfacet
 facet normal 0.989177 -0.146730 0.000000
  outer loop
   vertex 1288.270675 2052.441871 44780.000000
   vertex 1289.566625 2061.178457 44780.000000
   vertex 1289.566625 2061.178457 45300.000000
  endloop
 endfacet
 facet normal 0.989177 -0.146730 0.000000
  outer loop
   vertex 1288.270675 2052.441871 44780.000000
   vertex 1289.566625 2061.178457 45300.000000
   vertex 1288.270675 2052.441871 45300.000000
  endloop
 endfacet
 facet normal 0.998795 -0.049068 0.000000
  outer loop
   vertex 1289.566625 2061.178457 44780.000000
   vertex 1290.000000 2070.000000 44780.000000
   vertex 1290.000000 2070.000000 45300.000000
  endloop
 endfacet
 facet normal 0.998795 -0.049068 0.000000
  outer loop
   vertex 1289.566625 2061.178457 44780.000000
   vertex 1290.000000 2070.000000 45300.000000
   vertex 1289.566625 2061.178457 45300.000000
  endloop
 endfacet
 facet normal 0.998795 0.049068 0.000000
  outer loop
   vertex 1290.000000 2070.000000 44780.000000
   vertex 1289.566625 2078.821543 44780.000000
   vertex 1289.566625 2078.821543 45300.000000
  endloop
 endfacet
 facet normal 0.998795 0.049068 -0.000000
  outer loop
   vertex 1290.000000 2070.000000 44780.000000
   vertex 1289.566625 2078.821543 45300.000000
   vertex 1290.000000 2070.000000 45300.000000
  endloop
 endfacet
 facet normal 0.989177 0.146730 0.000000
  outer loop
   vertex 1289.566625 2078.821543 44780.000000
   vertex 1288.270675 2087.558129 44780.000000
   vertex 1288.270675 2087.558129 45300.000000
  endloop
 endfacet
 facet normal 0.989177 0.146730 -0.000000
  outer loop
   vertex 1289.566625 2078.821543 44780.000000
   vertex 1288.270675 2087.558129 45300.000000
   vertex 1289.566625 2078.821543 45300.000000
  endloop
 endfacet
 facet normal 0.970031 0.242980 0.000000
  outer loop
   vertex 1288.270675 2087.558129 44780.000000
   vertex 1286.124630 2096.125621 44780.000000
   vertex 1286.124630 2096.125621 45300.000000
  endloop
 endfacet
 facet normal 0.970031 0.242980 -0.000000
  outer loop
   vertex 1288.270675 2087.558129 44780.000000
   vertex 1286.124630 2096.125621 45300.000000
   vertex 1288.270675 2087.558129 45300.000000
  endloop
 endfacet
 facet normal 0.941544 0.336890 0.000000
  outer loop
   vertex 1286.124630 2096.125621 44780.000000
   vertex 1283.149158 2104.441509 44780.000000
   vertex 1283.149158 2104.441509 45300.000000
  endloop
 endfacet
 facet normal 0.941544 0.336890 -0.000000
  outer loop
   vertex 1286.124630 2096.125621 44780.000000
   vertex 1283.149158 2104.441509 45300.000000
   vertex 1286.124630 2096.125621 45300.000000
  endloop
 endfacet
 facet normal 0.903989 0.427555 0.000000
  outer loop
   vertex 1283.149158 2104.441509 44780.000000
   vertex 1279.372914 2112.425706 44780.000000
   vertex 1279.372914 2112.425706 45300.000000
  endloop
 endfacet
 facet normal 0.903989 0.427555 -0.000000
  outer loop
   vertex 1283.149158 2104.441509 44780.000000
   vertex 1279.372914 2112.425706 45300.000000
   vertex 1283.149158 2104.441509 45300.000000
  endloop
 endfacet
 facet normal 0.857729 0.514103 0.000000
  outer loop
   vertex 1279.372914 2112.425706 44780.000000
   vertex 1274.832265 2120.001321 44780.000000
   vertex 1274.832265 2120.001321 45300.000000
  endloop
 endfacet
 facet normal 0.857729 0.514103 -0.000000
  outer loop
   vertex 1279.372914 2112.425706 44780.000000
   vertex 1274.832265 2120.001321 45300.000000
   vertex 1279.372914 2112.425706 45300.000000
  endloop
 endfacet
 facet normal 0.803208 0.595699 0.000000
  outer loop
   vertex 1274.832265 2120.001321 44780.000000
   vertex 1269.570941 2127.095396 44780.000000
   vertex 1269.570941 2127.095396 45300.000000
  endloop
 endfacet
 facet normal 0.803208 0.595699 -0.000000
  outer loop
   vertex 1274.832265 2120.001321 44780.000000
   vertex 1269.570941 2127.095396 45300.000000
   vertex 1274.832265 2120.001321 45300.000000
  endloop
 endfacet
 facet normal 0.740951 0.671559 0.000000
  outer loop
   vertex 1269.570941 2127.095396 44780.000000
   vertex 1263.639610 2133.639610 44780.000000
   vertex 1263.639610 2133.639610 45300.000000
  endloop
 endfacet
 facet normal 0.740951 0.671559 -0.000000
  outer loop
   vertex 1269.570941 2127.095396 44780.000000
   vertex 1263.639610 2133.639610 45300.000000
   vertex 1269.570941 2127.095396 45300.000000
  endloop
 endfacet
 facet normal 0.671559 0.740951 0.000000
  outer loop
   vertex 1263.639610 2133.639610 44780.000000
   vertex 1257.095396 2139.570941 44780.000000
   vertex 1257.095396 2139.570941 45300.000000
  endloop
 endfacet
 facet normal 0.671559 0.740951 -0.000000
  outer loop
   vertex 1263.639610 2133.639610 44780.000000
   vertex 1257.095396 2139.570941 45300.000000
   vertex 1263.639610 2133.639610 45300.000000
  endloop
 endfacet
 facet normal 0.595699 0.803208 0.000000
  outer loop
   vertex 1257.095396 2139.570941 44780.000000
   vertex 1250.001321 2144.832265 44780.000000
   vertex 1250.001321 2144.832265 45300.000000
  endloop
 endfacet
 facet normal 0.595699 0.803208 -0.000000
  outer loop
   vertex 1257.095396 2139.570941 44780.000000
   vertex 1250.001321 2144.832265 45300.000000
   vertex 1257.095396 2139.570941 45300.000000
  endloop
 endfacet
 facet normal 0.514103 0.857729 0.000000
  outer loop
   vertex 1250.001321 2144.832265 44780.000000
   vertex 1242.425706 2149.372914 44780.000000
   vertex 1242.425706 2149.372914 45300.000000
  endloop
 endfacet
 facet normal 0.514103 0.857729 -0.000000
  outer loop
   vertex 1250.001321 2144.832265 44780.000000
   vertex 1242.425706 2149.372914 45300.000000
   vertex 1250.001321 2144.832265 45300.000000
  endloop
 endfacet
 facet normal 0.427555 0.903989 0.000000
  outer loop
   vertex 1242.425706 2149.372914 44780.000000
   vertex 1234.441509 2153.149158 44780.000000
   vertex 1234.441509 2153.149158 45300.000000
  endloop
 endfacet
 facet normal 0.427555 0.903989 -0.000000
  outer loop
   vertex 1242.425706 2149.372914 44780.000000
   vertex 1234.441509 2153.149158 45300.000000
   vertex 1242.425706 2149.372914 45300.000000
  endloop
 endfacet
 facet normal 0.336890 0.941544 0.000000
  outer loop
   vertex 1234.441509 2153.149158 44780.000000
   vertex 1226.125621 2156.124630 44780.000000
   vertex 1226.125621 2156.124630 45300.000000
  endloop
 endfacet
 facet normal 0.336890 0.941544 -0.000000
  outer loop
   vertex 1234.441509 2153.149158 44780.000000
   vertex 1226.125621 2156.124630 45300.000000
   vertex 1234.441509 2153.149158 45300.000000
  endloop
 endfacet
 facet normal 0.242980 0.970031 0.000000
  outer loop
   vertex 1226.125621 2156.124630 44780.000000
   vertex 1217.558129 2158.270675 44780.000000
   vertex 1217.558129 2158.270675 45300.000000
  endloop
 endfacet
 facet normal 0.242980 0.970031 -0.000000
  outer loop
   vertex 1226.125621 2156.124630 44780.000000
   vertex 1217.558129 2158.270675 45300.000000
   vertex 1226.125621 2156.124630 45300.000000
  endloop
 endfacet
 facet normal 0.146730 0.989177 0.000000
  outer loop
   vertex 1217.558129 2158.270675 44780.000000
   vertex 1208.821543 2159.566625 44780.000000
   vertex 1208.821543 2159.566625 45300.000000
  endloop
 endfacet
 facet normal 0.146730 0.989177 -0.000000
  outer loop
   vertex 1217.558129 2158.270675 44780.000000
   vertex 1208.821543 2159.566625 45300.000000
   vertex 1217.558129 2158.270675 45300.000000
  endloop
 endfacet
 facet normal 0.049068 0.998795 0.000000
  outer loop
   vertex 1208.821543 2159.566625 44780.000000
   vertex 1200.000000 2160.000000 44780.000000
   vertex 1200.000000 2160.000000 45300.000000
  endloop
 endfacet
 facet normal 0.049068 0.998795 -0.000000
  outer loop
   vertex 1208.821543 2159.566625 44780.000000
   vertex 1200.000000 2160.000000 45300.000000
   vertex 1208.821543 2159.566625 45300.000000
  endloop
 endfacet
 facet normal -0.049068 0.998795 0.000000
  outer loop
   vertex 1200.000000 2160.000000 44780.000000
   vertex 1191.178457 2159.566625 44780.000000
   vertex 1191.178457 2159.566625 45300.000000
  endloop
 endfacet
 facet normal -0.049068 0.998795 0.000000
  outer loop
   vertex 1200.000000 2160.000000 44780.000000
   vertex 1191.178457 2159.566625 45300.000000
   vertex 1200.000000 2160.000000 45300.000000
  endloop
 endfacet
 facet normal -0.146730 0.989177 0.000000
  outer loop
   vertex 1191.178457 2159.566625 44780.000000
   vertex 1182.441871 2158.270675 44780.000000
   vertex 1182.441871 2158.270675 45300.000000
  endloop
 endfacet
 facet normal -0.146730 0.989177 0.000000
  outer loop
   vertex 1191.178457 2159.566625 44780.000000
   vertex 1182.441871 2158.270675 45300.000000
   vertex 1191.178457 2159.566625 45300.000000
  endloop
 endfacet
 facet normal -0.242980 0.970031 0.000000
  outer loop
   vertex 1182.441871 2158.270675 44780.000000
   vertex 1173.874379 2156.124630 44780.000000
   vertex 1173.874379 2156.124630 45300.000000
  endloop
 endfacet
 facet normal -0.242980 0.970031 0.000000
  outer loop
   vertex 1182.441871 2158.270675 44780.000000
   vertex 1173.874379 2156.124630 45300.000000
   vertex 1182.441871 2158.270675 45300.000000
  endloop
 endfacet
 facet normal -0.336890 0.941544 0.000000
  outer loop
   vertex 1173.874379 2156.124630 44780.000000
   vertex 1165.558491 2153.149158 44780.000000
   vertex 1165.558491 2153.149158 45300.000000
  endloop
 endfacet
 facet normal -0.336890 0.941544 0.000000
  outer loop
   vertex 1173.874379 2156.124630 44780.000000
   vertex 1165.558491 2153.149158 45300.000000
   vertex 1173.874379 2156.124630 45300.000000
  endloop
 endfacet
 facet normal -0.427555 0.903989 0.000000
  outer loop
   vertex 1165.558491 2153.149158 44780.000000
   vertex 1157.574294 2149.372914 44780.000000
   vertex 1157.574294 2149.372914 45300.000000
  endloop
 endfacet
 facet normal -0.427555 0.903989 0.000000
  outer loop
   vertex 1165.558491 2153.149158 44780.000000
   vertex 1157.574294 2149.372914 45300.000000
   vertex 1165.558491 2153.149158 45300.000000
  endloop
 endfacet
 facet normal -0.514103 0.857729 0.000000
  outer loop
   vertex 1157.574294 2149.372914 44780.000000
   vertex 1149.998679 2144.832265 44780.000000
   vertex 1149.998679 2144.832265 45300.000000
  endloop
 endfacet
 facet normal -0.514103 0.857729 0.000000
  outer loop
   vertex 1157.574294 2149.372914 44780.000000
   vertex 1149.998679 2144.832265 45300.000000
   vertex 1157.574294 2149.372914 45300.000000
  endloop
 endfacet
 facet normal -0.595699 0.803208 0.000000
  outer loop
   vertex 1149.998679 2144.832265 44780.000000
   vertex 1142.904604 2139.570941 44780.000000
   vertex 1142.904604 2139.570941 45300.000000
  endloop
 endfacet
 facet normal -0.595699 0.803208 0.000000
  outer loop
   vertex 1149.998679 2144.832265 44780.000000
   vertex 1142.904604 2139.570941 45300.000000
   vertex 1149.998679 2144.832265 45300.000000
  endloop
 endfacet
 facet normal -0.671559 0.740951 0.000000
  outer loop
   vertex 1142.904604 2139.570941 44780.000000
   vertex 1136.360390 2133.639610 44780.000000
   vertex 1136.360390 2133.639610 45300.000000
  endloop
 endfacet
 facet normal -0.671559 0.740951 0.000000
  outer loop
   vertex 1142.904604 2139.570941 44780.000000
   vertex 1136.360390 2133.639610 45300.000000
   vertex 1142.904604 2139.570941 45300.000000
  endloop
 endfacet
 facet normal -0.740951 0.671559 0.000000
  outer loop
   vertex 1136.360390 2133.639610 44780.000000
   vertex 1130.429059 2127.095396 44780.000000
   vertex 1130.429059 2127.095396 45300.000000
  endloop
 endfacet
 facet normal -0.740951 0.671559 0.000000
  outer loop
   vertex 1136.360390 2133.639610 44780.000000
   vertex 1130.429059 2127.095396 45300.000000
   vertex 1136.360390 2133.639610 45300.000000
  endloop
 endfacet
 facet normal -0.803208 0.595699 0.000000
  outer loop
   vertex 1130.429059 2127.095396 44780.000000
   vertex 1125.167735 2120.001321 44780.000000
   vertex 1125.167735 2120.001321 45300.000000
  endloop
 endfacet
 facet normal -0.803208 0.595699 0.000000
  outer loop
   vertex 1130.429059 2127.095396 44780.000000
   vertex 1125.167735 2120.001321 45300.000000
   vertex 1130.429059 2127.095396 45300.000000
  endloop
 endfacet
 facet normal -0.857729 0.514103 0.000000
  outer loop
   vertex 1125.167735 2120.001321 44780.000000
   vertex 1120.627086 2112.425706 44780.000000
   vertex 1120.627086 2112.425706 45300.000000
  endloop
 endfacet
 facet normal -0.857729 0.514103 0.000000
  outer loop
   vertex 1125.167735 2120.001321 44780.000000
   vertex 1120.627086 2112.425706 45300.000000
   vertex 1125.167735 2120.001321 45300.000000
  endloop
 endfacet
 facet normal -0.903989 0.427555 0.000000
  outer loop
   vertex 1120.627086 2112.425706 44780.000000
   vertex 1116.850842 2104.441509 44780.000000
   vertex 1116.850842 2104.441509 45300.000000
  endloop
 endfacet
 facet normal -0.903989 0.427555 0.000000
  outer loop
   vertex 1120.627086 2112.425706 44780.000000
   vertex 1116.850842 2104.441509 45300.000000
   vertex 1120.627086 2112.425706 45300.000000
  endloop
 endfacet
 facet normal -0.941544 0.336890 0.000000
  outer loop
   vertex 1116.850842 2104.441509 44780.000000
   vertex 1113.875370 2096.125621 44780.000000
   vertex 1113.875370 2096.125621 45300.000000
  endloop
 endfacet
 facet normal -0.941544 0.336890 0.000000
  outer loop
   vertex 1116.850842 2104.441509 44780.000000
   vertex 1113.875370 2096.125621 45300.000000
   vertex 1116.850842 2104.441509 45300.000000
  endloop
 endfacet
 facet normal -0.970031 0.242980 0.000000
  outer loop
   vertex 1113.875370 2096.125621 44780.000000
   vertex 1111.729325 2087.558129 44780.000000
   vertex 1111.729325 2087.558129 45300.000000
  endloop
 endfacet
 facet normal -0.970031 0.242980 0.000000
  outer loop
   vertex 1113.875370 2096.125621 44780.000000
   vertex 1111.729325 2087.558129 45300.000000
   vertex 1113.875370 2096.125621 45300.000000
  endloop
 endfacet
 facet normal -0.989177 0.146730 0.000000
  outer loop
   vertex 1111.729325 2087.558129 44780.000000
   vertex 1110.433375 2078.821543 44780.000000
   vertex 1110.433375 2078.821543 45300.000000
  endloop
 endfacet
 facet normal -0.989177 0.146730 0.000000
  outer loop
   vertex 1111.729325 2087.558129 44780.000000
   vertex 1110.433375 2078.821543 45300.000000
   vertex 1111.729325 2087.558129 45300.000000
  endloop
 endfacet
 facet normal -0.998795 0.049068 0.000000
  outer loop
   vertex 1110.433375 2078.821543 44780.000000
   vertex 1110.000000 2070.000000 44780.000000
   vertex 1110.000000 2070.000000 45300.000000
  endloop
 endfacet
 facet normal -0.998795 0.049068 0.000000
  outer loop
   vertex 1110.433375 2078.821543 44780.000000
   vertex 1110.000000 2070.000000 45300.000000
   vertex 1110.433375 2078.821543 45300.000000
  endloop
 endfacet
 facet normal -0.998795 -0.049068 0.000000
  outer loop
   vertex 1110.000000 2070.000000 44780.000000
   vertex 1110.433375 2061.178457 44780.000000
   vertex 1110.433375 2061.178457 45300.000000
  endloop
 endfacet
 facet normal -0.998795 -0.049068 0.000000
  outer loop
   vertex 1110.000000 2070.000000 44780.000000
   vertex 1110.433375 2061.178457 45300.000000
   vertex 1110.000000 2070.000000 45300.000000
  endloop
 endfacet
 facet normal -0.989177 -0.146730 0.000000
  outer loop
   vertex 1110.433375 2061.178457 44780.000000
   vertex 1111.729325 2052.441871 44780.000000
   vertex 1111.729325 2052.441871 45300.000000
  endloop
 endfacet
 facet normal -0.989177 -0.146730 0.000000
  outer loop
   vertex 1110.433375 2061.178457 44780.000000
   vertex 1111.729325 2052.441871 45300.000000
   vertex 1110.433375 2061.178457 45300.000000
  endloop
 endfacet
 facet normal -0.970031 -0.242980 0.000000
  outer loop
   vertex 1111.729325 2052.441871 44780.000000
   vertex 1113.875370 2043.874379 44780.000000
   vertex 1113.875370 2043.874379 45300.000000
  endloop
 endfacet
 facet normal -0.970031 -0.242980 0.000000
  outer loop
   vertex 1111.729325 2052.441871 44780.000000
   vertex 1113.875370 2043.874379 45300.000000
   vertex 1111.729325 2052.441871 45300.000000
  endloop
 endfacet
 facet normal -0.941544 -0.336890 0.000000
  outer loop
   vertex 1113.875370 2043.874379 44780.000000
   vertex 1116.850842 2035.558491 44780.000000
   vertex 1116.850842 2035.558491 45300.000000
  endloop
 endfacet
 facet normal -0.941544 -0.336890 0.000000
  outer loop
   vertex 1113.875370 2043.874379 44780.000000
   vertex 1116.850842 2035.558491 45300.000000
   vertex 1113.875370 2043.874379 45300.000000
  endloop
 endfacet
 facet normal -0.903989 -0.427555 0.000000
  outer loop
   vertex 1116.850842 2035.558491 44780.000000
   vertex 1120.627086 2027.574294 44780.000000
   vertex 1120.627086 2027.574294 45300.000000
  endloop
 endfacet
 facet normal -0.903989 -0.427555 0.000000
  outer loop
   vertex 1116.850842 2035.558491 44780.000000
   vertex 1120.627086 2027.574294 45300.000000
   vertex 1116.850842 2035.558491 45300.000000
  endloop
 endfacet
 facet normal -0.857729 -0.514103 0.000000
  outer loop
   vertex 1120.627086 2027.574294 44780.000000
   vertex 1125.167735 2019.998679 44780.000000
   vertex 1125.167735 2019.998679 45300.000000
  endloop
 endfacet
 facet normal -0.857729 -0.514103 0.000000
  outer loop
   vertex 1120.627086 2027.574294 44780.000000
   vertex 1125.167735 2019.998679 45300.000000
   vertex 1120.627086 2027.574294 45300.000000
  endloop
 endfacet
 facet normal -0.803208 -0.595699 0.000000
  outer loop
   vertex 1125.167735 2019.998679 44780.000000
   vertex 1130.429059 2012.904604 44780.000000
   vertex 1130.429059 2012.904604 45300.000000
  endloop
 endfacet
 facet normal -0.803208 -0.595699 0.000000
  outer loop
   vertex 1125.167735 2019.998679 44780.000000
   vertex 1130.429059 2012.904604 45300.000000
   vertex 1125.167735 2019.998679 45300.000000
  endloop
 endfacet
 facet normal -0.740951 -0.671559 0.000000
  outer loop
   vertex 1130.429059 2012.904604 44780.000000
   vertex 1136.360390 2006.360390 44780.000000
   vertex 1136.360390 2006.360390 45300.000000
  endloop
 endfacet
 facet normal -0.740951 -0.671559 0.000000
  outer loop
   vertex 1130.429059 2012.904604 44780.000000
   vertex 1136.360390 2006.360390 45300.000000
   vertex 1130.429059 2012.904604 45300.000000
  endloop
 endfacet
 facet normal -0.671559 -0.740951 0.000000
  outer loop
   vertex 1136.360390 2006.360390 44780.000000
   vertex 1142.904604 2000.429059 44780.000000
   vertex 1142.904604 2000.429059 45300.000000
  endloop
 endfacet
 facet normal -0.671559 -0.740951 0.000000
  outer loop
   vertex 1136.360390 2006.360390 44780.000000
   vertex 1142.904604 2000.429059 45300.000000
   vertex 1136.360390 2006.360390 45300.000000
  endloop
 endfacet
 facet normal -0.595699 -0.803208 0.000000
  outer loop
   vertex 1142.904604 2000.429059 44780.000000
   vertex 1149.998679 1995.167735 44780.000000
   vertex 1149.998679 1995.167735 45300.000000
  endloop
 endfacet
 facet normal -0.595699 -0.803208 0.000000
  outer loop
   vertex 1142.904604 2000.429059 44780.000000
   vertex 1149.998679 1995.167735 45300.000000
   vertex 1142.904604 2000.429059 45300.000000
  endloop
 endfacet
 facet normal -0.514103 -0.857729 0.000000
  outer loop
   vertex 1149.998679 1995.167735 44780.000000
   vertex 1157.574294 1990.627086 44780.000000
   vertex 1157.574294 1990.627086 45300.000000
  endloop
 endfacet
 facet normal -0.514103 -0.857729 0.000000
  outer loop
   vertex 1149.998679 1995.167735 44780.000000
   vertex 1157.574294 1990.627086 45300.000000
   vertex 1149.998679 1995.167735 45300.000000
  endloop
 endfacet
 facet normal -0.427555 -0.903989 0.000000
  outer loop
   vertex 1157.574294 1990.627086 44780.000000
   vertex 1165.558491 1986.850842 44780.000000
   vertex 1165.558491 1986.850842 45300.000000
  endloop
 endfacet
 facet normal -0.427555 -0.903989 0.000000
  outer loop
   vertex 1157.574294 1990.627086 44780.000000
   vertex 1165.558491 1986.850842 45300.000000
   vertex 1157.574294 1990.627086 45300.000000
  endloop
 endfacet
 facet normal -0.336890 -0.941544 0.000000
  outer loop
   vertex 1165.558491 1986.850842 44780.000000
   vertex 1173.874379 1983.875370 44780.000000
   vertex 1173.874379 1983.875370 45300.000000
  endloop
 endfacet
 facet normal -0.336890 -0.941544 0.000000
  outer loop
   vertex 1165.558491 1986.850842 44780.000000
   vertex 1173.874379 1983.875370 45300.000000
   vertex 1165.558491 1986.850842 45300.000000
  endloop
 endfacet
 facet normal -0.242980 -0.970031 0.000000
  outer loop
   vertex 1173.874379 1983.875370 44780.000000
   vertex 1182.441871 1981.729325 44780.000000
   vertex 1182.441871 1981.729325 45300.000000
  endloop
 endfacet
 facet normal -0.242980 -0.970031 0.000000
  outer loop
   vertex 1173.874379 1983.875370 44780.000000
   vertex 1182.441871 1981.729325 45300.000000
   vertex 1173.874379 1983.875370 45300.000000
  endloop
 endfacet
 facet normal -0.146730 -0.989177 0.000000
  outer loop
   vertex 1182.441871 1981.729325 44780.000000
   vertex 1191.178457 1980.433375 44780.000000
   vertex 1191.178457 1980.433375 45300.000000
  endloop
 endfacet
 facet normal -0.146730 -0.989177 0.000000
  outer loop
   vertex 1182.441871 1981.729325 44780.000000
   vertex 1191.178457 1980.433375 45300.000000
   vertex 1182.441871 1981.729325 45300.000000
  endloop
 endfacet
 facet normal -0.049068 -0.998795 0.000000
  outer loop
   vertex 1191.178457 1980.433375 44780.000000
   vertex 1200.000000 1980.000000 44780.000000
   vertex 1200.000000 1980.000000 45300.000000
  endloop
 endfacet
 facet normal -0.049068 -0.998795 0.000000
  outer loop
   vertex 1191.178457 1980.433375 44780.000000
   vertex 1200.000000 1980.000000 45300.000000
   vertex 1191.178457 1980.433375 45300.000000
  endloop
 endfacet
 facet normal -0.049068 0.998795 0.000000
  outer loop
   vertex 1207.841371 1990.385222 45300.000000
   vertex 1207.841371 1990.385222 44780.000000
   vertex 1200.000000 1990.000000 44780.000000
  endloop
 endfacet
 facet normal -0.049068 0.998795 0.000000
  outer loop
   vertex 1200.000000 1990.000000 45300.000000
   vertex 1207.841371 1990.385222 45300.000000
   vertex 1200.000000 1990.000000 44780.000000
  endloop
 endfacet
 facet normal -0.146730 0.989177 0.000000
  outer loop
   vertex 1215.607226 1991.537178 45300.000000
   vertex 1215.607226 1991.537178 44780.000000
   vertex 1207.841371 1990.385222 44780.000000
  endloop
 endfacet
 facet normal -0.146730 0.989177 0.000000
  outer loop
   vertex 1207.841371 1990.385222 45300.000000
   vertex 1215.607226 1991.537178 45300.000000
   vertex 1207.841371 1990.385222 44780.000000
  endloop
 endfacet
 facet normal -0.242980 0.970031 0.000000
  outer loop
   vertex 1223.222774 1993.444773 45300.000000
   vertex 1223.222774 1993.444773 44780.000000
   vertex 1215.607226 1991.537178 44780.000000
  endloop
 endfacet
 facet normal -0.242980 0.970031 0.000000
  outer loop
   vertex 1215.607226 1991.537178 45300.000000
   vertex 1223.222774 1993.444773 45300.000000
   vertex 1215.607226 1991.537178 44780.000000
  endloop
 endfacet
 facet normal -0.336890 0.941544 0.000000
  outer loop
   vertex 1230.614675 1996.089637 45300.000000
   vertex 1230.614675 1996.089637 44780.000000
   vertex 1223.222774 1993.444773 44780.000000
  endloop
 endfacet
 facet normal -0.336890 0.941544 0.000000
  outer loop
   vertex 1223.222774 1993.444773 45300.000000
   vertex 1230.614675 1996.089637 45300.000000
   vertex 1223.222774 1993.444773 44780.000000
  endloop
 endfacet
 facet normal -0.427555 0.903989 0.000000
  outer loop
   vertex 1237.711739 1999.446299 45300.000000
   vertex 1237.711739 1999.446299 44780.000000
   vertex 1230.614675 1996.089637 44780.000000
  endloop
 endfacet
 facet normal -0.427555 0.903989 0.000000
  outer loop
   vertex 1230.614675 1996.089637 45300.000000
   vertex 1237.711739 1999.446299 45300.000000
   vertex 1230.614675 1996.089637 44780.000000
  endloop
 endfacet
 facet normal -0.514103 0.857729 0.000000
  outer loop
   vertex 1244.445619 2003.482431 45300.000000
   vertex 1244.445619 2003.482431 44780.000000
   vertex 1237.711739 1999.446299 44780.000000
  endloop
 endfacet
 facet normal -0.514103 0.857729 0.000000
  outer loop
   vertex 1237.711739 1999.446299 45300.000000
   vertex 1244.445619 2003.482431 45300.000000
   vertex 1237.711739 1999.446299 44780.000000
  endloop
 endfacet
 facet normal -0.595699 0.803208 0.000000
  outer loop
   vertex 1250.751463 2008.159164 45300.000000
   vertex 1250.751463 2008.159164 44780.000000
   vertex 1244.445619 2003.482431 44780.000000
  endloop
 endfacet
 facet normal -0.595699 0.803208 0.000000
  outer loop
   vertex 1244.445619 2003.482431 45300.000000
   vertex 1250.751463 2008.159164 45300.000000
   vertex 1244.445619 2003.482431 44780.000000
  endloop
 endfacet
 facet normal -0.671559 0.740951 0.000000
  outer loop
   vertex 1256.568542 2013.431458 45300.000000
   vertex 1256.568542 2013.431458 44780.000000
   vertex 1250.751463 2008.159164 44780.000000
  endloop
 endfacet
 facet normal -0.671559 0.740951 0.000000
  outer loop
   vertex 1250.751463 2008.159164 45300.000000
   vertex 1256.568542 2013.431458 45300.000000
   vertex 1250.751463 2008.159164 44780.000000
  endloop
 endfacet
 facet normal -0.740951 0.671559 0.000000
  outer loop
   vertex 1261.840836 2019.248537 45300.000000
   vertex 1261.840836 2019.248537 44780.000000
   vertex 1256.568542 2013.431458 44780.000000
  endloop
 endfacet
 facet normal -0.740951 0.671559 0.000000
  outer loop
   vertex 1256.568542 2013.431458 45300.000000
   vertex 1261.840836 2019.248537 45300.000000
   vertex 1256.568542 2013.431458 44780.000000
  endloop
 endfacet
 facet normal -0.803208 0.595699 0.000000
  outer loop
   vertex 1266.517569 2025.554381 45300.000000
   vertex 1266.517569 2025.554381 44780.000000
   vertex 1261.840836 2019.248537 44780.000000
  endloop
 endfacet
 facet normal -0.803208 0.595699 0.000000
  outer loop
   vertex 1261.840836 2019.248537 45300.000000
   vertex 1266.517569 2025.554381 45300.000000
   vertex 1261.840836 2019.248537 44780.000000
  endloop
 endfacet
 facet normal -0.857729 0.514103 0.000000
  outer loop
   vertex 1270.553701 2032.288261 45300.000000
   vertex 1270.553701 2032.288261 44780.000000
   vertex 1266.517569 2025.554381 44780.000000
  endloop
 endfacet
 facet normal -0.857729 0.514103 0.000000
  outer loop
   vertex 1266.517569 2025.554381 45300.000000
   vertex 1270.553701 2032.288261 45300.000000
   vertex 1266.517569 2025.554381 44780.000000
  endloop
 endfacet
 facet normal -0.903989 0.427555 0.000000
  outer loop
   vertex 1273.910363 2039.385325 45300.000000
   vertex 1273.910363 2039.385325 44780.000000
   vertex 1270.553701 2032.288261 44780.000000
  endloop
 endfacet
 facet normal -0.903989 0.427555 0.000000
  outer loop
   vertex 1270.553701 2032.288261 45300.000000
   vertex 1273.910363 2039.385325 45300.000000
   vertex 1270.553701 2032.288261 44780.000000
  endloop
 endfacet
 facet normal -0.941544 0.336890 0.000000
  outer loop
   vertex 1276.555227 2046.777226 45300.000000
   vertex 1276.555227 2046.777226 44780.000000
   vertex 1273.910363 2039.385325 44780.000000
  endloop
 endfacet
 facet normal -0.941544 0.336890 0.000000
  outer loop
   vertex 1273.910363 2039.385325 45300.000000
   vertex 1276.555227 2046.777226 45300.000000
   vertex 1273.910363 2039.385325 44780.000000
  endloop
 endfacet
 facet normal -0.970031 0.242980 0.000000
  outer loop
   vertex 1278.462822 2054.392774 45300.000000
   vertex 1278.462822 2054.392774 44780.000000
   vertex 1276.555227 2046.777226 44780.000000
  endloop
 endfacet
 facet normal -0.970031 0.242980 0.000000
  outer loop
   vertex 1276.555227 2046.777226 45300.000000
   vertex 1278.462822 2054.392774 45300.000000
   vertex 1276.555227 2046.777226 44780.000000
  endloop
 endfacet
 facet normal -0.989177 0.146730 0.000000
  outer loop
   vertex 1279.614778 2062.158629 45300.000000
   vertex 1279.614778 2062.158629 44780.000000
   vertex 1278.462822 2054.392774 44780.000000
  endloop
 endfacet
 facet normal -0.989177 0.146730 0.000000
  outer loop
   vertex 1278.462822 2054.392774 45300.000000
   vertex 1279.614778 2062.158629 45300.000000
   vertex 1278.462822 2054.392774 44780.000000
  endloop
 endfacet
 facet normal -0.998795 0.049068 0.000000
  outer loop
   vertex 1280.000000 2070.000000 45300.000000
   vertex 1280.000000 2070.000000 44780.000000
   vertex 1279.614778 2062.158629 44780.000000
  endloop
 endfacet
 facet normal -0.998795 0.049068 0.000000
  outer loop
   vertex 1279.614778 2062.158629 45300.000000
   vertex 1280.000000 2070.000000 45300.000000
   vertex 1279.614778 2062.158629 44780.000000
  endloop
 endfacet
 facet normal -0.998795 -0.049068 -0.000000
  outer loop
   vertex 1279.614778 2077.841371 45300.000000
   vertex 1279.614778 2077.841371 44780.000000
   vertex 1280.000000 2070.000000 44780.000000
  endloop
 endfacet
 facet normal -0.998795 -0.049068 -0.000000
  outer loop
   vertex 1280.000000 2070.000000 45300.000000
   vertex 1279.614778 2077.841371 45300.000000
   vertex 1280.000000 2070.000000 44780.000000
  endloop
 endfacet
 facet normal -0.989177 -0.146730 -0.000000
  outer loop
   vertex 1278.462822 2085.607226 45300.000000
   vertex 1278.462822 2085.607226 44780.000000
   vertex 1279.614778 2077.841371 44780.000000
  endloop
 endfacet
 facet normal -0.989177 -0.146730 -0.000000
  outer loop
   vertex 1279.614778 2077.841371 45300.000000
   vertex 1278.462822 2085.607226 45300.000000
   vertex 1279.614778 2077.841371 44780.000000
  endloop
 endfacet
 facet normal -0.970031 -0.242980 -0.000000
  outer loop
   vertex 1276.555227 2093.222774 45300.000000
   vertex 1276.555227 2093.222774 44780.000000
   vertex 1278.462822 2085.607226 44780.000000
  endloop
 endfacet
 facet normal -0.970031 -0.242980 -0.000000
  outer loop
   vertex 1278.462822 2085.607226 45300.000000
   vertex 1276.555227 2093.222774 45300.000000
   vertex 1278.462822 2085.607226 44780.000000
  endloop
 endfacet
 facet normal -0.941544 -0.336890 -0.000000
  outer loop
   vertex 1273.910363 2100.614675 45300.000000
   vertex 1273.910363 2100.614675 44780.000000
   vertex 1276.555227 2093.222774 44780.000000
  endloop
 endfacet
 facet normal -0.941544 -0.336890 -0.000000
  outer loop
   vertex 1276.555227 2093.222774 45300.000000
   vertex 1273.910363 2100.614675 45300.000000
   vertex 1276.555227 2093.222774 44780.000000
  endloop
 endfacet
 facet normal -0.903989 -0.427555 -0.000000
  outer loop
   vertex 1270.553701 2107.711739 45300.000000
   vertex 1270.553701 2107.711739 44780.000000
   vertex 1273.910363 2100.614675 44780.000000
  endloop
 endfacet
 facet normal -0.903989 -0.427555 -0.000000
  outer loop
   vertex 1273.910363 2100.614675 45300.000000
   vertex 1270.553701 2107.711739 45300.000000
   vertex 1273.910363 2100.614675 44780.000000
  endloop
 endfacet
 facet normal -0.857729 -0.514103 -0.000000
  outer loop
   vertex 1266.517569 2114.445619 45300.000000
   vertex 1266.517569 2114.445619 44780.000000
   vertex 1270.553701 2107.711739 44780.000000
  endloop
 endfacet
 facet normal -0.857729 -0.514103 -0.000000
  outer loop
   vertex 1270.553701 2107.711739 45300.000000
   vertex 1266.517569 2114.445619 45300.000000
   vertex 1270.553701 2107.711739 44780.000000
  endloop
 endfacet
 facet normal -0.803208 -0.595699 -0.000000
  outer loop
   vertex 1261.840836 2120.751463 45300.000000
   vertex 1261.840836 2120.751463 44780.000000
   vertex 1266.517569 2114.445619 44780.000000
  endloop
 endfacet
 facet normal -0.803208 -0.595699 -0.000000
  outer loop
   vertex 1266.517569 2114.445619 45300.000000
   vertex 1261.840836 2120.751463 45300.000000
   vertex 1266.517569 2114.445619 44780.000000
  endloop
 endfacet
 facet normal -0.740951 -0.671559 -0.000000
  outer loop
   vertex 1256.568542 2126.568542 45300.000000
   vertex 1256.568542 2126.568542 44780.000000
   vertex 1261.840836 2120.751463 44780.000000
  endloop
 endfacet
 facet normal -0.740951 -0.671559 -0.000000
  outer loop
   vertex 1261.840836 2120.751463 45300.000000
   vertex 1256.568542 2126.568542 45300.000000
   vertex 1261.840836 2120.751463 44780.000000
  endloop
 endfacet
 facet normal -0.671559 -0.740951 -0.000000
  outer loop
   vertex 1250.751463 2131.840836 45300.000000
   vertex 1250.751463 2131.840836 44780.000000
   vertex 1256.568542 2126.568542 44780.000000
  endloop
 endfacet
 facet normal -0.671559 -0.740951 -0.000000
  outer loop
   vertex 1256.568542 2126.568542 45300.000000
   vertex 1250.751463 2131.840836 45300.000000
   vertex 1256.568542 2126.568542 44780.000000
  endloop
 endfacet
 facet normal -0.595699 -0.803208 -0.000000
  outer loop
   vertex 1244.445619 2136.517569 45300.000000
   vertex 1244.445619 2136.517569 44780.000000
   vertex 1250.751463 2131.840836 44780.000000
  endloop
 endfacet
 facet normal -0.595699 -0.803208 -0.000000
  outer loop
   vertex 1250.751463 2131.840836 45300.000000
   vertex 1244.445619 2136.517569 45300.000000
   vertex 1250.751463 2131.840836 44780.000000
  endloop
 endfacet
 facet normal -0.514103 -0.857729 -0.000000
  outer loop
   vertex 1237.711739 2140.553701 45300.000000
   vertex 1237.711739 2140.553701 44780.000000
   vertex 1244.445619 2136.517569 44780.000000
  endloop
 endfacet
 facet normal -0.514103 -0.857729 -0.000000
  outer loop
   vertex 1244.445619 2136.517569 45300.000000
   vertex 1237.711739 2140.553701 45300.000000
   vertex 1244.445619 2136.517569 44780.000000
  endloop
 endfacet
 facet normal -0.427555 -0.903989 -0.000000
  outer loop
   vertex 1230.614675 2143.910363 45300.000000
   vertex 1230.614675 2143.910363 44780.000000
   vertex 1237.711739 2140.553701 44780.000000
  endloop
 endfacet
 facet normal -0.427555 -0.903989 -0.000000
  outer loop
   vertex 1237.711739 2140.553701 45300.000000
   vertex 1230.614675 2143.910363 45300.000000
   vertex 1237.711739 2140.553701 44780.000000
  endloop
 endfacet
 facet normal -0.336890 -0.941544 -0.000000
  outer loop
   vertex 1223.222774 2146.555227 45300.000000
   vertex 1223.222774 2146.555227 44780.000000
   vertex 1230.614675 2143.910363 44780.000000
  endloop
 endfacet
 facet normal -0.336890 -0.941544 -0.000000
  outer loop
   vertex 1230.614675 2143.910363 45300.000000
   vertex 1223.222774 2146.555227 45300.000000
   vertex 1230.614675 2143.910363 44780.000000
  endloop
 endfacet
 facet normal -0.242980 -0.970031 -0.000000
  outer loop
   vertex 1215.607226 2148.462822 45300.000000
   vertex 1215.607226 2148.462822 44780.000000
   vertex 1223.222774 2146.555227 44780.000000
  endloop
 endfacet
 facet normal -0.242980 -0.970031 -0.000000
  outer loop
   vertex 1223.222774 2146.555227 45300.000000
   vertex 1215.607226 2148.462822 45300.000000
   vertex 1223.222774 2146.555227 44780.000000
  endloop
 endfacet
 facet normal -0.146730 -0.989177 -0.000000
  outer loop
   vertex 1207.841371 2149.614778 45300.000000
   vertex 1207.841371 2149.614778 44780.000000
   vertex 1215.607226 2148.462822 44780.000000
  endloop
 endfacet
 facet normal -0.146730 -0.989177 -0.000000
  outer loop
   vertex 1215.607226 2148.462822 45300.000000
   vertex 1207.841371 2149.614778 45300.000000
   vertex 1215.607226 2148.462822 44780.000000
  endloop
 endfacet
 facet normal -0.049068 -0.998795 -0.000000
  outer loop
   vertex 1200.000000 2150.000000 45300.000000
   vertex 1200.000000 2150.000000 44780.000000
   vertex 1207.841371 2149.614778 44780.000000
  endloop
 endfacet
 facet normal -0.049068 -0.998795 -0.000000
  outer loop
   vertex 1207.841371 2149.614778 45300.000000
   vertex 1200.000000 2150.000000 45300.000000
   vertex 1207.841371 2149.614778 44780.000000
  endloop
 endfacet
 facet normal 0.049068 -0.998795 0.000000
  outer loop
   vertex 1192.158629 2149.614778 45300.000000
   vertex 1192.158629 2149.614778 44780.000000
   vertex 1200.000000 2150.000000 44780.000000
  endloop
 endfacet
 facet normal 0.049068 -0.998795 0.000000
  outer loop
   vertex 1200.000000 2150.000000 45300.000000
   vertex 1192.158629 2149.614778 45300.000000
   vertex 1200.000000 2150.000000 44780.000000
  endloop
 endfacet
 facet normal 0.146730 -0.989177 0.000000
  outer loop
   vertex 1184.392774 2148.462822 45300.000000
   vertex 1184.392774 2148.462822 44780.000000
   vertex 1192.158629 2149.614778 44780.000000
  endloop
 endfacet
 facet normal 0.146730 -0.989177 0.000000
  outer loop
   vertex 1192.158629 2149.614778 45300.000000
   vertex 1184.392774 2148.462822 45300.000000
   vertex 1192.158629 2149.614778 44780.000000
  endloop
 endfacet
 facet normal 0.242980 -0.970031 0.000000
  outer loop
   vertex 1176.777226 2146.555227 45300.000000
   vertex 1176.777226 2146.555227 44780.000000
   vertex 1184.392774 2148.462822 44780.000000
  endloop
 endfacet
 facet normal 0.242980 -0.970031 0.000000
  outer loop
   vertex 1184.392774 2148.462822 45300.000000
   vertex 1176.777226 2146.555227 45300.000000
   vertex 1184.392774 2148.462822 44780.000000
  endloop
 endfacet
 facet normal 0.336890 -0.941544 0.000000
  outer loop
   vertex 1169.385325 2143.910363 45300.000000
   vertex 1169.385325 2143.910363 44780.000000
   vertex 1176.777226 2146.555227 44780.000000
  endloop
 endfacet
 facet normal 0.336890 -0.941544 0.000000
  outer loop
   vertex 1176.777226 2146.555227 45300.000000
   vertex 1169.385325 2143.910363 45300.000000
   vertex 1176.777226 2146.555227 44780.000000
  endloop
 endfacet
 facet normal 0.427555 -0.903989 0.000000
  outer loop
   vertex 1162.288261 2140.553701 45300.000000
   vertex 1162.288261 2140.553701 44780.000000
   vertex 1169.385325 2143.910363 44780.000000
  endloop
 endfacet
 facet normal 0.427555 -0.903989 0.000000
  outer loop
   vertex 1169.385325 2143.910363 45300.000000
   vertex 1162.288261 2140.553701 45300.000000
   vertex 1169.385325 2143.910363 44780.000000
  endloop
 endfacet
 facet normal 0.514103 -0.857729 0.000000
  outer loop
   vertex 1155.554381 2136.517569 45300.000000
   vertex 1155.554381 2136.517569 44780.000000
   vertex 1162.288261 2140.553701 44780.000000
  endloop
 endfacet
 facet normal 0.514103 -0.857729 0.000000
  outer loop
   vertex 1162.288261 2140.553701 45300.000000
   vertex 1155.554381 2136.517569 45300.000000
   vertex 1162.288261 2140.553701 44780.000000
  endloop
 endfacet
 facet normal 0.595699 -0.803208 0.000000
  outer loop
   vertex 1149.248537 2131.840836 45300.000000
   vertex 1149.248537 2131.840836 44780.000000
   vertex 1155.554381 2136.517569 44780.000000
  endloop
 endfacet
 facet normal 0.595699 -0.803208 0.000000
  outer loop
   vertex 1155.554381 2136.517569 45300.000000
   vertex 1149.248537 2131.840836 45300.000000
   vertex 1155.554381 2136.517569 44780.000000
  endloop
 endfacet
 facet normal 0.671559 -0.740951 0.000000
  outer loop
   vertex 1143.431458 2126.568542 45300.000000
   vertex 1143.431458 2126.568542 44780.000000
   vertex 1149.248537 2131.840836 44780.000000
  endloop
 endfacet
 facet normal 0.671559 -0.740951 0.000000
  outer loop
   vertex 1149.248537 2131.840836 45300.000000
   vertex 1143.431458 2126.568542 45300.000000
   vertex 1149.248537 2131.840836 44780.000000
  endloop
 endfacet
 facet normal 0.740951 -0.671559 0.000000
  outer loop
   vertex 1138.159164 2120.751463 45300.000000
   vertex 1138.159164 2120.751463 44780.000000
   vertex 1143.431458 2126.568542 44780.000000
  endloop
 endfacet
 facet normal 0.740951 -0.671559 0.000000
  outer loop
   vertex 1143.431458 2126.568542 45300.000000
   vertex 1138.159164 2120.751463 45300.000000
   vertex 1143.431458 2126.568542 44780.000000
  endloop
 endfacet
 facet normal 0.803208 -0.595699 0.000000
  outer loop
   vertex 1133.482431 2114.445619 45300.000000
   vertex 1133.482431 2114.445619 44780.000000
   vertex 1138.159164 2120.751463 44780.000000
  endloop
 endfacet
 facet normal 0.803208 -0.595699 0.000000
  outer loop
   vertex 1138.159164 2120.751463 45300.000000
   vertex 1133.482431 2114.445619 45300.000000
   vertex 1138.159164 2120.751463 44780.000000
  endloop
 endfacet
 facet normal 0.857729 -0.514103 0.000000
  outer loop
   vertex 1129.446299 2107.711739 45300.000000
   vertex 1129.446299 2107.711739 44780.000000
   vertex 1133.482431 2114.445619 44780.000000
  endloop
 endfacet
 facet normal 0.857729 -0.514103 0.000000
  outer loop
   vertex 1133.482431 2114.445619 45300.000000
   vertex 1129.446299 2107.711739 45300.000000
   vertex 1133.482431 2114.445619 44780.000000
  endloop
 endfacet
 facet normal 0.903989 -0.427555 0.000000
  outer loop
   vertex 1126.089637 2100.614675 45300.000000
   vertex 1126.089637 2100.614675 44780.000000
   vertex 1129.446299 2107.711739 44780.000000
  endloop
 endfacet
 facet normal 0.903989 -0.427555 0.000000
  outer loop
   vertex 1129.446299 2107.711739 45300.000000
   vertex 1126.089637 2100.614675 45300.000000
   vertex 1129.446299 2107.711739 44780.000000
  endloop
 endfacet
 facet normal 0.941544 -0.336890 0.000000
  outer loop
   vertex 1123.444773 2093.222774 45300.000000
   vertex 1123.444773 2093.222774 44780.000000
   vertex 1126.089637 2100.614675 44780.000000
  endloop
 endfacet
 facet normal 0.941544 -0.336890 0.000000
  outer loop
   vertex 1126.089637 2100.614675 45300.000000
   vertex 1123.444773 2093.222774 45300.000000
   vertex 1126.089637 2100.614675 44780.000000
  endloop
 endfacet
 facet normal 0.970031 -0.242980 0.000000
  outer loop
   vertex 1121.537178 2085.607226 45300.000000
   vertex 1121.537178 2085.607226 44780.000000
   vertex 1123.444773 2093.222774 44780.000000
  endloop
 endfacet
 facet normal 0.970031 -0.242980 0.000000
  outer loop
   vertex 1123.444773 2093.222774 45300.000000
   vertex 1121.537178 2085.607226 45300.000000
   vertex 1123.444773 2093.222774 44780.000000
  endloop
 endfacet
 facet normal 0.989177 -0.146730 0.000000
  outer loop
   vertex 1120.385222 2077.841371 45300.000000
   vertex 1120.385222 2077.841371 44780.000000
   vertex 1121.537178 2085.607226 44780.000000
  endloop
 endfacet
 facet normal 0.989177 -0.146730 0.000000
  outer loop
   vertex 1121.537178 2085.607226 45300.000000
   vertex 1120.385222 2077.841371 45300.000000
   vertex 1121.537178 2085.607226 44780.000000
  endloop
 endfacet
 facet normal 0.998795 -0.049068 0.000000
  outer loop
   vertex 1120.000000 2070.000000 45300.000000
   vertex 1120.000000 2070.000000 44780.000000
   vertex 1120.385222 2077.841371 44780.000000
  endloop
 endfacet
 facet normal 0.998795 -0.049068 0.000000
  outer loop
   vertex 1120.385222 2077.841371 45300.000000
   vertex 1120.000000 2070.000000 45300.000000
   vertex 1120.385222 2077.841371 44780.000000
  endloop
 endfacet
 facet normal 0.998795 0.049068 0.000000
  outer loop
   vertex 1120.385222 2062.158629 45300.000000
   vertex 1120.385222 2062.158629 44780.000000
   vertex 1120.000000 2070.000000 44780.000000
  endloop
 endfacet
 facet normal 0.998795 0.049068 0.000000
  outer loop
   vertex 1120.000000 2070.000000 45300.000000
   vertex 1120.385222 2062.158629 45300.000000
   vertex 1120.000000 2070.000000 44780.000000
  endloop
 endfacet
 facet normal 0.989177 0.146730 0.000000
  outer loop
   vertex 1121.537178 2054.392774 45300.000000
   vertex 1121.537178 2054.392774 44780.000000
   vertex 1120.385222 2062.158629 44780.000000
  endloop
 endfacet
 facet normal 0.989177 0.146730 0.000000
  outer loop
   vertex 1120.385222 2062.158629 45300.000000
   vertex 1121.537178 2054.392774 45300.000000
   vertex 1120.385222 2062.158629 44780.000000
  endloop
 endfacet
 facet normal 0.970031 0.242980 0.000000
  outer loop
   vertex 1123.444773 2046.777226 45300.000000
   vertex 1123.444773 2046.777226 44780.000000
   vertex 1121.537178 2054.392774 44780.000000
  endloop
 endfacet
 facet normal 0.970031 0.242980 0.000000
  outer loop
   vertex 1121.537178 2054.392774 45300.000000
   vertex 1123.444773 2046.777226 45300.000000
   vertex 1121.537178 2054.392774 44780.000000
  endloop
 endfacet
 facet normal 0.941544 0.336890 0.000000
  outer loop
   vertex 1126.089637 2039.385325 45300.000000
   vertex 1126.089637 2039.385325 44780.000000
   vertex 1123.444773 2046.777226 44780.000000
  endloop
 endfacet
 facet normal 0.941544 0.336890 0.000000
  outer loop
   vertex 1123.444773 2046.777226 45300.000000
   vertex 1126.089637 2039.385325 45300.000000
   vertex 1123.444773 2046.777226 44780.000000
  endloop
 endfacet
 facet normal 0.903989 0.427555 0.000000
  outer loop
   vertex 1129.446299 2032.288261 45300.000000
   vertex 1129.446299 2032.288261 44780.000000
   vertex 1126.089637 2039.385325 44780.000000
  endloop
 endfacet
 facet normal 0.903989 0.427555 0.000000
  outer loop
   vertex 1126.089637 2039.385325 45300.000000
   vertex 1129.446299 2032.288261 45300.000000
   vertex 1126.089637 2039.385325 44780.000000
  endloop
 endfacet
 facet normal 0.857729 0.514103 0.000000
  outer loop
   vertex 1133.482431 2025.554381 45300.000000
   vertex 1133.482431 2025.554381 44780.000000
   vertex 1129.446299 2032.288261 44780.000000
  endloop
 endfacet
 facet normal 0.857729 0.514103 0.000000
  outer loop
   vertex 1129.446299 2032.288261 45300.000000
   vertex 1133.482431 2025.554381 45300.000000
   vertex 1129.446299 2032.288261 44780.000000
  endloop
 endfacet
 facet normal 0.803208 0.595699 0.000000
  outer loop
   vertex 1138.159164 2019.248537 45300.000000
   vertex 1138.159164 2019.248537 44780.000000
   vertex 1133.482431 2025.554381 44780.000000
  endloop
 endfacet
 facet normal 0.803208 0.595699 0.000000
  outer loop
   vertex 1133.482431 2025.554381 45300.000000
   vertex 1138.159164 2019.248537 45300.000000
   vertex 1133.482431 2025.554381 44780.000000
  endloop
 endfacet
 facet normal 0.740951 0.671559 0.000000
  outer loop
   vertex 1143.431458 2013.431458 45300.000000
   vertex 1143.431458 2013.431458 44780.000000
   vertex 1138.159164 2019.248537 44780.000000
  endloop
 endfacet
 facet normal 0.740951 0.671559 0.000000
  outer loop
   vertex 1138.159164 2019.248537 45300.000000
   vertex 1143.431458 2013.431458 45300.000000
   vertex 1138.159164 2019.248537 44780.000000
  endloop
 endfacet
 facet normal 0.671559 0.740951 0.000000
  outer loop
   vertex 1149.248537 2008.159164 45300.000000
   vertex 1149.248537 2008.159164 44780.000000
   vertex 1143.431458 2013.431458 44780.000000
  endloop
 endfacet
 facet normal 0.671559 0.740951 0.000000
  outer loop
   vertex 1143.431458 2013.431458 45300.000000
   vertex 1149.248537 2008.159164 45300.000000
   vertex 1143.431458 2013.431458 44780.000000
  endloop
 endfacet
 facet normal 0.595699 0.803208 0.000000
  outer loop
   vertex 1155.554381 2003.482431 45300.000000
   vertex 1155.554381 2003.482431 44780.000000
   vertex 1149.248537 2008.159164 44780.000000
  endloop
 endfacet
 facet normal 0.595699 0.803208 0.000000
  outer loop
   vertex 1149.248537 2008.159164 45300.000000
   vertex 1155.554381 2003.482431 45300.000000
   vertex 1149.248537 2008.159164 44780.000000
  endloop
 endfacet
 facet normal 0.514103 0.857729 0.000000
  outer loop
   vertex 1162.288261 1999.446299 45300.000000
   vertex 1162.288261 1999.446299 44780.000000
   vertex 1155.554381 2003.482431 44780.000000
  endloop
 endfacet
 facet normal 0.514103 0.857729 0.000000
  outer loop
   vertex 1155.554381 2003.482431 45300.000000
   vertex 1162.288261 1999.446299 45300.000000
   vertex 1155.554381 2003.482431 44780.000000
  endloop
 endfacet
 facet normal 0.427555 0.903989 0.000000
  outer loop
   vertex 1169.385325 1996.089637 45300.000000
   vertex 1169.385325 1996.089637 44780.000000
   vertex 1162.288261 1999.446299 44780.000000
  endloop
 endfacet
 facet normal 0.427555 0.903989 0.000000
  outer loop
   vertex 1162.288261 1999.446299 45300.000000
   vertex 1169.385325 1996.089637 45300.000000
   vertex 1162.288261 1999.446299 44780.000000
  endloop
 endfacet
 facet normal 0.336890 0.941544 0.000000
  outer loop
   vertex 1176.777226 1993.444773 45300.000000
   vertex 1176.777226 1993.444773 44780.000000
   vertex 1169.385325 1996.089637 44780.000000
  endloop
 endfacet
 facet normal 0.336890 0.941544 0.000000
  outer loop
   vertex 1169.385325 1996.089637 45300.000000
   vertex 1176.777226 1993.444773 45300.000000
   vertex 1169.385325 1996.089637 44780.000000
  endloop
 endfacet
 facet normal 0.242980 0.970031 0.000000
  outer loop
   vertex 1184.392774 1991.537178 45300.000000
   vertex 1184.392774 1991.537178 44780.000000
   vertex 1176.777226 1993.444773 44780.000000
  endloop
 endfacet
 facet normal 0.242980 0.970031 0.000000
  outer loop
   vertex 1176.777226 1993.444773 45300.000000
   vertex 1184.392774 1991.537178 45300.000000
   vertex 1176.777226 1993.444773 44780.000000
  endloop
 endfacet
 facet normal 0.146730 0.989177 0.000000
  outer loop
   vertex 1192.158629 1990.385222 45300.000000
   vertex 1192.158629 1990.385222 44780.000000
   vertex 1184.392774 1991.537178 44780.000000
  endloop
 endfacet
 facet normal 0.146730 0.989177 0.000000
  outer loop
   vertex 1184.392774 1991.537178 45300.000000
   vertex 1192.158629 1990.385222 45300.000000
   vertex 1184.392774 1991.537178 44780.000000
  endloop
 endfacet
 facet normal 0.049068 0.998795 0.000000
  outer loop
   vertex 1200.000000 1990.000000 45300.000000
   vertex 1200.000000 1990.000000 44780.000000
   vertex 1192.158629 1990.385222 44780.000000
  endloop
 endfacet
 facet normal 0.049068 0.998795 0.000000
  outer loop
   vertex 1192.158629 1990.385222 45300.000000
   vertex 1200.000000 1990.000000 45300.000000
   vertex 1192.158629 1990.385222 44780.000000
  endloop
 endfacet
endsolid part
