solid SIVB_LOX_elbow
 facet normal 0.049068 0.998795 0.000000
  outer loop
   vertex 0.000000 85.000000 72040.000000
   vertex 8.331457 84.590702 72040.000000
   vertex 8.331457 84.590702 71680.000000
  endloop
 endfacet
 facet normal 0.049068 0.998795 0.000000
  outer loop
   vertex 0.000000 85.000000 72040.000000
   vertex 8.331457 84.590702 71680.000000
   vertex 0.000000 85.000000 71680.000000
  endloop
 endfacet
 facet normal 0.146730 0.989177 0.000000
  outer loop
   vertex 8.331457 84.590702 72040.000000
   vertex 16.582677 83.366749 72040.000000
   vertex 16.582677 83.366749 71680.000000
  endloop
 endfacet
 facet normal 0.146730 0.989177 0.000000
  outer loop
   vertex 8.331457 84.590702 72040.000000
   vertex 16.582677 83.366749 71680.000000
   vertex 8.331457 84.590702 71680.000000
  endloop
 endfacet
 facet normal 0.242980 0.970031 0.000000
  outer loop
   vertex 16.582677 83.366749 72040.000000
   vertex 24.674198 81.339929 72040.000000
   vertex 24.674198 81.339929 71680.000000
  endloop
 endfacet
 facet normal 0.242980 0.970031 0.000000
  outer loop
   vertex 16.582677 83.366749 72040.000000
   vertex 24.674198 81.339929 71680.000000
   vertex 16.582677 83.366749 71680.000000
  endloop
 endfacet
 facet normal 0.336890 0.941544 0.000000
  outer loop
   vertex 24.674198 81.339929 72040.000000
   vertex 32.528092 78.529760 72040.000000
   vertex 32.528092 78.529760 71680.000000
  endloop
 endfacet
 facet normal 0.336890 0.941544 0.000000
  outer loop
   vertex 24.674198 81.339929 72040.000000
   vertex 32.528092 78.529760 71680.000000
   vertex 24.674198 81.339929 71680.000000
  endloop
 endfacet
 facet normal 0.427555 0.903989 0.000000
  outer loop
   vertex 32.528092 78.529760 72040.000000
   vertex 40.068723 74.963307 72040.000000
   vertex 40.068723 74.963307 71680.000000
  endloop
 endfacet
 facet normal 0.427555 0.903989 0.000000
  outer loop
   vertex 32.528092 78.529760 72040.000000
   vertex 40.068723 74.963307 71680.000000
   vertex 32.528092 78.529760 71680.000000
  endloop
 endfacet
 facet normal 0.514103 0.857729 0.000000
  outer loop
   vertex 40.068723 74.963307 72040.000000
   vertex 47.223470 70.674917 72040.000000
   vertex 47.223470 70.674917 71680.000000
  endloop
 endfacet
 facet normal 0.514103 0.857729 0.000000
  outer loop
   vertex 40.068723 74.963307 72040.000000
   vertex 47.223470 70.674917 71680.000000
   vertex 40.068723 74.963307 71680.000000
  endloop
 endfacet
 facet normal 0.595699 0.803208 0.000000
  outer loop
   vertex 47.223470 70.674917 72040.000000
   vertex 53.923429 65.705889 72040.000000
   vertex 53.923429 65.705889 71680.000000
  endloop
 endfacet
 facet normal 0.595699 0.803208 0.000000
  outer loop
   vertex 47.223470 70.674917 72040.000000
   vertex 53.923429 65.705889 71680.000000
   vertex 47.223470 70.674917 71680.000000
  endloop
 endfacet
 facet normal 0.671559 0.740951 0.000000
  outer loop
   vertex 53.923429 65.705889 72040.000000
   vertex 60.104076 60.104076 72040.000000
   vertex 60.104076 60.104076 71680.000000
  endloop
 endfacet
 facet normal 0.671559 0.740951 0.000000
  outer loop
   vertex 53.923429 65.705889 72040.000000
   vertex 60.104076 60.104076 71680.000000
   vertex 53.923429 65.705889 71680.000000
  endloop
 endfacet
 facet normal 0.740951 0.671559 0.000000
  outer loop
   vertex 60.104076 60.104076 72040.000000
   vertex 65.705889 53.923429 72040.000000
   vertex 65.705889 53.923429 71680.000000
  endloop
 endfacet
 facet normal 0.740951 0.671559 0.000000
  outer loop
   vertex 60.104076 60.104076 72040.000000
   vertex 65.705889 53.923429 71680.000000
   vertex 60.104076 60.104076 71680.000000
  endloop
 endfacet
 facet normal 0.803208 0.595699 0.000000
  outer loop
   vertex 65.705889 53.923429 72040.000000
   vertex 70.674917 47.223470 72040.000000
   vertex 70.674917 47.223470 71680.000000
  endloop
 endfacet
 facet normal 0.803208 0.595699 0.000000
  outer loop
   vertex 65.705889 53.923429 72040.000000
   vertex 70.674917 47.223470 71680.000000
   vertex 65.705889 53.923429 71680.000000
  endloop
 endfacet
 facet normal 0.857729 0.514103 0.000000
  outer loop
   vertex 70.674917 47.223470 72040.000000
   vertex 74.963307 40.068723 72040.000000
   vertex 74.963307 40.068723 71680.000000
  endloop
 endfacet
 facet normal 0.857729 0.514103 0.000000
  outer loop
   vertex 70.674917 47.223470 72040.000000
   vertex 74.963307 40.068723 71680.000000
   vertex 70.674917 47.223470 71680.000000
  endloop
 endfacet
 facet normal 0.903989 0.427555 0.000000
  outer loop
   vertex 74.963307 40.068723 72040.000000
   vertex 78.529760 32.528092 72040.000000
   vertex 78.529760 32.528092 71680.000000
  endloop
 endfacet
 facet normal 0.903989 0.427555 0.000000
  outer loop
   vertex 74.963307 40.068723 72040.000000
   vertex 78.529760 32.528092 71680.000000
   vertex 74.963307 40.068723 71680.000000
  endloop
 endfacet
 facet normal 0.941544 0.336890 0.000000
  outer loop
   vertex 78.529760 32.528092 72040.000000
   vertex 81.339929 24.674198 72040.000000
   vertex 81.339929 24.674198 71680.000000
  endloop
 endfacet
 facet normal 0.941544 0.336890 0.000000
  outer loop
   vertex 78.529760 32.528092 72040.000000
   vertex 81.339929 24.674198 71680.000000
   vertex 78.529760 32.528092 71680.000000
  endloop
 endfacet
 facet normal 0.970031 0.242980 0.000000
  outer loop
   vertex 81.339929 24.674198 72040.000000
   vertex 83.366749 16.582677 72040.000000
   vertex 83.366749 16.582677 71680.000000
  endloop
 endfacet
 facet normal 0.970031 0.242980 0.000000
  outer loop
   vertex 81.339929 24.674198 72040.000000
   vertex 83.366749 16.582677 71680.000000
   vertex 81.339929 24.674198 71680.000000
  endloop
 endfacet
 facet normal 0.989177 0.146730 0.000000
  outer loop
   vertex 83.366749 16.582677 72040.000000
   vertex 84.590702 8.331457 72040.000000
   vertex 84.590702 8.331457 71680.000000
  endloop
 endfacet
 facet normal 0.989177 0.146730 0.000000
  outer loop
   vertex 83.366749 16.582677 72040.000000
   vertex 84.590702 8.331457 71680.000000
   vertex 83.366749 16.582677 71680.000000
  endloop
 endfacet
 facet normal 0.998795 0.049068 0.000000
  outer loop
   vertex 84.590702 8.331457 72040.000000
   vertex 85.000000 0.000000 72040.000000
   vertex 85.000000 0.000000 71680.000000
  endloop
 endfacet
 facet normal 0.998795 0.049068 0.000000
  outer loop
   vertex 84.590702 8.331457 72040.000000
   vertex 85.000000 0.000000 71680.000000
   vertex 84.590702 8.331457 71680.000000
  endloop
 endfacet
 facet normal 0.998795 -0.049068 0.000000
  outer loop
   vertex 85.000000 0.000000 72040.000000
   vertex 84.590702 -8.331457 72040.000000
   vertex 84.590702 -8.331457 71680.000000
  endloop
 endfacet
 facet normal 0.998795 -0.049068 0.000000
  outer loop
   vertex 85.000000 0.000000 72040.000000
   vertex 84.590702 -8.331457 71680.000000
   vertex 85.000000 0.000000 71680.000000
  endloop
 endfacet
 facet normal 0.989177 -0.146730 0.000000
  outer loop
   vertex 84.590702 -8.331457 72040.000000
   vertex 83.366749 -16.582677 72040.000000
   vertex 83.366749 -16.582677 71680.000000
  endloop
 endfacet
 facet normal 0.989177 -0.146730 0.000000
  outer loop
   vertex 84.590702 -8.331457 72040.000000
   vertex 83.366749 -16.582677 71680.000000
   vertex 84.590702 -8.331457 71680.000000
  endloop
 endfacet
 facet normal 0.970031 -0.242980 0.000000
  outer loop
   vertex 83.366749 -16.582677 72040.000000
   vertex 81.339929 -24.674198 72040.000000
   vertex 81.339929 -24.674198 71680.000000
  endloop
 endfacet
 facet normal 0.970031 -0.242980 0.000000
  outer loop
   vertex 83.366749 -16.582677 72040.000000
   vertex 81.339929 -24.674198 71680.000000
   vertex 83.366749 -16.582677 71680.000000
  endloop
 endfacet
 facet normal 0.941544 -0.336890 0.000000
  outer loop
   vertex 81.339929 -24.674198 72040.000000
   vertex 78.529760 -32.528092 72040.000000
   vertex 78.529760 -32.528092 71680.000000
  endloop
 endfacet
 facet normal 0.941544 -0.336890 0.000000
  outer loop
   vertex 81.339929 -24.674198 72040.000000
   vertex 78.529760 -32.528092 71680.000000
   vertex 81.339929 -24.674198 71680.000000
  endloop
 endfacet
 facet normal 0.903989 -0.427555 0.000000
  outer loop
   vertex 78.529760 -32.528092 72040.000000
   vertex 74.963307 -40.068723 72040.000000
   vertex 74.963307 -40.068723 71680.000000
  endloop
 endfacet
 facet normal 0.903989 -0.427555 0.000000
  outer loop
   vertex 78.529760 -32.528092 72040.000000
   vertex 74.963307 -40.068723 71680.000000
   vertex 78.529760 -32.528092 71680.000000
  endloop
 endfacet
 facet normal 0.857729 -0.514103 0.000000
  outer loop
   vertex 74.963307 -40.068723 72040.000000
   vertex 70.674917 -47.223470 72040.000000
   vertex 70.674917 -47.223470 71680.000000
  endloop
 endfacet
 facet normal 0.857729 -0.514103 0.000000
  outer loop
   vertex 74.963307 -40.068723 72040.000000
   vertex 70.674917 -47.223470 71680.000000
   vertex 74.963307 -40.068723 71680.000000
  endloop
 endfacet
 facet normal 0.803208 -0.595699 0.000000
  outer loop
   vertex 70.674917 -47.223470 72040.000000
   vertex 65.705889 -53.923429 72040.000000
   vertex 65.705889 -53.923429 71680.000000
  endloop
 endfacet
 facet normal 0.803208 -0.595699 0.000000
  outer loop
   vertex 70.674917 -47.223470 72040.000000
   vertex 65.705889 -53.923429 71680.000000
   vertex 70.674917 -47.223470 71680.000000
  endloop
 endfacet
 facet normal 0.740951 -0.671559 0.000000
  outer loop
   vertex 65.705889 -53.923429 72040.000000
   vertex 60.104076 -60.104076 72040.000000
   vertex 60.104076 -60.104076 71680.000000
  endloop
 endfacet
 facet normal 0.740951 -0.671559 0.000000
  outer loop
   vertex 65.705889 -53.923429 72040.000000
   vertex 60.104076 -60.104076 71680.000000
   vertex 65.705889 -53.923429 71680.000000
  endloop
 endfacet
 facet normal 0.671559 -0.740951 0.000000
  outer loop
   vertex 60.104076 -60.104076 72040.000000
   vertex 53.923429 -65.705889 72040.000000
   vertex 53.923429 -65.705889 71680.000000
  endloop
 endfacet
 facet normal 0.671559 -0.740951 0.000000
  outer loop
   vertex 60.104076 -60.104076 72040.000000
   vertex 53.923429 -65.705889 71680.000000
   vertex 60.104076 -60.104076 71680.000000
  endloop
 endfacet
 facet normal 0.595699 -0.803208 0.000000
  outer loop
   vertex 53.923429 -65.705889 72040.000000
   vertex 47.223470 -70.674917 72040.000000
   vertex 47.223470 -70.674917 71680.000000
  endloop
 endfacet
 facet normal 0.595699 -0.803208 0.000000
  outer loop
   vertex 53.923429 -65.705889 72040.000000
   vertex 47.223470 -70.674917 71680.000000
   vertex 53.923429 -65.705889 71680.000000
  endloop
 endfacet
 facet normal 0.514103 -0.857729 0.000000
  outer loop
   vertex 47.223470 -70.674917 72040.000000
   vertex 40.068723 -74.963307 72040.000000
   vertex 40.068723 -74.963307 71680.000000
  endloop
 endfacet
 facet normal 0.514103 -0.857729 0.000000
  outer loop
   vertex 47.223470 -70.674917 72040.000000
   vertex 40.068723 -74.963307 71680.000000
   vertex 47.223470 -70.674917 71680.000000
  endloop
 endfacet
 facet normal 0.427555 -0.903989 0.000000
  outer loop
   vertex 40.068723 -74.963307 72040.000000
   vertex 32.528092 -78.529760 72040.000000
   vertex 32.528092 -78.529760 71680.000000
  endloop
 endfacet
 facet normal 0.427555 -0.903989 0.000000
  outer loop
   vertex 40.068723 -74.963307 72040.000000
   vertex 32.528092 -78.529760 71680.000000
   vertex 40.068723 -74.963307 71680.000000
  endloop
 endfacet
 facet normal 0.336890 -0.941544 0.000000
  outer loop
   vertex 32.528092 -78.529760 72040.000000
   vertex 24.674198 -81.339929 72040.000000
   vertex 24.674198 -81.339929 71680.000000
  endloop
 endfacet
 facet normal 0.336890 -0.941544 0.000000
  outer loop
   vertex 32.528092 -78.529760 72040.000000
   vertex 24.674198 -81.339929 71680.000000
   vertex 32.528092 -78.529760 71680.000000
  endloop
 endfacet
 facet normal 0.242980 -0.970031 0.000000
  outer loop
   vertex 24.674198 -81.339929 72040.000000
   vertex 16.582677 -83.366749 72040.000000
   vertex 16.582677 -83.366749 71680.000000
  endloop
 endfacet
 facet normal 0.242980 -0.970031 0.000000
  outer loop
   vertex 24.674198 -81.339929 72040.000000
   vertex 16.582677 -83.366749 71680.000000
   vertex 24.674198 -81.339929 71680.000000
  endloop
 endfacet
 facet normal 0.146730 -0.989177 0.000000
  outer loop
   vertex 16.582677 -83.366749 72040.000000
   vertex 8.331457 -84.590702 72040.000000
   vertex 8.331457 -84.590702 71680.000000
  endloop
 endfacet
 facet normal 0.146730 -0.989177 0.000000
  outer loop
   vertex 16.582677 -83.366749 72040.000000
   vertex 8.331457 -84.590702 71680.000000
   vertex 16.582677 -83.366749 71680.000000
  endloop
 endfacet
 facet normal 0.049068 -0.998795 0.000000
  outer loop
   vertex 8.331457 -84.590702 72040.000000
   vertex 0.000000 -85.000000 72040.000000
   vertex 0.000000 -85.000000 71680.000000
  endloop
 endfacet
 facet normal 0.049068 -0.998795 0.000000
  outer loop
   vertex 8.331457 -84.590702 72040.000000
   vertex 0.000000 -85.000000 71680.000000
   vertex 8.331457 -84.590702 71680.000000
  endloop
 endfacet
 facet normal -0.049068 -0.998795 0.000000
  outer loop
   vertex 0.000000 -85.000000 72040.000000
   vertex -8.331457 -84.590702 72040.000000
   vertex -8.331457 -84.590702 71680.000000
  endloop
 endfacet
 facet normal -0.049068 -0.998795 -0.000000
  outer loop
   vertex 0.000000 -85.000000 72040.000000
   vertex -8.331457 -84.590702 71680.000000
   vertex 0.000000 -85.000000 71680.000000
  endloop
 endfacet
 facet normal -0.146730 -0.989177 0.000000
  outer loop
   vertex -8.331457 -84.590702 72040.000000
   vertex -16.582677 -83.366749 72040.000000
   vertex -16.582677 -83.366749 71680.000000
  endloop
 endfacet
 facet normal -0.146730 -0.989177 -0.000000
  outer loop
   vertex -8.331457 -84.590702 72040.000000
   vertex -16.582677 -83.366749 71680.000000
   vertex -8.331457 -84.590702 71680.000000
  endloop
 endfacet
 facet normal -0.242980 -0.970031 0.000000
  outer loop
   vertex -16.582677 -83.366749 72040.000000
   vertex -24.674198 -81.339929 72040.000000
   vertex -24.674198 -81.339929 71680.000000
  endloop
 endfacet
 facet normal -0.242980 -0.970031 -0.000000
  outer loop
   vertex -16.582677 -83.366749 72040.000000
   vertex -24.674198 -81.339929 71680.000000
   vertex -16.582677 -83.366749 71680.000000
  endloop
 endfacet
 facet normal -0.336890 -0.941544 0.000000
  outer loop
   vertex -24.674198 -81.339929 72040.000000
   vertex -32.528092 -78.529760 72040.000000
   vertex -32.528092 -78.529760 71680.000000
  endloop
 endfacet
 facet normal -0.336890 -0.941544 -0.000000
  outer loop
   vertex -24.674198 -81.339929 72040.000000
   vertex -32.528092 -78.529760 71680.000000
   vertex -24.674198 -81.339929 71680.000000
  endloop
 endfacet
 facet normal -0.427555 -0.903989 0.000000
  outer loop
   vertex -32.528092 -78.529760 72040.000000
   vertex -40.068723 -74.963307 72040.000000
   vertex -40.068723 -74.963307 71680.000000
  endloop
 endfacet
 facet normal -0.427555 -0.903989 -0.000000
  outer loop
   vertex -32.528092 -78.529760 72040.000000
   vertex -40.068723 -74.963307 71680.000000
   vertex -32.528092 -78.529760 71680.000000
  endloop
 endfacet
 facet normal -0.514103 -0.857729 0.000000
  outer loop
   vertex -40.068723 -74.963307 72040.000000
   vertex -47.223470 -70.674917 72040.000000
   vertex -47.223470 -70.674917 71680.000000
  endloop
 endfacet
 facet normal -0.514103 -0.857729 -0.000000
  outer loop
   vertex -40.068723 -74.963307 72040.000000
   vertex -47.223470 -70.674917 71680.000000
   vertex -40.068723 -74.963307 71680.000000
  endloop
 endfacet
 facet normal -0.595699 -0.803208 0.000000
  outer loop
   vertex -47.223470 -70.674917 72040.000000
   vertex -53.923429 -65.705889 72040.000000
   vertex -53.923429 -65.705889 71680.000000
  endloop
 endfacet
 facet normal -0.595699 -0.803208 -0.000000
  outer loop
   vertex -47.223470 -70.674917 72040.000000
   vertex -53.923429 -65.705889 71680.000000
   vertex -47.223470 -70.674917 71680.000000
  endloop
 endfacet
 facet normal -0.671559 -0.740951 0.000000
  outer loop
   vertex -53.923429 -65.705889 72040.000000
   vertex -60.104076 -60.104076 72040.000000
   vertex -60.104076 -60.104076 71680.000000
  endloop
 endfacet
 facet normal -0.671559 -0.740951 -0.000000
  outer loop
   vertex -53.923429 -65.705889 72040.000000
   vertex -60.104076 -60.104076 71680.000000
   vertex -53.923429 -65.705889 71680.000000
  endloop
 endfacet
 facet normal -0.740951 -0.671559 0.000000
  outer loop
   vertex -60.104076 -60.104076 72040.000000
   vertex -65.705889 -53.923429 72040.000000
   vertex -65.705889 -53.923429 71680.000000
  endloop
 endfacet
 facet normal -0.740951 -0.671559 -0.000000
  outer loop
   vertex -60.104076 -60.104076 72040.000000
   vertex -65.705889 -53.923429 71680.000000
   vertex -60.104076 -60.104076 71680.000000
  endloop
 endfacet
 facet normal -0.803208 -0.595699 0.000000
  outer loop
   vertex -65.705889 -53.923429 72040.000000
   vertex -70.674917 -47.223470 72040.000000
   vertex -70.674917 -47.223470 71680.000000
  endloop
 endfacet
 facet normal -0.803208 -0.595699 -0.000000
  outer loop
   vertex -65.705889 -53.923429 72040.000000
   vertex -70.674917 -47.223470 71680.000000
   vertex -65.705889 -53.923429 71680.000000
  endloop
 endfacet
 facet normal -0.857729 -0.514103 0.000000
  outer loop
   vertex -70.674917 -47.223470 72040.000000
   vertex -74.963307 -40.068723 72040.000000
   vertex -74.963307 -40.068723 71680.000000
  endloop
 endfacet
 facet normal -0.857729 -0.514103 -0.000000
  outer loop
   vertex -70.674917 -47.223470 72040.000000
   vertex -74.963307 -40.068723 71680.000000
   vertex -70.674917 -47.223470 71680.000000
  endloop
 endfacet
 facet normal -0.903989 -0.427555 0.000000
  outer loop
   vertex -74.963307 -40.068723 72040.000000
   vertex -78.529760 -32.528092 72040.000000
   vertex -78.529760 -32.528092 71680.000000
  endloop
 endfacet
 facet normal -0.903989 -0.427555 -0.000000
  outer loop
   vertex -74.963307 -40.068723 72040.000000
   vertex -78.529760 -32.528092 71680.000000
   vertex -74.963307 -40.068723 71680.000000
  endloop
 endfacet
 facet normal -0.941544 -0.336890 0.000000
  outer loop
   vertex -78.529760 -32.528092 72040.000000
   vertex -81.339929 -24.674198 72040.000000
   vertex -81.339929 -24.674198 71680.000000
  endloop
 endfacet
 facet normal -0.941544 -0.336890 -0.000000
  outer loop
   vertex -78.529760 -32.528092 72040.000000
   vertex -81.339929 -24.674198 71680.000000
   vertex -78.529760 -32.528092 71680.000000
  endloop
 endfacet
 facet normal -0.970031 -0.242980 0.000000
  outer loop
   vertex -81.339929 -24.674198 72040.000000
   vertex -83.366749 -16.582677 72040.000000
   vertex -83.366749 -16.582677 71680.000000
  endloop
 endfacet
 facet normal -0.970031 -0.242980 -0.000000
  outer loop
   vertex -81.339929 -24.674198 72040.000000
   vertex -83.366749 -16.582677 71680.000000
   vertex -81.339929 -24.674198 71680.000000
  endloop
 endfacet
 facet normal -0.989177 -0.146730 0.000000
  outer loop
   vertex -83.366749 -16.582677 72040.000000
   vertex -84.590702 -8.331457 72040.000000
   vertex -84.590702 -8.331457 71680.000000
  endloop
 endfacet
 facet normal -0.989177 -0.146730 -0.000000
  outer loop
   vertex -83.366749 -16.582677 72040.000000
   vertex -84.590702 -8.331457 71680.000000
   vertex -83.366749 -16.582677 71680.000000
  endloop
 endfacet
 facet normal -0.998795 -0.049068 0.000000
  outer loop
   vertex -84.590702 -8.331457 72040.000000
   vertex -85.000000 -0.000000 72040.000000
   vertex -85.000000 -0.000000 71680.000000
  endloop
 endfacet
 facet normal -0.998795 -0.049068 -0.000000
  outer loop
   vertex -84.590702 -8.331457 72040.000000
   vertex -85.000000 -0.000000 71680.000000
   vertex -84.590702 -8.331457 71680.000000
  endloop
 endfacet
 facet normal -0.998795 0.049068 0.000000
  outer loop
   vertex -85.000000 -0.000000 72040.000000
   vertex -84.590702 8.331457 72040.000000
   vertex -84.590702 8.331457 71680.000000
  endloop
 endfacet
 facet normal -0.998795 0.049068 0.000000
  outer loop
   vertex -85.000000 -0.000000 72040.000000
   vertex -84.590702 8.331457 71680.000000
   vertex -85.000000 -0.000000 71680.000000
  endloop
 endfacet
 facet normal -0.989177 0.146730 0.000000
  outer loop
   vertex -84.590702 8.331457 72040.000000
   vertex -83.366749 16.582677 72040.000000
   vertex -83.366749 16.582677 71680.000000
  endloop
 endfacet
 facet normal -0.989177 0.146730 0.000000
  outer loop
   vertex -84.590702 8.331457 72040.000000
   vertex -83.366749 16.582677 71680.000000
   vertex -84.590702 8.331457 71680.000000
  endloop
 endfacet
 facet normal -0.970031 0.242980 0.000000
  outer loop
   vertex -83.366749 16.582677 72040.000000
   vertex -81.339929 24.674198 72040.000000
   vertex -81.339929 24.674198 71680.000000
  endloop
 endfacet
 facet normal -0.970031 0.242980 0.000000
  outer loop
   vertex -83.366749 16.582677 72040.000000
   vertex -81.339929 24.674198 71680.000000
   vertex -83.366749 16.582677 71680.000000
  endloop
 endfacet
 facet normal -0.941544 0.336890 0.000000
  outer loop
   vertex -81.339929 24.674198 72040.000000
   vertex -78.529760 32.528092 72040.000000
   vertex -78.529760 32.528092 71680.000000
  endloop
 endfacet
 facet normal -0.941544 0.336890 0.000000
  outer loop
   vertex -81.339929 24.674198 72040.000000
   vertex -78.529760 32.528092 71680.000000
   vertex -81.339929 24.674198 71680.000000
  endloop
 endfacet
 facet normal -0.903989 0.427555 0.000000
  outer loop
   vertex -78.529760 32.528092 72040.000000
   vertex -74.963307 40.068723 72040.000000
   vertex -74.963307 40.068723 71680.000000
  endloop
 endfacet
 facet normal -0.903989 0.427555 0.000000
  outer loop
   vertex -78.529760 32.528092 72040.000000
   vertex -74.963307 40.068723 71680.000000
   vertex -78.529760 32.528092 71680.000000
  endloop
 endfacet
 facet normal -0.857729 0.514103 0.000000
  outer loop
   vertex -74.963307 40.068723 72040.000000
   vertex -70.674917 47.223470 72040.000000
   vertex -70.674917 47.223470 71680.000000
  endloop
 endfacet
 facet normal -0.857729 0.514103 0.000000
  outer loop
   vertex -74.963307 40.068723 72040.000000
   vertex -70.674917 47.223470 71680.000000
   vertex -74.963307 40.068723 71680.000000
  endloop
 endfacet
 facet normal -0.803208 0.595699 0.000000
  outer loop
   vertex -70.674917 47.223470 72040.000000
   vertex -65.705889 53.923429 72040.000000
   vertex -65.705889 53.923429 71680.000000
  endloop
 endfacet
 facet normal -0.803208 0.595699 0.000000
  outer loop
   vertex -70.674917 47.223470 72040.000000
   vertex -65.705889 53.923429 71680.000000
   vertex -70.674917 47.223470 71680.000000
  endloop
 endfacet
 facet normal -0.740951 0.671559 0.000000
  outer loop
   vertex -65.705889 53.923429 72040.000000
   vertex -60.104076 60.104076 72040.000000
   vertex -60.104076 60.104076 71680.000000
  endloop
 endfacet
 facet normal -0.740951 0.671559 0.000000
  outer loop
   vertex -65.705889 53.923429 72040.000000
   vertex -60.104076 60.104076 71680.000000
   vertex -65.705889 53.923429 71680.000000
  endloop
 endfacet
 facet normal -0.671559 0.740951 0.000000
  outer loop
   vertex -60.104076 60.104076 72040.000000
   vertex -53.923429 65.705889 72040.000000
   vertex -53.923429 65.705889 71680.000000
  endloop
 endfacet
 facet normal -0.671559 0.740951 0.000000
  outer loop
   vertex -60.104076 60.104076 72040.000000
   vertex -53.923429 65.705889 71680.000000
   vertex -60.104076 60.104076 71680.000000
  endloop
 endfacet
 facet normal -0.595699 0.803208 0.000000
  outer loop
   vertex -53.923429 65.705889 72040.000000
   vertex -47.223470 70.674917 72040.000000
   vertex -47.223470 70.674917 71680.000000
  endloop
 endfacet
 facet normal -0.595699 0.803208 0.000000
  outer loop
   vertex -53.923429 65.705889 72040.000000
   vertex -47.223470 70.674917 71680.000000
   vertex -53.923429 65.705889 71680.000000
  endloop
 endfacet
 facet normal -0.514103 0.857729 0.000000
  outer loop
   vertex -47.223470 70.674917 72040.000000
   vertex -40.068723 74.963307 72040.000000
   vertex -40.068723 74.963307 71680.000000
  endloop
 endfacet
 facet normal -0.514103 0.857729 0.000000
  outer loop
   vertex -47.223470 70.674917 72040.000000
   vertex -40.068723 74.963307 71680.000000
   vertex -47.223470 70.674917 71680.000000
  endloop
 endfacet
 facet normal -0.427555 0.903989 0.000000
  outer loop
   vertex -40.068723 74.963307 72040.000000
   vertex -32.528092 78.529760 72040.000000
   vertex -32.528092 78.529760 71680.000000
  endloop
 endfacet
 facet normal -0.427555 0.903989 0.000000
  outer loop
   vertex -40.068723 74.963307 72040.000000
   vertex -32.528092 78.529760 71680.000000
   vertex -40.068723 74.963307 71680.000000
  endloop
 endfacet
 facet normal -0.336890 0.941544 0.000000
  outer loop
   vertex -32.528092 78.529760 72040.000000
   vertex -24.674198 81.339929 72040.000000
   vertex -24.674198 81.339929 71680.000000
  endloop
 endfacet
 facet normal -0.336890 0.941544 0.000000
  outer loop
   vertex -32.528092 78.529760 72040.000000
   vertex -24.674198 81.339929 71680.000000
   vertex -32.528092 78.529760 71680.000000
  endloop
 endfacet
 facet normal -0.242980 0.970031 0.000000
  outer loop
   vertex -24.674198 81.339929 72040.000000
   vertex -16.582677 83.366749 72040.000000
   vertex -16.582677 83.366749 71680.000000
  endloop
 endfacet
 facet normal -0.242980 0.970031 0.000000
  outer loop
   vertex -24.674198 81.339929 72040.000000
   vertex -16.582677 83.366749 71680.000000
   vertex -24.674198 81.339929 71680.000000
  endloop
 endfacet
 facet normal -0.146730 0.989177 0.000000
  outer loop
   vertex -16.582677 83.366749 72040.000000
   vertex -8.331457 84.590702 72040.000000
   vertex -8.331457 84.590702 71680.000000
  endloop
 endfacet
 facet normal -0.146730 0.989177 0.000000
  outer loop
   vertex -16.582677 83.366749 72040.000000
   vertex -8.331457 84.590702 71680.000000
   vertex -16.582677 83.366749 71680.000000
  endloop
 endfacet
 facet normal -0.049068 0.998795 0.000000
  outer loop
   vertex -8.331457 84.590702 72040.000000
   vertex 0.000000 85.000000 72040.000000
   vertex 0.000000 85.000000 71680.000000
  endloop
 endfacet
 facet normal -0.049068 0.998795 0.000000
  outer loop
   vertex -8.331457 84.590702 72040.000000
   vertex 0.000000 85.000000 71680.000000
   vertex -8.331457 84.590702 71680.000000
  endloop
 endfacet
 facet normal -0.049068 -0.998795 0.000000
  outer loop
   vertex 7.351286 74.638855 71680.000000
   vertex 7.351286 74.638855 72040.000000
   vertex 0.000000 75.000000 72040.000000
  endloop
 endfacet
 facet normal -0.049068 -0.998795 0.000000
  outer loop
   vertex 0.000000 75.000000 71680.000000
   vertex 7.351286 74.638855 71680.000000
   vertex 0.000000 75.000000 72040.000000
  endloop
 endfacet
 facet normal -0.146730 -0.989177 0.000000
  outer loop
   vertex 14.631774 73.558896 71680.000000
   vertex 14.631774 73.558896 72040.000000
   vertex 7.351286 74.638855 72040.000000
  endloop
 endfacet
 facet normal -0.146730 -0.989177 0.000000
  outer loop
   vertex 7.351286 74.638855 71680.000000
   vertex 14.631774 73.558896 71680.000000
   vertex 7.351286 74.638855 72040.000000
  endloop
 endfacet
 facet normal -0.242980 -0.970031 0.000000
  outer loop
   vertex 21.771351 71.770525 71680.000000
   vertex 21.771351 71.770525 72040.000000
   vertex 14.631774 73.558896 72040.000000
  endloop
 endfacet
 facet normal -0.242980 -0.970031 0.000000
  outer loop
   vertex 14.631774 73.558896 71680.000000
   vertex 21.771351 71.770525 71680.000000
   vertex 14.631774 73.558896 72040.000000
  endloop
 endfacet
 facet normal -0.336890 -0.941544 0.000000
  outer loop
   vertex 28.701257 69.290965 71680.000000
   vertex 28.701257 69.290965 72040.000000
   vertex 21.771351 71.770525 72040.000000
  endloop
 endfacet
 facet normal -0.336890 -0.941544 0.000000
  outer loop
   vertex 21.771351 71.770525 71680.000000
   vertex 28.701257 69.290965 71680.000000
   vertex 21.771351 71.770525 72040.000000
  endloop
 endfacet
 facet normal -0.427555 -0.903989 0.000000
  outer loop
   vertex 35.354755 66.144095 71680.000000
   vertex 35.354755 66.144095 72040.000000
   vertex 28.701257 69.290965 72040.000000
  endloop
 endfacet
 facet normal -0.427555 -0.903989 0.000000
  outer loop
   vertex 28.701257 69.290965 71680.000000
   vertex 35.354755 66.144095 71680.000000
   vertex 28.701257 69.290965 72040.000000
  endloop
 endfacet
 facet normal -0.514103 -0.857729 0.000000
  outer loop
   vertex 41.667767 62.360221 71680.000000
   vertex 41.667767 62.360221 72040.000000
   vertex 35.354755 66.144095 72040.000000
  endloop
 endfacet
 facet normal -0.514103 -0.857729 0.000000
  outer loop
   vertex 35.354755 66.144095 71680.000000
   vertex 41.667767 62.360221 71680.000000
   vertex 35.354755 66.144095 72040.000000
  endloop
 endfacet
 facet normal -0.595699 -0.803208 0.000000
  outer loop
   vertex 47.579496 57.975784 71680.000000
   vertex 47.579496 57.975784 72040.000000
   vertex 41.667767 62.360221 72040.000000
  endloop
 endfacet
 facet normal -0.595699 -0.803208 0.000000
  outer loop
   vertex 41.667767 62.360221 71680.000000
   vertex 47.579496 57.975784 71680.000000
   vertex 41.667767 62.360221 72040.000000
  endloop
 endfacet
 facet normal -0.671559 -0.740951 0.000000
  outer loop
   vertex 53.033009 53.033009 71680.000000
   vertex 53.033009 53.033009 72040.000000
   vertex 47.579496 57.975784 72040.000000
  endloop
 endfacet
 facet normal -0.671559 -0.740951 0.000000
  outer loop
   vertex 47.579496 57.975784 71680.000000
   vertex 53.033009 53.033009 71680.000000
   vertex 47.579496 57.975784 72040.000000
  endloop
 endfacet
 facet normal -0.740951 -0.671559 0.000000
  outer loop
   vertex 57.975784 47.579496 71680.000000
   vertex 57.975784 47.579496 72040.000000
   vertex 53.033009 53.033009 72040.000000
  endloop
 endfacet
 facet normal -0.740951 -0.671559 0.000000
  outer loop
   vertex 53.033009 53.033009 71680.000000
   vertex 57.975784 47.579496 71680.000000
   vertex 53.033009 53.033009 72040.000000
  endloop
 endfacet
 facet normal -0.803208 -0.595699 0.000000
  outer loop
   vertex 62.360221 41.667767 71680.000000
   vertex 62.360221 41.667767 72040.000000
   vertex 57.975784 47.579496 72040.000000
  endloop
 endfacet
 facet normal -0.803208 -0.595699 0.000000
  outer loop
   vertex 57.975784 47.579496 71680.000000
   vertex 62.360221 41.667767 71680.000000
   vertex 57.975784 47.579496 72040.000000
  endloop
 endfacet
 facet normal -0.857729 -0.514103 0.000000
  outer loop
   vertex 66.144095 35.354755 71680.000000
   vertex 66.144095 35.354755 72040.000000
   vertex 62.360221 41.667767 72040.000000
  endloop
 endfacet
 facet normal -0.857729 -0.514103 0.000000
  outer loop
   vertex 62.360221 41.667767 71680.000000
   vertex 66.144095 35.354755 71680.000000
   vertex 62.360221 41.667767 72040.000000
  endloop
 endfacet
 facet normal -0.903989 -0.427555 0.000000
  outer loop
   vertex 69.290965 28.701257 71680.000000
   vertex 69.290965 28.701257 72040.000000
   vertex 66.144095 35.354755 72040.000000
  endloop
 endfacet
 facet normal -0.903989 -0.427555 0.000000
  outer loop
   vertex 66.144095 35.354755 71680.000000
   vertex 69.290965 28.701257 71680.000000
   vertex 66.144095 35.354755 72040.000000
  endloop
 endfacet
 facet normal -0.941544 -0.336890 0.000000
  outer loop
   vertex 71.770525 21.771351 71680.000000
   vertex 71.770525 21.771351 72040.000000
   vertex 69.290965 28.701257 72040.000000
  endloop
 endfacet
 facet normal -0.941544 -0.336890 0.000000
  outer loop
   vertex 69.290965 28.701257 71680.000000
   vertex 71.770525 21.771351 71680.000000
   vertex 69.290965 28.701257 72040.000000
  endloop
 endfacet
 facet normal -0.970031 -0.242980 0.000000
  outer loop
   vertex 73.558896 14.631774 71680.000000
   vertex 73.558896 14.631774 72040.000000
   vertex 71.770525 21.771351 72040.000000
  endloop
 endfacet
 facet normal -0.970031 -0.242980 0.000000
  outer loop
   vertex 71.770525 21.771351 71680.000000
   vertex 73.558896 14.631774 71680.000000
   vertex 71.770525 21.771351 72040.000000
  endloop
 endfacet
 facet normal -0.989177 -0.146730 0.000000
  outer loop
   vertex 74.638855 7.351286 71680.000000
   vertex 74.638855 7.351286 72040.000000
   vertex 73.558896 14.631774 72040.000000
  endloop
 endfacet
 facet normal -0.989177 -0.146730 0.000000
  outer loop
   vertex 73.558896 14.631774 71680.000000
   vertex 74.638855 7.351286 71680.000000
   vertex 73.558896 14.631774 72040.000000
  endloop
 endfacet
 facet normal -0.998795 -0.049068 0.000000
  outer loop
   vertex 75.000000 0.000000 71680.000000
   vertex 75.000000 0.000000 72040.000000
   vertex 74.638855 7.351286 72040.000000
  endloop
 endfacet
 facet normal -0.998795 -0.049068 0.000000
  outer loop
   vertex 74.638855 7.351286 71680.000000
   vertex 75.000000 0.000000 71680.000000
   vertex 74.638855 7.351286 72040.000000
  endloop
 endfacet
 facet normal -0.998795 0.049068 0.000000
  outer loop
   vertex 74.638855 -7.351286 71680.000000
   vertex 74.638855 -7.351286 72040.000000
   vertex 75.000000 0.000000 72040.000000
  endloop
 endfacet
 facet normal -0.998795 0.049068 0.000000
  outer loop
   vertex 75.000000 0.000000 71680.000000
   vertex 74.638855 -7.351286 71680.000000
   vertex 75.000000 0.000000 72040.000000
  endloop
 endfacet
 facet normal -0.989177 0.146730 0.000000
  outer loop
   vertex 73.558896 -14.631774 71680.000000
   vertex 73.558896 -14.631774 72040.000000
   vertex 74.638855 -7.351286 72040.000000
  endloop
 endfacet
 facet normal -0.989177 0.146730 0.000000
  outer loop
   vertex 74.638855 -7.351286 71680.000000
   vertex 73.558896 -14.631774 71680.000000
   vertex 74.638855 -7.351286 72040.000000
  endloop
 endfacet
 facet normal -0.970031 0.242980 0.000000
  outer loop
   vertex 71.770525 -21.771351 71680.000000
   vertex 71.770525 -21.771351 72040.000000
   vertex 73.558896 -14.631774 72040.000000
  endloop
 endfacet
 facet normal -0.970031 0.242980 0.000000
  outer loop
   vertex 73.558896 -14.631774 71680.000000
   vertex 71.770525 -21.771351 71680.000000
   vertex 73.558896 -14.631774 72040.000000
  endloop
 endfacet
 facet normal -0.941544 0.336890 0.000000
  outer loop
   vertex 69.290965 -28.701257 71680.000000
   vertex 69.290965 -28.701257 72040.000000
   vertex 71.770525 -21.771351 72040.000000
  endloop
 endfacet
 facet normal -0.941544 0.336890 0.000000
  outer loop
   vertex 71.770525 -21.771351 71680.000000
   vertex 69.290965 -28.701257 71680.000000
   vertex 71.770525 -21.771351 72040.000000
  endloop
 endfacet
 facet normal -0.903989 0.427555 0.000000
  outer loop
   vertex 66.144095 -35.354755 71680.000000
   vertex 66.144095 -35.354755 72040.000000
   vertex 69.290965 -28.701257 72040.000000
  endloop
 endfacet
 facet normal -0.903989 0.427555 0.000000
  outer loop
   vertex 69.290965 -28.701257 71680.000000
   vertex 66.144095 -35.354755 71680.000000
   vertex 69.290965 -28.701257 72040.000000
  endloop
 endfacet
 facet normal -0.857729 0.514103 0.000000
  outer loop
   vertex 62.360221 -41.667767 71680.000000
   vertex 62.360221 -41.667767 72040.000000
   vertex 66.144095 -35.354755 72040.000000
  endloop
 endfacet
 facet normal -0.857729 0.514103 0.000000
  outer loop
   vertex 66.144095 -35.354755 71680.000000
   vertex 62.360221 -41.667767 71680.000000
   vertex 66.144095 -35.354755 72040.000000
  endloop
 endfacet
 facet normal -0.803208 0.595699 0.000000
  outer loop
   vertex 57.975784 -47.579496 71680.000000
   vertex 57.975784 -47.579496 72040.000000
   vertex 62.360221 -41.667767 72040.000000
  endloop
 endfacet
 facet normal -0.803208 0.595699 0.000000
  outer loop
   vertex 62.360221 -41.667767 71680.000000
   vertex 57.975784 -47.579496 71680.000000
   vertex 62.360221 -41.667767 72040.000000
  endloop
 endfacet
 facet normal -0.740951 0.671559 0.000000
  outer loop
   vertex 53.033009 -53.033009 71680.000000
   vertex 53.033009 -53.033009 72040.000000
   vertex 57.975784 -47.579496 72040.000000
  endloop
 endfacet
 facet normal -0.740951 0.671559 0.000000
  outer loop
   vertex 57.975784 -47.579496 71680.000000
   vertex 53.033009 -53.033009 71680.000000
   vertex 57.975784 -47.579496 72040.000000
  endloop
 endfacet
 facet normal -0.671559 0.740951 0.000000
  outer loop
   vertex 47.579496 -57.975784 71680.000000
   vertex 47.579496 -57.975784 72040.000000
   vertex 53.033009 -53.033009 72040.000000
  endloop
 endfacet
 facet normal -0.671559 0.740951 0.000000
  outer loop
   vertex 53.033009 -53.033009 71680.000000
   vertex 47.579496 -57.975784 71680.000000
   vertex 53.033009 -53.033009 72040.000000
  endloop
 endfacet
 facet normal -0.595699 0.803208 0.000000
  outer loop
   vertex 41.667767 -62.360221 71680.000000
   vertex 41.667767 -62.360221 72040.000000
   vertex 47.579496 -57.975784 72040.000000
  endloop
 endfacet
 facet normal -0.595699 0.803208 0.000000
  outer loop
   vertex 47.579496 -57.975784 71680.000000
   vertex 41.667767 -62.360221 71680.000000
   vertex 47.579496 -57.975784 72040.000000
  endloop
 endfacet
 facet normal -0.514103 0.857729 0.000000
  outer loop
   vertex 35.354755 -66.144095 71680.000000
   vertex 35.354755 -66.144095 72040.000000
   vertex 41.667767 -62.360221 72040.000000
  endloop
 endfacet
 facet normal -0.514103 0.857729 0.000000
  outer loop
   vertex 41.667767 -62.360221 71680.000000
   vertex 35.354755 -66.144095 71680.000000
   vertex 41.667767 -62.360221 72040.000000
  endloop
 endfacet
 facet normal -0.427555 0.903989 0.000000
  outer loop
   vertex 28.701257 -69.290965 71680.000000
   vertex 28.701257 -69.290965 72040.000000
   vertex 35.354755 -66.144095 72040.000000
  endloop
 endfacet
 facet normal -0.427555 0.903989 0.000000
  outer loop
   vertex 35.354755 -66.144095 71680.000000
   vertex 28.701257 -69.290965 71680.000000
   vertex 35.354755 -66.144095 72040.000000
  endloop
 endfacet
 facet normal -0.336890 0.941544 0.000000
  outer loop
   vertex 21.771351 -71.770525 71680.000000
   vertex 21.771351 -71.770525 72040.000000
   vertex 28.701257 -69.290965 72040.000000
  endloop
 endfacet
 facet normal -0.336890 0.941544 0.000000
  outer loop
   vertex 28.701257 -69.290965 71680.000000
   vertex 21.771351 -71.770525 71680.000000
   vertex 28.701257 -69.290965 72040.000000
  endloop
 endfacet
 facet normal -0.242980 0.970031 0.000000
  outer loop
   vertex 14.631774 -73.558896 71680.000000
   vertex 14.631774 -73.558896 72040.000000
   vertex 21.771351 -71.770525 72040.000000
  endloop
 endfacet
 facet normal -0.242980 0.970031 0.000000
  outer loop
   vertex 21.771351 -71.770525 71680.000000
   vertex 14.631774 -73.558896 71680.000000
   vertex 21.771351 -71.770525 72040.000000
  endloop
 endfacet
 facet normal -0.146730 0.989177 0.000000
  outer loop
   vertex 7.351286 -74.638855 71680.000000
   vertex 7.351286 -74.638855 72040.000000
   vertex 14.631774 -73.558896 72040.000000
  endloop
 endfacet
 facet normal -0.146730 0.989177 0.000000
  outer loop
   vertex 14.631774 -73.558896 71680.000000
   vertex 7.351286 -74.638855 71680.000000
   vertex 14.631774 -73.558896 72040.000000
  endloop
 endfacet
 facet normal -0.049068 0.998795 0.000000
  outer loop
   vertex 0.000000 -75.000000 71680.000000
   vertex 0.000000 -75.000000 72040.000000
   vertex 7.351286 -74.638855 72040.000000
  endloop
 endfacet
 facet normal -0.049068 0.998795 0.000000
  outer loop
   vertex 7.351286 -74.638855 71680.000000
   vertex 0.000000 -75.000000 71680.000000
   vertex 7.351286 -74.638855 72040.000000
  endloop
 endfacet
 facet normal 0.049068 0.998795 -0.000000
  outer loop
   vertex -7.351286 -74.638855 71680.000000
   vertex -7.351286 -74.638855 72040.000000
   vertex 0.000000 -75.000000 72040.000000
  endloop
 endfacet
 facet normal 0.049068 0.998795 -0.000000
  outer loop
   vertex 0.000000 -75.000000 71680.000000
   vertex -7.351286 -74.638855 71680.000000
   vertex 0.000000 -75.000000 72040.000000
  endloop
 endfacet
 facet normal 0.146730 0.989177 -0.000000
  outer loop
   vertex -14.631774 -73.558896 71680.000000
   vertex -14.631774 -73.558896 72040.000000
   vertex -7.351286 -74.638855 72040.000000
  endloop
 endfacet
 facet normal 0.146730 0.989177 -0.000000
  outer loop
   vertex -7.351286 -74.638855 71680.000000
   vertex -14.631774 -73.558896 71680.000000
   vertex -7.351286 -74.638855 72040.000000
  endloop
 endfacet
 facet normal 0.242980 0.970031 -0.000000
  outer loop
   vertex -21.771351 -71.770525 71680.000000
   vertex -21.771351 -71.770525 72040.000000
   vertex -14.631774 -73.558896 72040.000000
  endloop
 endfacet
 facet normal 0.242980 0.970031 -0.000000
  outer loop
   vertex -14.631774 -73.558896 71680.000000
   vertex -21.771351 -71.770525 71680.000000
   vertex -14.631774 -73.558896 72040.000000
  endloop
 endfacet
 facet normal 0.336890 0.941544 -0.000000
  outer loop
   vertex -28.701257 -69.290965 71680.000000
   vertex -28.701257 -69.290965 72040.000000
   vertex -21.771351 -71.770525 72040.000000
  endloop
 endfacet
 facet normal 0.336890 0.941544 -0.000000
  outer loop
   vertex -21.771351 -71.770525 71680.000000
   vertex -28.701257 -69.290965 71680.000000
   vertex -21.771351 -71.770525 72040.000000
  endloop
 endfacet
 facet normal 0.427555 0.903989 -0.000000
  outer loop
   vertex -35.354755 -66.144095 71680.000000
   vertex -35.354755 -66.144095 72040.000000
   vertex -28.701257 -69.290965 72040.000000
  endloop
 endfacet
 facet normal 0.427555 0.903989 -0.000000
  outer loop
   vertex -28.701257 -69.290965 71680.000000
   vertex -35.354755 -66.144095 71680.000000
   vertex -28.701257 -69.290965 72040.000000
  endloop
 endfacet
 facet normal 0.514103 0.857729 -0.000000
  outer loop
   vertex -41.667767 -62.360221 71680.000000
   vertex -41.667767 -62.360221 72040.000000
   vertex -35.354755 -66.144095 72040.000000
  endloop
 endfacet
 facet normal 0.514103 0.857729 -0.000000
  outer loop
   vertex -35.354755 -66.144095 71680.000000
   vertex -41.667767 -62.360221 71680.000000
   vertex -35.354755 -66.144095 72040.000000
  endloop
 endfacet
 facet normal 0.595699 0.803208 -0.000000
  outer loop
   vertex -47.579496 -57.975784 71680.000000
   vertex -47.579496 -57.975784 72040.000000
   vertex -41.667767 -62.360221 72040.000000
  endloop
 endfacet
 facet normal 0.595699 0.803208 -0.000000
  outer loop
   vertex -41.667767 -62.360221 71680.000000
   vertex -47.579496 -57.975784 71680.000000
   vertex -41.667767 -62.360221 72040.000000
  endloop
 endfacet
 facet normal 0.671559 0.740951 -0.000000
  outer loop
   vertex -53.033009 -53.033009 71680.000000
   vertex -53.033009 -53.033009 72040.000000
   vertex -47.579496 -57.975784 72040.000000
  endloop
 endfacet
 facet normal 0.671559 0.740951 -0.000000
  outer loop
   vertex -47.579496 -57.975784 71680.000000
   vertex -53.033009 -53.033009 71680.000000
   vertex -47.579496 -57.975784 72040.000000
  endloop
 endfacet
 facet normal 0.740951 0.671559 -0.000000
  outer loop
   vertex -57.975784 -47.579496 71680.000000
   vertex -57.975784 -47.579496 72040.000000
   vertex -53.033009 -53.033009 72040.000000
  endloop
 endfacet
 facet normal 0.740951 0.671559 -0.000000
  outer loop
   vertex -53.033009 -53.033009 71680.000000
   vertex -57.975784 -47.579496 71680.000000
   vertex -53.033009 -53.033009 72040.000000
  endloop
 endfacet
 facet normal 0.803208 0.595699 -0.000000
  outer loop
   vertex -62.360221 -41.667767 71680.000000
   vertex -62.360221 -41.667767 72040.000000
   vertex -57.975784 -47.579496 72040.000000
  endloop
 endfacet
 facet normal 0.803208 0.595699 -0.000000
  outer loop
   vertex -57.975784 -47.579496 71680.000000
   vertex -62.360221 -41.667767 71680.000000
   vertex -57.975784 -47.579496 72040.000000
  endloop
 endfacet
 facet normal 0.857729 0.514103 -0.000000
  outer loop
   vertex -66.144095 -35.354755 71680.000000
   vertex -66.144095 -35.354755 72040.000000
   vertex -62.360221 -41.667767 72040.000000
  endloop
 endfacet
 facet normal 0.857729 0.514103 -0.000000
  outer loop
   vertex -62.360221 -41.667767 71680.000000
   vertex -66.144095 -35.354755 71680.000000
   vertex -62.360221 -41.667767 72040.000000
  endloop
 endfacet
 facet normal 0.903989 0.427555 -0.000000
  outer loop
   vertex -69.290965 -28.701257 71680.000000
   vertex -69.290965 -28.701257 72040.000000
   vertex -66.144095 -35.354755 72040.000000
  endloop
 endfacet
 facet normal 0.903989 0.427555 -0.000000
  outer loop
   vertex -66.144095 -35.354755 71680.000000
   vertex -69.290965 -28.701257 71680.000000
   vertex -66.144095 -35.354755 72040.000000
  endloop
 endfacet
 facet normal 0.941544 0.336890 -0.000000
  outer loop
   vertex -71.770525 -21.771351 71680.000000
   vertex -71.770525 -21.771351 72040.000000
   vertex -69.290965 -28.701257 72040.000000
  endloop
 endfacet
 facet normal 0.941544 0.336890 -0.000000
  outer loop
   vertex -69.290965 -28.701257 71680.000000
   vertex -71.770525 -21.771351 71680.000000
   vertex -69.290965 -28.701257 72040.000000
  endloop
 endfacet
 facet normal 0.970031 0.242980 -0.000000
  outer loop
   vertex -73.558896 -14.631774 71680.000000
   vertex -73.558896 -14.631774 72040.000000
   vertex -71.770525 -21.771351 72040.000000
  endloop
 endfacet
 facet normal 0.970031 0.242980 -0.000000
  outer loop
   vertex -71.770525 -21.771351 71680.000000
   vertex -73.558896 -14.631774 71680.000000
   vertex -71.770525 -21.771351 72040.000000
  endloop
 endfacet
 facet normal 0.989177 0.146730 -0.000000
  outer loop
   vertex -74.638855 -7.351286 71680.000000
   vertex -74.638855 -7.351286 72040.000000
   vertex -73.558896 -14.631774 72040.000000
  endloop
 endfacet
 facet normal 0.989177 0.146730 -0.000000
  outer loop
   vertex -73.558896 -14.631774 71680.000000
   vertex -74.638855 -7.351286 71680.000000
   vertex -73.558896 -14.631774 72040.000000
  endloop
 endfacet
 facet normal 0.998795 0.049068 -0.000000
  outer loop
   vertex -75.000000 -0.000000 71680.000000
   vertex -75.000000 -0.000000 72040.000000
   vertex -74.638855 -7.351286 72040.000000
  endloop
 endfacet
 facet normal 0.998795 0.049068 -0.000000
  outer loop
   vertex -74.638855 -7.351286 71680.000000
   vertex -75.000000 -0.000000 71680.000000
   vertex -74.638855 -7.351286 72040.000000
  endloop
 endfacet
 facet normal 0.998795 -0.049068 0.000000
  outer loop
   vertex -74.638855 7.351286 71680.000000
   vertex -74.638855 7.351286 72040.000000
   vertex -75.000000 -0.000000 72040.000000
  endloop
 endfacet
 facet normal 0.998795 -0.049068 0.000000
  outer loop
   vertex -75.000000 -0.000000 71680.000000
   vertex -74.638855 7.351286 71680.000000
   vertex -75.000000 -0.000000 72040.000000
  endloop
 endfacet
 facet normal 0.989177 -0.146730 0.000000
  outer loop
   vertex -73.558896 14.631774 71680.000000
   vertex -73.558896 14.631774 72040.000000
   vertex -74.638855 7.351286 72040.000000
  endloop
 endfacet
 facet normal 0.989177 -0.146730 0.000000
  outer loop
   vertex -74.638855 7.351286 71680.000000
   vertex -73.558896 14.631774 71680.000000
   vertex -74.638855 7.351286 72040.000000
  endloop
 endfacet
 facet normal 0.970031 -0.242980 0.000000
  outer loop
   vertex -71.770525 21.771351 71680.000000
   vertex -71.770525 21.771351 72040.000000
   vertex -73.558896 14.631774 72040.000000
  endloop
 endfacet
 facet normal 0.970031 -0.242980 0.000000
  outer loop
   vertex -73.558896 14.631774 71680.000000
   vertex -71.770525 21.771351 71680.000000
   vertex -73.558896 14.631774 72040.000000
  endloop
 endfacet
 facet normal 0.941544 -0.336890 0.000000
  outer loop
   vertex -69.290965 28.701257 71680.000000
   vertex -69.290965 28.701257 72040.000000
   vertex -71.770525 21.771351 72040.000000
  endloop
 endfacet
 facet normal 0.941544 -0.336890 0.000000
  outer loop
   vertex -71.770525 21.771351 71680.000000
   vertex -69.290965 28.701257 71680.000000
   vertex -71.770525 21.771351 72040.000000
  endloop
 endfacet
 facet normal 0.903989 -0.427555 0.000000
  outer loop
   vertex -66.144095 35.354755 71680.000000
   vertex -66.144095 35.354755 72040.000000
   vertex -69.290965 28.701257 72040.000000
  endloop
 endfacet
 facet normal 0.903989 -0.427555 0.000000
  outer loop
   vertex -69.290965 28.701257 71680.000000
   vertex -66.144095 35.354755 71680.000000
   vertex -69.290965 28.701257 72040.000000
  endloop
 endfacet
 facet normal 0.857729 -0.514103 0.000000
  outer loop
   vertex -62.360221 41.667767 71680.000000
   vertex -62.360221 41.667767 72040.000000
   vertex -66.144095 35.354755 72040.000000
  endloop
 endfacet
 facet normal 0.857729 -0.514103 0.000000
  outer loop
   vertex -66.144095 35.354755 71680.000000
   vertex -62.360221 41.667767 71680.000000
   vertex -66.144095 35.354755 72040.000000
  endloop
 endfacet
 facet normal 0.803208 -0.595699 0.000000
  outer loop
   vertex -57.975784 47.579496 71680.000000
   vertex -57.975784 47.579496 72040.000000
   vertex -62.360221 41.667767 72040.000000
  endloop
 endfacet
 facet normal 0.803208 -0.595699 0.000000
  outer loop
   vertex -62.360221 41.667767 71680.000000
   vertex -57.975784 47.579496 71680.000000
   vertex -62.360221 41.667767 72040.000000
  endloop
 endfacet
 facet normal 0.740951 -0.671559 0.000000
  outer loop
   vertex -53.033009 53.033009 71680.000000
   vertex -53.033009 53.033009 72040.000000
   vertex -57.975784 47.579496 72040.000000
  endloop
 endfacet
 facet normal 0.740951 -0.671559 0.000000
  outer loop
   vertex -57.975784 47.579496 71680.000000
   vertex -53.033009 53.033009 71680.000000
   vertex -57.975784 47.579496 72040.000000
  endloop
 endfacet
 facet normal 0.671559 -0.740951 0.000000
  outer loop
   vertex -47.579496 57.975784 71680.000000
   vertex -47.579496 57.975784 72040.000000
   vertex -53.033009 53.033009 72040.000000
  endloop
 endfacet
 facet normal 0.671559 -0.740951 0.000000
  outer loop
   vertex -53.033009 53.033009 71680.000000
   vertex -47.579496 57.975784 71680.000000
   vertex -53.033009 53.033009 72040.000000
  endloop
 endfacet
 facet normal 0.595699 -0.803208 0.000000
  outer loop
   vertex -41.667767 62.360221 71680.000000
   vertex -41.667767 62.360221 72040.000000
   vertex -47.579496 57.975784 72040.000000
  endloop
 endfacet
 facet normal 0.595699 -0.803208 0.000000
  outer loop
   vertex -47.579496 57.975784 71680.000000
   vertex -41.667767 62.360221 71680.000000
   vertex -47.579496 57.975784 72040.000000
  endloop
 endfacet
 facet normal 0.514103 -0.857729 0.000000
  outer loop
   vertex -35.354755 66.144095 71680.000000
   vertex -35.354755 66.144095 72040.000000
   vertex -41.667767 62.360221 72040.000000
  endloop
 endfacet
 facet normal 0.514103 -0.857729 0.000000
  outer loop
   vertex -41.667767 62.360221 71680.000000
   vertex -35.354755 66.144095 71680.000000
   vertex -41.667767 62.360221 72040.000000
  endloop
 endfacet
 facet normal 0.427555 -0.903989 0.000000
  outer loop
   vertex -28.701257 69.290965 71680.000000
   vertex -28.701257 69.290965 72040.000000
   vertex -35.354755 66.144095 72040.000000
  endloop
 endfacet
 facet normal 0.427555 -0.903989 0.000000
  outer loop
   vertex -35.354755 66.144095 71680.000000
   vertex -28.701257 69.290965 71680.000000
   vertex -35.354755 66.144095 72040.000000
  endloop
 endfacet
 facet normal 0.336890 -0.941544 0.000000
  outer loop
   vertex -21.771351 71.770525 71680.000000
   vertex -21.771351 71.770525 72040.000000
   vertex -28.701257 69.290965 72040.000000
  endloop
 endfacet
 facet normal 0.336890 -0.941544 0.000000
  outer loop
   vertex -28.701257 69.290965 71680.000000
   vertex -21.771351 71.770525 71680.000000
   vertex -28.701257 69.290965 72040.000000
  endloop
 endfacet
 facet normal 0.242980 -0.970031 0.000000
  outer loop
   vertex -14.631774 73.558896 71680.000000
   vertex -14.631774 73.558896 72040.000000
   vertex -21.771351 71.770525 72040.000000
  endloop
 endfacet
 facet normal 0.242980 -0.970031 0.000000
  outer loop
   vertex -21.771351 71.770525 71680.000000
   vertex -14.631774 73.558896 71680.000000
   vertex -21.771351 71.770525 72040.000000
  endloop
 endfacet
 facet normal 0.146730 -0.989177 0.000000
  outer loop
   vertex -7.351286 74.638855 71680.000000
   vertex -7.351286 74.638855 72040.000000
   vertex -14.631774 73.558896 72040.000000
  endloop
 endfacet
 facet normal 0.146730 -0.989177 0.000000
  outer loop
   vertex -14.631774 73.558896 71680.000000
   vertex -7.351286 74.638855 71680.000000
   vertex -14.631774 73.558896 72040.000000
  endloop
 endfacet
 facet normal 0.049068 -0.998795 0.000000
  outer loop
   vertex 0.000000 75.000000 71680.000000
   vertex 0.000000 75.000000 72040.000000
   vertex -7.351286 74.638855 72040.000000
  endloop
 endfacet
 facet normal 0.049068 -0.998795 0.000000
  outer loop
   vertex -7.351286 74.638855 71680.000000
   vertex 0.000000 75.000000 71680.000000
   vertex -7.351286 74.638855 72040.000000
  endloop
 endfacet
endsolid part
