solid SIC_nozzle_4
 facet normal -0.945733 -0.030960 -0.323468
  outer loop
   vertex 2050.000000 2511.400000 -1500.000000
   vertex 2048.715354 2550.641878 -1500.000000
   vertex 3226.188883 2627.817570 -4950.000000
  endloop
 endfacet
 facet normal -0.945733 -0.030960 -0.323468
  outer loop
   vertex 2050.000000 2511.400000 -1500.000000
   vertex 3226.188883 2627.817570 -4950.000000
   vertex 3230.000000 2511.400000 -4950.000000
  endloop
 endfacet
 facet normal -0.941683 -0.092748 -0.323468
  outer loop
   vertex 2048.715354 2550.641878 -1500.000000
   vertex 2044.866917 2589.715715 -1500.000000
   vertex 3214.771853 2743.736622 -4950.000000
  endloop
 endfacet
 facet normal -0.941683 -0.092748 -0.323468
  outer loop
   vertex 2048.715354 2550.641878 -1500.000000
   vertex 3214.771853 2743.736622 -4950.000000
   vertex 3226.188883 2627.817570 -4950.000000
  endloop
 endfacet
 facet normal -0.933601 -0.154138 -0.323468
  outer loop
   vertex 2044.866917 2589.715715 -1500.000000
   vertex 2038.471168 2628.454193 -1500.000000
   vertex 3195.797799 2858.660773 -4950.000000
  endloop
 endfacet
 facet normal -0.933601 -0.154138 -0.323468
  outer loop
   vertex 2044.866917 2589.715715 -1500.000000
   vertex 3195.797799 2858.660773 -4950.000000
   vertex 3214.771853 2743.736622 -4950.000000
  endloop
 endfacet
 facet normal -0.921521 -0.214868 -0.323468
  outer loop
   vertex 2038.471168 2628.454193 -1500.000000
   vertex 2029.555496 2666.691427 -1500.000000
   vertex 3169.347971 2972.097900 -4950.000000
  endloop
 endfacet
 facet normal -0.921521 -0.214868 -0.323468
  outer loop
   vertex 2038.471168 2628.454193 -1500.000000
   vertex 3169.347971 2972.097900 -4950.000000
   vertex 3195.797799 2858.660773 -4950.000000
  endloop
 endfacet
 facet normal -0.905494 -0.274679 -0.323468
  outer loop
   vertex 2029.555496 2666.691427 -1500.000000
   vertex 2018.158078 2704.263679 -1500.000000
   vertex 3135.535631 3083.562248 -4950.000000
  endloop
 endfacet
 facet normal -0.905494 -0.274679 -0.323468
  outer loop
   vertex 2029.555496 2666.691427 -1500.000000
   vertex 3135.535631 3083.562248 -4950.000000
   vertex 3169.347971 2972.097900 -4950.000000
  endloop
 endfacet
 facet normal -0.885591 -0.333313 -0.323468
  outer loop
   vertex 2018.158078 2704.263679 -1500.000000
   vertex 2004.327720 2741.010059 -1500.000000
   vertex 3094.505568 3192.576510 -4950.000000
  endloop
 endfacet
 facet normal -0.885591 -0.333313 -0.323468
  outer loop
   vertex 2018.158078 2704.263679 -1500.000000
   vertex 3094.505568 3192.576510 -4950.000000
   vertex 3135.535631 3083.562248 -4950.000000
  endloop
 endfacet
 facet normal -0.861895 -0.390520 -0.323468
  outer loop
   vertex 2004.327720 2741.010059 -1500.000000
   vertex 1988.123645 2776.773214 -1500.000000
   vertex 3046.433480 3298.673869 -4950.000000
  endloop
 endfacet
 facet normal -0.861895 -0.390520 -0.323468
  outer loop
   vertex 2004.327720 2741.010059 -1500.000000
   vertex 3046.433480 3298.673869 -4950.000000
   vertex 3094.505568 3192.576510 -4950.000000
  endloop
 endfacet
 facet normal -0.834508 -0.446054 -0.323468
  outer loop
   vertex 1988.123645 2776.773214 -1500.000000
   vertex 1969.615242 2811.400000 -1500.000000
   vertex 2991.525219 3401.400000 -4950.000000
  endloop
 endfacet
 facet normal -0.834508 -0.446054 -0.323468
  outer loop
   vertex 1988.123645 2776.773214 -1500.000000
   vertex 2991.525219 3401.400000 -4950.000000
   vertex 3046.433480 3298.673869 -4950.000000
  endloop
 endfacet
 facet normal -0.803548 -0.499678 -0.323468
  outer loop
   vertex 1969.615242 2811.400000 -1500.000000
   vertex 1948.881767 2844.742140 -1500.000000
   vertex 2930.015910 3500.315015 -4950.000000
  endloop
 endfacet
 facet normal -0.803548 -0.499678 -0.323468
  outer loop
   vertex 1969.615242 2811.400000 -1500.000000
   vertex 2930.015910 3500.315015 -4950.000000
   vertex 2991.525219 3401.400000 -4950.000000
  endloop
 endfacet
 facet normal -0.769147 -0.551163 -0.323468
  outer loop
   vertex 1948.881767 2844.742140 -1500.000000
   vertex 1926.012004 2876.656857 -1500.000000
   vertex 2862.168946 3594.995344 -4950.000000
  endloop
 endfacet
 facet normal -0.769147 -0.551163 -0.323468
  outer loop
   vertex 1948.881767 2844.742140 -1500.000000
   vertex 2862.168946 3594.995344 -4950.000000
   vertex 2930.015910 3500.315015 -4950.000000
  endloop
 endfacet
 facet normal -0.731453 -0.600288 -0.323468
  outer loop
   vertex 1926.012004 2876.656857 -1500.000000
   vertex 1901.103884 2907.007489 -1500.000000
   vertex 2788.274857 3685.035551 -4950.000000
  endloop
 endfacet
 facet normal -0.731453 -0.600288 -0.323468
  outer loop
   vertex 1926.012004 2876.656857 -1500.000000
   vertex 2788.274857 3685.035551 -4950.000000
   vertex 2862.168946 3594.995344 -4950.000000
  endloop
 endfacet
 facet normal -0.690626 -0.646842 -0.323468
  outer loop
   vertex 1901.103884 2907.007489 -1500.000000
   vertex 1874.264069 2935.664069 -1500.000000
   vertex 2708.650071 3770.050071 -4950.000000
  endloop
 endfacet
 facet normal -0.690626 -0.646842 -0.323468
  outer loop
   vertex 1901.103884 2907.007489 -1500.000000
   vertex 2708.650071 3770.050071 -4950.000000
   vertex 2788.274857 3685.035551 -4950.000000
  endloop
 endfacet
 facet normal -0.646842 -0.690626 -0.323468
  outer loop
   vertex 1874.264069 2935.664069 -1500.000000
   vertex 1845.607489 2962.503884 -1500.000000
   vertex 2623.635551 3849.674857 -4950.000000
  endloop
 endfacet
 facet normal -0.646842 -0.690626 -0.323468
  outer loop
   vertex 1874.264069 2935.664069 -1500.000000
   vertex 2623.635551 3849.674857 -4950.000000
   vertex 2708.650071 3770.050071 -4950.000000
  endloop
 endfacet
 facet normal -0.600288 -0.731453 -0.323468
  outer loop
   vertex 1845.607489 2962.503884 -1500.000000
   vertex 1815.256857 2987.412004 -1500.000000
   vertex 2533.595344 3923.568946 -4950.000000
  endloop
 endfacet
 facet normal -0.600288 -0.731453 -0.323468
  outer loop
   vertex 1845.607489 2962.503884 -1500.000000
   vertex 2533.595344 3923.568946 -4950.000000
   vertex 2623.635551 3849.674857 -4950.000000
  endloop
 endfacet
 facet normal -0.551163 -0.769147 -0.323468
  outer loop
   vertex 1815.256857 2987.412004 -1500.000000
   vertex 1783.342140 3010.281767 -1500.000000
   vertex 2438.915015 3991.415910 -4950.000000
  endloop
 endfacet
 facet normal -0.551163 -0.769147 -0.323468
  outer loop
   vertex 1815.256857 2987.412004 -1500.000000
   vertex 2438.915015 3991.415910 -4950.000000
   vertex 2533.595344 3923.568946 -4950.000000
  endloop
 endfacet
 facet normal -0.499678 -0.803548 -0.323468
  outer loop
   vertex 1783.342140 3010.281767 -1500.000000
   vertex 1750.000000 3031.015242 -1500.000000
   vertex 2340.000000 4052.925219 -4950.000000
  endloop
 endfacet
 facet normal -0.499678 -0.803548 -0.323468
  outer loop
   vertex 1783.342140 3010.281767 -1500.000000
   vertex 2340.000000 4052.925219 -4950.000000
   vertex 2438.915015 3991.415910 -4950.000000
  endloop
 endfacet
 facet normal -0.446054 -0.834508 -0.323468
  outer loop
   vertex 1750.000000 3031.015242 -1500.000000
   vertex 1715.373214 3049.523645 -1500.000000
   vertex 2237.273869 4107.833480 -4950.000000
  endloop
 endfacet
 facet normal -0.446054 -0.834508 -0.323468
  outer loop
   vertex 1750.000000 3031.015242 -1500.000000
   vertex 2237.273869 4107.833480 -4950.000000
   vertex 2340.000000 4052.925219 -4950.000000
  endloop
 endfacet
 facet normal -0.390520 -0.861895 -0.323468
  outer loop
   vertex 1715.373214 3049.523645 -1500.000000
   vertex 1679.610059 3065.727720 -1500.000000
   vertex 2131.176510 4155.905568 -4950.000000
  endloop
 endfacet
 facet normal -0.390520 -0.861895 -0.323468
  outer loop
   vertex 1715.373214 3049.523645 -1500.000000
   vertex 2131.176510 4155.905568 -4950.000000
   vertex 2237.273869 4107.833480 -4950.000000
  endloop
 endfacet
 facet normal -0.333313 -0.885591 -0.323468
  outer loop
   vertex 1679.610059 3065.727720 -1500.000000
   vertex 1642.863679 3079.558078 -1500.000000
   vertex 2022.162248 4196.935631 -4950.000000
  endloop
 endfacet
 facet normal -0.333313 -0.885591 -0.323468
  outer loop
   vertex 1679.610059 3065.727720 -1500.000000
   vertex 2022.162248 4196.935631 -4950.000000
   vertex 2131.176510 4155.905568 -4950.000000
  endloop
 endfacet
 facet normal -0.274679 -0.905494 -0.323468
  outer loop
   vertex 1642.863679 3079.558078 -1500.000000
   vertex 1605.291427 3090.955496 -1500.000000
   vertex 1910.697900 4230.747971 -4950.000000
  endloop
 endfacet
 facet normal -0.274679 -0.905494 -0.323468
  outer loop
   vertex 1642.863679 3079.558078 -1500.000000
   vertex 1910.697900 4230.747971 -4950.000000
   vertex 2022.162248 4196.935631 -4950.000000
  endloop
 endfacet
 facet normal -0.214868 -0.921521 -0.323468
  outer loop
   vertex 1605.291427 3090.955496 -1500.000000
   vertex 1567.054193 3099.871168 -1500.000000
   vertex 1797.260773 4257.197799 -4950.000000
  endloop
 endfacet
 facet normal -0.214868 -0.921521 -0.323468
  outer loop
   vertex 1605.291427 3090.955496 -1500.000000
   vertex 1797.260773 4257.197799 -4950.000000
   vertex 1910.697900 4230.747971 -4950.000000
  endloop
 endfacet
 facet normal -0.154138 -0.933601 -0.323468
  outer loop
   vertex 1567.054193 3099.871168 -1500.000000
   vertex 1528.315715 3106.266917 -1500.000000
   vertex 1682.336622 4276.171853 -4950.000000
  endloop
 endfacet
 facet normal -0.154138 -0.933601 -0.323468
  outer loop
   vertex 1567.054193 3099.871168 -1500.000000
   vertex 1682.336622 4276.171853 -4950.000000
   vertex 1797.260773 4257.197799 -4950.000000
  endloop
 endfacet
 facet normal -0.092748 -0.941683 -0.323468
  outer loop
   vertex 1528.315715 3106.266917 -1500.000000
   vertex 1489.241878 3110.115354 -1500.000000
   vertex 1566.417570 4287.588883 -4950.000000
  endloop
 endfacet
 facet normal -0.092748 -0.941683 -0.323468
  outer loop
   vertex 1528.315715 3106.266917 -1500.000000
   vertex 1566.417570 4287.588883 -4950.000000
   vertex 1682.336622 4276.171853 -4950.000000
  endloop
 endfacet
 facet normal -0.030960 -0.945733 -0.323468
  outer loop
   vertex 1489.241878 3110.115354 -1500.000000
   vertex 1450.000000 3111.400000 -1500.000000
   vertex 1450.000000 4291.400000 -4950.000000
  endloop
 endfacet
 facet normal -0.030960 -0.945733 -0.323468
  outer loop
   vertex 1489.241878 3110.115354 -1500.000000
   vertex 1450.000000 4291.400000 -4950.000000
   vertex 1566.417570 4287.588883 -4950.000000
  endloop
 endfacet
 facet normal 0.030960 -0.945733 -0.323468
  outer loop
   vertex 1450.000000 3111.400000 -1500.000000
   vertex 1410.758122 3110.115354 -1500.000000
   vertex 1333.582430 4287.588883 -4950.000000
  endloop
 endfacet
 facet normal 0.030960 -0.945733 -0.323468
  outer loop
   vertex 1450.000000 3111.400000 -1500.000000
   vertex 1333.582430 4287.588883 -4950.000000
   vertex 1450.000000 4291.400000 -4950.000000
  endloop
 endfacet
 facet normal 0.092748 -0.941683 -0.323468
  outer loop
   vertex 1410.758122 3110.115354 -1500.000000
   vertex 1371.684285 3106.266917 -1500.000000
   vertex 1217.663378 4276.171853 -4950.000000
  endloop
 endfacet
 facet normal 0.092748 -0.941683 -0.323468
  outer loop
   vertex 1410.758122 3110.115354 -1500.000000
   vertex 1217.663378 4276.171853 -4950.000000
   vertex 1333.582430 4287.588883 -4950.000000
  endloop
 endfacet
 facet normal 0.154138 -0.933601 -0.323468
  outer loop
   vertex 1371.684285 3106.266917 -1500.000000
   vertex 1332.945807 3099.871168 -1500.000000
   vertex 1102.739227 4257.197799 -4950.000000
  endloop
 endfacet
 facet normal 0.154138 -0.933601 -0.323468
  outer loop
   vertex 1371.684285 3106.266917 -1500.000000
   vertex 1102.739227 4257.197799 -4950.000000
   vertex 1217.663378 4276.171853 -4950.000000
  endloop
 endfacet
 facet normal 0.214868 -0.921521 -0.323468
  outer loop
   vertex 1332.945807 3099.871168 -1500.000000
   vertex 1294.708573 3090.955496 -1500.000000
   vertex 989.302100 4230.747971 -4950.000000
  endloop
 endfacet
 facet normal 0.214868 -0.921521 -0.323468
  outer loop
   vertex 1332.945807 3099.871168 -1500.000000
   vertex 989.302100 4230.747971 -4950.000000
   vertex 1102.739227 4257.197799 -4950.000000
  endloop
 endfacet
 facet normal 0.274679 -0.905494 -0.323468
  outer loop
   vertex 1294.708573 3090.955496 -1500.000000
   vertex 1257.136321 3079.558078 -1500.000000
   vertex 877.837752 4196.935631 -4950.000000
  endloop
 endfacet
 facet normal 0.274679 -0.905494 -0.323468
  outer loop
   vertex 1294.708573 3090.955496 -1500.000000
   vertex 877.837752 4196.935631 -4950.000000
   vertex 989.302100 4230.747971 -4950.000000
  endloop
 endfacet
 facet normal 0.333313 -0.885591 -0.323468
  outer loop
   vertex 1257.136321 3079.558078 -1500.000000
   vertex 1220.389941 3065.727720 -1500.000000
   vertex 768.823490 4155.905568 -4950.000000
  endloop
 endfacet
 facet normal 0.333313 -0.885591 -0.323468
  outer loop
   vertex 1257.136321 3079.558078 -1500.000000
   vertex 768.823490 4155.905568 -4950.000000
   vertex 877.837752 4196.935631 -4950.000000
  endloop
 endfacet
 facet normal 0.390520 -0.861895 -0.323468
  outer loop
   vertex 1220.389941 3065.727720 -1500.000000
   vertex 1184.626786 3049.523645 -1500.000000
   vertex 662.726131 4107.833480 -4950.000000
  endloop
 endfacet
 facet normal 0.390520 -0.861895 -0.323468
  outer loop
   vertex 1220.389941 3065.727720 -1500.000000
   vertex 662.726131 4107.833480 -4950.000000
   vertex 768.823490 4155.905568 -4950.000000
  endloop
 endfacet
 facet normal 0.446054 -0.834508 -0.323468
  outer loop
   vertex 1184.626786 3049.523645 -1500.000000
   vertex 1150.000000 3031.015242 -1500.000000
   vertex 560.000000 4052.925219 -4950.000000
  endloop
 endfacet
 facet normal 0.446054 -0.834508 -0.323468
  outer loop
   vertex 1184.626786 3049.523645 -1500.000000
   vertex 560.000000 4052.925219 -4950.000000
   vertex 662.726131 4107.833480 -4950.000000
  endloop
 endfacet
 facet normal 0.499678 -0.803548 -0.323468
  outer loop
   vertex 1150.000000 3031.015242 -1500.000000
   vertex 1116.657860 3010.281767 -1500.000000
   vertex 461.084985 3991.415910 -4950.000000
  endloop
 endfacet
 facet normal 0.499678 -0.803548 -0.323468
  outer loop
   vertex 1150.000000 3031.015242 -1500.000000
   vertex 461.084985 3991.415910 -4950.000000
   vertex 560.000000 4052.925219 -4950.000000
  endloop
 endfacet
 facet normal 0.551163 -0.769147 -0.323468
  outer loop
   vertex 1116.657860 3010.281767 -1500.000000
   vertex 1084.743143 2987.412004 -1500.000000
   vertex 366.404656 3923.568946 -4950.000000
  endloop
 endfacet
 facet normal 0.551163 -0.769147 -0.323468
  outer loop
   vertex 1116.657860 3010.281767 -1500.000000
   vertex 366.404656 3923.568946 -4950.000000
   vertex 461.084985 3991.415910 -4950.000000
  endloop
 endfacet
 facet normal 0.600288 -0.731453 -0.323468
  outer loop
   vertex 1084.743143 2987.412004 -1500.000000
   vertex 1054.392511 2962.503884 -1500.000000
   vertex 276.364449 3849.674857 -4950.000000
  endloop
 endfacet
 facet normal 0.600288 -0.731453 -0.323468
  outer loop
   vertex 1084.743143 2987.412004 -1500.000000
   vertex 276.364449 3849.674857 -4950.000000
   vertex 366.404656 3923.568946 -4950.000000
  endloop
 endfacet
 facet normal 0.646842 -0.690626 -0.323468
  outer loop
   vertex 1054.392511 2962.503884 -1500.000000
   vertex 1025.735931 2935.664069 -1500.000000
   vertex 191.349929 3770.050071 -4950.000000
  endloop
 endfacet
 facet normal 0.646842 -0.690626 -0.323468
  outer loop
   vertex 1054.392511 2962.503884 -1500.000000
   vertex 191.349929 3770.050071 -4950.000000
   vertex 276.364449 3849.674857 -4950.000000
  endloop
 endfacet
 facet normal 0.690626 -0.646842 -0.323468
  outer loop
   vertex 1025.735931 2935.664069 -1500.000000
   vertex 998.896116 2907.007489 -1500.000000
   vertex 111.725143 3685.035551 -4950.000000
  endloop
 endfacet
 facet normal 0.690626 -0.646842 -0.323468
  outer loop
   vertex 1025.735931 2935.664069 -1500.000000
   vertex 111.725143 3685.035551 -4950.000000
   vertex 191.349929 3770.050071 -4950.000000
  endloop
 endfacet
 facet normal 0.731453 -0.600288 -0.323468
  outer loop
   vertex 998.896116 2907.007489 -1500.000000
   vertex 973.987996 2876.656857 -1500.000000
   vertex 37.831054 3594.995344 -4950.000000
  endloop
 endfacet
 facet normal 0.731453 -0.600288 -0.323468
  outer loop
   vertex 998.896116 2907.007489 -1500.000000
   vertex 37.831054 3594.995344 -4950.000000
   vertex 111.725143 3685.035551 -4950.000000
  endloop
 endfacet
 facet normal 0.769147 -0.551163 -0.323468
  outer loop
   vertex 973.987996 2876.656857 -1500.000000
   vertex 951.118233 2844.742140 -1500.000000
   vertex -30.015910 3500.315015 -4950.000000
  endloop
 endfacet
 facet normal 0.769147 -0.551163 -0.323468
  outer loop
   vertex 973.987996 2876.656857 -1500.000000
   vertex -30.015910 3500.315015 -4950.000000
   vertex 37.831054 3594.995344 -4950.000000
  endloop
 endfacet
 facet normal 0.803548 -0.499678 -0.323468
  outer loop
   vertex 951.118233 2844.742140 -1500.000000
   vertex 930.384758 2811.400000 -1500.000000
   vertex -91.525219 3401.400000 -4950.000000
  endloop
 endfacet
 facet normal 0.803548 -0.499678 -0.323468
  outer loop
   vertex 951.118233 2844.742140 -1500.000000
   vertex -91.525219 3401.400000 -4950.000000
   vertex -30.015910 3500.315015 -4950.000000
  endloop
 endfacet
 facet normal 0.834508 -0.446054 -0.323468
  outer loop
   vertex 930.384758 2811.400000 -1500.000000
   vertex 911.876355 2776.773214 -1500.000000
   vertex -146.433480 3298.673869 -4950.000000
  endloop
 endfacet
 facet normal 0.834508 -0.446054 -0.323468
  outer loop
   vertex 930.384758 2811.400000 -1500.000000
   vertex -146.433480 3298.673869 -4950.000000
   vertex -91.525219 3401.400000 -4950.000000
  endloop
 endfacet
 facet normal 0.861895 -0.390520 -0.323468
  outer loop
   vertex 911.876355 2776.773214 -1500.000000
   vertex 895.672280 2741.010059 -1500.000000
   vertex -194.505568 3192.576510 -4950.000000
  endloop
 endfacet
 facet normal 0.861895 -0.390520 -0.323468
  outer loop
   vertex 911.876355 2776.773214 -1500.000000
   vertex -194.505568 3192.576510 -4950.000000
   vertex -146.433480 3298.673869 -4950.000000
  endloop
 endfacet
 facet normal 0.885591 -0.333313 -0.323468
  outer loop
   vertex 895.672280 2741.010059 -1500.000000
   vertex 881.841922 2704.263679 -1500.000000
   vertex -235.535631 3083.562248 -4950.000000
  endloop
 endfacet
 facet normal 0.885591 -0.333313 -0.323468
  outer loop
   vertex 895.672280 2741.010059 -1500.000000
   vertex -235.535631 3083.562248 -4950.000000
   vertex -194.505568 3192.576510 -4950.000000
  endloop
 endfacet
 facet normal 0.905494 -0.274679 -0.323468
  outer loop
   vertex 881.841922 2704.263679 -1500.000000
   vertex 870.444504 2666.691427 -1500.000000
   vertex -269.347971 2972.097900 -4950.000000
  endloop
 endfacet
 facet normal 0.905494 -0.274679 -0.323468
  outer loop
   vertex 881.841922 2704.263679 -1500.000000
   vertex -269.347971 2972.097900 -4950.000000
   vertex -235.535631 3083.562248 -4950.000000
  endloop
 endfacet
 facet normal 0.921521 -0.214868 -0.323468
  outer loop
   vertex 870.444504 2666.691427 -1500.000000
   vertex 861.528832 2628.454193 -1500.000000
   vertex -295.797799 2858.660773 -4950.000000
  endloop
 endfacet
 facet normal 0.921521 -0.214868 -0.323468
  outer loop
   vertex 870.444504 2666.691427 -1500.000000
   vertex -295.797799 2858.660773 -4950.000000
   vertex -269.347971 2972.097900 -4950.000000
  endloop
 endfacet
 facet normal 0.933601 -0.154138 -0.323468
  outer loop
   vertex 861.528832 2628.454193 -1500.000000
   vertex 855.133083 2589.715715 -1500.000000
   vertex -314.771853 2743.736622 -4950.000000
  endloop
 endfacet
 facet normal 0.933601 -0.154138 -0.323468
  outer loop
   vertex 861.528832 2628.454193 -1500.000000
   vertex -314.771853 2743.736622 -4950.000000
   vertex -295.797799 2858.660773 -4950.000000
  endloop
 endfacet
 facet normal 0.941683 -0.092748 -0.323468
  outer loop
   vertex 855.133083 2589.715715 -1500.000000
   vertex 851.284646 2550.641878 -1500.000000
   vertex -326.188883 2627.817570 -4950.000000
  endloop
 endfacet
 facet normal 0.941683 -0.092748 -0.323468
  outer loop
   vertex 855.133083 2589.715715 -1500.000000
   vertex -326.188883 2627.817570 -4950.000000
   vertex -314.771853 2743.736622 -4950.000000
  endloop
 endfacet
 facet normal 0.945733 -0.030960 -0.323468
  outer loop
   vertex 851.284646 2550.641878 -1500.000000
   vertex 850.000000 2511.400000 -1500.000000
   vertex -330.000000 2511.400000 -4950.000000
  endloop
 endfacet
 facet normal 0.945733 -0.030960 -0.323468
  outer loop
   vertex 851.284646 2550.641878 -1500.000000
   vertex -330.000000 2511.400000 -4950.000000
   vertex -326.188883 2627.817570 -4950.000000
  endloop
 endfacet
 facet normal 0.945733 0.030960 -0.323468
  outer loop
   vertex 850.000000 2511.400000 -1500.000000
   vertex 851.284646 2472.158122 -1500.000000
   vertex -326.188883 2394.982430 -4950.000000
  endloop
 endfacet
 facet normal 0.945733 0.030960 -0.323468
  outer loop
   vertex 850.000000 2511.400000 -1500.000000
   vertex -326.188883 2394.982430 -4950.000000
   vertex -330.000000 2511.400000 -4950.000000
  endloop
 endfacet
 facet normal 0.941683 0.092748 -0.323468
  outer loop
   vertex 851.284646 2472.158122 -1500.000000
   vertex 855.133083 2433.084285 -1500.000000
   vertex -314.771853 2279.063378 -4950.000000
  endloop
 endfacet
 facet normal 0.941683 0.092748 -0.323468
  outer loop
   vertex 851.284646 2472.158122 -1500.000000
   vertex -314.771853 2279.063378 -4950.000000
   vertex -326.188883 2394.982430 -4950.000000
  endloop
 endfacet
 facet normal 0.933601 0.154138 -0.323468
  outer loop
   vertex 855.133083 2433.084285 -1500.000000
   vertex 861.528832 2394.345807 -1500.000000
   vertex -295.797799 2164.139227 -4950.000000
  endloop
 endfacet
 facet normal 0.933601 0.154138 -0.323468
  outer loop
   vertex 855.133083 2433.084285 -1500.000000
   vertex -295.797799 2164.139227 -4950.000000
   vertex -314.771853 2279.063378 -4950.000000
  endloop
 endfacet
 facet normal 0.921521 0.214868 -0.323468
  outer loop
   vertex 861.528832 2394.345807 -1500.000000
   vertex 870.444504 2356.108573 -1500.000000
   vertex -269.347971 2050.702100 -4950.000000
  endloop
 endfacet
 facet normal 0.921521 0.214868 -0.323468
  outer loop
   vertex 861.528832 2394.345807 -1500.000000
   vertex -269.347971 2050.702100 -4950.000000
   vertex -295.797799 2164.139227 -4950.000000
  endloop
 endfacet
 facet normal 0.905494 0.274679 -0.323468
  outer loop
   vertex 870.444504 2356.108573 -1500.000000
   vertex 881.841922 2318.536321 -1500.000000
   vertex -235.535631 1939.237752 -4950.000000
  endloop
 endfacet
 facet normal 0.905494 0.274679 -0.323468
  outer loop
   vertex 870.444504 2356.108573 -1500.000000
   vertex -235.535631 1939.237752 -4950.000000
   vertex -269.347971 2050.702100 -4950.000000
  endloop
 endfacet
 facet normal 0.885591 0.333313 -0.323468
  outer loop
   vertex 881.841922 2318.536321 -1500.000000
   vertex 895.672280 2281.789941 -1500.000000
   vertex -194.505568 1830.223490 -4950.000000
  endloop
 endfacet
 facet normal 0.885591 0.333313 -0.323468
  outer loop
   vertex 881.841922 2318.536321 -1500.000000
   vertex -194.505568 1830.223490 -4950.000000
   vertex -235.535631 1939.237752 -4950.000000
  endloop
 endfacet
 facet normal 0.861895 0.390520 -0.323468
  outer loop
   vertex 895.672280 2281.789941 -1500.000000
   vertex 911.876355 2246.026786 -1500.000000
   vertex -146.433480 1724.126131 -4950.000000
  endloop
 endfacet
 facet normal 0.861895 0.390520 -0.323468
  outer loop
   vertex 895.672280 2281.789941 -1500.000000
   vertex -146.433480 1724.126131 -4950.000000
   vertex -194.505568 1830.223490 -4950.000000
  endloop
 endfacet
 facet normal 0.834508 0.446054 -0.323468
  outer loop
   vertex 911.876355 2246.026786 -1500.000000
   vertex 930.384758 2211.400000 -1500.000000
   vertex -91.525219 1621.400000 -4950.000000
  endloop
 endfacet
 facet normal 0.834508 0.446054 -0.323468
  outer loop
   vertex 911.876355 2246.026786 -1500.000000
   vertex -91.525219 1621.400000 -4950.000000
   vertex -146.433480 1724.126131 -4950.000000
  endloop
 endfacet
 facet normal 0.803548 0.499678 -0.323468
  outer loop
   vertex 930.384758 2211.400000 -1500.000000
   vertex 951.118233 2178.057860 -1500.000000
   vertex -30.015910 1522.484985 -4950.000000
  endloop
 endfacet
 facet normal 0.803548 0.499678 -0.323468
  outer loop
   vertex 930.384758 2211.400000 -1500.000000
   vertex -30.015910 1522.484985 -4950.000000
   vertex -91.525219 1621.400000 -4950.000000
  endloop
 endfacet
 facet normal 0.769147 0.551163 -0.323468
  outer loop
   vertex 951.118233 2178.057860 -1500.000000
   vertex 973.987996 2146.143143 -1500.000000
   vertex 37.831054 1427.804656 -4950.000000
  endloop
 endfacet
 facet normal 0.769147 0.551163 -0.323468
  outer loop
   vertex 951.118233 2178.057860 -1500.000000
   vertex 37.831054 1427.804656 -4950.000000
   vertex -30.015910 1522.484985 -4950.000000
  endloop
 endfacet
 facet normal 0.731453 0.600288 -0.323468
  outer loop
   vertex 973.987996 2146.143143 -1500.000000
   vertex 998.896116 2115.792511 -1500.000000
   vertex 111.725143 1337.764449 -4950.000000
  endloop
 endfacet
 facet normal 0.731453 0.600288 -0.323468
  outer loop
   vertex 973.987996 2146.143143 -1500.000000
   vertex 111.725143 1337.764449 -4950.000000
   vertex 37.831054 1427.804656 -4950.000000
  endloop
 endfacet
 facet normal 0.690626 0.646842 -0.323468
  outer loop
   vertex 998.896116 2115.792511 -1500.000000
   vertex 1025.735931 2087.135931 -1500.000000
   vertex 191.349929 1252.749929 -4950.000000
  endloop
 endfacet
 facet normal 0.690626 0.646842 -0.323468
  outer loop
   vertex 998.896116 2115.792511 -1500.000000
   vertex 191.349929 1252.749929 -4950.000000
   vertex 111.725143 1337.764449 -4950.000000
  endloop
 endfacet
 facet normal 0.646842 0.690626 -0.323468
  outer loop
   vertex 1025.735931 2087.135931 -1500.000000
   vertex 1054.392511 2060.296116 -1500.000000
   vertex 276.364449 1173.125143 -4950.000000
  endloop
 endfacet
 facet normal 0.646842 0.690626 -0.323468
  outer loop
   vertex 1025.735931 2087.135931 -1500.000000
   vertex 276.364449 1173.125143 -4950.000000
   vertex 191.349929 1252.749929 -4950.000000
  endloop
 endfacet
 facet normal 0.600288 0.731453 -0.323468
  outer loop
   vertex 1054.392511 2060.296116 -1500.000000
   vertex 1084.743143 2035.387996 -1500.000000
   vertex 366.404656 1099.231054 -4950.000000
  endloop
 endfacet
 facet normal 0.600288 0.731453 -0.323468
  outer loop
   vertex 1054.392511 2060.296116 -1500.000000
   vertex 366.404656 1099.231054 -4950.000000
   vertex 276.364449 1173.125143 -4950.000000
  endloop
 endfacet
 facet normal 0.551163 0.769147 -0.323468
  outer loop
   vertex 1084.743143 2035.387996 -1500.000000
   vertex 1116.657860 2012.518233 -1500.000000
   vertex 461.084985 1031.384090 -4950.000000
  endloop
 endfacet
 facet normal 0.551163 0.769147 -0.323468
  outer loop
   vertex 1084.743143 2035.387996 -1500.000000
   vertex 461.084985 1031.384090 -4950.000000
   vertex 366.404656 1099.231054 -4950.000000
  endloop
 endfacet
 facet normal 0.499678 0.803548 -0.323468
  outer loop
   vertex 1116.657860 2012.518233 -1500.000000
   vertex 1150.000000 1991.784758 -1500.000000
   vertex 560.000000 969.874781 -4950.000000
  endloop
 endfacet
 facet normal 0.499678 0.803548 -0.323468
  outer loop
   vertex 1116.657860 2012.518233 -1500.000000
   vertex 560.000000 969.874781 -4950.000000
   vertex 461.084985 1031.384090 -4950.000000
  endloop
 endfacet
 facet normal 0.446054 0.834508 -0.323468
  outer loop
   vertex 1150.000000 1991.784758 -1500.000000
   vertex 1184.626786 1973.276355 -1500.000000
   vertex 662.726131 914.966520 -4950.000000
  endloop
 endfacet
 facet normal 0.446054 0.834508 -0.323468
  outer loop
   vertex 1150.000000 1991.784758 -1500.000000
   vertex 662.726131 914.966520 -4950.000000
   vertex 560.000000 969.874781 -4950.000000
  endloop
 endfacet
 facet normal 0.390520 0.861895 -0.323468
  outer loop
   vertex 1184.626786 1973.276355 -1500.000000
   vertex 1220.389941 1957.072280 -1500.000000
   vertex 768.823490 866.894432 -4950.000000
  endloop
 endfacet
 facet normal 0.390520 0.861895 -0.323468
  outer loop
   vertex 1184.626786 1973.276355 -1500.000000
   vertex 768.823490 866.894432 -4950.000000
   vertex 662.726131 914.966520 -4950.000000
  endloop
 endfacet
 facet normal 0.333313 0.885591 -0.323468
  outer loop
   vertex 1220.389941 1957.072280 -1500.000000
   vertex 1257.136321 1943.241922 -1500.000000
   vertex 877.837752 825.864369 -4950.000000
  endloop
 endfacet
 facet normal 0.333313 0.885591 -0.323468
  outer loop
   vertex 1220.389941 1957.072280 -1500.000000
   vertex 877.837752 825.864369 -4950.000000
   vertex 768.823490 866.894432 -4950.000000
  endloop
 endfacet
 facet normal 0.274679 0.905494 -0.323468
  outer loop
   vertex 1257.136321 1943.241922 -1500.000000
   vertex 1294.708573 1931.844504 -1500.000000
   vertex 989.302100 792.052029 -4950.000000
  endloop
 endfacet
 facet normal 0.274679 0.905494 -0.323468
  outer loop
   vertex 1257.136321 1943.241922 -1500.000000
   vertex 989.302100 792.052029 -4950.000000
   vertex 877.837752 825.864369 -4950.000000
  endloop
 endfacet
 facet normal 0.214868 0.921521 -0.323468
  outer loop
   vertex 1294.708573 1931.844504 -1500.000000
   vertex 1332.945807 1922.928832 -1500.000000
   vertex 1102.739227 765.602201 -4950.000000
  endloop
 endfacet
 facet normal 0.214868 0.921521 -0.323468
  outer loop
   vertex 1294.708573 1931.844504 -1500.000000
   vertex 1102.739227 765.602201 -4950.000000
   vertex 989.302100 792.052029 -4950.000000
  endloop
 endfacet
 facet normal 0.154138 0.933601 -0.323468
  outer loop
   vertex 1332.945807 1922.928832 -1500.000000
   vertex 1371.684285 1916.533083 -1500.000000
   vertex 1217.663378 746.628147 -4950.000000
  endloop
 endfacet
 facet normal 0.154138 0.933601 -0.323468
  outer loop
   vertex 1332.945807 1922.928832 -1500.000000
   vertex 1217.663378 746.628147 -4950.000000
   vertex 1102.739227 765.602201 -4950.000000
  endloop
 endfacet
 facet normal 0.092748 0.941683 -0.323468
  outer loop
   vertex 1371.684285 1916.533083 -1500.000000
   vertex 1410.758122 1912.684646 -1500.000000
   vertex 1333.582430 735.211117 -4950.000000
  endloop
 endfacet
 facet normal 0.092748 0.941683 -0.323468
  outer loop
   vertex 1371.684285 1916.533083 -1500.000000
   vertex 1333.582430 735.211117 -4950.000000
   vertex 1217.663378 746.628147 -4950.000000
  endloop
 endfacet
 facet normal 0.030960 0.945733 -0.323468
  outer loop
   vertex 1410.758122 1912.684646 -1500.000000
   vertex 1450.000000 1911.400000 -1500.000000
   vertex 1450.000000 731.400000 -4950.000000
  endloop
 endfacet
 facet normal 0.030960 0.945733 -0.323468
  outer loop
   vertex 1410.758122 1912.684646 -1500.000000
   vertex 1450.000000 731.400000 -4950.000000
   vertex 1333.582430 735.211117 -4950.000000
  endloop
 endfacet
 facet normal -0.030960 0.945733 -0.323468
  outer loop
   vertex 1450.000000 1911.400000 -1500.000000
   vertex 1489.241878 1912.684646 -1500.000000
   vertex 1566.417570 735.211117 -4950.000000
  endloop
 endfacet
 facet normal -0.030960 0.945733 -0.323468
  outer loop
   vertex 1450.000000 1911.400000 -1500.000000
   vertex 1566.417570 735.211117 -4950.000000
   vertex 1450.000000 731.400000 -4950.000000
  endloop
 endfacet
 facet normal -0.092748 0.941683 -0.323468
  outer loop
   vertex 1489.241878 1912.684646 -1500.000000
   vertex 1528.315715 1916.533083 -1500.000000
   vertex 1682.336622 746.628147 -4950.000000
  endloop
 endfacet
 facet normal -0.092748 0.941683 -0.323468
  outer loop
   vertex 1489.241878 1912.684646 -1500.000000
   vertex 1682.336622 746.628147 -4950.000000
   vertex 1566.417570 735.211117 -4950.000000
  endloop
 endfacet
 facet normal -0.154138 0.933601 -0.323468
  outer loop
   vertex 1528.315715 1916.533083 -1500.000000
   vertex 1567.054193 1922.928832 -1500.000000
   vertex 1797.260773 765.602201 -4950.000000
  endloop
 endfacet
 facet normal -0.154138 0.933601 -0.323468
  outer loop
   vertex 1528.315715 1916.533083 -1500.000000
   vertex 1797.260773 765.602201 -4950.000000
   vertex 1682.336622 746.628147 -4950.000000
  endloop
 endfacet
 facet normal -0.214868 0.921521 -0.323468
  outer loop
   vertex 1567.054193 1922.928832 -1500.000000
   vertex 1605.291427 1931.844504 -1500.000000
   vertex 1910.697900 792.052029 -4950.000000
  endloop
 endfacet
 facet normal -0.214868 0.921521 -0.323468
  outer loop
   vertex 1567.054193 1922.928832 -1500.000000
   vertex 1910.697900 792.052029 -4950.000000
   vertex 1797.260773 765.602201 -4950.000000
  endloop
 endfacet
 facet normal -0.274679 0.905494 -0.323468
  outer loop
   vertex 1605.291427 1931.844504 -1500.000000
   vertex 1642.863679 1943.241922 -1500.000000
   vertex 2022.162248 825.864369 -4950.000000
  endloop
 endfacet
 facet normal -0.274679 0.905494 -0.323468
  outer loop
   vertex 1605.291427 1931.844504 -1500.000000
   vertex 2022.162248 825.864369 -4950.000000
   vertex 1910.697900 792.052029 -4950.000000
  endloop
 endfacet
 facet normal -0.333313 0.885591 -0.323468
  outer loop
   vertex 1642.863679 1943.241922 -1500.000000
   vertex 1679.610059 1957.072280 -1500.000000
   vertex 2131.176510 866.894432 -4950.000000
  endloop
 endfacet
 facet normal -0.333313 0.885591 -0.323468
  outer loop
   vertex 1642.863679 1943.241922 -1500.000000
   vertex 2131.176510 866.894432 -4950.000000
   vertex 2022.162248 825.864369 -4950.000000
  endloop
 endfacet
 facet normal -0.390520 0.861895 -0.323468
  outer loop
   vertex 1679.610059 1957.072280 -1500.000000
   vertex 1715.373214 1973.276355 -1500.000000
   vertex 2237.273869 914.966520 -4950.000000
  endloop
 endfacet
 facet normal -0.390520 0.861895 -0.323468
  outer loop
   vertex 1679.610059 1957.072280 -1500.000000
   vertex 2237.273869 914.966520 -4950.000000
   vertex 2131.176510 866.894432 -4950.000000
  endloop
 endfacet
 facet normal -0.446054 0.834508 -0.323468
  outer loop
   vertex 1715.373214 1973.276355 -1500.000000
   vertex 1750.000000 1991.784758 -1500.000000
   vertex 2340.000000 969.874781 -4950.000000
  endloop
 endfacet
 facet normal -0.446054 0.834508 -0.323468
  outer loop
   vertex 1715.373214 1973.276355 -1500.000000
   vertex 2340.000000 969.874781 -4950.000000
   vertex 2237.273869 914.966520 -4950.000000
  endloop
 endfacet
 facet normal -0.499678 0.803548 -0.323468
  outer loop
   vertex 1750.000000 1991.784758 -1500.000000
   vertex 1783.342140 2012.518233 -1500.000000
   vertex 2438.915015 1031.384090 -4950.000000
  endloop
 endfacet
 facet normal -0.499678 0.803548 -0.323468
  outer loop
   vertex 1750.000000 1991.784758 -1500.000000
   vertex 2438.915015 1031.384090 -4950.000000
   vertex 2340.000000 969.874781 -4950.000000
  endloop
 endfacet
 facet normal -0.551163 0.769147 -0.323468
  outer loop
   vertex 1783.342140 2012.518233 -1500.000000
   vertex 1815.256857 2035.387996 -1500.000000
   vertex 2533.595344 1099.231054 -4950.000000
  endloop
 endfacet
 facet normal -0.551163 0.769147 -0.323468
  outer loop
   vertex 1783.342140 2012.518233 -1500.000000
   vertex 2533.595344 1099.231054 -4950.000000
   vertex 2438.915015 1031.384090 -4950.000000
  endloop
 endfacet
 facet normal -0.600288 0.731453 -0.323468
  outer loop
   vertex 1815.256857 2035.387996 -1500.000000
   vertex 1845.607489 2060.296116 -1500.000000
   vertex 2623.635551 1173.125143 -4950.000000
  endloop
 endfacet
 facet normal -0.600288 0.731453 -0.323468
  outer loop
   vertex 1815.256857 2035.387996 -1500.000000
   vertex 2623.635551 1173.125143 -4950.000000
   vertex 2533.595344 1099.231054 -4950.000000
  endloop
 endfacet
 facet normal -0.646842 0.690626 -0.323468
  outer loop
   vertex 1845.607489 2060.296116 -1500.000000
   vertex 1874.264069 2087.135931 -1500.000000
   vertex 2708.650071 1252.749929 -4950.000000
  endloop
 endfacet
 facet normal -0.646842 0.690626 -0.323468
  outer loop
   vertex 1845.607489 2060.296116 -1500.000000
   vertex 2708.650071 1252.749929 -4950.000000
   vertex 2623.635551 1173.125143 -4950.000000
  endloop
 endfacet
 facet normal -0.690626 0.646842 -0.323468
  outer loop
   vertex 1874.264069 2087.135931 -1500.000000
   vertex 1901.103884 2115.792511 -1500.000000
   vertex 2788.274857 1337.764449 -4950.000000
  endloop
 endfacet
 facet normal -0.690626 0.646842 -0.323468
  outer loop
   vertex 1874.264069 2087.135931 -1500.000000
   vertex 2788.274857 1337.764449 -4950.000000
   vertex 2708.650071 1252.749929 -4950.000000
  endloop
 endfacet
 facet normal -0.731453 0.600288 -0.323468
  outer loop
   vertex 1901.103884 2115.792511 -1500.000000
   vertex 1926.012004 2146.143143 -1500.000000
   vertex 2862.168946 1427.804656 -4950.000000
  endloop
 endfacet
 facet normal -0.731453 0.600288 -0.323468
  outer loop
   vertex 1901.103884 2115.792511 -1500.000000
   vertex 2862.168946 1427.804656 -4950.000000
   vertex 2788.274857 1337.764449 -4950.000000
  endloop
 endfacet
 facet normal -0.769147 0.551163 -0.323468
  outer loop
   vertex 1926.012004 2146.143143 -1500.000000
   vertex 1948.881767 2178.057860 -1500.000000
   vertex 2930.015910 1522.484985 -4950.000000
  endloop
 endfacet
 facet normal -0.769147 0.551163 -0.323468
  outer loop
   vertex 1926.012004 2146.143143 -1500.000000
   vertex 2930.015910 1522.484985 -4950.000000
   vertex 2862.168946 1427.804656 -4950.000000
  endloop
 endfacet
 facet normal -0.803548 0.499678 -0.323468
  outer loop
   vertex 1948.881767 2178.057860 -1500.000000
   vertex 1969.615242 2211.400000 -1500.000000
   vertex 2991.525219 1621.400000 -4950.000000
  endloop
 endfacet
 facet normal -0.803548 0.499678 -0.323468
  outer loop
   vertex 1948.881767 2178.057860 -1500.000000
   vertex 2991.525219 1621.400000 -4950.000000
   vertex 2930.015910 1522.484985 -4950.000000
  endloop
 endfacet
 facet normal -0.834508 0.446054 -0.323468
  outer loop
   vertex 1969.615242 2211.400000 -1500.000000
   vertex 1988.123645 2246.026786 -1500.000000
   vertex 3046.433480 1724.126131 -4950.000000
  endloop
 endfacet
 facet normal -0.834508 0.446054 -0.323468
  outer loop
   vertex 1969.615242 2211.400000 -1500.000000
   vertex 3046.433480 1724.126131 -4950.000000
   vertex 2991.525219 1621.400000 -4950.000000
  endloop
 endfacet
 facet normal -0.861895 0.390520 -0.323468
  outer loop
   vertex 1988.123645 2246.026786 -1500.000000
   vertex 2004.327720 2281.789941 -1500.000000
   vertex 3094.505568 1830.223490 -4950.000000
  endloop
 endfacet
 facet normal -0.861895 0.390520 -0.323468
  outer loop
   vertex 1988.123645 2246.026786 -1500.000000
   vertex 3094.505568 1830.223490 -4950.000000
   vertex 3046.433480 1724.126131 -4950.000000
  endloop
 endfacet
 facet normal -0.885591 0.333313 -0.323468
  outer loop
   vertex 2004.327720 2281.789941 -1500.000000
   vertex 2018.158078 2318.536321 -1500.000000
   vertex 3135.535631 1939.237752 -4950.000000
  endloop
 endfacet
 facet normal -0.885591 0.333313 -0.323468
  outer loop
   vertex 2004.327720 2281.789941 -1500.000000
   vertex 3135.535631 1939.237752 -4950.000000
   vertex 3094.505568 1830.223490 -4950.000000
  endloop
 endfacet
 facet normal -0.905494 0.274679 -0.323468
  outer loop
   vertex 2018.158078 2318.536321 -1500.000000
   vertex 2029.555496 2356.108573 -1500.000000
   vertex 3169.347971 2050.702100 -4950.000000
  endloop
 endfacet
 facet normal -0.905494 0.274679 -0.323468
  outer loop
   vertex 2018.158078 2318.536321 -1500.000000
   vertex 3169.347971 2050.702100 -4950.000000
   vertex 3135.535631 1939.237752 -4950.000000
  endloop
 endfacet
 facet normal -0.921521 0.214868 -0.323468
  outer loop
   vertex 2029.555496 2356.108573 -1500.000000
   vertex 2038.471168 2394.345807 -1500.000000
   vertex 3195.797799 2164.139227 -4950.000000
  endloop
 endfacet
 facet normal -0.921521 0.214868 -0.323468
  outer loop
   vertex 2029.555496 2356.108573 -1500.000000
   vertex 3195.797799 2164.139227 -4950.000000
   vertex 3169.347971 2050.702100 -4950.000000
  endloop
 endfacet
 facet normal -0.933601 0.154138 -0.323468
  outer loop
   vertex 2038.471168 2394.345807 -1500.000000
   vertex 2044.866917 2433.084285 -1500.000000
   vertex 3214.771853 2279.063378 -4950.000000
  endloop
 endfacet
 facet normal -0.933601 0.154138 -0.323468
  outer loop
   vertex 2038.471168 2394.345807 -1500.000000
   vertex 3214.771853 2279.063378 -4950.000000
   vertex 3195.797799 2164.139227 -4950.000000
  endloop
 endfacet
 facet normal -0.941683 0.092748 -0.323468
  outer loop
   vertex 2044.866917 2433.084285 -1500.000000
   vertex 2048.715354 2472.158122 -1500.000000
   vertex 3226.188883 2394.982430 -4950.000000
  endloop
 endfacet
 facet normal -0.941683 0.092748 -0.323468
  outer loop
   vertex 2044.866917 2433.084285 -1500.000000
   vertex 3226.188883 2394.982430 -4950.000000
   vertex 3214.771853 2279.063378 -4950.000000
  endloop
 endfacet
 facet normal -0.945733 0.030960 -0.323468
  outer loop
   vertex 2048.715354 2472.158122 -1500.000000
   vertex 2050.000000 2511.400000 -1500.000000
   vertex 3230.000000 2511.400000 -4950.000000
  endloop
 endfacet
 facet normal -0.945733 0.030960 -0.323468
  outer loop
   vertex 2048.715354 2472.158122 -1500.000000
   vertex 3230.000000 2511.400000 -4950.000000
   vertex 3226.188883 2394.982430 -4950.000000
  endloop
 endfacet
endsolid SIC_nozzle_4
