solid SIC_nozzle_2
 facet normal -0.945733 -0.030960 -0.323468
  outer loop
   vertex 600.000000 0.000000 -1500.000000
   vertex 598.715354 39.241878 -1500.000000
   vertex 1776.188883 116.417570 -4950.000000
  endloop
 endfacet
 facet normal -0.945733 -0.030960 -0.323468
  outer loop
   vertex 600.000000 0.000000 -1500.000000
   vertex 1776.188883 116.417570 -4950.000000
   vertex 1780.000000 0.000000 -4950.000000
  endloop
 endfacet
 facet normal -0.941683 -0.092748 -0.323468
  outer loop
   vertex 598.715354 39.241878 -1500.000000
   vertex 594.866917 78.315715 -1500.000000
   vertex 1764.771853 232.336622 -4950.000000
  endloop
 endfacet
 facet normal -0.941683 -0.092748 -0.323468
  outer loop
   vertex 598.715354 39.241878 -1500.000000
   vertex 1764.771853 232.336622 -4950.000000
   vertex 1776.188883 116.417570 -4950.000000
  endloop
 endfacet
 facet normal -0.933601 -0.154138 -0.323468
  outer loop
   vertex 594.866917 78.315715 -1500.000000
   vertex 588.471168 117.054193 -1500.000000
   vertex 1745.797799 347.260773 -4950.000000
  endloop
 endfacet
 facet normal -0.933601 -0.154138 -0.323468
  outer loop
   vertex 594.866917 78.315715 -1500.000000
   vertex 1745.797799 347.260773 -4950.000000
   vertex 1764.771853 232.336622 -4950.000000
  endloop
 endfacet
 facet normal -0.921521 -0.214868 -0.323468
  outer loop
   vertex 588.471168 117.054193 -1500.000000
   vertex 579.555496 155.291427 -1500.000000
   vertex 1719.347971 460.697900 -4950.000000
  endloop
 endfacet
 facet normal -0.921521 -0.214868 -0.323468
  outer loop
   vertex 588.471168 117.054193 -1500.000000
   vertex 1719.347971 460.697900 -4950.000000
   vertex 1745.797799 347.260773 -4950.000000
  endloop
 endfacet
 facet normal -0.905494 -0.274679 -0.323468
  outer loop
   vertex 579.555496 155.291427 -1500.000000
   vertex 568.158078 192.863679 -1500.000000
   vertex 1685.535631 572.162248 -4950.000000
  endloop
 endfacet
 facet normal -0.905494 -0.274679 -0.323468
  outer loop
   vertex 579.555496 155.291427 -1500.000000
   vertex 1685.535631 572.162248 -4950.000000
   vertex 1719.347971 460.697900 -4950.000000
  endloop
 endfacet
 facet normal -0.885591 -0.333313 -0.323468
  outer loop
   vertex 568.158078 192.863679 -1500.000000
   vertex 554.327720 229.610059 -1500.000000
   vertex 1644.505568 681.176510 -4950.000000
  endloop
 endfacet
 facet normal -0.885591 -0.333313 -0.323468
  outer loop
   vertex 568.158078 192.863679 -1500.000000
   vertex 1644.505568 681.176510 -4950.000000
   vertex 1685.535631 572.162248 -4950.000000
  endloop
 endfacet
 facet normal -0.861895 -0.390520 -0.323468
  outer loop
   vertex 554.327720 229.610059 -1500.000000
   vertex 538.123645 265.373214 -1500.000000
   vertex 1596.433480 787.273869 -4950.000000
  endloop
 endfacet
 facet normal -0.861895 -0.390520 -0.323468
  outer loop
   vertex 554.327720 229.610059 -1500.000000
   vertex 1596.433480 787.273869 -4950.000000
   vertex 1644.505568 681.176510 -4950.000000
  endloop
 endfacet
 facet normal -0.834508 -0.446054 -0.323468
  outer loop
   vertex 538.123645 265.373214 -1500.000000
   vertex 519.615242 300.000000 -1500.000000
   vertex 1541.525219 890.000000 -4950.000000
  endloop
 endfacet
 facet normal -0.834508 -0.446054 -0.323468
  outer loop
   vertex 538.123645 265.373214 -1500.000000
   vertex 1541.525219 890.000000 -4950.000000
   vertex 1596.433480 787.273869 -4950.000000
  endloop
 endfacet
 facet normal -0.803548 -0.499678 -0.323468
  outer loop
   vertex 519.615242 300.000000 -1500.000000
   vertex 498.881767 333.342140 -1500.000000
   vertex 1480.015910 988.915015 -4950.000000
  endloop
 endfacet
 facet normal -0.803548 -0.499678 -0.323468
  outer loop
   vertex 519.615242 300.000000 -1500.000000
   vertex 1480.015910 988.915015 -4950.000000
   vertex 1541.525219 890.000000 -4950.000000
  endloop
 endfacet
 facet normal -0.769147 -0.551163 -0.323468
  outer loop
   vertex 498.881767 333.342140 -1500.000000
   vertex 476.012004 365.256857 -1500.000000
   vertex 1412.168946 1083.595344 -4950.000000
  endloop
 endfacet
 facet normal -0.769147 -0.551163 -0.323468
  outer loop
   vertex 498.881767 333.342140 -1500.000000
   vertex 1412.168946 1083.595344 -4950.000000
   vertex 1480.015910 988.915015 -4950.000000
  endloop
 endfacet
 facet normal -0.731453 -0.600288 -0.323468
  outer loop
   vertex 476.012004 365.256857 -1500.000000
   vertex 451.103884 395.607489 -1500.000000
   vertex 1338.274857 1173.635551 -4950.000000
  endloop
 endfacet
 facet normal -0.731453 -0.600288 -0.323468
  outer loop
   vertex 476.012004 365.256857 -1500.000000
   vertex 1338.274857 1173.635551 -4950.000000
   vertex 1412.168946 1083.595344 -4950.000000
  endloop
 endfacet
 facet normal -0.690626 -0.646842 -0.323468
  outer loop
   vertex 451.103884 395.607489 -1500.000000
   vertex 424.264069 424.264069 -1500.000000
   vertex 1258.650071 1258.650071 -4950.000000
  endloop
 endfacet
 facet normal -0.690626 -0.646842 -0.323468
  outer loop
   vertex 451.103884 395.607489 -1500.000000
   vertex 1258.650071 1258.650071 -4950.000000
   vertex 1338.274857 1173.635551 -4950.000000
  endloop
 endfacet
 facet normal -0.646842 -0.690626 -0.323468
  outer loop
   vertex 424.264069 424.264069 -1500.000000
   vertex 395.607489 451.103884 -1500.000000
   vertex 1173.635551 1338.274857 -4950.000000
  endloop
 endfacet
 facet normal -0.646842 -0.690626 -0.323468
  outer loop
   vertex 424.264069 424.264069 -1500.000000
   vertex 1173.635551 1338.274857 -4950.000000
   vertex 1258.650071 1258.650071 -4950.000000
  endloop
 endfacet
 facet normal -0.600288 -0.731453 -0.323468
  outer loop
   vertex 395.607489 451.103884 -1500.000000
   vertex 365.256857 476.012004 -1500.000000
   vertex 1083.595344 1412.168946 -4950.000000
  endloop
 endfacet
 facet normal -0.600288 -0.731453 -0.323468
  outer loop
   vertex 395.607489 451.103884 -1500.000000
   vertex 1083.595344 1412.168946 -4950.000000
   vertex 1173.635551 1338.274857 -4950.000000
  endloop
 endfacet
 facet normal -0.551163 -0.769147 -0.323468
  outer loop
   vertex 365.256857 476.012004 -1500.000000
   vertex 333.342140 498.881767 -1500.000000
   vertex 988.915015 1480.015910 -4950.000000
  endloop
 endfacet
 facet normal -0.551163 -0.769147 -0.323468
  outer loop
   vertex 365.256857 476.012004 -1500.000000
   vertex 988.915015 1480.015910 -4950.000000
   vertex 1083.595344 1412.168946 -4950.000000
  endloop
 endfacet
 facet normal -0.499678 -0.803548 -0.323468
  outer loop
   vertex 333.342140 498.881767 -1500.000000
   vertex 300.000000 519.615242 -1500.000000
   vertex 890.000000 1541.525219 -4950.000000
  endloop
 endfacet
 facet normal -0.499678 -0.803548 -0.323468
  outer loop
   vertex 333.342140 498.881767 -1500.000000
   vertex 890.000000 1541.525219 -4950.000000
   vertex 988.915015 1480.015910 -4950.000000
  endloop
 endfacet
 facet normal -0.446054 -0.834508 -0.323468
  outer loop
   vertex 300.000000 519.615242 -1500.000000
   vertex 265.373214 538.123645 -1500.000000
   vertex 787.273869 1596.433480 -4950.000000
  endloop
 endfacet
 facet normal -0.446054 -0.834508 -0.323468
  outer loop
   vertex 300.000000 519.615242 -1500.000000
   vertex 787.273869 1596.433480 -4950.000000
   vertex 890.000000 1541.525219 -4950.000000
  endloop
 endfacet
 facet normal -0.390520 -0.861895 -0.323468
  outer loop
   vertex 265.373214 538.123645 -1500.000000
   vertex 229.610059 554.327720 -1500.000000
   vertex 681.176510 1644.505568 -4950.000000
  endloop
 endfacet
 facet normal -0.390520 -0.861895 -0.323468
  outer loop
   vertex 265.373214 538.123645 -1500.000000
   vertex 681.176510 1644.505568 -4950.000000
   vertex 787.273869 1596.433480 -4950.000000
  endloop
 endfacet
 facet normal -0.333313 -0.885591 -0.323468
  outer loop
   vertex 229.610059 554.327720 -1500.000000
   vertex 192.863679 568.158078 -1500.000000
   vertex 572.162248 1685.535631 -4950.000000
  endloop
 endfacet
 facet normal -0.333313 -0.885591 -0.323468
  outer loop
   vertex 229.610059 554.327720 -1500.000000
   vertex 572.162248 1685.535631 -4950.000000
   vertex 681.176510 1644.505568 -4950.000000
  endloop
 endfacet
 facet normal -0.274679 -0.905494 -0.323468
  outer loop
   vertex 192.863679 568.158078 -1500.000000
   vertex 155.291427 579.555496 -1500.000000
   vertex 460.697900 1719.347971 -4950.000000
  endloop
 endfacet
 facet normal -0.274679 -0.905494 -0.323468
  outer loop
   vertex 192.863679 568.158078 -1500.000000
   vertex 460.697900 1719.347971 -4950.000000
   vertex 572.162248 1685.535631 -4950.000000
  endloop
 endfacet
 facet normal -0.214868 -0.921521 -0.323468
  outer loop
   vertex 155.291427 579.555496 -1500.000000
   vertex 117.054193 588.471168 -1500.000000
   vertex 347.260773 1745.797799 -4950.000000
  endloop
 endfacet
 facet normal -0.214868 -0.921521 -0.323468
  outer loop
   vertex 155.291427 579.555496 -1500.000000
   vertex 347.260773 1745.797799 -4950.000000
   vertex 460.697900 1719.347971 -4950.000000
  endloop
 endfacet
 facet normal -0.154138 -0.933601 -0.323468
  outer loop
   vertex 117.054193 588.471168 -1500.000000
   vertex 78.315715 594.866917 -1500.000000
   vertex 232.336622 1764.771853 -4950.000000
  endloop
 endfacet
 facet normal -0.154138 -0.933601 -0.323468
  outer loop
   vertex 117.054193 588.471168 -1500.000000
   vertex 232.336622 1764.771853 -4950.000000
   vertex 347.260773 1745.797799 -4950.000000
  endloop
 endfacet
 facet normal -0.092748 -0.941683 -0.323468
  outer loop
   vertex 78.315715 594.866917 -1500.000000
   vertex 39.241878 598.715354 -1500.000000
   vertex 116.417570 1776.188883 -4950.000000
  endloop
 endfacet
 facet normal -0.092748 -0.941683 -0.323468
  outer loop
   vertex 78.315715 594.866917 -1500.000000
   vertex 116.417570 1776.188883 -4950.000000
   vertex 232.336622 1764.771853 -4950.000000
  endloop
 endfacet
 facet normal -0.030960 -0.945733 -0.323468
  outer loop
   vertex 39.241878 598.715354 -1500.000000
   vertex 0.000000 600.000000 -1500.000000
   vertex 0.000000 1780.000000 -4950.000000
  endloop
 endfacet
 facet normal -0.030960 -0.945733 -0.323468
  outer loop
   vertex 39.241878 598.715354 -1500.000000
   vertex 0.000000 1780.000000 -4950.000000
   vertex 116.417570 1776.188883 -4950.000000
  endloop
 endfacet
 facet normal 0.030960 -0.945733 -0.323468
  outer loop
   vertex 0.000000 600.000000 -1500.000000
   vertex -39.241878 598.715354 -1500.000000
   vertex -116.417570 1776.188883 -4950.000000
  endloop
 endfacet
 facet normal 0.030960 -0.945733 -0.323468
  outer loop
   vertex 0.000000 600.000000 -1500.000000
   vertex -116.417570 1776.188883 -4950.000000
   vertex 0.000000 1780.000000 -4950.000000
  endloop
 endfacet
 facet normal 0.092748 -0.941683 -0.323468
  outer loop
   vertex -39.241878 598.715354 -1500.000000
   vertex -78.315715 594.866917 -1500.000000
   vertex -232.336622 1764.771853 -4950.000000
  endloop
 endfacet
 facet normal 0.092748 -0.941683 -0.323468
  outer loop
   vertex -39.241878 598.715354 -1500.000000
   vertex -232.336622 1764.771853 -4950.000000
   vertex -116.417570 1776.188883 -4950.000000
  endloop
 endfacet
 facet normal 0.154138 -0.933601 -0.323468
  outer loop
   vertex -78.315715 594.866917 -1500.000000
   vertex -117.054193 588.471168 -1500.000000
   vertex -347.260773 1745.797799 -4950.000000
  endloop
 endfacet
 facet normal 0.154138 -0.933601 -0.323468
  outer loop
   vertex -78.315715 594.866917 -1500.000000
   vertex -347.260773 1745.797799 -4950.000000
   vertex -232.336622 1764.771853 -4950.000000
  endloop
 endfacet
 facet normal 0.214868 -0.921521 -0.323468
  outer loop
   vertex -117.054193 588.471168 -1500.000000
   vertex -155.291427 579.555496 -1500.000000
   vertex -460.697900 1719.347971 -4950.000000
  endloop
 endfacet
 facet normal 0.214868 -0.921521 -0.323468
  outer loop
   vertex -117.054193 588.471168 -1500.000000
   vertex -460.697900 1719.347971 -4950.000000
   vertex -347.260773 1745.797799 -4950.000000
  endloop
 endfacet
 facet normal 0.274679 -0.905494 -0.323468
  outer loop
   vertex -155.291427 579.555496 -1500.000000
   vertex -192.863679 568.158078 -1500.000000
   vertex -572.162248 1685.535631 -4950.000000
  endloop
 endfacet
 facet normal 0.274679 -0.905494 -0.323468
  outer loop
   vertex -155.291427 579.555496 -1500.000000
   vertex -572.162248 1685.535631 -4950.000000
   vertex -460.697900 1719.347971 -4950.000000
  endloop
 endfacet
 facet normal 0.333313 -0.885591 -0.323468
  outer loop
   vertex -192.863679 568.158078 -1500.000000
   vertex -229.610059 554.327720 -1500.000000
   vertex -681.176510 1644.505568 -4950.000000
  endloop
 endfacet
 facet normal 0.333313 -0.885591 -0.323468
  outer loop
   vertex -192.863679 568.158078 -1500.000000
   vertex -681.176510 1644.505568 -4950.000000
   vertex -572.162248 1685.535631 -4950.000000
  endloop
 endfacet
 facet normal 0.390520 -0.861895 -0.323468
  outer loop
   vertex -229.610059 554.327720 -1500.000000
   vertex -265.373214 538.123645 -1500.000000
   vertex -787.273869 1596.433480 -4950.000000
  endloop
 endfacet
 facet normal 0.390520 -0.861895 -0.323468
  outer loop
   vertex -229.610059 554.327720 -1500.000000
   vertex -787.273869 1596.433480 -4950.000000
   vertex -681.176510 1644.505568 -4950.000000
  endloop
 endfacet
 facet normal 0.446054 -0.834508 -0.323468
  outer loop
   vertex -265.373214 538.123645 -1500.000000
   vertex -300.000000 519.615242 -1500.000000
   vertex -890.000000 1541.525219 -4950.000000
  endloop
 endfacet
 facet normal 0.446054 -0.834508 -0.323468
  outer loop
   vertex -265.373214 538.123645 -1500.000000
   vertex -890.000000 1541.525219 -4950.000000
   vertex -787.273869 1596.433480 -4950.000000
  endloop
 endfacet
 facet normal 0.499678 -0.803548 -0.323468
  outer loop
   vertex -300.000000 519.615242 -1500.000000
   vertex -333.342140 498.881767 -1500.000000
   vertex -988.915015 1480.015910 -4950.000000
  endloop
 endfacet
 facet normal 0.499678 -0.803548 -0.323468
  outer loop
   vertex -300.000000 519.615242 -1500.000000
   vertex -988.915015 1480.015910 -4950.000000
   vertex -890.000000 1541.525219 -4950.000000
  endloop
 endfacet
 facet normal 0.551163 -0.769147 -0.323468
  outer loop
   vertex -333.342140 498.881767 -1500.000000
   vertex -365.256857 476.012004 -1500.000000
   vertex -1083.595344 1412.168946 -4950.000000
  endloop
 endfacet
 facet normal 0.551163 -0.769147 -0.323468
  outer loop
   vertex -333.342140 498.881767 -1500.000000
   vertex -1083.595344 1412.168946 -4950.000000
   vertex -988.915015 1480.015910 -4950.000000
  endloop
 endfacet
 facet normal 0.600288 -0.731453 -0.323468
  outer loop
   vertex -365.256857 476.012004 -1500.000000
   vertex -395.607489 451.103884 -1500.000000
   vertex -1173.635551 1338.274857 -4950.000000
  endloop
 endfacet
 facet normal 0.600288 -0.731453 -0.323468
  outer loop
   vertex -365.256857 476.012004 -1500.000000
   vertex -1173.635551 1338.274857 -4950.000000
   vertex -1083.595344 1412.168946 -4950.000000
  endloop
 endfacet
 facet normal 0.646842 -0.690626 -0.323468
  outer loop
   vertex -395.607489 451.103884 -1500.000000
   vertex -424.264069 424.264069 -1500.000000
   vertex -1258.650071 1258.650071 -4950.000000
  endloop
 endfacet
 facet normal 0.646842 -0.690626 -0.323468
  outer loop
   vertex -395.607489 451.103884 -1500.000000
   vertex -1258.650071 1258.650071 -4950.000000
   vertex -1173.635551 1338.274857 -4950.000000
  endloop
 endfacet
 facet normal 0.690626 -0.646842 -0.323468
  outer loop
   vertex -424.264069 424.264069 -1500.000000
   vertex -451.103884 395.607489 -1500.000000
   vertex -1338.274857 1173.635551 -4950.000000
  endloop
 endfacet
 facet normal 0.690626 -0.646842 -0.323468
  outer loop
   vertex -424.264069 424.264069 -1500.000000
   vertex -1338.274857 1173.635551 -4950.000000
   vertex -1258.650071 1258.650071 -4950.000000
  endloop
 endfacet
 facet normal 0.731453 -0.600288 -0.323468
  outer loop
   vertex -451.103884 395.607489 -1500.000000
   vertex -476.012004 365.256857 -1500.000000
   vertex -1412.168946 1083.595344 -4950.000000
  endloop
 endfacet
 facet normal 0.731453 -0.600288 -0.323468
  outer loop
   vertex -451.103884 395.607489 -1500.000000
   vertex -1412.168946 1083.595344 -4950.000000
   vertex -1338.274857 1173.635551 -4950.000000
  endloop
 endfacet
 facet normal 0.769147 -0.551163 -0.323468
  outer loop
   vertex -476.012004 365.256857 -1500.000000
   vertex -498.881767 333.342140 -1500.000000
   vertex -1480.015910 988.915015 -4950.000000
  endloop
 endfacet
 facet normal 0.769147 -0.551163 -0.323468
  outer loop
   vertex -476.012004 365.256857 -1500.000000
   vertex -1480.015910 988.915015 -4950.000000
   vertex -1412.168946 1083.595344 -4950.000000
  endloop
 endfacet
 facet normal 0.803548 -0.499678 -0.323468
  outer loop
   vertex -498.881767 333.342140 -1500.000000
   vertex -519.615242 300.000000 -1500.000000
   vertex -1541.525219 890.000000 -4950.000000
  endloop
 endfacet
 facet normal 0.803548 -0.499678 -0.323468
  outer loop
   vertex -498.881767 333.342140 -1500.000000
   vertex -1541.525219 890.000000 -4950.000000
   vertex -1480.015910 988.915015 -4950.000000
  endloop
 endfacet
 facet normal 0.834508 -0.446054 -0.323468
  outer loop
   vertex -519.615242 300.000000 -1500.000000
   vertex -538.123645 265.373214 -1500.000000
   vertex -1596.433480 787.273869 -4950.000000
  endloop
 endfacet
 facet normal 0.834508 -0.446054 -0.323468
  outer loop
   vertex -519.615242 300.000000 -1500.000000
   vertex -1596.433480 787.273869 -4950.000000
   vertex -1541.525219 890.000000 -4950.000000
  endloop
 endfacet
 facet normal 0.861895 -0.390520 -0.323468
  outer loop
   vertex -538.123645 265.373214 -1500.000000
   vertex -554.327720 229.610059 -1500.000000
   vertex -1644.505568 681.176510 -4950.000000
  endloop
 endfacet
 facet normal 0.861895 -0.390520 -0.323468
  outer loop
   vertex -538.123645 265.373214 -1500.000000
   vertex -1644.505568 681.176510 -4950.000000
   vertex -1596.433480 787.273869 -4950.000000
  endloop
 endfacet
 facet normal 0.885591 -0.333313 -0.323468
  outer loop
   vertex -554.327720 229.610059 -1500.000000
   vertex -568.158078 192.863679 -1500.000000
   vertex -1685.535631 572.162248 -4950.000000
  endloop
 endfacet
 facet normal 0.885591 -0.333313 -0.323468
  outer loop
   vertex -554.327720 229.610059 -1500.000000
   vertex -1685.535631 572.162248 -4950.000000
   vertex -1644.505568 681.176510 -4950.000000
  endloop
 endfacet
 facet normal 0.905494 -0.274679 -0.323468
  outer loop
   vertex -568.158078 192.863679 -1500.000000
   vertex -579.555496 155.291427 -1500.000000
   vertex -1719.347971 460.697900 -4950.000000
  endloop
 endfacet
 facet normal 0.905494 -0.274679 -0.323468
  outer loop
   vertex -568.158078 192.863679 -1500.000000
   vertex -1719.347971 460.697900 -4950.000000
   vertex -1685.535631 572.162248 -4950.000000
  endloop
 endfacet
 facet normal 0.921521 -0.214868 -0.323468
  outer loop
   vertex -579.555496 155.291427 -1500.000000
   vertex -588.471168 117.054193 -1500.000000
   vertex -1745.797799 347.260773 -4950.000000
  endloop
 endfacet
 facet normal 0.921521 -0.214868 -0.323468
  outer loop
   vertex -579.555496 155.291427 -1500.000000
   vertex -1745.797799 347.260773 -4950.000000
   vertex -1719.347971 460.697900 -4950.000000
  endloop
 endfacet
 facet normal 0.933601 -0.154138 -0.323468
  outer loop
   vertex -588.471168 117.054193 -1500.000000
   vertex -594.866917 78.315715 -1500.000000
   vertex -1764.771853 232.336622 -4950.000000
  endloop
 endfacet
 facet normal 0.933601 -0.154138 -0.323468
  outer loop
   vertex -588.471168 117.054193 -1500.000000
   vertex -1764.771853 232.336622 -4950.000000
   vertex -1745.797799 347.260773 -4950.000000
  endloop
 endfacet
 facet normal 0.941683 -0.092748 -0.323468
  outer loop
   vertex -594.866917 78.315715 -1500.000000
   vertex -598.715354 39.241878 -1500.000000
   vertex -1776.188883 116.417570 -4950.000000
  endloop
 endfacet
 facet normal 0.941683 -0.092748 -0.323468
  outer loop
   vertex -594.866917 78.315715 -1500.000000
   vertex -1776.188883 116.417570 -4950.000000
   vertex -1764.771853 232.336622 -4950.000000
  endloop
 endfacet
 facet normal 0.945733 -0.030960 -0.323468
  outer loop
   vertex -598.715354 39.241878 -1500.000000
   vertex -600.000000 0.000000 -1500.000000
   vertex -1780.000000 0.000000 -4950.000000
  endloop
 endfacet
 facet normal 0.945733 -0.030960 -0.323468
  outer loop
   vertex -598.715354 39.241878 -1500.000000
   vertex -1780.000000 0.000000 -4950.000000
   vertex -1776.188883 116.417570 -4950.000000
  endloop
 endfacet
 facet normal 0.945733 0.030960 -0.323468
  outer loop
   vertex -600.000000 0.000000 -1500.000000
   vertex -598.715354 -39.241878 -1500.000000
   vertex -1776.188883 -116.417570 -4950.000000
  endloop
 endfacet
 facet normal 0.945733 0.030960 -0.323468
  outer loop
   vertex -600.000000 0.000000 -1500.000000
   vertex -1776.188883 -116.417570 -4950.000000
   vertex -1780.000000 0.000000 -4950.000000
  endloop
 endfacet
 facet normal 0.941683 0.092748 -0.323468
  outer loop
   vertex -598.715354 -39.241878 -1500.000000
   vertex -594.866917 -78.315715 -1500.000000
   vertex -1764.771853 -232.336622 -4950.000000
  endloop
 endfacet
 facet normal 0.941683 0.092748 -0.323468
  outer loop
   vertex -598.715354 -39.241878 -1500.000000
   vertex -1764.771853 -232.336622 -4950.000000
   vertex -1776.188883 -116.417570 -4950.000000
  endloop
 endfacet
 facet normal 0.933601 0.154138 -0.323468
  outer loop
   vertex -594.866917 -78.315715 -1500.000000
   vertex -588.471168 -117.054193 -1500.000000
   vertex -1745.797799 -347.260773 -4950.000000
  endloop
 endfacet
 facet normal 0.933601 0.154138 -0.323468
  outer loop
   vertex -594.866917 -78.315715 -1500.000000
   vertex -1745.797799 -347.260773 -4950.000000
   vertex -1764.771853 -232.336622 -4950.000000
  endloop
 endfacet
 facet normal 0.921521 0.214868 -0.323468
  outer loop
   vertex -588.471168 -117.054193 -1500.000000
   vertex -579.555496 -155.291427 -1500.000000
   vertex -1719.347971 -460.697900 -4950.000000
  endloop
 endfacet
 facet normal 0.921521 0.214868 -0.323468
  outer loop
   vertex -588.471168 -117.054193 -1500.000000
   vertex -1719.347971 -460.697900 -4950.000000
   vertex -1745.797799 -347.260773 -4950.000000
  endloop
 endfacet
 facet normal 0.905494 0.274679 -0.323468
  outer loop
   vertex -579.555496 -155.291427 -1500.000000
   vertex -568.158078 -192.863679 -1500.000000
   vertex -1685.535631 -572.162248 -4950.000000
  endloop
 endfacet
 facet normal 0.905494 0.274679 -0.323468
  outer loop
   vertex -579.555496 -155.291427 -1500.000000
   vertex -1685.535631 -572.162248 -4950.000000
   vertex -1719.347971 -460.697900 -4950.000000
  endloop
 endfacet
 facet normal 0.885591 0.333313 -0.323468
  outer loop
   vertex -568.158078 -192.863679 -1500.000000
   vertex -554.327720 -229.610059 -1500.000000
   vertex -1644.505568 -681.176510 -4950.000000
  endloop
 endfacet
 facet normal 0.885591 0.333313 -0.323468
  outer loop
   vertex -568.158078 -192.863679 -1500.000000
   vertex -1644.505568 -681.176510 -4950.000000
   vertex -1685.535631 -572.162248 -4950.000000
  endloop
 endfacet
 facet normal 0.861895 0.390520 -0.323468
  outer loop
   vertex -554.327720 -229.610059 -1500.000000
   vertex -538.123645 -265.373214 -1500.000000
   vertex -1596.433480 -787.273869 -4950.000000
  endloop
 endfacet
 facet normal 0.861895 0.390520 -0.323468
  outer loop
   vertex -554.327720 -229.610059 -1500.000000
   vertex -1596.433480 -787.273869 -4950.000000
   vertex -1644.505568 -681.176510 -4950.000000
  endloop
 endfacet
 facet normal 0.834508 0.446054 -0.323468
  outer loop
   vertex -538.123645 -265.373214 -1500.000000
   vertex -519.615242 -300.000000 -1500.000000
   vertex -1541.525219 -890.000000 -4950.000000
  endloop
 endfacet
 facet normal 0.834508 0.446054 -0.323468
  outer loop
   vertex -538.123645 -265.373214 -1500.000000
   vertex -1541.525219 -890.000000 -4950.000000
   vertex -1596.433480 -787.273869 -4950.000000
  endloop
 endfacet
 facet normal 0.803548 0.499678 -0.323468
  outer loop
   vertex -519.615242 -300.000000 -1500.000000
   vertex -498.881767 -333.342140 -1500.000000
   vertex -1480.015910 -988.915015 -4950.000000
  endloop
 endfacet
 facet normal 0.803548 0.499678 -0.323468
  outer loop
   vertex -519.615242 -300.000000 -1500.000000
   vertex -1480.015910 -988.915015 -4950.000000
   vertex -1541.525219 -890.000000 -4950.000000
  endloop
 endfacet
 facet normal 0.769147 0.551163 -0.323468
  outer loop
   vertex -498.881767 -333.342140 -1500.000000
   vertex -476.012004 -365.256857 -1500.000000
   vertex -1412.168946 -1083.595344 -4950.000000
  endloop
 endfacet
 facet normal 0.769147 0.551163 -0.323468
  outer loop
   vertex -498.881767 -333.342140 -1500.000000
   vertex -1412.168946 -1083.595344 -4950.000000
   vertex -1480.015910 -988.915015 -4950.000000
  endloop
 endfacet
 facet normal 0.731453 0.600288 -0.323468
  outer loop
   vertex -476.012004 -365.256857 -1500.000000
   vertex -451.103884 -395.607489 -1500.000000
   vertex -1338.274857 -1173.635551 -4950.000000
  endloop
 endfacet
 facet normal 0.731453 0.600288 -0.323468
  outer loop
   vertex -476.012004 -365.256857 -1500.000000
   vertex -1338.274857 -1173.635551 -4950.000000
   vertex -1412.168946 -1083.595344 -4950.000000
  endloop
 endfacet
 facet normal 0.690626 0.646842 -0.323468
  outer loop
   vertex -451.103884 -395.607489 -1500.000000
   vertex -424.264069 -424.264069 -1500.000000
   vertex -1258.650071 -1258.650071 -4950.000000
  endloop
 endfacet
 facet normal 0.690626 0.646842 -0.323468
  outer loop
   vertex -451.103884 -395.607489 -1500.000000
   vertex -1258.650071 -1258.650071 -4950.000000
   vertex -1338.274857 -1173.635551 -4950.000000
  endloop
 endfacet
 facet normal 0.646842 0.690626 -0.323468
  outer loop
   vertex -424.264069 -424.264069 -1500.000000
   vertex -395.607489 -451.103884 -1500.000000
   vertex -1173.635551 -1338.274857 -4950.000000
  endloop
 endfacet
 facet normal 0.646842 0.690626 -0.323468
  outer loop
   vertex -424.264069 -424.264069 -1500.000000
   vertex -1173.635551 -1338.274857 -4950.000000
   vertex -1258.650071 -1258.650071 -4950.000000
  endloop
 endfacet
 facet normal 0.600288 0.731453 -0.323468
  outer loop
   vertex -395.607489 -451.103884 -1500.000000
   vertex -365.256857 -476.012004 -1500.000000
   vertex -1083.595344 -1412.168946 -4950.000000
  endloop
 endfacet
 facet normal 0.600288 0.731453 -0.323468
  outer loop
   vertex -395.607489 -451.103884 -1500.000000
   vertex -1083.595344 -1412.168946 -4950.000000
   vertex -1173.635551 -1338.274857 -4950.000000
  endloop
 endfacet
 facet normal 0.551163 0.769147 -0.323468
  outer loop
   vertex -365.256857 -476.012004 -1500.000000
   vertex -333.342140 -498.881767 -1500.000000
   vertex -988.915015 -1480.015910 -4950.000000
  endloop
 endfacet
 facet normal 0.551163 0.769147 -0.323468
  outer loop
   vertex -365.256857 -476.012004 -1500.000000
   vertex -988.915015 -1480.015910 -4950.000000
   vertex -1083.595344 -1412.168946 -4950.000000
  endloop
 endfacet
 facet normal 0.499678 0.803548 -0.323468
  outer loop
   vertex -333.342140 -498.881767 -1500.000000
   vertex -300.000000 -519.615242 -1500.000000
   vertex -890.000000 -1541.525219 -4950.000000
  endloop
 endfacet
 facet normal 0.499678 0.803548 -0.323468
  outer loop
   vertex -333.342140 -498.881767 -1500.000000
   vertex -890.000000 -1541.525219 -4950.000000
   vertex -988.915015 -1480.015910 -4950.000000
  endloop
 endfacet
 facet normal 0.446054 0.834508 -0.323468
  outer loop
   vertex -300.000000 -519.615242 -1500.000000
   vertex -265.373214 -538.123645 -1500.000000
   vertex -787.273869 -1596.433480 -4950.000000
  endloop
 endfacet
 facet normal 0.446054 0.834508 -0.323468
  outer loop
   vertex -300.000000 -519.615242 -1500.000000
   vertex -787.273869 -1596.433480 -4950.000000
   vertex -890.000000 -1541.525219 -4950.000000
  endloop
 endfacet
 facet normal 0.390520 0.861895 -0.323468
  outer loop
   vertex -265.373214 -538.123645 -1500.000000
   vertex -229.610059 -554.327720 -1500.000000
   vertex -681.176510 -1644.505568 -4950.000000
  endloop
 endfacet
 facet normal 0.390520 0.861895 -0.323468
  outer loop
   vertex -265.373214 -538.123645 -1500.000000
   vertex -681.176510 -1644.505568 -4950.000000
   vertex -787.273869 -1596.433480 -4950.000000
  endloop
 endfacet
 facet normal 0.333313 0.885591 -0.323468
  outer loop
   vertex -229.610059 -554.327720 -1500.000000
   vertex -192.863679 -568.158078 -1500.000000
   vertex -572.162248 -1685.535631 -4950.000000
  endloop
 endfacet
 facet normal 0.333313 0.885591 -0.323468
  outer loop
   vertex -229.610059 -554.327720 -1500.000000
   vertex -572.162248 -1685.535631 -4950.000000
   vertex -681.176510 -1644.505568 -4950.000000
  endloop
 endfacet
 facet normal 0.274679 0.905494 -0.323468
  outer loop
   vertex -192.863679 -568.158078 -1500.000000
   vertex -155.291427 -579.555496 -1500.000000
   vertex -460.697900 -1719.347971 -4950.000000
  endloop
 endfacet
 facet normal 0.274679 0.905494 -0.323468
  outer loop
   vertex -192.863679 -568.158078 -1500.000000
   vertex -460.697900 -1719.347971 -4950.000000
   vertex -572.162248 -1685.535631 -4950.000000
  endloop
 endfacet
 facet normal 0.214868 0.921521 -0.323468
  outer loop
   vertex -155.291427 -579.555496 -1500.000000
   vertex -117.054193 -588.471168 -1500.000000
   vertex -347.260773 -1745.797799 -4950.000000
  endloop
 endfacet
 facet normal 0.214868 0.921521 -0.323468
  outer loop
   vertex -155.291427 -579.555496 -1500.000000
   vertex -347.260773 -1745.797799 -4950.000000
   vertex -460.697900 -1719.347971 -4950.000000
  endloop
 endfacet
 facet normal 0.154138 0.933601 -0.323468
  outer loop
   vertex -117.054193 -588.471168 -1500.000000
   vertex -78.315715 -594.866917 -1500.000000
   vertex -232.336622 -1764.771853 -4950.000000
  endloop
 endfacet
 facet normal 0.154138 0.933601 -0.323468
  outer loop
   vertex -117.054193 -588.471168 -1500.000000
   vertex -232.336622 -1764.771853 -4950.000000
   vertex -347.260773 -1745.797799 -4950.000000
  endloop
 endfacet
 facet normal 0.092748 0.941683 -0.323468
  outer loop
   vertex -78.315715 -594.866917 -1500.000000
   vertex -39.241878 -598.715354 -1500.000000
   vertex -116.417570 -1776.188883 -4950.000000
  endloop
 endfacet
 facet normal 0.092748 0.941683 -0.323468
  outer loop
   vertex -78.315715 -594.866917 -1500.000000
   vertex -116.417570 -1776.188883 -4950.000000
   vertex -232.336622 -1764.771853 -4950.000000
  endloop
 endfacet
 facet normal 0.030960 0.945733 -0.323468
  outer loop
   vertex -39.241878 -598.715354 -1500.000000
   vertex -0.000000 -600.000000 -1500.000000
   vertex -0.000000 -1780.000000 -4950.000000
  endloop
 endfacet
 facet normal 0.030960 0.945733 -0.323468
  outer loop
   vertex -39.241878 -598.715354 -1500.000000
   vertex -0.000000 -1780.000000 -4950.000000
   vertex -116.417570 -1776.188883 -4950.000000
  endloop
 endfacet
 facet normal -0.030960 0.945733 -0.323468
  outer loop
   vertex -0.000000 -600.000000 -1500.000000
   vertex 39.241878 -598.715354 -1500.000000
   vertex 116.417570 -1776.188883 -4950.000000
  endloop
 endfacet
 facet normal -0.030960 0.945733 -0.323468
  outer loop
   vertex -0.000000 -600.000000 -1500.000000
   vertex 116.417570 -1776.188883 -4950.000000
   vertex -0.000000 -1780.000000 -4950.000000
  endloop
 endfacet
 facet normal -0.092748 0.941683 -0.323468
  outer loop
   vertex 39.241878 -598.715354 -1500.000000
   vertex 78.315715 -594.866917 -1500.000000
   vertex 232.336622 -1764.771853 -4950.000000
  endloop
 endfacet
 facet normal -0.092748 0.941683 -0.323468
  outer loop
   vertex 39.241878 -598.715354 -1500.000000
   vertex 232.336622 -1764.771853 -4950.000000
   vertex 116.417570 -1776.188883 -4950.000000
  endloop
 endfacet
 facet normal -0.154138 0.933601 -0.323468
  outer loop
   vertex 78.315715 -594.866917 -1500.000000
   vertex 117.054193 -588.471168 -1500.000000
   vertex 347.260773 -1745.797799 -4950.000000
  endloop
 endfacet
 facet normal -0.154138 0.933601 -0.323468
  outer loop
   vertex 78.315715 -594.866917 -1500.000000
   vertex 347.260773 -1745.797799 -4950.000000
   vertex 232.336622 -1764.771853 -4950.000000
  endloop
 endfacet
 facet normal -0.214868 0.921521 -0.323468
  outer loop
   vertex 117.054193 -588.471168 -1500.000000
   vertex 155.291427 -579.555496 -1500.000000
   vertex 460.697900 -1719.347971 -4950.000000
  endloop
 endfacet
 facet normal -0.214868 0.921521 -0.323468
  outer loop
   vertex 117.054193 -588.471168 -1500.000000
   vertex 460.697900 -1719.347971 -4950.000000
   vertex 347.260773 -1745.797799 -4950.000000
  endloop
 endfacet
 facet normal -0.274679 0.905494 -0.323468
  outer loop
   vertex 155.291427 -579.555496 -1500.000000
   vertex 192.863679 -568.158078 -1500.000000
   vertex 572.162248 -1685.535631 -4950.000000
  endloop
 endfacet
 facet normal -0.274679 0.905494 -0.323468
  outer loop
   vertex 155.291427 -579.555496 -1500.000000
   vertex 572.162248 -1685.535631 -4950.000000
   vertex 460.697900 -1719.347971 -4950.000000
  endloop
 endfacet
 facet normal -0.333313 0.885591 -0.323468
  outer loop
   vertex 192.863679 -568.158078 -1500.000000
   vertex 229.610059 -554.327720 -1500.000000
   vertex 681.176510 -1644.505568 -4950.000000
  endloop
 endfacet
 facet normal -0.333313 0.885591 -0.323468
  outer loop
   vertex 192.863679 -568.158078 -1500.000000
   vertex 681.176510 -1644.505568 -4950.000000
   vertex 572.162248 -1685.535631 -4950.000000
  endloop
 endfacet
 facet normal -0.390520 0.861895 -0.323468
  outer loop
   vertex 229.610059 -554.327720 -1500.000000
   vertex 265.373214 -538.123645 -1500.000000
   vertex 787.273869 -1596.433480 -4950.000000
  endloop
 endfacet
 facet normal -0.390520 0.861895 -0.323468
  outer loop
   vertex 229.610059 -554.327720 -1500.000000
   vertex 787.273869 -1596.433480 -4950.000000
   vertex 681.176510 -1644.505568 -4950.000000
  endloop
 endfacet
 facet normal -0.446054 0.834508 -0.323468
  outer loop
   vertex 265.373214 -538.123645 -1500.000000
   vertex 300.000000 -519.615242 -1500.000000
   vertex 890.000000 -1541.525219 -4950.000000
  endloop
 endfacet
 facet normal -0.446054 0.834508 -0.323468
  outer loop
   vertex 265.373214 -538.123645 -1500.000000
   vertex 890.000000 -1541.525219 -4950.000000
   vertex 787.273869 -1596.433480 -4950.000000
  endloop
 endfacet
 facet normal -0.499678 0.803548 -0.323468
  outer loop
   vertex 300.000000 -519.615242 -1500.000000
   vertex 333.342140 -498.881767 -1500.000000
   vertex 988.915015 -1480.015910 -4950.000000
  endloop
 endfacet
 facet normal -0.499678 0.803548 -0.323468
  outer loop
   vertex 300.000000 -519.615242 -1500.000000
   vertex 988.915015 -1480.015910 -4950.000000
   vertex 890.000000 -1541.525219 -4950.000000
  endloop
 endfacet
 facet normal -0.551163 0.769147 -0.323468
  outer loop
   vertex 333.342140 -498.881767 -1500.000000
   vertex 365.256857 -476.012004 -1500.000000
   vertex 1083.595344 -1412.168946 -4950.000000
  endloop
 endfacet
 facet normal -0.551163 0.769147 -0.323468
  outer loop
   vertex 333.342140 -498.881767 -1500.000000
   vertex 1083.595344 -1412.168946 -4950.000000
   vertex 988.915015 -1480.015910 -4950.000000
  endloop
 endfacet
 facet normal -0.600288 0.731453 -0.323468
  outer loop
   vertex 365.256857 -476.012004 -1500.000000
   vertex 395.607489 -451.103884 -1500.000000
   vertex 1173.635551 -1338.274857 -4950.000000
  endloop
 endfacet
 facet normal -0.600288 0.731453 -0.323468
  outer loop
   vertex 365.256857 -476.012004 -1500.000000
   vertex 1173.635551 -1338.274857 -4950.000000
   vertex 1083.595344 -1412.168946 -4950.000000
  endloop
 endfacet
 facet normal -0.646842 0.690626 -0.323468
  outer loop
   vertex 395.607489 -451.103884 -1500.000000
   vertex 424.264069 -424.264069 -1500.000000
   vertex 1258.650071 -1258.650071 -4950.000000
  endloop
 endfacet
 facet normal -0.646842 0.690626 -0.323468
  outer loop
   vertex 395.607489 -451.103884 -1500.000000
   vertex 1258.650071 -1258.650071 -4950.000000
   vertex 1173.635551 -1338.274857 -4950.000000
  endloop
 endfacet
 facet normal -0.690626 0.646842 -0.323468
  outer loop
   vertex 424.264069 -424.264069 -1500.000000
   vertex 451.103884 -395.607489 -1500.000000
   vertex 1338.274857 -1173.635551 -4950.000000
  endloop
 endfacet
 facet normal -0.690626 0.646842 -0.323468
  outer loop
   vertex 424.264069 -424.264069 -1500.000000
   vertex 1338.274857 -1173.635551 -4950.000000
   vertex 1258.650071 -1258.650071 -4950.000000
  endloop
 endfacet
 facet normal -0.731453 0.600288 -0.323468
  outer loop
   vertex 451.103884 -395.607489 -1500.000000
   vertex 476.012004 -365.256857 -1500.000000
   vertex 1412.168946 -1083.595344 -4950.000000
  endloop
 endfacet
 facet normal -0.731453 0.600288 -0.323468
  outer loop
   vertex 451.103884 -395.607489 -1500.000000
   vertex 1412.168946 -1083.595344 -4950.000000
   vertex 1338.274857 -1173.635551 -4950.000000
  endloop
 endfacet
 facet normal -0.769147 0.551163 -0.323468
  outer loop
   vertex 476.012004 -365.256857 -1500.000000
   vertex 498.881767 -333.342140 -1500.000000
   vertex 1480.015910 -988.915015 -4950.000000
  endloop
 endfacet
 facet normal -0.769147 0.551163 -0.323468
  outer loop
   vertex 476.012004 -365.256857 -1500.000000
   vertex 1480.015910 -988.915015 -4950.000000
   vertex 1412.168946 -1083.595344 -4950.000000
  endloop
 endfacet
 facet normal -0.803548 0.499678 -0.323468
  outer loop
   vertex 498.881767 -333.342140 -1500.000000
   vertex 519.615242 -300.000000 -1500.000000
   vertex 1541.525219 -890.000000 -4950.000000
  endloop
 endfacet
 facet normal -0.803548 0.499678 -0.323468
  outer loop
   vertex 498.881767 -333.342140 -1500.000000
   vertex 1541.525219 -890.000000 -4950.000000
   vertex 1480.015910 -988.915015 -4950.000000
  endloop
 endfacet
 facet normal -0.834508 0.446054 -0.323468
  outer loop
   vertex 519.615242 -300.000000 -1500.000000
   vertex 538.123645 -265.373214 -1500.000000
   vertex 1596.433480 -787.273869 -4950.000000
  endloop
 endfacet
 facet normal -0.834508 0.446054 -0.323468
  outer loop
   vertex 519.615242 -300.000000 -1500.000000
   vertex 1596.433480 -787.273869 -4950.000000
   vertex 1541.525219 -890.000000 -4950.000000
  endloop
 endfacet
 facet normal -0.861895 0.390520 -0.323468
  outer loop
   vertex 538.123645 -265.373214 -1500.000000
   vertex 554.327720 -229.610059 -1500.000000
   vertex 1644.505568 -681.176510 -4950.000000
  endloop
 endfacet
 facet normal -0.861895 0.390520 -0.323468
  outer loop
   vertex 538.123645 -265.373214 -1500.000000
   vertex 1644.505568 -681.176510 -4950.000000
   vertex 1596.433480 -787.273869 -4950.000000
  endloop
 endfacet
 facet normal -0.885591 0.333313 -0.323468
  outer loop
   vertex 554.327720 -229.610059 -1500.000000
   vertex 568.158078 -192.863679 -1500.000000
   vertex 1685.535631 -572.162248 -4950.000000
  endloop
 endfacet
 facet normal -0.885591 0.333313 -0.323468
  outer loop
   vertex 554.327720 -229.610059 -1500.000000
   vertex 1685.535631 -572.162248 -4950.000000
   vertex 1644.505568 -681.176510 -4950.000000
  endloop
 endfacet
 facet normal -0.905494 0.274679 -0.323468
  outer loop
   vertex 568.158078 -192.863679 -1500.000000
   vertex 579.555496 -155.291427 -1500.000000
   vertex 1719.347971 -460.697900 -4950.000000
  endloop
 endfacet
 facet normal -0.905494 0.274679 -0.323468
  outer loop
   vertex 568.158078 -192.863679 -1500.000000
   vertex 1719.347971 -460.697900 -4950.000000
   vertex 1685.535631 -572.162248 -4950.000000
  endloop
 endfacet
 facet normal -0.921521 0.214868 -0.323468
  outer loop
   vertex 579.555496 -155.291427 -1500.000000
   vertex 588.471168 -117.054193 -1500.000000
   vertex 1745.797799 -347.260773 -4950.000000
  endloop
 endfacet
 facet normal -0.921521 0.214868 -0.323468
  outer loop
   vertex 579.555496 -155.291427 -1500.000000
   vertex 1745.797799 -347.260773 -4950.000000
   vertex 1719.347971 -460.697900 -4950.000000
  endloop
 endfacet
 facet normal -0.933601 0.154138 -0.323468
  outer loop
   vertex 588.471168 -117.054193 -1500.000000
   vertex 594.866917 -78.315715 -1500.000000
   vertex 1764.771853 -232.336622 -4950.000000
  endloop
 endfacet
 facet normal -0.933601 0.154138 -0.323468
  outer loop
   vertex 588.471168 -117.054193 -1500.000000
   vertex 1764.771853 -232.336622 -4950.000000
   vertex 1745.797799 -347.260773 -4950.000000
  endloop
 endfacet
 facet normal -0.941683 0.092748 -0.323468
  outer loop
   vertex 594.866917 -78.315715 -1500.000000
   vertex 598.715354 -39.241878 -1500.000000
   vertex 1776.188883 -116.417570 -4950.000000
  endloop
 endfacet
 facet normal -0.941683 0.092748 -0.323468
  outer loop
   vertex 594.866917 -78.315715 -1500.000000
   vertex 1776.188883 -116.417570 -4950.000000
   vertex 1764.771853 -232.336622 -4950.000000
  endloop
 endfacet
 facet normal -0.945733 0.030960 -0.323468
  outer loop
   vertex 598.715354 -39.241878 -1500.000000
   vertex 600.000000 0.000000 -1500.000000
   vertex 1780.000000 0.000000 -4950.000000
  endloop
 endfacet
 facet normal -0.945733 0.030960 -0.323468
  outer loop
   vertex 598.715354 -39.241878 -1500.000000
   vertex 1780.000000 0.000000 -4950.000000
   vertex 1776.188883 -116.417570 -4950.000000
  endloop
 endfacet
endsolid SIC_nozzle_2
