solid SII_LH2_feed_1_drop
 facet normal 0.064612 0.997859 0.010142
  outer loop
   vertex 2852.000000 90.000000 -600.000000
   vertex 2863.605267 89.230038 -598.178414
   vertex 3111.605267 89.230038 -2178.178414
  endloop
 endfacet
 facet normal 0.064612 0.997859 0.010142
  outer loop
   vertex 2852.000000 90.000000 -600.000000
   vertex 3111.605267 89.230038 -2178.178414
   vertex 3100.000000 90.000000 -2180.000000
  endloop
 endfacet
 facet normal 0.192731 0.980785 0.030251
  outer loop
   vertex 2863.605267 89.230038 -598.178414
   vertex 2875.011965 86.933324 -596.387995
   vertex 3123.011965 86.933324 -2176.387995
  endloop
 endfacet
 facet normal 0.192731 0.980785 0.030251
  outer loop
   vertex 2863.605267 89.230038 -598.178414
   vertex 3123.011965 86.933324 -2176.387995
   vertex 3111.605267 89.230038 -2178.178414
  endloop
 endfacet
 facet normal 0.317551 0.946930 0.049844
  outer loop
   vertex 2875.011965 86.933324 -596.387995
   vertex 2886.024922 83.149158 -594.659379
   vertex 3134.024922 83.149158 -2174.659379
  endloop
 endfacet
 facet normal 0.317551 0.946930 0.049844
  outer loop
   vertex 2875.011965 86.933324 -596.387995
   vertex 3134.024922 83.149158 -2174.659379
   vertex 3123.011965 86.933324 -2176.387995
  endloop
 endfacet
 facet normal 0.436939 0.896873 0.068583
  outer loop
   vertex 2886.024922 83.149158 -594.659379
   vertex 2896.455703 77.942286 -593.022143
   vertex 3144.455703 77.942286 -2173.022143
  endloop
 endfacet
 facet normal 0.436939 0.896873 0.068583
  outer loop
   vertex 2886.024922 83.149158 -594.659379
   vertex 3144.455703 77.942286 -2173.022143
   vertex 3134.024922 83.149158 -2174.659379
  endloop
 endfacet
 facet normal 0.548850 0.831470 0.086149
  outer loop
   vertex 2896.455703 77.942286 -593.022143
   vertex 2906.125834 71.401801 -591.504299
   vertex 3154.125834 71.401801 -2171.504299
  endloop
 endfacet
 facet normal 0.548850 0.831470 0.086149
  outer loop
   vertex 2896.455703 77.942286 -593.022143
   vertex 3154.125834 71.401801 -2171.504299
   vertex 3144.455703 77.942286 -2173.022143
  endloop
 endfacet
 facet normal 0.651371 0.751840 0.102240
  outer loop
   vertex 2906.125834 71.401801 -591.504299
   vertex 2914.869858 63.639610 -590.131820
   vertex 3162.869858 63.639610 -2170.131820
  endloop
 endfacet
 facet normal 0.651371 0.751840 0.102240
  outer loop
   vertex 2906.125834 71.401801 -591.504299
   vertex 3162.869858 63.639610 -2170.131820
   vertex 3154.125834 71.401801 -2171.504299
  endloop
 endfacet
 facet normal 0.742746 0.659346 0.116583
  outer loop
   vertex 2914.869858 63.639610 -590.131820
   vertex 2922.538161 54.788529 -588.928187
   vertex 3170.538161 54.788529 -2168.928187
  endloop
 endfacet
 facet normal 0.742746 0.659346 0.116583
  outer loop
   vertex 2914.869858 63.639610 -590.131820
   vertex 3170.538161 54.788529 -2168.928187
   vertex 3162.869858 63.639610 -2170.131820
  endloop
 endfacet
 facet normal 0.821413 0.555570 0.128931
  outer loop
   vertex 2922.538161 54.788529 -588.928187
   vertex 2928.999536 45.000000 -587.913997
   vertex 3176.999536 45.000000 -2167.913997
  endloop
 endfacet
 facet normal 0.821413 0.555570 0.128931
  outer loop
   vertex 2922.538161 54.788529 -588.928187
   vertex 3176.999536 45.000000 -2167.913997
   vertex 3170.538161 54.788529 -2168.928187
  endloop
 endfacet
 facet normal 0.886025 0.442289 0.139072
  outer loop
   vertex 2928.999536 45.000000 -587.913997
   vertex 2934.143428 34.441509 -587.106601
   vertex 3182.143428 34.441509 -2167.106601
  endloop
 endfacet
 facet normal 0.886025 0.442289 0.139072
  outer loop
   vertex 2928.999536 45.000000 -587.913997
   vertex 3182.143428 34.441509 -2167.106601
   vertex 3176.999536 45.000000 -2167.913997
  endloop
 endfacet
 facet normal 0.935477 0.321439 0.146834
  outer loop
   vertex 2934.143428 34.441509 -587.106601
   vertex 2937.881823 23.293714 -586.519815
   vertex 3185.881823 23.293714 -2166.519815
  endloop
 endfacet
 facet normal 0.935477 0.321439 0.146834
  outer loop
   vertex 2934.143428 34.441509 -587.106601
   vertex 3185.881823 23.293714 -2166.519815
   vertex 3182.143428 34.441509 -2167.106601
  endloop
 endfacet
 facet normal 0.968922 0.195090 0.152084
  outer loop
   vertex 2937.881823 23.293714 -586.519815
   vertex 2940.150756 11.747357 -586.163679
   vertex 3188.150756 11.747357 -2166.163679
  endloop
 endfacet
 facet normal 0.968922 0.195090 0.152084
  outer loop
   vertex 2937.881823 23.293714 -586.519815
   vertex 3188.150756 11.747357 -2166.163679
   vertex 3185.881823 23.293714 -2166.519815
  endloop
 endfacet
 facet normal 0.985789 0.065403 0.154731
  outer loop
   vertex 2940.150756 11.747357 -586.163679
   vertex 2940.911406 0.000000 -586.044286
   vertex 3188.911406 0.000000 -2166.044286
  endloop
 endfacet
 facet normal 0.985789 0.065403 0.154731
  outer loop
   vertex 2940.150756 11.747357 -586.163679
   vertex 3188.911406 0.000000 -2166.044286
   vertex 3188.150756 11.747357 -2166.163679
  endloop
 endfacet
 facet normal 0.985789 -0.065403 0.154731
  outer loop
   vertex 2940.911406 0.000000 -586.044286
   vertex 2940.150756 -11.747357 -586.163679
   vertex 3188.150756 -11.747357 -2166.163679
  endloop
 endfacet
 facet normal 0.985789 -0.065403 0.154731
  outer loop
   vertex 2940.911406 0.000000 -586.044286
   vertex 3188.150756 -11.747357 -2166.163679
   vertex 3188.911406 0.000000 -2166.044286
  endloop
 endfacet
 facet normal 0.968922 -0.195090 0.152084
  outer loop
   vertex 2940.150756 -11.747357 -586.163679
   vertex 2937.881823 -23.293714 -586.519815
   vertex 3185.881823 -23.293714 -2166.519815
  endloop
 endfacet
 facet normal 0.968922 -0.195090 0.152084
  outer loop
   vertex 2940.150756 -11.747357 -586.163679
   vertex 3185.881823 -23.293714 -2166.519815
   vertex 3188.150756 -11.747357 -2166.163679
  endloop
 endfacet
 facet normal 0.935477 -0.321439 0.146834
  outer loop
   vertex 2937.881823 -23.293714 -586.519815
   vertex 2934.143428 -34.441509 -587.106601
   vertex 3182.143428 -34.441509 -2167.106601
  endloop
 endfacet
 facet normal 0.935477 -0.321439 0.146834
  outer loop
   vertex 2937.881823 -23.293714 -586.519815
   vertex 3182.143428 -34.441509 -2167.106601
   vertex 3185.881823 -23.293714 -2166.519815
  endloop
 endfacet
 facet normal 0.886025 -0.442289 0.139072
  outer loop
   vertex 2934.143428 -34.441509 -587.106601
   vertex 2928.999536 -45.000000 -587.913997
   vertex 3176.999536 -45.000000 -2167.913997
  endloop
 endfacet
 facet normal 0.886025 -0.442289 0.139072
  outer loop
   vertex 2934.143428 -34.441509 -587.106601
   vertex 3176.999536 -45.000000 -2167.913997
   vertex 3182.143428 -34.441509 -2167.106601
  endloop
 endfacet
 facet normal 0.821413 -0.555570 0.128931
  outer loop
   vertex 2928.999536 -45.000000 -587.913997
   vertex 2922.538161 -54.788529 -588.928187
   vertex 3170.538161 -54.788529 -2168.928187
  endloop
 endfacet
 facet normal 0.821413 -0.555570 0.128931
  outer loop
   vertex 2928.999536 -45.000000 -587.913997
   vertex 3170.538161 -54.788529 -2168.928187
   vertex 3176.999536 -45.000000 -2167.913997
  endloop
 endfacet
 facet normal 0.742746 -0.659346 0.116583
  outer loop
   vertex 2922.538161 -54.788529 -588.928187
   vertex 2914.869858 -63.639610 -590.131820
   vertex 3162.869858 -63.639610 -2170.131820
  endloop
 endfacet
 facet normal 0.742746 -0.659346 0.116583
  outer loop
   vertex 2922.538161 -54.788529 -588.928187
   vertex 3162.869858 -63.639610 -2170.131820
   vertex 3170.538161 -54.788529 -2168.928187
  endloop
 endfacet
 facet normal 0.651371 -0.751840 0.102240
  outer loop
   vertex 2914.869858 -63.639610 -590.131820
   vertex 2906.125834 -71.401801 -591.504299
   vertex 3154.125834 -71.401801 -2171.504299
  endloop
 endfacet
 facet normal 0.651371 -0.751840 0.102240
  outer loop
   vertex 2914.869858 -63.639610 -590.131820
   vertex 3154.125834 -71.401801 -2171.504299
   vertex 3162.869858 -63.639610 -2170.131820
  endloop
 endfacet
 facet normal 0.548850 -0.831470 0.086149
  outer loop
   vertex 2906.125834 -71.401801 -591.504299
   vertex 2896.455703 -77.942286 -593.022143
   vertex 3144.455703 -77.942286 -2173.022143
  endloop
 endfacet
 facet normal 0.548850 -0.831470 0.086149
  outer loop
   vertex 2906.125834 -71.401801 -591.504299
   vertex 3144.455703 -77.942286 -2173.022143
   vertex 3154.125834 -71.401801 -2171.504299
  endloop
 endfacet
 facet normal 0.436939 -0.896873 0.068583
  outer loop
   vertex 2896.455703 -77.942286 -593.022143
   vertex 2886.024922 -83.149158 -594.659379
   vertex 3134.024922 -83.149158 -2174.659379
  endloop
 endfacet
 facet normal 0.436939 -0.896873 0.068583
  outer loop
   vertex 2896.455703 -77.942286 -593.022143
   vertex 3134.024922 -83.149158 -2174.659379
   vertex 3144.455703 -77.942286 -2173.022143
  endloop
 endfacet
 facet normal 0.317551 -0.946930 0.049844
  outer loop
   vertex 2886.024922 -83.149158 -594.659379
   vertex 2875.011965 -86.933324 -596.387995
   vertex 3123.011965 -86.933324 -2176.387995
  endloop
 endfacet
 facet normal 0.317551 -0.946930 0.049844
  outer loop
   vertex 2886.024922 -83.149158 -594.659379
   vertex 3123.011965 -86.933324 -2176.387995
   vertex 3134.024922 -83.149158 -2174.659379
  endloop
 endfacet
 facet normal 0.192731 -0.980785 0.030251
  outer loop
   vertex 2875.011965 -86.933324 -596.387995
   vertex 2863.605267 -89.230038 -598.178414
   vertex 3111.605267 -89.230038 -2178.178414
  endloop
 endfacet
 facet normal 0.192731 -0.980785 0.030251
  outer loop
   vertex 2875.011965 -86.933324 -596.387995
   vertex 3111.605267 -89.230038 -2178.178414
   vertex 3123.011965 -86.933324 -2176.387995
  endloop
 endfacet
 facet normal 0.064612 -0.997859 0.010142
  outer loop
   vertex 2863.605267 -89.230038 -598.178414
   vertex 2852.000000 -90.000000 -600.000000
   vertex 3100.000000 -90.000000 -2180.000000
  endloop
 endfacet
 facet normal 0.064612 -0.997859 0.010142
  outer loop
   vertex 2863.605267 -89.230038 -598.178414
   vertex 3100.000000 -90.000000 -2180.000000
   vertex 3111.605267 -89.230038 -2178.178414
  endloop
 endfacet
 facet normal -0.064612 -0.997859 -0.010142
  outer loop
   vertex 2852.000000 -90.000000 -600.000000
   vertex 2840.394733 -89.230038 -601.821586
   vertex 3088.394733 -89.230038 -2181.821586
  endloop
 endfacet
 facet normal -0.064612 -0.997859 -0.010142
  outer loop
   vertex 2852.000000 -90.000000 -600.000000
   vertex 3088.394733 -89.230038 -2181.821586
   vertex 3100.000000 -90.000000 -2180.000000
  endloop
 endfacet
 facet normal -0.192731 -0.980785 -0.030251
  outer loop
   vertex 2840.394733 -89.230038 -601.821586
   vertex 2828.988035 -86.933324 -603.612005
   vertex 3076.988035 -86.933324 -2183.612005
  endloop
 endfacet
 facet normal -0.192731 -0.980785 -0.030251
  outer loop
   vertex 2840.394733 -89.230038 -601.821586
   vertex 3076.988035 -86.933324 -2183.612005
   vertex 3088.394733 -89.230038 -2181.821586
  endloop
 endfacet
 facet normal -0.317551 -0.946930 -0.049844
  outer loop
   vertex 2828.988035 -86.933324 -603.612005
   vertex 2817.975078 -83.149158 -605.340621
   vertex 3065.975078 -83.149158 -2185.340621
  endloop
 endfacet
 facet normal -0.317551 -0.946930 -0.049844
  outer loop
   vertex 2828.988035 -86.933324 -603.612005
   vertex 3065.975078 -83.149158 -2185.340621
   vertex 3076.988035 -86.933324 -2183.612005
  endloop
 endfacet
 facet normal -0.436939 -0.896873 -0.068583
  outer loop
   vertex 2817.975078 -83.149158 -605.340621
   vertex 2807.544297 -77.942286 -606.977857
   vertex 3055.544297 -77.942286 -2186.977857
  endloop
 endfacet
 facet normal -0.436939 -0.896873 -0.068583
  outer loop
   vertex 2817.975078 -83.149158 -605.340621
   vertex 3055.544297 -77.942286 -2186.977857
   vertex 3065.975078 -83.149158 -2185.340621
  endloop
 endfacet
 facet normal -0.548850 -0.831470 -0.086149
  outer loop
   vertex 2807.544297 -77.942286 -606.977857
   vertex 2797.874166 -71.401801 -608.495701
   vertex 3045.874166 -71.401801 -2188.495701
  endloop
 endfacet
 facet normal -0.548850 -0.831470 -0.086149
  outer loop
   vertex 2807.544297 -77.942286 -606.977857
   vertex 3045.874166 -71.401801 -2188.495701
   vertex 3055.544297 -77.942286 -2186.977857
  endloop
 endfacet
 facet normal -0.651371 -0.751840 -0.102240
  outer loop
   vertex 2797.874166 -71.401801 -608.495701
   vertex 2789.130142 -63.639610 -609.868180
   vertex 3037.130142 -63.639610 -2189.868180
  endloop
 endfacet
 facet normal -0.651371 -0.751840 -0.102240
  outer loop
   vertex 2797.874166 -71.401801 -608.495701
   vertex 3037.130142 -63.639610 -2189.868180
   vertex 3045.874166 -71.401801 -2188.495701
  endloop
 endfacet
 facet normal -0.742746 -0.659346 -0.116583
  outer loop
   vertex 2789.130142 -63.639610 -609.868180
   vertex 2781.461839 -54.788529 -611.071813
   vertex 3029.461839 -54.788529 -2191.071813
  endloop
 endfacet
 facet normal -0.742746 -0.659346 -0.116583
  outer loop
   vertex 2789.130142 -63.639610 -609.868180
   vertex 3029.461839 -54.788529 -2191.071813
   vertex 3037.130142 -63.639610 -2189.868180
  endloop
 endfacet
 facet normal -0.821413 -0.555570 -0.128931
  outer loop
   vertex 2781.461839 -54.788529 -611.071813
   vertex 2775.000464 -45.000000 -612.086003
   vertex 3023.000464 -45.000000 -2192.086003
  endloop
 endfacet
 facet normal -0.821413 -0.555570 -0.128931
  outer loop
   vertex 2781.461839 -54.788529 -611.071813
   vertex 3023.000464 -45.000000 -2192.086003
   vertex 3029.461839 -54.788529 -2191.071813
  endloop
 endfacet
 facet normal -0.886025 -0.442289 -0.139072
  outer loop
   vertex 2775.000464 -45.000000 -612.086003
   vertex 2769.856572 -34.441509 -612.893399
   vertex 3017.856572 -34.441509 -2192.893399
  endloop
 endfacet
 facet normal -0.886025 -0.442289 -0.139072
  outer loop
   vertex 2775.000464 -45.000000 -612.086003
   vertex 3017.856572 -34.441509 -2192.893399
   vertex 3023.000464 -45.000000 -2192.086003
  endloop
 endfacet
 facet normal -0.935477 -0.321439 -0.146834
  outer loop
   vertex 2769.856572 -34.441509 -612.893399
   vertex 2766.118177 -23.293714 -613.480185
   vertex 3014.118177 -23.293714 -2193.480185
  endloop
 endfacet
 facet normal -0.935477 -0.321439 -0.146834
  outer loop
   vertex 2769.856572 -34.441509 -612.893399
   vertex 3014.118177 -23.293714 -2193.480185
   vertex 3017.856572 -34.441509 -2192.893399
  endloop
 endfacet
 facet normal -0.968922 -0.195090 -0.152084
  outer loop
   vertex 2766.118177 -23.293714 -613.480185
   vertex 2763.849244 -11.747357 -613.836321
   vertex 3011.849244 -11.747357 -2193.836321
  endloop
 endfacet
 facet normal -0.968922 -0.195090 -0.152084
  outer loop
   vertex 2766.118177 -23.293714 -613.480185
   vertex 3011.849244 -11.747357 -2193.836321
   vertex 3014.118177 -23.293714 -2193.480185
  endloop
 endfacet
 facet normal -0.985789 -0.065403 -0.154731
  outer loop
   vertex 2763.849244 -11.747357 -613.836321
   vertex 2763.088594 -0.000000 -613.955714
   vertex 3011.088594 -0.000000 -2193.955714
  endloop
 endfacet
 facet normal -0.985789 -0.065403 -0.154731
  outer loop
   vertex 2763.849244 -11.747357 -613.836321
   vertex 3011.088594 -0.000000 -2193.955714
   vertex 3011.849244 -11.747357 -2193.836321
  endloop
 endfacet
 facet normal -0.985789 0.065403 -0.154731
  outer loop
   vertex 2763.088594 -0.000000 -613.955714
   vertex 2763.849244 11.747357 -613.836321
   vertex 3011.849244 11.747357 -2193.836321
  endloop
 endfacet
 facet normal -0.985789 0.065403 -0.154731
  outer loop
   vertex 2763.088594 -0.000000 -613.955714
   vertex 3011.849244 11.747357 -2193.836321
   vertex 3011.088594 -0.000000 -2193.955714
  endloop
 endfacet
 facet normal -0.968922 0.195090 -0.152084
  outer loop
   vertex 2763.849244 11.747357 -613.836321
   vertex 2766.118177 23.293714 -613.480185
   vertex 3014.118177 23.293714 -2193.480185
  endloop
 endfacet
 facet normal -0.968922 0.195090 -0.152084
  outer loop
   vertex 2763.849244 11.747357 -613.836321
   vertex 3014.118177 23.293714 -2193.480185
   vertex 3011.849244 11.747357 -2193.836321
  endloop
 endfacet
 facet normal -0.935477 0.321439 -0.146834
  outer loop
   vertex 2766.118177 23.293714 -613.480185
   vertex 2769.856572 34.441509 -612.893399
   vertex 3017.856572 34.441509 -2192.893399
  endloop
 endfacet
 facet normal -0.935477 0.321439 -0.146834
  outer loop
   vertex 2766.118177 23.293714 -613.480185
   vertex 3017.856572 34.441509 -2192.893399
   vertex 3014.118177 23.293714 -2193.480185
  endloop
 endfacet
 facet normal -0.886025 0.442289 -0.139072
  outer loop
   vertex 2769.856572 34.441509 -612.893399
   vertex 2775.000464 45.000000 -612.086003
   vertex 3023.000464 45.000000 -2192.086003
  endloop
 endfacet
 facet normal -0.886025 0.442289 -0.139072
  outer loop
   vertex 2769.856572 34.441509 -612.893399
   vertex 3023.000464 45.000000 -2192.086003
   vertex 3017.856572 34.441509 -2192.893399
  endloop
 endfacet
 facet normal -0.821413 0.555570 -0.128931
  outer loop
   vertex 2775.000464 45.000000 -612.086003
   vertex 2781.461839 54.788529 -611.071813
   vertex 3029.461839 54.788529 -2191.071813
  endloop
 endfacet
 facet normal -0.821413 0.555570 -0.128931
  outer loop
   vertex 2775.000464 45.000000 -612.086003
   vertex 3029.461839 54.788529 -2191.071813
   vertex 3023.000464 45.000000 -2192.086003
  endloop
 endfacet
 facet normal -0.742746 0.659346 -0.116583
  outer loop
   vertex 2781.461839 54.788529 -611.071813
   vertex 2789.130142 63.639610 -609.868180
   vertex 3037.130142 63.639610 -2189.868180
  endloop
 endfacet
 facet normal -0.742746 0.659346 -0.116583
  outer loop
   vertex 2781.461839 54.788529 -611.071813
   vertex 3037.130142 63.639610 -2189.868180
   vertex 3029.461839 54.788529 -2191.071813
  endloop
 endfacet
 facet normal -0.651371 0.751840 -0.102240
  outer loop
   vertex 2789.130142 63.639610 -609.868180
   vertex 2797.874166 71.401801 -608.495701
   vertex 3045.874166 71.401801 -2188.495701
  endloop
 endfacet
 facet normal -0.651371 0.751840 -0.102240
  outer loop
   vertex 2789.130142 63.639610 -609.868180
   vertex 3045.874166 71.401801 -2188.495701
   vertex 3037.130142 63.639610 -2189.868180
  endloop
 endfacet
 facet normal -0.548850 0.831470 -0.086149
  outer loop
   vertex 2797.874166 71.401801 -608.495701
   vertex 2807.544297 77.942286 -606.977857
   vertex 3055.544297 77.942286 -2186.977857
  endloop
 endfacet
 facet normal -0.548850 0.831470 -0.086149
  outer loop
   vertex 2797.874166 71.401801 -608.495701
   vertex 3055.544297 77.942286 -2186.977857
   vertex 3045.874166 71.401801 -2188.495701
  endloop
 endfacet
 facet normal -0.436939 0.896873 -0.068583
  outer loop
   vertex 2807.544297 77.942286 -606.977857
   vertex 2817.975078 83.149158 -605.340621
   vertex 3065.975078 83.149158 -2185.340621
  endloop
 endfacet
 facet normal -0.436939 0.896873 -0.068583
  outer loop
   vertex 2807.544297 77.942286 -606.977857
   vertex 3065.975078 83.149158 -2185.340621
   vertex 3055.544297 77.942286 -2186.977857
  endloop
 endfacet
 facet normal -0.317551 0.946930 -0.049844
  outer loop
   vertex 2817.975078 83.149158 -605.340621
   vertex 2828.988035 86.933324 -603.612005
   vertex 3076.988035 86.933324 -2183.612005
  endloop
 endfacet
 facet normal -0.317551 0.946930 -0.049844
  outer loop
   vertex 2817.975078 83.149158 -605.340621
   vertex 3076.988035 86.933324 -2183.612005
   vertex 3065.975078 83.149158 -2185.340621
  endloop
 endfacet
 facet normal -0.192731 0.980785 -0.030251
  outer loop
   vertex 2828.988035 86.933324 -603.612005
   vertex 2840.394733 89.230038 -601.821586
   vertex 3088.394733 89.230038 -2181.821586
  endloop
 endfacet
 facet normal -0.192731 0.980785 -0.030251
  outer loop
   vertex 2828.988035 86.933324 -603.612005
   vertex 3088.394733 89.230038 -2181.821586
   vertex 3076.988035 86.933324 -2183.612005
  endloop
 endfacet
 facet normal -0.064612 0.997859 -0.010142
  outer loop
   vertex 2840.394733 89.230038 -601.821586
   vertex 2852.000000 90.000000 -600.000000
   vertex 3100.000000 90.000000 -2180.000000
  endloop
 endfacet
 facet normal -0.064612 0.997859 -0.010142
  outer loop
   vertex 2840.394733 89.230038 -601.821586
   vertex 3100.000000 90.000000 -2180.000000
   vertex 3088.394733 89.230038 -2181.821586
  endloop
 endfacet
 facet normal -0.064612 -0.997859 -0.010142
  outer loop
   vertex 3110.315793 79.315589 -2178.380812
   vertex 2862.315793 79.315589 -598.380812
   vertex 2852.000000 80.000000 -600.000000
  endloop
 endfacet
 facet normal -0.064612 -0.997859 -0.010142
  outer loop
   vertex 3100.000000 80.000000 -2180.000000
   vertex 3110.315793 79.315589 -2178.380812
   vertex 2852.000000 80.000000 -600.000000
  endloop
 endfacet
 facet normal -0.192731 -0.980785 -0.030251
  outer loop
   vertex 3120.455080 77.274066 -2176.789329
   vertex 2872.455080 77.274066 -596.789329
   vertex 2862.315793 79.315589 -598.380812
  endloop
 endfacet
 facet normal -0.192731 -0.980785 -0.030251
  outer loop
   vertex 3110.315793 79.315589 -2178.380812
   vertex 3120.455080 77.274066 -2176.789329
   vertex 2862.315793 79.315589 -598.380812
  endloop
 endfacet
 facet normal -0.317551 -0.946930 -0.049844
  outer loop
   vertex 3130.244375 73.910363 -2175.252782
   vertex 2882.244375 73.910363 -595.252782
   vertex 2872.455080 77.274066 -596.789329
  endloop
 endfacet
 facet normal -0.317551 -0.946930 -0.049844
  outer loop
   vertex 3120.455080 77.274066 -2176.789329
   vertex 3130.244375 73.910363 -2175.252782
   vertex 2872.455080 77.274066 -596.789329
  endloop
 endfacet
 facet normal -0.436939 -0.896873 -0.068583
  outer loop
   vertex 3139.516180 69.282032 -2173.797460
   vertex 2891.516180 69.282032 -593.797460
   vertex 2882.244375 73.910363 -595.252782
  endloop
 endfacet
 facet normal -0.436939 -0.896873 -0.068583
  outer loop
   vertex 3130.244375 73.910363 -2175.252782
   vertex 3139.516180 69.282032 -2173.797460
   vertex 2882.244375 73.910363 -595.252782
  endloop
 endfacet
 facet normal -0.548850 -0.831470 -0.086149
  outer loop
   vertex 3148.111853 63.468267 -2172.448266
   vertex 2900.111853 63.468267 -592.448266
   vertex 2891.516180 69.282032 -593.797460
  endloop
 endfacet
 facet normal -0.548850 -0.831470 -0.086149
  outer loop
   vertex 3139.516180 69.282032 -2173.797460
   vertex 3148.111853 63.468267 -2172.448266
   vertex 2891.516180 69.282032 -593.797460
  endloop
 endfacet
 facet normal -0.651371 -0.751840 -0.102240
  outer loop
   vertex 3155.884318 56.568542 -2171.228284
   vertex 2907.884318 56.568542 -591.228284
   vertex 2900.111853 63.468267 -592.448266
  endloop
 endfacet
 facet normal -0.651371 -0.751840 -0.102240
  outer loop
   vertex 3148.111853 63.468267 -2172.448266
   vertex 3155.884318 56.568542 -2171.228284
   vertex 2900.111853 63.468267 -592.448266
  endloop
 endfacet
 facet normal -0.742746 -0.659346 -0.116583
  outer loop
   vertex 3162.700587 48.700914 -2170.158389
   vertex 2914.700587 48.700914 -590.158389
   vertex 2907.884318 56.568542 -591.228284
  endloop
 endfacet
 facet normal -0.742746 -0.659346 -0.116583
  outer loop
   vertex 3155.884318 56.568542 -2171.228284
   vertex 3162.700587 48.700914 -2170.158389
   vertex 2907.884318 56.568542 -591.228284
  endloop
 endfacet
 facet normal -0.821413 -0.555570 -0.128931
  outer loop
   vertex 3168.444032 40.000000 -2169.256886
   vertex 2920.444032 40.000000 -589.256886
   vertex 2914.700587 48.700914 -590.158389
  endloop
 endfacet
 facet normal -0.821413 -0.555570 -0.128931
  outer loop
   vertex 3162.700587 48.700914 -2170.158389
   vertex 3168.444032 40.000000 -2169.256886
   vertex 2914.700587 48.700914 -590.158389
  endloop
 endfacet
 facet normal -0.886025 -0.442289 -0.139072
  outer loop
   vertex 3173.016380 30.614675 -2168.539201
   vertex 2925.016380 30.614675 -588.539201
   vertex 2920.444032 40.000000 -589.256886
  endloop
 endfacet
 facet normal -0.886025 -0.442289 -0.139072
  outer loop
   vertex 3168.444032 40.000000 -2169.256886
   vertex 3173.016380 30.614675 -2168.539201
   vertex 2920.444032 40.000000 -589.256886
  endloop
 endfacet
 facet normal -0.935477 -0.321439 -0.146834
  outer loop
   vertex 3176.339398 20.705524 -2168.017613
   vertex 2928.339398 20.705524 -588.017613
   vertex 2925.016380 30.614675 -588.539201
  endloop
 endfacet
 facet normal -0.935477 -0.321439 -0.146834
  outer loop
   vertex 3173.016380 30.614675 -2168.539201
   vertex 3176.339398 20.705524 -2168.017613
   vertex 2925.016380 30.614675 -588.539201
  endloop
 endfacet
 facet normal -0.968922 -0.195090 -0.152084
  outer loop
   vertex 3178.356228 10.442095 -2167.701048
   vertex 2930.356228 10.442095 -587.701048
   vertex 2928.339398 20.705524 -588.017613
  endloop
 endfacet
 facet normal -0.968922 -0.195090 -0.152084
  outer loop
   vertex 3176.339398 20.705524 -2168.017613
   vertex 3178.356228 10.442095 -2167.701048
   vertex 2928.339398 20.705524 -588.017613
  endloop
 endfacet
 facet normal -0.985789 -0.065403 -0.154731
  outer loop
   vertex 3179.032360 0.000000 -2167.594921
   vertex 2931.032360 0.000000 -587.594921
   vertex 2930.356228 10.442095 -587.701048
  endloop
 endfacet
 facet normal -0.985789 -0.065403 -0.154731
  outer loop
   vertex 3178.356228 10.442095 -2167.701048
   vertex 3179.032360 0.000000 -2167.594921
   vertex 2930.356228 10.442095 -587.701048
  endloop
 endfacet
 facet normal -0.985789 0.065403 -0.154731
  outer loop
   vertex 3178.356228 -10.442095 -2167.701048
   vertex 2930.356228 -10.442095 -587.701048
   vertex 2931.032360 0.000000 -587.594921
  endloop
 endfacet
 facet normal -0.985789 0.065403 -0.154731
  outer loop
   vertex 3179.032360 0.000000 -2167.594921
   vertex 3178.356228 -10.442095 -2167.701048
   vertex 2931.032360 0.000000 -587.594921
  endloop
 endfacet
 facet normal -0.968922 0.195090 -0.152084
  outer loop
   vertex 3176.339398 -20.705524 -2168.017613
   vertex 2928.339398 -20.705524 -588.017613
   vertex 2930.356228 -10.442095 -587.701048
  endloop
 endfacet
 facet normal -0.968922 0.195090 -0.152084
  outer loop
   vertex 3178.356228 -10.442095 -2167.701048
   vertex 3176.339398 -20.705524 -2168.017613
   vertex 2930.356228 -10.442095 -587.701048
  endloop
 endfacet
 facet normal -0.935477 0.321439 -0.146834
  outer loop
   vertex 3173.016380 -30.614675 -2168.539201
   vertex 2925.016380 -30.614675 -588.539201
   vertex 2928.339398 -20.705524 -588.017613
  endloop
 endfacet
 facet normal -0.935477 0.321439 -0.146834
  outer loop
   vertex 3176.339398 -20.705524 -2168.017613
   vertex 3173.016380 -30.614675 -2168.539201
   vertex 2928.339398 -20.705524 -588.017613
  endloop
 endfacet
 facet normal -0.886025 0.442289 -0.139072
  outer loop
   vertex 3168.444032 -40.000000 -2169.256886
   vertex 2920.444032 -40.000000 -589.256886
   vertex 2925.016380 -30.614675 -588.539201
  endloop
 endfacet
 facet normal -0.886025 0.442289 -0.139072
  outer loop
   vertex 3173.016380 -30.614675 -2168.539201
   vertex 3168.444032 -40.000000 -2169.256886
   vertex 2925.016380 -30.614675 -588.539201
  endloop
 endfacet
 facet normal -0.821413 0.555570 -0.128931
  outer loop
   vertex 3162.700587 -48.700914 -2170.158389
   vertex 2914.700587 -48.700914 -590.158389
   vertex 2920.444032 -40.000000 -589.256886
  endloop
 endfacet
 facet normal -0.821413 0.555570 -0.128931
  outer loop
   vertex 3168.444032 -40.000000 -2169.256886
   vertex 3162.700587 -48.700914 -2170.158389
   vertex 2920.444032 -40.000000 -589.256886
  endloop
 endfacet
 facet normal -0.742746 0.659346 -0.116583
  outer loop
   vertex 3155.884318 -56.568542 -2171.228284
   vertex 2907.884318 -56.568542 -591.228284
   vertex 2914.700587 -48.700914 -590.158389
  endloop
 endfacet
 facet normal -0.742746 0.659346 -0.116583
  outer loop
   vertex 3162.700587 -48.700914 -2170.158389
   vertex 3155.884318 -56.568542 -2171.228284
   vertex 2914.700587 -48.700914 -590.158389
  endloop
 endfacet
 facet normal -0.651371 0.751840 -0.102240
  outer loop
   vertex 3148.111853 -63.468267 -2172.448266
   vertex 2900.111853 -63.468267 -592.448266
   vertex 2907.884318 -56.568542 -591.228284
  endloop
 endfacet
 facet normal -0.651371 0.751840 -0.102240
  outer loop
   vertex 3155.884318 -56.568542 -2171.228284
   vertex 3148.111853 -63.468267 -2172.448266
   vertex 2907.884318 -56.568542 -591.228284
  endloop
 endfacet
 facet normal -0.548850 0.831470 -0.086149
  outer loop
   vertex 3139.516180 -69.282032 -2173.797460
   vertex 2891.516180 -69.282032 -593.797460
   vertex 2900.111853 -63.468267 -592.448266
  endloop
 endfacet
 facet normal -0.548850 0.831470 -0.086149
  outer loop
   vertex 3148.111853 -63.468267 -2172.448266
   vertex 3139.516180 -69.282032 -2173.797460
   vertex 2900.111853 -63.468267 -592.448266
  endloop
 endfacet
 facet normal -0.436939 0.896873 -0.068583
  outer loop
   vertex 3130.244375 -73.910363 -2175.252782
   vertex 2882.244375 -73.910363 -595.252782
   vertex 2891.516180 -69.282032 -593.797460
  endloop
 endfacet
 facet normal -0.436939 0.896873 -0.068583
  outer loop
   vertex 3139.516180 -69.282032 -2173.797460
   vertex 3130.244375 -73.910363 -2175.252782
   vertex 2891.516180 -69.282032 -593.797460
  endloop
 endfacet
 facet normal -0.317551 0.946930 -0.049844
  outer loop
   vertex 3120.455080 -77.274066 -2176.789329
   vertex 2872.455080 -77.274066 -596.789329
   vertex 2882.244375 -73.910363 -595.252782
  endloop
 endfacet
 facet normal -0.317551 0.946930 -0.049844
  outer loop
   vertex 3130.244375 -73.910363 -2175.252782
   vertex 3120.455080 -77.274066 -2176.789329
   vertex 2882.244375 -73.910363 -595.252782
  endloop
 endfacet
 facet normal -0.192731 0.980785 -0.030251
  outer loop
   vertex 3110.315793 -79.315589 -2178.380812
   vertex 2862.315793 -79.315589 -598.380812
   vertex 2872.455080 -77.274066 -596.789329
  endloop
 endfacet
 facet normal -0.192731 0.980785 -0.030251
  outer loop
   vertex 3120.455080 -77.274066 -2176.789329
   vertex 3110.315793 -79.315589 -2178.380812
   vertex 2872.455080 -77.274066 -596.789329
  endloop
 endfacet
 facet normal -0.064612 0.997859 -0.010142
  outer loop
   vertex 3100.000000 -80.000000 -2180.000000
   vertex 2852.000000 -80.000000 -600.000000
   vertex 2862.315793 -79.315589 -598.380812
  endloop
 endfacet
 facet normal -0.064612 0.997859 -0.010142
  outer loop
   vertex 3110.315793 -79.315589 -2178.380812
   vertex 3100.000000 -80.000000 -2180.000000
   vertex 2862.315793 -79.315589 -598.380812
  endloop
 endfacet
 facet normal 0.064612 0.997859 0.010142
  outer loop
   vertex 3089.684207 -79.315589 -2181.619188
   vertex 2841.684207 -79.315589 -601.619188
   vertex 2852.000000 -80.000000 -600.000000
  endloop
 endfacet
 facet normal 0.064612 0.997859 0.010142
  outer loop
   vertex 3100.000000 -80.000000 -2180.000000
   vertex 3089.684207 -79.315589 -2181.619188
   vertex 2852.000000 -80.000000 -600.000000
  endloop
 endfacet
 facet normal 0.192731 0.980785 0.030251
  outer loop
   vertex 3079.544920 -77.274066 -2183.210671
   vertex 2831.544920 -77.274066 -603.210671
   vertex 2841.684207 -79.315589 -601.619188
  endloop
 endfacet
 facet normal 0.192731 0.980785 0.030251
  outer loop
   vertex 3089.684207 -79.315589 -2181.619188
   vertex 3079.544920 -77.274066 -2183.210671
   vertex 2841.684207 -79.315589 -601.619188
  endloop
 endfacet
 facet normal 0.317551 0.946930 0.049844
  outer loop
   vertex 3069.755625 -73.910363 -2184.747218
   vertex 2821.755625 -73.910363 -604.747218
   vertex 2831.544920 -77.274066 -603.210671
  endloop
 endfacet
 facet normal 0.317551 0.946930 0.049844
  outer loop
   vertex 3079.544920 -77.274066 -2183.210671
   vertex 3069.755625 -73.910363 -2184.747218
   vertex 2831.544920 -77.274066 -603.210671
  endloop
 endfacet
 facet normal 0.436939 0.896873 0.068583
  outer loop
   vertex 3060.483820 -69.282032 -2186.202540
   vertex 2812.483820 -69.282032 -606.202540
   vertex 2821.755625 -73.910363 -604.747218
  endloop
 endfacet
 facet normal 0.436939 0.896873 0.068583
  outer loop
   vertex 3069.755625 -73.910363 -2184.747218
   vertex 3060.483820 -69.282032 -2186.202540
   vertex 2821.755625 -73.910363 -604.747218
  endloop
 endfacet
 facet normal 0.548850 0.831470 0.086149
  outer loop
   vertex 3051.888147 -63.468267 -2187.551734
   vertex 2803.888147 -63.468267 -607.551734
   vertex 2812.483820 -69.282032 -606.202540
  endloop
 endfacet
 facet normal 0.548850 0.831470 0.086149
  outer loop
   vertex 3060.483820 -69.282032 -2186.202540
   vertex 3051.888147 -63.468267 -2187.551734
   vertex 2812.483820 -69.282032 -606.202540
  endloop
 endfacet
 facet normal 0.651371 0.751840 0.102240
  outer loop
   vertex 3044.115682 -56.568542 -2188.771716
   vertex 2796.115682 -56.568542 -608.771716
   vertex 2803.888147 -63.468267 -607.551734
  endloop
 endfacet
 facet normal 0.651371 0.751840 0.102240
  outer loop
   vertex 3051.888147 -63.468267 -2187.551734
   vertex 3044.115682 -56.568542 -2188.771716
   vertex 2803.888147 -63.468267 -607.551734
  endloop
 endfacet
 facet normal 0.742746 0.659346 0.116583
  outer loop
   vertex 3037.299413 -48.700914 -2189.841611
   vertex 2789.299413 -48.700914 -609.841611
   vertex 2796.115682 -56.568542 -608.771716
  endloop
 endfacet
 facet normal 0.742746 0.659346 0.116583
  outer loop
   vertex 3044.115682 -56.568542 -2188.771716
   vertex 3037.299413 -48.700914 -2189.841611
   vertex 2796.115682 -56.568542 -608.771716
  endloop
 endfacet
 facet normal 0.821413 0.555570 0.128931
  outer loop
   vertex 3031.555968 -40.000000 -2190.743114
   vertex 2783.555968 -40.000000 -610.743114
   vertex 2789.299413 -48.700914 -609.841611
  endloop
 endfacet
 facet normal 0.821413 0.555570 0.128931
  outer loop
   vertex 3037.299413 -48.700914 -2189.841611
   vertex 3031.555968 -40.000000 -2190.743114
   vertex 2789.299413 -48.700914 -609.841611
  endloop
 endfacet
 facet normal 0.886025 0.442289 0.139072
  outer loop
   vertex 3026.983620 -30.614675 -2191.460799
   vertex 2778.983620 -30.614675 -611.460799
   vertex 2783.555968 -40.000000 -610.743114
  endloop
 endfacet
 facet normal 0.886025 0.442289 0.139072
  outer loop
   vertex 3031.555968 -40.000000 -2190.743114
   vertex 3026.983620 -30.614675 -2191.460799
   vertex 2783.555968 -40.000000 -610.743114
  endloop
 endfacet
 facet normal 0.935477 0.321439 0.146834
  outer loop
   vertex 3023.660602 -20.705524 -2191.982387
   vertex 2775.660602 -20.705524 -611.982387
   vertex 2778.983620 -30.614675 -611.460799
  endloop
 endfacet
 facet normal 0.935477 0.321439 0.146834
  outer loop
   vertex 3026.983620 -30.614675 -2191.460799
   vertex 3023.660602 -20.705524 -2191.982387
   vertex 2778.983620 -30.614675 -611.460799
  endloop
 endfacet
 facet normal 0.968922 0.195090 0.152084
  outer loop
   vertex 3021.643772 -10.442095 -2192.298952
   vertex 2773.643772 -10.442095 -612.298952
   vertex 2775.660602 -20.705524 -611.982387
  endloop
 endfacet
 facet normal 0.968922 0.195090 0.152084
  outer loop
   vertex 3023.660602 -20.705524 -2191.982387
   vertex 3021.643772 -10.442095 -2192.298952
   vertex 2775.660602 -20.705524 -611.982387
  endloop
 endfacet
 facet normal 0.985789 0.065403 0.154731
  outer loop
   vertex 3020.967640 -0.000000 -2192.405079
   vertex 2772.967640 -0.000000 -612.405079
   vertex 2773.643772 -10.442095 -612.298952
  endloop
 endfacet
 facet normal 0.985789 0.065403 0.154731
  outer loop
   vertex 3021.643772 -10.442095 -2192.298952
   vertex 3020.967640 -0.000000 -2192.405079
   vertex 2773.643772 -10.442095 -612.298952
  endloop
 endfacet
 facet normal 0.985789 -0.065403 0.154731
  outer loop
   vertex 3021.643772 10.442095 -2192.298952
   vertex 2773.643772 10.442095 -612.298952
   vertex 2772.967640 -0.000000 -612.405079
  endloop
 endfacet
 facet normal 0.985789 -0.065403 0.154731
  outer loop
   vertex 3020.967640 -0.000000 -2192.405079
   vertex 3021.643772 10.442095 -2192.298952
   vertex 2772.967640 -0.000000 -612.405079
  endloop
 endfacet
 facet normal 0.968922 -0.195090 0.152084
  outer loop
   vertex 3023.660602 20.705524 -2191.982387
   vertex 2775.660602 20.705524 -611.982387
   vertex 2773.643772 10.442095 -612.298952
  endloop
 endfacet
 facet normal 0.968922 -0.195090 0.152084
  outer loop
   vertex 3021.643772 10.442095 -2192.298952
   vertex 3023.660602 20.705524 -2191.982387
   vertex 2773.643772 10.442095 -612.298952
  endloop
 endfacet
 facet normal 0.935477 -0.321439 0.146834
  outer loop
   vertex 3026.983620 30.614675 -2191.460799
   vertex 2778.983620 30.614675 -611.460799
   vertex 2775.660602 20.705524 -611.982387
  endloop
 endfacet
 facet normal 0.935477 -0.321439 0.146834
  outer loop
   vertex 3023.660602 20.705524 -2191.982387
   vertex 3026.983620 30.614675 -2191.460799
   vertex 2775.660602 20.705524 -611.982387
  endloop
 endfacet
 facet normal 0.886025 -0.442289 0.139072
  outer loop
   vertex 3031.555968 40.000000 -2190.743114
   vertex 2783.555968 40.000000 -610.743114
   vertex 2778.983620 30.614675 -611.460799
  endloop
 endfacet
 facet normal 0.886025 -0.442289 0.139072
  outer loop
   vertex 3026.983620 30.614675 -2191.460799
   vertex 3031.555968 40.000000 -2190.743114
   vertex 2778.983620 30.614675 -611.460799
  endloop
 endfacet
 facet normal 0.821413 -0.555570 0.128931
  outer loop
   vertex 3037.299413 48.700914 -2189.841611
   vertex 2789.299413 48.700914 -609.841611
   vertex 2783.555968 40.000000 -610.743114
  endloop
 endfacet
 facet normal 0.821413 -0.555570 0.128931
  outer loop
   vertex 3031.555968 40.000000 -2190.743114
   vertex 3037.299413 48.700914 -2189.841611
   vertex 2783.555968 40.000000 -610.743114
  endloop
 endfacet
 facet normal 0.742746 -0.659346 0.116583
  outer loop
   vertex 3044.115682 56.568542 -2188.771716
   vertex 2796.115682 56.568542 -608.771716
   vertex 2789.299413 48.700914 -609.841611
  endloop
 endfacet
 facet normal 0.742746 -0.659346 0.116583
  outer loop
   vertex 3037.299413 48.700914 -2189.841611
   vertex 3044.115682 56.568542 -2188.771716
   vertex 2789.299413 48.700914 -609.841611
  endloop
 endfacet
 facet normal 0.651371 -0.751840 0.102240
  outer loop
   vertex 3051.888147 63.468267 -2187.551734
   vertex 2803.888147 63.468267 -607.551734
   vertex 2796.115682 56.568542 -608.771716
  endloop
 endfacet
 facet normal 0.651371 -0.751840 0.102240
  outer loop
   vertex 3044.115682 56.568542 -2188.771716
   vertex 3051.888147 63.468267 -2187.551734
   vertex 2796.115682 56.568542 -608.771716
  endloop
 endfacet
 facet normal 0.548850 -0.831470 0.086149
  outer loop
   vertex 3060.483820 69.282032 -2186.202540
   vertex 2812.483820 69.282032 -606.202540
   vertex 2803.888147 63.468267 -607.551734
  endloop
 endfacet
 facet normal 0.548850 -0.831470 0.086149
  outer loop
   vertex 3051.888147 63.468267 -2187.551734
   vertex 3060.483820 69.282032 -2186.202540
   vertex 2803.888147 63.468267 -607.551734
  endloop
 endfacet
 facet normal 0.436939 -0.896873 0.068583
  outer loop
   vertex 3069.755625 73.910363 -2184.747218
   vertex 2821.755625 73.910363 -604.747218
   vertex 2812.483820 69.282032 -606.202540
  endloop
 endfacet
 facet normal 0.436939 -0.896873 0.068583
  outer loop
   vertex 3060.483820 69.282032 -2186.202540
   vertex 3069.755625 73.910363 -2184.747218
   vertex 2812.483820 69.282032 -606.202540
  endloop
 endfacet
 facet normal 0.317551 -0.946930 0.049844
  outer loop
   vertex 3079.544920 77.274066 -2183.210671
   vertex 2831.544920 77.274066 -603.210671
   vertex 2821.755625 73.910363 -604.747218
  endloop
 endfacet
 facet normal 0.317551 -0.946930 0.049844
  outer loop
   vertex 3069.755625 73.910363 -2184.747218
   vertex 3079.544920 77.274066 -2183.210671
   vertex 2821.755625 73.910363 -604.747218
  endloop
 endfacet
 facet normal 0.192731 -0.980785 0.030251
  outer loop
   vertex 3089.684207 79.315589 -2181.619188
   vertex 2841.684207 79.315589 -601.619188
   vertex 2831.544920 77.274066 -603.210671
  endloop
 endfacet
 facet normal 0.192731 -0.980785 0.030251
  outer loop
   vertex 3079.544920 77.274066 -2183.210671
   vertex 3089.684207 79.315589 -2181.619188
   vertex 2831.544920 77.274066 -603.210671
  endloop
 endfacet
 facet normal 0.064612 -0.997859 0.010142
  outer loop
   vertex 3100.000000 80.000000 -2180.000000
   vertex 2852.000000 80.000000 -600.000000
   vertex 2841.684207 79.315589 -601.619188
  endloop
 endfacet
 facet normal 0.064612 -0.997859 0.010142
  outer loop
   vertex 3089.684207 79.315589 -2181.619188
   vertex 3100.000000 80.000000 -2180.000000
   vertex 2841.684207 79.315589 -601.619188
  endloop
 endfacet
endsolid SII_LH2_feed_1_drop
