solid SII_LOX_feed_4_drop
 facet normal 0.065220 0.988834 0.133994
  outer loop
   vertex 1426.985601 2550.793257 -528.352261
   vertex 1438.700035 2549.916025 -527.580417
   vertex 1562.785739 2763.963865 -2167.580417
  endloop
 endfacet
 facet normal 0.065220 0.988834 0.133994
  outer loop
   vertex 1426.985601 2550.793257 -528.352261
   vertex 1562.785739 2763.963865 -2167.580417
   vertex 1551.071305 2764.841097 -2168.352261
  endloop
 endfacet
 facet normal 0.194544 0.970648 0.141406
  outer loop
   vertex 1438.700035 2549.916025 -527.580417
   vertex 1450.214032 2547.526829 -527.021075
   vertex 1574.299736 2761.574669 -2167.021075
  endloop
 endfacet
 facet normal 0.194544 0.970648 0.141406
  outer loop
   vertex 1438.700035 2549.916025 -527.580417
   vertex 1574.299736 2761.574669 -2167.021075
   vertex 1562.785739 2763.963865 -2167.580417
  endloop
 endfacet
 facet normal 0.320539 0.935854 0.146397
  outer loop
   vertex 1450.214032 2547.526829 -527.021075
   vertex 1461.330584 2543.666549 -526.683807
   vertex 1585.416288 2757.714389 -2166.683807
  endloop
 endfacet
 facet normal 0.320539 0.935854 0.146397
  outer loop
   vertex 1450.214032 2547.526829 -527.021075
   vertex 1585.416288 2757.714389 -2166.683807
   vertex 1574.299736 2761.574669 -2167.021075
  endloop
 endfacet
 facet normal 0.441049 0.885048 0.148884
  outer loop
   vertex 1461.330584 2543.666549 -526.683807
   vertex 1471.859483 2538.401234 -526.574382
   vertex 1595.945188 2752.449074 -2166.574382
  endloop
 endfacet
 facet normal 0.441049 0.885048 0.148884
  outer loop
   vertex 1461.330584 2543.666549 -526.683807
   vertex 1595.945188 2752.449074 -2166.574382
   vertex 1585.416288 2757.714389 -2166.683807
  endloop
 endfacet
 facet normal 0.554013 0.819098 0.148824
  outer loop
   vertex 1471.859483 2538.401234 -526.574382
   vertex 1481.620579 2531.820976 -526.694673
   vertex 1605.706283 2745.868816 -2166.694673
  endloop
 endfacet
 facet normal 0.554013 0.819098 0.148824
  outer loop
   vertex 1471.859483 2538.401234 -526.574382
   vertex 1605.706283 2745.868816 -2166.694673
   vertex 1595.945188 2752.449074 -2166.574382
  endloop
 endfacet
 facet normal 0.657498 0.739133 0.146217
  outer loop
   vertex 1481.620579 2531.820976 -526.694673
   vertex 1490.446854 2524.038365 -527.042622
   vertex 1614.532559 2738.086205 -2167.042622
  endloop
 endfacet
 facet normal 0.657498 0.739133 0.146217
  outer loop
   vertex 1481.620579 2531.820976 -526.694673
   vertex 1614.532559 2738.086205 -2167.042622
   vertex 1605.706283 2745.868816 -2166.694673
  endloop
 endfacet
 facet normal 0.749733 0.646521 0.141108
  outer loop
   vertex 1490.446854 2524.038365 -527.042622
   vertex 1498.187290 2515.186563 -527.612276
   vertex 1622.272995 2729.234403 -2167.612276
  endloop
 endfacet
 facet normal 0.749733 0.646521 0.141108
  outer loop
   vertex 1490.446854 2524.038365 -527.042622
   vertex 1622.272995 2729.234403 -2167.612276
   vertex 1614.532559 2738.086205 -2167.042622
  endloop
 endfacet
 facet normal 0.829139 0.542847 0.133585
  outer loop
   vertex 1498.187290 2515.186563 -527.612276
   vertex 1504.709446 2505.417028 -528.393886
   vertex 1628.795150 2719.464868 -2168.393886
  endloop
 endfacet
 facet normal 0.829139 0.542847 0.133585
  outer loop
   vertex 1498.187290 2515.186563 -527.612276
   vertex 1628.795150 2719.464868 -2168.393886
   vertex 1622.272995 2729.234403 -2167.612276
  endloop
 endfacet
 facet normal 0.894359 0.429885 0.123776
  outer loop
   vertex 1504.709446 2505.417028 -528.393886
   vertex 1509.901725 2494.896918 -529.374081
   vertex 1633.987429 2708.944758 -2169.374081
  endloop
 endfacet
 facet normal 0.894359 0.429885 0.123776
  outer loop
   vertex 1504.709446 2505.417028 -528.393886
   vertex 1633.987429 2708.944758 -2169.374081
   vertex 1628.795150 2719.464868 -2168.393886
  endloop
 endfacet
 facet normal 0.944276 0.309567 0.111850
  outer loop
   vertex 1509.901725 2494.896918 -529.374081
   vertex 1513.675285 2483.806237 -530.536088
   vertex 1637.760990 2697.854077 -2170.536088
  endloop
 endfacet
 facet normal 0.944276 0.309567 0.111850
  outer loop
   vertex 1509.901725 2494.896918 -529.374081
   vertex 1637.760990 2697.854077 -2170.536088
   vertex 1633.987429 2708.944758 -2169.374081
  endloop
 endfacet
 facet normal 0.978037 0.183953 0.098009
  outer loop
   vertex 1513.675285 2483.806237 -530.536088
   vertex 1515.965562 2472.334747 -531.860025
   vertex 1640.051266 2686.382587 -2171.860025
  endloop
 endfacet
 facet normal 0.978037 0.183953 0.098009
  outer loop
   vertex 1513.675285 2483.806237 -530.536088
   vertex 1640.051266 2686.382587 -2171.860025
   vertex 1637.760990 2697.854077 -2170.536088
  endloop
 endfacet
 facet normal 0.995062 0.055191 0.082492
  outer loop
   vertex 1515.965562 2472.334747 -531.860025
   vertex 1516.733366 2460.678730 -533.323240
   vertex 1640.819071 2674.726570 -2173.323240
  endloop
 endfacet
 facet normal 0.995062 0.055191 0.082492
  outer loop
   vertex 1515.965562 2472.334747 -531.860025
   vertex 1640.819071 2674.726570 -2173.323240
   vertex 1640.051266 2686.382587 -2171.860025
  endloop
 endfacet
 facet normal 0.995062 -0.074515 0.065563
  outer loop
   vertex 1516.733366 2460.678730 -533.323240
   vertex 1515.965562 2449.037624 -534.900695
   vertex 1640.051266 2663.085464 -2174.900695
  endloop
 endfacet
 facet normal 0.995062 -0.074515 0.065563
  outer loop
   vertex 1516.733366 2460.678730 -533.323240
   vertex 1640.051266 2663.085464 -2174.900695
   vertex 1640.819071 2674.726570 -2173.323240
  endloop
 endfacet
 facet normal 0.978037 -0.202946 0.047512
  outer loop
   vertex 1515.965562 2449.037624 -534.900695
   vertex 1513.675285 2437.610611 -536.565401
   vertex 1637.760990 2651.658451 -2176.565401
  endloop
 endfacet
 facet normal 0.978037 -0.202946 0.047512
  outer loop
   vertex 1515.965562 2449.037624 -534.900695
   vertex 1637.760990 2651.658451 -2176.565401
   vertex 1640.051266 2663.085464 -2174.900695
  endloop
 endfacet
 facet normal 0.944276 -0.327905 0.028649
  outer loop
   vertex 1513.675285 2437.610611 -536.565401
   vertex 1509.901725 2426.593210 -538.288875
   vertex 1633.987429 2640.641050 -2178.288875
  endloop
 endfacet
 facet normal 0.944276 -0.327905 0.028649
  outer loop
   vertex 1513.675285 2437.610611 -536.565401
   vertex 1633.987429 2640.641050 -2178.288875
   vertex 1637.760990 2651.658451 -2176.565401
  endloop
 endfacet
 facet normal 0.894359 -0.447253 0.009295
  outer loop
   vertex 1509.901725 2426.593210 -538.288875
   vertex 1504.709446 2416.173932 -540.041625
   vertex 1628.795150 2630.221772 -2180.041625
  endloop
 endfacet
 facet normal 0.894359 -0.447253 0.009295
  outer loop
   vertex 1509.901725 2426.593210 -538.288875
   vertex 1628.795150 2630.221772 -2180.041625
   vertex 1633.987429 2640.641050 -2178.288875
  endloop
 endfacet
 facet normal 0.829139 -0.558949 -0.010218
  outer loop
   vertex 1504.709446 2416.173932 -540.041625
   vertex 1498.187290 2406.531054 -541.793664
   vertex 1622.272995 2620.578894 -2181.793664
  endloop
 endfacet
 facet normal 0.829139 -0.558949 -0.010218
  outer loop
   vertex 1504.709446 2416.173932 -540.041625
   vertex 1622.272995 2620.578894 -2181.793664
   vertex 1628.795150 2630.221772 -2180.041625
  endloop
 endfacet
 facet normal 0.749733 -0.661080 -0.029556
  outer loop
   vertex 1498.187290 2406.531054 -541.793664
   vertex 1490.446854 2397.829568 -543.515013
   vertex 1614.532559 2611.877408 -2183.515013
  endloop
 endfacet
 facet normal 0.749733 -0.661080 -0.029556
  outer loop
   vertex 1498.187290 2406.531054 -541.793664
   vertex 1614.532559 2611.877408 -2183.515013
   vertex 1622.272995 2620.578894 -2181.793664
  endloop
 endfacet
 facet normal 0.657498 -0.751901 -0.048388
  outer loop
   vertex 1490.446854 2397.829568 -543.515013
   vertex 1481.620579 2390.218359 -545.176218
   vertex 1605.706283 2604.266199 -2185.176218
  endloop
 endfacet
 facet normal 0.657498 -0.751901 -0.048388
  outer loop
   vertex 1490.446854 2397.829568 -543.515013
   vertex 1605.706283 2604.266199 -2185.176218
   vertex 1614.532559 2611.877408 -2183.515013
  endloop
 endfacet
 facet normal 0.554013 -0.829856 -0.066393
  outer loop
   vertex 1481.620579 2390.218359 -545.176218
   vertex 1471.859483 2383.827657 -546.748858
   vertex 1595.945188 2597.875498 -2186.748858
  endloop
 endfacet
 facet normal 0.554013 -0.829856 -0.066393
  outer loop
   vertex 1481.620579 2390.218359 -545.176218
   vertex 1595.945188 2597.875498 -2186.748858
   vertex 1605.706283 2604.266199 -2185.176218
  endloop
 endfacet
 facet normal 0.441049 -0.893612 -0.083261
  outer loop
   vertex 1471.859483 2383.827657 -546.748858
   vertex 1461.330584 2378.766809 -548.206022
   vertex 1585.416288 2592.814649 -2188.206022
  endloop
 endfacet
 facet normal 0.441049 -0.893612 -0.083261
  outer loop
   vertex 1471.859483 2383.827657 -546.748858
   vertex 1585.416288 2592.814649 -2188.206022
   vertex 1595.945188 2597.875498 -2186.748858
  endloop
 endfacet
 facet normal 0.320539 -0.942079 -0.098705
  outer loop
   vertex 1461.330584 2378.766809 -548.206022
   vertex 1450.214032 2375.122407 -549.522779
   vertex 1574.299736 2589.170247 -2189.522779
  endloop
 endfacet
 facet normal 0.320539 -0.942079 -0.098705
  outer loop
   vertex 1461.330584 2378.766809 -548.206022
   vertex 1574.299736 2589.170247 -2189.522779
   vertex 1585.416288 2592.814649 -2188.206022
  endloop
 endfacet
 facet normal 0.194544 -0.974426 -0.112460
  outer loop
   vertex 1450.214032 2375.122407 -549.522779
   vertex 1438.700035 2372.956808 -550.676599
   vertex 1562.785739 2587.004648 -2190.676599
  endloop
 endfacet
 facet normal 0.194544 -0.974426 -0.112460
  outer loop
   vertex 1450.214032 2375.122407 -549.522779
   vertex 1562.785739 2587.004648 -2190.676599
   vertex 1574.299736 2589.170247 -2189.522779
  endloop
 endfacet
 facet normal 0.065220 -0.990100 -0.124290
  outer loop
   vertex 1438.700035 2372.956808 -550.676599
   vertex 1426.985601 2372.307065 -551.647739
   vertex 1551.071305 2586.354905 -2191.647739
  endloop
 endfacet
 facet normal 0.065220 -0.990100 -0.124290
  outer loop
   vertex 1438.700035 2372.956808 -550.676599
   vertex 1551.071305 2586.354905 -2191.647739
   vertex 1562.785739 2587.004648 -2190.676599
  endloop
 endfacet
 facet normal -0.065220 -0.988834 -0.133994
  outer loop
   vertex 1426.985601 2372.307065 -551.647739
   vertex 1415.271166 2373.184297 -552.419583
   vertex 1539.356871 2587.232137 -2192.419583
  endloop
 endfacet
 facet normal -0.065220 -0.988834 -0.133994
  outer loop
   vertex 1426.985601 2372.307065 -551.647739
   vertex 1539.356871 2587.232137 -2192.419583
   vertex 1551.071305 2586.354905 -2191.647739
  endloop
 endfacet
 facet normal -0.194544 -0.970648 -0.141406
  outer loop
   vertex 1415.271166 2373.184297 -552.419583
   vertex 1403.757169 2375.573493 -552.978925
   vertex 1527.842874 2589.621333 -2192.978925
  endloop
 endfacet
 facet normal -0.194544 -0.970648 -0.141406
  outer loop
   vertex 1415.271166 2373.184297 -552.419583
   vertex 1527.842874 2589.621333 -2192.978925
   vertex 1539.356871 2587.232137 -2192.419583
  endloop
 endfacet
 facet normal -0.320539 -0.935854 -0.146397
  outer loop
   vertex 1403.757169 2375.573493 -552.978925
   vertex 1392.640617 2379.433773 -553.316193
   vertex 1516.726322 2593.481613 -2193.316193
  endloop
 endfacet
 facet normal -0.320539 -0.935854 -0.146397
  outer loop
   vertex 1403.757169 2375.573493 -552.978925
   vertex 1516.726322 2593.481613 -2193.316193
   vertex 1527.842874 2589.621333 -2192.978925
  endloop
 endfacet
 facet normal -0.441049 -0.885048 -0.148884
  outer loop
   vertex 1392.640617 2379.433773 -553.316193
   vertex 1382.111718 2384.699088 -553.425618
   vertex 1506.197422 2598.746928 -2193.425618
  endloop
 endfacet
 facet normal -0.441049 -0.885048 -0.148884
  outer loop
   vertex 1392.640617 2379.433773 -553.316193
   vertex 1506.197422 2598.746928 -2193.425618
   vertex 1516.726322 2593.481613 -2193.316193
  endloop
 endfacet
 facet normal -0.554013 -0.819098 -0.148824
  outer loop
   vertex 1382.111718 2384.699088 -553.425618
   vertex 1372.350622 2391.279346 -553.305327
   vertex 1496.436327 2605.327186 -2193.305327
  endloop
 endfacet
 facet normal -0.554013 -0.819098 -0.148824
  outer loop
   vertex 1382.111718 2384.699088 -553.425618
   vertex 1496.436327 2605.327186 -2193.305327
   vertex 1506.197422 2598.746928 -2193.425618
  endloop
 endfacet
 facet normal -0.657498 -0.739133 -0.146217
  outer loop
   vertex 1372.350622 2391.279346 -553.305327
   vertex 1363.524347 2399.061957 -552.957378
   vertex 1487.610051 2613.109797 -2192.957378
  endloop
 endfacet
 facet normal -0.657498 -0.739133 -0.146217
  outer loop
   vertex 1372.350622 2391.279346 -553.305327
   vertex 1487.610051 2613.109797 -2192.957378
   vertex 1496.436327 2605.327186 -2193.305327
  endloop
 endfacet
 facet normal -0.749733 -0.646521 -0.141108
  outer loop
   vertex 1363.524347 2399.061957 -552.957378
   vertex 1355.783911 2407.913759 -552.387724
   vertex 1479.869615 2621.961599 -2192.387724
  endloop
 endfacet
 facet normal -0.749733 -0.646521 -0.141108
  outer loop
   vertex 1363.524347 2399.061957 -552.957378
   vertex 1479.869615 2621.961599 -2192.387724
   vertex 1487.610051 2613.109797 -2192.957378
  endloop
 endfacet
 facet normal -0.829139 -0.542847 -0.133585
  outer loop
   vertex 1355.783911 2407.913759 -552.387724
   vertex 1349.261755 2417.683294 -551.606114
   vertex 1473.347460 2631.731134 -2191.606114
  endloop
 endfacet
 facet normal -0.829139 -0.542847 -0.133585
  outer loop
   vertex 1355.783911 2407.913759 -552.387724
   vertex 1473.347460 2631.731134 -2191.606114
   vertex 1479.869615 2621.961599 -2192.387724
  endloop
 endfacet
 facet normal -0.894359 -0.429885 -0.123776
  outer loop
   vertex 1349.261755 2417.683294 -551.606114
   vertex 1344.069477 2428.203404 -550.625919
   vertex 1468.155181 2642.251244 -2190.625919
  endloop
 endfacet
 facet normal -0.894359 -0.429885 -0.123776
  outer loop
   vertex 1349.261755 2417.683294 -551.606114
   vertex 1468.155181 2642.251244 -2190.625919
   vertex 1473.347460 2631.731134 -2191.606114
  endloop
 endfacet
 facet normal -0.944276 -0.309567 -0.111850
  outer loop
   vertex 1344.069477 2428.203404 -550.625919
   vertex 1340.295916 2439.294085 -549.463912
   vertex 1464.381620 2653.341925 -2189.463912
  endloop
 endfacet
 facet normal -0.944276 -0.309567 -0.111850
  outer loop
   vertex 1344.069477 2428.203404 -550.625919
   vertex 1464.381620 2653.341925 -2189.463912
   vertex 1468.155181 2642.251244 -2190.625919
  endloop
 endfacet
 facet normal -0.978037 -0.183953 -0.098009
  outer loop
   vertex 1340.295916 2439.294085 -549.463912
   vertex 1338.005639 2450.765575 -548.139975
   vertex 1462.091344 2664.813415 -2188.139975
  endloop
 endfacet
 facet normal -0.978037 -0.183953 -0.098009
  outer loop
   vertex 1340.295916 2439.294085 -549.463912
   vertex 1462.091344 2664.813415 -2188.139975
   vertex 1464.381620 2653.341925 -2189.463912
  endloop
 endfacet
 facet normal -0.995062 -0.055191 -0.082492
  outer loop
   vertex 1338.005639 2450.765575 -548.139975
   vertex 1337.237835 2462.421592 -546.676760
   vertex 1461.323539 2676.469432 -2186.676760
  endloop
 endfacet
 facet normal -0.995062 -0.055191 -0.082492
  outer loop
   vertex 1338.005639 2450.765575 -548.139975
   vertex 1461.323539 2676.469432 -2186.676760
   vertex 1462.091344 2664.813415 -2188.139975
  endloop
 endfacet
 facet normal -0.995062 0.074515 -0.065563
  outer loop
   vertex 1337.237835 2462.421592 -546.676760
   vertex 1338.005639 2474.062698 -545.099305
   vertex 1462.091344 2688.110538 -2185.099305
  endloop
 endfacet
 facet normal -0.995062 0.074515 -0.065563
  outer loop
   vertex 1337.237835 2462.421592 -546.676760
   vertex 1462.091344 2688.110538 -2185.099305
   vertex 1461.323539 2676.469432 -2186.676760
  endloop
 endfacet
 facet normal -0.978037 0.202946 -0.047512
  outer loop
   vertex 1338.005639 2474.062698 -545.099305
   vertex 1340.295916 2485.489711 -543.434599
   vertex 1464.381620 2699.537551 -2183.434599
  endloop
 endfacet
 facet normal -0.978037 0.202946 -0.047512
  outer loop
   vertex 1338.005639 2474.062698 -545.099305
   vertex 1464.381620 2699.537551 -2183.434599
   vertex 1462.091344 2688.110538 -2185.099305
  endloop
 endfacet
 facet normal -0.944276 0.327905 -0.028649
  outer loop
   vertex 1340.295916 2485.489711 -543.434599
   vertex 1344.069477 2496.507112 -541.711125
   vertex 1468.155181 2710.554952 -2181.711125
  endloop
 endfacet
 facet normal -0.944276 0.327905 -0.028649
  outer loop
   vertex 1340.295916 2485.489711 -543.434599
   vertex 1468.155181 2710.554952 -2181.711125
   vertex 1464.381620 2699.537551 -2183.434599
  endloop
 endfacet
 facet normal -0.894359 0.447253 -0.009295
  outer loop
   vertex 1344.069477 2496.507112 -541.711125
   vertex 1349.261755 2506.926390 -539.958375
   vertex 1473.347460 2720.974230 -2179.958375
  endloop
 endfacet
 facet normal -0.894359 0.447253 -0.009295
  outer loop
   vertex 1344.069477 2496.507112 -541.711125
   vertex 1473.347460 2720.974230 -2179.958375
   vertex 1468.155181 2710.554952 -2181.711125
  endloop
 endfacet
 facet normal -0.829139 0.558949 0.010218
  outer loop
   vertex 1349.261755 2506.926390 -539.958375
   vertex 1355.783911 2516.569268 -538.206336
   vertex 1479.869615 2730.617108 -2178.206336
  endloop
 endfacet
 facet normal -0.829139 0.558949 0.010218
  outer loop
   vertex 1349.261755 2506.926390 -539.958375
   vertex 1479.869615 2730.617108 -2178.206336
   vertex 1473.347460 2720.974230 -2179.958375
  endloop
 endfacet
 facet normal -0.749733 0.661080 0.029556
  outer loop
   vertex 1355.783911 2516.569268 -538.206336
   vertex 1363.524347 2525.270754 -536.484987
   vertex 1487.610051 2739.318594 -2176.484987
  endloop
 endfacet
 facet normal -0.749733 0.661080 0.029556
  outer loop
   vertex 1355.783911 2516.569268 -538.206336
   vertex 1487.610051 2739.318594 -2176.484987
   vertex 1479.869615 2730.617108 -2178.206336
  endloop
 endfacet
 facet normal -0.657498 0.751901 0.048388
  outer loop
   vertex 1363.524347 2525.270754 -536.484987
   vertex 1372.350622 2532.881963 -534.823782
   vertex 1496.436327 2746.929803 -2174.823782
  endloop
 endfacet
 facet normal -0.657498 0.751901 0.048388
  outer loop
   vertex 1363.524347 2525.270754 -536.484987
   vertex 1496.436327 2746.929803 -2174.823782
   vertex 1487.610051 2739.318594 -2176.484987
  endloop
 endfacet
 facet normal -0.554013 0.829856 0.066393
  outer loop
   vertex 1372.350622 2532.881963 -534.823782
   vertex 1382.111718 2539.272664 -533.251142
   vertex 1506.197422 2753.320505 -2173.251142
  endloop
 endfacet
 facet normal -0.554013 0.829856 0.066393
  outer loop
   vertex 1372.350622 2532.881963 -534.823782
   vertex 1506.197422 2753.320505 -2173.251142
   vertex 1496.436327 2746.929803 -2174.823782
  endloop
 endfacet
 facet normal -0.441049 0.893612 0.083261
  outer loop
   vertex 1382.111718 2539.272664 -533.251142
   vertex 1392.640617 2544.333513 -531.793978
   vertex 1516.726322 2758.381353 -2171.793978
  endloop
 endfacet
 facet normal -0.441049 0.893612 0.083261
  outer loop
   vertex 1382.111718 2539.272664 -533.251142
   vertex 1516.726322 2758.381353 -2171.793978
   vertex 1506.197422 2753.320505 -2173.251142
  endloop
 endfacet
 facet normal -0.320539 0.942079 0.098705
  outer loop
   vertex 1392.640617 2544.333513 -531.793978
   vertex 1403.757169 2547.977915 -530.477221
   vertex 1527.842874 2762.025755 -2170.477221
  endloop
 endfacet
 facet normal -0.320539 0.942079 0.098705
  outer loop
   vertex 1392.640617 2544.333513 -531.793978
   vertex 1527.842874 2762.025755 -2170.477221
   vertex 1516.726322 2758.381353 -2171.793978
  endloop
 endfacet
 facet normal -0.194544 0.974426 0.112460
  outer loop
   vertex 1403.757169 2547.977915 -530.477221
   vertex 1415.271166 2550.143514 -529.323401
   vertex 1539.356871 2764.191354 -2169.323401
  endloop
 endfacet
 facet normal -0.194544 0.974426 0.112460
  outer loop
   vertex 1403.757169 2547.977915 -530.477221
   vertex 1539.356871 2764.191354 -2169.323401
   vertex 1527.842874 2762.025755 -2170.477221
  endloop
 endfacet
 facet normal -0.065220 0.990100 0.124290
  outer loop
   vertex 1415.271166 2550.143514 -529.323401
   vertex 1426.985601 2550.793257 -528.352261
   vertex 1551.071305 2764.841097 -2168.352261
  endloop
 endfacet
 facet normal -0.065220 0.990100 0.124290
  outer loop
   vertex 1415.271166 2550.143514 -529.323401
   vertex 1551.071305 2764.841097 -2168.352261
   vertex 1539.356871 2764.191354 -2169.323401
  endloop
 endfacet
 facet normal -0.065220 -0.988834 -0.133994
  outer loop
   vertex 1561.484135 2754.145436 -2168.960371
   vertex 1437.398431 2540.097596 -528.960371
   vertex 1426.985601 2540.877357 -529.646454
  endloop
 endfacet
 facet normal -0.065220 -0.988834 -0.133994
  outer loop
   vertex 1551.071305 2754.925197 -2169.646454
   vertex 1561.484135 2754.145436 -2168.960371
   vertex 1426.985601 2540.877357 -529.646454
  endloop
 endfacet
 facet normal -0.194544 -0.970648 -0.141406
  outer loop
   vertex 1571.718799 2752.021706 -2168.463178
   vertex 1447.633095 2537.973866 -528.463178
   vertex 1437.398431 2540.097596 -528.960371
  endloop
 endfacet
 facet normal -0.194544 -0.970648 -0.141406
  outer loop
   vertex 1561.484135 2754.145436 -2168.960371
   vertex 1571.718799 2752.021706 -2168.463178
   vertex 1437.398431 2540.097596 -528.960371
  endloop
 endfacet
 facet normal -0.320539 -0.935854 -0.146397
  outer loop
   vertex 1581.600179 2748.590346 -2168.163384
   vertex 1457.514474 2534.542506 -528.163384
   vertex 1447.633095 2537.973866 -528.463178
  endloop
 endfacet
 facet normal -0.320539 -0.935854 -0.146397
  outer loop
   vertex 1571.718799 2752.021706 -2168.463178
   vertex 1581.600179 2748.590346 -2168.163384
   vertex 1447.633095 2537.973866 -528.463178
  endloop
 endfacet
 facet normal -0.441049 -0.885048 -0.148884
  outer loop
   vertex 1590.959201 2743.910066 -2168.066117
   vertex 1466.873496 2529.862226 -528.066117
   vertex 1457.514474 2534.542506 -528.163384
  endloop
 endfacet
 facet normal -0.441049 -0.885048 -0.148884
  outer loop
   vertex 1581.600179 2748.590346 -2168.163384
   vertex 1590.959201 2743.910066 -2168.066117
   vertex 1457.514474 2534.542506 -528.163384
  endloop
 endfacet
 facet normal -0.554013 -0.819098 -0.148824
  outer loop
   vertex 1599.635730 2738.060948 -2168.173043
   vertex 1475.550026 2524.013108 -528.173043
   vertex 1466.873496 2529.862226 -528.066117
  endloop
 endfacet
 facet normal -0.554013 -0.819098 -0.148824
  outer loop
   vertex 1590.959201 2743.910066 -2168.066117
   vertex 1599.635730 2738.060948 -2168.173043
   vertex 1466.873496 2529.862226 -528.066117
  endloop
 endfacet
 facet normal -0.657498 -0.739133 -0.146217
  outer loop
   vertex 1607.481308 2731.143071 -2168.482331
   vertex 1483.395604 2517.095231 -528.482331
   vertex 1475.550026 2524.013108 -528.173043
  endloop
 endfacet
 facet normal -0.657498 -0.739133 -0.146217
  outer loop
   vertex 1599.635730 2738.060948 -2168.173043
   vertex 1607.481308 2731.143071 -2168.482331
   vertex 1475.550026 2524.013108 -528.173043
  endloop
 endfacet
 facet normal -0.749733 -0.646521 -0.141108
  outer loop
   vertex 1614.361696 2723.274803 -2168.988689
   vertex 1490.275992 2509.226963 -528.988689
   vertex 1483.395604 2517.095231 -528.482331
  endloop
 endfacet
 facet normal -0.749733 -0.646521 -0.141108
  outer loop
   vertex 1607.481308 2731.143071 -2168.482331
   vertex 1614.361696 2723.274803 -2168.988689
   vertex 1483.395604 2517.095231 -528.482331
  endloop
 endfacet
 facet normal -0.829139 -0.542847 -0.133585
  outer loop
   vertex 1620.159167 2714.590772 -2169.683455
   vertex 1496.073463 2500.542932 -529.683455
   vertex 1490.275992 2509.226963 -528.988689
  endloop
 endfacet
 facet normal -0.829139 -0.542847 -0.133585
  outer loop
   vertex 1614.361696 2723.274803 -2168.988689
   vertex 1620.159167 2714.590772 -2169.683455
   vertex 1490.275992 2509.226963 -528.988689
  endloop
 endfacet
 facet normal -0.894359 -0.429885 -0.123776
  outer loop
   vertex 1624.774526 2705.239563 -2170.554739
   vertex 1500.688822 2491.191723 -530.554739
   vertex 1496.073463 2500.542932 -529.683455
  endloop
 endfacet
 facet normal -0.894359 -0.429885 -0.123776
  outer loop
   vertex 1620.159167 2714.590772 -2169.683455
   vertex 1624.774526 2705.239563 -2170.554739
   vertex 1496.073463 2500.542932 -529.683455
  endloop
 endfacet
 facet normal -0.944276 -0.309567 -0.111850
  outer loop
   vertex 1628.128803 2695.381179 -2171.587634
   vertex 1504.043098 2481.333339 -531.587634
   vertex 1500.688822 2491.191723 -530.554739
  endloop
 endfacet
 facet normal -0.944276 -0.309567 -0.111850
  outer loop
   vertex 1624.774526 2705.239563 -2170.554739
   vertex 1628.128803 2695.381179 -2171.587634
   vertex 1500.688822 2491.191723 -530.554739
  endloop
 endfacet
 facet normal -0.978037 -0.183953 -0.098009
  outer loop
   vertex 1630.164604 2685.184300 -2172.764467
   vertex 1506.078899 2471.136460 -532.764467
   vertex 1504.043098 2481.333339 -531.587634
  endloop
 endfacet
 facet normal -0.978037 -0.183953 -0.098009
  outer loop
   vertex 1628.128803 2695.381179 -2171.587634
   vertex 1630.164604 2685.184300 -2172.764467
   vertex 1504.043098 2481.333339 -531.587634
  endloop
 endfacet
 facet normal -0.995062 -0.055191 -0.082492
  outer loop
   vertex 1630.847097 2674.823396 -2174.065102
   vertex 1506.761392 2460.775556 -534.065102
   vertex 1506.078899 2471.136460 -532.764467
  endloop
 endfacet
 facet normal -0.995062 -0.055191 -0.082492
  outer loop
   vertex 1630.164604 2685.184300 -2172.764467
   vertex 1630.847097 2674.823396 -2174.065102
   vertex 1506.078899 2471.136460 -532.764467
  endloop
 endfacet
 facet normal -0.995062 0.074515 -0.065563
  outer loop
   vertex 1630.164604 2664.475746 -2175.467285
   vertex 1506.078899 2450.427906 -535.467285
   vertex 1506.761392 2460.775556 -534.065102
  endloop
 endfacet
 facet normal -0.995062 0.074515 -0.065563
  outer loop
   vertex 1630.847097 2674.823396 -2174.065102
   vertex 1630.164604 2664.475746 -2175.467285
   vertex 1506.761392 2460.775556 -534.065102
  endloop
 endfacet
 facet normal -0.978037 0.202946 -0.047512
  outer loop
   vertex 1628.128803 2654.318401 -2176.947024
   vertex 1504.043098 2440.270561 -536.947024
   vertex 1506.078899 2450.427906 -535.467285
  endloop
 endfacet
 facet normal -0.978037 0.202946 -0.047512
  outer loop
   vertex 1630.164604 2664.475746 -2175.467285
   vertex 1628.128803 2654.318401 -2176.947024
   vertex 1506.078899 2450.427906 -535.467285
  endloop
 endfacet
 facet normal -0.944276 0.327905 -0.028649
  outer loop
   vertex 1624.774526 2644.525156 -2178.479000
   vertex 1500.688822 2430.477315 -538.479000
   vertex 1504.043098 2440.270561 -536.947024
  endloop
 endfacet
 facet normal -0.944276 0.327905 -0.028649
  outer loop
   vertex 1628.128803 2654.318401 -2176.947024
   vertex 1624.774526 2644.525156 -2178.479000
   vertex 1504.043098 2440.270561 -536.947024
  endloop
 endfacet
 facet normal -0.894359 0.447253 -0.009295
  outer loop
   vertex 1620.159167 2635.263575 -2180.037000
   vertex 1496.073463 2421.215735 -540.037000
   vertex 1500.688822 2430.477315 -538.479000
  endloop
 endfacet
 facet normal -0.894359 0.447253 -0.009295
  outer loop
   vertex 1624.774526 2644.525156 -2178.479000
   vertex 1620.159167 2635.263575 -2180.037000
   vertex 1500.688822 2430.477315 -538.479000
  endloop
 endfacet
 facet normal -0.829139 0.558949 0.010218
  outer loop
   vertex 1614.361696 2626.692128 -2181.594368
   vertex 1490.275992 2412.644288 -541.594368
   vertex 1496.073463 2421.215735 -540.037000
  endloop
 endfacet
 facet normal -0.829139 0.558949 0.010218
  outer loop
   vertex 1620.159167 2635.263575 -2180.037000
   vertex 1614.361696 2626.692128 -2181.594368
   vertex 1496.073463 2421.215735 -540.037000
  endloop
 endfacet
 facet normal -0.749733 0.661080 0.029556
  outer loop
   vertex 1607.481308 2618.957474 -2183.124456
   vertex 1483.395604 2404.909634 -543.124456
   vertex 1490.275992 2412.644288 -541.594368
  endloop
 endfacet
 facet normal -0.749733 0.661080 0.029556
  outer loop
   vertex 1614.361696 2626.692128 -2181.594368
   vertex 1607.481308 2618.957474 -2183.124456
   vertex 1490.275992 2412.644288 -541.594368
  endloop
 endfacet
 facet normal -0.657498 0.751901 0.048388
  outer loop
   vertex 1599.635730 2612.191955 -2184.601083
   vertex 1475.550026 2398.144115 -544.601083
   vertex 1483.395604 2404.909634 -543.124456
  endloop
 endfacet
 facet normal -0.657498 0.751901 0.048388
  outer loop
   vertex 1607.481308 2618.957474 -2183.124456
   vertex 1599.635730 2612.191955 -2184.601083
   vertex 1483.395604 2404.909634 -543.124456
  endloop
 endfacet
 facet normal -0.554013 0.829856 0.066393
  outer loop
   vertex 1590.959201 2606.511331 -2185.998985
   vertex 1466.873496 2392.463491 -545.998985
   vertex 1475.550026 2398.144115 -544.601083
  endloop
 endfacet
 facet normal -0.554013 0.829856 0.066393
  outer loop
   vertex 1599.635730 2612.191955 -2184.601083
   vertex 1590.959201 2606.511331 -2185.998985
   vertex 1475.550026 2398.144115 -544.601083
  endloop
 endfacet
 facet normal -0.441049 0.893612 0.083261
  outer loop
   vertex 1581.600179 2602.012799 -2187.294242
   vertex 1457.514474 2387.964959 -547.294242
   vertex 1466.873496 2392.463491 -545.998985
  endloop
 endfacet
 facet normal -0.441049 0.893612 0.083261
  outer loop
   vertex 1590.959201 2606.511331 -2185.998985
   vertex 1581.600179 2602.012799 -2187.294242
   vertex 1466.873496 2392.463491 -545.998985
  endloop
 endfacet
 facet normal -0.320539 0.942079 0.098705
  outer loop
   vertex 1571.718799 2598.773331 -2188.464693
   vertex 1447.633095 2384.725491 -548.464693
   vertex 1457.514474 2387.964959 -547.294242
  endloop
 endfacet
 facet normal -0.320539 0.942079 0.098705
  outer loop
   vertex 1581.600179 2602.012799 -2187.294242
   vertex 1571.718799 2598.773331 -2188.464693
   vertex 1457.514474 2387.964959 -547.294242
  endloop
 endfacet
 facet normal -0.194544 0.974426 0.112460
  outer loop
   vertex 1561.484135 2596.848354 -2189.490310
   vertex 1437.398431 2382.800513 -549.490310
   vertex 1447.633095 2384.725491 -548.464693
  endloop
 endfacet
 facet normal -0.194544 0.974426 0.112460
  outer loop
   vertex 1571.718799 2598.773331 -2188.464693
   vertex 1561.484135 2596.848354 -2189.490310
   vertex 1447.633095 2384.725491 -548.464693
  endloop
 endfacet
 facet normal -0.065220 0.990100 0.124290
  outer loop
   vertex 1551.071305 2596.270805 -2190.353546
   vertex 1426.985601 2382.222965 -550.353546
   vertex 1437.398431 2382.800513 -549.490310
  endloop
 endfacet
 facet normal -0.065220 0.990100 0.124290
  outer loop
   vertex 1561.484135 2596.848354 -2189.490310
   vertex 1551.071305 2596.270805 -2190.353546
   vertex 1437.398431 2382.800513 -549.490310
  endloop
 endfacet
 facet normal 0.065220 0.988834 0.133994
  outer loop
   vertex 1540.658475 2597.050566 -2191.039629
   vertex 1416.572770 2383.002726 -551.039629
   vertex 1426.985601 2382.222965 -550.353546
  endloop
 endfacet
 facet normal 0.065220 0.988834 0.133994
  outer loop
   vertex 1551.071305 2596.270805 -2190.353546
   vertex 1540.658475 2597.050566 -2191.039629
   vertex 1426.985601 2382.222965 -550.353546
  endloop
 endfacet
 facet normal 0.194544 0.970648 0.141406
  outer loop
   vertex 1530.423811 2599.174296 -2191.536822
   vertex 1406.338106 2385.126456 -551.536822
   vertex 1416.572770 2383.002726 -551.039629
  endloop
 endfacet
 facet normal 0.194544 0.970648 0.141406
  outer loop
   vertex 1540.658475 2597.050566 -2191.039629
   vertex 1530.423811 2599.174296 -2191.536822
   vertex 1416.572770 2383.002726 -551.039629
  endloop
 endfacet
 facet normal 0.320539 0.935854 0.146397
  outer loop
   vertex 1520.542431 2602.605656 -2191.836616
   vertex 1396.456727 2388.557816 -551.836616
   vertex 1406.338106 2385.126456 -551.536822
  endloop
 endfacet
 facet normal 0.320539 0.935854 0.146397
  outer loop
   vertex 1530.423811 2599.174296 -2191.536822
   vertex 1520.542431 2602.605656 -2191.836616
   vertex 1406.338106 2385.126456 -551.536822
  endloop
 endfacet
 facet normal 0.441049 0.885048 0.148884
  outer loop
   vertex 1511.183409 2607.285936 -2191.933883
   vertex 1387.097705 2393.238096 -551.933883
   vertex 1396.456727 2388.557816 -551.836616
  endloop
 endfacet
 facet normal 0.441049 0.885048 0.148884
  outer loop
   vertex 1520.542431 2602.605656 -2191.836616
   vertex 1511.183409 2607.285936 -2191.933883
   vertex 1396.456727 2388.557816 -551.836616
  endloop
 endfacet
 facet normal 0.554013 0.819098 0.148824
  outer loop
   vertex 1502.506880 2613.135054 -2191.826957
   vertex 1378.421175 2399.087214 -551.826957
   vertex 1387.097705 2393.238096 -551.933883
  endloop
 endfacet
 facet normal 0.554013 0.819098 0.148824
  outer loop
   vertex 1511.183409 2607.285936 -2191.933883
   vertex 1502.506880 2613.135054 -2191.826957
   vertex 1387.097705 2393.238096 -551.933883
  endloop
 endfacet
 facet normal 0.657498 0.739133 0.146217
  outer loop
   vertex 1494.661302 2620.052931 -2191.517669
   vertex 1370.575597 2406.005091 -551.517669
   vertex 1378.421175 2399.087214 -551.826957
  endloop
 endfacet
 facet normal 0.657498 0.739133 0.146217
  outer loop
   vertex 1502.506880 2613.135054 -2191.826957
   vertex 1494.661302 2620.052931 -2191.517669
   vertex 1378.421175 2399.087214 -551.826957
  endloop
 endfacet
 facet normal 0.749733 0.646521 0.141108
  outer loop
   vertex 1487.780914 2627.921199 -2191.011311
   vertex 1363.695210 2413.873359 -551.011311
   vertex 1370.575597 2406.005091 -551.517669
  endloop
 endfacet
 facet normal 0.749733 0.646521 0.141108
  outer loop
   vertex 1494.661302 2620.052931 -2191.517669
   vertex 1487.780914 2627.921199 -2191.011311
   vertex 1370.575597 2406.005091 -551.517669
  endloop
 endfacet
 facet normal 0.829139 0.542847 0.133585
  outer loop
   vertex 1481.983443 2636.605230 -2190.316545
   vertex 1357.897738 2422.557390 -550.316545
   vertex 1363.695210 2413.873359 -551.011311
  endloop
 endfacet
 facet normal 0.829139 0.542847 0.133585
  outer loop
   vertex 1487.780914 2627.921199 -2191.011311
   vertex 1481.983443 2636.605230 -2190.316545
   vertex 1363.695210 2413.873359 -551.011311
  endloop
 endfacet
 facet normal 0.894359 0.429885 0.123776
  outer loop
   vertex 1477.368084 2645.956439 -2189.445261
   vertex 1353.282379 2431.908599 -549.445261
   vertex 1357.897738 2422.557390 -550.316545
  endloop
 endfacet
 facet normal 0.894359 0.429885 0.123776
  outer loop
   vertex 1481.983443 2636.605230 -2190.316545
   vertex 1477.368084 2645.956439 -2189.445261
   vertex 1357.897738 2422.557390 -550.316545
  endloop
 endfacet
 facet normal 0.944276 0.309567 0.111850
  outer loop
   vertex 1474.013807 2655.814823 -2188.412366
   vertex 1349.928103 2441.766983 -548.412366
   vertex 1353.282379 2431.908599 -549.445261
  endloop
 endfacet
 facet normal 0.944276 0.309567 0.111850
  outer loop
   vertex 1477.368084 2645.956439 -2189.445261
   vertex 1474.013807 2655.814823 -2188.412366
   vertex 1353.282379 2431.908599 -549.445261
  endloop
 endfacet
 facet normal 0.978037 0.183953 0.098009
  outer loop
   vertex 1471.978006 2666.011702 -2187.235533
   vertex 1347.892302 2451.963862 -547.235533
   vertex 1349.928103 2441.766983 -548.412366
  endloop
 endfacet
 facet normal 0.978037 0.183953 0.098009
  outer loop
   vertex 1474.013807 2655.814823 -2188.412366
   vertex 1471.978006 2666.011702 -2187.235533
   vertex 1349.928103 2441.766983 -548.412366
  endloop
 endfacet
 facet normal 0.995062 0.055191 0.082492
  outer loop
   vertex 1471.295513 2676.372606 -2185.934898
   vertex 1347.209809 2462.324766 -545.934898
   vertex 1347.892302 2451.963862 -547.235533
  endloop
 endfacet
 facet normal 0.995062 0.055191 0.082492
  outer loop
   vertex 1471.978006 2666.011702 -2187.235533
   vertex 1471.295513 2676.372606 -2185.934898
   vertex 1347.892302 2451.963862 -547.235533
  endloop
 endfacet
 facet normal 0.995062 -0.074515 0.065563
  outer loop
   vertex 1471.978006 2686.720256 -2184.532715
   vertex 1347.892302 2472.672416 -544.532715
   vertex 1347.209809 2462.324766 -545.934898
  endloop
 endfacet
 facet normal 0.995062 -0.074515 0.065563
  outer loop
   vertex 1471.295513 2676.372606 -2185.934898
   vertex 1471.978006 2686.720256 -2184.532715
   vertex 1347.209809 2462.324766 -545.934898
  endloop
 endfacet
 facet normal 0.978037 -0.202946 0.047512
  outer loop
   vertex 1474.013807 2696.877601 -2183.052976
   vertex 1349.928103 2482.829761 -543.052976
   vertex 1347.892302 2472.672416 -544.532715
  endloop
 endfacet
 facet normal 0.978037 -0.202946 0.047512
  outer loop
   vertex 1471.978006 2686.720256 -2184.532715
   vertex 1474.013807 2696.877601 -2183.052976
   vertex 1347.892302 2472.672416 -544.532715
  endloop
 endfacet
 facet normal 0.944276 -0.327905 0.028649
  outer loop
   vertex 1477.368084 2706.670846 -2181.521000
   vertex 1353.282379 2492.623006 -541.521000
   vertex 1349.928103 2482.829761 -543.052976
  endloop
 endfacet
 facet normal 0.944276 -0.327905 0.028649
  outer loop
   vertex 1474.013807 2696.877601 -2183.052976
   vertex 1477.368084 2706.670846 -2181.521000
   vertex 1349.928103 2482.829761 -543.052976
  endloop
 endfacet
 facet normal 0.894359 -0.447253 0.009295
  outer loop
   vertex 1481.983443 2715.932427 -2179.963000
   vertex 1357.897738 2501.884587 -539.963000
   vertex 1353.282379 2492.623006 -541.521000
  endloop
 endfacet
 facet normal 0.894359 -0.447253 0.009295
  outer loop
   vertex 1477.368084 2706.670846 -2181.521000
   vertex 1481.983443 2715.932427 -2179.963000
   vertex 1353.282379 2492.623006 -541.521000
  endloop
 endfacet
 facet normal 0.829139 -0.558949 -0.010218
  outer loop
   vertex 1487.780914 2724.503874 -2178.405632
   vertex 1363.695210 2510.456034 -538.405632
   vertex 1357.897738 2501.884587 -539.963000
  endloop
 endfacet
 facet normal 0.829139 -0.558949 -0.010218
  outer loop
   vertex 1481.983443 2715.932427 -2179.963000
   vertex 1487.780914 2724.503874 -2178.405632
   vertex 1357.897738 2501.884587 -539.963000
  endloop
 endfacet
 facet normal 0.749733 -0.661080 -0.029556
  outer loop
   vertex 1494.661302 2732.238528 -2176.875544
   vertex 1370.575597 2518.190688 -536.875544
   vertex 1363.695210 2510.456034 -538.405632
  endloop
 endfacet
 facet normal 0.749733 -0.661080 -0.029556
  outer loop
   vertex 1487.780914 2724.503874 -2178.405632
   vertex 1494.661302 2732.238528 -2176.875544
   vertex 1363.695210 2510.456034 -538.405632
  endloop
 endfacet
 facet normal 0.657498 -0.751901 -0.048388
  outer loop
   vertex 1502.506880 2739.004047 -2175.398917
   vertex 1378.421175 2524.956207 -535.398917
   vertex 1370.575597 2518.190688 -536.875544
  endloop
 endfacet
 facet normal 0.657498 -0.751901 -0.048388
  outer loop
   vertex 1494.661302 2732.238528 -2176.875544
   vertex 1502.506880 2739.004047 -2175.398917
   vertex 1370.575597 2518.190688 -536.875544
  endloop
 endfacet
 facet normal 0.554013 -0.829856 -0.066393
  outer loop
   vertex 1511.183409 2744.684671 -2174.001015
   vertex 1387.097705 2530.636831 -534.001015
   vertex 1378.421175 2524.956207 -535.398917
  endloop
 endfacet
 facet normal 0.554013 -0.829856 -0.066393
  outer loop
   vertex 1502.506880 2739.004047 -2175.398917
   vertex 1511.183409 2744.684671 -2174.001015
   vertex 1378.421175 2524.956207 -535.398917
  endloop
 endfacet
 facet normal 0.441049 -0.893612 -0.083261
  outer loop
   vertex 1520.542431 2749.183203 -2172.705758
   vertex 1396.456727 2535.135363 -532.705758
   vertex 1387.097705 2530.636831 -534.001015
  endloop
 endfacet
 facet normal 0.441049 -0.893612 -0.083261
  outer loop
   vertex 1511.183409 2744.684671 -2174.001015
   vertex 1520.542431 2749.183203 -2172.705758
   vertex 1387.097705 2530.636831 -534.001015
  endloop
 endfacet
 facet normal 0.320539 -0.942079 -0.098705
  outer loop
   vertex 1530.423811 2752.422671 -2171.535307
   vertex 1406.338106 2538.374831 -531.535307
   vertex 1396.456727 2535.135363 -532.705758
  endloop
 endfacet
 facet normal 0.320539 -0.942079 -0.098705
  outer loop
   vertex 1520.542431 2749.183203 -2172.705758
   vertex 1530.423811 2752.422671 -2171.535307
   vertex 1396.456727 2535.135363 -532.705758
  endloop
 endfacet
 facet normal 0.194544 -0.974426 -0.112460
  outer loop
   vertex 1540.658475 2754.347649 -2170.509690
   vertex 1416.572770 2540.299808 -530.509690
   vertex 1406.338106 2538.374831 -531.535307
  endloop
 endfacet
 facet normal 0.194544 -0.974426 -0.112460
  outer loop
   vertex 1530.423811 2752.422671 -2171.535307
   vertex 1540.658475 2754.347649 -2170.509690
   vertex 1406.338106 2538.374831 -531.535307
  endloop
 endfacet
 facet normal 0.065220 -0.990100 -0.124290
  outer loop
   vertex 1551.071305 2754.925197 -2169.646454
   vertex 1426.985601 2540.877357 -529.646454
   vertex 1416.572770 2540.299808 -530.509690
  endloop
 endfacet
 facet normal 0.065220 -0.990100 -0.124290
  outer loop
   vertex 1540.658475 2754.347649 -2170.509690
   vertex 1551.071305 2754.925197 -2169.646454
   vertex 1416.572770 2540.299808 -530.509690
  endloop
 endfacet
endsolid SII_LOX_feed_4_drop
