solid SII_LOX_feed_0_drop
 facet normal 0.064668 0.997859 -0.009779
  outer loop
   vertex -2852.000000 90.000000 -540.000000
   vertex -2840.384698 89.230038 -541.756460
   vertex -3088.384698 89.230038 -2181.756460
  endloop
 endfacet
 facet normal 0.064668 0.997859 -0.009779
  outer loop
   vertex -2852.000000 90.000000 -540.000000
   vertex -3088.384698 89.230038 -2181.756460
   vertex -3100.000000 90.000000 -2180.000000
  endloop
 endfacet
 facet normal 0.192897 0.980785 -0.029170
  outer loop
   vertex -2840.384698 89.230038 -541.756460
   vertex -2828.968136 86.933324 -543.482867
   vertex -3076.968136 86.933324 -2183.482867
  endloop
 endfacet
 facet normal 0.192897 0.980785 -0.029170
  outer loop
   vertex -2840.384698 89.230038 -541.756460
   vertex -3076.968136 86.933324 -2183.482867
   vertex -3088.384698 89.230038 -2181.756460
  endloop
 endfacet
 facet normal 0.317826 0.946930 -0.048062
  outer loop
   vertex -2828.968136 86.933324 -543.482867
   vertex -2817.945656 83.149158 -545.149681
   vertex -3065.945656 83.149158 -2185.149681
  endloop
 endfacet
 facet normal 0.317826 0.946930 -0.048062
  outer loop
   vertex -2828.968136 86.933324 -543.482867
   vertex -3065.945656 83.149158 -2185.149681
   vertex -3076.968136 86.933324 -2183.482867
  endloop
 endfacet
 facet normal 0.437317 0.896873 -0.066131
  outer loop
   vertex -2817.945656 83.149158 -545.149681
   vertex -2807.505856 77.942286 -546.728383
   vertex -3055.505856 77.942286 -2186.728383
  endloop
 endfacet
 facet normal 0.437317 0.896873 -0.066131
  outer loop
   vertex -2817.945656 83.149158 -545.149681
   vertex -3055.505856 77.942286 -2186.728383
   vertex -3065.945656 83.149158 -2185.149681
  endloop
 endfacet
 facet normal 0.549325 0.831470 -0.083069
  outer loop
   vertex -2807.505856 77.942286 -546.728383
   vertex -2797.827362 71.401801 -548.191960
   vertex -3045.827362 71.401801 -2188.191960
  endloop
 endfacet
 facet normal 0.549325 0.831470 -0.083069
  outer loop
   vertex -2807.505856 77.942286 -546.728383
   vertex -3045.827362 71.401801 -2188.191960
   vertex -3055.505856 77.942286 -2186.728383
  endloop
 endfacet
 facet normal 0.651934 0.751840 -0.098585
  outer loop
   vertex -2797.827362 71.401801 -548.191960
   vertex -2789.075778 63.639610 -549.515370
   vertex -3037.075778 63.639610 -2189.515370
  endloop
 endfacet
 facet normal 0.651934 0.751840 -0.098585
  outer loop
   vertex -2797.827362 71.401801 -548.191960
   vertex -3037.075778 63.639610 -2189.515370
   vertex -3045.827362 71.401801 -2188.191960
  endloop
 endfacet
 facet normal 0.743388 0.659346 -0.112415
  outer loop
   vertex -2789.075778 63.639610 -549.515370
   vertex -2781.400844 54.788529 -550.675970
   vertex -3029.400844 54.788529 -2190.675970
  endloop
 endfacet
 facet normal 0.743388 0.659346 -0.112415
  outer loop
   vertex -2789.075778 63.639610 -549.515370
   vertex -3029.400844 54.788529 -2190.675970
   vertex -3037.075778 63.639610 -2189.515370
  endloop
 endfacet
 facet normal 0.822123 0.555570 -0.124321
  outer loop
   vertex -2781.400844 54.788529 -550.675970
   vertex -2774.933882 45.000000 -551.653901
   vertex -3022.933882 45.000000 -2191.653901
  endloop
 endfacet
 facet normal 0.822123 0.555570 -0.124321
  outer loop
   vertex -2781.400844 54.788529 -550.675970
   vertex -3022.933882 45.000000 -2191.653901
   vertex -3029.400844 54.788529 -2190.675970
  endloop
 endfacet
 facet normal 0.886791 0.442289 -0.134100
  outer loop
   vertex -2774.933882 45.000000 -551.653901
   vertex -2769.785542 34.441509 -552.432430
   vertex -3017.785542 34.441509 -2192.432430
  endloop
 endfacet
 facet normal 0.886791 0.442289 -0.134100
  outer loop
   vertex -2774.933882 45.000000 -551.653901
   vertex -3017.785542 34.441509 -2192.432430
   vertex -3022.933882 45.000000 -2191.653901
  endloop
 endfacet
 facet normal 0.936285 0.321439 -0.141585
  outer loop
   vertex -2769.785542 34.441509 -552.432430
   vertex -2766.043914 23.293714 -552.998237
   vertex -3014.043914 23.293714 -2192.998237
  endloop
 endfacet
 facet normal 0.936285 0.321439 -0.141585
  outer loop
   vertex -2769.785542 34.441509 -552.432430
   vertex -3014.043914 23.293714 -2192.998237
   vertex -3017.785542 34.441509 -2192.432430
  endloop
 endfacet
 facet normal 0.969760 0.195090 -0.146647
  outer loop
   vertex -2766.043914 23.293714 -552.998237
   vertex -2763.773019 11.747357 -553.341641
   vertex -3011.773019 11.747357 -2193.341641
  endloop
 endfacet
 facet normal 0.969760 0.195090 -0.146647
  outer loop
   vertex -2766.043914 23.293714 -552.998237
   vertex -3011.773019 11.747357 -2193.341641
   vertex -3014.043914 23.293714 -2192.998237
  endloop
 endfacet
 facet normal 0.986642 0.065403 -0.149199
  outer loop
   vertex -2763.773019 11.747357 -553.341641
   vertex -2763.011712 0.000000 -553.456766
   vertex -3011.011712 0.000000 -2193.456766
  endloop
 endfacet
 facet normal 0.986642 0.065403 -0.149199
  outer loop
   vertex -2763.773019 11.747357 -553.341641
   vertex -3011.011712 0.000000 -2193.456766
   vertex -3011.773019 11.747357 -2193.341641
  endloop
 endfacet
 facet normal 0.986642 -0.065403 -0.149199
  outer loop
   vertex -2763.011712 0.000000 -553.456766
   vertex -2763.773019 -11.747357 -553.341641
   vertex -3011.773019 -11.747357 -2193.341641
  endloop
 endfacet
 facet normal 0.986642 -0.065403 -0.149199
  outer loop
   vertex -2763.011712 0.000000 -553.456766
   vertex -3011.773019 -11.747357 -2193.341641
   vertex -3011.011712 0.000000 -2193.456766
  endloop
 endfacet
 facet normal 0.969760 -0.195090 -0.146647
  outer loop
   vertex -2763.773019 -11.747357 -553.341641
   vertex -2766.043914 -23.293714 -552.998237
   vertex -3014.043914 -23.293714 -2192.998237
  endloop
 endfacet
 facet normal 0.969760 -0.195090 -0.146647
  outer loop
   vertex -2763.773019 -11.747357 -553.341641
   vertex -3014.043914 -23.293714 -2192.998237
   vertex -3011.773019 -11.747357 -2193.341641
  endloop
 endfacet
 facet normal 0.936285 -0.321439 -0.141585
  outer loop
   vertex -2766.043914 -23.293714 -552.998237
   vertex -2769.785542 -34.441509 -552.432430
   vertex -3017.785542 -34.441509 -2192.432430
  endloop
 endfacet
 facet normal 0.936285 -0.321439 -0.141585
  outer loop
   vertex -2766.043914 -23.293714 -552.998237
   vertex -3017.785542 -34.441509 -2192.432430
   vertex -3014.043914 -23.293714 -2192.998237
  endloop
 endfacet
 facet normal 0.886791 -0.442289 -0.134100
  outer loop
   vertex -2769.785542 -34.441509 -552.432430
   vertex -2774.933882 -45.000000 -551.653901
   vertex -3022.933882 -45.000000 -2191.653901
  endloop
 endfacet
 facet normal 0.886791 -0.442289 -0.134100
  outer loop
   vertex -2769.785542 -34.441509 -552.432430
   vertex -3022.933882 -45.000000 -2191.653901
   vertex -3017.785542 -34.441509 -2192.432430
  endloop
 endfacet
 facet normal 0.822123 -0.555570 -0.124321
  outer loop
   vertex -2774.933882 -45.000000 -551.653901
   vertex -2781.400844 -54.788529 -550.675970
   vertex -3029.400844 -54.788529 -2190.675970
  endloop
 endfacet
 facet normal 0.822123 -0.555570 -0.124321
  outer loop
   vertex -2774.933882 -45.000000 -551.653901
   vertex -3029.400844 -54.788529 -2190.675970
   vertex -3022.933882 -45.000000 -2191.653901
  endloop
 endfacet
 facet normal 0.743388 -0.659346 -0.112415
  outer loop
   vertex -2781.400844 -54.788529 -550.675970
   vertex -2789.075778 -63.639610 -549.515370
   vertex -3037.075778 -63.639610 -2189.515370
  endloop
 endfacet
 facet normal 0.743388 -0.659346 -0.112415
  outer loop
   vertex -2781.400844 -54.788529 -550.675970
   vertex -3037.075778 -63.639610 -2189.515370
   vertex -3029.400844 -54.788529 -2190.675970
  endloop
 endfacet
 facet normal 0.651934 -0.751840 -0.098585
  outer loop
   vertex -2789.075778 -63.639610 -549.515370
   vertex -2797.827362 -71.401801 -548.191960
   vertex -3045.827362 -71.401801 -2188.191960
  endloop
 endfacet
 facet normal 0.651934 -0.751840 -0.098585
  outer loop
   vertex -2789.075778 -63.639610 -549.515370
   vertex -3045.827362 -71.401801 -2188.191960
   vertex -3037.075778 -63.639610 -2189.515370
  endloop
 endfacet
 facet normal 0.549325 -0.831470 -0.083069
  outer loop
   vertex -2797.827362 -71.401801 -548.191960
   vertex -2807.505856 -77.942286 -546.728383
   vertex -3055.505856 -77.942286 -2186.728383
  endloop
 endfacet
 facet normal 0.549325 -0.831470 -0.083069
  outer loop
   vertex -2797.827362 -71.401801 -548.191960
   vertex -3055.505856 -77.942286 -2186.728383
   vertex -3045.827362 -71.401801 -2188.191960
  endloop
 endfacet
 facet normal 0.437317 -0.896873 -0.066131
  outer loop
   vertex -2807.505856 -77.942286 -546.728383
   vertex -2817.945656 -83.149158 -545.149681
   vertex -3065.945656 -83.149158 -2185.149681
  endloop
 endfacet
 facet normal 0.437317 -0.896873 -0.066131
  outer loop
   vertex -2807.505856 -77.942286 -546.728383
   vertex -3065.945656 -83.149158 -2185.149681
   vertex -3055.505856 -77.942286 -2186.728383
  endloop
 endfacet
 facet normal 0.317826 -0.946930 -0.048062
  outer loop
   vertex -2817.945656 -83.149158 -545.149681
   vertex -2828.968136 -86.933324 -543.482867
   vertex -3076.968136 -86.933324 -2183.482867
  endloop
 endfacet
 facet normal 0.317826 -0.946930 -0.048062
  outer loop
   vertex -2817.945656 -83.149158 -545.149681
   vertex -3076.968136 -86.933324 -2183.482867
   vertex -3065.945656 -83.149158 -2185.149681
  endloop
 endfacet
 facet normal 0.192897 -0.980785 -0.029170
  outer loop
   vertex -2828.968136 -86.933324 -543.482867
   vertex -2840.384698 -89.230038 -541.756460
   vertex -3088.384698 -89.230038 -2181.756460
  endloop
 endfacet
 facet normal 0.192897 -0.980785 -0.029170
  outer loop
   vertex -2828.968136 -86.933324 -543.482867
   vertex -3088.384698 -89.230038 -2181.756460
   vertex -3076.968136 -86.933324 -2183.482867
  endloop
 endfacet
 facet normal 0.064668 -0.997859 -0.009779
  outer loop
   vertex -2840.384698 -89.230038 -541.756460
   vertex -2852.000000 -90.000000 -540.000000
   vertex -3100.000000 -90.000000 -2180.000000
  endloop
 endfacet
 facet normal 0.064668 -0.997859 -0.009779
  outer loop
   vertex -2840.384698 -89.230038 -541.756460
   vertex -3100.000000 -90.000000 -2180.000000
   vertex -3088.384698 -89.230038 -2181.756460
  endloop
 endfacet
 facet normal -0.064668 -0.997859 0.009779
  outer loop
   vertex -2852.000000 -90.000000 -540.000000
   vertex -2863.615302 -89.230038 -538.243540
   vertex -3111.615302 -89.230038 -2178.243540
  endloop
 endfacet
 facet normal -0.064668 -0.997859 0.009779
  outer loop
   vertex -2852.000000 -90.000000 -540.000000
   vertex -3111.615302 -89.230038 -2178.243540
   vertex -3100.000000 -90.000000 -2180.000000
  endloop
 endfacet
 facet normal -0.192897 -0.980785 0.029170
  outer loop
   vertex -2863.615302 -89.230038 -538.243540
   vertex -2875.031864 -86.933324 -536.517133
   vertex -3123.031864 -86.933324 -2176.517133
  endloop
 endfacet
 facet normal -0.192897 -0.980785 0.029170
  outer loop
   vertex -2863.615302 -89.230038 -538.243540
   vertex -3123.031864 -86.933324 -2176.517133
   vertex -3111.615302 -89.230038 -2178.243540
  endloop
 endfacet
 facet normal -0.317826 -0.946930 0.048062
  outer loop
   vertex -2875.031864 -86.933324 -536.517133
   vertex -2886.054344 -83.149158 -534.850319
   vertex -3134.054344 -83.149158 -2174.850319
  endloop
 endfacet
 facet normal -0.317826 -0.946930 0.048062
  outer loop
   vertex -2875.031864 -86.933324 -536.517133
   vertex -3134.054344 -83.149158 -2174.850319
   vertex -3123.031864 -86.933324 -2176.517133
  endloop
 endfacet
 facet normal -0.437317 -0.896873 0.066131
  outer loop
   vertex -2886.054344 -83.149158 -534.850319
   vertex -2896.494144 -77.942286 -533.271617
   vertex -3144.494144 -77.942286 -2173.271617
  endloop
 endfacet
 facet normal -0.437317 -0.896873 0.066131
  outer loop
   vertex -2886.054344 -83.149158 -534.850319
   vertex -3144.494144 -77.942286 -2173.271617
   vertex -3134.054344 -83.149158 -2174.850319
  endloop
 endfacet
 facet normal -0.549325 -0.831470 0.083069
  outer loop
   vertex -2896.494144 -77.942286 -533.271617
   vertex -2906.172638 -71.401801 -531.808040
   vertex -3154.172638 -71.401801 -2171.808040
  endloop
 endfacet
 facet normal -0.549325 -0.831470 0.083069
  outer loop
   vertex -2896.494144 -77.942286 -533.271617
   vertex -3154.172638 -71.401801 -2171.808040
   vertex -3144.494144 -77.942286 -2173.271617
  endloop
 endfacet
 facet normal -0.651934 -0.751840 0.098585
  outer loop
   vertex -2906.172638 -71.401801 -531.808040
   vertex -2914.924222 -63.639610 -530.484630
   vertex -3162.924222 -63.639610 -2170.484630
  endloop
 endfacet
 facet normal -0.651934 -0.751840 0.098585
  outer loop
   vertex -2906.172638 -71.401801 -531.808040
   vertex -3162.924222 -63.639610 -2170.484630
   vertex -3154.172638 -71.401801 -2171.808040
  endloop
 endfacet
 facet normal -0.743388 -0.659346 0.112415
  outer loop
   vertex -2914.924222 -63.639610 -530.484630
   vertex -2922.599156 -54.788529 -529.324030
   vertex -3170.599156 -54.788529 -2169.324030
  endloop
 endfacet
 facet normal -0.743388 -0.659346 0.112415
  outer loop
   vertex -2914.924222 -63.639610 -530.484630
   vertex -3170.599156 -54.788529 -2169.324030
   vertex -3162.924222 -63.639610 -2170.484630
  endloop
 endfacet
 facet normal -0.822123 -0.555570 0.124321
  outer loop
   vertex -2922.599156 -54.788529 -529.324030
   vertex -2929.066118 -45.000000 -528.346099
   vertex -3177.066118 -45.000000 -2168.346099
  endloop
 endfacet
 facet normal -0.822123 -0.555570 0.124321
  outer loop
   vertex -2922.599156 -54.788529 -529.324030
   vertex -3177.066118 -45.000000 -2168.346099
   vertex -3170.599156 -54.788529 -2169.324030
  endloop
 endfacet
 facet normal -0.886791 -0.442289 0.134100
  outer loop
   vertex -2929.066118 -45.000000 -528.346099
   vertex -2934.214458 -34.441509 -527.567570
   vertex -3182.214458 -34.441509 -2167.567570
  endloop
 endfacet
 facet normal -0.886791 -0.442289 0.134100
  outer loop
   vertex -2929.066118 -45.000000 -528.346099
   vertex -3182.214458 -34.441509 -2167.567570
   vertex -3177.066118 -45.000000 -2168.346099
  endloop
 endfacet
 facet normal -0.936285 -0.321439 0.141585
  outer loop
   vertex -2934.214458 -34.441509 -527.567570
   vertex -2937.956086 -23.293714 -527.001763
   vertex -3185.956086 -23.293714 -2167.001763
  endloop
 endfacet
 facet normal -0.936285 -0.321439 0.141585
  outer loop
   vertex -2934.214458 -34.441509 -527.567570
   vertex -3185.956086 -23.293714 -2167.001763
   vertex -3182.214458 -34.441509 -2167.567570
  endloop
 endfacet
 facet normal -0.969760 -0.195090 0.146647
  outer loop
   vertex -2937.956086 -23.293714 -527.001763
   vertex -2940.226981 -11.747357 -526.658359
   vertex -3188.226981 -11.747357 -2166.658359
  endloop
 endfacet
 facet normal -0.969760 -0.195090 0.146647
  outer loop
   vertex -2937.956086 -23.293714 -527.001763
   vertex -3188.226981 -11.747357 -2166.658359
   vertex -3185.956086 -23.293714 -2167.001763
  endloop
 endfacet
 facet normal -0.986642 -0.065403 0.149199
  outer loop
   vertex -2940.226981 -11.747357 -526.658359
   vertex -2940.988288 -0.000000 -526.543234
   vertex -3188.988288 -0.000000 -2166.543234
  endloop
 endfacet
 facet normal -0.986642 -0.065403 0.149199
  outer loop
   vertex -2940.226981 -11.747357 -526.658359
   vertex -3188.988288 -0.000000 -2166.543234
   vertex -3188.226981 -11.747357 -2166.658359
  endloop
 endfacet
 facet normal -0.986642 0.065403 0.149199
  outer loop
   vertex -2940.988288 -0.000000 -526.543234
   vertex -2940.226981 11.747357 -526.658359
   vertex -3188.226981 11.747357 -2166.658359
  endloop
 endfacet
 facet normal -0.986642 0.065403 0.149199
  outer loop
   vertex -2940.988288 -0.000000 -526.543234
   vertex -3188.226981 11.747357 -2166.658359
   vertex -3188.988288 -0.000000 -2166.543234
  endloop
 endfacet
 facet normal -0.969760 0.195090 0.146647
  outer loop
   vertex -2940.226981 11.747357 -526.658359
   vertex -2937.956086 23.293714 -527.001763
   vertex -3185.956086 23.293714 -2167.001763
  endloop
 endfacet
 facet normal -0.969760 0.195090 0.146647
  outer loop
   vertex -2940.226981 11.747357 -526.658359
   vertex -3185.956086 23.293714 -2167.001763
   vertex -3188.226981 11.747357 -2166.658359
  endloop
 endfacet
 facet normal -0.936285 0.321439 0.141585
  outer loop
   vertex -2937.956086 23.293714 -527.001763
   vertex -2934.214458 34.441509 -527.567570
   vertex -3182.214458 34.441509 -2167.567570
  endloop
 endfacet
 facet normal -0.936285 0.321439 0.141585
  outer loop
   vertex -2937.956086 23.293714 -527.001763
   vertex -3182.214458 34.441509 -2167.567570
   vertex -3185.956086 23.293714 -2167.001763
  endloop
 endfacet
 facet normal -0.886791 0.442289 0.134100
  outer loop
   vertex -2934.214458 34.441509 -527.567570
   vertex -2929.066118 45.000000 -528.346099
   vertex -3177.066118 45.000000 -2168.346099
  endloop
 endfacet
 facet normal -0.886791 0.442289 0.134100
  outer loop
   vertex -2934.214458 34.441509 -527.567570
   vertex -3177.066118 45.000000 -2168.346099
   vertex -3182.214458 34.441509 -2167.567570
  endloop
 endfacet
 facet normal -0.822123 0.555570 0.124321
  outer loop
   vertex -2929.066118 45.000000 -528.346099
   vertex -2922.599156 54.788529 -529.324030
   vertex -3170.599156 54.788529 -2169.324030
  endloop
 endfacet
 facet normal -0.822123 0.555570 0.124321
  outer loop
   vertex -2929.066118 45.000000 -528.346099
   vertex -3170.599156 54.788529 -2169.324030
   vertex -3177.066118 45.000000 -2168.346099
  endloop
 endfacet
 facet normal -0.743388 0.659346 0.112415
  outer loop
   vertex -2922.599156 54.788529 -529.324030
   vertex -2914.924222 63.639610 -530.484630
   vertex -3162.924222 63.639610 -2170.484630
  endloop
 endfacet
 facet normal -0.743388 0.659346 0.112415
  outer loop
   vertex -2922.599156 54.788529 -529.324030
   vertex -3162.924222 63.639610 -2170.484630
   vertex -3170.599156 54.788529 -2169.324030
  endloop
 endfacet
 facet normal -0.651934 0.751840 0.098585
  outer loop
   vertex -2914.924222 63.639610 -530.484630
   vertex -2906.172638 71.401801 -531.808040
   vertex -3154.172638 71.401801 -2171.808040
  endloop
 endfacet
 facet normal -0.651934 0.751840 0.098585
  outer loop
   vertex -2914.924222 63.639610 -530.484630
   vertex -3154.172638 71.401801 -2171.808040
   vertex -3162.924222 63.639610 -2170.484630
  endloop
 endfacet
 facet normal -0.549325 0.831470 0.083069
  outer loop
   vertex -2906.172638 71.401801 -531.808040
   vertex -2896.494144 77.942286 -533.271617
   vertex -3144.494144 77.942286 -2173.271617
  endloop
 endfacet
 facet normal -0.549325 0.831470 0.083069
  outer loop
   vertex -2906.172638 71.401801 -531.808040
   vertex -3144.494144 77.942286 -2173.271617
   vertex -3154.172638 71.401801 -2171.808040
  endloop
 endfacet
 facet normal -0.437317 0.896873 0.066131
  outer loop
   vertex -2896.494144 77.942286 -533.271617
   vertex -2886.054344 83.149158 -534.850319
   vertex -3134.054344 83.149158 -2174.850319
  endloop
 endfacet
 facet normal -0.437317 0.896873 0.066131
  outer loop
   vertex -2896.494144 77.942286 -533.271617
   vertex -3134.054344 83.149158 -2174.850319
   vertex -3144.494144 77.942286 -2173.271617
  endloop
 endfacet
 facet normal -0.317826 0.946930 0.048062
  outer loop
   vertex -2886.054344 83.149158 -534.850319
   vertex -2875.031864 86.933324 -536.517133
   vertex -3123.031864 86.933324 -2176.517133
  endloop
 endfacet
 facet normal -0.317826 0.946930 0.048062
  outer loop
   vertex -2886.054344 83.149158 -534.850319
   vertex -3123.031864 86.933324 -2176.517133
   vertex -3134.054344 83.149158 -2174.850319
  endloop
 endfacet
 facet normal -0.192897 0.980785 0.029170
  outer loop
   vertex -2875.031864 86.933324 -536.517133
   vertex -2863.615302 89.230038 -538.243540
   vertex -3111.615302 89.230038 -2178.243540
  endloop
 endfacet
 facet normal -0.192897 0.980785 0.029170
  outer loop
   vertex -2875.031864 86.933324 -536.517133
   vertex -3111.615302 89.230038 -2178.243540
   vertex -3123.031864 86.933324 -2176.517133
  endloop
 endfacet
 facet normal -0.064668 0.997859 0.009779
  outer loop
   vertex -2863.615302 89.230038 -538.243540
   vertex -2852.000000 90.000000 -540.000000
   vertex -3100.000000 90.000000 -2180.000000
  endloop
 endfacet
 facet normal -0.064668 0.997859 0.009779
  outer loop
   vertex -2863.615302 89.230038 -538.243540
   vertex -3100.000000 90.000000 -2180.000000
   vertex -3111.615302 89.230038 -2178.243540
  endloop
 endfacet
 facet normal -0.064668 -0.997859 0.009779
  outer loop
   vertex -3089.675287 79.315589 -2181.561298
   vertex -2841.675287 79.315589 -541.561298
   vertex -2852.000000 80.000000 -540.000000
  endloop
 endfacet
 facet normal -0.064668 -0.997859 0.009779
  outer loop
   vertex -3100.000000 80.000000 -2180.000000
   vertex -3089.675287 79.315589 -2181.561298
   vertex -2852.000000 80.000000 -540.000000
  endloop
 endfacet
 facet normal -0.192897 -0.980785 0.029170
  outer loop
   vertex -3079.527232 77.274066 -2183.095882
   vertex -2831.527232 77.274066 -543.095882
   vertex -2841.675287 79.315589 -541.561298
  endloop
 endfacet
 facet normal -0.192897 -0.980785 0.029170
  outer loop
   vertex -3089.675287 79.315589 -2181.561298
   vertex -3079.527232 77.274066 -2183.095882
   vertex -2841.675287 79.315589 -541.561298
  endloop
 endfacet
 facet normal -0.317826 -0.946930 0.048062
  outer loop
   vertex -3069.729472 73.910363 -2184.577494
   vertex -2821.729472 73.910363 -544.577494
   vertex -2831.527232 77.274066 -543.095882
  endloop
 endfacet
 facet normal -0.317826 -0.946930 0.048062
  outer loop
   vertex -3079.527232 77.274066 -2183.095882
   vertex -3069.729472 73.910363 -2184.577494
   vertex -2831.527232 77.274066 -543.095882
  endloop
 endfacet
 facet normal -0.437317 -0.896873 0.066131
  outer loop
   vertex -3060.449650 69.282032 -2185.980785
   vertex -2812.449650 69.282032 -545.980785
   vertex -2821.729472 73.910363 -544.577494
  endloop
 endfacet
 facet normal -0.437317 -0.896873 0.066131
  outer loop
   vertex -3069.729472 73.910363 -2184.577494
   vertex -3060.449650 69.282032 -2185.980785
   vertex -2821.729472 73.910363 -544.577494
  endloop
 endfacet
 facet normal -0.549325 -0.831470 0.083069
  outer loop
   vertex -3051.846544 63.468267 -2187.281742
   vertex -2803.846544 63.468267 -547.281742
   vertex -2812.449650 69.282032 -545.980785
  endloop
 endfacet
 facet normal -0.549325 -0.831470 0.083069
  outer loop
   vertex -3060.449650 69.282032 -2185.980785
   vertex -3051.846544 63.468267 -2187.281742
   vertex -2812.449650 69.282032 -545.980785
  endloop
 endfacet
 facet normal -0.651934 -0.751840 0.098585
  outer loop
   vertex -3044.067358 56.568542 -2188.458107
   vertex -2796.067358 56.568542 -548.458107
   vertex -2803.846544 63.468267 -547.281742
  endloop
 endfacet
 facet normal -0.651934 -0.751840 0.098585
  outer loop
   vertex -3051.846544 63.468267 -2187.281742
   vertex -3044.067358 56.568542 -2188.458107
   vertex -2803.846544 63.468267 -547.281742
  endloop
 endfacet
 facet normal -0.743388 -0.659346 0.112415
  outer loop
   vertex -3037.245195 48.700914 -2189.489751
   vertex -2789.245195 48.700914 -549.489751
   vertex -2796.067358 56.568542 -548.458107
  endloop
 endfacet
 facet normal -0.743388 -0.659346 0.112415
  outer loop
   vertex -3044.067358 56.568542 -2188.458107
   vertex -3037.245195 48.700914 -2189.489751
   vertex -2796.067358 56.568542 -548.458107
  endloop
 endfacet
 facet normal -0.822123 -0.555570 0.124321
  outer loop
   vertex -3031.496784 40.000000 -2190.359023
   vertex -2783.496784 40.000000 -550.359023
   vertex -2789.245195 48.700914 -549.489751
  endloop
 endfacet
 facet normal -0.822123 -0.555570 0.124321
  outer loop
   vertex -3037.245195 48.700914 -2189.489751
   vertex -3031.496784 40.000000 -2190.359023
   vertex -2789.245195 48.700914 -549.489751
  endloop
 endfacet
 facet normal -0.886791 -0.442289 0.134100
  outer loop
   vertex -3026.920482 30.614675 -2191.051049
   vertex -2778.920482 30.614675 -551.051049
   vertex -2783.496784 40.000000 -550.359023
  endloop
 endfacet
 facet normal -0.886791 -0.442289 0.134100
  outer loop
   vertex -3031.496784 40.000000 -2190.359023
   vertex -3026.920482 30.614675 -2191.051049
   vertex -2783.496784 40.000000 -550.359023
  endloop
 endfacet
 facet normal -0.936285 -0.321439 0.141585
  outer loop
   vertex -3023.594590 20.705524 -2191.553989
   vertex -2775.594590 20.705524 -551.553989
   vertex -2778.920482 30.614675 -551.051049
  endloop
 endfacet
 facet normal -0.936285 -0.321439 0.141585
  outer loop
   vertex -3026.920482 30.614675 -2191.051049
   vertex -3023.594590 20.705524 -2191.553989
   vertex -2778.920482 30.614675 -551.051049
  endloop
 endfacet
 facet normal -0.969760 -0.195090 0.146647
  outer loop
   vertex -3021.576017 10.442095 -2191.859236
   vertex -2773.576017 10.442095 -551.859236
   vertex -2775.594590 20.705524 -551.553989
  endloop
 endfacet
 facet normal -0.969760 -0.195090 0.146647
  outer loop
   vertex -3023.594590 20.705524 -2191.553989
   vertex -3021.576017 10.442095 -2191.859236
   vertex -2775.594590 20.705524 -551.553989
  endloop
 endfacet
 facet normal -0.986642 -0.065403 0.149199
  outer loop
   vertex -3020.899299 0.000000 -2191.961569
   vertex -2772.899299 0.000000 -551.961569
   vertex -2773.576017 10.442095 -551.859236
  endloop
 endfacet
 facet normal -0.986642 -0.065403 0.149199
  outer loop
   vertex -3021.576017 10.442095 -2191.859236
   vertex -3020.899299 0.000000 -2191.961569
   vertex -2773.576017 10.442095 -551.859236
  endloop
 endfacet
 facet normal -0.986642 0.065403 0.149199
  outer loop
   vertex -3021.576017 -10.442095 -2191.859236
   vertex -2773.576017 -10.442095 -551.859236
   vertex -2772.899299 0.000000 -551.961569
  endloop
 endfacet
 facet normal -0.986642 0.065403 0.149199
  outer loop
   vertex -3020.899299 0.000000 -2191.961569
   vertex -3021.576017 -10.442095 -2191.859236
   vertex -2772.899299 0.000000 -551.961569
  endloop
 endfacet
 facet normal -0.969760 0.195090 0.146647
  outer loop
   vertex -3023.594590 -20.705524 -2191.553989
   vertex -2775.594590 -20.705524 -551.553989
   vertex -2773.576017 -10.442095 -551.859236
  endloop
 endfacet
 facet normal -0.969760 0.195090 0.146647
  outer loop
   vertex -3021.576017 -10.442095 -2191.859236
   vertex -3023.594590 -20.705524 -2191.553989
   vertex -2773.576017 -10.442095 -551.859236
  endloop
 endfacet
 facet normal -0.936285 0.321439 0.141585
  outer loop
   vertex -3026.920482 -30.614675 -2191.051049
   vertex -2778.920482 -30.614675 -551.051049
   vertex -2775.594590 -20.705524 -551.553989
  endloop
 endfacet
 facet normal -0.936285 0.321439 0.141585
  outer loop
   vertex -3023.594590 -20.705524 -2191.553989
   vertex -3026.920482 -30.614675 -2191.051049
   vertex -2775.594590 -20.705524 -551.553989
  endloop
 endfacet
 facet normal -0.886791 0.442289 0.134100
  outer loop
   vertex -3031.496784 -40.000000 -2190.359023
   vertex -2783.496784 -40.000000 -550.359023
   vertex -2778.920482 -30.614675 -551.051049
  endloop
 endfacet
 facet normal -0.886791 0.442289 0.134100
  outer loop
   vertex -3026.920482 -30.614675 -2191.051049
   vertex -3031.496784 -40.000000 -2190.359023
   vertex -2778.920482 -30.614675 -551.051049
  endloop
 endfacet
 facet normal -0.822123 0.555570 0.124321
  outer loop
   vertex -3037.245195 -48.700914 -2189.489751
   vertex -2789.245195 -48.700914 -549.489751
   vertex -2783.496784 -40.000000 -550.359023
  endloop
 endfacet
 facet normal -0.822123 0.555570 0.124321
  outer loop
   vertex -3031.496784 -40.000000 -2190.359023
   vertex -3037.245195 -48.700914 -2189.489751
   vertex -2783.496784 -40.000000 -550.359023
  endloop
 endfacet
 facet normal -0.743388 0.659346 0.112415
  outer loop
   vertex -3044.067358 -56.568542 -2188.458107
   vertex -2796.067358 -56.568542 -548.458107
   vertex -2789.245195 -48.700914 -549.489751
  endloop
 endfacet
 facet normal -0.743388 0.659346 0.112415
  outer loop
   vertex -3037.245195 -48.700914 -2189.489751
   vertex -3044.067358 -56.568542 -2188.458107
   vertex -2789.245195 -48.700914 -549.489751
  endloop
 endfacet
 facet normal -0.651934 0.751840 0.098585
  outer loop
   vertex -3051.846544 -63.468267 -2187.281742
   vertex -2803.846544 -63.468267 -547.281742
   vertex -2796.067358 -56.568542 -548.458107
  endloop
 endfacet
 facet normal -0.651934 0.751840 0.098585
  outer loop
   vertex -3044.067358 -56.568542 -2188.458107
   vertex -3051.846544 -63.468267 -2187.281742
   vertex -2796.067358 -56.568542 -548.458107
  endloop
 endfacet
 facet normal -0.549325 0.831470 0.083069
  outer loop
   vertex -3060.449650 -69.282032 -2185.980785
   vertex -2812.449650 -69.282032 -545.980785
   vertex -2803.846544 -63.468267 -547.281742
  endloop
 endfacet
 facet normal -0.549325 0.831470 0.083069
  outer loop
   vertex -3051.846544 -63.468267 -2187.281742
   vertex -3060.449650 -69.282032 -2185.980785
   vertex -2803.846544 -63.468267 -547.281742
  endloop
 endfacet
 facet normal -0.437317 0.896873 0.066131
  outer loop
   vertex -3069.729472 -73.910363 -2184.577494
   vertex -2821.729472 -73.910363 -544.577494
   vertex -2812.449650 -69.282032 -545.980785
  endloop
 endfacet
 facet normal -0.437317 0.896873 0.066131
  outer loop
   vertex -3060.449650 -69.282032 -2185.980785
   vertex -3069.729472 -73.910363 -2184.577494
   vertex -2812.449650 -69.282032 -545.980785
  endloop
 endfacet
 facet normal -0.317826 0.946930 0.048062
  outer loop
   vertex -3079.527232 -77.274066 -2183.095882
   vertex -2831.527232 -77.274066 -543.095882
   vertex -2821.729472 -73.910363 -544.577494
  endloop
 endfacet
 facet normal -0.317826 0.946930 0.048062
  outer loop
   vertex -3069.729472 -73.910363 -2184.577494
   vertex -3079.527232 -77.274066 -2183.095882
   vertex -2821.729472 -73.910363 -544.577494
  endloop
 endfacet
 facet normal -0.192897 0.980785 0.029170
  outer loop
   vertex -3089.675287 -79.315589 -2181.561298
   vertex -2841.675287 -79.315589 -541.561298
   vertex -2831.527232 -77.274066 -543.095882
  endloop
 endfacet
 facet normal -0.192897 0.980785 0.029170
  outer loop
   vertex -3079.527232 -77.274066 -2183.095882
   vertex -3089.675287 -79.315589 -2181.561298
   vertex -2831.527232 -77.274066 -543.095882
  endloop
 endfacet
 facet normal -0.064668 0.997859 0.009779
  outer loop
   vertex -3100.000000 -80.000000 -2180.000000
   vertex -2852.000000 -80.000000 -540.000000
   vertex -2841.675287 -79.315589 -541.561298
  endloop
 endfacet
 facet normal -0.064668 0.997859 0.009779
  outer loop
   vertex -3089.675287 -79.315589 -2181.561298
   vertex -3100.000000 -80.000000 -2180.000000
   vertex -2841.675287 -79.315589 -541.561298
  endloop
 endfacet
 facet normal 0.064668 0.997859 -0.009779
  outer loop
   vertex -3110.324713 -79.315589 -2178.438702
   vertex -2862.324713 -79.315589 -538.438702
   vertex -2852.000000 -80.000000 -540.000000
  endloop
 endfacet
 facet normal 0.064668 0.997859 -0.009779
  outer loop
   vertex -3100.000000 -80.000000 -2180.000000
   vertex -3110.324713 -79.315589 -2178.438702
   vertex -2852.000000 -80.000000 -540.000000
  endloop
 endfacet
 facet normal 0.192897 0.980785 -0.029170
  outer loop
   vertex -3120.472768 -77.274066 -2176.904118
   vertex -2872.472768 -77.274066 -536.904118
   vertex -2862.324713 -79.315589 -538.438702
  endloop
 endfacet
 facet normal 0.192897 0.980785 -0.029170
  outer loop
   vertex -3110.324713 -79.315589 -2178.438702
   vertex -3120.472768 -77.274066 -2176.904118
   vertex -2862.324713 -79.315589 -538.438702
  endloop
 endfacet
 facet normal 0.317826 0.946930 -0.048062
  outer loop
   vertex -3130.270528 -73.910363 -2175.422506
   vertex -2882.270528 -73.910363 -535.422506
   vertex -2872.472768 -77.274066 -536.904118
  endloop
 endfacet
 facet normal 0.317826 0.946930 -0.048062
  outer loop
   vertex -3120.472768 -77.274066 -2176.904118
   vertex -3130.270528 -73.910363 -2175.422506
   vertex -2872.472768 -77.274066 -536.904118
  endloop
 endfacet
 facet normal 0.437317 0.896873 -0.066131
  outer loop
   vertex -3139.550350 -69.282032 -2174.019215
   vertex -2891.550350 -69.282032 -534.019215
   vertex -2882.270528 -73.910363 -535.422506
  endloop
 endfacet
 facet normal 0.437317 0.896873 -0.066131
  outer loop
   vertex -3130.270528 -73.910363 -2175.422506
   vertex -3139.550350 -69.282032 -2174.019215
   vertex -2882.270528 -73.910363 -535.422506
  endloop
 endfacet
 facet normal 0.549325 0.831470 -0.083069
  outer loop
   vertex -3148.153456 -63.468267 -2172.718258
   vertex -2900.153456 -63.468267 -532.718258
   vertex -2891.550350 -69.282032 -534.019215
  endloop
 endfacet
 facet normal 0.549325 0.831470 -0.083069
  outer loop
   vertex -3139.550350 -69.282032 -2174.019215
   vertex -3148.153456 -63.468267 -2172.718258
   vertex -2891.550350 -69.282032 -534.019215
  endloop
 endfacet
 facet normal 0.651934 0.751840 -0.098585
  outer loop
   vertex -3155.932642 -56.568542 -2171.541893
   vertex -2907.932642 -56.568542 -531.541893
   vertex -2900.153456 -63.468267 -532.718258
  endloop
 endfacet
 facet normal 0.651934 0.751840 -0.098585
  outer loop
   vertex -3148.153456 -63.468267 -2172.718258
   vertex -3155.932642 -56.568542 -2171.541893
   vertex -2900.153456 -63.468267 -532.718258
  endloop
 endfacet
 facet normal 0.743388 0.659346 -0.112415
  outer loop
   vertex -3162.754805 -48.700914 -2170.510249
   vertex -2914.754805 -48.700914 -530.510249
   vertex -2907.932642 -56.568542 -531.541893
  endloop
 endfacet
 facet normal 0.743388 0.659346 -0.112415
  outer loop
   vertex -3155.932642 -56.568542 -2171.541893
   vertex -3162.754805 -48.700914 -2170.510249
   vertex -2907.932642 -56.568542 -531.541893
  endloop
 endfacet
 facet normal 0.822123 0.555570 -0.124321
  outer loop
   vertex -3168.503216 -40.000000 -2169.640977
   vertex -2920.503216 -40.000000 -529.640977
   vertex -2914.754805 -48.700914 -530.510249
  endloop
 endfacet
 facet normal 0.822123 0.555570 -0.124321
  outer loop
   vertex -3162.754805 -48.700914 -2170.510249
   vertex -3168.503216 -40.000000 -2169.640977
   vertex -2914.754805 -48.700914 -530.510249
  endloop
 endfacet
 facet normal 0.886791 0.442289 -0.134100
  outer loop
   vertex -3173.079518 -30.614675 -2168.948951
   vertex -2925.079518 -30.614675 -528.948951
   vertex -2920.503216 -40.000000 -529.640977
  endloop
 endfacet
 facet normal 0.886791 0.442289 -0.134100
  outer loop
   vertex -3168.503216 -40.000000 -2169.640977
   vertex -3173.079518 -30.614675 -2168.948951
   vertex -2920.503216 -40.000000 -529.640977
  endloop
 endfacet
 facet normal 0.936285 0.321439 -0.141585
  outer loop
   vertex -3176.405410 -20.705524 -2168.446011
   vertex -2928.405410 -20.705524 -528.446011
   vertex -2925.079518 -30.614675 -528.948951
  endloop
 endfacet
 facet normal 0.936285 0.321439 -0.141585
  outer loop
   vertex -3173.079518 -30.614675 -2168.948951
   vertex -3176.405410 -20.705524 -2168.446011
   vertex -2925.079518 -30.614675 -528.948951
  endloop
 endfacet
 facet normal 0.969760 0.195090 -0.146647
  outer loop
   vertex -3178.423983 -10.442095 -2168.140764
   vertex -2930.423983 -10.442095 -528.140764
   vertex -2928.405410 -20.705524 -528.446011
  endloop
 endfacet
 facet normal 0.969760 0.195090 -0.146647
  outer loop
   vertex -3176.405410 -20.705524 -2168.446011
   vertex -3178.423983 -10.442095 -2168.140764
   vertex -2928.405410 -20.705524 -528.446011
  endloop
 endfacet
 facet normal 0.986642 0.065403 -0.149199
  outer loop
   vertex -3179.100701 -0.000000 -2168.038431
   vertex -2931.100701 -0.000000 -528.038431
   vertex -2930.423983 -10.442095 -528.140764
  endloop
 endfacet
 facet normal 0.986642 0.065403 -0.149199
  outer loop
   vertex -3178.423983 -10.442095 -2168.140764
   vertex -3179.100701 -0.000000 -2168.038431
   vertex -2930.423983 -10.442095 -528.140764
  endloop
 endfacet
 facet normal 0.986642 -0.065403 -0.149199
  outer loop
   vertex -3178.423983 10.442095 -2168.140764
   vertex -2930.423983 10.442095 -528.140764
   vertex -2931.100701 -0.000000 -528.038431
  endloop
 endfacet
 facet normal 0.986642 -0.065403 -0.149199
  outer loop
   vertex -3179.100701 -0.000000 -2168.038431
   vertex -3178.423983 10.442095 -2168.140764
   vertex -2931.100701 -0.000000 -528.038431
  endloop
 endfacet
 facet normal 0.969760 -0.195090 -0.146647
  outer loop
   vertex -3176.405410 20.705524 -2168.446011
   vertex -2928.405410 20.705524 -528.446011
   vertex -2930.423983 10.442095 -528.140764
  endloop
 endfacet
 facet normal 0.969760 -0.195090 -0.146647
  outer loop
   vertex -3178.423983 10.442095 -2168.140764
   vertex -3176.405410 20.705524 -2168.446011
   vertex -2930.423983 10.442095 -528.140764
  endloop
 endfacet
 facet normal 0.936285 -0.321439 -0.141585
  outer loop
   vertex -3173.079518 30.614675 -2168.948951
   vertex -2925.079518 30.614675 -528.948951
   vertex -2928.405410 20.705524 -528.446011
  endloop
 endfacet
 facet normal 0.936285 -0.321439 -0.141585
  outer loop
   vertex -3176.405410 20.705524 -2168.446011
   vertex -3173.079518 30.614675 -2168.948951
   vertex -2928.405410 20.705524 -528.446011
  endloop
 endfacet
 facet normal 0.886791 -0.442289 -0.134100
  outer loop
   vertex -3168.503216 40.000000 -2169.640977
   vertex -2920.503216 40.000000 -529.640977
   vertex -2925.079518 30.614675 -528.948951
  endloop
 endfacet
 facet normal 0.886791 -0.442289 -0.134100
  outer loop
   vertex -3173.079518 30.614675 -2168.948951
   vertex -3168.503216 40.000000 -2169.640977
   vertex -2925.079518 30.614675 -528.948951
  endloop
 endfacet
 facet normal 0.822123 -0.555570 -0.124321
  outer loop
   vertex -3162.754805 48.700914 -2170.510249
   vertex -2914.754805 48.700914 -530.510249
   vertex -2920.503216 40.000000 -529.640977
  endloop
 endfacet
 facet normal 0.822123 -0.555570 -0.124321
  outer loop
   vertex -3168.503216 40.000000 -2169.640977
   vertex -3162.754805 48.700914 -2170.510249
   vertex -2920.503216 40.000000 -529.640977
  endloop
 endfacet
 facet normal 0.743388 -0.659346 -0.112415
  outer loop
   vertex -3155.932642 56.568542 -2171.541893
   vertex -2907.932642 56.568542 -531.541893
   vertex -2914.754805 48.700914 -530.510249
  endloop
 endfacet
 facet normal 0.743388 -0.659346 -0.112415
  outer loop
   vertex -3162.754805 48.700914 -2170.510249
   vertex -3155.932642 56.568542 -2171.541893
   vertex -2914.754805 48.700914 -530.510249
  endloop
 endfacet
 facet normal 0.651934 -0.751840 -0.098585
  outer loop
   vertex -3148.153456 63.468267 -2172.718258
   vertex -2900.153456 63.468267 -532.718258
   vertex -2907.932642 56.568542 -531.541893
  endloop
 endfacet
 facet normal 0.651934 -0.751840 -0.098585
  outer loop
   vertex -3155.932642 56.568542 -2171.541893
   vertex -3148.153456 63.468267 -2172.718258
   vertex -2907.932642 56.568542 -531.541893
  endloop
 endfacet
 facet normal 0.549325 -0.831470 -0.083069
  outer loop
   vertex -3139.550350 69.282032 -2174.019215
   vertex -2891.550350 69.282032 -534.019215
   vertex -2900.153456 63.468267 -532.718258
  endloop
 endfacet
 facet normal 0.549325 -0.831470 -0.083069
  outer loop
   vertex -3148.153456 63.468267 -2172.718258
   vertex -3139.550350 69.282032 -2174.019215
   vertex -2900.153456 63.468267 -532.718258
  endloop
 endfacet
 facet normal 0.437317 -0.896873 -0.066131
  outer loop
   vertex -3130.270528 73.910363 -2175.422506
   vertex -2882.270528 73.910363 -535.422506
   vertex -2891.550350 69.282032 -534.019215
  endloop
 endfacet
 facet normal 0.437317 -0.896873 -0.066131
  outer loop
   vertex -3139.550350 69.282032 -2174.019215
   vertex -3130.270528 73.910363 -2175.422506
   vertex -2891.550350 69.282032 -534.019215
  endloop
 endfacet
 facet normal 0.317826 -0.946930 -0.048062
  outer loop
   vertex -3120.472768 77.274066 -2176.904118
   vertex -2872.472768 77.274066 -536.904118
   vertex -2882.270528 73.910363 -535.422506
  endloop
 endfacet
 facet normal 0.317826 -0.946930 -0.048062
  outer loop
   vertex -3130.270528 73.910363 -2175.422506
   vertex -3120.472768 77.274066 -2176.904118
   vertex -2882.270528 73.910363 -535.422506
  endloop
 endfacet
 facet normal 0.192897 -0.980785 -0.029170
  outer loop
   vertex -3110.324713 79.315589 -2178.438702
   vertex -2862.324713 79.315589 -538.438702
   vertex -2872.472768 77.274066 -536.904118
  endloop
 endfacet
 facet normal 0.192897 -0.980785 -0.029170
  outer loop
   vertex -3120.472768 77.274066 -2176.904118
   vertex -3110.324713 79.315589 -2178.438702
   vertex -2872.472768 77.274066 -536.904118
  endloop
 endfacet
 facet normal 0.064668 -0.997859 -0.009779
  outer loop
   vertex -3100.000000 80.000000 -2180.000000
   vertex -2852.000000 80.000000 -540.000000
   vertex -2862.324713 79.315589 -538.438702
  endloop
 endfacet
 facet normal 0.064668 -0.997859 -0.009779
  outer loop
   vertex -3110.324713 79.315589 -2178.438702
   vertex -3100.000000 80.000000 -2180.000000
   vertex -2862.324713 79.315589 -538.438702
  endloop
 endfacet
endsolid SII_LOX_feed_0_drop
