solid F1_inlet_stub_2
 facet normal 0.065403 0.997859 0.000000
  outer loop
   vertex 0.000000 50.000000 -1940.000000
   vertex 6.526310 49.572243 -1940.000000
   vertex 6.526310 49.572243 -2140.000000
  endloop
 endfacet
 facet normal 0.065403 0.997859 0.000000
  outer loop
   vertex 0.000000 50.000000 -1940.000000
   vertex 6.526310 49.572243 -2140.000000
   vertex 0.000000 50.000000 -2140.000000
  endloop
 endfacet
 facet normal 0.195090 0.980785 0.000000
  outer loop
   vertex 6.526310 49.572243 -1940.000000
   vertex 12.940952 48.296291 -1940.000000
   vertex 12.940952 48.296291 -2140.000000
  endloop
 endfacet
 facet normal 0.195090 0.980785 0.000000
  outer loop
   vertex 6.526310 49.572243 -1940.000000
   vertex 12.940952 48.296291 -2140.000000
   vertex 6.526310 49.572243 -2140.000000
  endloop
 endfacet
 facet normal 0.321439 0.946930 0.000000
  outer loop
   vertex 12.940952 48.296291 -1940.000000
   vertex 19.134172 46.193977 -1940.000000
   vertex 19.134172 46.193977 -2140.000000
  endloop
 endfacet
 facet normal 0.321439 0.946930 0.000000
  outer loop
   vertex 12.940952 48.296291 -1940.000000
   vertex 19.134172 46.193977 -2140.000000
   vertex 12.940952 48.296291 -2140.000000
  endloop
 endfacet
 facet normal 0.442289 0.896873 0.000000
  outer loop
   vertex 19.134172 46.193977 -1940.000000
   vertex 25.000000 43.301270 -1940.000000
   vertex 25.000000 43.301270 -2140.000000
  endloop
 endfacet
 facet normal 0.442289 0.896873 0.000000
  outer loop
   vertex 19.134172 46.193977 -1940.000000
   vertex 25.000000 43.301270 -2140.000000
   vertex 19.134172 46.193977 -2140.000000
  endloop
 endfacet
 facet normal 0.555570 0.831470 0.000000
  outer loop
   vertex 25.000000 43.301270 -1940.000000
   vertex 30.438071 39.667667 -1940.000000
   vertex 30.438071 39.667667 -2140.000000
  endloop
 endfacet
 facet normal 0.555570 0.831470 0.000000
  outer loop
   vertex 25.000000 43.301270 -1940.000000
   vertex 30.438071 39.667667 -2140.000000
   vertex 25.000000 43.301270 -2140.000000
  endloop
 endfacet
 facet normal 0.659346 0.751840 0.000000
  outer loop
   vertex 30.438071 39.667667 -1940.000000
   vertex 35.355339 35.355339 -1940.000000
   vertex 35.355339 35.355339 -2140.000000
  endloop
 endfacet
 facet normal 0.659346 0.751840 0.000000
  outer loop
   vertex 30.438071 39.667667 -1940.000000
   vertex 35.355339 35.355339 -2140.000000
   vertex 30.438071 39.667667 -2140.000000
  endloop
 endfacet
 facet normal 0.751840 0.659346 0.000000
  outer loop
   vertex 35.355339 35.355339 -1940.000000
   vertex 39.667667 30.438071 -1940.000000
   vertex 39.667667 30.438071 -2140.000000
  endloop
 endfacet
 facet normal 0.751840 0.659346 0.000000
  outer loop
   vertex 35.355339 35.355339 -1940.000000
   vertex 39.667667 30.438071 -2140.000000
   vertex 35.355339 35.355339 -2140.000000
  endloop
 endfacet
 facet normal 0.831470 0.555570 0.000000
  outer loop
   vertex 39.667667 30.438071 -1940.000000
   vertex 43.301270 25.000000 -1940.000000
   vertex 43.301270 25.000000 -2140.000000
  endloop
 endfacet
 facet normal 0.831470 0.555570 0.000000
  outer loop
   vertex 39.667667 30.438071 -1940.000000
   vertex 43.301270 25.000000 -2140.000000
   vertex 39.667667 30.438071 -2140.000000
  endloop
 endfacet
 facet normal 0.896873 0.442289 0.000000
  outer loop
   vertex 43.301270 25.000000 -1940.000000
   vertex 46.193977 19.134172 -1940.000000
   vertex 46.193977 19.134172 -2140.000000
  endloop
 endfacet
 facet normal 0.896873 0.442289 0.000000
  outer loop
   vertex 43.301270 25.000000 -1940.000000
   vertex 46.193977 19.134172 -2140.000000
   vertex 43.301270 25.000000 -2140.000000
  endloop
 endfacet
 facet normal 0.946930 0.321439 0.000000
  outer loop
   vertex 46.193977 19.134172 -1940.000000
   vertex 48.296291 12.940952 -1940.000000
   vertex 48.296291 12.940952 -2140.000000
  endloop
 endfacet
 facet normal 0.946930 0.321439 0.000000
  outer loop
   vertex 46.193977 19.134172 -1940.000000
   vertex 48.296291 12.940952 -2140.000000
   vertex 46.193977 19.134172 -2140.000000
  endloop
 endfacet
 facet normal 0.980785 0.195090 0.000000
  outer loop
   vertex 48.296291 12.940952 -1940.000000
   vertex 49.572243 6.526310 -1940.000000
   vertex 49.572243 6.526310 -2140.000000
  endloop
 endfacet
 facet normal 0.980785 0.195090 0.000000
  outer loop
   vertex 48.296291 12.940952 -1940.000000
   vertex 49.572243 6.526310 -2140.000000
   vertex 48.296291 12.940952 -2140.000000
  endloop
 endfacet
 facet normal 0.997859 0.065403 0.000000
  outer loop
   vertex 49.572243 6.526310 -1940.000000
   vertex 50.000000 0.000000 -1940.000000
   vertex 50.000000 0.000000 -2140.000000
  endloop
 endfacet
 facet normal 0.997859 0.065403 0.000000
  outer loop
   vertex 49.572243 6.526310 -1940.000000
   vertex 50.000000 0.000000 -2140.000000
   vertex 49.572243 6.526310 -2140.000000
  endloop
 endfacet
 facet normal 0.997859 -0.065403 0.000000
  outer loop
   vertex 50.000000 0.000000 -1940.000000
   vertex 49.572243 -6.526310 -1940.000000
   vertex 49.572243 -6.526310 -2140.000000
  endloop
 endfacet
 facet normal 0.997859 -0.065403 0.000000
  outer loop
   vertex 50.000000 0.000000 -1940.000000
   vertex 49.572243 -6.526310 -2140.000000
   vertex 50.000000 0.000000 -2140.000000
  endloop
 endfacet
 facet normal 0.980785 -0.195090 0.000000
  outer loop
   vertex 49.572243 -6.526310 -1940.000000
   vertex 48.296291 -12.940952 -1940.000000
   vertex 48.296291 -12.940952 -2140.000000
  endloop
 endfacet
 facet normal 0.980785 -0.195090 0.000000
  outer loop
   vertex 49.572243 -6.526310 -1940.000000
   vertex 48.296291 -12.940952 -2140.000000
   vertex 49.572243 -6.526310 -2140.000000
  endloop
 endfacet
 facet normal 0.946930 -0.321439 0.000000
  outer loop
   vertex 48.296291 -12.940952 -1940.000000
   vertex 46.193977 -19.134172 -1940.000000
   vertex 46.193977 -19.134172 -2140.000000
  endloop
 endfacet
 facet normal 0.946930 -0.321439 0.000000
  outer loop
   vertex 48.296291 -12.940952 -1940.000000
   vertex 46.193977 -19.134172 -2140.000000
   vertex 48.296291 -12.940952 -2140.000000
  endloop
 endfacet
 facet normal 0.896873 -0.442289 0.000000
  outer loop
   vertex 46.193977 -19.134172 -1940.000000
   vertex 43.301270 -25.000000 -1940.000000
   vertex 43.301270 -25.000000 -2140.000000
  endloop
 endfacet
 facet normal 0.896873 -0.442289 0.000000
  outer loop
   vertex 46.193977 -19.134172 -1940.000000
   vertex 43.301270 -25.000000 -2140.000000
   vertex 46.193977 -19.134172 -2140.000000
  endloop
 endfacet
 facet normal 0.831470 -0.555570 0.000000
  outer loop
   vertex 43.301270 -25.000000 -1940.000000
   vertex 39.667667 -30.438071 -1940.000000
   vertex 39.667667 -30.438071 -2140.000000
  endloop
 endfacet
 facet normal 0.831470 -0.555570 0.000000
  outer loop
   vertex 43.301270 -25.000000 -1940.000000
   vertex 39.667667 -30.438071 -2140.000000
   vertex 43.301270 -25.000000 -2140.000000
  endloop
 endfacet
 facet normal 0.751840 -0.659346 0.000000
  outer loop
   vertex 39.667667 -30.438071 -1940.000000
   vertex 35.355339 -35.355339 -1940.000000
   vertex 35.355339 -35.355339 -2140.000000
  endloop
 endfacet
 facet normal 0.751840 -0.659346 0.000000
  outer loop
   vertex 39.667667 -30.438071 -1940.000000
   vertex 35.355339 -35.355339 -2140.000000
   vertex 39.667667 -30.438071 -2140.000000
  endloop
 endfacet
 facet normal 0.659346 -0.751840 0.000000
  outer loop
   vertex 35.355339 -35.355339 -1940.000000
   vertex 30.438071 -39.667667 -1940.000000
   vertex 30.438071 -39.667667 -2140.000000
  endloop
 endfacet
 facet normal 0.659346 -0.751840 0.000000
  outer loop
   vertex 35.355339 -35.355339 -1940.000000
   vertex 30.438071 -39.667667 -2140.000000
   vertex 35.355339 -35.355339 -2140.000000
  endloop
 endfacet
 facet normal 0.555570 -0.831470 0.000000
  outer loop
   vertex 30.438071 -39.667667 -1940.000000
   vertex 25.000000 -43.301270 -1940.000000
   vertex 25.000000 -43.301270 -2140.000000
  endloop
 endfacet
 facet normal 0.555570 -0.831470 0.000000
  outer loop
   vertex 30.438071 -39.667667 -1940.000000
   vertex 25.000000 -43.301270 -2140.000000
   vertex 30.438071 -39.667667 -2140.000000
  endloop
 endfacet
 facet normal 0.442289 -0.896873 0.000000
  outer loop
   vertex 25.000000 -43.301270 -1940.000000
   vertex 19.134172 -46.193977 -1940.000000
   vertex 19.134172 -46.193977 -2140.000000
  endloop
 endfacet
 facet normal 0.442289 -0.896873 0.000000
  outer loop
   vertex 25.000000 -43.301270 -1940.000000
   vertex 19.134172 -46.193977 -2140.000000
   vertex 25.000000 -43.301270 -2140.000000
  endloop
 endfacet
 facet normal 0.321439 -0.946930 0.000000
  outer loop
   vertex 19.134172 -46.193977 -1940.000000
   vertex 12.940952 -48.296291 -1940.000000
   vertex 12.940952 -48.296291 -2140.000000
  endloop
 endfacet
 facet normal 0.321439 -0.946930 0.000000
  outer loop
   vertex 19.134172 -46.193977 -1940.000000
   vertex 12.940952 -48.296291 -2140.000000
   vertex 19.134172 -46.193977 -2140.000000
  endloop
 endfacet
 facet normal 0.195090 -0.980785 0.000000
  outer loop
   vertex 12.940952 -48.296291 -1940.000000
   vertex 6.526310 -49.572243 -1940.000000
   vertex 6.526310 -49.572243 -2140.000000
  endloop
 endfacet
 facet normal 0.195090 -0.980785 0.000000
  outer loop
   vertex 12.940952 -48.296291 -1940.000000
   vertex 6.526310 -49.572243 -2140.000000
   vertex 12.940952 -48.296291 -2140.000000
  endloop
 endfacet
 facet normal 0.065403 -0.997859 0.000000
  outer loop
   vertex 6.526310 -49.572243 -1940.000000
   vertex 0.000000 -50.000000 -1940.000000
   vertex 0.000000 -50.000000 -2140.000000
  endloop
 endfacet
 facet normal 0.065403 -0.997859 0.000000
  outer loop
   vertex 6.526310 -49.572243 -1940.000000
   vertex 0.000000 -50.000000 -2140.000000
   vertex 6.526310 -49.572243 -2140.000000
  endloop
 endfacet
 facet normal -0.065403 -0.997859 0.000000
  outer loop
   vertex 0.000000 -50.000000 -1940.000000
   vertex -6.526310 -49.572243 -1940.000000
   vertex -6.526310 -49.572243 -2140.000000
  endloop
 endfacet
 facet normal -0.065403 -0.997859 -0.000000
  outer loop
   vertex 0.000000 -50.000000 -1940.000000
   vertex -6.526310 -49.572243 -2140.000000
   vertex 0.000000 -50.000000 -2140.000000
  endloop
 endfacet
 facet normal -0.195090 -0.980785 0.000000
  outer loop
   vertex -6.526310 -49.572243 -1940.000000
   vertex -12.940952 -48.296291 -1940.000000
   vertex -12.940952 -48.296291 -2140.000000
  endloop
 endfacet
 facet normal -0.195090 -0.980785 -0.000000
  outer loop
   vertex -6.526310 -49.572243 -1940.000000
   vertex -12.940952 -48.296291 -2140.000000
   vertex -6.526310 -49.572243 -2140.000000
  endloop
 endfacet
 facet normal -0.321439 -0.946930 0.000000
  outer loop
   vertex -12.940952 -48.296291 -1940.000000
   vertex -19.134172 -46.193977 -1940.000000
   vertex -19.134172 -46.193977 -2140.000000
  endloop
 endfacet
 facet normal -0.321439 -0.946930 -0.000000
  outer loop
   vertex -12.940952 -48.296291 -1940.000000
   vertex -19.134172 -46.193977 -2140.000000
   vertex -12.940952 -48.296291 -2140.000000
  endloop
 endfacet
 facet normal -0.442289 -0.896873 0.000000
  outer loop
   vertex -19.134172 -46.193977 -1940.000000
   vertex -25.000000 -43.301270 -1940.000000
   vertex -25.000000 -43.301270 -2140.000000
  endloop
 endfacet
 facet normal -0.442289 -0.896873 -0.000000
  outer loop
   vertex -19.134172 -46.193977 -1940.000000
   vertex -25.000000 -43.301270 -2140.000000
   vertex -19.134172 -46.193977 -2140.000000
  endloop
 endfacet
 facet normal -0.555570 -0.831470 0.000000
  outer loop
   vertex -25.000000 -43.301270 -1940.000000
   vertex -30.438071 -39.667667 -1940.000000
   vertex -30.438071 -39.667667 -2140.000000
  endloop
 endfacet
 facet normal -0.555570 -0.831470 -0.000000
  outer loop
   vertex -25.000000 -43.301270 -1940.000000
   vertex -30.438071 -39.667667 -2140.000000
   vertex -25.000000 -43.301270 -2140.000000
  endloop
 endfacet
 facet normal -0.659346 -0.751840 0.000000
  outer loop
   vertex -30.438071 -39.667667 -1940.000000
   vertex -35.355339 -35.355339 -1940.000000
   vertex -35.355339 -35.355339 -2140.000000
  endloop
 endfacet
 facet normal -0.659346 -0.751840 -0.000000
  outer loop
   vertex -30.438071 -39.667667 -1940.000000
   vertex -35.355339 -35.355339 -2140.000000
   vertex -30.438071 -39.667667 -2140.000000
  endloop
 endfacet
 facet normal -0.751840 -0.659346 0.000000
  outer loop
   vertex -35.355339 -35.355339 -1940.000000
   vertex -39.667667 -30.438071 -1940.000000
   vertex -39.667667 -30.438071 -2140.000000
  endloop
 endfacet
 facet normal -0.751840 -0.659346 -0.000000
  outer loop
   vertex -35.355339 -35.355339 -1940.000000
   vertex -39.667667 -30.438071 -2140.000000
   vertex -35.355339 -35.355339 -2140.000000
  endloop
 endfacet
 facet normal -0.831470 -0.555570 0.000000
  outer loop
   vertex -39.667667 -30.438071 -1940.000000
   vertex -43.301270 -25.000000 -1940.000000
   vertex -43.301270 -25.000000 -2140.000000
  endloop
 endfacet
 facet normal -0.831470 -0.555570 -0.000000
  outer loop
   vertex -39.667667 -30.438071 -1940.000000
   vertex -43.301270 -25.000000 -2140.000000
   vertex -39.667667 -30.438071 -2140.000000
  endloop
 endfacet
 facet normal -0.896873 -0.442289 0.000000
  outer loop
   vertex -43.301270 -25.000000 -1940.000000
   vertex -46.193977 -19.134172 -1940.000000
   vertex -46.193977 -19.134172 -2140.000000
  endloop
 endfacet
 facet normal -0.896873 -0.442289 -0.000000
  outer loop
   vertex -43.301270 -25.000000 -1940.000000
   vertex -46.193977 -19.134172 -2140.000000
   vertex -43.301270 -25.000000 -2140.000000
  endloop
 endfacet
 facet normal -0.946930 -0.321439 0.000000
  outer loop
   vertex -46.193977 -19.134172 -1940.000000
   vertex -48.296291 -12.940952 -1940.000000
   vertex -48.296291 -12.940952 -2140.000000
  endloop
 endfacet
 facet normal -0.946930 -0.321439 -0.000000
  outer loop
   vertex -46.193977 -19.134172 -1940.000000
   vertex -48.296291 -12.940952 -2140.000000
   vertex -46.193977 -19.134172 -2140.000000
  endloop
 endfacet
 facet normal -0.980785 -0.195090 0.000000
  outer loop
   vertex -48.296291 -12.940952 -1940.000000
   vertex -49.572243 -6.526310 -1940.000000
   vertex -49.572243 -6.526310 -2140.000000
  endloop
 endfacet
 facet normal -0.980785 -0.195090 -0.000000
  outer loop
   vertex -48.296291 -12.940952 -1940.000000
   vertex -49.572243 -6.526310 -2140.000000
   vertex -48.296291 -12.940952 -2140.000000
  endloop
 endfacet
 facet normal -0.997859 -0.065403 0.000000
  outer loop
   vertex -49.572243 -6.526310 -1940.000000
   vertex -50.000000 -0.000000 -1940.000000
   vertex -50.000000 -0.000000 -2140.000000
  endloop
 endfacet
 facet normal -0.997859 -0.065403 -0.000000
  outer loop
   vertex -49.572243 -6.526310 -1940.000000
   vertex -50.000000 -0.000000 -2140.000000
   vertex -49.572243 -6.526310 -2140.000000
  endloop
 endfacet
 facet normal -0.997859 0.065403 0.000000
  outer loop
   vertex -50.000000 -0.000000 -1940.000000
   vertex -49.572243 6.526310 -1940.000000
   vertex -49.572243 6.526310 -2140.000000
  endloop
 endfacet
 facet normal -0.997859 0.065403 0.000000
  outer loop
   vertex -50.000000 -0.000000 -1940.000000
   vertex -49.572243 6.526310 -2140.000000
   vertex -50.000000 -0.000000 -2140.000000
  endloop
 endfacet
 facet normal -0.980785 0.195090 0.000000
  outer loop
   vertex -49.572243 6.526310 -1940.000000
   vertex -48.296291 12.940952 -1940.000000
   vertex -48.296291 12.940952 -2140.000000
  endloop
 endfacet
 facet normal -0.980785 0.195090 0.000000
  outer loop
   vertex -49.572243 6.526310 -1940.000000
   vertex -48.296291 12.940952 -2140.000000
   vertex -49.572243 6.526310 -2140.000000
  endloop
 endfacet
 facet normal -0.946930 0.321439 0.000000
  outer loop
   vertex -48.296291 12.940952 -1940.000000
   vertex -46.193977 19.134172 -1940.000000
   vertex -46.193977 19.134172 -2140.000000
  endloop
 endfacet
 facet normal -0.946930 0.321439 0.000000
  outer loop
   vertex -48.296291 12.940952 -1940.000000
   vertex -46.193977 19.134172 -2140.000000
   vertex -48.296291 12.940952 -2140.000000
  endloop
 endfacet
 facet normal -0.896873 0.442289 0.000000
  outer loop
   vertex -46.193977 19.134172 -1940.000000
   vertex -43.301270 25.000000 -1940.000000
   vertex -43.301270 25.000000 -2140.000000
  endloop
 endfacet
 facet normal -0.896873 0.442289 0.000000
  outer loop
   vertex -46.193977 19.134172 -1940.000000
   vertex -43.301270 25.000000 -2140.000000
   vertex -46.193977 19.134172 -2140.000000
  endloop
 endfacet
 facet normal -0.831470 0.555570 0.000000
  outer loop
   vertex -43.301270 25.000000 -1940.000000
   vertex -39.667667 30.438071 -1940.000000
   vertex -39.667667 30.438071 -2140.000000
  endloop
 endfacet
 facet normal -0.831470 0.555570 0.000000
  outer loop
   vertex -43.301270 25.000000 -1940.000000
   vertex -39.667667 30.438071 -2140.000000
   vertex -43.301270 25.000000 -2140.000000
  endloop
 endfacet
 facet normal -0.751840 0.659346 0.000000
  outer loop
   vertex -39.667667 30.438071 -1940.000000
   vertex -35.355339 35.355339 -1940.000000
   vertex -35.355339 35.355339 -2140.000000
  endloop
 endfacet
 facet normal -0.751840 0.659346 0.000000
  outer loop
   vertex -39.667667 30.438071 -1940.000000
   vertex -35.355339 35.355339 -2140.000000
   vertex -39.667667 30.438071 -2140.000000
  endloop
 endfacet
 facet normal -0.659346 0.751840 0.000000
  outer loop
   vertex -35.355339 35.355339 -1940.000000
   vertex -30.438071 39.667667 -1940.000000
   vertex -30.438071 39.667667 -2140.000000
  endloop
 endfacet
 facet normal -0.659346 0.751840 0.000000
  outer loop
   vertex -35.355339 35.355339 -1940.000000
   vertex -30.438071 39.667667 -2140.000000
   vertex -35.355339 35.355339 -2140.000000
  endloop
 endfacet
 facet normal -0.555570 0.831470 0.000000
  outer loop
   vertex -30.438071 39.667667 -1940.000000
   vertex -25.000000 43.301270 -1940.000000
   vertex -25.000000 43.301270 -2140.000000
  endloop
 endfacet
 facet normal -0.555570 0.831470 0.000000
  outer loop
   vertex -30.438071 39.667667 -1940.000000
   vertex -25.000000 43.301270 -2140.000000
   vertex -30.438071 39.667667 -2140.000000
  endloop
 endfacet
 facet normal -0.442289 0.896873 0.000000
  outer loop
   vertex -25.000000 43.301270 -1940.000000
   vertex -19.134172 46.193977 -1940.000000
   vertex -19.134172 46.193977 -2140.000000
  endloop
 endfacet
 facet normal -0.442289 0.896873 0.000000
  outer loop
   vertex -25.000000 43.301270 -1940.000000
   vertex -19.134172 46.193977 -2140.000000
   vertex -25.000000 43.301270 -2140.000000
  endloop
 endfacet
 facet normal -0.321439 0.946930 0.000000
  outer loop
   vertex -19.134172 46.193977 -1940.000000
   vertex -12.940952 48.296291 -1940.000000
   vertex -12.940952 48.296291 -2140.000000
  endloop
 endfacet
 facet normal -0.321439 0.946930 0.000000
  outer loop
   vertex -19.134172 46.193977 -1940.000000
   vertex -12.940952 48.296291 -2140.000000
   vertex -19.134172 46.193977 -2140.000000
  endloop
 endfacet
 facet normal -0.195090 0.980785 0.000000
  outer loop
   vertex -12.940952 48.296291 -1940.000000
   vertex -6.526310 49.572243 -1940.000000
   vertex -6.526310 49.572243 -2140.000000
  endloop
 endfacet
 facet normal -0.195090 0.980785 0.000000
  outer loop
   vertex -12.940952 48.296291 -1940.000000
   vertex -6.526310 49.572243 -2140.000000
   vertex -12.940952 48.296291 -2140.000000
  endloop
 endfacet
 facet normal -0.065403 0.997859 0.000000
  outer loop
   vertex -6.526310 49.572243 -1940.000000
   vertex 0.000000 50.000000 -1940.000000
   vertex 0.000000 50.000000 -2140.000000
  endloop
 endfacet
 facet normal -0.065403 0.997859 0.000000
  outer loop
   vertex -6.526310 49.572243 -1940.000000
   vertex 0.000000 50.000000 -2140.000000
   vertex -6.526310 49.572243 -2140.000000
  endloop
 endfacet
 facet normal -0.065403 -0.997859 0.000000
  outer loop
   vertex 5.743152 43.623574 -2140.000000
   vertex 5.743152 43.623574 -1940.000000
   vertex 0.000000 44.000000 -1940.000000
  endloop
 endfacet
 facet normal -0.065403 -0.997859 0.000000
  outer loop
   vertex 0.000000 44.000000 -2140.000000
   vertex 5.743152 43.623574 -2140.000000
   vertex 0.000000 44.000000 -1940.000000
  endloop
 endfacet
 facet normal -0.195090 -0.980785 0.000000
  outer loop
   vertex 11.388038 42.500736 -2140.000000
   vertex 11.388038 42.500736 -1940.000000
   vertex 5.743152 43.623574 -1940.000000
  endloop
 endfacet
 facet normal -0.195090 -0.980785 0.000000
  outer loop
   vertex 5.743152 43.623574 -2140.000000
   vertex 11.388038 42.500736 -2140.000000
   vertex 5.743152 43.623574 -1940.000000
  endloop
 endfacet
 facet normal -0.321439 -0.946930 0.000000
  outer loop
   vertex 16.838071 40.650699 -2140.000000
   vertex 16.838071 40.650699 -1940.000000
   vertex 11.388038 42.500736 -1940.000000
  endloop
 endfacet
 facet normal -0.321439 -0.946930 0.000000
  outer loop
   vertex 11.388038 42.500736 -2140.000000
   vertex 16.838071 40.650699 -2140.000000
   vertex 11.388038 42.500736 -1940.000000
  endloop
 endfacet
 facet normal -0.442289 -0.896873 0.000000
  outer loop
   vertex 22.000000 38.105118 -2140.000000
   vertex 22.000000 38.105118 -1940.000000
   vertex 16.838071 40.650699 -1940.000000
  endloop
 endfacet
 facet normal -0.442289 -0.896873 0.000000
  outer loop
   vertex 16.838071 40.650699 -2140.000000
   vertex 22.000000 38.105118 -2140.000000
   vertex 16.838071 40.650699 -1940.000000
  endloop
 endfacet
 facet normal -0.555570 -0.831470 0.000000
  outer loop
   vertex 26.785503 34.907547 -2140.000000
   vertex 26.785503 34.907547 -1940.000000
   vertex 22.000000 38.105118 -1940.000000
  endloop
 endfacet
 facet normal -0.555570 -0.831470 0.000000
  outer loop
   vertex 22.000000 38.105118 -2140.000000
   vertex 26.785503 34.907547 -2140.000000
   vertex 22.000000 38.105118 -1940.000000
  endloop
 endfacet
 facet normal -0.659346 -0.751840 0.000000
  outer loop
   vertex 31.112698 31.112698 -2140.000000
   vertex 31.112698 31.112698 -1940.000000
   vertex 26.785503 34.907547 -1940.000000
  endloop
 endfacet
 facet normal -0.659346 -0.751840 0.000000
  outer loop
   vertex 26.785503 34.907547 -2140.000000
   vertex 31.112698 31.112698 -2140.000000
   vertex 26.785503 34.907547 -1940.000000
  endloop
 endfacet
 facet normal -0.751840 -0.659346 0.000000
  outer loop
   vertex 34.907547 26.785503 -2140.000000
   vertex 34.907547 26.785503 -1940.000000
   vertex 31.112698 31.112698 -1940.000000
  endloop
 endfacet
 facet normal -0.751840 -0.659346 0.000000
  outer loop
   vertex 31.112698 31.112698 -2140.000000
   vertex 34.907547 26.785503 -2140.000000
   vertex 31.112698 31.112698 -1940.000000
  endloop
 endfacet
 facet normal -0.831470 -0.555570 0.000000
  outer loop
   vertex 38.105118 22.000000 -2140.000000
   vertex 38.105118 22.000000 -1940.000000
   vertex 34.907547 26.785503 -1940.000000
  endloop
 endfacet
 facet normal -0.831470 -0.555570 0.000000
  outer loop
   vertex 34.907547 26.785503 -2140.000000
   vertex 38.105118 22.000000 -2140.000000
   vertex 34.907547 26.785503 -1940.000000
  endloop
 endfacet
 facet normal -0.896873 -0.442289 0.000000
  outer loop
   vertex 40.650699 16.838071 -2140.000000
   vertex 40.650699 16.838071 -1940.000000
   vertex 38.105118 22.000000 -1940.000000
  endloop
 endfacet
 facet normal -0.896873 -0.442289 0.000000
  outer loop
   vertex 38.105118 22.000000 -2140.000000
   vertex 40.650699 16.838071 -2140.000000
   vertex 38.105118 22.000000 -1940.000000
  endloop
 endfacet
 facet normal -0.946930 -0.321439 0.000000
  outer loop
   vertex 42.500736 11.388038 -2140.000000
   vertex 42.500736 11.388038 -1940.000000
   vertex 40.650699 16.838071 -1940.000000
  endloop
 endfacet
 facet normal -0.946930 -0.321439 0.000000
  outer loop
   vertex 40.650699 16.838071 -2140.000000
   vertex 42.500736 11.388038 -2140.000000
   vertex 40.650699 16.838071 -1940.000000
  endloop
 endfacet
 facet normal -0.980785 -0.195090 0.000000
  outer loop
   vertex 43.623574 5.743152 -2140.000000
   vertex 43.623574 5.743152 -1940.000000
   vertex 42.500736 11.388038 -1940.000000
  endloop
 endfacet
 facet normal -0.980785 -0.195090 0.000000
  outer loop
   vertex 42.500736 11.388038 -2140.000000
   vertex 43.623574 5.743152 -2140.000000
   vertex 42.500736 11.388038 -1940.000000
  endloop
 endfacet
 facet normal -0.997859 -0.065403 0.000000
  outer loop
   vertex 44.000000 0.000000 -2140.000000
   vertex 44.000000 0.000000 -1940.000000
   vertex 43.623574 5.743152 -1940.000000
  endloop
 endfacet
 facet normal -0.997859 -0.065403 0.000000
  outer loop
   vertex 43.623574 5.743152 -2140.000000
   vertex 44.000000 0.000000 -2140.000000
   vertex 43.623574 5.743152 -1940.000000
  endloop
 endfacet
 facet normal -0.997859 0.065403 0.000000
  outer loop
   vertex 43.623574 -5.743152 -2140.000000
   vertex 43.623574 -5.743152 -1940.000000
   vertex 44.000000 0.000000 -1940.000000
  endloop
 endfacet
 facet normal -0.997859 0.065403 0.000000
  outer loop
   vertex 44.000000 0.000000 -2140.000000
   vertex 43.623574 -5.743152 -2140.000000
   vertex 44.000000 0.000000 -1940.000000
  endloop
 endfacet
 facet normal -0.980785 0.195090 0.000000
  outer loop
   vertex 42.500736 -11.388038 -2140.000000
   vertex 42.500736 -11.388038 -1940.000000
   vertex 43.623574 -5.743152 -1940.000000
  endloop
 endfacet
 facet normal -0.980785 0.195090 0.000000
  outer loop
   vertex 43.623574 -5.743152 -2140.000000
   vertex 42.500736 -11.388038 -2140.000000
   vertex 43.623574 -5.743152 -1940.000000
  endloop
 endfacet
 facet normal -0.946930 0.321439 0.000000
  outer loop
   vertex 40.650699 -16.838071 -2140.000000
   vertex 40.650699 -16.838071 -1940.000000
   vertex 42.500736 -11.388038 -1940.000000
  endloop
 endfacet
 facet normal -0.946930 0.321439 0.000000
  outer loop
   vertex 42.500736 -11.388038 -2140.000000
   vertex 40.650699 -16.838071 -2140.000000
   vertex 42.500736 -11.388038 -1940.000000
  endloop
 endfacet
 facet normal -0.896873 0.442289 0.000000
  outer loop
   vertex 38.105118 -22.000000 -2140.000000
   vertex 38.105118 -22.000000 -1940.000000
   vertex 40.650699 -16.838071 -1940.000000
  endloop
 endfacet
 facet normal -0.896873 0.442289 0.000000
  outer loop
   vertex 40.650699 -16.838071 -2140.000000
   vertex 38.105118 -22.000000 -2140.000000
   vertex 40.650699 -16.838071 -1940.000000
  endloop
 endfacet
 facet normal -0.831470 0.555570 0.000000
  outer loop
   vertex 34.907547 -26.785503 -2140.000000
   vertex 34.907547 -26.785503 -1940.000000
   vertex 38.105118 -22.000000 -1940.000000
  endloop
 endfacet
 facet normal -0.831470 0.555570 0.000000
  outer loop
   vertex 38.105118 -22.000000 -2140.000000
   vertex 34.907547 -26.785503 -2140.000000
   vertex 38.105118 -22.000000 -1940.000000
  endloop
 endfacet
 facet normal -0.751840 0.659346 0.000000
  outer loop
   vertex 31.112698 -31.112698 -2140.000000
   vertex 31.112698 -31.112698 -1940.000000
   vertex 34.907547 -26.785503 -1940.000000
  endloop
 endfacet
 facet normal -0.751840 0.659346 0.000000
  outer loop
   vertex 34.907547 -26.785503 -2140.000000
   vertex 31.112698 -31.112698 -2140.000000
   vertex 34.907547 -26.785503 -1940.000000
  endloop
 endfacet
 facet normal -0.659346 0.751840 0.000000
  outer loop
   vertex 26.785503 -34.907547 -2140.000000
   vertex 26.785503 -34.907547 -1940.000000
   vertex 31.112698 -31.112698 -1940.000000
  endloop
 endfacet
 facet normal -0.659346 0.751840 0.000000
  outer loop
   vertex 31.112698 -31.112698 -2140.000000
   vertex 26.785503 -34.907547 -2140.000000
   vertex 31.112698 -31.112698 -1940.000000
  endloop
 endfacet
 facet normal -0.555570 0.831470 0.000000
  outer loop
   vertex 22.000000 -38.105118 -2140.000000
   vertex 22.000000 -38.105118 -1940.000000
   vertex 26.785503 -34.907547 -1940.000000
  endloop
 endfacet
 facet normal -0.555570 0.831470 0.000000
  outer loop
   vertex 26.785503 -34.907547 -2140.000000
   vertex 22.000000 -38.105118 -2140.000000
   vertex 26.785503 -34.907547 -1940.000000
  endloop
 endfacet
 facet normal -0.442289 0.896873 0.000000
  outer loop
   vertex 16.838071 -40.650699 -2140.000000
   vertex 16.838071 -40.650699 -1940.000000
   vertex 22.000000 -38.105118 -1940.000000
  endloop
 endfacet
 facet normal -0.442289 0.896873 0.000000
  outer loop
   vertex 22.000000 -38.105118 -2140.000000
   vertex 16.838071 -40.650699 -2140.000000
   vertex 22.000000 -38.105118 -1940.000000
  endloop
 endfacet
 facet normal -0.321439 0.946930 0.000000
  outer loop
   vertex 11.388038 -42.500736 -2140.000000
   vertex 11.388038 -42.500736 -1940.000000
   vertex 16.838071 -40.650699 -1940.000000
  endloop
 endfacet
 facet normal -0.321439 0.946930 0.000000
  outer loop
   vertex 16.838071 -40.650699 -2140.000000
   vertex 11.388038 -42.500736 -2140.000000
   vertex 16.838071 -40.650699 -1940.000000
  endloop
 endfacet
 facet normal -0.195090 0.980785 0.000000
  outer loop
   vertex 5.743152 -43.623574 -2140.000000
   vertex 5.743152 -43.623574 -1940.000000
   vertex 11.388038 -42.500736 -1940.000000
  endloop
 endfacet
 facet normal -0.195090 0.980785 0.000000
  outer loop
   vertex 11.388038 -42.500736 -2140.000000
   vertex 5.743152 -43.623574 -2140.000000
   vertex 11.388038 -42.500736 -1940.000000
  endloop
 endfacet
 facet normal -0.065403 0.997859 0.000000
  outer loop
   vertex 0.000000 -44.000000 -2140.000000
   vertex 0.000000 -44.000000 -1940.000000
   vertex 5.743152 -43.623574 -1940.000000
  endloop
 endfacet
 facet normal -0.065403 0.997859 0.000000
  outer loop
   vertex 5.743152 -43.623574 -2140.000000
   vertex 0.000000 -44.000000 -2140.000000
   vertex 5.743152 -43.623574 -1940.000000
  endloop
 endfacet
 facet normal 0.065403 0.997859 -0.000000
  outer loop
   vertex -5.743152 -43.623574 -2140.000000
   vertex -5.743152 -43.623574 -1940.000000
   vertex 0.000000 -44.000000 -1940.000000
  endloop
 endfacet
 facet normal 0.065403 0.997859 -0.000000
  outer loop
   vertex 0.000000 -44.000000 -2140.000000
   vertex -5.743152 -43.623574 -2140.000000
   vertex 0.000000 -44.000000 -1940.000000
  endloop
 endfacet
 facet normal 0.195090 0.980785 -0.000000
  outer loop
   vertex -11.388038 -42.500736 -2140.000000
   vertex -11.388038 -42.500736 -1940.000000
   vertex -5.743152 -43.623574 -1940.000000
  endloop
 endfacet
 facet normal 0.195090 0.980785 -0.000000
  outer loop
   vertex -5.743152 -43.623574 -2140.000000
   vertex -11.388038 -42.500736 -2140.000000
   vertex -5.743152 -43.623574 -1940.000000
  endloop
 endfacet
 facet normal 0.321439 0.946930 -0.000000
  outer loop
   vertex -16.838071 -40.650699 -2140.000000
   vertex -16.838071 -40.650699 -1940.000000
   vertex -11.388038 -42.500736 -1940.000000
  endloop
 endfacet
 facet normal 0.321439 0.946930 -0.000000
  outer loop
   vertex -11.388038 -42.500736 -2140.000000
   vertex -16.838071 -40.650699 -2140.000000
   vertex -11.388038 -42.500736 -1940.000000
  endloop
 endfacet
 facet normal 0.442289 0.896873 -0.000000
  outer loop
   vertex -22.000000 -38.105118 -2140.000000
   vertex -22.000000 -38.105118 -1940.000000
   vertex -16.838071 -40.650699 -1940.000000
  endloop
 endfacet
 facet normal 0.442289 0.896873 -0.000000
  outer loop
   vertex -16.838071 -40.650699 -2140.000000
   vertex -22.000000 -38.105118 -2140.000000
   vertex -16.838071 -40.650699 -1940.000000
  endloop
 endfacet
 facet normal 0.555570 0.831470 -0.000000
  outer loop
   vertex -26.785503 -34.907547 -2140.000000
   vertex -26.785503 -34.907547 -1940.000000
   vertex -22.000000 -38.105118 -1940.000000
  endloop
 endfacet
 facet normal 0.555570 0.831470 -0.000000
  outer loop
   vertex -22.000000 -38.105118 -2140.000000
   vertex -26.785503 -34.907547 -2140.000000
   vertex -22.000000 -38.105118 -1940.000000
  endloop
 endfacet
 facet normal 0.659346 0.751840 -0.000000
  outer loop
   vertex -31.112698 -31.112698 -2140.000000
   vertex -31.112698 -31.112698 -1940.000000
   vertex -26.785503 -34.907547 -1940.000000
  endloop
 endfacet
 facet normal 0.659346 0.751840 -0.000000
  outer loop
   vertex -26.785503 -34.907547 -2140.000000
   vertex -31.112698 -31.112698 -2140.000000
   vertex -26.785503 -34.907547 -1940.000000
  endloop
 endfacet
 facet normal 0.751840 0.659346 -0.000000
  outer loop
   vertex -34.907547 -26.785503 -2140.000000
   vertex -34.907547 -26.785503 -1940.000000
   vertex -31.112698 -31.112698 -1940.000000
  endloop
 endfacet
 facet normal 0.751840 0.659346 -0.000000
  outer loop
   vertex -31.112698 -31.112698 -2140.000000
   vertex -34.907547 -26.785503 -2140.000000
   vertex -31.112698 -31.112698 -1940.000000
  endloop
 endfacet
 facet normal 0.831470 0.555570 -0.000000
  outer loop
   vertex -38.105118 -22.000000 -2140.000000
   vertex -38.105118 -22.000000 -1940.000000
   vertex -34.907547 -26.785503 -1940.000000
  endloop
 endfacet
 facet normal 0.831470 0.555570 -0.000000
  outer loop
   vertex -34.907547 -26.785503 -2140.000000
   vertex -38.105118 -22.000000 -2140.000000
   vertex -34.907547 -26.785503 -1940.000000
  endloop
 endfacet
 facet normal 0.896873 0.442289 -0.000000
  outer loop
   vertex -40.650699 -16.838071 -2140.000000
   vertex -40.650699 -16.838071 -1940.000000
   vertex -38.105118 -22.000000 -1940.000000
  endloop
 endfacet
 facet normal 0.896873 0.442289 -0.000000
  outer loop
   vertex -38.105118 -22.000000 -2140.000000
   vertex -40.650699 -16.838071 -2140.000000
   vertex -38.105118 -22.000000 -1940.000000
  endloop
 endfacet
 facet normal 0.946930 0.321439 -0.000000
  outer loop
   vertex -42.500736 -11.388038 -2140.000000
   vertex -42.500736 -11.388038 -1940.000000
   vertex -40.650699 -16.838071 -1940.000000
  endloop
 endfacet
 facet normal 0.946930 0.321439 -0.000000
  outer loop
   vertex -40.650699 -16.838071 -2140.000000
   vertex -42.500736 -11.388038 -2140.000000
   vertex -40.650699 -16.838071 -1940.000000
  endloop
 endfacet
 facet normal 0.980785 0.195090 -0.000000
  outer loop
   vertex -43.623574 -5.743152 -2140.000000
   vertex -43.623574 -5.743152 -1940.000000
   vertex -42.500736 -11.388038 -1940.000000
  endloop
 endfacet
 facet normal 0.980785 0.195090 -0.000000
  outer loop
   vertex -42.500736 -11.388038 -2140.000000
   vertex -43.623574 -5.743152 -2140.000000
   vertex -42.500736 -11.388038 -1940.000000
  endloop
 endfacet
 facet normal 0.997859 0.065403 -0.000000
  outer loop
   vertex -44.000000 -0.000000 -2140.000000
   vertex -44.000000 -0.000000 -1940.000000
   vertex -43.623574 -5.743152 -1940.000000
  endloop
 endfacet
 facet normal 0.997859 0.065403 -0.000000
  outer loop
   vertex -43.623574 -5.743152 -2140.000000
   vertex -44.000000 -0.000000 -2140.000000
   vertex -43.623574 -5.743152 -1940.000000
  endloop
 endfacet
 facet normal 0.997859 -0.065403 0.000000
  outer loop
   vertex -43.623574 5.743152 -2140.000000
   vertex -43.623574 5.743152 -1940.000000
   vertex -44.000000 -0.000000 -1940.000000
  endloop
 endfacet
 facet normal 0.997859 -0.065403 0.000000
  outer loop
   vertex -44.000000 -0.000000 -2140.000000
   vertex -43.623574 5.743152 -2140.000000
   vertex -44.000000 -0.000000 -1940.000000
  endloop
 endfacet
 facet normal 0.980785 -0.195090 0.000000
  outer loop
   vertex -42.500736 11.388038 -2140.000000
   vertex -42.500736 11.388038 -1940.000000
   vertex -43.623574 5.743152 -1940.000000
  endloop
 endfacet
 facet normal 0.980785 -0.195090 0.000000
  outer loop
   vertex -43.623574 5.743152 -2140.000000
   vertex -42.500736 11.388038 -2140.000000
   vertex -43.623574 5.743152 -1940.000000
  endloop
 endfacet
 facet normal 0.946930 -0.321439 0.000000
  outer loop
   vertex -40.650699 16.838071 -2140.000000
   vertex -40.650699 16.838071 -1940.000000
   vertex -42.500736 11.388038 -1940.000000
  endloop
 endfacet
 facet normal 0.946930 -0.321439 0.000000
  outer loop
   vertex -42.500736 11.388038 -2140.000000
   vertex -40.650699 16.838071 -2140.000000
   vertex -42.500736 11.388038 -1940.000000
  endloop
 endfacet
 facet normal 0.896873 -0.442289 0.000000
  outer loop
   vertex -38.105118 22.000000 -2140.000000
   vertex -38.105118 22.000000 -1940.000000
   vertex -40.650699 16.838071 -1940.000000
  endloop
 endfacet
 facet normal 0.896873 -0.442289 0.000000
  outer loop
   vertex -40.650699 16.838071 -2140.000000
   vertex -38.105118 22.000000 -2140.000000
   vertex -40.650699 16.838071 -1940.000000
  endloop
 endfacet
 facet normal 0.831470 -0.555570 0.000000
  outer loop
   vertex -34.907547 26.785503 -2140.000000
   vertex -34.907547 26.785503 -1940.000000
   vertex -38.105118 22.000000 -1940.000000
  endloop
 endfacet
 facet normal 0.831470 -0.555570 0.000000
  outer loop
   vertex -38.105118 22.000000 -2140.000000
   vertex -34.907547 26.785503 -2140.000000
   vertex -38.105118 22.000000 -1940.000000
  endloop
 endfacet
 facet normal 0.751840 -0.659346 0.000000
  outer loop
   vertex -31.112698 31.112698 -2140.000000
   vertex -31.112698 31.112698 -1940.000000
   vertex -34.907547 26.785503 -1940.000000
  endloop
 endfacet
 facet normal 0.751840 -0.659346 0.000000
  outer loop
   vertex -34.907547 26.785503 -2140.000000
   vertex -31.112698 31.112698 -2140.000000
   vertex -34.907547 26.785503 -1940.000000
  endloop
 endfacet
 facet normal 0.659346 -0.751840 0.000000
  outer loop
   vertex -26.785503 34.907547 -2140.000000
   vertex -26.785503 34.907547 -1940.000000
   vertex -31.112698 31.112698 -1940.000000
  endloop
 endfacet
 facet normal 0.659346 -0.751840 0.000000
  outer loop
   vertex -31.112698 31.112698 -2140.000000
   vertex -26.785503 34.907547 -2140.000000
   vertex -31.112698 31.112698 -1940.000000
  endloop
 endfacet
 facet normal 0.555570 -0.831470 0.000000
  outer loop
   vertex -22.000000 38.105118 -2140.000000
   vertex -22.000000 38.105118 -1940.000000
   vertex -26.785503 34.907547 -1940.000000
  endloop
 endfacet
 facet normal 0.555570 -0.831470 0.000000
  outer loop
   vertex -26.785503 34.907547 -2140.000000
   vertex -22.000000 38.105118 -2140.000000
   vertex -26.785503 34.907547 -1940.000000
  endloop
 endfacet
 facet normal 0.442289 -0.896873 0.000000
  outer loop
   vertex -16.838071 40.650699 -2140.000000
   vertex -16.838071 40.650699 -1940.000000
   vertex -22.000000 38.105118 -1940.000000
  endloop
 endfacet
 facet normal 0.442289 -0.896873 0.000000
  outer loop
   vertex -22.000000 38.105118 -2140.000000
   vertex -16.838071 40.650699 -2140.000000
   vertex -22.000000 38.105118 -1940.000000
  endloop
 endfacet
 facet normal 0.321439 -0.946930 0.000000
  outer loop
   vertex -11.388038 42.500736 -2140.000000
   vertex -11.388038 42.500736 -1940.000000
   vertex -16.838071 40.650699 -1940.000000
  endloop
 endfacet
 facet normal 0.321439 -0.946930 0.000000
  outer loop
   vertex -16.838071 40.650699 -2140.000000
   vertex -11.388038 42.500736 -2140.000000
   vertex -16.838071 40.650699 -1940.000000
  endloop
 endfacet
 facet normal 0.195090 -0.980785 0.000000
  outer loop
   vertex -5.743152 43.623574 -2140.000000
   vertex -5.743152 43.623574 -1940.000000
   vertex -11.388038 42.500736 -1940.000000
  endloop
 endfacet
 facet normal 0.195090 -0.980785 0.000000
  outer loop
   vertex -11.388038 42.500736 -2140.000000
   vertex -5.743152 43.623574 -2140.000000
   vertex -11.388038 42.500736 -1940.000000
  endloop
 endfacet
 facet normal 0.065403 -0.997859 0.000000
  outer loop
   vertex 0.000000 44.000000 -2140.000000
   vertex 0.000000 44.000000 -1940.000000
   vertex -5.743152 43.623574 -1940.000000
  endloop
 endfacet
 facet normal 0.065403 -0.997859 0.000000
  outer loop
   vertex -5.743152 43.623574 -2140.000000
   vertex 0.000000 44.000000 -2140.000000
   vertex -5.743152 43.623574 -1940.000000
  endloop
 endfacet
endsolid F1_inlet_stub_2
