solid SIC_LOX_downcomer_25
 facet normal 0.065403 0.997859 0.000000
  outer loop
   vertex 3217.392644 1590.294829 24498.000000
   vertex 3229.140001 1589.524867 24498.000000
   vertex 3229.140001 1589.524867 -610.000000
  endloop
 endfacet
 facet normal 0.065403 0.997859 0.000000
  outer loop
   vertex 3217.392644 1590.294829 24498.000000
   vertex 3229.140001 1589.524867 -610.000000
   vertex 3217.392644 1590.294829 -610.000000
  endloop
 endfacet
 facet normal 0.195090 0.980785 0.000000
  outer loop
   vertex 3229.140001 1589.524867 24498.000000
   vertex 3240.686358 1587.228154 24498.000000
   vertex 3240.686358 1587.228154 -610.000000
  endloop
 endfacet
 facet normal 0.195090 0.980785 0.000000
  outer loop
   vertex 3229.140001 1589.524867 24498.000000
   vertex 3240.686358 1587.228154 -610.000000
   vertex 3229.140001 1589.524867 -610.000000
  endloop
 endfacet
 facet normal 0.321439 0.946930 0.000000
  outer loop
   vertex 3240.686358 1587.228154 24498.000000
   vertex 3251.834153 1583.443987 24498.000000
   vertex 3251.834153 1583.443987 -610.000000
  endloop
 endfacet
 facet normal 0.321439 0.946930 0.000000
  outer loop
   vertex 3240.686358 1587.228154 24498.000000
   vertex 3251.834153 1583.443987 -610.000000
   vertex 3240.686358 1587.228154 -610.000000
  endloop
 endfacet
 facet normal 0.442289 0.896873 0.000000
  outer loop
   vertex 3251.834153 1583.443987 24498.000000
   vertex 3262.392644 1578.237116 24498.000000
   vertex 3262.392644 1578.237116 -610.000000
  endloop
 endfacet
 facet normal 0.442289 0.896873 0.000000
  outer loop
   vertex 3251.834153 1583.443987 24498.000000
   vertex 3262.392644 1578.237116 -610.000000
   vertex 3251.834153 1583.443987 -610.000000
  endloop
 endfacet
 facet normal 0.555570 0.831470 0.000000
  outer loop
   vertex 3262.392644 1578.237116 24498.000000
   vertex 3272.181173 1571.696630 24498.000000
   vertex 3272.181173 1571.696630 -610.000000
  endloop
 endfacet
 facet normal 0.555570 0.831470 0.000000
  outer loop
   vertex 3262.392644 1578.237116 24498.000000
   vertex 3272.181173 1571.696630 -610.000000
   vertex 3262.392644 1578.237116 -610.000000
  endloop
 endfacet
 facet normal 0.659346 0.751840 0.000000
  outer loop
   vertex 3272.181173 1571.696630 24498.000000
   vertex 3281.032254 1563.934439 24498.000000
   vertex 3281.032254 1563.934439 -610.000000
  endloop
 endfacet
 facet normal 0.659346 0.751840 0.000000
  outer loop
   vertex 3272.181173 1571.696630 24498.000000
   vertex 3281.032254 1563.934439 -610.000000
   vertex 3272.181173 1571.696630 -610.000000
  endloop
 endfacet
 facet normal 0.751840 0.659346 0.000000
  outer loop
   vertex 3281.032254 1563.934439 24498.000000
   vertex 3288.794445 1555.083358 24498.000000
   vertex 3288.794445 1555.083358 -610.000000
  endloop
 endfacet
 facet normal 0.751840 0.659346 0.000000
  outer loop
   vertex 3281.032254 1563.934439 24498.000000
   vertex 3288.794445 1555.083358 -610.000000
   vertex 3281.032254 1563.934439 -610.000000
  endloop
 endfacet
 facet normal 0.831470 0.555570 0.000000
  outer loop
   vertex 3288.794445 1555.083358 24498.000000
   vertex 3295.334930 1545.294829 24498.000000
   vertex 3295.334930 1545.294829 -610.000000
  endloop
 endfacet
 facet normal 0.831470 0.555570 0.000000
  outer loop
   vertex 3288.794445 1555.083358 24498.000000
   vertex 3295.334930 1545.294829 -610.000000
   vertex 3288.794445 1555.083358 -610.000000
  endloop
 endfacet
 facet normal 0.896873 0.442289 0.000000
  outer loop
   vertex 3295.334930 1545.294829 24498.000000
   vertex 3300.541802 1534.736338 24498.000000
   vertex 3300.541802 1534.736338 -610.000000
  endloop
 endfacet
 facet normal 0.896873 0.442289 0.000000
  outer loop
   vertex 3295.334930 1545.294829 24498.000000
   vertex 3300.541802 1534.736338 -610.000000
   vertex 3295.334930 1545.294829 -610.000000
  endloop
 endfacet
 facet normal 0.946930 0.321439 0.000000
  outer loop
   vertex 3300.541802 1534.736338 24498.000000
   vertex 3304.325968 1523.588543 24498.000000
   vertex 3304.325968 1523.588543 -610.000000
  endloop
 endfacet
 facet normal 0.946930 0.321439 0.000000
  outer loop
   vertex 3300.541802 1534.736338 24498.000000
   vertex 3304.325968 1523.588543 -610.000000
   vertex 3300.541802 1534.736338 -610.000000
  endloop
 endfacet
 facet normal 0.980785 0.195090 0.000000
  outer loop
   vertex 3304.325968 1523.588543 24498.000000
   vertex 3306.622682 1512.042186 24498.000000
   vertex 3306.622682 1512.042186 -610.000000
  endloop
 endfacet
 facet normal 0.980785 0.195090 0.000000
  outer loop
   vertex 3304.325968 1523.588543 24498.000000
   vertex 3306.622682 1512.042186 -610.000000
   vertex 3304.325968 1523.588543 -610.000000
  endloop
 endfacet
 facet normal 0.997859 0.065403 0.000000
  outer loop
   vertex 3306.622682 1512.042186 24498.000000
   vertex 3307.392644 1500.294829 24498.000000
   vertex 3307.392644 1500.294829 -610.000000
  endloop
 endfacet
 facet normal 0.997859 0.065403 0.000000
  outer loop
   vertex 3306.622682 1512.042186 24498.000000
   vertex 3307.392644 1500.294829 -610.000000
   vertex 3306.622682 1512.042186 -610.000000
  endloop
 endfacet
 facet normal 0.997859 -0.065403 0.000000
  outer loop
   vertex 3307.392644 1500.294829 24498.000000
   vertex 3306.622682 1488.547472 24498.000000
   vertex 3306.622682 1488.547472 -610.000000
  endloop
 endfacet
 facet normal 0.997859 -0.065403 0.000000
  outer loop
   vertex 3307.392644 1500.294829 24498.000000
   vertex 3306.622682 1488.547472 -610.000000
   vertex 3307.392644 1500.294829 -610.000000
  endloop
 endfacet
 facet normal 0.980785 -0.195090 0.000000
  outer loop
   vertex 3306.622682 1488.547472 24498.000000
   vertex 3304.325968 1477.001115 24498.000000
   vertex 3304.325968 1477.001115 -610.000000
  endloop
 endfacet
 facet normal 0.980785 -0.195090 0.000000
  outer loop
   vertex 3306.622682 1488.547472 24498.000000
   vertex 3304.325968 1477.001115 -610.000000
   vertex 3306.622682 1488.547472 -610.000000
  endloop
 endfacet
 facet normal 0.946930 -0.321439 0.000000
  outer loop
   vertex 3304.325968 1477.001115 24498.000000
   vertex 3300.541802 1465.853320 24498.000000
   vertex 3300.541802 1465.853320 -610.000000
  endloop
 endfacet
 facet normal 0.946930 -0.321439 0.000000
  outer loop
   vertex 3304.325968 1477.001115 24498.000000
   vertex 3300.541802 1465.853320 -610.000000
   vertex 3304.325968 1477.001115 -610.000000
  endloop
 endfacet
 facet normal 0.896873 -0.442289 0.000000
  outer loop
   vertex 3300.541802 1465.853320 24498.000000
   vertex 3295.334930 1455.294829 24498.000000
   vertex 3295.334930 1455.294829 -610.000000
  endloop
 endfacet
 facet normal 0.896873 -0.442289 0.000000
  outer loop
   vertex 3300.541802 1465.853320 24498.000000
   vertex 3295.334930 1455.294829 -610.000000
   vertex 3300.541802 1465.853320 -610.000000
  endloop
 endfacet
 facet normal 0.831470 -0.555570 0.000000
  outer loop
   vertex 3295.334930 1455.294829 24498.000000
   vertex 3288.794445 1445.506301 24498.000000
   vertex 3288.794445 1445.506301 -610.000000
  endloop
 endfacet
 facet normal 0.831470 -0.555570 0.000000
  outer loop
   vertex 3295.334930 1455.294829 24498.000000
   vertex 3288.794445 1445.506301 -610.000000
   vertex 3295.334930 1455.294829 -610.000000
  endloop
 endfacet
 facet normal 0.751840 -0.659346 0.000000
  outer loop
   vertex 3288.794445 1445.506301 24498.000000
   vertex 3281.032254 1436.655219 24498.000000
   vertex 3281.032254 1436.655219 -610.000000
  endloop
 endfacet
 facet normal 0.751840 -0.659346 0.000000
  outer loop
   vertex 3288.794445 1445.506301 24498.000000
   vertex 3281.032254 1436.655219 -610.000000
   vertex 3288.794445 1445.506301 -610.000000
  endloop
 endfacet
 facet normal 0.659346 -0.751840 0.000000
  outer loop
   vertex 3281.032254 1436.655219 24498.000000
   vertex 3272.181173 1428.893029 24498.000000
   vertex 3272.181173 1428.893029 -610.000000
  endloop
 endfacet
 facet normal 0.659346 -0.751840 0.000000
  outer loop
   vertex 3281.032254 1436.655219 24498.000000
   vertex 3272.181173 1428.893029 -610.000000
   vertex 3281.032254 1436.655219 -610.000000
  endloop
 endfacet
 facet normal 0.555570 -0.831470 0.000000
  outer loop
   vertex 3272.181173 1428.893029 24498.000000
   vertex 3262.392644 1422.352543 24498.000000
   vertex 3262.392644 1422.352543 -610.000000
  endloop
 endfacet
 facet normal 0.555570 -0.831470 0.000000
  outer loop
   vertex 3272.181173 1428.893029 24498.000000
   vertex 3262.392644 1422.352543 -610.000000
   vertex 3272.181173 1428.893029 -610.000000
  endloop
 endfacet
 facet normal 0.442289 -0.896873 0.000000
  outer loop
   vertex 3262.392644 1422.352543 24498.000000
   vertex 3251.834153 1417.145671 24498.000000
   vertex 3251.834153 1417.145671 -610.000000
  endloop
 endfacet
 facet normal 0.442289 -0.896873 0.000000
  outer loop
   vertex 3262.392644 1422.352543 24498.000000
   vertex 3251.834153 1417.145671 -610.000000
   vertex 3262.392644 1422.352543 -610.000000
  endloop
 endfacet
 facet normal 0.321439 -0.946930 0.000000
  outer loop
   vertex 3251.834153 1417.145671 24498.000000
   vertex 3240.686358 1413.361505 24498.000000
   vertex 3240.686358 1413.361505 -610.000000
  endloop
 endfacet
 facet normal 0.321439 -0.946930 0.000000
  outer loop
   vertex 3251.834153 1417.145671 24498.000000
   vertex 3240.686358 1413.361505 -610.000000
   vertex 3251.834153 1417.145671 -610.000000
  endloop
 endfacet
 facet normal 0.195090 -0.980785 0.000000
  outer loop
   vertex 3240.686358 1413.361505 24498.000000
   vertex 3229.140001 1411.064792 24498.000000
   vertex 3229.140001 1411.064792 -610.000000
  endloop
 endfacet
 facet normal 0.195090 -0.980785 0.000000
  outer loop
   vertex 3240.686358 1413.361505 24498.000000
   vertex 3229.140001 1411.064792 -610.000000
   vertex 3240.686358 1413.361505 -610.000000
  endloop
 endfacet
 facet normal 0.065403 -0.997859 0.000000
  outer loop
   vertex 3229.140001 1411.064792 24498.000000
   vertex 3217.392644 1410.294829 24498.000000
   vertex 3217.392644 1410.294829 -610.000000
  endloop
 endfacet
 facet normal 0.065403 -0.997859 0.000000
  outer loop
   vertex 3229.140001 1411.064792 24498.000000
   vertex 3217.392644 1410.294829 -610.000000
   vertex 3229.140001 1411.064792 -610.000000
  endloop
 endfacet
 facet normal -0.065403 -0.997859 0.000000
  outer loop
   vertex 3217.392644 1410.294829 24498.000000
   vertex 3205.645287 1411.064792 24498.000000
   vertex 3205.645287 1411.064792 -610.000000
  endloop
 endfacet
 facet normal -0.065403 -0.997859 -0.000000
  outer loop
   vertex 3217.392644 1410.294829 24498.000000
   vertex 3205.645287 1411.064792 -610.000000
   vertex 3217.392644 1410.294829 -610.000000
  endloop
 endfacet
 facet normal -0.195090 -0.980785 0.000000
  outer loop
   vertex 3205.645287 1411.064792 24498.000000
   vertex 3194.098930 1413.361505 24498.000000
   vertex 3194.098930 1413.361505 -610.000000
  endloop
 endfacet
 facet normal -0.195090 -0.980785 -0.000000
  outer loop
   vertex 3205.645287 1411.064792 24498.000000
   vertex 3194.098930 1413.361505 -610.000000
   vertex 3205.645287 1411.064792 -610.000000
  endloop
 endfacet
 facet normal -0.321439 -0.946930 0.000000
  outer loop
   vertex 3194.098930 1413.361505 24498.000000
   vertex 3182.951135 1417.145671 24498.000000
   vertex 3182.951135 1417.145671 -610.000000
  endloop
 endfacet
 facet normal -0.321439 -0.946930 -0.000000
  outer loop
   vertex 3194.098930 1413.361505 24498.000000
   vertex 3182.951135 1417.145671 -610.000000
   vertex 3194.098930 1413.361505 -610.000000
  endloop
 endfacet
 facet normal -0.442289 -0.896873 0.000000
  outer loop
   vertex 3182.951135 1417.145671 24498.000000
   vertex 3172.392644 1422.352543 24498.000000
   vertex 3172.392644 1422.352543 -610.000000
  endloop
 endfacet
 facet normal -0.442289 -0.896873 -0.000000
  outer loop
   vertex 3182.951135 1417.145671 24498.000000
   vertex 3172.392644 1422.352543 -610.000000
   vertex 3182.951135 1417.145671 -610.000000
  endloop
 endfacet
 facet normal -0.555570 -0.831470 0.000000
  outer loop
   vertex 3172.392644 1422.352543 24498.000000
   vertex 3162.604115 1428.893029 24498.000000
   vertex 3162.604115 1428.893029 -610.000000
  endloop
 endfacet
 facet normal -0.555570 -0.831470 -0.000000
  outer loop
   vertex 3172.392644 1422.352543 24498.000000
   vertex 3162.604115 1428.893029 -610.000000
   vertex 3172.392644 1422.352543 -610.000000
  endloop
 endfacet
 facet normal -0.659346 -0.751840 0.000000
  outer loop
   vertex 3162.604115 1428.893029 24498.000000
   vertex 3153.753034 1436.655219 24498.000000
   vertex 3153.753034 1436.655219 -610.000000
  endloop
 endfacet
 facet normal -0.659346 -0.751840 -0.000000
  outer loop
   vertex 3162.604115 1428.893029 24498.000000
   vertex 3153.753034 1436.655219 -610.000000
   vertex 3162.604115 1428.893029 -610.000000
  endloop
 endfacet
 facet normal -0.751840 -0.659346 0.000000
  outer loop
   vertex 3153.753034 1436.655219 24498.000000
   vertex 3145.990843 1445.506301 24498.000000
   vertex 3145.990843 1445.506301 -610.000000
  endloop
 endfacet
 facet normal -0.751840 -0.659346 -0.000000
  outer loop
   vertex 3153.753034 1436.655219 24498.000000
   vertex 3145.990843 1445.506301 -610.000000
   vertex 3153.753034 1436.655219 -610.000000
  endloop
 endfacet
 facet normal -0.831470 -0.555570 0.000000
  outer loop
   vertex 3145.990843 1445.506301 24498.000000
   vertex 3139.450358 1455.294829 24498.000000
   vertex 3139.450358 1455.294829 -610.000000
  endloop
 endfacet
 facet normal -0.831470 -0.555570 -0.000000
  outer loop
   vertex 3145.990843 1445.506301 24498.000000
   vertex 3139.450358 1455.294829 -610.000000
   vertex 3145.990843 1445.506301 -610.000000
  endloop
 endfacet
 facet normal -0.896873 -0.442289 0.000000
  outer loop
   vertex 3139.450358 1455.294829 24498.000000
   vertex 3134.243486 1465.853320 24498.000000
   vertex 3134.243486 1465.853320 -610.000000
  endloop
 endfacet
 facet normal -0.896873 -0.442289 -0.000000
  outer loop
   vertex 3139.450358 1455.294829 24498.000000
   vertex 3134.243486 1465.853320 -610.000000
   vertex 3139.450358 1455.294829 -610.000000
  endloop
 endfacet
 facet normal -0.946930 -0.321439 0.000000
  outer loop
   vertex 3134.243486 1465.853320 24498.000000
   vertex 3130.459320 1477.001115 24498.000000
   vertex 3130.459320 1477.001115 -610.000000
  endloop
 endfacet
 facet normal -0.946930 -0.321439 -0.000000
  outer loop
   vertex 3134.243486 1465.853320 24498.000000
   vertex 3130.459320 1477.001115 -610.000000
   vertex 3134.243486 1465.853320 -610.000000
  endloop
 endfacet
 facet normal -0.980785 -0.195090 0.000000
  outer loop
   vertex 3130.459320 1477.001115 24498.000000
   vertex 3128.162606 1488.547472 24498.000000
   vertex 3128.162606 1488.547472 -610.000000
  endloop
 endfacet
 facet normal -0.980785 -0.195090 -0.000000
  outer loop
   vertex 3130.459320 1477.001115 24498.000000
   vertex 3128.162606 1488.547472 -610.000000
   vertex 3130.459320 1477.001115 -610.000000
  endloop
 endfacet
 facet normal -0.997859 -0.065403 0.000000
  outer loop
   vertex 3128.162606 1488.547472 24498.000000
   vertex 3127.392644 1500.294829 24498.000000
   vertex 3127.392644 1500.294829 -610.000000
  endloop
 endfacet
 facet normal -0.997859 -0.065403 -0.000000
  outer loop
   vertex 3128.162606 1488.547472 24498.000000
   vertex 3127.392644 1500.294829 -610.000000
   vertex 3128.162606 1488.547472 -610.000000
  endloop
 endfacet
 facet normal -0.997859 0.065403 0.000000
  outer loop
   vertex 3127.392644 1500.294829 24498.000000
   vertex 3128.162606 1512.042186 24498.000000
   vertex 3128.162606 1512.042186 -610.000000
  endloop
 endfacet
 facet normal -0.997859 0.065403 0.000000
  outer loop
   vertex 3127.392644 1500.294829 24498.000000
   vertex 3128.162606 1512.042186 -610.000000
   vertex 3127.392644 1500.294829 -610.000000
  endloop
 endfacet
 facet normal -0.980785 0.195090 0.000000
  outer loop
   vertex 3128.162606 1512.042186 24498.000000
   vertex 3130.459320 1523.588543 24498.000000
   vertex 3130.459320 1523.588543 -610.000000
  endloop
 endfacet
 facet normal -0.980785 0.195090 0.000000
  outer loop
   vertex 3128.162606 1512.042186 24498.000000
   vertex 3130.459320 1523.588543 -610.000000
   vertex 3128.162606 1512.042186 -610.000000
  endloop
 endfacet
 facet normal -0.946930 0.321439 0.000000
  outer loop
   vertex 3130.459320 1523.588543 24498.000000
   vertex 3134.243486 1534.736338 24498.000000
   vertex 3134.243486 1534.736338 -610.000000
  endloop
 endfacet
 facet normal -0.946930 0.321439 0.000000
  outer loop
   vertex 3130.459320 1523.588543 24498.000000
   vertex 3134.243486 1534.736338 -610.000000
   vertex 3130.459320 1523.588543 -610.000000
  endloop
 endfacet
 facet normal -0.896873 0.442289 0.000000
  outer loop
   vertex 3134.243486 1534.736338 24498.000000
   vertex 3139.450358 1545.294829 24498.000000
   vertex 3139.450358 1545.294829 -610.000000
  endloop
 endfacet
 facet normal -0.896873 0.442289 0.000000
  outer loop
   vertex 3134.243486 1534.736338 24498.000000
   vertex 3139.450358 1545.294829 -610.000000
   vertex 3134.243486 1534.736338 -610.000000
  endloop
 endfacet
 facet normal -0.831470 0.555570 0.000000
  outer loop
   vertex 3139.450358 1545.294829 24498.000000
   vertex 3145.990843 1555.083358 24498.000000
   vertex 3145.990843 1555.083358 -610.000000
  endloop
 endfacet
 facet normal -0.831470 0.555570 0.000000
  outer loop
   vertex 3139.450358 1545.294829 24498.000000
   vertex 3145.990843 1555.083358 -610.000000
   vertex 3139.450358 1545.294829 -610.000000
  endloop
 endfacet
 facet normal -0.751840 0.659346 0.000000
  outer loop
   vertex 3145.990843 1555.083358 24498.000000
   vertex 3153.753034 1563.934439 24498.000000
   vertex 3153.753034 1563.934439 -610.000000
  endloop
 endfacet
 facet normal -0.751840 0.659346 0.000000
  outer loop
   vertex 3145.990843 1555.083358 24498.000000
   vertex 3153.753034 1563.934439 -610.000000
   vertex 3145.990843 1555.083358 -610.000000
  endloop
 endfacet
 facet normal -0.659346 0.751840 0.000000
  outer loop
   vertex 3153.753034 1563.934439 24498.000000
   vertex 3162.604115 1571.696630 24498.000000
   vertex 3162.604115 1571.696630 -610.000000
  endloop
 endfacet
 facet normal -0.659346 0.751840 0.000000
  outer loop
   vertex 3153.753034 1563.934439 24498.000000
   vertex 3162.604115 1571.696630 -610.000000
   vertex 3153.753034 1563.934439 -610.000000
  endloop
 endfacet
 facet normal -0.555570 0.831470 0.000000
  outer loop
   vertex 3162.604115 1571.696630 24498.000000
   vertex 3172.392644 1578.237116 24498.000000
   vertex 3172.392644 1578.237116 -610.000000
  endloop
 endfacet
 facet normal -0.555570 0.831470 0.000000
  outer loop
   vertex 3162.604115 1571.696630 24498.000000
   vertex 3172.392644 1578.237116 -610.000000
   vertex 3162.604115 1571.696630 -610.000000
  endloop
 endfacet
 facet normal -0.442289 0.896873 0.000000
  outer loop
   vertex 3172.392644 1578.237116 24498.000000
   vertex 3182.951135 1583.443987 24498.000000
   vertex 3182.951135 1583.443987 -610.000000
  endloop
 endfacet
 facet normal -0.442289 0.896873 0.000000
  outer loop
   vertex 3172.392644 1578.237116 24498.000000
   vertex 3182.951135 1583.443987 -610.000000
   vertex 3172.392644 1578.237116 -610.000000
  endloop
 endfacet
 facet normal -0.321439 0.946930 0.000000
  outer loop
   vertex 3182.951135 1583.443987 24498.000000
   vertex 3194.098930 1587.228154 24498.000000
   vertex 3194.098930 1587.228154 -610.000000
  endloop
 endfacet
 facet normal -0.321439 0.946930 0.000000
  outer loop
   vertex 3182.951135 1583.443987 24498.000000
   vertex 3194.098930 1587.228154 -610.000000
   vertex 3182.951135 1583.443987 -610.000000
  endloop
 endfacet
 facet normal -0.195090 0.980785 0.000000
  outer loop
   vertex 3194.098930 1587.228154 24498.000000
   vertex 3205.645287 1589.524867 24498.000000
   vertex 3205.645287 1589.524867 -610.000000
  endloop
 endfacet
 facet normal -0.195090 0.980785 0.000000
  outer loop
   vertex 3194.098930 1587.228154 24498.000000
   vertex 3205.645287 1589.524867 -610.000000
   vertex 3194.098930 1587.228154 -610.000000
  endloop
 endfacet
 facet normal -0.065403 0.997859 0.000000
  outer loop
   vertex 3205.645287 1589.524867 24498.000000
   vertex 3217.392644 1590.294829 24498.000000
   vertex 3217.392644 1590.294829 -610.000000
  endloop
 endfacet
 facet normal -0.065403 0.997859 0.000000
  outer loop
   vertex 3205.645287 1589.524867 24498.000000
   vertex 3217.392644 1590.294829 -610.000000
   vertex 3205.645287 1589.524867 -610.000000
  endloop
 endfacet
 facet normal -0.065403 -0.997859 0.000000
  outer loop
   vertex 3227.573687 1577.627528 -610.000000
   vertex 3227.573687 1577.627528 24498.000000
   vertex 3217.392644 1578.294829 24498.000000
  endloop
 endfacet
 facet normal -0.065403 -0.997859 0.000000
  outer loop
   vertex 3217.392644 1578.294829 -610.000000
   vertex 3227.573687 1577.627528 -610.000000
   vertex 3217.392644 1578.294829 24498.000000
  endloop
 endfacet
 facet normal -0.195090 -0.980785 0.000000
  outer loop
   vertex 3237.580529 1575.637044 -610.000000
   vertex 3237.580529 1575.637044 24498.000000
   vertex 3227.573687 1577.627528 24498.000000
  endloop
 endfacet
 facet normal -0.195090 -0.980785 0.000000
  outer loop
   vertex 3227.573687 1577.627528 -610.000000
   vertex 3237.580529 1575.637044 -610.000000
   vertex 3227.573687 1577.627528 24498.000000
  endloop
 endfacet
 facet normal -0.321439 -0.946930 0.000000
  outer loop
   vertex 3247.241952 1572.357433 -610.000000
   vertex 3247.241952 1572.357433 24498.000000
   vertex 3237.580529 1575.637044 24498.000000
  endloop
 endfacet
 facet normal -0.321439 -0.946930 0.000000
  outer loop
   vertex 3237.580529 1575.637044 -610.000000
   vertex 3247.241952 1572.357433 -610.000000
   vertex 3237.580529 1575.637044 24498.000000
  endloop
 endfacet
 facet normal -0.442289 -0.896873 0.000000
  outer loop
   vertex 3256.392644 1567.844811 -610.000000
   vertex 3256.392644 1567.844811 24498.000000
   vertex 3247.241952 1572.357433 24498.000000
  endloop
 endfacet
 facet normal -0.442289 -0.896873 0.000000
  outer loop
   vertex 3247.241952 1572.357433 -610.000000
   vertex 3256.392644 1567.844811 -610.000000
   vertex 3247.241952 1572.357433 24498.000000
  endloop
 endfacet
 facet normal -0.555570 -0.831470 0.000000
  outer loop
   vertex 3264.876035 1562.176390 -610.000000
   vertex 3264.876035 1562.176390 24498.000000
   vertex 3256.392644 1567.844811 24498.000000
  endloop
 endfacet
 facet normal -0.555570 -0.831470 0.000000
  outer loop
   vertex 3256.392644 1567.844811 -610.000000
   vertex 3264.876035 1562.176390 -610.000000
   vertex 3256.392644 1567.844811 24498.000000
  endloop
 endfacet
 facet normal -0.659346 -0.751840 0.000000
  outer loop
   vertex 3272.546973 1555.449158 -610.000000
   vertex 3272.546973 1555.449158 24498.000000
   vertex 3264.876035 1562.176390 24498.000000
  endloop
 endfacet
 facet normal -0.659346 -0.751840 0.000000
  outer loop
   vertex 3264.876035 1562.176390 -610.000000
   vertex 3272.546973 1555.449158 -610.000000
   vertex 3264.876035 1562.176390 24498.000000
  endloop
 endfacet
 facet normal -0.751840 -0.659346 0.000000
  outer loop
   vertex 3279.274205 1547.778221 -610.000000
   vertex 3279.274205 1547.778221 24498.000000
   vertex 3272.546973 1555.449158 24498.000000
  endloop
 endfacet
 facet normal -0.751840 -0.659346 0.000000
  outer loop
   vertex 3272.546973 1555.449158 -610.000000
   vertex 3279.274205 1547.778221 -610.000000
   vertex 3272.546973 1555.449158 24498.000000
  endloop
 endfacet
 facet normal -0.831470 -0.555570 0.000000
  outer loop
   vertex 3284.942625 1539.294829 -610.000000
   vertex 3284.942625 1539.294829 24498.000000
   vertex 3279.274205 1547.778221 24498.000000
  endloop
 endfacet
 facet normal -0.831470 -0.555570 0.000000
  outer loop
   vertex 3279.274205 1547.778221 -610.000000
   vertex 3284.942625 1539.294829 -610.000000
   vertex 3279.274205 1547.778221 24498.000000
  endloop
 endfacet
 facet normal -0.896873 -0.442289 0.000000
  outer loop
   vertex 3289.455248 1530.144137 -610.000000
   vertex 3289.455248 1530.144137 24498.000000
   vertex 3284.942625 1539.294829 24498.000000
  endloop
 endfacet
 facet normal -0.896873 -0.442289 0.000000
  outer loop
   vertex 3284.942625 1539.294829 -610.000000
   vertex 3289.455248 1530.144137 -610.000000
   vertex 3284.942625 1539.294829 24498.000000
  endloop
 endfacet
 facet normal -0.946930 -0.321439 0.000000
  outer loop
   vertex 3292.734858 1520.482715 -610.000000
   vertex 3292.734858 1520.482715 24498.000000
   vertex 3289.455248 1530.144137 24498.000000
  endloop
 endfacet
 facet normal -0.946930 -0.321439 0.000000
  outer loop
   vertex 3289.455248 1530.144137 -610.000000
   vertex 3292.734858 1520.482715 -610.000000
   vertex 3289.455248 1530.144137 24498.000000
  endloop
 endfacet
 facet normal -0.980785 -0.195090 0.000000
  outer loop
   vertex 3294.725343 1510.475872 -610.000000
   vertex 3294.725343 1510.475872 24498.000000
   vertex 3292.734858 1520.482715 24498.000000
  endloop
 endfacet
 facet normal -0.980785 -0.195090 0.000000
  outer loop
   vertex 3292.734858 1520.482715 -610.000000
   vertex 3294.725343 1510.475872 -610.000000
   vertex 3292.734858 1520.482715 24498.000000
  endloop
 endfacet
 facet normal -0.997859 -0.065403 0.000000
  outer loop
   vertex 3295.392644 1500.294829 -610.000000
   vertex 3295.392644 1500.294829 24498.000000
   vertex 3294.725343 1510.475872 24498.000000
  endloop
 endfacet
 facet normal -0.997859 -0.065403 0.000000
  outer loop
   vertex 3294.725343 1510.475872 -610.000000
   vertex 3295.392644 1500.294829 -610.000000
   vertex 3294.725343 1510.475872 24498.000000
  endloop
 endfacet
 facet normal -0.997859 0.065403 0.000000
  outer loop
   vertex 3294.725343 1490.113786 -610.000000
   vertex 3294.725343 1490.113786 24498.000000
   vertex 3295.392644 1500.294829 24498.000000
  endloop
 endfacet
 facet normal -0.997859 0.065403 0.000000
  outer loop
   vertex 3295.392644 1500.294829 -610.000000
   vertex 3294.725343 1490.113786 -610.000000
   vertex 3295.392644 1500.294829 24498.000000
  endloop
 endfacet
 facet normal -0.980785 0.195090 0.000000
  outer loop
   vertex 3292.734858 1480.106944 -610.000000
   vertex 3292.734858 1480.106944 24498.000000
   vertex 3294.725343 1490.113786 24498.000000
  endloop
 endfacet
 facet normal -0.980785 0.195090 0.000000
  outer loop
   vertex 3294.725343 1490.113786 -610.000000
   vertex 3292.734858 1480.106944 -610.000000
   vertex 3294.725343 1490.113786 24498.000000
  endloop
 endfacet
 facet normal -0.946930 0.321439 0.000000
  outer loop
   vertex 3289.455248 1470.445521 -610.000000
   vertex 3289.455248 1470.445521 24498.000000
   vertex 3292.734858 1480.106944 24498.000000
  endloop
 endfacet
 facet normal -0.946930 0.321439 0.000000
  outer loop
   vertex 3292.734858 1480.106944 -610.000000
   vertex 3289.455248 1470.445521 -610.000000
   vertex 3292.734858 1480.106944 24498.000000
  endloop
 endfacet
 facet normal -0.896873 0.442289 0.000000
  outer loop
   vertex 3284.942625 1461.294829 -610.000000
   vertex 3284.942625 1461.294829 24498.000000
   vertex 3289.455248 1470.445521 24498.000000
  endloop
 endfacet
 facet normal -0.896873 0.442289 0.000000
  outer loop
   vertex 3289.455248 1470.445521 -610.000000
   vertex 3284.942625 1461.294829 -610.000000
   vertex 3289.455248 1470.445521 24498.000000
  endloop
 endfacet
 facet normal -0.831470 0.555570 0.000000
  outer loop
   vertex 3279.274205 1452.811438 -610.000000
   vertex 3279.274205 1452.811438 24498.000000
   vertex 3284.942625 1461.294829 24498.000000
  endloop
 endfacet
 facet normal -0.831470 0.555570 0.000000
  outer loop
   vertex 3284.942625 1461.294829 -610.000000
   vertex 3279.274205 1452.811438 -610.000000
   vertex 3284.942625 1461.294829 24498.000000
  endloop
 endfacet
 facet normal -0.751840 0.659346 0.000000
  outer loop
   vertex 3272.546973 1445.140500 -610.000000
   vertex 3272.546973 1445.140500 24498.000000
   vertex 3279.274205 1452.811438 24498.000000
  endloop
 endfacet
 facet normal -0.751840 0.659346 0.000000
  outer loop
   vertex 3279.274205 1452.811438 -610.000000
   vertex 3272.546973 1445.140500 -610.000000
   vertex 3279.274205 1452.811438 24498.000000
  endloop
 endfacet
 facet normal -0.659346 0.751840 0.000000
  outer loop
   vertex 3264.876035 1438.413269 -610.000000
   vertex 3264.876035 1438.413269 24498.000000
   vertex 3272.546973 1445.140500 24498.000000
  endloop
 endfacet
 facet normal -0.659346 0.751840 0.000000
  outer loop
   vertex 3272.546973 1445.140500 -610.000000
   vertex 3264.876035 1438.413269 -610.000000
   vertex 3272.546973 1445.140500 24498.000000
  endloop
 endfacet
 facet normal -0.555570 0.831470 0.000000
  outer loop
   vertex 3256.392644 1432.744848 -610.000000
   vertex 3256.392644 1432.744848 24498.000000
   vertex 3264.876035 1438.413269 24498.000000
  endloop
 endfacet
 facet normal -0.555570 0.831470 0.000000
  outer loop
   vertex 3264.876035 1438.413269 -610.000000
   vertex 3256.392644 1432.744848 -610.000000
   vertex 3264.876035 1438.413269 24498.000000
  endloop
 endfacet
 facet normal -0.442289 0.896873 0.000000
  outer loop
   vertex 3247.241952 1428.232226 -610.000000
   vertex 3247.241952 1428.232226 24498.000000
   vertex 3256.392644 1432.744848 24498.000000
  endloop
 endfacet
 facet normal -0.442289 0.896873 0.000000
  outer loop
   vertex 3256.392644 1432.744848 -610.000000
   vertex 3247.241952 1428.232226 -610.000000
   vertex 3256.392644 1432.744848 24498.000000
  endloop
 endfacet
 facet normal -0.321439 0.946930 0.000000
  outer loop
   vertex 3237.580529 1424.952615 -610.000000
   vertex 3237.580529 1424.952615 24498.000000
   vertex 3247.241952 1428.232226 24498.000000
  endloop
 endfacet
 facet normal -0.321439 0.946930 0.000000
  outer loop
   vertex 3247.241952 1428.232226 -610.000000
   vertex 3237.580529 1424.952615 -610.000000
   vertex 3247.241952 1428.232226 24498.000000
  endloop
 endfacet
 facet normal -0.195090 0.980785 0.000000
  outer loop
   vertex 3227.573687 1422.962130 -610.000000
   vertex 3227.573687 1422.962130 24498.000000
   vertex 3237.580529 1424.952615 24498.000000
  endloop
 endfacet
 facet normal -0.195090 0.980785 0.000000
  outer loop
   vertex 3237.580529 1424.952615 -610.000000
   vertex 3227.573687 1422.962130 -610.000000
   vertex 3237.580529 1424.952615 24498.000000
  endloop
 endfacet
 facet normal -0.065403 0.997859 0.000000
  outer loop
   vertex 3217.392644 1422.294829 -610.000000
   vertex 3217.392644 1422.294829 24498.000000
   vertex 3227.573687 1422.962130 24498.000000
  endloop
 endfacet
 facet normal -0.065403 0.997859 0.000000
  outer loop
   vertex 3227.573687 1422.962130 -610.000000
   vertex 3217.392644 1422.294829 -610.000000
   vertex 3227.573687 1422.962130 24498.000000
  endloop
 endfacet
 facet normal 0.065403 0.997859 -0.000000
  outer loop
   vertex 3207.211601 1422.962130 -610.000000
   vertex 3207.211601 1422.962130 24498.000000
   vertex 3217.392644 1422.294829 24498.000000
  endloop
 endfacet
 facet normal 0.065403 0.997859 -0.000000
  outer loop
   vertex 3217.392644 1422.294829 -610.000000
   vertex 3207.211601 1422.962130 -610.000000
   vertex 3217.392644 1422.294829 24498.000000
  endloop
 endfacet
 facet normal 0.195090 0.980785 -0.000000
  outer loop
   vertex 3197.204758 1424.952615 -610.000000
   vertex 3197.204758 1424.952615 24498.000000
   vertex 3207.211601 1422.962130 24498.000000
  endloop
 endfacet
 facet normal 0.195090 0.980785 -0.000000
  outer loop
   vertex 3207.211601 1422.962130 -610.000000
   vertex 3197.204758 1424.952615 -610.000000
   vertex 3207.211601 1422.962130 24498.000000
  endloop
 endfacet
 facet normal 0.321439 0.946930 -0.000000
  outer loop
   vertex 3187.543336 1428.232226 -610.000000
   vertex 3187.543336 1428.232226 24498.000000
   vertex 3197.204758 1424.952615 24498.000000
  endloop
 endfacet
 facet normal 0.321439 0.946930 -0.000000
  outer loop
   vertex 3197.204758 1424.952615 -610.000000
   vertex 3187.543336 1428.232226 -610.000000
   vertex 3197.204758 1424.952615 24498.000000
  endloop
 endfacet
 facet normal 0.442289 0.896873 -0.000000
  outer loop
   vertex 3178.392644 1432.744848 -610.000000
   vertex 3178.392644 1432.744848 24498.000000
   vertex 3187.543336 1428.232226 24498.000000
  endloop
 endfacet
 facet normal 0.442289 0.896873 -0.000000
  outer loop
   vertex 3187.543336 1428.232226 -610.000000
   vertex 3178.392644 1432.744848 -610.000000
   vertex 3187.543336 1428.232226 24498.000000
  endloop
 endfacet
 facet normal 0.555570 0.831470 -0.000000
  outer loop
   vertex 3169.909253 1438.413269 -610.000000
   vertex 3169.909253 1438.413269 24498.000000
   vertex 3178.392644 1432.744848 24498.000000
  endloop
 endfacet
 facet normal 0.555570 0.831470 -0.000000
  outer loop
   vertex 3178.392644 1432.744848 -610.000000
   vertex 3169.909253 1438.413269 -610.000000
   vertex 3178.392644 1432.744848 24498.000000
  endloop
 endfacet
 facet normal 0.659346 0.751840 -0.000000
  outer loop
   vertex 3162.238315 1445.140500 -610.000000
   vertex 3162.238315 1445.140500 24498.000000
   vertex 3169.909253 1438.413269 24498.000000
  endloop
 endfacet
 facet normal 0.659346 0.751840 -0.000000
  outer loop
   vertex 3169.909253 1438.413269 -610.000000
   vertex 3162.238315 1445.140500 -610.000000
   vertex 3169.909253 1438.413269 24498.000000
  endloop
 endfacet
 facet normal 0.751840 0.659346 -0.000000
  outer loop
   vertex 3155.511083 1452.811438 -610.000000
   vertex 3155.511083 1452.811438 24498.000000
   vertex 3162.238315 1445.140500 24498.000000
  endloop
 endfacet
 facet normal 0.751840 0.659346 -0.000000
  outer loop
   vertex 3162.238315 1445.140500 -610.000000
   vertex 3155.511083 1452.811438 -610.000000
   vertex 3162.238315 1445.140500 24498.000000
  endloop
 endfacet
 facet normal 0.831470 0.555570 -0.000000
  outer loop
   vertex 3149.842662 1461.294829 -610.000000
   vertex 3149.842662 1461.294829 24498.000000
   vertex 3155.511083 1452.811438 24498.000000
  endloop
 endfacet
 facet normal 0.831470 0.555570 -0.000000
  outer loop
   vertex 3155.511083 1452.811438 -610.000000
   vertex 3149.842662 1461.294829 -610.000000
   vertex 3155.511083 1452.811438 24498.000000
  endloop
 endfacet
 facet normal 0.896873 0.442289 -0.000000
  outer loop
   vertex 3145.330040 1470.445521 -610.000000
   vertex 3145.330040 1470.445521 24498.000000
   vertex 3149.842662 1461.294829 24498.000000
  endloop
 endfacet
 facet normal 0.896873 0.442289 -0.000000
  outer loop
   vertex 3149.842662 1461.294829 -610.000000
   vertex 3145.330040 1470.445521 -610.000000
   vertex 3149.842662 1461.294829 24498.000000
  endloop
 endfacet
 facet normal 0.946930 0.321439 -0.000000
  outer loop
   vertex 3142.050430 1480.106944 -610.000000
   vertex 3142.050430 1480.106944 24498.000000
   vertex 3145.330040 1470.445521 24498.000000
  endloop
 endfacet
 facet normal 0.946930 0.321439 -0.000000
  outer loop
   vertex 3145.330040 1470.445521 -610.000000
   vertex 3142.050430 1480.106944 -610.000000
   vertex 3145.330040 1470.445521 24498.000000
  endloop
 endfacet
 facet normal 0.980785 0.195090 -0.000000
  outer loop
   vertex 3140.059945 1490.113786 -610.000000
   vertex 3140.059945 1490.113786 24498.000000
   vertex 3142.050430 1480.106944 24498.000000
  endloop
 endfacet
 facet normal 0.980785 0.195090 -0.000000
  outer loop
   vertex 3142.050430 1480.106944 -610.000000
   vertex 3140.059945 1490.113786 -610.000000
   vertex 3142.050430 1480.106944 24498.000000
  endloop
 endfacet
 facet normal 0.997859 0.065403 -0.000000
  outer loop
   vertex 3139.392644 1500.294829 -610.000000
   vertex 3139.392644 1500.294829 24498.000000
   vertex 3140.059945 1490.113786 24498.000000
  endloop
 endfacet
 facet normal 0.997859 0.065403 -0.000000
  outer loop
   vertex 3140.059945 1490.113786 -610.000000
   vertex 3139.392644 1500.294829 -610.000000
   vertex 3140.059945 1490.113786 24498.000000
  endloop
 endfacet
 facet normal 0.997859 -0.065403 0.000000
  outer loop
   vertex 3140.059945 1510.475872 -610.000000
   vertex 3140.059945 1510.475872 24498.000000
   vertex 3139.392644 1500.294829 24498.000000
  endloop
 endfacet
 facet normal 0.997859 -0.065403 0.000000
  outer loop
   vertex 3139.392644 1500.294829 -610.000000
   vertex 3140.059945 1510.475872 -610.000000
   vertex 3139.392644 1500.294829 24498.000000
  endloop
 endfacet
 facet normal 0.980785 -0.195090 0.000000
  outer loop
   vertex 3142.050430 1520.482715 -610.000000
   vertex 3142.050430 1520.482715 24498.000000
   vertex 3140.059945 1510.475872 24498.000000
  endloop
 endfacet
 facet normal 0.980785 -0.195090 0.000000
  outer loop
   vertex 3140.059945 1510.475872 -610.000000
   vertex 3142.050430 1520.482715 -610.000000
   vertex 3140.059945 1510.475872 24498.000000
  endloop
 endfacet
 facet normal 0.946930 -0.321439 0.000000
  outer loop
   vertex 3145.330040 1530.144137 -610.000000
   vertex 3145.330040 1530.144137 24498.000000
   vertex 3142.050430 1520.482715 24498.000000
  endloop
 endfacet
 facet normal 0.946930 -0.321439 0.000000
  outer loop
   vertex 3142.050430 1520.482715 -610.000000
   vertex 3145.330040 1530.144137 -610.000000
   vertex 3142.050430 1520.482715 24498.000000
  endloop
 endfacet
 facet normal 0.896873 -0.442289 0.000000
  outer loop
   vertex 3149.842662 1539.294829 -610.000000
   vertex 3149.842662 1539.294829 24498.000000
   vertex 3145.330040 1530.144137 24498.000000
  endloop
 endfacet
 facet normal 0.896873 -0.442289 0.000000
  outer loop
   vertex 3145.330040 1530.144137 -610.000000
   vertex 3149.842662 1539.294829 -610.000000
   vertex 3145.330040 1530.144137 24498.000000
  endloop
 endfacet
 facet normal 0.831470 -0.555570 0.000000
  outer loop
   vertex 3155.511083 1547.778221 -610.000000
   vertex 3155.511083 1547.778221 24498.000000
   vertex 3149.842662 1539.294829 24498.000000
  endloop
 endfacet
 facet normal 0.831470 -0.555570 0.000000
  outer loop
   vertex 3149.842662 1539.294829 -610.000000
   vertex 3155.511083 1547.778221 -610.000000
   vertex 3149.842662 1539.294829 24498.000000
  endloop
 endfacet
 facet normal 0.751840 -0.659346 0.000000
  outer loop
   vertex 3162.238315 1555.449158 -610.000000
   vertex 3162.238315 1555.449158 24498.000000
   vertex 3155.511083 1547.778221 24498.000000
  endloop
 endfacet
 facet normal 0.751840 -0.659346 0.000000
  outer loop
   vertex 3155.511083 1547.778221 -610.000000
   vertex 3162.238315 1555.449158 -610.000000
   vertex 3155.511083 1547.778221 24498.000000
  endloop
 endfacet
 facet normal 0.659346 -0.751840 0.000000
  outer loop
   vertex 3169.909253 1562.176390 -610.000000
   vertex 3169.909253 1562.176390 24498.000000
   vertex 3162.238315 1555.449158 24498.000000
  endloop
 endfacet
 facet normal 0.659346 -0.751840 0.000000
  outer loop
   vertex 3162.238315 1555.449158 -610.000000
   vertex 3169.909253 1562.176390 -610.000000
   vertex 3162.238315 1555.449158 24498.000000
  endloop
 endfacet
 facet normal 0.555570 -0.831470 0.000000
  outer loop
   vertex 3178.392644 1567.844811 -610.000000
   vertex 3178.392644 1567.844811 24498.000000
   vertex 3169.909253 1562.176390 24498.000000
  endloop
 endfacet
 facet normal 0.555570 -0.831470 0.000000
  outer loop
   vertex 3169.909253 1562.176390 -610.000000
   vertex 3178.392644 1567.844811 -610.000000
   vertex 3169.909253 1562.176390 24498.000000
  endloop
 endfacet
 facet normal 0.442289 -0.896873 0.000000
  outer loop
   vertex 3187.543336 1572.357433 -610.000000
   vertex 3187.543336 1572.357433 24498.000000
   vertex 3178.392644 1567.844811 24498.000000
  endloop
 endfacet
 facet normal 0.442289 -0.896873 0.000000
  outer loop
   vertex 3178.392644 1567.844811 -610.000000
   vertex 3187.543336 1572.357433 -610.000000
   vertex 3178.392644 1567.844811 24498.000000
  endloop
 endfacet
 facet normal 0.321439 -0.946930 0.000000
  outer loop
   vertex 3197.204758 1575.637044 -610.000000
   vertex 3197.204758 1575.637044 24498.000000
   vertex 3187.543336 1572.357433 24498.000000
  endloop
 endfacet
 facet normal 0.321439 -0.946930 0.000000
  outer loop
   vertex 3187.543336 1572.357433 -610.000000
   vertex 3197.204758 1575.637044 -610.000000
   vertex 3187.543336 1572.357433 24498.000000
  endloop
 endfacet
 facet normal 0.195090 -0.980785 0.000000
  outer loop
   vertex 3207.211601 1577.627528 -610.000000
   vertex 3207.211601 1577.627528 24498.000000
   vertex 3197.204758 1575.637044 24498.000000
  endloop
 endfacet
 facet normal 0.195090 -0.980785 0.000000
  outer loop
   vertex 3197.204758 1575.637044 -610.000000
   vertex 3207.211601 1577.627528 -610.000000
   vertex 3197.204758 1575.637044 24498.000000
  endloop
 endfacet
 facet normal 0.065403 -0.997859 0.000000
  outer loop
   vertex 3217.392644 1578.294829 -610.000000
   vertex 3217.392644 1578.294829 24498.000000
   vertex 3207.211601 1577.627528 24498.000000
  endloop
 endfacet
 facet normal 0.065403 -0.997859 0.000000
  outer loop
   vertex 3207.211601 1577.627528 -610.000000
   vertex 3217.392644 1578.294829 -610.000000
   vertex 3207.211601 1577.627528 24498.000000
  endloop
 endfacet
endsolid SIC_LOX_downcomer_25
