solid SIC_RP1_downcomer_320
 facet normal 0.065403 0.997859 0.000000
  outer loop
   vertex 2719.457773 -2191.896014 23438.000000
   vertex 2731.205130 -2192.665977 23438.000000
   vertex 2731.205130 -2192.665977 -680.000000
  endloop
 endfacet
 facet normal 0.065403 0.997859 0.000000
  outer loop
   vertex 2719.457773 -2191.896014 23438.000000
   vertex 2731.205130 -2192.665977 -680.000000
   vertex 2719.457773 -2191.896014 -680.000000
  endloop
 endfacet
 facet normal 0.195090 0.980785 0.000000
  outer loop
   vertex 2731.205130 -2192.665977 23438.000000
   vertex 2742.751487 -2194.962690 23438.000000
   vertex 2742.751487 -2194.962690 -680.000000
  endloop
 endfacet
 facet normal 0.195090 0.980785 0.000000
  outer loop
   vertex 2731.205130 -2192.665977 23438.000000
   vertex 2742.751487 -2194.962690 -680.000000
   vertex 2731.205130 -2192.665977 -680.000000
  endloop
 endfacet
 facet normal 0.321439 0.946930 0.000000
  outer loop
   vertex 2742.751487 -2194.962690 23438.000000
   vertex 2753.899282 -2198.746856 23438.000000
   vertex 2753.899282 -2198.746856 -680.000000
  endloop
 endfacet
 facet normal 0.321439 0.946930 0.000000
  outer loop
   vertex 2742.751487 -2194.962690 23438.000000
   vertex 2753.899282 -2198.746856 -680.000000
   vertex 2742.751487 -2194.962690 -680.000000
  endloop
 endfacet
 facet normal 0.442289 0.896873 0.000000
  outer loop
   vertex 2753.899282 -2198.746856 23438.000000
   vertex 2764.457773 -2203.953728 23438.000000
   vertex 2764.457773 -2203.953728 -680.000000
  endloop
 endfacet
 facet normal 0.442289 0.896873 0.000000
  outer loop
   vertex 2753.899282 -2198.746856 23438.000000
   vertex 2764.457773 -2203.953728 -680.000000
   vertex 2753.899282 -2198.746856 -680.000000
  endloop
 endfacet
 facet normal 0.555570 0.831470 0.000000
  outer loop
   vertex 2764.457773 -2203.953728 23438.000000
   vertex 2774.246302 -2210.494214 23438.000000
   vertex 2774.246302 -2210.494214 -680.000000
  endloop
 endfacet
 facet normal 0.555570 0.831470 0.000000
  outer loop
   vertex 2764.457773 -2203.953728 23438.000000
   vertex 2774.246302 -2210.494214 -680.000000
   vertex 2764.457773 -2203.953728 -680.000000
  endloop
 endfacet
 facet normal 0.659346 0.751840 0.000000
  outer loop
   vertex 2774.246302 -2210.494214 23438.000000
   vertex 2783.097383 -2218.256404 23438.000000
   vertex 2783.097383 -2218.256404 -680.000000
  endloop
 endfacet
 facet normal 0.659346 0.751840 0.000000
  outer loop
   vertex 2774.246302 -2210.494214 23438.000000
   vertex 2783.097383 -2218.256404 -680.000000
   vertex 2774.246302 -2210.494214 -680.000000
  endloop
 endfacet
 facet normal 0.751840 0.659346 0.000000
  outer loop
   vertex 2783.097383 -2218.256404 23438.000000
   vertex 2790.859574 -2227.107486 23438.000000
   vertex 2790.859574 -2227.107486 -680.000000
  endloop
 endfacet
 facet normal 0.751840 0.659346 0.000000
  outer loop
   vertex 2783.097383 -2218.256404 23438.000000
   vertex 2790.859574 -2227.107486 -680.000000
   vertex 2783.097383 -2218.256404 -680.000000
  endloop
 endfacet
 facet normal 0.831470 0.555570 0.000000
  outer loop
   vertex 2790.859574 -2227.107486 23438.000000
   vertex 2797.400059 -2236.896014 23438.000000
   vertex 2797.400059 -2236.896014 -680.000000
  endloop
 endfacet
 facet normal 0.831470 0.555570 0.000000
  outer loop
   vertex 2790.859574 -2227.107486 23438.000000
   vertex 2797.400059 -2236.896014 -680.000000
   vertex 2790.859574 -2227.107486 -680.000000
  endloop
 endfacet
 facet normal 0.896873 0.442289 0.000000
  outer loop
   vertex 2797.400059 -2236.896014 23438.000000
   vertex 2802.606931 -2247.454505 23438.000000
   vertex 2802.606931 -2247.454505 -680.000000
  endloop
 endfacet
 facet normal 0.896873 0.442289 0.000000
  outer loop
   vertex 2797.400059 -2236.896014 23438.000000
   vertex 2802.606931 -2247.454505 -680.000000
   vertex 2797.400059 -2236.896014 -680.000000
  endloop
 endfacet
 facet normal 0.946930 0.321439 0.000000
  outer loop
   vertex 2802.606931 -2247.454505 23438.000000
   vertex 2806.391097 -2258.602300 23438.000000
   vertex 2806.391097 -2258.602300 -680.000000
  endloop
 endfacet
 facet normal 0.946930 0.321439 0.000000
  outer loop
   vertex 2802.606931 -2247.454505 23438.000000
   vertex 2806.391097 -2258.602300 -680.000000
   vertex 2802.606931 -2247.454505 -680.000000
  endloop
 endfacet
 facet normal 0.980785 0.195090 0.000000
  outer loop
   vertex 2806.391097 -2258.602300 23438.000000
   vertex 2808.687811 -2270.148657 23438.000000
   vertex 2808.687811 -2270.148657 -680.000000
  endloop
 endfacet
 facet normal 0.980785 0.195090 0.000000
  outer loop
   vertex 2806.391097 -2258.602300 23438.000000
   vertex 2808.687811 -2270.148657 -680.000000
   vertex 2806.391097 -2258.602300 -680.000000
  endloop
 endfacet
 facet normal 0.997859 0.065403 0.000000
  outer loop
   vertex 2808.687811 -2270.148657 23438.000000
   vertex 2809.457773 -2281.896014 23438.000000
   vertex 2809.457773 -2281.896014 -680.000000
  endloop
 endfacet
 facet normal 0.997859 0.065403 0.000000
  outer loop
   vertex 2808.687811 -2270.148657 23438.000000
   vertex 2809.457773 -2281.896014 -680.000000
   vertex 2808.687811 -2270.148657 -680.000000
  endloop
 endfacet
 facet normal 0.997859 -0.065403 0.000000
  outer loop
   vertex 2809.457773 -2281.896014 23438.000000
   vertex 2808.687811 -2293.643372 23438.000000
   vertex 2808.687811 -2293.643372 -680.000000
  endloop
 endfacet
 facet normal 0.997859 -0.065403 0.000000
  outer loop
   vertex 2809.457773 -2281.896014 23438.000000
   vertex 2808.687811 -2293.643372 -680.000000
   vertex 2809.457773 -2281.896014 -680.000000
  endloop
 endfacet
 facet normal 0.980785 -0.195090 0.000000
  outer loop
   vertex 2808.687811 -2293.643372 23438.000000
   vertex 2806.391097 -2305.189728 23438.000000
   vertex 2806.391097 -2305.189728 -680.000000
  endloop
 endfacet
 facet normal 0.980785 -0.195090 0.000000
  outer loop
   vertex 2808.687811 -2293.643372 23438.000000
   vertex 2806.391097 -2305.189728 -680.000000
   vertex 2808.687811 -2293.643372 -680.000000
  endloop
 endfacet
 facet normal 0.946930 -0.321439 0.000000
  outer loop
   vertex 2806.391097 -2305.189728 23438.000000
   vertex 2802.606931 -2316.337523 23438.000000
   vertex 2802.606931 -2316.337523 -680.000000
  endloop
 endfacet
 facet normal 0.946930 -0.321439 0.000000
  outer loop
   vertex 2806.391097 -2305.189728 23438.000000
   vertex 2802.606931 -2316.337523 -680.000000
   vertex 2806.391097 -2305.189728 -680.000000
  endloop
 endfacet
 facet normal 0.896873 -0.442289 0.000000
  outer loop
   vertex 2802.606931 -2316.337523 23438.000000
   vertex 2797.400059 -2326.896014 23438.000000
   vertex 2797.400059 -2326.896014 -680.000000
  endloop
 endfacet
 facet normal 0.896873 -0.442289 0.000000
  outer loop
   vertex 2802.606931 -2316.337523 23438.000000
   vertex 2797.400059 -2326.896014 -680.000000
   vertex 2802.606931 -2316.337523 -680.000000
  endloop
 endfacet
 facet normal 0.831470 -0.555570 0.000000
  outer loop
   vertex 2797.400059 -2326.896014 23438.000000
   vertex 2790.859574 -2336.684543 23438.000000
   vertex 2790.859574 -2336.684543 -680.000000
  endloop
 endfacet
 facet normal 0.831470 -0.555570 0.000000
  outer loop
   vertex 2797.400059 -2326.896014 23438.000000
   vertex 2790.859574 -2336.684543 -680.000000
   vertex 2797.400059 -2326.896014 -680.000000
  endloop
 endfacet
 facet normal 0.751840 -0.659346 0.000000
  outer loop
   vertex 2790.859574 -2336.684543 23438.000000
   vertex 2783.097383 -2345.535625 23438.000000
   vertex 2783.097383 -2345.535625 -680.000000
  endloop
 endfacet
 facet normal 0.751840 -0.659346 0.000000
  outer loop
   vertex 2790.859574 -2336.684543 23438.000000
   vertex 2783.097383 -2345.535625 -680.000000
   vertex 2790.859574 -2336.684543 -680.000000
  endloop
 endfacet
 facet normal 0.659346 -0.751840 0.000000
  outer loop
   vertex 2783.097383 -2345.535625 23438.000000
   vertex 2774.246302 -2353.297815 23438.000000
   vertex 2774.246302 -2353.297815 -680.000000
  endloop
 endfacet
 facet normal 0.659346 -0.751840 0.000000
  outer loop
   vertex 2783.097383 -2345.535625 23438.000000
   vertex 2774.246302 -2353.297815 -680.000000
   vertex 2783.097383 -2345.535625 -680.000000
  endloop
 endfacet
 facet normal 0.555570 -0.831470 0.000000
  outer loop
   vertex 2774.246302 -2353.297815 23438.000000
   vertex 2764.457773 -2359.838301 23438.000000
   vertex 2764.457773 -2359.838301 -680.000000
  endloop
 endfacet
 facet normal 0.555570 -0.831470 0.000000
  outer loop
   vertex 2774.246302 -2353.297815 23438.000000
   vertex 2764.457773 -2359.838301 -680.000000
   vertex 2774.246302 -2353.297815 -680.000000
  endloop
 endfacet
 facet normal 0.442289 -0.896873 0.000000
  outer loop
   vertex 2764.457773 -2359.838301 23438.000000
   vertex 2753.899282 -2365.045172 23438.000000
   vertex 2753.899282 -2365.045172 -680.000000
  endloop
 endfacet
 facet normal 0.442289 -0.896873 0.000000
  outer loop
   vertex 2764.457773 -2359.838301 23438.000000
   vertex 2753.899282 -2365.045172 -680.000000
   vertex 2764.457773 -2359.838301 -680.000000
  endloop
 endfacet
 facet normal 0.321439 -0.946930 0.000000
  outer loop
   vertex 2753.899282 -2365.045172 23438.000000
   vertex 2742.751487 -2368.829339 23438.000000
   vertex 2742.751487 -2368.829339 -680.000000
  endloop
 endfacet
 facet normal 0.321439 -0.946930 0.000000
  outer loop
   vertex 2753.899282 -2365.045172 23438.000000
   vertex 2742.751487 -2368.829339 -680.000000
   vertex 2753.899282 -2365.045172 -680.000000
  endloop
 endfacet
 facet normal 0.195090 -0.980785 0.000000
  outer loop
   vertex 2742.751487 -2368.829339 23438.000000
   vertex 2731.205130 -2371.126052 23438.000000
   vertex 2731.205130 -2371.126052 -680.000000
  endloop
 endfacet
 facet normal 0.195090 -0.980785 0.000000
  outer loop
   vertex 2742.751487 -2368.829339 23438.000000
   vertex 2731.205130 -2371.126052 -680.000000
   vertex 2742.751487 -2368.829339 -680.000000
  endloop
 endfacet
 facet normal 0.065403 -0.997859 0.000000
  outer loop
   vertex 2731.205130 -2371.126052 23438.000000
   vertex 2719.457773 -2371.896014 23438.000000
   vertex 2719.457773 -2371.896014 -680.000000
  endloop
 endfacet
 facet normal 0.065403 -0.997859 0.000000
  outer loop
   vertex 2731.205130 -2371.126052 23438.000000
   vertex 2719.457773 -2371.896014 -680.000000
   vertex 2731.205130 -2371.126052 -680.000000
  endloop
 endfacet
 facet normal -0.065403 -0.997859 0.000000
  outer loop
   vertex 2719.457773 -2371.896014 23438.000000
   vertex 2707.710416 -2371.126052 23438.000000
   vertex 2707.710416 -2371.126052 -680.000000
  endloop
 endfacet
 facet normal -0.065403 -0.997859 -0.000000
  outer loop
   vertex 2719.457773 -2371.896014 23438.000000
   vertex 2707.710416 -2371.126052 -680.000000
   vertex 2719.457773 -2371.896014 -680.000000
  endloop
 endfacet
 facet normal -0.195090 -0.980785 0.000000
  outer loop
   vertex 2707.710416 -2371.126052 23438.000000
   vertex 2696.164059 -2368.829339 23438.000000
   vertex 2696.164059 -2368.829339 -680.000000
  endloop
 endfacet
 facet normal -0.195090 -0.980785 -0.000000
  outer loop
   vertex 2707.710416 -2371.126052 23438.000000
   vertex 2696.164059 -2368.829339 -680.000000
   vertex 2707.710416 -2371.126052 -680.000000
  endloop
 endfacet
 facet normal -0.321439 -0.946930 0.000000
  outer loop
   vertex 2696.164059 -2368.829339 23438.000000
   vertex 2685.016264 -2365.045172 23438.000000
   vertex 2685.016264 -2365.045172 -680.000000
  endloop
 endfacet
 facet normal -0.321439 -0.946930 -0.000000
  outer loop
   vertex 2696.164059 -2368.829339 23438.000000
   vertex 2685.016264 -2365.045172 -680.000000
   vertex 2696.164059 -2368.829339 -680.000000
  endloop
 endfacet
 facet normal -0.442289 -0.896873 0.000000
  outer loop
   vertex 2685.016264 -2365.045172 23438.000000
   vertex 2674.457773 -2359.838301 23438.000000
   vertex 2674.457773 -2359.838301 -680.000000
  endloop
 endfacet
 facet normal -0.442289 -0.896873 -0.000000
  outer loop
   vertex 2685.016264 -2365.045172 23438.000000
   vertex 2674.457773 -2359.838301 -680.000000
   vertex 2685.016264 -2365.045172 -680.000000
  endloop
 endfacet
 facet normal -0.555570 -0.831470 0.000000
  outer loop
   vertex 2674.457773 -2359.838301 23438.000000
   vertex 2664.669244 -2353.297815 23438.000000
   vertex 2664.669244 -2353.297815 -680.000000
  endloop
 endfacet
 facet normal -0.555570 -0.831470 -0.000000
  outer loop
   vertex 2674.457773 -2359.838301 23438.000000
   vertex 2664.669244 -2353.297815 -680.000000
   vertex 2674.457773 -2359.838301 -680.000000
  endloop
 endfacet
 facet normal -0.659346 -0.751840 0.000000
  outer loop
   vertex 2664.669244 -2353.297815 23438.000000
   vertex 2655.818163 -2345.535625 23438.000000
   vertex 2655.818163 -2345.535625 -680.000000
  endloop
 endfacet
 facet normal -0.659346 -0.751840 -0.000000
  outer loop
   vertex 2664.669244 -2353.297815 23438.000000
   vertex 2655.818163 -2345.535625 -680.000000
   vertex 2664.669244 -2353.297815 -680.000000
  endloop
 endfacet
 facet normal -0.751840 -0.659346 0.000000
  outer loop
   vertex 2655.818163 -2345.535625 23438.000000
   vertex 2648.055972 -2336.684543 23438.000000
   vertex 2648.055972 -2336.684543 -680.000000
  endloop
 endfacet
 facet normal -0.751840 -0.659346 -0.000000
  outer loop
   vertex 2655.818163 -2345.535625 23438.000000
   vertex 2648.055972 -2336.684543 -680.000000
   vertex 2655.818163 -2345.535625 -680.000000
  endloop
 endfacet
 facet normal -0.831470 -0.555570 0.000000
  outer loop
   vertex 2648.055972 -2336.684543 23438.000000
   vertex 2641.515487 -2326.896014 23438.000000
   vertex 2641.515487 -2326.896014 -680.000000
  endloop
 endfacet
 facet normal -0.831470 -0.555570 -0.000000
  outer loop
   vertex 2648.055972 -2336.684543 23438.000000
   vertex 2641.515487 -2326.896014 -680.000000
   vertex 2648.055972 -2336.684543 -680.000000
  endloop
 endfacet
 facet normal -0.896873 -0.442289 0.000000
  outer loop
   vertex 2641.515487 -2326.896014 23438.000000
   vertex 2636.308615 -2316.337523 23438.000000
   vertex 2636.308615 -2316.337523 -680.000000
  endloop
 endfacet
 facet normal -0.896873 -0.442289 -0.000000
  outer loop
   vertex 2641.515487 -2326.896014 23438.000000
   vertex 2636.308615 -2316.337523 -680.000000
   vertex 2641.515487 -2326.896014 -680.000000
  endloop
 endfacet
 facet normal -0.946930 -0.321439 0.000000
  outer loop
   vertex 2636.308615 -2316.337523 23438.000000
   vertex 2632.524449 -2305.189728 23438.000000
   vertex 2632.524449 -2305.189728 -680.000000
  endloop
 endfacet
 facet normal -0.946930 -0.321439 -0.000000
  outer loop
   vertex 2636.308615 -2316.337523 23438.000000
   vertex 2632.524449 -2305.189728 -680.000000
   vertex 2636.308615 -2316.337523 -680.000000
  endloop
 endfacet
 facet normal -0.980785 -0.195090 0.000000
  outer loop
   vertex 2632.524449 -2305.189728 23438.000000
   vertex 2630.227736 -2293.643372 23438.000000
   vertex 2630.227736 -2293.643372 -680.000000
  endloop
 endfacet
 facet normal -0.980785 -0.195090 -0.000000
  outer loop
   vertex 2632.524449 -2305.189728 23438.000000
   vertex 2630.227736 -2293.643372 -680.000000
   vertex 2632.524449 -2305.189728 -680.000000
  endloop
 endfacet
 facet normal -0.997859 -0.065403 0.000000
  outer loop
   vertex 2630.227736 -2293.643372 23438.000000
   vertex 2629.457773 -2281.896014 23438.000000
   vertex 2629.457773 -2281.896014 -680.000000
  endloop
 endfacet
 facet normal -0.997859 -0.065403 -0.000000
  outer loop
   vertex 2630.227736 -2293.643372 23438.000000
   vertex 2629.457773 -2281.896014 -680.000000
   vertex 2630.227736 -2293.643372 -680.000000
  endloop
 endfacet
 facet normal -0.997859 0.065403 0.000000
  outer loop
   vertex 2629.457773 -2281.896014 23438.000000
   vertex 2630.227736 -2270.148657 23438.000000
   vertex 2630.227736 -2270.148657 -680.000000
  endloop
 endfacet
 facet normal -0.997859 0.065403 0.000000
  outer loop
   vertex 2629.457773 -2281.896014 23438.000000
   vertex 2630.227736 -2270.148657 -680.000000
   vertex 2629.457773 -2281.896014 -680.000000
  endloop
 endfacet
 facet normal -0.980785 0.195090 0.000000
  outer loop
   vertex 2630.227736 -2270.148657 23438.000000
   vertex 2632.524449 -2258.602300 23438.000000
   vertex 2632.524449 -2258.602300 -680.000000
  endloop
 endfacet
 facet normal -0.980785 0.195090 0.000000
  outer loop
   vertex 2630.227736 -2270.148657 23438.000000
   vertex 2632.524449 -2258.602300 -680.000000
   vertex 2630.227736 -2270.148657 -680.000000
  endloop
 endfacet
 facet normal -0.946930 0.321439 0.000000
  outer loop
   vertex 2632.524449 -2258.602300 23438.000000
   vertex 2636.308615 -2247.454505 23438.000000
   vertex 2636.308615 -2247.454505 -680.000000
  endloop
 endfacet
 facet normal -0.946930 0.321439 0.000000
  outer loop
   vertex 2632.524449 -2258.602300 23438.000000
   vertex 2636.308615 -2247.454505 -680.000000
   vertex 2632.524449 -2258.602300 -680.000000
  endloop
 endfacet
 facet normal -0.896873 0.442289 0.000000
  outer loop
   vertex 2636.308615 -2247.454505 23438.000000
   vertex 2641.515487 -2236.896014 23438.000000
   vertex 2641.515487 -2236.896014 -680.000000
  endloop
 endfacet
 facet normal -0.896873 0.442289 0.000000
  outer loop
   vertex 2636.308615 -2247.454505 23438.000000
   vertex 2641.515487 -2236.896014 -680.000000
   vertex 2636.308615 -2247.454505 -680.000000
  endloop
 endfacet
 facet normal -0.831470 0.555570 0.000000
  outer loop
   vertex 2641.515487 -2236.896014 23438.000000
   vertex 2648.055972 -2227.107486 23438.000000
   vertex 2648.055972 -2227.107486 -680.000000
  endloop
 endfacet
 facet normal -0.831470 0.555570 0.000000
  outer loop
   vertex 2641.515487 -2236.896014 23438.000000
   vertex 2648.055972 -2227.107486 -680.000000
   vertex 2641.515487 -2236.896014 -680.000000
  endloop
 endfacet
 facet normal -0.751840 0.659346 0.000000
  outer loop
   vertex 2648.055972 -2227.107486 23438.000000
   vertex 2655.818163 -2218.256404 23438.000000
   vertex 2655.818163 -2218.256404 -680.000000
  endloop
 endfacet
 facet normal -0.751840 0.659346 0.000000
  outer loop
   vertex 2648.055972 -2227.107486 23438.000000
   vertex 2655.818163 -2218.256404 -680.000000
   vertex 2648.055972 -2227.107486 -680.000000
  endloop
 endfacet
 facet normal -0.659346 0.751840 0.000000
  outer loop
   vertex 2655.818163 -2218.256404 23438.000000
   vertex 2664.669244 -2210.494214 23438.000000
   vertex 2664.669244 -2210.494214 -680.000000
  endloop
 endfacet
 facet normal -0.659346 0.751840 0.000000
  outer loop
   vertex 2655.818163 -2218.256404 23438.000000
   vertex 2664.669244 -2210.494214 -680.000000
   vertex 2655.818163 -2218.256404 -680.000000
  endloop
 endfacet
 facet normal -0.555570 0.831470 0.000000
  outer loop
   vertex 2664.669244 -2210.494214 23438.000000
   vertex 2674.457773 -2203.953728 23438.000000
   vertex 2674.457773 -2203.953728 -680.000000
  endloop
 endfacet
 facet normal -0.555570 0.831470 0.000000
  outer loop
   vertex 2664.669244 -2210.494214 23438.000000
   vertex 2674.457773 -2203.953728 -680.000000
   vertex 2664.669244 -2210.494214 -680.000000
  endloop
 endfacet
 facet normal -0.442289 0.896873 0.000000
  outer loop
   vertex 2674.457773 -2203.953728 23438.000000
   vertex 2685.016264 -2198.746856 23438.000000
   vertex 2685.016264 -2198.746856 -680.000000
  endloop
 endfacet
 facet normal -0.442289 0.896873 0.000000
  outer loop
   vertex 2674.457773 -2203.953728 23438.000000
   vertex 2685.016264 -2198.746856 -680.000000
   vertex 2674.457773 -2203.953728 -680.000000
  endloop
 endfacet
 facet normal -0.321439 0.946930 0.000000
  outer loop
   vertex 2685.016264 -2198.746856 23438.000000
   vertex 2696.164059 -2194.962690 23438.000000
   vertex 2696.164059 -2194.962690 -680.000000
  endloop
 endfacet
 facet normal -0.321439 0.946930 0.000000
  outer loop
   vertex 2685.016264 -2198.746856 23438.000000
   vertex 2696.164059 -2194.962690 -680.000000
   vertex 2685.016264 -2198.746856 -680.000000
  endloop
 endfacet
 facet normal -0.195090 0.980785 0.000000
  outer loop
   vertex 2696.164059 -2194.962690 23438.000000
   vertex 2707.710416 -2192.665977 23438.000000
   vertex 2707.710416 -2192.665977 -680.000000
  endloop
 endfacet
 facet normal -0.195090 0.980785 0.000000
  outer loop
   vertex 2696.164059 -2194.962690 23438.000000
   vertex 2707.710416 -2192.665977 -680.000000
   vertex 2696.164059 -2194.962690 -680.000000
  endloop
 endfacet
 facet normal -0.065403 0.997859 0.000000
  outer loop
   vertex 2707.710416 -2192.665977 23438.000000
   vertex 2719.457773 -2191.896014 23438.000000
   vertex 2719.457773 -2191.896014 -680.000000
  endloop
 endfacet
 facet normal -0.065403 0.997859 0.000000
  outer loop
   vertex 2707.710416 -2192.665977 23438.000000
   vertex 2719.457773 -2191.896014 -680.000000
   vertex 2707.710416 -2192.665977 -680.000000
  endloop
 endfacet
 facet normal -0.065403 -0.997859 0.000000
  outer loop
   vertex 2729.638816 -2204.563315 -680.000000
   vertex 2729.638816 -2204.563315 23438.000000
   vertex 2719.457773 -2203.896014 23438.000000
  endloop
 endfacet
 facet normal -0.065403 -0.997859 0.000000
  outer loop
   vertex 2719.457773 -2203.896014 -680.000000
   vertex 2729.638816 -2204.563315 -680.000000
   vertex 2719.457773 -2203.896014 23438.000000
  endloop
 endfacet
 facet normal -0.195090 -0.980785 0.000000
  outer loop
   vertex 2739.645659 -2206.553800 -680.000000
   vertex 2739.645659 -2206.553800 23438.000000
   vertex 2729.638816 -2204.563315 23438.000000
  endloop
 endfacet
 facet normal -0.195090 -0.980785 0.000000
  outer loop
   vertex 2729.638816 -2204.563315 -680.000000
   vertex 2739.645659 -2206.553800 -680.000000
   vertex 2729.638816 -2204.563315 23438.000000
  endloop
 endfacet
 facet normal -0.321439 -0.946930 0.000000
  outer loop
   vertex 2749.307081 -2209.833411 -680.000000
   vertex 2749.307081 -2209.833411 23438.000000
   vertex 2739.645659 -2206.553800 23438.000000
  endloop
 endfacet
 facet normal -0.321439 -0.946930 0.000000
  outer loop
   vertex 2739.645659 -2206.553800 -680.000000
   vertex 2749.307081 -2209.833411 -680.000000
   vertex 2739.645659 -2206.553800 23438.000000
  endloop
 endfacet
 facet normal -0.442289 -0.896873 0.000000
  outer loop
   vertex 2758.457773 -2214.346033 -680.000000
   vertex 2758.457773 -2214.346033 23438.000000
   vertex 2749.307081 -2209.833411 23438.000000
  endloop
 endfacet
 facet normal -0.442289 -0.896873 0.000000
  outer loop
   vertex 2749.307081 -2209.833411 -680.000000
   vertex 2758.457773 -2214.346033 -680.000000
   vertex 2749.307081 -2209.833411 23438.000000
  endloop
 endfacet
 facet normal -0.555570 -0.831470 0.000000
  outer loop
   vertex 2766.941165 -2220.014454 -680.000000
   vertex 2766.941165 -2220.014454 23438.000000
   vertex 2758.457773 -2214.346033 23438.000000
  endloop
 endfacet
 facet normal -0.555570 -0.831470 0.000000
  outer loop
   vertex 2758.457773 -2214.346033 -680.000000
   vertex 2766.941165 -2220.014454 -680.000000
   vertex 2758.457773 -2214.346033 23438.000000
  endloop
 endfacet
 facet normal -0.659346 -0.751840 0.000000
  outer loop
   vertex 2774.612102 -2226.741685 -680.000000
   vertex 2774.612102 -2226.741685 23438.000000
   vertex 2766.941165 -2220.014454 23438.000000
  endloop
 endfacet
 facet normal -0.659346 -0.751840 0.000000
  outer loop
   vertex 2766.941165 -2220.014454 -680.000000
   vertex 2774.612102 -2226.741685 -680.000000
   vertex 2766.941165 -2220.014454 23438.000000
  endloop
 endfacet
 facet normal -0.751840 -0.659346 0.000000
  outer loop
   vertex 2781.339334 -2234.412623 -680.000000
   vertex 2781.339334 -2234.412623 23438.000000
   vertex 2774.612102 -2226.741685 23438.000000
  endloop
 endfacet
 facet normal -0.751840 -0.659346 0.000000
  outer loop
   vertex 2774.612102 -2226.741685 -680.000000
   vertex 2781.339334 -2234.412623 -680.000000
   vertex 2774.612102 -2226.741685 23438.000000
  endloop
 endfacet
 facet normal -0.831470 -0.555570 0.000000
  outer loop
   vertex 2787.007755 -2242.896014 -680.000000
   vertex 2787.007755 -2242.896014 23438.000000
   vertex 2781.339334 -2234.412623 23438.000000
  endloop
 endfacet
 facet normal -0.831470 -0.555570 0.000000
  outer loop
   vertex 2781.339334 -2234.412623 -680.000000
   vertex 2787.007755 -2242.896014 -680.000000
   vertex 2781.339334 -2234.412623 23438.000000
  endloop
 endfacet
 facet normal -0.896873 -0.442289 0.000000
  outer loop
   vertex 2791.520377 -2252.046707 -680.000000
   vertex 2791.520377 -2252.046707 23438.000000
   vertex 2787.007755 -2242.896014 23438.000000
  endloop
 endfacet
 facet normal -0.896873 -0.442289 0.000000
  outer loop
   vertex 2787.007755 -2242.896014 -680.000000
   vertex 2791.520377 -2252.046707 -680.000000
   vertex 2787.007755 -2242.896014 23438.000000
  endloop
 endfacet
 facet normal -0.946930 -0.321439 0.000000
  outer loop
   vertex 2794.799988 -2261.708129 -680.000000
   vertex 2794.799988 -2261.708129 23438.000000
   vertex 2791.520377 -2252.046707 23438.000000
  endloop
 endfacet
 facet normal -0.946930 -0.321439 0.000000
  outer loop
   vertex 2791.520377 -2252.046707 -680.000000
   vertex 2794.799988 -2261.708129 -680.000000
   vertex 2791.520377 -2252.046707 23438.000000
  endloop
 endfacet
 facet normal -0.980785 -0.195090 0.000000
  outer loop
   vertex 2796.790472 -2271.714971 -680.000000
   vertex 2796.790472 -2271.714971 23438.000000
   vertex 2794.799988 -2261.708129 23438.000000
  endloop
 endfacet
 facet normal -0.980785 -0.195090 0.000000
  outer loop
   vertex 2794.799988 -2261.708129 -680.000000
   vertex 2796.790472 -2271.714971 -680.000000
   vertex 2794.799988 -2261.708129 23438.000000
  endloop
 endfacet
 facet normal -0.997859 -0.065403 0.000000
  outer loop
   vertex 2797.457773 -2281.896014 -680.000000
   vertex 2797.457773 -2281.896014 23438.000000
   vertex 2796.790472 -2271.714971 23438.000000
  endloop
 endfacet
 facet normal -0.997859 -0.065403 0.000000
  outer loop
   vertex 2796.790472 -2271.714971 -680.000000
   vertex 2797.457773 -2281.896014 -680.000000
   vertex 2796.790472 -2271.714971 23438.000000
  endloop
 endfacet
 facet normal -0.997859 0.065403 0.000000
  outer loop
   vertex 2796.790472 -2292.077057 -680.000000
   vertex 2796.790472 -2292.077057 23438.000000
   vertex 2797.457773 -2281.896014 23438.000000
  endloop
 endfacet
 facet normal -0.997859 0.065403 0.000000
  outer loop
   vertex 2797.457773 -2281.896014 -680.000000
   vertex 2796.790472 -2292.077057 -680.000000
   vertex 2797.457773 -2281.896014 23438.000000
  endloop
 endfacet
 facet normal -0.980785 0.195090 0.000000
  outer loop
   vertex 2794.799988 -2302.083900 -680.000000
   vertex 2794.799988 -2302.083900 23438.000000
   vertex 2796.790472 -2292.077057 23438.000000
  endloop
 endfacet
 facet normal -0.980785 0.195090 0.000000
  outer loop
   vertex 2796.790472 -2292.077057 -680.000000
   vertex 2794.799988 -2302.083900 -680.000000
   vertex 2796.790472 -2292.077057 23438.000000
  endloop
 endfacet
 facet normal -0.946930 0.321439 0.000000
  outer loop
   vertex 2791.520377 -2311.745322 -680.000000
   vertex 2791.520377 -2311.745322 23438.000000
   vertex 2794.799988 -2302.083900 23438.000000
  endloop
 endfacet
 facet normal -0.946930 0.321439 0.000000
  outer loop
   vertex 2794.799988 -2302.083900 -680.000000
   vertex 2791.520377 -2311.745322 -680.000000
   vertex 2794.799988 -2302.083900 23438.000000
  endloop
 endfacet
 facet normal -0.896873 0.442289 0.000000
  outer loop
   vertex 2787.007755 -2320.896014 -680.000000
   vertex 2787.007755 -2320.896014 23438.000000
   vertex 2791.520377 -2311.745322 23438.000000
  endloop
 endfacet
 facet normal -0.896873 0.442289 0.000000
  outer loop
   vertex 2791.520377 -2311.745322 -680.000000
   vertex 2787.007755 -2320.896014 -680.000000
   vertex 2791.520377 -2311.745322 23438.000000
  endloop
 endfacet
 facet normal -0.831470 0.555570 0.000000
  outer loop
   vertex 2781.339334 -2329.379406 -680.000000
   vertex 2781.339334 -2329.379406 23438.000000
   vertex 2787.007755 -2320.896014 23438.000000
  endloop
 endfacet
 facet normal -0.831470 0.555570 0.000000
  outer loop
   vertex 2787.007755 -2320.896014 -680.000000
   vertex 2781.339334 -2329.379406 -680.000000
   vertex 2787.007755 -2320.896014 23438.000000
  endloop
 endfacet
 facet normal -0.751840 0.659346 0.000000
  outer loop
   vertex 2774.612102 -2337.050343 -680.000000
   vertex 2774.612102 -2337.050343 23438.000000
   vertex 2781.339334 -2329.379406 23438.000000
  endloop
 endfacet
 facet normal -0.751840 0.659346 0.000000
  outer loop
   vertex 2781.339334 -2329.379406 -680.000000
   vertex 2774.612102 -2337.050343 -680.000000
   vertex 2781.339334 -2329.379406 23438.000000
  endloop
 endfacet
 facet normal -0.659346 0.751840 0.000000
  outer loop
   vertex 2766.941165 -2343.777575 -680.000000
   vertex 2766.941165 -2343.777575 23438.000000
   vertex 2774.612102 -2337.050343 23438.000000
  endloop
 endfacet
 facet normal -0.659346 0.751840 0.000000
  outer loop
   vertex 2774.612102 -2337.050343 -680.000000
   vertex 2766.941165 -2343.777575 -680.000000
   vertex 2774.612102 -2337.050343 23438.000000
  endloop
 endfacet
 facet normal -0.555570 0.831470 0.000000
  outer loop
   vertex 2758.457773 -2349.445996 -680.000000
   vertex 2758.457773 -2349.445996 23438.000000
   vertex 2766.941165 -2343.777575 23438.000000
  endloop
 endfacet
 facet normal -0.555570 0.831470 0.000000
  outer loop
   vertex 2766.941165 -2343.777575 -680.000000
   vertex 2758.457773 -2349.445996 -680.000000
   vertex 2766.941165 -2343.777575 23438.000000
  endloop
 endfacet
 facet normal -0.442289 0.896873 0.000000
  outer loop
   vertex 2749.307081 -2353.958618 -680.000000
   vertex 2749.307081 -2353.958618 23438.000000
   vertex 2758.457773 -2349.445996 23438.000000
  endloop
 endfacet
 facet normal -0.442289 0.896873 0.000000
  outer loop
   vertex 2758.457773 -2349.445996 -680.000000
   vertex 2749.307081 -2353.958618 -680.000000
   vertex 2758.457773 -2349.445996 23438.000000
  endloop
 endfacet
 facet normal -0.321439 0.946930 0.000000
  outer loop
   vertex 2739.645659 -2357.238229 -680.000000
   vertex 2739.645659 -2357.238229 23438.000000
   vertex 2749.307081 -2353.958618 23438.000000
  endloop
 endfacet
 facet normal -0.321439 0.946930 0.000000
  outer loop
   vertex 2749.307081 -2353.958618 -680.000000
   vertex 2739.645659 -2357.238229 -680.000000
   vertex 2749.307081 -2353.958618 23438.000000
  endloop
 endfacet
 facet normal -0.195090 0.980785 0.000000
  outer loop
   vertex 2729.638816 -2359.228714 -680.000000
   vertex 2729.638816 -2359.228714 23438.000000
   vertex 2739.645659 -2357.238229 23438.000000
  endloop
 endfacet
 facet normal -0.195090 0.980785 0.000000
  outer loop
   vertex 2739.645659 -2357.238229 -680.000000
   vertex 2729.638816 -2359.228714 -680.000000
   vertex 2739.645659 -2357.238229 23438.000000
  endloop
 endfacet
 facet normal -0.065403 0.997859 0.000000
  outer loop
   vertex 2719.457773 -2359.896014 -680.000000
   vertex 2719.457773 -2359.896014 23438.000000
   vertex 2729.638816 -2359.228714 23438.000000
  endloop
 endfacet
 facet normal -0.065403 0.997859 0.000000
  outer loop
   vertex 2729.638816 -2359.228714 -680.000000
   vertex 2719.457773 -2359.896014 -680.000000
   vertex 2729.638816 -2359.228714 23438.000000
  endloop
 endfacet
 facet normal 0.065403 0.997859 -0.000000
  outer loop
   vertex 2709.276730 -2359.228714 -680.000000
   vertex 2709.276730 -2359.228714 23438.000000
   vertex 2719.457773 -2359.896014 23438.000000
  endloop
 endfacet
 facet normal 0.065403 0.997859 -0.000000
  outer loop
   vertex 2719.457773 -2359.896014 -680.000000
   vertex 2709.276730 -2359.228714 -680.000000
   vertex 2719.457773 -2359.896014 23438.000000
  endloop
 endfacet
 facet normal 0.195090 0.980785 -0.000000
  outer loop
   vertex 2699.269888 -2357.238229 -680.000000
   vertex 2699.269888 -2357.238229 23438.000000
   vertex 2709.276730 -2359.228714 23438.000000
  endloop
 endfacet
 facet normal 0.195090 0.980785 -0.000000
  outer loop
   vertex 2709.276730 -2359.228714 -680.000000
   vertex 2699.269888 -2357.238229 -680.000000
   vertex 2709.276730 -2359.228714 23438.000000
  endloop
 endfacet
 facet normal 0.321439 0.946930 -0.000000
  outer loop
   vertex 2689.608465 -2353.958618 -680.000000
   vertex 2689.608465 -2353.958618 23438.000000
   vertex 2699.269888 -2357.238229 23438.000000
  endloop
 endfacet
 facet normal 0.321439 0.946930 -0.000000
  outer loop
   vertex 2699.269888 -2357.238229 -680.000000
   vertex 2689.608465 -2353.958618 -680.000000
   vertex 2699.269888 -2357.238229 23438.000000
  endloop
 endfacet
 facet normal 0.442289 0.896873 -0.000000
  outer loop
   vertex 2680.457773 -2349.445996 -680.000000
   vertex 2680.457773 -2349.445996 23438.000000
   vertex 2689.608465 -2353.958618 23438.000000
  endloop
 endfacet
 facet normal 0.442289 0.896873 -0.000000
  outer loop
   vertex 2689.608465 -2353.958618 -680.000000
   vertex 2680.457773 -2349.445996 -680.000000
   vertex 2689.608465 -2353.958618 23438.000000
  endloop
 endfacet
 facet normal 0.555570 0.831470 -0.000000
  outer loop
   vertex 2671.974382 -2343.777575 -680.000000
   vertex 2671.974382 -2343.777575 23438.000000
   vertex 2680.457773 -2349.445996 23438.000000
  endloop
 endfacet
 facet normal 0.555570 0.831470 -0.000000
  outer loop
   vertex 2680.457773 -2349.445996 -680.000000
   vertex 2671.974382 -2343.777575 -680.000000
   vertex 2680.457773 -2349.445996 23438.000000
  endloop
 endfacet
 facet normal 0.659346 0.751840 -0.000000
  outer loop
   vertex 2664.303444 -2337.050343 -680.000000
   vertex 2664.303444 -2337.050343 23438.000000
   vertex 2671.974382 -2343.777575 23438.000000
  endloop
 endfacet
 facet normal 0.659346 0.751840 -0.000000
  outer loop
   vertex 2671.974382 -2343.777575 -680.000000
   vertex 2664.303444 -2337.050343 -680.000000
   vertex 2671.974382 -2343.777575 23438.000000
  endloop
 endfacet
 facet normal 0.751840 0.659346 -0.000000
  outer loop
   vertex 2657.576213 -2329.379406 -680.000000
   vertex 2657.576213 -2329.379406 23438.000000
   vertex 2664.303444 -2337.050343 23438.000000
  endloop
 endfacet
 facet normal 0.751840 0.659346 -0.000000
  outer loop
   vertex 2664.303444 -2337.050343 -680.000000
   vertex 2657.576213 -2329.379406 -680.000000
   vertex 2664.303444 -2337.050343 23438.000000
  endloop
 endfacet
 facet normal 0.831470 0.555570 -0.000000
  outer loop
   vertex 2651.907792 -2320.896014 -680.000000
   vertex 2651.907792 -2320.896014 23438.000000
   vertex 2657.576213 -2329.379406 23438.000000
  endloop
 endfacet
 facet normal 0.831470 0.555570 -0.000000
  outer loop
   vertex 2657.576213 -2329.379406 -680.000000
   vertex 2651.907792 -2320.896014 -680.000000
   vertex 2657.576213 -2329.379406 23438.000000
  endloop
 endfacet
 facet normal 0.896873 0.442289 -0.000000
  outer loop
   vertex 2647.395170 -2311.745322 -680.000000
   vertex 2647.395170 -2311.745322 23438.000000
   vertex 2651.907792 -2320.896014 23438.000000
  endloop
 endfacet
 facet normal 0.896873 0.442289 -0.000000
  outer loop
   vertex 2651.907792 -2320.896014 -680.000000
   vertex 2647.395170 -2311.745322 -680.000000
   vertex 2651.907792 -2320.896014 23438.000000
  endloop
 endfacet
 facet normal 0.946930 0.321439 -0.000000
  outer loop
   vertex 2644.115559 -2302.083900 -680.000000
   vertex 2644.115559 -2302.083900 23438.000000
   vertex 2647.395170 -2311.745322 23438.000000
  endloop
 endfacet
 facet normal 0.946930 0.321439 -0.000000
  outer loop
   vertex 2647.395170 -2311.745322 -680.000000
   vertex 2644.115559 -2302.083900 -680.000000
   vertex 2647.395170 -2311.745322 23438.000000
  endloop
 endfacet
 facet normal 0.980785 0.195090 -0.000000
  outer loop
   vertex 2642.125074 -2292.077057 -680.000000
   vertex 2642.125074 -2292.077057 23438.000000
   vertex 2644.115559 -2302.083900 23438.000000
  endloop
 endfacet
 facet normal 0.980785 0.195090 -0.000000
  outer loop
   vertex 2644.115559 -2302.083900 -680.000000
   vertex 2642.125074 -2292.077057 -680.000000
   vertex 2644.115559 -2302.083900 23438.000000
  endloop
 endfacet
 facet normal 0.997859 0.065403 -0.000000
  outer loop
   vertex 2641.457773 -2281.896014 -680.000000
   vertex 2641.457773 -2281.896014 23438.000000
   vertex 2642.125074 -2292.077057 23438.000000
  endloop
 endfacet
 facet normal 0.997859 0.065403 -0.000000
  outer loop
   vertex 2642.125074 -2292.077057 -680.000000
   vertex 2641.457773 -2281.896014 -680.000000
   vertex 2642.125074 -2292.077057 23438.000000
  endloop
 endfacet
 facet normal 0.997859 -0.065403 0.000000
  outer loop
   vertex 2642.125074 -2271.714971 -680.000000
   vertex 2642.125074 -2271.714971 23438.000000
   vertex 2641.457773 -2281.896014 23438.000000
  endloop
 endfacet
 facet normal 0.997859 -0.065403 0.000000
  outer loop
   vertex 2641.457773 -2281.896014 -680.000000
   vertex 2642.125074 -2271.714971 -680.000000
   vertex 2641.457773 -2281.896014 23438.000000
  endloop
 endfacet
 facet normal 0.980785 -0.195090 0.000000
  outer loop
   vertex 2644.115559 -2261.708129 -680.000000
   vertex 2644.115559 -2261.708129 23438.000000
   vertex 2642.125074 -2271.714971 23438.000000
  endloop
 endfacet
 facet normal 0.980785 -0.195090 0.000000
  outer loop
   vertex 2642.125074 -2271.714971 -680.000000
   vertex 2644.115559 -2261.708129 -680.000000
   vertex 2642.125074 -2271.714971 23438.000000
  endloop
 endfacet
 facet normal 0.946930 -0.321439 0.000000
  outer loop
   vertex 2647.395170 -2252.046707 -680.000000
   vertex 2647.395170 -2252.046707 23438.000000
   vertex 2644.115559 -2261.708129 23438.000000
  endloop
 endfacet
 facet normal 0.946930 -0.321439 0.000000
  outer loop
   vertex 2644.115559 -2261.708129 -680.000000
   vertex 2647.395170 -2252.046707 -680.000000
   vertex 2644.115559 -2261.708129 23438.000000
  endloop
 endfacet
 facet normal 0.896873 -0.442289 0.000000
  outer loop
   vertex 2651.907792 -2242.896014 -680.000000
   vertex 2651.907792 -2242.896014 23438.000000
   vertex 2647.395170 -2252.046707 23438.000000
  endloop
 endfacet
 facet normal 0.896873 -0.442289 0.000000
  outer loop
   vertex 2647.395170 -2252.046707 -680.000000
   vertex 2651.907792 -2242.896014 -680.000000
   vertex 2647.395170 -2252.046707 23438.000000
  endloop
 endfacet
 facet normal 0.831470 -0.555570 0.000000
  outer loop
   vertex 2657.576213 -2234.412623 -680.000000
   vertex 2657.576213 -2234.412623 23438.000000
   vertex 2651.907792 -2242.896014 23438.000000
  endloop
 endfacet
 facet normal 0.831470 -0.555570 0.000000
  outer loop
   vertex 2651.907792 -2242.896014 -680.000000
   vertex 2657.576213 -2234.412623 -680.000000
   vertex 2651.907792 -2242.896014 23438.000000
  endloop
 endfacet
 facet normal 0.751840 -0.659346 0.000000
  outer loop
   vertex 2664.303444 -2226.741685 -680.000000
   vertex 2664.303444 -2226.741685 23438.000000
   vertex 2657.576213 -2234.412623 23438.000000
  endloop
 endfacet
 facet normal 0.751840 -0.659346 0.000000
  outer loop
   vertex 2657.576213 -2234.412623 -680.000000
   vertex 2664.303444 -2226.741685 -680.000000
   vertex 2657.576213 -2234.412623 23438.000000
  endloop
 endfacet
 facet normal 0.659346 -0.751840 0.000000
  outer loop
   vertex 2671.974382 -2220.014454 -680.000000
   vertex 2671.974382 -2220.014454 23438.000000
   vertex 2664.303444 -2226.741685 23438.000000
  endloop
 endfacet
 facet normal 0.659346 -0.751840 0.000000
  outer loop
   vertex 2664.303444 -2226.741685 -680.000000
   vertex 2671.974382 -2220.014454 -680.000000
   vertex 2664.303444 -2226.741685 23438.000000
  endloop
 endfacet
 facet normal 0.555570 -0.831470 0.000000
  outer loop
   vertex 2680.457773 -2214.346033 -680.000000
   vertex 2680.457773 -2214.346033 23438.000000
   vertex 2671.974382 -2220.014454 23438.000000
  endloop
 endfacet
 facet normal 0.555570 -0.831470 0.000000
  outer loop
   vertex 2671.974382 -2220.014454 -680.000000
   vertex 2680.457773 -2214.346033 -680.000000
   vertex 2671.974382 -2220.014454 23438.000000
  endloop
 endfacet
 facet normal 0.442289 -0.896873 0.000000
  outer loop
   vertex 2689.608465 -2209.833411 -680.000000
   vertex 2689.608465 -2209.833411 23438.000000
   vertex 2680.457773 -2214.346033 23438.000000
  endloop
 endfacet
 facet normal 0.442289 -0.896873 0.000000
  outer loop
   vertex 2680.457773 -2214.346033 -680.000000
   vertex 2689.608465 -2209.833411 -680.000000
   vertex 2680.457773 -2214.346033 23438.000000
  endloop
 endfacet
 facet normal 0.321439 -0.946930 0.000000
  outer loop
   vertex 2699.269888 -2206.553800 -680.000000
   vertex 2699.269888 -2206.553800 23438.000000
   vertex 2689.608465 -2209.833411 23438.000000
  endloop
 endfacet
 facet normal 0.321439 -0.946930 0.000000
  outer loop
   vertex 2689.608465 -2209.833411 -680.000000
   vertex 2699.269888 -2206.553800 -680.000000
   vertex 2689.608465 -2209.833411 23438.000000
  endloop
 endfacet
 facet normal 0.195090 -0.980785 0.000000
  outer loop
   vertex 2709.276730 -2204.563315 -680.000000
   vertex 2709.276730 -2204.563315 23438.000000
   vertex 2699.269888 -2206.553800 23438.000000
  endloop
 endfacet
 facet normal 0.195090 -0.980785 0.000000
  outer loop
   vertex 2699.269888 -2206.553800 -680.000000
   vertex 2709.276730 -2204.563315 -680.000000
   vertex 2699.269888 -2206.553800 23438.000000
  endloop
 endfacet
 facet normal 0.065403 -0.997859 0.000000
  outer loop
   vertex 2719.457773 -2203.896014 -680.000000
   vertex 2719.457773 -2203.896014 23438.000000
   vertex 2709.276730 -2204.563315 23438.000000
  endloop
 endfacet
 facet normal 0.065403 -0.997859 0.000000
  outer loop
   vertex 2709.276730 -2204.563315 -680.000000
   vertex 2719.457773 -2203.896014 -680.000000
   vertex 2709.276730 -2204.563315 23438.000000
  endloop
 endfacet
endsolid SIC_RP1_downcomer_320
