solid SIC_RP1_feed_3_elbow
 facet normal 0.065403 0.997859 0.000000
  outer loop
   vertex -1650.000000 -2757.800000 -500.000000
   vertex -1636.947381 -2758.655514 -500.000000
   vertex -1636.947381 -2758.655514 -1020.000000
  endloop
 endfacet
 facet normal 0.065403 0.997859 0.000000
  outer loop
   vertex -1650.000000 -2757.800000 -500.000000
   vertex -1636.947381 -2758.655514 -1020.000000
   vertex -1650.000000 -2757.800000 -1020.000000
  endloop
 endfacet
 facet normal 0.195090 0.980785 0.000000
  outer loop
   vertex -1636.947381 -2758.655514 -500.000000
   vertex -1624.118095 -2761.207417 -500.000000
   vertex -1624.118095 -2761.207417 -1020.000000
  endloop
 endfacet
 facet normal 0.195090 0.980785 0.000000
  outer loop
   vertex -1636.947381 -2758.655514 -500.000000
   vertex -1624.118095 -2761.207417 -1020.000000
   vertex -1636.947381 -2758.655514 -1020.000000
  endloop
 endfacet
 facet normal 0.321439 0.946930 0.000000
  outer loop
   vertex -1624.118095 -2761.207417 -500.000000
   vertex -1611.731657 -2765.412047 -500.000000
   vertex -1611.731657 -2765.412047 -1020.000000
  endloop
 endfacet
 facet normal 0.321439 0.946930 0.000000
  outer loop
   vertex -1624.118095 -2761.207417 -500.000000
   vertex -1611.731657 -2765.412047 -1020.000000
   vertex -1624.118095 -2761.207417 -1020.000000
  endloop
 endfacet
 facet normal 0.442289 0.896873 0.000000
  outer loop
   vertex -1611.731657 -2765.412047 -500.000000
   vertex -1600.000000 -2771.197460 -500.000000
   vertex -1600.000000 -2771.197460 -1020.000000
  endloop
 endfacet
 facet normal 0.442289 0.896873 0.000000
  outer loop
   vertex -1611.731657 -2765.412047 -500.000000
   vertex -1600.000000 -2771.197460 -1020.000000
   vertex -1611.731657 -2765.412047 -1020.000000
  endloop
 endfacet
 facet normal 0.555570 0.831470 0.000000
  outer loop
   vertex -1600.000000 -2771.197460 -500.000000
   vertex -1589.123857 -2778.464666 -500.000000
   vertex -1589.123857 -2778.464666 -1020.000000
  endloop
 endfacet
 facet normal 0.555570 0.831470 0.000000
  outer loop
   vertex -1600.000000 -2771.197460 -500.000000
   vertex -1589.123857 -2778.464666 -1020.000000
   vertex -1600.000000 -2771.197460 -1020.000000
  endloop
 endfacet
 facet normal 0.659346 0.751840 0.000000
  outer loop
   vertex -1589.123857 -2778.464666 -500.000000
   vertex -1579.289322 -2787.089322 -500.000000
   vertex -1579.289322 -2787.089322 -1020.000000
  endloop
 endfacet
 facet normal 0.659346 0.751840 0.000000
  outer loop
   vertex -1589.123857 -2778.464666 -500.000000
   vertex -1579.289322 -2787.089322 -1020.000000
   vertex -1589.123857 -2778.464666 -1020.000000
  endloop
 endfacet
 facet normal 0.751840 0.659346 0.000000
  outer loop
   vertex -1579.289322 -2787.089322 -500.000000
   vertex -1570.664666 -2796.923857 -500.000000
   vertex -1570.664666 -2796.923857 -1020.000000
  endloop
 endfacet
 facet normal 0.751840 0.659346 0.000000
  outer loop
   vertex -1579.289322 -2787.089322 -500.000000
   vertex -1570.664666 -2796.923857 -1020.000000
   vertex -1579.289322 -2787.089322 -1020.000000
  endloop
 endfacet
 facet normal 0.831470 0.555570 0.000000
  outer loop
   vertex -1570.664666 -2796.923857 -500.000000
   vertex -1563.397460 -2807.800000 -500.000000
   vertex -1563.397460 -2807.800000 -1020.000000
  endloop
 endfacet
 facet normal 0.831470 0.555570 0.000000
  outer loop
   vertex -1570.664666 -2796.923857 -500.000000
   vertex -1563.397460 -2807.800000 -1020.000000
   vertex -1570.664666 -2796.923857 -1020.000000
  endloop
 endfacet
 facet normal 0.896873 0.442289 0.000000
  outer loop
   vertex -1563.397460 -2807.800000 -500.000000
   vertex -1557.612047 -2819.531657 -500.000000
   vertex -1557.612047 -2819.531657 -1020.000000
  endloop
 endfacet
 facet normal 0.896873 0.442289 0.000000
  outer loop
   vertex -1563.397460 -2807.800000 -500.000000
   vertex -1557.612047 -2819.531657 -1020.000000
   vertex -1563.397460 -2807.800000 -1020.000000
  endloop
 endfacet
 facet normal 0.946930 0.321439 0.000000
  outer loop
   vertex -1557.612047 -2819.531657 -500.000000
   vertex -1553.407417 -2831.918095 -500.000000
   vertex -1553.407417 -2831.918095 -1020.000000
  endloop
 endfacet
 facet normal 0.946930 0.321439 0.000000
  outer loop
   vertex -1557.612047 -2819.531657 -500.000000
   vertex -1553.407417 -2831.918095 -1020.000000
   vertex -1557.612047 -2819.531657 -1020.000000
  endloop
 endfacet
 facet normal 0.980785 0.195090 0.000000
  outer loop
   vertex -1553.407417 -2831.918095 -500.000000
   vertex -1550.855514 -2844.747381 -500.000000
   vertex -1550.855514 -2844.747381 -1020.000000
  endloop
 endfacet
 facet normal 0.980785 0.195090 0.000000
  outer loop
   vertex -1553.407417 -2831.918095 -500.000000
   vertex -1550.855514 -2844.747381 -1020.000000
   vertex -1553.407417 -2831.918095 -1020.000000
  endloop
 endfacet
 facet normal 0.997859 0.065403 0.000000
  outer loop
   vertex -1550.855514 -2844.747381 -500.000000
   vertex -1550.000000 -2857.800000 -500.000000
   vertex -1550.000000 -2857.800000 -1020.000000
  endloop
 endfacet
 facet normal 0.997859 0.065403 0.000000
  outer loop
   vertex -1550.855514 -2844.747381 -500.000000
   vertex -1550.000000 -2857.800000 -1020.000000
   vertex -1550.855514 -2844.747381 -1020.000000
  endloop
 endfacet
 facet normal 0.997859 -0.065403 0.000000
  outer loop
   vertex -1550.000000 -2857.800000 -500.000000
   vertex -1550.855514 -2870.852619 -500.000000
   vertex -1550.855514 -2870.852619 -1020.000000
  endloop
 endfacet
 facet normal 0.997859 -0.065403 0.000000
  outer loop
   vertex -1550.000000 -2857.800000 -500.000000
   vertex -1550.855514 -2870.852619 -1020.000000
   vertex -1550.000000 -2857.800000 -1020.000000
  endloop
 endfacet
 facet normal 0.980785 -0.195090 0.000000
  outer loop
   vertex -1550.855514 -2870.852619 -500.000000
   vertex -1553.407417 -2883.681905 -500.000000
   vertex -1553.407417 -2883.681905 -1020.000000
  endloop
 endfacet
 facet normal 0.980785 -0.195090 0.000000
  outer loop
   vertex -1550.855514 -2870.852619 -500.000000
   vertex -1553.407417 -2883.681905 -1020.000000
   vertex -1550.855514 -2870.852619 -1020.000000
  endloop
 endfacet
 facet normal 0.946930 -0.321439 0.000000
  outer loop
   vertex -1553.407417 -2883.681905 -500.000000
   vertex -1557.612047 -2896.068343 -500.000000
   vertex -1557.612047 -2896.068343 -1020.000000
  endloop
 endfacet
 facet normal 0.946930 -0.321439 0.000000
  outer loop
   vertex -1553.407417 -2883.681905 -500.000000
   vertex -1557.612047 -2896.068343 -1020.000000
   vertex -1553.407417 -2883.681905 -1020.000000
  endloop
 endfacet
 facet normal 0.896873 -0.442289 0.000000
  outer loop
   vertex -1557.612047 -2896.068343 -500.000000
   vertex -1563.397460 -2907.800000 -500.000000
   vertex -1563.397460 -2907.800000 -1020.000000
  endloop
 endfacet
 facet normal 0.896873 -0.442289 0.000000
  outer loop
   vertex -1557.612047 -2896.068343 -500.000000
   vertex -1563.397460 -2907.800000 -1020.000000
   vertex -1557.612047 -2896.068343 -1020.000000
  endloop
 endfacet
 facet normal 0.831470 -0.555570 0.000000
  outer loop
   vertex -1563.397460 -2907.800000 -500.000000
   vertex -1570.664666 -2918.676143 -500.000000
   vertex -1570.664666 -2918.676143 -1020.000000
  endloop
 endfacet
 facet normal 0.831470 -0.555570 0.000000
  outer loop
   vertex -1563.397460 -2907.800000 -500.000000
   vertex -1570.664666 -2918.676143 -1020.000000
   vertex -1563.397460 -2907.800000 -1020.000000
  endloop
 endfacet
 facet normal 0.751840 -0.659346 0.000000
  outer loop
   vertex -1570.664666 -2918.676143 -500.000000
   vertex -1579.289322 -2928.510678 -500.000000
   vertex -1579.289322 -2928.510678 -1020.000000
  endloop
 endfacet
 facet normal 0.751840 -0.659346 0.000000
  outer loop
   vertex -1570.664666 -2918.676143 -500.000000
   vertex -1579.289322 -2928.510678 -1020.000000
   vertex -1570.664666 -2918.676143 -1020.000000
  endloop
 endfacet
 facet normal 0.659346 -0.751840 0.000000
  outer loop
   vertex -1579.289322 -2928.510678 -500.000000
   vertex -1589.123857 -2937.135334 -500.000000
   vertex -1589.123857 -2937.135334 -1020.000000
  endloop
 endfacet
 facet normal 0.659346 -0.751840 0.000000
  outer loop
   vertex -1579.289322 -2928.510678 -500.000000
   vertex -1589.123857 -2937.135334 -1020.000000
   vertex -1579.289322 -2928.510678 -1020.000000
  endloop
 endfacet
 facet normal 0.555570 -0.831470 0.000000
  outer loop
   vertex -1589.123857 -2937.135334 -500.000000
   vertex -1600.000000 -2944.402540 -500.000000
   vertex -1600.000000 -2944.402540 -1020.000000
  endloop
 endfacet
 facet normal 0.555570 -0.831470 0.000000
  outer loop
   vertex -1589.123857 -2937.135334 -500.000000
   vertex -1600.000000 -2944.402540 -1020.000000
   vertex -1589.123857 -2937.135334 -1020.000000
  endloop
 endfacet
 facet normal 0.442289 -0.896873 0.000000
  outer loop
   vertex -1600.000000 -2944.402540 -500.000000
   vertex -1611.731657 -2950.187953 -500.000000
   vertex -1611.731657 -2950.187953 -1020.000000
  endloop
 endfacet
 facet normal 0.442289 -0.896873 0.000000
  outer loop
   vertex -1600.000000 -2944.402540 -500.000000
   vertex -1611.731657 -2950.187953 -1020.000000
   vertex -1600.000000 -2944.402540 -1020.000000
  endloop
 endfacet
 facet normal 0.321439 -0.946930 0.000000
  outer loop
   vertex -1611.731657 -2950.187953 -500.000000
   vertex -1624.118095 -2954.392583 -500.000000
   vertex -1624.118095 -2954.392583 -1020.000000
  endloop
 endfacet
 facet normal 0.321439 -0.946930 0.000000
  outer loop
   vertex -1611.731657 -2950.187953 -500.000000
   vertex -1624.118095 -2954.392583 -1020.000000
   vertex -1611.731657 -2950.187953 -1020.000000
  endloop
 endfacet
 facet normal 0.195090 -0.980785 0.000000
  outer loop
   vertex -1624.118095 -2954.392583 -500.000000
   vertex -1636.947381 -2956.944486 -500.000000
   vertex -1636.947381 -2956.944486 -1020.000000
  endloop
 endfacet
 facet normal 0.195090 -0.980785 0.000000
  outer loop
   vertex -1624.118095 -2954.392583 -500.000000
   vertex -1636.947381 -2956.944486 -1020.000000
   vertex -1624.118095 -2954.392583 -1020.000000
  endloop
 endfacet
 facet normal 0.065403 -0.997859 0.000000
  outer loop
   vertex -1636.947381 -2956.944486 -500.000000
   vertex -1650.000000 -2957.800000 -500.000000
   vertex -1650.000000 -2957.800000 -1020.000000
  endloop
 endfacet
 facet normal 0.065403 -0.997859 0.000000
  outer loop
   vertex -1636.947381 -2956.944486 -500.000000
   vertex -1650.000000 -2957.800000 -1020.000000
   vertex -1636.947381 -2956.944486 -1020.000000
  endloop
 endfacet
 facet normal -0.065403 -0.997859 0.000000
  outer loop
   vertex -1650.000000 -2957.800000 -500.000000
   vertex -1663.052619 -2956.944486 -500.000000
   vertex -1663.052619 -2956.944486 -1020.000000
  endloop
 endfacet
 facet normal -0.065403 -0.997859 -0.000000
  outer loop
   vertex -1650.000000 -2957.800000 -500.000000
   vertex -1663.052619 -2956.944486 -1020.000000
   vertex -1650.000000 -2957.800000 -1020.000000
  endloop
 endfacet
 facet normal -0.195090 -0.980785 0.000000
  outer loop
   vertex -1663.052619 -2956.944486 -500.000000
   vertex -1675.881905 -2954.392583 -500.000000
   vertex -1675.881905 -2954.392583 -1020.000000
  endloop
 endfacet
 facet normal -0.195090 -0.980785 -0.000000
  outer loop
   vertex -1663.052619 -2956.944486 -500.000000
   vertex -1675.881905 -2954.392583 -1020.000000
   vertex -1663.052619 -2956.944486 -1020.000000
  endloop
 endfacet
 facet normal -0.321439 -0.946930 0.000000
  outer loop
   vertex -1675.881905 -2954.392583 -500.000000
   vertex -1688.268343 -2950.187953 -500.000000
   vertex -1688.268343 -2950.187953 -1020.000000
  endloop
 endfacet
 facet normal -0.321439 -0.946930 -0.000000
  outer loop
   vertex -1675.881905 -2954.392583 -500.000000
   vertex -1688.268343 -2950.187953 -1020.000000
   vertex -1675.881905 -2954.392583 -1020.000000
  endloop
 endfacet
 facet normal -0.442289 -0.896873 0.000000
  outer loop
   vertex -1688.268343 -2950.187953 -500.000000
   vertex -1700.000000 -2944.402540 -500.000000
   vertex -1700.000000 -2944.402540 -1020.000000
  endloop
 endfacet
 facet normal -0.442289 -0.896873 -0.000000
  outer loop
   vertex -1688.268343 -2950.187953 -500.000000
   vertex -1700.000000 -2944.402540 -1020.000000
   vertex -1688.268343 -2950.187953 -1020.000000
  endloop
 endfacet
 facet normal -0.555570 -0.831470 0.000000
  outer loop
   vertex -1700.000000 -2944.402540 -500.000000
   vertex -1710.876143 -2937.135334 -500.000000
   vertex -1710.876143 -2937.135334 -1020.000000
  endloop
 endfacet
 facet normal -0.555570 -0.831470 -0.000000
  outer loop
   vertex -1700.000000 -2944.402540 -500.000000
   vertex -1710.876143 -2937.135334 -1020.000000
   vertex -1700.000000 -2944.402540 -1020.000000
  endloop
 endfacet
 facet normal -0.659346 -0.751840 0.000000
  outer loop
   vertex -1710.876143 -2937.135334 -500.000000
   vertex -1720.710678 -2928.510678 -500.000000
   vertex -1720.710678 -2928.510678 -1020.000000
  endloop
 endfacet
 facet normal -0.659346 -0.751840 -0.000000
  outer loop
   vertex -1710.876143 -2937.135334 -500.000000
   vertex -1720.710678 -2928.510678 -1020.000000
   vertex -1710.876143 -2937.135334 -1020.000000
  endloop
 endfacet
 facet normal -0.751840 -0.659346 0.000000
  outer loop
   vertex -1720.710678 -2928.510678 -500.000000
   vertex -1729.335334 -2918.676143 -500.000000
   vertex -1729.335334 -2918.676143 -1020.000000
  endloop
 endfacet
 facet normal -0.751840 -0.659346 -0.000000
  outer loop
   vertex -1720.710678 -2928.510678 -500.000000
   vertex -1729.335334 -2918.676143 -1020.000000
   vertex -1720.710678 -2928.510678 -1020.000000
  endloop
 endfacet
 facet normal -0.831470 -0.555570 0.000000
  outer loop
   vertex -1729.335334 -2918.676143 -500.000000
   vertex -1736.602540 -2907.800000 -500.000000
   vertex -1736.602540 -2907.800000 -1020.000000
  endloop
 endfacet
 facet normal -0.831470 -0.555570 -0.000000
  outer loop
   vertex -1729.335334 -2918.676143 -500.000000
   vertex -1736.602540 -2907.800000 -1020.000000
   vertex -1729.335334 -2918.676143 -1020.000000
  endloop
 endfacet
 facet normal -0.896873 -0.442289 0.000000
  outer loop
   vertex -1736.602540 -2907.800000 -500.000000
   vertex -1742.387953 -2896.068343 -500.000000
   vertex -1742.387953 -2896.068343 -1020.000000
  endloop
 endfacet
 facet normal -0.896873 -0.442289 -0.000000
  outer loop
   vertex -1736.602540 -2907.800000 -500.000000
   vertex -1742.387953 -2896.068343 -1020.000000
   vertex -1736.602540 -2907.800000 -1020.000000
  endloop
 endfacet
 facet normal -0.946930 -0.321439 0.000000
  outer loop
   vertex -1742.387953 -2896.068343 -500.000000
   vertex -1746.592583 -2883.681905 -500.000000
   vertex -1746.592583 -2883.681905 -1020.000000
  endloop
 endfacet
 facet normal -0.946930 -0.321439 -0.000000
  outer loop
   vertex -1742.387953 -2896.068343 -500.000000
   vertex -1746.592583 -2883.681905 -1020.000000
   vertex -1742.387953 -2896.068343 -1020.000000
  endloop
 endfacet
 facet normal -0.980785 -0.195090 0.000000
  outer loop
   vertex -1746.592583 -2883.681905 -500.000000
   vertex -1749.144486 -2870.852619 -500.000000
   vertex -1749.144486 -2870.852619 -1020.000000
  endloop
 endfacet
 facet normal -0.980785 -0.195090 -0.000000
  outer loop
   vertex -1746.592583 -2883.681905 -500.000000
   vertex -1749.144486 -2870.852619 -1020.000000
   vertex -1746.592583 -2883.681905 -1020.000000
  endloop
 endfacet
 facet normal -0.997859 -0.065403 0.000000
  outer loop
   vertex -1749.144486 -2870.852619 -500.000000
   vertex -1750.000000 -2857.800000 -500.000000
   vertex -1750.000000 -2857.800000 -1020.000000
  endloop
 endfacet
 facet normal -0.997859 -0.065403 -0.000000
  outer loop
   vertex -1749.144486 -2870.852619 -500.000000
   vertex -1750.000000 -2857.800000 -1020.000000
   vertex -1749.144486 -2870.852619 -1020.000000
  endloop
 endfacet
 facet normal -0.997859 0.065403 0.000000
  outer loop
   vertex -1750.000000 -2857.800000 -500.000000
   vertex -1749.144486 -2844.747381 -500.000000
   vertex -1749.144486 -2844.747381 -1020.000000
  endloop
 endfacet
 facet normal -0.997859 0.065403 0.000000
  outer loop
   vertex -1750.000000 -2857.800000 -500.000000
   vertex -1749.144486 -2844.747381 -1020.000000
   vertex -1750.000000 -2857.800000 -1020.000000
  endloop
 endfacet
 facet normal -0.980785 0.195090 0.000000
  outer loop
   vertex -1749.144486 -2844.747381 -500.000000
   vertex -1746.592583 -2831.918095 -500.000000
   vertex -1746.592583 -2831.918095 -1020.000000
  endloop
 endfacet
 facet normal -0.980785 0.195090 0.000000
  outer loop
   vertex -1749.144486 -2844.747381 -500.000000
   vertex -1746.592583 -2831.918095 -1020.000000
   vertex -1749.144486 -2844.747381 -1020.000000
  endloop
 endfacet
 facet normal -0.946930 0.321439 0.000000
  outer loop
   vertex -1746.592583 -2831.918095 -500.000000
   vertex -1742.387953 -2819.531657 -500.000000
   vertex -1742.387953 -2819.531657 -1020.000000
  endloop
 endfacet
 facet normal -0.946930 0.321439 0.000000
  outer loop
   vertex -1746.592583 -2831.918095 -500.000000
   vertex -1742.387953 -2819.531657 -1020.000000
   vertex -1746.592583 -2831.918095 -1020.000000
  endloop
 endfacet
 facet normal -0.896873 0.442289 0.000000
  outer loop
   vertex -1742.387953 -2819.531657 -500.000000
   vertex -1736.602540 -2807.800000 -500.000000
   vertex -1736.602540 -2807.800000 -1020.000000
  endloop
 endfacet
 facet normal -0.896873 0.442289 0.000000
  outer loop
   vertex -1742.387953 -2819.531657 -500.000000
   vertex -1736.602540 -2807.800000 -1020.000000
   vertex -1742.387953 -2819.531657 -1020.000000
  endloop
 endfacet
 facet normal -0.831470 0.555570 0.000000
  outer loop
   vertex -1736.602540 -2807.800000 -500.000000
   vertex -1729.335334 -2796.923857 -500.000000
   vertex -1729.335334 -2796.923857 -1020.000000
  endloop
 endfacet
 facet normal -0.831470 0.555570 0.000000
  outer loop
   vertex -1736.602540 -2807.800000 -500.000000
   vertex -1729.335334 -2796.923857 -1020.000000
   vertex -1736.602540 -2807.800000 -1020.000000
  endloop
 endfacet
 facet normal -0.751840 0.659346 0.000000
  outer loop
   vertex -1729.335334 -2796.923857 -500.000000
   vertex -1720.710678 -2787.089322 -500.000000
   vertex -1720.710678 -2787.089322 -1020.000000
  endloop
 endfacet
 facet normal -0.751840 0.659346 0.000000
  outer loop
   vertex -1729.335334 -2796.923857 -500.000000
   vertex -1720.710678 -2787.089322 -1020.000000
   vertex -1729.335334 -2796.923857 -1020.000000
  endloop
 endfacet
 facet normal -0.659346 0.751840 0.000000
  outer loop
   vertex -1720.710678 -2787.089322 -500.000000
   vertex -1710.876143 -2778.464666 -500.000000
   vertex -1710.876143 -2778.464666 -1020.000000
  endloop
 endfacet
 facet normal -0.659346 0.751840 0.000000
  outer loop
   vertex -1720.710678 -2787.089322 -500.000000
   vertex -1710.876143 -2778.464666 -1020.000000
   vertex -1720.710678 -2787.089322 -1020.000000
  endloop
 endfacet
 facet normal -0.555570 0.831470 0.000000
  outer loop
   vertex -1710.876143 -2778.464666 -500.000000
   vertex -1700.000000 -2771.197460 -500.000000
   vertex -1700.000000 -2771.197460 -1020.000000
  endloop
 endfacet
 facet normal -0.555570 0.831470 0.000000
  outer loop
   vertex -1710.876143 -2778.464666 -500.000000
   vertex -1700.000000 -2771.197460 -1020.000000
   vertex -1710.876143 -2778.464666 -1020.000000
  endloop
 endfacet
 facet normal -0.442289 0.896873 0.000000
  outer loop
   vertex -1700.000000 -2771.197460 -500.000000
   vertex -1688.268343 -2765.412047 -500.000000
   vertex -1688.268343 -2765.412047 -1020.000000
  endloop
 endfacet
 facet normal -0.442289 0.896873 0.000000
  outer loop
   vertex -1700.000000 -2771.197460 -500.000000
   vertex -1688.268343 -2765.412047 -1020.000000
   vertex -1700.000000 -2771.197460 -1020.000000
  endloop
 endfacet
 facet normal -0.321439 0.946930 0.000000
  outer loop
   vertex -1688.268343 -2765.412047 -500.000000
   vertex -1675.881905 -2761.207417 -500.000000
   vertex -1675.881905 -2761.207417 -1020.000000
  endloop
 endfacet
 facet normal -0.321439 0.946930 0.000000
  outer loop
   vertex -1688.268343 -2765.412047 -500.000000
   vertex -1675.881905 -2761.207417 -1020.000000
   vertex -1688.268343 -2765.412047 -1020.000000
  endloop
 endfacet
 facet normal -0.195090 0.980785 0.000000
  outer loop
   vertex -1675.881905 -2761.207417 -500.000000
   vertex -1663.052619 -2758.655514 -500.000000
   vertex -1663.052619 -2758.655514 -1020.000000
  endloop
 endfacet
 facet normal -0.195090 0.980785 0.000000
  outer loop
   vertex -1675.881905 -2761.207417 -500.000000
   vertex -1663.052619 -2758.655514 -1020.000000
   vertex -1675.881905 -2761.207417 -1020.000000
  endloop
 endfacet
 facet normal -0.065403 0.997859 0.000000
  outer loop
   vertex -1663.052619 -2758.655514 -500.000000
   vertex -1650.000000 -2757.800000 -500.000000
   vertex -1650.000000 -2757.800000 -1020.000000
  endloop
 endfacet
 facet normal -0.065403 0.997859 0.000000
  outer loop
   vertex -1663.052619 -2758.655514 -500.000000
   vertex -1650.000000 -2757.800000 -1020.000000
   vertex -1663.052619 -2758.655514 -1020.000000
  endloop
 endfacet
 facet normal -0.065403 -0.997859 0.000000
  outer loop
   vertex -1638.513695 -2770.552852 -1020.000000
   vertex -1638.513695 -2770.552852 -500.000000
   vertex -1650.000000 -2769.800000 -500.000000
  endloop
 endfacet
 facet normal -0.065403 -0.997859 0.000000
  outer loop
   vertex -1650.000000 -2769.800000 -1020.000000
   vertex -1638.513695 -2770.552852 -1020.000000
   vertex -1650.000000 -2769.800000 -500.000000
  endloop
 endfacet
 facet normal -0.195090 -0.980785 0.000000
  outer loop
   vertex -1627.223924 -2772.798527 -1020.000000
   vertex -1627.223924 -2772.798527 -500.000000
   vertex -1638.513695 -2770.552852 -500.000000
  endloop
 endfacet
 facet normal -0.195090 -0.980785 0.000000
  outer loop
   vertex -1638.513695 -2770.552852 -1020.000000
   vertex -1627.223924 -2772.798527 -1020.000000
   vertex -1638.513695 -2770.552852 -500.000000
  endloop
 endfacet
 facet normal -0.321439 -0.946930 0.000000
  outer loop
   vertex -1616.323858 -2776.498601 -1020.000000
   vertex -1616.323858 -2776.498601 -500.000000
   vertex -1627.223924 -2772.798527 -500.000000
  endloop
 endfacet
 facet normal -0.321439 -0.946930 0.000000
  outer loop
   vertex -1627.223924 -2772.798527 -1020.000000
   vertex -1616.323858 -2776.498601 -1020.000000
   vertex -1627.223924 -2772.798527 -500.000000
  endloop
 endfacet
 facet normal -0.442289 -0.896873 0.000000
  outer loop
   vertex -1606.000000 -2781.589764 -1020.000000
   vertex -1606.000000 -2781.589764 -500.000000
   vertex -1616.323858 -2776.498601 -500.000000
  endloop
 endfacet
 facet normal -0.442289 -0.896873 0.000000
  outer loop
   vertex -1616.323858 -2776.498601 -1020.000000
   vertex -1606.000000 -2781.589764 -1020.000000
   vertex -1616.323858 -2776.498601 -500.000000
  endloop
 endfacet
 facet normal -0.555570 -0.831470 0.000000
  outer loop
   vertex -1596.428994 -2787.984906 -1020.000000
   vertex -1596.428994 -2787.984906 -500.000000
   vertex -1606.000000 -2781.589764 -500.000000
  endloop
 endfacet
 facet normal -0.555570 -0.831470 0.000000
  outer loop
   vertex -1606.000000 -2781.589764 -1020.000000
   vertex -1596.428994 -2787.984906 -1020.000000
   vertex -1606.000000 -2781.589764 -500.000000
  endloop
 endfacet
 facet normal -0.659346 -0.751840 0.000000
  outer loop
   vertex -1587.774603 -2795.574603 -1020.000000
   vertex -1587.774603 -2795.574603 -500.000000
   vertex -1596.428994 -2787.984906 -500.000000
  endloop
 endfacet
 facet normal -0.659346 -0.751840 0.000000
  outer loop
   vertex -1596.428994 -2787.984906 -1020.000000
   vertex -1587.774603 -2795.574603 -1020.000000
   vertex -1596.428994 -2787.984906 -500.000000
  endloop
 endfacet
 facet normal -0.751840 -0.659346 0.000000
  outer loop
   vertex -1580.184906 -2804.228994 -1020.000000
   vertex -1580.184906 -2804.228994 -500.000000
   vertex -1587.774603 -2795.574603 -500.000000
  endloop
 endfacet
 facet normal -0.751840 -0.659346 0.000000
  outer loop
   vertex -1587.774603 -2795.574603 -1020.000000
   vertex -1580.184906 -2804.228994 -1020.000000
   vertex -1587.774603 -2795.574603 -500.000000
  endloop
 endfacet
 facet normal -0.831470 -0.555570 0.000000
  outer loop
   vertex -1573.789764 -2813.800000 -1020.000000
   vertex -1573.789764 -2813.800000 -500.000000
   vertex -1580.184906 -2804.228994 -500.000000
  endloop
 endfacet
 facet normal -0.831470 -0.555570 0.000000
  outer loop
   vertex -1580.184906 -2804.228994 -1020.000000
   vertex -1573.789764 -2813.800000 -1020.000000
   vertex -1580.184906 -2804.228994 -500.000000
  endloop
 endfacet
 facet normal -0.896873 -0.442289 0.000000
  outer loop
   vertex -1568.698601 -2824.123858 -1020.000000
   vertex -1568.698601 -2824.123858 -500.000000
   vertex -1573.789764 -2813.800000 -500.000000
  endloop
 endfacet
 facet normal -0.896873 -0.442289 0.000000
  outer loop
   vertex -1573.789764 -2813.800000 -1020.000000
   vertex -1568.698601 -2824.123858 -1020.000000
   vertex -1573.789764 -2813.800000 -500.000000
  endloop
 endfacet
 facet normal -0.946930 -0.321439 0.000000
  outer loop
   vertex -1564.998527 -2835.023924 -1020.000000
   vertex -1564.998527 -2835.023924 -500.000000
   vertex -1568.698601 -2824.123858 -500.000000
  endloop
 endfacet
 facet normal -0.946930 -0.321439 0.000000
  outer loop
   vertex -1568.698601 -2824.123858 -1020.000000
   vertex -1564.998527 -2835.023924 -1020.000000
   vertex -1568.698601 -2824.123858 -500.000000
  endloop
 endfacet
 facet normal -0.980785 -0.195090 0.000000
  outer loop
   vertex -1562.752852 -2846.313695 -1020.000000
   vertex -1562.752852 -2846.313695 -500.000000
   vertex -1564.998527 -2835.023924 -500.000000
  endloop
 endfacet
 facet normal -0.980785 -0.195090 0.000000
  outer loop
   vertex -1564.998527 -2835.023924 -1020.000000
   vertex -1562.752852 -2846.313695 -1020.000000
   vertex -1564.998527 -2835.023924 -500.000000
  endloop
 endfacet
 facet normal -0.997859 -0.065403 0.000000
  outer loop
   vertex -1562.000000 -2857.800000 -1020.000000
   vertex -1562.000000 -2857.800000 -500.000000
   vertex -1562.752852 -2846.313695 -500.000000
  endloop
 endfacet
 facet normal -0.997859 -0.065403 0.000000
  outer loop
   vertex -1562.752852 -2846.313695 -1020.000000
   vertex -1562.000000 -2857.800000 -1020.000000
   vertex -1562.752852 -2846.313695 -500.000000
  endloop
 endfacet
 facet normal -0.997859 0.065403 0.000000
  outer loop
   vertex -1562.752852 -2869.286305 -1020.000000
   vertex -1562.752852 -2869.286305 -500.000000
   vertex -1562.000000 -2857.800000 -500.000000
  endloop
 endfacet
 facet normal -0.997859 0.065403 0.000000
  outer loop
   vertex -1562.000000 -2857.800000 -1020.000000
   vertex -1562.752852 -2869.286305 -1020.000000
   vertex -1562.000000 -2857.800000 -500.000000
  endloop
 endfacet
 facet normal -0.980785 0.195090 0.000000
  outer loop
   vertex -1564.998527 -2880.576076 -1020.000000
   vertex -1564.998527 -2880.576076 -500.000000
   vertex -1562.752852 -2869.286305 -500.000000
  endloop
 endfacet
 facet normal -0.980785 0.195090 0.000000
  outer loop
   vertex -1562.752852 -2869.286305 -1020.000000
   vertex -1564.998527 -2880.576076 -1020.000000
   vertex -1562.752852 -2869.286305 -500.000000
  endloop
 endfacet
 facet normal -0.946930 0.321439 0.000000
  outer loop
   vertex -1568.698601 -2891.476142 -1020.000000
   vertex -1568.698601 -2891.476142 -500.000000
   vertex -1564.998527 -2880.576076 -500.000000
  endloop
 endfacet
 facet normal -0.946930 0.321439 0.000000
  outer loop
   vertex -1564.998527 -2880.576076 -1020.000000
   vertex -1568.698601 -2891.476142 -1020.000000
   vertex -1564.998527 -2880.576076 -500.000000
  endloop
 endfacet
 facet normal -0.896873 0.442289 0.000000
  outer loop
   vertex -1573.789764 -2901.800000 -1020.000000
   vertex -1573.789764 -2901.800000 -500.000000
   vertex -1568.698601 -2891.476142 -500.000000
  endloop
 endfacet
 facet normal -0.896873 0.442289 0.000000
  outer loop
   vertex -1568.698601 -2891.476142 -1020.000000
   vertex -1573.789764 -2901.800000 -1020.000000
   vertex -1568.698601 -2891.476142 -500.000000
  endloop
 endfacet
 facet normal -0.831470 0.555570 0.000000
  outer loop
   vertex -1580.184906 -2911.371006 -1020.000000
   vertex -1580.184906 -2911.371006 -500.000000
   vertex -1573.789764 -2901.800000 -500.000000
  endloop
 endfacet
 facet normal -0.831470 0.555570 0.000000
  outer loop
   vertex -1573.789764 -2901.800000 -1020.000000
   vertex -1580.184906 -2911.371006 -1020.000000
   vertex -1573.789764 -2901.800000 -500.000000
  endloop
 endfacet
 facet normal -0.751840 0.659346 0.000000
  outer loop
   vertex -1587.774603 -2920.025397 -1020.000000
   vertex -1587.774603 -2920.025397 -500.000000
   vertex -1580.184906 -2911.371006 -500.000000
  endloop
 endfacet
 facet normal -0.751840 0.659346 0.000000
  outer loop
   vertex -1580.184906 -2911.371006 -1020.000000
   vertex -1587.774603 -2920.025397 -1020.000000
   vertex -1580.184906 -2911.371006 -500.000000
  endloop
 endfacet
 facet normal -0.659346 0.751840 0.000000
  outer loop
   vertex -1596.428994 -2927.615094 -1020.000000
   vertex -1596.428994 -2927.615094 -500.000000
   vertex -1587.774603 -2920.025397 -500.000000
  endloop
 endfacet
 facet normal -0.659346 0.751840 0.000000
  outer loop
   vertex -1587.774603 -2920.025397 -1020.000000
   vertex -1596.428994 -2927.615094 -1020.000000
   vertex -1587.774603 -2920.025397 -500.000000
  endloop
 endfacet
 facet normal -0.555570 0.831470 0.000000
  outer loop
   vertex -1606.000000 -2934.010236 -1020.000000
   vertex -1606.000000 -2934.010236 -500.000000
   vertex -1596.428994 -2927.615094 -500.000000
  endloop
 endfacet
 facet normal -0.555570 0.831470 0.000000
  outer loop
   vertex -1596.428994 -2927.615094 -1020.000000
   vertex -1606.000000 -2934.010236 -1020.000000
   vertex -1596.428994 -2927.615094 -500.000000
  endloop
 endfacet
 facet normal -0.442289 0.896873 0.000000
  outer loop
   vertex -1616.323858 -2939.101399 -1020.000000
   vertex -1616.323858 -2939.101399 -500.000000
   vertex -1606.000000 -2934.010236 -500.000000
  endloop
 endfacet
 facet normal -0.442289 0.896873 0.000000
  outer loop
   vertex -1606.000000 -2934.010236 -1020.000000
   vertex -1616.323858 -2939.101399 -1020.000000
   vertex -1606.000000 -2934.010236 -500.000000
  endloop
 endfacet
 facet normal -0.321439 0.946930 0.000000
  outer loop
   vertex -1627.223924 -2942.801473 -1020.000000
   vertex -1627.223924 -2942.801473 -500.000000
   vertex -1616.323858 -2939.101399 -500.000000
  endloop
 endfacet
 facet normal -0.321439 0.946930 0.000000
  outer loop
   vertex -1616.323858 -2939.101399 -1020.000000
   vertex -1627.223924 -2942.801473 -1020.000000
   vertex -1616.323858 -2939.101399 -500.000000
  endloop
 endfacet
 facet normal -0.195090 0.980785 0.000000
  outer loop
   vertex -1638.513695 -2945.047148 -1020.000000
   vertex -1638.513695 -2945.047148 -500.000000
   vertex -1627.223924 -2942.801473 -500.000000
  endloop
 endfacet
 facet normal -0.195090 0.980785 0.000000
  outer loop
   vertex -1627.223924 -2942.801473 -1020.000000
   vertex -1638.513695 -2945.047148 -1020.000000
   vertex -1627.223924 -2942.801473 -500.000000
  endloop
 endfacet
 facet normal -0.065403 0.997859 0.000000
  outer loop
   vertex -1650.000000 -2945.800000 -1020.000000
   vertex -1650.000000 -2945.800000 -500.000000
   vertex -1638.513695 -2945.047148 -500.000000
  endloop
 endfacet
 facet normal -0.065403 0.997859 0.000000
  outer loop
   vertex -1638.513695 -2945.047148 -1020.000000
   vertex -1650.000000 -2945.800000 -1020.000000
   vertex -1638.513695 -2945.047148 -500.000000
  endloop
 endfacet
 facet normal 0.065403 0.997859 -0.000000
  outer loop
   vertex -1661.486305 -2945.047148 -1020.000000
   vertex -1661.486305 -2945.047148 -500.000000
   vertex -1650.000000 -2945.800000 -500.000000
  endloop
 endfacet
 facet normal 0.065403 0.997859 -0.000000
  outer loop
   vertex -1650.000000 -2945.800000 -1020.000000
   vertex -1661.486305 -2945.047148 -1020.000000
   vertex -1650.000000 -2945.800000 -500.000000
  endloop
 endfacet
 facet normal 0.195090 0.980785 -0.000000
  outer loop
   vertex -1672.776076 -2942.801473 -1020.000000
   vertex -1672.776076 -2942.801473 -500.000000
   vertex -1661.486305 -2945.047148 -500.000000
  endloop
 endfacet
 facet normal 0.195090 0.980785 -0.000000
  outer loop
   vertex -1661.486305 -2945.047148 -1020.000000
   vertex -1672.776076 -2942.801473 -1020.000000
   vertex -1661.486305 -2945.047148 -500.000000
  endloop
 endfacet
 facet normal 0.321439 0.946930 -0.000000
  outer loop
   vertex -1683.676142 -2939.101399 -1020.000000
   vertex -1683.676142 -2939.101399 -500.000000
   vertex -1672.776076 -2942.801473 -500.000000
  endloop
 endfacet
 facet normal 0.321439 0.946930 -0.000000
  outer loop
   vertex -1672.776076 -2942.801473 -1020.000000
   vertex -1683.676142 -2939.101399 -1020.000000
   vertex -1672.776076 -2942.801473 -500.000000
  endloop
 endfacet
 facet normal 0.442289 0.896873 -0.000000
  outer loop
   vertex -1694.000000 -2934.010236 -1020.000000
   vertex -1694.000000 -2934.010236 -500.000000
   vertex -1683.676142 -2939.101399 -500.000000
  endloop
 endfacet
 facet normal 0.442289 0.896873 -0.000000
  outer loop
   vertex -1683.676142 -2939.101399 -1020.000000
   vertex -1694.000000 -2934.010236 -1020.000000
   vertex -1683.676142 -2939.101399 -500.000000
  endloop
 endfacet
 facet normal 0.555570 0.831470 -0.000000
  outer loop
   vertex -1703.571006 -2927.615094 -1020.000000
   vertex -1703.571006 -2927.615094 -500.000000
   vertex -1694.000000 -2934.010236 -500.000000
  endloop
 endfacet
 facet normal 0.555570 0.831470 -0.000000
  outer loop
   vertex -1694.000000 -2934.010236 -1020.000000
   vertex -1703.571006 -2927.615094 -1020.000000
   vertex -1694.000000 -2934.010236 -500.000000
  endloop
 endfacet
 facet normal 0.659346 0.751840 -0.000000
  outer loop
   vertex -1712.225397 -2920.025397 -1020.000000
   vertex -1712.225397 -2920.025397 -500.000000
   vertex -1703.571006 -2927.615094 -500.000000
  endloop
 endfacet
 facet normal 0.659346 0.751840 -0.000000
  outer loop
   vertex -1703.571006 -2927.615094 -1020.000000
   vertex -1712.225397 -2920.025397 -1020.000000
   vertex -1703.571006 -2927.615094 -500.000000
  endloop
 endfacet
 facet normal 0.751840 0.659346 -0.000000
  outer loop
   vertex -1719.815094 -2911.371006 -1020.000000
   vertex -1719.815094 -2911.371006 -500.000000
   vertex -1712.225397 -2920.025397 -500.000000
  endloop
 endfacet
 facet normal 0.751840 0.659346 -0.000000
  outer loop
   vertex -1712.225397 -2920.025397 -1020.000000
   vertex -1719.815094 -2911.371006 -1020.000000
   vertex -1712.225397 -2920.025397 -500.000000
  endloop
 endfacet
 facet normal 0.831470 0.555570 -0.000000
  outer loop
   vertex -1726.210236 -2901.800000 -1020.000000
   vertex -1726.210236 -2901.800000 -500.000000
   vertex -1719.815094 -2911.371006 -500.000000
  endloop
 endfacet
 facet normal 0.831470 0.555570 -0.000000
  outer loop
   vertex -1719.815094 -2911.371006 -1020.000000
   vertex -1726.210236 -2901.800000 -1020.000000
   vertex -1719.815094 -2911.371006 -500.000000
  endloop
 endfacet
 facet normal 0.896873 0.442289 -0.000000
  outer loop
   vertex -1731.301399 -2891.476142 -1020.000000
   vertex -1731.301399 -2891.476142 -500.000000
   vertex -1726.210236 -2901.800000 -500.000000
  endloop
 endfacet
 facet normal 0.896873 0.442289 -0.000000
  outer loop
   vertex -1726.210236 -2901.800000 -1020.000000
   vertex -1731.301399 -2891.476142 -1020.000000
   vertex -1726.210236 -2901.800000 -500.000000
  endloop
 endfacet
 facet normal 0.946930 0.321439 -0.000000
  outer loop
   vertex -1735.001473 -2880.576076 -1020.000000
   vertex -1735.001473 -2880.576076 -500.000000
   vertex -1731.301399 -2891.476142 -500.000000
  endloop
 endfacet
 facet normal 0.946930 0.321439 -0.000000
  outer loop
   vertex -1731.301399 -2891.476142 -1020.000000
   vertex -1735.001473 -2880.576076 -1020.000000
   vertex -1731.301399 -2891.476142 -500.000000
  endloop
 endfacet
 facet normal 0.980785 0.195090 -0.000000
  outer loop
   vertex -1737.247148 -2869.286305 -1020.000000
   vertex -1737.247148 -2869.286305 -500.000000
   vertex -1735.001473 -2880.576076 -500.000000
  endloop
 endfacet
 facet normal 0.980785 0.195090 -0.000000
  outer loop
   vertex -1735.001473 -2880.576076 -1020.000000
   vertex -1737.247148 -2869.286305 -1020.000000
   vertex -1735.001473 -2880.576076 -500.000000
  endloop
 endfacet
 facet normal 0.997859 0.065403 -0.000000
  outer loop
   vertex -1738.000000 -2857.800000 -1020.000000
   vertex -1738.000000 -2857.800000 -500.000000
   vertex -1737.247148 -2869.286305 -500.000000
  endloop
 endfacet
 facet normal 0.997859 0.065403 -0.000000
  outer loop
   vertex -1737.247148 -2869.286305 -1020.000000
   vertex -1738.000000 -2857.800000 -1020.000000
   vertex -1737.247148 -2869.286305 -500.000000
  endloop
 endfacet
 facet normal 0.997859 -0.065403 0.000000
  outer loop
   vertex -1737.247148 -2846.313695 -1020.000000
   vertex -1737.247148 -2846.313695 -500.000000
   vertex -1738.000000 -2857.800000 -500.000000
  endloop
 endfacet
 facet normal 0.997859 -0.065403 0.000000
  outer loop
   vertex -1738.000000 -2857.800000 -1020.000000
   vertex -1737.247148 -2846.313695 -1020.000000
   vertex -1738.000000 -2857.800000 -500.000000
  endloop
 endfacet
 facet normal 0.980785 -0.195090 0.000000
  outer loop
   vertex -1735.001473 -2835.023924 -1020.000000
   vertex -1735.001473 -2835.023924 -500.000000
   vertex -1737.247148 -2846.313695 -500.000000
  endloop
 endfacet
 facet normal 0.980785 -0.195090 0.000000
  outer loop
   vertex -1737.247148 -2846.313695 -1020.000000
   vertex -1735.001473 -2835.023924 -1020.000000
   vertex -1737.247148 -2846.313695 -500.000000
  endloop
 endfacet
 facet normal 0.946930 -0.321439 0.000000
  outer loop
   vertex -1731.301399 -2824.123858 -1020.000000
   vertex -1731.301399 -2824.123858 -500.000000
   vertex -1735.001473 -2835.023924 -500.000000
  endloop
 endfacet
 facet normal 0.946930 -0.321439 0.000000
  outer loop
   vertex -1735.001473 -2835.023924 -1020.000000
   vertex -1731.301399 -2824.123858 -1020.000000
   vertex -1735.001473 -2835.023924 -500.000000
  endloop
 endfacet
 facet normal 0.896873 -0.442289 0.000000
  outer loop
   vertex -1726.210236 -2813.800000 -1020.000000
   vertex -1726.210236 -2813.800000 -500.000000
   vertex -1731.301399 -2824.123858 -500.000000
  endloop
 endfacet
 facet normal 0.896873 -0.442289 0.000000
  outer loop
   vertex -1731.301399 -2824.123858 -1020.000000
   vertex -1726.210236 -2813.800000 -1020.000000
   vertex -1731.301399 -2824.123858 -500.000000
  endloop
 endfacet
 facet normal 0.831470 -0.555570 0.000000
  outer loop
   vertex -1719.815094 -2804.228994 -1020.000000
   vertex -1719.815094 -2804.228994 -500.000000
   vertex -1726.210236 -2813.800000 -500.000000
  endloop
 endfacet
 facet normal 0.831470 -0.555570 0.000000
  outer loop
   vertex -1726.210236 -2813.800000 -1020.000000
   vertex -1719.815094 -2804.228994 -1020.000000
   vertex -1726.210236 -2813.800000 -500.000000
  endloop
 endfacet
 facet normal 0.751840 -0.659346 0.000000
  outer loop
   vertex -1712.225397 -2795.574603 -1020.000000
   vertex -1712.225397 -2795.574603 -500.000000
   vertex -1719.815094 -2804.228994 -500.000000
  endloop
 endfacet
 facet normal 0.751840 -0.659346 0.000000
  outer loop
   vertex -1719.815094 -2804.228994 -1020.000000
   vertex -1712.225397 -2795.574603 -1020.000000
   vertex -1719.815094 -2804.228994 -500.000000
  endloop
 endfacet
 facet normal 0.659346 -0.751840 0.000000
  outer loop
   vertex -1703.571006 -2787.984906 -1020.000000
   vertex -1703.571006 -2787.984906 -500.000000
   vertex -1712.225397 -2795.574603 -500.000000
  endloop
 endfacet
 facet normal 0.659346 -0.751840 0.000000
  outer loop
   vertex -1712.225397 -2795.574603 -1020.000000
   vertex -1703.571006 -2787.984906 -1020.000000
   vertex -1712.225397 -2795.574603 -500.000000
  endloop
 endfacet
 facet normal 0.555570 -0.831470 0.000000
  outer loop
   vertex -1694.000000 -2781.589764 -1020.000000
   vertex -1694.000000 -2781.589764 -500.000000
   vertex -1703.571006 -2787.984906 -500.000000
  endloop
 endfacet
 facet normal 0.555570 -0.831470 0.000000
  outer loop
   vertex -1703.571006 -2787.984906 -1020.000000
   vertex -1694.000000 -2781.589764 -1020.000000
   vertex -1703.571006 -2787.984906 -500.000000
  endloop
 endfacet
 facet normal 0.442289 -0.896873 0.000000
  outer loop
   vertex -1683.676142 -2776.498601 -1020.000000
   vertex -1683.676142 -2776.498601 -500.000000
   vertex -1694.000000 -2781.589764 -500.000000
  endloop
 endfacet
 facet normal 0.442289 -0.896873 0.000000
  outer loop
   vertex -1694.000000 -2781.589764 -1020.000000
   vertex -1683.676142 -2776.498601 -1020.000000
   vertex -1694.000000 -2781.589764 -500.000000
  endloop
 endfacet
 facet normal 0.321439 -0.946930 0.000000
  outer loop
   vertex -1672.776076 -2772.798527 -1020.000000
   vertex -1672.776076 -2772.798527 -500.000000
   vertex -1683.676142 -2776.498601 -500.000000
  endloop
 endfacet
 facet normal 0.321439 -0.946930 0.000000
  outer loop
   vertex -1683.676142 -2776.498601 -1020.000000
   vertex -1672.776076 -2772.798527 -1020.000000
   vertex -1683.676142 -2776.498601 -500.000000
  endloop
 endfacet
 facet normal 0.195090 -0.980785 0.000000
  outer loop
   vertex -1661.486305 -2770.552852 -1020.000000
   vertex -1661.486305 -2770.552852 -500.000000
   vertex -1672.776076 -2772.798527 -500.000000
  endloop
 endfacet
 facet normal 0.195090 -0.980785 0.000000
  outer loop
   vertex -1672.776076 -2772.798527 -1020.000000
   vertex -1661.486305 -2770.552852 -1020.000000
   vertex -1672.776076 -2772.798527 -500.000000
  endloop
 endfacet
 facet normal 0.065403 -0.997859 0.000000
  outer loop
   vertex -1650.000000 -2769.800000 -1020.000000
   vertex -1650.000000 -2769.800000 -500.000000
   vertex -1661.486305 -2770.552852 -500.000000
  endloop
 endfacet
 facet normal 0.065403 -0.997859 0.000000
  outer loop
   vertex -1661.486305 -2770.552852 -1020.000000
   vertex -1650.000000 -2769.800000 -1020.000000
   vertex -1661.486305 -2770.552852 -500.000000
  endloop
 endfacet
endsolid SIC_RP1_feed_3_elbow
