solid SIC_LOX_feed_1_elbow
 facet normal 0.065403 0.997859 0.000000
  outer loop
   vertex 3300.000000 100.000000 -430.000000
   vertex 3313.052619 99.144486 -430.000000
   vertex 3313.052619 99.144486 -950.000000
  endloop
 endfacet
 facet normal 0.065403 0.997859 0.000000
  outer loop
   vertex 3300.000000 100.000000 -430.000000
   vertex 3313.052619 99.144486 -950.000000
   vertex 3300.000000 100.000000 -950.000000
  endloop
 endfacet
 facet normal 0.195090 0.980785 0.000000
  outer loop
   vertex 3313.052619 99.144486 -430.000000
   vertex 3325.881905 96.592583 -430.000000
   vertex 3325.881905 96.592583 -950.000000
  endloop
 endfacet
 facet normal 0.195090 0.980785 0.000000
  outer loop
   vertex 3313.052619 99.144486 -430.000000
   vertex 3325.881905 96.592583 -950.000000
   vertex 3313.052619 99.144486 -950.000000
  endloop
 endfacet
 facet normal 0.321439 0.946930 0.000000
  outer loop
   vertex 3325.881905 96.592583 -430.000000
   vertex 3338.268343 92.387953 -430.000000
   vertex 3338.268343 92.387953 -950.000000
  endloop
 endfacet
 facet normal 0.321439 0.946930 0.000000
  outer loop
   vertex 3325.881905 96.592583 -430.000000
   vertex 3338.268343 92.387953 -950.000000
   vertex 3325.881905 96.592583 -950.000000
  endloop
 endfacet
 facet normal 0.442289 0.896873 0.000000
  outer loop
   vertex 3338.268343 92.387953 -430.000000
   vertex 3350.000000 86.602540 -430.000000
   vertex 3350.000000 86.602540 -950.000000
  endloop
 endfacet
 facet normal 0.442289 0.896873 0.000000
  outer loop
   vertex 3338.268343 92.387953 -430.000000
   vertex 3350.000000 86.602540 -950.000000
   vertex 3338.268343 92.387953 -950.000000
  endloop
 endfacet
 facet normal 0.555570 0.831470 0.000000
  outer loop
   vertex 3350.000000 86.602540 -430.000000
   vertex 3360.876143 79.335334 -430.000000
   vertex 3360.876143 79.335334 -950.000000
  endloop
 endfacet
 facet normal 0.555570 0.831470 0.000000
  outer loop
   vertex 3350.000000 86.602540 -430.000000
   vertex 3360.876143 79.335334 -950.000000
   vertex 3350.000000 86.602540 -950.000000
  endloop
 endfacet
 facet normal 0.659346 0.751840 0.000000
  outer loop
   vertex 3360.876143 79.335334 -430.000000
   vertex 3370.710678 70.710678 -430.000000
   vertex 3370.710678 70.710678 -950.000000
  endloop
 endfacet
 facet normal 0.659346 0.751840 0.000000
  outer loop
   vertex 3360.876143 79.335334 -430.000000
   vertex 3370.710678 70.710678 -950.000000
   vertex 3360.876143 79.335334 -950.000000
  endloop
 endfacet
 facet normal 0.751840 0.659346 0.000000
  outer loop
   vertex 3370.710678 70.710678 -430.000000
   vertex 3379.335334 60.876143 -430.000000
   vertex 3379.335334 60.876143 -950.000000
  endloop
 endfacet
 facet normal 0.751840 0.659346 0.000000
  outer loop
   vertex 3370.710678 70.710678 -430.000000
   vertex 3379.335334 60.876143 -950.000000
   vertex 3370.710678 70.710678 -950.000000
  endloop
 endfacet
 facet normal 0.831470 0.555570 0.000000
  outer loop
   vertex 3379.335334 60.876143 -430.000000
   vertex 3386.602540 50.000000 -430.000000
   vertex 3386.602540 50.000000 -950.000000
  endloop
 endfacet
 facet normal 0.831470 0.555570 0.000000
  outer loop
   vertex 3379.335334 60.876143 -430.000000
   vertex 3386.602540 50.000000 -950.000000
   vertex 3379.335334 60.876143 -950.000000
  endloop
 endfacet
 facet normal 0.896873 0.442289 0.000000
  outer loop
   vertex 3386.602540 50.000000 -430.000000
   vertex 3392.387953 38.268343 -430.000000
   vertex 3392.387953 38.268343 -950.000000
  endloop
 endfacet
 facet normal 0.896873 0.442289 0.000000
  outer loop
   vertex 3386.602540 50.000000 -430.000000
   vertex 3392.387953 38.268343 -950.000000
   vertex 3386.602540 50.000000 -950.000000
  endloop
 endfacet
 facet normal 0.946930 0.321439 0.000000
  outer loop
   vertex 3392.387953 38.268343 -430.000000
   vertex 3396.592583 25.881905 -430.000000
   vertex 3396.592583 25.881905 -950.000000
  endloop
 endfacet
 facet normal 0.946930 0.321439 0.000000
  outer loop
   vertex 3392.387953 38.268343 -430.000000
   vertex 3396.592583 25.881905 -950.000000
   vertex 3392.387953 38.268343 -950.000000
  endloop
 endfacet
 facet normal 0.980785 0.195090 0.000000
  outer loop
   vertex 3396.592583 25.881905 -430.000000
   vertex 3399.144486 13.052619 -430.000000
   vertex 3399.144486 13.052619 -950.000000
  endloop
 endfacet
 facet normal 0.980785 0.195090 0.000000
  outer loop
   vertex 3396.592583 25.881905 -430.000000
   vertex 3399.144486 13.052619 -950.000000
   vertex 3396.592583 25.881905 -950.000000
  endloop
 endfacet
 facet normal 0.997859 0.065403 0.000000
  outer loop
   vertex 3399.144486 13.052619 -430.000000
   vertex 3400.000000 0.000000 -430.000000
   vertex 3400.000000 0.000000 -950.000000
  endloop
 endfacet
 facet normal 0.997859 0.065403 0.000000
  outer loop
   vertex 3399.144486 13.052619 -430.000000
   vertex 3400.000000 0.000000 -950.000000
   vertex 3399.144486 13.052619 -950.000000
  endloop
 endfacet
 facet normal 0.997859 -0.065403 0.000000
  outer loop
   vertex 3400.000000 0.000000 -430.000000
   vertex 3399.144486 -13.052619 -430.000000
   vertex 3399.144486 -13.052619 -950.000000
  endloop
 endfacet
 facet normal 0.997859 -0.065403 0.000000
  outer loop
   vertex 3400.000000 0.000000 -430.000000
   vertex 3399.144486 -13.052619 -950.000000
   vertex 3400.000000 0.000000 -950.000000
  endloop
 endfacet
 facet normal 0.980785 -0.195090 0.000000
  outer loop
   vertex 3399.144486 -13.052619 -430.000000
   vertex 3396.592583 -25.881905 -430.000000
   vertex 3396.592583 -25.881905 -950.000000
  endloop
 endfacet
 facet normal 0.980785 -0.195090 0.000000
  outer loop
   vertex 3399.144486 -13.052619 -430.000000
   vertex 3396.592583 -25.881905 -950.000000
   vertex 3399.144486 -13.052619 -950.000000
  endloop
 endfacet
 facet normal 0.946930 -0.321439 0.000000
  outer loop
   vertex 3396.592583 -25.881905 -430.000000
   vertex 3392.387953 -38.268343 -430.000000
   vertex 3392.387953 -38.268343 -950.000000
  endloop
 endfacet
 facet normal 0.946930 -0.321439 0.000000
  outer loop
   vertex 3396.592583 -25.881905 -430.000000
   vertex 3392.387953 -38.268343 -950.000000
   vertex 3396.592583 -25.881905 -950.000000
  endloop
 endfacet
 facet normal 0.896873 -0.442289 0.000000
  outer loop
   vertex 3392.387953 -38.268343 -430.000000
   vertex 3386.602540 -50.000000 -430.000000
   vertex 3386.602540 -50.000000 -950.000000
  endloop
 endfacet
 facet normal 0.896873 -0.442289 0.000000
  outer loop
   vertex 3392.387953 -38.268343 -430.000000
   vertex 3386.602540 -50.000000 -950.000000
   vertex 3392.387953 -38.268343 -950.000000
  endloop
 endfacet
 facet normal 0.831470 -0.555570 0.000000
  outer loop
   vertex 3386.602540 -50.000000 -430.000000
   vertex 3379.335334 -60.876143 -430.000000
   vertex 3379.335334 -60.876143 -950.000000
  endloop
 endfacet
 facet normal 0.831470 -0.555570 0.000000
  outer loop
   vertex 3386.602540 -50.000000 -430.000000
   vertex 3379.335334 -60.876143 -950.000000
   vertex 3386.602540 -50.000000 -950.000000
  endloop
 endfacet
 facet normal 0.751840 -0.659346 0.000000
  outer loop
   vertex 3379.335334 -60.876143 -430.000000
   vertex 3370.710678 -70.710678 -430.000000
   vertex 3370.710678 -70.710678 -950.000000
  endloop
 endfacet
 facet normal 0.751840 -0.659346 0.000000
  outer loop
   vertex 3379.335334 -60.876143 -430.000000
   vertex 3370.710678 -70.710678 -950.000000
   vertex 3379.335334 -60.876143 -950.000000
  endloop
 endfacet
 facet normal 0.659346 -0.751840 0.000000
  outer loop
   vertex 3370.710678 -70.710678 -430.000000
   vertex 3360.876143 -79.335334 -430.000000
   vertex 3360.876143 -79.335334 -950.000000
  endloop
 endfacet
 facet normal 0.659346 -0.751840 0.000000
  outer loop
   vertex 3370.710678 -70.710678 -430.000000
   vertex 3360.876143 -79.335334 -950.000000
   vertex 3370.710678 -70.710678 -950.000000
  endloop
 endfacet
 facet normal 0.555570 -0.831470 0.000000
  outer loop
   vertex 3360.876143 -79.335334 -430.000000
   vertex 3350.000000 -86.602540 -430.000000
   vertex 3350.000000 -86.602540 -950.000000
  endloop
 endfacet
 facet normal 0.555570 -0.831470 0.000000
  outer loop
   vertex 3360.876143 -79.335334 -430.000000
   vertex 3350.000000 -86.602540 -950.000000
   vertex 3360.876143 -79.335334 -950.000000
  endloop
 endfacet
 facet normal 0.442289 -0.896873 0.000000
  outer loop
   vertex 3350.000000 -86.602540 -430.000000
   vertex 3338.268343 -92.387953 -430.000000
   vertex 3338.268343 -92.387953 -950.000000
  endloop
 endfacet
 facet normal 0.442289 -0.896873 0.000000
  outer loop
   vertex 3350.000000 -86.602540 -430.000000
   vertex 3338.268343 -92.387953 -950.000000
   vertex 3350.000000 -86.602540 -950.000000
  endloop
 endfacet
 facet normal 0.321439 -0.946930 0.000000
  outer loop
   vertex 3338.268343 -92.387953 -430.000000
   vertex 3325.881905 -96.592583 -430.000000
   vertex 3325.881905 -96.592583 -950.000000
  endloop
 endfacet
 facet normal 0.321439 -0.946930 0.000000
  outer loop
   vertex 3338.268343 -92.387953 -430.000000
   vertex 3325.881905 -96.592583 -950.000000
   vertex 3338.268343 -92.387953 -950.000000
  endloop
 endfacet
 facet normal 0.195090 -0.980785 0.000000
  outer loop
   vertex 3325.881905 -96.592583 -430.000000
   vertex 3313.052619 -99.144486 -430.000000
   vertex 3313.052619 -99.144486 -950.000000
  endloop
 endfacet
 facet normal 0.195090 -0.980785 0.000000
  outer loop
   vertex 3325.881905 -96.592583 -430.000000
   vertex 3313.052619 -99.144486 -950.000000
   vertex 3325.881905 -96.592583 -950.000000
  endloop
 endfacet
 facet normal 0.065403 -0.997859 0.000000
  outer loop
   vertex 3313.052619 -99.144486 -430.000000
   vertex 3300.000000 -100.000000 -430.000000
   vertex 3300.000000 -100.000000 -950.000000
  endloop
 endfacet
 facet normal 0.065403 -0.997859 0.000000
  outer loop
   vertex 3313.052619 -99.144486 -430.000000
   vertex 3300.000000 -100.000000 -950.000000
   vertex 3313.052619 -99.144486 -950.000000
  endloop
 endfacet
 facet normal -0.065403 -0.997859 0.000000
  outer loop
   vertex 3300.000000 -100.000000 -430.000000
   vertex 3286.947381 -99.144486 -430.000000
   vertex 3286.947381 -99.144486 -950.000000
  endloop
 endfacet
 facet normal -0.065403 -0.997859 -0.000000
  outer loop
   vertex 3300.000000 -100.000000 -430.000000
   vertex 3286.947381 -99.144486 -950.000000
   vertex 3300.000000 -100.000000 -950.000000
  endloop
 endfacet
 facet normal -0.195090 -0.980785 0.000000
  outer loop
   vertex 3286.947381 -99.144486 -430.000000
   vertex 3274.118095 -96.592583 -430.000000
   vertex 3274.118095 -96.592583 -950.000000
  endloop
 endfacet
 facet normal -0.195090 -0.980785 -0.000000
  outer loop
   vertex 3286.947381 -99.144486 -430.000000
   vertex 3274.118095 -96.592583 -950.000000
   vertex 3286.947381 -99.144486 -950.000000
  endloop
 endfacet
 facet normal -0.321439 -0.946930 0.000000
  outer loop
   vertex 3274.118095 -96.592583 -430.000000
   vertex 3261.731657 -92.387953 -430.000000
   vertex 3261.731657 -92.387953 -950.000000
  endloop
 endfacet
 facet normal -0.321439 -0.946930 -0.000000
  outer loop
   vertex 3274.118095 -96.592583 -430.000000
   vertex 3261.731657 -92.387953 -950.000000
   vertex 3274.118095 -96.592583 -950.000000
  endloop
 endfacet
 facet normal -0.442289 -0.896873 0.000000
  outer loop
   vertex 3261.731657 -92.387953 -430.000000
   vertex 3250.000000 -86.602540 -430.000000
   vertex 3250.000000 -86.602540 -950.000000
  endloop
 endfacet
 facet normal -0.442289 -0.896873 -0.000000
  outer loop
   vertex 3261.731657 -92.387953 -430.000000
   vertex 3250.000000 -86.602540 -950.000000
   vertex 3261.731657 -92.387953 -950.000000
  endloop
 endfacet
 facet normal -0.555570 -0.831470 0.000000
  outer loop
   vertex 3250.000000 -86.602540 -430.000000
   vertex 3239.123857 -79.335334 -430.000000
   vertex 3239.123857 -79.335334 -950.000000
  endloop
 endfacet
 facet normal -0.555570 -0.831470 -0.000000
  outer loop
   vertex 3250.000000 -86.602540 -430.000000
   vertex 3239.123857 -79.335334 -950.000000
   vertex 3250.000000 -86.602540 -950.000000
  endloop
 endfacet
 facet normal -0.659346 -0.751840 0.000000
  outer loop
   vertex 3239.123857 -79.335334 -430.000000
   vertex 3229.289322 -70.710678 -430.000000
   vertex 3229.289322 -70.710678 -950.000000
  endloop
 endfacet
 facet normal -0.659346 -0.751840 -0.000000
  outer loop
   vertex 3239.123857 -79.335334 -430.000000
   vertex 3229.289322 -70.710678 -950.000000
   vertex 3239.123857 -79.335334 -950.000000
  endloop
 endfacet
 facet normal -0.751840 -0.659346 0.000000
  outer loop
   vertex 3229.289322 -70.710678 -430.000000
   vertex 3220.664666 -60.876143 -430.000000
   vertex 3220.664666 -60.876143 -950.000000
  endloop
 endfacet
 facet normal -0.751840 -0.659346 -0.000000
  outer loop
   vertex 3229.289322 -70.710678 -430.000000
   vertex 3220.664666 -60.876143 -950.000000
   vertex 3229.289322 -70.710678 -950.000000
  endloop
 endfacet
 facet normal -0.831470 -0.555570 0.000000
  outer loop
   vertex 3220.664666 -60.876143 -430.000000
   vertex 3213.397460 -50.000000 -430.000000
   vertex 3213.397460 -50.000000 -950.000000
  endloop
 endfacet
 facet normal -0.831470 -0.555570 -0.000000
  outer loop
   vertex 3220.664666 -60.876143 -430.000000
   vertex 3213.397460 -50.000000 -950.000000
   vertex 3220.664666 -60.876143 -950.000000
  endloop
 endfacet
 facet normal -0.896873 -0.442289 0.000000
  outer loop
   vertex 3213.397460 -50.000000 -430.000000
   vertex 3207.612047 -38.268343 -430.000000
   vertex 3207.612047 -38.268343 -950.000000
  endloop
 endfacet
 facet normal -0.896873 -0.442289 -0.000000
  outer loop
   vertex 3213.397460 -50.000000 -430.000000
   vertex 3207.612047 -38.268343 -950.000000
   vertex 3213.397460 -50.000000 -950.000000
  endloop
 endfacet
 facet normal -0.946930 -0.321439 0.000000
  outer loop
   vertex 3207.612047 -38.268343 -430.000000
   vertex 3203.407417 -25.881905 -430.000000
   vertex 3203.407417 -25.881905 -950.000000
  endloop
 endfacet
 facet normal -0.946930 -0.321439 -0.000000
  outer loop
   vertex 3207.612047 -38.268343 -430.000000
   vertex 3203.407417 -25.881905 -950.000000
   vertex 3207.612047 -38.268343 -950.000000
  endloop
 endfacet
 facet normal -0.980785 -0.195090 0.000000
  outer loop
   vertex 3203.407417 -25.881905 -430.000000
   vertex 3200.855514 -13.052619 -430.000000
   vertex 3200.855514 -13.052619 -950.000000
  endloop
 endfacet
 facet normal -0.980785 -0.195090 -0.000000
  outer loop
   vertex 3203.407417 -25.881905 -430.000000
   vertex 3200.855514 -13.052619 -950.000000
   vertex 3203.407417 -25.881905 -950.000000
  endloop
 endfacet
 facet normal -0.997859 -0.065403 0.000000
  outer loop
   vertex 3200.855514 -13.052619 -430.000000
   vertex 3200.000000 -0.000000 -430.000000
   vertex 3200.000000 -0.000000 -950.000000
  endloop
 endfacet
 facet normal -0.997859 -0.065403 -0.000000
  outer loop
   vertex 3200.855514 -13.052619 -430.000000
   vertex 3200.000000 -0.000000 -950.000000
   vertex 3200.855514 -13.052619 -950.000000
  endloop
 endfacet
 facet normal -0.997859 0.065403 0.000000
  outer loop
   vertex 3200.000000 -0.000000 -430.000000
   vertex 3200.855514 13.052619 -430.000000
   vertex 3200.855514 13.052619 -950.000000
  endloop
 endfacet
 facet normal -0.997859 0.065403 0.000000
  outer loop
   vertex 3200.000000 -0.000000 -430.000000
   vertex 3200.855514 13.052619 -950.000000
   vertex 3200.000000 -0.000000 -950.000000
  endloop
 endfacet
 facet normal -0.980785 0.195090 0.000000
  outer loop
   vertex 3200.855514 13.052619 -430.000000
   vertex 3203.407417 25.881905 -430.000000
   vertex 3203.407417 25.881905 -950.000000
  endloop
 endfacet
 facet normal -0.980785 0.195090 0.000000
  outer loop
   vertex 3200.855514 13.052619 -430.000000
   vertex 3203.407417 25.881905 -950.000000
   vertex 3200.855514 13.052619 -950.000000
  endloop
 endfacet
 facet normal -0.946930 0.321439 0.000000
  outer loop
   vertex 3203.407417 25.881905 -430.000000
   vertex 3207.612047 38.268343 -430.000000
   vertex 3207.612047 38.268343 -950.000000
  endloop
 endfacet
 facet normal -0.946930 0.321439 0.000000
  outer loop
   vertex 3203.407417 25.881905 -430.000000
   vertex 3207.612047 38.268343 -950.000000
   vertex 3203.407417 25.881905 -950.000000
  endloop
 endfacet
 facet normal -0.896873 0.442289 0.000000
  outer loop
   vertex 3207.612047 38.268343 -430.000000
   vertex 3213.397460 50.000000 -430.000000
   vertex 3213.397460 50.000000 -950.000000
  endloop
 endfacet
 facet normal -0.896873 0.442289 0.000000
  outer loop
   vertex 3207.612047 38.268343 -430.000000
   vertex 3213.397460 50.000000 -950.000000
   vertex 3207.612047 38.268343 -950.000000
  endloop
 endfacet
 facet normal -0.831470 0.555570 0.000000
  outer loop
   vertex 3213.397460 50.000000 -430.000000
   vertex 3220.664666 60.876143 -430.000000
   vertex 3220.664666 60.876143 -950.000000
  endloop
 endfacet
 facet normal -0.831470 0.555570 0.000000
  outer loop
   vertex 3213.397460 50.000000 -430.000000
   vertex 3220.664666 60.876143 -950.000000
   vertex 3213.397460 50.000000 -950.000000
  endloop
 endfacet
 facet normal -0.751840 0.659346 0.000000
  outer loop
   vertex 3220.664666 60.876143 -430.000000
   vertex 3229.289322 70.710678 -430.000000
   vertex 3229.289322 70.710678 -950.000000
  endloop
 endfacet
 facet normal -0.751840 0.659346 0.000000
  outer loop
   vertex 3220.664666 60.876143 -430.000000
   vertex 3229.289322 70.710678 -950.000000
   vertex 3220.664666 60.876143 -950.000000
  endloop
 endfacet
 facet normal -0.659346 0.751840 0.000000
  outer loop
   vertex 3229.289322 70.710678 -430.000000
   vertex 3239.123857 79.335334 -430.000000
   vertex 3239.123857 79.335334 -950.000000
  endloop
 endfacet
 facet normal -0.659346 0.751840 0.000000
  outer loop
   vertex 3229.289322 70.710678 -430.000000
   vertex 3239.123857 79.335334 -950.000000
   vertex 3229.289322 70.710678 -950.000000
  endloop
 endfacet
 facet normal -0.555570 0.831470 0.000000
  outer loop
   vertex 3239.123857 79.335334 -430.000000
   vertex 3250.000000 86.602540 -430.000000
   vertex 3250.000000 86.602540 -950.000000
  endloop
 endfacet
 facet normal -0.555570 0.831470 0.000000
  outer loop
   vertex 3239.123857 79.335334 -430.000000
   vertex 3250.000000 86.602540 -950.000000
   vertex 3239.123857 79.335334 -950.000000
  endloop
 endfacet
 facet normal -0.442289 0.896873 0.000000
  outer loop
   vertex 3250.000000 86.602540 -430.000000
   vertex 3261.731657 92.387953 -430.000000
   vertex 3261.731657 92.387953 -950.000000
  endloop
 endfacet
 facet normal -0.442289 0.896873 0.000000
  outer loop
   vertex 3250.000000 86.602540 -430.000000
   vertex 3261.731657 92.387953 -950.000000
   vertex 3250.000000 86.602540 -950.000000
  endloop
 endfacet
 facet normal -0.321439 0.946930 0.000000
  outer loop
   vertex 3261.731657 92.387953 -430.000000
   vertex 3274.118095 96.592583 -430.000000
   vertex 3274.118095 96.592583 -950.000000
  endloop
 endfacet
 facet normal -0.321439 0.946930 0.000000
  outer loop
   vertex 3261.731657 92.387953 -430.000000
   vertex 3274.118095 96.592583 -950.000000
   vertex 3261.731657 92.387953 -950.000000
  endloop
 endfacet
 facet normal -0.195090 0.980785 0.000000
  outer loop
   vertex 3274.118095 96.592583 -430.000000
   vertex 3286.947381 99.144486 -430.000000
   vertex 3286.947381 99.144486 -950.000000
  endloop
 endfacet
 facet normal -0.195090 0.980785 0.000000
  outer loop
   vertex 3274.118095 96.592583 -430.000000
   vertex 3286.947381 99.144486 -950.000000
   vertex 3274.118095 96.592583 -950.000000
  endloop
 endfacet
 facet normal -0.065403 0.997859 0.000000
  outer loop
   vertex 3286.947381 99.144486 -430.000000
   vertex 3300.000000 100.000000 -430.000000
   vertex 3300.000000 100.000000 -950.000000
  endloop
 endfacet
 facet normal -0.065403 0.997859 0.000000
  outer loop
   vertex 3286.947381 99.144486 -430.000000
   vertex 3300.000000 100.000000 -950.000000
   vertex 3286.947381 99.144486 -950.000000
  endloop
 endfacet
 facet normal -0.065403 -0.997859 0.000000
  outer loop
   vertex 3311.486305 87.247148 -950.000000
   vertex 3311.486305 87.247148 -430.000000
   vertex 3300.000000 88.000000 -430.000000
  endloop
 endfacet
 facet normal -0.065403 -0.997859 0.000000
  outer loop
   vertex 3300.000000 88.000000 -950.000000
   vertex 3311.486305 87.247148 -950.000000
   vertex 3300.000000 88.000000 -430.000000
  endloop
 endfacet
 facet normal -0.195090 -0.980785 0.000000
  outer loop
   vertex 3322.776076 85.001473 -950.000000
   vertex 3322.776076 85.001473 -430.000000
   vertex 3311.486305 87.247148 -430.000000
  endloop
 endfacet
 facet normal -0.195090 -0.980785 0.000000
  outer loop
   vertex 3311.486305 87.247148 -950.000000
   vertex 3322.776076 85.001473 -950.000000
   vertex 3311.486305 87.247148 -430.000000
  endloop
 endfacet
 facet normal -0.321439 -0.946930 0.000000
  outer loop
   vertex 3333.676142 81.301399 -950.000000
   vertex 3333.676142 81.301399 -430.000000
   vertex 3322.776076 85.001473 -430.000000
  endloop
 endfacet
 facet normal -0.321439 -0.946930 0.000000
  outer loop
   vertex 3322.776076 85.001473 -950.000000
   vertex 3333.676142 81.301399 -950.000000
   vertex 3322.776076 85.001473 -430.000000
  endloop
 endfacet
 facet normal -0.442289 -0.896873 0.000000
  outer loop
   vertex 3344.000000 76.210236 -950.000000
   vertex 3344.000000 76.210236 -430.000000
   vertex 3333.676142 81.301399 -430.000000
  endloop
 endfacet
 facet normal -0.442289 -0.896873 0.000000
  outer loop
   vertex 3333.676142 81.301399 -950.000000
   vertex 3344.000000 76.210236 -950.000000
   vertex 3333.676142 81.301399 -430.000000
  endloop
 endfacet
 facet normal -0.555570 -0.831470 0.000000
  outer loop
   vertex 3353.571006 69.815094 -950.000000
   vertex 3353.571006 69.815094 -430.000000
   vertex 3344.000000 76.210236 -430.000000
  endloop
 endfacet
 facet normal -0.555570 -0.831470 0.000000
  outer loop
   vertex 3344.000000 76.210236 -950.000000
   vertex 3353.571006 69.815094 -950.000000
   vertex 3344.000000 76.210236 -430.000000
  endloop
 endfacet
 facet normal -0.659346 -0.751840 0.000000
  outer loop
   vertex 3362.225397 62.225397 -950.000000
   vertex 3362.225397 62.225397 -430.000000
   vertex 3353.571006 69.815094 -430.000000
  endloop
 endfacet
 facet normal -0.659346 -0.751840 0.000000
  outer loop
   vertex 3353.571006 69.815094 -950.000000
   vertex 3362.225397 62.225397 -950.000000
   vertex 3353.571006 69.815094 -430.000000
  endloop
 endfacet
 facet normal -0.751840 -0.659346 0.000000
  outer loop
   vertex 3369.815094 53.571006 -950.000000
   vertex 3369.815094 53.571006 -430.000000
   vertex 3362.225397 62.225397 -430.000000
  endloop
 endfacet
 facet normal -0.751840 -0.659346 0.000000
  outer loop
   vertex 3362.225397 62.225397 -950.000000
   vertex 3369.815094 53.571006 -950.000000
   vertex 3362.225397 62.225397 -430.000000
  endloop
 endfacet
 facet normal -0.831470 -0.555570 0.000000
  outer loop
   vertex 3376.210236 44.000000 -950.000000
   vertex 3376.210236 44.000000 -430.000000
   vertex 3369.815094 53.571006 -430.000000
  endloop
 endfacet
 facet normal -0.831470 -0.555570 0.000000
  outer loop
   vertex 3369.815094 53.571006 -950.000000
   vertex 3376.210236 44.000000 -950.000000
   vertex 3369.815094 53.571006 -430.000000
  endloop
 endfacet
 facet normal -0.896873 -0.442289 0.000000
  outer loop
   vertex 3381.301399 33.676142 -950.000000
   vertex 3381.301399 33.676142 -430.000000
   vertex 3376.210236 44.000000 -430.000000
  endloop
 endfacet
 facet normal -0.896873 -0.442289 0.000000
  outer loop
   vertex 3376.210236 44.000000 -950.000000
   vertex 3381.301399 33.676142 -950.000000
   vertex 3376.210236 44.000000 -430.000000
  endloop
 endfacet
 facet normal -0.946930 -0.321439 0.000000
  outer loop
   vertex 3385.001473 22.776076 -950.000000
   vertex 3385.001473 22.776076 -430.000000
   vertex 3381.301399 33.676142 -430.000000
  endloop
 endfacet
 facet normal -0.946930 -0.321439 0.000000
  outer loop
   vertex 3381.301399 33.676142 -950.000000
   vertex 3385.001473 22.776076 -950.000000
   vertex 3381.301399 33.676142 -430.000000
  endloop
 endfacet
 facet normal -0.980785 -0.195090 0.000000
  outer loop
   vertex 3387.247148 11.486305 -950.000000
   vertex 3387.247148 11.486305 -430.000000
   vertex 3385.001473 22.776076 -430.000000
  endloop
 endfacet
 facet normal -0.980785 -0.195090 0.000000
  outer loop
   vertex 3385.001473 22.776076 -950.000000
   vertex 3387.247148 11.486305 -950.000000
   vertex 3385.001473 22.776076 -430.000000
  endloop
 endfacet
 facet normal -0.997859 -0.065403 0.000000
  outer loop
   vertex 3388.000000 0.000000 -950.000000
   vertex 3388.000000 0.000000 -430.000000
   vertex 3387.247148 11.486305 -430.000000
  endloop
 endfacet
 facet normal -0.997859 -0.065403 0.000000
  outer loop
   vertex 3387.247148 11.486305 -950.000000
   vertex 3388.000000 0.000000 -950.000000
   vertex 3387.247148 11.486305 -430.000000
  endloop
 endfacet
 facet normal -0.997859 0.065403 0.000000
  outer loop
   vertex 3387.247148 -11.486305 -950.000000
   vertex 3387.247148 -11.486305 -430.000000
   vertex 3388.000000 0.000000 -430.000000
  endloop
 endfacet
 facet normal -0.997859 0.065403 0.000000
  outer loop
   vertex 3388.000000 0.000000 -950.000000
   vertex 3387.247148 -11.486305 -950.000000
   vertex 3388.000000 0.000000 -430.000000
  endloop
 endfacet
 facet normal -0.980785 0.195090 0.000000
  outer loop
   vertex 3385.001473 -22.776076 -950.000000
   vertex 3385.001473 -22.776076 -430.000000
   vertex 3387.247148 -11.486305 -430.000000
  endloop
 endfacet
 facet normal -0.980785 0.195090 0.000000
  outer loop
   vertex 3387.247148 -11.486305 -950.000000
   vertex 3385.001473 -22.776076 -950.000000
   vertex 3387.247148 -11.486305 -430.000000
  endloop
 endfacet
 facet normal -0.946930 0.321439 0.000000
  outer loop
   vertex 3381.301399 -33.676142 -950.000000
   vertex 3381.301399 -33.676142 -430.000000
   vertex 3385.001473 -22.776076 -430.000000
  endloop
 endfacet
 facet normal -0.946930 0.321439 0.000000
  outer loop
   vertex 3385.001473 -22.776076 -950.000000
   vertex 3381.301399 -33.676142 -950.000000
   vertex 3385.001473 -22.776076 -430.000000
  endloop
 endfacet
 facet normal -0.896873 0.442289 0.000000
  outer loop
   vertex 3376.210236 -44.000000 -950.000000
   vertex 3376.210236 -44.000000 -430.000000
   vertex 3381.301399 -33.676142 -430.000000
  endloop
 endfacet
 facet normal -0.896873 0.442289 0.000000
  outer loop
   vertex 3381.301399 -33.676142 -950.000000
   vertex 3376.210236 -44.000000 -950.000000
   vertex 3381.301399 -33.676142 -430.000000
  endloop
 endfacet
 facet normal -0.831470 0.555570 0.000000
  outer loop
   vertex 3369.815094 -53.571006 -950.000000
   vertex 3369.815094 -53.571006 -430.000000
   vertex 3376.210236 -44.000000 -430.000000
  endloop
 endfacet
 facet normal -0.831470 0.555570 0.000000
  outer loop
   vertex 3376.210236 -44.000000 -950.000000
   vertex 3369.815094 -53.571006 -950.000000
   vertex 3376.210236 -44.000000 -430.000000
  endloop
 endfacet
 facet normal -0.751840 0.659346 0.000000
  outer loop
   vertex 3362.225397 -62.225397 -950.000000
   vertex 3362.225397 -62.225397 -430.000000
   vertex 3369.815094 -53.571006 -430.000000
  endloop
 endfacet
 facet normal -0.751840 0.659346 0.000000
  outer loop
   vertex 3369.815094 -53.571006 -950.000000
   vertex 3362.225397 -62.225397 -950.000000
   vertex 3369.815094 -53.571006 -430.000000
  endloop
 endfacet
 facet normal -0.659346 0.751840 0.000000
  outer loop
   vertex 3353.571006 -69.815094 -950.000000
   vertex 3353.571006 -69.815094 -430.000000
   vertex 3362.225397 -62.225397 -430.000000
  endloop
 endfacet
 facet normal -0.659346 0.751840 0.000000
  outer loop
   vertex 3362.225397 -62.225397 -950.000000
   vertex 3353.571006 -69.815094 -950.000000
   vertex 3362.225397 -62.225397 -430.000000
  endloop
 endfacet
 facet normal -0.555570 0.831470 0.000000
  outer loop
   vertex 3344.000000 -76.210236 -950.000000
   vertex 3344.000000 -76.210236 -430.000000
   vertex 3353.571006 -69.815094 -430.000000
  endloop
 endfacet
 facet normal -0.555570 0.831470 0.000000
  outer loop
   vertex 3353.571006 -69.815094 -950.000000
   vertex 3344.000000 -76.210236 -950.000000
   vertex 3353.571006 -69.815094 -430.000000
  endloop
 endfacet
 facet normal -0.442289 0.896873 0.000000
  outer loop
   vertex 3333.676142 -81.301399 -950.000000
   vertex 3333.676142 -81.301399 -430.000000
   vertex 3344.000000 -76.210236 -430.000000
  endloop
 endfacet
 facet normal -0.442289 0.896873 0.000000
  outer loop
   vertex 3344.000000 -76.210236 -950.000000
   vertex 3333.676142 -81.301399 -950.000000
   vertex 3344.000000 -76.210236 -430.000000
  endloop
 endfacet
 facet normal -0.321439 0.946930 0.000000
  outer loop
   vertex 3322.776076 -85.001473 -950.000000
   vertex 3322.776076 -85.001473 -430.000000
   vertex 3333.676142 -81.301399 -430.000000
  endloop
 endfacet
 facet normal -0.321439 0.946930 0.000000
  outer loop
   vertex 3333.676142 -81.301399 -950.000000
   vertex 3322.776076 -85.001473 -950.000000
   vertex 3333.676142 -81.301399 -430.000000
  endloop
 endfacet
 facet normal -0.195090 0.980785 0.000000
  outer loop
   vertex 3311.486305 -87.247148 -950.000000
   vertex 3311.486305 -87.247148 -430.000000
   vertex 3322.776076 -85.001473 -430.000000
  endloop
 endfacet
 facet normal -0.195090 0.980785 0.000000
  outer loop
   vertex 3322.776076 -85.001473 -950.000000
   vertex 3311.486305 -87.247148 -950.000000
   vertex 3322.776076 -85.001473 -430.000000
  endloop
 endfacet
 facet normal -0.065403 0.997859 0.000000
  outer loop
   vertex 3300.000000 -88.000000 -950.000000
   vertex 3300.000000 -88.000000 -430.000000
   vertex 3311.486305 -87.247148 -430.000000
  endloop
 endfacet
 facet normal -0.065403 0.997859 0.000000
  outer loop
   vertex 3311.486305 -87.247148 -950.000000
   vertex 3300.000000 -88.000000 -950.000000
   vertex 3311.486305 -87.247148 -430.000000
  endloop
 endfacet
 facet normal 0.065403 0.997859 -0.000000
  outer loop
   vertex 3288.513695 -87.247148 -950.000000
   vertex 3288.513695 -87.247148 -430.000000
   vertex 3300.000000 -88.000000 -430.000000
  endloop
 endfacet
 facet normal 0.065403 0.997859 -0.000000
  outer loop
   vertex 3300.000000 -88.000000 -950.000000
   vertex 3288.513695 -87.247148 -950.000000
   vertex 3300.000000 -88.000000 -430.000000
  endloop
 endfacet
 facet normal 0.195090 0.980785 -0.000000
  outer loop
   vertex 3277.223924 -85.001473 -950.000000
   vertex 3277.223924 -85.001473 -430.000000
   vertex 3288.513695 -87.247148 -430.000000
  endloop
 endfacet
 facet normal 0.195090 0.980785 -0.000000
  outer loop
   vertex 3288.513695 -87.247148 -950.000000
   vertex 3277.223924 -85.001473 -950.000000
   vertex 3288.513695 -87.247148 -430.000000
  endloop
 endfacet
 facet normal 0.321439 0.946930 -0.000000
  outer loop
   vertex 3266.323858 -81.301399 -950.000000
   vertex 3266.323858 -81.301399 -430.000000
   vertex 3277.223924 -85.001473 -430.000000
  endloop
 endfacet
 facet normal 0.321439 0.946930 -0.000000
  outer loop
   vertex 3277.223924 -85.001473 -950.000000
   vertex 3266.323858 -81.301399 -950.000000
   vertex 3277.223924 -85.001473 -430.000000
  endloop
 endfacet
 facet normal 0.442289 0.896873 -0.000000
  outer loop
   vertex 3256.000000 -76.210236 -950.000000
   vertex 3256.000000 -76.210236 -430.000000
   vertex 3266.323858 -81.301399 -430.000000
  endloop
 endfacet
 facet normal 0.442289 0.896873 -0.000000
  outer loop
   vertex 3266.323858 -81.301399 -950.000000
   vertex 3256.000000 -76.210236 -950.000000
   vertex 3266.323858 -81.301399 -430.000000
  endloop
 endfacet
 facet normal 0.555570 0.831470 -0.000000
  outer loop
   vertex 3246.428994 -69.815094 -950.000000
   vertex 3246.428994 -69.815094 -430.000000
   vertex 3256.000000 -76.210236 -430.000000
  endloop
 endfacet
 facet normal 0.555570 0.831470 -0.000000
  outer loop
   vertex 3256.000000 -76.210236 -950.000000
   vertex 3246.428994 -69.815094 -950.000000
   vertex 3256.000000 -76.210236 -430.000000
  endloop
 endfacet
 facet normal 0.659346 0.751840 -0.000000
  outer loop
   vertex 3237.774603 -62.225397 -950.000000
   vertex 3237.774603 -62.225397 -430.000000
   vertex 3246.428994 -69.815094 -430.000000
  endloop
 endfacet
 facet normal 0.659346 0.751840 -0.000000
  outer loop
   vertex 3246.428994 -69.815094 -950.000000
   vertex 3237.774603 -62.225397 -950.000000
   vertex 3246.428994 -69.815094 -430.000000
  endloop
 endfacet
 facet normal 0.751840 0.659346 -0.000000
  outer loop
   vertex 3230.184906 -53.571006 -950.000000
   vertex 3230.184906 -53.571006 -430.000000
   vertex 3237.774603 -62.225397 -430.000000
  endloop
 endfacet
 facet normal 0.751840 0.659346 -0.000000
  outer loop
   vertex 3237.774603 -62.225397 -950.000000
   vertex 3230.184906 -53.571006 -950.000000
   vertex 3237.774603 -62.225397 -430.000000
  endloop
 endfacet
 facet normal 0.831470 0.555570 -0.000000
  outer loop
   vertex 3223.789764 -44.000000 -950.000000
   vertex 3223.789764 -44.000000 -430.000000
   vertex 3230.184906 -53.571006 -430.000000
  endloop
 endfacet
 facet normal 0.831470 0.555570 -0.000000
  outer loop
   vertex 3230.184906 -53.571006 -950.000000
   vertex 3223.789764 -44.000000 -950.000000
   vertex 3230.184906 -53.571006 -430.000000
  endloop
 endfacet
 facet normal 0.896873 0.442289 -0.000000
  outer loop
   vertex 3218.698601 -33.676142 -950.000000
   vertex 3218.698601 -33.676142 -430.000000
   vertex 3223.789764 -44.000000 -430.000000
  endloop
 endfacet
 facet normal 0.896873 0.442289 -0.000000
  outer loop
   vertex 3223.789764 -44.000000 -950.000000
   vertex 3218.698601 -33.676142 -950.000000
   vertex 3223.789764 -44.000000 -430.000000
  endloop
 endfacet
 facet normal 0.946930 0.321439 -0.000000
  outer loop
   vertex 3214.998527 -22.776076 -950.000000
   vertex 3214.998527 -22.776076 -430.000000
   vertex 3218.698601 -33.676142 -430.000000
  endloop
 endfacet
 facet normal 0.946930 0.321439 -0.000000
  outer loop
   vertex 3218.698601 -33.676142 -950.000000
   vertex 3214.998527 -22.776076 -950.000000
   vertex 3218.698601 -33.676142 -430.000000
  endloop
 endfacet
 facet normal 0.980785 0.195090 -0.000000
  outer loop
   vertex 3212.752852 -11.486305 -950.000000
   vertex 3212.752852 -11.486305 -430.000000
   vertex 3214.998527 -22.776076 -430.000000
  endloop
 endfacet
 facet normal 0.980785 0.195090 -0.000000
  outer loop
   vertex 3214.998527 -22.776076 -950.000000
   vertex 3212.752852 -11.486305 -950.000000
   vertex 3214.998527 -22.776076 -430.000000
  endloop
 endfacet
 facet normal 0.997859 0.065403 -0.000000
  outer loop
   vertex 3212.000000 -0.000000 -950.000000
   vertex 3212.000000 -0.000000 -430.000000
   vertex 3212.752852 -11.486305 -430.000000
  endloop
 endfacet
 facet normal 0.997859 0.065403 -0.000000
  outer loop
   vertex 3212.752852 -11.486305 -950.000000
   vertex 3212.000000 -0.000000 -950.000000
   vertex 3212.752852 -11.486305 -430.000000
  endloop
 endfacet
 facet normal 0.997859 -0.065403 0.000000
  outer loop
   vertex 3212.752852 11.486305 -950.000000
   vertex 3212.752852 11.486305 -430.000000
   vertex 3212.000000 -0.000000 -430.000000
  endloop
 endfacet
 facet normal 0.997859 -0.065403 0.000000
  outer loop
   vertex 3212.000000 -0.000000 -950.000000
   vertex 3212.752852 11.486305 -950.000000
   vertex 3212.000000 -0.000000 -430.000000
  endloop
 endfacet
 facet normal 0.980785 -0.195090 0.000000
  outer loop
   vertex 3214.998527 22.776076 -950.000000
   vertex 3214.998527 22.776076 -430.000000
   vertex 3212.752852 11.486305 -430.000000
  endloop
 endfacet
 facet normal 0.980785 -0.195090 0.000000
  outer loop
   vertex 3212.752852 11.486305 -950.000000
   vertex 3214.998527 22.776076 -950.000000
   vertex 3212.752852 11.486305 -430.000000
  endloop
 endfacet
 facet normal 0.946930 -0.321439 0.000000
  outer loop
   vertex 3218.698601 33.676142 -950.000000
   vertex 3218.698601 33.676142 -430.000000
   vertex 3214.998527 22.776076 -430.000000
  endloop
 endfacet
 facet normal 0.946930 -0.321439 0.000000
  outer loop
   vertex 3214.998527 22.776076 -950.000000
   vertex 3218.698601 33.676142 -950.000000
   vertex 3214.998527 22.776076 -430.000000
  endloop
 endfacet
 facet normal 0.896873 -0.442289 0.000000
  outer loop
   vertex 3223.789764 44.000000 -950.000000
   vertex 3223.789764 44.000000 -430.000000
   vertex 3218.698601 33.676142 -430.000000
  endloop
 endfacet
 facet normal 0.896873 -0.442289 0.000000
  outer loop
   vertex 3218.698601 33.676142 -950.000000
   vertex 3223.789764 44.000000 -950.000000
   vertex 3218.698601 33.676142 -430.000000
  endloop
 endfacet
 facet normal 0.831470 -0.555570 0.000000
  outer loop
   vertex 3230.184906 53.571006 -950.000000
   vertex 3230.184906 53.571006 -430.000000
   vertex 3223.789764 44.000000 -430.000000
  endloop
 endfacet
 facet normal 0.831470 -0.555570 0.000000
  outer loop
   vertex 3223.789764 44.000000 -950.000000
   vertex 3230.184906 53.571006 -950.000000
   vertex 3223.789764 44.000000 -430.000000
  endloop
 endfacet
 facet normal 0.751840 -0.659346 0.000000
  outer loop
   vertex 3237.774603 62.225397 -950.000000
   vertex 3237.774603 62.225397 -430.000000
   vertex 3230.184906 53.571006 -430.000000
  endloop
 endfacet
 facet normal 0.751840 -0.659346 0.000000
  outer loop
   vertex 3230.184906 53.571006 -950.000000
   vertex 3237.774603 62.225397 -950.000000
   vertex 3230.184906 53.571006 -430.000000
  endloop
 endfacet
 facet normal 0.659346 -0.751840 0.000000
  outer loop
   vertex 3246.428994 69.815094 -950.000000
   vertex 3246.428994 69.815094 -430.000000
   vertex 3237.774603 62.225397 -430.000000
  endloop
 endfacet
 facet normal 0.659346 -0.751840 0.000000
  outer loop
   vertex 3237.774603 62.225397 -950.000000
   vertex 3246.428994 69.815094 -950.000000
   vertex 3237.774603 62.225397 -430.000000
  endloop
 endfacet
 facet normal 0.555570 -0.831470 0.000000
  outer loop
   vertex 3256.000000 76.210236 -950.000000
   vertex 3256.000000 76.210236 -430.000000
   vertex 3246.428994 69.815094 -430.000000
  endloop
 endfacet
 facet normal 0.555570 -0.831470 0.000000
  outer loop
   vertex 3246.428994 69.815094 -950.000000
   vertex 3256.000000 76.210236 -950.000000
   vertex 3246.428994 69.815094 -430.000000
  endloop
 endfacet
 facet normal 0.442289 -0.896873 0.000000
  outer loop
   vertex 3266.323858 81.301399 -950.000000
   vertex 3266.323858 81.301399 -430.000000
   vertex 3256.000000 76.210236 -430.000000
  endloop
 endfacet
 facet normal 0.442289 -0.896873 0.000000
  outer loop
   vertex 3256.000000 76.210236 -950.000000
   vertex 3266.323858 81.301399 -950.000000
   vertex 3256.000000 76.210236 -430.000000
  endloop
 endfacet
 facet normal 0.321439 -0.946930 0.000000
  outer loop
   vertex 3277.223924 85.001473 -950.000000
   vertex 3277.223924 85.001473 -430.000000
   vertex 3266.323858 81.301399 -430.000000
  endloop
 endfacet
 facet normal 0.321439 -0.946930 0.000000
  outer loop
   vertex 3266.323858 81.301399 -950.000000
   vertex 3277.223924 85.001473 -950.000000
   vertex 3266.323858 81.301399 -430.000000
  endloop
 endfacet
 facet normal 0.195090 -0.980785 0.000000
  outer loop
   vertex 3288.513695 87.247148 -950.000000
   vertex 3288.513695 87.247148 -430.000000
   vertex 3277.223924 85.001473 -430.000000
  endloop
 endfacet
 facet normal 0.195090 -0.980785 0.000000
  outer loop
   vertex 3277.223924 85.001473 -950.000000
   vertex 3288.513695 87.247148 -950.000000
   vertex 3277.223924 85.001473 -430.000000
  endloop
 endfacet
 facet normal 0.065403 -0.997859 0.000000
  outer loop
   vertex 3300.000000 88.000000 -950.000000
   vertex 3300.000000 88.000000 -430.000000
   vertex 3288.513695 87.247148 -430.000000
  endloop
 endfacet
 facet normal 0.065403 -0.997859 0.000000
  outer loop
   vertex 3288.513695 87.247148 -950.000000
   vertex 3300.000000 88.000000 -950.000000
   vertex 3288.513695 87.247148 -430.000000
  endloop
 endfacet
endsolid SIC_LOX_feed_1_elbow
