solid SIC_RP1_feed_4_bellows
 facet normal 0.065403 -0.997859 0.000000
  outer loop
   vertex 1775.039051 2974.367637 -580.000000
   vertex 1788.091671 2975.223151 -580.000000
   vertex 1788.091671 2975.223151 -400.000000
  endloop
 endfacet
 facet normal 0.065403 -0.997859 0.000000
  outer loop
   vertex 1775.039051 2974.367637 -580.000000
   vertex 1788.091671 2975.223151 -400.000000
   vertex 1775.039051 2974.367637 -400.000000
  endloop
 endfacet
 facet normal 0.195090 -0.980785 0.000000
  outer loop
   vertex 1788.091671 2975.223151 -580.000000
   vertex 1800.920956 2977.775054 -580.000000
   vertex 1800.920956 2977.775054 -400.000000
  endloop
 endfacet
 facet normal 0.195090 -0.980785 0.000000
  outer loop
   vertex 1788.091671 2975.223151 -580.000000
   vertex 1800.920956 2977.775054 -400.000000
   vertex 1788.091671 2975.223151 -400.000000
  endloop
 endfacet
 facet normal 0.321439 -0.946930 0.000000
  outer loop
   vertex 1800.920956 2977.775054 -580.000000
   vertex 1813.307395 2981.979684 -580.000000
   vertex 1813.307395 2981.979684 -400.000000
  endloop
 endfacet
 facet normal 0.321439 -0.946930 0.000000
  outer loop
   vertex 1800.920956 2977.775054 -580.000000
   vertex 1813.307395 2981.979684 -400.000000
   vertex 1800.920956 2977.775054 -400.000000
  endloop
 endfacet
 facet normal 0.442289 -0.896873 0.000000
  outer loop
   vertex 1813.307395 2981.979684 -580.000000
   vertex 1825.039051 2987.765096 -580.000000
   vertex 1825.039051 2987.765096 -400.000000
  endloop
 endfacet
 facet normal 0.442289 -0.896873 0.000000
  outer loop
   vertex 1813.307395 2981.979684 -580.000000
   vertex 1825.039051 2987.765096 -400.000000
   vertex 1813.307395 2981.979684 -400.000000
  endloop
 endfacet
 facet normal 0.555570 -0.831470 0.000000
  outer loop
   vertex 1825.039051 2987.765096 -580.000000
   vertex 1835.915194 2995.032303 -580.000000
   vertex 1835.915194 2995.032303 -400.000000
  endloop
 endfacet
 facet normal 0.555570 -0.831470 0.000000
  outer loop
   vertex 1825.039051 2987.765096 -580.000000
   vertex 1835.915194 2995.032303 -400.000000
   vertex 1825.039051 2987.765096 -400.000000
  endloop
 endfacet
 facet normal 0.659346 -0.751840 0.000000
  outer loop
   vertex 1835.915194 2995.032303 -580.000000
   vertex 1845.749729 3003.656959 -580.000000
   vertex 1845.749729 3003.656959 -400.000000
  endloop
 endfacet
 facet normal 0.659346 -0.751840 0.000000
  outer loop
   vertex 1835.915194 2995.032303 -580.000000
   vertex 1845.749729 3003.656959 -400.000000
   vertex 1835.915194 2995.032303 -400.000000
  endloop
 endfacet
 facet normal 0.751840 -0.659346 0.000000
  outer loop
   vertex 1845.749729 3003.656959 -580.000000
   vertex 1854.374385 3013.491494 -580.000000
   vertex 1854.374385 3013.491494 -400.000000
  endloop
 endfacet
 facet normal 0.751840 -0.659346 0.000000
  outer loop
   vertex 1845.749729 3003.656959 -580.000000
   vertex 1854.374385 3013.491494 -400.000000
   vertex 1845.749729 3003.656959 -400.000000
  endloop
 endfacet
 facet normal 0.831470 -0.555570 0.000000
  outer loop
   vertex 1854.374385 3013.491494 -580.000000
   vertex 1861.641592 3024.367637 -580.000000
   vertex 1861.641592 3024.367637 -400.000000
  endloop
 endfacet
 facet normal 0.831470 -0.555570 0.000000
  outer loop
   vertex 1854.374385 3013.491494 -580.000000
   vertex 1861.641592 3024.367637 -400.000000
   vertex 1854.374385 3013.491494 -400.000000
  endloop
 endfacet
 facet normal 0.896873 -0.442289 0.000000
  outer loop
   vertex 1861.641592 3024.367637 -580.000000
   vertex 1867.427005 3036.099294 -580.000000
   vertex 1867.427005 3036.099294 -400.000000
  endloop
 endfacet
 facet normal 0.896873 -0.442289 0.000000
  outer loop
   vertex 1861.641592 3024.367637 -580.000000
   vertex 1867.427005 3036.099294 -400.000000
   vertex 1861.641592 3024.367637 -400.000000
  endloop
 endfacet
 facet normal 0.946930 -0.321439 0.000000
  outer loop
   vertex 1867.427005 3036.099294 -580.000000
   vertex 1871.631634 3048.485732 -580.000000
   vertex 1871.631634 3048.485732 -400.000000
  endloop
 endfacet
 facet normal 0.946930 -0.321439 0.000000
  outer loop
   vertex 1867.427005 3036.099294 -580.000000
   vertex 1871.631634 3048.485732 -400.000000
   vertex 1867.427005 3036.099294 -400.000000
  endloop
 endfacet
 facet normal 0.980785 -0.195090 0.000000
  outer loop
   vertex 1871.631634 3048.485732 -580.000000
   vertex 1874.183537 3061.315018 -580.000000
   vertex 1874.183537 3061.315018 -400.000000
  endloop
 endfacet
 facet normal 0.980785 -0.195090 0.000000
  outer loop
   vertex 1871.631634 3048.485732 -580.000000
   vertex 1874.183537 3061.315018 -400.000000
   vertex 1871.631634 3048.485732 -400.000000
  endloop
 endfacet
 facet normal 0.997859 -0.065403 0.000000
  outer loop
   vertex 1874.183537 3061.315018 -580.000000
   vertex 1875.039051 3074.367637 -580.000000
   vertex 1875.039051 3074.367637 -400.000000
  endloop
 endfacet
 facet normal 0.997859 -0.065403 0.000000
  outer loop
   vertex 1874.183537 3061.315018 -580.000000
   vertex 1875.039051 3074.367637 -400.000000
   vertex 1874.183537 3061.315018 -400.000000
  endloop
 endfacet
 facet normal 0.997859 0.065403 0.000000
  outer loop
   vertex 1875.039051 3074.367637 -580.000000
   vertex 1874.183537 3087.420256 -580.000000
   vertex 1874.183537 3087.420256 -400.000000
  endloop
 endfacet
 facet normal 0.997859 0.065403 -0.000000
  outer loop
   vertex 1875.039051 3074.367637 -580.000000
   vertex 1874.183537 3087.420256 -400.000000
   vertex 1875.039051 3074.367637 -400.000000
  endloop
 endfacet
 facet normal 0.980785 0.195090 0.000000
  outer loop
   vertex 1874.183537 3087.420256 -580.000000
   vertex 1871.631634 3100.249541 -580.000000
   vertex 1871.631634 3100.249541 -400.000000
  endloop
 endfacet
 facet normal 0.980785 0.195090 -0.000000
  outer loop
   vertex 1874.183537 3087.420256 -580.000000
   vertex 1871.631634 3100.249541 -400.000000
   vertex 1874.183537 3087.420256 -400.000000
  endloop
 endfacet
 facet normal 0.946930 0.321439 0.000000
  outer loop
   vertex 1871.631634 3100.249541 -580.000000
   vertex 1867.427005 3112.635980 -580.000000
   vertex 1867.427005 3112.635980 -400.000000
  endloop
 endfacet
 facet normal 0.946930 0.321439 -0.000000
  outer loop
   vertex 1871.631634 3100.249541 -580.000000
   vertex 1867.427005 3112.635980 -400.000000
   vertex 1871.631634 3100.249541 -400.000000
  endloop
 endfacet
 facet normal 0.896873 0.442289 0.000000
  outer loop
   vertex 1867.427005 3112.635980 -580.000000
   vertex 1861.641592 3124.367637 -580.000000
   vertex 1861.641592 3124.367637 -400.000000
  endloop
 endfacet
 facet normal 0.896873 0.442289 -0.000000
  outer loop
   vertex 1867.427005 3112.635980 -580.000000
   vertex 1861.641592 3124.367637 -400.000000
   vertex 1867.427005 3112.635980 -400.000000
  endloop
 endfacet
 facet normal 0.831470 0.555570 0.000000
  outer loop
   vertex 1861.641592 3124.367637 -580.000000
   vertex 1854.374385 3135.243780 -580.000000
   vertex 1854.374385 3135.243780 -400.000000
  endloop
 endfacet
 facet normal 0.831470 0.555570 -0.000000
  outer loop
   vertex 1861.641592 3124.367637 -580.000000
   vertex 1854.374385 3135.243780 -400.000000
   vertex 1861.641592 3124.367637 -400.000000
  endloop
 endfacet
 facet normal 0.751840 0.659346 0.000000
  outer loop
   vertex 1854.374385 3135.243780 -580.000000
   vertex 1845.749729 3145.078315 -580.000000
   vertex 1845.749729 3145.078315 -400.000000
  endloop
 endfacet
 facet normal 0.751840 0.659346 -0.000000
  outer loop
   vertex 1854.374385 3135.243780 -580.000000
   vertex 1845.749729 3145.078315 -400.000000
   vertex 1854.374385 3135.243780 -400.000000
  endloop
 endfacet
 facet normal 0.659346 0.751840 0.000000
  outer loop
   vertex 1845.749729 3145.078315 -580.000000
   vertex 1835.915194 3153.702971 -580.000000
   vertex 1835.915194 3153.702971 -400.000000
  endloop
 endfacet
 facet normal 0.659346 0.751840 -0.000000
  outer loop
   vertex 1845.749729 3145.078315 -580.000000
   vertex 1835.915194 3153.702971 -400.000000
   vertex 1845.749729 3145.078315 -400.000000
  endloop
 endfacet
 facet normal 0.555570 0.831470 0.000000
  outer loop
   vertex 1835.915194 3153.702971 -580.000000
   vertex 1825.039051 3160.970177 -580.000000
   vertex 1825.039051 3160.970177 -400.000000
  endloop
 endfacet
 facet normal 0.555570 0.831470 -0.000000
  outer loop
   vertex 1835.915194 3153.702971 -580.000000
   vertex 1825.039051 3160.970177 -400.000000
   vertex 1835.915194 3153.702971 -400.000000
  endloop
 endfacet
 facet normal 0.442289 0.896873 0.000000
  outer loop
   vertex 1825.039051 3160.970177 -580.000000
   vertex 1813.307395 3166.755590 -580.000000
   vertex 1813.307395 3166.755590 -400.000000
  endloop
 endfacet
 facet normal 0.442289 0.896873 -0.000000
  outer loop
   vertex 1825.039051 3160.970177 -580.000000
   vertex 1813.307395 3166.755590 -400.000000
   vertex 1825.039051 3160.970177 -400.000000
  endloop
 endfacet
 facet normal 0.321439 0.946930 0.000000
  outer loop
   vertex 1813.307395 3166.755590 -580.000000
   vertex 1800.920956 3170.960219 -580.000000
   vertex 1800.920956 3170.960219 -400.000000
  endloop
 endfacet
 facet normal 0.321439 0.946930 -0.000000
  outer loop
   vertex 1813.307395 3166.755590 -580.000000
   vertex 1800.920956 3170.960219 -400.000000
   vertex 1813.307395 3166.755590 -400.000000
  endloop
 endfacet
 facet normal 0.195090 0.980785 0.000000
  outer loop
   vertex 1800.920956 3170.960219 -580.000000
   vertex 1788.091671 3173.512123 -580.000000
   vertex 1788.091671 3173.512123 -400.000000
  endloop
 endfacet
 facet normal 0.195090 0.980785 -0.000000
  outer loop
   vertex 1800.920956 3170.960219 -580.000000
   vertex 1788.091671 3173.512123 -400.000000
   vertex 1800.920956 3170.960219 -400.000000
  endloop
 endfacet
 facet normal 0.065403 0.997859 0.000000
  outer loop
   vertex 1788.091671 3173.512123 -580.000000
   vertex 1775.039051 3174.367637 -580.000000
   vertex 1775.039051 3174.367637 -400.000000
  endloop
 endfacet
 facet normal 0.065403 0.997859 -0.000000
  outer loop
   vertex 1788.091671 3173.512123 -580.000000
   vertex 1775.039051 3174.367637 -400.000000
   vertex 1788.091671 3173.512123 -400.000000
  endloop
 endfacet
 facet normal -0.065403 0.997859 0.000000
  outer loop
   vertex 1775.039051 3174.367637 -580.000000
   vertex 1761.986432 3173.512123 -580.000000
   vertex 1761.986432 3173.512123 -400.000000
  endloop
 endfacet
 facet normal -0.065403 0.997859 0.000000
  outer loop
   vertex 1775.039051 3174.367637 -580.000000
   vertex 1761.986432 3173.512123 -400.000000
   vertex 1775.039051 3174.367637 -400.000000
  endloop
 endfacet
 facet normal -0.195090 0.980785 0.000000
  outer loop
   vertex 1761.986432 3173.512123 -580.000000
   vertex 1749.157147 3170.960219 -580.000000
   vertex 1749.157147 3170.960219 -400.000000
  endloop
 endfacet
 facet normal -0.195090 0.980785 0.000000
  outer loop
   vertex 1761.986432 3173.512123 -580.000000
   vertex 1749.157147 3170.960219 -400.000000
   vertex 1761.986432 3173.512123 -400.000000
  endloop
 endfacet
 facet normal -0.321439 0.946930 0.000000
  outer loop
   vertex 1749.157147 3170.960219 -580.000000
   vertex 1736.770708 3166.755590 -580.000000
   vertex 1736.770708 3166.755590 -400.000000
  endloop
 endfacet
 facet normal -0.321439 0.946930 0.000000
  outer loop
   vertex 1749.157147 3170.960219 -580.000000
   vertex 1736.770708 3166.755590 -400.000000
   vertex 1749.157147 3170.960219 -400.000000
  endloop
 endfacet
 facet normal -0.442289 0.896873 0.000000
  outer loop
   vertex 1736.770708 3166.755590 -580.000000
   vertex 1725.039051 3160.970177 -580.000000
   vertex 1725.039051 3160.970177 -400.000000
  endloop
 endfacet
 facet normal -0.442289 0.896873 0.000000
  outer loop
   vertex 1736.770708 3166.755590 -580.000000
   vertex 1725.039051 3160.970177 -400.000000
   vertex 1736.770708 3166.755590 -400.000000
  endloop
 endfacet
 facet normal -0.555570 0.831470 0.000000
  outer loop
   vertex 1725.039051 3160.970177 -580.000000
   vertex 1714.162908 3153.702971 -580.000000
   vertex 1714.162908 3153.702971 -400.000000
  endloop
 endfacet
 facet normal -0.555570 0.831470 0.000000
  outer loop
   vertex 1725.039051 3160.970177 -580.000000
   vertex 1714.162908 3153.702971 -400.000000
   vertex 1725.039051 3160.970177 -400.000000
  endloop
 endfacet
 facet normal -0.659346 0.751840 0.000000
  outer loop
   vertex 1714.162908 3153.702971 -580.000000
   vertex 1704.328373 3145.078315 -580.000000
   vertex 1704.328373 3145.078315 -400.000000
  endloop
 endfacet
 facet normal -0.659346 0.751840 0.000000
  outer loop
   vertex 1714.162908 3153.702971 -580.000000
   vertex 1704.328373 3145.078315 -400.000000
   vertex 1714.162908 3153.702971 -400.000000
  endloop
 endfacet
 facet normal -0.751840 0.659346 0.000000
  outer loop
   vertex 1704.328373 3145.078315 -580.000000
   vertex 1695.703717 3135.243780 -580.000000
   vertex 1695.703717 3135.243780 -400.000000
  endloop
 endfacet
 facet normal -0.751840 0.659346 0.000000
  outer loop
   vertex 1704.328373 3145.078315 -580.000000
   vertex 1695.703717 3135.243780 -400.000000
   vertex 1704.328373 3145.078315 -400.000000
  endloop
 endfacet
 facet normal -0.831470 0.555570 0.000000
  outer loop
   vertex 1695.703717 3135.243780 -580.000000
   vertex 1688.436511 3124.367637 -580.000000
   vertex 1688.436511 3124.367637 -400.000000
  endloop
 endfacet
 facet normal -0.831470 0.555570 0.000000
  outer loop
   vertex 1695.703717 3135.243780 -580.000000
   vertex 1688.436511 3124.367637 -400.000000
   vertex 1695.703717 3135.243780 -400.000000
  endloop
 endfacet
 facet normal -0.896873 0.442289 0.000000
  outer loop
   vertex 1688.436511 3124.367637 -580.000000
   vertex 1682.651098 3112.635980 -580.000000
   vertex 1682.651098 3112.635980 -400.000000
  endloop
 endfacet
 facet normal -0.896873 0.442289 0.000000
  outer loop
   vertex 1688.436511 3124.367637 -580.000000
   vertex 1682.651098 3112.635980 -400.000000
   vertex 1688.436511 3124.367637 -400.000000
  endloop
 endfacet
 facet normal -0.946930 0.321439 0.000000
  outer loop
   vertex 1682.651098 3112.635980 -580.000000
   vertex 1678.446469 3100.249541 -580.000000
   vertex 1678.446469 3100.249541 -400.000000
  endloop
 endfacet
 facet normal -0.946930 0.321439 0.000000
  outer loop
   vertex 1682.651098 3112.635980 -580.000000
   vertex 1678.446469 3100.249541 -400.000000
   vertex 1682.651098 3112.635980 -400.000000
  endloop
 endfacet
 facet normal -0.980785 0.195090 0.000000
  outer loop
   vertex 1678.446469 3100.249541 -580.000000
   vertex 1675.894565 3087.420256 -580.000000
   vertex 1675.894565 3087.420256 -400.000000
  endloop
 endfacet
 facet normal -0.980785 0.195090 0.000000
  outer loop
   vertex 1678.446469 3100.249541 -580.000000
   vertex 1675.894565 3087.420256 -400.000000
   vertex 1678.446469 3100.249541 -400.000000
  endloop
 endfacet
 facet normal -0.997859 0.065403 0.000000
  outer loop
   vertex 1675.894565 3087.420256 -580.000000
   vertex 1675.039051 3074.367637 -580.000000
   vertex 1675.039051 3074.367637 -400.000000
  endloop
 endfacet
 facet normal -0.997859 0.065403 0.000000
  outer loop
   vertex 1675.894565 3087.420256 -580.000000
   vertex 1675.039051 3074.367637 -400.000000
   vertex 1675.894565 3087.420256 -400.000000
  endloop
 endfacet
 facet normal -0.997859 -0.065403 0.000000
  outer loop
   vertex 1675.039051 3074.367637 -580.000000
   vertex 1675.894565 3061.315018 -580.000000
   vertex 1675.894565 3061.315018 -400.000000
  endloop
 endfacet
 facet normal -0.997859 -0.065403 0.000000
  outer loop
   vertex 1675.039051 3074.367637 -580.000000
   vertex 1675.894565 3061.315018 -400.000000
   vertex 1675.039051 3074.367637 -400.000000
  endloop
 endfacet
 facet normal -0.980785 -0.195090 0.000000
  outer loop
   vertex 1675.894565 3061.315018 -580.000000
   vertex 1678.446469 3048.485732 -580.000000
   vertex 1678.446469 3048.485732 -400.000000
  endloop
 endfacet
 facet normal -0.980785 -0.195090 0.000000
  outer loop
   vertex 1675.894565 3061.315018 -580.000000
   vertex 1678.446469 3048.485732 -400.000000
   vertex 1675.894565 3061.315018 -400.000000
  endloop
 endfacet
 facet normal -0.946930 -0.321439 0.000000
  outer loop
   vertex 1678.446469 3048.485732 -580.000000
   vertex 1682.651098 3036.099294 -580.000000
   vertex 1682.651098 3036.099294 -400.000000
  endloop
 endfacet
 facet normal -0.946930 -0.321439 0.000000
  outer loop
   vertex 1678.446469 3048.485732 -580.000000
   vertex 1682.651098 3036.099294 -400.000000
   vertex 1678.446469 3048.485732 -400.000000
  endloop
 endfacet
 facet normal -0.896873 -0.442289 0.000000
  outer loop
   vertex 1682.651098 3036.099294 -580.000000
   vertex 1688.436511 3024.367637 -580.000000
   vertex 1688.436511 3024.367637 -400.000000
  endloop
 endfacet
 facet normal -0.896873 -0.442289 0.000000
  outer loop
   vertex 1682.651098 3036.099294 -580.000000
   vertex 1688.436511 3024.367637 -400.000000
   vertex 1682.651098 3036.099294 -400.000000
  endloop
 endfacet
 facet normal -0.831470 -0.555570 0.000000
  outer loop
   vertex 1688.436511 3024.367637 -580.000000
   vertex 1695.703717 3013.491494 -580.000000
   vertex 1695.703717 3013.491494 -400.000000
  endloop
 endfacet
 facet normal -0.831470 -0.555570 0.000000
  outer loop
   vertex 1688.436511 3024.367637 -580.000000
   vertex 1695.703717 3013.491494 -400.000000
   vertex 1688.436511 3024.367637 -400.000000
  endloop
 endfacet
 facet normal -0.751840 -0.659346 0.000000
  outer loop
   vertex 1695.703717 3013.491494 -580.000000
   vertex 1704.328373 3003.656959 -580.000000
   vertex 1704.328373 3003.656959 -400.000000
  endloop
 endfacet
 facet normal -0.751840 -0.659346 0.000000
  outer loop
   vertex 1695.703717 3013.491494 -580.000000
   vertex 1704.328373 3003.656959 -400.000000
   vertex 1695.703717 3013.491494 -400.000000
  endloop
 endfacet
 facet normal -0.659346 -0.751840 0.000000
  outer loop
   vertex 1704.328373 3003.656959 -580.000000
   vertex 1714.162908 2995.032303 -580.000000
   vertex 1714.162908 2995.032303 -400.000000
  endloop
 endfacet
 facet normal -0.659346 -0.751840 0.000000
  outer loop
   vertex 1704.328373 3003.656959 -580.000000
   vertex 1714.162908 2995.032303 -400.000000
   vertex 1704.328373 3003.656959 -400.000000
  endloop
 endfacet
 facet normal -0.555570 -0.831470 0.000000
  outer loop
   vertex 1714.162908 2995.032303 -580.000000
   vertex 1725.039051 2987.765096 -580.000000
   vertex 1725.039051 2987.765096 -400.000000
  endloop
 endfacet
 facet normal -0.555570 -0.831470 0.000000
  outer loop
   vertex 1714.162908 2995.032303 -580.000000
   vertex 1725.039051 2987.765096 -400.000000
   vertex 1714.162908 2995.032303 -400.000000
  endloop
 endfacet
 facet normal -0.442289 -0.896873 0.000000
  outer loop
   vertex 1725.039051 2987.765096 -580.000000
   vertex 1736.770708 2981.979684 -580.000000
   vertex 1736.770708 2981.979684 -400.000000
  endloop
 endfacet
 facet normal -0.442289 -0.896873 0.000000
  outer loop
   vertex 1725.039051 2987.765096 -580.000000
   vertex 1736.770708 2981.979684 -400.000000
   vertex 1725.039051 2987.765096 -400.000000
  endloop
 endfacet
 facet normal -0.321439 -0.946930 0.000000
  outer loop
   vertex 1736.770708 2981.979684 -580.000000
   vertex 1749.157147 2977.775054 -580.000000
   vertex 1749.157147 2977.775054 -400.000000
  endloop
 endfacet
 facet normal -0.321439 -0.946930 0.000000
  outer loop
   vertex 1736.770708 2981.979684 -580.000000
   vertex 1749.157147 2977.775054 -400.000000
   vertex 1736.770708 2981.979684 -400.000000
  endloop
 endfacet
 facet normal -0.195090 -0.980785 0.000000
  outer loop
   vertex 1749.157147 2977.775054 -580.000000
   vertex 1761.986432 2975.223151 -580.000000
   vertex 1761.986432 2975.223151 -400.000000
  endloop
 endfacet
 facet normal -0.195090 -0.980785 0.000000
  outer loop
   vertex 1749.157147 2977.775054 -580.000000
   vertex 1761.986432 2975.223151 -400.000000
   vertex 1749.157147 2977.775054 -400.000000
  endloop
 endfacet
 facet normal -0.065403 -0.997859 0.000000
  outer loop
   vertex 1761.986432 2975.223151 -580.000000
   vertex 1775.039051 2974.367637 -580.000000
   vertex 1775.039051 2974.367637 -400.000000
  endloop
 endfacet
 facet normal -0.065403 -0.997859 0.000000
  outer loop
   vertex 1761.986432 2975.223151 -580.000000
   vertex 1775.039051 2974.367637 -400.000000
   vertex 1761.986432 2975.223151 -400.000000
  endloop
 endfacet
 facet normal -0.065403 0.997859 0.000000
  outer loop
   vertex 1782.217992 3019.838169 -400.000000
   vertex 1782.217992 3019.838169 -580.000000
   vertex 1775.039051 3019.367637 -580.000000
  endloop
 endfacet
 facet normal -0.065403 0.997859 0.000000
  outer loop
   vertex 1775.039051 3019.367637 -400.000000
   vertex 1782.217992 3019.838169 -400.000000
   vertex 1775.039051 3019.367637 -580.000000
  endloop
 endfacet
 facet normal -0.195090 0.980785 0.000000
  outer loop
   vertex 1789.274099 3021.241716 -400.000000
   vertex 1789.274099 3021.241716 -580.000000
   vertex 1782.217992 3019.838169 -580.000000
  endloop
 endfacet
 facet normal -0.195090 0.980785 0.000000
  outer loop
   vertex 1782.217992 3019.838169 -400.000000
   vertex 1789.274099 3021.241716 -400.000000
   vertex 1782.217992 3019.838169 -580.000000
  endloop
 endfacet
 facet normal -0.321439 0.946930 0.000000
  outer loop
   vertex 1796.086640 3023.554263 -400.000000
   vertex 1796.086640 3023.554263 -580.000000
   vertex 1789.274099 3021.241716 -580.000000
  endloop
 endfacet
 facet normal -0.321439 0.946930 0.000000
  outer loop
   vertex 1789.274099 3021.241716 -400.000000
   vertex 1796.086640 3023.554263 -400.000000
   vertex 1789.274099 3021.241716 -580.000000
  endloop
 endfacet
 facet normal -0.442289 0.896873 0.000000
  outer loop
   vertex 1802.539051 3026.736240 -400.000000
   vertex 1802.539051 3026.736240 -580.000000
   vertex 1796.086640 3023.554263 -580.000000
  endloop
 endfacet
 facet normal -0.442289 0.896873 0.000000
  outer loop
   vertex 1796.086640 3023.554263 -400.000000
   vertex 1802.539051 3026.736240 -400.000000
   vertex 1796.086640 3023.554263 -580.000000
  endloop
 endfacet
 facet normal -0.555570 0.831470 0.000000
  outer loop
   vertex 1808.520930 3030.733203 -400.000000
   vertex 1808.520930 3030.733203 -580.000000
   vertex 1802.539051 3026.736240 -580.000000
  endloop
 endfacet
 facet normal -0.555570 0.831470 0.000000
  outer loop
   vertex 1802.539051 3026.736240 -400.000000
   vertex 1808.520930 3030.733203 -400.000000
   vertex 1802.539051 3026.736240 -580.000000
  endloop
 endfacet
 facet normal -0.659346 0.751840 0.000000
  outer loop
   vertex 1813.929924 3035.476764 -400.000000
   vertex 1813.929924 3035.476764 -580.000000
   vertex 1808.520930 3030.733203 -580.000000
  endloop
 endfacet
 facet normal -0.659346 0.751840 0.000000
  outer loop
   vertex 1808.520930 3030.733203 -400.000000
   vertex 1813.929924 3035.476764 -400.000000
   vertex 1808.520930 3030.733203 -580.000000
  endloop
 endfacet
 facet normal -0.751840 0.659346 0.000000
  outer loop
   vertex 1818.673485 3040.885758 -400.000000
   vertex 1818.673485 3040.885758 -580.000000
   vertex 1813.929924 3035.476764 -580.000000
  endloop
 endfacet
 facet normal -0.751840 0.659346 0.000000
  outer loop
   vertex 1813.929924 3035.476764 -400.000000
   vertex 1818.673485 3040.885758 -400.000000
   vertex 1813.929924 3035.476764 -580.000000
  endloop
 endfacet
 facet normal -0.831470 0.555570 0.000000
  outer loop
   vertex 1822.670448 3046.867637 -400.000000
   vertex 1822.670448 3046.867637 -580.000000
   vertex 1818.673485 3040.885758 -580.000000
  endloop
 endfacet
 facet normal -0.831470 0.555570 0.000000
  outer loop
   vertex 1818.673485 3040.885758 -400.000000
   vertex 1822.670448 3046.867637 -400.000000
   vertex 1818.673485 3040.885758 -580.000000
  endloop
 endfacet
 facet normal -0.896873 0.442289 0.000000
  outer loop
   vertex 1825.852426 3053.320048 -400.000000
   vertex 1825.852426 3053.320048 -580.000000
   vertex 1822.670448 3046.867637 -580.000000
  endloop
 endfacet
 facet normal -0.896873 0.442289 0.000000
  outer loop
   vertex 1822.670448 3046.867637 -400.000000
   vertex 1825.852426 3053.320048 -400.000000
   vertex 1822.670448 3046.867637 -580.000000
  endloop
 endfacet
 facet normal -0.946930 0.321439 0.000000
  outer loop
   vertex 1828.164972 3060.132589 -400.000000
   vertex 1828.164972 3060.132589 -580.000000
   vertex 1825.852426 3053.320048 -580.000000
  endloop
 endfacet
 facet normal -0.946930 0.321439 0.000000
  outer loop
   vertex 1825.852426 3053.320048 -400.000000
   vertex 1828.164972 3060.132589 -400.000000
   vertex 1825.852426 3053.320048 -580.000000
  endloop
 endfacet
 facet normal -0.980785 0.195090 0.000000
  outer loop
   vertex 1829.568519 3067.188696 -400.000000
   vertex 1829.568519 3067.188696 -580.000000
   vertex 1828.164972 3060.132589 -580.000000
  endloop
 endfacet
 facet normal -0.980785 0.195090 0.000000
  outer loop
   vertex 1828.164972 3060.132589 -400.000000
   vertex 1829.568519 3067.188696 -400.000000
   vertex 1828.164972 3060.132589 -580.000000
  endloop
 endfacet
 facet normal -0.997859 0.065403 0.000000
  outer loop
   vertex 1830.039051 3074.367637 -400.000000
   vertex 1830.039051 3074.367637 -580.000000
   vertex 1829.568519 3067.188696 -580.000000
  endloop
 endfacet
 facet normal -0.997859 0.065403 0.000000
  outer loop
   vertex 1829.568519 3067.188696 -400.000000
   vertex 1830.039051 3074.367637 -400.000000
   vertex 1829.568519 3067.188696 -580.000000
  endloop
 endfacet
 facet normal -0.997859 -0.065403 -0.000000
  outer loop
   vertex 1829.568519 3081.546577 -400.000000
   vertex 1829.568519 3081.546577 -580.000000
   vertex 1830.039051 3074.367637 -580.000000
  endloop
 endfacet
 facet normal -0.997859 -0.065403 -0.000000
  outer loop
   vertex 1830.039051 3074.367637 -400.000000
   vertex 1829.568519 3081.546577 -400.000000
   vertex 1830.039051 3074.367637 -580.000000
  endloop
 endfacet
 facet normal -0.980785 -0.195090 -0.000000
  outer loop
   vertex 1828.164972 3088.602684 -400.000000
   vertex 1828.164972 3088.602684 -580.000000
   vertex 1829.568519 3081.546577 -580.000000
  endloop
 endfacet
 facet normal -0.980785 -0.195090 -0.000000
  outer loop
   vertex 1829.568519 3081.546577 -400.000000
   vertex 1828.164972 3088.602684 -400.000000
   vertex 1829.568519 3081.546577 -580.000000
  endloop
 endfacet
 facet normal -0.946930 -0.321439 -0.000000
  outer loop
   vertex 1825.852426 3095.415226 -400.000000
   vertex 1825.852426 3095.415226 -580.000000
   vertex 1828.164972 3088.602684 -580.000000
  endloop
 endfacet
 facet normal -0.946930 -0.321439 -0.000000
  outer loop
   vertex 1828.164972 3088.602684 -400.000000
   vertex 1825.852426 3095.415226 -400.000000
   vertex 1828.164972 3088.602684 -580.000000
  endloop
 endfacet
 facet normal -0.896873 -0.442289 -0.000000
  outer loop
   vertex 1822.670448 3101.867637 -400.000000
   vertex 1822.670448 3101.867637 -580.000000
   vertex 1825.852426 3095.415226 -580.000000
  endloop
 endfacet
 facet normal -0.896873 -0.442289 -0.000000
  outer loop
   vertex 1825.852426 3095.415226 -400.000000
   vertex 1822.670448 3101.867637 -400.000000
   vertex 1825.852426 3095.415226 -580.000000
  endloop
 endfacet
 facet normal -0.831470 -0.555570 -0.000000
  outer loop
   vertex 1818.673485 3107.849515 -400.000000
   vertex 1818.673485 3107.849515 -580.000000
   vertex 1822.670448 3101.867637 -580.000000
  endloop
 endfacet
 facet normal -0.831470 -0.555570 -0.000000
  outer loop
   vertex 1822.670448 3101.867637 -400.000000
   vertex 1818.673485 3107.849515 -400.000000
   vertex 1822.670448 3101.867637 -580.000000
  endloop
 endfacet
 facet normal -0.751840 -0.659346 -0.000000
  outer loop
   vertex 1813.929924 3113.258510 -400.000000
   vertex 1813.929924 3113.258510 -580.000000
   vertex 1818.673485 3107.849515 -580.000000
  endloop
 endfacet
 facet normal -0.751840 -0.659346 -0.000000
  outer loop
   vertex 1818.673485 3107.849515 -400.000000
   vertex 1813.929924 3113.258510 -400.000000
   vertex 1818.673485 3107.849515 -580.000000
  endloop
 endfacet
 facet normal -0.659346 -0.751840 -0.000000
  outer loop
   vertex 1808.520930 3118.002071 -400.000000
   vertex 1808.520930 3118.002071 -580.000000
   vertex 1813.929924 3113.258510 -580.000000
  endloop
 endfacet
 facet normal -0.659346 -0.751840 -0.000000
  outer loop
   vertex 1813.929924 3113.258510 -400.000000
   vertex 1808.520930 3118.002071 -400.000000
   vertex 1813.929924 3113.258510 -580.000000
  endloop
 endfacet
 facet normal -0.555570 -0.831470 -0.000000
  outer loop
   vertex 1802.539051 3121.999034 -400.000000
   vertex 1802.539051 3121.999034 -580.000000
   vertex 1808.520930 3118.002071 -580.000000
  endloop
 endfacet
 facet normal -0.555570 -0.831470 -0.000000
  outer loop
   vertex 1808.520930 3118.002071 -400.000000
   vertex 1802.539051 3121.999034 -400.000000
   vertex 1808.520930 3118.002071 -580.000000
  endloop
 endfacet
 facet normal -0.442289 -0.896873 -0.000000
  outer loop
   vertex 1796.086640 3125.181011 -400.000000
   vertex 1796.086640 3125.181011 -580.000000
   vertex 1802.539051 3121.999034 -580.000000
  endloop
 endfacet
 facet normal -0.442289 -0.896873 -0.000000
  outer loop
   vertex 1802.539051 3121.999034 -400.000000
   vertex 1796.086640 3125.181011 -400.000000
   vertex 1802.539051 3121.999034 -580.000000
  endloop
 endfacet
 facet normal -0.321439 -0.946930 -0.000000
  outer loop
   vertex 1789.274099 3127.493557 -400.000000
   vertex 1789.274099 3127.493557 -580.000000
   vertex 1796.086640 3125.181011 -580.000000
  endloop
 endfacet
 facet normal -0.321439 -0.946930 -0.000000
  outer loop
   vertex 1796.086640 3125.181011 -400.000000
   vertex 1789.274099 3127.493557 -400.000000
   vertex 1796.086640 3125.181011 -580.000000
  endloop
 endfacet
 facet normal -0.195090 -0.980785 -0.000000
  outer loop
   vertex 1782.217992 3128.897104 -400.000000
   vertex 1782.217992 3128.897104 -580.000000
   vertex 1789.274099 3127.493557 -580.000000
  endloop
 endfacet
 facet normal -0.195090 -0.980785 -0.000000
  outer loop
   vertex 1789.274099 3127.493557 -400.000000
   vertex 1782.217992 3128.897104 -400.000000
   vertex 1789.274099 3127.493557 -580.000000
  endloop
 endfacet
 facet normal -0.065403 -0.997859 -0.000000
  outer loop
   vertex 1775.039051 3129.367637 -400.000000
   vertex 1775.039051 3129.367637 -580.000000
   vertex 1782.217992 3128.897104 -580.000000
  endloop
 endfacet
 facet normal -0.065403 -0.997859 -0.000000
  outer loop
   vertex 1782.217992 3128.897104 -400.000000
   vertex 1775.039051 3129.367637 -400.000000
   vertex 1782.217992 3128.897104 -580.000000
  endloop
 endfacet
 facet normal 0.065403 -0.997859 0.000000
  outer loop
   vertex 1767.860111 3128.897104 -400.000000
   vertex 1767.860111 3128.897104 -580.000000
   vertex 1775.039051 3129.367637 -580.000000
  endloop
 endfacet
 facet normal 0.065403 -0.997859 0.000000
  outer loop
   vertex 1775.039051 3129.367637 -400.000000
   vertex 1767.860111 3128.897104 -400.000000
   vertex 1775.039051 3129.367637 -580.000000
  endloop
 endfacet
 facet normal 0.195090 -0.980785 0.000000
  outer loop
   vertex 1760.804004 3127.493557 -400.000000
   vertex 1760.804004 3127.493557 -580.000000
   vertex 1767.860111 3128.897104 -580.000000
  endloop
 endfacet
 facet normal 0.195090 -0.980785 0.000000
  outer loop
   vertex 1767.860111 3128.897104 -400.000000
   vertex 1760.804004 3127.493557 -400.000000
   vertex 1767.860111 3128.897104 -580.000000
  endloop
 endfacet
 facet normal 0.321439 -0.946930 0.000000
  outer loop
   vertex 1753.991463 3125.181011 -400.000000
   vertex 1753.991463 3125.181011 -580.000000
   vertex 1760.804004 3127.493557 -580.000000
  endloop
 endfacet
 facet normal 0.321439 -0.946930 0.000000
  outer loop
   vertex 1760.804004 3127.493557 -400.000000
   vertex 1753.991463 3125.181011 -400.000000
   vertex 1760.804004 3127.493557 -580.000000
  endloop
 endfacet
 facet normal 0.442289 -0.896873 0.000000
  outer loop
   vertex 1747.539051 3121.999034 -400.000000
   vertex 1747.539051 3121.999034 -580.000000
   vertex 1753.991463 3125.181011 -580.000000
  endloop
 endfacet
 facet normal 0.442289 -0.896873 0.000000
  outer loop
   vertex 1753.991463 3125.181011 -400.000000
   vertex 1747.539051 3121.999034 -400.000000
   vertex 1753.991463 3125.181011 -580.000000
  endloop
 endfacet
 facet normal 0.555570 -0.831470 0.000000
  outer loop
   vertex 1741.557173 3118.002071 -400.000000
   vertex 1741.557173 3118.002071 -580.000000
   vertex 1747.539051 3121.999034 -580.000000
  endloop
 endfacet
 facet normal 0.555570 -0.831470 0.000000
  outer loop
   vertex 1747.539051 3121.999034 -400.000000
   vertex 1741.557173 3118.002071 -400.000000
   vertex 1747.539051 3121.999034 -580.000000
  endloop
 endfacet
 facet normal 0.659346 -0.751840 0.000000
  outer loop
   vertex 1736.148178 3113.258510 -400.000000
   vertex 1736.148178 3113.258510 -580.000000
   vertex 1741.557173 3118.002071 -580.000000
  endloop
 endfacet
 facet normal 0.659346 -0.751840 0.000000
  outer loop
   vertex 1741.557173 3118.002071 -400.000000
   vertex 1736.148178 3113.258510 -400.000000
   vertex 1741.557173 3118.002071 -580.000000
  endloop
 endfacet
 facet normal 0.751840 -0.659346 0.000000
  outer loop
   vertex 1731.404618 3107.849515 -400.000000
   vertex 1731.404618 3107.849515 -580.000000
   vertex 1736.148178 3113.258510 -580.000000
  endloop
 endfacet
 facet normal 0.751840 -0.659346 0.000000
  outer loop
   vertex 1736.148178 3113.258510 -400.000000
   vertex 1731.404618 3107.849515 -400.000000
   vertex 1736.148178 3113.258510 -580.000000
  endloop
 endfacet
 facet normal 0.831470 -0.555570 0.000000
  outer loop
   vertex 1727.407654 3101.867637 -400.000000
   vertex 1727.407654 3101.867637 -580.000000
   vertex 1731.404618 3107.849515 -580.000000
  endloop
 endfacet
 facet normal 0.831470 -0.555570 0.000000
  outer loop
   vertex 1731.404618 3107.849515 -400.000000
   vertex 1727.407654 3101.867637 -400.000000
   vertex 1731.404618 3107.849515 -580.000000
  endloop
 endfacet
 facet normal 0.896873 -0.442289 0.000000
  outer loop
   vertex 1724.225677 3095.415226 -400.000000
   vertex 1724.225677 3095.415226 -580.000000
   vertex 1727.407654 3101.867637 -580.000000
  endloop
 endfacet
 facet normal 0.896873 -0.442289 0.000000
  outer loop
   vertex 1727.407654 3101.867637 -400.000000
   vertex 1724.225677 3095.415226 -400.000000
   vertex 1727.407654 3101.867637 -580.000000
  endloop
 endfacet
 facet normal 0.946930 -0.321439 0.000000
  outer loop
   vertex 1721.913131 3088.602684 -400.000000
   vertex 1721.913131 3088.602684 -580.000000
   vertex 1724.225677 3095.415226 -580.000000
  endloop
 endfacet
 facet normal 0.946930 -0.321439 0.000000
  outer loop
   vertex 1724.225677 3095.415226 -400.000000
   vertex 1721.913131 3088.602684 -400.000000
   vertex 1724.225677 3095.415226 -580.000000
  endloop
 endfacet
 facet normal 0.980785 -0.195090 0.000000
  outer loop
   vertex 1720.509584 3081.546577 -400.000000
   vertex 1720.509584 3081.546577 -580.000000
   vertex 1721.913131 3088.602684 -580.000000
  endloop
 endfacet
 facet normal 0.980785 -0.195090 0.000000
  outer loop
   vertex 1721.913131 3088.602684 -400.000000
   vertex 1720.509584 3081.546577 -400.000000
   vertex 1721.913131 3088.602684 -580.000000
  endloop
 endfacet
 facet normal 0.997859 -0.065403 0.000000
  outer loop
   vertex 1720.039051 3074.367637 -400.000000
   vertex 1720.039051 3074.367637 -580.000000
   vertex 1720.509584 3081.546577 -580.000000
  endloop
 endfacet
 facet normal 0.997859 -0.065403 0.000000
  outer loop
   vertex 1720.509584 3081.546577 -400.000000
   vertex 1720.039051 3074.367637 -400.000000
   vertex 1720.509584 3081.546577 -580.000000
  endloop
 endfacet
 facet normal 0.997859 0.065403 0.000000
  outer loop
   vertex 1720.509584 3067.188696 -400.000000
   vertex 1720.509584 3067.188696 -580.000000
   vertex 1720.039051 3074.367637 -580.000000
  endloop
 endfacet
 facet normal 0.997859 0.065403 0.000000
  outer loop
   vertex 1720.039051 3074.367637 -400.000000
   vertex 1720.509584 3067.188696 -400.000000
   vertex 1720.039051 3074.367637 -580.000000
  endloop
 endfacet
 facet normal 0.980785 0.195090 0.000000
  outer loop
   vertex 1721.913131 3060.132589 -400.000000
   vertex 1721.913131 3060.132589 -580.000000
   vertex 1720.509584 3067.188696 -580.000000
  endloop
 endfacet
 facet normal 0.980785 0.195090 0.000000
  outer loop
   vertex 1720.509584 3067.188696 -400.000000
   vertex 1721.913131 3060.132589 -400.000000
   vertex 1720.509584 3067.188696 -580.000000
  endloop
 endfacet
 facet normal 0.946930 0.321439 0.000000
  outer loop
   vertex 1724.225677 3053.320048 -400.000000
   vertex 1724.225677 3053.320048 -580.000000
   vertex 1721.913131 3060.132589 -580.000000
  endloop
 endfacet
 facet normal 0.946930 0.321439 0.000000
  outer loop
   vertex 1721.913131 3060.132589 -400.000000
   vertex 1724.225677 3053.320048 -400.000000
   vertex 1721.913131 3060.132589 -580.000000
  endloop
 endfacet
 facet normal 0.896873 0.442289 0.000000
  outer loop
   vertex 1727.407654 3046.867637 -400.000000
   vertex 1727.407654 3046.867637 -580.000000
   vertex 1724.225677 3053.320048 -580.000000
  endloop
 endfacet
 facet normal 0.896873 0.442289 0.000000
  outer loop
   vertex 1724.225677 3053.320048 -400.000000
   vertex 1727.407654 3046.867637 -400.000000
   vertex 1724.225677 3053.320048 -580.000000
  endloop
 endfacet
 facet normal 0.831470 0.555570 0.000000
  outer loop
   vertex 1731.404618 3040.885758 -400.000000
   vertex 1731.404618 3040.885758 -580.000000
   vertex 1727.407654 3046.867637 -580.000000
  endloop
 endfacet
 facet normal 0.831470 0.555570 0.000000
  outer loop
   vertex 1727.407654 3046.867637 -400.000000
   vertex 1731.404618 3040.885758 -400.000000
   vertex 1727.407654 3046.867637 -580.000000
  endloop
 endfacet
 facet normal 0.751840 0.659346 0.000000
  outer loop
   vertex 1736.148178 3035.476764 -400.000000
   vertex 1736.148178 3035.476764 -580.000000
   vertex 1731.404618 3040.885758 -580.000000
  endloop
 endfacet
 facet normal 0.751840 0.659346 0.000000
  outer loop
   vertex 1731.404618 3040.885758 -400.000000
   vertex 1736.148178 3035.476764 -400.000000
   vertex 1731.404618 3040.885758 -580.000000
  endloop
 endfacet
 facet normal 0.659346 0.751840 0.000000
  outer loop
   vertex 1741.557173 3030.733203 -400.000000
   vertex 1741.557173 3030.733203 -580.000000
   vertex 1736.148178 3035.476764 -580.000000
  endloop
 endfacet
 facet normal 0.659346 0.751840 0.000000
  outer loop
   vertex 1736.148178 3035.476764 -400.000000
   vertex 1741.557173 3030.733203 -400.000000
   vertex 1736.148178 3035.476764 -580.000000
  endloop
 endfacet
 facet normal 0.555570 0.831470 0.000000
  outer loop
   vertex 1747.539051 3026.736240 -400.000000
   vertex 1747.539051 3026.736240 -580.000000
   vertex 1741.557173 3030.733203 -580.000000
  endloop
 endfacet
 facet normal 0.555570 0.831470 0.000000
  outer loop
   vertex 1741.557173 3030.733203 -400.000000
   vertex 1747.539051 3026.736240 -400.000000
   vertex 1741.557173 3030.733203 -580.000000
  endloop
 endfacet
 facet normal 0.442289 0.896873 0.000000
  outer loop
   vertex 1753.991463 3023.554263 -400.000000
   vertex 1753.991463 3023.554263 -580.000000
   vertex 1747.539051 3026.736240 -580.000000
  endloop
 endfacet
 facet normal 0.442289 0.896873 0.000000
  outer loop
   vertex 1747.539051 3026.736240 -400.000000
   vertex 1753.991463 3023.554263 -400.000000
   vertex 1747.539051 3026.736240 -580.000000
  endloop
 endfacet
 facet normal 0.321439 0.946930 0.000000
  outer loop
   vertex 1760.804004 3021.241716 -400.000000
   vertex 1760.804004 3021.241716 -580.000000
   vertex 1753.991463 3023.554263 -580.000000
  endloop
 endfacet
 facet normal 0.321439 0.946930 0.000000
  outer loop
   vertex 1753.991463 3023.554263 -400.000000
   vertex 1760.804004 3021.241716 -400.000000
   vertex 1753.991463 3023.554263 -580.000000
  endloop
 endfacet
 facet normal 0.195090 0.980785 0.000000
  outer loop
   vertex 1767.860111 3019.838169 -400.000000
   vertex 1767.860111 3019.838169 -580.000000
   vertex 1760.804004 3021.241716 -580.000000
  endloop
 endfacet
 facet normal 0.195090 0.980785 0.000000
  outer loop
   vertex 1760.804004 3021.241716 -400.000000
   vertex 1767.860111 3019.838169 -400.000000
   vertex 1760.804004 3021.241716 -580.000000
  endloop
 endfacet
 facet normal 0.065403 0.997859 0.000000
  outer loop
   vertex 1775.039051 3019.367637 -400.000000
   vertex 1775.039051 3019.367637 -580.000000
   vertex 1767.860111 3019.838169 -580.000000
  endloop
 endfacet
 facet normal 0.065403 0.997859 0.000000
  outer loop
   vertex 1767.860111 3019.838169 -400.000000
   vertex 1775.039051 3019.367637 -400.000000
   vertex 1767.860111 3019.838169 -580.000000
  endloop
 endfacet
endsolid SIC_RP1_feed_4_bellows
