solid SIC_LOX_feed_0_drop
 facet normal 0.059541 0.997859 -0.027064
  outer loop
   vertex -3300.000000 100.000000 -950.000000
   vertex -3288.117333 99.144486 -955.401212
   vertex -3738.117333 99.144486 -1945.401212
  endloop
 endfacet
 facet normal 0.059541 0.997859 -0.027064
  outer loop
   vertex -3300.000000 100.000000 -950.000000
   vertex -3738.117333 99.144486 -1945.401212
   vertex -3750.000000 100.000000 -1940.000000
  endloop
 endfacet
 facet normal 0.177604 0.980785 -0.080729
  outer loop
   vertex -3288.117333 99.144486 -955.401212
   vertex -3276.437982 96.592583 -960.710008
   vertex -3726.437982 96.592583 -1950.710008
  endloop
 endfacet
 facet normal 0.177604 0.980785 -0.080729
  outer loop
   vertex -3288.117333 99.144486 -955.401212
   vertex -3726.437982 96.592583 -1950.710008
   vertex -3738.117333 99.144486 -1945.401212
  endloop
 endfacet
 facet normal 0.292628 0.946930 -0.133013
  outer loop
   vertex -3276.437982 96.592583 -960.710008
   vertex -3265.161783 92.387953 -965.835553
   vertex -3715.161783 92.387953 -1955.835553
  endloop
 endfacet
 facet normal 0.292628 0.946930 -0.133013
  outer loop
   vertex -3276.437982 96.592583 -960.710008
   vertex -3715.161783 92.387953 -1955.835553
   vertex -3726.437982 96.592583 -1950.710008
  endloop
 endfacet
 facet normal 0.402645 0.896873 -0.183020
  outer loop
   vertex -3265.161783 92.387953 -965.835553
   vertex -3254.481676 86.602540 -970.690147
   vertex -3704.481676 86.602540 -1960.690147
  endloop
 endfacet
 facet normal 0.402645 0.896873 -0.183020
  outer loop
   vertex -3265.161783 92.387953 -965.835553
   vertex -3704.481676 86.602540 -1960.690147
   vertex -3715.161783 92.387953 -1955.835553
  endloop
 endfacet
 facet normal 0.505773 0.831470 -0.229897
  outer loop
   vertex -3254.481676 86.602540 -970.690147
   vertex -3244.580400 79.335334 -975.190727
   vertex -3694.580400 79.335334 -1965.190727
  endloop
 endfacet
 facet normal 0.505773 0.831470 -0.229897
  outer loop
   vertex -3254.481676 86.602540 -970.690147
   vertex -3694.580400 79.335334 -1965.190727
   vertex -3704.481676 86.602540 -1960.690147
  endloop
 endfacet
 facet normal 0.600246 0.751840 -0.272839
  outer loop
   vertex -3244.580400 79.335334 -975.190727
   vertex -3235.627369 70.710678 -979.260287
   vertex -3685.627369 70.710678 -1969.260287
  endloop
 endfacet
 facet normal 0.600246 0.751840 -0.272839
  outer loop
   vertex -3244.580400 79.335334 -975.190727
   vertex -3685.627369 70.710678 -1969.260287
   vertex -3694.580400 79.335334 -1965.190727
  endloop
 endfacet
 facet normal 0.684450 0.659346 -0.311114
  outer loop
   vertex -3235.627369 70.710678 -979.260287
   vertex -3227.775771 60.876143 -982.829195
   vertex -3677.775771 60.876143 -1972.829195
  endloop
 endfacet
 facet normal 0.684450 0.659346 -0.311114
  outer loop
   vertex -3235.627369 70.710678 -979.260287
   vertex -3677.775771 60.876143 -1972.829195
   vertex -3685.627369 70.710678 -1969.260287
  endloop
 endfacet
 facet normal 0.756942 0.555570 -0.344065
  outer loop
   vertex -3227.775771 60.876143 -982.829195
   vertex -3221.159950 50.000000 -985.836386
   vertex -3671.159950 50.000000 -1975.836386
  endloop
 endfacet
 facet normal 0.756942 0.555570 -0.344065
  outer loop
   vertex -3227.775771 60.876143 -982.829195
   vertex -3671.159950 50.000000 -1975.836386
   vertex -3677.775771 60.876143 -1972.829195
  endloop
 endfacet
 facet normal 0.816483 0.442289 -0.371129
  outer loop
   vertex -3221.159950 50.000000 -985.836386
   vertex -3215.893104 38.268343 -988.230407
   vertex -3665.893104 38.268343 -1978.230407
  endloop
 endfacet
 facet normal 0.816483 0.442289 -0.371129
  outer loop
   vertex -3221.159950 50.000000 -985.836386
   vertex -3665.893104 38.268343 -1978.230407
   vertex -3671.159950 50.000000 -1975.836386
  endloop
 endfacet
 facet normal 0.862053 0.321439 -0.391842
  outer loop
   vertex -3215.893104 38.268343 -988.230407
   vertex -3212.065351 25.881905 -989.970295
   vertex -3662.065351 25.881905 -1979.970295
  endloop
 endfacet
 facet normal 0.862053 0.321439 -0.391842
  outer loop
   vertex -3215.893104 38.268343 -988.230407
   vertex -3662.065351 25.881905 -1979.970295
   vertex -3665.893104 38.268343 -1978.230407
  endloop
 endfacet
 facet normal 0.892874 0.195090 -0.405852
  outer loop
   vertex -3212.065351 25.881905 -989.970295
   vertex -3209.742183 13.052619 -991.026280
   vertex -3659.742183 13.052619 -1981.026280
  endloop
 endfacet
 facet normal 0.892874 0.195090 -0.405852
  outer loop
   vertex -3212.065351 25.881905 -989.970295
   vertex -3659.742183 13.052619 -1981.026280
   vertex -3662.065351 25.881905 -1979.970295
  endloop
 endfacet
 facet normal 0.908417 0.065403 -0.412917
  outer loop
   vertex -3209.742183 13.052619 -991.026280
   vertex -3208.963352 0.000000 -991.380294
   vertex -3658.963352 0.000000 -1981.380294
  endloop
 endfacet
 facet normal 0.908417 0.065403 -0.412917
  outer loop
   vertex -3209.742183 13.052619 -991.026280
   vertex -3658.963352 0.000000 -1981.380294
   vertex -3659.742183 13.052619 -1981.026280
  endloop
 endfacet
 facet normal 0.908417 -0.065403 -0.412917
  outer loop
   vertex -3208.963352 0.000000 -991.380294
   vertex -3209.742183 -13.052619 -991.026280
   vertex -3659.742183 -13.052619 -1981.026280
  endloop
 endfacet
 facet normal 0.908417 -0.065403 -0.412917
  outer loop
   vertex -3208.963352 0.000000 -991.380294
   vertex -3659.742183 -13.052619 -1981.026280
   vertex -3658.963352 0.000000 -1981.380294
  endloop
 endfacet
 facet normal 0.892874 -0.195090 -0.405852
  outer loop
   vertex -3209.742183 -13.052619 -991.026280
   vertex -3212.065351 -25.881905 -989.970295
   vertex -3662.065351 -25.881905 -1979.970295
  endloop
 endfacet
 facet normal 0.892874 -0.195090 -0.405852
  outer loop
   vertex -3209.742183 -13.052619 -991.026280
   vertex -3662.065351 -25.881905 -1979.970295
   vertex -3659.742183 -13.052619 -1981.026280
  endloop
 endfacet
 facet normal 0.862053 -0.321439 -0.391842
  outer loop
   vertex -3212.065351 -25.881905 -989.970295
   vertex -3215.893104 -38.268343 -988.230407
   vertex -3665.893104 -38.268343 -1978.230407
  endloop
 endfacet
 facet normal 0.862053 -0.321439 -0.391842
  outer loop
   vertex -3212.065351 -25.881905 -989.970295
   vertex -3665.893104 -38.268343 -1978.230407
   vertex -3662.065351 -25.881905 -1979.970295
  endloop
 endfacet
 facet normal 0.816483 -0.442289 -0.371129
  outer loop
   vertex -3215.893104 -38.268343 -988.230407
   vertex -3221.159950 -50.000000 -985.836386
   vertex -3671.159950 -50.000000 -1975.836386
  endloop
 endfacet
 facet normal 0.816483 -0.442289 -0.371129
  outer loop
   vertex -3215.893104 -38.268343 -988.230407
   vertex -3671.159950 -50.000000 -1975.836386
   vertex -3665.893104 -38.268343 -1978.230407
  endloop
 endfacet
 facet normal 0.756942 -0.555570 -0.344065
  outer loop
   vertex -3221.159950 -50.000000 -985.836386
   vertex -3227.775771 -60.876143 -982.829195
   vertex -3677.775771 -60.876143 -1972.829195
  endloop
 endfacet
 facet normal 0.756942 -0.555570 -0.344065
  outer loop
   vertex -3221.159950 -50.000000 -985.836386
   vertex -3677.775771 -60.876143 -1972.829195
   vertex -3671.159950 -50.000000 -1975.836386
  endloop
 endfacet
 facet normal 0.684450 -0.659346 -0.311114
  outer loop
   vertex -3227.775771 -60.876143 -982.829195
   vertex -3235.627369 -70.710678 -979.260287
   vertex -3685.627369 -70.710678 -1969.260287
  endloop
 endfacet
 facet normal 0.684450 -0.659346 -0.311114
  outer loop
   vertex -3227.775771 -60.876143 -982.829195
   vertex -3685.627369 -70.710678 -1969.260287
   vertex -3677.775771 -60.876143 -1972.829195
  endloop
 endfacet
 facet normal 0.600246 -0.751840 -0.272839
  outer loop
   vertex -3235.627369 -70.710678 -979.260287
   vertex -3244.580400 -79.335334 -975.190727
   vertex -3694.580400 -79.335334 -1965.190727
  endloop
 endfacet
 facet normal 0.600246 -0.751840 -0.272839
  outer loop
   vertex -3235.627369 -70.710678 -979.260287
   vertex -3694.580400 -79.335334 -1965.190727
   vertex -3685.627369 -70.710678 -1969.260287
  endloop
 endfacet
 facet normal 0.505773 -0.831470 -0.229897
  outer loop
   vertex -3244.580400 -79.335334 -975.190727
   vertex -3254.481676 -86.602540 -970.690147
   vertex -3704.481676 -86.602540 -1960.690147
  endloop
 endfacet
 facet normal 0.505773 -0.831470 -0.229897
  outer loop
   vertex -3244.580400 -79.335334 -975.190727
   vertex -3704.481676 -86.602540 -1960.690147
   vertex -3694.580400 -79.335334 -1965.190727
  endloop
 endfacet
 facet normal 0.402645 -0.896873 -0.183020
  outer loop
   vertex -3254.481676 -86.602540 -970.690147
   vertex -3265.161783 -92.387953 -965.835553
   vertex -3715.161783 -92.387953 -1955.835553
  endloop
 endfacet
 facet normal 0.402645 -0.896873 -0.183020
  outer loop
   vertex -3254.481676 -86.602540 -970.690147
   vertex -3715.161783 -92.387953 -1955.835553
   vertex -3704.481676 -86.602540 -1960.690147
  endloop
 endfacet
 facet normal 0.292628 -0.946930 -0.133013
  outer loop
   vertex -3265.161783 -92.387953 -965.835553
   vertex -3276.437982 -96.592583 -960.710008
   vertex -3726.437982 -96.592583 -1950.710008
  endloop
 endfacet
 facet normal 0.292628 -0.946930 -0.133013
  outer loop
   vertex -3265.161783 -92.387953 -965.835553
   vertex -3726.437982 -96.592583 -1950.710008
   vertex -3715.161783 -92.387953 -1955.835553
  endloop
 endfacet
 facet normal 0.177604 -0.980785 -0.080729
  outer loop
   vertex -3276.437982 -96.592583 -960.710008
   vertex -3288.117333 -99.144486 -955.401212
   vertex -3738.117333 -99.144486 -1945.401212
  endloop
 endfacet
 facet normal 0.177604 -0.980785 -0.080729
  outer loop
   vertex -3276.437982 -96.592583 -960.710008
   vertex -3738.117333 -99.144486 -1945.401212
   vertex -3726.437982 -96.592583 -1950.710008
  endloop
 endfacet
 facet normal 0.059541 -0.997859 -0.027064
  outer loop
   vertex -3288.117333 -99.144486 -955.401212
   vertex -3300.000000 -100.000000 -950.000000
   vertex -3750.000000 -100.000000 -1940.000000
  endloop
 endfacet
 facet normal 0.059541 -0.997859 -0.027064
  outer loop
   vertex -3288.117333 -99.144486 -955.401212
   vertex -3750.000000 -100.000000 -1940.000000
   vertex -3738.117333 -99.144486 -1945.401212
  endloop
 endfacet
 facet normal -0.059541 -0.997859 0.027064
  outer loop
   vertex -3300.000000 -100.000000 -950.000000
   vertex -3311.882667 -99.144486 -944.598788
   vertex -3761.882667 -99.144486 -1934.598788
  endloop
 endfacet
 facet normal -0.059541 -0.997859 0.027064
  outer loop
   vertex -3300.000000 -100.000000 -950.000000
   vertex -3761.882667 -99.144486 -1934.598788
   vertex -3750.000000 -100.000000 -1940.000000
  endloop
 endfacet
 facet normal -0.177604 -0.980785 0.080729
  outer loop
   vertex -3311.882667 -99.144486 -944.598788
   vertex -3323.562018 -96.592583 -939.289992
   vertex -3773.562018 -96.592583 -1929.289992
  endloop
 endfacet
 facet normal -0.177604 -0.980785 0.080729
  outer loop
   vertex -3311.882667 -99.144486 -944.598788
   vertex -3773.562018 -96.592583 -1929.289992
   vertex -3761.882667 -99.144486 -1934.598788
  endloop
 endfacet
 facet normal -0.292628 -0.946930 0.133013
  outer loop
   vertex -3323.562018 -96.592583 -939.289992
   vertex -3334.838217 -92.387953 -934.164447
   vertex -3784.838217 -92.387953 -1924.164447
  endloop
 endfacet
 facet normal -0.292628 -0.946930 0.133013
  outer loop
   vertex -3323.562018 -96.592583 -939.289992
   vertex -3784.838217 -92.387953 -1924.164447
   vertex -3773.562018 -96.592583 -1929.289992
  endloop
 endfacet
 facet normal -0.402645 -0.896873 0.183020
  outer loop
   vertex -3334.838217 -92.387953 -934.164447
   vertex -3345.518324 -86.602540 -929.309853
   vertex -3795.518324 -86.602540 -1919.309853
  endloop
 endfacet
 facet normal -0.402645 -0.896873 0.183020
  outer loop
   vertex -3334.838217 -92.387953 -934.164447
   vertex -3795.518324 -86.602540 -1919.309853
   vertex -3784.838217 -92.387953 -1924.164447
  endloop
 endfacet
 facet normal -0.505773 -0.831470 0.229897
  outer loop
   vertex -3345.518324 -86.602540 -929.309853
   vertex -3355.419600 -79.335334 -924.809273
   vertex -3805.419600 -79.335334 -1914.809273
  endloop
 endfacet
 facet normal -0.505773 -0.831470 0.229897
  outer loop
   vertex -3345.518324 -86.602540 -929.309853
   vertex -3805.419600 -79.335334 -1914.809273
   vertex -3795.518324 -86.602540 -1919.309853
  endloop
 endfacet
 facet normal -0.600246 -0.751840 0.272839
  outer loop
   vertex -3355.419600 -79.335334 -924.809273
   vertex -3364.372631 -70.710678 -920.739713
   vertex -3814.372631 -70.710678 -1910.739713
  endloop
 endfacet
 facet normal -0.600246 -0.751840 0.272839
  outer loop
   vertex -3355.419600 -79.335334 -924.809273
   vertex -3814.372631 -70.710678 -1910.739713
   vertex -3805.419600 -79.335334 -1914.809273
  endloop
 endfacet
 facet normal -0.684450 -0.659346 0.311114
  outer loop
   vertex -3364.372631 -70.710678 -920.739713
   vertex -3372.224229 -60.876143 -917.170805
   vertex -3822.224229 -60.876143 -1907.170805
  endloop
 endfacet
 facet normal -0.684450 -0.659346 0.311114
  outer loop
   vertex -3364.372631 -70.710678 -920.739713
   vertex -3822.224229 -60.876143 -1907.170805
   vertex -3814.372631 -70.710678 -1910.739713
  endloop
 endfacet
 facet normal -0.756942 -0.555570 0.344065
  outer loop
   vertex -3372.224229 -60.876143 -917.170805
   vertex -3378.840050 -50.000000 -914.163614
   vertex -3828.840050 -50.000000 -1904.163614
  endloop
 endfacet
 facet normal -0.756942 -0.555570 0.344065
  outer loop
   vertex -3372.224229 -60.876143 -917.170805
   vertex -3828.840050 -50.000000 -1904.163614
   vertex -3822.224229 -60.876143 -1907.170805
  endloop
 endfacet
 facet normal -0.816483 -0.442289 0.371129
  outer loop
   vertex -3378.840050 -50.000000 -914.163614
   vertex -3384.106896 -38.268343 -911.769593
   vertex -3834.106896 -38.268343 -1901.769593
  endloop
 endfacet
 facet normal -0.816483 -0.442289 0.371129
  outer loop
   vertex -3378.840050 -50.000000 -914.163614
   vertex -3834.106896 -38.268343 -1901.769593
   vertex -3828.840050 -50.000000 -1904.163614
  endloop
 endfacet
 facet normal -0.862053 -0.321439 0.391842
  outer loop
   vertex -3384.106896 -38.268343 -911.769593
   vertex -3387.934649 -25.881905 -910.029705
   vertex -3837.934649 -25.881905 -1900.029705
  endloop
 endfacet
 facet normal -0.862053 -0.321439 0.391842
  outer loop
   vertex -3384.106896 -38.268343 -911.769593
   vertex -3837.934649 -25.881905 -1900.029705
   vertex -3834.106896 -38.268343 -1901.769593
  endloop
 endfacet
 facet normal -0.892874 -0.195090 0.405852
  outer loop
   vertex -3387.934649 -25.881905 -910.029705
   vertex -3390.257817 -13.052619 -908.973720
   vertex -3840.257817 -13.052619 -1898.973720
  endloop
 endfacet
 facet normal -0.892874 -0.195090 0.405852
  outer loop
   vertex -3387.934649 -25.881905 -910.029705
   vertex -3840.257817 -13.052619 -1898.973720
   vertex -3837.934649 -25.881905 -1900.029705
  endloop
 endfacet
 facet normal -0.908417 -0.065403 0.412917
  outer loop
   vertex -3390.257817 -13.052619 -908.973720
   vertex -3391.036648 -0.000000 -908.619706
   vertex -3841.036648 -0.000000 -1898.619706
  endloop
 endfacet
 facet normal -0.908417 -0.065403 0.412917
  outer loop
   vertex -3390.257817 -13.052619 -908.973720
   vertex -3841.036648 -0.000000 -1898.619706
   vertex -3840.257817 -13.052619 -1898.973720
  endloop
 endfacet
 facet normal -0.908417 0.065403 0.412917
  outer loop
   vertex -3391.036648 -0.000000 -908.619706
   vertex -3390.257817 13.052619 -908.973720
   vertex -3840.257817 13.052619 -1898.973720
  endloop
 endfacet
 facet normal -0.908417 0.065403 0.412917
  outer loop
   vertex -3391.036648 -0.000000 -908.619706
   vertex -3840.257817 13.052619 -1898.973720
   vertex -3841.036648 -0.000000 -1898.619706
  endloop
 endfacet
 facet normal -0.892874 0.195090 0.405852
  outer loop
   vertex -3390.257817 13.052619 -908.973720
   vertex -3387.934649 25.881905 -910.029705
   vertex -3837.934649 25.881905 -1900.029705
  endloop
 endfacet
 facet normal -0.892874 0.195090 0.405852
  outer loop
   vertex -3390.257817 13.052619 -908.973720
   vertex -3837.934649 25.881905 -1900.029705
   vertex -3840.257817 13.052619 -1898.973720
  endloop
 endfacet
 facet normal -0.862053 0.321439 0.391842
  outer loop
   vertex -3387.934649 25.881905 -910.029705
   vertex -3384.106896 38.268343 -911.769593
   vertex -3834.106896 38.268343 -1901.769593
  endloop
 endfacet
 facet normal -0.862053 0.321439 0.391842
  outer loop
   vertex -3387.934649 25.881905 -910.029705
   vertex -3834.106896 38.268343 -1901.769593
   vertex -3837.934649 25.881905 -1900.029705
  endloop
 endfacet
 facet normal -0.816483 0.442289 0.371129
  outer loop
   vertex -3384.106896 38.268343 -911.769593
   vertex -3378.840050 50.000000 -914.163614
   vertex -3828.840050 50.000000 -1904.163614
  endloop
 endfacet
 facet normal -0.816483 0.442289 0.371129
  outer loop
   vertex -3384.106896 38.268343 -911.769593
   vertex -3828.840050 50.000000 -1904.163614
   vertex -3834.106896 38.268343 -1901.769593
  endloop
 endfacet
 facet normal -0.756942 0.555570 0.344065
  outer loop
   vertex -3378.840050 50.000000 -914.163614
   vertex -3372.224229 60.876143 -917.170805
   vertex -3822.224229 60.876143 -1907.170805
  endloop
 endfacet
 facet normal -0.756942 0.555570 0.344065
  outer loop
   vertex -3378.840050 50.000000 -914.163614
   vertex -3822.224229 60.876143 -1907.170805
   vertex -3828.840050 50.000000 -1904.163614
  endloop
 endfacet
 facet normal -0.684450 0.659346 0.311114
  outer loop
   vertex -3372.224229 60.876143 -917.170805
   vertex -3364.372631 70.710678 -920.739713
   vertex -3814.372631 70.710678 -1910.739713
  endloop
 endfacet
 facet normal -0.684450 0.659346 0.311114
  outer loop
   vertex -3372.224229 60.876143 -917.170805
   vertex -3814.372631 70.710678 -1910.739713
   vertex -3822.224229 60.876143 -1907.170805
  endloop
 endfacet
 facet normal -0.600246 0.751840 0.272839
  outer loop
   vertex -3364.372631 70.710678 -920.739713
   vertex -3355.419600 79.335334 -924.809273
   vertex -3805.419600 79.335334 -1914.809273
  endloop
 endfacet
 facet normal -0.600246 0.751840 0.272839
  outer loop
   vertex -3364.372631 70.710678 -920.739713
   vertex -3805.419600 79.335334 -1914.809273
   vertex -3814.372631 70.710678 -1910.739713
  endloop
 endfacet
 facet normal -0.505773 0.831470 0.229897
  outer loop
   vertex -3355.419600 79.335334 -924.809273
   vertex -3345.518324 86.602540 -929.309853
   vertex -3795.518324 86.602540 -1919.309853
  endloop
 endfacet
 facet normal -0.505773 0.831470 0.229897
  outer loop
   vertex -3355.419600 79.335334 -924.809273
   vertex -3795.518324 86.602540 -1919.309853
   vertex -3805.419600 79.335334 -1914.809273
  endloop
 endfacet
 facet normal -0.402645 0.896873 0.183020
  outer loop
   vertex -3345.518324 86.602540 -929.309853
   vertex -3334.838217 92.387953 -934.164447
   vertex -3784.838217 92.387953 -1924.164447
  endloop
 endfacet
 facet normal -0.402645 0.896873 0.183020
  outer loop
   vertex -3345.518324 86.602540 -929.309853
   vertex -3784.838217 92.387953 -1924.164447
   vertex -3795.518324 86.602540 -1919.309853
  endloop
 endfacet
 facet normal -0.292628 0.946930 0.133013
  outer loop
   vertex -3334.838217 92.387953 -934.164447
   vertex -3323.562018 96.592583 -939.289992
   vertex -3773.562018 96.592583 -1929.289992
  endloop
 endfacet
 facet normal -0.292628 0.946930 0.133013
  outer loop
   vertex -3334.838217 92.387953 -934.164447
   vertex -3773.562018 96.592583 -1929.289992
   vertex -3784.838217 92.387953 -1924.164447
  endloop
 endfacet
 facet normal -0.177604 0.980785 0.080729
  outer loop
   vertex -3323.562018 96.592583 -939.289992
   vertex -3311.882667 99.144486 -944.598788
   vertex -3761.882667 99.144486 -1934.598788
  endloop
 endfacet
 facet normal -0.177604 0.980785 0.080729
  outer loop
   vertex -3323.562018 96.592583 -939.289992
   vertex -3761.882667 99.144486 -1934.598788
   vertex -3773.562018 96.592583 -1929.289992
  endloop
 endfacet
 facet normal -0.059541 0.997859 0.027064
  outer loop
   vertex -3311.882667 99.144486 -944.598788
   vertex -3300.000000 100.000000 -950.000000
   vertex -3750.000000 100.000000 -1940.000000
  endloop
 endfacet
 facet normal -0.059541 0.997859 0.027064
  outer loop
   vertex -3311.882667 99.144486 -944.598788
   vertex -3750.000000 100.000000 -1940.000000
   vertex -3761.882667 99.144486 -1934.598788
  endloop
 endfacet
 facet normal -0.059541 -0.997859 0.027064
  outer loop
   vertex -3739.543253 87.247148 -1944.753067
   vertex -3289.543253 87.247148 -954.753067
   vertex -3300.000000 88.000000 -950.000000
  endloop
 endfacet
 facet normal -0.059541 -0.997859 0.027064
  outer loop
   vertex -3750.000000 88.000000 -1940.000000
   vertex -3739.543253 87.247148 -1944.753067
   vertex -3300.000000 88.000000 -950.000000
  endloop
 endfacet
 facet normal -0.177604 -0.980785 0.080729
  outer loop
   vertex -3729.265424 85.001473 -1949.424807
   vertex -3279.265424 85.001473 -959.424807
   vertex -3289.543253 87.247148 -954.753067
  endloop
 endfacet
 facet normal -0.177604 -0.980785 0.080729
  outer loop
   vertex -3739.543253 87.247148 -1944.753067
   vertex -3729.265424 85.001473 -1949.424807
   vertex -3289.543253 87.247148 -954.753067
  endloop
 endfacet
 facet normal -0.292628 -0.946930 0.133013
  outer loop
   vertex -3719.342369 81.301399 -1953.935287
   vertex -3269.342369 81.301399 -963.935287
   vertex -3279.265424 85.001473 -959.424807
  endloop
 endfacet
 facet normal -0.292628 -0.946930 0.133013
  outer loop
   vertex -3729.265424 85.001473 -1949.424807
   vertex -3719.342369 81.301399 -1953.935287
   vertex -3279.265424 85.001473 -959.424807
  endloop
 endfacet
 facet normal -0.402645 -0.896873 0.183020
  outer loop
   vertex -3709.943875 76.210236 -1958.207330
   vertex -3259.943875 76.210236 -968.207330
   vertex -3269.342369 81.301399 -963.935287
  endloop
 endfacet
 facet normal -0.402645 -0.896873 0.183020
  outer loop
   vertex -3719.342369 81.301399 -1953.935287
   vertex -3709.943875 76.210236 -1958.207330
   vertex -3269.342369 81.301399 -963.935287
  endloop
 endfacet
 facet normal -0.505773 -0.831470 0.229897
  outer loop
   vertex -3701.230752 69.815094 -1962.167840
   vertex -3251.230752 69.815094 -972.167840
   vertex -3259.943875 76.210236 -968.207330
  endloop
 endfacet
 facet normal -0.505773 -0.831470 0.229897
  outer loop
   vertex -3709.943875 76.210236 -1958.207330
   vertex -3701.230752 69.815094 -1962.167840
   vertex -3259.943875 76.210236 -968.207330
  endloop
 endfacet
 facet normal -0.600246 -0.751840 0.272839
  outer loop
   vertex -3693.352085 62.225397 -1965.749052
   vertex -3243.352085 62.225397 -975.749052
   vertex -3251.230752 69.815094 -972.167840
  endloop
 endfacet
 facet normal -0.600246 -0.751840 0.272839
  outer loop
   vertex -3701.230752 69.815094 -1962.167840
   vertex -3693.352085 62.225397 -1965.749052
   vertex -3251.230752 69.815094 -972.167840
  endloop
 endfacet
 facet normal -0.684450 -0.659346 0.311114
  outer loop
   vertex -3686.442679 53.571006 -1968.889691
   vertex -3236.442679 53.571006 -978.889691
   vertex -3243.352085 62.225397 -975.749052
  endloop
 endfacet
 facet normal -0.684450 -0.659346 0.311114
  outer loop
   vertex -3693.352085 62.225397 -1965.749052
   vertex -3686.442679 53.571006 -1968.889691
   vertex -3243.352085 62.225397 -975.749052
  endloop
 endfacet
 facet normal -0.756942 -0.555570 0.344065
  outer loop
   vertex -3680.620756 44.000000 -1971.536020
   vertex -3230.620756 44.000000 -981.536020
   vertex -3236.442679 53.571006 -978.889691
  endloop
 endfacet
 facet normal -0.756942 -0.555570 0.344065
  outer loop
   vertex -3686.442679 53.571006 -1968.889691
   vertex -3680.620756 44.000000 -1971.536020
   vertex -3236.442679 53.571006 -978.889691
  endloop
 endfacet
 facet normal -0.816483 -0.442289 0.371129
  outer loop
   vertex -3675.985932 33.676142 -1973.642758
   vertex -3225.985932 33.676142 -983.642758
   vertex -3230.620756 44.000000 -981.536020
  endloop
 endfacet
 facet normal -0.816483 -0.442289 0.371129
  outer loop
   vertex -3680.620756 44.000000 -1971.536020
   vertex -3675.985932 33.676142 -1973.642758
   vertex -3230.620756 44.000000 -981.536020
  endloop
 endfacet
 facet normal -0.862053 -0.321439 0.391842
  outer loop
   vertex -3672.617509 22.776076 -1975.173860
   vertex -3222.617509 22.776076 -985.173860
   vertex -3225.985932 33.676142 -983.642758
  endloop
 endfacet
 facet normal -0.862053 -0.321439 0.391842
  outer loop
   vertex -3675.985932 33.676142 -1973.642758
   vertex -3672.617509 22.776076 -1975.173860
   vertex -3225.985932 33.676142 -983.642758
  endloop
 endfacet
 facet normal -0.892874 -0.195090 0.405852
  outer loop
   vertex -3670.573121 11.486305 -1976.103127
   vertex -3220.573121 11.486305 -986.103127
   vertex -3222.617509 22.776076 -985.173860
  endloop
 endfacet
 facet normal -0.892874 -0.195090 0.405852
  outer loop
   vertex -3672.617509 22.776076 -1975.173860
   vertex -3670.573121 11.486305 -1976.103127
   vertex -3222.617509 22.776076 -985.173860
  endloop
 endfacet
 facet normal -0.908417 -0.065403 0.412917
  outer loop
   vertex -3669.887750 0.000000 -1976.414659
   vertex -3219.887750 0.000000 -986.414659
   vertex -3220.573121 11.486305 -986.103127
  endloop
 endfacet
 facet normal -0.908417 -0.065403 0.412917
  outer loop
   vertex -3670.573121 11.486305 -1976.103127
   vertex -3669.887750 0.000000 -1976.414659
   vertex -3220.573121 11.486305 -986.103127
  endloop
 endfacet
 facet normal -0.908417 0.065403 0.412917
  outer loop
   vertex -3670.573121 -11.486305 -1976.103127
   vertex -3220.573121 -11.486305 -986.103127
   vertex -3219.887750 0.000000 -986.414659
  endloop
 endfacet
 facet normal -0.908417 0.065403 0.412917
  outer loop
   vertex -3669.887750 0.000000 -1976.414659
   vertex -3670.573121 -11.486305 -1976.103127
   vertex -3219.887750 0.000000 -986.414659
  endloop
 endfacet
 facet normal -0.892874 0.195090 0.405852
  outer loop
   vertex -3672.617509 -22.776076 -1975.173860
   vertex -3222.617509 -22.776076 -985.173860
   vertex -3220.573121 -11.486305 -986.103127
  endloop
 endfacet
 facet normal -0.892874 0.195090 0.405852
  outer loop
   vertex -3670.573121 -11.486305 -1976.103127
   vertex -3672.617509 -22.776076 -1975.173860
   vertex -3220.573121 -11.486305 -986.103127
  endloop
 endfacet
 facet normal -0.862053 0.321439 0.391842
  outer loop
   vertex -3675.985932 -33.676142 -1973.642758
   vertex -3225.985932 -33.676142 -983.642758
   vertex -3222.617509 -22.776076 -985.173860
  endloop
 endfacet
 facet normal -0.862053 0.321439 0.391842
  outer loop
   vertex -3672.617509 -22.776076 -1975.173860
   vertex -3675.985932 -33.676142 -1973.642758
   vertex -3222.617509 -22.776076 -985.173860
  endloop
 endfacet
 facet normal -0.816483 0.442289 0.371129
  outer loop
   vertex -3680.620756 -44.000000 -1971.536020
   vertex -3230.620756 -44.000000 -981.536020
   vertex -3225.985932 -33.676142 -983.642758
  endloop
 endfacet
 facet normal -0.816483 0.442289 0.371129
  outer loop
   vertex -3675.985932 -33.676142 -1973.642758
   vertex -3680.620756 -44.000000 -1971.536020
   vertex -3225.985932 -33.676142 -983.642758
  endloop
 endfacet
 facet normal -0.756942 0.555570 0.344065
  outer loop
   vertex -3686.442679 -53.571006 -1968.889691
   vertex -3236.442679 -53.571006 -978.889691
   vertex -3230.620756 -44.000000 -981.536020
  endloop
 endfacet
 facet normal -0.756942 0.555570 0.344065
  outer loop
   vertex -3680.620756 -44.000000 -1971.536020
   vertex -3686.442679 -53.571006 -1968.889691
   vertex -3230.620756 -44.000000 -981.536020
  endloop
 endfacet
 facet normal -0.684450 0.659346 0.311114
  outer loop
   vertex -3693.352085 -62.225397 -1965.749052
   vertex -3243.352085 -62.225397 -975.749052
   vertex -3236.442679 -53.571006 -978.889691
  endloop
 endfacet
 facet normal -0.684450 0.659346 0.311114
  outer loop
   vertex -3686.442679 -53.571006 -1968.889691
   vertex -3693.352085 -62.225397 -1965.749052
   vertex -3236.442679 -53.571006 -978.889691
  endloop
 endfacet
 facet normal -0.600246 0.751840 0.272839
  outer loop
   vertex -3701.230752 -69.815094 -1962.167840
   vertex -3251.230752 -69.815094 -972.167840
   vertex -3243.352085 -62.225397 -975.749052
  endloop
 endfacet
 facet normal -0.600246 0.751840 0.272839
  outer loop
   vertex -3693.352085 -62.225397 -1965.749052
   vertex -3701.230752 -69.815094 -1962.167840
   vertex -3243.352085 -62.225397 -975.749052
  endloop
 endfacet
 facet normal -0.505773 0.831470 0.229897
  outer loop
   vertex -3709.943875 -76.210236 -1958.207330
   vertex -3259.943875 -76.210236 -968.207330
   vertex -3251.230752 -69.815094 -972.167840
  endloop
 endfacet
 facet normal -0.505773 0.831470 0.229897
  outer loop
   vertex -3701.230752 -69.815094 -1962.167840
   vertex -3709.943875 -76.210236 -1958.207330
   vertex -3251.230752 -69.815094 -972.167840
  endloop
 endfacet
 facet normal -0.402645 0.896873 0.183020
  outer loop
   vertex -3719.342369 -81.301399 -1953.935287
   vertex -3269.342369 -81.301399 -963.935287
   vertex -3259.943875 -76.210236 -968.207330
  endloop
 endfacet
 facet normal -0.402645 0.896873 0.183020
  outer loop
   vertex -3709.943875 -76.210236 -1958.207330
   vertex -3719.342369 -81.301399 -1953.935287
   vertex -3259.943875 -76.210236 -968.207330
  endloop
 endfacet
 facet normal -0.292628 0.946930 0.133013
  outer loop
   vertex -3729.265424 -85.001473 -1949.424807
   vertex -3279.265424 -85.001473 -959.424807
   vertex -3269.342369 -81.301399 -963.935287
  endloop
 endfacet
 facet normal -0.292628 0.946930 0.133013
  outer loop
   vertex -3719.342369 -81.301399 -1953.935287
   vertex -3729.265424 -85.001473 -1949.424807
   vertex -3269.342369 -81.301399 -963.935287
  endloop
 endfacet
 facet normal -0.177604 0.980785 0.080729
  outer loop
   vertex -3739.543253 -87.247148 -1944.753067
   vertex -3289.543253 -87.247148 -954.753067
   vertex -3279.265424 -85.001473 -959.424807
  endloop
 endfacet
 facet normal -0.177604 0.980785 0.080729
  outer loop
   vertex -3729.265424 -85.001473 -1949.424807
   vertex -3739.543253 -87.247148 -1944.753067
   vertex -3279.265424 -85.001473 -959.424807
  endloop
 endfacet
 facet normal -0.059541 0.997859 0.027064
  outer loop
   vertex -3750.000000 -88.000000 -1940.000000
   vertex -3300.000000 -88.000000 -950.000000
   vertex -3289.543253 -87.247148 -954.753067
  endloop
 endfacet
 facet normal -0.059541 0.997859 0.027064
  outer loop
   vertex -3739.543253 -87.247148 -1944.753067
   vertex -3750.000000 -88.000000 -1940.000000
   vertex -3289.543253 -87.247148 -954.753067
  endloop
 endfacet
 facet normal 0.059541 0.997859 -0.027064
  outer loop
   vertex -3760.456747 -87.247148 -1935.246933
   vertex -3310.456747 -87.247148 -945.246933
   vertex -3300.000000 -88.000000 -950.000000
  endloop
 endfacet
 facet normal 0.059541 0.997859 -0.027064
  outer loop
   vertex -3750.000000 -88.000000 -1940.000000
   vertex -3760.456747 -87.247148 -1935.246933
   vertex -3300.000000 -88.000000 -950.000000
  endloop
 endfacet
 facet normal 0.177604 0.980785 -0.080729
  outer loop
   vertex -3770.734576 -85.001473 -1930.575193
   vertex -3320.734576 -85.001473 -940.575193
   vertex -3310.456747 -87.247148 -945.246933
  endloop
 endfacet
 facet normal 0.177604 0.980785 -0.080729
  outer loop
   vertex -3760.456747 -87.247148 -1935.246933
   vertex -3770.734576 -85.001473 -1930.575193
   vertex -3310.456747 -87.247148 -945.246933
  endloop
 endfacet
 facet normal 0.292628 0.946930 -0.133013
  outer loop
   vertex -3780.657631 -81.301399 -1926.064713
   vertex -3330.657631 -81.301399 -936.064713
   vertex -3320.734576 -85.001473 -940.575193
  endloop
 endfacet
 facet normal 0.292628 0.946930 -0.133013
  outer loop
   vertex -3770.734576 -85.001473 -1930.575193
   vertex -3780.657631 -81.301399 -1926.064713
   vertex -3320.734576 -85.001473 -940.575193
  endloop
 endfacet
 facet normal 0.402645 0.896873 -0.183020
  outer loop
   vertex -3790.056125 -76.210236 -1921.792670
   vertex -3340.056125 -76.210236 -931.792670
   vertex -3330.657631 -81.301399 -936.064713
  endloop
 endfacet
 facet normal 0.402645 0.896873 -0.183020
  outer loop
   vertex -3780.657631 -81.301399 -1926.064713
   vertex -3790.056125 -76.210236 -1921.792670
   vertex -3330.657631 -81.301399 -936.064713
  endloop
 endfacet
 facet normal 0.505773 0.831470 -0.229897
  outer loop
   vertex -3798.769248 -69.815094 -1917.832160
   vertex -3348.769248 -69.815094 -927.832160
   vertex -3340.056125 -76.210236 -931.792670
  endloop
 endfacet
 facet normal 0.505773 0.831470 -0.229897
  outer loop
   vertex -3790.056125 -76.210236 -1921.792670
   vertex -3798.769248 -69.815094 -1917.832160
   vertex -3340.056125 -76.210236 -931.792670
  endloop
 endfacet
 facet normal 0.600246 0.751840 -0.272839
  outer loop
   vertex -3806.647915 -62.225397 -1914.250948
   vertex -3356.647915 -62.225397 -924.250948
   vertex -3348.769248 -69.815094 -927.832160
  endloop
 endfacet
 facet normal 0.600246 0.751840 -0.272839
  outer loop
   vertex -3798.769248 -69.815094 -1917.832160
   vertex -3806.647915 -62.225397 -1914.250948
   vertex -3348.769248 -69.815094 -927.832160
  endloop
 endfacet
 facet normal 0.684450 0.659346 -0.311114
  outer loop
   vertex -3813.557321 -53.571006 -1911.110309
   vertex -3363.557321 -53.571006 -921.110309
   vertex -3356.647915 -62.225397 -924.250948
  endloop
 endfacet
 facet normal 0.684450 0.659346 -0.311114
  outer loop
   vertex -3806.647915 -62.225397 -1914.250948
   vertex -3813.557321 -53.571006 -1911.110309
   vertex -3356.647915 -62.225397 -924.250948
  endloop
 endfacet
 facet normal 0.756942 0.555570 -0.344065
  outer loop
   vertex -3819.379244 -44.000000 -1908.463980
   vertex -3369.379244 -44.000000 -918.463980
   vertex -3363.557321 -53.571006 -921.110309
  endloop
 endfacet
 facet normal 0.756942 0.555570 -0.344065
  outer loop
   vertex -3813.557321 -53.571006 -1911.110309
   vertex -3819.379244 -44.000000 -1908.463980
   vertex -3363.557321 -53.571006 -921.110309
  endloop
 endfacet
 facet normal 0.816483 0.442289 -0.371129
  outer loop
   vertex -3824.014068 -33.676142 -1906.357242
   vertex -3374.014068 -33.676142 -916.357242
   vertex -3369.379244 -44.000000 -918.463980
  endloop
 endfacet
 facet normal 0.816483 0.442289 -0.371129
  outer loop
   vertex -3819.379244 -44.000000 -1908.463980
   vertex -3824.014068 -33.676142 -1906.357242
   vertex -3369.379244 -44.000000 -918.463980
  endloop
 endfacet
 facet normal 0.862053 0.321439 -0.391842
  outer loop
   vertex -3827.382491 -22.776076 -1904.826140
   vertex -3377.382491 -22.776076 -914.826140
   vertex -3374.014068 -33.676142 -916.357242
  endloop
 endfacet
 facet normal 0.862053 0.321439 -0.391842
  outer loop
   vertex -3824.014068 -33.676142 -1906.357242
   vertex -3827.382491 -22.776076 -1904.826140
   vertex -3374.014068 -33.676142 -916.357242
  endloop
 endfacet
 facet normal 0.892874 0.195090 -0.405852
  outer loop
   vertex -3829.426879 -11.486305 -1903.896873
   vertex -3379.426879 -11.486305 -913.896873
   vertex -3377.382491 -22.776076 -914.826140
  endloop
 endfacet
 facet normal 0.892874 0.195090 -0.405852
  outer loop
   vertex -3827.382491 -22.776076 -1904.826140
   vertex -3829.426879 -11.486305 -1903.896873
   vertex -3377.382491 -22.776076 -914.826140
  endloop
 endfacet
 facet normal 0.908417 0.065403 -0.412917
  outer loop
   vertex -3830.112250 -0.000000 -1903.585341
   vertex -3380.112250 -0.000000 -913.585341
   vertex -3379.426879 -11.486305 -913.896873
  endloop
 endfacet
 facet normal 0.908417 0.065403 -0.412917
  outer loop
   vertex -3829.426879 -11.486305 -1903.896873
   vertex -3830.112250 -0.000000 -1903.585341
   vertex -3379.426879 -11.486305 -913.896873
  endloop
 endfacet
 facet normal 0.908417 -0.065403 -0.412917
  outer loop
   vertex -3829.426879 11.486305 -1903.896873
   vertex -3379.426879 11.486305 -913.896873
   vertex -3380.112250 -0.000000 -913.585341
  endloop
 endfacet
 facet normal 0.908417 -0.065403 -0.412917
  outer loop
   vertex -3830.112250 -0.000000 -1903.585341
   vertex -3829.426879 11.486305 -1903.896873
   vertex -3380.112250 -0.000000 -913.585341
  endloop
 endfacet
 facet normal 0.892874 -0.195090 -0.405852
  outer loop
   vertex -3827.382491 22.776076 -1904.826140
   vertex -3377.382491 22.776076 -914.826140
   vertex -3379.426879 11.486305 -913.896873
  endloop
 endfacet
 facet normal 0.892874 -0.195090 -0.405852
  outer loop
   vertex -3829.426879 11.486305 -1903.896873
   vertex -3827.382491 22.776076 -1904.826140
   vertex -3379.426879 11.486305 -913.896873
  endloop
 endfacet
 facet normal 0.862053 -0.321439 -0.391842
  outer loop
   vertex -3824.014068 33.676142 -1906.357242
   vertex -3374.014068 33.676142 -916.357242
   vertex -3377.382491 22.776076 -914.826140
  endloop
 endfacet
 facet normal 0.862053 -0.321439 -0.391842
  outer loop
   vertex -3827.382491 22.776076 -1904.826140
   vertex -3824.014068 33.676142 -1906.357242
   vertex -3377.382491 22.776076 -914.826140
  endloop
 endfacet
 facet normal 0.816483 -0.442289 -0.371129
  outer loop
   vertex -3819.379244 44.000000 -1908.463980
   vertex -3369.379244 44.000000 -918.463980
   vertex -3374.014068 33.676142 -916.357242
  endloop
 endfacet
 facet normal 0.816483 -0.442289 -0.371129
  outer loop
   vertex -3824.014068 33.676142 -1906.357242
   vertex -3819.379244 44.000000 -1908.463980
   vertex -3374.014068 33.676142 -916.357242
  endloop
 endfacet
 facet normal 0.756942 -0.555570 -0.344065
  outer loop
   vertex -3813.557321 53.571006 -1911.110309
   vertex -3363.557321 53.571006 -921.110309
   vertex -3369.379244 44.000000 -918.463980
  endloop
 endfacet
 facet normal 0.756942 -0.555570 -0.344065
  outer loop
   vertex -3819.379244 44.000000 -1908.463980
   vertex -3813.557321 53.571006 -1911.110309
   vertex -3369.379244 44.000000 -918.463980
  endloop
 endfacet
 facet normal 0.684450 -0.659346 -0.311114
  outer loop
   vertex -3806.647915 62.225397 -1914.250948
   vertex -3356.647915 62.225397 -924.250948
   vertex -3363.557321 53.571006 -921.110309
  endloop
 endfacet
 facet normal 0.684450 -0.659346 -0.311114
  outer loop
   vertex -3813.557321 53.571006 -1911.110309
   vertex -3806.647915 62.225397 -1914.250948
   vertex -3363.557321 53.571006 -921.110309
  endloop
 endfacet
 facet normal 0.600246 -0.751840 -0.272839
  outer loop
   vertex -3798.769248 69.815094 -1917.832160
   vertex -3348.769248 69.815094 -927.832160
   vertex -3356.647915 62.225397 -924.250948
  endloop
 endfacet
 facet normal 0.600246 -0.751840 -0.272839
  outer loop
   vertex -3806.647915 62.225397 -1914.250948
   vertex -3798.769248 69.815094 -1917.832160
   vertex -3356.647915 62.225397 -924.250948
  endloop
 endfacet
 facet normal 0.505773 -0.831470 -0.229897
  outer loop
   vertex -3790.056125 76.210236 -1921.792670
   vertex -3340.056125 76.210236 -931.792670
   vertex -3348.769248 69.815094 -927.832160
  endloop
 endfacet
 facet normal 0.505773 -0.831470 -0.229897
  outer loop
   vertex -3798.769248 69.815094 -1917.832160
   vertex -3790.056125 76.210236 -1921.792670
   vertex -3348.769248 69.815094 -927.832160
  endloop
 endfacet
 facet normal 0.402645 -0.896873 -0.183020
  outer loop
   vertex -3780.657631 81.301399 -1926.064713
   vertex -3330.657631 81.301399 -936.064713
   vertex -3340.056125 76.210236 -931.792670
  endloop
 endfacet
 facet normal 0.402645 -0.896873 -0.183020
  outer loop
   vertex -3790.056125 76.210236 -1921.792670
   vertex -3780.657631 81.301399 -1926.064713
   vertex -3340.056125 76.210236 -931.792670
  endloop
 endfacet
 facet normal 0.292628 -0.946930 -0.133013
  outer loop
   vertex -3770.734576 85.001473 -1930.575193
   vertex -3320.734576 85.001473 -940.575193
   vertex -3330.657631 81.301399 -936.064713
  endloop
 endfacet
 facet normal 0.292628 -0.946930 -0.133013
  outer loop
   vertex -3780.657631 81.301399 -1926.064713
   vertex -3770.734576 85.001473 -1930.575193
   vertex -3330.657631 81.301399 -936.064713
  endloop
 endfacet
 facet normal 0.177604 -0.980785 -0.080729
  outer loop
   vertex -3760.456747 87.247148 -1935.246933
   vertex -3310.456747 87.247148 -945.246933
   vertex -3320.734576 85.001473 -940.575193
  endloop
 endfacet
 facet normal 0.177604 -0.980785 -0.080729
  outer loop
   vertex -3770.734576 85.001473 -1930.575193
   vertex -3760.456747 87.247148 -1935.246933
   vertex -3320.734576 85.001473 -940.575193
  endloop
 endfacet
 facet normal 0.059541 -0.997859 -0.027064
  outer loop
   vertex -3750.000000 88.000000 -1940.000000
   vertex -3300.000000 88.000000 -950.000000
   vertex -3310.456747 87.247148 -945.246933
  endloop
 endfacet
 facet normal 0.059541 -0.997859 -0.027064
  outer loop
   vertex -3760.456747 87.247148 -1935.246933
   vertex -3750.000000 88.000000 -1940.000000
   vertex -3310.456747 87.247148 -945.246933
  endloop
 endfacet
endsolid SIC_LOX_feed_0_drop
