solid SIC_Fin_rect_3
 facet normal 0.000000 0.000000 1.000000
  outer loop
   vertex 5050.000000 -700.000000 500.000000
   vertex 5950.000000 -700.000000 500.000000
   vertex 5950.000000 700.000000 500.000000
  endloop
 endfacet
 facet normal 0.000000 0.000000 1.000000
  outer loop
   vertex 5050.000000 -700.000000 500.000000
   vertex 5950.000000 700.000000 500.000000
   vertex 5050.000000 700.000000 500.000000
  endloop
 endfacet
 facet normal 0.000000 0.000000 1.000000
  outer loop
   vertex 5050.000000 -700.000000 560.000000
   vertex 5950.000000 -700.000000 560.000000
   vertex 5950.000000 700.000000 560.000000
  endloop
 endfacet
 facet normal 0.000000 0.000000 1.000000
  outer loop
   vertex 5050.000000 -700.000000 560.000000
   vertex 5950.000000 700.000000 560.000000
   vertex 5050.000000 700.000000 560.000000
  endloop
 endfacet
 facet normal 0.000000 -1.000000 0.000000
  outer loop
   vertex 5050.000000 -700.000000 500.000000
   vertex 5950.000000 -700.000000 500.000000
   vertex 5950.000000 -700.000000 560.000000
  endloop
 endfacet
 facet normal 0.000000 -1.000000 0.000000
  outer loop
   vertex 5050.000000 -700.000000 500.000000
   vertex 5950.000000 -700.000000 560.000000
   vertex 5050.000000 -700.000000 560.000000
  endloop
 endfacet
 facet normal 1.000000 0.000000 0.000000
  outer loop
   vertex 5950.000000 -700.000000 500.000000
   vertex 5950.000000 700.000000 500.000000
   vertex 5950.000000 700.000000 560.000000
  endloop
 endfacet
 facet normal 1.000000 0.000000 0.000000
  outer loop
   vertex 5950.000000 -700.000000 500.000000
   vertex 5950.000000 700.000000 560.000000
   vertex 5950.000000 -700.000000 560.000000
  endloop
 endfacet
 facet normal 0.000000 1.000000 0.000000
  outer loop
   vertex 5950.000000 700.000000 500.000000
   vertex 5050.000000 700.000000 500.000000
   vertex 5050.000000 700.000000 560.000000
  endloop
 endfacet
 facet normal 0.000000 1.000000 -0.000000
  outer loop
   vertex 5950.000000 700.000000 500.000000
   vertex 5050.000000 700.000000 560.000000
   vertex 5950.000000 700.000000 560.000000
  endloop
 endfacet
 facet normal -1.000000 0.000000 0.000000
  outer loop
   vertex 5050.000000 700.000000 500.000000
   vertex 5050.000000 -700.000000 500.000000
   vertex 5050.000000 -700.000000 560.000000
  endloop
 endfacet
 facet normal -1.000000 0.000000 0.000000
  outer loop
   vertex 5050.000000 700.000000 500.000000
   vertex 5050.000000 -700.000000 560.000000
   vertex 5050.000000 700.000000 560.000000
  endloop
 endfacet
endsolid SIC_Fin_rect_3
