solid F1_CHAMBER
 facet normal 0.998795 0.049068 0.000000
  outer loop
   vertex 900.000000 0.000000 -1900.000000
   vertex 895.666254 88.215426 -1900.000000
   vertex 895.666254 88.215426 -700.000000
  endloop
 endfacet
 facet normal 0.998795 0.049068 -0.000000
  outer loop
   vertex 900.000000 0.000000 -1900.000000
   vertex 895.666254 88.215426 -700.000000
   vertex 900.000000 0.000000 -700.000000
  endloop
 endfacet
 facet normal 0.989177 0.146730 0.000000
  outer loop
   vertex 895.666254 88.215426 -1900.000000
   vertex 882.706752 175.581290 -1900.000000
   vertex 882.706752 175.581290 -700.000000
  endloop
 endfacet
 facet normal 0.989177 0.146730 -0.000000
  outer loop
   vertex 895.666254 88.215426 -1900.000000
   vertex 882.706752 175.581290 -700.000000
   vertex 895.666254 88.215426 -700.000000
  endloop
 endfacet
 facet normal 0.970031 0.242980 0.000000
  outer loop
   vertex 882.706752 175.581290 -1900.000000
   vertex 861.246302 261.256210 -1900.000000
   vertex 861.246302 261.256210 -700.000000
  endloop
 endfacet
 facet normal 0.970031 0.242980 -0.000000
  outer loop
   vertex 882.706752 175.581290 -1900.000000
   vertex 861.246302 261.256210 -700.000000
   vertex 882.706752 175.581290 -700.000000
  endloop
 endfacet
 facet normal 0.941544 0.336890 0.000000
  outer loop
   vertex 861.246302 261.256210 -1900.000000
   vertex 831.491579 344.415089 -1900.000000
   vertex 831.491579 344.415089 -700.000000
  endloop
 endfacet
 facet normal 0.941544 0.336890 -0.000000
  outer loop
   vertex 861.246302 261.256210 -1900.000000
   vertex 831.491579 344.415089 -700.000000
   vertex 861.246302 261.256210 -700.000000
  endloop
 endfacet
 facet normal 0.903989 0.427555 0.000000
  outer loop
   vertex 831.491579 344.415089 -1900.000000
   vertex 793.729138 424.257063 -1900.000000
   vertex 793.729138 424.257063 -700.000000
  endloop
 endfacet
 facet normal 0.903989 0.427555 -0.000000
  outer loop
   vertex 831.491579 344.415089 -1900.000000
   vertex 793.729138 424.257063 -700.000000
   vertex 831.491579 344.415089 -700.000000
  endloop
 endfacet
 facet normal 0.857729 0.514103 0.000000
  outer loop
   vertex 793.729138 424.257063 -1900.000000
   vertex 748.322651 500.013210 -1900.000000
   vertex 748.322651 500.013210 -700.000000
  endloop
 endfacet
 facet normal 0.857729 0.514103 -0.000000
  outer loop
   vertex 793.729138 424.257063 -1900.000000
   vertex 748.322651 500.013210 -700.000000
   vertex 793.729138 424.257063 -700.000000
  endloop
 endfacet
 facet normal 0.803208 0.595699 0.000000
  outer loop
   vertex 748.322651 500.013210 -1900.000000
   vertex 695.709408 570.953956 -1900.000000
   vertex 695.709408 570.953956 -700.000000
  endloop
 endfacet
 facet normal 0.803208 0.595699 -0.000000
  outer loop
   vertex 748.322651 500.013210 -1900.000000
   vertex 695.709408 570.953956 -700.000000
   vertex 748.322651 500.013210 -700.000000
  endloop
 endfacet
 facet normal 0.740951 0.671559 0.000000
  outer loop
   vertex 695.709408 570.953956 -1900.000000
   vertex 636.396103 636.396103 -1900.000000
   vertex 636.396103 636.396103 -700.000000
  endloop
 endfacet
 facet normal 0.740951 0.671559 -0.000000
  outer loop
   vertex 695.709408 570.953956 -1900.000000
   vertex 636.396103 636.396103 -700.000000
   vertex 695.709408 570.953956 -700.000000
  endloop
 endfacet
 facet normal 0.671559 0.740951 0.000000
  outer loop
   vertex 636.396103 636.396103 -1900.000000
   vertex 570.953956 695.709408 -1900.000000
   vertex 570.953956 695.709408 -700.000000
  endloop
 endfacet
 facet normal 0.671559 0.740951 -0.000000
  outer loop
   vertex 636.396103 636.396103 -1900.000000
   vertex 570.953956 695.709408 -700.000000
   vertex 636.396103 636.396103 -700.000000
  endloop
 endfacet
 facet normal 0.595699 0.803208 0.000000
  outer loop
   vertex 570.953956 695.709408 -1900.000000
   vertex 500.013210 748.322651 -1900.000000
   vertex 500.013210 748.322651 -700.000000
  endloop
 endfacet
 facet normal 0.595699 0.803208 -0.000000
  outer loop
   vertex 570.953956 695.709408 -1900.000000
   vertex 500.013210 748.322651 -700.000000
   vertex 570.953956 695.709408 -700.000000
  endloop
 endfacet
 facet normal 0.514103 0.857729 0.000000
  outer loop
   vertex 500.013210 748.322651 -1900.000000
   vertex 424.257063 793.729138 -1900.000000
   vertex 424.257063 793.729138 -700.000000
  endloop
 endfacet
 facet normal 0.514103 0.857729 -0.000000
  outer loop
   vertex 500.013210 748.322651 -1900.000000
   vertex 424.257063 793.729138 -700.000000
   vertex 500.013210 748.322651 -700.000000
  endloop
 endfacet
 facet normal 0.427555 0.903989 0.000000
  outer loop
   vertex 424.257063 793.729138 -1900.000000
   vertex 344.415089 831.491579 -1900.000000
   vertex 344.415089 831.491579 -700.000000
  endloop
 endfacet
 facet normal 0.427555 0.903989 -0.000000
  outer loop
   vertex 424.257063 793.729138 -1900.000000
   vertex 344.415089 831.491579 -700.000000
   vertex 424.257063 793.729138 -700.000000
  endloop
 endfacet
 facet normal 0.336890 0.941544 0.000000
  outer loop
   vertex 344.415089 831.491579 -1900.000000
   vertex 261.256210 861.246302 -1900.000000
   vertex 261.256210 861.246302 -700.000000
  endloop
 endfacet
 facet normal 0.336890 0.941544 -0.000000
  outer loop
   vertex 344.415089 831.491579 -1900.000000
   vertex 261.256210 861.246302 -700.000000
   vertex 344.415089 831.491579 -700.000000
  endloop
 endfacet
 facet normal 0.242980 0.970031 0.000000
  outer loop
   vertex 261.256210 861.246302 -1900.000000
   vertex 175.581290 882.706752 -1900.000000
   vertex 175.581290 882.706752 -700.000000
  endloop
 endfacet
 facet normal 0.242980 0.970031 -0.000000
  outer loop
   vertex 261.256210 861.246302 -1900.000000
   vertex 175.581290 882.706752 -700.000000
   vertex 261.256210 861.246302 -700.000000
  endloop
 endfacet
 facet normal 0.146730 0.989177 0.000000
  outer loop
   vertex 175.581290 882.706752 -1900.000000
   vertex 88.215426 895.666254 -1900.000000
   vertex 88.215426 895.666254 -700.000000
  endloop
 endfacet
 facet normal 0.146730 0.989177 -0.000000
  outer loop
   vertex 175.581290 882.706752 -1900.000000
   vertex 88.215426 895.666254 -700.000000
   vertex 175.581290 882.706752 -700.000000
  endloop
 endfacet
 facet normal 0.049068 0.998795 0.000000
  outer loop
   vertex 88.215426 895.666254 -1900.000000
   vertex 0.000000 900.000000 -1900.000000
   vertex 0.000000 900.000000 -700.000000
  endloop
 endfacet
 facet normal 0.049068 0.998795 -0.000000
  outer loop
   vertex 88.215426 895.666254 -1900.000000
   vertex 0.000000 900.000000 -700.000000
   vertex 88.215426 895.666254 -700.000000
  endloop
 endfacet
 facet normal -0.049068 0.998795 0.000000
  outer loop
   vertex 0.000000 900.000000 -1900.000000
   vertex -88.215426 895.666254 -1900.000000
   vertex -88.215426 895.666254 -700.000000
  endloop
 endfacet
 facet normal -0.049068 0.998795 0.000000
  outer loop
   vertex 0.000000 900.000000 -1900.000000
   vertex -88.215426 895.666254 -700.000000
   vertex 0.000000 900.000000 -700.000000
  endloop
 endfacet
 facet normal -0.146730 0.989177 0.000000
  outer loop
   vertex -88.215426 895.666254 -1900.000000
   vertex -175.581290 882.706752 -1900.000000
   vertex -175.581290 882.706752 -700.000000
  endloop
 endfacet
 facet normal -0.146730 0.989177 0.000000
  outer loop
   vertex -88.215426 895.666254 -1900.000000
   vertex -175.581290 882.706752 -700.000000
   vertex -88.215426 895.666254 -700.000000
  endloop
 endfacet
 facet normal -0.242980 0.970031 0.000000
  outer loop
   vertex -175.581290 882.706752 -1900.000000
   vertex -261.256210 861.246302 -1900.000000
   vertex -261.256210 861.246302 -700.000000
  endloop
 endfacet
 facet normal -0.242980 0.970031 0.000000
  outer loop
   vertex -175.581290 882.706752 -1900.000000
   vertex -261.256210 861.246302 -700.000000
   vertex -175.581290 882.706752 -700.000000
  endloop
 endfacet
 facet normal -0.336890 0.941544 0.000000
  outer loop
   vertex -261.256210 861.246302 -1900.000000
   vertex -344.415089 831.491579 -1900.000000
   vertex -344.415089 831.491579 -700.000000
  endloop
 endfacet
 facet normal -0.336890 0.941544 0.000000
  outer loop
   vertex -261.256210 861.246302 -1900.000000
   vertex -344.415089 831.491579 -700.000000
   vertex -261.256210 861.246302 -700.000000
  endloop
 endfacet
 facet normal -0.427555 0.903989 0.000000
  outer loop
   vertex -344.415089 831.491579 -1900.000000
   vertex -424.257063 793.729138 -1900.000000
   vertex -424.257063 793.729138 -700.000000
  endloop
 endfacet
 facet normal -0.427555 0.903989 0.000000
  outer loop
   vertex -344.415089 831.491579 -1900.000000
   vertex -424.257063 793.729138 -700.000000
   vertex -344.415089 831.491579 -700.000000
  endloop
 endfacet
 facet normal -0.514103 0.857729 0.000000
  outer loop
   vertex -424.257063 793.729138 -1900.000000
   vertex -500.013210 748.322651 -1900.000000
   vertex -500.013210 748.322651 -700.000000
  endloop
 endfacet
 facet normal -0.514103 0.857729 0.000000
  outer loop
   vertex -424.257063 793.729138 -1900.000000
   vertex -500.013210 748.322651 -700.000000
   vertex -424.257063 793.729138 -700.000000
  endloop
 endfacet
 facet normal -0.595699 0.803208 0.000000
  outer loop
   vertex -500.013210 748.322651 -1900.000000
   vertex -570.953956 695.709408 -1900.000000
   vertex -570.953956 695.709408 -700.000000
  endloop
 endfacet
 facet normal -0.595699 0.803208 0.000000
  outer loop
   vertex -500.013210 748.322651 -1900.000000
   vertex -570.953956 695.709408 -700.000000
   vertex -500.013210 748.322651 -700.000000
  endloop
 endfacet
 facet normal -0.671559 0.740951 0.000000
  outer loop
   vertex -570.953956 695.709408 -1900.000000
   vertex -636.396103 636.396103 -1900.000000
   vertex -636.396103 636.396103 -700.000000
  endloop
 endfacet
 facet normal -0.671559 0.740951 0.000000
  outer loop
   vertex -570.953956 695.709408 -1900.000000
   vertex -636.396103 636.396103 -700.000000
   vertex -570.953956 695.709408 -700.000000
  endloop
 endfacet
 facet normal -0.740951 0.671559 0.000000
  outer loop
   vertex -636.396103 636.396103 -1900.000000
   vertex -695.709408 570.953956 -1900.000000
   vertex -695.709408 570.953956 -700.000000
  endloop
 endfacet
 facet normal -0.740951 0.671559 0.000000
  outer loop
   vertex -636.396103 636.396103 -1900.000000
   vertex -695.709408 570.953956 -700.000000
   vertex -636.396103 636.396103 -700.000000
  endloop
 endfacet
 facet normal -0.803208 0.595699 0.000000
  outer loop
   vertex -695.709408 570.953956 -1900.000000
   vertex -748.322651 500.013210 -1900.000000
   vertex -748.322651 500.013210 -700.000000
  endloop
 endfacet
 facet normal -0.803208 0.595699 0.000000
  outer loop
   vertex -695.709408 570.953956 -1900.000000
   vertex -748.322651 500.013210 -700.000000
   vertex -695.709408 570.953956 -700.000000
  endloop
 endfacet
 facet normal -0.857729 0.514103 0.000000
  outer loop
   vertex -748.322651 500.013210 -1900.000000
   vertex -793.729138 424.257063 -1900.000000
   vertex -793.729138 424.257063 -700.000000
  endloop
 endfacet
 facet normal -0.857729 0.514103 0.000000
  outer loop
   vertex -748.322651 500.013210 -1900.000000
   vertex -793.729138 424.257063 -700.000000
   vertex -748.322651 500.013210 -700.000000
  endloop
 endfacet
 facet normal -0.903989 0.427555 0.000000
  outer loop
   vertex -793.729138 424.257063 -1900.000000
   vertex -831.491579 344.415089 -1900.000000
   vertex -831.491579 344.415089 -700.000000
  endloop
 endfacet
 facet normal -0.903989 0.427555 0.000000
  outer loop
   vertex -793.729138 424.257063 -1900.000000
   vertex -831.491579 344.415089 -700.000000
   vertex -793.729138 424.257063 -700.000000
  endloop
 endfacet
 facet normal -0.941544 0.336890 0.000000
  outer loop
   vertex -831.491579 344.415089 -1900.000000
   vertex -861.246302 261.256210 -1900.000000
   vertex -861.246302 261.256210 -700.000000
  endloop
 endfacet
 facet normal -0.941544 0.336890 0.000000
  outer loop
   vertex -831.491579 344.415089 -1900.000000
   vertex -861.246302 261.256210 -700.000000
   vertex -831.491579 344.415089 -700.000000
  endloop
 endfacet
 facet normal -0.970031 0.242980 0.000000
  outer loop
   vertex -861.246302 261.256210 -1900.000000
   vertex -882.706752 175.581290 -1900.000000
   vertex -882.706752 175.581290 -700.000000
  endloop
 endfacet
 facet normal -0.970031 0.242980 0.000000
  outer loop
   vertex -861.246302 261.256210 -1900.000000
   vertex -882.706752 175.581290 -700.000000
   vertex -861.246302 261.256210 -700.000000
  endloop
 endfacet
 facet normal -0.989177 0.146730 0.000000
  outer loop
   vertex -882.706752 175.581290 -1900.000000
   vertex -895.666254 88.215426 -1900.000000
   vertex -895.666254 88.215426 -700.000000
  endloop
 endfacet
 facet normal -0.989177 0.146730 0.000000
  outer loop
   vertex -882.706752 175.581290 -1900.000000
   vertex -895.666254 88.215426 -700.000000
   vertex -882.706752 175.581290 -700.000000
  endloop
 endfacet
 facet normal -0.998795 0.049068 0.000000
  outer loop
   vertex -895.666254 88.215426 -1900.000000
   vertex -900.000000 0.000000 -1900.000000
   vertex -900.000000 0.000000 -700.000000
  endloop
 endfacet
 facet normal -0.998795 0.049068 0.000000
  outer loop
   vertex -895.666254 88.215426 -1900.000000
   vertex -900.000000 0.000000 -700.000000
   vertex -895.666254 88.215426 -700.000000
  endloop
 endfacet
 facet normal -0.998795 -0.049068 0.000000
  outer loop
   vertex -900.000000 0.000000 -1900.000000
   vertex -895.666254 -88.215426 -1900.000000
   vertex -895.666254 -88.215426 -700.000000
  endloop
 endfacet
 facet normal -0.998795 -0.049068 0.000000
  outer loop
   vertex -900.000000 0.000000 -1900.000000
   vertex -895.666254 -88.215426 -700.000000
   vertex -900.000000 0.000000 -700.000000
  endloop
 endfacet
 facet normal -0.989177 -0.146730 0.000000
  outer loop
   vertex -895.666254 -88.215426 -1900.000000
   vertex -882.706752 -175.581290 -1900.000000
   vertex -882.706752 -175.581290 -700.000000
  endloop
 endfacet
 facet normal -0.989177 -0.146730 0.000000
  outer loop
   vertex -895.666254 -88.215426 -1900.000000
   vertex -882.706752 -175.581290 -700.000000
   vertex -895.666254 -88.215426 -700.000000
  endloop
 endfacet
 facet normal -0.970031 -0.242980 0.000000
  outer loop
   vertex -882.706752 -175.581290 -1900.000000
   vertex -861.246302 -261.256210 -1900.000000
   vertex -861.246302 -261.256210 -700.000000
  endloop
 endfacet
 facet normal -0.970031 -0.242980 0.000000
  outer loop
   vertex -882.706752 -175.581290 -1900.000000
   vertex -861.246302 -261.256210 -700.000000
   vertex -882.706752 -175.581290 -700.000000
  endloop
 endfacet
 facet normal -0.941544 -0.336890 0.000000
  outer loop
   vertex -861.246302 -261.256210 -1900.000000
   vertex -831.491579 -344.415089 -1900.000000
   vertex -831.491579 -344.415089 -700.000000
  endloop
 endfacet
 facet normal -0.941544 -0.336890 0.000000
  outer loop
   vertex -861.246302 -261.256210 -1900.000000
   vertex -831.491579 -344.415089 -700.000000
   vertex -861.246302 -261.256210 -700.000000
  endloop
 endfacet
 facet normal -0.903989 -0.427555 0.000000
  outer loop
   vertex -831.491579 -344.415089 -1900.000000
   vertex -793.729138 -424.257063 -1900.000000
   vertex -793.729138 -424.257063 -700.000000
  endloop
 endfacet
 facet normal -0.903989 -0.427555 0.000000
  outer loop
   vertex -831.491579 -344.415089 -1900.000000
   vertex -793.729138 -424.257063 -700.000000
   vertex -831.491579 -344.415089 -700.000000
  endloop
 endfacet
 facet normal -0.857729 -0.514103 0.000000
  outer loop
   vertex -793.729138 -424.257063 -1900.000000
   vertex -748.322651 -500.013210 -1900.000000
   vertex -748.322651 -500.013210 -700.000000
  endloop
 endfacet
 facet normal -0.857729 -0.514103 0.000000
  outer loop
   vertex -793.729138 -424.257063 -1900.000000
   vertex -748.322651 -500.013210 -700.000000
   vertex -793.729138 -424.257063 -700.000000
  endloop
 endfacet
 facet normal -0.803208 -0.595699 0.000000
  outer loop
   vertex -748.322651 -500.013210 -1900.000000
   vertex -695.709408 -570.953956 -1900.000000
   vertex -695.709408 -570.953956 -700.000000
  endloop
 endfacet
 facet normal -0.803208 -0.595699 0.000000
  outer loop
   vertex -748.322651 -500.013210 -1900.000000
   vertex -695.709408 -570.953956 -700.000000
   vertex -748.322651 -500.013210 -700.000000
  endloop
 endfacet
 facet normal -0.740951 -0.671559 0.000000
  outer loop
   vertex -695.709408 -570.953956 -1900.000000
   vertex -636.396103 -636.396103 -1900.000000
   vertex -636.396103 -636.396103 -700.000000
  endloop
 endfacet
 facet normal -0.740951 -0.671559 0.000000
  outer loop
   vertex -695.709408 -570.953956 -1900.000000
   vertex -636.396103 -636.396103 -700.000000
   vertex -695.709408 -570.953956 -700.000000
  endloop
 endfacet
 facet normal -0.671559 -0.740951 0.000000
  outer loop
   vertex -636.396103 -636.396103 -1900.000000
   vertex -570.953956 -695.709408 -1900.000000
   vertex -570.953956 -695.709408 -700.000000
  endloop
 endfacet
 facet normal -0.671559 -0.740951 0.000000
  outer loop
   vertex -636.396103 -636.396103 -1900.000000
   vertex -570.953956 -695.709408 -700.000000
   vertex -636.396103 -636.396103 -700.000000
  endloop
 endfacet
 facet normal -0.595699 -0.803208 0.000000
  outer loop
   vertex -570.953956 -695.709408 -1900.000000
   vertex -500.013210 -748.322651 -1900.000000
   vertex -500.013210 -748.322651 -700.000000
  endloop
 endfacet
 facet normal -0.595699 -0.803208 0.000000
  outer loop
   vertex -570.953956 -695.709408 -1900.000000
   vertex -500.013210 -748.322651 -700.000000
   vertex -570.953956 -695.709408 -700.000000
  endloop
 endfacet
 facet normal -0.514103 -0.857729 0.000000
  outer loop
   vertex -500.013210 -748.322651 -1900.000000
   vertex -424.257063 -793.729138 -1900.000000
   vertex -424.257063 -793.729138 -700.000000
  endloop
 endfacet
 facet normal -0.514103 -0.857729 0.000000
  outer loop
   vertex -500.013210 -748.322651 -1900.000000
   vertex -424.257063 -793.729138 -700.000000
   vertex -500.013210 -748.322651 -700.000000
  endloop
 endfacet
 facet normal -0.427555 -0.903989 0.000000
  outer loop
   vertex -424.257063 -793.729138 -1900.000000
   vertex -344.415089 -831.491579 -1900.000000
   vertex -344.415089 -831.491579 -700.000000
  endloop
 endfacet
 facet normal -0.427555 -0.903989 0.000000
  outer loop
   vertex -424.257063 -793.729138 -1900.000000
   vertex -344.415089 -831.491579 -700.000000
   vertex -424.257063 -793.729138 -700.000000
  endloop
 endfacet
 facet normal -0.336890 -0.941544 0.000000
  outer loop
   vertex -344.415089 -831.491579 -1900.000000
   vertex -261.256210 -861.246302 -1900.000000
   vertex -261.256210 -861.246302 -700.000000
  endloop
 endfacet
 facet normal -0.336890 -0.941544 0.000000
  outer loop
   vertex -344.415089 -831.491579 -1900.000000
   vertex -261.256210 -861.246302 -700.000000
   vertex -344.415089 -831.491579 -700.000000
  endloop
 endfacet
 facet normal -0.242980 -0.970031 0.000000
  outer loop
   vertex -261.256210 -861.246302 -1900.000000
   vertex -175.581290 -882.706752 -1900.000000
   vertex -175.581290 -882.706752 -700.000000
  endloop
 endfacet
 facet normal -0.242980 -0.970031 0.000000
  outer loop
   vertex -261.256210 -861.246302 -1900.000000
   vertex -175.581290 -882.706752 -700.000000
   vertex -261.256210 -861.246302 -700.000000
  endloop
 endfacet
 facet normal -0.146730 -0.989177 0.000000
  outer loop
   vertex -175.581290 -882.706752 -1900.000000
   vertex -88.215426 -895.666254 -1900.000000
   vertex -88.215426 -895.666254 -700.000000
  endloop
 endfacet
 facet normal -0.146730 -0.989177 0.000000
  outer loop
   vertex -175.581290 -882.706752 -1900.000000
   vertex -88.215426 -895.666254 -700.000000
   vertex -175.581290 -882.706752 -700.000000
  endloop
 endfacet
 facet normal -0.049068 -0.998795 0.000000
  outer loop
   vertex -88.215426 -895.666254 -1900.000000
   vertex -0.000000 -900.000000 -1900.000000
   vertex -0.000000 -900.000000 -700.000000
  endloop
 endfacet
 facet normal -0.049068 -0.998795 0.000000
  outer loop
   vertex -88.215426 -895.666254 -1900.000000
   vertex -0.000000 -900.000000 -700.000000
   vertex -88.215426 -895.666254 -700.000000
  endloop
 endfacet
 facet normal 0.049068 -0.998795 0.000000
  outer loop
   vertex -0.000000 -900.000000 -1900.000000
   vertex 88.215426 -895.666254 -1900.000000
   vertex 88.215426 -895.666254 -700.000000
  endloop
 endfacet
 facet normal 0.049068 -0.998795 0.000000
  outer loop
   vertex -0.000000 -900.000000 -1900.000000
   vertex 88.215426 -895.666254 -700.000000
   vertex -0.000000 -900.000000 -700.000000
  endloop
 endfacet
 facet normal 0.146730 -0.989177 0.000000
  outer loop
   vertex 88.215426 -895.666254 -1900.000000
   vertex 175.581290 -882.706752 -1900.000000
   vertex 175.581290 -882.706752 -700.000000
  endloop
 endfacet
 facet normal 0.146730 -0.989177 0.000000
  outer loop
   vertex 88.215426 -895.666254 -1900.000000
   vertex 175.581290 -882.706752 -700.000000
   vertex 88.215426 -895.666254 -700.000000
  endloop
 endfacet
 facet normal 0.242980 -0.970031 0.000000
  outer loop
   vertex 175.581290 -882.706752 -1900.000000
   vertex 261.256210 -861.246302 -1900.000000
   vertex 261.256210 -861.246302 -700.000000
  endloop
 endfacet
 facet normal 0.242980 -0.970031 0.000000
  outer loop
   vertex 175.581290 -882.706752 -1900.000000
   vertex 261.256210 -861.246302 -700.000000
   vertex 175.581290 -882.706752 -700.000000
  endloop
 endfacet
 facet normal 0.336890 -0.941544 0.000000
  outer loop
   vertex 261.256210 -861.246302 -1900.000000
   vertex 344.415089 -831.491579 -1900.000000
   vertex 344.415089 -831.491579 -700.000000
  endloop
 endfacet
 facet normal 0.336890 -0.941544 0.000000
  outer loop
   vertex 261.256210 -861.246302 -1900.000000
   vertex 344.415089 -831.491579 -700.000000
   vertex 261.256210 -861.246302 -700.000000
  endloop
 endfacet
 facet normal 0.427555 -0.903989 0.000000
  outer loop
   vertex 344.415089 -831.491579 -1900.000000
   vertex 424.257063 -793.729138 -1900.000000
   vertex 424.257063 -793.729138 -700.000000
  endloop
 endfacet
 facet normal 0.427555 -0.903989 0.000000
  outer loop
   vertex 344.415089 -831.491579 -1900.000000
   vertex 424.257063 -793.729138 -700.000000
   vertex 344.415089 -831.491579 -700.000000
  endloop
 endfacet
 facet normal 0.514103 -0.857729 0.000000
  outer loop
   vertex 424.257063 -793.729138 -1900.000000
   vertex 500.013210 -748.322651 -1900.000000
   vertex 500.013210 -748.322651 -700.000000
  endloop
 endfacet
 facet normal 0.514103 -0.857729 0.000000
  outer loop
   vertex 424.257063 -793.729138 -1900.000000
   vertex 500.013210 -748.322651 -700.000000
   vertex 424.257063 -793.729138 -700.000000
  endloop
 endfacet
 facet normal 0.595699 -0.803208 0.000000
  outer loop
   vertex 500.013210 -748.322651 -1900.000000
   vertex 570.953956 -695.709408 -1900.000000
   vertex 570.953956 -695.709408 -700.000000
  endloop
 endfacet
 facet normal 0.595699 -0.803208 0.000000
  outer loop
   vertex 500.013210 -748.322651 -1900.000000
   vertex 570.953956 -695.709408 -700.000000
   vertex 500.013210 -748.322651 -700.000000
  endloop
 endfacet
 facet normal 0.671559 -0.740951 0.000000
  outer loop
   vertex 570.953956 -695.709408 -1900.000000
   vertex 636.396103 -636.396103 -1900.000000
   vertex 636.396103 -636.396103 -700.000000
  endloop
 endfacet
 facet normal 0.671559 -0.740951 0.000000
  outer loop
   vertex 570.953956 -695.709408 -1900.000000
   vertex 636.396103 -636.396103 -700.000000
   vertex 570.953956 -695.709408 -700.000000
  endloop
 endfacet
 facet normal 0.740951 -0.671559 0.000000
  outer loop
   vertex 636.396103 -636.396103 -1900.000000
   vertex 695.709408 -570.953956 -1900.000000
   vertex 695.709408 -570.953956 -700.000000
  endloop
 endfacet
 facet normal 0.740951 -0.671559 0.000000
  outer loop
   vertex 636.396103 -636.396103 -1900.000000
   vertex 695.709408 -570.953956 -700.000000
   vertex 636.396103 -636.396103 -700.000000
  endloop
 endfacet
 facet normal 0.803208 -0.595699 0.000000
  outer loop
   vertex 695.709408 -570.953956 -1900.000000
   vertex 748.322651 -500.013210 -1900.000000
   vertex 748.322651 -500.013210 -700.000000
  endloop
 endfacet
 facet normal 0.803208 -0.595699 0.000000
  outer loop
   vertex 695.709408 -570.953956 -1900.000000
   vertex 748.322651 -500.013210 -700.000000
   vertex 695.709408 -570.953956 -700.000000
  endloop
 endfacet
 facet normal 0.857729 -0.514103 0.000000
  outer loop
   vertex 748.322651 -500.013210 -1900.000000
   vertex 793.729138 -424.257063 -1900.000000
   vertex 793.729138 -424.257063 -700.000000
  endloop
 endfacet
 facet normal 0.857729 -0.514103 0.000000
  outer loop
   vertex 748.322651 -500.013210 -1900.000000
   vertex 793.729138 -424.257063 -700.000000
   vertex 748.322651 -500.013210 -700.000000
  endloop
 endfacet
 facet normal 0.903989 -0.427555 0.000000
  outer loop
   vertex 793.729138 -424.257063 -1900.000000
   vertex 831.491579 -344.415089 -1900.000000
   vertex 831.491579 -344.415089 -700.000000
  endloop
 endfacet
 facet normal 0.903989 -0.427555 0.000000
  outer loop
   vertex 793.729138 -424.257063 -1900.000000
   vertex 831.491579 -344.415089 -700.000000
   vertex 793.729138 -424.257063 -700.000000
  endloop
 endfacet
 facet normal 0.941544 -0.336890 0.000000
  outer loop
   vertex 831.491579 -344.415089 -1900.000000
   vertex 861.246302 -261.256210 -1900.000000
   vertex 861.246302 -261.256210 -700.000000
  endloop
 endfacet
 facet normal 0.941544 -0.336890 0.000000
  outer loop
   vertex 831.491579 -344.415089 -1900.000000
   vertex 861.246302 -261.256210 -700.000000
   vertex 831.491579 -344.415089 -700.000000
  endloop
 endfacet
 facet normal 0.970031 -0.242980 0.000000
  outer loop
   vertex 861.246302 -261.256210 -1900.000000
   vertex 882.706752 -175.581290 -1900.000000
   vertex 882.706752 -175.581290 -700.000000
  endloop
 endfacet
 facet normal 0.970031 -0.242980 0.000000
  outer loop
   vertex 861.246302 -261.256210 -1900.000000
   vertex 882.706752 -175.581290 -700.000000
   vertex 861.246302 -261.256210 -700.000000
  endloop
 endfacet
 facet normal 0.989177 -0.146730 0.000000
  outer loop
   vertex 882.706752 -175.581290 -1900.000000
   vertex 895.666254 -88.215426 -1900.000000
   vertex 895.666254 -88.215426 -700.000000
  endloop
 endfacet
 facet normal 0.989177 -0.146730 0.000000
  outer loop
   vertex 882.706752 -175.581290 -1900.000000
   vertex 895.666254 -88.215426 -700.000000
   vertex 882.706752 -175.581290 -700.000000
  endloop
 endfacet
 facet normal 0.998795 -0.049068 0.000000
  outer loop
   vertex 895.666254 -88.215426 -1900.000000
   vertex 900.000000 0.000000 -1900.000000
   vertex 900.000000 0.000000 -700.000000
  endloop
 endfacet
 facet normal 0.998795 -0.049068 0.000000
  outer loop
   vertex 895.666254 -88.215426 -1900.000000
   vertex 900.000000 0.000000 -700.000000
   vertex 895.666254 -88.215426 -700.000000
  endloop
 endfacet
 facet normal 0.000000 0.000000 -1.000000
  outer loop
   vertex 0.000000 0.000000 -1900.000000
   vertex 895.666254 88.215426 -1900.000000
   vertex 900.000000 0.000000 -1900.000000
  endloop
 endfacet
 facet normal 0.000000 0.000000 1.000000
  outer loop
   vertex 0.000000 0.000000 -700.000000
   vertex 900.000000 0.000000 -700.000000
   vertex 895.666254 88.215426 -700.000000
  endloop
 endfacet
 facet normal 0.000000 0.000000 -1.000000
  outer loop
   vertex 0.000000 0.000000 -1900.000000
   vertex 882.706752 175.581290 -1900.000000
   vertex 895.666254 88.215426 -1900.000000
  endloop
 endfacet
 facet normal 0.000000 0.000000 1.000000
  outer loop
   vertex 0.000000 0.000000 -700.000000
   vertex 895.666254 88.215426 -700.000000
   vertex 882.706752 175.581290 -700.000000
  endloop
 endfacet
 facet normal 0.000000 0.000000 -1.000000
  outer loop
   vertex 0.000000 0.000000 -1900.000000
   vertex 861.246302 261.256210 -1900.000000
   vertex 882.706752 175.581290 -1900.000000
  endloop
 endfacet
 facet normal 0.000000 0.000000 1.000000
  outer loop
   vertex 0.000000 0.000000 -700.000000
   vertex 882.706752 175.581290 -700.000000
   vertex 861.246302 261.256210 -700.000000
  endloop
 endfacet
 facet normal 0.000000 0.000000 -1.000000
  outer loop
   vertex 0.000000 0.000000 -1900.000000
   vertex 831.491579 344.415089 -1900.000000
   vertex 861.246302 261.256210 -1900.000000
  endloop
 endfacet
 facet normal 0.000000 0.000000 1.000000
  outer loop
   vertex 0.000000 0.000000 -700.000000
   vertex 861.246302 261.256210 -700.000000
   vertex 831.491579 344.415089 -700.000000
  endloop
 endfacet
 facet normal 0.000000 0.000000 -1.000000
  outer loop
   vertex 0.000000 0.000000 -1900.000000
   vertex 793.729138 424.257063 -1900.000000
   vertex 831.491579 344.415089 -1900.000000
  endloop
 endfacet
 facet normal 0.000000 0.000000 1.000000
  outer loop
   vertex 0.000000 0.000000 -700.000000
   vertex 831.491579 344.415089 -700.000000
   vertex 793.729138 424.257063 -700.000000
  endloop
 endfacet
 facet normal 0.000000 0.000000 -1.000000
  outer loop
   vertex 0.000000 0.000000 -1900.000000
   vertex 748.322651 500.013210 -1900.000000
   vertex 793.729138 424.257063 -1900.000000
  endloop
 endfacet
 facet normal 0.000000 0.000000 1.000000
  outer loop
   vertex 0.000000 0.000000 -700.000000
   vertex 793.729138 424.257063 -700.000000
   vertex 748.322651 500.013210 -700.000000
  endloop
 endfacet
 facet normal 0.000000 0.000000 -1.000000
  outer loop
   vertex 0.000000 0.000000 -1900.000000
   vertex 695.709408 570.953956 -1900.000000
   vertex 748.322651 500.013210 -1900.000000
  endloop
 endfacet
 facet normal 0.000000 0.000000 1.000000
  outer loop
   vertex 0.000000 0.000000 -700.000000
   vertex 748.322651 500.013210 -700.000000
   vertex 695.709408 570.953956 -700.000000
  endloop
 endfacet
 facet normal 0.000000 0.000000 -1.000000
  outer loop
   vertex 0.000000 0.000000 -1900.000000
   vertex 636.396103 636.396103 -1900.000000
   vertex 695.709408 570.953956 -1900.000000
  endloop
 endfacet
 facet normal 0.000000 0.000000 1.000000
  outer loop
   vertex 0.000000 0.000000 -700.000000
   vertex 695.709408 570.953956 -700.000000
   vertex 636.396103 636.396103 -700.000000
  endloop
 endfacet
 facet normal 0.000000 0.000000 -1.000000
  outer loop
   vertex 0.000000 0.000000 -1900.000000
   vertex 570.953956 695.709408 -1900.000000
   vertex 636.396103 636.396103 -1900.000000
  endloop
 endfacet
 facet normal 0.000000 0.000000 1.000000
  outer loop
   vertex 0.000000 0.000000 -700.000000
   vertex 636.396103 636.396103 -700.000000
   vertex 570.953956 695.709408 -700.000000
  endloop
 endfacet
 facet normal 0.000000 0.000000 -1.000000
  outer loop
   vertex 0.000000 0.000000 -1900.000000
   vertex 500.013210 748.322651 -1900.000000
   vertex 570.953956 695.709408 -1900.000000
  endloop
 endfacet
 facet normal 0.000000 0.000000 1.000000
  outer loop
   vertex 0.000000 0.000000 -700.000000
   vertex 570.953956 695.709408 -700.000000
   vertex 500.013210 748.322651 -700.000000
  endloop
 endfacet
 facet normal 0.000000 0.000000 -1.000000
  outer loop
   vertex 0.000000 0.000000 -1900.000000
   vertex 424.257063 793.729138 -1900.000000
   vertex 500.013210 748.322651 -1900.000000
  endloop
 endfacet
 facet normal 0.000000 0.000000 1.000000
  outer loop
   vertex 0.000000 0.000000 -700.000000
   vertex 500.013210 748.322651 -700.000000
   vertex 424.257063 793.729138 -700.000000
  endloop
 endfacet
 facet normal 0.000000 0.000000 -1.000000
  outer loop
   vertex 0.000000 0.000000 -1900.000000
   vertex 344.415089 831.491579 -1900.000000
   vertex 424.257063 793.729138 -1900.000000
  endloop
 endfacet
 facet normal 0.000000 0.000000 1.000000
  outer loop
   vertex 0.000000 0.000000 -700.000000
   vertex 424.257063 793.729138 -700.000000
   vertex 344.415089 831.491579 -700.000000
  endloop
 endfacet
 facet normal 0.000000 0.000000 -1.000000
  outer loop
   vertex 0.000000 0.000000 -1900.000000
   vertex 261.256210 861.246302 -1900.000000
   vertex 344.415089 831.491579 -1900.000000
  endloop
 endfacet
 facet normal 0.000000 0.000000 1.000000
  outer loop
   vertex 0.000000 0.000000 -700.000000
   vertex 344.415089 831.491579 -700.000000
   vertex 261.256210 861.246302 -700.000000
  endloop
 endfacet
 facet normal 0.000000 0.000000 -1.000000
  outer loop
   vertex 0.000000 0.000000 -1900.000000
   vertex 175.581290 882.706752 -1900.000000
   vertex 261.256210 861.246302 -1900.000000
  endloop
 endfacet
 facet normal 0.000000 0.000000 1.000000
  outer loop
   vertex 0.000000 0.000000 -700.000000
   vertex 261.256210 861.246302 -700.000000
   vertex 175.581290 882.706752 -700.000000
  endloop
 endfacet
 facet normal 0.000000 0.000000 -1.000000
  outer loop
   vertex 0.000000 0.000000 -1900.000000
   vertex 88.215426 895.666254 -1900.000000
   vertex 175.581290 882.706752 -1900.000000
  endloop
 endfacet
 facet normal 0.000000 0.000000 1.000000
  outer loop
   vertex 0.000000 0.000000 -700.000000
   vertex 175.581290 882.706752 -700.000000
   vertex 88.215426 895.666254 -700.000000
  endloop
 endfacet
 facet normal 0.000000 0.000000 -1.000000
  outer loop
   vertex 0.000000 0.000000 -1900.000000
   vertex 0.000000 900.000000 -1900.000000
   vertex 88.215426 895.666254 -1900.000000
  endloop
 endfacet
 facet normal 0.000000 0.000000 1.000000
  outer loop
   vertex 0.000000 0.000000 -700.000000
   vertex 88.215426 895.666254 -700.000000
   vertex 0.000000 900.000000 -700.000000
  endloop
 endfacet
 facet normal 0.000000 0.000000 -1.000000
  outer loop
   vertex 0.000000 0.000000 -1900.000000
   vertex -88.215426 895.666254 -1900.000000
   vertex 0.000000 900.000000 -1900.000000
  endloop
 endfacet
 facet normal 0.000000 -0.000000 1.000000
  outer loop
   vertex 0.000000 0.000000 -700.000000
   vertex 0.000000 900.000000 -700.000000
   vertex -88.215426 895.666254 -700.000000
  endloop
 endfacet
 facet normal 0.000000 0.000000 -1.000000
  outer loop
   vertex 0.000000 0.000000 -1900.000000
   vertex -175.581290 882.706752 -1900.000000
   vertex -88.215426 895.666254 -1900.000000
  endloop
 endfacet
 facet normal 0.000000 0.000000 1.000000
  outer loop
   vertex 0.000000 0.000000 -700.000000
   vertex -88.215426 895.666254 -700.000000
   vertex -175.581290 882.706752 -700.000000
  endloop
 endfacet
 facet normal 0.000000 0.000000 -1.000000
  outer loop
   vertex 0.000000 0.000000 -1900.000000
   vertex -261.256210 861.246302 -1900.000000
   vertex -175.581290 882.706752 -1900.000000
  endloop
 endfacet
 facet normal 0.000000 0.000000 1.000000
  outer loop
   vertex 0.000000 0.000000 -700.000000
   vertex -175.581290 882.706752 -700.000000
   vertex -261.256210 861.246302 -700.000000
  endloop
 endfacet
 facet normal 0.000000 0.000000 -1.000000
  outer loop
   vertex 0.000000 0.000000 -1900.000000
   vertex -344.415089 831.491579 -1900.000000
   vertex -261.256210 861.246302 -1900.000000
  endloop
 endfacet
 facet normal 0.000000 0.000000 1.000000
  outer loop
   vertex 0.000000 0.000000 -700.000000
   vertex -261.256210 861.246302 -700.000000
   vertex -344.415089 831.491579 -700.000000
  endloop
 endfacet
 facet normal 0.000000 0.000000 -1.000000
  outer loop
   vertex 0.000000 0.000000 -1900.000000
   vertex -424.257063 793.729138 -1900.000000
   vertex -344.415089 831.491579 -1900.000000
  endloop
 endfacet
 facet normal 0.000000 0.000000 1.000000
  outer loop
   vertex 0.000000 0.000000 -700.000000
   vertex -344.415089 831.491579 -700.000000
   vertex -424.257063 793.729138 -700.000000
  endloop
 endfacet
 facet normal 0.000000 0.000000 -1.000000
  outer loop
   vertex 0.000000 0.000000 -1900.000000
   vertex -500.013210 748.322651 -1900.000000
   vertex -424.257063 793.729138 -1900.000000
  endloop
 endfacet
 facet normal 0.000000 0.000000 1.000000
  outer loop
   vertex 0.000000 0.000000 -700.000000
   vertex -424.257063 793.729138 -700.000000
   vertex -500.013210 748.322651 -700.000000
  endloop
 endfacet
 facet normal 0.000000 0.000000 -1.000000
  outer loop
   vertex 0.000000 0.000000 -1900.000000
   vertex -570.953956 695.709408 -1900.000000
   vertex -500.013210 748.322651 -1900.000000
  endloop
 endfacet
 facet normal 0.000000 0.000000 1.000000
  outer loop
   vertex 0.000000 0.000000 -700.000000
   vertex -500.013210 748.322651 -700.000000
   vertex -570.953956 695.709408 -700.000000
  endloop
 endfacet
 facet normal 0.000000 0.000000 -1.000000
  outer loop
   vertex 0.000000 0.000000 -1900.000000
   vertex -636.396103 636.396103 -1900.000000
   vertex -570.953956 695.709408 -1900.000000
  endloop
 endfacet
 facet normal 0.000000 0.000000 1.000000
  outer loop
   vertex 0.000000 0.000000 -700.000000
   vertex -570.953956 695.709408 -700.000000
   vertex -636.396103 636.396103 -700.000000
  endloop
 endfacet
 facet normal 0.000000 0.000000 -1.000000
  outer loop
   vertex 0.000000 0.000000 -1900.000000
   vertex -695.709408 570.953956 -1900.000000
   vertex -636.396103 636.396103 -1900.000000
  endloop
 endfacet
 facet normal 0.000000 0.000000 1.000000
  outer loop
   vertex 0.000000 0.000000 -700.000000
   vertex -636.396103 636.396103 -700.000000
   vertex -695.709408 570.953956 -700.000000
  endloop
 endfacet
 facet normal 0.000000 0.000000 -1.000000
  outer loop
   vertex 0.000000 0.000000 -1900.000000
   vertex -748.322651 500.013210 -1900.000000
   vertex -695.709408 570.953956 -1900.000000
  endloop
 endfacet
 facet normal 0.000000 0.000000 1.000000
  outer loop
   vertex 0.000000 0.000000 -700.000000
   vertex -695.709408 570.953956 -700.000000
   vertex -748.322651 500.013210 -700.000000
  endloop
 endfacet
 facet normal 0.000000 0.000000 -1.000000
  outer loop
   vertex 0.000000 0.000000 -1900.000000
   vertex -793.729138 424.257063 -1900.000000
   vertex -748.322651 500.013210 -1900.000000
  endloop
 endfacet
 facet normal 0.000000 0.000000 1.000000
  outer loop
   vertex 0.000000 0.000000 -700.000000
   vertex -748.322651 500.013210 -700.000000
   vertex -793.729138 424.257063 -700.000000
  endloop
 endfacet
 facet normal 0.000000 0.000000 -1.000000
  outer loop
   vertex 0.000000 0.000000 -1900.000000
   vertex -831.491579 344.415089 -1900.000000
   vertex -793.729138 424.257063 -1900.000000
  endloop
 endfacet
 facet normal 0.000000 0.000000 1.000000
  outer loop
   vertex 0.000000 0.000000 -700.000000
   vertex -793.729138 424.257063 -700.000000
   vertex -831.491579 344.415089 -700.000000
  endloop
 endfacet
 facet normal 0.000000 0.000000 -1.000000
  outer loop
   vertex 0.000000 0.000000 -1900.000000
   vertex -861.246302 261.256210 -1900.000000
   vertex -831.491579 344.415089 -1900.000000
  endloop
 endfacet
 facet normal 0.000000 0.000000 1.000000
  outer loop
   vertex 0.000000 0.000000 -700.000000
   vertex -831.491579 344.415089 -700.000000
   vertex -861.246302 261.256210 -700.000000
  endloop
 endfacet
 facet normal 0.000000 0.000000 -1.000000
  outer loop
   vertex 0.000000 0.000000 -1900.000000
   vertex -882.706752 175.581290 -1900.000000
   vertex -861.246302 261.256210 -1900.000000
  endloop
 endfacet
 facet normal 0.000000 0.000000 1.000000
  outer loop
   vertex 0.000000 0.000000 -700.000000
   vertex -861.246302 261.256210 -700.000000
   vertex -882.706752 175.581290 -700.000000
  endloop
 endfacet
 facet normal 0.000000 0.000000 -1.000000
  outer loop
   vertex 0.000000 0.000000 -1900.000000
   vertex -895.666254 88.215426 -1900.000000
   vertex -882.706752 175.581290 -1900.000000
  endloop
 endfacet
 facet normal 0.000000 0.000000 1.000000
  outer loop
   vertex 0.000000 0.000000 -700.000000
   vertex -882.706752 175.581290 -700.000000
   vertex -895.666254 88.215426 -700.000000
  endloop
 endfacet
 facet normal 0.000000 0.000000 -1.000000
  outer loop
   vertex 0.000000 0.000000 -1900.000000
   vertex -900.000000 0.000000 -1900.000000
   vertex -895.666254 88.215426 -1900.000000
  endloop
 endfacet
 facet normal 0.000000 0.000000 1.000000
  outer loop
   vertex 0.000000 0.000000 -700.000000
   vertex -895.666254 88.215426 -700.000000
   vertex -900.000000 0.000000 -700.000000
  endloop
 endfacet
 facet normal -0.000000 0.000000 -1.000000
  outer loop
   vertex 0.000000 0.000000 -1900.000000
   vertex -895.666254 -88.215426 -1900.000000
   vertex -900.000000 0.000000 -1900.000000
  endloop
 endfacet
 facet normal 0.000000 0.000000 1.000000
  outer loop
   vertex 0.000000 0.000000 -700.000000
   vertex -900.000000 0.000000 -700.000000
   vertex -895.666254 -88.215426 -700.000000
  endloop
 endfacet
 facet normal 0.000000 0.000000 -1.000000
  outer loop
   vertex 0.000000 0.000000 -1900.000000
   vertex -882.706752 -175.581290 -1900.000000
   vertex -895.666254 -88.215426 -1900.000000
  endloop
 endfacet
 facet normal 0.000000 0.000000 1.000000
  outer loop
   vertex 0.000000 0.000000 -700.000000
   vertex -895.666254 -88.215426 -700.000000
   vertex -882.706752 -175.581290 -700.000000
  endloop
 endfacet
 facet normal 0.000000 0.000000 -1.000000
  outer loop
   vertex 0.000000 0.000000 -1900.000000
   vertex -861.246302 -261.256210 -1900.000000
   vertex -882.706752 -175.581290 -1900.000000
  endloop
 endfacet
 facet normal 0.000000 0.000000 1.000000
  outer loop
   vertex 0.000000 0.000000 -700.000000
   vertex -882.706752 -175.581290 -700.000000
   vertex -861.246302 -261.256210 -700.000000
  endloop
 endfacet
 facet normal 0.000000 0.000000 -1.000000
  outer loop
   vertex 0.000000 0.000000 -1900.000000
   vertex -831.491579 -344.415089 -1900.000000
   vertex -861.246302 -261.256210 -1900.000000
  endloop
 endfacet
 facet normal 0.000000 0.000000 1.000000
  outer loop
   vertex 0.000000 0.000000 -700.000000
   vertex -861.246302 -261.256210 -700.000000
   vertex -831.491579 -344.415089 -700.000000
  endloop
 endfacet
 facet normal 0.000000 0.000000 -1.000000
  outer loop
   vertex 0.000000 0.000000 -1900.000000
   vertex -793.729138 -424.257063 -1900.000000
   vertex -831.491579 -344.415089 -1900.000000
  endloop
 endfacet
 facet normal 0.000000 0.000000 1.000000
  outer loop
   vertex 0.000000 0.000000 -700.000000
   vertex -831.491579 -344.415089 -700.000000
   vertex -793.729138 -424.257063 -700.000000
  endloop
 endfacet
 facet normal 0.000000 0.000000 -1.000000
  outer loop
   vertex 0.000000 0.000000 -1900.000000
   vertex -748.322651 -500.013210 -1900.000000
   vertex -793.729138 -424.257063 -1900.000000
  endloop
 endfacet
 facet normal 0.000000 0.000000 1.000000
  outer loop
   vertex 0.000000 0.000000 -700.000000
   vertex -793.729138 -424.257063 -700.000000
   vertex -748.322651 -500.013210 -700.000000
  endloop
 endfacet
 facet normal 0.000000 0.000000 -1.000000
  outer loop
   vertex 0.000000 0.000000 -1900.000000
   vertex -695.709408 -570.953956 -1900.000000
   vertex -748.322651 -500.013210 -1900.000000
  endloop
 endfacet
 facet normal 0.000000 0.000000 1.000000
  outer loop
   vertex 0.000000 0.000000 -700.000000
   vertex -748.322651 -500.013210 -700.000000
   vertex -695.709408 -570.953956 -700.000000
  endloop
 endfacet
 facet normal 0.000000 0.000000 -1.000000
  outer loop
   vertex 0.000000 0.000000 -1900.000000
   vertex -636.396103 -636.396103 -1900.000000
   vertex -695.709408 -570.953956 -1900.000000
  endloop
 endfacet
 facet normal 0.000000 0.000000 1.000000
  outer loop
   vertex 0.000000 0.000000 -700.000000
   vertex -695.709408 -570.953956 -700.000000
   vertex -636.396103 -636.396103 -700.000000
  endloop
 endfacet
 facet normal 0.000000 0.000000 -1.000000
  outer loop
   vertex 0.000000 0.000000 -1900.000000
   vertex -570.953956 -695.709408 -1900.000000
   vertex -636.396103 -636.396103 -1900.000000
  endloop
 endfacet
 facet normal 0.000000 0.000000 1.000000
  outer loop
   vertex 0.000000 0.000000 -700.000000
   vertex -636.396103 -636.396103 -700.000000
   vertex -570.953956 -695.709408 -700.000000
  endloop
 endfacet
 facet normal 0.000000 0.000000 -1.000000
  outer loop
   vertex 0.000000 0.000000 -1900.000000
   vertex -500.013210 -748.322651 -1900.000000
   vertex -570.953956 -695.709408 -1900.000000
  endloop
 endfacet
 facet normal 0.000000 0.000000 1.000000
  outer loop
   vertex 0.000000 0.000000 -700.000000
   vertex -570.953956 -695.709408 -700.000000
   vertex -500.013210 -748.322651 -700.000000
  endloop
 endfacet
 facet normal 0.000000 0.000000 -1.000000
  outer loop
   vertex 0.000000 0.000000 -1900.000000
   vertex -424.257063 -793.729138 -1900.000000
   vertex -500.013210 -748.322651 -1900.000000
  endloop
 endfacet
 facet normal 0.000000 0.000000 1.000000
  outer loop
   vertex 0.000000 0.000000 -700.000000
   vertex -500.013210 -748.322651 -700.000000
   vertex -424.257063 -793.729138 -700.000000
  endloop
 endfacet
 facet normal 0.000000 0.000000 -1.000000
  outer loop
   vertex 0.000000 0.000000 -1900.000000
   vertex -344.415089 -831.491579 -1900.000000
   vertex -424.257063 -793.729138 -1900.000000
  endloop
 endfacet
 facet normal 0.000000 0.000000 1.000000
  outer loop
   vertex 0.000000 0.000000 -700.000000
   vertex -424.257063 -793.729138 -700.000000
   vertex -344.415089 -831.491579 -700.000000
  endloop
 endfacet
 facet normal 0.000000 0.000000 -1.000000
  outer loop
   vertex 0.000000 0.000000 -1900.000000
   vertex -261.256210 -861.246302 -1900.000000
   vertex -344.415089 -831.491579 -1900.000000
  endloop
 endfacet
 facet normal 0.000000 0.000000 1.000000
  outer loop
   vertex 0.000000 0.000000 -700.000000
   vertex -344.415089 -831.491579 -700.000000
   vertex -261.256210 -861.246302 -700.000000
  endloop
 endfacet
 facet normal 0.000000 0.000000 -1.000000
  outer loop
   vertex 0.000000 0.000000 -1900.000000
   vertex -175.581290 -882.706752 -1900.000000
   vertex -261.256210 -861.246302 -1900.000000
  endloop
 endfacet
 facet normal 0.000000 0.000000 1.000000
  outer loop
   vertex 0.000000 0.000000 -700.000000
   vertex -261.256210 -861.246302 -700.000000
   vertex -175.581290 -882.706752 -700.000000
  endloop
 endfacet
 facet normal 0.000000 0.000000 -1.000000
  outer loop
   vertex 0.000000 0.000000 -1900.000000
   vertex -88.215426 -895.666254 -1900.000000
   vertex -175.581290 -882.706752 -1900.000000
  endloop
 endfacet
 facet normal 0.000000 0.000000 1.000000
  outer loop
   vertex 0.000000 0.000000 -700.000000
   vertex -175.581290 -882.706752 -700.000000
   vertex -88.215426 -895.666254 -700.000000
  endloop
 endfacet
 facet normal 0.000000 0.000000 -1.000000
  outer loop
   vertex 0.000000 0.000000 -1900.000000
   vertex -0.000000 -900.000000 -1900.000000
   vertex -88.215426 -895.666254 -1900.000000
  endloop
 endfacet
 facet normal 0.000000 0.000000 1.000000
  outer loop
   vertex 0.000000 0.000000 -700.000000
   vertex -88.215426 -895.666254 -700.000000
   vertex -0.000000 -900.000000 -700.000000
  endloop
 endfacet
 facet normal 0.000000 -0.000000 -1.000000
  outer loop
   vertex 0.000000 0.000000 -1900.000000
   vertex 88.215426 -895.666254 -1900.000000
   vertex -0.000000 -900.000000 -1900.000000
  endloop
 endfacet
 facet normal 0.000000 0.000000 1.000000
  outer loop
   vertex 0.000000 0.000000 -700.000000
   vertex -0.000000 -900.000000 -700.000000
   vertex 88.215426 -895.666254 -700.000000
  endloop
 endfacet
 facet normal 0.000000 0.000000 -1.000000
  outer loop
   vertex 0.000000 0.000000 -1900.000000
   vertex 175.581290 -882.706752 -1900.000000
   vertex 88.215426 -895.666254 -1900.000000
  endloop
 endfacet
 facet normal 0.000000 0.000000 1.000000
  outer loop
   vertex 0.000000 0.000000 -700.000000
   vertex 88.215426 -895.666254 -700.000000
   vertex 175.581290 -882.706752 -700.000000
  endloop
 endfacet
 facet normal 0.000000 0.000000 -1.000000
  outer loop
   vertex 0.000000 0.000000 -1900.000000
   vertex 261.256210 -861.246302 -1900.000000
   vertex 175.581290 -882.706752 -1900.000000
  endloop
 endfacet
 facet normal 0.000000 0.000000 1.000000
  outer loop
   vertex 0.000000 0.000000 -700.000000
   vertex 175.581290 -882.706752 -700.000000
   vertex 261.256210 -861.246302 -700.000000
  endloop
 endfacet
 facet normal 0.000000 0.000000 -1.000000
  outer loop
   vertex 0.000000 0.000000 -1900.000000
   vertex 344.415089 -831.491579 -1900.000000
   vertex 261.256210 -861.246302 -1900.000000
  endloop
 endfacet
 facet normal 0.000000 0.000000 1.000000
  outer loop
   vertex 0.000000 0.000000 -700.000000
   vertex 261.256210 -861.246302 -700.000000
   vertex 344.415089 -831.491579 -700.000000
  endloop
 endfacet
 facet normal 0.000000 0.000000 -1.000000
  outer loop
   vertex 0.000000 0.000000 -1900.000000
   vertex 424.257063 -793.729138 -1900.000000
   vertex 344.415089 -831.491579 -1900.000000
  endloop
 endfacet
 facet normal 0.000000 0.000000 1.000000
  outer loop
   vertex 0.000000 0.000000 -700.000000
   vertex 344.415089 -831.491579 -700.000000
   vertex 424.257063 -793.729138 -700.000000
  endloop
 endfacet
 facet normal 0.000000 0.000000 -1.000000
  outer loop
   vertex 0.000000 0.000000 -1900.000000
   vertex 500.013210 -748.322651 -1900.000000
   vertex 424.257063 -793.729138 -1900.000000
  endloop
 endfacet
 facet normal 0.000000 0.000000 1.000000
  outer loop
   vertex 0.000000 0.000000 -700.000000
   vertex 424.257063 -793.729138 -700.000000
   vertex 500.013210 -748.322651 -700.000000
  endloop
 endfacet
 facet normal 0.000000 0.000000 -1.000000
  outer loop
   vertex 0.000000 0.000000 -1900.000000
   vertex 570.953956 -695.709408 -1900.000000
   vertex 500.013210 -748.322651 -1900.000000
  endloop
 endfacet
 facet normal 0.000000 0.000000 1.000000
  outer loop
   vertex 0.000000 0.000000 -700.000000
   vertex 500.013210 -748.322651 -700.000000
   vertex 570.953956 -695.709408 -700.000000
  endloop
 endfacet
 facet normal 0.000000 0.000000 -1.000000
  outer loop
   vertex 0.000000 0.000000 -1900.000000
   vertex 636.396103 -636.396103 -1900.000000
   vertex 570.953956 -695.709408 -1900.000000
  endloop
 endfacet
 facet normal 0.000000 0.000000 1.000000
  outer loop
   vertex 0.000000 0.000000 -700.000000
   vertex 570.953956 -695.709408 -700.000000
   vertex 636.396103 -636.396103 -700.000000
  endloop
 endfacet
 facet normal 0.000000 0.000000 -1.000000
  outer loop
   vertex 0.000000 0.000000 -1900.000000
   vertex 695.709408 -570.953956 -1900.000000
   vertex 636.396103 -636.396103 -1900.000000
  endloop
 endfacet
 facet normal 0.000000 0.000000 1.000000
  outer loop
   vertex 0.000000 0.000000 -700.000000
   vertex 636.396103 -636.396103 -700.000000
   vertex 695.709408 -570.953956 -700.000000
  endloop
 endfacet
 facet normal 0.000000 0.000000 -1.000000
  outer loop
   vertex 0.000000 0.000000 -1900.000000
   vertex 748.322651 -500.013210 -1900.000000
   vertex 695.709408 -570.953956 -1900.000000
  endloop
 endfacet
 facet normal 0.000000 0.000000 1.000000
  outer loop
   vertex 0.000000 0.000000 -700.000000
   vertex 695.709408 -570.953956 -700.000000
   vertex 748.322651 -500.013210 -700.000000
  endloop
 endfacet
 facet normal 0.000000 0.000000 -1.000000
  outer loop
   vertex 0.000000 0.000000 -1900.000000
   vertex 793.729138 -424.257063 -1900.000000
   vertex 748.322651 -500.013210 -1900.000000
  endloop
 endfacet
 facet normal 0.000000 0.000000 1.000000
  outer loop
   vertex 0.000000 0.000000 -700.000000
   vertex 748.322651 -500.013210 -700.000000
   vertex 793.729138 -424.257063 -700.000000
  endloop
 endfacet
 facet normal 0.000000 0.000000 -1.000000
  outer loop
   vertex 0.000000 0.000000 -1900.000000
   vertex 831.491579 -344.415089 -1900.000000
   vertex 793.729138 -424.257063 -1900.000000
  endloop
 endfacet
 facet normal 0.000000 0.000000 1.000000
  outer loop
   vertex 0.000000 0.000000 -700.000000
   vertex 793.729138 -424.257063 -700.000000
   vertex 831.491579 -344.415089 -700.000000
  endloop
 endfacet
 facet normal 0.000000 0.000000 -1.000000
  outer loop
   vertex 0.000000 0.000000 -1900.000000
   vertex 861.246302 -261.256210 -1900.000000
   vertex 831.491579 -344.415089 -1900.000000
  endloop
 endfacet
 facet normal 0.000000 0.000000 1.000000
  outer loop
   vertex 0.000000 0.000000 -700.000000
   vertex 831.491579 -344.415089 -700.000000
   vertex 861.246302 -261.256210 -700.000000
  endloop
 endfacet
 facet normal 0.000000 0.000000 -1.000000
  outer loop
   vertex 0.000000 0.000000 -1900.000000
   vertex 882.706752 -175.581290 -1900.000000
   vertex 861.246302 -261.256210 -1900.000000
  endloop
 endfacet
 facet normal 0.000000 0.000000 1.000000
  outer loop
   vertex 0.000000 0.000000 -700.000000
   vertex 861.246302 -261.256210 -700.000000
   vertex 882.706752 -175.581290 -700.000000
  endloop
 endfacet
 facet normal 0.000000 0.000000 -1.000000
  outer loop
   vertex 0.000000 0.000000 -1900.000000
   vertex 895.666254 -88.215426 -1900.000000
   vertex 882.706752 -175.581290 -1900.000000
  endloop
 endfacet
 facet normal 0.000000 0.000000 1.000000
  outer loop
   vertex 0.000000 0.000000 -700.000000
   vertex 882.706752 -175.581290 -700.000000
   vertex 895.666254 -88.215426 -700.000000
  endloop
 endfacet
 facet normal 0.000000 0.000000 -1.000000
  outer loop
   vertex 0.000000 0.000000 -1900.000000
   vertex 900.000000 0.000000 -1900.000000
   vertex 895.666254 -88.215426 -1900.000000
  endloop
 endfacet
 facet normal -0.000000 0.000000 1.000000
  outer loop
   vertex 0.000000 0.000000 -700.000000
   vertex 895.666254 -88.215426 -700.000000
   vertex 900.000000 0.000000 -700.000000
  endloop
 endfacet
endsolid F1_CHAMBER
