solid SIC_LOX_BRANCH
 facet normal 0.996195 0.087156 0.000000
  outer loop
   vertex 1441.250000 2165.000000 -350.000000
   vertex 1438.344483 2198.210214 -350.000000
   vertex 1438.344483 2198.210214 150.000000
  endloop
 endfacet
 facet normal 0.996195 0.087156 -0.000000
  outer loop
   vertex 1441.250000 2165.000000 -350.000000
   vertex 1438.344483 2198.210214 150.000000
   vertex 1441.250000 2165.000000 150.000000
  endloop
 endfacet
 facet normal 0.965926 0.258819 0.000000
  outer loop
   vertex 1438.344483 2198.210214 -350.000000
   vertex 1429.716214 2230.411352 -350.000000
   vertex 1429.716214 2230.411352 150.000000
  endloop
 endfacet
 facet normal 0.965926 0.258819 -0.000000
  outer loop
   vertex 1438.344483 2198.210214 -350.000000
   vertex 1429.716214 2230.411352 150.000000
   vertex 1438.344483 2198.210214 150.000000
  endloop
 endfacet
 facet normal 0.906308 0.422618 0.000000
  outer loop
   vertex 1429.716214 2230.411352 -350.000000
   vertex 1415.627358 2260.625000 -350.000000
   vertex 1415.627358 2260.625000 150.000000
  endloop
 endfacet
 facet normal 0.906308 0.422618 -0.000000
  outer loop
   vertex 1429.716214 2230.411352 -350.000000
   vertex 1415.627358 2260.625000 150.000000
   vertex 1429.716214 2230.411352 150.000000
  endloop
 endfacet
 facet normal 0.819152 0.573576 0.000000
  outer loop
   vertex 1415.627358 2260.625000 -350.000000
   vertex 1396.506000 2287.933130 -350.000000
   vertex 1396.506000 2287.933130 150.000000
  endloop
 endfacet
 facet normal 0.819152 0.573576 -0.000000
  outer loop
   vertex 1415.627358 2260.625000 -350.000000
   vertex 1396.506000 2287.933130 150.000000
   vertex 1415.627358 2260.625000 150.000000
  endloop
 endfacet
 facet normal 0.707107 0.707107 0.000000
  outer loop
   vertex 1396.506000 2287.933130 -350.000000
   vertex 1372.933130 2311.506000 -350.000000
   vertex 1372.933130 2311.506000 150.000000
  endloop
 endfacet
 facet normal 0.707107 0.707107 -0.000000
  outer loop
   vertex 1396.506000 2287.933130 -350.000000
   vertex 1372.933130 2311.506000 150.000000
   vertex 1396.506000 2287.933130 150.000000
  endloop
 endfacet
 facet normal 0.573576 0.819152 0.000000
  outer loop
   vertex 1372.933130 2311.506000 -350.000000
   vertex 1345.625000 2330.627358 -350.000000
   vertex 1345.625000 2330.627358 150.000000
  endloop
 endfacet
 facet normal 0.573576 0.819152 -0.000000
  outer loop
   vertex 1372.933130 2311.506000 -350.000000
   vertex 1345.625000 2330.627358 150.000000
   vertex 1372.933130 2311.506000 150.000000
  endloop
 endfacet
 facet normal 0.422618 0.906308 0.000000
  outer loop
   vertex 1345.625000 2330.627358 -350.000000
   vertex 1315.411352 2344.716214 -350.000000
   vertex 1315.411352 2344.716214 150.000000
  endloop
 endfacet
 facet normal 0.422618 0.906308 -0.000000
  outer loop
   vertex 1345.625000 2330.627358 -350.000000
   vertex 1315.411352 2344.716214 150.000000
   vertex 1345.625000 2330.627358 150.000000
  endloop
 endfacet
 facet normal 0.258819 0.965926 0.000000
  outer loop
   vertex 1315.411352 2344.716214 -350.000000
   vertex 1283.210214 2353.344483 -350.000000
   vertex 1283.210214 2353.344483 150.000000
  endloop
 endfacet
 facet normal 0.258819 0.965926 -0.000000
  outer loop
   vertex 1315.411352 2344.716214 -350.000000
   vertex 1283.210214 2353.344483 150.000000
   vertex 1315.411352 2344.716214 150.000000
  endloop
 endfacet
 facet normal 0.087156 0.996195 0.000000
  outer loop
   vertex 1283.210214 2353.344483 -350.000000
   vertex 1250.000000 2356.250000 -350.000000
   vertex 1250.000000 2356.250000 150.000000
  endloop
 endfacet
 facet normal 0.087156 0.996195 -0.000000
  outer loop
   vertex 1283.210214 2353.344483 -350.000000
   vertex 1250.000000 2356.250000 150.000000
   vertex 1283.210214 2353.344483 150.000000
  endloop
 endfacet
 facet normal -0.087156 0.996195 0.000000
  outer loop
   vertex 1250.000000 2356.250000 -350.000000
   vertex 1216.789786 2353.344483 -350.000000
   vertex 1216.789786 2353.344483 150.000000
  endloop
 endfacet
 facet normal -0.087156 0.996195 0.000000
  outer loop
   vertex 1250.000000 2356.250000 -350.000000
   vertex 1216.789786 2353.344483 150.000000
   vertex 1250.000000 2356.250000 150.000000
  endloop
 endfacet
 facet normal -0.258819 0.965926 0.000000
  outer loop
   vertex 1216.789786 2353.344483 -350.000000
   vertex 1184.588648 2344.716214 -350.000000
   vertex 1184.588648 2344.716214 150.000000
  endloop
 endfacet
 facet normal -0.258819 0.965926 0.000000
  outer loop
   vertex 1216.789786 2353.344483 -350.000000
   vertex 1184.588648 2344.716214 150.000000
   vertex 1216.789786 2353.344483 150.000000
  endloop
 endfacet
 facet normal -0.422618 0.906308 0.000000
  outer loop
   vertex 1184.588648 2344.716214 -350.000000
   vertex 1154.375000 2330.627358 -350.000000
   vertex 1154.375000 2330.627358 150.000000
  endloop
 endfacet
 facet normal -0.422618 0.906308 0.000000
  outer loop
   vertex 1184.588648 2344.716214 -350.000000
   vertex 1154.375000 2330.627358 150.000000
   vertex 1184.588648 2344.716214 150.000000
  endloop
 endfacet
 facet normal -0.573576 0.819152 0.000000
  outer loop
   vertex 1154.375000 2330.627358 -350.000000
   vertex 1127.066870 2311.506000 -350.000000
   vertex 1127.066870 2311.506000 150.000000
  endloop
 endfacet
 facet normal -0.573576 0.819152 0.000000
  outer loop
   vertex 1154.375000 2330.627358 -350.000000
   vertex 1127.066870 2311.506000 150.000000
   vertex 1154.375000 2330.627358 150.000000
  endloop
 endfacet
 facet normal -0.707107 0.707107 0.000000
  outer loop
   vertex 1127.066870 2311.506000 -350.000000
   vertex 1103.494000 2287.933130 -350.000000
   vertex 1103.494000 2287.933130 150.000000
  endloop
 endfacet
 facet normal -0.707107 0.707107 0.000000
  outer loop
   vertex 1127.066870 2311.506000 -350.000000
   vertex 1103.494000 2287.933130 150.000000
   vertex 1127.066870 2311.506000 150.000000
  endloop
 endfacet
 facet normal -0.819152 0.573576 0.000000
  outer loop
   vertex 1103.494000 2287.933130 -350.000000
   vertex 1084.372642 2260.625000 -350.000000
   vertex 1084.372642 2260.625000 150.000000
  endloop
 endfacet
 facet normal -0.819152 0.573576 0.000000
  outer loop
   vertex 1103.494000 2287.933130 -350.000000
   vertex 1084.372642 2260.625000 150.000000
   vertex 1103.494000 2287.933130 150.000000
  endloop
 endfacet
 facet normal -0.906308 0.422618 0.000000
  outer loop
   vertex 1084.372642 2260.625000 -350.000000
   vertex 1070.283786 2230.411352 -350.000000
   vertex 1070.283786 2230.411352 150.000000
  endloop
 endfacet
 facet normal -0.906308 0.422618 0.000000
  outer loop
   vertex 1084.372642 2260.625000 -350.000000
   vertex 1070.283786 2230.411352 150.000000
   vertex 1084.372642 2260.625000 150.000000
  endloop
 endfacet
 facet normal -0.965926 0.258819 0.000000
  outer loop
   vertex 1070.283786 2230.411352 -350.000000
   vertex 1061.655517 2198.210214 -350.000000
   vertex 1061.655517 2198.210214 150.000000
  endloop
 endfacet
 facet normal -0.965926 0.258819 0.000000
  outer loop
   vertex 1070.283786 2230.411352 -350.000000
   vertex 1061.655517 2198.210214 150.000000
   vertex 1070.283786 2230.411352 150.000000
  endloop
 endfacet
 facet normal -0.996195 0.087156 0.000000
  outer loop
   vertex 1061.655517 2198.210214 -350.000000
   vertex 1058.750000 2165.000000 -350.000000
   vertex 1058.750000 2165.000000 150.000000
  endloop
 endfacet
 facet normal -0.996195 0.087156 0.000000
  outer loop
   vertex 1061.655517 2198.210214 -350.000000
   vertex 1058.750000 2165.000000 150.000000
   vertex 1061.655517 2198.210214 150.000000
  endloop
 endfacet
 facet normal -0.996195 -0.087156 0.000000
  outer loop
   vertex 1058.750000 2165.000000 -350.000000
   vertex 1061.655517 2131.789786 -350.000000
   vertex 1061.655517 2131.789786 150.000000
  endloop
 endfacet
 facet normal -0.996195 -0.087156 0.000000
  outer loop
   vertex 1058.750000 2165.000000 -350.000000
   vertex 1061.655517 2131.789786 150.000000
   vertex 1058.750000 2165.000000 150.000000
  endloop
 endfacet
 facet normal -0.965926 -0.258819 0.000000
  outer loop
   vertex 1061.655517 2131.789786 -350.000000
   vertex 1070.283786 2099.588648 -350.000000
   vertex 1070.283786 2099.588648 150.000000
  endloop
 endfacet
 facet normal -0.965926 -0.258819 0.000000
  outer loop
   vertex 1061.655517 2131.789786 -350.000000
   vertex 1070.283786 2099.588648 150.000000
   vertex 1061.655517 2131.789786 150.000000
  endloop
 endfacet
 facet normal -0.906308 -0.422618 0.000000
  outer loop
   vertex 1070.283786 2099.588648 -350.000000
   vertex 1084.372642 2069.375000 -350.000000
   vertex 1084.372642 2069.375000 150.000000
  endloop
 endfacet
 facet normal -0.906308 -0.422618 0.000000
  outer loop
   vertex 1070.283786 2099.588648 -350.000000
   vertex 1084.372642 2069.375000 150.000000
   vertex 1070.283786 2099.588648 150.000000
  endloop
 endfacet
 facet normal -0.819152 -0.573576 0.000000
  outer loop
   vertex 1084.372642 2069.375000 -350.000000
   vertex 1103.494000 2042.066870 -350.000000
   vertex 1103.494000 2042.066870 150.000000
  endloop
 endfacet
 facet normal -0.819152 -0.573576 0.000000
  outer loop
   vertex 1084.372642 2069.375000 -350.000000
   vertex 1103.494000 2042.066870 150.000000
   vertex 1084.372642 2069.375000 150.000000
  endloop
 endfacet
 facet normal -0.707107 -0.707107 0.000000
  outer loop
   vertex 1103.494000 2042.066870 -350.000000
   vertex 1127.066870 2018.494000 -350.000000
   vertex 1127.066870 2018.494000 150.000000
  endloop
 endfacet
 facet normal -0.707107 -0.707107 0.000000
  outer loop
   vertex 1103.494000 2042.066870 -350.000000
   vertex 1127.066870 2018.494000 150.000000
   vertex 1103.494000 2042.066870 150.000000
  endloop
 endfacet
 facet normal -0.573576 -0.819152 0.000000
  outer loop
   vertex 1127.066870 2018.494000 -350.000000
   vertex 1154.375000 1999.372642 -350.000000
   vertex 1154.375000 1999.372642 150.000000
  endloop
 endfacet
 facet normal -0.573576 -0.819152 0.000000
  outer loop
   vertex 1127.066870 2018.494000 -350.000000
   vertex 1154.375000 1999.372642 150.000000
   vertex 1127.066870 2018.494000 150.000000
  endloop
 endfacet
 facet normal -0.422618 -0.906308 0.000000
  outer loop
   vertex 1154.375000 1999.372642 -350.000000
   vertex 1184.588648 1985.283786 -350.000000
   vertex 1184.588648 1985.283786 150.000000
  endloop
 endfacet
 facet normal -0.422618 -0.906308 0.000000
  outer loop
   vertex 1154.375000 1999.372642 -350.000000
   vertex 1184.588648 1985.283786 150.000000
   vertex 1154.375000 1999.372642 150.000000
  endloop
 endfacet
 facet normal -0.258819 -0.965926 0.000000
  outer loop
   vertex 1184.588648 1985.283786 -350.000000
   vertex 1216.789786 1976.655517 -350.000000
   vertex 1216.789786 1976.655517 150.000000
  endloop
 endfacet
 facet normal -0.258819 -0.965926 0.000000
  outer loop
   vertex 1184.588648 1985.283786 -350.000000
   vertex 1216.789786 1976.655517 150.000000
   vertex 1184.588648 1985.283786 150.000000
  endloop
 endfacet
 facet normal -0.087156 -0.996195 0.000000
  outer loop
   vertex 1216.789786 1976.655517 -350.000000
   vertex 1250.000000 1973.750000 -350.000000
   vertex 1250.000000 1973.750000 150.000000
  endloop
 endfacet
 facet normal -0.087156 -0.996195 0.000000
  outer loop
   vertex 1216.789786 1976.655517 -350.000000
   vertex 1250.000000 1973.750000 150.000000
   vertex 1216.789786 1976.655517 150.000000
  endloop
 endfacet
 facet normal 0.087156 -0.996195 0.000000
  outer loop
   vertex 1250.000000 1973.750000 -350.000000
   vertex 1283.210214 1976.655517 -350.000000
   vertex 1283.210214 1976.655517 150.000000
  endloop
 endfacet
 facet normal 0.087156 -0.996195 0.000000
  outer loop
   vertex 1250.000000 1973.750000 -350.000000
   vertex 1283.210214 1976.655517 150.000000
   vertex 1250.000000 1973.750000 150.000000
  endloop
 endfacet
 facet normal 0.258819 -0.965926 0.000000
  outer loop
   vertex 1283.210214 1976.655517 -350.000000
   vertex 1315.411352 1985.283786 -350.000000
   vertex 1315.411352 1985.283786 150.000000
  endloop
 endfacet
 facet normal 0.258819 -0.965926 0.000000
  outer loop
   vertex 1283.210214 1976.655517 -350.000000
   vertex 1315.411352 1985.283786 150.000000
   vertex 1283.210214 1976.655517 150.000000
  endloop
 endfacet
 facet normal 0.422618 -0.906308 0.000000
  outer loop
   vertex 1315.411352 1985.283786 -350.000000
   vertex 1345.625000 1999.372642 -350.000000
   vertex 1345.625000 1999.372642 150.000000
  endloop
 endfacet
 facet normal 0.422618 -0.906308 0.000000
  outer loop
   vertex 1315.411352 1985.283786 -350.000000
   vertex 1345.625000 1999.372642 150.000000
   vertex 1315.411352 1985.283786 150.000000
  endloop
 endfacet
 facet normal 0.573576 -0.819152 0.000000
  outer loop
   vertex 1345.625000 1999.372642 -350.000000
   vertex 1372.933130 2018.494000 -350.000000
   vertex 1372.933130 2018.494000 150.000000
  endloop
 endfacet
 facet normal 0.573576 -0.819152 0.000000
  outer loop
   vertex 1345.625000 1999.372642 -350.000000
   vertex 1372.933130 2018.494000 150.000000
   vertex 1345.625000 1999.372642 150.000000
  endloop
 endfacet
 facet normal 0.707107 -0.707107 0.000000
  outer loop
   vertex 1372.933130 2018.494000 -350.000000
   vertex 1396.506000 2042.066870 -350.000000
   vertex 1396.506000 2042.066870 150.000000
  endloop
 endfacet
 facet normal 0.707107 -0.707107 0.000000
  outer loop
   vertex 1372.933130 2018.494000 -350.000000
   vertex 1396.506000 2042.066870 150.000000
   vertex 1372.933130 2018.494000 150.000000
  endloop
 endfacet
 facet normal 0.819152 -0.573576 0.000000
  outer loop
   vertex 1396.506000 2042.066870 -350.000000
   vertex 1415.627358 2069.375000 -350.000000
   vertex 1415.627358 2069.375000 150.000000
  endloop
 endfacet
 facet normal 0.819152 -0.573576 0.000000
  outer loop
   vertex 1396.506000 2042.066870 -350.000000
   vertex 1415.627358 2069.375000 150.000000
   vertex 1396.506000 2042.066870 150.000000
  endloop
 endfacet
 facet normal 0.906308 -0.422618 0.000000
  outer loop
   vertex 1415.627358 2069.375000 -350.000000
   vertex 1429.716214 2099.588648 -350.000000
   vertex 1429.716214 2099.588648 150.000000
  endloop
 endfacet
 facet normal 0.906308 -0.422618 0.000000
  outer loop
   vertex 1415.627358 2069.375000 -350.000000
   vertex 1429.716214 2099.588648 150.000000
   vertex 1415.627358 2069.375000 150.000000
  endloop
 endfacet
 facet normal 0.965926 -0.258819 0.000000
  outer loop
   vertex 1429.716214 2099.588648 -350.000000
   vertex 1438.344483 2131.789786 -350.000000
   vertex 1438.344483 2131.789786 150.000000
  endloop
 endfacet
 facet normal 0.965926 -0.258819 0.000000
  outer loop
   vertex 1429.716214 2099.588648 -350.000000
   vertex 1438.344483 2131.789786 150.000000
   vertex 1429.716214 2099.588648 150.000000
  endloop
 endfacet
 facet normal 0.996195 -0.087156 0.000000
  outer loop
   vertex 1438.344483 2131.789786 -350.000000
   vertex 1441.250000 2165.000000 -350.000000
   vertex 1441.250000 2165.000000 150.000000
  endloop
 endfacet
 facet normal 0.996195 -0.087156 0.000000
  outer loop
   vertex 1438.344483 2131.789786 -350.000000
   vertex 1441.250000 2165.000000 150.000000
   vertex 1438.344483 2131.789786 150.000000
  endloop
 endfacet
 facet normal 0.000000 0.000000 -1.000000
  outer loop
   vertex 1250.000000 2165.000000 -350.000000
   vertex 1438.344483 2198.210214 -350.000000
   vertex 1441.250000 2165.000000 -350.000000
  endloop
 endfacet
 facet normal 0.000000 0.000000 1.000000
  outer loop
   vertex 1250.000000 2165.000000 150.000000
   vertex 1441.250000 2165.000000 150.000000
   vertex 1438.344483 2198.210214 150.000000
  endloop
 endfacet
 facet normal 0.000000 0.000000 -1.000000
  outer loop
   vertex 1250.000000 2165.000000 -350.000000
   vertex 1429.716214 2230.411352 -350.000000
   vertex 1438.344483 2198.210214 -350.000000
  endloop
 endfacet
 facet normal 0.000000 0.000000 1.000000
  outer loop
   vertex 1250.000000 2165.000000 150.000000
   vertex 1438.344483 2198.210214 150.000000
   vertex 1429.716214 2230.411352 150.000000
  endloop
 endfacet
 facet normal 0.000000 0.000000 -1.000000
  outer loop
   vertex 1250.000000 2165.000000 -350.000000
   vertex 1415.627358 2260.625000 -350.000000
   vertex 1429.716214 2230.411352 -350.000000
  endloop
 endfacet
 facet normal 0.000000 0.000000 1.000000
  outer loop
   vertex 1250.000000 2165.000000 150.000000
   vertex 1429.716214 2230.411352 150.000000
   vertex 1415.627358 2260.625000 150.000000
  endloop
 endfacet
 facet normal 0.000000 0.000000 -1.000000
  outer loop
   vertex 1250.000000 2165.000000 -350.000000
   vertex 1396.506000 2287.933130 -350.000000
   vertex 1415.627358 2260.625000 -350.000000
  endloop
 endfacet
 facet normal 0.000000 0.000000 1.000000
  outer loop
   vertex 1250.000000 2165.000000 150.000000
   vertex 1415.627358 2260.625000 150.000000
   vertex 1396.506000 2287.933130 150.000000
  endloop
 endfacet
 facet normal 0.000000 0.000000 -1.000000
  outer loop
   vertex 1250.000000 2165.000000 -350.000000
   vertex 1372.933130 2311.506000 -350.000000
   vertex 1396.506000 2287.933130 -350.000000
  endloop
 endfacet
 facet normal 0.000000 0.000000 1.000000
  outer loop
   vertex 1250.000000 2165.000000 150.000000
   vertex 1396.506000 2287.933130 150.000000
   vertex 1372.933130 2311.506000 150.000000
  endloop
 endfacet
 facet normal 0.000000 0.000000 -1.000000
  outer loop
   vertex 1250.000000 2165.000000 -350.000000
   vertex 1345.625000 2330.627358 -350.000000
   vertex 1372.933130 2311.506000 -350.000000
  endloop
 endfacet
 facet normal 0.000000 0.000000 1.000000
  outer loop
   vertex 1250.000000 2165.000000 150.000000
   vertex 1372.933130 2311.506000 150.000000
   vertex 1345.625000 2330.627358 150.000000
  endloop
 endfacet
 facet normal 0.000000 0.000000 -1.000000
  outer loop
   vertex 1250.000000 2165.000000 -350.000000
   vertex 1315.411352 2344.716214 -350.000000
   vertex 1345.625000 2330.627358 -350.000000
  endloop
 endfacet
 facet normal 0.000000 0.000000 1.000000
  outer loop
   vertex 1250.000000 2165.000000 150.000000
   vertex 1345.625000 2330.627358 150.000000
   vertex 1315.411352 2344.716214 150.000000
  endloop
 endfacet
 facet normal 0.000000 0.000000 -1.000000
  outer loop
   vertex 1250.000000 2165.000000 -350.000000
   vertex 1283.210214 2353.344483 -350.000000
   vertex 1315.411352 2344.716214 -350.000000
  endloop
 endfacet
 facet normal 0.000000 0.000000 1.000000
  outer loop
   vertex 1250.000000 2165.000000 150.000000
   vertex 1315.411352 2344.716214 150.000000
   vertex 1283.210214 2353.344483 150.000000
  endloop
 endfacet
 facet normal 0.000000 0.000000 -1.000000
  outer loop
   vertex 1250.000000 2165.000000 -350.000000
   vertex 1250.000000 2356.250000 -350.000000
   vertex 1283.210214 2353.344483 -350.000000
  endloop
 endfacet
 facet normal 0.000000 0.000000 1.000000
  outer loop
   vertex 1250.000000 2165.000000 150.000000
   vertex 1283.210214 2353.344483 150.000000
   vertex 1250.000000 2356.250000 150.000000
  endloop
 endfacet
 facet normal 0.000000 0.000000 -1.000000
  outer loop
   vertex 1250.000000 2165.000000 -350.000000
   vertex 1216.789786 2353.344483 -350.000000
   vertex 1250.000000 2356.250000 -350.000000
  endloop
 endfacet
 facet normal 0.000000 -0.000000 1.000000
  outer loop
   vertex 1250.000000 2165.000000 150.000000
   vertex 1250.000000 2356.250000 150.000000
   vertex 1216.789786 2353.344483 150.000000
  endloop
 endfacet
 facet normal 0.000000 0.000000 -1.000000
  outer loop
   vertex 1250.000000 2165.000000 -350.000000
   vertex 1184.588648 2344.716214 -350.000000
   vertex 1216.789786 2353.344483 -350.000000
  endloop
 endfacet
 facet normal 0.000000 0.000000 1.000000
  outer loop
   vertex 1250.000000 2165.000000 150.000000
   vertex 1216.789786 2353.344483 150.000000
   vertex 1184.588648 2344.716214 150.000000
  endloop
 endfacet
 facet normal 0.000000 0.000000 -1.000000
  outer loop
   vertex 1250.000000 2165.000000 -350.000000
   vertex 1154.375000 2330.627358 -350.000000
   vertex 1184.588648 2344.716214 -350.000000
  endloop
 endfacet
 facet normal 0.000000 0.000000 1.000000
  outer loop
   vertex 1250.000000 2165.000000 150.000000
   vertex 1184.588648 2344.716214 150.000000
   vertex 1154.375000 2330.627358 150.000000
  endloop
 endfacet
 facet normal 0.000000 0.000000 -1.000000
  outer loop
   vertex 1250.000000 2165.000000 -350.000000
   vertex 1127.066870 2311.506000 -350.000000
   vertex 1154.375000 2330.627358 -350.000000
  endloop
 endfacet
 facet normal 0.000000 0.000000 1.000000
  outer loop
   vertex 1250.000000 2165.000000 150.000000
   vertex 1154.375000 2330.627358 150.000000
   vertex 1127.066870 2311.506000 150.000000
  endloop
 endfacet
 facet normal 0.000000 0.000000 -1.000000
  outer loop
   vertex 1250.000000 2165.000000 -350.000000
   vertex 1103.494000 2287.933130 -350.000000
   vertex 1127.066870 2311.506000 -350.000000
  endloop
 endfacet
 facet normal 0.000000 0.000000 1.000000
  outer loop
   vertex 1250.000000 2165.000000 150.000000
   vertex 1127.066870 2311.506000 150.000000
   vertex 1103.494000 2287.933130 150.000000
  endloop
 endfacet
 facet normal 0.000000 0.000000 -1.000000
  outer loop
   vertex 1250.000000 2165.000000 -350.000000
   vertex 1084.372642 2260.625000 -350.000000
   vertex 1103.494000 2287.933130 -350.000000
  endloop
 endfacet
 facet normal 0.000000 0.000000 1.000000
  outer loop
   vertex 1250.000000 2165.000000 150.000000
   vertex 1103.494000 2287.933130 150.000000
   vertex 1084.372642 2260.625000 150.000000
  endloop
 endfacet
 facet normal 0.000000 0.000000 -1.000000
  outer loop
   vertex 1250.000000 2165.000000 -350.000000
   vertex 1070.283786 2230.411352 -350.000000
   vertex 1084.372642 2260.625000 -350.000000
  endloop
 endfacet
 facet normal 0.000000 0.000000 1.000000
  outer loop
   vertex 1250.000000 2165.000000 150.000000
   vertex 1084.372642 2260.625000 150.000000
   vertex 1070.283786 2230.411352 150.000000
  endloop
 endfacet
 facet normal 0.000000 0.000000 -1.000000
  outer loop
   vertex 1250.000000 2165.000000 -350.000000
   vertex 1061.655517 2198.210214 -350.000000
   vertex 1070.283786 2230.411352 -350.000000
  endloop
 endfacet
 facet normal 0.000000 0.000000 1.000000
  outer loop
   vertex 1250.000000 2165.000000 150.000000
   vertex 1070.283786 2230.411352 150.000000
   vertex 1061.655517 2198.210214 150.000000
  endloop
 endfacet
 facet normal 0.000000 0.000000 -1.000000
  outer loop
   vertex 1250.000000 2165.000000 -350.000000
   vertex 1058.750000 2165.000000 -350.000000
   vertex 1061.655517 2198.210214 -350.000000
  endloop
 endfacet
 facet normal 0.000000 0.000000 1.000000
  outer loop
   vertex 1250.000000 2165.000000 150.000000
   vertex 1061.655517 2198.210214 150.000000
   vertex 1058.750000 2165.000000 150.000000
  endloop
 endfacet
 facet normal -0.000000 0.000000 -1.000000
  outer loop
   vertex 1250.000000 2165.000000 -350.000000
   vertex 1061.655517 2131.789786 -350.000000
   vertex 1058.750000 2165.000000 -350.000000
  endloop
 endfacet
 facet normal 0.000000 0.000000 1.000000
  outer loop
   vertex 1250.000000 2165.000000 150.000000
   vertex 1058.750000 2165.000000 150.000000
   vertex 1061.655517 2131.789786 150.000000
  endloop
 endfacet
 facet normal 0.000000 0.000000 -1.000000
  outer loop
   vertex 1250.000000 2165.000000 -350.000000
   vertex 1070.283786 2099.588648 -350.000000
   vertex 1061.655517 2131.789786 -350.000000
  endloop
 endfacet
 facet normal 0.000000 0.000000 1.000000
  outer loop
   vertex 1250.000000 2165.000000 150.000000
   vertex 1061.655517 2131.789786 150.000000
   vertex 1070.283786 2099.588648 150.000000
  endloop
 endfacet
 facet normal 0.000000 0.000000 -1.000000
  outer loop
   vertex 1250.000000 2165.000000 -350.000000
   vertex 1084.372642 2069.375000 -350.000000
   vertex 1070.283786 2099.588648 -350.000000
  endloop
 endfacet
 facet normal 0.000000 0.000000 1.000000
  outer loop
   vertex 1250.000000 2165.000000 150.000000
   vertex 1070.283786 2099.588648 150.000000
   vertex 1084.372642 2069.375000 150.000000
  endloop
 endfacet
 facet normal 0.000000 0.000000 -1.000000
  outer loop
   vertex 1250.000000 2165.000000 -350.000000
   vertex 1103.494000 2042.066870 -350.000000
   vertex 1084.372642 2069.375000 -350.000000
  endloop
 endfacet
 facet normal 0.000000 0.000000 1.000000
  outer loop
   vertex 1250.000000 2165.000000 150.000000
   vertex 1084.372642 2069.375000 150.000000
   vertex 1103.494000 2042.066870 150.000000
  endloop
 endfacet
 facet normal 0.000000 0.000000 -1.000000
  outer loop
   vertex 1250.000000 2165.000000 -350.000000
   vertex 1127.066870 2018.494000 -350.000000
   vertex 1103.494000 2042.066870 -350.000000
  endloop
 endfacet
 facet normal 0.000000 0.000000 1.000000
  outer loop
   vertex 1250.000000 2165.000000 150.000000
   vertex 1103.494000 2042.066870 150.000000
   vertex 1127.066870 2018.494000 150.000000
  endloop
 endfacet
 facet normal 0.000000 0.000000 -1.000000
  outer loop
   vertex 1250.000000 2165.000000 -350.000000
   vertex 1154.375000 1999.372642 -350.000000
   vertex 1127.066870 2018.494000 -350.000000
  endloop
 endfacet
 facet normal 0.000000 0.000000 1.000000
  outer loop
   vertex 1250.000000 2165.000000 150.000000
   vertex 1127.066870 2018.494000 150.000000
   vertex 1154.375000 1999.372642 150.000000
  endloop
 endfacet
 facet normal 0.000000 0.000000 -1.000000
  outer loop
   vertex 1250.000000 2165.000000 -350.000000
   vertex 1184.588648 1985.283786 -350.000000
   vertex 1154.375000 1999.372642 -350.000000
  endloop
 endfacet
 facet normal 0.000000 0.000000 1.000000
  outer loop
   vertex 1250.000000 2165.000000 150.000000
   vertex 1154.375000 1999.372642 150.000000
   vertex 1184.588648 1985.283786 150.000000
  endloop
 endfacet
 facet normal 0.000000 0.000000 -1.000000
  outer loop
   vertex 1250.000000 2165.000000 -350.000000
   vertex 1216.789786 1976.655517 -350.000000
   vertex 1184.588648 1985.283786 -350.000000
  endloop
 endfacet
 facet normal 0.000000 0.000000 1.000000
  outer loop
   vertex 1250.000000 2165.000000 150.000000
   vertex 1184.588648 1985.283786 150.000000
   vertex 1216.789786 1976.655517 150.000000
  endloop
 endfacet
 facet normal 0.000000 -0.000000 -1.000000
  outer loop
   vertex 1250.000000 2165.000000 -350.000000
   vertex 1250.000000 1973.750000 -350.000000
   vertex 1216.789786 1976.655517 -350.000000
  endloop
 endfacet
 facet normal 0.000000 0.000000 1.000000
  outer loop
   vertex 1250.000000 2165.000000 150.000000
   vertex 1216.789786 1976.655517 150.000000
   vertex 1250.000000 1973.750000 150.000000
  endloop
 endfacet
 facet normal 0.000000 0.000000 -1.000000
  outer loop
   vertex 1250.000000 2165.000000 -350.000000
   vertex 1283.210214 1976.655517 -350.000000
   vertex 1250.000000 1973.750000 -350.000000
  endloop
 endfacet
 facet normal 0.000000 0.000000 1.000000
  outer loop
   vertex 1250.000000 2165.000000 150.000000
   vertex 1250.000000 1973.750000 150.000000
   vertex 1283.210214 1976.655517 150.000000
  endloop
 endfacet
 facet normal 0.000000 0.000000 -1.000000
  outer loop
   vertex 1250.000000 2165.000000 -350.000000
   vertex 1315.411352 1985.283786 -350.000000
   vertex 1283.210214 1976.655517 -350.000000
  endloop
 endfacet
 facet normal 0.000000 0.000000 1.000000
  outer loop
   vertex 1250.000000 2165.000000 150.000000
   vertex 1283.210214 1976.655517 150.000000
   vertex 1315.411352 1985.283786 150.000000
  endloop
 endfacet
 facet normal 0.000000 0.000000 -1.000000
  outer loop
   vertex 1250.000000 2165.000000 -350.000000
   vertex 1345.625000 1999.372642 -350.000000
   vertex 1315.411352 1985.283786 -350.000000
  endloop
 endfacet
 facet normal 0.000000 0.000000 1.000000
  outer loop
   vertex 1250.000000 2165.000000 150.000000
   vertex 1315.411352 1985.283786 150.000000
   vertex 1345.625000 1999.372642 150.000000
  endloop
 endfacet
 facet normal 0.000000 0.000000 -1.000000
  outer loop
   vertex 1250.000000 2165.000000 -350.000000
   vertex 1372.933130 2018.494000 -350.000000
   vertex 1345.625000 1999.372642 -350.000000
  endloop
 endfacet
 facet normal 0.000000 0.000000 1.000000
  outer loop
   vertex 1250.000000 2165.000000 150.000000
   vertex 1345.625000 1999.372642 150.000000
   vertex 1372.933130 2018.494000 150.000000
  endloop
 endfacet
 facet normal 0.000000 0.000000 -1.000000
  outer loop
   vertex 1250.000000 2165.000000 -350.000000
   vertex 1396.506000 2042.066870 -350.000000
   vertex 1372.933130 2018.494000 -350.000000
  endloop
 endfacet
 facet normal 0.000000 0.000000 1.000000
  outer loop
   vertex 1250.000000 2165.000000 150.000000
   vertex 1372.933130 2018.494000 150.000000
   vertex 1396.506000 2042.066870 150.000000
  endloop
 endfacet
 facet normal 0.000000 0.000000 -1.000000
  outer loop
   vertex 1250.000000 2165.000000 -350.000000
   vertex 1415.627358 2069.375000 -350.000000
   vertex 1396.506000 2042.066870 -350.000000
  endloop
 endfacet
 facet normal 0.000000 0.000000 1.000000
  outer loop
   vertex 1250.000000 2165.000000 150.000000
   vertex 1396.506000 2042.066870 150.000000
   vertex 1415.627358 2069.375000 150.000000
  endloop
 endfacet
 facet normal 0.000000 0.000000 -1.000000
  outer loop
   vertex 1250.000000 2165.000000 -350.000000
   vertex 1429.716214 2099.588648 -350.000000
   vertex 1415.627358 2069.375000 -350.000000
  endloop
 endfacet
 facet normal 0.000000 0.000000 1.000000
  outer loop
   vertex 1250.000000 2165.000000 150.000000
   vertex 1415.627358 2069.375000 150.000000
   vertex 1429.716214 2099.588648 150.000000
  endloop
 endfacet
 facet normal 0.000000 0.000000 -1.000000
  outer loop
   vertex 1250.000000 2165.000000 -350.000000
   vertex 1438.344483 2131.789786 -350.000000
   vertex 1429.716214 2099.588648 -350.000000
  endloop
 endfacet
 facet normal 0.000000 0.000000 1.000000
  outer loop
   vertex 1250.000000 2165.000000 150.000000
   vertex 1429.716214 2099.588648 150.000000
   vertex 1438.344483 2131.789786 150.000000
  endloop
 endfacet
 facet normal 0.000000 0.000000 -1.000000
  outer loop
   vertex 1250.000000 2165.000000 -350.000000
   vertex 1441.250000 2165.000000 -350.000000
   vertex 1438.344483 2131.789786 -350.000000
  endloop
 endfacet
 facet normal -0.000000 0.000000 1.000000
  outer loop
   vertex 1250.000000 2165.000000 150.000000
   vertex 1438.344483 2131.789786 150.000000
   vertex 1441.250000 2165.000000 150.000000
  endloop
 endfacet
endsolid SIC_LOX_BRANCH
