solid F1_INJECTOR
 facet normal 0.998795 0.049068 0.000000
  outer loop
   vertex 3550.000000 0.000000 -2300.000000
   vertex 3544.943963 102.917997 -2300.000000
   vertex 3544.943963 102.917997 -1900.000000
  endloop
 endfacet
 facet normal 0.998795 0.049068 -0.000000
  outer loop
   vertex 3550.000000 0.000000 -2300.000000
   vertex 3544.943963 102.917997 -1900.000000
   vertex 3550.000000 0.000000 -1900.000000
  endloop
 endfacet
 facet normal 0.989177 0.146730 0.000000
  outer loop
   vertex 3544.943963 102.917997 -2300.000000
   vertex 3529.824544 204.844838 -2300.000000
   vertex 3529.824544 204.844838 -1900.000000
  endloop
 endfacet
 facet normal 0.989177 0.146730 -0.000000
  outer loop
   vertex 3544.943963 102.917997 -2300.000000
   vertex 3529.824544 204.844838 -1900.000000
   vertex 3544.943963 102.917997 -1900.000000
  endloop
 endfacet
 facet normal 0.970031 0.242980 0.000000
  outer loop
   vertex 3529.824544 204.844838 -2300.000000
   vertex 3504.787353 304.798911 -2300.000000
   vertex 3504.787353 304.798911 -1900.000000
  endloop
 endfacet
 facet normal 0.970031 0.242980 -0.000000
  outer loop
   vertex 3529.824544 204.844838 -2300.000000
   vertex 3504.787353 304.798911 -1900.000000
   vertex 3529.824544 204.844838 -1900.000000
  endloop
 endfacet
 facet normal 0.941544 0.336890 0.000000
  outer loop
   vertex 3504.787353 304.798911 -2300.000000
   vertex 3470.073509 401.817604 -2300.000000
   vertex 3470.073509 401.817604 -1900.000000
  endloop
 endfacet
 facet normal 0.941544 0.336890 -0.000000
  outer loop
   vertex 3504.787353 304.798911 -2300.000000
   vertex 3470.073509 401.817604 -1900.000000
   vertex 3504.787353 304.798911 -1900.000000
  endloop
 endfacet
 facet normal 0.903989 0.427555 0.000000
  outer loop
   vertex 3470.073509 401.817604 -2300.000000
   vertex 3426.017328 494.966574 -2300.000000
   vertex 3426.017328 494.966574 -1900.000000
  endloop
 endfacet
 facet normal 0.903989 0.427555 -0.000000
  outer loop
   vertex 3470.073509 401.817604 -2300.000000
   vertex 3426.017328 494.966574 -1900.000000
   vertex 3470.073509 401.817604 -1900.000000
  endloop
 endfacet
 facet normal 0.857729 0.514103 0.000000
  outer loop
   vertex 3426.017328 494.966574 -2300.000000
   vertex 3373.043093 583.348745 -2300.000000
   vertex 3373.043093 583.348745 -1900.000000
  endloop
 endfacet
 facet normal 0.857729 0.514103 -0.000000
  outer loop
   vertex 3426.017328 494.966574 -2300.000000
   vertex 3373.043093 583.348745 -1900.000000
   vertex 3426.017328 494.966574 -1900.000000
  endloop
 endfacet
 facet normal 0.803208 0.595699 0.000000
  outer loop
   vertex 3373.043093 583.348745 -2300.000000
   vertex 3311.660976 666.112948 -2300.000000
   vertex 3311.660976 666.112948 -1900.000000
  endloop
 endfacet
 facet normal 0.803208 0.595699 -0.000000
  outer loop
   vertex 3373.043093 583.348745 -2300.000000
   vertex 3311.660976 666.112948 -1900.000000
   vertex 3373.043093 583.348745 -1900.000000
  endloop
 endfacet
 facet normal 0.740951 0.671559 0.000000
  outer loop
   vertex 3311.660976 666.112948 -2300.000000
   vertex 3242.462120 742.462120 -2300.000000
   vertex 3242.462120 742.462120 -1900.000000
  endloop
 endfacet
 facet normal 0.740951 0.671559 -0.000000
  outer loop
   vertex 3311.660976 666.112948 -2300.000000
   vertex 3242.462120 742.462120 -1900.000000
   vertex 3311.660976 666.112948 -1900.000000
  endloop
 endfacet
 facet normal 0.671559 0.740951 0.000000
  outer loop
   vertex 3242.462120 742.462120 -2300.000000
   vertex 3166.112948 811.660976 -2300.000000
   vertex 3166.112948 811.660976 -1900.000000
  endloop
 endfacet
 facet normal 0.671559 0.740951 -0.000000
  outer loop
   vertex 3242.462120 742.462120 -2300.000000
   vertex 3166.112948 811.660976 -1900.000000
   vertex 3242.462120 742.462120 -1900.000000
  endloop
 endfacet
 facet normal 0.595699 0.803208 0.000000
  outer loop
   vertex 3166.112948 811.660976 -2300.000000
   vertex 3083.348745 873.043093 -2300.000000
   vertex 3083.348745 873.043093 -1900.000000
  endloop
 endfacet
 facet normal 0.595699 0.803208 -0.000000
  outer loop
   vertex 3166.112948 811.660976 -2300.000000
   vertex 3083.348745 873.043093 -1900.000000
   vertex 3166.112948 811.660976 -1900.000000
  endloop
 endfacet
 facet normal 0.514103 0.857729 0.000000
  outer loop
   vertex 3083.348745 873.043093 -2300.000000
   vertex 2994.966574 926.017328 -2300.000000
   vertex 2994.966574 926.017328 -1900.000000
  endloop
 endfacet
 facet normal 0.514103 0.857729 -0.000000
  outer loop
   vertex 3083.348745 873.043093 -2300.000000
   vertex 2994.966574 926.017328 -1900.000000
   vertex 3083.348745 873.043093 -1900.000000
  endloop
 endfacet
 facet normal 0.427555 0.903989 0.000000
  outer loop
   vertex 2994.966574 926.017328 -2300.000000
   vertex 2901.817604 970.073509 -2300.000000
   vertex 2901.817604 970.073509 -1900.000000
  endloop
 endfacet
 facet normal 0.427555 0.903989 -0.000000
  outer loop
   vertex 2994.966574 926.017328 -2300.000000
   vertex 2901.817604 970.073509 -1900.000000
   vertex 2994.966574 926.017328 -1900.000000
  endloop
 endfacet
 facet normal 0.336890 0.941544 0.000000
  outer loop
   vertex 2901.817604 970.073509 -2300.000000
   vertex 2804.798911 1004.787353 -2300.000000
   vertex 2804.798911 1004.787353 -1900.000000
  endloop
 endfacet
 facet normal 0.336890 0.941544 -0.000000
  outer loop
   vertex 2901.817604 970.073509 -2300.000000
   vertex 2804.798911 1004.787353 -1900.000000
   vertex 2901.817604 970.073509 -1900.000000
  endloop
 endfacet
 facet normal 0.242980 0.970031 0.000000
  outer loop
   vertex 2804.798911 1004.787353 -2300.000000
   vertex 2704.844838 1029.824544 -2300.000000
   vertex 2704.844838 1029.824544 -1900.000000
  endloop
 endfacet
 facet normal 0.242980 0.970031 -0.000000
  outer loop
   vertex 2804.798911 1004.787353 -2300.000000
   vertex 2704.844838 1029.824544 -1900.000000
   vertex 2804.798911 1004.787353 -1900.000000
  endloop
 endfacet
 facet normal 0.146730 0.989177 0.000000
  outer loop
   vertex 2704.844838 1029.824544 -2300.000000
   vertex 2602.917997 1044.943963 -2300.000000
   vertex 2602.917997 1044.943963 -1900.000000
  endloop
 endfacet
 facet normal 0.146730 0.989177 -0.000000
  outer loop
   vertex 2704.844838 1029.824544 -2300.000000
   vertex 2602.917997 1044.943963 -1900.000000
   vertex 2704.844838 1029.824544 -1900.000000
  endloop
 endfacet
 facet normal 0.049068 0.998795 0.000000
  outer loop
   vertex 2602.917997 1044.943963 -2300.000000
   vertex 2500.000000 1050.000000 -2300.000000
   vertex 2500.000000 1050.000000 -1900.000000
  endloop
 endfacet
 facet normal 0.049068 0.998795 -0.000000
  outer loop
   vertex 2602.917997 1044.943963 -2300.000000
   vertex 2500.000000 1050.000000 -1900.000000
   vertex 2602.917997 1044.943963 -1900.000000
  endloop
 endfacet
 facet normal -0.049068 0.998795 0.000000
  outer loop
   vertex 2500.000000 1050.000000 -2300.000000
   vertex 2397.082003 1044.943963 -2300.000000
   vertex 2397.082003 1044.943963 -1900.000000
  endloop
 endfacet
 facet normal -0.049068 0.998795 0.000000
  outer loop
   vertex 2500.000000 1050.000000 -2300.000000
   vertex 2397.082003 1044.943963 -1900.000000
   vertex 2500.000000 1050.000000 -1900.000000
  endloop
 endfacet
 facet normal -0.146730 0.989177 0.000000
  outer loop
   vertex 2397.082003 1044.943963 -2300.000000
   vertex 2295.155162 1029.824544 -2300.000000
   vertex 2295.155162 1029.824544 -1900.000000
  endloop
 endfacet
 facet normal -0.146730 0.989177 0.000000
  outer loop
   vertex 2397.082003 1044.943963 -2300.000000
   vertex 2295.155162 1029.824544 -1900.000000
   vertex 2397.082003 1044.943963 -1900.000000
  endloop
 endfacet
 facet normal -0.242980 0.970031 0.000000
  outer loop
   vertex 2295.155162 1029.824544 -2300.000000
   vertex 2195.201089 1004.787353 -2300.000000
   vertex 2195.201089 1004.787353 -1900.000000
  endloop
 endfacet
 facet normal -0.242980 0.970031 0.000000
  outer loop
   vertex 2295.155162 1029.824544 -2300.000000
   vertex 2195.201089 1004.787353 -1900.000000
   vertex 2295.155162 1029.824544 -1900.000000
  endloop
 endfacet
 facet normal -0.336890 0.941544 0.000000
  outer loop
   vertex 2195.201089 1004.787353 -2300.000000
   vertex 2098.182396 970.073509 -2300.000000
   vertex 2098.182396 970.073509 -1900.000000
  endloop
 endfacet
 facet normal -0.336890 0.941544 0.000000
  outer loop
   vertex 2195.201089 1004.787353 -2300.000000
   vertex 2098.182396 970.073509 -1900.000000
   vertex 2195.201089 1004.787353 -1900.000000
  endloop
 endfacet
 facet normal -0.427555 0.903989 0.000000
  outer loop
   vertex 2098.182396 970.073509 -2300.000000
   vertex 2005.033426 926.017328 -2300.000000
   vertex 2005.033426 926.017328 -1900.000000
  endloop
 endfacet
 facet normal -0.427555 0.903989 0.000000
  outer loop
   vertex 2098.182396 970.073509 -2300.000000
   vertex 2005.033426 926.017328 -1900.000000
   vertex 2098.182396 970.073509 -1900.000000
  endloop
 endfacet
 facet normal -0.514103 0.857729 0.000000
  outer loop
   vertex 2005.033426 926.017328 -2300.000000
   vertex 1916.651255 873.043093 -2300.000000
   vertex 1916.651255 873.043093 -1900.000000
  endloop
 endfacet
 facet normal -0.514103 0.857729 0.000000
  outer loop
   vertex 2005.033426 926.017328 -2300.000000
   vertex 1916.651255 873.043093 -1900.000000
   vertex 2005.033426 926.017328 -1900.000000
  endloop
 endfacet
 facet normal -0.595699 0.803208 0.000000
  outer loop
   vertex 1916.651255 873.043093 -2300.000000
   vertex 1833.887052 811.660976 -2300.000000
   vertex 1833.887052 811.660976 -1900.000000
  endloop
 endfacet
 facet normal -0.595699 0.803208 0.000000
  outer loop
   vertex 1916.651255 873.043093 -2300.000000
   vertex 1833.887052 811.660976 -1900.000000
   vertex 1916.651255 873.043093 -1900.000000
  endloop
 endfacet
 facet normal -0.671559 0.740951 0.000000
  outer loop
   vertex 1833.887052 811.660976 -2300.000000
   vertex 1757.537880 742.462120 -2300.000000
   vertex 1757.537880 742.462120 -1900.000000
  endloop
 endfacet
 facet normal -0.671559 0.740951 0.000000
  outer loop
   vertex 1833.887052 811.660976 -2300.000000
   vertex 1757.537880 742.462120 -1900.000000
   vertex 1833.887052 811.660976 -1900.000000
  endloop
 endfacet
 facet normal -0.740951 0.671559 0.000000
  outer loop
   vertex 1757.537880 742.462120 -2300.000000
   vertex 1688.339024 666.112948 -2300.000000
   vertex 1688.339024 666.112948 -1900.000000
  endloop
 endfacet
 facet normal -0.740951 0.671559 0.000000
  outer loop
   vertex 1757.537880 742.462120 -2300.000000
   vertex 1688.339024 666.112948 -1900.000000
   vertex 1757.537880 742.462120 -1900.000000
  endloop
 endfacet
 facet normal -0.803208 0.595699 0.000000
  outer loop
   vertex 1688.339024 666.112948 -2300.000000
   vertex 1626.956907 583.348745 -2300.000000
   vertex 1626.956907 583.348745 -1900.000000
  endloop
 endfacet
 facet normal -0.803208 0.595699 0.000000
  outer loop
   vertex 1688.339024 666.112948 -2300.000000
   vertex 1626.956907 583.348745 -1900.000000
   vertex 1688.339024 666.112948 -1900.000000
  endloop
 endfacet
 facet normal -0.857729 0.514103 0.000000
  outer loop
   vertex 1626.956907 583.348745 -2300.000000
   vertex 1573.982672 494.966574 -2300.000000
   vertex 1573.982672 494.966574 -1900.000000
  endloop
 endfacet
 facet normal -0.857729 0.514103 0.000000
  outer loop
   vertex 1626.956907 583.348745 -2300.000000
   vertex 1573.982672 494.966574 -1900.000000
   vertex 1626.956907 583.348745 -1900.000000
  endloop
 endfacet
 facet normal -0.903989 0.427555 0.000000
  outer loop
   vertex 1573.982672 494.966574 -2300.000000
   vertex 1529.926491 401.817604 -2300.000000
   vertex 1529.926491 401.817604 -1900.000000
  endloop
 endfacet
 facet normal -0.903989 0.427555 0.000000
  outer loop
   vertex 1573.982672 494.966574 -2300.000000
   vertex 1529.926491 401.817604 -1900.000000
   vertex 1573.982672 494.966574 -1900.000000
  endloop
 endfacet
 facet normal -0.941544 0.336890 0.000000
  outer loop
   vertex 1529.926491 401.817604 -2300.000000
   vertex 1495.212647 304.798911 -2300.000000
   vertex 1495.212647 304.798911 -1900.000000
  endloop
 endfacet
 facet normal -0.941544 0.336890 0.000000
  outer loop
   vertex 1529.926491 401.817604 -2300.000000
   vertex 1495.212647 304.798911 -1900.000000
   vertex 1529.926491 401.817604 -1900.000000
  endloop
 endfacet
 facet normal -0.970031 0.242980 0.000000
  outer loop
   vertex 1495.212647 304.798911 -2300.000000
   vertex 1470.175456 204.844838 -2300.000000
   vertex 1470.175456 204.844838 -1900.000000
  endloop
 endfacet
 facet normal -0.970031 0.242980 0.000000
  outer loop
   vertex 1495.212647 304.798911 -2300.000000
   vertex 1470.175456 204.844838 -1900.000000
   vertex 1495.212647 304.798911 -1900.000000
  endloop
 endfacet
 facet normal -0.989177 0.146730 0.000000
  outer loop
   vertex 1470.175456 204.844838 -2300.000000
   vertex 1455.056037 102.917997 -2300.000000
   vertex 1455.056037 102.917997 -1900.000000
  endloop
 endfacet
 facet normal -0.989177 0.146730 0.000000
  outer loop
   vertex 1470.175456 204.844838 -2300.000000
   vertex 1455.056037 102.917997 -1900.000000
   vertex 1470.175456 204.844838 -1900.000000
  endloop
 endfacet
 facet normal -0.998795 0.049068 0.000000
  outer loop
   vertex 1455.056037 102.917997 -2300.000000
   vertex 1450.000000 0.000000 -2300.000000
   vertex 1450.000000 0.000000 -1900.000000
  endloop
 endfacet
 facet normal -0.998795 0.049068 0.000000
  outer loop
   vertex 1455.056037 102.917997 -2300.000000
   vertex 1450.000000 0.000000 -1900.000000
   vertex 1455.056037 102.917997 -1900.000000
  endloop
 endfacet
 facet normal -0.998795 -0.049068 0.000000
  outer loop
   vertex 1450.000000 0.000000 -2300.000000
   vertex 1455.056037 -102.917997 -2300.000000
   vertex 1455.056037 -102.917997 -1900.000000
  endloop
 endfacet
 facet normal -0.998795 -0.049068 0.000000
  outer loop
   vertex 1450.000000 0.000000 -2300.000000
   vertex 1455.056037 -102.917997 -1900.000000
   vertex 1450.000000 0.000000 -1900.000000
  endloop
 endfacet
 facet normal -0.989177 -0.146730 0.000000
  outer loop
   vertex 1455.056037 -102.917997 -2300.000000
   vertex 1470.175456 -204.844838 -2300.000000
   vertex 1470.175456 -204.844838 -1900.000000
  endloop
 endfacet
 facet normal -0.989177 -0.146730 0.000000
  outer loop
   vertex 1455.056037 -102.917997 -2300.000000
   vertex 1470.175456 -204.844838 -1900.000000
   vertex 1455.056037 -102.917997 -1900.000000
  endloop
 endfacet
 facet normal -0.970031 -0.242980 0.000000
  outer loop
   vertex 1470.175456 -204.844838 -2300.000000
   vertex 1495.212647 -304.798911 -2300.000000
   vertex 1495.212647 -304.798911 -1900.000000
  endloop
 endfacet
 facet normal -0.970031 -0.242980 0.000000
  outer loop
   vertex 1470.175456 -204.844838 -2300.000000
   vertex 1495.212647 -304.798911 -1900.000000
   vertex 1470.175456 -204.844838 -1900.000000
  endloop
 endfacet
 facet normal -0.941544 -0.336890 0.000000
  outer loop
   vertex 1495.212647 -304.798911 -2300.000000
   vertex 1529.926491 -401.817604 -2300.000000
   vertex 1529.926491 -401.817604 -1900.000000
  endloop
 endfacet
 facet normal -0.941544 -0.336890 0.000000
  outer loop
   vertex 1495.212647 -304.798911 -2300.000000
   vertex 1529.926491 -401.817604 -1900.000000
   vertex 1495.212647 -304.798911 -1900.000000
  endloop
 endfacet
 facet normal -0.903989 -0.427555 0.000000
  outer loop
   vertex 1529.926491 -401.817604 -2300.000000
   vertex 1573.982672 -494.966574 -2300.000000
   vertex 1573.982672 -494.966574 -1900.000000
  endloop
 endfacet
 facet normal -0.903989 -0.427555 0.000000
  outer loop
   vertex 1529.926491 -401.817604 -2300.000000
   vertex 1573.982672 -494.966574 -1900.000000
   vertex 1529.926491 -401.817604 -1900.000000
  endloop
 endfacet
 facet normal -0.857729 -0.514103 0.000000
  outer loop
   vertex 1573.982672 -494.966574 -2300.000000
   vertex 1626.956907 -583.348745 -2300.000000
   vertex 1626.956907 -583.348745 -1900.000000
  endloop
 endfacet
 facet normal -0.857729 -0.514103 0.000000
  outer loop
   vertex 1573.982672 -494.966574 -2300.000000
   vertex 1626.956907 -583.348745 -1900.000000
   vertex 1573.982672 -494.966574 -1900.000000
  endloop
 endfacet
 facet normal -0.803208 -0.595699 0.000000
  outer loop
   vertex 1626.956907 -583.348745 -2300.000000
   vertex 1688.339024 -666.112948 -2300.000000
   vertex 1688.339024 -666.112948 -1900.000000
  endloop
 endfacet
 facet normal -0.803208 -0.595699 0.000000
  outer loop
   vertex 1626.956907 -583.348745 -2300.000000
   vertex 1688.339024 -666.112948 -1900.000000
   vertex 1626.956907 -583.348745 -1900.000000
  endloop
 endfacet
 facet normal -0.740951 -0.671559 0.000000
  outer loop
   vertex 1688.339024 -666.112948 -2300.000000
   vertex 1757.537880 -742.462120 -2300.000000
   vertex 1757.537880 -742.462120 -1900.000000
  endloop
 endfacet
 facet normal -0.740951 -0.671559 0.000000
  outer loop
   vertex 1688.339024 -666.112948 -2300.000000
   vertex 1757.537880 -742.462120 -1900.000000
   vertex 1688.339024 -666.112948 -1900.000000
  endloop
 endfacet
 facet normal -0.671559 -0.740951 0.000000
  outer loop
   vertex 1757.537880 -742.462120 -2300.000000
   vertex 1833.887052 -811.660976 -2300.000000
   vertex 1833.887052 -811.660976 -1900.000000
  endloop
 endfacet
 facet normal -0.671559 -0.740951 0.000000
  outer loop
   vertex 1757.537880 -742.462120 -2300.000000
   vertex 1833.887052 -811.660976 -1900.000000
   vertex 1757.537880 -742.462120 -1900.000000
  endloop
 endfacet
 facet normal -0.595699 -0.803208 0.000000
  outer loop
   vertex 1833.887052 -811.660976 -2300.000000
   vertex 1916.651255 -873.043093 -2300.000000
   vertex 1916.651255 -873.043093 -1900.000000
  endloop
 endfacet
 facet normal -0.595699 -0.803208 0.000000
  outer loop
   vertex 1833.887052 -811.660976 -2300.000000
   vertex 1916.651255 -873.043093 -1900.000000
   vertex 1833.887052 -811.660976 -1900.000000
  endloop
 endfacet
 facet normal -0.514103 -0.857729 0.000000
  outer loop
   vertex 1916.651255 -873.043093 -2300.000000
   vertex 2005.033426 -926.017328 -2300.000000
   vertex 2005.033426 -926.017328 -1900.000000
  endloop
 endfacet
 facet normal -0.514103 -0.857729 0.000000
  outer loop
   vertex 1916.651255 -873.043093 -2300.000000
   vertex 2005.033426 -926.017328 -1900.000000
   vertex 1916.651255 -873.043093 -1900.000000
  endloop
 endfacet
 facet normal -0.427555 -0.903989 0.000000
  outer loop
   vertex 2005.033426 -926.017328 -2300.000000
   vertex 2098.182396 -970.073509 -2300.000000
   vertex 2098.182396 -970.073509 -1900.000000
  endloop
 endfacet
 facet normal -0.427555 -0.903989 0.000000
  outer loop
   vertex 2005.033426 -926.017328 -2300.000000
   vertex 2098.182396 -970.073509 -1900.000000
   vertex 2005.033426 -926.017328 -1900.000000
  endloop
 endfacet
 facet normal -0.336890 -0.941544 0.000000
  outer loop
   vertex 2098.182396 -970.073509 -2300.000000
   vertex 2195.201089 -1004.787353 -2300.000000
   vertex 2195.201089 -1004.787353 -1900.000000
  endloop
 endfacet
 facet normal -0.336890 -0.941544 0.000000
  outer loop
   vertex 2098.182396 -970.073509 -2300.000000
   vertex 2195.201089 -1004.787353 -1900.000000
   vertex 2098.182396 -970.073509 -1900.000000
  endloop
 endfacet
 facet normal -0.242980 -0.970031 0.000000
  outer loop
   vertex 2195.201089 -1004.787353 -2300.000000
   vertex 2295.155162 -1029.824544 -2300.000000
   vertex 2295.155162 -1029.824544 -1900.000000
  endloop
 endfacet
 facet normal -0.242980 -0.970031 0.000000
  outer loop
   vertex 2195.201089 -1004.787353 -2300.000000
   vertex 2295.155162 -1029.824544 -1900.000000
   vertex 2195.201089 -1004.787353 -1900.000000
  endloop
 endfacet
 facet normal -0.146730 -0.989177 0.000000
  outer loop
   vertex 2295.155162 -1029.824544 -2300.000000
   vertex 2397.082003 -1044.943963 -2300.000000
   vertex 2397.082003 -1044.943963 -1900.000000
  endloop
 endfacet
 facet normal -0.146730 -0.989177 0.000000
  outer loop
   vertex 2295.155162 -1029.824544 -2300.000000
   vertex 2397.082003 -1044.943963 -1900.000000
   vertex 2295.155162 -1029.824544 -1900.000000
  endloop
 endfacet
 facet normal -0.049068 -0.998795 0.000000
  outer loop
   vertex 2397.082003 -1044.943963 -2300.000000
   vertex 2500.000000 -1050.000000 -2300.000000
   vertex 2500.000000 -1050.000000 -1900.000000
  endloop
 endfacet
 facet normal -0.049068 -0.998795 0.000000
  outer loop
   vertex 2397.082003 -1044.943963 -2300.000000
   vertex 2500.000000 -1050.000000 -1900.000000
   vertex 2397.082003 -1044.943963 -1900.000000
  endloop
 endfacet
 facet normal 0.049068 -0.998795 0.000000
  outer loop
   vertex 2500.000000 -1050.000000 -2300.000000
   vertex 2602.917997 -1044.943963 -2300.000000
   vertex 2602.917997 -1044.943963 -1900.000000
  endloop
 endfacet
 facet normal 0.049068 -0.998795 0.000000
  outer loop
   vertex 2500.000000 -1050.000000 -2300.000000
   vertex 2602.917997 -1044.943963 -1900.000000
   vertex 2500.000000 -1050.000000 -1900.000000
  endloop
 endfacet
 facet normal 0.146730 -0.989177 0.000000
  outer loop
   vertex 2602.917997 -1044.943963 -2300.000000
   vertex 2704.844838 -1029.824544 -2300.000000
   vertex 2704.844838 -1029.824544 -1900.000000
  endloop
 endfacet
 facet normal 0.146730 -0.989177 0.000000
  outer loop
   vertex 2602.917997 -1044.943963 -2300.000000
   vertex 2704.844838 -1029.824544 -1900.000000
   vertex 2602.917997 -1044.943963 -1900.000000
  endloop
 endfacet
 facet normal 0.242980 -0.970031 0.000000
  outer loop
   vertex 2704.844838 -1029.824544 -2300.000000
   vertex 2804.798911 -1004.787353 -2300.000000
   vertex 2804.798911 -1004.787353 -1900.000000
  endloop
 endfacet
 facet normal 0.242980 -0.970031 0.000000
  outer loop
   vertex 2704.844838 -1029.824544 -2300.000000
   vertex 2804.798911 -1004.787353 -1900.000000
   vertex 2704.844838 -1029.824544 -1900.000000
  endloop
 endfacet
 facet normal 0.336890 -0.941544 0.000000
  outer loop
   vertex 2804.798911 -1004.787353 -2300.000000
   vertex 2901.817604 -970.073509 -2300.000000
   vertex 2901.817604 -970.073509 -1900.000000
  endloop
 endfacet
 facet normal 0.336890 -0.941544 0.000000
  outer loop
   vertex 2804.798911 -1004.787353 -2300.000000
   vertex 2901.817604 -970.073509 -1900.000000
   vertex 2804.798911 -1004.787353 -1900.000000
  endloop
 endfacet
 facet normal 0.427555 -0.903989 0.000000
  outer loop
   vertex 2901.817604 -970.073509 -2300.000000
   vertex 2994.966574 -926.017328 -2300.000000
   vertex 2994.966574 -926.017328 -1900.000000
  endloop
 endfacet
 facet normal 0.427555 -0.903989 0.000000
  outer loop
   vertex 2901.817604 -970.073509 -2300.000000
   vertex 2994.966574 -926.017328 -1900.000000
   vertex 2901.817604 -970.073509 -1900.000000
  endloop
 endfacet
 facet normal 0.514103 -0.857729 0.000000
  outer loop
   vertex 2994.966574 -926.017328 -2300.000000
   vertex 3083.348745 -873.043093 -2300.000000
   vertex 3083.348745 -873.043093 -1900.000000
  endloop
 endfacet
 facet normal 0.514103 -0.857729 0.000000
  outer loop
   vertex 2994.966574 -926.017328 -2300.000000
   vertex 3083.348745 -873.043093 -1900.000000
   vertex 2994.966574 -926.017328 -1900.000000
  endloop
 endfacet
 facet normal 0.595699 -0.803208 0.000000
  outer loop
   vertex 3083.348745 -873.043093 -2300.000000
   vertex 3166.112948 -811.660976 -2300.000000
   vertex 3166.112948 -811.660976 -1900.000000
  endloop
 endfacet
 facet normal 0.595699 -0.803208 0.000000
  outer loop
   vertex 3083.348745 -873.043093 -2300.000000
   vertex 3166.112948 -811.660976 -1900.000000
   vertex 3083.348745 -873.043093 -1900.000000
  endloop
 endfacet
 facet normal 0.671559 -0.740951 0.000000
  outer loop
   vertex 3166.112948 -811.660976 -2300.000000
   vertex 3242.462120 -742.462120 -2300.000000
   vertex 3242.462120 -742.462120 -1900.000000
  endloop
 endfacet
 facet normal 0.671559 -0.740951 0.000000
  outer loop
   vertex 3166.112948 -811.660976 -2300.000000
   vertex 3242.462120 -742.462120 -1900.000000
   vertex 3166.112948 -811.660976 -1900.000000
  endloop
 endfacet
 facet normal 0.740951 -0.671559 0.000000
  outer loop
   vertex 3242.462120 -742.462120 -2300.000000
   vertex 3311.660976 -666.112948 -2300.000000
   vertex 3311.660976 -666.112948 -1900.000000
  endloop
 endfacet
 facet normal 0.740951 -0.671559 0.000000
  outer loop
   vertex 3242.462120 -742.462120 -2300.000000
   vertex 3311.660976 -666.112948 -1900.000000
   vertex 3242.462120 -742.462120 -1900.000000
  endloop
 endfacet
 facet normal 0.803208 -0.595699 0.000000
  outer loop
   vertex 3311.660976 -666.112948 -2300.000000
   vertex 3373.043093 -583.348745 -2300.000000
   vertex 3373.043093 -583.348745 -1900.000000
  endloop
 endfacet
 facet normal 0.803208 -0.595699 0.000000
  outer loop
   vertex 3311.660976 -666.112948 -2300.000000
   vertex 3373.043093 -583.348745 -1900.000000
   vertex 3311.660976 -666.112948 -1900.000000
  endloop
 endfacet
 facet normal 0.857729 -0.514103 0.000000
  outer loop
   vertex 3373.043093 -583.348745 -2300.000000
   vertex 3426.017328 -494.966574 -2300.000000
   vertex 3426.017328 -494.966574 -1900.000000
  endloop
 endfacet
 facet normal 0.857729 -0.514103 0.000000
  outer loop
   vertex 3373.043093 -583.348745 -2300.000000
   vertex 3426.017328 -494.966574 -1900.000000
   vertex 3373.043093 -583.348745 -1900.000000
  endloop
 endfacet
 facet normal 0.903989 -0.427555 0.000000
  outer loop
   vertex 3426.017328 -494.966574 -2300.000000
   vertex 3470.073509 -401.817604 -2300.000000
   vertex 3470.073509 -401.817604 -1900.000000
  endloop
 endfacet
 facet normal 0.903989 -0.427555 0.000000
  outer loop
   vertex 3426.017328 -494.966574 -2300.000000
   vertex 3470.073509 -401.817604 -1900.000000
   vertex 3426.017328 -494.966574 -1900.000000
  endloop
 endfacet
 facet normal 0.941544 -0.336890 0.000000
  outer loop
   vertex 3470.073509 -401.817604 -2300.000000
   vertex 3504.787353 -304.798911 -2300.000000
   vertex 3504.787353 -304.798911 -1900.000000
  endloop
 endfacet
 facet normal 0.941544 -0.336890 0.000000
  outer loop
   vertex 3470.073509 -401.817604 -2300.000000
   vertex 3504.787353 -304.798911 -1900.000000
   vertex 3470.073509 -401.817604 -1900.000000
  endloop
 endfacet
 facet normal 0.970031 -0.242980 0.000000
  outer loop
   vertex 3504.787353 -304.798911 -2300.000000
   vertex 3529.824544 -204.844838 -2300.000000
   vertex 3529.824544 -204.844838 -1900.000000
  endloop
 endfacet
 facet normal 0.970031 -0.242980 0.000000
  outer loop
   vertex 3504.787353 -304.798911 -2300.000000
   vertex 3529.824544 -204.844838 -1900.000000
   vertex 3504.787353 -304.798911 -1900.000000
  endloop
 endfacet
 facet normal 0.989177 -0.146730 0.000000
  outer loop
   vertex 3529.824544 -204.844838 -2300.000000
   vertex 3544.943963 -102.917997 -2300.000000
   vertex 3544.943963 -102.917997 -1900.000000
  endloop
 endfacet
 facet normal 0.989177 -0.146730 0.000000
  outer loop
   vertex 3529.824544 -204.844838 -2300.000000
   vertex 3544.943963 -102.917997 -1900.000000
   vertex 3529.824544 -204.844838 -1900.000000
  endloop
 endfacet
 facet normal 0.998795 -0.049068 0.000000
  outer loop
   vertex 3544.943963 -102.917997 -2300.000000
   vertex 3550.000000 0.000000 -2300.000000
   vertex 3550.000000 0.000000 -1900.000000
  endloop
 endfacet
 facet normal 0.998795 -0.049068 0.000000
  outer loop
   vertex 3544.943963 -102.917997 -2300.000000
   vertex 3550.000000 0.000000 -1900.000000
   vertex 3544.943963 -102.917997 -1900.000000
  endloop
 endfacet
 facet normal 0.000000 0.000000 -1.000000
  outer loop
   vertex 2500.000000 0.000000 -2300.000000
   vertex 3544.943963 102.917997 -2300.000000
   vertex 3550.000000 0.000000 -2300.000000
  endloop
 endfacet
 facet normal 0.000000 0.000000 1.000000
  outer loop
   vertex 2500.000000 0.000000 -1900.000000
   vertex 3550.000000 0.000000 -1900.000000
   vertex 3544.943963 102.917997 -1900.000000
  endloop
 endfacet
 facet normal 0.000000 0.000000 -1.000000
  outer loop
   vertex 2500.000000 0.000000 -2300.000000
   vertex 3529.824544 204.844838 -2300.000000
   vertex 3544.943963 102.917997 -2300.000000
  endloop
 endfacet
 facet normal 0.000000 0.000000 1.000000
  outer loop
   vertex 2500.000000 0.000000 -1900.000000
   vertex 3544.943963 102.917997 -1900.000000
   vertex 3529.824544 204.844838 -1900.000000
  endloop
 endfacet
 facet normal 0.000000 0.000000 -1.000000
  outer loop
   vertex 2500.000000 0.000000 -2300.000000
   vertex 3504.787353 304.798911 -2300.000000
   vertex 3529.824544 204.844838 -2300.000000
  endloop
 endfacet
 facet normal 0.000000 0.000000 1.000000
  outer loop
   vertex 2500.000000 0.000000 -1900.000000
   vertex 3529.824544 204.844838 -1900.000000
   vertex 3504.787353 304.798911 -1900.000000
  endloop
 endfacet
 facet normal 0.000000 0.000000 -1.000000
  outer loop
   vertex 2500.000000 0.000000 -2300.000000
   vertex 3470.073509 401.817604 -2300.000000
   vertex 3504.787353 304.798911 -2300.000000
  endloop
 endfacet
 facet normal 0.000000 0.000000 1.000000
  outer loop
   vertex 2500.000000 0.000000 -1900.000000
   vertex 3504.787353 304.798911 -1900.000000
   vertex 3470.073509 401.817604 -1900.000000
  endloop
 endfacet
 facet normal 0.000000 0.000000 -1.000000
  outer loop
   vertex 2500.000000 0.000000 -2300.000000
   vertex 3426.017328 494.966574 -2300.000000
   vertex 3470.073509 401.817604 -2300.000000
  endloop
 endfacet
 facet normal 0.000000 0.000000 1.000000
  outer loop
   vertex 2500.000000 0.000000 -1900.000000
   vertex 3470.073509 401.817604 -1900.000000
   vertex 3426.017328 494.966574 -1900.000000
  endloop
 endfacet
 facet normal 0.000000 0.000000 -1.000000
  outer loop
   vertex 2500.000000 0.000000 -2300.000000
   vertex 3373.043093 583.348745 -2300.000000
   vertex 3426.017328 494.966574 -2300.000000
  endloop
 endfacet
 facet normal 0.000000 0.000000 1.000000
  outer loop
   vertex 2500.000000 0.000000 -1900.000000
   vertex 3426.017328 494.966574 -1900.000000
   vertex 3373.043093 583.348745 -1900.000000
  endloop
 endfacet
 facet normal 0.000000 0.000000 -1.000000
  outer loop
   vertex 2500.000000 0.000000 -2300.000000
   vertex 3311.660976 666.112948 -2300.000000
   vertex 3373.043093 583.348745 -2300.000000
  endloop
 endfacet
 facet normal 0.000000 0.000000 1.000000
  outer loop
   vertex 2500.000000 0.000000 -1900.000000
   vertex 3373.043093 583.348745 -1900.000000
   vertex 3311.660976 666.112948 -1900.000000
  endloop
 endfacet
 facet normal 0.000000 0.000000 -1.000000
  outer loop
   vertex 2500.000000 0.000000 -2300.000000
   vertex 3242.462120 742.462120 -2300.000000
   vertex 3311.660976 666.112948 -2300.000000
  endloop
 endfacet
 facet normal 0.000000 0.000000 1.000000
  outer loop
   vertex 2500.000000 0.000000 -1900.000000
   vertex 3311.660976 666.112948 -1900.000000
   vertex 3242.462120 742.462120 -1900.000000
  endloop
 endfacet
 facet normal 0.000000 0.000000 -1.000000
  outer loop
   vertex 2500.000000 0.000000 -2300.000000
   vertex 3166.112948 811.660976 -2300.000000
   vertex 3242.462120 742.462120 -2300.000000
  endloop
 endfacet
 facet normal 0.000000 0.000000 1.000000
  outer loop
   vertex 2500.000000 0.000000 -1900.000000
   vertex 3242.462120 742.462120 -1900.000000
   vertex 3166.112948 811.660976 -1900.000000
  endloop
 endfacet
 facet normal 0.000000 0.000000 -1.000000
  outer loop
   vertex 2500.000000 0.000000 -2300.000000
   vertex 3083.348745 873.043093 -2300.000000
   vertex 3166.112948 811.660976 -2300.000000
  endloop
 endfacet
 facet normal 0.000000 0.000000 1.000000
  outer loop
   vertex 2500.000000 0.000000 -1900.000000
   vertex 3166.112948 811.660976 -1900.000000
   vertex 3083.348745 873.043093 -1900.000000
  endloop
 endfacet
 facet normal 0.000000 0.000000 -1.000000
  outer loop
   vertex 2500.000000 0.000000 -2300.000000
   vertex 2994.966574 926.017328 -2300.000000
   vertex 3083.348745 873.043093 -2300.000000
  endloop
 endfacet
 facet normal 0.000000 0.000000 1.000000
  outer loop
   vertex 2500.000000 0.000000 -1900.000000
   vertex 3083.348745 873.043093 -1900.000000
   vertex 2994.966574 926.017328 -1900.000000
  endloop
 endfacet
 facet normal 0.000000 0.000000 -1.000000
  outer loop
   vertex 2500.000000 0.000000 -2300.000000
   vertex 2901.817604 970.073509 -2300.000000
   vertex 2994.966574 926.017328 -2300.000000
  endloop
 endfacet
 facet normal 0.000000 0.000000 1.000000
  outer loop
   vertex 2500.000000 0.000000 -1900.000000
   vertex 2994.966574 926.017328 -1900.000000
   vertex 2901.817604 970.073509 -1900.000000
  endloop
 endfacet
 facet normal 0.000000 0.000000 -1.000000
  outer loop
   vertex 2500.000000 0.000000 -2300.000000
   vertex 2804.798911 1004.787353 -2300.000000
   vertex 2901.817604 970.073509 -2300.000000
  endloop
 endfacet
 facet normal 0.000000 0.000000 1.000000
  outer loop
   vertex 2500.000000 0.000000 -1900.000000
   vertex 2901.817604 970.073509 -1900.000000
   vertex 2804.798911 1004.787353 -1900.000000
  endloop
 endfacet
 facet normal 0.000000 0.000000 -1.000000
  outer loop
   vertex 2500.000000 0.000000 -2300.000000
   vertex 2704.844838 1029.824544 -2300.000000
   vertex 2804.798911 1004.787353 -2300.000000
  endloop
 endfacet
 facet normal 0.000000 0.000000 1.000000
  outer loop
   vertex 2500.000000 0.000000 -1900.000000
   vertex 2804.798911 1004.787353 -1900.000000
   vertex 2704.844838 1029.824544 -1900.000000
  endloop
 endfacet
 facet normal 0.000000 0.000000 -1.000000
  outer loop
   vertex 2500.000000 0.000000 -2300.000000
   vertex 2602.917997 1044.943963 -2300.000000
   vertex 2704.844838 1029.824544 -2300.000000
  endloop
 endfacet
 facet normal 0.000000 0.000000 1.000000
  outer loop
   vertex 2500.000000 0.000000 -1900.000000
   vertex 2704.844838 1029.824544 -1900.000000
   vertex 2602.917997 1044.943963 -1900.000000
  endloop
 endfacet
 facet normal 0.000000 0.000000 -1.000000
  outer loop
   vertex 2500.000000 0.000000 -2300.000000
   vertex 2500.000000 1050.000000 -2300.000000
   vertex 2602.917997 1044.943963 -2300.000000
  endloop
 endfacet
 facet normal 0.000000 0.000000 1.000000
  outer loop
   vertex 2500.000000 0.000000 -1900.000000
   vertex 2602.917997 1044.943963 -1900.000000
   vertex 2500.000000 1050.000000 -1900.000000
  endloop
 endfacet
 facet normal 0.000000 0.000000 -1.000000
  outer loop
   vertex 2500.000000 0.000000 -2300.000000
   vertex 2397.082003 1044.943963 -2300.000000
   vertex 2500.000000 1050.000000 -2300.000000
  endloop
 endfacet
 facet normal 0.000000 -0.000000 1.000000
  outer loop
   vertex 2500.000000 0.000000 -1900.000000
   vertex 2500.000000 1050.000000 -1900.000000
   vertex 2397.082003 1044.943963 -1900.000000
  endloop
 endfacet
 facet normal 0.000000 0.000000 -1.000000
  outer loop
   vertex 2500.000000 0.000000 -2300.000000
   vertex 2295.155162 1029.824544 -2300.000000
   vertex 2397.082003 1044.943963 -2300.000000
  endloop
 endfacet
 facet normal 0.000000 0.000000 1.000000
  outer loop
   vertex 2500.000000 0.000000 -1900.000000
   vertex 2397.082003 1044.943963 -1900.000000
   vertex 2295.155162 1029.824544 -1900.000000
  endloop
 endfacet
 facet normal 0.000000 0.000000 -1.000000
  outer loop
   vertex 2500.000000 0.000000 -2300.000000
   vertex 2195.201089 1004.787353 -2300.000000
   vertex 2295.155162 1029.824544 -2300.000000
  endloop
 endfacet
 facet normal 0.000000 0.000000 1.000000
  outer loop
   vertex 2500.000000 0.000000 -1900.000000
   vertex 2295.155162 1029.824544 -1900.000000
   vertex 2195.201089 1004.787353 -1900.000000
  endloop
 endfacet
 facet normal 0.000000 0.000000 -1.000000
  outer loop
   vertex 2500.000000 0.000000 -2300.000000
   vertex 2098.182396 970.073509 -2300.000000
   vertex 2195.201089 1004.787353 -2300.000000
  endloop
 endfacet
 facet normal 0.000000 0.000000 1.000000
  outer loop
   vertex 2500.000000 0.000000 -1900.000000
   vertex 2195.201089 1004.787353 -1900.000000
   vertex 2098.182396 970.073509 -1900.000000
  endloop
 endfacet
 facet normal 0.000000 0.000000 -1.000000
  outer loop
   vertex 2500.000000 0.000000 -2300.000000
   vertex 2005.033426 926.017328 -2300.000000
   vertex 2098.182396 970.073509 -2300.000000
  endloop
 endfacet
 facet normal 0.000000 0.000000 1.000000
  outer loop
   vertex 2500.000000 0.000000 -1900.000000
   vertex 2098.182396 970.073509 -1900.000000
   vertex 2005.033426 926.017328 -1900.000000
  endloop
 endfacet
 facet normal 0.000000 0.000000 -1.000000
  outer loop
   vertex 2500.000000 0.000000 -2300.000000
   vertex 1916.651255 873.043093 -2300.000000
   vertex 2005.033426 926.017328 -2300.000000
  endloop
 endfacet
 facet normal 0.000000 0.000000 1.000000
  outer loop
   vertex 2500.000000 0.000000 -1900.000000
   vertex 2005.033426 926.017328 -1900.000000
   vertex 1916.651255 873.043093 -1900.000000
  endloop
 endfacet
 facet normal 0.000000 0.000000 -1.000000
  outer loop
   vertex 2500.000000 0.000000 -2300.000000
   vertex 1833.887052 811.660976 -2300.000000
   vertex 1916.651255 873.043093 -2300.000000
  endloop
 endfacet
 facet normal 0.000000 0.000000 1.000000
  outer loop
   vertex 2500.000000 0.000000 -1900.000000
   vertex 1916.651255 873.043093 -1900.000000
   vertex 1833.887052 811.660976 -1900.000000
  endloop
 endfacet
 facet normal 0.000000 0.000000 -1.000000
  outer loop
   vertex 2500.000000 0.000000 -2300.000000
   vertex 1757.537880 742.462120 -2300.000000
   vertex 1833.887052 811.660976 -2300.000000
  endloop
 endfacet
 facet normal 0.000000 0.000000 1.000000
  outer loop
   vertex 2500.000000 0.000000 -1900.000000
   vertex 1833.887052 811.660976 -1900.000000
   vertex 1757.537880 742.462120 -1900.000000
  endloop
 endfacet
 facet normal 0.000000 0.000000 -1.000000
  outer loop
   vertex 2500.000000 0.000000 -2300.000000
   vertex 1688.339024 666.112948 -2300.000000
   vertex 1757.537880 742.462120 -2300.000000
  endloop
 endfacet
 facet normal 0.000000 0.000000 1.000000
  outer loop
   vertex 2500.000000 0.000000 -1900.000000
   vertex 1757.537880 742.462120 -1900.000000
   vertex 1688.339024 666.112948 -1900.000000
  endloop
 endfacet
 facet normal 0.000000 0.000000 -1.000000
  outer loop
   vertex 2500.000000 0.000000 -2300.000000
   vertex 1626.956907 583.348745 -2300.000000
   vertex 1688.339024 666.112948 -2300.000000
  endloop
 endfacet
 facet normal 0.000000 0.000000 1.000000
  outer loop
   vertex 2500.000000 0.000000 -1900.000000
   vertex 1688.339024 666.112948 -1900.000000
   vertex 1626.956907 583.348745 -1900.000000
  endloop
 endfacet
 facet normal 0.000000 0.000000 -1.000000
  outer loop
   vertex 2500.000000 0.000000 -2300.000000
   vertex 1573.982672 494.966574 -2300.000000
   vertex 1626.956907 583.348745 -2300.000000
  endloop
 endfacet
 facet normal 0.000000 0.000000 1.000000
  outer loop
   vertex 2500.000000 0.000000 -1900.000000
   vertex 1626.956907 583.348745 -1900.000000
   vertex 1573.982672 494.966574 -1900.000000
  endloop
 endfacet
 facet normal 0.000000 0.000000 -1.000000
  outer loop
   vertex 2500.000000 0.000000 -2300.000000
   vertex 1529.926491 401.817604 -2300.000000
   vertex 1573.982672 494.966574 -2300.000000
  endloop
 endfacet
 facet normal 0.000000 0.000000 1.000000
  outer loop
   vertex 2500.000000 0.000000 -1900.000000
   vertex 1573.982672 494.966574 -1900.000000
   vertex 1529.926491 401.817604 -1900.000000
  endloop
 endfacet
 facet normal 0.000000 0.000000 -1.000000
  outer loop
   vertex 2500.000000 0.000000 -2300.000000
   vertex 1495.212647 304.798911 -2300.000000
   vertex 1529.926491 401.817604 -2300.000000
  endloop
 endfacet
 facet normal 0.000000 0.000000 1.000000
  outer loop
   vertex 2500.000000 0.000000 -1900.000000
   vertex 1529.926491 401.817604 -1900.000000
   vertex 1495.212647 304.798911 -1900.000000
  endloop
 endfacet
 facet normal 0.000000 0.000000 -1.000000
  outer loop
   vertex 2500.000000 0.000000 -2300.000000
   vertex 1470.175456 204.844838 -2300.000000
   vertex 1495.212647 304.798911 -2300.000000
  endloop
 endfacet
 facet normal 0.000000 0.000000 1.000000
  outer loop
   vertex 2500.000000 0.000000 -1900.000000
   vertex 1495.212647 304.798911 -1900.000000
   vertex 1470.175456 204.844838 -1900.000000
  endloop
 endfacet
 facet normal 0.000000 0.000000 -1.000000
  outer loop
   vertex 2500.000000 0.000000 -2300.000000
   vertex 1455.056037 102.917997 -2300.000000
   vertex 1470.175456 204.844838 -2300.000000
  endloop
 endfacet
 facet normal 0.000000 0.000000 1.000000
  outer loop
   vertex 2500.000000 0.000000 -1900.000000
   vertex 1470.175456 204.844838 -1900.000000
   vertex 1455.056037 102.917997 -1900.000000
  endloop
 endfacet
 facet normal 0.000000 0.000000 -1.000000
  outer loop
   vertex 2500.000000 0.000000 -2300.000000
   vertex 1450.000000 0.000000 -2300.000000
   vertex 1455.056037 102.917997 -2300.000000
  endloop
 endfacet
 facet normal 0.000000 0.000000 1.000000
  outer loop
   vertex 2500.000000 0.000000 -1900.000000
   vertex 1455.056037 102.917997 -1900.000000
   vertex 1450.000000 0.000000 -1900.000000
  endloop
 endfacet
 facet normal -0.000000 0.000000 -1.000000
  outer loop
   vertex 2500.000000 0.000000 -2300.000000
   vertex 1455.056037 -102.917997 -2300.000000
   vertex 1450.000000 0.000000 -2300.000000
  endloop
 endfacet
 facet normal 0.000000 0.000000 1.000000
  outer loop
   vertex 2500.000000 0.000000 -1900.000000
   vertex 1450.000000 0.000000 -1900.000000
   vertex 1455.056037 -102.917997 -1900.000000
  endloop
 endfacet
 facet normal 0.000000 0.000000 -1.000000
  outer loop
   vertex 2500.000000 0.000000 -2300.000000
   vertex 1470.175456 -204.844838 -2300.000000
   vertex 1455.056037 -102.917997 -2300.000000
  endloop
 endfacet
 facet normal 0.000000 0.000000 1.000000
  outer loop
   vertex 2500.000000 0.000000 -1900.000000
   vertex 1455.056037 -102.917997 -1900.000000
   vertex 1470.175456 -204.844838 -1900.000000
  endloop
 endfacet
 facet normal 0.000000 0.000000 -1.000000
  outer loop
   vertex 2500.000000 0.000000 -2300.000000
   vertex 1495.212647 -304.798911 -2300.000000
   vertex 1470.175456 -204.844838 -2300.000000
  endloop
 endfacet
 facet normal 0.000000 0.000000 1.000000
  outer loop
   vertex 2500.000000 0.000000 -1900.000000
   vertex 1470.175456 -204.844838 -1900.000000
   vertex 1495.212647 -304.798911 -1900.000000
  endloop
 endfacet
 facet normal 0.000000 0.000000 -1.000000
  outer loop
   vertex 2500.000000 0.000000 -2300.000000
   vertex 1529.926491 -401.817604 -2300.000000
   vertex 1495.212647 -304.798911 -2300.000000
  endloop
 endfacet
 facet normal 0.000000 0.000000 1.000000
  outer loop
   vertex 2500.000000 0.000000 -1900.000000
   vertex 1495.212647 -304.798911 -1900.000000
   vertex 1529.926491 -401.817604 -1900.000000
  endloop
 endfacet
 facet normal 0.000000 0.000000 -1.000000
  outer loop
   vertex 2500.000000 0.000000 -2300.000000
   vertex 1573.982672 -494.966574 -2300.000000
   vertex 1529.926491 -401.817604 -2300.000000
  endloop
 endfacet
 facet normal 0.000000 0.000000 1.000000
  outer loop
   vertex 2500.000000 0.000000 -1900.000000
   vertex 1529.926491 -401.817604 -1900.000000
   vertex 1573.982672 -494.966574 -1900.000000
  endloop
 endfacet
 facet normal 0.000000 0.000000 -1.000000
  outer loop
   vertex 2500.000000 0.000000 -2300.000000
   vertex 1626.956907 -583.348745 -2300.000000
   vertex 1573.982672 -494.966574 -2300.000000
  endloop
 endfacet
 facet normal 0.000000 0.000000 1.000000
  outer loop
   vertex 2500.000000 0.000000 -1900.000000
   vertex 1573.982672 -494.966574 -1900.000000
   vertex 1626.956907 -583.348745 -1900.000000
  endloop
 endfacet
 facet normal 0.000000 0.000000 -1.000000
  outer loop
   vertex 2500.000000 0.000000 -2300.000000
   vertex 1688.339024 -666.112948 -2300.000000
   vertex 1626.956907 -583.348745 -2300.000000
  endloop
 endfacet
 facet normal 0.000000 0.000000 1.000000
  outer loop
   vertex 2500.000000 0.000000 -1900.000000
   vertex 1626.956907 -583.348745 -1900.000000
   vertex 1688.339024 -666.112948 -1900.000000
  endloop
 endfacet
 facet normal 0.000000 0.000000 -1.000000
  outer loop
   vertex 2500.000000 0.000000 -2300.000000
   vertex 1757.537880 -742.462120 -2300.000000
   vertex 1688.339024 -666.112948 -2300.000000
  endloop
 endfacet
 facet normal 0.000000 0.000000 1.000000
  outer loop
   vertex 2500.000000 0.000000 -1900.000000
   vertex 1688.339024 -666.112948 -1900.000000
   vertex 1757.537880 -742.462120 -1900.000000
  endloop
 endfacet
 facet normal 0.000000 0.000000 -1.000000
  outer loop
   vertex 2500.000000 0.000000 -2300.000000
   vertex 1833.887052 -811.660976 -2300.000000
   vertex 1757.537880 -742.462120 -2300.000000
  endloop
 endfacet
 facet normal 0.000000 0.000000 1.000000
  outer loop
   vertex 2500.000000 0.000000 -1900.000000
   vertex 1757.537880 -742.462120 -1900.000000
   vertex 1833.887052 -811.660976 -1900.000000
  endloop
 endfacet
 facet normal 0.000000 0.000000 -1.000000
  outer loop
   vertex 2500.000000 0.000000 -2300.000000
   vertex 1916.651255 -873.043093 -2300.000000
   vertex 1833.887052 -811.660976 -2300.000000
  endloop
 endfacet
 facet normal 0.000000 0.000000 1.000000
  outer loop
   vertex 2500.000000 0.000000 -1900.000000
   vertex 1833.887052 -811.660976 -1900.000000
   vertex 1916.651255 -873.043093 -1900.000000
  endloop
 endfacet
 facet normal 0.000000 0.000000 -1.000000
  outer loop
   vertex 2500.000000 0.000000 -2300.000000
   vertex 2005.033426 -926.017328 -2300.000000
   vertex 1916.651255 -873.043093 -2300.000000
  endloop
 endfacet
 facet normal 0.000000 0.000000 1.000000
  outer loop
   vertex 2500.000000 0.000000 -1900.000000
   vertex 1916.651255 -873.043093 -1900.000000
   vertex 2005.033426 -926.017328 -1900.000000
  endloop
 endfacet
 facet normal 0.000000 0.000000 -1.000000
  outer loop
   vertex 2500.000000 0.000000 -2300.000000
   vertex 2098.182396 -970.073509 -2300.000000
   vertex 2005.033426 -926.017328 -2300.000000
  endloop
 endfacet
 facet normal 0.000000 0.000000 1.000000
  outer loop
   vertex 2500.000000 0.000000 -1900.000000
   vertex 2005.033426 -926.017328 -1900.000000
   vertex 2098.182396 -970.073509 -1900.000000
  endloop
 endfacet
 facet normal 0.000000 0.000000 -1.000000
  outer loop
   vertex 2500.000000 0.000000 -2300.000000
   vertex 2195.201089 -1004.787353 -2300.000000
   vertex 2098.182396 -970.073509 -2300.000000
  endloop
 endfacet
 facet normal 0.000000 0.000000 1.000000
  outer loop
   vertex 2500.000000 0.000000 -1900.000000
   vertex 2098.182396 -970.073509 -1900.000000
   vertex 2195.201089 -1004.787353 -1900.000000
  endloop
 endfacet
 facet normal 0.000000 0.000000 -1.000000
  outer loop
   vertex 2500.000000 0.000000 -2300.000000
   vertex 2295.155162 -1029.824544 -2300.000000
   vertex 2195.201089 -1004.787353 -2300.000000
  endloop
 endfacet
 facet normal 0.000000 0.000000 1.000000
  outer loop
   vertex 2500.000000 0.000000 -1900.000000
   vertex 2195.201089 -1004.787353 -1900.000000
   vertex 2295.155162 -1029.824544 -1900.000000
  endloop
 endfacet
 facet normal 0.000000 0.000000 -1.000000
  outer loop
   vertex 2500.000000 0.000000 -2300.000000
   vertex 2397.082003 -1044.943963 -2300.000000
   vertex 2295.155162 -1029.824544 -2300.000000
  endloop
 endfacet
 facet normal 0.000000 0.000000 1.000000
  outer loop
   vertex 2500.000000 0.000000 -1900.000000
   vertex 2295.155162 -1029.824544 -1900.000000
   vertex 2397.082003 -1044.943963 -1900.000000
  endloop
 endfacet
 facet normal 0.000000 -0.000000 -1.000000
  outer loop
   vertex 2500.000000 0.000000 -2300.000000
   vertex 2500.000000 -1050.000000 -2300.000000
   vertex 2397.082003 -1044.943963 -2300.000000
  endloop
 endfacet
 facet normal 0.000000 0.000000 1.000000
  outer loop
   vertex 2500.000000 0.000000 -1900.000000
   vertex 2397.082003 -1044.943963 -1900.000000
   vertex 2500.000000 -1050.000000 -1900.000000
  endloop
 endfacet
 facet normal 0.000000 0.000000 -1.000000
  outer loop
   vertex 2500.000000 0.000000 -2300.000000
   vertex 2602.917997 -1044.943963 -2300.000000
   vertex 2500.000000 -1050.000000 -2300.000000
  endloop
 endfacet
 facet normal 0.000000 0.000000 1.000000
  outer loop
   vertex 2500.000000 0.000000 -1900.000000
   vertex 2500.000000 -1050.000000 -1900.000000
   vertex 2602.917997 -1044.943963 -1900.000000
  endloop
 endfacet
 facet normal 0.000000 0.000000 -1.000000
  outer loop
   vertex 2500.000000 0.000000 -2300.000000
   vertex 2704.844838 -1029.824544 -2300.000000
   vertex 2602.917997 -1044.943963 -2300.000000
  endloop
 endfacet
 facet normal 0.000000 0.000000 1.000000
  outer loop
   vertex 2500.000000 0.000000 -1900.000000
   vertex 2602.917997 -1044.943963 -1900.000000
   vertex 2704.844838 -1029.824544 -1900.000000
  endloop
 endfacet
 facet normal 0.000000 0.000000 -1.000000
  outer loop
   vertex 2500.000000 0.000000 -2300.000000
   vertex 2804.798911 -1004.787353 -2300.000000
   vertex 2704.844838 -1029.824544 -2300.000000
  endloop
 endfacet
 facet normal 0.000000 0.000000 1.000000
  outer loop
   vertex 2500.000000 0.000000 -1900.000000
   vertex 2704.844838 -1029.824544 -1900.000000
   vertex 2804.798911 -1004.787353 -1900.000000
  endloop
 endfacet
 facet normal 0.000000 0.000000 -1.000000
  outer loop
   vertex 2500.000000 0.000000 -2300.000000
   vertex 2901.817604 -970.073509 -2300.000000
   vertex 2804.798911 -1004.787353 -2300.000000
  endloop
 endfacet
 facet normal 0.000000 0.000000 1.000000
  outer loop
   vertex 2500.000000 0.000000 -1900.000000
   vertex 2804.798911 -1004.787353 -1900.000000
   vertex 2901.817604 -970.073509 -1900.000000
  endloop
 endfacet
 facet normal 0.000000 0.000000 -1.000000
  outer loop
   vertex 2500.000000 0.000000 -2300.000000
   vertex 2994.966574 -926.017328 -2300.000000
   vertex 2901.817604 -970.073509 -2300.000000
  endloop
 endfacet
 facet normal 0.000000 0.000000 1.000000
  outer loop
   vertex 2500.000000 0.000000 -1900.000000
   vertex 2901.817604 -970.073509 -1900.000000
   vertex 2994.966574 -926.017328 -1900.000000
  endloop
 endfacet
 facet normal 0.000000 0.000000 -1.000000
  outer loop
   vertex 2500.000000 0.000000 -2300.000000
   vertex 3083.348745 -873.043093 -2300.000000
   vertex 2994.966574 -926.017328 -2300.000000
  endloop
 endfacet
 facet normal 0.000000 0.000000 1.000000
  outer loop
   vertex 2500.000000 0.000000 -1900.000000
   vertex 2994.966574 -926.017328 -1900.000000
   vertex 3083.348745 -873.043093 -1900.000000
  endloop
 endfacet
 facet normal 0.000000 0.000000 -1.000000
  outer loop
   vertex 2500.000000 0.000000 -2300.000000
   vertex 3166.112948 -811.660976 -2300.000000
   vertex 3083.348745 -873.043093 -2300.000000
  endloop
 endfacet
 facet normal 0.000000 0.000000 1.000000
  outer loop
   vertex 2500.000000 0.000000 -1900.000000
   vertex 3083.348745 -873.043093 -1900.000000
   vertex 3166.112948 -811.660976 -1900.000000
  endloop
 endfacet
 facet normal 0.000000 0.000000 -1.000000
  outer loop
   vertex 2500.000000 0.000000 -2300.000000
   vertex 3242.462120 -742.462120 -2300.000000
   vertex 3166.112948 -811.660976 -2300.000000
  endloop
 endfacet
 facet normal 0.000000 0.000000 1.000000
  outer loop
   vertex 2500.000000 0.000000 -1900.000000
   vertex 3166.112948 -811.660976 -1900.000000
   vertex 3242.462120 -742.462120 -1900.000000
  endloop
 endfacet
 facet normal 0.000000 0.000000 -1.000000
  outer loop
   vertex 2500.000000 0.000000 -2300.000000
   vertex 3311.660976 -666.112948 -2300.000000
   vertex 3242.462120 -742.462120 -2300.000000
  endloop
 endfacet
 facet normal 0.000000 0.000000 1.000000
  outer loop
   vertex 2500.000000 0.000000 -1900.000000
   vertex 3242.462120 -742.462120 -1900.000000
   vertex 3311.660976 -666.112948 -1900.000000
  endloop
 endfacet
 facet normal 0.000000 0.000000 -1.000000
  outer loop
   vertex 2500.000000 0.000000 -2300.000000
   vertex 3373.043093 -583.348745 -2300.000000
   vertex 3311.660976 -666.112948 -2300.000000
  endloop
 endfacet
 facet normal 0.000000 0.000000 1.000000
  outer loop
   vertex 2500.000000 0.000000 -1900.000000
   vertex 3311.660976 -666.112948 -1900.000000
   vertex 3373.043093 -583.348745 -1900.000000
  endloop
 endfacet
 facet normal 0.000000 0.000000 -1.000000
  outer loop
   vertex 2500.000000 0.000000 -2300.000000
   vertex 3426.017328 -494.966574 -2300.000000
   vertex 3373.043093 -583.348745 -2300.000000
  endloop
 endfacet
 facet normal 0.000000 0.000000 1.000000
  outer loop
   vertex 2500.000000 0.000000 -1900.000000
   vertex 3373.043093 -583.348745 -1900.000000
   vertex 3426.017328 -494.966574 -1900.000000
  endloop
 endfacet
 facet normal 0.000000 0.000000 -1.000000
  outer loop
   vertex 2500.000000 0.000000 -2300.000000
   vertex 3470.073509 -401.817604 -2300.000000
   vertex 3426.017328 -494.966574 -2300.000000
  endloop
 endfacet
 facet normal 0.000000 0.000000 1.000000
  outer loop
   vertex 2500.000000 0.000000 -1900.000000
   vertex 3426.017328 -494.966574 -1900.000000
   vertex 3470.073509 -401.817604 -1900.000000
  endloop
 endfacet
 facet normal 0.000000 0.000000 -1.000000
  outer loop
   vertex 2500.000000 0.000000 -2300.000000
   vertex 3504.787353 -304.798911 -2300.000000
   vertex 3470.073509 -401.817604 -2300.000000
  endloop
 endfacet
 facet normal 0.000000 0.000000 1.000000
  outer loop
   vertex 2500.000000 0.000000 -1900.000000
   vertex 3470.073509 -401.817604 -1900.000000
   vertex 3504.787353 -304.798911 -1900.000000
  endloop
 endfacet
 facet normal 0.000000 0.000000 -1.000000
  outer loop
   vertex 2500.000000 0.000000 -2300.000000
   vertex 3529.824544 -204.844838 -2300.000000
   vertex 3504.787353 -304.798911 -2300.000000
  endloop
 endfacet
 facet normal 0.000000 0.000000 1.000000
  outer loop
   vertex 2500.000000 0.000000 -1900.000000
   vertex 3504.787353 -304.798911 -1900.000000
   vertex 3529.824544 -204.844838 -1900.000000
  endloop
 endfacet
 facet normal 0.000000 0.000000 -1.000000
  outer loop
   vertex 2500.000000 0.000000 -2300.000000
   vertex 3544.943963 -102.917997 -2300.000000
   vertex 3529.824544 -204.844838 -2300.000000
  endloop
 endfacet
 facet normal 0.000000 0.000000 1.000000
  outer loop
   vertex 2500.000000 0.000000 -1900.000000
   vertex 3529.824544 -204.844838 -1900.000000
   vertex 3544.943963 -102.917997 -1900.000000
  endloop
 endfacet
 facet normal 0.000000 0.000000 -1.000000
  outer loop
   vertex 2500.000000 0.000000 -2300.000000
   vertex 3550.000000 0.000000 -2300.000000
   vertex 3544.943963 -102.917997 -2300.000000
  endloop
 endfacet
 facet normal -0.000000 0.000000 1.000000
  outer loop
   vertex 2500.000000 0.000000 -1900.000000
   vertex 3544.943963 -102.917997 -1900.000000
   vertex 3550.000000 0.000000 -1900.000000
  endloop
 endfacet
endsolid F1_INJECTOR
