solid RP1_VALVE
 facet normal 0.993712 0.111964 0.000000
  outer loop
   vertex -2303.125000 0.000000 -800.000000
   vertex -2308.061067 43.808809 -800.000000
   vertex -2308.061067 43.808809 -720.000000
  endloop
 endfacet
 facet normal 0.993712 0.111964 -0.000000
  outer loop
   vertex -2303.125000 0.000000 -800.000000
   vertex -2308.061067 43.808809 -720.000000
   vertex -2303.125000 0.000000 -720.000000
  endloop
 endfacet
 facet normal 0.943883 0.330279 0.000000
  outer loop
   vertex -2308.061067 43.808809 -800.000000
   vertex -2322.621754 85.420861 -800.000000
   vertex -2322.621754 85.420861 -720.000000
  endloop
 endfacet
 facet normal 0.943883 0.330279 -0.000000
  outer loop
   vertex -2308.061067 43.808809 -800.000000
   vertex -2322.621754 85.420861 -720.000000
   vertex -2308.061067 43.808809 -720.000000
  endloop
 endfacet
 facet normal 0.846724 0.532032 0.000000
  outer loop
   vertex -2322.621754 85.420861 -800.000000
   vertex -2346.076927 122.749555 -800.000000
   vertex -2346.076927 122.749555 -720.000000
  endloop
 endfacet
 facet normal 0.846724 0.532032 -0.000000
  outer loop
   vertex -2322.621754 85.420861 -800.000000
   vertex -2346.076927 122.749555 -720.000000
   vertex -2322.621754 85.420861 -720.000000
  endloop
 endfacet
 facet normal 0.707107 0.707107 0.000000
  outer loop
   vertex -2346.076927 122.749555 -800.000000
   vertex -2377.250445 153.923073 -800.000000
   vertex -2377.250445 153.923073 -720.000000
  endloop
 endfacet
 facet normal 0.707107 0.707107 -0.000000
  outer loop
   vertex -2346.076927 122.749555 -800.000000
   vertex -2377.250445 153.923073 -720.000000
   vertex -2346.076927 122.749555 -720.000000
  endloop
 endfacet
 facet normal 0.532032 0.846724 0.000000
  outer loop
   vertex -2377.250445 153.923073 -800.000000
   vertex -2414.579139 177.378246 -800.000000
   vertex -2414.579139 177.378246 -720.000000
  endloop
 endfacet
 facet normal 0.532032 0.846724 -0.000000
  outer loop
   vertex -2377.250445 153.923073 -800.000000
   vertex -2414.579139 177.378246 -720.000000
   vertex -2377.250445 153.923073 -720.000000
  endloop
 endfacet
 facet normal 0.330279 0.943883 0.000000
  outer loop
   vertex -2414.579139 177.378246 -800.000000
   vertex -2456.191191 191.938933 -800.000000
   vertex -2456.191191 191.938933 -720.000000
  endloop
 endfacet
 facet normal 0.330279 0.943883 -0.000000
  outer loop
   vertex -2414.579139 177.378246 -800.000000
   vertex -2456.191191 191.938933 -720.000000
   vertex -2414.579139 177.378246 -720.000000
  endloop
 endfacet
 facet normal 0.111964 0.993712 0.000000
  outer loop
   vertex -2456.191191 191.938933 -800.000000
   vertex -2500.000000 196.875000 -800.000000
   vertex -2500.000000 196.875000 -720.000000
  endloop
 endfacet
 facet normal 0.111964 0.993712 -0.000000
  outer loop
   vertex -2456.191191 191.938933 -800.000000
   vertex -2500.000000 196.875000 -720.000000
   vertex -2456.191191 191.938933 -720.000000
  endloop
 endfacet
 facet normal -0.111964 0.993712 0.000000
  outer loop
   vertex -2500.000000 196.875000 -800.000000
   vertex -2543.808809 191.938933 -800.000000
   vertex -2543.808809 191.938933 -720.000000
  endloop
 endfacet
 facet normal -0.111964 0.993712 0.000000
  outer loop
   vertex -2500.000000 196.875000 -800.000000
   vertex -2543.808809 191.938933 -720.000000
   vertex -2500.000000 196.875000 -720.000000
  endloop
 endfacet
 facet normal -0.330279 0.943883 0.000000
  outer loop
   vertex -2543.808809 191.938933 -800.000000
   vertex -2585.420861 177.378246 -800.000000
   vertex -2585.420861 177.378246 -720.000000
  endloop
 endfacet
 facet normal -0.330279 0.943883 0.000000
  outer loop
   vertex -2543.808809 191.938933 -800.000000
   vertex -2585.420861 177.378246 -720.000000
   vertex -2543.808809 191.938933 -720.000000
  endloop
 endfacet
 facet normal -0.532032 0.846724 0.000000
  outer loop
   vertex -2585.420861 177.378246 -800.000000
   vertex -2622.749555 153.923073 -800.000000
   vertex -2622.749555 153.923073 -720.000000
  endloop
 endfacet
 facet normal -0.532032 0.846724 0.000000
  outer loop
   vertex -2585.420861 177.378246 -800.000000
   vertex -2622.749555 153.923073 -720.000000
   vertex -2585.420861 177.378246 -720.000000
  endloop
 endfacet
 facet normal -0.707107 0.707107 0.000000
  outer loop
   vertex -2622.749555 153.923073 -800.000000
   vertex -2653.923073 122.749555 -800.000000
   vertex -2653.923073 122.749555 -720.000000
  endloop
 endfacet
 facet normal -0.707107 0.707107 0.000000
  outer loop
   vertex -2622.749555 153.923073 -800.000000
   vertex -2653.923073 122.749555 -720.000000
   vertex -2622.749555 153.923073 -720.000000
  endloop
 endfacet
 facet normal -0.846724 0.532032 0.000000
  outer loop
   vertex -2653.923073 122.749555 -800.000000
   vertex -2677.378246 85.420861 -800.000000
   vertex -2677.378246 85.420861 -720.000000
  endloop
 endfacet
 facet normal -0.846724 0.532032 0.000000
  outer loop
   vertex -2653.923073 122.749555 -800.000000
   vertex -2677.378246 85.420861 -720.000000
   vertex -2653.923073 122.749555 -720.000000
  endloop
 endfacet
 facet normal -0.943883 0.330279 0.000000
  outer loop
   vertex -2677.378246 85.420861 -800.000000
   vertex -2691.938933 43.808809 -800.000000
   vertex -2691.938933 43.808809 -720.000000
  endloop
 endfacet
 facet normal -0.943883 0.330279 0.000000
  outer loop
   vertex -2677.378246 85.420861 -800.000000
   vertex -2691.938933 43.808809 -720.000000
   vertex -2677.378246 85.420861 -720.000000
  endloop
 endfacet
 facet normal -0.993712 0.111964 0.000000
  outer loop
   vertex -2691.938933 43.808809 -800.000000
   vertex -2696.875000 0.000000 -800.000000
   vertex -2696.875000 0.000000 -720.000000
  endloop
 endfacet
 facet normal -0.993712 0.111964 0.000000
  outer loop
   vertex -2691.938933 43.808809 -800.000000
   vertex -2696.875000 0.000000 -720.000000
   vertex -2691.938933 43.808809 -720.000000
  endloop
 endfacet
 facet normal -0.993712 -0.111964 0.000000
  outer loop
   vertex -2696.875000 0.000000 -800.000000
   vertex -2691.938933 -43.808809 -800.000000
   vertex -2691.938933 -43.808809 -720.000000
  endloop
 endfacet
 facet normal -0.993712 -0.111964 0.000000
  outer loop
   vertex -2696.875000 0.000000 -800.000000
   vertex -2691.938933 -43.808809 -720.000000
   vertex -2696.875000 0.000000 -720.000000
  endloop
 endfacet
 facet normal -0.943883 -0.330279 0.000000
  outer loop
   vertex -2691.938933 -43.808809 -800.000000
   vertex -2677.378246 -85.420861 -800.000000
   vertex -2677.378246 -85.420861 -720.000000
  endloop
 endfacet
 facet normal -0.943883 -0.330279 0.000000
  outer loop
   vertex -2691.938933 -43.808809 -800.000000
   vertex -2677.378246 -85.420861 -720.000000
   vertex -2691.938933 -43.808809 -720.000000
  endloop
 endfacet
 facet normal -0.846724 -0.532032 0.000000
  outer loop
   vertex -2677.378246 -85.420861 -800.000000
   vertex -2653.923073 -122.749555 -800.000000
   vertex -2653.923073 -122.749555 -720.000000
  endloop
 endfacet
 facet normal -0.846724 -0.532032 0.000000
  outer loop
   vertex -2677.378246 -85.420861 -800.000000
   vertex -2653.923073 -122.749555 -720.000000
   vertex -2677.378246 -85.420861 -720.000000
  endloop
 endfacet
 facet normal -0.707107 -0.707107 0.000000
  outer loop
   vertex -2653.923073 -122.749555 -800.000000
   vertex -2622.749555 -153.923073 -800.000000
   vertex -2622.749555 -153.923073 -720.000000
  endloop
 endfacet
 facet normal -0.707107 -0.707107 0.000000
  outer loop
   vertex -2653.923073 -122.749555 -800.000000
   vertex -2622.749555 -153.923073 -720.000000
   vertex -2653.923073 -122.749555 -720.000000
  endloop
 endfacet
 facet normal -0.532032 -0.846724 0.000000
  outer loop
   vertex -2622.749555 -153.923073 -800.000000
   vertex -2585.420861 -177.378246 -800.000000
   vertex -2585.420861 -177.378246 -720.000000
  endloop
 endfacet
 facet normal -0.532032 -0.846724 0.000000
  outer loop
   vertex -2622.749555 -153.923073 -800.000000
   vertex -2585.420861 -177.378246 -720.000000
   vertex -2622.749555 -153.923073 -720.000000
  endloop
 endfacet
 facet normal -0.330279 -0.943883 0.000000
  outer loop
   vertex -2585.420861 -177.378246 -800.000000
   vertex -2543.808809 -191.938933 -800.000000
   vertex -2543.808809 -191.938933 -720.000000
  endloop
 endfacet
 facet normal -0.330279 -0.943883 0.000000
  outer loop
   vertex -2585.420861 -177.378246 -800.000000
   vertex -2543.808809 -191.938933 -720.000000
   vertex -2585.420861 -177.378246 -720.000000
  endloop
 endfacet
 facet normal -0.111964 -0.993712 0.000000
  outer loop
   vertex -2543.808809 -191.938933 -800.000000
   vertex -2500.000000 -196.875000 -800.000000
   vertex -2500.000000 -196.875000 -720.000000
  endloop
 endfacet
 facet normal -0.111964 -0.993712 0.000000
  outer loop
   vertex -2543.808809 -191.938933 -800.000000
   vertex -2500.000000 -196.875000 -720.000000
   vertex -2543.808809 -191.938933 -720.000000
  endloop
 endfacet
 facet normal 0.111964 -0.993712 0.000000
  outer loop
   vertex -2500.000000 -196.875000 -800.000000
   vertex -2456.191191 -191.938933 -800.000000
   vertex -2456.191191 -191.938933 -720.000000
  endloop
 endfacet
 facet normal 0.111964 -0.993712 0.000000
  outer loop
   vertex -2500.000000 -196.875000 -800.000000
   vertex -2456.191191 -191.938933 -720.000000
   vertex -2500.000000 -196.875000 -720.000000
  endloop
 endfacet
 facet normal 0.330279 -0.943883 0.000000
  outer loop
   vertex -2456.191191 -191.938933 -800.000000
   vertex -2414.579139 -177.378246 -800.000000
   vertex -2414.579139 -177.378246 -720.000000
  endloop
 endfacet
 facet normal 0.330279 -0.943883 0.000000
  outer loop
   vertex -2456.191191 -191.938933 -800.000000
   vertex -2414.579139 -177.378246 -720.000000
   vertex -2456.191191 -191.938933 -720.000000
  endloop
 endfacet
 facet normal 0.532032 -0.846724 0.000000
  outer loop
   vertex -2414.579139 -177.378246 -800.000000
   vertex -2377.250445 -153.923073 -800.000000
   vertex -2377.250445 -153.923073 -720.000000
  endloop
 endfacet
 facet normal 0.532032 -0.846724 0.000000
  outer loop
   vertex -2414.579139 -177.378246 -800.000000
   vertex -2377.250445 -153.923073 -720.000000
   vertex -2414.579139 -177.378246 -720.000000
  endloop
 endfacet
 facet normal 0.707107 -0.707107 0.000000
  outer loop
   vertex -2377.250445 -153.923073 -800.000000
   vertex -2346.076927 -122.749555 -800.000000
   vertex -2346.076927 -122.749555 -720.000000
  endloop
 endfacet
 facet normal 0.707107 -0.707107 0.000000
  outer loop
   vertex -2377.250445 -153.923073 -800.000000
   vertex -2346.076927 -122.749555 -720.000000
   vertex -2377.250445 -153.923073 -720.000000
  endloop
 endfacet
 facet normal 0.846724 -0.532032 0.000000
  outer loop
   vertex -2346.076927 -122.749555 -800.000000
   vertex -2322.621754 -85.420861 -800.000000
   vertex -2322.621754 -85.420861 -720.000000
  endloop
 endfacet
 facet normal 0.846724 -0.532032 0.000000
  outer loop
   vertex -2346.076927 -122.749555 -800.000000
   vertex -2322.621754 -85.420861 -720.000000
   vertex -2346.076927 -122.749555 -720.000000
  endloop
 endfacet
 facet normal 0.943883 -0.330279 0.000000
  outer loop
   vertex -2322.621754 -85.420861 -800.000000
   vertex -2308.061067 -43.808809 -800.000000
   vertex -2308.061067 -43.808809 -720.000000
  endloop
 endfacet
 facet normal 0.943883 -0.330279 0.000000
  outer loop
   vertex -2322.621754 -85.420861 -800.000000
   vertex -2308.061067 -43.808809 -720.000000
   vertex -2322.621754 -85.420861 -720.000000
  endloop
 endfacet
 facet normal 0.993712 -0.111964 0.000000
  outer loop
   vertex -2308.061067 -43.808809 -800.000000
   vertex -2303.125000 0.000000 -800.000000
   vertex -2303.125000 0.000000 -720.000000
  endloop
 endfacet
 facet normal 0.993712 -0.111964 0.000000
  outer loop
   vertex -2308.061067 -43.808809 -800.000000
   vertex -2303.125000 0.000000 -720.000000
   vertex -2308.061067 -43.808809 -720.000000
  endloop
 endfacet
 facet normal 0.000000 0.000000 -1.000000
  outer loop
   vertex -2500.000000 0.000000 -800.000000
   vertex -2308.061067 43.808809 -800.000000
   vertex -2303.125000 0.000000 -800.000000
  endloop
 endfacet
 facet normal 0.000000 0.000000 1.000000
  outer loop
   vertex -2500.000000 0.000000 -720.000000
   vertex -2303.125000 0.000000 -720.000000
   vertex -2308.061067 43.808809 -720.000000
  endloop
 endfacet
 facet normal 0.000000 0.000000 -1.000000
  outer loop
   vertex -2500.000000 0.000000 -800.000000
   vertex -2322.621754 85.420861 -800.000000
   vertex -2308.061067 43.808809 -800.000000
  endloop
 endfacet
 facet normal 0.000000 0.000000 1.000000
  outer loop
   vertex -2500.000000 0.000000 -720.000000
   vertex -2308.061067 43.808809 -720.000000
   vertex -2322.621754 85.420861 -720.000000
  endloop
 endfacet
 facet normal 0.000000 0.000000 -1.000000
  outer loop
   vertex -2500.000000 0.000000 -800.000000
   vertex -2346.076927 122.749555 -800.000000
   vertex -2322.621754 85.420861 -800.000000
  endloop
 endfacet
 facet normal 0.000000 0.000000 1.000000
  outer loop
   vertex -2500.000000 0.000000 -720.000000
   vertex -2322.621754 85.420861 -720.000000
   vertex -2346.076927 122.749555 -720.000000
  endloop
 endfacet
 facet normal 0.000000 0.000000 -1.000000
  outer loop
   vertex -2500.000000 0.000000 -800.000000
   vertex -2377.250445 153.923073 -800.000000
   vertex -2346.076927 122.749555 -800.000000
  endloop
 endfacet
 facet normal 0.000000 0.000000 1.000000
  outer loop
   vertex -2500.000000 0.000000 -720.000000
   vertex -2346.076927 122.749555 -720.000000
   vertex -2377.250445 153.923073 -720.000000
  endloop
 endfacet
 facet normal 0.000000 0.000000 -1.000000
  outer loop
   vertex -2500.000000 0.000000 -800.000000
   vertex -2414.579139 177.378246 -800.000000
   vertex -2377.250445 153.923073 -800.000000
  endloop
 endfacet
 facet normal 0.000000 0.000000 1.000000
  outer loop
   vertex -2500.000000 0.000000 -720.000000
   vertex -2377.250445 153.923073 -720.000000
   vertex -2414.579139 177.378246 -720.000000
  endloop
 endfacet
 facet normal 0.000000 0.000000 -1.000000
  outer loop
   vertex -2500.000000 0.000000 -800.000000
   vertex -2456.191191 191.938933 -800.000000
   vertex -2414.579139 177.378246 -800.000000
  endloop
 endfacet
 facet normal 0.000000 0.000000 1.000000
  outer loop
   vertex -2500.000000 0.000000 -720.000000
   vertex -2414.579139 177.378246 -720.000000
   vertex -2456.191191 191.938933 -720.000000
  endloop
 endfacet
 facet normal 0.000000 0.000000 -1.000000
  outer loop
   vertex -2500.000000 0.000000 -800.000000
   vertex -2500.000000 196.875000 -800.000000
   vertex -2456.191191 191.938933 -800.000000
  endloop
 endfacet
 facet normal 0.000000 0.000000 1.000000
  outer loop
   vertex -2500.000000 0.000000 -720.000000
   vertex -2456.191191 191.938933 -720.000000
   vertex -2500.000000 196.875000 -720.000000
  endloop
 endfacet
 facet normal 0.000000 0.000000 -1.000000
  outer loop
   vertex -2500.000000 0.000000 -800.000000
   vertex -2543.808809 191.938933 -800.000000
   vertex -2500.000000 196.875000 -800.000000
  endloop
 endfacet
 facet normal 0.000000 -0.000000 1.000000
  outer loop
   vertex -2500.000000 0.000000 -720.000000
   vertex -2500.000000 196.875000 -720.000000
   vertex -2543.808809 191.938933 -720.000000
  endloop
 endfacet
 facet normal 0.000000 0.000000 -1.000000
  outer loop
   vertex -2500.000000 0.000000 -800.000000
   vertex -2585.420861 177.378246 -800.000000
   vertex -2543.808809 191.938933 -800.000000
  endloop
 endfacet
 facet normal 0.000000 0.000000 1.000000
  outer loop
   vertex -2500.000000 0.000000 -720.000000
   vertex -2543.808809 191.938933 -720.000000
   vertex -2585.420861 177.378246 -720.000000
  endloop
 endfacet
 facet normal 0.000000 0.000000 -1.000000
  outer loop
   vertex -2500.000000 0.000000 -800.000000
   vertex -2622.749555 153.923073 -800.000000
   vertex -2585.420861 177.378246 -800.000000
  endloop
 endfacet
 facet normal 0.000000 0.000000 1.000000
  outer loop
   vertex -2500.000000 0.000000 -720.000000
   vertex -2585.420861 177.378246 -720.000000
   vertex -2622.749555 153.923073 -720.000000
  endloop
 endfacet
 facet normal 0.000000 0.000000 -1.000000
  outer loop
   vertex -2500.000000 0.000000 -800.000000
   vertex -2653.923073 122.749555 -800.000000
   vertex -2622.749555 153.923073 -800.000000
  endloop
 endfacet
 facet normal 0.000000 0.000000 1.000000
  outer loop
   vertex -2500.000000 0.000000 -720.000000
   vertex -2622.749555 153.923073 -720.000000
   vertex -2653.923073 122.749555 -720.000000
  endloop
 endfacet
 facet normal 0.000000 0.000000 -1.000000
  outer loop
   vertex -2500.000000 0.000000 -800.000000
   vertex -2677.378246 85.420861 -800.000000
   vertex -2653.923073 122.749555 -800.000000
  endloop
 endfacet
 facet normal 0.000000 0.000000 1.000000
  outer loop
   vertex -2500.000000 0.000000 -720.000000
   vertex -2653.923073 122.749555 -720.000000
   vertex -2677.378246 85.420861 -720.000000
  endloop
 endfacet
 facet normal 0.000000 0.000000 -1.000000
  outer loop
   vertex -2500.000000 0.000000 -800.000000
   vertex -2691.938933 43.808809 -800.000000
   vertex -2677.378246 85.420861 -800.000000
  endloop
 endfacet
 facet normal 0.000000 0.000000 1.000000
  outer loop
   vertex -2500.000000 0.000000 -720.000000
   vertex -2677.378246 85.420861 -720.000000
   vertex -2691.938933 43.808809 -720.000000
  endloop
 endfacet
 facet normal 0.000000 0.000000 -1.000000
  outer loop
   vertex -2500.000000 0.000000 -800.000000
   vertex -2696.875000 0.000000 -800.000000
   vertex -2691.938933 43.808809 -800.000000
  endloop
 endfacet
 facet normal 0.000000 0.000000 1.000000
  outer loop
   vertex -2500.000000 0.000000 -720.000000
   vertex -2691.938933 43.808809 -720.000000
   vertex -2696.875000 0.000000 -720.000000
  endloop
 endfacet
 facet normal -0.000000 0.000000 -1.000000
  outer loop
   vertex -2500.000000 0.000000 -800.000000
   vertex -2691.938933 -43.808809 -800.000000
   vertex -2696.875000 0.000000 -800.000000
  endloop
 endfacet
 facet normal 0.000000 0.000000 1.000000
  outer loop
   vertex -2500.000000 0.000000 -720.000000
   vertex -2696.875000 0.000000 -720.000000
   vertex -2691.938933 -43.808809 -720.000000
  endloop
 endfacet
 facet normal 0.000000 0.000000 -1.000000
  outer loop
   vertex -2500.000000 0.000000 -800.000000
   vertex -2677.378246 -85.420861 -800.000000
   vertex -2691.938933 -43.808809 -800.000000
  endloop
 endfacet
 facet normal 0.000000 0.000000 1.000000
  outer loop
   vertex -2500.000000 0.000000 -720.000000
   vertex -2691.938933 -43.808809 -720.000000
   vertex -2677.378246 -85.420861 -720.000000
  endloop
 endfacet
 facet normal 0.000000 0.000000 -1.000000
  outer loop
   vertex -2500.000000 0.000000 -800.000000
   vertex -2653.923073 -122.749555 -800.000000
   vertex -2677.378246 -85.420861 -800.000000
  endloop
 endfacet
 facet normal 0.000000 0.000000 1.000000
  outer loop
   vertex -2500.000000 0.000000 -720.000000
   vertex -2677.378246 -85.420861 -720.000000
   vertex -2653.923073 -122.749555 -720.000000
  endloop
 endfacet
 facet normal 0.000000 0.000000 -1.000000
  outer loop
   vertex -2500.000000 0.000000 -800.000000
   vertex -2622.749555 -153.923073 -800.000000
   vertex -2653.923073 -122.749555 -800.000000
  endloop
 endfacet
 facet normal 0.000000 0.000000 1.000000
  outer loop
   vertex -2500.000000 0.000000 -720.000000
   vertex -2653.923073 -122.749555 -720.000000
   vertex -2622.749555 -153.923073 -720.000000
  endloop
 endfacet
 facet normal 0.000000 0.000000 -1.000000
  outer loop
   vertex -2500.000000 0.000000 -800.000000
   vertex -2585.420861 -177.378246 -800.000000
   vertex -2622.749555 -153.923073 -800.000000
  endloop
 endfacet
 facet normal 0.000000 0.000000 1.000000
  outer loop
   vertex -2500.000000 0.000000 -720.000000
   vertex -2622.749555 -153.923073 -720.000000
   vertex -2585.420861 -177.378246 -720.000000
  endloop
 endfacet
 facet normal 0.000000 0.000000 -1.000000
  outer loop
   vertex -2500.000000 0.000000 -800.000000
   vertex -2543.808809 -191.938933 -800.000000
   vertex -2585.420861 -177.378246 -800.000000
  endloop
 endfacet
 facet normal 0.000000 0.000000 1.000000
  outer loop
   vertex -2500.000000 0.000000 -720.000000
   vertex -2585.420861 -177.378246 -720.000000
   vertex -2543.808809 -191.938933 -720.000000
  endloop
 endfacet
 facet normal 0.000000 -0.000000 -1.000000
  outer loop
   vertex -2500.000000 0.000000 -800.000000
   vertex -2500.000000 -196.875000 -800.000000
   vertex -2543.808809 -191.938933 -800.000000
  endloop
 endfacet
 facet normal 0.000000 0.000000 1.000000
  outer loop
   vertex -2500.000000 0.000000 -720.000000
   vertex -2543.808809 -191.938933 -720.000000
   vertex -2500.000000 -196.875000 -720.000000
  endloop
 endfacet
 facet normal 0.000000 0.000000 -1.000000
  outer loop
   vertex -2500.000000 0.000000 -800.000000
   vertex -2456.191191 -191.938933 -800.000000
   vertex -2500.000000 -196.875000 -800.000000
  endloop
 endfacet
 facet normal 0.000000 0.000000 1.000000
  outer loop
   vertex -2500.000000 0.000000 -720.000000
   vertex -2500.000000 -196.875000 -720.000000
   vertex -2456.191191 -191.938933 -720.000000
  endloop
 endfacet
 facet normal 0.000000 0.000000 -1.000000
  outer loop
   vertex -2500.000000 0.000000 -800.000000
   vertex -2414.579139 -177.378246 -800.000000
   vertex -2456.191191 -191.938933 -800.000000
  endloop
 endfacet
 facet normal 0.000000 0.000000 1.000000
  outer loop
   vertex -2500.000000 0.000000 -720.000000
   vertex -2456.191191 -191.938933 -720.000000
   vertex -2414.579139 -177.378246 -720.000000
  endloop
 endfacet
 facet normal 0.000000 0.000000 -1.000000
  outer loop
   vertex -2500.000000 0.000000 -800.000000
   vertex -2377.250445 -153.923073 -800.000000
   vertex -2414.579139 -177.378246 -800.000000
  endloop
 endfacet
 facet normal 0.000000 0.000000 1.000000
  outer loop
   vertex -2500.000000 0.000000 -720.000000
   vertex -2414.579139 -177.378246 -720.000000
   vertex -2377.250445 -153.923073 -720.000000
  endloop
 endfacet
 facet normal 0.000000 0.000000 -1.000000
  outer loop
   vertex -2500.000000 0.000000 -800.000000
   vertex -2346.076927 -122.749555 -800.000000
   vertex -2377.250445 -153.923073 -800.000000
  endloop
 endfacet
 facet normal 0.000000 0.000000 1.000000
  outer loop
   vertex -2500.000000 0.000000 -720.000000
   vertex -2377.250445 -153.923073 -720.000000
   vertex -2346.076927 -122.749555 -720.000000
  endloop
 endfacet
 facet normal 0.000000 0.000000 -1.000000
  outer loop
   vertex -2500.000000 0.000000 -800.000000
   vertex -2322.621754 -85.420861 -800.000000
   vertex -2346.076927 -122.749555 -800.000000
  endloop
 endfacet
 facet normal 0.000000 0.000000 1.000000
  outer loop
   vertex -2500.000000 0.000000 -720.000000
   vertex -2346.076927 -122.749555 -720.000000
   vertex -2322.621754 -85.420861 -720.000000
  endloop
 endfacet
 facet normal 0.000000 0.000000 -1.000000
  outer loop
   vertex -2500.000000 0.000000 -800.000000
   vertex -2308.061067 -43.808809 -800.000000
   vertex -2322.621754 -85.420861 -800.000000
  endloop
 endfacet
 facet normal 0.000000 0.000000 1.000000
  outer loop
   vertex -2500.000000 0.000000 -720.000000
   vertex -2322.621754 -85.420861 -720.000000
   vertex -2308.061067 -43.808809 -720.000000
  endloop
 endfacet
 facet normal 0.000000 0.000000 -1.000000
  outer loop
   vertex -2500.000000 0.000000 -800.000000
   vertex -2303.125000 0.000000 -800.000000
   vertex -2308.061067 -43.808809 -800.000000
  endloop
 endfacet
 facet normal -0.000000 0.000000 1.000000
  outer loop
   vertex -2500.000000 0.000000 -720.000000
   vertex -2308.061067 -43.808809 -720.000000
   vertex -2303.125000 0.000000 -720.000000
  endloop
 endfacet
endsolid RP1_VALVE
