solid F1_NOZZLE
 facet normal 0.999048 0.043619 0.000000
  outer loop
   vertex 550.000000 -2165.000000 -2680.000000
   vertex 543.150457 -2008.119663 -2680.000000
   vertex 543.150457 -2008.119663 -480.000000
  endloop
 endfacet
 facet normal 0.999048 0.043619 -0.000000
  outer loop
   vertex 550.000000 -2165.000000 -2680.000000
   vertex 543.150457 -2008.119663 -480.000000
   vertex 550.000000 -2165.000000 -480.000000
  endloop
 endfacet
 facet normal 0.991445 0.130526 0.000000
  outer loop
   vertex 543.150457 -2008.119663 -2680.000000
   vertex 522.653955 -1852.433280 -2680.000000
   vertex 522.653955 -1852.433280 -480.000000
  endloop
 endfacet
 facet normal 0.991445 0.130526 -0.000000
  outer loop
   vertex 543.150457 -2008.119663 -2680.000000
   vertex 522.653955 -1852.433280 -480.000000
   vertex 543.150457 -2008.119663 -480.000000
  endloop
 endfacet
 facet normal 0.976296 0.216440 0.000000
  outer loop
   vertex 522.653955 -1852.433280 -2680.000000
   vertex 488.666487 -1699.125719 -2680.000000
   vertex 488.666487 -1699.125719 -480.000000
  endloop
 endfacet
 facet normal 0.976296 0.216440 -0.000000
  outer loop
   vertex 522.653955 -1852.433280 -2680.000000
   vertex 488.666487 -1699.125719 -480.000000
   vertex 522.653955 -1852.433280 -480.000000
  endloop
 endfacet
 facet normal 0.953717 0.300706 0.000000
  outer loop
   vertex 488.666487 -1699.125719 -2680.000000
   vertex 441.446717 -1549.363742 -2680.000000
   vertex 441.446717 -1549.363742 -480.000000
  endloop
 endfacet
 facet normal 0.953717 0.300706 -0.000000
  outer loop
   vertex 488.666487 -1699.125719 -2680.000000
   vertex 441.446717 -1549.363742 -480.000000
   vertex 488.666487 -1699.125719 -480.000000
  endloop
 endfacet
 facet normal 0.923880 0.382683 0.000000
  outer loop
   vertex 441.446717 -1549.363742 -2680.000000
   vertex 381.354017 -1404.287129 -2680.000000
   vertex 381.354017 -1404.287129 -480.000000
  endloop
 endfacet
 facet normal 0.923880 0.382683 -0.000000
  outer loop
   vertex 441.446717 -1549.363742 -2680.000000
   vertex 381.354017 -1404.287129 -480.000000
   vertex 441.446717 -1549.363742 -480.000000
  endloop
 endfacet
 facet normal 0.887011 0.461749 0.000000
  outer loop
   vertex 381.354017 -1404.287129 -2680.000000
   vertex 308.845727 -1265.000000 -2680.000000
   vertex 308.845727 -1265.000000 -480.000000
  endloop
 endfacet
 facet normal 0.887011 0.461749 -0.000000
  outer loop
   vertex 381.354017 -1404.287129 -2680.000000
   vertex 308.845727 -1265.000000 -480.000000
   vertex 381.354017 -1404.287129 -480.000000
  endloop
 endfacet
 facet normal 0.843391 0.537300 0.000000
  outer loop
   vertex 308.845727 -1265.000000 -2680.000000
   vertex 224.473680 -1132.562415 -2680.000000
   vertex 224.473680 -1132.562415 -480.000000
  endloop
 endfacet
 facet normal 0.843391 0.537300 -0.000000
  outer loop
   vertex 308.845727 -1265.000000 -2680.000000
   vertex 224.473680 -1132.562415 -480.000000
   vertex 308.845727 -1265.000000 -480.000000
  endloop
 endfacet
 facet normal 0.793353 0.608761 0.000000
  outer loop
   vertex 224.473680 -1132.562415 -2680.000000
   vertex 128.879998 -1007.982303 -2680.000000
   vertex 128.879998 -1007.982303 -480.000000
  endloop
 endfacet
 facet normal 0.793353 0.608761 -0.000000
  outer loop
   vertex 224.473680 -1132.562415 -2680.000000
   vertex 128.879998 -1007.982303 -480.000000
   vertex 224.473680 -1132.562415 -480.000000
  endloop
 endfacet
 facet normal 0.737277 0.675590 0.000000
  outer loop
   vertex 128.879998 -1007.982303 -2680.000000
   vertex 22.792206 -892.207794 -2680.000000
   vertex 22.792206 -892.207794 -480.000000
  endloop
 endfacet
 facet normal 0.737277 0.675590 -0.000000
  outer loop
   vertex 128.879998 -1007.982303 -2680.000000
   vertex 22.792206 -892.207794 -480.000000
   vertex 128.879998 -1007.982303 -480.000000
  endloop
 endfacet
 facet normal 0.675590 0.737277 0.000000
  outer loop
   vertex 22.792206 -892.207794 -2680.000000
   vertex -92.982303 -786.120002 -2680.000000
   vertex -92.982303 -786.120002 -480.000000
  endloop
 endfacet
 facet normal 0.675590 0.737277 -0.000000
  outer loop
   vertex 22.792206 -892.207794 -2680.000000
   vertex -92.982303 -786.120002 -480.000000
   vertex 22.792206 -892.207794 -480.000000
  endloop
 endfacet
 facet normal 0.608761 0.793353 0.000000
  outer loop
   vertex -92.982303 -786.120002 -2680.000000
   vertex -217.562415 -690.526320 -2680.000000
   vertex -217.562415 -690.526320 -480.000000
  endloop
 endfacet
 facet normal 0.608761 0.793353 -0.000000
  outer loop
   vertex -92.982303 -786.120002 -2680.000000
   vertex -217.562415 -690.526320 -480.000000
   vertex -92.982303 -786.120002 -480.000000
  endloop
 endfacet
 facet normal 0.537300 0.843391 0.000000
  outer loop
   vertex -217.562415 -690.526320 -2680.000000
   vertex -350.000000 -606.154273 -2680.000000
   vertex -350.000000 -606.154273 -480.000000
  endloop
 endfacet
 facet normal 0.537300 0.843391 -0.000000
  outer loop
   vertex -217.562415 -690.526320 -2680.000000
   vertex -350.000000 -606.154273 -480.000000
   vertex -217.562415 -690.526320 -480.000000
  endloop
 endfacet
 facet normal 0.461749 0.887011 0.000000
  outer loop
   vertex -350.000000 -606.154273 -2680.000000
   vertex -489.287129 -533.645983 -2680.000000
   vertex -489.287129 -533.645983 -480.000000
  endloop
 endfacet
 facet normal 0.461749 0.887011 -0.000000
  outer loop
   vertex -350.000000 -606.154273 -2680.000000
   vertex -489.287129 -533.645983 -480.000000
   vertex -350.000000 -606.154273 -480.000000
  endloop
 endfacet
 facet normal 0.382683 0.923880 0.000000
  outer loop
   vertex -489.287129 -533.645983 -2680.000000
   vertex -634.363742 -473.553283 -2680.000000
   vertex -634.363742 -473.553283 -480.000000
  endloop
 endfacet
 facet normal 0.382683 0.923880 -0.000000
  outer loop
   vertex -489.287129 -533.645983 -2680.000000
   vertex -634.363742 -473.553283 -480.000000
   vertex -489.287129 -533.645983 -480.000000
  endloop
 endfacet
 facet normal 0.300706 0.953717 0.000000
  outer loop
   vertex -634.363742 -473.553283 -2680.000000
   vertex -784.125719 -426.333513 -2680.000000
   vertex -784.125719 -426.333513 -480.000000
  endloop
 endfacet
 facet normal 0.300706 0.953717 -0.000000
  outer loop
   vertex -634.363742 -473.553283 -2680.000000
   vertex -784.125719 -426.333513 -480.000000
   vertex -634.363742 -473.553283 -480.000000
  endloop
 endfacet
 facet normal 0.216440 0.976296 0.000000
  outer loop
   vertex -784.125719 -426.333513 -2680.000000
   vertex -937.433280 -392.346045 -2680.000000
   vertex -937.433280 -392.346045 -480.000000
  endloop
 endfacet
 facet normal 0.216440 0.976296 -0.000000
  outer loop
   vertex -784.125719 -426.333513 -2680.000000
   vertex -937.433280 -392.346045 -480.000000
   vertex -784.125719 -426.333513 -480.000000
  endloop
 endfacet
 facet normal 0.130526 0.991445 0.000000
  outer loop
   vertex -937.433280 -392.346045 -2680.000000
   vertex -1093.119663 -371.849543 -2680.000000
   vertex -1093.119663 -371.849543 -480.000000
  endloop
 endfacet
 facet normal 0.130526 0.991445 -0.000000
  outer loop
   vertex -937.433280 -392.346045 -2680.000000
   vertex -1093.119663 -371.849543 -480.000000
   vertex -937.433280 -392.346045 -480.000000
  endloop
 endfacet
 facet normal 0.043619 0.999048 0.000000
  outer loop
   vertex -1093.119663 -371.849543 -2680.000000
   vertex -1250.000000 -365.000000 -2680.000000
   vertex -1250.000000 -365.000000 -480.000000
  endloop
 endfacet
 facet normal 0.043619 0.999048 -0.000000
  outer loop
   vertex -1093.119663 -371.849543 -2680.000000
   vertex -1250.000000 -365.000000 -480.000000
   vertex -1093.119663 -371.849543 -480.000000
  endloop
 endfacet
 facet normal -0.043619 0.999048 0.000000
  outer loop
   vertex -1250.000000 -365.000000 -2680.000000
   vertex -1406.880337 -371.849543 -2680.000000
   vertex -1406.880337 -371.849543 -480.000000
  endloop
 endfacet
 facet normal -0.043619 0.999048 0.000000
  outer loop
   vertex -1250.000000 -365.000000 -2680.000000
   vertex -1406.880337 -371.849543 -480.000000
   vertex -1250.000000 -365.000000 -480.000000
  endloop
 endfacet
 facet normal -0.130526 0.991445 0.000000
  outer loop
   vertex -1406.880337 -371.849543 -2680.000000
   vertex -1562.566720 -392.346045 -2680.000000
   vertex -1562.566720 -392.346045 -480.000000
  endloop
 endfacet
 facet normal -0.130526 0.991445 0.000000
  outer loop
   vertex -1406.880337 -371.849543 -2680.000000
   vertex -1562.566720 -392.346045 -480.000000
   vertex -1406.880337 -371.849543 -480.000000
  endloop
 endfacet
 facet normal -0.216440 0.976296 0.000000
  outer loop
   vertex -1562.566720 -392.346045 -2680.000000
   vertex -1715.874281 -426.333513 -2680.000000
   vertex -1715.874281 -426.333513 -480.000000
  endloop
 endfacet
 facet normal -0.216440 0.976296 0.000000
  outer loop
   vertex -1562.566720 -392.346045 -2680.000000
   vertex -1715.874281 -426.333513 -480.000000
   vertex -1562.566720 -392.346045 -480.000000
  endloop
 endfacet
 facet normal -0.300706 0.953717 0.000000
  outer loop
   vertex -1715.874281 -426.333513 -2680.000000
   vertex -1865.636258 -473.553283 -2680.000000
   vertex -1865.636258 -473.553283 -480.000000
  endloop
 endfacet
 facet normal -0.300706 0.953717 0.000000
  outer loop
   vertex -1715.874281 -426.333513 -2680.000000
   vertex -1865.636258 -473.553283 -480.000000
   vertex -1715.874281 -426.333513 -480.000000
  endloop
 endfacet
 facet normal -0.382683 0.923880 0.000000
  outer loop
   vertex -1865.636258 -473.553283 -2680.000000
   vertex -2010.712871 -533.645983 -2680.000000
   vertex -2010.712871 -533.645983 -480.000000
  endloop
 endfacet
 facet normal -0.382683 0.923880 0.000000
  outer loop
   vertex -1865.636258 -473.553283 -2680.000000
   vertex -2010.712871 -533.645983 -480.000000
   vertex -1865.636258 -473.553283 -480.000000
  endloop
 endfacet
 facet normal -0.461749 0.887011 0.000000
  outer loop
   vertex -2010.712871 -533.645983 -2680.000000
   vertex -2150.000000 -606.154273 -2680.000000
   vertex -2150.000000 -606.154273 -480.000000
  endloop
 endfacet
 facet normal -0.461749 0.887011 0.000000
  outer loop
   vertex -2010.712871 -533.645983 -2680.000000
   vertex -2150.000000 -606.154273 -480.000000
   vertex -2010.712871 -533.645983 -480.000000
  endloop
 endfacet
 facet normal -0.537300 0.843391 0.000000
  outer loop
   vertex -2150.000000 -606.154273 -2680.000000
   vertex -2282.437585 -690.526320 -2680.000000
   vertex -2282.437585 -690.526320 -480.000000
  endloop
 endfacet
 facet normal -0.537300 0.843391 0.000000
  outer loop
   vertex -2150.000000 -606.154273 -2680.000000
   vertex -2282.437585 -690.526320 -480.000000
   vertex -2150.000000 -606.154273 -480.000000
  endloop
 endfacet
 facet normal -0.608761 0.793353 0.000000
  outer loop
   vertex -2282.437585 -690.526320 -2680.000000
   vertex -2407.017697 -786.120002 -2680.000000
   vertex -2407.017697 -786.120002 -480.000000
  endloop
 endfacet
 facet normal -0.608761 0.793353 0.000000
  outer loop
   vertex -2282.437585 -690.526320 -2680.000000
   vertex -2407.017697 -786.120002 -480.000000
   vertex -2282.437585 -690.526320 -480.000000
  endloop
 endfacet
 facet normal -0.675590 0.737277 0.000000
  outer loop
   vertex -2407.017697 -786.120002 -2680.000000
   vertex -2522.792206 -892.207794 -2680.000000
   vertex -2522.792206 -892.207794 -480.000000
  endloop
 endfacet
 facet normal -0.675590 0.737277 0.000000
  outer loop
   vertex -2407.017697 -786.120002 -2680.000000
   vertex -2522.792206 -892.207794 -480.000000
   vertex -2407.017697 -786.120002 -480.000000
  endloop
 endfacet
 facet normal -0.737277 0.675590 0.000000
  outer loop
   vertex -2522.792206 -892.207794 -2680.000000
   vertex -2628.879998 -1007.982303 -2680.000000
   vertex -2628.879998 -1007.982303 -480.000000
  endloop
 endfacet
 facet normal -0.737277 0.675590 0.000000
  outer loop
   vertex -2522.792206 -892.207794 -2680.000000
   vertex -2628.879998 -1007.982303 -480.000000
   vertex -2522.792206 -892.207794 -480.000000
  endloop
 endfacet
 facet normal -0.793353 0.608761 0.000000
  outer loop
   vertex -2628.879998 -1007.982303 -2680.000000
   vertex -2724.473680 -1132.562415 -2680.000000
   vertex -2724.473680 -1132.562415 -480.000000
  endloop
 endfacet
 facet normal -0.793353 0.608761 0.000000
  outer loop
   vertex -2628.879998 -1007.982303 -2680.000000
   vertex -2724.473680 -1132.562415 -480.000000
   vertex -2628.879998 -1007.982303 -480.000000
  endloop
 endfacet
 facet normal -0.843391 0.537300 0.000000
  outer loop
   vertex -2724.473680 -1132.562415 -2680.000000
   vertex -2808.845727 -1265.000000 -2680.000000
   vertex -2808.845727 -1265.000000 -480.000000
  endloop
 endfacet
 facet normal -0.843391 0.537300 0.000000
  outer loop
   vertex -2724.473680 -1132.562415 -2680.000000
   vertex -2808.845727 -1265.000000 -480.000000
   vertex -2724.473680 -1132.562415 -480.000000
  endloop
 endfacet
 facet normal -0.887011 0.461749 0.000000
  outer loop
   vertex -2808.845727 -1265.000000 -2680.000000
   vertex -2881.354017 -1404.287129 -2680.000000
   vertex -2881.354017 -1404.287129 -480.000000
  endloop
 endfacet
 facet normal -0.887011 0.461749 0.000000
  outer loop
   vertex -2808.845727 -1265.000000 -2680.000000
   vertex -2881.354017 -1404.287129 -480.000000
   vertex -2808.845727 -1265.000000 -480.000000
  endloop
 endfacet
 facet normal -0.923880 0.382683 0.000000
  outer loop
   vertex -2881.354017 -1404.287129 -2680.000000
   vertex -2941.446717 -1549.363742 -2680.000000
   vertex -2941.446717 -1549.363742 -480.000000
  endloop
 endfacet
 facet normal -0.923880 0.382683 0.000000
  outer loop
   vertex -2881.354017 -1404.287129 -2680.000000
   vertex -2941.446717 -1549.363742 -480.000000
   vertex -2881.354017 -1404.287129 -480.000000
  endloop
 endfacet
 facet normal -0.953717 0.300706 0.000000
  outer loop
   vertex -2941.446717 -1549.363742 -2680.000000
   vertex -2988.666487 -1699.125719 -2680.000000
   vertex -2988.666487 -1699.125719 -480.000000
  endloop
 endfacet
 facet normal -0.953717 0.300706 0.000000
  outer loop
   vertex -2941.446717 -1549.363742 -2680.000000
   vertex -2988.666487 -1699.125719 -480.000000
   vertex -2941.446717 -1549.363742 -480.000000
  endloop
 endfacet
 facet normal -0.976296 0.216440 0.000000
  outer loop
   vertex -2988.666487 -1699.125719 -2680.000000
   vertex -3022.653955 -1852.433280 -2680.000000
   vertex -3022.653955 -1852.433280 -480.000000
  endloop
 endfacet
 facet normal -0.976296 0.216440 0.000000
  outer loop
   vertex -2988.666487 -1699.125719 -2680.000000
   vertex -3022.653955 -1852.433280 -480.000000
   vertex -2988.666487 -1699.125719 -480.000000
  endloop
 endfacet
 facet normal -0.991445 0.130526 0.000000
  outer loop
   vertex -3022.653955 -1852.433280 -2680.000000
   vertex -3043.150457 -2008.119663 -2680.000000
   vertex -3043.150457 -2008.119663 -480.000000
  endloop
 endfacet
 facet normal -0.991445 0.130526 0.000000
  outer loop
   vertex -3022.653955 -1852.433280 -2680.000000
   vertex -3043.150457 -2008.119663 -480.000000
   vertex -3022.653955 -1852.433280 -480.000000
  endloop
 endfacet
 facet normal -0.999048 0.043619 0.000000
  outer loop
   vertex -3043.150457 -2008.119663 -2680.000000
   vertex -3050.000000 -2165.000000 -2680.000000
   vertex -3050.000000 -2165.000000 -480.000000
  endloop
 endfacet
 facet normal -0.999048 0.043619 0.000000
  outer loop
   vertex -3043.150457 -2008.119663 -2680.000000
   vertex -3050.000000 -2165.000000 -480.000000
   vertex -3043.150457 -2008.119663 -480.000000
  endloop
 endfacet
 facet normal -0.999048 -0.043619 0.000000
  outer loop
   vertex -3050.000000 -2165.000000 -2680.000000
   vertex -3043.150457 -2321.880337 -2680.000000
   vertex -3043.150457 -2321.880337 -480.000000
  endloop
 endfacet
 facet normal -0.999048 -0.043619 0.000000
  outer loop
   vertex -3050.000000 -2165.000000 -2680.000000
   vertex -3043.150457 -2321.880337 -480.000000
   vertex -3050.000000 -2165.000000 -480.000000
  endloop
 endfacet
 facet normal -0.991445 -0.130526 0.000000
  outer loop
   vertex -3043.150457 -2321.880337 -2680.000000
   vertex -3022.653955 -2477.566720 -2680.000000
   vertex -3022.653955 -2477.566720 -480.000000
  endloop
 endfacet
 facet normal -0.991445 -0.130526 0.000000
  outer loop
   vertex -3043.150457 -2321.880337 -2680.000000
   vertex -3022.653955 -2477.566720 -480.000000
   vertex -3043.150457 -2321.880337 -480.000000
  endloop
 endfacet
 facet normal -0.976296 -0.216440 0.000000
  outer loop
   vertex -3022.653955 -2477.566720 -2680.000000
   vertex -2988.666487 -2630.874281 -2680.000000
   vertex -2988.666487 -2630.874281 -480.000000
  endloop
 endfacet
 facet normal -0.976296 -0.216440 0.000000
  outer loop
   vertex -3022.653955 -2477.566720 -2680.000000
   vertex -2988.666487 -2630.874281 -480.000000
   vertex -3022.653955 -2477.566720 -480.000000
  endloop
 endfacet
 facet normal -0.953717 -0.300706 0.000000
  outer loop
   vertex -2988.666487 -2630.874281 -2680.000000
   vertex -2941.446717 -2780.636258 -2680.000000
   vertex -2941.446717 -2780.636258 -480.000000
  endloop
 endfacet
 facet normal -0.953717 -0.300706 0.000000
  outer loop
   vertex -2988.666487 -2630.874281 -2680.000000
   vertex -2941.446717 -2780.636258 -480.000000
   vertex -2988.666487 -2630.874281 -480.000000
  endloop
 endfacet
 facet normal -0.923880 -0.382683 0.000000
  outer loop
   vertex -2941.446717 -2780.636258 -2680.000000
   vertex -2881.354017 -2925.712871 -2680.000000
   vertex -2881.354017 -2925.712871 -480.000000
  endloop
 endfacet
 facet normal -0.923880 -0.382683 0.000000
  outer loop
   vertex -2941.446717 -2780.636258 -2680.000000
   vertex -2881.354017 -2925.712871 -480.000000
   vertex -2941.446717 -2780.636258 -480.000000
  endloop
 endfacet
 facet normal -0.887011 -0.461749 0.000000
  outer loop
   vertex -2881.354017 -2925.712871 -2680.000000
   vertex -2808.845727 -3065.000000 -2680.000000
   vertex -2808.845727 -3065.000000 -480.000000
  endloop
 endfacet
 facet normal -0.887011 -0.461749 0.000000
  outer loop
   vertex -2881.354017 -2925.712871 -2680.000000
   vertex -2808.845727 -3065.000000 -480.000000
   vertex -2881.354017 -2925.712871 -480.000000
  endloop
 endfacet
 facet normal -0.843391 -0.537300 0.000000
  outer loop
   vertex -2808.845727 -3065.000000 -2680.000000
   vertex -2724.473680 -3197.437585 -2680.000000
   vertex -2724.473680 -3197.437585 -480.000000
  endloop
 endfacet
 facet normal -0.843391 -0.537300 0.000000
  outer loop
   vertex -2808.845727 -3065.000000 -2680.000000
   vertex -2724.473680 -3197.437585 -480.000000
   vertex -2808.845727 -3065.000000 -480.000000
  endloop
 endfacet
 facet normal -0.793353 -0.608761 0.000000
  outer loop
   vertex -2724.473680 -3197.437585 -2680.000000
   vertex -2628.879998 -3322.017697 -2680.000000
   vertex -2628.879998 -3322.017697 -480.000000
  endloop
 endfacet
 facet normal -0.793353 -0.608761 0.000000
  outer loop
   vertex -2724.473680 -3197.437585 -2680.000000
   vertex -2628.879998 -3322.017697 -480.000000
   vertex -2724.473680 -3197.437585 -480.000000
  endloop
 endfacet
 facet normal -0.737277 -0.675590 0.000000
  outer loop
   vertex -2628.879998 -3322.017697 -2680.000000
   vertex -2522.792206 -3437.792206 -2680.000000
   vertex -2522.792206 -3437.792206 -480.000000
  endloop
 endfacet
 facet normal -0.737277 -0.675590 0.000000
  outer loop
   vertex -2628.879998 -3322.017697 -2680.000000
   vertex -2522.792206 -3437.792206 -480.000000
   vertex -2628.879998 -3322.017697 -480.000000
  endloop
 endfacet
 facet normal -0.675590 -0.737277 0.000000
  outer loop
   vertex -2522.792206 -3437.792206 -2680.000000
   vertex -2407.017697 -3543.879998 -2680.000000
   vertex -2407.017697 -3543.879998 -480.000000
  endloop
 endfacet
 facet normal -0.675590 -0.737277 0.000000
  outer loop
   vertex -2522.792206 -3437.792206 -2680.000000
   vertex -2407.017697 -3543.879998 -480.000000
   vertex -2522.792206 -3437.792206 -480.000000
  endloop
 endfacet
 facet normal -0.608761 -0.793353 0.000000
  outer loop
   vertex -2407.017697 -3543.879998 -2680.000000
   vertex -2282.437585 -3639.473680 -2680.000000
   vertex -2282.437585 -3639.473680 -480.000000
  endloop
 endfacet
 facet normal -0.608761 -0.793353 0.000000
  outer loop
   vertex -2407.017697 -3543.879998 -2680.000000
   vertex -2282.437585 -3639.473680 -480.000000
   vertex -2407.017697 -3543.879998 -480.000000
  endloop
 endfacet
 facet normal -0.537300 -0.843391 0.000000
  outer loop
   vertex -2282.437585 -3639.473680 -2680.000000
   vertex -2150.000000 -3723.845727 -2680.000000
   vertex -2150.000000 -3723.845727 -480.000000
  endloop
 endfacet
 facet normal -0.537300 -0.843391 0.000000
  outer loop
   vertex -2282.437585 -3639.473680 -2680.000000
   vertex -2150.000000 -3723.845727 -480.000000
   vertex -2282.437585 -3639.473680 -480.000000
  endloop
 endfacet
 facet normal -0.461749 -0.887011 0.000000
  outer loop
   vertex -2150.000000 -3723.845727 -2680.000000
   vertex -2010.712871 -3796.354017 -2680.000000
   vertex -2010.712871 -3796.354017 -480.000000
  endloop
 endfacet
 facet normal -0.461749 -0.887011 0.000000
  outer loop
   vertex -2150.000000 -3723.845727 -2680.000000
   vertex -2010.712871 -3796.354017 -480.000000
   vertex -2150.000000 -3723.845727 -480.000000
  endloop
 endfacet
 facet normal -0.382683 -0.923880 0.000000
  outer loop
   vertex -2010.712871 -3796.354017 -2680.000000
   vertex -1865.636258 -3856.446717 -2680.000000
   vertex -1865.636258 -3856.446717 -480.000000
  endloop
 endfacet
 facet normal -0.382683 -0.923880 0.000000
  outer loop
   vertex -2010.712871 -3796.354017 -2680.000000
   vertex -1865.636258 -3856.446717 -480.000000
   vertex -2010.712871 -3796.354017 -480.000000
  endloop
 endfacet
 facet normal -0.300706 -0.953717 0.000000
  outer loop
   vertex -1865.636258 -3856.446717 -2680.000000
   vertex -1715.874281 -3903.666487 -2680.000000
   vertex -1715.874281 -3903.666487 -480.000000
  endloop
 endfacet
 facet normal -0.300706 -0.953717 0.000000
  outer loop
   vertex -1865.636258 -3856.446717 -2680.000000
   vertex -1715.874281 -3903.666487 -480.000000
   vertex -1865.636258 -3856.446717 -480.000000
  endloop
 endfacet
 facet normal -0.216440 -0.976296 0.000000
  outer loop
   vertex -1715.874281 -3903.666487 -2680.000000
   vertex -1562.566720 -3937.653955 -2680.000000
   vertex -1562.566720 -3937.653955 -480.000000
  endloop
 endfacet
 facet normal -0.216440 -0.976296 0.000000
  outer loop
   vertex -1715.874281 -3903.666487 -2680.000000
   vertex -1562.566720 -3937.653955 -480.000000
   vertex -1715.874281 -3903.666487 -480.000000
  endloop
 endfacet
 facet normal -0.130526 -0.991445 0.000000
  outer loop
   vertex -1562.566720 -3937.653955 -2680.000000
   vertex -1406.880337 -3958.150457 -2680.000000
   vertex -1406.880337 -3958.150457 -480.000000
  endloop
 endfacet
 facet normal -0.130526 -0.991445 0.000000
  outer loop
   vertex -1562.566720 -3937.653955 -2680.000000
   vertex -1406.880337 -3958.150457 -480.000000
   vertex -1562.566720 -3937.653955 -480.000000
  endloop
 endfacet
 facet normal -0.043619 -0.999048 0.000000
  outer loop
   vertex -1406.880337 -3958.150457 -2680.000000
   vertex -1250.000000 -3965.000000 -2680.000000
   vertex -1250.000000 -3965.000000 -480.000000
  endloop
 endfacet
 facet normal -0.043619 -0.999048 0.000000
  outer loop
   vertex -1406.880337 -3958.150457 -2680.000000
   vertex -1250.000000 -3965.000000 -480.000000
   vertex -1406.880337 -3958.150457 -480.000000
  endloop
 endfacet
 facet normal 0.043619 -0.999048 0.000000
  outer loop
   vertex -1250.000000 -3965.000000 -2680.000000
   vertex -1093.119663 -3958.150457 -2680.000000
   vertex -1093.119663 -3958.150457 -480.000000
  endloop
 endfacet
 facet normal 0.043619 -0.999048 0.000000
  outer loop
   vertex -1250.000000 -3965.000000 -2680.000000
   vertex -1093.119663 -3958.150457 -480.000000
   vertex -1250.000000 -3965.000000 -480.000000
  endloop
 endfacet
 facet normal 0.130526 -0.991445 0.000000
  outer loop
   vertex -1093.119663 -3958.150457 -2680.000000
   vertex -937.433280 -3937.653955 -2680.000000
   vertex -937.433280 -3937.653955 -480.000000
  endloop
 endfacet
 facet normal 0.130526 -0.991445 0.000000
  outer loop
   vertex -1093.119663 -3958.150457 -2680.000000
   vertex -937.433280 -3937.653955 -480.000000
   vertex -1093.119663 -3958.150457 -480.000000
  endloop
 endfacet
 facet normal 0.216440 -0.976296 0.000000
  outer loop
   vertex -937.433280 -3937.653955 -2680.000000
   vertex -784.125719 -3903.666487 -2680.000000
   vertex -784.125719 -3903.666487 -480.000000
  endloop
 endfacet
 facet normal 0.216440 -0.976296 0.000000
  outer loop
   vertex -937.433280 -3937.653955 -2680.000000
   vertex -784.125719 -3903.666487 -480.000000
   vertex -937.433280 -3937.653955 -480.000000
  endloop
 endfacet
 facet normal 0.300706 -0.953717 0.000000
  outer loop
   vertex -784.125719 -3903.666487 -2680.000000
   vertex -634.363742 -3856.446717 -2680.000000
   vertex -634.363742 -3856.446717 -480.000000
  endloop
 endfacet
 facet normal 0.300706 -0.953717 0.000000
  outer loop
   vertex -784.125719 -3903.666487 -2680.000000
   vertex -634.363742 -3856.446717 -480.000000
   vertex -784.125719 -3903.666487 -480.000000
  endloop
 endfacet
 facet normal 0.382683 -0.923880 0.000000
  outer loop
   vertex -634.363742 -3856.446717 -2680.000000
   vertex -489.287129 -3796.354017 -2680.000000
   vertex -489.287129 -3796.354017 -480.000000
  endloop
 endfacet
 facet normal 0.382683 -0.923880 0.000000
  outer loop
   vertex -634.363742 -3856.446717 -2680.000000
   vertex -489.287129 -3796.354017 -480.000000
   vertex -634.363742 -3856.446717 -480.000000
  endloop
 endfacet
 facet normal 0.461749 -0.887011 0.000000
  outer loop
   vertex -489.287129 -3796.354017 -2680.000000
   vertex -350.000000 -3723.845727 -2680.000000
   vertex -350.000000 -3723.845727 -480.000000
  endloop
 endfacet
 facet normal 0.461749 -0.887011 0.000000
  outer loop
   vertex -489.287129 -3796.354017 -2680.000000
   vertex -350.000000 -3723.845727 -480.000000
   vertex -489.287129 -3796.354017 -480.000000
  endloop
 endfacet
 facet normal 0.537300 -0.843391 0.000000
  outer loop
   vertex -350.000000 -3723.845727 -2680.000000
   vertex -217.562415 -3639.473680 -2680.000000
   vertex -217.562415 -3639.473680 -480.000000
  endloop
 endfacet
 facet normal 0.537300 -0.843391 0.000000
  outer loop
   vertex -350.000000 -3723.845727 -2680.000000
   vertex -217.562415 -3639.473680 -480.000000
   vertex -350.000000 -3723.845727 -480.000000
  endloop
 endfacet
 facet normal 0.608761 -0.793353 0.000000
  outer loop
   vertex -217.562415 -3639.473680 -2680.000000
   vertex -92.982303 -3543.879998 -2680.000000
   vertex -92.982303 -3543.879998 -480.000000
  endloop
 endfacet
 facet normal 0.608761 -0.793353 0.000000
  outer loop
   vertex -217.562415 -3639.473680 -2680.000000
   vertex -92.982303 -3543.879998 -480.000000
   vertex -217.562415 -3639.473680 -480.000000
  endloop
 endfacet
 facet normal 0.675590 -0.737277 0.000000
  outer loop
   vertex -92.982303 -3543.879998 -2680.000000
   vertex 22.792206 -3437.792206 -2680.000000
   vertex 22.792206 -3437.792206 -480.000000
  endloop
 endfacet
 facet normal 0.675590 -0.737277 0.000000
  outer loop
   vertex -92.982303 -3543.879998 -2680.000000
   vertex 22.792206 -3437.792206 -480.000000
   vertex -92.982303 -3543.879998 -480.000000
  endloop
 endfacet
 facet normal 0.737277 -0.675590 0.000000
  outer loop
   vertex 22.792206 -3437.792206 -2680.000000
   vertex 128.879998 -3322.017697 -2680.000000
   vertex 128.879998 -3322.017697 -480.000000
  endloop
 endfacet
 facet normal 0.737277 -0.675590 0.000000
  outer loop
   vertex 22.792206 -3437.792206 -2680.000000
   vertex 128.879998 -3322.017697 -480.000000
   vertex 22.792206 -3437.792206 -480.000000
  endloop
 endfacet
 facet normal 0.793353 -0.608761 0.000000
  outer loop
   vertex 128.879998 -3322.017697 -2680.000000
   vertex 224.473680 -3197.437585 -2680.000000
   vertex 224.473680 -3197.437585 -480.000000
  endloop
 endfacet
 facet normal 0.793353 -0.608761 0.000000
  outer loop
   vertex 128.879998 -3322.017697 -2680.000000
   vertex 224.473680 -3197.437585 -480.000000
   vertex 128.879998 -3322.017697 -480.000000
  endloop
 endfacet
 facet normal 0.843391 -0.537300 0.000000
  outer loop
   vertex 224.473680 -3197.437585 -2680.000000
   vertex 308.845727 -3065.000000 -2680.000000
   vertex 308.845727 -3065.000000 -480.000000
  endloop
 endfacet
 facet normal 0.843391 -0.537300 0.000000
  outer loop
   vertex 224.473680 -3197.437585 -2680.000000
   vertex 308.845727 -3065.000000 -480.000000
   vertex 224.473680 -3197.437585 -480.000000
  endloop
 endfacet
 facet normal 0.887011 -0.461749 0.000000
  outer loop
   vertex 308.845727 -3065.000000 -2680.000000
   vertex 381.354017 -2925.712871 -2680.000000
   vertex 381.354017 -2925.712871 -480.000000
  endloop
 endfacet
 facet normal 0.887011 -0.461749 0.000000
  outer loop
   vertex 308.845727 -3065.000000 -2680.000000
   vertex 381.354017 -2925.712871 -480.000000
   vertex 308.845727 -3065.000000 -480.000000
  endloop
 endfacet
 facet normal 0.923880 -0.382683 0.000000
  outer loop
   vertex 381.354017 -2925.712871 -2680.000000
   vertex 441.446717 -2780.636258 -2680.000000
   vertex 441.446717 -2780.636258 -480.000000
  endloop
 endfacet
 facet normal 0.923880 -0.382683 0.000000
  outer loop
   vertex 381.354017 -2925.712871 -2680.000000
   vertex 441.446717 -2780.636258 -480.000000
   vertex 381.354017 -2925.712871 -480.000000
  endloop
 endfacet
 facet normal 0.953717 -0.300706 0.000000
  outer loop
   vertex 441.446717 -2780.636258 -2680.000000
   vertex 488.666487 -2630.874281 -2680.000000
   vertex 488.666487 -2630.874281 -480.000000
  endloop
 endfacet
 facet normal 0.953717 -0.300706 0.000000
  outer loop
   vertex 441.446717 -2780.636258 -2680.000000
   vertex 488.666487 -2630.874281 -480.000000
   vertex 441.446717 -2780.636258 -480.000000
  endloop
 endfacet
 facet normal 0.976296 -0.216440 0.000000
  outer loop
   vertex 488.666487 -2630.874281 -2680.000000
   vertex 522.653955 -2477.566720 -2680.000000
   vertex 522.653955 -2477.566720 -480.000000
  endloop
 endfacet
 facet normal 0.976296 -0.216440 0.000000
  outer loop
   vertex 488.666487 -2630.874281 -2680.000000
   vertex 522.653955 -2477.566720 -480.000000
   vertex 488.666487 -2630.874281 -480.000000
  endloop
 endfacet
 facet normal 0.991445 -0.130526 0.000000
  outer loop
   vertex 522.653955 -2477.566720 -2680.000000
   vertex 543.150457 -2321.880337 -2680.000000
   vertex 543.150457 -2321.880337 -480.000000
  endloop
 endfacet
 facet normal 0.991445 -0.130526 0.000000
  outer loop
   vertex 522.653955 -2477.566720 -2680.000000
   vertex 543.150457 -2321.880337 -480.000000
   vertex 522.653955 -2477.566720 -480.000000
  endloop
 endfacet
 facet normal 0.999048 -0.043619 0.000000
  outer loop
   vertex 543.150457 -2321.880337 -2680.000000
   vertex 550.000000 -2165.000000 -2680.000000
   vertex 550.000000 -2165.000000 -480.000000
  endloop
 endfacet
 facet normal 0.999048 -0.043619 0.000000
  outer loop
   vertex 543.150457 -2321.880337 -2680.000000
   vertex 550.000000 -2165.000000 -480.000000
   vertex 543.150457 -2321.880337 -480.000000
  endloop
 endfacet
 facet normal 0.000000 0.000000 -1.000000
  outer loop
   vertex -1250.000000 -2165.000000 -2680.000000
   vertex 543.150457 -2008.119663 -2680.000000
   vertex 550.000000 -2165.000000 -2680.000000
  endloop
 endfacet
 facet normal 0.000000 0.000000 1.000000
  outer loop
   vertex -1250.000000 -2165.000000 -480.000000
   vertex 550.000000 -2165.000000 -480.000000
   vertex 543.150457 -2008.119663 -480.000000
  endloop
 endfacet
 facet normal 0.000000 0.000000 -1.000000
  outer loop
   vertex -1250.000000 -2165.000000 -2680.000000
   vertex 522.653955 -1852.433280 -2680.000000
   vertex 543.150457 -2008.119663 -2680.000000
  endloop
 endfacet
 facet normal 0.000000 0.000000 1.000000
  outer loop
   vertex -1250.000000 -2165.000000 -480.000000
   vertex 543.150457 -2008.119663 -480.000000
   vertex 522.653955 -1852.433280 -480.000000
  endloop
 endfacet
 facet normal 0.000000 0.000000 -1.000000
  outer loop
   vertex -1250.000000 -2165.000000 -2680.000000
   vertex 488.666487 -1699.125719 -2680.000000
   vertex 522.653955 -1852.433280 -2680.000000
  endloop
 endfacet
 facet normal 0.000000 0.000000 1.000000
  outer loop
   vertex -1250.000000 -2165.000000 -480.000000
   vertex 522.653955 -1852.433280 -480.000000
   vertex 488.666487 -1699.125719 -480.000000
  endloop
 endfacet
 facet normal 0.000000 0.000000 -1.000000
  outer loop
   vertex -1250.000000 -2165.000000 -2680.000000
   vertex 441.446717 -1549.363742 -2680.000000
   vertex 488.666487 -1699.125719 -2680.000000
  endloop
 endfacet
 facet normal 0.000000 0.000000 1.000000
  outer loop
   vertex -1250.000000 -2165.000000 -480.000000
   vertex 488.666487 -1699.125719 -480.000000
   vertex 441.446717 -1549.363742 -480.000000
  endloop
 endfacet
 facet normal 0.000000 0.000000 -1.000000
  outer loop
   vertex -1250.000000 -2165.000000 -2680.000000
   vertex 381.354017 -1404.287129 -2680.000000
   vertex 441.446717 -1549.363742 -2680.000000
  endloop
 endfacet
 facet normal 0.000000 0.000000 1.000000
  outer loop
   vertex -1250.000000 -2165.000000 -480.000000
   vertex 441.446717 -1549.363742 -480.000000
   vertex 381.354017 -1404.287129 -480.000000
  endloop
 endfacet
 facet normal 0.000000 0.000000 -1.000000
  outer loop
   vertex -1250.000000 -2165.000000 -2680.000000
   vertex 308.845727 -1265.000000 -2680.000000
   vertex 381.354017 -1404.287129 -2680.000000
  endloop
 endfacet
 facet normal 0.000000 0.000000 1.000000
  outer loop
   vertex -1250.000000 -2165.000000 -480.000000
   vertex 381.354017 -1404.287129 -480.000000
   vertex 308.845727 -1265.000000 -480.000000
  endloop
 endfacet
 facet normal 0.000000 0.000000 -1.000000
  outer loop
   vertex -1250.000000 -2165.000000 -2680.000000
   vertex 224.473680 -1132.562415 -2680.000000
   vertex 308.845727 -1265.000000 -2680.000000
  endloop
 endfacet
 facet normal 0.000000 0.000000 1.000000
  outer loop
   vertex -1250.000000 -2165.000000 -480.000000
   vertex 308.845727 -1265.000000 -480.000000
   vertex 224.473680 -1132.562415 -480.000000
  endloop
 endfacet
 facet normal 0.000000 0.000000 -1.000000
  outer loop
   vertex -1250.000000 -2165.000000 -2680.000000
   vertex 128.879998 -1007.982303 -2680.000000
   vertex 224.473680 -1132.562415 -2680.000000
  endloop
 endfacet
 facet normal 0.000000 0.000000 1.000000
  outer loop
   vertex -1250.000000 -2165.000000 -480.000000
   vertex 224.473680 -1132.562415 -480.000000
   vertex 128.879998 -1007.982303 -480.000000
  endloop
 endfacet
 facet normal 0.000000 0.000000 -1.000000
  outer loop
   vertex -1250.000000 -2165.000000 -2680.000000
   vertex 22.792206 -892.207794 -2680.000000
   vertex 128.879998 -1007.982303 -2680.000000
  endloop
 endfacet
 facet normal 0.000000 0.000000 1.000000
  outer loop
   vertex -1250.000000 -2165.000000 -480.000000
   vertex 128.879998 -1007.982303 -480.000000
   vertex 22.792206 -892.207794 -480.000000
  endloop
 endfacet
 facet normal 0.000000 0.000000 -1.000000
  outer loop
   vertex -1250.000000 -2165.000000 -2680.000000
   vertex -92.982303 -786.120002 -2680.000000
   vertex 22.792206 -892.207794 -2680.000000
  endloop
 endfacet
 facet normal 0.000000 0.000000 1.000000
  outer loop
   vertex -1250.000000 -2165.000000 -480.000000
   vertex 22.792206 -892.207794 -480.000000
   vertex -92.982303 -786.120002 -480.000000
  endloop
 endfacet
 facet normal 0.000000 0.000000 -1.000000
  outer loop
   vertex -1250.000000 -2165.000000 -2680.000000
   vertex -217.562415 -690.526320 -2680.000000
   vertex -92.982303 -786.120002 -2680.000000
  endloop
 endfacet
 facet normal 0.000000 0.000000 1.000000
  outer loop
   vertex -1250.000000 -2165.000000 -480.000000
   vertex -92.982303 -786.120002 -480.000000
   vertex -217.562415 -690.526320 -480.000000
  endloop
 endfacet
 facet normal 0.000000 0.000000 -1.000000
  outer loop
   vertex -1250.000000 -2165.000000 -2680.000000
   vertex -350.000000 -606.154273 -2680.000000
   vertex -217.562415 -690.526320 -2680.000000
  endloop
 endfacet
 facet normal 0.000000 0.000000 1.000000
  outer loop
   vertex -1250.000000 -2165.000000 -480.000000
   vertex -217.562415 -690.526320 -480.000000
   vertex -350.000000 -606.154273 -480.000000
  endloop
 endfacet
 facet normal 0.000000 0.000000 -1.000000
  outer loop
   vertex -1250.000000 -2165.000000 -2680.000000
   vertex -489.287129 -533.645983 -2680.000000
   vertex -350.000000 -606.154273 -2680.000000
  endloop
 endfacet
 facet normal 0.000000 0.000000 1.000000
  outer loop
   vertex -1250.000000 -2165.000000 -480.000000
   vertex -350.000000 -606.154273 -480.000000
   vertex -489.287129 -533.645983 -480.000000
  endloop
 endfacet
 facet normal 0.000000 0.000000 -1.000000
  outer loop
   vertex -1250.000000 -2165.000000 -2680.000000
   vertex -634.363742 -473.553283 -2680.000000
   vertex -489.287129 -533.645983 -2680.000000
  endloop
 endfacet
 facet normal 0.000000 0.000000 1.000000
  outer loop
   vertex -1250.000000 -2165.000000 -480.000000
   vertex -489.287129 -533.645983 -480.000000
   vertex -634.363742 -473.553283 -480.000000
  endloop
 endfacet
 facet normal 0.000000 0.000000 -1.000000
  outer loop
   vertex -1250.000000 -2165.000000 -2680.000000
   vertex -784.125719 -426.333513 -2680.000000
   vertex -634.363742 -473.553283 -2680.000000
  endloop
 endfacet
 facet normal 0.000000 0.000000 1.000000
  outer loop
   vertex -1250.000000 -2165.000000 -480.000000
   vertex -634.363742 -473.553283 -480.000000
   vertex -784.125719 -426.333513 -480.000000
  endloop
 endfacet
 facet normal 0.000000 0.000000 -1.000000
  outer loop
   vertex -1250.000000 -2165.000000 -2680.000000
   vertex -937.433280 -392.346045 -2680.000000
   vertex -784.125719 -426.333513 -2680.000000
  endloop
 endfacet
 facet normal 0.000000 0.000000 1.000000
  outer loop
   vertex -1250.000000 -2165.000000 -480.000000
   vertex -784.125719 -426.333513 -480.000000
   vertex -937.433280 -392.346045 -480.000000
  endloop
 endfacet
 facet normal 0.000000 0.000000 -1.000000
  outer loop
   vertex -1250.000000 -2165.000000 -2680.000000
   vertex -1093.119663 -371.849543 -2680.000000
   vertex -937.433280 -392.346045 -2680.000000
  endloop
 endfacet
 facet normal 0.000000 0.000000 1.000000
  outer loop
   vertex -1250.000000 -2165.000000 -480.000000
   vertex -937.433280 -392.346045 -480.000000
   vertex -1093.119663 -371.849543 -480.000000
  endloop
 endfacet
 facet normal 0.000000 0.000000 -1.000000
  outer loop
   vertex -1250.000000 -2165.000000 -2680.000000
   vertex -1250.000000 -365.000000 -2680.000000
   vertex -1093.119663 -371.849543 -2680.000000
  endloop
 endfacet
 facet normal 0.000000 0.000000 1.000000
  outer loop
   vertex -1250.000000 -2165.000000 -480.000000
   vertex -1093.119663 -371.849543 -480.000000
   vertex -1250.000000 -365.000000 -480.000000
  endloop
 endfacet
 facet normal 0.000000 0.000000 -1.000000
  outer loop
   vertex -1250.000000 -2165.000000 -2680.000000
   vertex -1406.880337 -371.849543 -2680.000000
   vertex -1250.000000 -365.000000 -2680.000000
  endloop
 endfacet
 facet normal 0.000000 -0.000000 1.000000
  outer loop
   vertex -1250.000000 -2165.000000 -480.000000
   vertex -1250.000000 -365.000000 -480.000000
   vertex -1406.880337 -371.849543 -480.000000
  endloop
 endfacet
 facet normal 0.000000 0.000000 -1.000000
  outer loop
   vertex -1250.000000 -2165.000000 -2680.000000
   vertex -1562.566720 -392.346045 -2680.000000
   vertex -1406.880337 -371.849543 -2680.000000
  endloop
 endfacet
 facet normal 0.000000 0.000000 1.000000
  outer loop
   vertex -1250.000000 -2165.000000 -480.000000
   vertex -1406.880337 -371.849543 -480.000000
   vertex -1562.566720 -392.346045 -480.000000
  endloop
 endfacet
 facet normal 0.000000 0.000000 -1.000000
  outer loop
   vertex -1250.000000 -2165.000000 -2680.000000
   vertex -1715.874281 -426.333513 -2680.000000
   vertex -1562.566720 -392.346045 -2680.000000
  endloop
 endfacet
 facet normal 0.000000 0.000000 1.000000
  outer loop
   vertex -1250.000000 -2165.000000 -480.000000
   vertex -1562.566720 -392.346045 -480.000000
   vertex -1715.874281 -426.333513 -480.000000
  endloop
 endfacet
 facet normal 0.000000 0.000000 -1.000000
  outer loop
   vertex -1250.000000 -2165.000000 -2680.000000
   vertex -1865.636258 -473.553283 -2680.000000
   vertex -1715.874281 -426.333513 -2680.000000
  endloop
 endfacet
 facet normal 0.000000 0.000000 1.000000
  outer loop
   vertex -1250.000000 -2165.000000 -480.000000
   vertex -1715.874281 -426.333513 -480.000000
   vertex -1865.636258 -473.553283 -480.000000
  endloop
 endfacet
 facet normal 0.000000 0.000000 -1.000000
  outer loop
   vertex -1250.000000 -2165.000000 -2680.000000
   vertex -2010.712871 -533.645983 -2680.000000
   vertex -1865.636258 -473.553283 -2680.000000
  endloop
 endfacet
 facet normal 0.000000 0.000000 1.000000
  outer loop
   vertex -1250.000000 -2165.000000 -480.000000
   vertex -1865.636258 -473.553283 -480.000000
   vertex -2010.712871 -533.645983 -480.000000
  endloop
 endfacet
 facet normal 0.000000 0.000000 -1.000000
  outer loop
   vertex -1250.000000 -2165.000000 -2680.000000
   vertex -2150.000000 -606.154273 -2680.000000
   vertex -2010.712871 -533.645983 -2680.000000
  endloop
 endfacet
 facet normal 0.000000 0.000000 1.000000
  outer loop
   vertex -1250.000000 -2165.000000 -480.000000
   vertex -2010.712871 -533.645983 -480.000000
   vertex -2150.000000 -606.154273 -480.000000
  endloop
 endfacet
 facet normal 0.000000 0.000000 -1.000000
  outer loop
   vertex -1250.000000 -2165.000000 -2680.000000
   vertex -2282.437585 -690.526320 -2680.000000
   vertex -2150.000000 -606.154273 -2680.000000
  endloop
 endfacet
 facet normal 0.000000 0.000000 1.000000
  outer loop
   vertex -1250.000000 -2165.000000 -480.000000
   vertex -2150.000000 -606.154273 -480.000000
   vertex -2282.437585 -690.526320 -480.000000
  endloop
 endfacet
 facet normal 0.000000 0.000000 -1.000000
  outer loop
   vertex -1250.000000 -2165.000000 -2680.000000
   vertex -2407.017697 -786.120002 -2680.000000
   vertex -2282.437585 -690.526320 -2680.000000
  endloop
 endfacet
 facet normal 0.000000 0.000000 1.000000
  outer loop
   vertex -1250.000000 -2165.000000 -480.000000
   vertex -2282.437585 -690.526320 -480.000000
   vertex -2407.017697 -786.120002 -480.000000
  endloop
 endfacet
 facet normal 0.000000 0.000000 -1.000000
  outer loop
   vertex -1250.000000 -2165.000000 -2680.000000
   vertex -2522.792206 -892.207794 -2680.000000
   vertex -2407.017697 -786.120002 -2680.000000
  endloop
 endfacet
 facet normal 0.000000 0.000000 1.000000
  outer loop
   vertex -1250.000000 -2165.000000 -480.000000
   vertex -2407.017697 -786.120002 -480.000000
   vertex -2522.792206 -892.207794 -480.000000
  endloop
 endfacet
 facet normal 0.000000 0.000000 -1.000000
  outer loop
   vertex -1250.000000 -2165.000000 -2680.000000
   vertex -2628.879998 -1007.982303 -2680.000000
   vertex -2522.792206 -892.207794 -2680.000000
  endloop
 endfacet
 facet normal 0.000000 0.000000 1.000000
  outer loop
   vertex -1250.000000 -2165.000000 -480.000000
   vertex -2522.792206 -892.207794 -480.000000
   vertex -2628.879998 -1007.982303 -480.000000
  endloop
 endfacet
 facet normal 0.000000 0.000000 -1.000000
  outer loop
   vertex -1250.000000 -2165.000000 -2680.000000
   vertex -2724.473680 -1132.562415 -2680.000000
   vertex -2628.879998 -1007.982303 -2680.000000
  endloop
 endfacet
 facet normal 0.000000 0.000000 1.000000
  outer loop
   vertex -1250.000000 -2165.000000 -480.000000
   vertex -2628.879998 -1007.982303 -480.000000
   vertex -2724.473680 -1132.562415 -480.000000
  endloop
 endfacet
 facet normal 0.000000 0.000000 -1.000000
  outer loop
   vertex -1250.000000 -2165.000000 -2680.000000
   vertex -2808.845727 -1265.000000 -2680.000000
   vertex -2724.473680 -1132.562415 -2680.000000
  endloop
 endfacet
 facet normal 0.000000 0.000000 1.000000
  outer loop
   vertex -1250.000000 -2165.000000 -480.000000
   vertex -2724.473680 -1132.562415 -480.000000
   vertex -2808.845727 -1265.000000 -480.000000
  endloop
 endfacet
 facet normal 0.000000 0.000000 -1.000000
  outer loop
   vertex -1250.000000 -2165.000000 -2680.000000
   vertex -2881.354017 -1404.287129 -2680.000000
   vertex -2808.845727 -1265.000000 -2680.000000
  endloop
 endfacet
 facet normal 0.000000 0.000000 1.000000
  outer loop
   vertex -1250.000000 -2165.000000 -480.000000
   vertex -2808.845727 -1265.000000 -480.000000
   vertex -2881.354017 -1404.287129 -480.000000
  endloop
 endfacet
 facet normal 0.000000 0.000000 -1.000000
  outer loop
   vertex -1250.000000 -2165.000000 -2680.000000
   vertex -2941.446717 -1549.363742 -2680.000000
   vertex -2881.354017 -1404.287129 -2680.000000
  endloop
 endfacet
 facet normal 0.000000 0.000000 1.000000
  outer loop
   vertex -1250.000000 -2165.000000 -480.000000
   vertex -2881.354017 -1404.287129 -480.000000
   vertex -2941.446717 -1549.363742 -480.000000
  endloop
 endfacet
 facet normal 0.000000 0.000000 -1.000000
  outer loop
   vertex -1250.000000 -2165.000000 -2680.000000
   vertex -2988.666487 -1699.125719 -2680.000000
   vertex -2941.446717 -1549.363742 -2680.000000
  endloop
 endfacet
 facet normal 0.000000 0.000000 1.000000
  outer loop
   vertex -1250.000000 -2165.000000 -480.000000
   vertex -2941.446717 -1549.363742 -480.000000
   vertex -2988.666487 -1699.125719 -480.000000
  endloop
 endfacet
 facet normal 0.000000 0.000000 -1.000000
  outer loop
   vertex -1250.000000 -2165.000000 -2680.000000
   vertex -3022.653955 -1852.433280 -2680.000000
   vertex -2988.666487 -1699.125719 -2680.000000
  endloop
 endfacet
 facet normal 0.000000 0.000000 1.000000
  outer loop
   vertex -1250.000000 -2165.000000 -480.000000
   vertex -2988.666487 -1699.125719 -480.000000
   vertex -3022.653955 -1852.433280 -480.000000
  endloop
 endfacet
 facet normal 0.000000 0.000000 -1.000000
  outer loop
   vertex -1250.000000 -2165.000000 -2680.000000
   vertex -3043.150457 -2008.119663 -2680.000000
   vertex -3022.653955 -1852.433280 -2680.000000
  endloop
 endfacet
 facet normal 0.000000 0.000000 1.000000
  outer loop
   vertex -1250.000000 -2165.000000 -480.000000
   vertex -3022.653955 -1852.433280 -480.000000
   vertex -3043.150457 -2008.119663 -480.000000
  endloop
 endfacet
 facet normal 0.000000 0.000000 -1.000000
  outer loop
   vertex -1250.000000 -2165.000000 -2680.000000
   vertex -3050.000000 -2165.000000 -2680.000000
   vertex -3043.150457 -2008.119663 -2680.000000
  endloop
 endfacet
 facet normal 0.000000 0.000000 1.000000
  outer loop
   vertex -1250.000000 -2165.000000 -480.000000
   vertex -3043.150457 -2008.119663 -480.000000
   vertex -3050.000000 -2165.000000 -480.000000
  endloop
 endfacet
 facet normal -0.000000 0.000000 -1.000000
  outer loop
   vertex -1250.000000 -2165.000000 -2680.000000
   vertex -3043.150457 -2321.880337 -2680.000000
   vertex -3050.000000 -2165.000000 -2680.000000
  endloop
 endfacet
 facet normal 0.000000 0.000000 1.000000
  outer loop
   vertex -1250.000000 -2165.000000 -480.000000
   vertex -3050.000000 -2165.000000 -480.000000
   vertex -3043.150457 -2321.880337 -480.000000
  endloop
 endfacet
 facet normal 0.000000 0.000000 -1.000000
  outer loop
   vertex -1250.000000 -2165.000000 -2680.000000
   vertex -3022.653955 -2477.566720 -2680.000000
   vertex -3043.150457 -2321.880337 -2680.000000
  endloop
 endfacet
 facet normal 0.000000 0.000000 1.000000
  outer loop
   vertex -1250.000000 -2165.000000 -480.000000
   vertex -3043.150457 -2321.880337 -480.000000
   vertex -3022.653955 -2477.566720 -480.000000
  endloop
 endfacet
 facet normal 0.000000 0.000000 -1.000000
  outer loop
   vertex -1250.000000 -2165.000000 -2680.000000
   vertex -2988.666487 -2630.874281 -2680.000000
   vertex -3022.653955 -2477.566720 -2680.000000
  endloop
 endfacet
 facet normal 0.000000 0.000000 1.000000
  outer loop
   vertex -1250.000000 -2165.000000 -480.000000
   vertex -3022.653955 -2477.566720 -480.000000
   vertex -2988.666487 -2630.874281 -480.000000
  endloop
 endfacet
 facet normal 0.000000 0.000000 -1.000000
  outer loop
   vertex -1250.000000 -2165.000000 -2680.000000
   vertex -2941.446717 -2780.636258 -2680.000000
   vertex -2988.666487 -2630.874281 -2680.000000
  endloop
 endfacet
 facet normal 0.000000 0.000000 1.000000
  outer loop
   vertex -1250.000000 -2165.000000 -480.000000
   vertex -2988.666487 -2630.874281 -480.000000
   vertex -2941.446717 -2780.636258 -480.000000
  endloop
 endfacet
 facet normal 0.000000 0.000000 -1.000000
  outer loop
   vertex -1250.000000 -2165.000000 -2680.000000
   vertex -2881.354017 -2925.712871 -2680.000000
   vertex -2941.446717 -2780.636258 -2680.000000
  endloop
 endfacet
 facet normal 0.000000 0.000000 1.000000
  outer loop
   vertex -1250.000000 -2165.000000 -480.000000
   vertex -2941.446717 -2780.636258 -480.000000
   vertex -2881.354017 -2925.712871 -480.000000
  endloop
 endfacet
 facet normal 0.000000 0.000000 -1.000000
  outer loop
   vertex -1250.000000 -2165.000000 -2680.000000
   vertex -2808.845727 -3065.000000 -2680.000000
   vertex -2881.354017 -2925.712871 -2680.000000
  endloop
 endfacet
 facet normal 0.000000 0.000000 1.000000
  outer loop
   vertex -1250.000000 -2165.000000 -480.000000
   vertex -2881.354017 -2925.712871 -480.000000
   vertex -2808.845727 -3065.000000 -480.000000
  endloop
 endfacet
 facet normal 0.000000 0.000000 -1.000000
  outer loop
   vertex -1250.000000 -2165.000000 -2680.000000
   vertex -2724.473680 -3197.437585 -2680.000000
   vertex -2808.845727 -3065.000000 -2680.000000
  endloop
 endfacet
 facet normal 0.000000 0.000000 1.000000
  outer loop
   vertex -1250.000000 -2165.000000 -480.000000
   vertex -2808.845727 -3065.000000 -480.000000
   vertex -2724.473680 -3197.437585 -480.000000
  endloop
 endfacet
 facet normal 0.000000 0.000000 -1.000000
  outer loop
   vertex -1250.000000 -2165.000000 -2680.000000
   vertex -2628.879998 -3322.017697 -2680.000000
   vertex -2724.473680 -3197.437585 -2680.000000
  endloop
 endfacet
 facet normal 0.000000 0.000000 1.000000
  outer loop
   vertex -1250.000000 -2165.000000 -480.000000
   vertex -2724.473680 -3197.437585 -480.000000
   vertex -2628.879998 -3322.017697 -480.000000
  endloop
 endfacet
 facet normal 0.000000 0.000000 -1.000000
  outer loop
   vertex -1250.000000 -2165.000000 -2680.000000
   vertex -2522.792206 -3437.792206 -2680.000000
   vertex -2628.879998 -3322.017697 -2680.000000
  endloop
 endfacet
 facet normal 0.000000 0.000000 1.000000
  outer loop
   vertex -1250.000000 -2165.000000 -480.000000
   vertex -2628.879998 -3322.017697 -480.000000
   vertex -2522.792206 -3437.792206 -480.000000
  endloop
 endfacet
 facet normal 0.000000 0.000000 -1.000000
  outer loop
   vertex -1250.000000 -2165.000000 -2680.000000
   vertex -2407.017697 -3543.879998 -2680.000000
   vertex -2522.792206 -3437.792206 -2680.000000
  endloop
 endfacet
 facet normal 0.000000 0.000000 1.000000
  outer loop
   vertex -1250.000000 -2165.000000 -480.000000
   vertex -2522.792206 -3437.792206 -480.000000
   vertex -2407.017697 -3543.879998 -480.000000
  endloop
 endfacet
 facet normal 0.000000 0.000000 -1.000000
  outer loop
   vertex -1250.000000 -2165.000000 -2680.000000
   vertex -2282.437585 -3639.473680 -2680.000000
   vertex -2407.017697 -3543.879998 -2680.000000
  endloop
 endfacet
 facet normal 0.000000 0.000000 1.000000
  outer loop
   vertex -1250.000000 -2165.000000 -480.000000
   vertex -2407.017697 -3543.879998 -480.000000
   vertex -2282.437585 -3639.473680 -480.000000
  endloop
 endfacet
 facet normal 0.000000 0.000000 -1.000000
  outer loop
   vertex -1250.000000 -2165.000000 -2680.000000
   vertex -2150.000000 -3723.845727 -2680.000000
   vertex -2282.437585 -3639.473680 -2680.000000
  endloop
 endfacet
 facet normal 0.000000 0.000000 1.000000
  outer loop
   vertex -1250.000000 -2165.000000 -480.000000
   vertex -2282.437585 -3639.473680 -480.000000
   vertex -2150.000000 -3723.845727 -480.000000
  endloop
 endfacet
 facet normal 0.000000 0.000000 -1.000000
  outer loop
   vertex -1250.000000 -2165.000000 -2680.000000
   vertex -2010.712871 -3796.354017 -2680.000000
   vertex -2150.000000 -3723.845727 -2680.000000
  endloop
 endfacet
 facet normal 0.000000 0.000000 1.000000
  outer loop
   vertex -1250.000000 -2165.000000 -480.000000
   vertex -2150.000000 -3723.845727 -480.000000
   vertex -2010.712871 -3796.354017 -480.000000
  endloop
 endfacet
 facet normal 0.000000 0.000000 -1.000000
  outer loop
   vertex -1250.000000 -2165.000000 -2680.000000
   vertex -1865.636258 -3856.446717 -2680.000000
   vertex -2010.712871 -3796.354017 -2680.000000
  endloop
 endfacet
 facet normal 0.000000 0.000000 1.000000
  outer loop
   vertex -1250.000000 -2165.000000 -480.000000
   vertex -2010.712871 -3796.354017 -480.000000
   vertex -1865.636258 -3856.446717 -480.000000
  endloop
 endfacet
 facet normal 0.000000 0.000000 -1.000000
  outer loop
   vertex -1250.000000 -2165.000000 -2680.000000
   vertex -1715.874281 -3903.666487 -2680.000000
   vertex -1865.636258 -3856.446717 -2680.000000
  endloop
 endfacet
 facet normal 0.000000 0.000000 1.000000
  outer loop
   vertex -1250.000000 -2165.000000 -480.000000
   vertex -1865.636258 -3856.446717 -480.000000
   vertex -1715.874281 -3903.666487 -480.000000
  endloop
 endfacet
 facet normal 0.000000 0.000000 -1.000000
  outer loop
   vertex -1250.000000 -2165.000000 -2680.000000
   vertex -1562.566720 -3937.653955 -2680.000000
   vertex -1715.874281 -3903.666487 -2680.000000
  endloop
 endfacet
 facet normal 0.000000 0.000000 1.000000
  outer loop
   vertex -1250.000000 -2165.000000 -480.000000
   vertex -1715.874281 -3903.666487 -480.000000
   vertex -1562.566720 -3937.653955 -480.000000
  endloop
 endfacet
 facet normal 0.000000 0.000000 -1.000000
  outer loop
   vertex -1250.000000 -2165.000000 -2680.000000
   vertex -1406.880337 -3958.150457 -2680.000000
   vertex -1562.566720 -3937.653955 -2680.000000
  endloop
 endfacet
 facet normal 0.000000 0.000000 1.000000
  outer loop
   vertex -1250.000000 -2165.000000 -480.000000
   vertex -1562.566720 -3937.653955 -480.000000
   vertex -1406.880337 -3958.150457 -480.000000
  endloop
 endfacet
 facet normal 0.000000 0.000000 -1.000000
  outer loop
   vertex -1250.000000 -2165.000000 -2680.000000
   vertex -1250.000000 -3965.000000 -2680.000000
   vertex -1406.880337 -3958.150457 -2680.000000
  endloop
 endfacet
 facet normal 0.000000 0.000000 1.000000
  outer loop
   vertex -1250.000000 -2165.000000 -480.000000
   vertex -1406.880337 -3958.150457 -480.000000
   vertex -1250.000000 -3965.000000 -480.000000
  endloop
 endfacet
 facet normal 0.000000 -0.000000 -1.000000
  outer loop
   vertex -1250.000000 -2165.000000 -2680.000000
   vertex -1093.119663 -3958.150457 -2680.000000
   vertex -1250.000000 -3965.000000 -2680.000000
  endloop
 endfacet
 facet normal 0.000000 0.000000 1.000000
  outer loop
   vertex -1250.000000 -2165.000000 -480.000000
   vertex -1250.000000 -3965.000000 -480.000000
   vertex -1093.119663 -3958.150457 -480.000000
  endloop
 endfacet
 facet normal 0.000000 0.000000 -1.000000
  outer loop
   vertex -1250.000000 -2165.000000 -2680.000000
   vertex -937.433280 -3937.653955 -2680.000000
   vertex -1093.119663 -3958.150457 -2680.000000
  endloop
 endfacet
 facet normal 0.000000 0.000000 1.000000
  outer loop
   vertex -1250.000000 -2165.000000 -480.000000
   vertex -1093.119663 -3958.150457 -480.000000
   vertex -937.433280 -3937.653955 -480.000000
  endloop
 endfacet
 facet normal 0.000000 0.000000 -1.000000
  outer loop
   vertex -1250.000000 -2165.000000 -2680.000000
   vertex -784.125719 -3903.666487 -2680.000000
   vertex -937.433280 -3937.653955 -2680.000000
  endloop
 endfacet
 facet normal 0.000000 0.000000 1.000000
  outer loop
   vertex -1250.000000 -2165.000000 -480.000000
   vertex -937.433280 -3937.653955 -480.000000
   vertex -784.125719 -3903.666487 -480.000000
  endloop
 endfacet
 facet normal 0.000000 0.000000 -1.000000
  outer loop
   vertex -1250.000000 -2165.000000 -2680.000000
   vertex -634.363742 -3856.446717 -2680.000000
   vertex -784.125719 -3903.666487 -2680.000000
  endloop
 endfacet
 facet normal 0.000000 0.000000 1.000000
  outer loop
   vertex -1250.000000 -2165.000000 -480.000000
   vertex -784.125719 -3903.666487 -480.000000
   vertex -634.363742 -3856.446717 -480.000000
  endloop
 endfacet
 facet normal 0.000000 0.000000 -1.000000
  outer loop
   vertex -1250.000000 -2165.000000 -2680.000000
   vertex -489.287129 -3796.354017 -2680.000000
   vertex -634.363742 -3856.446717 -2680.000000
  endloop
 endfacet
 facet normal 0.000000 0.000000 1.000000
  outer loop
   vertex -1250.000000 -2165.000000 -480.000000
   vertex -634.363742 -3856.446717 -480.000000
   vertex -489.287129 -3796.354017 -480.000000
  endloop
 endfacet
 facet normal 0.000000 0.000000 -1.000000
  outer loop
   vertex -1250.000000 -2165.000000 -2680.000000
   vertex -350.000000 -3723.845727 -2680.000000
   vertex -489.287129 -3796.354017 -2680.000000
  endloop
 endfacet
 facet normal 0.000000 0.000000 1.000000
  outer loop
   vertex -1250.000000 -2165.000000 -480.000000
   vertex -489.287129 -3796.354017 -480.000000
   vertex -350.000000 -3723.845727 -480.000000
  endloop
 endfacet
 facet normal 0.000000 0.000000 -1.000000
  outer loop
   vertex -1250.000000 -2165.000000 -2680.000000
   vertex -217.562415 -3639.473680 -2680.000000
   vertex -350.000000 -3723.845727 -2680.000000
  endloop
 endfacet
 facet normal 0.000000 0.000000 1.000000
  outer loop
   vertex -1250.000000 -2165.000000 -480.000000
   vertex -350.000000 -3723.845727 -480.000000
   vertex -217.562415 -3639.473680 -480.000000
  endloop
 endfacet
 facet normal 0.000000 0.000000 -1.000000
  outer loop
   vertex -1250.000000 -2165.000000 -2680.000000
   vertex -92.982303 -3543.879998 -2680.000000
   vertex -217.562415 -3639.473680 -2680.000000
  endloop
 endfacet
 facet normal 0.000000 0.000000 1.000000
  outer loop
   vertex -1250.000000 -2165.000000 -480.000000
   vertex -217.562415 -3639.473680 -480.000000
   vertex -92.982303 -3543.879998 -480.000000
  endloop
 endfacet
 facet normal 0.000000 0.000000 -1.000000
  outer loop
   vertex -1250.000000 -2165.000000 -2680.000000
   vertex 22.792206 -3437.792206 -2680.000000
   vertex -92.982303 -3543.879998 -2680.000000
  endloop
 endfacet
 facet normal 0.000000 0.000000 1.000000
  outer loop
   vertex -1250.000000 -2165.000000 -480.000000
   vertex -92.982303 -3543.879998 -480.000000
   vertex 22.792206 -3437.792206 -480.000000
  endloop
 endfacet
 facet normal 0.000000 0.000000 -1.000000
  outer loop
   vertex -1250.000000 -2165.000000 -2680.000000
   vertex 128.879998 -3322.017697 -2680.000000
   vertex 22.792206 -3437.792206 -2680.000000
  endloop
 endfacet
 facet normal 0.000000 0.000000 1.000000
  outer loop
   vertex -1250.000000 -2165.000000 -480.000000
   vertex 22.792206 -3437.792206 -480.000000
   vertex 128.879998 -3322.017697 -480.000000
  endloop
 endfacet
 facet normal 0.000000 0.000000 -1.000000
  outer loop
   vertex -1250.000000 -2165.000000 -2680.000000
   vertex 224.473680 -3197.437585 -2680.000000
   vertex 128.879998 -3322.017697 -2680.000000
  endloop
 endfacet
 facet normal 0.000000 0.000000 1.000000
  outer loop
   vertex -1250.000000 -2165.000000 -480.000000
   vertex 128.879998 -3322.017697 -480.000000
   vertex 224.473680 -3197.437585 -480.000000
  endloop
 endfacet
 facet normal 0.000000 0.000000 -1.000000
  outer loop
   vertex -1250.000000 -2165.000000 -2680.000000
   vertex 308.845727 -3065.000000 -2680.000000
   vertex 224.473680 -3197.437585 -2680.000000
  endloop
 endfacet
 facet normal 0.000000 0.000000 1.000000
  outer loop
   vertex -1250.000000 -2165.000000 -480.000000
   vertex 224.473680 -3197.437585 -480.000000
   vertex 308.845727 -3065.000000 -480.000000
  endloop
 endfacet
 facet normal 0.000000 0.000000 -1.000000
  outer loop
   vertex -1250.000000 -2165.000000 -2680.000000
   vertex 381.354017 -2925.712871 -2680.000000
   vertex 308.845727 -3065.000000 -2680.000000
  endloop
 endfacet
 facet normal 0.000000 0.000000 1.000000
  outer loop
   vertex -1250.000000 -2165.000000 -480.000000
   vertex 308.845727 -3065.000000 -480.000000
   vertex 381.354017 -2925.712871 -480.000000
  endloop
 endfacet
 facet normal 0.000000 0.000000 -1.000000
  outer loop
   vertex -1250.000000 -2165.000000 -2680.000000
   vertex 441.446717 -2780.636258 -2680.000000
   vertex 381.354017 -2925.712871 -2680.000000
  endloop
 endfacet
 facet normal 0.000000 0.000000 1.000000
  outer loop
   vertex -1250.000000 -2165.000000 -480.000000
   vertex 381.354017 -2925.712871 -480.000000
   vertex 441.446717 -2780.636258 -480.000000
  endloop
 endfacet
 facet normal 0.000000 0.000000 -1.000000
  outer loop
   vertex -1250.000000 -2165.000000 -2680.000000
   vertex 488.666487 -2630.874281 -2680.000000
   vertex 441.446717 -2780.636258 -2680.000000
  endloop
 endfacet
 facet normal 0.000000 0.000000 1.000000
  outer loop
   vertex -1250.000000 -2165.000000 -480.000000
   vertex 441.446717 -2780.636258 -480.000000
   vertex 488.666487 -2630.874281 -480.000000
  endloop
 endfacet
 facet normal 0.000000 0.000000 -1.000000
  outer loop
   vertex -1250.000000 -2165.000000 -2680.000000
   vertex 522.653955 -2477.566720 -2680.000000
   vertex 488.666487 -2630.874281 -2680.000000
  endloop
 endfacet
 facet normal 0.000000 0.000000 1.000000
  outer loop
   vertex -1250.000000 -2165.000000 -480.000000
   vertex 488.666487 -2630.874281 -480.000000
   vertex 522.653955 -2477.566720 -480.000000
  endloop
 endfacet
 facet normal 0.000000 0.000000 -1.000000
  outer loop
   vertex -1250.000000 -2165.000000 -2680.000000
   vertex 543.150457 -2321.880337 -2680.000000
   vertex 522.653955 -2477.566720 -2680.000000
  endloop
 endfacet
 facet normal 0.000000 0.000000 1.000000
  outer loop
   vertex -1250.000000 -2165.000000 -480.000000
   vertex 522.653955 -2477.566720 -480.000000
   vertex 543.150457 -2321.880337 -480.000000
  endloop
 endfacet
 facet normal 0.000000 0.000000 -1.000000
  outer loop
   vertex -1250.000000 -2165.000000 -2680.000000
   vertex 550.000000 -2165.000000 -2680.000000
   vertex 543.150457 -2321.880337 -2680.000000
  endloop
 endfacet
 facet normal -0.000000 0.000000 1.000000
  outer loop
   vertex -1250.000000 -2165.000000 -480.000000
   vertex 543.150457 -2321.880337 -480.000000
   vertex 550.000000 -2165.000000 -480.000000
  endloop
 endfacet
endsolid F1_NOZZLE
