solid SIC_RP1_BRANCH
 facet normal 0.995185 0.098017 0.000000
  outer loop
   vertex 1430.000000 2165.000000 -420.000000
   vertex 1426.541350 2200.116258 -420.000000
   vertex 1426.541350 2200.116258 30.000000
  endloop
 endfacet
 facet normal 0.995185 0.098017 -0.000000
  outer loop
   vertex 1430.000000 2165.000000 -420.000000
   vertex 1426.541350 2200.116258 30.000000
   vertex 1430.000000 2165.000000 30.000000
  endloop
 endfacet
 facet normal 0.956940 0.290285 0.000000
  outer loop
   vertex 1426.541350 2200.116258 -420.000000
   vertex 1416.298316 2233.883018 -420.000000
   vertex 1416.298316 2233.883018 30.000000
  endloop
 endfacet
 facet normal 0.956940 0.290285 -0.000000
  outer loop
   vertex 1426.541350 2200.116258 -420.000000
   vertex 1416.298316 2233.883018 30.000000
   vertex 1426.541350 2200.116258 30.000000
  endloop
 endfacet
 facet normal 0.881921 0.471397 0.000000
  outer loop
   vertex 1416.298316 2233.883018 -420.000000
   vertex 1399.664530 2265.002642 -420.000000
   vertex 1399.664530 2265.002642 30.000000
  endloop
 endfacet
 facet normal 0.881921 0.471397 -0.000000
  outer loop
   vertex 1416.298316 2233.883018 -420.000000
   vertex 1399.664530 2265.002642 30.000000
   vertex 1416.298316 2233.883018 30.000000
  endloop
 endfacet
 facet normal 0.773010 0.634393 0.000000
  outer loop
   vertex 1399.664530 2265.002642 -420.000000
   vertex 1377.279221 2292.279221 -420.000000
   vertex 1377.279221 2292.279221 30.000000
  endloop
 endfacet
 facet normal 0.773010 0.634393 -0.000000
  outer loop
   vertex 1399.664530 2265.002642 -420.000000
   vertex 1377.279221 2292.279221 30.000000
   vertex 1399.664530 2265.002642 30.000000
  endloop
 endfacet
 facet normal 0.634393 0.773010 0.000000
  outer loop
   vertex 1377.279221 2292.279221 -420.000000
   vertex 1350.002642 2314.664530 -420.000000
   vertex 1350.002642 2314.664530 30.000000
  endloop
 endfacet
 facet normal 0.634393 0.773010 -0.000000
  outer loop
   vertex 1377.279221 2292.279221 -420.000000
   vertex 1350.002642 2314.664530 30.000000
   vertex 1377.279221 2292.279221 30.000000
  endloop
 endfacet
 facet normal 0.471397 0.881921 0.000000
  outer loop
   vertex 1350.002642 2314.664530 -420.000000
   vertex 1318.883018 2331.298316 -420.000000
   vertex 1318.883018 2331.298316 30.000000
  endloop
 endfacet
 facet normal 0.471397 0.881921 -0.000000
  outer loop
   vertex 1350.002642 2314.664530 -420.000000
   vertex 1318.883018 2331.298316 30.000000
   vertex 1350.002642 2314.664530 30.000000
  endloop
 endfacet
 facet normal 0.290285 0.956940 0.000000
  outer loop
   vertex 1318.883018 2331.298316 -420.000000
   vertex 1285.116258 2341.541350 -420.000000
   vertex 1285.116258 2341.541350 30.000000
  endloop
 endfacet
 facet normal 0.290285 0.956940 -0.000000
  outer loop
   vertex 1318.883018 2331.298316 -420.000000
   vertex 1285.116258 2341.541350 30.000000
   vertex 1318.883018 2331.298316 30.000000
  endloop
 endfacet
 facet normal 0.098017 0.995185 0.000000
  outer loop
   vertex 1285.116258 2341.541350 -420.000000
   vertex 1250.000000 2345.000000 -420.000000
   vertex 1250.000000 2345.000000 30.000000
  endloop
 endfacet
 facet normal 0.098017 0.995185 -0.000000
  outer loop
   vertex 1285.116258 2341.541350 -420.000000
   vertex 1250.000000 2345.000000 30.000000
   vertex 1285.116258 2341.541350 30.000000
  endloop
 endfacet
 facet normal -0.098017 0.995185 0.000000
  outer loop
   vertex 1250.000000 2345.000000 -420.000000
   vertex 1214.883742 2341.541350 -420.000000
   vertex 1214.883742 2341.541350 30.000000
  endloop
 endfacet
 facet normal -0.098017 0.995185 0.000000
  outer loop
   vertex 1250.000000 2345.000000 -420.000000
   vertex 1214.883742 2341.541350 30.000000
   vertex 1250.000000 2345.000000 30.000000
  endloop
 endfacet
 facet normal -0.290285 0.956940 0.000000
  outer loop
   vertex 1214.883742 2341.541350 -420.000000
   vertex 1181.116982 2331.298316 -420.000000
   vertex 1181.116982 2331.298316 30.000000
  endloop
 endfacet
 facet normal -0.290285 0.956940 0.000000
  outer loop
   vertex 1214.883742 2341.541350 -420.000000
   vertex 1181.116982 2331.298316 30.000000
   vertex 1214.883742 2341.541350 30.000000
  endloop
 endfacet
 facet normal -0.471397 0.881921 0.000000
  outer loop
   vertex 1181.116982 2331.298316 -420.000000
   vertex 1149.997358 2314.664530 -420.000000
   vertex 1149.997358 2314.664530 30.000000
  endloop
 endfacet
 facet normal -0.471397 0.881921 0.000000
  outer loop
   vertex 1181.116982 2331.298316 -420.000000
   vertex 1149.997358 2314.664530 30.000000
   vertex 1181.116982 2331.298316 30.000000
  endloop
 endfacet
 facet normal -0.634393 0.773010 0.000000
  outer loop
   vertex 1149.997358 2314.664530 -420.000000
   vertex 1122.720779 2292.279221 -420.000000
   vertex 1122.720779 2292.279221 30.000000
  endloop
 endfacet
 facet normal -0.634393 0.773010 0.000000
  outer loop
   vertex 1149.997358 2314.664530 -420.000000
   vertex 1122.720779 2292.279221 30.000000
   vertex 1149.997358 2314.664530 30.000000
  endloop
 endfacet
 facet normal -0.773010 0.634393 0.000000
  outer loop
   vertex 1122.720779 2292.279221 -420.000000
   vertex 1100.335470 2265.002642 -420.000000
   vertex 1100.335470 2265.002642 30.000000
  endloop
 endfacet
 facet normal -0.773010 0.634393 0.000000
  outer loop
   vertex 1122.720779 2292.279221 -420.000000
   vertex 1100.335470 2265.002642 30.000000
   vertex 1122.720779 2292.279221 30.000000
  endloop
 endfacet
 facet normal -0.881921 0.471397 0.000000
  outer loop
   vertex 1100.335470 2265.002642 -420.000000
   vertex 1083.701684 2233.883018 -420.000000
   vertex 1083.701684 2233.883018 30.000000
  endloop
 endfacet
 facet normal -0.881921 0.471397 0.000000
  outer loop
   vertex 1100.335470 2265.002642 -420.000000
   vertex 1083.701684 2233.883018 30.000000
   vertex 1100.335470 2265.002642 30.000000
  endloop
 endfacet
 facet normal -0.956940 0.290285 0.000000
  outer loop
   vertex 1083.701684 2233.883018 -420.000000
   vertex 1073.458650 2200.116258 -420.000000
   vertex 1073.458650 2200.116258 30.000000
  endloop
 endfacet
 facet normal -0.956940 0.290285 0.000000
  outer loop
   vertex 1083.701684 2233.883018 -420.000000
   vertex 1073.458650 2200.116258 30.000000
   vertex 1083.701684 2233.883018 30.000000
  endloop
 endfacet
 facet normal -0.995185 0.098017 0.000000
  outer loop
   vertex 1073.458650 2200.116258 -420.000000
   vertex 1070.000000 2165.000000 -420.000000
   vertex 1070.000000 2165.000000 30.000000
  endloop
 endfacet
 facet normal -0.995185 0.098017 0.000000
  outer loop
   vertex 1073.458650 2200.116258 -420.000000
   vertex 1070.000000 2165.000000 30.000000
   vertex 1073.458650 2200.116258 30.000000
  endloop
 endfacet
 facet normal -0.995185 -0.098017 0.000000
  outer loop
   vertex 1070.000000 2165.000000 -420.000000
   vertex 1073.458650 2129.883742 -420.000000
   vertex 1073.458650 2129.883742 30.000000
  endloop
 endfacet
 facet normal -0.995185 -0.098017 0.000000
  outer loop
   vertex 1070.000000 2165.000000 -420.000000
   vertex 1073.458650 2129.883742 30.000000
   vertex 1070.000000 2165.000000 30.000000
  endloop
 endfacet
 facet normal -0.956940 -0.290285 0.000000
  outer loop
   vertex 1073.458650 2129.883742 -420.000000
   vertex 1083.701684 2096.116982 -420.000000
   vertex 1083.701684 2096.116982 30.000000
  endloop
 endfacet
 facet normal -0.956940 -0.290285 0.000000
  outer loop
   vertex 1073.458650 2129.883742 -420.000000
   vertex 1083.701684 2096.116982 30.000000
   vertex 1073.458650 2129.883742 30.000000
  endloop
 endfacet
 facet normal -0.881921 -0.471397 0.000000
  outer loop
   vertex 1083.701684 2096.116982 -420.000000
   vertex 1100.335470 2064.997358 -420.000000
   vertex 1100.335470 2064.997358 30.000000
  endloop
 endfacet
 facet normal -0.881921 -0.471397 0.000000
  outer loop
   vertex 1083.701684 2096.116982 -420.000000
   vertex 1100.335470 2064.997358 30.000000
   vertex 1083.701684 2096.116982 30.000000
  endloop
 endfacet
 facet normal -0.773010 -0.634393 0.000000
  outer loop
   vertex 1100.335470 2064.997358 -420.000000
   vertex 1122.720779 2037.720779 -420.000000
   vertex 1122.720779 2037.720779 30.000000
  endloop
 endfacet
 facet normal -0.773010 -0.634393 0.000000
  outer loop
   vertex 1100.335470 2064.997358 -420.000000
   vertex 1122.720779 2037.720779 30.000000
   vertex 1100.335470 2064.997358 30.000000
  endloop
 endfacet
 facet normal -0.634393 -0.773010 0.000000
  outer loop
   vertex 1122.720779 2037.720779 -420.000000
   vertex 1149.997358 2015.335470 -420.000000
   vertex 1149.997358 2015.335470 30.000000
  endloop
 endfacet
 facet normal -0.634393 -0.773010 0.000000
  outer loop
   vertex 1122.720779 2037.720779 -420.000000
   vertex 1149.997358 2015.335470 30.000000
   vertex 1122.720779 2037.720779 30.000000
  endloop
 endfacet
 facet normal -0.471397 -0.881921 0.000000
  outer loop
   vertex 1149.997358 2015.335470 -420.000000
   vertex 1181.116982 1998.701684 -420.000000
   vertex 1181.116982 1998.701684 30.000000
  endloop
 endfacet
 facet normal -0.471397 -0.881921 0.000000
  outer loop
   vertex 1149.997358 2015.335470 -420.000000
   vertex 1181.116982 1998.701684 30.000000
   vertex 1149.997358 2015.335470 30.000000
  endloop
 endfacet
 facet normal -0.290285 -0.956940 0.000000
  outer loop
   vertex 1181.116982 1998.701684 -420.000000
   vertex 1214.883742 1988.458650 -420.000000
   vertex 1214.883742 1988.458650 30.000000
  endloop
 endfacet
 facet normal -0.290285 -0.956940 0.000000
  outer loop
   vertex 1181.116982 1998.701684 -420.000000
   vertex 1214.883742 1988.458650 30.000000
   vertex 1181.116982 1998.701684 30.000000
  endloop
 endfacet
 facet normal -0.098017 -0.995185 0.000000
  outer loop
   vertex 1214.883742 1988.458650 -420.000000
   vertex 1250.000000 1985.000000 -420.000000
   vertex 1250.000000 1985.000000 30.000000
  endloop
 endfacet
 facet normal -0.098017 -0.995185 0.000000
  outer loop
   vertex 1214.883742 1988.458650 -420.000000
   vertex 1250.000000 1985.000000 30.000000
   vertex 1214.883742 1988.458650 30.000000
  endloop
 endfacet
 facet normal 0.098017 -0.995185 0.000000
  outer loop
   vertex 1250.000000 1985.000000 -420.000000
   vertex 1285.116258 1988.458650 -420.000000
   vertex 1285.116258 1988.458650 30.000000
  endloop
 endfacet
 facet normal 0.098017 -0.995185 0.000000
  outer loop
   vertex 1250.000000 1985.000000 -420.000000
   vertex 1285.116258 1988.458650 30.000000
   vertex 1250.000000 1985.000000 30.000000
  endloop
 endfacet
 facet normal 0.290285 -0.956940 0.000000
  outer loop
   vertex 1285.116258 1988.458650 -420.000000
   vertex 1318.883018 1998.701684 -420.000000
   vertex 1318.883018 1998.701684 30.000000
  endloop
 endfacet
 facet normal 0.290285 -0.956940 0.000000
  outer loop
   vertex 1285.116258 1988.458650 -420.000000
   vertex 1318.883018 1998.701684 30.000000
   vertex 1285.116258 1988.458650 30.000000
  endloop
 endfacet
 facet normal 0.471397 -0.881921 0.000000
  outer loop
   vertex 1318.883018 1998.701684 -420.000000
   vertex 1350.002642 2015.335470 -420.000000
   vertex 1350.002642 2015.335470 30.000000
  endloop
 endfacet
 facet normal 0.471397 -0.881921 0.000000
  outer loop
   vertex 1318.883018 1998.701684 -420.000000
   vertex 1350.002642 2015.335470 30.000000
   vertex 1318.883018 1998.701684 30.000000
  endloop
 endfacet
 facet normal 0.634393 -0.773010 0.000000
  outer loop
   vertex 1350.002642 2015.335470 -420.000000
   vertex 1377.279221 2037.720779 -420.000000
   vertex 1377.279221 2037.720779 30.000000
  endloop
 endfacet
 facet normal 0.634393 -0.773010 0.000000
  outer loop
   vertex 1350.002642 2015.335470 -420.000000
   vertex 1377.279221 2037.720779 30.000000
   vertex 1350.002642 2015.335470 30.000000
  endloop
 endfacet
 facet normal 0.773010 -0.634393 0.000000
  outer loop
   vertex 1377.279221 2037.720779 -420.000000
   vertex 1399.664530 2064.997358 -420.000000
   vertex 1399.664530 2064.997358 30.000000
  endloop
 endfacet
 facet normal 0.773010 -0.634393 0.000000
  outer loop
   vertex 1377.279221 2037.720779 -420.000000
   vertex 1399.664530 2064.997358 30.000000
   vertex 1377.279221 2037.720779 30.000000
  endloop
 endfacet
 facet normal 0.881921 -0.471397 0.000000
  outer loop
   vertex 1399.664530 2064.997358 -420.000000
   vertex 1416.298316 2096.116982 -420.000000
   vertex 1416.298316 2096.116982 30.000000
  endloop
 endfacet
 facet normal 0.881921 -0.471397 0.000000
  outer loop
   vertex 1399.664530 2064.997358 -420.000000
   vertex 1416.298316 2096.116982 30.000000
   vertex 1399.664530 2064.997358 30.000000
  endloop
 endfacet
 facet normal 0.956940 -0.290285 0.000000
  outer loop
   vertex 1416.298316 2096.116982 -420.000000
   vertex 1426.541350 2129.883742 -420.000000
   vertex 1426.541350 2129.883742 30.000000
  endloop
 endfacet
 facet normal 0.956940 -0.290285 0.000000
  outer loop
   vertex 1416.298316 2096.116982 -420.000000
   vertex 1426.541350 2129.883742 30.000000
   vertex 1416.298316 2096.116982 30.000000
  endloop
 endfacet
 facet normal 0.995185 -0.098017 0.000000
  outer loop
   vertex 1426.541350 2129.883742 -420.000000
   vertex 1430.000000 2165.000000 -420.000000
   vertex 1430.000000 2165.000000 30.000000
  endloop
 endfacet
 facet normal 0.995185 -0.098017 0.000000
  outer loop
   vertex 1426.541350 2129.883742 -420.000000
   vertex 1430.000000 2165.000000 30.000000
   vertex 1426.541350 2129.883742 30.000000
  endloop
 endfacet
 facet normal 0.000000 0.000000 -1.000000
  outer loop
   vertex 1250.000000 2165.000000 -420.000000
   vertex 1426.541350 2200.116258 -420.000000
   vertex 1430.000000 2165.000000 -420.000000
  endloop
 endfacet
 facet normal 0.000000 0.000000 1.000000
  outer loop
   vertex 1250.000000 2165.000000 30.000000
   vertex 1430.000000 2165.000000 30.000000
   vertex 1426.541350 2200.116258 30.000000
  endloop
 endfacet
 facet normal 0.000000 0.000000 -1.000000
  outer loop
   vertex 1250.000000 2165.000000 -420.000000
   vertex 1416.298316 2233.883018 -420.000000
   vertex 1426.541350 2200.116258 -420.000000
  endloop
 endfacet
 facet normal 0.000000 0.000000 1.000000
  outer loop
   vertex 1250.000000 2165.000000 30.000000
   vertex 1426.541350 2200.116258 30.000000
   vertex 1416.298316 2233.883018 30.000000
  endloop
 endfacet
 facet normal 0.000000 0.000000 -1.000000
  outer loop
   vertex 1250.000000 2165.000000 -420.000000
   vertex 1399.664530 2265.002642 -420.000000
   vertex 1416.298316 2233.883018 -420.000000
  endloop
 endfacet
 facet normal 0.000000 0.000000 1.000000
  outer loop
   vertex 1250.000000 2165.000000 30.000000
   vertex 1416.298316 2233.883018 30.000000
   vertex 1399.664530 2265.002642 30.000000
  endloop
 endfacet
 facet normal 0.000000 0.000000 -1.000000
  outer loop
   vertex 1250.000000 2165.000000 -420.000000
   vertex 1377.279221 2292.279221 -420.000000
   vertex 1399.664530 2265.002642 -420.000000
  endloop
 endfacet
 facet normal 0.000000 0.000000 1.000000
  outer loop
   vertex 1250.000000 2165.000000 30.000000
   vertex 1399.664530 2265.002642 30.000000
   vertex 1377.279221 2292.279221 30.000000
  endloop
 endfacet
 facet normal 0.000000 0.000000 -1.000000
  outer loop
   vertex 1250.000000 2165.000000 -420.000000
   vertex 1350.002642 2314.664530 -420.000000
   vertex 1377.279221 2292.279221 -420.000000
  endloop
 endfacet
 facet normal 0.000000 0.000000 1.000000
  outer loop
   vertex 1250.000000 2165.000000 30.000000
   vertex 1377.279221 2292.279221 30.000000
   vertex 1350.002642 2314.664530 30.000000
  endloop
 endfacet
 facet normal 0.000000 0.000000 -1.000000
  outer loop
   vertex 1250.000000 2165.000000 -420.000000
   vertex 1318.883018 2331.298316 -420.000000
   vertex 1350.002642 2314.664530 -420.000000
  endloop
 endfacet
 facet normal 0.000000 0.000000 1.000000
  outer loop
   vertex 1250.000000 2165.000000 30.000000
   vertex 1350.002642 2314.664530 30.000000
   vertex 1318.883018 2331.298316 30.000000
  endloop
 endfacet
 facet normal 0.000000 0.000000 -1.000000
  outer loop
   vertex 1250.000000 2165.000000 -420.000000
   vertex 1285.116258 2341.541350 -420.000000
   vertex 1318.883018 2331.298316 -420.000000
  endloop
 endfacet
 facet normal 0.000000 0.000000 1.000000
  outer loop
   vertex 1250.000000 2165.000000 30.000000
   vertex 1318.883018 2331.298316 30.000000
   vertex 1285.116258 2341.541350 30.000000
  endloop
 endfacet
 facet normal 0.000000 0.000000 -1.000000
  outer loop
   vertex 1250.000000 2165.000000 -420.000000
   vertex 1250.000000 2345.000000 -420.000000
   vertex 1285.116258 2341.541350 -420.000000
  endloop
 endfacet
 facet normal 0.000000 0.000000 1.000000
  outer loop
   vertex 1250.000000 2165.000000 30.000000
   vertex 1285.116258 2341.541350 30.000000
   vertex 1250.000000 2345.000000 30.000000
  endloop
 endfacet
 facet normal 0.000000 0.000000 -1.000000
  outer loop
   vertex 1250.000000 2165.000000 -420.000000
   vertex 1214.883742 2341.541350 -420.000000
   vertex 1250.000000 2345.000000 -420.000000
  endloop
 endfacet
 facet normal 0.000000 -0.000000 1.000000
  outer loop
   vertex 1250.000000 2165.000000 30.000000
   vertex 1250.000000 2345.000000 30.000000
   vertex 1214.883742 2341.541350 30.000000
  endloop
 endfacet
 facet normal 0.000000 0.000000 -1.000000
  outer loop
   vertex 1250.000000 2165.000000 -420.000000
   vertex 1181.116982 2331.298316 -420.000000
   vertex 1214.883742 2341.541350 -420.000000
  endloop
 endfacet
 facet normal 0.000000 0.000000 1.000000
  outer loop
   vertex 1250.000000 2165.000000 30.000000
   vertex 1214.883742 2341.541350 30.000000
   vertex 1181.116982 2331.298316 30.000000
  endloop
 endfacet
 facet normal 0.000000 0.000000 -1.000000
  outer loop
   vertex 1250.000000 2165.000000 -420.000000
   vertex 1149.997358 2314.664530 -420.000000
   vertex 1181.116982 2331.298316 -420.000000
  endloop
 endfacet
 facet normal 0.000000 0.000000 1.000000
  outer loop
   vertex 1250.000000 2165.000000 30.000000
   vertex 1181.116982 2331.298316 30.000000
   vertex 1149.997358 2314.664530 30.000000
  endloop
 endfacet
 facet normal 0.000000 0.000000 -1.000000
  outer loop
   vertex 1250.000000 2165.000000 -420.000000
   vertex 1122.720779 2292.279221 -420.000000
   vertex 1149.997358 2314.664530 -420.000000
  endloop
 endfacet
 facet normal 0.000000 0.000000 1.000000
  outer loop
   vertex 1250.000000 2165.000000 30.000000
   vertex 1149.997358 2314.664530 30.000000
   vertex 1122.720779 2292.279221 30.000000
  endloop
 endfacet
 facet normal 0.000000 0.000000 -1.000000
  outer loop
   vertex 1250.000000 2165.000000 -420.000000
   vertex 1100.335470 2265.002642 -420.000000
   vertex 1122.720779 2292.279221 -420.000000
  endloop
 endfacet
 facet normal 0.000000 0.000000 1.000000
  outer loop
   vertex 1250.000000 2165.000000 30.000000
   vertex 1122.720779 2292.279221 30.000000
   vertex 1100.335470 2265.002642 30.000000
  endloop
 endfacet
 facet normal 0.000000 0.000000 -1.000000
  outer loop
   vertex 1250.000000 2165.000000 -420.000000
   vertex 1083.701684 2233.883018 -420.000000
   vertex 1100.335470 2265.002642 -420.000000
  endloop
 endfacet
 facet normal 0.000000 0.000000 1.000000
  outer loop
   vertex 1250.000000 2165.000000 30.000000
   vertex 1100.335470 2265.002642 30.000000
   vertex 1083.701684 2233.883018 30.000000
  endloop
 endfacet
 facet normal 0.000000 0.000000 -1.000000
  outer loop
   vertex 1250.000000 2165.000000 -420.000000
   vertex 1073.458650 2200.116258 -420.000000
   vertex 1083.701684 2233.883018 -420.000000
  endloop
 endfacet
 facet normal 0.000000 0.000000 1.000000
  outer loop
   vertex 1250.000000 2165.000000 30.000000
   vertex 1083.701684 2233.883018 30.000000
   vertex 1073.458650 2200.116258 30.000000
  endloop
 endfacet
 facet normal 0.000000 0.000000 -1.000000
  outer loop
   vertex 1250.000000 2165.000000 -420.000000
   vertex 1070.000000 2165.000000 -420.000000
   vertex 1073.458650 2200.116258 -420.000000
  endloop
 endfacet
 facet normal 0.000000 0.000000 1.000000
  outer loop
   vertex 1250.000000 2165.000000 30.000000
   vertex 1073.458650 2200.116258 30.000000
   vertex 1070.000000 2165.000000 30.000000
  endloop
 endfacet
 facet normal -0.000000 0.000000 -1.000000
  outer loop
   vertex 1250.000000 2165.000000 -420.000000
   vertex 1073.458650 2129.883742 -420.000000
   vertex 1070.000000 2165.000000 -420.000000
  endloop
 endfacet
 facet normal 0.000000 0.000000 1.000000
  outer loop
   vertex 1250.000000 2165.000000 30.000000
   vertex 1070.000000 2165.000000 30.000000
   vertex 1073.458650 2129.883742 30.000000
  endloop
 endfacet
 facet normal 0.000000 0.000000 -1.000000
  outer loop
   vertex 1250.000000 2165.000000 -420.000000
   vertex 1083.701684 2096.116982 -420.000000
   vertex 1073.458650 2129.883742 -420.000000
  endloop
 endfacet
 facet normal 0.000000 0.000000 1.000000
  outer loop
   vertex 1250.000000 2165.000000 30.000000
   vertex 1073.458650 2129.883742 30.000000
   vertex 1083.701684 2096.116982 30.000000
  endloop
 endfacet
 facet normal 0.000000 0.000000 -1.000000
  outer loop
   vertex 1250.000000 2165.000000 -420.000000
   vertex 1100.335470 2064.997358 -420.000000
   vertex 1083.701684 2096.116982 -420.000000
  endloop
 endfacet
 facet normal 0.000000 0.000000 1.000000
  outer loop
   vertex 1250.000000 2165.000000 30.000000
   vertex 1083.701684 2096.116982 30.000000
   vertex 1100.335470 2064.997358 30.000000
  endloop
 endfacet
 facet normal 0.000000 0.000000 -1.000000
  outer loop
   vertex 1250.000000 2165.000000 -420.000000
   vertex 1122.720779 2037.720779 -420.000000
   vertex 1100.335470 2064.997358 -420.000000
  endloop
 endfacet
 facet normal 0.000000 0.000000 1.000000
  outer loop
   vertex 1250.000000 2165.000000 30.000000
   vertex 1100.335470 2064.997358 30.000000
   vertex 1122.720779 2037.720779 30.000000
  endloop
 endfacet
 facet normal 0.000000 0.000000 -1.000000
  outer loop
   vertex 1250.000000 2165.000000 -420.000000
   vertex 1149.997358 2015.335470 -420.000000
   vertex 1122.720779 2037.720779 -420.000000
  endloop
 endfacet
 facet normal 0.000000 0.000000 1.000000
  outer loop
   vertex 1250.000000 2165.000000 30.000000
   vertex 1122.720779 2037.720779 30.000000
   vertex 1149.997358 2015.335470 30.000000
  endloop
 endfacet
 facet normal 0.000000 0.000000 -1.000000
  outer loop
   vertex 1250.000000 2165.000000 -420.000000
   vertex 1181.116982 1998.701684 -420.000000
   vertex 1149.997358 2015.335470 -420.000000
  endloop
 endfacet
 facet normal 0.000000 0.000000 1.000000
  outer loop
   vertex 1250.000000 2165.000000 30.000000
   vertex 1149.997358 2015.335470 30.000000
   vertex 1181.116982 1998.701684 30.000000
  endloop
 endfacet
 facet normal 0.000000 0.000000 -1.000000
  outer loop
   vertex 1250.000000 2165.000000 -420.000000
   vertex 1214.883742 1988.458650 -420.000000
   vertex 1181.116982 1998.701684 -420.000000
  endloop
 endfacet
 facet normal 0.000000 0.000000 1.000000
  outer loop
   vertex 1250.000000 2165.000000 30.000000
   vertex 1181.116982 1998.701684 30.000000
   vertex 1214.883742 1988.458650 30.000000
  endloop
 endfacet
 facet normal 0.000000 -0.000000 -1.000000
  outer loop
   vertex 1250.000000 2165.000000 -420.000000
   vertex 1250.000000 1985.000000 -420.000000
   vertex 1214.883742 1988.458650 -420.000000
  endloop
 endfacet
 facet normal 0.000000 0.000000 1.000000
  outer loop
   vertex 1250.000000 2165.000000 30.000000
   vertex 1214.883742 1988.458650 30.000000
   vertex 1250.000000 1985.000000 30.000000
  endloop
 endfacet
 facet normal 0.000000 0.000000 -1.000000
  outer loop
   vertex 1250.000000 2165.000000 -420.000000
   vertex 1285.116258 1988.458650 -420.000000
   vertex 1250.000000 1985.000000 -420.000000
  endloop
 endfacet
 facet normal 0.000000 0.000000 1.000000
  outer loop
   vertex 1250.000000 2165.000000 30.000000
   vertex 1250.000000 1985.000000 30.000000
   vertex 1285.116258 1988.458650 30.000000
  endloop
 endfacet
 facet normal 0.000000 0.000000 -1.000000
  outer loop
   vertex 1250.000000 2165.000000 -420.000000
   vertex 1318.883018 1998.701684 -420.000000
   vertex 1285.116258 1988.458650 -420.000000
  endloop
 endfacet
 facet normal 0.000000 0.000000 1.000000
  outer loop
   vertex 1250.000000 2165.000000 30.000000
   vertex 1285.116258 1988.458650 30.000000
   vertex 1318.883018 1998.701684 30.000000
  endloop
 endfacet
 facet normal 0.000000 0.000000 -1.000000
  outer loop
   vertex 1250.000000 2165.000000 -420.000000
   vertex 1350.002642 2015.335470 -420.000000
   vertex 1318.883018 1998.701684 -420.000000
  endloop
 endfacet
 facet normal 0.000000 0.000000 1.000000
  outer loop
   vertex 1250.000000 2165.000000 30.000000
   vertex 1318.883018 1998.701684 30.000000
   vertex 1350.002642 2015.335470 30.000000
  endloop
 endfacet
 facet normal 0.000000 0.000000 -1.000000
  outer loop
   vertex 1250.000000 2165.000000 -420.000000
   vertex 1377.279221 2037.720779 -420.000000
   vertex 1350.002642 2015.335470 -420.000000
  endloop
 endfacet
 facet normal 0.000000 0.000000 1.000000
  outer loop
   vertex 1250.000000 2165.000000 30.000000
   vertex 1350.002642 2015.335470 30.000000
   vertex 1377.279221 2037.720779 30.000000
  endloop
 endfacet
 facet normal 0.000000 0.000000 -1.000000
  outer loop
   vertex 1250.000000 2165.000000 -420.000000
   vertex 1399.664530 2064.997358 -420.000000
   vertex 1377.279221 2037.720779 -420.000000
  endloop
 endfacet
 facet normal 0.000000 0.000000 1.000000
  outer loop
   vertex 1250.000000 2165.000000 30.000000
   vertex 1377.279221 2037.720779 30.000000
   vertex 1399.664530 2064.997358 30.000000
  endloop
 endfacet
 facet normal 0.000000 0.000000 -1.000000
  outer loop
   vertex 1250.000000 2165.000000 -420.000000
   vertex 1416.298316 2096.116982 -420.000000
   vertex 1399.664530 2064.997358 -420.000000
  endloop
 endfacet
 facet normal 0.000000 0.000000 1.000000
  outer loop
   vertex 1250.000000 2165.000000 30.000000
   vertex 1399.664530 2064.997358 30.000000
   vertex 1416.298316 2096.116982 30.000000
  endloop
 endfacet
 facet normal 0.000000 0.000000 -1.000000
  outer loop
   vertex 1250.000000 2165.000000 -420.000000
   vertex 1426.541350 2129.883742 -420.000000
   vertex 1416.298316 2096.116982 -420.000000
  endloop
 endfacet
 facet normal 0.000000 0.000000 1.000000
  outer loop
   vertex 1250.000000 2165.000000 30.000000
   vertex 1416.298316 2096.116982 30.000000
   vertex 1426.541350 2129.883742 30.000000
  endloop
 endfacet
 facet normal 0.000000 0.000000 -1.000000
  outer loop
   vertex 1250.000000 2165.000000 -420.000000
   vertex 1430.000000 2165.000000 -420.000000
   vertex 1426.541350 2129.883742 -420.000000
  endloop
 endfacet
 facet normal -0.000000 0.000000 1.000000
  outer loop
   vertex 1250.000000 2165.000000 30.000000
   vertex 1426.541350 2129.883742 30.000000
   vertex 1430.000000 2165.000000 30.000000
  endloop
 endfacet
endsolid SIC_RP1_BRANCH
