solid SII_LH2_feed_1_elbow
 facet normal 0.065403 0.997859 0.000000
  outer loop
   vertex 1890.000000 90.000000 -160.000000
   vertex 1901.747357 89.230038 -160.000000
   vertex 1901.747357 89.230038 -580.000000
  endloop
 endfacet
 facet normal 0.065403 0.997859 0.000000
  outer loop
   vertex 1890.000000 90.000000 -160.000000
   vertex 1901.747357 89.230038 -580.000000
   vertex 1890.000000 90.000000 -580.000000
  endloop
 endfacet
 facet normal 0.195090 0.980785 0.000000
  outer loop
   vertex 1901.747357 89.230038 -160.000000
   vertex 1913.293714 86.933324 -160.000000
   vertex 1913.293714 86.933324 -580.000000
  endloop
 endfacet
 facet normal 0.195090 0.980785 0.000000
  outer loop
   vertex 1901.747357 89.230038 -160.000000
   vertex 1913.293714 86.933324 -580.000000
   vertex 1901.747357 89.230038 -580.000000
  endloop
 endfacet
 facet normal 0.321439 0.946930 0.000000
  outer loop
   vertex 1913.293714 86.933324 -160.000000
   vertex 1924.441509 83.149158 -160.000000
   vertex 1924.441509 83.149158 -580.000000
  endloop
 endfacet
 facet normal 0.321439 0.946930 0.000000
  outer loop
   vertex 1913.293714 86.933324 -160.000000
   vertex 1924.441509 83.149158 -580.000000
   vertex 1913.293714 86.933324 -580.000000
  endloop
 endfacet
 facet normal 0.442289 0.896873 0.000000
  outer loop
   vertex 1924.441509 83.149158 -160.000000
   vertex 1935.000000 77.942286 -160.000000
   vertex 1935.000000 77.942286 -580.000000
  endloop
 endfacet
 facet normal 0.442289 0.896873 0.000000
  outer loop
   vertex 1924.441509 83.149158 -160.000000
   vertex 1935.000000 77.942286 -580.000000
   vertex 1924.441509 83.149158 -580.000000
  endloop
 endfacet
 facet normal 0.555570 0.831470 0.000000
  outer loop
   vertex 1935.000000 77.942286 -160.000000
   vertex 1944.788529 71.401801 -160.000000
   vertex 1944.788529 71.401801 -580.000000
  endloop
 endfacet
 facet normal 0.555570 0.831470 0.000000
  outer loop
   vertex 1935.000000 77.942286 -160.000000
   vertex 1944.788529 71.401801 -580.000000
   vertex 1935.000000 77.942286 -580.000000
  endloop
 endfacet
 facet normal 0.659346 0.751840 0.000000
  outer loop
   vertex 1944.788529 71.401801 -160.000000
   vertex 1953.639610 63.639610 -160.000000
   vertex 1953.639610 63.639610 -580.000000
  endloop
 endfacet
 facet normal 0.659346 0.751840 0.000000
  outer loop
   vertex 1944.788529 71.401801 -160.000000
   vertex 1953.639610 63.639610 -580.000000
   vertex 1944.788529 71.401801 -580.000000
  endloop
 endfacet
 facet normal 0.751840 0.659346 0.000000
  outer loop
   vertex 1953.639610 63.639610 -160.000000
   vertex 1961.401801 54.788529 -160.000000
   vertex 1961.401801 54.788529 -580.000000
  endloop
 endfacet
 facet normal 0.751840 0.659346 0.000000
  outer loop
   vertex 1953.639610 63.639610 -160.000000
   vertex 1961.401801 54.788529 -580.000000
   vertex 1953.639610 63.639610 -580.000000
  endloop
 endfacet
 facet normal 0.831470 0.555570 0.000000
  outer loop
   vertex 1961.401801 54.788529 -160.000000
   vertex 1967.942286 45.000000 -160.000000
   vertex 1967.942286 45.000000 -580.000000
  endloop
 endfacet
 facet normal 0.831470 0.555570 0.000000
  outer loop
   vertex 1961.401801 54.788529 -160.000000
   vertex 1967.942286 45.000000 -580.000000
   vertex 1961.401801 54.788529 -580.000000
  endloop
 endfacet
 facet normal 0.896873 0.442289 0.000000
  outer loop
   vertex 1967.942286 45.000000 -160.000000
   vertex 1973.149158 34.441509 -160.000000
   vertex 1973.149158 34.441509 -580.000000
  endloop
 endfacet
 facet normal 0.896873 0.442289 0.000000
  outer loop
   vertex 1967.942286 45.000000 -160.000000
   vertex 1973.149158 34.441509 -580.000000
   vertex 1967.942286 45.000000 -580.000000
  endloop
 endfacet
 facet normal 0.946930 0.321439 0.000000
  outer loop
   vertex 1973.149158 34.441509 -160.000000
   vertex 1976.933324 23.293714 -160.000000
   vertex 1976.933324 23.293714 -580.000000
  endloop
 endfacet
 facet normal 0.946930 0.321439 0.000000
  outer loop
   vertex 1973.149158 34.441509 -160.000000
   vertex 1976.933324 23.293714 -580.000000
   vertex 1973.149158 34.441509 -580.000000
  endloop
 endfacet
 facet normal 0.980785 0.195090 0.000000
  outer loop
   vertex 1976.933324 23.293714 -160.000000
   vertex 1979.230038 11.747357 -160.000000
   vertex 1979.230038 11.747357 -580.000000
  endloop
 endfacet
 facet normal 0.980785 0.195090 0.000000
  outer loop
   vertex 1976.933324 23.293714 -160.000000
   vertex 1979.230038 11.747357 -580.000000
   vertex 1976.933324 23.293714 -580.000000
  endloop
 endfacet
 facet normal 0.997859 0.065403 0.000000
  outer loop
   vertex 1979.230038 11.747357 -160.000000
   vertex 1980.000000 0.000000 -160.000000
   vertex 1980.000000 0.000000 -580.000000
  endloop
 endfacet
 facet normal 0.997859 0.065403 0.000000
  outer loop
   vertex 1979.230038 11.747357 -160.000000
   vertex 1980.000000 0.000000 -580.000000
   vertex 1979.230038 11.747357 -580.000000
  endloop
 endfacet
 facet normal 0.997859 -0.065403 0.000000
  outer loop
   vertex 1980.000000 0.000000 -160.000000
   vertex 1979.230038 -11.747357 -160.000000
   vertex 1979.230038 -11.747357 -580.000000
  endloop
 endfacet
 facet normal 0.997859 -0.065403 0.000000
  outer loop
   vertex 1980.000000 0.000000 -160.000000
   vertex 1979.230038 -11.747357 -580.000000
   vertex 1980.000000 0.000000 -580.000000
  endloop
 endfacet
 facet normal 0.980785 -0.195090 0.000000
  outer loop
   vertex 1979.230038 -11.747357 -160.000000
   vertex 1976.933324 -23.293714 -160.000000
   vertex 1976.933324 -23.293714 -580.000000
  endloop
 endfacet
 facet normal 0.980785 -0.195090 0.000000
  outer loop
   vertex 1979.230038 -11.747357 -160.000000
   vertex 1976.933324 -23.293714 -580.000000
   vertex 1979.230038 -11.747357 -580.000000
  endloop
 endfacet
 facet normal 0.946930 -0.321439 0.000000
  outer loop
   vertex 1976.933324 -23.293714 -160.000000
   vertex 1973.149158 -34.441509 -160.000000
   vertex 1973.149158 -34.441509 -580.000000
  endloop
 endfacet
 facet normal 0.946930 -0.321439 0.000000
  outer loop
   vertex 1976.933324 -23.293714 -160.000000
   vertex 1973.149158 -34.441509 -580.000000
   vertex 1976.933324 -23.293714 -580.000000
  endloop
 endfacet
 facet normal 0.896873 -0.442289 0.000000
  outer loop
   vertex 1973.149158 -34.441509 -160.000000
   vertex 1967.942286 -45.000000 -160.000000
   vertex 1967.942286 -45.000000 -580.000000
  endloop
 endfacet
 facet normal 0.896873 -0.442289 0.000000
  outer loop
   vertex 1973.149158 -34.441509 -160.000000
   vertex 1967.942286 -45.000000 -580.000000
   vertex 1973.149158 -34.441509 -580.000000
  endloop
 endfacet
 facet normal 0.831470 -0.555570 0.000000
  outer loop
   vertex 1967.942286 -45.000000 -160.000000
   vertex 1961.401801 -54.788529 -160.000000
   vertex 1961.401801 -54.788529 -580.000000
  endloop
 endfacet
 facet normal 0.831470 -0.555570 0.000000
  outer loop
   vertex 1967.942286 -45.000000 -160.000000
   vertex 1961.401801 -54.788529 -580.000000
   vertex 1967.942286 -45.000000 -580.000000
  endloop
 endfacet
 facet normal 0.751840 -0.659346 0.000000
  outer loop
   vertex 1961.401801 -54.788529 -160.000000
   vertex 1953.639610 -63.639610 -160.000000
   vertex 1953.639610 -63.639610 -580.000000
  endloop
 endfacet
 facet normal 0.751840 -0.659346 0.000000
  outer loop
   vertex 1961.401801 -54.788529 -160.000000
   vertex 1953.639610 -63.639610 -580.000000
   vertex 1961.401801 -54.788529 -580.000000
  endloop
 endfacet
 facet normal 0.659346 -0.751840 0.000000
  outer loop
   vertex 1953.639610 -63.639610 -160.000000
   vertex 1944.788529 -71.401801 -160.000000
   vertex 1944.788529 -71.401801 -580.000000
  endloop
 endfacet
 facet normal 0.659346 -0.751840 0.000000
  outer loop
   vertex 1953.639610 -63.639610 -160.000000
   vertex 1944.788529 -71.401801 -580.000000
   vertex 1953.639610 -63.639610 -580.000000
  endloop
 endfacet
 facet normal 0.555570 -0.831470 0.000000
  outer loop
   vertex 1944.788529 -71.401801 -160.000000
   vertex 1935.000000 -77.942286 -160.000000
   vertex 1935.000000 -77.942286 -580.000000
  endloop
 endfacet
 facet normal 0.555570 -0.831470 0.000000
  outer loop
   vertex 1944.788529 -71.401801 -160.000000
   vertex 1935.000000 -77.942286 -580.000000
   vertex 1944.788529 -71.401801 -580.000000
  endloop
 endfacet
 facet normal 0.442289 -0.896873 0.000000
  outer loop
   vertex 1935.000000 -77.942286 -160.000000
   vertex 1924.441509 -83.149158 -160.000000
   vertex 1924.441509 -83.149158 -580.000000
  endloop
 endfacet
 facet normal 0.442289 -0.896873 0.000000
  outer loop
   vertex 1935.000000 -77.942286 -160.000000
   vertex 1924.441509 -83.149158 -580.000000
   vertex 1935.000000 -77.942286 -580.000000
  endloop
 endfacet
 facet normal 0.321439 -0.946930 0.000000
  outer loop
   vertex 1924.441509 -83.149158 -160.000000
   vertex 1913.293714 -86.933324 -160.000000
   vertex 1913.293714 -86.933324 -580.000000
  endloop
 endfacet
 facet normal 0.321439 -0.946930 0.000000
  outer loop
   vertex 1924.441509 -83.149158 -160.000000
   vertex 1913.293714 -86.933324 -580.000000
   vertex 1924.441509 -83.149158 -580.000000
  endloop
 endfacet
 facet normal 0.195090 -0.980785 0.000000
  outer loop
   vertex 1913.293714 -86.933324 -160.000000
   vertex 1901.747357 -89.230038 -160.000000
   vertex 1901.747357 -89.230038 -580.000000
  endloop
 endfacet
 facet normal 0.195090 -0.980785 0.000000
  outer loop
   vertex 1913.293714 -86.933324 -160.000000
   vertex 1901.747357 -89.230038 -580.000000
   vertex 1913.293714 -86.933324 -580.000000
  endloop
 endfacet
 facet normal 0.065403 -0.997859 0.000000
  outer loop
   vertex 1901.747357 -89.230038 -160.000000
   vertex 1890.000000 -90.000000 -160.000000
   vertex 1890.000000 -90.000000 -580.000000
  endloop
 endfacet
 facet normal 0.065403 -0.997859 0.000000
  outer loop
   vertex 1901.747357 -89.230038 -160.000000
   vertex 1890.000000 -90.000000 -580.000000
   vertex 1901.747357 -89.230038 -580.000000
  endloop
 endfacet
 facet normal -0.065403 -0.997859 0.000000
  outer loop
   vertex 1890.000000 -90.000000 -160.000000
   vertex 1878.252643 -89.230038 -160.000000
   vertex 1878.252643 -89.230038 -580.000000
  endloop
 endfacet
 facet normal -0.065403 -0.997859 -0.000000
  outer loop
   vertex 1890.000000 -90.000000 -160.000000
   vertex 1878.252643 -89.230038 -580.000000
   vertex 1890.000000 -90.000000 -580.000000
  endloop
 endfacet
 facet normal -0.195090 -0.980785 0.000000
  outer loop
   vertex 1878.252643 -89.230038 -160.000000
   vertex 1866.706286 -86.933324 -160.000000
   vertex 1866.706286 -86.933324 -580.000000
  endloop
 endfacet
 facet normal -0.195090 -0.980785 -0.000000
  outer loop
   vertex 1878.252643 -89.230038 -160.000000
   vertex 1866.706286 -86.933324 -580.000000
   vertex 1878.252643 -89.230038 -580.000000
  endloop
 endfacet
 facet normal -0.321439 -0.946930 0.000000
  outer loop
   vertex 1866.706286 -86.933324 -160.000000
   vertex 1855.558491 -83.149158 -160.000000
   vertex 1855.558491 -83.149158 -580.000000
  endloop
 endfacet
 facet normal -0.321439 -0.946930 -0.000000
  outer loop
   vertex 1866.706286 -86.933324 -160.000000
   vertex 1855.558491 -83.149158 -580.000000
   vertex 1866.706286 -86.933324 -580.000000
  endloop
 endfacet
 facet normal -0.442289 -0.896873 0.000000
  outer loop
   vertex 1855.558491 -83.149158 -160.000000
   vertex 1845.000000 -77.942286 -160.000000
   vertex 1845.000000 -77.942286 -580.000000
  endloop
 endfacet
 facet normal -0.442289 -0.896873 -0.000000
  outer loop
   vertex 1855.558491 -83.149158 -160.000000
   vertex 1845.000000 -77.942286 -580.000000
   vertex 1855.558491 -83.149158 -580.000000
  endloop
 endfacet
 facet normal -0.555570 -0.831470 0.000000
  outer loop
   vertex 1845.000000 -77.942286 -160.000000
   vertex 1835.211471 -71.401801 -160.000000
   vertex 1835.211471 -71.401801 -580.000000
  endloop
 endfacet
 facet normal -0.555570 -0.831470 -0.000000
  outer loop
   vertex 1845.000000 -77.942286 -160.000000
   vertex 1835.211471 -71.401801 -580.000000
   vertex 1845.000000 -77.942286 -580.000000
  endloop
 endfacet
 facet normal -0.659346 -0.751840 0.000000
  outer loop
   vertex 1835.211471 -71.401801 -160.000000
   vertex 1826.360390 -63.639610 -160.000000
   vertex 1826.360390 -63.639610 -580.000000
  endloop
 endfacet
 facet normal -0.659346 -0.751840 -0.000000
  outer loop
   vertex 1835.211471 -71.401801 -160.000000
   vertex 1826.360390 -63.639610 -580.000000
   vertex 1835.211471 -71.401801 -580.000000
  endloop
 endfacet
 facet normal -0.751840 -0.659346 0.000000
  outer loop
   vertex 1826.360390 -63.639610 -160.000000
   vertex 1818.598199 -54.788529 -160.000000
   vertex 1818.598199 -54.788529 -580.000000
  endloop
 endfacet
 facet normal -0.751840 -0.659346 -0.000000
  outer loop
   vertex 1826.360390 -63.639610 -160.000000
   vertex 1818.598199 -54.788529 -580.000000
   vertex 1826.360390 -63.639610 -580.000000
  endloop
 endfacet
 facet normal -0.831470 -0.555570 0.000000
  outer loop
   vertex 1818.598199 -54.788529 -160.000000
   vertex 1812.057714 -45.000000 -160.000000
   vertex 1812.057714 -45.000000 -580.000000
  endloop
 endfacet
 facet normal -0.831470 -0.555570 -0.000000
  outer loop
   vertex 1818.598199 -54.788529 -160.000000
   vertex 1812.057714 -45.000000 -580.000000
   vertex 1818.598199 -54.788529 -580.000000
  endloop
 endfacet
 facet normal -0.896873 -0.442289 0.000000
  outer loop
   vertex 1812.057714 -45.000000 -160.000000
   vertex 1806.850842 -34.441509 -160.000000
   vertex 1806.850842 -34.441509 -580.000000
  endloop
 endfacet
 facet normal -0.896873 -0.442289 -0.000000
  outer loop
   vertex 1812.057714 -45.000000 -160.000000
   vertex 1806.850842 -34.441509 -580.000000
   vertex 1812.057714 -45.000000 -580.000000
  endloop
 endfacet
 facet normal -0.946930 -0.321439 0.000000
  outer loop
   vertex 1806.850842 -34.441509 -160.000000
   vertex 1803.066676 -23.293714 -160.000000
   vertex 1803.066676 -23.293714 -580.000000
  endloop
 endfacet
 facet normal -0.946930 -0.321439 -0.000000
  outer loop
   vertex 1806.850842 -34.441509 -160.000000
   vertex 1803.066676 -23.293714 -580.000000
   vertex 1806.850842 -34.441509 -580.000000
  endloop
 endfacet
 facet normal -0.980785 -0.195090 0.000000
  outer loop
   vertex 1803.066676 -23.293714 -160.000000
   vertex 1800.769962 -11.747357 -160.000000
   vertex 1800.769962 -11.747357 -580.000000
  endloop
 endfacet
 facet normal -0.980785 -0.195090 -0.000000
  outer loop
   vertex 1803.066676 -23.293714 -160.000000
   vertex 1800.769962 -11.747357 -580.000000
   vertex 1803.066676 -23.293714 -580.000000
  endloop
 endfacet
 facet normal -0.997859 -0.065403 0.000000
  outer loop
   vertex 1800.769962 -11.747357 -160.000000
   vertex 1800.000000 -0.000000 -160.000000
   vertex 1800.000000 -0.000000 -580.000000
  endloop
 endfacet
 facet normal -0.997859 -0.065403 -0.000000
  outer loop
   vertex 1800.769962 -11.747357 -160.000000
   vertex 1800.000000 -0.000000 -580.000000
   vertex 1800.769962 -11.747357 -580.000000
  endloop
 endfacet
 facet normal -0.997859 0.065403 0.000000
  outer loop
   vertex 1800.000000 -0.000000 -160.000000
   vertex 1800.769962 11.747357 -160.000000
   vertex 1800.769962 11.747357 -580.000000
  endloop
 endfacet
 facet normal -0.997859 0.065403 0.000000
  outer loop
   vertex 1800.000000 -0.000000 -160.000000
   vertex 1800.769962 11.747357 -580.000000
   vertex 1800.000000 -0.000000 -580.000000
  endloop
 endfacet
 facet normal -0.980785 0.195090 0.000000
  outer loop
   vertex 1800.769962 11.747357 -160.000000
   vertex 1803.066676 23.293714 -160.000000
   vertex 1803.066676 23.293714 -580.000000
  endloop
 endfacet
 facet normal -0.980785 0.195090 0.000000
  outer loop
   vertex 1800.769962 11.747357 -160.000000
   vertex 1803.066676 23.293714 -580.000000
   vertex 1800.769962 11.747357 -580.000000
  endloop
 endfacet
 facet normal -0.946930 0.321439 0.000000
  outer loop
   vertex 1803.066676 23.293714 -160.000000
   vertex 1806.850842 34.441509 -160.000000
   vertex 1806.850842 34.441509 -580.000000
  endloop
 endfacet
 facet normal -0.946930 0.321439 0.000000
  outer loop
   vertex 1803.066676 23.293714 -160.000000
   vertex 1806.850842 34.441509 -580.000000
   vertex 1803.066676 23.293714 -580.000000
  endloop
 endfacet
 facet normal -0.896873 0.442289 0.000000
  outer loop
   vertex 1806.850842 34.441509 -160.000000
   vertex 1812.057714 45.000000 -160.000000
   vertex 1812.057714 45.000000 -580.000000
  endloop
 endfacet
 facet normal -0.896873 0.442289 0.000000
  outer loop
   vertex 1806.850842 34.441509 -160.000000
   vertex 1812.057714 45.000000 -580.000000
   vertex 1806.850842 34.441509 -580.000000
  endloop
 endfacet
 facet normal -0.831470 0.555570 0.000000
  outer loop
   vertex 1812.057714 45.000000 -160.000000
   vertex 1818.598199 54.788529 -160.000000
   vertex 1818.598199 54.788529 -580.000000
  endloop
 endfacet
 facet normal -0.831470 0.555570 0.000000
  outer loop
   vertex 1812.057714 45.000000 -160.000000
   vertex 1818.598199 54.788529 -580.000000
   vertex 1812.057714 45.000000 -580.000000
  endloop
 endfacet
 facet normal -0.751840 0.659346 0.000000
  outer loop
   vertex 1818.598199 54.788529 -160.000000
   vertex 1826.360390 63.639610 -160.000000
   vertex 1826.360390 63.639610 -580.000000
  endloop
 endfacet
 facet normal -0.751840 0.659346 0.000000
  outer loop
   vertex 1818.598199 54.788529 -160.000000
   vertex 1826.360390 63.639610 -580.000000
   vertex 1818.598199 54.788529 -580.000000
  endloop
 endfacet
 facet normal -0.659346 0.751840 0.000000
  outer loop
   vertex 1826.360390 63.639610 -160.000000
   vertex 1835.211471 71.401801 -160.000000
   vertex 1835.211471 71.401801 -580.000000
  endloop
 endfacet
 facet normal -0.659346 0.751840 0.000000
  outer loop
   vertex 1826.360390 63.639610 -160.000000
   vertex 1835.211471 71.401801 -580.000000
   vertex 1826.360390 63.639610 -580.000000
  endloop
 endfacet
 facet normal -0.555570 0.831470 0.000000
  outer loop
   vertex 1835.211471 71.401801 -160.000000
   vertex 1845.000000 77.942286 -160.000000
   vertex 1845.000000 77.942286 -580.000000
  endloop
 endfacet
 facet normal -0.555570 0.831470 0.000000
  outer loop
   vertex 1835.211471 71.401801 -160.000000
   vertex 1845.000000 77.942286 -580.000000
   vertex 1835.211471 71.401801 -580.000000
  endloop
 endfacet
 facet normal -0.442289 0.896873 0.000000
  outer loop
   vertex 1845.000000 77.942286 -160.000000
   vertex 1855.558491 83.149158 -160.000000
   vertex 1855.558491 83.149158 -580.000000
  endloop
 endfacet
 facet normal -0.442289 0.896873 0.000000
  outer loop
   vertex 1845.000000 77.942286 -160.000000
   vertex 1855.558491 83.149158 -580.000000
   vertex 1845.000000 77.942286 -580.000000
  endloop
 endfacet
 facet normal -0.321439 0.946930 0.000000
  outer loop
   vertex 1855.558491 83.149158 -160.000000
   vertex 1866.706286 86.933324 -160.000000
   vertex 1866.706286 86.933324 -580.000000
  endloop
 endfacet
 facet normal -0.321439 0.946930 0.000000
  outer loop
   vertex 1855.558491 83.149158 -160.000000
   vertex 1866.706286 86.933324 -580.000000
   vertex 1855.558491 83.149158 -580.000000
  endloop
 endfacet
 facet normal -0.195090 0.980785 0.000000
  outer loop
   vertex 1866.706286 86.933324 -160.000000
   vertex 1878.252643 89.230038 -160.000000
   vertex 1878.252643 89.230038 -580.000000
  endloop
 endfacet
 facet normal -0.195090 0.980785 0.000000
  outer loop
   vertex 1866.706286 86.933324 -160.000000
   vertex 1878.252643 89.230038 -580.000000
   vertex 1866.706286 86.933324 -580.000000
  endloop
 endfacet
 facet normal -0.065403 0.997859 0.000000
  outer loop
   vertex 1878.252643 89.230038 -160.000000
   vertex 1890.000000 90.000000 -160.000000
   vertex 1890.000000 90.000000 -580.000000
  endloop
 endfacet
 facet normal -0.065403 0.997859 0.000000
  outer loop
   vertex 1878.252643 89.230038 -160.000000
   vertex 1890.000000 90.000000 -580.000000
   vertex 1878.252643 89.230038 -580.000000
  endloop
 endfacet
 facet normal -0.065403 -0.997859 0.000000
  outer loop
   vertex 1900.442095 79.315589 -580.000000
   vertex 1900.442095 79.315589 -160.000000
   vertex 1890.000000 80.000000 -160.000000
  endloop
 endfacet
 facet normal -0.065403 -0.997859 0.000000
  outer loop
   vertex 1890.000000 80.000000 -580.000000
   vertex 1900.442095 79.315589 -580.000000
   vertex 1890.000000 80.000000 -160.000000
  endloop
 endfacet
 facet normal -0.195090 -0.980785 0.000000
  outer loop
   vertex 1910.705524 77.274066 -580.000000
   vertex 1910.705524 77.274066 -160.000000
   vertex 1900.442095 79.315589 -160.000000
  endloop
 endfacet
 facet normal -0.195090 -0.980785 0.000000
  outer loop
   vertex 1900.442095 79.315589 -580.000000
   vertex 1910.705524 77.274066 -580.000000
   vertex 1900.442095 79.315589 -160.000000
  endloop
 endfacet
 facet normal -0.321439 -0.946930 0.000000
  outer loop
   vertex 1920.614675 73.910363 -580.000000
   vertex 1920.614675 73.910363 -160.000000
   vertex 1910.705524 77.274066 -160.000000
  endloop
 endfacet
 facet normal -0.321439 -0.946930 0.000000
  outer loop
   vertex 1910.705524 77.274066 -580.000000
   vertex 1920.614675 73.910363 -580.000000
   vertex 1910.705524 77.274066 -160.000000
  endloop
 endfacet
 facet normal -0.442289 -0.896873 0.000000
  outer loop
   vertex 1930.000000 69.282032 -580.000000
   vertex 1930.000000 69.282032 -160.000000
   vertex 1920.614675 73.910363 -160.000000
  endloop
 endfacet
 facet normal -0.442289 -0.896873 0.000000
  outer loop
   vertex 1920.614675 73.910363 -580.000000
   vertex 1930.000000 69.282032 -580.000000
   vertex 1920.614675 73.910363 -160.000000
  endloop
 endfacet
 facet normal -0.555570 -0.831470 0.000000
  outer loop
   vertex 1938.700914 63.468267 -580.000000
   vertex 1938.700914 63.468267 -160.000000
   vertex 1930.000000 69.282032 -160.000000
  endloop
 endfacet
 facet normal -0.555570 -0.831470 0.000000
  outer loop
   vertex 1930.000000 69.282032 -580.000000
   vertex 1938.700914 63.468267 -580.000000
   vertex 1930.000000 69.282032 -160.000000
  endloop
 endfacet
 facet normal -0.659346 -0.751840 0.000000
  outer loop
   vertex 1946.568542 56.568542 -580.000000
   vertex 1946.568542 56.568542 -160.000000
   vertex 1938.700914 63.468267 -160.000000
  endloop
 endfacet
 facet normal -0.659346 -0.751840 0.000000
  outer loop
   vertex 1938.700914 63.468267 -580.000000
   vertex 1946.568542 56.568542 -580.000000
   vertex 1938.700914 63.468267 -160.000000
  endloop
 endfacet
 facet normal -0.751840 -0.659346 0.000000
  outer loop
   vertex 1953.468267 48.700914 -580.000000
   vertex 1953.468267 48.700914 -160.000000
   vertex 1946.568542 56.568542 -160.000000
  endloop
 endfacet
 facet normal -0.751840 -0.659346 0.000000
  outer loop
   vertex 1946.568542 56.568542 -580.000000
   vertex 1953.468267 48.700914 -580.000000
   vertex 1946.568542 56.568542 -160.000000
  endloop
 endfacet
 facet normal -0.831470 -0.555570 0.000000
  outer loop
   vertex 1959.282032 40.000000 -580.000000
   vertex 1959.282032 40.000000 -160.000000
   vertex 1953.468267 48.700914 -160.000000
  endloop
 endfacet
 facet normal -0.831470 -0.555570 0.000000
  outer loop
   vertex 1953.468267 48.700914 -580.000000
   vertex 1959.282032 40.000000 -580.000000
   vertex 1953.468267 48.700914 -160.000000
  endloop
 endfacet
 facet normal -0.896873 -0.442289 0.000000
  outer loop
   vertex 1963.910363 30.614675 -580.000000
   vertex 1963.910363 30.614675 -160.000000
   vertex 1959.282032 40.000000 -160.000000
  endloop
 endfacet
 facet normal -0.896873 -0.442289 0.000000
  outer loop
   vertex 1959.282032 40.000000 -580.000000
   vertex 1963.910363 30.614675 -580.000000
   vertex 1959.282032 40.000000 -160.000000
  endloop
 endfacet
 facet normal -0.946930 -0.321439 0.000000
  outer loop
   vertex 1967.274066 20.705524 -580.000000
   vertex 1967.274066 20.705524 -160.000000
   vertex 1963.910363 30.614675 -160.000000
  endloop
 endfacet
 facet normal -0.946930 -0.321439 0.000000
  outer loop
   vertex 1963.910363 30.614675 -580.000000
   vertex 1967.274066 20.705524 -580.000000
   vertex 1963.910363 30.614675 -160.000000
  endloop
 endfacet
 facet normal -0.980785 -0.195090 0.000000
  outer loop
   vertex 1969.315589 10.442095 -580.000000
   vertex 1969.315589 10.442095 -160.000000
   vertex 1967.274066 20.705524 -160.000000
  endloop
 endfacet
 facet normal -0.980785 -0.195090 0.000000
  outer loop
   vertex 1967.274066 20.705524 -580.000000
   vertex 1969.315589 10.442095 -580.000000
   vertex 1967.274066 20.705524 -160.000000
  endloop
 endfacet
 facet normal -0.997859 -0.065403 0.000000
  outer loop
   vertex 1970.000000 0.000000 -580.000000
   vertex 1970.000000 0.000000 -160.000000
   vertex 1969.315589 10.442095 -160.000000
  endloop
 endfacet
 facet normal -0.997859 -0.065403 0.000000
  outer loop
   vertex 1969.315589 10.442095 -580.000000
   vertex 1970.000000 0.000000 -580.000000
   vertex 1969.315589 10.442095 -160.000000
  endloop
 endfacet
 facet normal -0.997859 0.065403 0.000000
  outer loop
   vertex 1969.315589 -10.442095 -580.000000
   vertex 1969.315589 -10.442095 -160.000000
   vertex 1970.000000 0.000000 -160.000000
  endloop
 endfacet
 facet normal -0.997859 0.065403 0.000000
  outer loop
   vertex 1970.000000 0.000000 -580.000000
   vertex 1969.315589 -10.442095 -580.000000
   vertex 1970.000000 0.000000 -160.000000
  endloop
 endfacet
 facet normal -0.980785 0.195090 0.000000
  outer loop
   vertex 1967.274066 -20.705524 -580.000000
   vertex 1967.274066 -20.705524 -160.000000
   vertex 1969.315589 -10.442095 -160.000000
  endloop
 endfacet
 facet normal -0.980785 0.195090 0.000000
  outer loop
   vertex 1969.315589 -10.442095 -580.000000
   vertex 1967.274066 -20.705524 -580.000000
   vertex 1969.315589 -10.442095 -160.000000
  endloop
 endfacet
 facet normal -0.946930 0.321439 0.000000
  outer loop
   vertex 1963.910363 -30.614675 -580.000000
   vertex 1963.910363 -30.614675 -160.000000
   vertex 1967.274066 -20.705524 -160.000000
  endloop
 endfacet
 facet normal -0.946930 0.321439 0.000000
  outer loop
   vertex 1967.274066 -20.705524 -580.000000
   vertex 1963.910363 -30.614675 -580.000000
   vertex 1967.274066 -20.705524 -160.000000
  endloop
 endfacet
 facet normal -0.896873 0.442289 0.000000
  outer loop
   vertex 1959.282032 -40.000000 -580.000000
   vertex 1959.282032 -40.000000 -160.000000
   vertex 1963.910363 -30.614675 -160.000000
  endloop
 endfacet
 facet normal -0.896873 0.442289 0.000000
  outer loop
   vertex 1963.910363 -30.614675 -580.000000
   vertex 1959.282032 -40.000000 -580.000000
   vertex 1963.910363 -30.614675 -160.000000
  endloop
 endfacet
 facet normal -0.831470 0.555570 0.000000
  outer loop
   vertex 1953.468267 -48.700914 -580.000000
   vertex 1953.468267 -48.700914 -160.000000
   vertex 1959.282032 -40.000000 -160.000000
  endloop
 endfacet
 facet normal -0.831470 0.555570 0.000000
  outer loop
   vertex 1959.282032 -40.000000 -580.000000
   vertex 1953.468267 -48.700914 -580.000000
   vertex 1959.282032 -40.000000 -160.000000
  endloop
 endfacet
 facet normal -0.751840 0.659346 0.000000
  outer loop
   vertex 1946.568542 -56.568542 -580.000000
   vertex 1946.568542 -56.568542 -160.000000
   vertex 1953.468267 -48.700914 -160.000000
  endloop
 endfacet
 facet normal -0.751840 0.659346 0.000000
  outer loop
   vertex 1953.468267 -48.700914 -580.000000
   vertex 1946.568542 -56.568542 -580.000000
   vertex 1953.468267 -48.700914 -160.000000
  endloop
 endfacet
 facet normal -0.659346 0.751840 0.000000
  outer loop
   vertex 1938.700914 -63.468267 -580.000000
   vertex 1938.700914 -63.468267 -160.000000
   vertex 1946.568542 -56.568542 -160.000000
  endloop
 endfacet
 facet normal -0.659346 0.751840 0.000000
  outer loop
   vertex 1946.568542 -56.568542 -580.000000
   vertex 1938.700914 -63.468267 -580.000000
   vertex 1946.568542 -56.568542 -160.000000
  endloop
 endfacet
 facet normal -0.555570 0.831470 0.000000
  outer loop
   vertex 1930.000000 -69.282032 -580.000000
   vertex 1930.000000 -69.282032 -160.000000
   vertex 1938.700914 -63.468267 -160.000000
  endloop
 endfacet
 facet normal -0.555570 0.831470 0.000000
  outer loop
   vertex 1938.700914 -63.468267 -580.000000
   vertex 1930.000000 -69.282032 -580.000000
   vertex 1938.700914 -63.468267 -160.000000
  endloop
 endfacet
 facet normal -0.442289 0.896873 0.000000
  outer loop
   vertex 1920.614675 -73.910363 -580.000000
   vertex 1920.614675 -73.910363 -160.000000
   vertex 1930.000000 -69.282032 -160.000000
  endloop
 endfacet
 facet normal -0.442289 0.896873 0.000000
  outer loop
   vertex 1930.000000 -69.282032 -580.000000
   vertex 1920.614675 -73.910363 -580.000000
   vertex 1930.000000 -69.282032 -160.000000
  endloop
 endfacet
 facet normal -0.321439 0.946930 0.000000
  outer loop
   vertex 1910.705524 -77.274066 -580.000000
   vertex 1910.705524 -77.274066 -160.000000
   vertex 1920.614675 -73.910363 -160.000000
  endloop
 endfacet
 facet normal -0.321439 0.946930 0.000000
  outer loop
   vertex 1920.614675 -73.910363 -580.000000
   vertex 1910.705524 -77.274066 -580.000000
   vertex 1920.614675 -73.910363 -160.000000
  endloop
 endfacet
 facet normal -0.195090 0.980785 0.000000
  outer loop
   vertex 1900.442095 -79.315589 -580.000000
   vertex 1900.442095 -79.315589 -160.000000
   vertex 1910.705524 -77.274066 -160.000000
  endloop
 endfacet
 facet normal -0.195090 0.980785 0.000000
  outer loop
   vertex 1910.705524 -77.274066 -580.000000
   vertex 1900.442095 -79.315589 -580.000000
   vertex 1910.705524 -77.274066 -160.000000
  endloop
 endfacet
 facet normal -0.065403 0.997859 0.000000
  outer loop
   vertex 1890.000000 -80.000000 -580.000000
   vertex 1890.000000 -80.000000 -160.000000
   vertex 1900.442095 -79.315589 -160.000000
  endloop
 endfacet
 facet normal -0.065403 0.997859 0.000000
  outer loop
   vertex 1900.442095 -79.315589 -580.000000
   vertex 1890.000000 -80.000000 -580.000000
   vertex 1900.442095 -79.315589 -160.000000
  endloop
 endfacet
 facet normal 0.065403 0.997859 -0.000000
  outer loop
   vertex 1879.557905 -79.315589 -580.000000
   vertex 1879.557905 -79.315589 -160.000000
   vertex 1890.000000 -80.000000 -160.000000
  endloop
 endfacet
 facet normal 0.065403 0.997859 -0.000000
  outer loop
   vertex 1890.000000 -80.000000 -580.000000
   vertex 1879.557905 -79.315589 -580.000000
   vertex 1890.000000 -80.000000 -160.000000
  endloop
 endfacet
 facet normal 0.195090 0.980785 -0.000000
  outer loop
   vertex 1869.294476 -77.274066 -580.000000
   vertex 1869.294476 -77.274066 -160.000000
   vertex 1879.557905 -79.315589 -160.000000
  endloop
 endfacet
 facet normal 0.195090 0.980785 -0.000000
  outer loop
   vertex 1879.557905 -79.315589 -580.000000
   vertex 1869.294476 -77.274066 -580.000000
   vertex 1879.557905 -79.315589 -160.000000
  endloop
 endfacet
 facet normal 0.321439 0.946930 -0.000000
  outer loop
   vertex 1859.385325 -73.910363 -580.000000
   vertex 1859.385325 -73.910363 -160.000000
   vertex 1869.294476 -77.274066 -160.000000
  endloop
 endfacet
 facet normal 0.321439 0.946930 -0.000000
  outer loop
   vertex 1869.294476 -77.274066 -580.000000
   vertex 1859.385325 -73.910363 -580.000000
   vertex 1869.294476 -77.274066 -160.000000
  endloop
 endfacet
 facet normal 0.442289 0.896873 -0.000000
  outer loop
   vertex 1850.000000 -69.282032 -580.000000
   vertex 1850.000000 -69.282032 -160.000000
   vertex 1859.385325 -73.910363 -160.000000
  endloop
 endfacet
 facet normal 0.442289 0.896873 -0.000000
  outer loop
   vertex 1859.385325 -73.910363 -580.000000
   vertex 1850.000000 -69.282032 -580.000000
   vertex 1859.385325 -73.910363 -160.000000
  endloop
 endfacet
 facet normal 0.555570 0.831470 -0.000000
  outer loop
   vertex 1841.299086 -63.468267 -580.000000
   vertex 1841.299086 -63.468267 -160.000000
   vertex 1850.000000 -69.282032 -160.000000
  endloop
 endfacet
 facet normal 0.555570 0.831470 -0.000000
  outer loop
   vertex 1850.000000 -69.282032 -580.000000
   vertex 1841.299086 -63.468267 -580.000000
   vertex 1850.000000 -69.282032 -160.000000
  endloop
 endfacet
 facet normal 0.659346 0.751840 -0.000000
  outer loop
   vertex 1833.431458 -56.568542 -580.000000
   vertex 1833.431458 -56.568542 -160.000000
   vertex 1841.299086 -63.468267 -160.000000
  endloop
 endfacet
 facet normal 0.659346 0.751840 -0.000000
  outer loop
   vertex 1841.299086 -63.468267 -580.000000
   vertex 1833.431458 -56.568542 -580.000000
   vertex 1841.299086 -63.468267 -160.000000
  endloop
 endfacet
 facet normal 0.751840 0.659346 -0.000000
  outer loop
   vertex 1826.531733 -48.700914 -580.000000
   vertex 1826.531733 -48.700914 -160.000000
   vertex 1833.431458 -56.568542 -160.000000
  endloop
 endfacet
 facet normal 0.751840 0.659346 -0.000000
  outer loop
   vertex 1833.431458 -56.568542 -580.000000
   vertex 1826.531733 -48.700914 -580.000000
   vertex 1833.431458 -56.568542 -160.000000
  endloop
 endfacet
 facet normal 0.831470 0.555570 -0.000000
  outer loop
   vertex 1820.717968 -40.000000 -580.000000
   vertex 1820.717968 -40.000000 -160.000000
   vertex 1826.531733 -48.700914 -160.000000
  endloop
 endfacet
 facet normal 0.831470 0.555570 -0.000000
  outer loop
   vertex 1826.531733 -48.700914 -580.000000
   vertex 1820.717968 -40.000000 -580.000000
   vertex 1826.531733 -48.700914 -160.000000
  endloop
 endfacet
 facet normal 0.896873 0.442289 -0.000000
  outer loop
   vertex 1816.089637 -30.614675 -580.000000
   vertex 1816.089637 -30.614675 -160.000000
   vertex 1820.717968 -40.000000 -160.000000
  endloop
 endfacet
 facet normal 0.896873 0.442289 -0.000000
  outer loop
   vertex 1820.717968 -40.000000 -580.000000
   vertex 1816.089637 -30.614675 -580.000000
   vertex 1820.717968 -40.000000 -160.000000
  endloop
 endfacet
 facet normal 0.946930 0.321439 -0.000000
  outer loop
   vertex 1812.725934 -20.705524 -580.000000
   vertex 1812.725934 -20.705524 -160.000000
   vertex 1816.089637 -30.614675 -160.000000
  endloop
 endfacet
 facet normal 0.946930 0.321439 -0.000000
  outer loop
   vertex 1816.089637 -30.614675 -580.000000
   vertex 1812.725934 -20.705524 -580.000000
   vertex 1816.089637 -30.614675 -160.000000
  endloop
 endfacet
 facet normal 0.980785 0.195090 -0.000000
  outer loop
   vertex 1810.684411 -10.442095 -580.000000
   vertex 1810.684411 -10.442095 -160.000000
   vertex 1812.725934 -20.705524 -160.000000
  endloop
 endfacet
 facet normal 0.980785 0.195090 -0.000000
  outer loop
   vertex 1812.725934 -20.705524 -580.000000
   vertex 1810.684411 -10.442095 -580.000000
   vertex 1812.725934 -20.705524 -160.000000
  endloop
 endfacet
 facet normal 0.997859 0.065403 -0.000000
  outer loop
   vertex 1810.000000 -0.000000 -580.000000
   vertex 1810.000000 -0.000000 -160.000000
   vertex 1810.684411 -10.442095 -160.000000
  endloop
 endfacet
 facet normal 0.997859 0.065403 -0.000000
  outer loop
   vertex 1810.684411 -10.442095 -580.000000
   vertex 1810.000000 -0.000000 -580.000000
   vertex 1810.684411 -10.442095 -160.000000
  endloop
 endfacet
 facet normal 0.997859 -0.065403 0.000000
  outer loop
   vertex 1810.684411 10.442095 -580.000000
   vertex 1810.684411 10.442095 -160.000000
   vertex 1810.000000 -0.000000 -160.000000
  endloop
 endfacet
 facet normal 0.997859 -0.065403 0.000000
  outer loop
   vertex 1810.000000 -0.000000 -580.000000
   vertex 1810.684411 10.442095 -580.000000
   vertex 1810.000000 -0.000000 -160.000000
  endloop
 endfacet
 facet normal 0.980785 -0.195090 0.000000
  outer loop
   vertex 1812.725934 20.705524 -580.000000
   vertex 1812.725934 20.705524 -160.000000
   vertex 1810.684411 10.442095 -160.000000
  endloop
 endfacet
 facet normal 0.980785 -0.195090 0.000000
  outer loop
   vertex 1810.684411 10.442095 -580.000000
   vertex 1812.725934 20.705524 -580.000000
   vertex 1810.684411 10.442095 -160.000000
  endloop
 endfacet
 facet normal 0.946930 -0.321439 0.000000
  outer loop
   vertex 1816.089637 30.614675 -580.000000
   vertex 1816.089637 30.614675 -160.000000
   vertex 1812.725934 20.705524 -160.000000
  endloop
 endfacet
 facet normal 0.946930 -0.321439 0.000000
  outer loop
   vertex 1812.725934 20.705524 -580.000000
   vertex 1816.089637 30.614675 -580.000000
   vertex 1812.725934 20.705524 -160.000000
  endloop
 endfacet
 facet normal 0.896873 -0.442289 0.000000
  outer loop
   vertex 1820.717968 40.000000 -580.000000
   vertex 1820.717968 40.000000 -160.000000
   vertex 1816.089637 30.614675 -160.000000
  endloop
 endfacet
 facet normal 0.896873 -0.442289 0.000000
  outer loop
   vertex 1816.089637 30.614675 -580.000000
   vertex 1820.717968 40.000000 -580.000000
   vertex 1816.089637 30.614675 -160.000000
  endloop
 endfacet
 facet normal 0.831470 -0.555570 0.000000
  outer loop
   vertex 1826.531733 48.700914 -580.000000
   vertex 1826.531733 48.700914 -160.000000
   vertex 1820.717968 40.000000 -160.000000
  endloop
 endfacet
 facet normal 0.831470 -0.555570 0.000000
  outer loop
   vertex 1820.717968 40.000000 -580.000000
   vertex 1826.531733 48.700914 -580.000000
   vertex 1820.717968 40.000000 -160.000000
  endloop
 endfacet
 facet normal 0.751840 -0.659346 0.000000
  outer loop
   vertex 1833.431458 56.568542 -580.000000
   vertex 1833.431458 56.568542 -160.000000
   vertex 1826.531733 48.700914 -160.000000
  endloop
 endfacet
 facet normal 0.751840 -0.659346 0.000000
  outer loop
   vertex 1826.531733 48.700914 -580.000000
   vertex 1833.431458 56.568542 -580.000000
   vertex 1826.531733 48.700914 -160.000000
  endloop
 endfacet
 facet normal 0.659346 -0.751840 0.000000
  outer loop
   vertex 1841.299086 63.468267 -580.000000
   vertex 1841.299086 63.468267 -160.000000
   vertex 1833.431458 56.568542 -160.000000
  endloop
 endfacet
 facet normal 0.659346 -0.751840 0.000000
  outer loop
   vertex 1833.431458 56.568542 -580.000000
   vertex 1841.299086 63.468267 -580.000000
   vertex 1833.431458 56.568542 -160.000000
  endloop
 endfacet
 facet normal 0.555570 -0.831470 0.000000
  outer loop
   vertex 1850.000000 69.282032 -580.000000
   vertex 1850.000000 69.282032 -160.000000
   vertex 1841.299086 63.468267 -160.000000
  endloop
 endfacet
 facet normal 0.555570 -0.831470 0.000000
  outer loop
   vertex 1841.299086 63.468267 -580.000000
   vertex 1850.000000 69.282032 -580.000000
   vertex 1841.299086 63.468267 -160.000000
  endloop
 endfacet
 facet normal 0.442289 -0.896873 0.000000
  outer loop
   vertex 1859.385325 73.910363 -580.000000
   vertex 1859.385325 73.910363 -160.000000
   vertex 1850.000000 69.282032 -160.000000
  endloop
 endfacet
 facet normal 0.442289 -0.896873 0.000000
  outer loop
   vertex 1850.000000 69.282032 -580.000000
   vertex 1859.385325 73.910363 -580.000000
   vertex 1850.000000 69.282032 -160.000000
  endloop
 endfacet
 facet normal 0.321439 -0.946930 0.000000
  outer loop
   vertex 1869.294476 77.274066 -580.000000
   vertex 1869.294476 77.274066 -160.000000
   vertex 1859.385325 73.910363 -160.000000
  endloop
 endfacet
 facet normal 0.321439 -0.946930 0.000000
  outer loop
   vertex 1859.385325 73.910363 -580.000000
   vertex 1869.294476 77.274066 -580.000000
   vertex 1859.385325 73.910363 -160.000000
  endloop
 endfacet
 facet normal 0.195090 -0.980785 0.000000
  outer loop
   vertex 1879.557905 79.315589 -580.000000
   vertex 1879.557905 79.315589 -160.000000
   vertex 1869.294476 77.274066 -160.000000
  endloop
 endfacet
 facet normal 0.195090 -0.980785 0.000000
  outer loop
   vertex 1869.294476 77.274066 -580.000000
   vertex 1879.557905 79.315589 -580.000000
   vertex 1869.294476 77.274066 -160.000000
  endloop
 endfacet
 facet normal 0.065403 -0.997859 0.000000
  outer loop
   vertex 1890.000000 80.000000 -580.000000
   vertex 1890.000000 80.000000 -160.000000
   vertex 1879.557905 79.315589 -160.000000
  endloop
 endfacet
 facet normal 0.065403 -0.997859 0.000000
  outer loop
   vertex 1879.557905 79.315589 -580.000000
   vertex 1890.000000 80.000000 -580.000000
   vertex 1879.557905 79.315589 -160.000000
  endloop
 endfacet
endsolid SII_LH2_feed_1_elbow
