solid SII_LH2_feed_3_elbow
 facet normal 0.065403 0.997859 0.000000
  outer loop
   vertex -945.000000 -1546.200000 -160.000000
   vertex -933.252643 -1546.969962 -160.000000
   vertex -933.252643 -1546.969962 -580.000000
  endloop
 endfacet
 facet normal 0.065403 0.997859 0.000000
  outer loop
   vertex -945.000000 -1546.200000 -160.000000
   vertex -933.252643 -1546.969962 -580.000000
   vertex -945.000000 -1546.200000 -580.000000
  endloop
 endfacet
 facet normal 0.195090 0.980785 0.000000
  outer loop
   vertex -933.252643 -1546.969962 -160.000000
   vertex -921.706286 -1549.266676 -160.000000
   vertex -921.706286 -1549.266676 -580.000000
  endloop
 endfacet
 facet normal 0.195090 0.980785 0.000000
  outer loop
   vertex -933.252643 -1546.969962 -160.000000
   vertex -921.706286 -1549.266676 -580.000000
   vertex -933.252643 -1546.969962 -580.000000
  endloop
 endfacet
 facet normal 0.321439 0.946930 0.000000
  outer loop
   vertex -921.706286 -1549.266676 -160.000000
   vertex -910.558491 -1553.050842 -160.000000
   vertex -910.558491 -1553.050842 -580.000000
  endloop
 endfacet
 facet normal 0.321439 0.946930 0.000000
  outer loop
   vertex -921.706286 -1549.266676 -160.000000
   vertex -910.558491 -1553.050842 -580.000000
   vertex -921.706286 -1549.266676 -580.000000
  endloop
 endfacet
 facet normal 0.442289 0.896873 0.000000
  outer loop
   vertex -910.558491 -1553.050842 -160.000000
   vertex -900.000000 -1558.257714 -160.000000
   vertex -900.000000 -1558.257714 -580.000000
  endloop
 endfacet
 facet normal 0.442289 0.896873 0.000000
  outer loop
   vertex -910.558491 -1553.050842 -160.000000
   vertex -900.000000 -1558.257714 -580.000000
   vertex -910.558491 -1553.050842 -580.000000
  endloop
 endfacet
 facet normal 0.555570 0.831470 0.000000
  outer loop
   vertex -900.000000 -1558.257714 -160.000000
   vertex -890.211471 -1564.798199 -160.000000
   vertex -890.211471 -1564.798199 -580.000000
  endloop
 endfacet
 facet normal 0.555570 0.831470 0.000000
  outer loop
   vertex -900.000000 -1558.257714 -160.000000
   vertex -890.211471 -1564.798199 -580.000000
   vertex -900.000000 -1558.257714 -580.000000
  endloop
 endfacet
 facet normal 0.659346 0.751840 0.000000
  outer loop
   vertex -890.211471 -1564.798199 -160.000000
   vertex -881.360390 -1572.560390 -160.000000
   vertex -881.360390 -1572.560390 -580.000000
  endloop
 endfacet
 facet normal 0.659346 0.751840 0.000000
  outer loop
   vertex -890.211471 -1564.798199 -160.000000
   vertex -881.360390 -1572.560390 -580.000000
   vertex -890.211471 -1564.798199 -580.000000
  endloop
 endfacet
 facet normal 0.751840 0.659346 0.000000
  outer loop
   vertex -881.360390 -1572.560390 -160.000000
   vertex -873.598199 -1581.411471 -160.000000
   vertex -873.598199 -1581.411471 -580.000000
  endloop
 endfacet
 facet normal 0.751840 0.659346 0.000000
  outer loop
   vertex -881.360390 -1572.560390 -160.000000
   vertex -873.598199 -1581.411471 -580.000000
   vertex -881.360390 -1572.560390 -580.000000
  endloop
 endfacet
 facet normal 0.831470 0.555570 0.000000
  outer loop
   vertex -873.598199 -1581.411471 -160.000000
   vertex -867.057714 -1591.200000 -160.000000
   vertex -867.057714 -1591.200000 -580.000000
  endloop
 endfacet
 facet normal 0.831470 0.555570 0.000000
  outer loop
   vertex -873.598199 -1581.411471 -160.000000
   vertex -867.057714 -1591.200000 -580.000000
   vertex -873.598199 -1581.411471 -580.000000
  endloop
 endfacet
 facet normal 0.896873 0.442289 0.000000
  outer loop
   vertex -867.057714 -1591.200000 -160.000000
   vertex -861.850842 -1601.758491 -160.000000
   vertex -861.850842 -1601.758491 -580.000000
  endloop
 endfacet
 facet normal 0.896873 0.442289 0.000000
  outer loop
   vertex -867.057714 -1591.200000 -160.000000
   vertex -861.850842 -1601.758491 -580.000000
   vertex -867.057714 -1591.200000 -580.000000
  endloop
 endfacet
 facet normal 0.946930 0.321439 0.000000
  outer loop
   vertex -861.850842 -1601.758491 -160.000000
   vertex -858.066676 -1612.906286 -160.000000
   vertex -858.066676 -1612.906286 -580.000000
  endloop
 endfacet
 facet normal 0.946930 0.321439 0.000000
  outer loop
   vertex -861.850842 -1601.758491 -160.000000
   vertex -858.066676 -1612.906286 -580.000000
   vertex -861.850842 -1601.758491 -580.000000
  endloop
 endfacet
 facet normal 0.980785 0.195090 0.000000
  outer loop
   vertex -858.066676 -1612.906286 -160.000000
   vertex -855.769962 -1624.452643 -160.000000
   vertex -855.769962 -1624.452643 -580.000000
  endloop
 endfacet
 facet normal 0.980785 0.195090 0.000000
  outer loop
   vertex -858.066676 -1612.906286 -160.000000
   vertex -855.769962 -1624.452643 -580.000000
   vertex -858.066676 -1612.906286 -580.000000
  endloop
 endfacet
 facet normal 0.997859 0.065403 0.000000
  outer loop
   vertex -855.769962 -1624.452643 -160.000000
   vertex -855.000000 -1636.200000 -160.000000
   vertex -855.000000 -1636.200000 -580.000000
  endloop
 endfacet
 facet normal 0.997859 0.065403 0.000000
  outer loop
   vertex -855.769962 -1624.452643 -160.000000
   vertex -855.000000 -1636.200000 -580.000000
   vertex -855.769962 -1624.452643 -580.000000
  endloop
 endfacet
 facet normal 0.997859 -0.065403 0.000000
  outer loop
   vertex -855.000000 -1636.200000 -160.000000
   vertex -855.769962 -1647.947357 -160.000000
   vertex -855.769962 -1647.947357 -580.000000
  endloop
 endfacet
 facet normal 0.997859 -0.065403 0.000000
  outer loop
   vertex -855.000000 -1636.200000 -160.000000
   vertex -855.769962 -1647.947357 -580.000000
   vertex -855.000000 -1636.200000 -580.000000
  endloop
 endfacet
 facet normal 0.980785 -0.195090 0.000000
  outer loop
   vertex -855.769962 -1647.947357 -160.000000
   vertex -858.066676 -1659.493714 -160.000000
   vertex -858.066676 -1659.493714 -580.000000
  endloop
 endfacet
 facet normal 0.980785 -0.195090 0.000000
  outer loop
   vertex -855.769962 -1647.947357 -160.000000
   vertex -858.066676 -1659.493714 -580.000000
   vertex -855.769962 -1647.947357 -580.000000
  endloop
 endfacet
 facet normal 0.946930 -0.321439 0.000000
  outer loop
   vertex -858.066676 -1659.493714 -160.000000
   vertex -861.850842 -1670.641509 -160.000000
   vertex -861.850842 -1670.641509 -580.000000
  endloop
 endfacet
 facet normal 0.946930 -0.321439 0.000000
  outer loop
   vertex -858.066676 -1659.493714 -160.000000
   vertex -861.850842 -1670.641509 -580.000000
   vertex -858.066676 -1659.493714 -580.000000
  endloop
 endfacet
 facet normal 0.896873 -0.442289 0.000000
  outer loop
   vertex -861.850842 -1670.641509 -160.000000
   vertex -867.057714 -1681.200000 -160.000000
   vertex -867.057714 -1681.200000 -580.000000
  endloop
 endfacet
 facet normal 0.896873 -0.442289 0.000000
  outer loop
   vertex -861.850842 -1670.641509 -160.000000
   vertex -867.057714 -1681.200000 -580.000000
   vertex -861.850842 -1670.641509 -580.000000
  endloop
 endfacet
 facet normal 0.831470 -0.555570 0.000000
  outer loop
   vertex -867.057714 -1681.200000 -160.000000
   vertex -873.598199 -1690.988529 -160.000000
   vertex -873.598199 -1690.988529 -580.000000
  endloop
 endfacet
 facet normal 0.831470 -0.555570 0.000000
  outer loop
   vertex -867.057714 -1681.200000 -160.000000
   vertex -873.598199 -1690.988529 -580.000000
   vertex -867.057714 -1681.200000 -580.000000
  endloop
 endfacet
 facet normal 0.751840 -0.659346 0.000000
  outer loop
   vertex -873.598199 -1690.988529 -160.000000
   vertex -881.360390 -1699.839610 -160.000000
   vertex -881.360390 -1699.839610 -580.000000
  endloop
 endfacet
 facet normal 0.751840 -0.659346 0.000000
  outer loop
   vertex -873.598199 -1690.988529 -160.000000
   vertex -881.360390 -1699.839610 -580.000000
   vertex -873.598199 -1690.988529 -580.000000
  endloop
 endfacet
 facet normal 0.659346 -0.751840 0.000000
  outer loop
   vertex -881.360390 -1699.839610 -160.000000
   vertex -890.211471 -1707.601801 -160.000000
   vertex -890.211471 -1707.601801 -580.000000
  endloop
 endfacet
 facet normal 0.659346 -0.751840 0.000000
  outer loop
   vertex -881.360390 -1699.839610 -160.000000
   vertex -890.211471 -1707.601801 -580.000000
   vertex -881.360390 -1699.839610 -580.000000
  endloop
 endfacet
 facet normal 0.555570 -0.831470 0.000000
  outer loop
   vertex -890.211471 -1707.601801 -160.000000
   vertex -900.000000 -1714.142286 -160.000000
   vertex -900.000000 -1714.142286 -580.000000
  endloop
 endfacet
 facet normal 0.555570 -0.831470 0.000000
  outer loop
   vertex -890.211471 -1707.601801 -160.000000
   vertex -900.000000 -1714.142286 -580.000000
   vertex -890.211471 -1707.601801 -580.000000
  endloop
 endfacet
 facet normal 0.442289 -0.896873 0.000000
  outer loop
   vertex -900.000000 -1714.142286 -160.000000
   vertex -910.558491 -1719.349158 -160.000000
   vertex -910.558491 -1719.349158 -580.000000
  endloop
 endfacet
 facet normal 0.442289 -0.896873 0.000000
  outer loop
   vertex -900.000000 -1714.142286 -160.000000
   vertex -910.558491 -1719.349158 -580.000000
   vertex -900.000000 -1714.142286 -580.000000
  endloop
 endfacet
 facet normal 0.321439 -0.946930 0.000000
  outer loop
   vertex -910.558491 -1719.349158 -160.000000
   vertex -921.706286 -1723.133324 -160.000000
   vertex -921.706286 -1723.133324 -580.000000
  endloop
 endfacet
 facet normal 0.321439 -0.946930 0.000000
  outer loop
   vertex -910.558491 -1719.349158 -160.000000
   vertex -921.706286 -1723.133324 -580.000000
   vertex -910.558491 -1719.349158 -580.000000
  endloop
 endfacet
 facet normal 0.195090 -0.980785 0.000000
  outer loop
   vertex -921.706286 -1723.133324 -160.000000
   vertex -933.252643 -1725.430038 -160.000000
   vertex -933.252643 -1725.430038 -580.000000
  endloop
 endfacet
 facet normal 0.195090 -0.980785 0.000000
  outer loop
   vertex -921.706286 -1723.133324 -160.000000
   vertex -933.252643 -1725.430038 -580.000000
   vertex -921.706286 -1723.133324 -580.000000
  endloop
 endfacet
 facet normal 0.065403 -0.997859 0.000000
  outer loop
   vertex -933.252643 -1725.430038 -160.000000
   vertex -945.000000 -1726.200000 -160.000000
   vertex -945.000000 -1726.200000 -580.000000
  endloop
 endfacet
 facet normal 0.065403 -0.997859 0.000000
  outer loop
   vertex -933.252643 -1725.430038 -160.000000
   vertex -945.000000 -1726.200000 -580.000000
   vertex -933.252643 -1725.430038 -580.000000
  endloop
 endfacet
 facet normal -0.065403 -0.997859 0.000000
  outer loop
   vertex -945.000000 -1726.200000 -160.000000
   vertex -956.747357 -1725.430038 -160.000000
   vertex -956.747357 -1725.430038 -580.000000
  endloop
 endfacet
 facet normal -0.065403 -0.997859 -0.000000
  outer loop
   vertex -945.000000 -1726.200000 -160.000000
   vertex -956.747357 -1725.430038 -580.000000
   vertex -945.000000 -1726.200000 -580.000000
  endloop
 endfacet
 facet normal -0.195090 -0.980785 0.000000
  outer loop
   vertex -956.747357 -1725.430038 -160.000000
   vertex -968.293714 -1723.133324 -160.000000
   vertex -968.293714 -1723.133324 -580.000000
  endloop
 endfacet
 facet normal -0.195090 -0.980785 -0.000000
  outer loop
   vertex -956.747357 -1725.430038 -160.000000
   vertex -968.293714 -1723.133324 -580.000000
   vertex -956.747357 -1725.430038 -580.000000
  endloop
 endfacet
 facet normal -0.321439 -0.946930 0.000000
  outer loop
   vertex -968.293714 -1723.133324 -160.000000
   vertex -979.441509 -1719.349158 -160.000000
   vertex -979.441509 -1719.349158 -580.000000
  endloop
 endfacet
 facet normal -0.321439 -0.946930 -0.000000
  outer loop
   vertex -968.293714 -1723.133324 -160.000000
   vertex -979.441509 -1719.349158 -580.000000
   vertex -968.293714 -1723.133324 -580.000000
  endloop
 endfacet
 facet normal -0.442289 -0.896873 0.000000
  outer loop
   vertex -979.441509 -1719.349158 -160.000000
   vertex -990.000000 -1714.142286 -160.000000
   vertex -990.000000 -1714.142286 -580.000000
  endloop
 endfacet
 facet normal -0.442289 -0.896873 -0.000000
  outer loop
   vertex -979.441509 -1719.349158 -160.000000
   vertex -990.000000 -1714.142286 -580.000000
   vertex -979.441509 -1719.349158 -580.000000
  endloop
 endfacet
 facet normal -0.555570 -0.831470 0.000000
  outer loop
   vertex -990.000000 -1714.142286 -160.000000
   vertex -999.788529 -1707.601801 -160.000000
   vertex -999.788529 -1707.601801 -580.000000
  endloop
 endfacet
 facet normal -0.555570 -0.831470 -0.000000
  outer loop
   vertex -990.000000 -1714.142286 -160.000000
   vertex -999.788529 -1707.601801 -580.000000
   vertex -990.000000 -1714.142286 -580.000000
  endloop
 endfacet
 facet normal -0.659346 -0.751840 0.000000
  outer loop
   vertex -999.788529 -1707.601801 -160.000000
   vertex -1008.639610 -1699.839610 -160.000000
   vertex -1008.639610 -1699.839610 -580.000000
  endloop
 endfacet
 facet normal -0.659346 -0.751840 -0.000000
  outer loop
   vertex -999.788529 -1707.601801 -160.000000
   vertex -1008.639610 -1699.839610 -580.000000
   vertex -999.788529 -1707.601801 -580.000000
  endloop
 endfacet
 facet normal -0.751840 -0.659346 0.000000
  outer loop
   vertex -1008.639610 -1699.839610 -160.000000
   vertex -1016.401801 -1690.988529 -160.000000
   vertex -1016.401801 -1690.988529 -580.000000
  endloop
 endfacet
 facet normal -0.751840 -0.659346 -0.000000
  outer loop
   vertex -1008.639610 -1699.839610 -160.000000
   vertex -1016.401801 -1690.988529 -580.000000
   vertex -1008.639610 -1699.839610 -580.000000
  endloop
 endfacet
 facet normal -0.831470 -0.555570 0.000000
  outer loop
   vertex -1016.401801 -1690.988529 -160.000000
   vertex -1022.942286 -1681.200000 -160.000000
   vertex -1022.942286 -1681.200000 -580.000000
  endloop
 endfacet
 facet normal -0.831470 -0.555570 -0.000000
  outer loop
   vertex -1016.401801 -1690.988529 -160.000000
   vertex -1022.942286 -1681.200000 -580.000000
   vertex -1016.401801 -1690.988529 -580.000000
  endloop
 endfacet
 facet normal -0.896873 -0.442289 0.000000
  outer loop
   vertex -1022.942286 -1681.200000 -160.000000
   vertex -1028.149158 -1670.641509 -160.000000
   vertex -1028.149158 -1670.641509 -580.000000
  endloop
 endfacet
 facet normal -0.896873 -0.442289 -0.000000
  outer loop
   vertex -1022.942286 -1681.200000 -160.000000
   vertex -1028.149158 -1670.641509 -580.000000
   vertex -1022.942286 -1681.200000 -580.000000
  endloop
 endfacet
 facet normal -0.946930 -0.321439 0.000000
  outer loop
   vertex -1028.149158 -1670.641509 -160.000000
   vertex -1031.933324 -1659.493714 -160.000000
   vertex -1031.933324 -1659.493714 -580.000000
  endloop
 endfacet
 facet normal -0.946930 -0.321439 -0.000000
  outer loop
   vertex -1028.149158 -1670.641509 -160.000000
   vertex -1031.933324 -1659.493714 -580.000000
   vertex -1028.149158 -1670.641509 -580.000000
  endloop
 endfacet
 facet normal -0.980785 -0.195090 0.000000
  outer loop
   vertex -1031.933324 -1659.493714 -160.000000
   vertex -1034.230038 -1647.947357 -160.000000
   vertex -1034.230038 -1647.947357 -580.000000
  endloop
 endfacet
 facet normal -0.980785 -0.195090 -0.000000
  outer loop
   vertex -1031.933324 -1659.493714 -160.000000
   vertex -1034.230038 -1647.947357 -580.000000
   vertex -1031.933324 -1659.493714 -580.000000
  endloop
 endfacet
 facet normal -0.997859 -0.065403 0.000000
  outer loop
   vertex -1034.230038 -1647.947357 -160.000000
   vertex -1035.000000 -1636.200000 -160.000000
   vertex -1035.000000 -1636.200000 -580.000000
  endloop
 endfacet
 facet normal -0.997859 -0.065403 -0.000000
  outer loop
   vertex -1034.230038 -1647.947357 -160.000000
   vertex -1035.000000 -1636.200000 -580.000000
   vertex -1034.230038 -1647.947357 -580.000000
  endloop
 endfacet
 facet normal -0.997859 0.065403 0.000000
  outer loop
   vertex -1035.000000 -1636.200000 -160.000000
   vertex -1034.230038 -1624.452643 -160.000000
   vertex -1034.230038 -1624.452643 -580.000000
  endloop
 endfacet
 facet normal -0.997859 0.065403 0.000000
  outer loop
   vertex -1035.000000 -1636.200000 -160.000000
   vertex -1034.230038 -1624.452643 -580.000000
   vertex -1035.000000 -1636.200000 -580.000000
  endloop
 endfacet
 facet normal -0.980785 0.195090 0.000000
  outer loop
   vertex -1034.230038 -1624.452643 -160.000000
   vertex -1031.933324 -1612.906286 -160.000000
   vertex -1031.933324 -1612.906286 -580.000000
  endloop
 endfacet
 facet normal -0.980785 0.195090 0.000000
  outer loop
   vertex -1034.230038 -1624.452643 -160.000000
   vertex -1031.933324 -1612.906286 -580.000000
   vertex -1034.230038 -1624.452643 -580.000000
  endloop
 endfacet
 facet normal -0.946930 0.321439 0.000000
  outer loop
   vertex -1031.933324 -1612.906286 -160.000000
   vertex -1028.149158 -1601.758491 -160.000000
   vertex -1028.149158 -1601.758491 -580.000000
  endloop
 endfacet
 facet normal -0.946930 0.321439 0.000000
  outer loop
   vertex -1031.933324 -1612.906286 -160.000000
   vertex -1028.149158 -1601.758491 -580.000000
   vertex -1031.933324 -1612.906286 -580.000000
  endloop
 endfacet
 facet normal -0.896873 0.442289 0.000000
  outer loop
   vertex -1028.149158 -1601.758491 -160.000000
   vertex -1022.942286 -1591.200000 -160.000000
   vertex -1022.942286 -1591.200000 -580.000000
  endloop
 endfacet
 facet normal -0.896873 0.442289 0.000000
  outer loop
   vertex -1028.149158 -1601.758491 -160.000000
   vertex -1022.942286 -1591.200000 -580.000000
   vertex -1028.149158 -1601.758491 -580.000000
  endloop
 endfacet
 facet normal -0.831470 0.555570 0.000000
  outer loop
   vertex -1022.942286 -1591.200000 -160.000000
   vertex -1016.401801 -1581.411471 -160.000000
   vertex -1016.401801 -1581.411471 -580.000000
  endloop
 endfacet
 facet normal -0.831470 0.555570 0.000000
  outer loop
   vertex -1022.942286 -1591.200000 -160.000000
   vertex -1016.401801 -1581.411471 -580.000000
   vertex -1022.942286 -1591.200000 -580.000000
  endloop
 endfacet
 facet normal -0.751840 0.659346 0.000000
  outer loop
   vertex -1016.401801 -1581.411471 -160.000000
   vertex -1008.639610 -1572.560390 -160.000000
   vertex -1008.639610 -1572.560390 -580.000000
  endloop
 endfacet
 facet normal -0.751840 0.659346 0.000000
  outer loop
   vertex -1016.401801 -1581.411471 -160.000000
   vertex -1008.639610 -1572.560390 -580.000000
   vertex -1016.401801 -1581.411471 -580.000000
  endloop
 endfacet
 facet normal -0.659346 0.751840 0.000000
  outer loop
   vertex -1008.639610 -1572.560390 -160.000000
   vertex -999.788529 -1564.798199 -160.000000
   vertex -999.788529 -1564.798199 -580.000000
  endloop
 endfacet
 facet normal -0.659346 0.751840 0.000000
  outer loop
   vertex -1008.639610 -1572.560390 -160.000000
   vertex -999.788529 -1564.798199 -580.000000
   vertex -1008.639610 -1572.560390 -580.000000
  endloop
 endfacet
 facet normal -0.555570 0.831470 0.000000
  outer loop
   vertex -999.788529 -1564.798199 -160.000000
   vertex -990.000000 -1558.257714 -160.000000
   vertex -990.000000 -1558.257714 -580.000000
  endloop
 endfacet
 facet normal -0.555570 0.831470 0.000000
  outer loop
   vertex -999.788529 -1564.798199 -160.000000
   vertex -990.000000 -1558.257714 -580.000000
   vertex -999.788529 -1564.798199 -580.000000
  endloop
 endfacet
 facet normal -0.442289 0.896873 0.000000
  outer loop
   vertex -990.000000 -1558.257714 -160.000000
   vertex -979.441509 -1553.050842 -160.000000
   vertex -979.441509 -1553.050842 -580.000000
  endloop
 endfacet
 facet normal -0.442289 0.896873 0.000000
  outer loop
   vertex -990.000000 -1558.257714 -160.000000
   vertex -979.441509 -1553.050842 -580.000000
   vertex -990.000000 -1558.257714 -580.000000
  endloop
 endfacet
 facet normal -0.321439 0.946930 0.000000
  outer loop
   vertex -979.441509 -1553.050842 -160.000000
   vertex -968.293714 -1549.266676 -160.000000
   vertex -968.293714 -1549.266676 -580.000000
  endloop
 endfacet
 facet normal -0.321439 0.946930 0.000000
  outer loop
   vertex -979.441509 -1553.050842 -160.000000
   vertex -968.293714 -1549.266676 -580.000000
   vertex -979.441509 -1553.050842 -580.000000
  endloop
 endfacet
 facet normal -0.195090 0.980785 0.000000
  outer loop
   vertex -968.293714 -1549.266676 -160.000000
   vertex -956.747357 -1546.969962 -160.000000
   vertex -956.747357 -1546.969962 -580.000000
  endloop
 endfacet
 facet normal -0.195090 0.980785 0.000000
  outer loop
   vertex -968.293714 -1549.266676 -160.000000
   vertex -956.747357 -1546.969962 -580.000000
   vertex -968.293714 -1549.266676 -580.000000
  endloop
 endfacet
 facet normal -0.065403 0.997859 0.000000
  outer loop
   vertex -956.747357 -1546.969962 -160.000000
   vertex -945.000000 -1546.200000 -160.000000
   vertex -945.000000 -1546.200000 -580.000000
  endloop
 endfacet
 facet normal -0.065403 0.997859 0.000000
  outer loop
   vertex -956.747357 -1546.969962 -160.000000
   vertex -945.000000 -1546.200000 -580.000000
   vertex -956.747357 -1546.969962 -580.000000
  endloop
 endfacet
 facet normal -0.065403 -0.997859 0.000000
  outer loop
   vertex -934.557905 -1556.884411 -580.000000
   vertex -934.557905 -1556.884411 -160.000000
   vertex -945.000000 -1556.200000 -160.000000
  endloop
 endfacet
 facet normal -0.065403 -0.997859 0.000000
  outer loop
   vertex -945.000000 -1556.200000 -580.000000
   vertex -934.557905 -1556.884411 -580.000000
   vertex -945.000000 -1556.200000 -160.000000
  endloop
 endfacet
 facet normal -0.195090 -0.980785 0.000000
  outer loop
   vertex -924.294476 -1558.925934 -580.000000
   vertex -924.294476 -1558.925934 -160.000000
   vertex -934.557905 -1556.884411 -160.000000
  endloop
 endfacet
 facet normal -0.195090 -0.980785 0.000000
  outer loop
   vertex -934.557905 -1556.884411 -580.000000
   vertex -924.294476 -1558.925934 -580.000000
   vertex -934.557905 -1556.884411 -160.000000
  endloop
 endfacet
 facet normal -0.321439 -0.946930 0.000000
  outer loop
   vertex -914.385325 -1562.289637 -580.000000
   vertex -914.385325 -1562.289637 -160.000000
   vertex -924.294476 -1558.925934 -160.000000
  endloop
 endfacet
 facet normal -0.321439 -0.946930 0.000000
  outer loop
   vertex -924.294476 -1558.925934 -580.000000
   vertex -914.385325 -1562.289637 -580.000000
   vertex -924.294476 -1558.925934 -160.000000
  endloop
 endfacet
 facet normal -0.442289 -0.896873 0.000000
  outer loop
   vertex -905.000000 -1566.917968 -580.000000
   vertex -905.000000 -1566.917968 -160.000000
   vertex -914.385325 -1562.289637 -160.000000
  endloop
 endfacet
 facet normal -0.442289 -0.896873 0.000000
  outer loop
   vertex -914.385325 -1562.289637 -580.000000
   vertex -905.000000 -1566.917968 -580.000000
   vertex -914.385325 -1562.289637 -160.000000
  endloop
 endfacet
 facet normal -0.555570 -0.831470 0.000000
  outer loop
   vertex -896.299086 -1572.731733 -580.000000
   vertex -896.299086 -1572.731733 -160.000000
   vertex -905.000000 -1566.917968 -160.000000
  endloop
 endfacet
 facet normal -0.555570 -0.831470 0.000000
  outer loop
   vertex -905.000000 -1566.917968 -580.000000
   vertex -896.299086 -1572.731733 -580.000000
   vertex -905.000000 -1566.917968 -160.000000
  endloop
 endfacet
 facet normal -0.659346 -0.751840 0.000000
  outer loop
   vertex -888.431458 -1579.631458 -580.000000
   vertex -888.431458 -1579.631458 -160.000000
   vertex -896.299086 -1572.731733 -160.000000
  endloop
 endfacet
 facet normal -0.659346 -0.751840 0.000000
  outer loop
   vertex -896.299086 -1572.731733 -580.000000
   vertex -888.431458 -1579.631458 -580.000000
   vertex -896.299086 -1572.731733 -160.000000
  endloop
 endfacet
 facet normal -0.751840 -0.659346 0.000000
  outer loop
   vertex -881.531733 -1587.499086 -580.000000
   vertex -881.531733 -1587.499086 -160.000000
   vertex -888.431458 -1579.631458 -160.000000
  endloop
 endfacet
 facet normal -0.751840 -0.659346 0.000000
  outer loop
   vertex -888.431458 -1579.631458 -580.000000
   vertex -881.531733 -1587.499086 -580.000000
   vertex -888.431458 -1579.631458 -160.000000
  endloop
 endfacet
 facet normal -0.831470 -0.555570 0.000000
  outer loop
   vertex -875.717968 -1596.200000 -580.000000
   vertex -875.717968 -1596.200000 -160.000000
   vertex -881.531733 -1587.499086 -160.000000
  endloop
 endfacet
 facet normal -0.831470 -0.555570 0.000000
  outer loop
   vertex -881.531733 -1587.499086 -580.000000
   vertex -875.717968 -1596.200000 -580.000000
   vertex -881.531733 -1587.499086 -160.000000
  endloop
 endfacet
 facet normal -0.896873 -0.442289 0.000000
  outer loop
   vertex -871.089637 -1605.585325 -580.000000
   vertex -871.089637 -1605.585325 -160.000000
   vertex -875.717968 -1596.200000 -160.000000
  endloop
 endfacet
 facet normal -0.896873 -0.442289 0.000000
  outer loop
   vertex -875.717968 -1596.200000 -580.000000
   vertex -871.089637 -1605.585325 -580.000000
   vertex -875.717968 -1596.200000 -160.000000
  endloop
 endfacet
 facet normal -0.946930 -0.321439 0.000000
  outer loop
   vertex -867.725934 -1615.494476 -580.000000
   vertex -867.725934 -1615.494476 -160.000000
   vertex -871.089637 -1605.585325 -160.000000
  endloop
 endfacet
 facet normal -0.946930 -0.321439 0.000000
  outer loop
   vertex -871.089637 -1605.585325 -580.000000
   vertex -867.725934 -1615.494476 -580.000000
   vertex -871.089637 -1605.585325 -160.000000
  endloop
 endfacet
 facet normal -0.980785 -0.195090 0.000000
  outer loop
   vertex -865.684411 -1625.757905 -580.000000
   vertex -865.684411 -1625.757905 -160.000000
   vertex -867.725934 -1615.494476 -160.000000
  endloop
 endfacet
 facet normal -0.980785 -0.195090 0.000000
  outer loop
   vertex -867.725934 -1615.494476 -580.000000
   vertex -865.684411 -1625.757905 -580.000000
   vertex -867.725934 -1615.494476 -160.000000
  endloop
 endfacet
 facet normal -0.997859 -0.065403 0.000000
  outer loop
   vertex -865.000000 -1636.200000 -580.000000
   vertex -865.000000 -1636.200000 -160.000000
   vertex -865.684411 -1625.757905 -160.000000
  endloop
 endfacet
 facet normal -0.997859 -0.065403 0.000000
  outer loop
   vertex -865.684411 -1625.757905 -580.000000
   vertex -865.000000 -1636.200000 -580.000000
   vertex -865.684411 -1625.757905 -160.000000
  endloop
 endfacet
 facet normal -0.997859 0.065403 0.000000
  outer loop
   vertex -865.684411 -1646.642095 -580.000000
   vertex -865.684411 -1646.642095 -160.000000
   vertex -865.000000 -1636.200000 -160.000000
  endloop
 endfacet
 facet normal -0.997859 0.065403 0.000000
  outer loop
   vertex -865.000000 -1636.200000 -580.000000
   vertex -865.684411 -1646.642095 -580.000000
   vertex -865.000000 -1636.200000 -160.000000
  endloop
 endfacet
 facet normal -0.980785 0.195090 0.000000
  outer loop
   vertex -867.725934 -1656.905524 -580.000000
   vertex -867.725934 -1656.905524 -160.000000
   vertex -865.684411 -1646.642095 -160.000000
  endloop
 endfacet
 facet normal -0.980785 0.195090 0.000000
  outer loop
   vertex -865.684411 -1646.642095 -580.000000
   vertex -867.725934 -1656.905524 -580.000000
   vertex -865.684411 -1646.642095 -160.000000
  endloop
 endfacet
 facet normal -0.946930 0.321439 0.000000
  outer loop
   vertex -871.089637 -1666.814675 -580.000000
   vertex -871.089637 -1666.814675 -160.000000
   vertex -867.725934 -1656.905524 -160.000000
  endloop
 endfacet
 facet normal -0.946930 0.321439 0.000000
  outer loop
   vertex -867.725934 -1656.905524 -580.000000
   vertex -871.089637 -1666.814675 -580.000000
   vertex -867.725934 -1656.905524 -160.000000
  endloop
 endfacet
 facet normal -0.896873 0.442289 0.000000
  outer loop
   vertex -875.717968 -1676.200000 -580.000000
   vertex -875.717968 -1676.200000 -160.000000
   vertex -871.089637 -1666.814675 -160.000000
  endloop
 endfacet
 facet normal -0.896873 0.442289 0.000000
  outer loop
   vertex -871.089637 -1666.814675 -580.000000
   vertex -875.717968 -1676.200000 -580.000000
   vertex -871.089637 -1666.814675 -160.000000
  endloop
 endfacet
 facet normal -0.831470 0.555570 0.000000
  outer loop
   vertex -881.531733 -1684.900914 -580.000000
   vertex -881.531733 -1684.900914 -160.000000
   vertex -875.717968 -1676.200000 -160.000000
  endloop
 endfacet
 facet normal -0.831470 0.555570 0.000000
  outer loop
   vertex -875.717968 -1676.200000 -580.000000
   vertex -881.531733 -1684.900914 -580.000000
   vertex -875.717968 -1676.200000 -160.000000
  endloop
 endfacet
 facet normal -0.751840 0.659346 0.000000
  outer loop
   vertex -888.431458 -1692.768542 -580.000000
   vertex -888.431458 -1692.768542 -160.000000
   vertex -881.531733 -1684.900914 -160.000000
  endloop
 endfacet
 facet normal -0.751840 0.659346 0.000000
  outer loop
   vertex -881.531733 -1684.900914 -580.000000
   vertex -888.431458 -1692.768542 -580.000000
   vertex -881.531733 -1684.900914 -160.000000
  endloop
 endfacet
 facet normal -0.659346 0.751840 0.000000
  outer loop
   vertex -896.299086 -1699.668267 -580.000000
   vertex -896.299086 -1699.668267 -160.000000
   vertex -888.431458 -1692.768542 -160.000000
  endloop
 endfacet
 facet normal -0.659346 0.751840 0.000000
  outer loop
   vertex -888.431458 -1692.768542 -580.000000
   vertex -896.299086 -1699.668267 -580.000000
   vertex -888.431458 -1692.768542 -160.000000
  endloop
 endfacet
 facet normal -0.555570 0.831470 0.000000
  outer loop
   vertex -905.000000 -1705.482032 -580.000000
   vertex -905.000000 -1705.482032 -160.000000
   vertex -896.299086 -1699.668267 -160.000000
  endloop
 endfacet
 facet normal -0.555570 0.831470 0.000000
  outer loop
   vertex -896.299086 -1699.668267 -580.000000
   vertex -905.000000 -1705.482032 -580.000000
   vertex -896.299086 -1699.668267 -160.000000
  endloop
 endfacet
 facet normal -0.442289 0.896873 0.000000
  outer loop
   vertex -914.385325 -1710.110363 -580.000000
   vertex -914.385325 -1710.110363 -160.000000
   vertex -905.000000 -1705.482032 -160.000000
  endloop
 endfacet
 facet normal -0.442289 0.896873 0.000000
  outer loop
   vertex -905.000000 -1705.482032 -580.000000
   vertex -914.385325 -1710.110363 -580.000000
   vertex -905.000000 -1705.482032 -160.000000
  endloop
 endfacet
 facet normal -0.321439 0.946930 0.000000
  outer loop
   vertex -924.294476 -1713.474066 -580.000000
   vertex -924.294476 -1713.474066 -160.000000
   vertex -914.385325 -1710.110363 -160.000000
  endloop
 endfacet
 facet normal -0.321439 0.946930 0.000000
  outer loop
   vertex -914.385325 -1710.110363 -580.000000
   vertex -924.294476 -1713.474066 -580.000000
   vertex -914.385325 -1710.110363 -160.000000
  endloop
 endfacet
 facet normal -0.195090 0.980785 0.000000
  outer loop
   vertex -934.557905 -1715.515589 -580.000000
   vertex -934.557905 -1715.515589 -160.000000
   vertex -924.294476 -1713.474066 -160.000000
  endloop
 endfacet
 facet normal -0.195090 0.980785 0.000000
  outer loop
   vertex -924.294476 -1713.474066 -580.000000
   vertex -934.557905 -1715.515589 -580.000000
   vertex -924.294476 -1713.474066 -160.000000
  endloop
 endfacet
 facet normal -0.065403 0.997859 0.000000
  outer loop
   vertex -945.000000 -1716.200000 -580.000000
   vertex -945.000000 -1716.200000 -160.000000
   vertex -934.557905 -1715.515589 -160.000000
  endloop
 endfacet
 facet normal -0.065403 0.997859 0.000000
  outer loop
   vertex -934.557905 -1715.515589 -580.000000
   vertex -945.000000 -1716.200000 -580.000000
   vertex -934.557905 -1715.515589 -160.000000
  endloop
 endfacet
 facet normal 0.065403 0.997859 -0.000000
  outer loop
   vertex -955.442095 -1715.515589 -580.000000
   vertex -955.442095 -1715.515589 -160.000000
   vertex -945.000000 -1716.200000 -160.000000
  endloop
 endfacet
 facet normal 0.065403 0.997859 -0.000000
  outer loop
   vertex -945.000000 -1716.200000 -580.000000
   vertex -955.442095 -1715.515589 -580.000000
   vertex -945.000000 -1716.200000 -160.000000
  endloop
 endfacet
 facet normal 0.195090 0.980785 -0.000000
  outer loop
   vertex -965.705524 -1713.474066 -580.000000
   vertex -965.705524 -1713.474066 -160.000000
   vertex -955.442095 -1715.515589 -160.000000
  endloop
 endfacet
 facet normal 0.195090 0.980785 -0.000000
  outer loop
   vertex -955.442095 -1715.515589 -580.000000
   vertex -965.705524 -1713.474066 -580.000000
   vertex -955.442095 -1715.515589 -160.000000
  endloop
 endfacet
 facet normal 0.321439 0.946930 -0.000000
  outer loop
   vertex -975.614675 -1710.110363 -580.000000
   vertex -975.614675 -1710.110363 -160.000000
   vertex -965.705524 -1713.474066 -160.000000
  endloop
 endfacet
 facet normal 0.321439 0.946930 -0.000000
  outer loop
   vertex -965.705524 -1713.474066 -580.000000
   vertex -975.614675 -1710.110363 -580.000000
   vertex -965.705524 -1713.474066 -160.000000
  endloop
 endfacet
 facet normal 0.442289 0.896873 -0.000000
  outer loop
   vertex -985.000000 -1705.482032 -580.000000
   vertex -985.000000 -1705.482032 -160.000000
   vertex -975.614675 -1710.110363 -160.000000
  endloop
 endfacet
 facet normal 0.442289 0.896873 -0.000000
  outer loop
   vertex -975.614675 -1710.110363 -580.000000
   vertex -985.000000 -1705.482032 -580.000000
   vertex -975.614675 -1710.110363 -160.000000
  endloop
 endfacet
 facet normal 0.555570 0.831470 -0.000000
  outer loop
   vertex -993.700914 -1699.668267 -580.000000
   vertex -993.700914 -1699.668267 -160.000000
   vertex -985.000000 -1705.482032 -160.000000
  endloop
 endfacet
 facet normal 0.555570 0.831470 -0.000000
  outer loop
   vertex -985.000000 -1705.482032 -580.000000
   vertex -993.700914 -1699.668267 -580.000000
   vertex -985.000000 -1705.482032 -160.000000
  endloop
 endfacet
 facet normal 0.659346 0.751840 -0.000000
  outer loop
   vertex -1001.568542 -1692.768542 -580.000000
   vertex -1001.568542 -1692.768542 -160.000000
   vertex -993.700914 -1699.668267 -160.000000
  endloop
 endfacet
 facet normal 0.659346 0.751840 -0.000000
  outer loop
   vertex -993.700914 -1699.668267 -580.000000
   vertex -1001.568542 -1692.768542 -580.000000
   vertex -993.700914 -1699.668267 -160.000000
  endloop
 endfacet
 facet normal 0.751840 0.659346 -0.000000
  outer loop
   vertex -1008.468267 -1684.900914 -580.000000
   vertex -1008.468267 -1684.900914 -160.000000
   vertex -1001.568542 -1692.768542 -160.000000
  endloop
 endfacet
 facet normal 0.751840 0.659346 -0.000000
  outer loop
   vertex -1001.568542 -1692.768542 -580.000000
   vertex -1008.468267 -1684.900914 -580.000000
   vertex -1001.568542 -1692.768542 -160.000000
  endloop
 endfacet
 facet normal 0.831470 0.555570 -0.000000
  outer loop
   vertex -1014.282032 -1676.200000 -580.000000
   vertex -1014.282032 -1676.200000 -160.000000
   vertex -1008.468267 -1684.900914 -160.000000
  endloop
 endfacet
 facet normal 0.831470 0.555570 -0.000000
  outer loop
   vertex -1008.468267 -1684.900914 -580.000000
   vertex -1014.282032 -1676.200000 -580.000000
   vertex -1008.468267 -1684.900914 -160.000000
  endloop
 endfacet
 facet normal 0.896873 0.442289 -0.000000
  outer loop
   vertex -1018.910363 -1666.814675 -580.000000
   vertex -1018.910363 -1666.814675 -160.000000
   vertex -1014.282032 -1676.200000 -160.000000
  endloop
 endfacet
 facet normal 0.896873 0.442289 -0.000000
  outer loop
   vertex -1014.282032 -1676.200000 -580.000000
   vertex -1018.910363 -1666.814675 -580.000000
   vertex -1014.282032 -1676.200000 -160.000000
  endloop
 endfacet
 facet normal 0.946930 0.321439 -0.000000
  outer loop
   vertex -1022.274066 -1656.905524 -580.000000
   vertex -1022.274066 -1656.905524 -160.000000
   vertex -1018.910363 -1666.814675 -160.000000
  endloop
 endfacet
 facet normal 0.946930 0.321439 -0.000000
  outer loop
   vertex -1018.910363 -1666.814675 -580.000000
   vertex -1022.274066 -1656.905524 -580.000000
   vertex -1018.910363 -1666.814675 -160.000000
  endloop
 endfacet
 facet normal 0.980785 0.195090 -0.000000
  outer loop
   vertex -1024.315589 -1646.642095 -580.000000
   vertex -1024.315589 -1646.642095 -160.000000
   vertex -1022.274066 -1656.905524 -160.000000
  endloop
 endfacet
 facet normal 0.980785 0.195090 -0.000000
  outer loop
   vertex -1022.274066 -1656.905524 -580.000000
   vertex -1024.315589 -1646.642095 -580.000000
   vertex -1022.274066 -1656.905524 -160.000000
  endloop
 endfacet
 facet normal 0.997859 0.065403 -0.000000
  outer loop
   vertex -1025.000000 -1636.200000 -580.000000
   vertex -1025.000000 -1636.200000 -160.000000
   vertex -1024.315589 -1646.642095 -160.000000
  endloop
 endfacet
 facet normal 0.997859 0.065403 -0.000000
  outer loop
   vertex -1024.315589 -1646.642095 -580.000000
   vertex -1025.000000 -1636.200000 -580.000000
   vertex -1024.315589 -1646.642095 -160.000000
  endloop
 endfacet
 facet normal 0.997859 -0.065403 0.000000
  outer loop
   vertex -1024.315589 -1625.757905 -580.000000
   vertex -1024.315589 -1625.757905 -160.000000
   vertex -1025.000000 -1636.200000 -160.000000
  endloop
 endfacet
 facet normal 0.997859 -0.065403 0.000000
  outer loop
   vertex -1025.000000 -1636.200000 -580.000000
   vertex -1024.315589 -1625.757905 -580.000000
   vertex -1025.000000 -1636.200000 -160.000000
  endloop
 endfacet
 facet normal 0.980785 -0.195090 0.000000
  outer loop
   vertex -1022.274066 -1615.494476 -580.000000
   vertex -1022.274066 -1615.494476 -160.000000
   vertex -1024.315589 -1625.757905 -160.000000
  endloop
 endfacet
 facet normal 0.980785 -0.195090 0.000000
  outer loop
   vertex -1024.315589 -1625.757905 -580.000000
   vertex -1022.274066 -1615.494476 -580.000000
   vertex -1024.315589 -1625.757905 -160.000000
  endloop
 endfacet
 facet normal 0.946930 -0.321439 0.000000
  outer loop
   vertex -1018.910363 -1605.585325 -580.000000
   vertex -1018.910363 -1605.585325 -160.000000
   vertex -1022.274066 -1615.494476 -160.000000
  endloop
 endfacet
 facet normal 0.946930 -0.321439 0.000000
  outer loop
   vertex -1022.274066 -1615.494476 -580.000000
   vertex -1018.910363 -1605.585325 -580.000000
   vertex -1022.274066 -1615.494476 -160.000000
  endloop
 endfacet
 facet normal 0.896873 -0.442289 0.000000
  outer loop
   vertex -1014.282032 -1596.200000 -580.000000
   vertex -1014.282032 -1596.200000 -160.000000
   vertex -1018.910363 -1605.585325 -160.000000
  endloop
 endfacet
 facet normal 0.896873 -0.442289 0.000000
  outer loop
   vertex -1018.910363 -1605.585325 -580.000000
   vertex -1014.282032 -1596.200000 -580.000000
   vertex -1018.910363 -1605.585325 -160.000000
  endloop
 endfacet
 facet normal 0.831470 -0.555570 0.000000
  outer loop
   vertex -1008.468267 -1587.499086 -580.000000
   vertex -1008.468267 -1587.499086 -160.000000
   vertex -1014.282032 -1596.200000 -160.000000
  endloop
 endfacet
 facet normal 0.831470 -0.555570 0.000000
  outer loop
   vertex -1014.282032 -1596.200000 -580.000000
   vertex -1008.468267 -1587.499086 -580.000000
   vertex -1014.282032 -1596.200000 -160.000000
  endloop
 endfacet
 facet normal 0.751840 -0.659346 0.000000
  outer loop
   vertex -1001.568542 -1579.631458 -580.000000
   vertex -1001.568542 -1579.631458 -160.000000
   vertex -1008.468267 -1587.499086 -160.000000
  endloop
 endfacet
 facet normal 0.751840 -0.659346 0.000000
  outer loop
   vertex -1008.468267 -1587.499086 -580.000000
   vertex -1001.568542 -1579.631458 -580.000000
   vertex -1008.468267 -1587.499086 -160.000000
  endloop
 endfacet
 facet normal 0.659346 -0.751840 0.000000
  outer loop
   vertex -993.700914 -1572.731733 -580.000000
   vertex -993.700914 -1572.731733 -160.000000
   vertex -1001.568542 -1579.631458 -160.000000
  endloop
 endfacet
 facet normal 0.659346 -0.751840 0.000000
  outer loop
   vertex -1001.568542 -1579.631458 -580.000000
   vertex -993.700914 -1572.731733 -580.000000
   vertex -1001.568542 -1579.631458 -160.000000
  endloop
 endfacet
 facet normal 0.555570 -0.831470 0.000000
  outer loop
   vertex -985.000000 -1566.917968 -580.000000
   vertex -985.000000 -1566.917968 -160.000000
   vertex -993.700914 -1572.731733 -160.000000
  endloop
 endfacet
 facet normal 0.555570 -0.831470 0.000000
  outer loop
   vertex -993.700914 -1572.731733 -580.000000
   vertex -985.000000 -1566.917968 -580.000000
   vertex -993.700914 -1572.731733 -160.000000
  endloop
 endfacet
 facet normal 0.442289 -0.896873 0.000000
  outer loop
   vertex -975.614675 -1562.289637 -580.000000
   vertex -975.614675 -1562.289637 -160.000000
   vertex -985.000000 -1566.917968 -160.000000
  endloop
 endfacet
 facet normal 0.442289 -0.896873 0.000000
  outer loop
   vertex -985.000000 -1566.917968 -580.000000
   vertex -975.614675 -1562.289637 -580.000000
   vertex -985.000000 -1566.917968 -160.000000
  endloop
 endfacet
 facet normal 0.321439 -0.946930 0.000000
  outer loop
   vertex -965.705524 -1558.925934 -580.000000
   vertex -965.705524 -1558.925934 -160.000000
   vertex -975.614675 -1562.289637 -160.000000
  endloop
 endfacet
 facet normal 0.321439 -0.946930 0.000000
  outer loop
   vertex -975.614675 -1562.289637 -580.000000
   vertex -965.705524 -1558.925934 -580.000000
   vertex -975.614675 -1562.289637 -160.000000
  endloop
 endfacet
 facet normal 0.195090 -0.980785 0.000000
  outer loop
   vertex -955.442095 -1556.884411 -580.000000
   vertex -955.442095 -1556.884411 -160.000000
   vertex -965.705524 -1558.925934 -160.000000
  endloop
 endfacet
 facet normal 0.195090 -0.980785 0.000000
  outer loop
   vertex -965.705524 -1558.925934 -580.000000
   vertex -955.442095 -1556.884411 -580.000000
   vertex -965.705524 -1558.925934 -160.000000
  endloop
 endfacet
 facet normal 0.065403 -0.997859 0.000000
  outer loop
   vertex -945.000000 -1556.200000 -580.000000
   vertex -945.000000 -1556.200000 -160.000000
   vertex -955.442095 -1556.884411 -160.000000
  endloop
 endfacet
 facet normal 0.065403 -0.997859 0.000000
  outer loop
   vertex -955.442095 -1556.884411 -580.000000
   vertex -945.000000 -1556.200000 -580.000000
   vertex -955.442095 -1556.884411 -160.000000
  endloop
 endfacet
endsolid SII_LH2_feed_3_elbow
