solid SII_LH2_feed_1_drop
 facet normal 0.063692 0.997859 0.014862
  outer loop
   vertex 1890.000000 90.000000 -580.000000
   vertex 1901.440061 89.230038 -577.330653
   vertex 2111.440061 89.230038 -1477.330653
  endloop
 endfacet
 facet normal 0.063692 0.997859 0.014862
  outer loop
   vertex 1890.000000 90.000000 -580.000000
   vertex 2111.440061 89.230038 -1477.330653
   vertex 2100.000000 90.000000 -1480.000000
  endloop
 endfacet
 facet normal 0.189987 0.980785 0.044330
  outer loop
   vertex 1901.440061 89.230038 -577.330653
   vertex 1912.684379 86.933324 -574.706978
   vertex 2122.684379 86.933324 -1474.706978
  endloop
 endfacet
 facet normal 0.189987 0.980785 0.044330
  outer loop
   vertex 1901.440061 89.230038 -577.330653
   vertex 2122.684379 86.933324 -1474.706978
   vertex 2111.440061 89.230038 -1477.330653
  endloop
 endfacet
 facet normal 0.313031 0.946930 0.073041
  outer loop
   vertex 1912.684379 86.933324 -574.706978
   vertex 1923.540561 83.149158 -572.173869
   vertex 2133.540561 83.149158 -1472.173869
  endloop
 endfacet
 facet normal 0.313031 0.946930 0.073041
  outer loop
   vertex 1912.684379 86.933324 -574.706978
   vertex 2133.540561 83.149158 -1472.173869
   vertex 2122.684379 86.933324 -1474.706978
  endloop
 endfacet
 facet normal 0.430719 0.896873 0.100501
  outer loop
   vertex 1923.540561 83.149158 -572.173869
   vertex 1933.822854 77.942286 -569.774667
   vertex 2143.822854 77.942286 -1469.774667
  endloop
 endfacet
 facet normal 0.430719 0.896873 0.100501
  outer loop
   vertex 1923.540561 83.149158 -572.173869
   vertex 2143.822854 77.942286 -1469.774667
   vertex 2133.540561 83.149158 -1472.173869
  endloop
 endfacet
 facet normal 0.541037 0.831470 0.126242
  outer loop
   vertex 1933.822854 77.942286 -569.774667
   vertex 1943.355327 71.401801 -567.550424
   vertex 2153.355327 71.401801 -1467.550424
  endloop
 endfacet
 facet normal 0.541037 0.831470 0.126242
  outer loop
   vertex 1933.822854 77.942286 -569.774667
   vertex 2153.355327 71.401801 -1467.550424
   vertex 2143.822854 77.942286 -1469.774667
  endloop
 endfacet
 facet normal 0.642098 0.751840 0.149823
  outer loop
   vertex 1943.355327 71.401801 -567.550424
   vertex 1951.974875 63.639610 -565.539196
   vertex 2161.974875 63.639610 -1465.539196
  endloop
 endfacet
 facet normal 0.642098 0.751840 0.149823
  outer loop
   vertex 1943.355327 71.401801 -567.550424
   vertex 2161.974875 63.639610 -1465.539196
   vertex 2153.355327 71.401801 -1467.550424
  endloop
 endfacet
 facet normal 0.732173 0.659346 0.170840
  outer loop
   vertex 1951.974875 63.639610 -565.539196
   vertex 1959.534016 54.788529 -563.775396
   vertex 2169.534016 54.788529 -1463.775396
  endloop
 endfacet
 facet normal 0.732173 0.659346 0.170840
  outer loop
   vertex 1951.974875 63.639610 -565.539196
   vertex 2169.534016 54.788529 -1463.775396
   vertex 2161.974875 63.639610 -1465.539196
  endloop
 endfacet
 facet normal 0.809719 0.555570 0.188935
  outer loop
   vertex 1959.534016 54.788529 -563.775396
   vertex 1965.903410 45.000000 -562.289204
   vertex 2175.903410 45.000000 -1462.289204
  endloop
 endfacet
 facet normal 0.809719 0.555570 0.188935
  outer loop
   vertex 1959.534016 54.788529 -563.775396
   vertex 2175.903410 45.000000 -1462.289204
   vertex 2169.534016 54.788529 -1463.775396
  endloop
 endfacet
 facet normal 0.873412 0.442289 0.203796
  outer loop
   vertex 1965.903410 45.000000 -562.289204
   vertex 1970.974077 34.441509 -561.106049
   vertex 2180.974077 34.441509 -1461.106049
  endloop
 endfacet
 facet normal 0.873412 0.442289 0.203796
  outer loop
   vertex 1965.903410 45.000000 -562.289204
   vertex 2180.974077 34.441509 -1461.106049
   vertex 2175.903410 45.000000 -1462.289204
  endloop
 endfacet
 facet normal 0.922160 0.321439 0.215171
  outer loop
   vertex 1970.974077 34.441509 -561.106049
   vertex 1974.659254 23.293714 -560.246174
   vertex 2184.659254 23.293714 -1460.246174
  endloop
 endfacet
 facet normal 0.922160 0.321439 0.215171
  outer loop
   vertex 1970.974077 34.441509 -561.106049
   vertex 2184.659254 23.293714 -1460.246174
   vertex 2180.974077 34.441509 -1461.106049
  endloop
 endfacet
 facet normal 0.955129 0.195090 0.222863
  outer loop
   vertex 1974.659254 23.293714 -560.246174
   vertex 1976.895888 11.747357 -559.724293
   vertex 2186.895888 11.747357 -1459.724293
  endloop
 endfacet
 facet normal 0.955129 0.195090 0.222863
  outer loop
   vertex 1974.659254 23.293714 -560.246174
   vertex 2186.895888 11.747357 -1459.724293
   vertex 2184.659254 23.293714 -1460.246174
  endloop
 endfacet
 facet normal 0.971756 0.065403 0.226743
  outer loop
   vertex 1976.895888 11.747357 -559.724293
   vertex 1977.645709 0.000000 -559.549335
   vertex 2187.645709 0.000000 -1459.549335
  endloop
 endfacet
 facet normal 0.971756 0.065403 0.226743
  outer loop
   vertex 1976.895888 11.747357 -559.724293
   vertex 2187.645709 0.000000 -1459.549335
   vertex 2186.895888 11.747357 -1459.724293
  endloop
 endfacet
 facet normal 0.971756 -0.065403 0.226743
  outer loop
   vertex 1977.645709 0.000000 -559.549335
   vertex 1976.895888 -11.747357 -559.724293
   vertex 2186.895888 -11.747357 -1459.724293
  endloop
 endfacet
 facet normal 0.971756 -0.065403 0.226743
  outer loop
   vertex 1977.645709 0.000000 -559.549335
   vertex 2186.895888 -11.747357 -1459.724293
   vertex 2187.645709 0.000000 -1459.549335
  endloop
 endfacet
 facet normal 0.955129 -0.195090 0.222863
  outer loop
   vertex 1976.895888 -11.747357 -559.724293
   vertex 1974.659254 -23.293714 -560.246174
   vertex 2184.659254 -23.293714 -1460.246174
  endloop
 endfacet
 facet normal 0.955129 -0.195090 0.222863
  outer loop
   vertex 1976.895888 -11.747357 -559.724293
   vertex 2184.659254 -23.293714 -1460.246174
   vertex 2186.895888 -11.747357 -1459.724293
  endloop
 endfacet
 facet normal 0.922160 -0.321439 0.215171
  outer loop
   vertex 1974.659254 -23.293714 -560.246174
   vertex 1970.974077 -34.441509 -561.106049
   vertex 2180.974077 -34.441509 -1461.106049
  endloop
 endfacet
 facet normal 0.922160 -0.321439 0.215171
  outer loop
   vertex 1974.659254 -23.293714 -560.246174
   vertex 2180.974077 -34.441509 -1461.106049
   vertex 2184.659254 -23.293714 -1460.246174
  endloop
 endfacet
 facet normal 0.873412 -0.442289 0.203796
  outer loop
   vertex 1970.974077 -34.441509 -561.106049
   vertex 1965.903410 -45.000000 -562.289204
   vertex 2175.903410 -45.000000 -1462.289204
  endloop
 endfacet
 facet normal 0.873412 -0.442289 0.203796
  outer loop
   vertex 1970.974077 -34.441509 -561.106049
   vertex 2175.903410 -45.000000 -1462.289204
   vertex 2180.974077 -34.441509 -1461.106049
  endloop
 endfacet
 facet normal 0.809719 -0.555570 0.188935
  outer loop
   vertex 1965.903410 -45.000000 -562.289204
   vertex 1959.534016 -54.788529 -563.775396
   vertex 2169.534016 -54.788529 -1463.775396
  endloop
 endfacet
 facet normal 0.809719 -0.555570 0.188935
  outer loop
   vertex 1965.903410 -45.000000 -562.289204
   vertex 2169.534016 -54.788529 -1463.775396
   vertex 2175.903410 -45.000000 -1462.289204
  endloop
 endfacet
 facet normal 0.732173 -0.659346 0.170840
  outer loop
   vertex 1959.534016 -54.788529 -563.775396
   vertex 1951.974875 -63.639610 -565.539196
   vertex 2161.974875 -63.639610 -1465.539196
  endloop
 endfacet
 facet normal 0.732173 -0.659346 0.170840
  outer loop
   vertex 1959.534016 -54.788529 -563.775396
   vertex 2161.974875 -63.639610 -1465.539196
   vertex 2169.534016 -54.788529 -1463.775396
  endloop
 endfacet
 facet normal 0.642098 -0.751840 0.149823
  outer loop
   vertex 1951.974875 -63.639610 -565.539196
   vertex 1943.355327 -71.401801 -567.550424
   vertex 2153.355327 -71.401801 -1467.550424
  endloop
 endfacet
 facet normal 0.642098 -0.751840 0.149823
  outer loop
   vertex 1951.974875 -63.639610 -565.539196
   vertex 2153.355327 -71.401801 -1467.550424
   vertex 2161.974875 -63.639610 -1465.539196
  endloop
 endfacet
 facet normal 0.541037 -0.831470 0.126242
  outer loop
   vertex 1943.355327 -71.401801 -567.550424
   vertex 1933.822854 -77.942286 -569.774667
   vertex 2143.822854 -77.942286 -1469.774667
  endloop
 endfacet
 facet normal 0.541037 -0.831470 0.126242
  outer loop
   vertex 1943.355327 -71.401801 -567.550424
   vertex 2143.822854 -77.942286 -1469.774667
   vertex 2153.355327 -71.401801 -1467.550424
  endloop
 endfacet
 facet normal 0.430719 -0.896873 0.100501
  outer loop
   vertex 1933.822854 -77.942286 -569.774667
   vertex 1923.540561 -83.149158 -572.173869
   vertex 2133.540561 -83.149158 -1472.173869
  endloop
 endfacet
 facet normal 0.430719 -0.896873 0.100501
  outer loop
   vertex 1933.822854 -77.942286 -569.774667
   vertex 2133.540561 -83.149158 -1472.173869
   vertex 2143.822854 -77.942286 -1469.774667
  endloop
 endfacet
 facet normal 0.313031 -0.946930 0.073041
  outer loop
   vertex 1923.540561 -83.149158 -572.173869
   vertex 1912.684379 -86.933324 -574.706978
   vertex 2122.684379 -86.933324 -1474.706978
  endloop
 endfacet
 facet normal 0.313031 -0.946930 0.073041
  outer loop
   vertex 1923.540561 -83.149158 -572.173869
   vertex 2122.684379 -86.933324 -1474.706978
   vertex 2133.540561 -83.149158 -1472.173869
  endloop
 endfacet
 facet normal 0.189987 -0.980785 0.044330
  outer loop
   vertex 1912.684379 -86.933324 -574.706978
   vertex 1901.440061 -89.230038 -577.330653
   vertex 2111.440061 -89.230038 -1477.330653
  endloop
 endfacet
 facet normal 0.189987 -0.980785 0.044330
  outer loop
   vertex 1912.684379 -86.933324 -574.706978
   vertex 2111.440061 -89.230038 -1477.330653
   vertex 2122.684379 -86.933324 -1474.706978
  endloop
 endfacet
 facet normal 0.063692 -0.997859 0.014862
  outer loop
   vertex 1901.440061 -89.230038 -577.330653
   vertex 1890.000000 -90.000000 -580.000000
   vertex 2100.000000 -90.000000 -1480.000000
  endloop
 endfacet
 facet normal 0.063692 -0.997859 0.014862
  outer loop
   vertex 1901.440061 -89.230038 -577.330653
   vertex 2100.000000 -90.000000 -1480.000000
   vertex 2111.440061 -89.230038 -1477.330653
  endloop
 endfacet
 facet normal -0.063692 -0.997859 -0.014862
  outer loop
   vertex 1890.000000 -90.000000 -580.000000
   vertex 1878.559939 -89.230038 -582.669347
   vertex 2088.559939 -89.230038 -1482.669347
  endloop
 endfacet
 facet normal -0.063692 -0.997859 -0.014862
  outer loop
   vertex 1890.000000 -90.000000 -580.000000
   vertex 2088.559939 -89.230038 -1482.669347
   vertex 2100.000000 -90.000000 -1480.000000
  endloop
 endfacet
 facet normal -0.189987 -0.980785 -0.044330
  outer loop
   vertex 1878.559939 -89.230038 -582.669347
   vertex 1867.315621 -86.933324 -585.293022
   vertex 2077.315621 -86.933324 -1485.293022
  endloop
 endfacet
 facet normal -0.189987 -0.980785 -0.044330
  outer loop
   vertex 1878.559939 -89.230038 -582.669347
   vertex 2077.315621 -86.933324 -1485.293022
   vertex 2088.559939 -89.230038 -1482.669347
  endloop
 endfacet
 facet normal -0.313031 -0.946930 -0.073041
  outer loop
   vertex 1867.315621 -86.933324 -585.293022
   vertex 1856.459439 -83.149158 -587.826131
   vertex 2066.459439 -83.149158 -1487.826131
  endloop
 endfacet
 facet normal -0.313031 -0.946930 -0.073041
  outer loop
   vertex 1867.315621 -86.933324 -585.293022
   vertex 2066.459439 -83.149158 -1487.826131
   vertex 2077.315621 -86.933324 -1485.293022
  endloop
 endfacet
 facet normal -0.430719 -0.896873 -0.100501
  outer loop
   vertex 1856.459439 -83.149158 -587.826131
   vertex 1846.177146 -77.942286 -590.225333
   vertex 2056.177146 -77.942286 -1490.225333
  endloop
 endfacet
 facet normal -0.430719 -0.896873 -0.100501
  outer loop
   vertex 1856.459439 -83.149158 -587.826131
   vertex 2056.177146 -77.942286 -1490.225333
   vertex 2066.459439 -83.149158 -1487.826131
  endloop
 endfacet
 facet normal -0.541037 -0.831470 -0.126242
  outer loop
   vertex 1846.177146 -77.942286 -590.225333
   vertex 1836.644673 -71.401801 -592.449576
   vertex 2046.644673 -71.401801 -1492.449576
  endloop
 endfacet
 facet normal -0.541037 -0.831470 -0.126242
  outer loop
   vertex 1846.177146 -77.942286 -590.225333
   vertex 2046.644673 -71.401801 -1492.449576
   vertex 2056.177146 -77.942286 -1490.225333
  endloop
 endfacet
 facet normal -0.642098 -0.751840 -0.149823
  outer loop
   vertex 1836.644673 -71.401801 -592.449576
   vertex 1828.025125 -63.639610 -594.460804
   vertex 2038.025125 -63.639610 -1494.460804
  endloop
 endfacet
 facet normal -0.642098 -0.751840 -0.149823
  outer loop
   vertex 1836.644673 -71.401801 -592.449576
   vertex 2038.025125 -63.639610 -1494.460804
   vertex 2046.644673 -71.401801 -1492.449576
  endloop
 endfacet
 facet normal -0.732173 -0.659346 -0.170840
  outer loop
   vertex 1828.025125 -63.639610 -594.460804
   vertex 1820.465984 -54.788529 -596.224604
   vertex 2030.465984 -54.788529 -1496.224604
  endloop
 endfacet
 facet normal -0.732173 -0.659346 -0.170840
  outer loop
   vertex 1828.025125 -63.639610 -594.460804
   vertex 2030.465984 -54.788529 -1496.224604
   vertex 2038.025125 -63.639610 -1494.460804
  endloop
 endfacet
 facet normal -0.809719 -0.555570 -0.188935
  outer loop
   vertex 1820.465984 -54.788529 -596.224604
   vertex 1814.096590 -45.000000 -597.710796
   vertex 2024.096590 -45.000000 -1497.710796
  endloop
 endfacet
 facet normal -0.809719 -0.555570 -0.188935
  outer loop
   vertex 1820.465984 -54.788529 -596.224604
   vertex 2024.096590 -45.000000 -1497.710796
   vertex 2030.465984 -54.788529 -1496.224604
  endloop
 endfacet
 facet normal -0.873412 -0.442289 -0.203796
  outer loop
   vertex 1814.096590 -45.000000 -597.710796
   vertex 1809.025923 -34.441509 -598.893951
   vertex 2019.025923 -34.441509 -1498.893951
  endloop
 endfacet
 facet normal -0.873412 -0.442289 -0.203796
  outer loop
   vertex 1814.096590 -45.000000 -597.710796
   vertex 2019.025923 -34.441509 -1498.893951
   vertex 2024.096590 -45.000000 -1497.710796
  endloop
 endfacet
 facet normal -0.922160 -0.321439 -0.215171
  outer loop
   vertex 1809.025923 -34.441509 -598.893951
   vertex 1805.340746 -23.293714 -599.753826
   vertex 2015.340746 -23.293714 -1499.753826
  endloop
 endfacet
 facet normal -0.922160 -0.321439 -0.215171
  outer loop
   vertex 1809.025923 -34.441509 -598.893951
   vertex 2015.340746 -23.293714 -1499.753826
   vertex 2019.025923 -34.441509 -1498.893951
  endloop
 endfacet
 facet normal -0.955129 -0.195090 -0.222863
  outer loop
   vertex 1805.340746 -23.293714 -599.753826
   vertex 1803.104112 -11.747357 -600.275707
   vertex 2013.104112 -11.747357 -1500.275707
  endloop
 endfacet
 facet normal -0.955129 -0.195090 -0.222863
  outer loop
   vertex 1805.340746 -23.293714 -599.753826
   vertex 2013.104112 -11.747357 -1500.275707
   vertex 2015.340746 -23.293714 -1499.753826
  endloop
 endfacet
 facet normal -0.971756 -0.065403 -0.226743
  outer loop
   vertex 1803.104112 -11.747357 -600.275707
   vertex 1802.354291 -0.000000 -600.450665
   vertex 2012.354291 -0.000000 -1500.450665
  endloop
 endfacet
 facet normal -0.971756 -0.065403 -0.226743
  outer loop
   vertex 1803.104112 -11.747357 -600.275707
   vertex 2012.354291 -0.000000 -1500.450665
   vertex 2013.104112 -11.747357 -1500.275707
  endloop
 endfacet
 facet normal -0.971756 0.065403 -0.226743
  outer loop
   vertex 1802.354291 -0.000000 -600.450665
   vertex 1803.104112 11.747357 -600.275707
   vertex 2013.104112 11.747357 -1500.275707
  endloop
 endfacet
 facet normal -0.971756 0.065403 -0.226743
  outer loop
   vertex 1802.354291 -0.000000 -600.450665
   vertex 2013.104112 11.747357 -1500.275707
   vertex 2012.354291 -0.000000 -1500.450665
  endloop
 endfacet
 facet normal -0.955129 0.195090 -0.222863
  outer loop
   vertex 1803.104112 11.747357 -600.275707
   vertex 1805.340746 23.293714 -599.753826
   vertex 2015.340746 23.293714 -1499.753826
  endloop
 endfacet
 facet normal -0.955129 0.195090 -0.222863
  outer loop
   vertex 1803.104112 11.747357 -600.275707
   vertex 2015.340746 23.293714 -1499.753826
   vertex 2013.104112 11.747357 -1500.275707
  endloop
 endfacet
 facet normal -0.922160 0.321439 -0.215171
  outer loop
   vertex 1805.340746 23.293714 -599.753826
   vertex 1809.025923 34.441509 -598.893951
   vertex 2019.025923 34.441509 -1498.893951
  endloop
 endfacet
 facet normal -0.922160 0.321439 -0.215171
  outer loop
   vertex 1805.340746 23.293714 -599.753826
   vertex 2019.025923 34.441509 -1498.893951
   vertex 2015.340746 23.293714 -1499.753826
  endloop
 endfacet
 facet normal -0.873412 0.442289 -0.203796
  outer loop
   vertex 1809.025923 34.441509 -598.893951
   vertex 1814.096590 45.000000 -597.710796
   vertex 2024.096590 45.000000 -1497.710796
  endloop
 endfacet
 facet normal -0.873412 0.442289 -0.203796
  outer loop
   vertex 1809.025923 34.441509 -598.893951
   vertex 2024.096590 45.000000 -1497.710796
   vertex 2019.025923 34.441509 -1498.893951
  endloop
 endfacet
 facet normal -0.809719 0.555570 -0.188935
  outer loop
   vertex 1814.096590 45.000000 -597.710796
   vertex 1820.465984 54.788529 -596.224604
   vertex 2030.465984 54.788529 -1496.224604
  endloop
 endfacet
 facet normal -0.809719 0.555570 -0.188935
  outer loop
   vertex 1814.096590 45.000000 -597.710796
   vertex 2030.465984 54.788529 -1496.224604
   vertex 2024.096590 45.000000 -1497.710796
  endloop
 endfacet
 facet normal -0.732173 0.659346 -0.170840
  outer loop
   vertex 1820.465984 54.788529 -596.224604
   vertex 1828.025125 63.639610 -594.460804
   vertex 2038.025125 63.639610 -1494.460804
  endloop
 endfacet
 facet normal -0.732173 0.659346 -0.170840
  outer loop
   vertex 1820.465984 54.788529 -596.224604
   vertex 2038.025125 63.639610 -1494.460804
   vertex 2030.465984 54.788529 -1496.224604
  endloop
 endfacet
 facet normal -0.642098 0.751840 -0.149823
  outer loop
   vertex 1828.025125 63.639610 -594.460804
   vertex 1836.644673 71.401801 -592.449576
   vertex 2046.644673 71.401801 -1492.449576
  endloop
 endfacet
 facet normal -0.642098 0.751840 -0.149823
  outer loop
   vertex 1828.025125 63.639610 -594.460804
   vertex 2046.644673 71.401801 -1492.449576
   vertex 2038.025125 63.639610 -1494.460804
  endloop
 endfacet
 facet normal -0.541037 0.831470 -0.126242
  outer loop
   vertex 1836.644673 71.401801 -592.449576
   vertex 1846.177146 77.942286 -590.225333
   vertex 2056.177146 77.942286 -1490.225333
  endloop
 endfacet
 facet normal -0.541037 0.831470 -0.126242
  outer loop
   vertex 1836.644673 71.401801 -592.449576
   vertex 2056.177146 77.942286 -1490.225333
   vertex 2046.644673 71.401801 -1492.449576
  endloop
 endfacet
 facet normal -0.430719 0.896873 -0.100501
  outer loop
   vertex 1846.177146 77.942286 -590.225333
   vertex 1856.459439 83.149158 -587.826131
   vertex 2066.459439 83.149158 -1487.826131
  endloop
 endfacet
 facet normal -0.430719 0.896873 -0.100501
  outer loop
   vertex 1846.177146 77.942286 -590.225333
   vertex 2066.459439 83.149158 -1487.826131
   vertex 2056.177146 77.942286 -1490.225333
  endloop
 endfacet
 facet normal -0.313031 0.946930 -0.073041
  outer loop
   vertex 1856.459439 83.149158 -587.826131
   vertex 1867.315621 86.933324 -585.293022
   vertex 2077.315621 86.933324 -1485.293022
  endloop
 endfacet
 facet normal -0.313031 0.946930 -0.073041
  outer loop
   vertex 1856.459439 83.149158 -587.826131
   vertex 2077.315621 86.933324 -1485.293022
   vertex 2066.459439 83.149158 -1487.826131
  endloop
 endfacet
 facet normal -0.189987 0.980785 -0.044330
  outer loop
   vertex 1867.315621 86.933324 -585.293022
   vertex 1878.559939 89.230038 -582.669347
   vertex 2088.559939 89.230038 -1482.669347
  endloop
 endfacet
 facet normal -0.189987 0.980785 -0.044330
  outer loop
   vertex 1867.315621 86.933324 -585.293022
   vertex 2088.559939 89.230038 -1482.669347
   vertex 2077.315621 86.933324 -1485.293022
  endloop
 endfacet
 facet normal -0.063692 0.997859 -0.014862
  outer loop
   vertex 1878.559939 89.230038 -582.669347
   vertex 1890.000000 90.000000 -580.000000
   vertex 2100.000000 90.000000 -1480.000000
  endloop
 endfacet
 facet normal -0.063692 0.997859 -0.014862
  outer loop
   vertex 1878.559939 89.230038 -582.669347
   vertex 2100.000000 90.000000 -1480.000000
   vertex 2088.559939 89.230038 -1482.669347
  endloop
 endfacet
 facet normal -0.063692 -0.997859 -0.014862
  outer loop
   vertex 2110.168943 79.315589 -1477.627247
   vertex 1900.168943 79.315589 -577.627247
   vertex 1890.000000 80.000000 -580.000000
  endloop
 endfacet
 facet normal -0.063692 -0.997859 -0.014862
  outer loop
   vertex 2100.000000 80.000000 -1480.000000
   vertex 2110.168943 79.315589 -1477.627247
   vertex 1890.000000 80.000000 -580.000000
  endloop
 endfacet
 facet normal -0.189987 -0.980785 -0.044330
  outer loop
   vertex 2120.163892 77.274066 -1475.295092
   vertex 1910.163892 77.274066 -575.295092
   vertex 1900.168943 79.315589 -577.627247
  endloop
 endfacet
 facet normal -0.189987 -0.980785 -0.044330
  outer loop
   vertex 2110.168943 79.315589 -1477.627247
   vertex 2120.163892 77.274066 -1475.295092
   vertex 1900.168943 79.315589 -577.627247
  endloop
 endfacet
 facet normal -0.313031 -0.946930 -0.073041
  outer loop
   vertex 2129.813832 73.910363 -1473.043439
   vertex 1919.813832 73.910363 -573.043439
   vertex 1910.163892 77.274066 -575.295092
  endloop
 endfacet
 facet normal -0.313031 -0.946930 -0.073041
  outer loop
   vertex 2120.163892 77.274066 -1475.295092
   vertex 2129.813832 73.910363 -1473.043439
   vertex 1910.163892 77.274066 -575.295092
  endloop
 endfacet
 facet normal -0.430719 -0.896873 -0.100501
  outer loop
   vertex 2138.953648 69.282032 -1470.910815
   vertex 1928.953648 69.282032 -570.910815
   vertex 1919.813832 73.910363 -573.043439
  endloop
 endfacet
 facet normal -0.430719 -0.896873 -0.100501
  outer loop
   vertex 2129.813832 73.910363 -1473.043439
   vertex 2138.953648 69.282032 -1470.910815
   vertex 1919.813832 73.910363 -573.043439
  endloop
 endfacet
 facet normal -0.541037 -0.831470 -0.126242
  outer loop
   vertex 2147.426957 63.468267 -1468.933710
   vertex 1937.426957 63.468267 -568.933710
   vertex 1928.953648 69.282032 -570.910815
  endloop
 endfacet
 facet normal -0.541037 -0.831470 -0.126242
  outer loop
   vertex 2138.953648 69.282032 -1470.910815
   vertex 2147.426957 63.468267 -1468.933710
   vertex 1928.953648 69.282032 -570.910815
  endloop
 endfacet
 facet normal -0.642098 -0.751840 -0.149823
  outer loop
   vertex 2155.088778 56.568542 -1467.145952
   vertex 1945.088778 56.568542 -567.145952
   vertex 1937.426957 63.468267 -568.933710
  endloop
 endfacet
 facet normal -0.642098 -0.751840 -0.149823
  outer loop
   vertex 2147.426957 63.468267 -1468.933710
   vertex 2155.088778 56.568542 -1467.145952
   vertex 1937.426957 63.468267 -568.933710
  endloop
 endfacet
 facet normal -0.732173 -0.659346 -0.170840
  outer loop
   vertex 2161.808014 48.700914 -1465.578130
   vertex 1951.808014 48.700914 -565.578130
   vertex 1945.088778 56.568542 -567.145952
  endloop
 endfacet
 facet normal -0.732173 -0.659346 -0.170840
  outer loop
   vertex 2155.088778 56.568542 -1467.145952
   vertex 2161.808014 48.700914 -1465.578130
   vertex 1945.088778 56.568542 -567.145952
  endloop
 endfacet
 facet normal -0.809719 -0.555570 -0.188935
  outer loop
   vertex 2167.469698 40.000000 -1464.257070
   vertex 1957.469698 40.000000 -564.257070
   vertex 1951.808014 48.700914 -565.578130
  endloop
 endfacet
 facet normal -0.809719 -0.555570 -0.188935
  outer loop
   vertex 2161.808014 48.700914 -1465.578130
   vertex 2167.469698 40.000000 -1464.257070
   vertex 1951.808014 48.700914 -565.578130
  endloop
 endfacet
 facet normal -0.873412 -0.442289 -0.203796
  outer loop
   vertex 2171.976957 30.614675 -1463.205377
   vertex 1961.976957 30.614675 -563.205377
   vertex 1957.469698 40.000000 -564.257070
  endloop
 endfacet
 facet normal -0.873412 -0.442289 -0.203796
  outer loop
   vertex 2167.469698 40.000000 -1464.257070
   vertex 2171.976957 30.614675 -1463.205377
   vertex 1957.469698 40.000000 -564.257070
  endloop
 endfacet
 facet normal -0.922160 -0.321439 -0.215171
  outer loop
   vertex 2175.252670 20.705524 -1462.441044
   vertex 1965.252670 20.705524 -562.441044
   vertex 1961.976957 30.614675 -563.205377
  endloop
 endfacet
 facet normal -0.922160 -0.321439 -0.215171
  outer loop
   vertex 2171.976957 30.614675 -1463.205377
   vertex 2175.252670 20.705524 -1462.441044
   vertex 1961.976957 30.614675 -563.205377
  endloop
 endfacet
 facet normal -0.955129 -0.195090 -0.222863
  outer loop
   vertex 2177.240789 10.442095 -1461.977149
   vertex 1967.240789 10.442095 -561.977149
   vertex 1965.252670 20.705524 -562.441044
  endloop
 endfacet
 facet normal -0.955129 -0.195090 -0.222863
  outer loop
   vertex 2175.252670 20.705524 -1462.441044
   vertex 2177.240789 10.442095 -1461.977149
   vertex 1965.252670 20.705524 -562.441044
  endloop
 endfacet
 facet normal -0.971756 -0.065403 -0.226743
  outer loop
   vertex 2177.907297 0.000000 -1461.821631
   vertex 1967.907297 0.000000 -561.821631
   vertex 1967.240789 10.442095 -561.977149
  endloop
 endfacet
 facet normal -0.971756 -0.065403 -0.226743
  outer loop
   vertex 2177.240789 10.442095 -1461.977149
   vertex 2177.907297 0.000000 -1461.821631
   vertex 1967.240789 10.442095 -561.977149
  endloop
 endfacet
 facet normal -0.971756 0.065403 -0.226743
  outer loop
   vertex 2177.240789 -10.442095 -1461.977149
   vertex 1967.240789 -10.442095 -561.977149
   vertex 1967.907297 0.000000 -561.821631
  endloop
 endfacet
 facet normal -0.971756 0.065403 -0.226743
  outer loop
   vertex 2177.907297 0.000000 -1461.821631
   vertex 2177.240789 -10.442095 -1461.977149
   vertex 1967.907297 0.000000 -561.821631
  endloop
 endfacet
 facet normal -0.955129 0.195090 -0.222863
  outer loop
   vertex 2175.252670 -20.705524 -1462.441044
   vertex 1965.252670 -20.705524 -562.441044
   vertex 1967.240789 -10.442095 -561.977149
  endloop
 endfacet
 facet normal -0.955129 0.195090 -0.222863
  outer loop
   vertex 2177.240789 -10.442095 -1461.977149
   vertex 2175.252670 -20.705524 -1462.441044
   vertex 1967.240789 -10.442095 -561.977149
  endloop
 endfacet
 facet normal -0.922160 0.321439 -0.215171
  outer loop
   vertex 2171.976957 -30.614675 -1463.205377
   vertex 1961.976957 -30.614675 -563.205377
   vertex 1965.252670 -20.705524 -562.441044
  endloop
 endfacet
 facet normal -0.922160 0.321439 -0.215171
  outer loop
   vertex 2175.252670 -20.705524 -1462.441044
   vertex 2171.976957 -30.614675 -1463.205377
   vertex 1965.252670 -20.705524 -562.441044
  endloop
 endfacet
 facet normal -0.873412 0.442289 -0.203796
  outer loop
   vertex 2167.469698 -40.000000 -1464.257070
   vertex 1957.469698 -40.000000 -564.257070
   vertex 1961.976957 -30.614675 -563.205377
  endloop
 endfacet
 facet normal -0.873412 0.442289 -0.203796
  outer loop
   vertex 2171.976957 -30.614675 -1463.205377
   vertex 2167.469698 -40.000000 -1464.257070
   vertex 1961.976957 -30.614675 -563.205377
  endloop
 endfacet
 facet normal -0.809719 0.555570 -0.188935
  outer loop
   vertex 2161.808014 -48.700914 -1465.578130
   vertex 1951.808014 -48.700914 -565.578130
   vertex 1957.469698 -40.000000 -564.257070
  endloop
 endfacet
 facet normal -0.809719 0.555570 -0.188935
  outer loop
   vertex 2167.469698 -40.000000 -1464.257070
   vertex 2161.808014 -48.700914 -1465.578130
   vertex 1957.469698 -40.000000 -564.257070
  endloop
 endfacet
 facet normal -0.732173 0.659346 -0.170840
  outer loop
   vertex 2155.088778 -56.568542 -1467.145952
   vertex 1945.088778 -56.568542 -567.145952
   vertex 1951.808014 -48.700914 -565.578130
  endloop
 endfacet
 facet normal -0.732173 0.659346 -0.170840
  outer loop
   vertex 2161.808014 -48.700914 -1465.578130
   vertex 2155.088778 -56.568542 -1467.145952
   vertex 1951.808014 -48.700914 -565.578130
  endloop
 endfacet
 facet normal -0.642098 0.751840 -0.149823
  outer loop
   vertex 2147.426957 -63.468267 -1468.933710
   vertex 1937.426957 -63.468267 -568.933710
   vertex 1945.088778 -56.568542 -567.145952
  endloop
 endfacet
 facet normal -0.642098 0.751840 -0.149823
  outer loop
   vertex 2155.088778 -56.568542 -1467.145952
   vertex 2147.426957 -63.468267 -1468.933710
   vertex 1945.088778 -56.568542 -567.145952
  endloop
 endfacet
 facet normal -0.541037 0.831470 -0.126242
  outer loop
   vertex 2138.953648 -69.282032 -1470.910815
   vertex 1928.953648 -69.282032 -570.910815
   vertex 1937.426957 -63.468267 -568.933710
  endloop
 endfacet
 facet normal -0.541037 0.831470 -0.126242
  outer loop
   vertex 2147.426957 -63.468267 -1468.933710
   vertex 2138.953648 -69.282032 -1470.910815
   vertex 1937.426957 -63.468267 -568.933710
  endloop
 endfacet
 facet normal -0.430719 0.896873 -0.100501
  outer loop
   vertex 2129.813832 -73.910363 -1473.043439
   vertex 1919.813832 -73.910363 -573.043439
   vertex 1928.953648 -69.282032 -570.910815
  endloop
 endfacet
 facet normal -0.430719 0.896873 -0.100501
  outer loop
   vertex 2138.953648 -69.282032 -1470.910815
   vertex 2129.813832 -73.910363 -1473.043439
   vertex 1928.953648 -69.282032 -570.910815
  endloop
 endfacet
 facet normal -0.313031 0.946930 -0.073041
  outer loop
   vertex 2120.163892 -77.274066 -1475.295092
   vertex 1910.163892 -77.274066 -575.295092
   vertex 1919.813832 -73.910363 -573.043439
  endloop
 endfacet
 facet normal -0.313031 0.946930 -0.073041
  outer loop
   vertex 2129.813832 -73.910363 -1473.043439
   vertex 2120.163892 -77.274066 -1475.295092
   vertex 1919.813832 -73.910363 -573.043439
  endloop
 endfacet
 facet normal -0.189987 0.980785 -0.044330
  outer loop
   vertex 2110.168943 -79.315589 -1477.627247
   vertex 1900.168943 -79.315589 -577.627247
   vertex 1910.163892 -77.274066 -575.295092
  endloop
 endfacet
 facet normal -0.189987 0.980785 -0.044330
  outer loop
   vertex 2120.163892 -77.274066 -1475.295092
   vertex 2110.168943 -79.315589 -1477.627247
   vertex 1910.163892 -77.274066 -575.295092
  endloop
 endfacet
 facet normal -0.063692 0.997859 -0.014862
  outer loop
   vertex 2100.000000 -80.000000 -1480.000000
   vertex 1890.000000 -80.000000 -580.000000
   vertex 1900.168943 -79.315589 -577.627247
  endloop
 endfacet
 facet normal -0.063692 0.997859 -0.014862
  outer loop
   vertex 2110.168943 -79.315589 -1477.627247
   vertex 2100.000000 -80.000000 -1480.000000
   vertex 1900.168943 -79.315589 -577.627247
  endloop
 endfacet
 facet normal 0.063692 0.997859 0.014862
  outer loop
   vertex 2089.831057 -79.315589 -1482.372753
   vertex 1879.831057 -79.315589 -582.372753
   vertex 1890.000000 -80.000000 -580.000000
  endloop
 endfacet
 facet normal 0.063692 0.997859 0.014862
  outer loop
   vertex 2100.000000 -80.000000 -1480.000000
   vertex 2089.831057 -79.315589 -1482.372753
   vertex 1890.000000 -80.000000 -580.000000
  endloop
 endfacet
 facet normal 0.189987 0.980785 0.044330
  outer loop
   vertex 2079.836108 -77.274066 -1484.704908
   vertex 1869.836108 -77.274066 -584.704908
   vertex 1879.831057 -79.315589 -582.372753
  endloop
 endfacet
 facet normal 0.189987 0.980785 0.044330
  outer loop
   vertex 2089.831057 -79.315589 -1482.372753
   vertex 2079.836108 -77.274066 -1484.704908
   vertex 1879.831057 -79.315589 -582.372753
  endloop
 endfacet
 facet normal 0.313031 0.946930 0.073041
  outer loop
   vertex 2070.186168 -73.910363 -1486.956561
   vertex 1860.186168 -73.910363 -586.956561
   vertex 1869.836108 -77.274066 -584.704908
  endloop
 endfacet
 facet normal 0.313031 0.946930 0.073041
  outer loop
   vertex 2079.836108 -77.274066 -1484.704908
   vertex 2070.186168 -73.910363 -1486.956561
   vertex 1869.836108 -77.274066 -584.704908
  endloop
 endfacet
 facet normal 0.430719 0.896873 0.100501
  outer loop
   vertex 2061.046352 -69.282032 -1489.089185
   vertex 1851.046352 -69.282032 -589.089185
   vertex 1860.186168 -73.910363 -586.956561
  endloop
 endfacet
 facet normal 0.430719 0.896873 0.100501
  outer loop
   vertex 2070.186168 -73.910363 -1486.956561
   vertex 2061.046352 -69.282032 -1489.089185
   vertex 1860.186168 -73.910363 -586.956561
  endloop
 endfacet
 facet normal 0.541037 0.831470 0.126242
  outer loop
   vertex 2052.573043 -63.468267 -1491.066290
   vertex 1842.573043 -63.468267 -591.066290
   vertex 1851.046352 -69.282032 -589.089185
  endloop
 endfacet
 facet normal 0.541037 0.831470 0.126242
  outer loop
   vertex 2061.046352 -69.282032 -1489.089185
   vertex 2052.573043 -63.468267 -1491.066290
   vertex 1851.046352 -69.282032 -589.089185
  endloop
 endfacet
 facet normal 0.642098 0.751840 0.149823
  outer loop
   vertex 2044.911222 -56.568542 -1492.854048
   vertex 1834.911222 -56.568542 -592.854048
   vertex 1842.573043 -63.468267 -591.066290
  endloop
 endfacet
 facet normal 0.642098 0.751840 0.149823
  outer loop
   vertex 2052.573043 -63.468267 -1491.066290
   vertex 2044.911222 -56.568542 -1492.854048
   vertex 1842.573043 -63.468267 -591.066290
  endloop
 endfacet
 facet normal 0.732173 0.659346 0.170840
  outer loop
   vertex 2038.191986 -48.700914 -1494.421870
   vertex 1828.191986 -48.700914 -594.421870
   vertex 1834.911222 -56.568542 -592.854048
  endloop
 endfacet
 facet normal 0.732173 0.659346 0.170840
  outer loop
   vertex 2044.911222 -56.568542 -1492.854048
   vertex 2038.191986 -48.700914 -1494.421870
   vertex 1834.911222 -56.568542 -592.854048
  endloop
 endfacet
 facet normal 0.809719 0.555570 0.188935
  outer loop
   vertex 2032.530302 -40.000000 -1495.742930
   vertex 1822.530302 -40.000000 -595.742930
   vertex 1828.191986 -48.700914 -594.421870
  endloop
 endfacet
 facet normal 0.809719 0.555570 0.188935
  outer loop
   vertex 2038.191986 -48.700914 -1494.421870
   vertex 2032.530302 -40.000000 -1495.742930
   vertex 1828.191986 -48.700914 -594.421870
  endloop
 endfacet
 facet normal 0.873412 0.442289 0.203796
  outer loop
   vertex 2028.023043 -30.614675 -1496.794623
   vertex 1818.023043 -30.614675 -596.794623
   vertex 1822.530302 -40.000000 -595.742930
  endloop
 endfacet
 facet normal 0.873412 0.442289 0.203796
  outer loop
   vertex 2032.530302 -40.000000 -1495.742930
   vertex 2028.023043 -30.614675 -1496.794623
   vertex 1822.530302 -40.000000 -595.742930
  endloop
 endfacet
 facet normal 0.922160 0.321439 0.215171
  outer loop
   vertex 2024.747330 -20.705524 -1497.558956
   vertex 1814.747330 -20.705524 -597.558956
   vertex 1818.023043 -30.614675 -596.794623
  endloop
 endfacet
 facet normal 0.922160 0.321439 0.215171
  outer loop
   vertex 2028.023043 -30.614675 -1496.794623
   vertex 2024.747330 -20.705524 -1497.558956
   vertex 1818.023043 -30.614675 -596.794623
  endloop
 endfacet
 facet normal 0.955129 0.195090 0.222863
  outer loop
   vertex 2022.759211 -10.442095 -1498.022851
   vertex 1812.759211 -10.442095 -598.022851
   vertex 1814.747330 -20.705524 -597.558956
  endloop
 endfacet
 facet normal 0.955129 0.195090 0.222863
  outer loop
   vertex 2024.747330 -20.705524 -1497.558956
   vertex 2022.759211 -10.442095 -1498.022851
   vertex 1814.747330 -20.705524 -597.558956
  endloop
 endfacet
 facet normal 0.971756 0.065403 0.226743
  outer loop
   vertex 2022.092703 -0.000000 -1498.178369
   vertex 1812.092703 -0.000000 -598.178369
   vertex 1812.759211 -10.442095 -598.022851
  endloop
 endfacet
 facet normal 0.971756 0.065403 0.226743
  outer loop
   vertex 2022.759211 -10.442095 -1498.022851
   vertex 2022.092703 -0.000000 -1498.178369
   vertex 1812.759211 -10.442095 -598.022851
  endloop
 endfacet
 facet normal 0.971756 -0.065403 0.226743
  outer loop
   vertex 2022.759211 10.442095 -1498.022851
   vertex 1812.759211 10.442095 -598.022851
   vertex 1812.092703 -0.000000 -598.178369
  endloop
 endfacet
 facet normal 0.971756 -0.065403 0.226743
  outer loop
   vertex 2022.092703 -0.000000 -1498.178369
   vertex 2022.759211 10.442095 -1498.022851
   vertex 1812.092703 -0.000000 -598.178369
  endloop
 endfacet
 facet normal 0.955129 -0.195090 0.222863
  outer loop
   vertex 2024.747330 20.705524 -1497.558956
   vertex 1814.747330 20.705524 -597.558956
   vertex 1812.759211 10.442095 -598.022851
  endloop
 endfacet
 facet normal 0.955129 -0.195090 0.222863
  outer loop
   vertex 2022.759211 10.442095 -1498.022851
   vertex 2024.747330 20.705524 -1497.558956
   vertex 1812.759211 10.442095 -598.022851
  endloop
 endfacet
 facet normal 0.922160 -0.321439 0.215171
  outer loop
   vertex 2028.023043 30.614675 -1496.794623
   vertex 1818.023043 30.614675 -596.794623
   vertex 1814.747330 20.705524 -597.558956
  endloop
 endfacet
 facet normal 0.922160 -0.321439 0.215171
  outer loop
   vertex 2024.747330 20.705524 -1497.558956
   vertex 2028.023043 30.614675 -1496.794623
   vertex 1814.747330 20.705524 -597.558956
  endloop
 endfacet
 facet normal 0.873412 -0.442289 0.203796
  outer loop
   vertex 2032.530302 40.000000 -1495.742930
   vertex 1822.530302 40.000000 -595.742930
   vertex 1818.023043 30.614675 -596.794623
  endloop
 endfacet
 facet normal 0.873412 -0.442289 0.203796
  outer loop
   vertex 2028.023043 30.614675 -1496.794623
   vertex 2032.530302 40.000000 -1495.742930
   vertex 1818.023043 30.614675 -596.794623
  endloop
 endfacet
 facet normal 0.809719 -0.555570 0.188935
  outer loop
   vertex 2038.191986 48.700914 -1494.421870
   vertex 1828.191986 48.700914 -594.421870
   vertex 1822.530302 40.000000 -595.742930
  endloop
 endfacet
 facet normal 0.809719 -0.555570 0.188935
  outer loop
   vertex 2032.530302 40.000000 -1495.742930
   vertex 2038.191986 48.700914 -1494.421870
   vertex 1822.530302 40.000000 -595.742930
  endloop
 endfacet
 facet normal 0.732173 -0.659346 0.170840
  outer loop
   vertex 2044.911222 56.568542 -1492.854048
   vertex 1834.911222 56.568542 -592.854048
   vertex 1828.191986 48.700914 -594.421870
  endloop
 endfacet
 facet normal 0.732173 -0.659346 0.170840
  outer loop
   vertex 2038.191986 48.700914 -1494.421870
   vertex 2044.911222 56.568542 -1492.854048
   vertex 1828.191986 48.700914 -594.421870
  endloop
 endfacet
 facet normal 0.642098 -0.751840 0.149823
  outer loop
   vertex 2052.573043 63.468267 -1491.066290
   vertex 1842.573043 63.468267 -591.066290
   vertex 1834.911222 56.568542 -592.854048
  endloop
 endfacet
 facet normal 0.642098 -0.751840 0.149823
  outer loop
   vertex 2044.911222 56.568542 -1492.854048
   vertex 2052.573043 63.468267 -1491.066290
   vertex 1834.911222 56.568542 -592.854048
  endloop
 endfacet
 facet normal 0.541037 -0.831470 0.126242
  outer loop
   vertex 2061.046352 69.282032 -1489.089185
   vertex 1851.046352 69.282032 -589.089185
   vertex 1842.573043 63.468267 -591.066290
  endloop
 endfacet
 facet normal 0.541037 -0.831470 0.126242
  outer loop
   vertex 2052.573043 63.468267 -1491.066290
   vertex 2061.046352 69.282032 -1489.089185
   vertex 1842.573043 63.468267 -591.066290
  endloop
 endfacet
 facet normal 0.430719 -0.896873 0.100501
  outer loop
   vertex 2070.186168 73.910363 -1486.956561
   vertex 1860.186168 73.910363 -586.956561
   vertex 1851.046352 69.282032 -589.089185
  endloop
 endfacet
 facet normal 0.430719 -0.896873 0.100501
  outer loop
   vertex 2061.046352 69.282032 -1489.089185
   vertex 2070.186168 73.910363 -1486.956561
   vertex 1851.046352 69.282032 -589.089185
  endloop
 endfacet
 facet normal 0.313031 -0.946930 0.073041
  outer loop
   vertex 2079.836108 77.274066 -1484.704908
   vertex 1869.836108 77.274066 -584.704908
   vertex 1860.186168 73.910363 -586.956561
  endloop
 endfacet
 facet normal 0.313031 -0.946930 0.073041
  outer loop
   vertex 2070.186168 73.910363 -1486.956561
   vertex 2079.836108 77.274066 -1484.704908
   vertex 1860.186168 73.910363 -586.956561
  endloop
 endfacet
 facet normal 0.189987 -0.980785 0.044330
  outer loop
   vertex 2089.831057 79.315589 -1482.372753
   vertex 1879.831057 79.315589 -582.372753
   vertex 1869.836108 77.274066 -584.704908
  endloop
 endfacet
 facet normal 0.189987 -0.980785 0.044330
  outer loop
   vertex 2079.836108 77.274066 -1484.704908
   vertex 2089.831057 79.315589 -1482.372753
   vertex 1869.836108 77.274066 -584.704908
  endloop
 endfacet
 facet normal 0.063692 -0.997859 0.014862
  outer loop
   vertex 2100.000000 80.000000 -1480.000000
   vertex 1890.000000 80.000000 -580.000000
   vertex 1879.831057 79.315589 -582.372753
  endloop
 endfacet
 facet normal 0.063692 -0.997859 0.014862
  outer loop
   vertex 2089.831057 79.315589 -1482.372753
   vertex 2100.000000 80.000000 -1480.000000
   vertex 1879.831057 79.315589 -582.372753
  endloop
 endfacet
endsolid SII_LH2_feed_1_drop
