solid SII_LH2_feed_2_valve
 facet normal 0.065403 -0.997859 0.000000
  outer loop
   vertex 2940.000000 -90.000000 -360.000000
   vertex 2951.747357 -89.230038 -360.000000
   vertex 2951.747357 -89.230038 -240.000000
  endloop
 endfacet
 facet normal 0.065403 -0.997859 0.000000
  outer loop
   vertex 2940.000000 -90.000000 -360.000000
   vertex 2951.747357 -89.230038 -240.000000
   vertex 2940.000000 -90.000000 -240.000000
  endloop
 endfacet
 facet normal 0.195090 -0.980785 0.000000
  outer loop
   vertex 2951.747357 -89.230038 -360.000000
   vertex 2963.293714 -86.933324 -360.000000
   vertex 2963.293714 -86.933324 -240.000000
  endloop
 endfacet
 facet normal 0.195090 -0.980785 0.000000
  outer loop
   vertex 2951.747357 -89.230038 -360.000000
   vertex 2963.293714 -86.933324 -240.000000
   vertex 2951.747357 -89.230038 -240.000000
  endloop
 endfacet
 facet normal 0.321439 -0.946930 0.000000
  outer loop
   vertex 2963.293714 -86.933324 -360.000000
   vertex 2974.441509 -83.149158 -360.000000
   vertex 2974.441509 -83.149158 -240.000000
  endloop
 endfacet
 facet normal 0.321439 -0.946930 0.000000
  outer loop
   vertex 2963.293714 -86.933324 -360.000000
   vertex 2974.441509 -83.149158 -240.000000
   vertex 2963.293714 -86.933324 -240.000000
  endloop
 endfacet
 facet normal 0.442289 -0.896873 0.000000
  outer loop
   vertex 2974.441509 -83.149158 -360.000000
   vertex 2985.000000 -77.942286 -360.000000
   vertex 2985.000000 -77.942286 -240.000000
  endloop
 endfacet
 facet normal 0.442289 -0.896873 0.000000
  outer loop
   vertex 2974.441509 -83.149158 -360.000000
   vertex 2985.000000 -77.942286 -240.000000
   vertex 2974.441509 -83.149158 -240.000000
  endloop
 endfacet
 facet normal 0.555570 -0.831470 0.000000
  outer loop
   vertex 2985.000000 -77.942286 -360.000000
   vertex 2994.788529 -71.401801 -360.000000
   vertex 2994.788529 -71.401801 -240.000000
  endloop
 endfacet
 facet normal 0.555570 -0.831470 0.000000
  outer loop
   vertex 2985.000000 -77.942286 -360.000000
   vertex 2994.788529 -71.401801 -240.000000
   vertex 2985.000000 -77.942286 -240.000000
  endloop
 endfacet
 facet normal 0.659346 -0.751840 0.000000
  outer loop
   vertex 2994.788529 -71.401801 -360.000000
   vertex 3003.639610 -63.639610 -360.000000
   vertex 3003.639610 -63.639610 -240.000000
  endloop
 endfacet
 facet normal 0.659346 -0.751840 0.000000
  outer loop
   vertex 2994.788529 -71.401801 -360.000000
   vertex 3003.639610 -63.639610 -240.000000
   vertex 2994.788529 -71.401801 -240.000000
  endloop
 endfacet
 facet normal 0.751840 -0.659346 0.000000
  outer loop
   vertex 3003.639610 -63.639610 -360.000000
   vertex 3011.401801 -54.788529 -360.000000
   vertex 3011.401801 -54.788529 -240.000000
  endloop
 endfacet
 facet normal 0.751840 -0.659346 0.000000
  outer loop
   vertex 3003.639610 -63.639610 -360.000000
   vertex 3011.401801 -54.788529 -240.000000
   vertex 3003.639610 -63.639610 -240.000000
  endloop
 endfacet
 facet normal 0.831470 -0.555570 0.000000
  outer loop
   vertex 3011.401801 -54.788529 -360.000000
   vertex 3017.942286 -45.000000 -360.000000
   vertex 3017.942286 -45.000000 -240.000000
  endloop
 endfacet
 facet normal 0.831470 -0.555570 0.000000
  outer loop
   vertex 3011.401801 -54.788529 -360.000000
   vertex 3017.942286 -45.000000 -240.000000
   vertex 3011.401801 -54.788529 -240.000000
  endloop
 endfacet
 facet normal 0.896873 -0.442289 0.000000
  outer loop
   vertex 3017.942286 -45.000000 -360.000000
   vertex 3023.149158 -34.441509 -360.000000
   vertex 3023.149158 -34.441509 -240.000000
  endloop
 endfacet
 facet normal 0.896873 -0.442289 0.000000
  outer loop
   vertex 3017.942286 -45.000000 -360.000000
   vertex 3023.149158 -34.441509 -240.000000
   vertex 3017.942286 -45.000000 -240.000000
  endloop
 endfacet
 facet normal 0.946930 -0.321439 0.000000
  outer loop
   vertex 3023.149158 -34.441509 -360.000000
   vertex 3026.933324 -23.293714 -360.000000
   vertex 3026.933324 -23.293714 -240.000000
  endloop
 endfacet
 facet normal 0.946930 -0.321439 0.000000
  outer loop
   vertex 3023.149158 -34.441509 -360.000000
   vertex 3026.933324 -23.293714 -240.000000
   vertex 3023.149158 -34.441509 -240.000000
  endloop
 endfacet
 facet normal 0.980785 -0.195090 0.000000
  outer loop
   vertex 3026.933324 -23.293714 -360.000000
   vertex 3029.230038 -11.747357 -360.000000
   vertex 3029.230038 -11.747357 -240.000000
  endloop
 endfacet
 facet normal 0.980785 -0.195090 0.000000
  outer loop
   vertex 3026.933324 -23.293714 -360.000000
   vertex 3029.230038 -11.747357 -240.000000
   vertex 3026.933324 -23.293714 -240.000000
  endloop
 endfacet
 facet normal 0.997859 -0.065403 0.000000
  outer loop
   vertex 3029.230038 -11.747357 -360.000000
   vertex 3030.000000 -0.000000 -360.000000
   vertex 3030.000000 -0.000000 -240.000000
  endloop
 endfacet
 facet normal 0.997859 -0.065403 0.000000
  outer loop
   vertex 3029.230038 -11.747357 -360.000000
   vertex 3030.000000 -0.000000 -240.000000
   vertex 3029.230038 -11.747357 -240.000000
  endloop
 endfacet
 facet normal 0.997859 0.065403 0.000000
  outer loop
   vertex 3030.000000 -0.000000 -360.000000
   vertex 3029.230038 11.747357 -360.000000
   vertex 3029.230038 11.747357 -240.000000
  endloop
 endfacet
 facet normal 0.997859 0.065403 -0.000000
  outer loop
   vertex 3030.000000 -0.000000 -360.000000
   vertex 3029.230038 11.747357 -240.000000
   vertex 3030.000000 -0.000000 -240.000000
  endloop
 endfacet
 facet normal 0.980785 0.195090 0.000000
  outer loop
   vertex 3029.230038 11.747357 -360.000000
   vertex 3026.933324 23.293714 -360.000000
   vertex 3026.933324 23.293714 -240.000000
  endloop
 endfacet
 facet normal 0.980785 0.195090 -0.000000
  outer loop
   vertex 3029.230038 11.747357 -360.000000
   vertex 3026.933324 23.293714 -240.000000
   vertex 3029.230038 11.747357 -240.000000
  endloop
 endfacet
 facet normal 0.946930 0.321439 0.000000
  outer loop
   vertex 3026.933324 23.293714 -360.000000
   vertex 3023.149158 34.441509 -360.000000
   vertex 3023.149158 34.441509 -240.000000
  endloop
 endfacet
 facet normal 0.946930 0.321439 -0.000000
  outer loop
   vertex 3026.933324 23.293714 -360.000000
   vertex 3023.149158 34.441509 -240.000000
   vertex 3026.933324 23.293714 -240.000000
  endloop
 endfacet
 facet normal 0.896873 0.442289 0.000000
  outer loop
   vertex 3023.149158 34.441509 -360.000000
   vertex 3017.942286 45.000000 -360.000000
   vertex 3017.942286 45.000000 -240.000000
  endloop
 endfacet
 facet normal 0.896873 0.442289 -0.000000
  outer loop
   vertex 3023.149158 34.441509 -360.000000
   vertex 3017.942286 45.000000 -240.000000
   vertex 3023.149158 34.441509 -240.000000
  endloop
 endfacet
 facet normal 0.831470 0.555570 0.000000
  outer loop
   vertex 3017.942286 45.000000 -360.000000
   vertex 3011.401801 54.788529 -360.000000
   vertex 3011.401801 54.788529 -240.000000
  endloop
 endfacet
 facet normal 0.831470 0.555570 -0.000000
  outer loop
   vertex 3017.942286 45.000000 -360.000000
   vertex 3011.401801 54.788529 -240.000000
   vertex 3017.942286 45.000000 -240.000000
  endloop
 endfacet
 facet normal 0.751840 0.659346 0.000000
  outer loop
   vertex 3011.401801 54.788529 -360.000000
   vertex 3003.639610 63.639610 -360.000000
   vertex 3003.639610 63.639610 -240.000000
  endloop
 endfacet
 facet normal 0.751840 0.659346 -0.000000
  outer loop
   vertex 3011.401801 54.788529 -360.000000
   vertex 3003.639610 63.639610 -240.000000
   vertex 3011.401801 54.788529 -240.000000
  endloop
 endfacet
 facet normal 0.659346 0.751840 0.000000
  outer loop
   vertex 3003.639610 63.639610 -360.000000
   vertex 2994.788529 71.401801 -360.000000
   vertex 2994.788529 71.401801 -240.000000
  endloop
 endfacet
 facet normal 0.659346 0.751840 -0.000000
  outer loop
   vertex 3003.639610 63.639610 -360.000000
   vertex 2994.788529 71.401801 -240.000000
   vertex 3003.639610 63.639610 -240.000000
  endloop
 endfacet
 facet normal 0.555570 0.831470 0.000000
  outer loop
   vertex 2994.788529 71.401801 -360.000000
   vertex 2985.000000 77.942286 -360.000000
   vertex 2985.000000 77.942286 -240.000000
  endloop
 endfacet
 facet normal 0.555570 0.831470 -0.000000
  outer loop
   vertex 2994.788529 71.401801 -360.000000
   vertex 2985.000000 77.942286 -240.000000
   vertex 2994.788529 71.401801 -240.000000
  endloop
 endfacet
 facet normal 0.442289 0.896873 0.000000
  outer loop
   vertex 2985.000000 77.942286 -360.000000
   vertex 2974.441509 83.149158 -360.000000
   vertex 2974.441509 83.149158 -240.000000
  endloop
 endfacet
 facet normal 0.442289 0.896873 -0.000000
  outer loop
   vertex 2985.000000 77.942286 -360.000000
   vertex 2974.441509 83.149158 -240.000000
   vertex 2985.000000 77.942286 -240.000000
  endloop
 endfacet
 facet normal 0.321439 0.946930 0.000000
  outer loop
   vertex 2974.441509 83.149158 -360.000000
   vertex 2963.293714 86.933324 -360.000000
   vertex 2963.293714 86.933324 -240.000000
  endloop
 endfacet
 facet normal 0.321439 0.946930 -0.000000
  outer loop
   vertex 2974.441509 83.149158 -360.000000
   vertex 2963.293714 86.933324 -240.000000
   vertex 2974.441509 83.149158 -240.000000
  endloop
 endfacet
 facet normal 0.195090 0.980785 0.000000
  outer loop
   vertex 2963.293714 86.933324 -360.000000
   vertex 2951.747357 89.230038 -360.000000
   vertex 2951.747357 89.230038 -240.000000
  endloop
 endfacet
 facet normal 0.195090 0.980785 -0.000000
  outer loop
   vertex 2963.293714 86.933324 -360.000000
   vertex 2951.747357 89.230038 -240.000000
   vertex 2963.293714 86.933324 -240.000000
  endloop
 endfacet
 facet normal 0.065403 0.997859 0.000000
  outer loop
   vertex 2951.747357 89.230038 -360.000000
   vertex 2940.000000 90.000000 -360.000000
   vertex 2940.000000 90.000000 -240.000000
  endloop
 endfacet
 facet normal 0.065403 0.997859 -0.000000
  outer loop
   vertex 2951.747357 89.230038 -360.000000
   vertex 2940.000000 90.000000 -240.000000
   vertex 2951.747357 89.230038 -240.000000
  endloop
 endfacet
 facet normal -0.065403 0.997859 0.000000
  outer loop
   vertex 2940.000000 90.000000 -360.000000
   vertex 2928.252643 89.230038 -360.000000
   vertex 2928.252643 89.230038 -240.000000
  endloop
 endfacet
 facet normal -0.065403 0.997859 0.000000
  outer loop
   vertex 2940.000000 90.000000 -360.000000
   vertex 2928.252643 89.230038 -240.000000
   vertex 2940.000000 90.000000 -240.000000
  endloop
 endfacet
 facet normal -0.195090 0.980785 0.000000
  outer loop
   vertex 2928.252643 89.230038 -360.000000
   vertex 2916.706286 86.933324 -360.000000
   vertex 2916.706286 86.933324 -240.000000
  endloop
 endfacet
 facet normal -0.195090 0.980785 0.000000
  outer loop
   vertex 2928.252643 89.230038 -360.000000
   vertex 2916.706286 86.933324 -240.000000
   vertex 2928.252643 89.230038 -240.000000
  endloop
 endfacet
 facet normal -0.321439 0.946930 0.000000
  outer loop
   vertex 2916.706286 86.933324 -360.000000
   vertex 2905.558491 83.149158 -360.000000
   vertex 2905.558491 83.149158 -240.000000
  endloop
 endfacet
 facet normal -0.321439 0.946930 0.000000
  outer loop
   vertex 2916.706286 86.933324 -360.000000
   vertex 2905.558491 83.149158 -240.000000
   vertex 2916.706286 86.933324 -240.000000
  endloop
 endfacet
 facet normal -0.442289 0.896873 0.000000
  outer loop
   vertex 2905.558491 83.149158 -360.000000
   vertex 2895.000000 77.942286 -360.000000
   vertex 2895.000000 77.942286 -240.000000
  endloop
 endfacet
 facet normal -0.442289 0.896873 0.000000
  outer loop
   vertex 2905.558491 83.149158 -360.000000
   vertex 2895.000000 77.942286 -240.000000
   vertex 2905.558491 83.149158 -240.000000
  endloop
 endfacet
 facet normal -0.555570 0.831470 0.000000
  outer loop
   vertex 2895.000000 77.942286 -360.000000
   vertex 2885.211471 71.401801 -360.000000
   vertex 2885.211471 71.401801 -240.000000
  endloop
 endfacet
 facet normal -0.555570 0.831470 0.000000
  outer loop
   vertex 2895.000000 77.942286 -360.000000
   vertex 2885.211471 71.401801 -240.000000
   vertex 2895.000000 77.942286 -240.000000
  endloop
 endfacet
 facet normal -0.659346 0.751840 0.000000
  outer loop
   vertex 2885.211471 71.401801 -360.000000
   vertex 2876.360390 63.639610 -360.000000
   vertex 2876.360390 63.639610 -240.000000
  endloop
 endfacet
 facet normal -0.659346 0.751840 0.000000
  outer loop
   vertex 2885.211471 71.401801 -360.000000
   vertex 2876.360390 63.639610 -240.000000
   vertex 2885.211471 71.401801 -240.000000
  endloop
 endfacet
 facet normal -0.751840 0.659346 0.000000
  outer loop
   vertex 2876.360390 63.639610 -360.000000
   vertex 2868.598199 54.788529 -360.000000
   vertex 2868.598199 54.788529 -240.000000
  endloop
 endfacet
 facet normal -0.751840 0.659346 0.000000
  outer loop
   vertex 2876.360390 63.639610 -360.000000
   vertex 2868.598199 54.788529 -240.000000
   vertex 2876.360390 63.639610 -240.000000
  endloop
 endfacet
 facet normal -0.831470 0.555570 0.000000
  outer loop
   vertex 2868.598199 54.788529 -360.000000
   vertex 2862.057714 45.000000 -360.000000
   vertex 2862.057714 45.000000 -240.000000
  endloop
 endfacet
 facet normal -0.831470 0.555570 0.000000
  outer loop
   vertex 2868.598199 54.788529 -360.000000
   vertex 2862.057714 45.000000 -240.000000
   vertex 2868.598199 54.788529 -240.000000
  endloop
 endfacet
 facet normal -0.896873 0.442289 0.000000
  outer loop
   vertex 2862.057714 45.000000 -360.000000
   vertex 2856.850842 34.441509 -360.000000
   vertex 2856.850842 34.441509 -240.000000
  endloop
 endfacet
 facet normal -0.896873 0.442289 0.000000
  outer loop
   vertex 2862.057714 45.000000 -360.000000
   vertex 2856.850842 34.441509 -240.000000
   vertex 2862.057714 45.000000 -240.000000
  endloop
 endfacet
 facet normal -0.946930 0.321439 0.000000
  outer loop
   vertex 2856.850842 34.441509 -360.000000
   vertex 2853.066676 23.293714 -360.000000
   vertex 2853.066676 23.293714 -240.000000
  endloop
 endfacet
 facet normal -0.946930 0.321439 0.000000
  outer loop
   vertex 2856.850842 34.441509 -360.000000
   vertex 2853.066676 23.293714 -240.000000
   vertex 2856.850842 34.441509 -240.000000
  endloop
 endfacet
 facet normal -0.980785 0.195090 0.000000
  outer loop
   vertex 2853.066676 23.293714 -360.000000
   vertex 2850.769962 11.747357 -360.000000
   vertex 2850.769962 11.747357 -240.000000
  endloop
 endfacet
 facet normal -0.980785 0.195090 0.000000
  outer loop
   vertex 2853.066676 23.293714 -360.000000
   vertex 2850.769962 11.747357 -240.000000
   vertex 2853.066676 23.293714 -240.000000
  endloop
 endfacet
 facet normal -0.997859 0.065403 0.000000
  outer loop
   vertex 2850.769962 11.747357 -360.000000
   vertex 2850.000000 0.000000 -360.000000
   vertex 2850.000000 0.000000 -240.000000
  endloop
 endfacet
 facet normal -0.997859 0.065403 0.000000
  outer loop
   vertex 2850.769962 11.747357 -360.000000
   vertex 2850.000000 0.000000 -240.000000
   vertex 2850.769962 11.747357 -240.000000
  endloop
 endfacet
 facet normal -0.997859 -0.065403 0.000000
  outer loop
   vertex 2850.000000 0.000000 -360.000000
   vertex 2850.769962 -11.747357 -360.000000
   vertex 2850.769962 -11.747357 -240.000000
  endloop
 endfacet
 facet normal -0.997859 -0.065403 0.000000
  outer loop
   vertex 2850.000000 0.000000 -360.000000
   vertex 2850.769962 -11.747357 -240.000000
   vertex 2850.000000 0.000000 -240.000000
  endloop
 endfacet
 facet normal -0.980785 -0.195090 0.000000
  outer loop
   vertex 2850.769962 -11.747357 -360.000000
   vertex 2853.066676 -23.293714 -360.000000
   vertex 2853.066676 -23.293714 -240.000000
  endloop
 endfacet
 facet normal -0.980785 -0.195090 0.000000
  outer loop
   vertex 2850.769962 -11.747357 -360.000000
   vertex 2853.066676 -23.293714 -240.000000
   vertex 2850.769962 -11.747357 -240.000000
  endloop
 endfacet
 facet normal -0.946930 -0.321439 0.000000
  outer loop
   vertex 2853.066676 -23.293714 -360.000000
   vertex 2856.850842 -34.441509 -360.000000
   vertex 2856.850842 -34.441509 -240.000000
  endloop
 endfacet
 facet normal -0.946930 -0.321439 0.000000
  outer loop
   vertex 2853.066676 -23.293714 -360.000000
   vertex 2856.850842 -34.441509 -240.000000
   vertex 2853.066676 -23.293714 -240.000000
  endloop
 endfacet
 facet normal -0.896873 -0.442289 0.000000
  outer loop
   vertex 2856.850842 -34.441509 -360.000000
   vertex 2862.057714 -45.000000 -360.000000
   vertex 2862.057714 -45.000000 -240.000000
  endloop
 endfacet
 facet normal -0.896873 -0.442289 0.000000
  outer loop
   vertex 2856.850842 -34.441509 -360.000000
   vertex 2862.057714 -45.000000 -240.000000
   vertex 2856.850842 -34.441509 -240.000000
  endloop
 endfacet
 facet normal -0.831470 -0.555570 0.000000
  outer loop
   vertex 2862.057714 -45.000000 -360.000000
   vertex 2868.598199 -54.788529 -360.000000
   vertex 2868.598199 -54.788529 -240.000000
  endloop
 endfacet
 facet normal -0.831470 -0.555570 0.000000
  outer loop
   vertex 2862.057714 -45.000000 -360.000000
   vertex 2868.598199 -54.788529 -240.000000
   vertex 2862.057714 -45.000000 -240.000000
  endloop
 endfacet
 facet normal -0.751840 -0.659346 0.000000
  outer loop
   vertex 2868.598199 -54.788529 -360.000000
   vertex 2876.360390 -63.639610 -360.000000
   vertex 2876.360390 -63.639610 -240.000000
  endloop
 endfacet
 facet normal -0.751840 -0.659346 0.000000
  outer loop
   vertex 2868.598199 -54.788529 -360.000000
   vertex 2876.360390 -63.639610 -240.000000
   vertex 2868.598199 -54.788529 -240.000000
  endloop
 endfacet
 facet normal -0.659346 -0.751840 0.000000
  outer loop
   vertex 2876.360390 -63.639610 -360.000000
   vertex 2885.211471 -71.401801 -360.000000
   vertex 2885.211471 -71.401801 -240.000000
  endloop
 endfacet
 facet normal -0.659346 -0.751840 0.000000
  outer loop
   vertex 2876.360390 -63.639610 -360.000000
   vertex 2885.211471 -71.401801 -240.000000
   vertex 2876.360390 -63.639610 -240.000000
  endloop
 endfacet
 facet normal -0.555570 -0.831470 0.000000
  outer loop
   vertex 2885.211471 -71.401801 -360.000000
   vertex 2895.000000 -77.942286 -360.000000
   vertex 2895.000000 -77.942286 -240.000000
  endloop
 endfacet
 facet normal -0.555570 -0.831470 0.000000
  outer loop
   vertex 2885.211471 -71.401801 -360.000000
   vertex 2895.000000 -77.942286 -240.000000
   vertex 2885.211471 -71.401801 -240.000000
  endloop
 endfacet
 facet normal -0.442289 -0.896873 0.000000
  outer loop
   vertex 2895.000000 -77.942286 -360.000000
   vertex 2905.558491 -83.149158 -360.000000
   vertex 2905.558491 -83.149158 -240.000000
  endloop
 endfacet
 facet normal -0.442289 -0.896873 0.000000
  outer loop
   vertex 2895.000000 -77.942286 -360.000000
   vertex 2905.558491 -83.149158 -240.000000
   vertex 2895.000000 -77.942286 -240.000000
  endloop
 endfacet
 facet normal -0.321439 -0.946930 0.000000
  outer loop
   vertex 2905.558491 -83.149158 -360.000000
   vertex 2916.706286 -86.933324 -360.000000
   vertex 2916.706286 -86.933324 -240.000000
  endloop
 endfacet
 facet normal -0.321439 -0.946930 0.000000
  outer loop
   vertex 2905.558491 -83.149158 -360.000000
   vertex 2916.706286 -86.933324 -240.000000
   vertex 2905.558491 -83.149158 -240.000000
  endloop
 endfacet
 facet normal -0.195090 -0.980785 0.000000
  outer loop
   vertex 2916.706286 -86.933324 -360.000000
   vertex 2928.252643 -89.230038 -360.000000
   vertex 2928.252643 -89.230038 -240.000000
  endloop
 endfacet
 facet normal -0.195090 -0.980785 0.000000
  outer loop
   vertex 2916.706286 -86.933324 -360.000000
   vertex 2928.252643 -89.230038 -240.000000
   vertex 2916.706286 -86.933324 -240.000000
  endloop
 endfacet
 facet normal -0.065403 -0.997859 0.000000
  outer loop
   vertex 2928.252643 -89.230038 -360.000000
   vertex 2940.000000 -90.000000 -360.000000
   vertex 2940.000000 -90.000000 -240.000000
  endloop
 endfacet
 facet normal -0.065403 -0.997859 0.000000
  outer loop
   vertex 2928.252643 -89.230038 -360.000000
   vertex 2940.000000 -90.000000 -240.000000
   vertex 2928.252643 -89.230038 -240.000000
  endloop
 endfacet
 facet normal -0.065403 0.997859 0.000000
  outer loop
   vertex 2947.635782 -57.999524 -240.000000
   vertex 2947.635782 -57.999524 -360.000000
   vertex 2940.000000 -58.500000 -360.000000
  endloop
 endfacet
 facet normal -0.065403 0.997859 0.000000
  outer loop
   vertex 2940.000000 -58.500000 -240.000000
   vertex 2947.635782 -57.999524 -240.000000
   vertex 2940.000000 -58.500000 -360.000000
  endloop
 endfacet
 facet normal -0.195090 0.980785 0.000000
  outer loop
   vertex 2955.140914 -56.506661 -240.000000
   vertex 2955.140914 -56.506661 -360.000000
   vertex 2947.635782 -57.999524 -360.000000
  endloop
 endfacet
 facet normal -0.195090 0.980785 0.000000
  outer loop
   vertex 2947.635782 -57.999524 -240.000000
   vertex 2955.140914 -56.506661 -240.000000
   vertex 2947.635782 -57.999524 -360.000000
  endloop
 endfacet
 facet normal -0.321439 0.946930 0.000000
  outer loop
   vertex 2962.386981 -54.046953 -240.000000
   vertex 2962.386981 -54.046953 -360.000000
   vertex 2955.140914 -56.506661 -360.000000
  endloop
 endfacet
 facet normal -0.321439 0.946930 0.000000
  outer loop
   vertex 2955.140914 -56.506661 -240.000000
   vertex 2962.386981 -54.046953 -240.000000
   vertex 2955.140914 -56.506661 -360.000000
  endloop
 endfacet
 facet normal -0.442289 0.896873 0.000000
  outer loop
   vertex 2969.250000 -50.662486 -240.000000
   vertex 2969.250000 -50.662486 -360.000000
   vertex 2962.386981 -54.046953 -360.000000
  endloop
 endfacet
 facet normal -0.442289 0.896873 0.000000
  outer loop
   vertex 2962.386981 -54.046953 -240.000000
   vertex 2969.250000 -50.662486 -240.000000
   vertex 2962.386981 -54.046953 -360.000000
  endloop
 endfacet
 facet normal -0.555570 0.831470 0.000000
  outer loop
   vertex 2975.612544 -46.411170 -240.000000
   vertex 2975.612544 -46.411170 -360.000000
   vertex 2969.250000 -50.662486 -360.000000
  endloop
 endfacet
 facet normal -0.555570 0.831470 0.000000
  outer loop
   vertex 2969.250000 -50.662486 -240.000000
   vertex 2975.612544 -46.411170 -240.000000
   vertex 2969.250000 -50.662486 -360.000000
  endloop
 endfacet
 facet normal -0.659346 0.751840 0.000000
  outer loop
   vertex 2981.365747 -41.365747 -240.000000
   vertex 2981.365747 -41.365747 -360.000000
   vertex 2975.612544 -46.411170 -360.000000
  endloop
 endfacet
 facet normal -0.659346 0.751840 0.000000
  outer loop
   vertex 2975.612544 -46.411170 -240.000000
   vertex 2981.365747 -41.365747 -240.000000
   vertex 2975.612544 -46.411170 -360.000000
  endloop
 endfacet
 facet normal -0.751840 0.659346 0.000000
  outer loop
   vertex 2986.411170 -35.612544 -240.000000
   vertex 2986.411170 -35.612544 -360.000000
   vertex 2981.365747 -41.365747 -360.000000
  endloop
 endfacet
 facet normal -0.751840 0.659346 0.000000
  outer loop
   vertex 2981.365747 -41.365747 -240.000000
   vertex 2986.411170 -35.612544 -240.000000
   vertex 2981.365747 -41.365747 -360.000000
  endloop
 endfacet
 facet normal -0.831470 0.555570 0.000000
  outer loop
   vertex 2990.662486 -29.250000 -240.000000
   vertex 2990.662486 -29.250000 -360.000000
   vertex 2986.411170 -35.612544 -360.000000
  endloop
 endfacet
 facet normal -0.831470 0.555570 0.000000
  outer loop
   vertex 2986.411170 -35.612544 -240.000000
   vertex 2990.662486 -29.250000 -240.000000
   vertex 2986.411170 -35.612544 -360.000000
  endloop
 endfacet
 facet normal -0.896873 0.442289 0.000000
  outer loop
   vertex 2994.046953 -22.386981 -240.000000
   vertex 2994.046953 -22.386981 -360.000000
   vertex 2990.662486 -29.250000 -360.000000
  endloop
 endfacet
 facet normal -0.896873 0.442289 0.000000
  outer loop
   vertex 2990.662486 -29.250000 -240.000000
   vertex 2994.046953 -22.386981 -240.000000
   vertex 2990.662486 -29.250000 -360.000000
  endloop
 endfacet
 facet normal -0.946930 0.321439 0.000000
  outer loop
   vertex 2996.506661 -15.140914 -240.000000
   vertex 2996.506661 -15.140914 -360.000000
   vertex 2994.046953 -22.386981 -360.000000
  endloop
 endfacet
 facet normal -0.946930 0.321439 0.000000
  outer loop
   vertex 2994.046953 -22.386981 -240.000000
   vertex 2996.506661 -15.140914 -240.000000
   vertex 2994.046953 -22.386981 -360.000000
  endloop
 endfacet
 facet normal -0.980785 0.195090 0.000000
  outer loop
   vertex 2997.999524 -7.635782 -240.000000
   vertex 2997.999524 -7.635782 -360.000000
   vertex 2996.506661 -15.140914 -360.000000
  endloop
 endfacet
 facet normal -0.980785 0.195090 0.000000
  outer loop
   vertex 2996.506661 -15.140914 -240.000000
   vertex 2997.999524 -7.635782 -240.000000
   vertex 2996.506661 -15.140914 -360.000000
  endloop
 endfacet
 facet normal -0.997859 0.065403 0.000000
  outer loop
   vertex 2998.500000 -0.000000 -240.000000
   vertex 2998.500000 -0.000000 -360.000000
   vertex 2997.999524 -7.635782 -360.000000
  endloop
 endfacet
 facet normal -0.997859 0.065403 0.000000
  outer loop
   vertex 2997.999524 -7.635782 -240.000000
   vertex 2998.500000 -0.000000 -240.000000
   vertex 2997.999524 -7.635782 -360.000000
  endloop
 endfacet
 facet normal -0.997859 -0.065403 -0.000000
  outer loop
   vertex 2997.999524 7.635782 -240.000000
   vertex 2997.999524 7.635782 -360.000000
   vertex 2998.500000 -0.000000 -360.000000
  endloop
 endfacet
 facet normal -0.997859 -0.065403 -0.000000
  outer loop
   vertex 2998.500000 -0.000000 -240.000000
   vertex 2997.999524 7.635782 -240.000000
   vertex 2998.500000 -0.000000 -360.000000
  endloop
 endfacet
 facet normal -0.980785 -0.195090 -0.000000
  outer loop
   vertex 2996.506661 15.140914 -240.000000
   vertex 2996.506661 15.140914 -360.000000
   vertex 2997.999524 7.635782 -360.000000
  endloop
 endfacet
 facet normal -0.980785 -0.195090 -0.000000
  outer loop
   vertex 2997.999524 7.635782 -240.000000
   vertex 2996.506661 15.140914 -240.000000
   vertex 2997.999524 7.635782 -360.000000
  endloop
 endfacet
 facet normal -0.946930 -0.321439 -0.000000
  outer loop
   vertex 2994.046953 22.386981 -240.000000
   vertex 2994.046953 22.386981 -360.000000
   vertex 2996.506661 15.140914 -360.000000
  endloop
 endfacet
 facet normal -0.946930 -0.321439 -0.000000
  outer loop
   vertex 2996.506661 15.140914 -240.000000
   vertex 2994.046953 22.386981 -240.000000
   vertex 2996.506661 15.140914 -360.000000
  endloop
 endfacet
 facet normal -0.896873 -0.442289 -0.000000
  outer loop
   vertex 2990.662486 29.250000 -240.000000
   vertex 2990.662486 29.250000 -360.000000
   vertex 2994.046953 22.386981 -360.000000
  endloop
 endfacet
 facet normal -0.896873 -0.442289 -0.000000
  outer loop
   vertex 2994.046953 22.386981 -240.000000
   vertex 2990.662486 29.250000 -240.000000
   vertex 2994.046953 22.386981 -360.000000
  endloop
 endfacet
 facet normal -0.831470 -0.555570 -0.000000
  outer loop
   vertex 2986.411170 35.612544 -240.000000
   vertex 2986.411170 35.612544 -360.000000
   vertex 2990.662486 29.250000 -360.000000
  endloop
 endfacet
 facet normal -0.831470 -0.555570 -0.000000
  outer loop
   vertex 2990.662486 29.250000 -240.000000
   vertex 2986.411170 35.612544 -240.000000
   vertex 2990.662486 29.250000 -360.000000
  endloop
 endfacet
 facet normal -0.751840 -0.659346 -0.000000
  outer loop
   vertex 2981.365747 41.365747 -240.000000
   vertex 2981.365747 41.365747 -360.000000
   vertex 2986.411170 35.612544 -360.000000
  endloop
 endfacet
 facet normal -0.751840 -0.659346 -0.000000
  outer loop
   vertex 2986.411170 35.612544 -240.000000
   vertex 2981.365747 41.365747 -240.000000
   vertex 2986.411170 35.612544 -360.000000
  endloop
 endfacet
 facet normal -0.659346 -0.751840 -0.000000
  outer loop
   vertex 2975.612544 46.411170 -240.000000
   vertex 2975.612544 46.411170 -360.000000
   vertex 2981.365747 41.365747 -360.000000
  endloop
 endfacet
 facet normal -0.659346 -0.751840 -0.000000
  outer loop
   vertex 2981.365747 41.365747 -240.000000
   vertex 2975.612544 46.411170 -240.000000
   vertex 2981.365747 41.365747 -360.000000
  endloop
 endfacet
 facet normal -0.555570 -0.831470 -0.000000
  outer loop
   vertex 2969.250000 50.662486 -240.000000
   vertex 2969.250000 50.662486 -360.000000
   vertex 2975.612544 46.411170 -360.000000
  endloop
 endfacet
 facet normal -0.555570 -0.831470 -0.000000
  outer loop
   vertex 2975.612544 46.411170 -240.000000
   vertex 2969.250000 50.662486 -240.000000
   vertex 2975.612544 46.411170 -360.000000
  endloop
 endfacet
 facet normal -0.442289 -0.896873 -0.000000
  outer loop
   vertex 2962.386981 54.046953 -240.000000
   vertex 2962.386981 54.046953 -360.000000
   vertex 2969.250000 50.662486 -360.000000
  endloop
 endfacet
 facet normal -0.442289 -0.896873 -0.000000
  outer loop
   vertex 2969.250000 50.662486 -240.000000
   vertex 2962.386981 54.046953 -240.000000
   vertex 2969.250000 50.662486 -360.000000
  endloop
 endfacet
 facet normal -0.321439 -0.946930 -0.000000
  outer loop
   vertex 2955.140914 56.506661 -240.000000
   vertex 2955.140914 56.506661 -360.000000
   vertex 2962.386981 54.046953 -360.000000
  endloop
 endfacet
 facet normal -0.321439 -0.946930 -0.000000
  outer loop
   vertex 2962.386981 54.046953 -240.000000
   vertex 2955.140914 56.506661 -240.000000
   vertex 2962.386981 54.046953 -360.000000
  endloop
 endfacet
 facet normal -0.195090 -0.980785 -0.000000
  outer loop
   vertex 2947.635782 57.999524 -240.000000
   vertex 2947.635782 57.999524 -360.000000
   vertex 2955.140914 56.506661 -360.000000
  endloop
 endfacet
 facet normal -0.195090 -0.980785 -0.000000
  outer loop
   vertex 2955.140914 56.506661 -240.000000
   vertex 2947.635782 57.999524 -240.000000
   vertex 2955.140914 56.506661 -360.000000
  endloop
 endfacet
 facet normal -0.065403 -0.997859 -0.000000
  outer loop
   vertex 2940.000000 58.500000 -240.000000
   vertex 2940.000000 58.500000 -360.000000
   vertex 2947.635782 57.999524 -360.000000
  endloop
 endfacet
 facet normal -0.065403 -0.997859 -0.000000
  outer loop
   vertex 2947.635782 57.999524 -240.000000
   vertex 2940.000000 58.500000 -240.000000
   vertex 2947.635782 57.999524 -360.000000
  endloop
 endfacet
 facet normal 0.065403 -0.997859 0.000000
  outer loop
   vertex 2932.364218 57.999524 -240.000000
   vertex 2932.364218 57.999524 -360.000000
   vertex 2940.000000 58.500000 -360.000000
  endloop
 endfacet
 facet normal 0.065403 -0.997859 0.000000
  outer loop
   vertex 2940.000000 58.500000 -240.000000
   vertex 2932.364218 57.999524 -240.000000
   vertex 2940.000000 58.500000 -360.000000
  endloop
 endfacet
 facet normal 0.195090 -0.980785 0.000000
  outer loop
   vertex 2924.859086 56.506661 -240.000000
   vertex 2924.859086 56.506661 -360.000000
   vertex 2932.364218 57.999524 -360.000000
  endloop
 endfacet
 facet normal 0.195090 -0.980785 0.000000
  outer loop
   vertex 2932.364218 57.999524 -240.000000
   vertex 2924.859086 56.506661 -240.000000
   vertex 2932.364218 57.999524 -360.000000
  endloop
 endfacet
 facet normal 0.321439 -0.946930 0.000000
  outer loop
   vertex 2917.613019 54.046953 -240.000000
   vertex 2917.613019 54.046953 -360.000000
   vertex 2924.859086 56.506661 -360.000000
  endloop
 endfacet
 facet normal 0.321439 -0.946930 0.000000
  outer loop
   vertex 2924.859086 56.506661 -240.000000
   vertex 2917.613019 54.046953 -240.000000
   vertex 2924.859086 56.506661 -360.000000
  endloop
 endfacet
 facet normal 0.442289 -0.896873 0.000000
  outer loop
   vertex 2910.750000 50.662486 -240.000000
   vertex 2910.750000 50.662486 -360.000000
   vertex 2917.613019 54.046953 -360.000000
  endloop
 endfacet
 facet normal 0.442289 -0.896873 0.000000
  outer loop
   vertex 2917.613019 54.046953 -240.000000
   vertex 2910.750000 50.662486 -240.000000
   vertex 2917.613019 54.046953 -360.000000
  endloop
 endfacet
 facet normal 0.555570 -0.831470 0.000000
  outer loop
   vertex 2904.387456 46.411170 -240.000000
   vertex 2904.387456 46.411170 -360.000000
   vertex 2910.750000 50.662486 -360.000000
  endloop
 endfacet
 facet normal 0.555570 -0.831470 0.000000
  outer loop
   vertex 2910.750000 50.662486 -240.000000
   vertex 2904.387456 46.411170 -240.000000
   vertex 2910.750000 50.662486 -360.000000
  endloop
 endfacet
 facet normal 0.659346 -0.751840 0.000000
  outer loop
   vertex 2898.634253 41.365747 -240.000000
   vertex 2898.634253 41.365747 -360.000000
   vertex 2904.387456 46.411170 -360.000000
  endloop
 endfacet
 facet normal 0.659346 -0.751840 0.000000
  outer loop
   vertex 2904.387456 46.411170 -240.000000
   vertex 2898.634253 41.365747 -240.000000
   vertex 2904.387456 46.411170 -360.000000
  endloop
 endfacet
 facet normal 0.751840 -0.659346 0.000000
  outer loop
   vertex 2893.588830 35.612544 -240.000000
   vertex 2893.588830 35.612544 -360.000000
   vertex 2898.634253 41.365747 -360.000000
  endloop
 endfacet
 facet normal 0.751840 -0.659346 0.000000
  outer loop
   vertex 2898.634253 41.365747 -240.000000
   vertex 2893.588830 35.612544 -240.000000
   vertex 2898.634253 41.365747 -360.000000
  endloop
 endfacet
 facet normal 0.831470 -0.555570 0.000000
  outer loop
   vertex 2889.337514 29.250000 -240.000000
   vertex 2889.337514 29.250000 -360.000000
   vertex 2893.588830 35.612544 -360.000000
  endloop
 endfacet
 facet normal 0.831470 -0.555570 0.000000
  outer loop
   vertex 2893.588830 35.612544 -240.000000
   vertex 2889.337514 29.250000 -240.000000
   vertex 2893.588830 35.612544 -360.000000
  endloop
 endfacet
 facet normal 0.896873 -0.442289 0.000000
  outer loop
   vertex 2885.953047 22.386981 -240.000000
   vertex 2885.953047 22.386981 -360.000000
   vertex 2889.337514 29.250000 -360.000000
  endloop
 endfacet
 facet normal 0.896873 -0.442289 0.000000
  outer loop
   vertex 2889.337514 29.250000 -240.000000
   vertex 2885.953047 22.386981 -240.000000
   vertex 2889.337514 29.250000 -360.000000
  endloop
 endfacet
 facet normal 0.946930 -0.321439 0.000000
  outer loop
   vertex 2883.493339 15.140914 -240.000000
   vertex 2883.493339 15.140914 -360.000000
   vertex 2885.953047 22.386981 -360.000000
  endloop
 endfacet
 facet normal 0.946930 -0.321439 0.000000
  outer loop
   vertex 2885.953047 22.386981 -240.000000
   vertex 2883.493339 15.140914 -240.000000
   vertex 2885.953047 22.386981 -360.000000
  endloop
 endfacet
 facet normal 0.980785 -0.195090 0.000000
  outer loop
   vertex 2882.000476 7.635782 -240.000000
   vertex 2882.000476 7.635782 -360.000000
   vertex 2883.493339 15.140914 -360.000000
  endloop
 endfacet
 facet normal 0.980785 -0.195090 0.000000
  outer loop
   vertex 2883.493339 15.140914 -240.000000
   vertex 2882.000476 7.635782 -240.000000
   vertex 2883.493339 15.140914 -360.000000
  endloop
 endfacet
 facet normal 0.997859 -0.065403 0.000000
  outer loop
   vertex 2881.500000 0.000000 -240.000000
   vertex 2881.500000 0.000000 -360.000000
   vertex 2882.000476 7.635782 -360.000000
  endloop
 endfacet
 facet normal 0.997859 -0.065403 0.000000
  outer loop
   vertex 2882.000476 7.635782 -240.000000
   vertex 2881.500000 0.000000 -240.000000
   vertex 2882.000476 7.635782 -360.000000
  endloop
 endfacet
 facet normal 0.997859 0.065403 0.000000
  outer loop
   vertex 2882.000476 -7.635782 -240.000000
   vertex 2882.000476 -7.635782 -360.000000
   vertex 2881.500000 0.000000 -360.000000
  endloop
 endfacet
 facet normal 0.997859 0.065403 0.000000
  outer loop
   vertex 2881.500000 0.000000 -240.000000
   vertex 2882.000476 -7.635782 -240.000000
   vertex 2881.500000 0.000000 -360.000000
  endloop
 endfacet
 facet normal 0.980785 0.195090 0.000000
  outer loop
   vertex 2883.493339 -15.140914 -240.000000
   vertex 2883.493339 -15.140914 -360.000000
   vertex 2882.000476 -7.635782 -360.000000
  endloop
 endfacet
 facet normal 0.980785 0.195090 0.000000
  outer loop
   vertex 2882.000476 -7.635782 -240.000000
   vertex 2883.493339 -15.140914 -240.000000
   vertex 2882.000476 -7.635782 -360.000000
  endloop
 endfacet
 facet normal 0.946930 0.321439 0.000000
  outer loop
   vertex 2885.953047 -22.386981 -240.000000
   vertex 2885.953047 -22.386981 -360.000000
   vertex 2883.493339 -15.140914 -360.000000
  endloop
 endfacet
 facet normal 0.946930 0.321439 0.000000
  outer loop
   vertex 2883.493339 -15.140914 -240.000000
   vertex 2885.953047 -22.386981 -240.000000
   vertex 2883.493339 -15.140914 -360.000000
  endloop
 endfacet
 facet normal 0.896873 0.442289 0.000000
  outer loop
   vertex 2889.337514 -29.250000 -240.000000
   vertex 2889.337514 -29.250000 -360.000000
   vertex 2885.953047 -22.386981 -360.000000
  endloop
 endfacet
 facet normal 0.896873 0.442289 0.000000
  outer loop
   vertex 2885.953047 -22.386981 -240.000000
   vertex 2889.337514 -29.250000 -240.000000
   vertex 2885.953047 -22.386981 -360.000000
  endloop
 endfacet
 facet normal 0.831470 0.555570 0.000000
  outer loop
   vertex 2893.588830 -35.612544 -240.000000
   vertex 2893.588830 -35.612544 -360.000000
   vertex 2889.337514 -29.250000 -360.000000
  endloop
 endfacet
 facet normal 0.831470 0.555570 0.000000
  outer loop
   vertex 2889.337514 -29.250000 -240.000000
   vertex 2893.588830 -35.612544 -240.000000
   vertex 2889.337514 -29.250000 -360.000000
  endloop
 endfacet
 facet normal 0.751840 0.659346 0.000000
  outer loop
   vertex 2898.634253 -41.365747 -240.000000
   vertex 2898.634253 -41.365747 -360.000000
   vertex 2893.588830 -35.612544 -360.000000
  endloop
 endfacet
 facet normal 0.751840 0.659346 0.000000
  outer loop
   vertex 2893.588830 -35.612544 -240.000000
   vertex 2898.634253 -41.365747 -240.000000
   vertex 2893.588830 -35.612544 -360.000000
  endloop
 endfacet
 facet normal 0.659346 0.751840 0.000000
  outer loop
   vertex 2904.387456 -46.411170 -240.000000
   vertex 2904.387456 -46.411170 -360.000000
   vertex 2898.634253 -41.365747 -360.000000
  endloop
 endfacet
 facet normal 0.659346 0.751840 0.000000
  outer loop
   vertex 2898.634253 -41.365747 -240.000000
   vertex 2904.387456 -46.411170 -240.000000
   vertex 2898.634253 -41.365747 -360.000000
  endloop
 endfacet
 facet normal 0.555570 0.831470 0.000000
  outer loop
   vertex 2910.750000 -50.662486 -240.000000
   vertex 2910.750000 -50.662486 -360.000000
   vertex 2904.387456 -46.411170 -360.000000
  endloop
 endfacet
 facet normal 0.555570 0.831470 0.000000
  outer loop
   vertex 2904.387456 -46.411170 -240.000000
   vertex 2910.750000 -50.662486 -240.000000
   vertex 2904.387456 -46.411170 -360.000000
  endloop
 endfacet
 facet normal 0.442289 0.896873 0.000000
  outer loop
   vertex 2917.613019 -54.046953 -240.000000
   vertex 2917.613019 -54.046953 -360.000000
   vertex 2910.750000 -50.662486 -360.000000
  endloop
 endfacet
 facet normal 0.442289 0.896873 0.000000
  outer loop
   vertex 2910.750000 -50.662486 -240.000000
   vertex 2917.613019 -54.046953 -240.000000
   vertex 2910.750000 -50.662486 -360.000000
  endloop
 endfacet
 facet normal 0.321439 0.946930 0.000000
  outer loop
   vertex 2924.859086 -56.506661 -240.000000
   vertex 2924.859086 -56.506661 -360.000000
   vertex 2917.613019 -54.046953 -360.000000
  endloop
 endfacet
 facet normal 0.321439 0.946930 0.000000
  outer loop
   vertex 2917.613019 -54.046953 -240.000000
   vertex 2924.859086 -56.506661 -240.000000
   vertex 2917.613019 -54.046953 -360.000000
  endloop
 endfacet
 facet normal 0.195090 0.980785 0.000000
  outer loop
   vertex 2932.364218 -57.999524 -240.000000
   vertex 2932.364218 -57.999524 -360.000000
   vertex 2924.859086 -56.506661 -360.000000
  endloop
 endfacet
 facet normal 0.195090 0.980785 0.000000
  outer loop
   vertex 2924.859086 -56.506661 -240.000000
   vertex 2932.364218 -57.999524 -240.000000
   vertex 2924.859086 -56.506661 -360.000000
  endloop
 endfacet
 facet normal 0.065403 0.997859 0.000000
  outer loop
   vertex 2940.000000 -58.500000 -240.000000
   vertex 2940.000000 -58.500000 -360.000000
   vertex 2932.364218 -57.999524 -360.000000
  endloop
 endfacet
 facet normal 0.065403 0.997859 0.000000
  outer loop
   vertex 2932.364218 -57.999524 -240.000000
   vertex 2940.000000 -58.500000 -240.000000
   vertex 2932.364218 -57.999524 -360.000000
  endloop
 endfacet
endsolid SII_LH2_feed_2_valve
