solid SII_LOX_feed_2_Hrun
 facet normal 0.000000 -0.997859 0.065403
  outer loop
   vertex 2940.000000 -90.000000 -100.000000
   vertex 2940.000000 -89.230038 -88.252643
   vertex 0.000000 -89.230038 -88.252643
  endloop
 endfacet
 facet normal 0.000000 -0.997859 0.065403
  outer loop
   vertex 2940.000000 -90.000000 -100.000000
   vertex 0.000000 -89.230038 -88.252643
   vertex 0.000000 -90.000000 -100.000000
  endloop
 endfacet
 facet normal 0.000000 -0.980785 0.195090
  outer loop
   vertex 2940.000000 -89.230038 -88.252643
   vertex 2940.000000 -86.933324 -76.706286
   vertex 0.000000 -86.933324 -76.706286
  endloop
 endfacet
 facet normal 0.000000 -0.980785 0.195090
  outer loop
   vertex 2940.000000 -89.230038 -88.252643
   vertex 0.000000 -86.933324 -76.706286
   vertex 0.000000 -89.230038 -88.252643
  endloop
 endfacet
 facet normal 0.000000 -0.946930 0.321439
  outer loop
   vertex 2940.000000 -86.933324 -76.706286
   vertex 2940.000000 -83.149158 -65.558491
   vertex 0.000000 -83.149158 -65.558491
  endloop
 endfacet
 facet normal 0.000000 -0.946930 0.321439
  outer loop
   vertex 2940.000000 -86.933324 -76.706286
   vertex 0.000000 -83.149158 -65.558491
   vertex 0.000000 -86.933324 -76.706286
  endloop
 endfacet
 facet normal 0.000000 -0.896873 0.442289
  outer loop
   vertex 2940.000000 -83.149158 -65.558491
   vertex 2940.000000 -77.942286 -55.000000
   vertex 0.000000 -77.942286 -55.000000
  endloop
 endfacet
 facet normal 0.000000 -0.896873 0.442289
  outer loop
   vertex 2940.000000 -83.149158 -65.558491
   vertex 0.000000 -77.942286 -55.000000
   vertex 0.000000 -83.149158 -65.558491
  endloop
 endfacet
 facet normal 0.000000 -0.831470 0.555570
  outer loop
   vertex 2940.000000 -77.942286 -55.000000
   vertex 2940.000000 -71.401801 -45.211471
   vertex 0.000000 -71.401801 -45.211471
  endloop
 endfacet
 facet normal 0.000000 -0.831470 0.555570
  outer loop
   vertex 2940.000000 -77.942286 -55.000000
   vertex 0.000000 -71.401801 -45.211471
   vertex 0.000000 -77.942286 -55.000000
  endloop
 endfacet
 facet normal 0.000000 -0.751840 0.659346
  outer loop
   vertex 2940.000000 -71.401801 -45.211471
   vertex 2940.000000 -63.639610 -36.360390
   vertex 0.000000 -63.639610 -36.360390
  endloop
 endfacet
 facet normal 0.000000 -0.751840 0.659346
  outer loop
   vertex 2940.000000 -71.401801 -45.211471
   vertex 0.000000 -63.639610 -36.360390
   vertex 0.000000 -71.401801 -45.211471
  endloop
 endfacet
 facet normal 0.000000 -0.659346 0.751840
  outer loop
   vertex 2940.000000 -63.639610 -36.360390
   vertex 2940.000000 -54.788529 -28.598199
   vertex 0.000000 -54.788529 -28.598199
  endloop
 endfacet
 facet normal 0.000000 -0.659346 0.751840
  outer loop
   vertex 2940.000000 -63.639610 -36.360390
   vertex 0.000000 -54.788529 -28.598199
   vertex 0.000000 -63.639610 -36.360390
  endloop
 endfacet
 facet normal 0.000000 -0.555570 0.831470
  outer loop
   vertex 2940.000000 -54.788529 -28.598199
   vertex 2940.000000 -45.000000 -22.057714
   vertex 0.000000 -45.000000 -22.057714
  endloop
 endfacet
 facet normal 0.000000 -0.555570 0.831470
  outer loop
   vertex 2940.000000 -54.788529 -28.598199
   vertex 0.000000 -45.000000 -22.057714
   vertex 0.000000 -54.788529 -28.598199
  endloop
 endfacet
 facet normal 0.000000 -0.442289 0.896873
  outer loop
   vertex 2940.000000 -45.000000 -22.057714
   vertex 2940.000000 -34.441509 -16.850842
   vertex 0.000000 -34.441509 -16.850842
  endloop
 endfacet
 facet normal 0.000000 -0.442289 0.896873
  outer loop
   vertex 2940.000000 -45.000000 -22.057714
   vertex 0.000000 -34.441509 -16.850842
   vertex 0.000000 -45.000000 -22.057714
  endloop
 endfacet
 facet normal 0.000000 -0.321439 0.946930
  outer loop
   vertex 2940.000000 -34.441509 -16.850842
   vertex 2940.000000 -23.293714 -13.066676
   vertex 0.000000 -23.293714 -13.066676
  endloop
 endfacet
 facet normal 0.000000 -0.321439 0.946930
  outer loop
   vertex 2940.000000 -34.441509 -16.850842
   vertex 0.000000 -23.293714 -13.066676
   vertex 0.000000 -34.441509 -16.850842
  endloop
 endfacet
 facet normal 0.000000 -0.195090 0.980785
  outer loop
   vertex 2940.000000 -23.293714 -13.066676
   vertex 2940.000000 -11.747357 -10.769962
   vertex 0.000000 -11.747357 -10.769962
  endloop
 endfacet
 facet normal 0.000000 -0.195090 0.980785
  outer loop
   vertex 2940.000000 -23.293714 -13.066676
   vertex 0.000000 -11.747357 -10.769962
   vertex 0.000000 -23.293714 -13.066676
  endloop
 endfacet
 facet normal 0.000000 -0.065403 0.997859
  outer loop
   vertex 2940.000000 -11.747357 -10.769962
   vertex 2940.000000 -0.000000 -10.000000
   vertex 0.000000 -0.000000 -10.000000
  endloop
 endfacet
 facet normal 0.000000 -0.065403 0.997859
  outer loop
   vertex 2940.000000 -11.747357 -10.769962
   vertex 0.000000 -0.000000 -10.000000
   vertex 0.000000 -11.747357 -10.769962
  endloop
 endfacet
 facet normal 0.000000 0.065403 0.997859
  outer loop
   vertex 2940.000000 -0.000000 -10.000000
   vertex 2940.000000 11.747357 -10.769962
   vertex 0.000000 11.747357 -10.769962
  endloop
 endfacet
 facet normal 0.000000 0.065403 0.997859
  outer loop
   vertex 2940.000000 -0.000000 -10.000000
   vertex 0.000000 11.747357 -10.769962
   vertex 0.000000 -0.000000 -10.000000
  endloop
 endfacet
 facet normal 0.000000 0.195090 0.980785
  outer loop
   vertex 2940.000000 11.747357 -10.769962
   vertex 2940.000000 23.293714 -13.066676
   vertex 0.000000 23.293714 -13.066676
  endloop
 endfacet
 facet normal 0.000000 0.195090 0.980785
  outer loop
   vertex 2940.000000 11.747357 -10.769962
   vertex 0.000000 23.293714 -13.066676
   vertex 0.000000 11.747357 -10.769962
  endloop
 endfacet
 facet normal 0.000000 0.321439 0.946930
  outer loop
   vertex 2940.000000 23.293714 -13.066676
   vertex 2940.000000 34.441509 -16.850842
   vertex 0.000000 34.441509 -16.850842
  endloop
 endfacet
 facet normal 0.000000 0.321439 0.946930
  outer loop
   vertex 2940.000000 23.293714 -13.066676
   vertex 0.000000 34.441509 -16.850842
   vertex 0.000000 23.293714 -13.066676
  endloop
 endfacet
 facet normal 0.000000 0.442289 0.896873
  outer loop
   vertex 2940.000000 34.441509 -16.850842
   vertex 2940.000000 45.000000 -22.057714
   vertex 0.000000 45.000000 -22.057714
  endloop
 endfacet
 facet normal 0.000000 0.442289 0.896873
  outer loop
   vertex 2940.000000 34.441509 -16.850842
   vertex 0.000000 45.000000 -22.057714
   vertex 0.000000 34.441509 -16.850842
  endloop
 endfacet
 facet normal 0.000000 0.555570 0.831470
  outer loop
   vertex 2940.000000 45.000000 -22.057714
   vertex 2940.000000 54.788529 -28.598199
   vertex 0.000000 54.788529 -28.598199
  endloop
 endfacet
 facet normal 0.000000 0.555570 0.831470
  outer loop
   vertex 2940.000000 45.000000 -22.057714
   vertex 0.000000 54.788529 -28.598199
   vertex 0.000000 45.000000 -22.057714
  endloop
 endfacet
 facet normal 0.000000 0.659346 0.751840
  outer loop
   vertex 2940.000000 54.788529 -28.598199
   vertex 2940.000000 63.639610 -36.360390
   vertex 0.000000 63.639610 -36.360390
  endloop
 endfacet
 facet normal 0.000000 0.659346 0.751840
  outer loop
   vertex 2940.000000 54.788529 -28.598199
   vertex 0.000000 63.639610 -36.360390
   vertex 0.000000 54.788529 -28.598199
  endloop
 endfacet
 facet normal 0.000000 0.751840 0.659346
  outer loop
   vertex 2940.000000 63.639610 -36.360390
   vertex 2940.000000 71.401801 -45.211471
   vertex 0.000000 71.401801 -45.211471
  endloop
 endfacet
 facet normal 0.000000 0.751840 0.659346
  outer loop
   vertex 2940.000000 63.639610 -36.360390
   vertex 0.000000 71.401801 -45.211471
   vertex 0.000000 63.639610 -36.360390
  endloop
 endfacet
 facet normal 0.000000 0.831470 0.555570
  outer loop
   vertex 2940.000000 71.401801 -45.211471
   vertex 2940.000000 77.942286 -55.000000
   vertex 0.000000 77.942286 -55.000000
  endloop
 endfacet
 facet normal 0.000000 0.831470 0.555570
  outer loop
   vertex 2940.000000 71.401801 -45.211471
   vertex 0.000000 77.942286 -55.000000
   vertex 0.000000 71.401801 -45.211471
  endloop
 endfacet
 facet normal 0.000000 0.896873 0.442289
  outer loop
   vertex 2940.000000 77.942286 -55.000000
   vertex 2940.000000 83.149158 -65.558491
   vertex 0.000000 83.149158 -65.558491
  endloop
 endfacet
 facet normal 0.000000 0.896873 0.442289
  outer loop
   vertex 2940.000000 77.942286 -55.000000
   vertex 0.000000 83.149158 -65.558491
   vertex 0.000000 77.942286 -55.000000
  endloop
 endfacet
 facet normal 0.000000 0.946930 0.321439
  outer loop
   vertex 2940.000000 83.149158 -65.558491
   vertex 2940.000000 86.933324 -76.706286
   vertex 0.000000 86.933324 -76.706286
  endloop
 endfacet
 facet normal 0.000000 0.946930 0.321439
  outer loop
   vertex 2940.000000 83.149158 -65.558491
   vertex 0.000000 86.933324 -76.706286
   vertex 0.000000 83.149158 -65.558491
  endloop
 endfacet
 facet normal 0.000000 0.980785 0.195090
  outer loop
   vertex 2940.000000 86.933324 -76.706286
   vertex 2940.000000 89.230038 -88.252643
   vertex 0.000000 89.230038 -88.252643
  endloop
 endfacet
 facet normal 0.000000 0.980785 0.195090
  outer loop
   vertex 2940.000000 86.933324 -76.706286
   vertex 0.000000 89.230038 -88.252643
   vertex 0.000000 86.933324 -76.706286
  endloop
 endfacet
 facet normal 0.000000 0.997859 0.065403
  outer loop
   vertex 2940.000000 89.230038 -88.252643
   vertex 2940.000000 90.000000 -100.000000
   vertex 0.000000 90.000000 -100.000000
  endloop
 endfacet
 facet normal 0.000000 0.997859 0.065403
  outer loop
   vertex 2940.000000 89.230038 -88.252643
   vertex 0.000000 90.000000 -100.000000
   vertex 0.000000 89.230038 -88.252643
  endloop
 endfacet
 facet normal 0.000000 0.997859 -0.065403
  outer loop
   vertex 2940.000000 90.000000 -100.000000
   vertex 2940.000000 89.230038 -111.747357
   vertex 0.000000 89.230038 -111.747357
  endloop
 endfacet
 facet normal 0.000000 0.997859 -0.065403
  outer loop
   vertex 2940.000000 90.000000 -100.000000
   vertex 0.000000 89.230038 -111.747357
   vertex 0.000000 90.000000 -100.000000
  endloop
 endfacet
 facet normal 0.000000 0.980785 -0.195090
  outer loop
   vertex 2940.000000 89.230038 -111.747357
   vertex 2940.000000 86.933324 -123.293714
   vertex 0.000000 86.933324 -123.293714
  endloop
 endfacet
 facet normal 0.000000 0.980785 -0.195090
  outer loop
   vertex 2940.000000 89.230038 -111.747357
   vertex 0.000000 86.933324 -123.293714
   vertex 0.000000 89.230038 -111.747357
  endloop
 endfacet
 facet normal 0.000000 0.946930 -0.321439
  outer loop
   vertex 2940.000000 86.933324 -123.293714
   vertex 2940.000000 83.149158 -134.441509
   vertex 0.000000 83.149158 -134.441509
  endloop
 endfacet
 facet normal 0.000000 0.946930 -0.321439
  outer loop
   vertex 2940.000000 86.933324 -123.293714
   vertex 0.000000 83.149158 -134.441509
   vertex 0.000000 86.933324 -123.293714
  endloop
 endfacet
 facet normal 0.000000 0.896873 -0.442289
  outer loop
   vertex 2940.000000 83.149158 -134.441509
   vertex 2940.000000 77.942286 -145.000000
   vertex 0.000000 77.942286 -145.000000
  endloop
 endfacet
 facet normal 0.000000 0.896873 -0.442289
  outer loop
   vertex 2940.000000 83.149158 -134.441509
   vertex 0.000000 77.942286 -145.000000
   vertex 0.000000 83.149158 -134.441509
  endloop
 endfacet
 facet normal 0.000000 0.831470 -0.555570
  outer loop
   vertex 2940.000000 77.942286 -145.000000
   vertex 2940.000000 71.401801 -154.788529
   vertex 0.000000 71.401801 -154.788529
  endloop
 endfacet
 facet normal 0.000000 0.831470 -0.555570
  outer loop
   vertex 2940.000000 77.942286 -145.000000
   vertex 0.000000 71.401801 -154.788529
   vertex 0.000000 77.942286 -145.000000
  endloop
 endfacet
 facet normal 0.000000 0.751840 -0.659346
  outer loop
   vertex 2940.000000 71.401801 -154.788529
   vertex 2940.000000 63.639610 -163.639610
   vertex 0.000000 63.639610 -163.639610
  endloop
 endfacet
 facet normal 0.000000 0.751840 -0.659346
  outer loop
   vertex 2940.000000 71.401801 -154.788529
   vertex 0.000000 63.639610 -163.639610
   vertex 0.000000 71.401801 -154.788529
  endloop
 endfacet
 facet normal 0.000000 0.659346 -0.751840
  outer loop
   vertex 2940.000000 63.639610 -163.639610
   vertex 2940.000000 54.788529 -171.401801
   vertex 0.000000 54.788529 -171.401801
  endloop
 endfacet
 facet normal 0.000000 0.659346 -0.751840
  outer loop
   vertex 2940.000000 63.639610 -163.639610
   vertex 0.000000 54.788529 -171.401801
   vertex 0.000000 63.639610 -163.639610
  endloop
 endfacet
 facet normal 0.000000 0.555570 -0.831470
  outer loop
   vertex 2940.000000 54.788529 -171.401801
   vertex 2940.000000 45.000000 -177.942286
   vertex 0.000000 45.000000 -177.942286
  endloop
 endfacet
 facet normal 0.000000 0.555570 -0.831470
  outer loop
   vertex 2940.000000 54.788529 -171.401801
   vertex 0.000000 45.000000 -177.942286
   vertex 0.000000 54.788529 -171.401801
  endloop
 endfacet
 facet normal 0.000000 0.442289 -0.896873
  outer loop
   vertex 2940.000000 45.000000 -177.942286
   vertex 2940.000000 34.441509 -183.149158
   vertex 0.000000 34.441509 -183.149158
  endloop
 endfacet
 facet normal 0.000000 0.442289 -0.896873
  outer loop
   vertex 2940.000000 45.000000 -177.942286
   vertex 0.000000 34.441509 -183.149158
   vertex 0.000000 45.000000 -177.942286
  endloop
 endfacet
 facet normal 0.000000 0.321439 -0.946930
  outer loop
   vertex 2940.000000 34.441509 -183.149158
   vertex 2940.000000 23.293714 -186.933324
   vertex 0.000000 23.293714 -186.933324
  endloop
 endfacet
 facet normal 0.000000 0.321439 -0.946930
  outer loop
   vertex 2940.000000 34.441509 -183.149158
   vertex 0.000000 23.293714 -186.933324
   vertex 0.000000 34.441509 -183.149158
  endloop
 endfacet
 facet normal 0.000000 0.195090 -0.980785
  outer loop
   vertex 2940.000000 23.293714 -186.933324
   vertex 2940.000000 11.747357 -189.230038
   vertex 0.000000 11.747357 -189.230038
  endloop
 endfacet
 facet normal 0.000000 0.195090 -0.980785
  outer loop
   vertex 2940.000000 23.293714 -186.933324
   vertex 0.000000 11.747357 -189.230038
   vertex 0.000000 23.293714 -186.933324
  endloop
 endfacet
 facet normal 0.000000 0.065403 -0.997859
  outer loop
   vertex 2940.000000 11.747357 -189.230038
   vertex 2940.000000 0.000000 -190.000000
   vertex 0.000000 0.000000 -190.000000
  endloop
 endfacet
 facet normal 0.000000 0.065403 -0.997859
  outer loop
   vertex 2940.000000 11.747357 -189.230038
   vertex 0.000000 0.000000 -190.000000
   vertex 0.000000 11.747357 -189.230038
  endloop
 endfacet
 facet normal 0.000000 -0.065403 -0.997859
  outer loop
   vertex 2940.000000 0.000000 -190.000000
   vertex 2940.000000 -11.747357 -189.230038
   vertex 0.000000 -11.747357 -189.230038
  endloop
 endfacet
 facet normal -0.000000 -0.065403 -0.997859
  outer loop
   vertex 2940.000000 0.000000 -190.000000
   vertex 0.000000 -11.747357 -189.230038
   vertex 0.000000 0.000000 -190.000000
  endloop
 endfacet
 facet normal 0.000000 -0.195090 -0.980785
  outer loop
   vertex 2940.000000 -11.747357 -189.230038
   vertex 2940.000000 -23.293714 -186.933324
   vertex 0.000000 -23.293714 -186.933324
  endloop
 endfacet
 facet normal -0.000000 -0.195090 -0.980785
  outer loop
   vertex 2940.000000 -11.747357 -189.230038
   vertex 0.000000 -23.293714 -186.933324
   vertex 0.000000 -11.747357 -189.230038
  endloop
 endfacet
 facet normal 0.000000 -0.321439 -0.946930
  outer loop
   vertex 2940.000000 -23.293714 -186.933324
   vertex 2940.000000 -34.441509 -183.149158
   vertex 0.000000 -34.441509 -183.149158
  endloop
 endfacet
 facet normal -0.000000 -0.321439 -0.946930
  outer loop
   vertex 2940.000000 -23.293714 -186.933324
   vertex 0.000000 -34.441509 -183.149158
   vertex 0.000000 -23.293714 -186.933324
  endloop
 endfacet
 facet normal 0.000000 -0.442289 -0.896873
  outer loop
   vertex 2940.000000 -34.441509 -183.149158
   vertex 2940.000000 -45.000000 -177.942286
   vertex 0.000000 -45.000000 -177.942286
  endloop
 endfacet
 facet normal -0.000000 -0.442289 -0.896873
  outer loop
   vertex 2940.000000 -34.441509 -183.149158
   vertex 0.000000 -45.000000 -177.942286
   vertex 0.000000 -34.441509 -183.149158
  endloop
 endfacet
 facet normal 0.000000 -0.555570 -0.831470
  outer loop
   vertex 2940.000000 -45.000000 -177.942286
   vertex 2940.000000 -54.788529 -171.401801
   vertex 0.000000 -54.788529 -171.401801
  endloop
 endfacet
 facet normal -0.000000 -0.555570 -0.831470
  outer loop
   vertex 2940.000000 -45.000000 -177.942286
   vertex 0.000000 -54.788529 -171.401801
   vertex 0.000000 -45.000000 -177.942286
  endloop
 endfacet
 facet normal 0.000000 -0.659346 -0.751840
  outer loop
   vertex 2940.000000 -54.788529 -171.401801
   vertex 2940.000000 -63.639610 -163.639610
   vertex 0.000000 -63.639610 -163.639610
  endloop
 endfacet
 facet normal -0.000000 -0.659346 -0.751840
  outer loop
   vertex 2940.000000 -54.788529 -171.401801
   vertex 0.000000 -63.639610 -163.639610
   vertex 0.000000 -54.788529 -171.401801
  endloop
 endfacet
 facet normal 0.000000 -0.751840 -0.659346
  outer loop
   vertex 2940.000000 -63.639610 -163.639610
   vertex 2940.000000 -71.401801 -154.788529
   vertex 0.000000 -71.401801 -154.788529
  endloop
 endfacet
 facet normal -0.000000 -0.751840 -0.659346
  outer loop
   vertex 2940.000000 -63.639610 -163.639610
   vertex 0.000000 -71.401801 -154.788529
   vertex 0.000000 -63.639610 -163.639610
  endloop
 endfacet
 facet normal 0.000000 -0.831470 -0.555570
  outer loop
   vertex 2940.000000 -71.401801 -154.788529
   vertex 2940.000000 -77.942286 -145.000000
   vertex 0.000000 -77.942286 -145.000000
  endloop
 endfacet
 facet normal -0.000000 -0.831470 -0.555570
  outer loop
   vertex 2940.000000 -71.401801 -154.788529
   vertex 0.000000 -77.942286 -145.000000
   vertex 0.000000 -71.401801 -154.788529
  endloop
 endfacet
 facet normal 0.000000 -0.896873 -0.442289
  outer loop
   vertex 2940.000000 -77.942286 -145.000000
   vertex 2940.000000 -83.149158 -134.441509
   vertex 0.000000 -83.149158 -134.441509
  endloop
 endfacet
 facet normal -0.000000 -0.896873 -0.442289
  outer loop
   vertex 2940.000000 -77.942286 -145.000000
   vertex 0.000000 -83.149158 -134.441509
   vertex 0.000000 -77.942286 -145.000000
  endloop
 endfacet
 facet normal 0.000000 -0.946930 -0.321439
  outer loop
   vertex 2940.000000 -83.149158 -134.441509
   vertex 2940.000000 -86.933324 -123.293714
   vertex 0.000000 -86.933324 -123.293714
  endloop
 endfacet
 facet normal -0.000000 -0.946930 -0.321439
  outer loop
   vertex 2940.000000 -83.149158 -134.441509
   vertex 0.000000 -86.933324 -123.293714
   vertex 0.000000 -83.149158 -134.441509
  endloop
 endfacet
 facet normal 0.000000 -0.980785 -0.195090
  outer loop
   vertex 2940.000000 -86.933324 -123.293714
   vertex 2940.000000 -89.230038 -111.747357
   vertex 0.000000 -89.230038 -111.747357
  endloop
 endfacet
 facet normal -0.000000 -0.980785 -0.195090
  outer loop
   vertex 2940.000000 -86.933324 -123.293714
   vertex 0.000000 -89.230038 -111.747357
   vertex 0.000000 -86.933324 -123.293714
  endloop
 endfacet
 facet normal 0.000000 -0.997859 -0.065403
  outer loop
   vertex 2940.000000 -89.230038 -111.747357
   vertex 2940.000000 -90.000000 -100.000000
   vertex 0.000000 -90.000000 -100.000000
  endloop
 endfacet
 facet normal -0.000000 -0.997859 -0.065403
  outer loop
   vertex 2940.000000 -89.230038 -111.747357
   vertex 0.000000 -90.000000 -100.000000
   vertex 0.000000 -89.230038 -111.747357
  endloop
 endfacet
 facet normal 0.000000 0.997859 -0.065403
  outer loop
   vertex 0.000000 -79.315589 -89.557905
   vertex 2940.000000 -79.315589 -89.557905
   vertex 2940.000000 -80.000000 -100.000000
  endloop
 endfacet
 facet normal 0.000000 0.997859 -0.065403
  outer loop
   vertex 0.000000 -80.000000 -100.000000
   vertex 0.000000 -79.315589 -89.557905
   vertex 2940.000000 -80.000000 -100.000000
  endloop
 endfacet
 facet normal 0.000000 0.980785 -0.195090
  outer loop
   vertex 0.000000 -77.274066 -79.294476
   vertex 2940.000000 -77.274066 -79.294476
   vertex 2940.000000 -79.315589 -89.557905
  endloop
 endfacet
 facet normal 0.000000 0.980785 -0.195090
  outer loop
   vertex 0.000000 -79.315589 -89.557905
   vertex 0.000000 -77.274066 -79.294476
   vertex 2940.000000 -79.315589 -89.557905
  endloop
 endfacet
 facet normal 0.000000 0.946930 -0.321439
  outer loop
   vertex 0.000000 -73.910363 -69.385325
   vertex 2940.000000 -73.910363 -69.385325
   vertex 2940.000000 -77.274066 -79.294476
  endloop
 endfacet
 facet normal 0.000000 0.946930 -0.321439
  outer loop
   vertex 0.000000 -77.274066 -79.294476
   vertex 0.000000 -73.910363 -69.385325
   vertex 2940.000000 -77.274066 -79.294476
  endloop
 endfacet
 facet normal 0.000000 0.896873 -0.442289
  outer loop
   vertex 0.000000 -69.282032 -60.000000
   vertex 2940.000000 -69.282032 -60.000000
   vertex 2940.000000 -73.910363 -69.385325
  endloop
 endfacet
 facet normal 0.000000 0.896873 -0.442289
  outer loop
   vertex 0.000000 -73.910363 -69.385325
   vertex 0.000000 -69.282032 -60.000000
   vertex 2940.000000 -73.910363 -69.385325
  endloop
 endfacet
 facet normal 0.000000 0.831470 -0.555570
  outer loop
   vertex 0.000000 -63.468267 -51.299086
   vertex 2940.000000 -63.468267 -51.299086
   vertex 2940.000000 -69.282032 -60.000000
  endloop
 endfacet
 facet normal 0.000000 0.831470 -0.555570
  outer loop
   vertex 0.000000 -69.282032 -60.000000
   vertex 0.000000 -63.468267 -51.299086
   vertex 2940.000000 -69.282032 -60.000000
  endloop
 endfacet
 facet normal 0.000000 0.751840 -0.659346
  outer loop
   vertex 0.000000 -56.568542 -43.431458
   vertex 2940.000000 -56.568542 -43.431458
   vertex 2940.000000 -63.468267 -51.299086
  endloop
 endfacet
 facet normal 0.000000 0.751840 -0.659346
  outer loop
   vertex 0.000000 -63.468267 -51.299086
   vertex 0.000000 -56.568542 -43.431458
   vertex 2940.000000 -63.468267 -51.299086
  endloop
 endfacet
 facet normal 0.000000 0.659346 -0.751840
  outer loop
   vertex 0.000000 -48.700914 -36.531733
   vertex 2940.000000 -48.700914 -36.531733
   vertex 2940.000000 -56.568542 -43.431458
  endloop
 endfacet
 facet normal 0.000000 0.659346 -0.751840
  outer loop
   vertex 0.000000 -56.568542 -43.431458
   vertex 0.000000 -48.700914 -36.531733
   vertex 2940.000000 -56.568542 -43.431458
  endloop
 endfacet
 facet normal 0.000000 0.555570 -0.831470
  outer loop
   vertex 0.000000 -40.000000 -30.717968
   vertex 2940.000000 -40.000000 -30.717968
   vertex 2940.000000 -48.700914 -36.531733
  endloop
 endfacet
 facet normal 0.000000 0.555570 -0.831470
  outer loop
   vertex 0.000000 -48.700914 -36.531733
   vertex 0.000000 -40.000000 -30.717968
   vertex 2940.000000 -48.700914 -36.531733
  endloop
 endfacet
 facet normal 0.000000 0.442289 -0.896873
  outer loop
   vertex 0.000000 -30.614675 -26.089637
   vertex 2940.000000 -30.614675 -26.089637
   vertex 2940.000000 -40.000000 -30.717968
  endloop
 endfacet
 facet normal 0.000000 0.442289 -0.896873
  outer loop
   vertex 0.000000 -40.000000 -30.717968
   vertex 0.000000 -30.614675 -26.089637
   vertex 2940.000000 -40.000000 -30.717968
  endloop
 endfacet
 facet normal 0.000000 0.321439 -0.946930
  outer loop
   vertex 0.000000 -20.705524 -22.725934
   vertex 2940.000000 -20.705524 -22.725934
   vertex 2940.000000 -30.614675 -26.089637
  endloop
 endfacet
 facet normal 0.000000 0.321439 -0.946930
  outer loop
   vertex 0.000000 -30.614675 -26.089637
   vertex 0.000000 -20.705524 -22.725934
   vertex 2940.000000 -30.614675 -26.089637
  endloop
 endfacet
 facet normal 0.000000 0.195090 -0.980785
  outer loop
   vertex 0.000000 -10.442095 -20.684411
   vertex 2940.000000 -10.442095 -20.684411
   vertex 2940.000000 -20.705524 -22.725934
  endloop
 endfacet
 facet normal 0.000000 0.195090 -0.980785
  outer loop
   vertex 0.000000 -20.705524 -22.725934
   vertex 0.000000 -10.442095 -20.684411
   vertex 2940.000000 -20.705524 -22.725934
  endloop
 endfacet
 facet normal 0.000000 0.065403 -0.997859
  outer loop
   vertex 0.000000 -0.000000 -20.000000
   vertex 2940.000000 -0.000000 -20.000000
   vertex 2940.000000 -10.442095 -20.684411
  endloop
 endfacet
 facet normal 0.000000 0.065403 -0.997859
  outer loop
   vertex 0.000000 -10.442095 -20.684411
   vertex 0.000000 -0.000000 -20.000000
   vertex 2940.000000 -10.442095 -20.684411
  endloop
 endfacet
 facet normal 0.000000 -0.065403 -0.997859
  outer loop
   vertex 0.000000 10.442095 -20.684411
   vertex 2940.000000 10.442095 -20.684411
   vertex 2940.000000 -0.000000 -20.000000
  endloop
 endfacet
 facet normal 0.000000 -0.065403 -0.997859
  outer loop
   vertex 0.000000 -0.000000 -20.000000
   vertex 0.000000 10.442095 -20.684411
   vertex 2940.000000 -0.000000 -20.000000
  endloop
 endfacet
 facet normal 0.000000 -0.195090 -0.980785
  outer loop
   vertex 0.000000 20.705524 -22.725934
   vertex 2940.000000 20.705524 -22.725934
   vertex 2940.000000 10.442095 -20.684411
  endloop
 endfacet
 facet normal 0.000000 -0.195090 -0.980785
  outer loop
   vertex 0.000000 10.442095 -20.684411
   vertex 0.000000 20.705524 -22.725934
   vertex 2940.000000 10.442095 -20.684411
  endloop
 endfacet
 facet normal 0.000000 -0.321439 -0.946930
  outer loop
   vertex 0.000000 30.614675 -26.089637
   vertex 2940.000000 30.614675 -26.089637
   vertex 2940.000000 20.705524 -22.725934
  endloop
 endfacet
 facet normal 0.000000 -0.321439 -0.946930
  outer loop
   vertex 0.000000 20.705524 -22.725934
   vertex 0.000000 30.614675 -26.089637
   vertex 2940.000000 20.705524 -22.725934
  endloop
 endfacet
 facet normal 0.000000 -0.442289 -0.896873
  outer loop
   vertex 0.000000 40.000000 -30.717968
   vertex 2940.000000 40.000000 -30.717968
   vertex 2940.000000 30.614675 -26.089637
  endloop
 endfacet
 facet normal 0.000000 -0.442289 -0.896873
  outer loop
   vertex 0.000000 30.614675 -26.089637
   vertex 0.000000 40.000000 -30.717968
   vertex 2940.000000 30.614675 -26.089637
  endloop
 endfacet
 facet normal 0.000000 -0.555570 -0.831470
  outer loop
   vertex 0.000000 48.700914 -36.531733
   vertex 2940.000000 48.700914 -36.531733
   vertex 2940.000000 40.000000 -30.717968
  endloop
 endfacet
 facet normal 0.000000 -0.555570 -0.831470
  outer loop
   vertex 0.000000 40.000000 -30.717968
   vertex 0.000000 48.700914 -36.531733
   vertex 2940.000000 40.000000 -30.717968
  endloop
 endfacet
 facet normal 0.000000 -0.659346 -0.751840
  outer loop
   vertex 0.000000 56.568542 -43.431458
   vertex 2940.000000 56.568542 -43.431458
   vertex 2940.000000 48.700914 -36.531733
  endloop
 endfacet
 facet normal 0.000000 -0.659346 -0.751840
  outer loop
   vertex 0.000000 48.700914 -36.531733
   vertex 0.000000 56.568542 -43.431458
   vertex 2940.000000 48.700914 -36.531733
  endloop
 endfacet
 facet normal 0.000000 -0.751840 -0.659346
  outer loop
   vertex 0.000000 63.468267 -51.299086
   vertex 2940.000000 63.468267 -51.299086
   vertex 2940.000000 56.568542 -43.431458
  endloop
 endfacet
 facet normal 0.000000 -0.751840 -0.659346
  outer loop
   vertex 0.000000 56.568542 -43.431458
   vertex 0.000000 63.468267 -51.299086
   vertex 2940.000000 56.568542 -43.431458
  endloop
 endfacet
 facet normal 0.000000 -0.831470 -0.555570
  outer loop
   vertex 0.000000 69.282032 -60.000000
   vertex 2940.000000 69.282032 -60.000000
   vertex 2940.000000 63.468267 -51.299086
  endloop
 endfacet
 facet normal 0.000000 -0.831470 -0.555570
  outer loop
   vertex 0.000000 63.468267 -51.299086
   vertex 0.000000 69.282032 -60.000000
   vertex 2940.000000 63.468267 -51.299086
  endloop
 endfacet
 facet normal 0.000000 -0.896873 -0.442289
  outer loop
   vertex 0.000000 73.910363 -69.385325
   vertex 2940.000000 73.910363 -69.385325
   vertex 2940.000000 69.282032 -60.000000
  endloop
 endfacet
 facet normal 0.000000 -0.896873 -0.442289
  outer loop
   vertex 0.000000 69.282032 -60.000000
   vertex 0.000000 73.910363 -69.385325
   vertex 2940.000000 69.282032 -60.000000
  endloop
 endfacet
 facet normal 0.000000 -0.946930 -0.321439
  outer loop
   vertex 0.000000 77.274066 -79.294476
   vertex 2940.000000 77.274066 -79.294476
   vertex 2940.000000 73.910363 -69.385325
  endloop
 endfacet
 facet normal 0.000000 -0.946930 -0.321439
  outer loop
   vertex 0.000000 73.910363 -69.385325
   vertex 0.000000 77.274066 -79.294476
   vertex 2940.000000 73.910363 -69.385325
  endloop
 endfacet
 facet normal 0.000000 -0.980785 -0.195090
  outer loop
   vertex 0.000000 79.315589 -89.557905
   vertex 2940.000000 79.315589 -89.557905
   vertex 2940.000000 77.274066 -79.294476
  endloop
 endfacet
 facet normal 0.000000 -0.980785 -0.195090
  outer loop
   vertex 0.000000 77.274066 -79.294476
   vertex 0.000000 79.315589 -89.557905
   vertex 2940.000000 77.274066 -79.294476
  endloop
 endfacet
 facet normal 0.000000 -0.997859 -0.065403
  outer loop
   vertex 0.000000 80.000000 -100.000000
   vertex 2940.000000 80.000000 -100.000000
   vertex 2940.000000 79.315589 -89.557905
  endloop
 endfacet
 facet normal 0.000000 -0.997859 -0.065403
  outer loop
   vertex 0.000000 79.315589 -89.557905
   vertex 0.000000 80.000000 -100.000000
   vertex 2940.000000 79.315589 -89.557905
  endloop
 endfacet
 facet normal 0.000000 -0.997859 0.065403
  outer loop
   vertex 0.000000 79.315589 -110.442095
   vertex 2940.000000 79.315589 -110.442095
   vertex 2940.000000 80.000000 -100.000000
  endloop
 endfacet
 facet normal 0.000000 -0.997859 0.065403
  outer loop
   vertex 0.000000 80.000000 -100.000000
   vertex 0.000000 79.315589 -110.442095
   vertex 2940.000000 80.000000 -100.000000
  endloop
 endfacet
 facet normal 0.000000 -0.980785 0.195090
  outer loop
   vertex 0.000000 77.274066 -120.705524
   vertex 2940.000000 77.274066 -120.705524
   vertex 2940.000000 79.315589 -110.442095
  endloop
 endfacet
 facet normal 0.000000 -0.980785 0.195090
  outer loop
   vertex 0.000000 79.315589 -110.442095
   vertex 0.000000 77.274066 -120.705524
   vertex 2940.000000 79.315589 -110.442095
  endloop
 endfacet
 facet normal 0.000000 -0.946930 0.321439
  outer loop
   vertex 0.000000 73.910363 -130.614675
   vertex 2940.000000 73.910363 -130.614675
   vertex 2940.000000 77.274066 -120.705524
  endloop
 endfacet
 facet normal 0.000000 -0.946930 0.321439
  outer loop
   vertex 0.000000 77.274066 -120.705524
   vertex 0.000000 73.910363 -130.614675
   vertex 2940.000000 77.274066 -120.705524
  endloop
 endfacet
 facet normal 0.000000 -0.896873 0.442289
  outer loop
   vertex 0.000000 69.282032 -140.000000
   vertex 2940.000000 69.282032 -140.000000
   vertex 2940.000000 73.910363 -130.614675
  endloop
 endfacet
 facet normal 0.000000 -0.896873 0.442289
  outer loop
   vertex 0.000000 73.910363 -130.614675
   vertex 0.000000 69.282032 -140.000000
   vertex 2940.000000 73.910363 -130.614675
  endloop
 endfacet
 facet normal 0.000000 -0.831470 0.555570
  outer loop
   vertex 0.000000 63.468267 -148.700914
   vertex 2940.000000 63.468267 -148.700914
   vertex 2940.000000 69.282032 -140.000000
  endloop
 endfacet
 facet normal 0.000000 -0.831470 0.555570
  outer loop
   vertex 0.000000 69.282032 -140.000000
   vertex 0.000000 63.468267 -148.700914
   vertex 2940.000000 69.282032 -140.000000
  endloop
 endfacet
 facet normal 0.000000 -0.751840 0.659346
  outer loop
   vertex 0.000000 56.568542 -156.568542
   vertex 2940.000000 56.568542 -156.568542
   vertex 2940.000000 63.468267 -148.700914
  endloop
 endfacet
 facet normal 0.000000 -0.751840 0.659346
  outer loop
   vertex 0.000000 63.468267 -148.700914
   vertex 0.000000 56.568542 -156.568542
   vertex 2940.000000 63.468267 -148.700914
  endloop
 endfacet
 facet normal 0.000000 -0.659346 0.751840
  outer loop
   vertex 0.000000 48.700914 -163.468267
   vertex 2940.000000 48.700914 -163.468267
   vertex 2940.000000 56.568542 -156.568542
  endloop
 endfacet
 facet normal 0.000000 -0.659346 0.751840
  outer loop
   vertex 0.000000 56.568542 -156.568542
   vertex 0.000000 48.700914 -163.468267
   vertex 2940.000000 56.568542 -156.568542
  endloop
 endfacet
 facet normal 0.000000 -0.555570 0.831470
  outer loop
   vertex 0.000000 40.000000 -169.282032
   vertex 2940.000000 40.000000 -169.282032
   vertex 2940.000000 48.700914 -163.468267
  endloop
 endfacet
 facet normal 0.000000 -0.555570 0.831470
  outer loop
   vertex 0.000000 48.700914 -163.468267
   vertex 0.000000 40.000000 -169.282032
   vertex 2940.000000 48.700914 -163.468267
  endloop
 endfacet
 facet normal 0.000000 -0.442289 0.896873
  outer loop
   vertex 0.000000 30.614675 -173.910363
   vertex 2940.000000 30.614675 -173.910363
   vertex 2940.000000 40.000000 -169.282032
  endloop
 endfacet
 facet normal 0.000000 -0.442289 0.896873
  outer loop
   vertex 0.000000 40.000000 -169.282032
   vertex 0.000000 30.614675 -173.910363
   vertex 2940.000000 40.000000 -169.282032
  endloop
 endfacet
 facet normal 0.000000 -0.321439 0.946930
  outer loop
   vertex 0.000000 20.705524 -177.274066
   vertex 2940.000000 20.705524 -177.274066
   vertex 2940.000000 30.614675 -173.910363
  endloop
 endfacet
 facet normal 0.000000 -0.321439 0.946930
  outer loop
   vertex 0.000000 30.614675 -173.910363
   vertex 0.000000 20.705524 -177.274066
   vertex 2940.000000 30.614675 -173.910363
  endloop
 endfacet
 facet normal 0.000000 -0.195090 0.980785
  outer loop
   vertex 0.000000 10.442095 -179.315589
   vertex 2940.000000 10.442095 -179.315589
   vertex 2940.000000 20.705524 -177.274066
  endloop
 endfacet
 facet normal 0.000000 -0.195090 0.980785
  outer loop
   vertex 0.000000 20.705524 -177.274066
   vertex 0.000000 10.442095 -179.315589
   vertex 2940.000000 20.705524 -177.274066
  endloop
 endfacet
 facet normal 0.000000 -0.065403 0.997859
  outer loop
   vertex 0.000000 0.000000 -180.000000
   vertex 2940.000000 0.000000 -180.000000
   vertex 2940.000000 10.442095 -179.315589
  endloop
 endfacet
 facet normal 0.000000 -0.065403 0.997859
  outer loop
   vertex 0.000000 10.442095 -179.315589
   vertex 0.000000 0.000000 -180.000000
   vertex 2940.000000 10.442095 -179.315589
  endloop
 endfacet
 facet normal -0.000000 0.065403 0.997859
  outer loop
   vertex 0.000000 -10.442095 -179.315589
   vertex 2940.000000 -10.442095 -179.315589
   vertex 2940.000000 0.000000 -180.000000
  endloop
 endfacet
 facet normal -0.000000 0.065403 0.997859
  outer loop
   vertex 0.000000 0.000000 -180.000000
   vertex 0.000000 -10.442095 -179.315589
   vertex 2940.000000 0.000000 -180.000000
  endloop
 endfacet
 facet normal -0.000000 0.195090 0.980785
  outer loop
   vertex 0.000000 -20.705524 -177.274066
   vertex 2940.000000 -20.705524 -177.274066
   vertex 2940.000000 -10.442095 -179.315589
  endloop
 endfacet
 facet normal -0.000000 0.195090 0.980785
  outer loop
   vertex 0.000000 -10.442095 -179.315589
   vertex 0.000000 -20.705524 -177.274066
   vertex 2940.000000 -10.442095 -179.315589
  endloop
 endfacet
 facet normal -0.000000 0.321439 0.946930
  outer loop
   vertex 0.000000 -30.614675 -173.910363
   vertex 2940.000000 -30.614675 -173.910363
   vertex 2940.000000 -20.705524 -177.274066
  endloop
 endfacet
 facet normal -0.000000 0.321439 0.946930
  outer loop
   vertex 0.000000 -20.705524 -177.274066
   vertex 0.000000 -30.614675 -173.910363
   vertex 2940.000000 -20.705524 -177.274066
  endloop
 endfacet
 facet normal -0.000000 0.442289 0.896873
  outer loop
   vertex 0.000000 -40.000000 -169.282032
   vertex 2940.000000 -40.000000 -169.282032
   vertex 2940.000000 -30.614675 -173.910363
  endloop
 endfacet
 facet normal -0.000000 0.442289 0.896873
  outer loop
   vertex 0.000000 -30.614675 -173.910363
   vertex 0.000000 -40.000000 -169.282032
   vertex 2940.000000 -30.614675 -173.910363
  endloop
 endfacet
 facet normal -0.000000 0.555570 0.831470
  outer loop
   vertex 0.000000 -48.700914 -163.468267
   vertex 2940.000000 -48.700914 -163.468267
   vertex 2940.000000 -40.000000 -169.282032
  endloop
 endfacet
 facet normal -0.000000 0.555570 0.831470
  outer loop
   vertex 0.000000 -40.000000 -169.282032
   vertex 0.000000 -48.700914 -163.468267
   vertex 2940.000000 -40.000000 -169.282032
  endloop
 endfacet
 facet normal -0.000000 0.659346 0.751840
  outer loop
   vertex 0.000000 -56.568542 -156.568542
   vertex 2940.000000 -56.568542 -156.568542
   vertex 2940.000000 -48.700914 -163.468267
  endloop
 endfacet
 facet normal -0.000000 0.659346 0.751840
  outer loop
   vertex 0.000000 -48.700914 -163.468267
   vertex 0.000000 -56.568542 -156.568542
   vertex 2940.000000 -48.700914 -163.468267
  endloop
 endfacet
 facet normal -0.000000 0.751840 0.659346
  outer loop
   vertex 0.000000 -63.468267 -148.700914
   vertex 2940.000000 -63.468267 -148.700914
   vertex 2940.000000 -56.568542 -156.568542
  endloop
 endfacet
 facet normal -0.000000 0.751840 0.659346
  outer loop
   vertex 0.000000 -56.568542 -156.568542
   vertex 0.000000 -63.468267 -148.700914
   vertex 2940.000000 -56.568542 -156.568542
  endloop
 endfacet
 facet normal -0.000000 0.831470 0.555570
  outer loop
   vertex 0.000000 -69.282032 -140.000000
   vertex 2940.000000 -69.282032 -140.000000
   vertex 2940.000000 -63.468267 -148.700914
  endloop
 endfacet
 facet normal -0.000000 0.831470 0.555570
  outer loop
   vertex 0.000000 -63.468267 -148.700914
   vertex 0.000000 -69.282032 -140.000000
   vertex 2940.000000 -63.468267 -148.700914
  endloop
 endfacet
 facet normal -0.000000 0.896873 0.442289
  outer loop
   vertex 0.000000 -73.910363 -130.614675
   vertex 2940.000000 -73.910363 -130.614675
   vertex 2940.000000 -69.282032 -140.000000
  endloop
 endfacet
 facet normal -0.000000 0.896873 0.442289
  outer loop
   vertex 0.000000 -69.282032 -140.000000
   vertex 0.000000 -73.910363 -130.614675
   vertex 2940.000000 -69.282032 -140.000000
  endloop
 endfacet
 facet normal -0.000000 0.946930 0.321439
  outer loop
   vertex 0.000000 -77.274066 -120.705524
   vertex 2940.000000 -77.274066 -120.705524
   vertex 2940.000000 -73.910363 -130.614675
  endloop
 endfacet
 facet normal -0.000000 0.946930 0.321439
  outer loop
   vertex 0.000000 -73.910363 -130.614675
   vertex 0.000000 -77.274066 -120.705524
   vertex 2940.000000 -73.910363 -130.614675
  endloop
 endfacet
 facet normal -0.000000 0.980785 0.195090
  outer loop
   vertex 0.000000 -79.315589 -110.442095
   vertex 2940.000000 -79.315589 -110.442095
   vertex 2940.000000 -77.274066 -120.705524
  endloop
 endfacet
 facet normal -0.000000 0.980785 0.195090
  outer loop
   vertex 0.000000 -77.274066 -120.705524
   vertex 0.000000 -79.315589 -110.442095
   vertex 2940.000000 -77.274066 -120.705524
  endloop
 endfacet
 facet normal -0.000000 0.997859 0.065403
  outer loop
   vertex 0.000000 -80.000000 -100.000000
   vertex 2940.000000 -80.000000 -100.000000
   vertex 2940.000000 -79.315589 -110.442095
  endloop
 endfacet
 facet normal -0.000000 0.997859 0.065403
  outer loop
   vertex 0.000000 -79.315589 -110.442095
   vertex 0.000000 -80.000000 -100.000000
   vertex 2940.000000 -79.315589 -110.442095
  endloop
 endfacet
endsolid SII_LOX_feed_2_Hrun
