solid SII_LOX_feed_1_drop
 facet normal 0.063892 0.997859 0.013976
  outer loop
   vertex 1890.000000 90.000000 -520.000000
   vertex 1901.475994 89.230038 -517.489626
   vertex 2111.475994 89.230038 -1477.489626
  endloop
 endfacet
 facet normal 0.063892 0.997859 0.013976
  outer loop
   vertex 1890.000000 90.000000 -520.000000
   vertex 2111.475994 89.230038 -1477.489626
   vertex 2100.000000 90.000000 -1480.000000
  endloop
 endfacet
 facet normal 0.190584 0.980785 0.041690
  outer loop
   vertex 1901.475994 89.230038 -517.489626
   vertex 1912.755630 86.933324 -515.022206
   vertex 2122.755630 86.933324 -1475.022206
  endloop
 endfacet
 facet normal 0.190584 0.980785 0.041690
  outer loop
   vertex 1901.475994 89.230038 -517.489626
   vertex 2122.755630 86.933324 -1475.022206
   vertex 2111.475994 89.230038 -1477.489626
  endloop
 endfacet
 facet normal 0.314014 0.946930 0.068691
  outer loop
   vertex 1912.755630 86.933324 -515.022206
   vertex 1923.645911 83.149158 -512.639957
   vertex 2133.645911 83.149158 -1472.639957
  endloop
 endfacet
 facet normal 0.314014 0.946930 0.068691
  outer loop
   vertex 1912.755630 86.933324 -515.022206
   vertex 2133.645911 83.149158 -1472.639957
   vertex 2122.755630 86.933324 -1475.022206
  endloop
 endfacet
 facet normal 0.432072 0.896873 0.094516
  outer loop
   vertex 1923.645911 83.149158 -512.639957
   vertex 1933.960501 77.942286 -510.383640
   vertex 2143.960501 77.942286 -1470.383640
  endloop
 endfacet
 facet normal 0.432072 0.896873 0.094516
  outer loop
   vertex 1923.645911 83.149158 -512.639957
   vertex 2143.960501 77.942286 -1470.383640
   vertex 2133.645911 83.149158 -1472.639957
  endloop
 endfacet
 facet normal 0.542737 0.831470 0.118724
  outer loop
   vertex 1933.960501 77.942286 -510.383640
   vertex 1943.522915 71.401801 -508.291862
   vertex 2153.522915 71.401801 -1468.291862
  endloop
 endfacet
 facet normal 0.542737 0.831470 0.118724
  outer loop
   vertex 1933.960501 77.942286 -510.383640
   vertex 2153.522915 71.401801 -1468.291862
   vertex 2143.960501 77.942286 -1470.383640
  endloop
 endfacet
 facet normal 0.644115 0.751840 0.140900
  outer loop
   vertex 1943.522915 71.401801 -508.291862
   vertex 1952.169536 63.639610 -506.400414
   vertex 2162.169536 63.639610 -1466.400414
  endloop
 endfacet
 facet normal 0.644115 0.751840 0.140900
  outer loop
   vertex 1943.522915 71.401801 -508.291862
   vertex 2162.169536 63.639610 -1466.400414
   vertex 2153.522915 71.401801 -1468.291862
  endloop
 endfacet
 facet normal 0.734472 0.659346 0.160666
  outer loop
   vertex 1952.169536 63.639610 -506.400414
   vertex 1959.752420 54.788529 -504.741658
   vertex 2169.752420 54.788529 -1464.741658
  endloop
 endfacet
 facet normal 0.734472 0.659346 0.160666
  outer loop
   vertex 1952.169536 63.639610 -506.400414
   vertex 2169.752420 54.788529 -1464.741658
   vertex 2162.169536 63.639610 -1466.400414
  endloop
 endfacet
 facet normal 0.812263 0.555570 0.177682
  outer loop
   vertex 1959.752420 54.788529 -504.741658
   vertex 1966.141821 45.000000 -503.343977
   vertex 2176.141821 45.000000 -1463.343977
  endloop
 endfacet
 facet normal 0.812263 0.555570 0.177682
  outer loop
   vertex 1959.752420 54.788529 -504.741658
   vertex 2176.141821 45.000000 -1463.343977
   vertex 2169.752420 54.788529 -1464.741658
  endloop
 endfacet
 facet normal 0.876155 0.442289 0.191659
  outer loop
   vertex 1966.141821 45.000000 -503.343977
   vertex 1971.228414 34.441509 -502.231284
   vertex 2181.228414 34.441509 -1462.231284
  endloop
 endfacet
 facet normal 0.876155 0.442289 0.191659
  outer loop
   vertex 1966.141821 45.000000 -503.343977
   vertex 2181.228414 34.441509 -1462.231284
   vertex 2176.141821 45.000000 -1463.343977
  endloop
 endfacet
 facet normal 0.925056 0.321439 0.202356
  outer loop
   vertex 1971.228414 34.441509 -502.231284
   vertex 1974.925166 23.293714 -501.422620
   vertex 2184.925166 23.293714 -1461.422620
  endloop
 endfacet
 facet normal 0.925056 0.321439 0.202356
  outer loop
   vertex 1971.228414 34.441509 -502.231284
   vertex 2184.925166 23.293714 -1461.422620
   vertex 2181.228414 34.441509 -1462.231284
  endloop
 endfacet
 facet normal 0.958129 0.195090 0.209591
  outer loop
   vertex 1974.925166 23.293714 -501.422620
   vertex 1977.168825 11.747357 -500.931819
   vertex 2187.168825 11.747357 -1460.931819
  endloop
 endfacet
 facet normal 0.958129 0.195090 0.209591
  outer loop
   vertex 1974.925166 23.293714 -501.422620
   vertex 2187.168825 11.747357 -1460.931819
   vertex 2184.925166 23.293714 -1461.422620
  endloop
 endfacet
 facet normal 0.974808 0.065403 0.213239
  outer loop
   vertex 1977.168825 11.747357 -500.931819
   vertex 1977.921002 0.000000 -500.767281
   vertex 2187.921002 0.000000 -1460.767281
  endloop
 endfacet
 facet normal 0.974808 0.065403 0.213239
  outer loop
   vertex 1977.168825 11.747357 -500.931819
   vertex 2187.921002 0.000000 -1460.767281
   vertex 2187.168825 11.747357 -1460.931819
  endloop
 endfacet
 facet normal 0.974808 -0.065403 0.213239
  outer loop
   vertex 1977.921002 0.000000 -500.767281
   vertex 1977.168825 -11.747357 -500.931819
   vertex 2187.168825 -11.747357 -1460.931819
  endloop
 endfacet
 facet normal 0.974808 -0.065403 0.213239
  outer loop
   vertex 1977.921002 0.000000 -500.767281
   vertex 2187.168825 -11.747357 -1460.931819
   vertex 2187.921002 0.000000 -1460.767281
  endloop
 endfacet
 facet normal 0.958129 -0.195090 0.209591
  outer loop
   vertex 1977.168825 -11.747357 -500.931819
   vertex 1974.925166 -23.293714 -501.422620
   vertex 2184.925166 -23.293714 -1461.422620
  endloop
 endfacet
 facet normal 0.958129 -0.195090 0.209591
  outer loop
   vertex 1977.168825 -11.747357 -500.931819
   vertex 2184.925166 -23.293714 -1461.422620
   vertex 2187.168825 -11.747357 -1460.931819
  endloop
 endfacet
 facet normal 0.925056 -0.321439 0.202356
  outer loop
   vertex 1974.925166 -23.293714 -501.422620
   vertex 1971.228414 -34.441509 -502.231284
   vertex 2181.228414 -34.441509 -1462.231284
  endloop
 endfacet
 facet normal 0.925056 -0.321439 0.202356
  outer loop
   vertex 1974.925166 -23.293714 -501.422620
   vertex 2181.228414 -34.441509 -1462.231284
   vertex 2184.925166 -23.293714 -1461.422620
  endloop
 endfacet
 facet normal 0.876155 -0.442289 0.191659
  outer loop
   vertex 1971.228414 -34.441509 -502.231284
   vertex 1966.141821 -45.000000 -503.343977
   vertex 2176.141821 -45.000000 -1463.343977
  endloop
 endfacet
 facet normal 0.876155 -0.442289 0.191659
  outer loop
   vertex 1971.228414 -34.441509 -502.231284
   vertex 2176.141821 -45.000000 -1463.343977
   vertex 2181.228414 -34.441509 -1462.231284
  endloop
 endfacet
 facet normal 0.812263 -0.555570 0.177682
  outer loop
   vertex 1966.141821 -45.000000 -503.343977
   vertex 1959.752420 -54.788529 -504.741658
   vertex 2169.752420 -54.788529 -1464.741658
  endloop
 endfacet
 facet normal 0.812263 -0.555570 0.177682
  outer loop
   vertex 1966.141821 -45.000000 -503.343977
   vertex 2169.752420 -54.788529 -1464.741658
   vertex 2176.141821 -45.000000 -1463.343977
  endloop
 endfacet
 facet normal 0.734472 -0.659346 0.160666
  outer loop
   vertex 1959.752420 -54.788529 -504.741658
   vertex 1952.169536 -63.639610 -506.400414
   vertex 2162.169536 -63.639610 -1466.400414
  endloop
 endfacet
 facet normal 0.734472 -0.659346 0.160666
  outer loop
   vertex 1959.752420 -54.788529 -504.741658
   vertex 2162.169536 -63.639610 -1466.400414
   vertex 2169.752420 -54.788529 -1464.741658
  endloop
 endfacet
 facet normal 0.644115 -0.751840 0.140900
  outer loop
   vertex 1952.169536 -63.639610 -506.400414
   vertex 1943.522915 -71.401801 -508.291862
   vertex 2153.522915 -71.401801 -1468.291862
  endloop
 endfacet
 facet normal 0.644115 -0.751840 0.140900
  outer loop
   vertex 1952.169536 -63.639610 -506.400414
   vertex 2153.522915 -71.401801 -1468.291862
   vertex 2162.169536 -63.639610 -1466.400414
  endloop
 endfacet
 facet normal 0.542737 -0.831470 0.118724
  outer loop
   vertex 1943.522915 -71.401801 -508.291862
   vertex 1933.960501 -77.942286 -510.383640
   vertex 2143.960501 -77.942286 -1470.383640
  endloop
 endfacet
 facet normal 0.542737 -0.831470 0.118724
  outer loop
   vertex 1943.522915 -71.401801 -508.291862
   vertex 2143.960501 -77.942286 -1470.383640
   vertex 2153.522915 -71.401801 -1468.291862
  endloop
 endfacet
 facet normal 0.432072 -0.896873 0.094516
  outer loop
   vertex 1933.960501 -77.942286 -510.383640
   vertex 1923.645911 -83.149158 -512.639957
   vertex 2133.645911 -83.149158 -1472.639957
  endloop
 endfacet
 facet normal 0.432072 -0.896873 0.094516
  outer loop
   vertex 1933.960501 -77.942286 -510.383640
   vertex 2133.645911 -83.149158 -1472.639957
   vertex 2143.960501 -77.942286 -1470.383640
  endloop
 endfacet
 facet normal 0.314014 -0.946930 0.068691
  outer loop
   vertex 1923.645911 -83.149158 -512.639957
   vertex 1912.755630 -86.933324 -515.022206
   vertex 2122.755630 -86.933324 -1475.022206
  endloop
 endfacet
 facet normal 0.314014 -0.946930 0.068691
  outer loop
   vertex 1923.645911 -83.149158 -512.639957
   vertex 2122.755630 -86.933324 -1475.022206
   vertex 2133.645911 -83.149158 -1472.639957
  endloop
 endfacet
 facet normal 0.190584 -0.980785 0.041690
  outer loop
   vertex 1912.755630 -86.933324 -515.022206
   vertex 1901.475994 -89.230038 -517.489626
   vertex 2111.475994 -89.230038 -1477.489626
  endloop
 endfacet
 facet normal 0.190584 -0.980785 0.041690
  outer loop
   vertex 1912.755630 -86.933324 -515.022206
   vertex 2111.475994 -89.230038 -1477.489626
   vertex 2122.755630 -86.933324 -1475.022206
  endloop
 endfacet
 facet normal 0.063892 -0.997859 0.013976
  outer loop
   vertex 1901.475994 -89.230038 -517.489626
   vertex 1890.000000 -90.000000 -520.000000
   vertex 2100.000000 -90.000000 -1480.000000
  endloop
 endfacet
 facet normal 0.063892 -0.997859 0.013976
  outer loop
   vertex 1901.475994 -89.230038 -517.489626
   vertex 2100.000000 -90.000000 -1480.000000
   vertex 2111.475994 -89.230038 -1477.489626
  endloop
 endfacet
 facet normal -0.063892 -0.997859 -0.013976
  outer loop
   vertex 1890.000000 -90.000000 -520.000000
   vertex 1878.524006 -89.230038 -522.510374
   vertex 2088.524006 -89.230038 -1482.510374
  endloop
 endfacet
 facet normal -0.063892 -0.997859 -0.013976
  outer loop
   vertex 1890.000000 -90.000000 -520.000000
   vertex 2088.524006 -89.230038 -1482.510374
   vertex 2100.000000 -90.000000 -1480.000000
  endloop
 endfacet
 facet normal -0.190584 -0.980785 -0.041690
  outer loop
   vertex 1878.524006 -89.230038 -522.510374
   vertex 1867.244370 -86.933324 -524.977794
   vertex 2077.244370 -86.933324 -1484.977794
  endloop
 endfacet
 facet normal -0.190584 -0.980785 -0.041690
  outer loop
   vertex 1878.524006 -89.230038 -522.510374
   vertex 2077.244370 -86.933324 -1484.977794
   vertex 2088.524006 -89.230038 -1482.510374
  endloop
 endfacet
 facet normal -0.314014 -0.946930 -0.068691
  outer loop
   vertex 1867.244370 -86.933324 -524.977794
   vertex 1856.354089 -83.149158 -527.360043
   vertex 2066.354089 -83.149158 -1487.360043
  endloop
 endfacet
 facet normal -0.314014 -0.946930 -0.068691
  outer loop
   vertex 1867.244370 -86.933324 -524.977794
   vertex 2066.354089 -83.149158 -1487.360043
   vertex 2077.244370 -86.933324 -1484.977794
  endloop
 endfacet
 facet normal -0.432072 -0.896873 -0.094516
  outer loop
   vertex 1856.354089 -83.149158 -527.360043
   vertex 1846.039499 -77.942286 -529.616360
   vertex 2056.039499 -77.942286 -1489.616360
  endloop
 endfacet
 facet normal -0.432072 -0.896873 -0.094516
  outer loop
   vertex 1856.354089 -83.149158 -527.360043
   vertex 2056.039499 -77.942286 -1489.616360
   vertex 2066.354089 -83.149158 -1487.360043
  endloop
 endfacet
 facet normal -0.542737 -0.831470 -0.118724
  outer loop
   vertex 1846.039499 -77.942286 -529.616360
   vertex 1836.477085 -71.401801 -531.708138
   vertex 2046.477085 -71.401801 -1491.708138
  endloop
 endfacet
 facet normal -0.542737 -0.831470 -0.118724
  outer loop
   vertex 1846.039499 -77.942286 -529.616360
   vertex 2046.477085 -71.401801 -1491.708138
   vertex 2056.039499 -77.942286 -1489.616360
  endloop
 endfacet
 facet normal -0.644115 -0.751840 -0.140900
  outer loop
   vertex 1836.477085 -71.401801 -531.708138
   vertex 1827.830464 -63.639610 -533.599586
   vertex 2037.830464 -63.639610 -1493.599586
  endloop
 endfacet
 facet normal -0.644115 -0.751840 -0.140900
  outer loop
   vertex 1836.477085 -71.401801 -531.708138
   vertex 2037.830464 -63.639610 -1493.599586
   vertex 2046.477085 -71.401801 -1491.708138
  endloop
 endfacet
 facet normal -0.734472 -0.659346 -0.160666
  outer loop
   vertex 1827.830464 -63.639610 -533.599586
   vertex 1820.247580 -54.788529 -535.258342
   vertex 2030.247580 -54.788529 -1495.258342
  endloop
 endfacet
 facet normal -0.734472 -0.659346 -0.160666
  outer loop
   vertex 1827.830464 -63.639610 -533.599586
   vertex 2030.247580 -54.788529 -1495.258342
   vertex 2037.830464 -63.639610 -1493.599586
  endloop
 endfacet
 facet normal -0.812263 -0.555570 -0.177682
  outer loop
   vertex 1820.247580 -54.788529 -535.258342
   vertex 1813.858179 -45.000000 -536.656023
   vertex 2023.858179 -45.000000 -1496.656023
  endloop
 endfacet
 facet normal -0.812263 -0.555570 -0.177682
  outer loop
   vertex 1820.247580 -54.788529 -535.258342
   vertex 2023.858179 -45.000000 -1496.656023
   vertex 2030.247580 -54.788529 -1495.258342
  endloop
 endfacet
 facet normal -0.876155 -0.442289 -0.191659
  outer loop
   vertex 1813.858179 -45.000000 -536.656023
   vertex 1808.771586 -34.441509 -537.768716
   vertex 2018.771586 -34.441509 -1497.768716
  endloop
 endfacet
 facet normal -0.876155 -0.442289 -0.191659
  outer loop
   vertex 1813.858179 -45.000000 -536.656023
   vertex 2018.771586 -34.441509 -1497.768716
   vertex 2023.858179 -45.000000 -1496.656023
  endloop
 endfacet
 facet normal -0.925056 -0.321439 -0.202356
  outer loop
   vertex 1808.771586 -34.441509 -537.768716
   vertex 1805.074834 -23.293714 -538.577380
   vertex 2015.074834 -23.293714 -1498.577380
  endloop
 endfacet
 facet normal -0.925056 -0.321439 -0.202356
  outer loop
   vertex 1808.771586 -34.441509 -537.768716
   vertex 2015.074834 -23.293714 -1498.577380
   vertex 2018.771586 -34.441509 -1497.768716
  endloop
 endfacet
 facet normal -0.958129 -0.195090 -0.209591
  outer loop
   vertex 1805.074834 -23.293714 -538.577380
   vertex 1802.831175 -11.747357 -539.068181
   vertex 2012.831175 -11.747357 -1499.068181
  endloop
 endfacet
 facet normal -0.958129 -0.195090 -0.209591
  outer loop
   vertex 1805.074834 -23.293714 -538.577380
   vertex 2012.831175 -11.747357 -1499.068181
   vertex 2015.074834 -23.293714 -1498.577380
  endloop
 endfacet
 facet normal -0.974808 -0.065403 -0.213239
  outer loop
   vertex 1802.831175 -11.747357 -539.068181
   vertex 1802.078998 -0.000000 -539.232719
   vertex 2012.078998 -0.000000 -1499.232719
  endloop
 endfacet
 facet normal -0.974808 -0.065403 -0.213239
  outer loop
   vertex 1802.831175 -11.747357 -539.068181
   vertex 2012.078998 -0.000000 -1499.232719
   vertex 2012.831175 -11.747357 -1499.068181
  endloop
 endfacet
 facet normal -0.974808 0.065403 -0.213239
  outer loop
   vertex 1802.078998 -0.000000 -539.232719
   vertex 1802.831175 11.747357 -539.068181
   vertex 2012.831175 11.747357 -1499.068181
  endloop
 endfacet
 facet normal -0.974808 0.065403 -0.213239
  outer loop
   vertex 1802.078998 -0.000000 -539.232719
   vertex 2012.831175 11.747357 -1499.068181
   vertex 2012.078998 -0.000000 -1499.232719
  endloop
 endfacet
 facet normal -0.958129 0.195090 -0.209591
  outer loop
   vertex 1802.831175 11.747357 -539.068181
   vertex 1805.074834 23.293714 -538.577380
   vertex 2015.074834 23.293714 -1498.577380
  endloop
 endfacet
 facet normal -0.958129 0.195090 -0.209591
  outer loop
   vertex 1802.831175 11.747357 -539.068181
   vertex 2015.074834 23.293714 -1498.577380
   vertex 2012.831175 11.747357 -1499.068181
  endloop
 endfacet
 facet normal -0.925056 0.321439 -0.202356
  outer loop
   vertex 1805.074834 23.293714 -538.577380
   vertex 1808.771586 34.441509 -537.768716
   vertex 2018.771586 34.441509 -1497.768716
  endloop
 endfacet
 facet normal -0.925056 0.321439 -0.202356
  outer loop
   vertex 1805.074834 23.293714 -538.577380
   vertex 2018.771586 34.441509 -1497.768716
   vertex 2015.074834 23.293714 -1498.577380
  endloop
 endfacet
 facet normal -0.876155 0.442289 -0.191659
  outer loop
   vertex 1808.771586 34.441509 -537.768716
   vertex 1813.858179 45.000000 -536.656023
   vertex 2023.858179 45.000000 -1496.656023
  endloop
 endfacet
 facet normal -0.876155 0.442289 -0.191659
  outer loop
   vertex 1808.771586 34.441509 -537.768716
   vertex 2023.858179 45.000000 -1496.656023
   vertex 2018.771586 34.441509 -1497.768716
  endloop
 endfacet
 facet normal -0.812263 0.555570 -0.177682
  outer loop
   vertex 1813.858179 45.000000 -536.656023
   vertex 1820.247580 54.788529 -535.258342
   vertex 2030.247580 54.788529 -1495.258342
  endloop
 endfacet
 facet normal -0.812263 0.555570 -0.177682
  outer loop
   vertex 1813.858179 45.000000 -536.656023
   vertex 2030.247580 54.788529 -1495.258342
   vertex 2023.858179 45.000000 -1496.656023
  endloop
 endfacet
 facet normal -0.734472 0.659346 -0.160666
  outer loop
   vertex 1820.247580 54.788529 -535.258342
   vertex 1827.830464 63.639610 -533.599586
   vertex 2037.830464 63.639610 -1493.599586
  endloop
 endfacet
 facet normal -0.734472 0.659346 -0.160666
  outer loop
   vertex 1820.247580 54.788529 -535.258342
   vertex 2037.830464 63.639610 -1493.599586
   vertex 2030.247580 54.788529 -1495.258342
  endloop
 endfacet
 facet normal -0.644115 0.751840 -0.140900
  outer loop
   vertex 1827.830464 63.639610 -533.599586
   vertex 1836.477085 71.401801 -531.708138
   vertex 2046.477085 71.401801 -1491.708138
  endloop
 endfacet
 facet normal -0.644115 0.751840 -0.140900
  outer loop
   vertex 1827.830464 63.639610 -533.599586
   vertex 2046.477085 71.401801 -1491.708138
   vertex 2037.830464 63.639610 -1493.599586
  endloop
 endfacet
 facet normal -0.542737 0.831470 -0.118724
  outer loop
   vertex 1836.477085 71.401801 -531.708138
   vertex 1846.039499 77.942286 -529.616360
   vertex 2056.039499 77.942286 -1489.616360
  endloop
 endfacet
 facet normal -0.542737 0.831470 -0.118724
  outer loop
   vertex 1836.477085 71.401801 -531.708138
   vertex 2056.039499 77.942286 -1489.616360
   vertex 2046.477085 71.401801 -1491.708138
  endloop
 endfacet
 facet normal -0.432072 0.896873 -0.094516
  outer loop
   vertex 1846.039499 77.942286 -529.616360
   vertex 1856.354089 83.149158 -527.360043
   vertex 2066.354089 83.149158 -1487.360043
  endloop
 endfacet
 facet normal -0.432072 0.896873 -0.094516
  outer loop
   vertex 1846.039499 77.942286 -529.616360
   vertex 2066.354089 83.149158 -1487.360043
   vertex 2056.039499 77.942286 -1489.616360
  endloop
 endfacet
 facet normal -0.314014 0.946930 -0.068691
  outer loop
   vertex 1856.354089 83.149158 -527.360043
   vertex 1867.244370 86.933324 -524.977794
   vertex 2077.244370 86.933324 -1484.977794
  endloop
 endfacet
 facet normal -0.314014 0.946930 -0.068691
  outer loop
   vertex 1856.354089 83.149158 -527.360043
   vertex 2077.244370 86.933324 -1484.977794
   vertex 2066.354089 83.149158 -1487.360043
  endloop
 endfacet
 facet normal -0.190584 0.980785 -0.041690
  outer loop
   vertex 1867.244370 86.933324 -524.977794
   vertex 1878.524006 89.230038 -522.510374
   vertex 2088.524006 89.230038 -1482.510374
  endloop
 endfacet
 facet normal -0.190584 0.980785 -0.041690
  outer loop
   vertex 1867.244370 86.933324 -524.977794
   vertex 2088.524006 89.230038 -1482.510374
   vertex 2077.244370 86.933324 -1484.977794
  endloop
 endfacet
 facet normal -0.063892 0.997859 -0.013976
  outer loop
   vertex 1878.524006 89.230038 -522.510374
   vertex 1890.000000 90.000000 -520.000000
   vertex 2100.000000 90.000000 -1480.000000
  endloop
 endfacet
 facet normal -0.063892 0.997859 -0.013976
  outer loop
   vertex 1878.524006 89.230038 -522.510374
   vertex 2100.000000 90.000000 -1480.000000
   vertex 2088.524006 89.230038 -1482.510374
  endloop
 endfacet
 facet normal -0.063892 -0.997859 -0.013976
  outer loop
   vertex 2110.200883 79.315589 -1477.768557
   vertex 1900.200883 79.315589 -517.768557
   vertex 1890.000000 80.000000 -520.000000
  endloop
 endfacet
 facet normal -0.063892 -0.997859 -0.013976
  outer loop
   vertex 2100.000000 80.000000 -1480.000000
   vertex 2110.200883 79.315589 -1477.768557
   vertex 1890.000000 80.000000 -520.000000
  endloop
 endfacet
 facet normal -0.190584 -0.980785 -0.041690
  outer loop
   vertex 2120.227226 77.274066 -1475.575294
   vertex 1910.227226 77.274066 -515.575294
   vertex 1900.200883 79.315589 -517.768557
  endloop
 endfacet
 facet normal -0.190584 -0.980785 -0.041690
  outer loop
   vertex 2110.200883 79.315589 -1477.768557
   vertex 2120.227226 77.274066 -1475.575294
   vertex 1900.200883 79.315589 -517.768557
  endloop
 endfacet
 facet normal -0.314014 -0.946930 -0.068691
  outer loop
   vertex 2129.907476 73.910363 -1473.457740
   vertex 1919.907476 73.910363 -513.457740
   vertex 1910.227226 77.274066 -515.575294
  endloop
 endfacet
 facet normal -0.314014 -0.946930 -0.068691
  outer loop
   vertex 2120.227226 77.274066 -1475.575294
   vertex 2129.907476 73.910363 -1473.457740
   vertex 1910.227226 77.274066 -515.575294
  endloop
 endfacet
 facet normal -0.432072 -0.896873 -0.094516
  outer loop
   vertex 2139.076001 69.282032 -1471.452125
   vertex 1929.076001 69.282032 -511.452125
   vertex 1919.907476 73.910363 -513.457740
  endloop
 endfacet
 facet normal -0.432072 -0.896873 -0.094516
  outer loop
   vertex 2129.907476 73.910363 -1473.457740
   vertex 2139.076001 69.282032 -1471.452125
   vertex 1919.907476 73.910363 -513.457740
  endloop
 endfacet
 facet normal -0.542737 -0.831470 -0.118724
  outer loop
   vertex 2147.575924 63.468267 -1469.592767
   vertex 1937.575924 63.468267 -509.592767
   vertex 1929.076001 69.282032 -511.452125
  endloop
 endfacet
 facet normal -0.542737 -0.831470 -0.118724
  outer loop
   vertex 2139.076001 69.282032 -1471.452125
   vertex 2147.575924 63.468267 -1469.592767
   vertex 1929.076001 69.282032 -511.452125
  endloop
 endfacet
 facet normal -0.644115 -0.751840 -0.140900
  outer loop
   vertex 2155.261810 56.568542 -1467.911479
   vertex 1945.261810 56.568542 -507.911479
   vertex 1937.575924 63.468267 -509.592767
  endloop
 endfacet
 facet normal -0.644115 -0.751840 -0.140900
  outer loop
   vertex 2147.575924 63.468267 -1469.592767
   vertex 2155.261810 56.568542 -1467.911479
   vertex 1937.575924 63.468267 -509.592767
  endloop
 endfacet
 facet normal -0.734472 -0.659346 -0.160666
  outer loop
   vertex 2162.002151 48.700914 -1466.437029
   vertex 1952.002151 48.700914 -506.437029
   vertex 1945.261810 56.568542 -507.911479
  endloop
 endfacet
 facet normal -0.734472 -0.659346 -0.160666
  outer loop
   vertex 2155.261810 56.568542 -1467.911479
   vertex 2162.002151 48.700914 -1466.437029
   vertex 1945.261810 56.568542 -507.911479
  endloop
 endfacet
 facet normal -0.812263 -0.555570 -0.177682
  outer loop
   vertex 2167.681619 40.000000 -1465.194646
   vertex 1957.681619 40.000000 -505.194646
   vertex 1952.002151 48.700914 -506.437029
  endloop
 endfacet
 facet normal -0.812263 -0.555570 -0.177682
  outer loop
   vertex 2162.002151 48.700914 -1466.437029
   vertex 2167.681619 40.000000 -1465.194646
   vertex 1952.002151 48.700914 -506.437029
  endloop
 endfacet
 facet normal -0.876155 -0.442289 -0.191659
  outer loop
   vertex 2172.203035 30.614675 -1464.205586
   vertex 1962.203035 30.614675 -504.205586
   vertex 1957.681619 40.000000 -505.194646
  endloop
 endfacet
 facet normal -0.876155 -0.442289 -0.191659
  outer loop
   vertex 2167.681619 40.000000 -1465.194646
   vertex 2172.203035 30.614675 -1464.205586
   vertex 1957.681619 40.000000 -505.194646
  endloop
 endfacet
 facet normal -0.925056 -0.321439 -0.202356
  outer loop
   vertex 2175.489037 20.705524 -1463.486773
   vertex 1965.489037 20.705524 -503.486773
   vertex 1962.203035 30.614675 -504.205586
  endloop
 endfacet
 facet normal -0.925056 -0.321439 -0.202356
  outer loop
   vertex 2172.203035 30.614675 -1464.205586
   vertex 2175.489037 20.705524 -1463.486773
   vertex 1962.203035 30.614675 -504.205586
  endloop
 endfacet
 facet normal -0.958129 -0.195090 -0.209591
  outer loop
   vertex 2177.483400 10.442095 -1463.050506
   vertex 1967.483400 10.442095 -503.050506
   vertex 1965.489037 20.705524 -503.486773
  endloop
 endfacet
 facet normal -0.958129 -0.195090 -0.209591
  outer loop
   vertex 2175.489037 20.705524 -1463.486773
   vertex 2177.483400 10.442095 -1463.050506
   vertex 1965.489037 20.705524 -503.486773
  endloop
 endfacet
 facet normal -0.974808 -0.065403 -0.213239
  outer loop
   vertex 2178.152001 0.000000 -1462.904250
   vertex 1968.152001 0.000000 -502.904250
   vertex 1967.483400 10.442095 -503.050506
  endloop
 endfacet
 facet normal -0.974808 -0.065403 -0.213239
  outer loop
   vertex 2177.483400 10.442095 -1463.050506
   vertex 2178.152001 0.000000 -1462.904250
   vertex 1967.483400 10.442095 -503.050506
  endloop
 endfacet
 facet normal -0.974808 0.065403 -0.213239
  outer loop
   vertex 2177.483400 -10.442095 -1463.050506
   vertex 1967.483400 -10.442095 -503.050506
   vertex 1968.152001 0.000000 -502.904250
  endloop
 endfacet
 facet normal -0.974808 0.065403 -0.213239
  outer loop
   vertex 2178.152001 0.000000 -1462.904250
   vertex 2177.483400 -10.442095 -1463.050506
   vertex 1968.152001 0.000000 -502.904250
  endloop
 endfacet
 facet normal -0.958129 0.195090 -0.209591
  outer loop
   vertex 2175.489037 -20.705524 -1463.486773
   vertex 1965.489037 -20.705524 -503.486773
   vertex 1967.483400 -10.442095 -503.050506
  endloop
 endfacet
 facet normal -0.958129 0.195090 -0.209591
  outer loop
   vertex 2177.483400 -10.442095 -1463.050506
   vertex 2175.489037 -20.705524 -1463.486773
   vertex 1967.483400 -10.442095 -503.050506
  endloop
 endfacet
 facet normal -0.925056 0.321439 -0.202356
  outer loop
   vertex 2172.203035 -30.614675 -1464.205586
   vertex 1962.203035 -30.614675 -504.205586
   vertex 1965.489037 -20.705524 -503.486773
  endloop
 endfacet
 facet normal -0.925056 0.321439 -0.202356
  outer loop
   vertex 2175.489037 -20.705524 -1463.486773
   vertex 2172.203035 -30.614675 -1464.205586
   vertex 1965.489037 -20.705524 -503.486773
  endloop
 endfacet
 facet normal -0.876155 0.442289 -0.191659
  outer loop
   vertex 2167.681619 -40.000000 -1465.194646
   vertex 1957.681619 -40.000000 -505.194646
   vertex 1962.203035 -30.614675 -504.205586
  endloop
 endfacet
 facet normal -0.876155 0.442289 -0.191659
  outer loop
   vertex 2172.203035 -30.614675 -1464.205586
   vertex 2167.681619 -40.000000 -1465.194646
   vertex 1962.203035 -30.614675 -504.205586
  endloop
 endfacet
 facet normal -0.812263 0.555570 -0.177682
  outer loop
   vertex 2162.002151 -48.700914 -1466.437029
   vertex 1952.002151 -48.700914 -506.437029
   vertex 1957.681619 -40.000000 -505.194646
  endloop
 endfacet
 facet normal -0.812263 0.555570 -0.177682
  outer loop
   vertex 2167.681619 -40.000000 -1465.194646
   vertex 2162.002151 -48.700914 -1466.437029
   vertex 1957.681619 -40.000000 -505.194646
  endloop
 endfacet
 facet normal -0.734472 0.659346 -0.160666
  outer loop
   vertex 2155.261810 -56.568542 -1467.911479
   vertex 1945.261810 -56.568542 -507.911479
   vertex 1952.002151 -48.700914 -506.437029
  endloop
 endfacet
 facet normal -0.734472 0.659346 -0.160666
  outer loop
   vertex 2162.002151 -48.700914 -1466.437029
   vertex 2155.261810 -56.568542 -1467.911479
   vertex 1952.002151 -48.700914 -506.437029
  endloop
 endfacet
 facet normal -0.644115 0.751840 -0.140900
  outer loop
   vertex 2147.575924 -63.468267 -1469.592767
   vertex 1937.575924 -63.468267 -509.592767
   vertex 1945.261810 -56.568542 -507.911479
  endloop
 endfacet
 facet normal -0.644115 0.751840 -0.140900
  outer loop
   vertex 2155.261810 -56.568542 -1467.911479
   vertex 2147.575924 -63.468267 -1469.592767
   vertex 1945.261810 -56.568542 -507.911479
  endloop
 endfacet
 facet normal -0.542737 0.831470 -0.118724
  outer loop
   vertex 2139.076001 -69.282032 -1471.452125
   vertex 1929.076001 -69.282032 -511.452125
   vertex 1937.575924 -63.468267 -509.592767
  endloop
 endfacet
 facet normal -0.542737 0.831470 -0.118724
  outer loop
   vertex 2147.575924 -63.468267 -1469.592767
   vertex 2139.076001 -69.282032 -1471.452125
   vertex 1937.575924 -63.468267 -509.592767
  endloop
 endfacet
 facet normal -0.432072 0.896873 -0.094516
  outer loop
   vertex 2129.907476 -73.910363 -1473.457740
   vertex 1919.907476 -73.910363 -513.457740
   vertex 1929.076001 -69.282032 -511.452125
  endloop
 endfacet
 facet normal -0.432072 0.896873 -0.094516
  outer loop
   vertex 2139.076001 -69.282032 -1471.452125
   vertex 2129.907476 -73.910363 -1473.457740
   vertex 1929.076001 -69.282032 -511.452125
  endloop
 endfacet
 facet normal -0.314014 0.946930 -0.068691
  outer loop
   vertex 2120.227226 -77.274066 -1475.575294
   vertex 1910.227226 -77.274066 -515.575294
   vertex 1919.907476 -73.910363 -513.457740
  endloop
 endfacet
 facet normal -0.314014 0.946930 -0.068691
  outer loop
   vertex 2129.907476 -73.910363 -1473.457740
   vertex 2120.227226 -77.274066 -1475.575294
   vertex 1919.907476 -73.910363 -513.457740
  endloop
 endfacet
 facet normal -0.190584 0.980785 -0.041690
  outer loop
   vertex 2110.200883 -79.315589 -1477.768557
   vertex 1900.200883 -79.315589 -517.768557
   vertex 1910.227226 -77.274066 -515.575294
  endloop
 endfacet
 facet normal -0.190584 0.980785 -0.041690
  outer loop
   vertex 2120.227226 -77.274066 -1475.575294
   vertex 2110.200883 -79.315589 -1477.768557
   vertex 1910.227226 -77.274066 -515.575294
  endloop
 endfacet
 facet normal -0.063892 0.997859 -0.013976
  outer loop
   vertex 2100.000000 -80.000000 -1480.000000
   vertex 1890.000000 -80.000000 -520.000000
   vertex 1900.200883 -79.315589 -517.768557
  endloop
 endfacet
 facet normal -0.063892 0.997859 -0.013976
  outer loop
   vertex 2110.200883 -79.315589 -1477.768557
   vertex 2100.000000 -80.000000 -1480.000000
   vertex 1900.200883 -79.315589 -517.768557
  endloop
 endfacet
 facet normal 0.063892 0.997859 0.013976
  outer loop
   vertex 2089.799117 -79.315589 -1482.231443
   vertex 1879.799117 -79.315589 -522.231443
   vertex 1890.000000 -80.000000 -520.000000
  endloop
 endfacet
 facet normal 0.063892 0.997859 0.013976
  outer loop
   vertex 2100.000000 -80.000000 -1480.000000
   vertex 2089.799117 -79.315589 -1482.231443
   vertex 1890.000000 -80.000000 -520.000000
  endloop
 endfacet
 facet normal 0.190584 0.980785 0.041690
  outer loop
   vertex 2079.772774 -77.274066 -1484.424706
   vertex 1869.772774 -77.274066 -524.424706
   vertex 1879.799117 -79.315589 -522.231443
  endloop
 endfacet
 facet normal 0.190584 0.980785 0.041690
  outer loop
   vertex 2089.799117 -79.315589 -1482.231443
   vertex 2079.772774 -77.274066 -1484.424706
   vertex 1879.799117 -79.315589 -522.231443
  endloop
 endfacet
 facet normal 0.314014 0.946930 0.068691
  outer loop
   vertex 2070.092524 -73.910363 -1486.542260
   vertex 1860.092524 -73.910363 -526.542260
   vertex 1869.772774 -77.274066 -524.424706
  endloop
 endfacet
 facet normal 0.314014 0.946930 0.068691
  outer loop
   vertex 2079.772774 -77.274066 -1484.424706
   vertex 2070.092524 -73.910363 -1486.542260
   vertex 1869.772774 -77.274066 -524.424706
  endloop
 endfacet
 facet normal 0.432072 0.896873 0.094516
  outer loop
   vertex 2060.923999 -69.282032 -1488.547875
   vertex 1850.923999 -69.282032 -528.547875
   vertex 1860.092524 -73.910363 -526.542260
  endloop
 endfacet
 facet normal 0.432072 0.896873 0.094516
  outer loop
   vertex 2070.092524 -73.910363 -1486.542260
   vertex 2060.923999 -69.282032 -1488.547875
   vertex 1860.092524 -73.910363 -526.542260
  endloop
 endfacet
 facet normal 0.542737 0.831470 0.118724
  outer loop
   vertex 2052.424076 -63.468267 -1490.407233
   vertex 1842.424076 -63.468267 -530.407233
   vertex 1850.923999 -69.282032 -528.547875
  endloop
 endfacet
 facet normal 0.542737 0.831470 0.118724
  outer loop
   vertex 2060.923999 -69.282032 -1488.547875
   vertex 2052.424076 -63.468267 -1490.407233
   vertex 1850.923999 -69.282032 -528.547875
  endloop
 endfacet
 facet normal 0.644115 0.751840 0.140900
  outer loop
   vertex 2044.738190 -56.568542 -1492.088521
   vertex 1834.738190 -56.568542 -532.088521
   vertex 1842.424076 -63.468267 -530.407233
  endloop
 endfacet
 facet normal 0.644115 0.751840 0.140900
  outer loop
   vertex 2052.424076 -63.468267 -1490.407233
   vertex 2044.738190 -56.568542 -1492.088521
   vertex 1842.424076 -63.468267 -530.407233
  endloop
 endfacet
 facet normal 0.734472 0.659346 0.160666
  outer loop
   vertex 2037.997849 -48.700914 -1493.562971
   vertex 1827.997849 -48.700914 -533.562971
   vertex 1834.738190 -56.568542 -532.088521
  endloop
 endfacet
 facet normal 0.734472 0.659346 0.160666
  outer loop
   vertex 2044.738190 -56.568542 -1492.088521
   vertex 2037.997849 -48.700914 -1493.562971
   vertex 1834.738190 -56.568542 -532.088521
  endloop
 endfacet
 facet normal 0.812263 0.555570 0.177682
  outer loop
   vertex 2032.318381 -40.000000 -1494.805354
   vertex 1822.318381 -40.000000 -534.805354
   vertex 1827.997849 -48.700914 -533.562971
  endloop
 endfacet
 facet normal 0.812263 0.555570 0.177682
  outer loop
   vertex 2037.997849 -48.700914 -1493.562971
   vertex 2032.318381 -40.000000 -1494.805354
   vertex 1827.997849 -48.700914 -533.562971
  endloop
 endfacet
 facet normal 0.876155 0.442289 0.191659
  outer loop
   vertex 2027.796965 -30.614675 -1495.794414
   vertex 1817.796965 -30.614675 -535.794414
   vertex 1822.318381 -40.000000 -534.805354
  endloop
 endfacet
 facet normal 0.876155 0.442289 0.191659
  outer loop
   vertex 2032.318381 -40.000000 -1494.805354
   vertex 2027.796965 -30.614675 -1495.794414
   vertex 1822.318381 -40.000000 -534.805354
  endloop
 endfacet
 facet normal 0.925056 0.321439 0.202356
  outer loop
   vertex 2024.510963 -20.705524 -1496.513227
   vertex 1814.510963 -20.705524 -536.513227
   vertex 1817.796965 -30.614675 -535.794414
  endloop
 endfacet
 facet normal 0.925056 0.321439 0.202356
  outer loop
   vertex 2027.796965 -30.614675 -1495.794414
   vertex 2024.510963 -20.705524 -1496.513227
   vertex 1817.796965 -30.614675 -535.794414
  endloop
 endfacet
 facet normal 0.958129 0.195090 0.209591
  outer loop
   vertex 2022.516600 -10.442095 -1496.949494
   vertex 1812.516600 -10.442095 -536.949494
   vertex 1814.510963 -20.705524 -536.513227
  endloop
 endfacet
 facet normal 0.958129 0.195090 0.209591
  outer loop
   vertex 2024.510963 -20.705524 -1496.513227
   vertex 2022.516600 -10.442095 -1496.949494
   vertex 1814.510963 -20.705524 -536.513227
  endloop
 endfacet
 facet normal 0.974808 0.065403 0.213239
  outer loop
   vertex 2021.847999 -0.000000 -1497.095750
   vertex 1811.847999 -0.000000 -537.095750
   vertex 1812.516600 -10.442095 -536.949494
  endloop
 endfacet
 facet normal 0.974808 0.065403 0.213239
  outer loop
   vertex 2022.516600 -10.442095 -1496.949494
   vertex 2021.847999 -0.000000 -1497.095750
   vertex 1812.516600 -10.442095 -536.949494
  endloop
 endfacet
 facet normal 0.974808 -0.065403 0.213239
  outer loop
   vertex 2022.516600 10.442095 -1496.949494
   vertex 1812.516600 10.442095 -536.949494
   vertex 1811.847999 -0.000000 -537.095750
  endloop
 endfacet
 facet normal 0.974808 -0.065403 0.213239
  outer loop
   vertex 2021.847999 -0.000000 -1497.095750
   vertex 2022.516600 10.442095 -1496.949494
   vertex 1811.847999 -0.000000 -537.095750
  endloop
 endfacet
 facet normal 0.958129 -0.195090 0.209591
  outer loop
   vertex 2024.510963 20.705524 -1496.513227
   vertex 1814.510963 20.705524 -536.513227
   vertex 1812.516600 10.442095 -536.949494
  endloop
 endfacet
 facet normal 0.958129 -0.195090 0.209591
  outer loop
   vertex 2022.516600 10.442095 -1496.949494
   vertex 2024.510963 20.705524 -1496.513227
   vertex 1812.516600 10.442095 -536.949494
  endloop
 endfacet
 facet normal 0.925056 -0.321439 0.202356
  outer loop
   vertex 2027.796965 30.614675 -1495.794414
   vertex 1817.796965 30.614675 -535.794414
   vertex 1814.510963 20.705524 -536.513227
  endloop
 endfacet
 facet normal 0.925056 -0.321439 0.202356
  outer loop
   vertex 2024.510963 20.705524 -1496.513227
   vertex 2027.796965 30.614675 -1495.794414
   vertex 1814.510963 20.705524 -536.513227
  endloop
 endfacet
 facet normal 0.876155 -0.442289 0.191659
  outer loop
   vertex 2032.318381 40.000000 -1494.805354
   vertex 1822.318381 40.000000 -534.805354
   vertex 1817.796965 30.614675 -535.794414
  endloop
 endfacet
 facet normal 0.876155 -0.442289 0.191659
  outer loop
   vertex 2027.796965 30.614675 -1495.794414
   vertex 2032.318381 40.000000 -1494.805354
   vertex 1817.796965 30.614675 -535.794414
  endloop
 endfacet
 facet normal 0.812263 -0.555570 0.177682
  outer loop
   vertex 2037.997849 48.700914 -1493.562971
   vertex 1827.997849 48.700914 -533.562971
   vertex 1822.318381 40.000000 -534.805354
  endloop
 endfacet
 facet normal 0.812263 -0.555570 0.177682
  outer loop
   vertex 2032.318381 40.000000 -1494.805354
   vertex 2037.997849 48.700914 -1493.562971
   vertex 1822.318381 40.000000 -534.805354
  endloop
 endfacet
 facet normal 0.734472 -0.659346 0.160666
  outer loop
   vertex 2044.738190 56.568542 -1492.088521
   vertex 1834.738190 56.568542 -532.088521
   vertex 1827.997849 48.700914 -533.562971
  endloop
 endfacet
 facet normal 0.734472 -0.659346 0.160666
  outer loop
   vertex 2037.997849 48.700914 -1493.562971
   vertex 2044.738190 56.568542 -1492.088521
   vertex 1827.997849 48.700914 -533.562971
  endloop
 endfacet
 facet normal 0.644115 -0.751840 0.140900
  outer loop
   vertex 2052.424076 63.468267 -1490.407233
   vertex 1842.424076 63.468267 -530.407233
   vertex 1834.738190 56.568542 -532.088521
  endloop
 endfacet
 facet normal 0.644115 -0.751840 0.140900
  outer loop
   vertex 2044.738190 56.568542 -1492.088521
   vertex 2052.424076 63.468267 -1490.407233
   vertex 1834.738190 56.568542 -532.088521
  endloop
 endfacet
 facet normal 0.542737 -0.831470 0.118724
  outer loop
   vertex 2060.923999 69.282032 -1488.547875
   vertex 1850.923999 69.282032 -528.547875
   vertex 1842.424076 63.468267 -530.407233
  endloop
 endfacet
 facet normal 0.542737 -0.831470 0.118724
  outer loop
   vertex 2052.424076 63.468267 -1490.407233
   vertex 2060.923999 69.282032 -1488.547875
   vertex 1842.424076 63.468267 -530.407233
  endloop
 endfacet
 facet normal 0.432072 -0.896873 0.094516
  outer loop
   vertex 2070.092524 73.910363 -1486.542260
   vertex 1860.092524 73.910363 -526.542260
   vertex 1850.923999 69.282032 -528.547875
  endloop
 endfacet
 facet normal 0.432072 -0.896873 0.094516
  outer loop
   vertex 2060.923999 69.282032 -1488.547875
   vertex 2070.092524 73.910363 -1486.542260
   vertex 1850.923999 69.282032 -528.547875
  endloop
 endfacet
 facet normal 0.314014 -0.946930 0.068691
  outer loop
   vertex 2079.772774 77.274066 -1484.424706
   vertex 1869.772774 77.274066 -524.424706
   vertex 1860.092524 73.910363 -526.542260
  endloop
 endfacet
 facet normal 0.314014 -0.946930 0.068691
  outer loop
   vertex 2070.092524 73.910363 -1486.542260
   vertex 2079.772774 77.274066 -1484.424706
   vertex 1860.092524 73.910363 -526.542260
  endloop
 endfacet
 facet normal 0.190584 -0.980785 0.041690
  outer loop
   vertex 2089.799117 79.315589 -1482.231443
   vertex 1879.799117 79.315589 -522.231443
   vertex 1869.772774 77.274066 -524.424706
  endloop
 endfacet
 facet normal 0.190584 -0.980785 0.041690
  outer loop
   vertex 2079.772774 77.274066 -1484.424706
   vertex 2089.799117 79.315589 -1482.231443
   vertex 1869.772774 77.274066 -524.424706
  endloop
 endfacet
 facet normal 0.063892 -0.997859 0.013976
  outer loop
   vertex 2100.000000 80.000000 -1480.000000
   vertex 1890.000000 80.000000 -520.000000
   vertex 1879.799117 79.315589 -522.231443
  endloop
 endfacet
 facet normal 0.063892 -0.997859 0.013976
  outer loop
   vertex 2089.799117 79.315589 -1482.231443
   vertex 2100.000000 80.000000 -1480.000000
   vertex 1879.799117 79.315589 -522.231443
  endloop
 endfacet
endsolid SII_LOX_feed_1_drop
