solid SIVB_LH2_Hrun
 facet normal 0.000000 -0.997859 0.065403
  outer loop
   vertex 3850.000000 -85.000000 -120.000000
   vertex 3850.000000 -84.272813 -108.905274
   vertex 1767.500000 -84.272813 -108.905274
  endloop
 endfacet
 facet normal 0.000000 -0.997859 0.065403
  outer loop
   vertex 3850.000000 -85.000000 -120.000000
   vertex 1767.500000 -84.272813 -108.905274
   vertex 1767.500000 -85.000000 -120.000000
  endloop
 endfacet
 facet normal 0.000000 -0.980785 0.195090
  outer loop
   vertex 3850.000000 -84.272813 -108.905274
   vertex 3850.000000 -82.103695 -98.000381
   vertex 1767.500000 -82.103695 -98.000381
  endloop
 endfacet
 facet normal 0.000000 -0.980785 0.195090
  outer loop
   vertex 3850.000000 -84.272813 -108.905274
   vertex 1767.500000 -82.103695 -98.000381
   vertex 1767.500000 -84.272813 -108.905274
  endloop
 endfacet
 facet normal 0.000000 -0.946930 0.321439
  outer loop
   vertex 3850.000000 -82.103695 -98.000381
   vertex 3850.000000 -78.529760 -87.471908
   vertex 1767.500000 -78.529760 -87.471908
  endloop
 endfacet
 facet normal 0.000000 -0.946930 0.321439
  outer loop
   vertex 3850.000000 -82.103695 -98.000381
   vertex 1767.500000 -78.529760 -87.471908
   vertex 1767.500000 -82.103695 -98.000381
  endloop
 endfacet
 facet normal 0.000000 -0.896873 0.442289
  outer loop
   vertex 3850.000000 -78.529760 -87.471908
   vertex 3850.000000 -73.612159 -77.500000
   vertex 1767.500000 -73.612159 -77.500000
  endloop
 endfacet
 facet normal 0.000000 -0.896873 0.442289
  outer loop
   vertex 3850.000000 -78.529760 -87.471908
   vertex 1767.500000 -73.612159 -77.500000
   vertex 1767.500000 -78.529760 -87.471908
  endloop
 endfacet
 facet normal 0.000000 -0.831470 0.555570
  outer loop
   vertex 3850.000000 -73.612159 -77.500000
   vertex 3850.000000 -67.435034 -68.255279
   vertex 1767.500000 -67.435034 -68.255279
  endloop
 endfacet
 facet normal 0.000000 -0.831470 0.555570
  outer loop
   vertex 3850.000000 -73.612159 -77.500000
   vertex 1767.500000 -67.435034 -68.255279
   vertex 1767.500000 -73.612159 -77.500000
  endloop
 endfacet
 facet normal 0.000000 -0.751840 0.659346
  outer loop
   vertex 3850.000000 -67.435034 -68.255279
   vertex 3850.000000 -60.104076 -59.895924
   vertex 1767.500000 -60.104076 -59.895924
  endloop
 endfacet
 facet normal 0.000000 -0.751840 0.659346
  outer loop
   vertex 3850.000000 -67.435034 -68.255279
   vertex 1767.500000 -60.104076 -59.895924
   vertex 1767.500000 -67.435034 -68.255279
  endloop
 endfacet
 facet normal 0.000000 -0.659346 0.751840
  outer loop
   vertex 3850.000000 -60.104076 -59.895924
   vertex 3850.000000 -51.744721 -52.564966
   vertex 1767.500000 -51.744721 -52.564966
  endloop
 endfacet
 facet normal 0.000000 -0.659346 0.751840
  outer loop
   vertex 3850.000000 -60.104076 -59.895924
   vertex 1767.500000 -51.744721 -52.564966
   vertex 1767.500000 -60.104076 -59.895924
  endloop
 endfacet
 facet normal 0.000000 -0.555570 0.831470
  outer loop
   vertex 3850.000000 -51.744721 -52.564966
   vertex 3850.000000 -42.500000 -46.387841
   vertex 1767.500000 -42.500000 -46.387841
  endloop
 endfacet
 facet normal 0.000000 -0.555570 0.831470
  outer loop
   vertex 3850.000000 -51.744721 -52.564966
   vertex 1767.500000 -42.500000 -46.387841
   vertex 1767.500000 -51.744721 -52.564966
  endloop
 endfacet
 facet normal 0.000000 -0.442289 0.896873
  outer loop
   vertex 3850.000000 -42.500000 -46.387841
   vertex 3850.000000 -32.528092 -41.470240
   vertex 1767.500000 -32.528092 -41.470240
  endloop
 endfacet
 facet normal 0.000000 -0.442289 0.896873
  outer loop
   vertex 3850.000000 -42.500000 -46.387841
   vertex 1767.500000 -32.528092 -41.470240
   vertex 1767.500000 -42.500000 -46.387841
  endloop
 endfacet
 facet normal 0.000000 -0.321439 0.946930
  outer loop
   vertex 3850.000000 -32.528092 -41.470240
   vertex 3850.000000 -21.999619 -37.896305
   vertex 1767.500000 -21.999619 -37.896305
  endloop
 endfacet
 facet normal 0.000000 -0.321439 0.946930
  outer loop
   vertex 3850.000000 -32.528092 -41.470240
   vertex 1767.500000 -21.999619 -37.896305
   vertex 1767.500000 -32.528092 -41.470240
  endloop
 endfacet
 facet normal 0.000000 -0.195090 0.980785
  outer loop
   vertex 3850.000000 -21.999619 -37.896305
   vertex 3850.000000 -11.094726 -35.727187
   vertex 1767.500000 -11.094726 -35.727187
  endloop
 endfacet
 facet normal 0.000000 -0.195090 0.980785
  outer loop
   vertex 3850.000000 -21.999619 -37.896305
   vertex 1767.500000 -11.094726 -35.727187
   vertex 1767.500000 -21.999619 -37.896305
  endloop
 endfacet
 facet normal 0.000000 -0.065403 0.997859
  outer loop
   vertex 3850.000000 -11.094726 -35.727187
   vertex 3850.000000 -0.000000 -35.000000
   vertex 1767.500000 -0.000000 -35.000000
  endloop
 endfacet
 facet normal 0.000000 -0.065403 0.997859
  outer loop
   vertex 3850.000000 -11.094726 -35.727187
   vertex 1767.500000 -0.000000 -35.000000
   vertex 1767.500000 -11.094726 -35.727187
  endloop
 endfacet
 facet normal 0.000000 0.065403 0.997859
  outer loop
   vertex 3850.000000 -0.000000 -35.000000
   vertex 3850.000000 11.094726 -35.727187
   vertex 1767.500000 11.094726 -35.727187
  endloop
 endfacet
 facet normal 0.000000 0.065403 0.997859
  outer loop
   vertex 3850.000000 -0.000000 -35.000000
   vertex 1767.500000 11.094726 -35.727187
   vertex 1767.500000 -0.000000 -35.000000
  endloop
 endfacet
 facet normal 0.000000 0.195090 0.980785
  outer loop
   vertex 3850.000000 11.094726 -35.727187
   vertex 3850.000000 21.999619 -37.896305
   vertex 1767.500000 21.999619 -37.896305
  endloop
 endfacet
 facet normal 0.000000 0.195090 0.980785
  outer loop
   vertex 3850.000000 11.094726 -35.727187
   vertex 1767.500000 21.999619 -37.896305
   vertex 1767.500000 11.094726 -35.727187
  endloop
 endfacet
 facet normal 0.000000 0.321439 0.946930
  outer loop
   vertex 3850.000000 21.999619 -37.896305
   vertex 3850.000000 32.528092 -41.470240
   vertex 1767.500000 32.528092 -41.470240
  endloop
 endfacet
 facet normal 0.000000 0.321439 0.946930
  outer loop
   vertex 3850.000000 21.999619 -37.896305
   vertex 1767.500000 32.528092 -41.470240
   vertex 1767.500000 21.999619 -37.896305
  endloop
 endfacet
 facet normal 0.000000 0.442289 0.896873
  outer loop
   vertex 3850.000000 32.528092 -41.470240
   vertex 3850.000000 42.500000 -46.387841
   vertex 1767.500000 42.500000 -46.387841
  endloop
 endfacet
 facet normal 0.000000 0.442289 0.896873
  outer loop
   vertex 3850.000000 32.528092 -41.470240
   vertex 1767.500000 42.500000 -46.387841
   vertex 1767.500000 32.528092 -41.470240
  endloop
 endfacet
 facet normal 0.000000 0.555570 0.831470
  outer loop
   vertex 3850.000000 42.500000 -46.387841
   vertex 3850.000000 51.744721 -52.564966
   vertex 1767.500000 51.744721 -52.564966
  endloop
 endfacet
 facet normal 0.000000 0.555570 0.831470
  outer loop
   vertex 3850.000000 42.500000 -46.387841
   vertex 1767.500000 51.744721 -52.564966
   vertex 1767.500000 42.500000 -46.387841
  endloop
 endfacet
 facet normal 0.000000 0.659346 0.751840
  outer loop
   vertex 3850.000000 51.744721 -52.564966
   vertex 3850.000000 60.104076 -59.895924
   vertex 1767.500000 60.104076 -59.895924
  endloop
 endfacet
 facet normal 0.000000 0.659346 0.751840
  outer loop
   vertex 3850.000000 51.744721 -52.564966
   vertex 1767.500000 60.104076 -59.895924
   vertex 1767.500000 51.744721 -52.564966
  endloop
 endfacet
 facet normal 0.000000 0.751840 0.659346
  outer loop
   vertex 3850.000000 60.104076 -59.895924
   vertex 3850.000000 67.435034 -68.255279
   vertex 1767.500000 67.435034 -68.255279
  endloop
 endfacet
 facet normal 0.000000 0.751840 0.659346
  outer loop
   vertex 3850.000000 60.104076 -59.895924
   vertex 1767.500000 67.435034 -68.255279
   vertex 1767.500000 60.104076 -59.895924
  endloop
 endfacet
 facet normal 0.000000 0.831470 0.555570
  outer loop
   vertex 3850.000000 67.435034 -68.255279
   vertex 3850.000000 73.612159 -77.500000
   vertex 1767.500000 73.612159 -77.500000
  endloop
 endfacet
 facet normal 0.000000 0.831470 0.555570
  outer loop
   vertex 3850.000000 67.435034 -68.255279
   vertex 1767.500000 73.612159 -77.500000
   vertex 1767.500000 67.435034 -68.255279
  endloop
 endfacet
 facet normal 0.000000 0.896873 0.442289
  outer loop
   vertex 3850.000000 73.612159 -77.500000
   vertex 3850.000000 78.529760 -87.471908
   vertex 1767.500000 78.529760 -87.471908
  endloop
 endfacet
 facet normal 0.000000 0.896873 0.442289
  outer loop
   vertex 3850.000000 73.612159 -77.500000
   vertex 1767.500000 78.529760 -87.471908
   vertex 1767.500000 73.612159 -77.500000
  endloop
 endfacet
 facet normal 0.000000 0.946930 0.321439
  outer loop
   vertex 3850.000000 78.529760 -87.471908
   vertex 3850.000000 82.103695 -98.000381
   vertex 1767.500000 82.103695 -98.000381
  endloop
 endfacet
 facet normal 0.000000 0.946930 0.321439
  outer loop
   vertex 3850.000000 78.529760 -87.471908
   vertex 1767.500000 82.103695 -98.000381
   vertex 1767.500000 78.529760 -87.471908
  endloop
 endfacet
 facet normal 0.000000 0.980785 0.195090
  outer loop
   vertex 3850.000000 82.103695 -98.000381
   vertex 3850.000000 84.272813 -108.905274
   vertex 1767.500000 84.272813 -108.905274
  endloop
 endfacet
 facet normal 0.000000 0.980785 0.195090
  outer loop
   vertex 3850.000000 82.103695 -98.000381
   vertex 1767.500000 84.272813 -108.905274
   vertex 1767.500000 82.103695 -98.000381
  endloop
 endfacet
 facet normal 0.000000 0.997859 0.065403
  outer loop
   vertex 3850.000000 84.272813 -108.905274
   vertex 3850.000000 85.000000 -120.000000
   vertex 1767.500000 85.000000 -120.000000
  endloop
 endfacet
 facet normal 0.000000 0.997859 0.065403
  outer loop
   vertex 3850.000000 84.272813 -108.905274
   vertex 1767.500000 85.000000 -120.000000
   vertex 1767.500000 84.272813 -108.905274
  endloop
 endfacet
 facet normal 0.000000 0.997859 -0.065403
  outer loop
   vertex 3850.000000 85.000000 -120.000000
   vertex 3850.000000 84.272813 -131.094726
   vertex 1767.500000 84.272813 -131.094726
  endloop
 endfacet
 facet normal 0.000000 0.997859 -0.065403
  outer loop
   vertex 3850.000000 85.000000 -120.000000
   vertex 1767.500000 84.272813 -131.094726
   vertex 1767.500000 85.000000 -120.000000
  endloop
 endfacet
 facet normal 0.000000 0.980785 -0.195090
  outer loop
   vertex 3850.000000 84.272813 -131.094726
   vertex 3850.000000 82.103695 -141.999619
   vertex 1767.500000 82.103695 -141.999619
  endloop
 endfacet
 facet normal 0.000000 0.980785 -0.195090
  outer loop
   vertex 3850.000000 84.272813 -131.094726
   vertex 1767.500000 82.103695 -141.999619
   vertex 1767.500000 84.272813 -131.094726
  endloop
 endfacet
 facet normal 0.000000 0.946930 -0.321439
  outer loop
   vertex 3850.000000 82.103695 -141.999619
   vertex 3850.000000 78.529760 -152.528092
   vertex 1767.500000 78.529760 -152.528092
  endloop
 endfacet
 facet normal 0.000000 0.946930 -0.321439
  outer loop
   vertex 3850.000000 82.103695 -141.999619
   vertex 1767.500000 78.529760 -152.528092
   vertex 1767.500000 82.103695 -141.999619
  endloop
 endfacet
 facet normal 0.000000 0.896873 -0.442289
  outer loop
   vertex 3850.000000 78.529760 -152.528092
   vertex 3850.000000 73.612159 -162.500000
   vertex 1767.500000 73.612159 -162.500000
  endloop
 endfacet
 facet normal 0.000000 0.896873 -0.442289
  outer loop
   vertex 3850.000000 78.529760 -152.528092
   vertex 1767.500000 73.612159 -162.500000
   vertex 1767.500000 78.529760 -152.528092
  endloop
 endfacet
 facet normal 0.000000 0.831470 -0.555570
  outer loop
   vertex 3850.000000 73.612159 -162.500000
   vertex 3850.000000 67.435034 -171.744721
   vertex 1767.500000 67.435034 -171.744721
  endloop
 endfacet
 facet normal 0.000000 0.831470 -0.555570
  outer loop
   vertex 3850.000000 73.612159 -162.500000
   vertex 1767.500000 67.435034 -171.744721
   vertex 1767.500000 73.612159 -162.500000
  endloop
 endfacet
 facet normal 0.000000 0.751840 -0.659346
  outer loop
   vertex 3850.000000 67.435034 -171.744721
   vertex 3850.000000 60.104076 -180.104076
   vertex 1767.500000 60.104076 -180.104076
  endloop
 endfacet
 facet normal 0.000000 0.751840 -0.659346
  outer loop
   vertex 3850.000000 67.435034 -171.744721
   vertex 1767.500000 60.104076 -180.104076
   vertex 1767.500000 67.435034 -171.744721
  endloop
 endfacet
 facet normal 0.000000 0.659346 -0.751840
  outer loop
   vertex 3850.000000 60.104076 -180.104076
   vertex 3850.000000 51.744721 -187.435034
   vertex 1767.500000 51.744721 -187.435034
  endloop
 endfacet
 facet normal 0.000000 0.659346 -0.751840
  outer loop
   vertex 3850.000000 60.104076 -180.104076
   vertex 1767.500000 51.744721 -187.435034
   vertex 1767.500000 60.104076 -180.104076
  endloop
 endfacet
 facet normal 0.000000 0.555570 -0.831470
  outer loop
   vertex 3850.000000 51.744721 -187.435034
   vertex 3850.000000 42.500000 -193.612159
   vertex 1767.500000 42.500000 -193.612159
  endloop
 endfacet
 facet normal 0.000000 0.555570 -0.831470
  outer loop
   vertex 3850.000000 51.744721 -187.435034
   vertex 1767.500000 42.500000 -193.612159
   vertex 1767.500000 51.744721 -187.435034
  endloop
 endfacet
 facet normal 0.000000 0.442289 -0.896873
  outer loop
   vertex 3850.000000 42.500000 -193.612159
   vertex 3850.000000 32.528092 -198.529760
   vertex 1767.500000 32.528092 -198.529760
  endloop
 endfacet
 facet normal 0.000000 0.442289 -0.896873
  outer loop
   vertex 3850.000000 42.500000 -193.612159
   vertex 1767.500000 32.528092 -198.529760
   vertex 1767.500000 42.500000 -193.612159
  endloop
 endfacet
 facet normal 0.000000 0.321439 -0.946930
  outer loop
   vertex 3850.000000 32.528092 -198.529760
   vertex 3850.000000 21.999619 -202.103695
   vertex 1767.500000 21.999619 -202.103695
  endloop
 endfacet
 facet normal 0.000000 0.321439 -0.946930
  outer loop
   vertex 3850.000000 32.528092 -198.529760
   vertex 1767.500000 21.999619 -202.103695
   vertex 1767.500000 32.528092 -198.529760
  endloop
 endfacet
 facet normal 0.000000 0.195090 -0.980785
  outer loop
   vertex 3850.000000 21.999619 -202.103695
   vertex 3850.000000 11.094726 -204.272813
   vertex 1767.500000 11.094726 -204.272813
  endloop
 endfacet
 facet normal 0.000000 0.195090 -0.980785
  outer loop
   vertex 3850.000000 21.999619 -202.103695
   vertex 1767.500000 11.094726 -204.272813
   vertex 1767.500000 21.999619 -202.103695
  endloop
 endfacet
 facet normal 0.000000 0.065403 -0.997859
  outer loop
   vertex 3850.000000 11.094726 -204.272813
   vertex 3850.000000 0.000000 -205.000000
   vertex 1767.500000 0.000000 -205.000000
  endloop
 endfacet
 facet normal 0.000000 0.065403 -0.997859
  outer loop
   vertex 3850.000000 11.094726 -204.272813
   vertex 1767.500000 0.000000 -205.000000
   vertex 1767.500000 11.094726 -204.272813
  endloop
 endfacet
 facet normal 0.000000 -0.065403 -0.997859
  outer loop
   vertex 3850.000000 0.000000 -205.000000
   vertex 3850.000000 -11.094726 -204.272813
   vertex 1767.500000 -11.094726 -204.272813
  endloop
 endfacet
 facet normal -0.000000 -0.065403 -0.997859
  outer loop
   vertex 3850.000000 0.000000 -205.000000
   vertex 1767.500000 -11.094726 -204.272813
   vertex 1767.500000 0.000000 -205.000000
  endloop
 endfacet
 facet normal 0.000000 -0.195090 -0.980785
  outer loop
   vertex 3850.000000 -11.094726 -204.272813
   vertex 3850.000000 -21.999619 -202.103695
   vertex 1767.500000 -21.999619 -202.103695
  endloop
 endfacet
 facet normal -0.000000 -0.195090 -0.980785
  outer loop
   vertex 3850.000000 -11.094726 -204.272813
   vertex 1767.500000 -21.999619 -202.103695
   vertex 1767.500000 -11.094726 -204.272813
  endloop
 endfacet
 facet normal 0.000000 -0.321439 -0.946930
  outer loop
   vertex 3850.000000 -21.999619 -202.103695
   vertex 3850.000000 -32.528092 -198.529760
   vertex 1767.500000 -32.528092 -198.529760
  endloop
 endfacet
 facet normal -0.000000 -0.321439 -0.946930
  outer loop
   vertex 3850.000000 -21.999619 -202.103695
   vertex 1767.500000 -32.528092 -198.529760
   vertex 1767.500000 -21.999619 -202.103695
  endloop
 endfacet
 facet normal 0.000000 -0.442289 -0.896873
  outer loop
   vertex 3850.000000 -32.528092 -198.529760
   vertex 3850.000000 -42.500000 -193.612159
   vertex 1767.500000 -42.500000 -193.612159
  endloop
 endfacet
 facet normal -0.000000 -0.442289 -0.896873
  outer loop
   vertex 3850.000000 -32.528092 -198.529760
   vertex 1767.500000 -42.500000 -193.612159
   vertex 1767.500000 -32.528092 -198.529760
  endloop
 endfacet
 facet normal 0.000000 -0.555570 -0.831470
  outer loop
   vertex 3850.000000 -42.500000 -193.612159
   vertex 3850.000000 -51.744721 -187.435034
   vertex 1767.500000 -51.744721 -187.435034
  endloop
 endfacet
 facet normal -0.000000 -0.555570 -0.831470
  outer loop
   vertex 3850.000000 -42.500000 -193.612159
   vertex 1767.500000 -51.744721 -187.435034
   vertex 1767.500000 -42.500000 -193.612159
  endloop
 endfacet
 facet normal 0.000000 -0.659346 -0.751840
  outer loop
   vertex 3850.000000 -51.744721 -187.435034
   vertex 3850.000000 -60.104076 -180.104076
   vertex 1767.500000 -60.104076 -180.104076
  endloop
 endfacet
 facet normal -0.000000 -0.659346 -0.751840
  outer loop
   vertex 3850.000000 -51.744721 -187.435034
   vertex 1767.500000 -60.104076 -180.104076
   vertex 1767.500000 -51.744721 -187.435034
  endloop
 endfacet
 facet normal 0.000000 -0.751840 -0.659346
  outer loop
   vertex 3850.000000 -60.104076 -180.104076
   vertex 3850.000000 -67.435034 -171.744721
   vertex 1767.500000 -67.435034 -171.744721
  endloop
 endfacet
 facet normal -0.000000 -0.751840 -0.659346
  outer loop
   vertex 3850.000000 -60.104076 -180.104076
   vertex 1767.500000 -67.435034 -171.744721
   vertex 1767.500000 -60.104076 -180.104076
  endloop
 endfacet
 facet normal 0.000000 -0.831470 -0.555570
  outer loop
   vertex 3850.000000 -67.435034 -171.744721
   vertex 3850.000000 -73.612159 -162.500000
   vertex 1767.500000 -73.612159 -162.500000
  endloop
 endfacet
 facet normal -0.000000 -0.831470 -0.555570
  outer loop
   vertex 3850.000000 -67.435034 -171.744721
   vertex 1767.500000 -73.612159 -162.500000
   vertex 1767.500000 -67.435034 -171.744721
  endloop
 endfacet
 facet normal 0.000000 -0.896873 -0.442289
  outer loop
   vertex 3850.000000 -73.612159 -162.500000
   vertex 3850.000000 -78.529760 -152.528092
   vertex 1767.500000 -78.529760 -152.528092
  endloop
 endfacet
 facet normal -0.000000 -0.896873 -0.442289
  outer loop
   vertex 3850.000000 -73.612159 -162.500000
   vertex 1767.500000 -78.529760 -152.528092
   vertex 1767.500000 -73.612159 -162.500000
  endloop
 endfacet
 facet normal 0.000000 -0.946930 -0.321439
  outer loop
   vertex 3850.000000 -78.529760 -152.528092
   vertex 3850.000000 -82.103695 -141.999619
   vertex 1767.500000 -82.103695 -141.999619
  endloop
 endfacet
 facet normal -0.000000 -0.946930 -0.321439
  outer loop
   vertex 3850.000000 -78.529760 -152.528092
   vertex 1767.500000 -82.103695 -141.999619
   vertex 1767.500000 -78.529760 -152.528092
  endloop
 endfacet
 facet normal 0.000000 -0.980785 -0.195090
  outer loop
   vertex 3850.000000 -82.103695 -141.999619
   vertex 3850.000000 -84.272813 -131.094726
   vertex 1767.500000 -84.272813 -131.094726
  endloop
 endfacet
 facet normal -0.000000 -0.980785 -0.195090
  outer loop
   vertex 3850.000000 -82.103695 -141.999619
   vertex 1767.500000 -84.272813 -131.094726
   vertex 1767.500000 -82.103695 -141.999619
  endloop
 endfacet
 facet normal 0.000000 -0.997859 -0.065403
  outer loop
   vertex 3850.000000 -84.272813 -131.094726
   vertex 3850.000000 -85.000000 -120.000000
   vertex 1767.500000 -85.000000 -120.000000
  endloop
 endfacet
 facet normal -0.000000 -0.997859 -0.065403
  outer loop
   vertex 3850.000000 -84.272813 -131.094726
   vertex 1767.500000 -85.000000 -120.000000
   vertex 1767.500000 -84.272813 -131.094726
  endloop
 endfacet
 facet normal 0.000000 0.997859 -0.065403
  outer loop
   vertex 1767.500000 -74.358365 -110.210536
   vertex 3850.000000 -74.358365 -110.210536
   vertex 3850.000000 -75.000000 -120.000000
  endloop
 endfacet
 facet normal 0.000000 0.997859 -0.065403
  outer loop
   vertex 1767.500000 -75.000000 -120.000000
   vertex 1767.500000 -74.358365 -110.210536
   vertex 3850.000000 -75.000000 -120.000000
  endloop
 endfacet
 facet normal 0.000000 0.980785 -0.195090
  outer loop
   vertex 1767.500000 -72.444437 -100.588572
   vertex 3850.000000 -72.444437 -100.588572
   vertex 3850.000000 -74.358365 -110.210536
  endloop
 endfacet
 facet normal 0.000000 0.980785 -0.195090
  outer loop
   vertex 1767.500000 -74.358365 -110.210536
   vertex 1767.500000 -72.444437 -100.588572
   vertex 3850.000000 -74.358365 -110.210536
  endloop
 endfacet
 facet normal 0.000000 0.946930 -0.321439
  outer loop
   vertex 1767.500000 -69.290965 -91.298743
   vertex 3850.000000 -69.290965 -91.298743
   vertex 3850.000000 -72.444437 -100.588572
  endloop
 endfacet
 facet normal 0.000000 0.946930 -0.321439
  outer loop
   vertex 1767.500000 -72.444437 -100.588572
   vertex 1767.500000 -69.290965 -91.298743
   vertex 3850.000000 -72.444437 -100.588572
  endloop
 endfacet
 facet normal 0.000000 0.896873 -0.442289
  outer loop
   vertex 1767.500000 -64.951905 -82.500000
   vertex 3850.000000 -64.951905 -82.500000
   vertex 3850.000000 -69.290965 -91.298743
  endloop
 endfacet
 facet normal 0.000000 0.896873 -0.442289
  outer loop
   vertex 1767.500000 -69.290965 -91.298743
   vertex 1767.500000 -64.951905 -82.500000
   vertex 3850.000000 -69.290965 -91.298743
  endloop
 endfacet
 facet normal 0.000000 0.831470 -0.555570
  outer loop
   vertex 1767.500000 -59.501501 -74.342893
   vertex 3850.000000 -59.501501 -74.342893
   vertex 3850.000000 -64.951905 -82.500000
  endloop
 endfacet
 facet normal 0.000000 0.831470 -0.555570
  outer loop
   vertex 1767.500000 -64.951905 -82.500000
   vertex 1767.500000 -59.501501 -74.342893
   vertex 3850.000000 -64.951905 -82.500000
  endloop
 endfacet
 facet normal 0.000000 0.751840 -0.659346
  outer loop
   vertex 1767.500000 -53.033009 -66.966991
   vertex 3850.000000 -53.033009 -66.966991
   vertex 3850.000000 -59.501501 -74.342893
  endloop
 endfacet
 facet normal 0.000000 0.751840 -0.659346
  outer loop
   vertex 1767.500000 -59.501501 -74.342893
   vertex 1767.500000 -53.033009 -66.966991
   vertex 3850.000000 -59.501501 -74.342893
  endloop
 endfacet
 facet normal 0.000000 0.659346 -0.751840
  outer loop
   vertex 1767.500000 -45.657107 -60.498499
   vertex 3850.000000 -45.657107 -60.498499
   vertex 3850.000000 -53.033009 -66.966991
  endloop
 endfacet
 facet normal 0.000000 0.659346 -0.751840
  outer loop
   vertex 1767.500000 -53.033009 -66.966991
   vertex 1767.500000 -45.657107 -60.498499
   vertex 3850.000000 -53.033009 -66.966991
  endloop
 endfacet
 facet normal 0.000000 0.555570 -0.831470
  outer loop
   vertex 1767.500000 -37.500000 -55.048095
   vertex 3850.000000 -37.500000 -55.048095
   vertex 3850.000000 -45.657107 -60.498499
  endloop
 endfacet
 facet normal 0.000000 0.555570 -0.831470
  outer loop
   vertex 1767.500000 -45.657107 -60.498499
   vertex 1767.500000 -37.500000 -55.048095
   vertex 3850.000000 -45.657107 -60.498499
  endloop
 endfacet
 facet normal 0.000000 0.442289 -0.896873
  outer loop
   vertex 1767.500000 -28.701257 -50.709035
   vertex 3850.000000 -28.701257 -50.709035
   vertex 3850.000000 -37.500000 -55.048095
  endloop
 endfacet
 facet normal 0.000000 0.442289 -0.896873
  outer loop
   vertex 1767.500000 -37.500000 -55.048095
   vertex 1767.500000 -28.701257 -50.709035
   vertex 3850.000000 -37.500000 -55.048095
  endloop
 endfacet
 facet normal 0.000000 0.321439 -0.946930
  outer loop
   vertex 1767.500000 -19.411428 -47.555563
   vertex 3850.000000 -19.411428 -47.555563
   vertex 3850.000000 -28.701257 -50.709035
  endloop
 endfacet
 facet normal 0.000000 0.321439 -0.946930
  outer loop
   vertex 1767.500000 -28.701257 -50.709035
   vertex 1767.500000 -19.411428 -47.555563
   vertex 3850.000000 -28.701257 -50.709035
  endloop
 endfacet
 facet normal 0.000000 0.195090 -0.980785
  outer loop
   vertex 1767.500000 -9.789464 -45.641635
   vertex 3850.000000 -9.789464 -45.641635
   vertex 3850.000000 -19.411428 -47.555563
  endloop
 endfacet
 facet normal 0.000000 0.195090 -0.980785
  outer loop
   vertex 1767.500000 -19.411428 -47.555563
   vertex 1767.500000 -9.789464 -45.641635
   vertex 3850.000000 -19.411428 -47.555563
  endloop
 endfacet
 facet normal 0.000000 0.065403 -0.997859
  outer loop
   vertex 1767.500000 -0.000000 -45.000000
   vertex 3850.000000 -0.000000 -45.000000
   vertex 3850.000000 -9.789464 -45.641635
  endloop
 endfacet
 facet normal 0.000000 0.065403 -0.997859
  outer loop
   vertex 1767.500000 -9.789464 -45.641635
   vertex 1767.500000 -0.000000 -45.000000
   vertex 3850.000000 -9.789464 -45.641635
  endloop
 endfacet
 facet normal 0.000000 -0.065403 -0.997859
  outer loop
   vertex 1767.500000 9.789464 -45.641635
   vertex 3850.000000 9.789464 -45.641635
   vertex 3850.000000 -0.000000 -45.000000
  endloop
 endfacet
 facet normal 0.000000 -0.065403 -0.997859
  outer loop
   vertex 1767.500000 -0.000000 -45.000000
   vertex 1767.500000 9.789464 -45.641635
   vertex 3850.000000 -0.000000 -45.000000
  endloop
 endfacet
 facet normal 0.000000 -0.195090 -0.980785
  outer loop
   vertex 1767.500000 19.411428 -47.555563
   vertex 3850.000000 19.411428 -47.555563
   vertex 3850.000000 9.789464 -45.641635
  endloop
 endfacet
 facet normal 0.000000 -0.195090 -0.980785
  outer loop
   vertex 1767.500000 9.789464 -45.641635
   vertex 1767.500000 19.411428 -47.555563
   vertex 3850.000000 9.789464 -45.641635
  endloop
 endfacet
 facet normal 0.000000 -0.321439 -0.946930
  outer loop
   vertex 1767.500000 28.701257 -50.709035
   vertex 3850.000000 28.701257 -50.709035
   vertex 3850.000000 19.411428 -47.555563
  endloop
 endfacet
 facet normal 0.000000 -0.321439 -0.946930
  outer loop
   vertex 1767.500000 19.411428 -47.555563
   vertex 1767.500000 28.701257 -50.709035
   vertex 3850.000000 19.411428 -47.555563
  endloop
 endfacet
 facet normal 0.000000 -0.442289 -0.896873
  outer loop
   vertex 1767.500000 37.500000 -55.048095
   vertex 3850.000000 37.500000 -55.048095
   vertex 3850.000000 28.701257 -50.709035
  endloop
 endfacet
 facet normal 0.000000 -0.442289 -0.896873
  outer loop
   vertex 1767.500000 28.701257 -50.709035
   vertex 1767.500000 37.500000 -55.048095
   vertex 3850.000000 28.701257 -50.709035
  endloop
 endfacet
 facet normal 0.000000 -0.555570 -0.831470
  outer loop
   vertex 1767.500000 45.657107 -60.498499
   vertex 3850.000000 45.657107 -60.498499
   vertex 3850.000000 37.500000 -55.048095
  endloop
 endfacet
 facet normal 0.000000 -0.555570 -0.831470
  outer loop
   vertex 1767.500000 37.500000 -55.048095
   vertex 1767.500000 45.657107 -60.498499
   vertex 3850.000000 37.500000 -55.048095
  endloop
 endfacet
 facet normal 0.000000 -0.659346 -0.751840
  outer loop
   vertex 1767.500000 53.033009 -66.966991
   vertex 3850.000000 53.033009 -66.966991
   vertex 3850.000000 45.657107 -60.498499
  endloop
 endfacet
 facet normal 0.000000 -0.659346 -0.751840
  outer loop
   vertex 1767.500000 45.657107 -60.498499
   vertex 1767.500000 53.033009 -66.966991
   vertex 3850.000000 45.657107 -60.498499
  endloop
 endfacet
 facet normal 0.000000 -0.751840 -0.659346
  outer loop
   vertex 1767.500000 59.501501 -74.342893
   vertex 3850.000000 59.501501 -74.342893
   vertex 3850.000000 53.033009 -66.966991
  endloop
 endfacet
 facet normal 0.000000 -0.751840 -0.659346
  outer loop
   vertex 1767.500000 53.033009 -66.966991
   vertex 1767.500000 59.501501 -74.342893
   vertex 3850.000000 53.033009 -66.966991
  endloop
 endfacet
 facet normal 0.000000 -0.831470 -0.555570
  outer loop
   vertex 1767.500000 64.951905 -82.500000
   vertex 3850.000000 64.951905 -82.500000
   vertex 3850.000000 59.501501 -74.342893
  endloop
 endfacet
 facet normal 0.000000 -0.831470 -0.555570
  outer loop
   vertex 1767.500000 59.501501 -74.342893
   vertex 1767.500000 64.951905 -82.500000
   vertex 3850.000000 59.501501 -74.342893
  endloop
 endfacet
 facet normal 0.000000 -0.896873 -0.442289
  outer loop
   vertex 1767.500000 69.290965 -91.298743
   vertex 3850.000000 69.290965 -91.298743
   vertex 3850.000000 64.951905 -82.500000
  endloop
 endfacet
 facet normal 0.000000 -0.896873 -0.442289
  outer loop
   vertex 1767.500000 64.951905 -82.500000
   vertex 1767.500000 69.290965 -91.298743
   vertex 3850.000000 64.951905 -82.500000
  endloop
 endfacet
 facet normal 0.000000 -0.946930 -0.321439
  outer loop
   vertex 1767.500000 72.444437 -100.588572
   vertex 3850.000000 72.444437 -100.588572
   vertex 3850.000000 69.290965 -91.298743
  endloop
 endfacet
 facet normal 0.000000 -0.946930 -0.321439
  outer loop
   vertex 1767.500000 69.290965 -91.298743
   vertex 1767.500000 72.444437 -100.588572
   vertex 3850.000000 69.290965 -91.298743
  endloop
 endfacet
 facet normal 0.000000 -0.980785 -0.195090
  outer loop
   vertex 1767.500000 74.358365 -110.210536
   vertex 3850.000000 74.358365 -110.210536
   vertex 3850.000000 72.444437 -100.588572
  endloop
 endfacet
 facet normal 0.000000 -0.980785 -0.195090
  outer loop
   vertex 1767.500000 72.444437 -100.588572
   vertex 1767.500000 74.358365 -110.210536
   vertex 3850.000000 72.444437 -100.588572
  endloop
 endfacet
 facet normal 0.000000 -0.997859 -0.065403
  outer loop
   vertex 1767.500000 75.000000 -120.000000
   vertex 3850.000000 75.000000 -120.000000
   vertex 3850.000000 74.358365 -110.210536
  endloop
 endfacet
 facet normal 0.000000 -0.997859 -0.065403
  outer loop
   vertex 1767.500000 74.358365 -110.210536
   vertex 1767.500000 75.000000 -120.000000
   vertex 3850.000000 74.358365 -110.210536
  endloop
 endfacet
 facet normal 0.000000 -0.997859 0.065403
  outer loop
   vertex 1767.500000 74.358365 -129.789464
   vertex 3850.000000 74.358365 -129.789464
   vertex 3850.000000 75.000000 -120.000000
  endloop
 endfacet
 facet normal 0.000000 -0.997859 0.065403
  outer loop
   vertex 1767.500000 75.000000 -120.000000
   vertex 1767.500000 74.358365 -129.789464
   vertex 3850.000000 75.000000 -120.000000
  endloop
 endfacet
 facet normal 0.000000 -0.980785 0.195090
  outer loop
   vertex 1767.500000 72.444437 -139.411428
   vertex 3850.000000 72.444437 -139.411428
   vertex 3850.000000 74.358365 -129.789464
  endloop
 endfacet
 facet normal 0.000000 -0.980785 0.195090
  outer loop
   vertex 1767.500000 74.358365 -129.789464
   vertex 1767.500000 72.444437 -139.411428
   vertex 3850.000000 74.358365 -129.789464
  endloop
 endfacet
 facet normal 0.000000 -0.946930 0.321439
  outer loop
   vertex 1767.500000 69.290965 -148.701257
   vertex 3850.000000 69.290965 -148.701257
   vertex 3850.000000 72.444437 -139.411428
  endloop
 endfacet
 facet normal 0.000000 -0.946930 0.321439
  outer loop
   vertex 1767.500000 72.444437 -139.411428
   vertex 1767.500000 69.290965 -148.701257
   vertex 3850.000000 72.444437 -139.411428
  endloop
 endfacet
 facet normal 0.000000 -0.896873 0.442289
  outer loop
   vertex 1767.500000 64.951905 -157.500000
   vertex 3850.000000 64.951905 -157.500000
   vertex 3850.000000 69.290965 -148.701257
  endloop
 endfacet
 facet normal 0.000000 -0.896873 0.442289
  outer loop
   vertex 1767.500000 69.290965 -148.701257
   vertex 1767.500000 64.951905 -157.500000
   vertex 3850.000000 69.290965 -148.701257
  endloop
 endfacet
 facet normal 0.000000 -0.831470 0.555570
  outer loop
   vertex 1767.500000 59.501501 -165.657107
   vertex 3850.000000 59.501501 -165.657107
   vertex 3850.000000 64.951905 -157.500000
  endloop
 endfacet
 facet normal 0.000000 -0.831470 0.555570
  outer loop
   vertex 1767.500000 64.951905 -157.500000
   vertex 1767.500000 59.501501 -165.657107
   vertex 3850.000000 64.951905 -157.500000
  endloop
 endfacet
 facet normal 0.000000 -0.751840 0.659346
  outer loop
   vertex 1767.500000 53.033009 -173.033009
   vertex 3850.000000 53.033009 -173.033009
   vertex 3850.000000 59.501501 -165.657107
  endloop
 endfacet
 facet normal 0.000000 -0.751840 0.659346
  outer loop
   vertex 1767.500000 59.501501 -165.657107
   vertex 1767.500000 53.033009 -173.033009
   vertex 3850.000000 59.501501 -165.657107
  endloop
 endfacet
 facet normal 0.000000 -0.659346 0.751840
  outer loop
   vertex 1767.500000 45.657107 -179.501501
   vertex 3850.000000 45.657107 -179.501501
   vertex 3850.000000 53.033009 -173.033009
  endloop
 endfacet
 facet normal 0.000000 -0.659346 0.751840
  outer loop
   vertex 1767.500000 53.033009 -173.033009
   vertex 1767.500000 45.657107 -179.501501
   vertex 3850.000000 53.033009 -173.033009
  endloop
 endfacet
 facet normal 0.000000 -0.555570 0.831470
  outer loop
   vertex 1767.500000 37.500000 -184.951905
   vertex 3850.000000 37.500000 -184.951905
   vertex 3850.000000 45.657107 -179.501501
  endloop
 endfacet
 facet normal 0.000000 -0.555570 0.831470
  outer loop
   vertex 1767.500000 45.657107 -179.501501
   vertex 1767.500000 37.500000 -184.951905
   vertex 3850.000000 45.657107 -179.501501
  endloop
 endfacet
 facet normal 0.000000 -0.442289 0.896873
  outer loop
   vertex 1767.500000 28.701257 -189.290965
   vertex 3850.000000 28.701257 -189.290965
   vertex 3850.000000 37.500000 -184.951905
  endloop
 endfacet
 facet normal 0.000000 -0.442289 0.896873
  outer loop
   vertex 1767.500000 37.500000 -184.951905
   vertex 1767.500000 28.701257 -189.290965
   vertex 3850.000000 37.500000 -184.951905
  endloop
 endfacet
 facet normal 0.000000 -0.321439 0.946930
  outer loop
   vertex 1767.500000 19.411428 -192.444437
   vertex 3850.000000 19.411428 -192.444437
   vertex 3850.000000 28.701257 -189.290965
  endloop
 endfacet
 facet normal 0.000000 -0.321439 0.946930
  outer loop
   vertex 1767.500000 28.701257 -189.290965
   vertex 1767.500000 19.411428 -192.444437
   vertex 3850.000000 28.701257 -189.290965
  endloop
 endfacet
 facet normal 0.000000 -0.195090 0.980785
  outer loop
   vertex 1767.500000 9.789464 -194.358365
   vertex 3850.000000 9.789464 -194.358365
   vertex 3850.000000 19.411428 -192.444437
  endloop
 endfacet
 facet normal 0.000000 -0.195090 0.980785
  outer loop
   vertex 1767.500000 19.411428 -192.444437
   vertex 1767.500000 9.789464 -194.358365
   vertex 3850.000000 19.411428 -192.444437
  endloop
 endfacet
 facet normal 0.000000 -0.065403 0.997859
  outer loop
   vertex 1767.500000 0.000000 -195.000000
   vertex 3850.000000 0.000000 -195.000000
   vertex 3850.000000 9.789464 -194.358365
  endloop
 endfacet
 facet normal 0.000000 -0.065403 0.997859
  outer loop
   vertex 1767.500000 9.789464 -194.358365
   vertex 1767.500000 0.000000 -195.000000
   vertex 3850.000000 9.789464 -194.358365
  endloop
 endfacet
 facet normal -0.000000 0.065403 0.997859
  outer loop
   vertex 1767.500000 -9.789464 -194.358365
   vertex 3850.000000 -9.789464 -194.358365
   vertex 3850.000000 0.000000 -195.000000
  endloop
 endfacet
 facet normal -0.000000 0.065403 0.997859
  outer loop
   vertex 1767.500000 0.000000 -195.000000
   vertex 1767.500000 -9.789464 -194.358365
   vertex 3850.000000 0.000000 -195.000000
  endloop
 endfacet
 facet normal -0.000000 0.195090 0.980785
  outer loop
   vertex 1767.500000 -19.411428 -192.444437
   vertex 3850.000000 -19.411428 -192.444437
   vertex 3850.000000 -9.789464 -194.358365
  endloop
 endfacet
 facet normal -0.000000 0.195090 0.980785
  outer loop
   vertex 1767.500000 -9.789464 -194.358365
   vertex 1767.500000 -19.411428 -192.444437
   vertex 3850.000000 -9.789464 -194.358365
  endloop
 endfacet
 facet normal -0.000000 0.321439 0.946930
  outer loop
   vertex 1767.500000 -28.701257 -189.290965
   vertex 3850.000000 -28.701257 -189.290965
   vertex 3850.000000 -19.411428 -192.444437
  endloop
 endfacet
 facet normal -0.000000 0.321439 0.946930
  outer loop
   vertex 1767.500000 -19.411428 -192.444437
   vertex 1767.500000 -28.701257 -189.290965
   vertex 3850.000000 -19.411428 -192.444437
  endloop
 endfacet
 facet normal -0.000000 0.442289 0.896873
  outer loop
   vertex 1767.500000 -37.500000 -184.951905
   vertex 3850.000000 -37.500000 -184.951905
   vertex 3850.000000 -28.701257 -189.290965
  endloop
 endfacet
 facet normal -0.000000 0.442289 0.896873
  outer loop
   vertex 1767.500000 -28.701257 -189.290965
   vertex 1767.500000 -37.500000 -184.951905
   vertex 3850.000000 -28.701257 -189.290965
  endloop
 endfacet
 facet normal -0.000000 0.555570 0.831470
  outer loop
   vertex 1767.500000 -45.657107 -179.501501
   vertex 3850.000000 -45.657107 -179.501501
   vertex 3850.000000 -37.500000 -184.951905
  endloop
 endfacet
 facet normal -0.000000 0.555570 0.831470
  outer loop
   vertex 1767.500000 -37.500000 -184.951905
   vertex 1767.500000 -45.657107 -179.501501
   vertex 3850.000000 -37.500000 -184.951905
  endloop
 endfacet
 facet normal -0.000000 0.659346 0.751840
  outer loop
   vertex 1767.500000 -53.033009 -173.033009
   vertex 3850.000000 -53.033009 -173.033009
   vertex 3850.000000 -45.657107 -179.501501
  endloop
 endfacet
 facet normal -0.000000 0.659346 0.751840
  outer loop
   vertex 1767.500000 -45.657107 -179.501501
   vertex 1767.500000 -53.033009 -173.033009
   vertex 3850.000000 -45.657107 -179.501501
  endloop
 endfacet
 facet normal -0.000000 0.751840 0.659346
  outer loop
   vertex 1767.500000 -59.501501 -165.657107
   vertex 3850.000000 -59.501501 -165.657107
   vertex 3850.000000 -53.033009 -173.033009
  endloop
 endfacet
 facet normal -0.000000 0.751840 0.659346
  outer loop
   vertex 1767.500000 -53.033009 -173.033009
   vertex 1767.500000 -59.501501 -165.657107
   vertex 3850.000000 -53.033009 -173.033009
  endloop
 endfacet
 facet normal -0.000000 0.831470 0.555570
  outer loop
   vertex 1767.500000 -64.951905 -157.500000
   vertex 3850.000000 -64.951905 -157.500000
   vertex 3850.000000 -59.501501 -165.657107
  endloop
 endfacet
 facet normal -0.000000 0.831470 0.555570
  outer loop
   vertex 1767.500000 -59.501501 -165.657107
   vertex 1767.500000 -64.951905 -157.500000
   vertex 3850.000000 -59.501501 -165.657107
  endloop
 endfacet
 facet normal -0.000000 0.896873 0.442289
  outer loop
   vertex 1767.500000 -69.290965 -148.701257
   vertex 3850.000000 -69.290965 -148.701257
   vertex 3850.000000 -64.951905 -157.500000
  endloop
 endfacet
 facet normal -0.000000 0.896873 0.442289
  outer loop
   vertex 1767.500000 -64.951905 -157.500000
   vertex 1767.500000 -69.290965 -148.701257
   vertex 3850.000000 -64.951905 -157.500000
  endloop
 endfacet
 facet normal -0.000000 0.946930 0.321439
  outer loop
   vertex 1767.500000 -72.444437 -139.411428
   vertex 3850.000000 -72.444437 -139.411428
   vertex 3850.000000 -69.290965 -148.701257
  endloop
 endfacet
 facet normal -0.000000 0.946930 0.321439
  outer loop
   vertex 1767.500000 -69.290965 -148.701257
   vertex 1767.500000 -72.444437 -139.411428
   vertex 3850.000000 -69.290965 -148.701257
  endloop
 endfacet
 facet normal -0.000000 0.980785 0.195090
  outer loop
   vertex 1767.500000 -74.358365 -129.789464
   vertex 3850.000000 -74.358365 -129.789464
   vertex 3850.000000 -72.444437 -139.411428
  endloop
 endfacet
 facet normal -0.000000 0.980785 0.195090
  outer loop
   vertex 1767.500000 -72.444437 -139.411428
   vertex 1767.500000 -74.358365 -129.789464
   vertex 3850.000000 -72.444437 -139.411428
  endloop
 endfacet
 facet normal -0.000000 0.997859 0.065403
  outer loop
   vertex 1767.500000 -75.000000 -120.000000
   vertex 3850.000000 -75.000000 -120.000000
   vertex 3850.000000 -74.358365 -129.789464
  endloop
 endfacet
 facet normal -0.000000 0.997859 0.065403
  outer loop
   vertex 1767.500000 -74.358365 -129.789464
   vertex 1767.500000 -75.000000 -120.000000
   vertex 3850.000000 -74.358365 -129.789464
  endloop
 endfacet
endsolid SIVB_LH2_Hrun
