solid SIC_RP1_feed_0_drop
 facet normal 0.064465 0.997859 -0.011038
  outer loop
   vertex -3367.200000 100.000000 -1040.000000
   vertex -3354.334619 99.144486 -1042.202914
   vertex -3647.134619 99.144486 -2752.202914
  endloop
 endfacet
 facet normal 0.064465 0.997859 -0.011038
  outer loop
   vertex -3367.200000 100.000000 -1040.000000
   vertex -3647.134619 99.144486 -2752.202914
   vertex -3660.000000 100.000000 -2750.000000
  endloop
 endfacet
 facet normal 0.192292 0.980785 -0.032926
  outer loop
   vertex -3354.334619 99.144486 -1042.202914
   vertex -3341.689368 96.592583 -1044.368136
   vertex -3634.489368 96.592583 -2754.368136
  endloop
 endfacet
 facet normal 0.192292 0.980785 -0.032926
  outer loop
   vertex -3354.334619 99.144486 -1042.202914
   vertex -3634.489368 96.592583 -2754.368136
   vertex -3647.134619 99.144486 -2752.202914
  endloop
 endfacet
 facet normal 0.316828 0.946930 -0.054250
  outer loop
   vertex -3341.689368 96.592583 -1044.368136
   vertex -3329.480611 92.387953 -1046.458618
   vertex -3622.280611 92.387953 -2756.458618
  endloop
 endfacet
 facet normal 0.316828 0.946930 -0.054250
  outer loop
   vertex -3341.689368 96.592583 -1044.368136
   vertex -3622.280611 92.387953 -2756.458618
   vertex -3634.489368 96.592583 -2754.368136
  endloop
 endfacet
 facet normal 0.435944 0.896873 -0.074646
  outer loop
   vertex -3329.480611 92.387953 -1046.458618
   vertex -3317.917243 86.602540 -1048.438591
   vertex -3610.717243 86.602540 -2758.438591
  endloop
 endfacet
 facet normal 0.435944 0.896873 -0.074646
  outer loop
   vertex -3329.480611 92.387953 -1046.458618
   vertex -3610.717243 86.602540 -2758.438591
   vertex -3622.280611 92.387953 -2756.458618
  endloop
 endfacet
 facet normal 0.547601 0.831470 -0.093765
  outer loop
   vertex -3317.917243 86.602540 -1048.438591
   vertex -3307.197116 79.335334 -1050.274178
   vertex -3599.997116 79.335334 -2760.274178
  endloop
 endfacet
 facet normal 0.547601 0.831470 -0.093765
  outer loop
   vertex -3317.917243 86.602540 -1048.438591
   vertex -3599.997116 79.335334 -2760.274178
   vertex -3610.717243 86.602540 -2758.438591
  endloop
 endfacet
 facet normal 0.649888 0.751840 -0.111279
  outer loop
   vertex -3307.197116 79.335334 -1050.274178
   vertex -3297.503656 70.710678 -1051.933970
   vertex -3590.303656 70.710678 -2761.933970
  endloop
 endfacet
 facet normal 0.649888 0.751840 -0.111279
  outer loop
   vertex -3307.197116 79.335334 -1050.274178
   vertex -3590.303656 70.710678 -2761.933970
   vertex -3599.997116 79.335334 -2760.274178
  endloop
 endfacet
 facet normal 0.741055 0.659346 -0.126889
  outer loop
   vertex -3297.503656 70.710678 -1051.933970
   vertex -3289.002720 60.876143 -1053.389569
   vertex -3581.802720 60.876143 -2763.389569
  endloop
 endfacet
 facet normal 0.741055 0.659346 -0.126889
  outer loop
   vertex -3297.503656 70.710678 -1051.933970
   vertex -3581.802720 60.876143 -2763.389569
   vertex -3590.303656 70.710678 -2761.933970
  endloop
 endfacet
 facet normal 0.819542 0.555570 -0.140329
  outer loop
   vertex -3289.002720 60.876143 -1053.389569
   vertex -3281.839760 50.000000 -1054.616069
   vertex -3574.639760 50.000000 -2764.616069
  endloop
 endfacet
 facet normal 0.819542 0.555570 -0.140329
  outer loop
   vertex -3289.002720 60.876143 -1053.389569
   vertex -3574.639760 50.000000 -2764.616069
   vertex -3581.802720 60.876143 -2763.389569
  endloop
 endfacet
 facet normal 0.884007 0.442289 -0.151367
  outer loop
   vertex -3281.839760 50.000000 -1054.616069
   vertex -3276.137338 38.268343 -1055.592484
   vertex -3568.937338 38.268343 -2765.592484
  endloop
 endfacet
 facet normal 0.884007 0.442289 -0.151367
  outer loop
   vertex -3281.839760 50.000000 -1054.616069
   vertex -3568.937338 38.268343 -2765.592484
   vertex -3574.639760 50.000000 -2764.616069
  endloop
 endfacet
 facet normal 0.933347 0.321439 -0.159815
  outer loop
   vertex -3276.137338 38.268343 -1055.592484
   vertex -3271.993024 25.881905 -1056.302107
   vertex -3564.793024 25.881905 -2766.302107
  endloop
 endfacet
 facet normal 0.933347 0.321439 -0.159815
  outer loop
   vertex -3276.137338 38.268343 -1055.592484
   vertex -3564.793024 25.881905 -2766.302107
   vertex -3568.937338 38.268343 -2765.592484
  endloop
 endfacet
 facet normal 0.966716 0.195090 -0.165529
  outer loop
   vertex -3271.993024 25.881905 -1056.302107
   vertex -3269.477727 13.052619 -1056.732796
   vertex -3562.277727 13.052619 -2766.732796
  endloop
 endfacet
 facet normal 0.966716 0.195090 -0.165529
  outer loop
   vertex -3271.993024 25.881905 -1056.302107
   vertex -3562.277727 13.052619 -2766.732796
   vertex -3564.793024 25.881905 -2766.302107
  endloop
 endfacet
 facet normal 0.983545 0.065403 -0.168410
  outer loop
   vertex -3269.477727 13.052619 -1056.732796
   vertex -3268.634485 0.000000 -1056.877183
   vertex -3561.434485 0.000000 -2766.877183
  endloop
 endfacet
 facet normal 0.983545 0.065403 -0.168410
  outer loop
   vertex -3269.477727 13.052619 -1056.732796
   vertex -3561.434485 0.000000 -2766.877183
   vertex -3562.277727 13.052619 -2766.732796
  endloop
 endfacet
 facet normal 0.983545 -0.065403 -0.168410
  outer loop
   vertex -3268.634485 0.000000 -1056.877183
   vertex -3269.477727 -13.052619 -1056.732796
   vertex -3562.277727 -13.052619 -2766.732796
  endloop
 endfacet
 facet normal 0.983545 -0.065403 -0.168410
  outer loop
   vertex -3268.634485 0.000000 -1056.877183
   vertex -3562.277727 -13.052619 -2766.732796
   vertex -3561.434485 0.000000 -2766.877183
  endloop
 endfacet
 facet normal 0.966716 -0.195090 -0.165529
  outer loop
   vertex -3269.477727 -13.052619 -1056.732796
   vertex -3271.993024 -25.881905 -1056.302107
   vertex -3564.793024 -25.881905 -2766.302107
  endloop
 endfacet
 facet normal 0.966716 -0.195090 -0.165529
  outer loop
   vertex -3269.477727 -13.052619 -1056.732796
   vertex -3564.793024 -25.881905 -2766.302107
   vertex -3562.277727 -13.052619 -2766.732796
  endloop
 endfacet
 facet normal 0.933347 -0.321439 -0.159815
  outer loop
   vertex -3271.993024 -25.881905 -1056.302107
   vertex -3276.137338 -38.268343 -1055.592484
   vertex -3568.937338 -38.268343 -2765.592484
  endloop
 endfacet
 facet normal 0.933347 -0.321439 -0.159815
  outer loop
   vertex -3271.993024 -25.881905 -1056.302107
   vertex -3568.937338 -38.268343 -2765.592484
   vertex -3564.793024 -25.881905 -2766.302107
  endloop
 endfacet
 facet normal 0.884007 -0.442289 -0.151367
  outer loop
   vertex -3276.137338 -38.268343 -1055.592484
   vertex -3281.839760 -50.000000 -1054.616069
   vertex -3574.639760 -50.000000 -2764.616069
  endloop
 endfacet
 facet normal 0.884007 -0.442289 -0.151367
  outer loop
   vertex -3276.137338 -38.268343 -1055.592484
   vertex -3574.639760 -50.000000 -2764.616069
   vertex -3568.937338 -38.268343 -2765.592484
  endloop
 endfacet
 facet normal 0.819542 -0.555570 -0.140329
  outer loop
   vertex -3281.839760 -50.000000 -1054.616069
   vertex -3289.002720 -60.876143 -1053.389569
   vertex -3581.802720 -60.876143 -2763.389569
  endloop
 endfacet
 facet normal 0.819542 -0.555570 -0.140329
  outer loop
   vertex -3281.839760 -50.000000 -1054.616069
   vertex -3581.802720 -60.876143 -2763.389569
   vertex -3574.639760 -50.000000 -2764.616069
  endloop
 endfacet
 facet normal 0.741055 -0.659346 -0.126889
  outer loop
   vertex -3289.002720 -60.876143 -1053.389569
   vertex -3297.503656 -70.710678 -1051.933970
   vertex -3590.303656 -70.710678 -2761.933970
  endloop
 endfacet
 facet normal 0.741055 -0.659346 -0.126889
  outer loop
   vertex -3289.002720 -60.876143 -1053.389569
   vertex -3590.303656 -70.710678 -2761.933970
   vertex -3581.802720 -60.876143 -2763.389569
  endloop
 endfacet
 facet normal 0.649888 -0.751840 -0.111279
  outer loop
   vertex -3297.503656 -70.710678 -1051.933970
   vertex -3307.197116 -79.335334 -1050.274178
   vertex -3599.997116 -79.335334 -2760.274178
  endloop
 endfacet
 facet normal 0.649888 -0.751840 -0.111279
  outer loop
   vertex -3297.503656 -70.710678 -1051.933970
   vertex -3599.997116 -79.335334 -2760.274178
   vertex -3590.303656 -70.710678 -2761.933970
  endloop
 endfacet
 facet normal 0.547601 -0.831470 -0.093765
  outer loop
   vertex -3307.197116 -79.335334 -1050.274178
   vertex -3317.917243 -86.602540 -1048.438591
   vertex -3610.717243 -86.602540 -2758.438591
  endloop
 endfacet
 facet normal 0.547601 -0.831470 -0.093765
  outer loop
   vertex -3307.197116 -79.335334 -1050.274178
   vertex -3610.717243 -86.602540 -2758.438591
   vertex -3599.997116 -79.335334 -2760.274178
  endloop
 endfacet
 facet normal 0.435944 -0.896873 -0.074646
  outer loop
   vertex -3317.917243 -86.602540 -1048.438591
   vertex -3329.480611 -92.387953 -1046.458618
   vertex -3622.280611 -92.387953 -2756.458618
  endloop
 endfacet
 facet normal 0.435944 -0.896873 -0.074646
  outer loop
   vertex -3317.917243 -86.602540 -1048.438591
   vertex -3622.280611 -92.387953 -2756.458618
   vertex -3610.717243 -86.602540 -2758.438591
  endloop
 endfacet
 facet normal 0.316828 -0.946930 -0.054250
  outer loop
   vertex -3329.480611 -92.387953 -1046.458618
   vertex -3341.689368 -96.592583 -1044.368136
   vertex -3634.489368 -96.592583 -2754.368136
  endloop
 endfacet
 facet normal 0.316828 -0.946930 -0.054250
  outer loop
   vertex -3329.480611 -92.387953 -1046.458618
   vertex -3634.489368 -96.592583 -2754.368136
   vertex -3622.280611 -92.387953 -2756.458618
  endloop
 endfacet
 facet normal 0.192292 -0.980785 -0.032926
  outer loop
   vertex -3341.689368 -96.592583 -1044.368136
   vertex -3354.334619 -99.144486 -1042.202914
   vertex -3647.134619 -99.144486 -2752.202914
  endloop
 endfacet
 facet normal 0.192292 -0.980785 -0.032926
  outer loop
   vertex -3341.689368 -96.592583 -1044.368136
   vertex -3647.134619 -99.144486 -2752.202914
   vertex -3634.489368 -96.592583 -2754.368136
  endloop
 endfacet
 facet normal 0.064465 -0.997859 -0.011038
  outer loop
   vertex -3354.334619 -99.144486 -1042.202914
   vertex -3367.200000 -100.000000 -1040.000000
   vertex -3660.000000 -100.000000 -2750.000000
  endloop
 endfacet
 facet normal 0.064465 -0.997859 -0.011038
  outer loop
   vertex -3354.334619 -99.144486 -1042.202914
   vertex -3660.000000 -100.000000 -2750.000000
   vertex -3647.134619 -99.144486 -2752.202914
  endloop
 endfacet
 facet normal -0.064465 -0.997859 0.011038
  outer loop
   vertex -3367.200000 -100.000000 -1040.000000
   vertex -3380.065381 -99.144486 -1037.797086
   vertex -3672.865381 -99.144486 -2747.797086
  endloop
 endfacet
 facet normal -0.064465 -0.997859 0.011038
  outer loop
   vertex -3367.200000 -100.000000 -1040.000000
   vertex -3672.865381 -99.144486 -2747.797086
   vertex -3660.000000 -100.000000 -2750.000000
  endloop
 endfacet
 facet normal -0.192292 -0.980785 0.032926
  outer loop
   vertex -3380.065381 -99.144486 -1037.797086
   vertex -3392.710632 -96.592583 -1035.631864
   vertex -3685.510632 -96.592583 -2745.631864
  endloop
 endfacet
 facet normal -0.192292 -0.980785 0.032926
  outer loop
   vertex -3380.065381 -99.144486 -1037.797086
   vertex -3685.510632 -96.592583 -2745.631864
   vertex -3672.865381 -99.144486 -2747.797086
  endloop
 endfacet
 facet normal -0.316828 -0.946930 0.054250
  outer loop
   vertex -3392.710632 -96.592583 -1035.631864
   vertex -3404.919389 -92.387953 -1033.541382
   vertex -3697.719389 -92.387953 -2743.541382
  endloop
 endfacet
 facet normal -0.316828 -0.946930 0.054250
  outer loop
   vertex -3392.710632 -96.592583 -1035.631864
   vertex -3697.719389 -92.387953 -2743.541382
   vertex -3685.510632 -96.592583 -2745.631864
  endloop
 endfacet
 facet normal -0.435944 -0.896873 0.074646
  outer loop
   vertex -3404.919389 -92.387953 -1033.541382
   vertex -3416.482757 -86.602540 -1031.561409
   vertex -3709.282757 -86.602540 -2741.561409
  endloop
 endfacet
 facet normal -0.435944 -0.896873 0.074646
  outer loop
   vertex -3404.919389 -92.387953 -1033.541382
   vertex -3709.282757 -86.602540 -2741.561409
   vertex -3697.719389 -92.387953 -2743.541382
  endloop
 endfacet
 facet normal -0.547601 -0.831470 0.093765
  outer loop
   vertex -3416.482757 -86.602540 -1031.561409
   vertex -3427.202884 -79.335334 -1029.725822
   vertex -3720.002884 -79.335334 -2739.725822
  endloop
 endfacet
 facet normal -0.547601 -0.831470 0.093765
  outer loop
   vertex -3416.482757 -86.602540 -1031.561409
   vertex -3720.002884 -79.335334 -2739.725822
   vertex -3709.282757 -86.602540 -2741.561409
  endloop
 endfacet
 facet normal -0.649888 -0.751840 0.111279
  outer loop
   vertex -3427.202884 -79.335334 -1029.725822
   vertex -3436.896344 -70.710678 -1028.066030
   vertex -3729.696344 -70.710678 -2738.066030
  endloop
 endfacet
 facet normal -0.649888 -0.751840 0.111279
  outer loop
   vertex -3427.202884 -79.335334 -1029.725822
   vertex -3729.696344 -70.710678 -2738.066030
   vertex -3720.002884 -79.335334 -2739.725822
  endloop
 endfacet
 facet normal -0.741055 -0.659346 0.126889
  outer loop
   vertex -3436.896344 -70.710678 -1028.066030
   vertex -3445.397280 -60.876143 -1026.610431
   vertex -3738.197280 -60.876143 -2736.610431
  endloop
 endfacet
 facet normal -0.741055 -0.659346 0.126889
  outer loop
   vertex -3436.896344 -70.710678 -1028.066030
   vertex -3738.197280 -60.876143 -2736.610431
   vertex -3729.696344 -70.710678 -2738.066030
  endloop
 endfacet
 facet normal -0.819542 -0.555570 0.140329
  outer loop
   vertex -3445.397280 -60.876143 -1026.610431
   vertex -3452.560240 -50.000000 -1025.383931
   vertex -3745.360240 -50.000000 -2735.383931
  endloop
 endfacet
 facet normal -0.819542 -0.555570 0.140329
  outer loop
   vertex -3445.397280 -60.876143 -1026.610431
   vertex -3745.360240 -50.000000 -2735.383931
   vertex -3738.197280 -60.876143 -2736.610431
  endloop
 endfacet
 facet normal -0.884007 -0.442289 0.151367
  outer loop
   vertex -3452.560240 -50.000000 -1025.383931
   vertex -3458.262662 -38.268343 -1024.407516
   vertex -3751.062662 -38.268343 -2734.407516
  endloop
 endfacet
 facet normal -0.884007 -0.442289 0.151367
  outer loop
   vertex -3452.560240 -50.000000 -1025.383931
   vertex -3751.062662 -38.268343 -2734.407516
   vertex -3745.360240 -50.000000 -2735.383931
  endloop
 endfacet
 facet normal -0.933347 -0.321439 0.159815
  outer loop
   vertex -3458.262662 -38.268343 -1024.407516
   vertex -3462.406976 -25.881905 -1023.697893
   vertex -3755.206976 -25.881905 -2733.697893
  endloop
 endfacet
 facet normal -0.933347 -0.321439 0.159815
  outer loop
   vertex -3458.262662 -38.268343 -1024.407516
   vertex -3755.206976 -25.881905 -2733.697893
   vertex -3751.062662 -38.268343 -2734.407516
  endloop
 endfacet
 facet normal -0.966716 -0.195090 0.165529
  outer loop
   vertex -3462.406976 -25.881905 -1023.697893
   vertex -3464.922273 -13.052619 -1023.267204
   vertex -3757.722273 -13.052619 -2733.267204
  endloop
 endfacet
 facet normal -0.966716 -0.195090 0.165529
  outer loop
   vertex -3462.406976 -25.881905 -1023.697893
   vertex -3757.722273 -13.052619 -2733.267204
   vertex -3755.206976 -25.881905 -2733.697893
  endloop
 endfacet
 facet normal -0.983545 -0.065403 0.168410
  outer loop
   vertex -3464.922273 -13.052619 -1023.267204
   vertex -3465.765515 -0.000000 -1023.122817
   vertex -3758.565515 -0.000000 -2733.122817
  endloop
 endfacet
 facet normal -0.983545 -0.065403 0.168410
  outer loop
   vertex -3464.922273 -13.052619 -1023.267204
   vertex -3758.565515 -0.000000 -2733.122817
   vertex -3757.722273 -13.052619 -2733.267204
  endloop
 endfacet
 facet normal -0.983545 0.065403 0.168410
  outer loop
   vertex -3465.765515 -0.000000 -1023.122817
   vertex -3464.922273 13.052619 -1023.267204
   vertex -3757.722273 13.052619 -2733.267204
  endloop
 endfacet
 facet normal -0.983545 0.065403 0.168410
  outer loop
   vertex -3465.765515 -0.000000 -1023.122817
   vertex -3757.722273 13.052619 -2733.267204
   vertex -3758.565515 -0.000000 -2733.122817
  endloop
 endfacet
 facet normal -0.966716 0.195090 0.165529
  outer loop
   vertex -3464.922273 13.052619 -1023.267204
   vertex -3462.406976 25.881905 -1023.697893
   vertex -3755.206976 25.881905 -2733.697893
  endloop
 endfacet
 facet normal -0.966716 0.195090 0.165529
  outer loop
   vertex -3464.922273 13.052619 -1023.267204
   vertex -3755.206976 25.881905 -2733.697893
   vertex -3757.722273 13.052619 -2733.267204
  endloop
 endfacet
 facet normal -0.933347 0.321439 0.159815
  outer loop
   vertex -3462.406976 25.881905 -1023.697893
   vertex -3458.262662 38.268343 -1024.407516
   vertex -3751.062662 38.268343 -2734.407516
  endloop
 endfacet
 facet normal -0.933347 0.321439 0.159815
  outer loop
   vertex -3462.406976 25.881905 -1023.697893
   vertex -3751.062662 38.268343 -2734.407516
   vertex -3755.206976 25.881905 -2733.697893
  endloop
 endfacet
 facet normal -0.884007 0.442289 0.151367
  outer loop
   vertex -3458.262662 38.268343 -1024.407516
   vertex -3452.560240 50.000000 -1025.383931
   vertex -3745.360240 50.000000 -2735.383931
  endloop
 endfacet
 facet normal -0.884007 0.442289 0.151367
  outer loop
   vertex -3458.262662 38.268343 -1024.407516
   vertex -3745.360240 50.000000 -2735.383931
   vertex -3751.062662 38.268343 -2734.407516
  endloop
 endfacet
 facet normal -0.819542 0.555570 0.140329
  outer loop
   vertex -3452.560240 50.000000 -1025.383931
   vertex -3445.397280 60.876143 -1026.610431
   vertex -3738.197280 60.876143 -2736.610431
  endloop
 endfacet
 facet normal -0.819542 0.555570 0.140329
  outer loop
   vertex -3452.560240 50.000000 -1025.383931
   vertex -3738.197280 60.876143 -2736.610431
   vertex -3745.360240 50.000000 -2735.383931
  endloop
 endfacet
 facet normal -0.741055 0.659346 0.126889
  outer loop
   vertex -3445.397280 60.876143 -1026.610431
   vertex -3436.896344 70.710678 -1028.066030
   vertex -3729.696344 70.710678 -2738.066030
  endloop
 endfacet
 facet normal -0.741055 0.659346 0.126889
  outer loop
   vertex -3445.397280 60.876143 -1026.610431
   vertex -3729.696344 70.710678 -2738.066030
   vertex -3738.197280 60.876143 -2736.610431
  endloop
 endfacet
 facet normal -0.649888 0.751840 0.111279
  outer loop
   vertex -3436.896344 70.710678 -1028.066030
   vertex -3427.202884 79.335334 -1029.725822
   vertex -3720.002884 79.335334 -2739.725822
  endloop
 endfacet
 facet normal -0.649888 0.751840 0.111279
  outer loop
   vertex -3436.896344 70.710678 -1028.066030
   vertex -3720.002884 79.335334 -2739.725822
   vertex -3729.696344 70.710678 -2738.066030
  endloop
 endfacet
 facet normal -0.547601 0.831470 0.093765
  outer loop
   vertex -3427.202884 79.335334 -1029.725822
   vertex -3416.482757 86.602540 -1031.561409
   vertex -3709.282757 86.602540 -2741.561409
  endloop
 endfacet
 facet normal -0.547601 0.831470 0.093765
  outer loop
   vertex -3427.202884 79.335334 -1029.725822
   vertex -3709.282757 86.602540 -2741.561409
   vertex -3720.002884 79.335334 -2739.725822
  endloop
 endfacet
 facet normal -0.435944 0.896873 0.074646
  outer loop
   vertex -3416.482757 86.602540 -1031.561409
   vertex -3404.919389 92.387953 -1033.541382
   vertex -3697.719389 92.387953 -2743.541382
  endloop
 endfacet
 facet normal -0.435944 0.896873 0.074646
  outer loop
   vertex -3416.482757 86.602540 -1031.561409
   vertex -3697.719389 92.387953 -2743.541382
   vertex -3709.282757 86.602540 -2741.561409
  endloop
 endfacet
 facet normal -0.316828 0.946930 0.054250
  outer loop
   vertex -3404.919389 92.387953 -1033.541382
   vertex -3392.710632 96.592583 -1035.631864
   vertex -3685.510632 96.592583 -2745.631864
  endloop
 endfacet
 facet normal -0.316828 0.946930 0.054250
  outer loop
   vertex -3404.919389 92.387953 -1033.541382
   vertex -3685.510632 96.592583 -2745.631864
   vertex -3697.719389 92.387953 -2743.541382
  endloop
 endfacet
 facet normal -0.192292 0.980785 0.032926
  outer loop
   vertex -3392.710632 96.592583 -1035.631864
   vertex -3380.065381 99.144486 -1037.797086
   vertex -3672.865381 99.144486 -2747.797086
  endloop
 endfacet
 facet normal -0.192292 0.980785 0.032926
  outer loop
   vertex -3392.710632 96.592583 -1035.631864
   vertex -3672.865381 99.144486 -2747.797086
   vertex -3685.510632 96.592583 -2745.631864
  endloop
 endfacet
 facet normal -0.064465 0.997859 0.011038
  outer loop
   vertex -3380.065381 99.144486 -1037.797086
   vertex -3367.200000 100.000000 -1040.000000
   vertex -3660.000000 100.000000 -2750.000000
  endloop
 endfacet
 facet normal -0.064465 0.997859 0.011038
  outer loop
   vertex -3380.065381 99.144486 -1037.797086
   vertex -3660.000000 100.000000 -2750.000000
   vertex -3672.865381 99.144486 -2747.797086
  endloop
 endfacet
 facet normal -0.064465 -0.997859 0.011038
  outer loop
   vertex -3648.678464 87.247148 -2751.938565
   vertex -3355.878464 87.247148 -1041.938565
   vertex -3367.200000 88.000000 -1040.000000
  endloop
 endfacet
 facet normal -0.064465 -0.997859 0.011038
  outer loop
   vertex -3660.000000 88.000000 -2750.000000
   vertex -3648.678464 87.247148 -2751.938565
   vertex -3367.200000 88.000000 -1040.000000
  endloop
 endfacet
 facet normal -0.192292 -0.980785 0.032926
  outer loop
   vertex -3637.550643 85.001473 -2753.843960
   vertex -3344.750643 85.001473 -1043.843960
   vertex -3355.878464 87.247148 -1041.938565
  endloop
 endfacet
 facet normal -0.192292 -0.980785 0.032926
  outer loop
   vertex -3648.678464 87.247148 -2751.938565
   vertex -3637.550643 85.001473 -2753.843960
   vertex -3355.878464 87.247148 -1041.938565
  endloop
 endfacet
 facet normal -0.316828 -0.946930 0.054250
  outer loop
   vertex -3626.806937 81.301399 -2755.683584
   vertex -3334.006937 81.301399 -1045.683584
   vertex -3344.750643 85.001473 -1043.843960
  endloop
 endfacet
 facet normal -0.316828 -0.946930 0.054250
  outer loop
   vertex -3637.550643 85.001473 -2753.843960
   vertex -3626.806937 81.301399 -2755.683584
   vertex -3344.750643 85.001473 -1043.843960
  endloop
 endfacet
 facet normal -0.435944 -0.896873 0.074646
  outer loop
   vertex -3616.631174 76.210236 -2757.425960
   vertex -3323.831174 76.210236 -1047.425960
   vertex -3334.006937 81.301399 -1045.683584
  endloop
 endfacet
 facet normal -0.435944 -0.896873 0.074646
  outer loop
   vertex -3626.806937 81.301399 -2755.683584
   vertex -3616.631174 76.210236 -2757.425960
   vertex -3334.006937 81.301399 -1045.683584
  endloop
 endfacet
 facet normal -0.547601 -0.831470 0.093765
  outer loop
   vertex -3607.197462 69.815094 -2759.041277
   vertex -3314.397462 69.815094 -1049.041277
   vertex -3323.831174 76.210236 -1047.425960
  endloop
 endfacet
 facet normal -0.547601 -0.831470 0.093765
  outer loop
   vertex -3616.631174 76.210236 -2757.425960
   vertex -3607.197462 69.815094 -2759.041277
   vertex -3323.831174 76.210236 -1047.425960
  endloop
 endfacet
 facet normal -0.649888 -0.751840 0.111279
  outer loop
   vertex -3598.667217 62.225397 -2760.501894
   vertex -3305.867217 62.225397 -1050.501894
   vertex -3314.397462 69.815094 -1049.041277
  endloop
 endfacet
 facet normal -0.649888 -0.751840 0.111279
  outer loop
   vertex -3607.197462 69.815094 -2759.041277
   vertex -3598.667217 62.225397 -2760.501894
   vertex -3314.397462 69.815094 -1049.041277
  endloop
 endfacet
 facet normal -0.741055 -0.659346 0.126889
  outer loop
   vertex -3591.186393 53.571006 -2761.782821
   vertex -3298.386393 53.571006 -1051.782821
   vertex -3305.867217 62.225397 -1050.501894
  endloop
 endfacet
 facet normal -0.741055 -0.659346 0.126889
  outer loop
   vertex -3598.667217 62.225397 -2760.501894
   vertex -3591.186393 53.571006 -2761.782821
   vertex -3305.867217 62.225397 -1050.501894
  endloop
 endfacet
 facet normal -0.819542 -0.555570 0.140329
  outer loop
   vertex -3584.882989 44.000000 -2762.862141
   vertex -3292.082989 44.000000 -1052.862141
   vertex -3298.386393 53.571006 -1051.782821
  endloop
 endfacet
 facet normal -0.819542 -0.555570 0.140329
  outer loop
   vertex -3591.186393 53.571006 -2761.782821
   vertex -3584.882989 44.000000 -2762.862141
   vertex -3298.386393 53.571006 -1051.782821
  endloop
 endfacet
 facet normal -0.884007 -0.442289 0.151367
  outer loop
   vertex -3579.864858 33.676142 -2763.721386
   vertex -3287.064858 33.676142 -1053.721386
   vertex -3292.082989 44.000000 -1052.862141
  endloop
 endfacet
 facet normal -0.884007 -0.442289 0.151367
  outer loop
   vertex -3584.882989 44.000000 -2762.862141
   vertex -3579.864858 33.676142 -2763.721386
   vertex -3292.082989 44.000000 -1052.862141
  endloop
 endfacet
 facet normal -0.933347 -0.321439 0.159815
  outer loop
   vertex -3576.217861 22.776076 -2764.345854
   vertex -3283.417861 22.776076 -1054.345854
   vertex -3287.064858 33.676142 -1053.721386
  endloop
 endfacet
 facet normal -0.933347 -0.321439 0.159815
  outer loop
   vertex -3579.864858 33.676142 -2763.721386
   vertex -3576.217861 22.776076 -2764.345854
   vertex -3287.064858 33.676142 -1053.721386
  endloop
 endfacet
 facet normal -0.966716 -0.195090 0.165529
  outer loop
   vertex -3574.004400 11.486305 -2764.724861
   vertex -3281.204400 11.486305 -1054.724861
   vertex -3283.417861 22.776076 -1054.345854
  endloop
 endfacet
 facet normal -0.966716 -0.195090 0.165529
  outer loop
   vertex -3576.217861 22.776076 -2764.345854
   vertex -3574.004400 11.486305 -2764.724861
   vertex -3283.417861 22.776076 -1054.345854
  endloop
 endfacet
 facet normal -0.983545 -0.065403 0.168410
  outer loop
   vertex -3573.262347 0.000000 -2764.851921
   vertex -3280.462347 0.000000 -1054.851921
   vertex -3281.204400 11.486305 -1054.724861
  endloop
 endfacet
 facet normal -0.983545 -0.065403 0.168410
  outer loop
   vertex -3574.004400 11.486305 -2764.724861
   vertex -3573.262347 0.000000 -2764.851921
   vertex -3281.204400 11.486305 -1054.724861
  endloop
 endfacet
 facet normal -0.983545 0.065403 0.168410
  outer loop
   vertex -3574.004400 -11.486305 -2764.724861
   vertex -3281.204400 -11.486305 -1054.724861
   vertex -3280.462347 0.000000 -1054.851921
  endloop
 endfacet
 facet normal -0.983545 0.065403 0.168410
  outer loop
   vertex -3573.262347 0.000000 -2764.851921
   vertex -3574.004400 -11.486305 -2764.724861
   vertex -3280.462347 0.000000 -1054.851921
  endloop
 endfacet
 facet normal -0.966716 0.195090 0.165529
  outer loop
   vertex -3576.217861 -22.776076 -2764.345854
   vertex -3283.417861 -22.776076 -1054.345854
   vertex -3281.204400 -11.486305 -1054.724861
  endloop
 endfacet
 facet normal -0.966716 0.195090 0.165529
  outer loop
   vertex -3574.004400 -11.486305 -2764.724861
   vertex -3576.217861 -22.776076 -2764.345854
   vertex -3281.204400 -11.486305 -1054.724861
  endloop
 endfacet
 facet normal -0.933347 0.321439 0.159815
  outer loop
   vertex -3579.864858 -33.676142 -2763.721386
   vertex -3287.064858 -33.676142 -1053.721386
   vertex -3283.417861 -22.776076 -1054.345854
  endloop
 endfacet
 facet normal -0.933347 0.321439 0.159815
  outer loop
   vertex -3576.217861 -22.776076 -2764.345854
   vertex -3579.864858 -33.676142 -2763.721386
   vertex -3283.417861 -22.776076 -1054.345854
  endloop
 endfacet
 facet normal -0.884007 0.442289 0.151367
  outer loop
   vertex -3584.882989 -44.000000 -2762.862141
   vertex -3292.082989 -44.000000 -1052.862141
   vertex -3287.064858 -33.676142 -1053.721386
  endloop
 endfacet
 facet normal -0.884007 0.442289 0.151367
  outer loop
   vertex -3579.864858 -33.676142 -2763.721386
   vertex -3584.882989 -44.000000 -2762.862141
   vertex -3287.064858 -33.676142 -1053.721386
  endloop
 endfacet
 facet normal -0.819542 0.555570 0.140329
  outer loop
   vertex -3591.186393 -53.571006 -2761.782821
   vertex -3298.386393 -53.571006 -1051.782821
   vertex -3292.082989 -44.000000 -1052.862141
  endloop
 endfacet
 facet normal -0.819542 0.555570 0.140329
  outer loop
   vertex -3584.882989 -44.000000 -2762.862141
   vertex -3591.186393 -53.571006 -2761.782821
   vertex -3292.082989 -44.000000 -1052.862141
  endloop
 endfacet
 facet normal -0.741055 0.659346 0.126889
  outer loop
   vertex -3598.667217 -62.225397 -2760.501894
   vertex -3305.867217 -62.225397 -1050.501894
   vertex -3298.386393 -53.571006 -1051.782821
  endloop
 endfacet
 facet normal -0.741055 0.659346 0.126889
  outer loop
   vertex -3591.186393 -53.571006 -2761.782821
   vertex -3598.667217 -62.225397 -2760.501894
   vertex -3298.386393 -53.571006 -1051.782821
  endloop
 endfacet
 facet normal -0.649888 0.751840 0.111279
  outer loop
   vertex -3607.197462 -69.815094 -2759.041277
   vertex -3314.397462 -69.815094 -1049.041277
   vertex -3305.867217 -62.225397 -1050.501894
  endloop
 endfacet
 facet normal -0.649888 0.751840 0.111279
  outer loop
   vertex -3598.667217 -62.225397 -2760.501894
   vertex -3607.197462 -69.815094 -2759.041277
   vertex -3305.867217 -62.225397 -1050.501894
  endloop
 endfacet
 facet normal -0.547601 0.831470 0.093765
  outer loop
   vertex -3616.631174 -76.210236 -2757.425960
   vertex -3323.831174 -76.210236 -1047.425960
   vertex -3314.397462 -69.815094 -1049.041277
  endloop
 endfacet
 facet normal -0.547601 0.831470 0.093765
  outer loop
   vertex -3607.197462 -69.815094 -2759.041277
   vertex -3616.631174 -76.210236 -2757.425960
   vertex -3314.397462 -69.815094 -1049.041277
  endloop
 endfacet
 facet normal -0.435944 0.896873 0.074646
  outer loop
   vertex -3626.806937 -81.301399 -2755.683584
   vertex -3334.006937 -81.301399 -1045.683584
   vertex -3323.831174 -76.210236 -1047.425960
  endloop
 endfacet
 facet normal -0.435944 0.896873 0.074646
  outer loop
   vertex -3616.631174 -76.210236 -2757.425960
   vertex -3626.806937 -81.301399 -2755.683584
   vertex -3323.831174 -76.210236 -1047.425960
  endloop
 endfacet
 facet normal -0.316828 0.946930 0.054250
  outer loop
   vertex -3637.550643 -85.001473 -2753.843960
   vertex -3344.750643 -85.001473 -1043.843960
   vertex -3334.006937 -81.301399 -1045.683584
  endloop
 endfacet
 facet normal -0.316828 0.946930 0.054250
  outer loop
   vertex -3626.806937 -81.301399 -2755.683584
   vertex -3637.550643 -85.001473 -2753.843960
   vertex -3334.006937 -81.301399 -1045.683584
  endloop
 endfacet
 facet normal -0.192292 0.980785 0.032926
  outer loop
   vertex -3648.678464 -87.247148 -2751.938565
   vertex -3355.878464 -87.247148 -1041.938565
   vertex -3344.750643 -85.001473 -1043.843960
  endloop
 endfacet
 facet normal -0.192292 0.980785 0.032926
  outer loop
   vertex -3637.550643 -85.001473 -2753.843960
   vertex -3648.678464 -87.247148 -2751.938565
   vertex -3344.750643 -85.001473 -1043.843960
  endloop
 endfacet
 facet normal -0.064465 0.997859 0.011038
  outer loop
   vertex -3660.000000 -88.000000 -2750.000000
   vertex -3367.200000 -88.000000 -1040.000000
   vertex -3355.878464 -87.247148 -1041.938565
  endloop
 endfacet
 facet normal -0.064465 0.997859 0.011038
  outer loop
   vertex -3648.678464 -87.247148 -2751.938565
   vertex -3660.000000 -88.000000 -2750.000000
   vertex -3355.878464 -87.247148 -1041.938565
  endloop
 endfacet
 facet normal 0.064465 0.997859 -0.011038
  outer loop
   vertex -3671.321536 -87.247148 -2748.061435
   vertex -3378.521536 -87.247148 -1038.061435
   vertex -3367.200000 -88.000000 -1040.000000
  endloop
 endfacet
 facet normal 0.064465 0.997859 -0.011038
  outer loop
   vertex -3660.000000 -88.000000 -2750.000000
   vertex -3671.321536 -87.247148 -2748.061435
   vertex -3367.200000 -88.000000 -1040.000000
  endloop
 endfacet
 facet normal 0.192292 0.980785 -0.032926
  outer loop
   vertex -3682.449357 -85.001473 -2746.156040
   vertex -3389.649357 -85.001473 -1036.156040
   vertex -3378.521536 -87.247148 -1038.061435
  endloop
 endfacet
 facet normal 0.192292 0.980785 -0.032926
  outer loop
   vertex -3671.321536 -87.247148 -2748.061435
   vertex -3682.449357 -85.001473 -2746.156040
   vertex -3378.521536 -87.247148 -1038.061435
  endloop
 endfacet
 facet normal 0.316828 0.946930 -0.054250
  outer loop
   vertex -3693.193063 -81.301399 -2744.316416
   vertex -3400.393063 -81.301399 -1034.316416
   vertex -3389.649357 -85.001473 -1036.156040
  endloop
 endfacet
 facet normal 0.316828 0.946930 -0.054250
  outer loop
   vertex -3682.449357 -85.001473 -2746.156040
   vertex -3693.193063 -81.301399 -2744.316416
   vertex -3389.649357 -85.001473 -1036.156040
  endloop
 endfacet
 facet normal 0.435944 0.896873 -0.074646
  outer loop
   vertex -3703.368826 -76.210236 -2742.574040
   vertex -3410.568826 -76.210236 -1032.574040
   vertex -3400.393063 -81.301399 -1034.316416
  endloop
 endfacet
 facet normal 0.435944 0.896873 -0.074646
  outer loop
   vertex -3693.193063 -81.301399 -2744.316416
   vertex -3703.368826 -76.210236 -2742.574040
   vertex -3400.393063 -81.301399 -1034.316416
  endloop
 endfacet
 facet normal 0.547601 0.831470 -0.093765
  outer loop
   vertex -3712.802538 -69.815094 -2740.958723
   vertex -3420.002538 -69.815094 -1030.958723
   vertex -3410.568826 -76.210236 -1032.574040
  endloop
 endfacet
 facet normal 0.547601 0.831470 -0.093765
  outer loop
   vertex -3703.368826 -76.210236 -2742.574040
   vertex -3712.802538 -69.815094 -2740.958723
   vertex -3410.568826 -76.210236 -1032.574040
  endloop
 endfacet
 facet normal 0.649888 0.751840 -0.111279
  outer loop
   vertex -3721.332783 -62.225397 -2739.498106
   vertex -3428.532783 -62.225397 -1029.498106
   vertex -3420.002538 -69.815094 -1030.958723
  endloop
 endfacet
 facet normal 0.649888 0.751840 -0.111279
  outer loop
   vertex -3712.802538 -69.815094 -2740.958723
   vertex -3721.332783 -62.225397 -2739.498106
   vertex -3420.002538 -69.815094 -1030.958723
  endloop
 endfacet
 facet normal 0.741055 0.659346 -0.126889
  outer loop
   vertex -3728.813607 -53.571006 -2738.217179
   vertex -3436.013607 -53.571006 -1028.217179
   vertex -3428.532783 -62.225397 -1029.498106
  endloop
 endfacet
 facet normal 0.741055 0.659346 -0.126889
  outer loop
   vertex -3721.332783 -62.225397 -2739.498106
   vertex -3728.813607 -53.571006 -2738.217179
   vertex -3428.532783 -62.225397 -1029.498106
  endloop
 endfacet
 facet normal 0.819542 0.555570 -0.140329
  outer loop
   vertex -3735.117011 -44.000000 -2737.137859
   vertex -3442.317011 -44.000000 -1027.137859
   vertex -3436.013607 -53.571006 -1028.217179
  endloop
 endfacet
 facet normal 0.819542 0.555570 -0.140329
  outer loop
   vertex -3728.813607 -53.571006 -2738.217179
   vertex -3735.117011 -44.000000 -2737.137859
   vertex -3436.013607 -53.571006 -1028.217179
  endloop
 endfacet
 facet normal 0.884007 0.442289 -0.151367
  outer loop
   vertex -3740.135142 -33.676142 -2736.278614
   vertex -3447.335142 -33.676142 -1026.278614
   vertex -3442.317011 -44.000000 -1027.137859
  endloop
 endfacet
 facet normal 0.884007 0.442289 -0.151367
  outer loop
   vertex -3735.117011 -44.000000 -2737.137859
   vertex -3740.135142 -33.676142 -2736.278614
   vertex -3442.317011 -44.000000 -1027.137859
  endloop
 endfacet
 facet normal 0.933347 0.321439 -0.159815
  outer loop
   vertex -3743.782139 -22.776076 -2735.654146
   vertex -3450.982139 -22.776076 -1025.654146
   vertex -3447.335142 -33.676142 -1026.278614
  endloop
 endfacet
 facet normal 0.933347 0.321439 -0.159815
  outer loop
   vertex -3740.135142 -33.676142 -2736.278614
   vertex -3743.782139 -22.776076 -2735.654146
   vertex -3447.335142 -33.676142 -1026.278614
  endloop
 endfacet
 facet normal 0.966716 0.195090 -0.165529
  outer loop
   vertex -3745.995600 -11.486305 -2735.275139
   vertex -3453.195600 -11.486305 -1025.275139
   vertex -3450.982139 -22.776076 -1025.654146
  endloop
 endfacet
 facet normal 0.966716 0.195090 -0.165529
  outer loop
   vertex -3743.782139 -22.776076 -2735.654146
   vertex -3745.995600 -11.486305 -2735.275139
   vertex -3450.982139 -22.776076 -1025.654146
  endloop
 endfacet
 facet normal 0.983545 0.065403 -0.168410
  outer loop
   vertex -3746.737653 -0.000000 -2735.148079
   vertex -3453.937653 -0.000000 -1025.148079
   vertex -3453.195600 -11.486305 -1025.275139
  endloop
 endfacet
 facet normal 0.983545 0.065403 -0.168410
  outer loop
   vertex -3745.995600 -11.486305 -2735.275139
   vertex -3746.737653 -0.000000 -2735.148079
   vertex -3453.195600 -11.486305 -1025.275139
  endloop
 endfacet
 facet normal 0.983545 -0.065403 -0.168410
  outer loop
   vertex -3745.995600 11.486305 -2735.275139
   vertex -3453.195600 11.486305 -1025.275139
   vertex -3453.937653 -0.000000 -1025.148079
  endloop
 endfacet
 facet normal 0.983545 -0.065403 -0.168410
  outer loop
   vertex -3746.737653 -0.000000 -2735.148079
   vertex -3745.995600 11.486305 -2735.275139
   vertex -3453.937653 -0.000000 -1025.148079
  endloop
 endfacet
 facet normal 0.966716 -0.195090 -0.165529
  outer loop
   vertex -3743.782139 22.776076 -2735.654146
   vertex -3450.982139 22.776076 -1025.654146
   vertex -3453.195600 11.486305 -1025.275139
  endloop
 endfacet
 facet normal 0.966716 -0.195090 -0.165529
  outer loop
   vertex -3745.995600 11.486305 -2735.275139
   vertex -3743.782139 22.776076 -2735.654146
   vertex -3453.195600 11.486305 -1025.275139
  endloop
 endfacet
 facet normal 0.933347 -0.321439 -0.159815
  outer loop
   vertex -3740.135142 33.676142 -2736.278614
   vertex -3447.335142 33.676142 -1026.278614
   vertex -3450.982139 22.776076 -1025.654146
  endloop
 endfacet
 facet normal 0.933347 -0.321439 -0.159815
  outer loop
   vertex -3743.782139 22.776076 -2735.654146
   vertex -3740.135142 33.676142 -2736.278614
   vertex -3450.982139 22.776076 -1025.654146
  endloop
 endfacet
 facet normal 0.884007 -0.442289 -0.151367
  outer loop
   vertex -3735.117011 44.000000 -2737.137859
   vertex -3442.317011 44.000000 -1027.137859
   vertex -3447.335142 33.676142 -1026.278614
  endloop
 endfacet
 facet normal 0.884007 -0.442289 -0.151367
  outer loop
   vertex -3740.135142 33.676142 -2736.278614
   vertex -3735.117011 44.000000 -2737.137859
   vertex -3447.335142 33.676142 -1026.278614
  endloop
 endfacet
 facet normal 0.819542 -0.555570 -0.140329
  outer loop
   vertex -3728.813607 53.571006 -2738.217179
   vertex -3436.013607 53.571006 -1028.217179
   vertex -3442.317011 44.000000 -1027.137859
  endloop
 endfacet
 facet normal 0.819542 -0.555570 -0.140329
  outer loop
   vertex -3735.117011 44.000000 -2737.137859
   vertex -3728.813607 53.571006 -2738.217179
   vertex -3442.317011 44.000000 -1027.137859
  endloop
 endfacet
 facet normal 0.741055 -0.659346 -0.126889
  outer loop
   vertex -3721.332783 62.225397 -2739.498106
   vertex -3428.532783 62.225397 -1029.498106
   vertex -3436.013607 53.571006 -1028.217179
  endloop
 endfacet
 facet normal 0.741055 -0.659346 -0.126889
  outer loop
   vertex -3728.813607 53.571006 -2738.217179
   vertex -3721.332783 62.225397 -2739.498106
   vertex -3436.013607 53.571006 -1028.217179
  endloop
 endfacet
 facet normal 0.649888 -0.751840 -0.111279
  outer loop
   vertex -3712.802538 69.815094 -2740.958723
   vertex -3420.002538 69.815094 -1030.958723
   vertex -3428.532783 62.225397 -1029.498106
  endloop
 endfacet
 facet normal 0.649888 -0.751840 -0.111279
  outer loop
   vertex -3721.332783 62.225397 -2739.498106
   vertex -3712.802538 69.815094 -2740.958723
   vertex -3428.532783 62.225397 -1029.498106
  endloop
 endfacet
 facet normal 0.547601 -0.831470 -0.093765
  outer loop
   vertex -3703.368826 76.210236 -2742.574040
   vertex -3410.568826 76.210236 -1032.574040
   vertex -3420.002538 69.815094 -1030.958723
  endloop
 endfacet
 facet normal 0.547601 -0.831470 -0.093765
  outer loop
   vertex -3712.802538 69.815094 -2740.958723
   vertex -3703.368826 76.210236 -2742.574040
   vertex -3420.002538 69.815094 -1030.958723
  endloop
 endfacet
 facet normal 0.435944 -0.896873 -0.074646
  outer loop
   vertex -3693.193063 81.301399 -2744.316416
   vertex -3400.393063 81.301399 -1034.316416
   vertex -3410.568826 76.210236 -1032.574040
  endloop
 endfacet
 facet normal 0.435944 -0.896873 -0.074646
  outer loop
   vertex -3703.368826 76.210236 -2742.574040
   vertex -3693.193063 81.301399 -2744.316416
   vertex -3410.568826 76.210236 -1032.574040
  endloop
 endfacet
 facet normal 0.316828 -0.946930 -0.054250
  outer loop
   vertex -3682.449357 85.001473 -2746.156040
   vertex -3389.649357 85.001473 -1036.156040
   vertex -3400.393063 81.301399 -1034.316416
  endloop
 endfacet
 facet normal 0.316828 -0.946930 -0.054250
  outer loop
   vertex -3693.193063 81.301399 -2744.316416
   vertex -3682.449357 85.001473 -2746.156040
   vertex -3400.393063 81.301399 -1034.316416
  endloop
 endfacet
 facet normal 0.192292 -0.980785 -0.032926
  outer loop
   vertex -3671.321536 87.247148 -2748.061435
   vertex -3378.521536 87.247148 -1038.061435
   vertex -3389.649357 85.001473 -1036.156040
  endloop
 endfacet
 facet normal 0.192292 -0.980785 -0.032926
  outer loop
   vertex -3682.449357 85.001473 -2746.156040
   vertex -3671.321536 87.247148 -2748.061435
   vertex -3389.649357 85.001473 -1036.156040
  endloop
 endfacet
 facet normal 0.064465 -0.997859 -0.011038
  outer loop
   vertex -3660.000000 88.000000 -2750.000000
   vertex -3367.200000 88.000000 -1040.000000
   vertex -3378.521536 87.247148 -1038.061435
  endloop
 endfacet
 facet normal 0.064465 -0.997859 -0.011038
  outer loop
   vertex -3671.321536 87.247148 -2748.061435
   vertex -3660.000000 88.000000 -2750.000000
   vertex -3378.521536 87.247148 -1038.061435
  endloop
 endfacet
endsolid SIC_RP1_feed_0_drop
