solid SIC_LOX_feed_4_drop
 facet normal 0.065187 0.987137 0.145982
  outer loop
   vertex 1683.611740 3015.016074 -955.897063
   vertex 1696.621302 3014.019717 -954.968990
   vertex 1843.022323 3267.586285 -2734.968990
  endloop
 endfacet
 facet normal 0.065187 0.987137 0.145982
  outer loop
   vertex 1683.611740 3015.016074 -955.897063
   vertex 1843.022323 3267.586285 -2734.968990
   vertex 1830.012760 3268.582642 -2735.897063
  endloop
 endfacet
 facet normal 0.194447 0.968750 0.153994
  outer loop
   vertex 1696.621302 3014.019717 -954.968990
   vertex 1709.408268 3011.346480 -954.298102
   vertex 1855.809289 3264.913048 -2734.298102
  endloop
 endfacet
 facet normal 0.194447 0.968750 0.153994
  outer loop
   vertex 1696.621302 3014.019717 -954.968990
   vertex 1855.809289 3264.913048 -2734.298102
   vertex 1843.022323 3267.586285 -2734.968990
  endloop
 endfacet
 facet normal 0.320379 0.933787 0.159371
  outer loop
   vertex 1709.408268 3011.346480 -954.298102
   vertex 1721.753848 3007.042105 -953.895877
   vertex 1868.154869 3260.608673 -2733.895877
  endloop
 endfacet
 facet normal 0.320379 0.933787 0.159371
  outer loop
   vertex 1709.408268 3011.346480 -954.298102
   vertex 1868.154869 3260.608673 -2733.895877
   vertex 1855.809289 3264.913048 -2734.298102
  endloop
 endfacet
 facet normal 0.440830 0.882847 0.162022
  outer loop
   vertex 1721.753848 3007.042105 -953.895877
   vertex 1733.446806 3001.180240 -953.769198
   vertex 1879.847826 3254.746808 -2733.769198
  endloop
 endfacet
 facet normal 0.440830 0.882847 0.162022
  outer loop
   vertex 1721.753848 3007.042105 -953.895877
   vertex 1879.847826 3254.746808 -2733.769198
   vertex 1868.154869 3260.608673 -2733.895877
  endloop
 endfacet
 facet normal 0.553738 0.816801 0.161899
  outer loop
   vertex 1733.446806 3001.180240 -953.769198
   vertex 1744.287072 2993.861183 -953.920233
   vertex 1890.688092 3247.427751 -2733.920233
  endloop
 endfacet
 facet normal 0.553738 0.816801 0.161899
  outer loop
   vertex 1733.446806 3001.180240 -953.769198
   vertex 1890.688092 3247.427751 -2733.920233
   vertex 1879.847826 3254.746808 -2733.769198
  endloop
 endfacet
 facet normal 0.657171 0.736779 0.159007
  outer loop
   vertex 1744.287072 2993.861183 -953.920233
   vertex 1754.089166 2985.210165 -954.346397
   vertex 1900.490187 3238.776733 -2734.346397
  endloop
 endfacet
 facet normal 0.657171 0.736779 0.159007
  outer loop
   vertex 1744.287072 2993.861183 -953.920233
   vertex 1900.490187 3238.776733 -2734.346397
   vertex 1890.688092 3247.427751 -2733.920233
  endloop
 endfacet
 facet normal 0.749360 0.644151 0.153394
  outer loop
   vertex 1754.089166 2985.210165 -954.346397
   vertex 1762.685372 2975.375208 -955.040399
   vertex 1909.086392 3228.941776 -2735.040399
  endloop
 endfacet
 facet normal 0.749360 0.644151 0.153394
  outer loop
   vertex 1754.089166 2985.210165 -954.346397
   vertex 1909.086392 3228.941776 -2735.040399
   vertex 1900.490187 3238.776733 -2734.346397
  endloop
 endfacet
 facet normal 0.828727 0.540501 0.145157
  outer loop
   vertex 1762.685372 2975.375208 -955.040399
   vertex 1769.928606 2964.524591 -955.990364
   vertex 1916.329627 3218.091159 -2735.990364
  endloop
 endfacet
 facet normal 0.828727 0.540501 0.145157
  outer loop
   vertex 1762.685372 2975.375208 -955.040399
   vertex 1916.329627 3218.091159 -2735.990364
   vertex 1909.086392 3228.941776 -2735.040399
  endloop
 endfacet
 facet normal 0.893914 0.427603 0.134436
  outer loop
   vertex 1769.928606 2964.524591 -955.990364
   vertex 1775.694934 2952.843970 -957.180037
   vertex 1922.095955 3206.410538 -2737.180037
  endloop
 endfacet
 facet normal 0.893914 0.427603 0.134436
  outer loop
   vertex 1769.928606 2964.524591 -955.990364
   vertex 1922.095955 3206.410538 -2737.180037
   vertex 1916.329627 3218.091159 -2735.990364
  endloop
 endfacet
 facet normal 0.943807 0.307389 0.121414
  outer loop
   vertex 1775.694934 2952.843970 -957.180037
   vertex 1779.885694 2940.533204 -958.589063
   vertex 1926.286715 3194.099772 -2738.589063
  endloop
 endfacet
 facet normal 0.943807 0.307389 0.121414
  outer loop
   vertex 1775.694934 2952.843970 -957.180037
   vertex 1926.286715 3194.099772 -2738.589063
   vertex 1922.095955 3206.410538 -2737.180037
  endloop
 endfacet
 facet normal 0.977550 0.181915 0.106316
  outer loop
   vertex 1779.885694 2940.533204 -958.589063
   vertex 1782.429180 2927.802935 -960.193334
   vertex 1928.830201 3181.369503 -2740.193334
  endloop
 endfacet
 facet normal 0.977550 0.181915 0.106316
  outer loop
   vertex 1779.885694 2940.533204 -958.589063
   vertex 1928.830201 3181.369503 -2740.193334
   vertex 1926.286715 3194.099772 -2738.589063
  endloop
 endfacet
 facet normal 0.994567 0.053328 0.089398
  outer loop
   vertex 1782.429180 2927.802935 -960.193334
   vertex 1783.281871 2914.870979 -961.965400
   vertex 1929.682892 3168.437547 -2741.965400
  endloop
 endfacet
 facet normal 0.994567 0.053328 0.089398
  outer loop
   vertex 1782.429180 2927.802935 -960.193334
   vertex 1929.682892 3168.437547 -2741.965400
   vertex 1928.830201 3181.369503 -2740.193334
  endloop
 endfacet
 facet normal 0.994567 -0.076170 0.070950
  outer loop
   vertex 1783.281871 2914.870979 -961.965400
   vertex 1782.429180 2901.958607 -963.874940
   vertex 1928.830201 3155.525175 -2743.874940
  endloop
 endfacet
 facet normal 0.994567 -0.076170 0.070950
  outer loop
   vertex 1783.281871 2914.870979 -961.965400
   vertex 1928.830201 3155.525175 -2743.874940
   vertex 1929.682892 3168.437547 -2741.965400
  endloop
 endfacet
 facet normal 0.977550 -0.204366 0.051289
  outer loop
   vertex 1782.429180 2901.958607 -963.874940
   vertex 1779.885694 2889.286753 -965.889281
   vertex 1926.286715 3142.853321 -2745.889281
  endloop
 endfacet
 facet normal 0.977550 -0.204366 0.051289
  outer loop
   vertex 1782.429180 2901.958607 -963.874940
   vertex 1926.286715 3142.853321 -2745.889281
   vertex 1928.830201 3155.525175 -2743.874940
  endloop
 endfacet
 facet normal 0.943807 -0.329065 0.030750
  outer loop
   vertex 1779.885694 2889.286753 -965.889281
   vertex 1775.694934 2877.072236 -967.973958
   vertex 1922.095955 3130.638804 -2747.973958
  endloop
 endfacet
 facet normal 0.943807 -0.329065 0.030750
  outer loop
   vertex 1779.885694 2889.286753 -965.889281
   vertex 1922.095955 3130.638804 -2747.973958
   vertex 1926.286715 3142.853321 -2745.889281
  endloop
 endfacet
 facet normal 0.893914 -0.448133 0.009684
  outer loop
   vertex 1775.694934 2877.072236 -967.973958
   vertex 1769.928606 2865.524050 -970.093300
   vertex 1916.329627 3119.090618 -2750.093300
  endloop
 endfacet
 facet normal 0.893914 -0.448133 0.009684
  outer loop
   vertex 1775.694934 2877.072236 -967.973958
   vertex 1916.329627 3119.090618 -2750.093300
   vertex 1922.095955 3130.638804 -2747.973958
  endloop
 endfacet
 facet normal 0.828727 -0.559534 -0.011546
  outer loop
   vertex 1769.928606 2865.524050 -970.093300
   vertex 1762.685372 2854.839786 -972.211047
   vertex 1909.086392 3108.406354 -2752.211047
  endloop
 endfacet
 facet normal 0.828727 -0.559534 -0.011546
  outer loop
   vertex 1769.928606 2865.524050 -970.093300
   vertex 1909.086392 3108.406354 -2752.211047
   vertex 1916.329627 3119.090618 -2750.093300
  endloop
 endfacet
 facet normal 0.749360 -0.661361 -0.032580
  outer loop
   vertex 1762.685372 2854.839786 -972.211047
   vertex 1754.089166 2845.202257 -974.290962
   vertex 1900.490187 3098.768825 -2754.290962
  endloop
 endfacet
 facet normal 0.749360 -0.661361 -0.032580
  outer loop
   vertex 1762.685372 2854.839786 -972.211047
   vertex 1900.490187 3098.768825 -2754.290962
   vertex 1909.086392 3108.406354 -2752.211047
  endloop
 endfacet
 facet normal 0.657171 -0.751872 -0.053056
  outer loop
   vertex 1754.089166 2845.202257 -974.290962
   vertex 1744.287072 2836.776363 -976.297457
   vertex 1890.688092 3090.342931 -2756.297457
  endloop
 endfacet
 facet normal 0.657171 -0.751872 -0.053056
  outer loop
   vertex 1754.089166 2845.202257 -974.290962
   vertex 1890.688092 3090.342931 -2756.297457
   vertex 1900.490187 3098.768825 -2754.290962
  endloop
 endfacet
 facet normal 0.553738 -0.829518 -0.072624
  outer loop
   vertex 1744.287072 2836.776363 -976.297457
   vertex 1733.446806 2829.706272 -978.196201
   vertex 1879.847826 3083.272840 -2758.196201
  endloop
 endfacet
 facet normal 0.553738 -0.829518 -0.072624
  outer loop
   vertex 1744.287072 2836.776363 -976.297457
   vertex 1879.847826 3083.272840 -2758.196201
   vertex 1890.688092 3090.342931 -2756.297457
  endloop
 endfacet
 facet normal 0.440830 -0.892971 -0.090949
  outer loop
   vertex 1733.446806 2829.706272 -978.196201
   vertex 1721.753848 2824.112957 -979.954706
   vertex 1868.154869 3077.679525 -2759.954706
  endloop
 endfacet
 facet normal 0.440830 -0.892971 -0.090949
  outer loop
   vertex 1733.446806 2829.706272 -978.196201
   vertex 1868.154869 3077.679525 -2759.954706
   vertex 1879.847826 3083.272840 -2758.196201
  endloop
 endfacet
 facet normal 0.320379 -0.941145 -0.107719
  outer loop
   vertex 1721.753848 2824.112957 -979.954706
   vertex 1709.408268 2820.092121 -981.542883
   vertex 1855.809289 3073.658689 -2761.542883
  endloop
 endfacet
 facet normal 0.320379 -0.941145 -0.107719
  outer loop
   vertex 1721.753848 2824.112957 -979.954706
   vertex 1855.809289 3073.658689 -2761.542883
   vertex 1868.154869 3077.679525 -2759.954706
  endloop
 endfacet
 facet normal 0.194447 -0.973216 -0.122645
  outer loop
   vertex 1709.408268 2820.092121 -981.542883
   vertex 1696.621302 2817.712561 -982.933558
   vertex 1843.022323 3071.279129 -2762.933558
  endloop
 endfacet
 facet normal 0.194447 -0.973216 -0.122645
  outer loop
   vertex 1709.408268 2820.092121 -981.542883
   vertex 1843.022323 3071.279129 -2762.933558
   vertex 1855.809289 3073.658689 -2761.542883
  endloop
 endfacet
 facet normal 0.065187 -0.988634 -0.135473
  outer loop
   vertex 1696.621302 2817.712561 -982.933558
   vertex 1683.611740 2817.014992 -984.102937
   vertex 1830.012760 3070.581560 -2764.102937
  endloop
 endfacet
 facet normal 0.065187 -0.988634 -0.135473
  outer loop
   vertex 1696.621302 2817.712561 -982.933558
   vertex 1830.012760 3070.581560 -2764.102937
   vertex 1843.022323 3071.279129 -2762.933558
  endloop
 endfacet
 facet normal -0.065187 -0.987137 -0.145982
  outer loop
   vertex 1683.611740 2817.014992 -984.102937
   vertex 1670.602177 2818.011349 -985.031010
   vertex 1817.003198 3071.577917 -2765.031010
  endloop
 endfacet
 facet normal -0.065187 -0.987137 -0.145982
  outer loop
   vertex 1683.611740 2817.014992 -984.102937
   vertex 1817.003198 3071.577917 -2765.031010
   vertex 1830.012760 3070.581560 -2764.102937
  endloop
 endfacet
 facet normal -0.194447 -0.968750 -0.153994
  outer loop
   vertex 1670.602177 2818.011349 -985.031010
   vertex 1657.815211 2820.684586 -985.701898
   vertex 1804.216232 3074.251154 -2765.701898
  endloop
 endfacet
 facet normal -0.194447 -0.968750 -0.153994
  outer loop
   vertex 1670.602177 2818.011349 -985.031010
   vertex 1804.216232 3074.251154 -2765.701898
   vertex 1817.003198 3071.577917 -2765.031010
  endloop
 endfacet
 facet normal -0.320379 -0.933787 -0.159371
  outer loop
   vertex 1657.815211 2820.684586 -985.701898
   vertex 1645.469631 2824.988961 -986.104123
   vertex 1791.870652 3078.555529 -2766.104123
  endloop
 endfacet
 facet normal -0.320379 -0.933787 -0.159371
  outer loop
   vertex 1657.815211 2820.684586 -985.701898
   vertex 1791.870652 3078.555529 -2766.104123
   vertex 1804.216232 3074.251154 -2765.701898
  endloop
 endfacet
 facet normal -0.440830 -0.882847 -0.162022
  outer loop
   vertex 1645.469631 2824.988961 -986.104123
   vertex 1633.776674 2830.850826 -986.230802
   vertex 1780.177694 3084.417394 -2766.230802
  endloop
 endfacet
 facet normal -0.440830 -0.882847 -0.162022
  outer loop
   vertex 1645.469631 2824.988961 -986.104123
   vertex 1780.177694 3084.417394 -2766.230802
   vertex 1791.870652 3078.555529 -2766.104123
  endloop
 endfacet
 facet normal -0.553738 -0.816801 -0.161899
  outer loop
   vertex 1633.776674 2830.850826 -986.230802
   vertex 1622.936408 2838.169883 -986.079767
   vertex 1769.337428 3091.736451 -2766.079767
  endloop
 endfacet
 facet normal -0.553738 -0.816801 -0.161899
  outer loop
   vertex 1633.776674 2830.850826 -986.230802
   vertex 1769.337428 3091.736451 -2766.079767
   vertex 1780.177694 3084.417394 -2766.230802
  endloop
 endfacet
 facet normal -0.657171 -0.736779 -0.159007
  outer loop
   vertex 1622.936408 2838.169883 -986.079767
   vertex 1613.134313 2846.820901 -985.653603
   vertex 1759.535334 3100.387469 -2765.653603
  endloop
 endfacet
 facet normal -0.657171 -0.736779 -0.159007
  outer loop
   vertex 1622.936408 2838.169883 -986.079767
   vertex 1759.535334 3100.387469 -2765.653603
   vertex 1769.337428 3091.736451 -2766.079767
  endloop
 endfacet
 facet normal -0.749360 -0.644151 -0.153394
  outer loop
   vertex 1613.134313 2846.820901 -985.653603
   vertex 1604.538108 2856.655858 -984.959601
   vertex 1750.939128 3110.222426 -2764.959601
  endloop
 endfacet
 facet normal -0.749360 -0.644151 -0.153394
  outer loop
   vertex 1613.134313 2846.820901 -985.653603
   vertex 1750.939128 3110.222426 -2764.959601
   vertex 1759.535334 3100.387469 -2765.653603
  endloop
 endfacet
 facet normal -0.828727 -0.540501 -0.145157
  outer loop
   vertex 1604.538108 2856.655858 -984.959601
   vertex 1597.294873 2867.506475 -984.009636
   vertex 1743.695894 3121.073043 -2764.009636
  endloop
 endfacet
 facet normal -0.828727 -0.540501 -0.145157
  outer loop
   vertex 1604.538108 2856.655858 -984.959601
   vertex 1743.695894 3121.073043 -2764.009636
   vertex 1750.939128 3110.222426 -2764.959601
  endloop
 endfacet
 facet normal -0.893914 -0.427603 -0.134436
  outer loop
   vertex 1597.294873 2867.506475 -984.009636
   vertex 1591.528545 2879.187096 -982.819963
   vertex 1737.929566 3132.753664 -2762.819963
  endloop
 endfacet
 facet normal -0.893914 -0.427603 -0.134436
  outer loop
   vertex 1597.294873 2867.506475 -984.009636
   vertex 1737.929566 3132.753664 -2762.819963
   vertex 1743.695894 3121.073043 -2764.009636
  endloop
 endfacet
 facet normal -0.943807 -0.307389 -0.121414
  outer loop
   vertex 1591.528545 2879.187096 -982.819963
   vertex 1587.337785 2891.497862 -981.410937
   vertex 1733.738806 3145.064430 -2761.410937
  endloop
 endfacet
 facet normal -0.943807 -0.307389 -0.121414
  outer loop
   vertex 1591.528545 2879.187096 -982.819963
   vertex 1733.738806 3145.064430 -2761.410937
   vertex 1737.929566 3132.753664 -2762.819963
  endloop
 endfacet
 facet normal -0.977550 -0.181915 -0.106316
  outer loop
   vertex 1587.337785 2891.497862 -981.410937
   vertex 1584.794299 2904.228131 -979.806666
   vertex 1731.195320 3157.794699 -2759.806666
  endloop
 endfacet
 facet normal -0.977550 -0.181915 -0.106316
  outer loop
   vertex 1587.337785 2891.497862 -981.410937
   vertex 1731.195320 3157.794699 -2759.806666
   vertex 1733.738806 3145.064430 -2761.410937
  endloop
 endfacet
 facet normal -0.994567 -0.053328 -0.089398
  outer loop
   vertex 1584.794299 2904.228131 -979.806666
   vertex 1583.941608 2917.160087 -978.034600
   vertex 1730.342629 3170.726655 -2758.034600
  endloop
 endfacet
 facet normal -0.994567 -0.053328 -0.089398
  outer loop
   vertex 1584.794299 2904.228131 -979.806666
   vertex 1730.342629 3170.726655 -2758.034600
   vertex 1731.195320 3157.794699 -2759.806666
  endloop
 endfacet
 facet normal -0.994567 0.076170 -0.070950
  outer loop
   vertex 1583.941608 2917.160087 -978.034600
   vertex 1584.794299 2930.072459 -976.125060
   vertex 1731.195320 3183.639027 -2756.125060
  endloop
 endfacet
 facet normal -0.994567 0.076170 -0.070950
  outer loop
   vertex 1583.941608 2917.160087 -978.034600
   vertex 1731.195320 3183.639027 -2756.125060
   vertex 1730.342629 3170.726655 -2758.034600
  endloop
 endfacet
 facet normal -0.977550 0.204366 -0.051289
  outer loop
   vertex 1584.794299 2930.072459 -976.125060
   vertex 1587.337785 2942.744313 -974.110719
   vertex 1733.738806 3196.310881 -2754.110719
  endloop
 endfacet
 facet normal -0.977550 0.204366 -0.051289
  outer loop
   vertex 1584.794299 2930.072459 -976.125060
   vertex 1733.738806 3196.310881 -2754.110719
   vertex 1731.195320 3183.639027 -2756.125060
  endloop
 endfacet
 facet normal -0.943807 0.329065 -0.030750
  outer loop
   vertex 1587.337785 2942.744313 -974.110719
   vertex 1591.528545 2954.958830 -972.026042
   vertex 1737.929566 3208.525398 -2752.026042
  endloop
 endfacet
 facet normal -0.943807 0.329065 -0.030750
  outer loop
   vertex 1587.337785 2942.744313 -974.110719
   vertex 1737.929566 3208.525398 -2752.026042
   vertex 1733.738806 3196.310881 -2754.110719
  endloop
 endfacet
 facet normal -0.893914 0.448133 -0.009684
  outer loop
   vertex 1591.528545 2954.958830 -972.026042
   vertex 1597.294873 2966.507016 -969.906700
   vertex 1743.695894 3220.073584 -2749.906700
  endloop
 endfacet
 facet normal -0.893914 0.448133 -0.009684
  outer loop
   vertex 1591.528545 2954.958830 -972.026042
   vertex 1743.695894 3220.073584 -2749.906700
   vertex 1737.929566 3208.525398 -2752.026042
  endloop
 endfacet
 facet normal -0.828727 0.559534 0.011546
  outer loop
   vertex 1597.294873 2966.507016 -969.906700
   vertex 1604.538108 2977.191280 -967.788953
   vertex 1750.939128 3230.757848 -2747.788953
  endloop
 endfacet
 facet normal -0.828727 0.559534 0.011546
  outer loop
   vertex 1597.294873 2966.507016 -969.906700
   vertex 1750.939128 3230.757848 -2747.788953
   vertex 1743.695894 3220.073584 -2749.906700
  endloop
 endfacet
 facet normal -0.749360 0.661361 0.032580
  outer loop
   vertex 1604.538108 2977.191280 -967.788953
   vertex 1613.134313 2986.828809 -965.709038
   vertex 1759.535334 3240.395377 -2745.709038
  endloop
 endfacet
 facet normal -0.749360 0.661361 0.032580
  outer loop
   vertex 1604.538108 2977.191280 -967.788953
   vertex 1759.535334 3240.395377 -2745.709038
   vertex 1750.939128 3230.757848 -2747.788953
  endloop
 endfacet
 facet normal -0.657171 0.751872 0.053056
  outer loop
   vertex 1613.134313 2986.828809 -965.709038
   vertex 1622.936408 2995.254703 -963.702543
   vertex 1769.337428 3248.821271 -2743.702543
  endloop
 endfacet
 facet normal -0.657171 0.751872 0.053056
  outer loop
   vertex 1613.134313 2986.828809 -965.709038
   vertex 1769.337428 3248.821271 -2743.702543
   vertex 1759.535334 3240.395377 -2745.709038
  endloop
 endfacet
 facet normal -0.553738 0.829518 0.072624
  outer loop
   vertex 1622.936408 2995.254703 -963.702543
   vertex 1633.776674 3002.324794 -961.803799
   vertex 1780.177694 3255.891362 -2741.803799
  endloop
 endfacet
 facet normal -0.553738 0.829518 0.072624
  outer loop
   vertex 1622.936408 2995.254703 -963.702543
   vertex 1780.177694 3255.891362 -2741.803799
   vertex 1769.337428 3248.821271 -2743.702543
  endloop
 endfacet
 facet normal -0.440830 0.892971 0.090949
  outer loop
   vertex 1633.776674 3002.324794 -961.803799
   vertex 1645.469631 3007.918109 -960.045294
   vertex 1791.870652 3261.484677 -2740.045294
  endloop
 endfacet
 facet normal -0.440830 0.892971 0.090949
  outer loop
   vertex 1633.776674 3002.324794 -961.803799
   vertex 1791.870652 3261.484677 -2740.045294
   vertex 1780.177694 3255.891362 -2741.803799
  endloop
 endfacet
 facet normal -0.320379 0.941145 0.107719
  outer loop
   vertex 1645.469631 3007.918109 -960.045294
   vertex 1657.815211 3011.938945 -958.457117
   vertex 1804.216232 3265.505513 -2738.457117
  endloop
 endfacet
 facet normal -0.320379 0.941145 0.107719
  outer loop
   vertex 1645.469631 3007.918109 -960.045294
   vertex 1804.216232 3265.505513 -2738.457117
   vertex 1791.870652 3261.484677 -2740.045294
  endloop
 endfacet
 facet normal -0.194447 0.973216 0.122645
  outer loop
   vertex 1657.815211 3011.938945 -958.457117
   vertex 1670.602177 3014.318505 -957.066442
   vertex 1817.003198 3267.885073 -2737.066442
  endloop
 endfacet
 facet normal -0.194447 0.973216 0.122645
  outer loop
   vertex 1657.815211 3011.938945 -958.457117
   vertex 1817.003198 3267.885073 -2737.066442
   vertex 1804.216232 3265.505513 -2738.457117
  endloop
 endfacet
 facet normal -0.065187 0.988634 0.135473
  outer loop
   vertex 1670.602177 3014.318505 -957.066442
   vertex 1683.611740 3015.016074 -955.897063
   vertex 1830.012760 3268.582642 -2735.897063
  endloop
 endfacet
 facet normal -0.065187 0.988634 0.135473
  outer loop
   vertex 1670.602177 3014.318505 -957.066442
   vertex 1830.012760 3268.582642 -2735.897063
   vertex 1817.003198 3267.885073 -2737.066442
  endloop
 endfacet
 facet normal -0.065187 -0.987137 -0.145982
  outer loop
   vertex 1841.461176 3255.825783 -2736.772711
   vertex 1695.060155 3002.259215 -956.772711
   vertex 1683.611740 3003.136009 -957.589416
  endloop
 endfacet
 facet normal -0.065187 -0.987137 -0.145982
  outer loop
   vertex 1830.012760 3256.702577 -2737.589416
   vertex 1841.461176 3255.825783 -2736.772711
   vertex 1683.611740 3003.136009 -957.589416
  endloop
 endfacet
 facet normal -0.194447 -0.968750 -0.153994
  outer loop
   vertex 1852.713705 3253.473335 -2736.182329
   vertex 1706.312685 2999.906767 -956.182329
   vertex 1695.060155 3002.259215 -956.772711
  endloop
 endfacet
 facet normal -0.194447 -0.968750 -0.153994
  outer loop
   vertex 1841.461176 3255.825783 -2736.772711
   vertex 1852.713705 3253.473335 -2736.182329
   vertex 1695.060155 3002.259215 -956.772711
  endloop
 endfacet
 facet normal -0.320379 -0.933787 -0.159371
  outer loop
   vertex 1863.577816 3249.685484 -2735.828372
   vertex 1717.176795 2996.118916 -955.828372
   vertex 1706.312685 2999.906767 -956.182329
  endloop
 endfacet
 facet normal -0.320379 -0.933787 -0.159371
  outer loop
   vertex 1852.713705 3253.473335 -2736.182329
   vertex 1863.577816 3249.685484 -2735.828372
   vertex 1706.312685 2999.906767 -956.182329
  endloop
 endfacet
 facet normal -0.440830 -0.882847 -0.162022
  outer loop
   vertex 1873.867618 3244.527043 -2735.716895
   vertex 1727.466598 2990.960475 -955.716895
   vertex 1717.176795 2996.118916 -955.828372
  endloop
 endfacet
 facet normal -0.440830 -0.882847 -0.162022
  outer loop
   vertex 1863.577816 3249.685484 -2735.828372
   vertex 1873.867618 3244.527043 -2735.716895
   vertex 1717.176795 2996.118916 -955.828372
  endloop
 endfacet
 facet normal -0.553738 -0.816801 -0.161899
  outer loop
   vertex 1883.407053 3238.086273 -2735.849805
   vertex 1737.006032 2984.519705 -955.849805
   vertex 1727.466598 2990.960475 -955.716895
  endloop
 endfacet
 facet normal -0.553738 -0.816801 -0.161899
  outer loop
   vertex 1873.867618 3244.527043 -2735.716895
   vertex 1883.407053 3238.086273 -2735.849805
   vertex 1727.466598 2990.960475 -955.716895
  endloop
 endfacet
 facet normal -0.657171 -0.736779 -0.159007
  outer loop
   vertex 1892.032895 3230.473377 -2736.224830
   vertex 1745.631875 2976.906809 -956.224830
   vertex 1737.006032 2984.519705 -955.849805
  endloop
 endfacet
 facet normal -0.657171 -0.736779 -0.159007
  outer loop
   vertex 1883.407053 3238.086273 -2735.849805
   vertex 1892.032895 3230.473377 -2736.224830
   vertex 1737.006032 2984.519705 -955.849805
  endloop
 endfacet
 facet normal -0.749360 -0.644151 -0.153394
  outer loop
   vertex 1899.597557 3221.818615 -2736.835551
   vertex 1753.196536 2968.252047 -956.835551
   vertex 1745.631875 2976.906809 -956.224830
  endloop
 endfacet
 facet normal -0.749360 -0.644151 -0.153394
  outer loop
   vertex 1892.032895 3230.473377 -2736.224830
   vertex 1899.597557 3221.818615 -2736.835551
   vertex 1745.631875 2976.906809 -956.224830
  endloop
 endfacet
 facet normal -0.828727 -0.540501 -0.145157
  outer loop
   vertex 1905.971603 3212.270072 -2737.671520
   vertex 1759.570582 2958.703504 -957.671520
   vertex 1753.196536 2968.252047 -956.835551
  endloop
 endfacet
 facet normal -0.828727 -0.540501 -0.145157
  outer loop
   vertex 1899.597557 3221.818615 -2736.835551
   vertex 1905.971603 3212.270072 -2737.671520
   vertex 1753.196536 2968.252047 -956.835551
  endloop
 endfacet
 facet normal -0.893914 -0.427603 -0.134436
  outer loop
   vertex 1911.045972 3201.991126 -2738.718433
   vertex 1764.644951 2948.424558 -958.718433
   vertex 1759.570582 2958.703504 -957.671520
  endloop
 endfacet
 facet normal -0.893914 -0.427603 -0.134436
  outer loop
   vertex 1905.971603 3212.270072 -2737.671520
   vertex 1911.045972 3201.991126 -2738.718433
   vertex 1759.570582 2958.703504 -957.671520
  endloop
 endfacet
 facet normal -0.943807 -0.307389 -0.121414
  outer loop
   vertex 1914.733840 3191.157652 -2739.958376
   vertex 1768.332820 2937.591084 -959.958376
   vertex 1764.644951 2948.424558 -958.718433
  endloop
 endfacet
 facet normal -0.943807 -0.307389 -0.121414
  outer loop
   vertex 1911.045972 3201.991126 -2738.718433
   vertex 1914.733840 3191.157652 -2739.958376
   vertex 1764.644951 2948.424558 -958.718433
  endloop
 endfacet
 facet normal -0.977550 -0.181915 -0.106316
  outer loop
   vertex 1916.972108 3179.955014 -2741.370134
   vertex 1770.571087 2926.388446 -961.370134
   vertex 1768.332820 2937.591084 -959.958376
  endloop
 endfacet
 facet normal -0.977550 -0.181915 -0.106316
  outer loop
   vertex 1914.733840 3191.157652 -2739.958376
   vertex 1916.972108 3179.955014 -2741.370134
   vertex 1768.332820 2937.591084 -959.958376
  endloop
 endfacet
 facet normal -0.994567 -0.053328 -0.089398
  outer loop
   vertex 1917.722477 3168.574894 -2742.929552
   vertex 1771.321456 2915.008325 -962.929552
   vertex 1770.571087 2926.388446 -961.370134
  endloop
 endfacet
 facet normal -0.994567 -0.053328 -0.089398
  outer loop
   vertex 1916.972108 3179.955014 -2741.370134
   vertex 1917.722477 3168.574894 -2742.929552
   vertex 1770.571087 2926.388446 -961.370134
  endloop
 endfacet
 facet normal -0.994567 0.076170 -0.070950
  outer loop
   vertex 1916.972108 3157.212006 -2744.609947
   vertex 1770.571087 2903.645438 -964.609947
   vertex 1771.321456 2915.008325 -962.929552
  endloop
 endfacet
 facet normal -0.994567 0.076170 -0.070950
  outer loop
   vertex 1917.722477 3168.574894 -2742.929552
   vertex 1916.972108 3157.212006 -2744.609947
   vertex 1771.321456 2915.008325 -962.929552
  endloop
 endfacet
 facet normal -0.977550 0.204366 -0.051289
  outer loop
   vertex 1914.733840 3146.060775 -2746.382567
   vertex 1768.332820 2892.494207 -966.382567
   vertex 1770.571087 2903.645438 -964.609947
  endloop
 endfacet
 facet normal -0.977550 0.204366 -0.051289
  outer loop
   vertex 1916.972108 3157.212006 -2744.609947
   vertex 1914.733840 3146.060775 -2746.382567
   vertex 1770.571087 2903.645438 -964.609947
  endloop
 endfacet
 facet normal -0.943807 0.329065 -0.030750
  outer loop
   vertex 1911.045972 3135.312000 -2748.217083
   vertex 1764.644951 2881.745432 -968.217083
   vertex 1768.332820 2892.494207 -966.382567
  endloop
 endfacet
 facet normal -0.943807 0.329065 -0.030750
  outer loop
   vertex 1914.733840 3146.060775 -2746.382567
   vertex 1911.045972 3135.312000 -2748.217083
   vertex 1768.332820 2892.494207 -966.382567
  endloop
 endfacet
 facet normal -0.893914 0.448133 -0.009684
  outer loop
   vertex 1905.971603 3125.149596 -2750.082104
   vertex 1759.570582 2871.583028 -970.082104
   vertex 1764.644951 2881.745432 -968.217083
  endloop
 endfacet
 facet normal -0.893914 0.448133 -0.009684
  outer loop
   vertex 1911.045972 3135.312000 -2748.217083
   vertex 1905.971603 3125.149596 -2750.082104
   vertex 1764.644951 2881.745432 -968.217083
  endloop
 endfacet
 facet normal -0.828727 0.559534 0.011546
  outer loop
   vertex 1899.597557 3115.747444 -2751.945721
   vertex 1753.196536 2862.180876 -971.945721
   vertex 1759.570582 2871.583028 -970.082104
  endloop
 endfacet
 facet normal -0.828727 0.559534 0.011546
  outer loop
   vertex 1905.971603 3125.149596 -2750.082104
   vertex 1899.597557 3115.747444 -2751.945721
   vertex 1759.570582 2871.583028 -970.082104
  endloop
 endfacet
 facet normal -0.749360 0.661361 0.032580
  outer loop
   vertex 1892.032895 3107.266418 -2753.776046
   vertex 1745.631875 2853.699850 -973.776046
   vertex 1753.196536 2862.180876 -971.945721
  endloop
 endfacet
 facet normal -0.749360 0.661361 0.032580
  outer loop
   vertex 1899.597557 3115.747444 -2751.945721
   vertex 1892.032895 3107.266418 -2753.776046
   vertex 1753.196536 2862.180876 -971.945721
  endloop
 endfacet
 facet normal -0.657171 0.751872 0.053056
  outer loop
   vertex 1883.407053 3099.851631 -2755.541762
   vertex 1737.006032 2846.285063 -975.541762
   vertex 1745.631875 2853.699850 -973.776046
  endloop
 endfacet
 facet normal -0.657171 0.751872 0.053056
  outer loop
   vertex 1892.032895 3107.266418 -2753.776046
   vertex 1883.407053 3099.851631 -2755.541762
   vertex 1745.631875 2853.699850 -973.776046
  endloop
 endfacet
 facet normal -0.553738 0.829518 0.072624
  outer loop
   vertex 1873.867618 3093.629952 -2757.212657
   vertex 1727.466598 2840.063384 -977.212657
   vertex 1737.006032 2846.285063 -975.541762
  endloop
 endfacet
 facet normal -0.553738 0.829518 0.072624
  outer loop
   vertex 1883.407053 3099.851631 -2755.541762
   vertex 1873.867618 3093.629952 -2757.212657
   vertex 1737.006032 2846.285063 -975.541762
  endloop
 endfacet
 facet normal -0.440830 0.892971 0.090949
  outer loop
   vertex 1863.577816 3088.707834 -2758.760141
   vertex 1717.176795 2835.141266 -978.760141
   vertex 1727.466598 2840.063384 -977.212657
  endloop
 endfacet
 facet normal -0.440830 0.892971 0.090949
  outer loop
   vertex 1873.867618 3093.629952 -2757.212657
   vertex 1863.577816 3088.707834 -2758.760141
   vertex 1727.466598 2840.063384 -977.212657
  endloop
 endfacet
 facet normal -0.320379 0.941145 0.107719
  outer loop
   vertex 1852.713705 3085.169498 -2760.157737
   vertex 1706.312685 2831.602930 -980.157737
   vertex 1717.176795 2835.141266 -978.760141
  endloop
 endfacet
 facet normal -0.320379 0.941145 0.107719
  outer loop
   vertex 1863.577816 3088.707834 -2758.760141
   vertex 1852.713705 3085.169498 -2760.157737
   vertex 1717.176795 2835.141266 -978.760141
  endloop
 endfacet
 facet normal -0.194447 0.973216 0.122645
  outer loop
   vertex 1841.461176 3083.075486 -2761.381531
   vertex 1695.060155 2829.508917 -981.381531
   vertex 1706.312685 2831.602930 -980.157737
  endloop
 endfacet
 facet normal -0.194447 0.973216 0.122645
  outer loop
   vertex 1852.713705 3085.169498 -2760.157737
   vertex 1841.461176 3083.075486 -2761.381531
   vertex 1706.312685 2831.602930 -980.157737
  endloop
 endfacet
 facet normal -0.065187 0.988634 0.135473
  outer loop
   vertex 1830.012760 3082.461625 -2762.410584
   vertex 1683.611740 2828.895057 -982.410584
   vertex 1695.060155 2829.508917 -981.381531
  endloop
 endfacet
 facet normal -0.065187 0.988634 0.135473
  outer loop
   vertex 1841.461176 3083.075486 -2761.381531
   vertex 1830.012760 3082.461625 -2762.410584
   vertex 1695.060155 2829.508917 -981.381531
  endloop
 endfacet
 facet normal 0.065187 0.987137 0.145982
  outer loop
   vertex 1818.564345 3083.338419 -2763.227289
   vertex 1672.163324 2829.771851 -983.227289
   vertex 1683.611740 2828.895057 -982.410584
  endloop
 endfacet
 facet normal 0.065187 0.987137 0.145982
  outer loop
   vertex 1830.012760 3082.461625 -2762.410584
   vertex 1818.564345 3083.338419 -2763.227289
   vertex 1683.611740 2828.895057 -982.410584
  endloop
 endfacet
 facet normal 0.194447 0.968750 0.153994
  outer loop
   vertex 1807.311815 3085.690867 -2763.817671
   vertex 1660.910795 2832.124299 -983.817671
   vertex 1672.163324 2829.771851 -983.227289
  endloop
 endfacet
 facet normal 0.194447 0.968750 0.153994
  outer loop
   vertex 1818.564345 3083.338419 -2763.227289
   vertex 1807.311815 3085.690867 -2763.817671
   vertex 1672.163324 2829.771851 -983.227289
  endloop
 endfacet
 facet normal 0.320379 0.933787 0.159371
  outer loop
   vertex 1796.447705 3089.478718 -2764.171628
   vertex 1650.046684 2835.912150 -984.171628
   vertex 1660.910795 2832.124299 -983.817671
  endloop
 endfacet
 facet normal 0.320379 0.933787 0.159371
  outer loop
   vertex 1807.311815 3085.690867 -2763.817671
   vertex 1796.447705 3089.478718 -2764.171628
   vertex 1660.910795 2832.124299 -983.817671
  endloop
 endfacet
 facet normal 0.440830 0.882847 0.162022
  outer loop
   vertex 1786.157902 3094.637159 -2764.283105
   vertex 1639.756882 2841.070591 -984.283105
   vertex 1650.046684 2835.912150 -984.171628
  endloop
 endfacet
 facet normal 0.440830 0.882847 0.162022
  outer loop
   vertex 1796.447705 3089.478718 -2764.171628
   vertex 1786.157902 3094.637159 -2764.283105
   vertex 1650.046684 2835.912150 -984.171628
  endloop
 endfacet
 facet normal 0.553738 0.816801 0.161899
  outer loop
   vertex 1776.618468 3101.077929 -2764.150195
   vertex 1630.217447 2847.511361 -984.150195
   vertex 1639.756882 2841.070591 -984.283105
  endloop
 endfacet
 facet normal 0.553738 0.816801 0.161899
  outer loop
   vertex 1786.157902 3094.637159 -2764.283105
   vertex 1776.618468 3101.077929 -2764.150195
   vertex 1639.756882 2841.070591 -984.283105
  endloop
 endfacet
 facet normal 0.657171 0.736779 0.159007
  outer loop
   vertex 1767.992625 3108.690825 -2763.775170
   vertex 1621.591605 2855.124257 -983.775170
   vertex 1630.217447 2847.511361 -984.150195
  endloop
 endfacet
 facet normal 0.657171 0.736779 0.159007
  outer loop
   vertex 1776.618468 3101.077929 -2764.150195
   vertex 1767.992625 3108.690825 -2763.775170
   vertex 1630.217447 2847.511361 -984.150195
  endloop
 endfacet
 facet normal 0.749360 0.644151 0.153394
  outer loop
   vertex 1760.427964 3117.345587 -2763.164449
   vertex 1614.026943 2863.779019 -983.164449
   vertex 1621.591605 2855.124257 -983.775170
  endloop
 endfacet
 facet normal 0.749360 0.644151 0.153394
  outer loop
   vertex 1767.992625 3108.690825 -2763.775170
   vertex 1760.427964 3117.345587 -2763.164449
   vertex 1621.591605 2855.124257 -983.775170
  endloop
 endfacet
 facet normal 0.828727 0.540501 0.145157
  outer loop
   vertex 1754.053918 3126.894130 -2762.328480
   vertex 1607.652897 2873.327562 -982.328480
   vertex 1614.026943 2863.779019 -983.164449
  endloop
 endfacet
 facet normal 0.828727 0.540501 0.145157
  outer loop
   vertex 1760.427964 3117.345587 -2763.164449
   vertex 1754.053918 3126.894130 -2762.328480
   vertex 1614.026943 2863.779019 -983.164449
  endloop
 endfacet
 facet normal 0.893914 0.427603 0.134436
  outer loop
   vertex 1748.979549 3137.173077 -2761.281567
   vertex 1602.578528 2883.606508 -981.281567
   vertex 1607.652897 2873.327562 -982.328480
  endloop
 endfacet
 facet normal 0.893914 0.427603 0.134436
  outer loop
   vertex 1754.053918 3126.894130 -2762.328480
   vertex 1748.979549 3137.173077 -2761.281567
   vertex 1607.652897 2873.327562 -982.328480
  endloop
 endfacet
 facet normal 0.943807 0.307389 0.121414
  outer loop
   vertex 1745.291680 3148.006550 -2760.041624
   vertex 1598.890660 2894.439982 -980.041624
   vertex 1602.578528 2883.606508 -981.281567
  endloop
 endfacet
 facet normal 0.943807 0.307389 0.121414
  outer loop
   vertex 1748.979549 3137.173077 -2761.281567
   vertex 1745.291680 3148.006550 -2760.041624
   vertex 1602.578528 2883.606508 -981.281567
  endloop
 endfacet
 facet normal 0.977550 0.181915 0.106316
  outer loop
   vertex 1743.053413 3159.209188 -2758.629866
   vertex 1596.652392 2905.642620 -978.629866
   vertex 1598.890660 2894.439982 -980.041624
  endloop
 endfacet
 facet normal 0.977550 0.181915 0.106316
  outer loop
   vertex 1745.291680 3148.006550 -2760.041624
   vertex 1743.053413 3159.209188 -2758.629866
   vertex 1598.890660 2894.439982 -980.041624
  endloop
 endfacet
 facet normal 0.994567 0.053328 0.089398
  outer loop
   vertex 1742.303044 3170.589309 -2757.070448
   vertex 1595.902024 2917.022740 -977.070448
   vertex 1596.652392 2905.642620 -978.629866
  endloop
 endfacet
 facet normal 0.994567 0.053328 0.089398
  outer loop
   vertex 1743.053413 3159.209188 -2758.629866
   vertex 1742.303044 3170.589309 -2757.070448
   vertex 1596.652392 2905.642620 -978.629866
  endloop
 endfacet
 facet normal 0.994567 -0.076170 0.070950
  outer loop
   vertex 1743.053413 3181.952196 -2755.390053
   vertex 1596.652392 2928.385628 -975.390053
   vertex 1595.902024 2917.022740 -977.070448
  endloop
 endfacet
 facet normal 0.994567 -0.076170 0.070950
  outer loop
   vertex 1742.303044 3170.589309 -2757.070448
   vertex 1743.053413 3181.952196 -2755.390053
   vertex 1595.902024 2917.022740 -977.070448
  endloop
 endfacet
 facet normal 0.977550 -0.204366 0.051289
  outer loop
   vertex 1745.291680 3193.103427 -2753.617433
   vertex 1598.890660 2939.536859 -973.617433
   vertex 1596.652392 2928.385628 -975.390053
  endloop
 endfacet
 facet normal 0.977550 -0.204366 0.051289
  outer loop
   vertex 1743.053413 3181.952196 -2755.390053
   vertex 1745.291680 3193.103427 -2753.617433
   vertex 1596.652392 2928.385628 -975.390053
  endloop
 endfacet
 facet normal 0.943807 -0.329065 0.030750
  outer loop
   vertex 1748.979549 3203.852202 -2751.782917
   vertex 1602.578528 2950.285634 -971.782917
   vertex 1598.890660 2939.536859 -973.617433
  endloop
 endfacet
 facet normal 0.943807 -0.329065 0.030750
  outer loop
   vertex 1745.291680 3193.103427 -2753.617433
   vertex 1748.979549 3203.852202 -2751.782917
   vertex 1598.890660 2939.536859 -973.617433
  endloop
 endfacet
 facet normal 0.893914 -0.448133 0.009684
  outer loop
   vertex 1754.053918 3214.014606 -2749.917896
   vertex 1607.652897 2960.448038 -969.917896
   vertex 1602.578528 2950.285634 -971.782917
  endloop
 endfacet
 facet normal 0.893914 -0.448133 0.009684
  outer loop
   vertex 1748.979549 3203.852202 -2751.782917
   vertex 1754.053918 3214.014606 -2749.917896
   vertex 1602.578528 2950.285634 -971.782917
  endloop
 endfacet
 facet normal 0.828727 -0.559534 -0.011546
  outer loop
   vertex 1760.427964 3223.416758 -2748.054279
   vertex 1614.026943 2969.850190 -968.054279
   vertex 1607.652897 2960.448038 -969.917896
  endloop
 endfacet
 facet normal 0.828727 -0.559534 -0.011546
  outer loop
   vertex 1754.053918 3214.014606 -2749.917896
   vertex 1760.427964 3223.416758 -2748.054279
   vertex 1607.652897 2960.448038 -969.917896
  endloop
 endfacet
 facet normal 0.749360 -0.661361 -0.032580
  outer loop
   vertex 1767.992625 3231.897784 -2746.223954
   vertex 1621.591605 2978.331216 -966.223954
   vertex 1614.026943 2969.850190 -968.054279
  endloop
 endfacet
 facet normal 0.749360 -0.661361 -0.032580
  outer loop
   vertex 1760.427964 3223.416758 -2748.054279
   vertex 1767.992625 3231.897784 -2746.223954
   vertex 1614.026943 2969.850190 -968.054279
  endloop
 endfacet
 facet normal 0.657171 -0.751872 -0.053056
  outer loop
   vertex 1776.618468 3239.312571 -2744.458238
   vertex 1630.217447 2985.746003 -964.458238
   vertex 1621.591605 2978.331216 -966.223954
  endloop
 endfacet
 facet normal 0.657171 -0.751872 -0.053056
  outer loop
   vertex 1767.992625 3231.897784 -2746.223954
   vertex 1776.618468 3239.312571 -2744.458238
   vertex 1621.591605 2978.331216 -966.223954
  endloop
 endfacet
 facet normal 0.553738 -0.829518 -0.072624
  outer loop
   vertex 1786.157902 3245.534250 -2742.787343
   vertex 1639.756882 2991.967682 -962.787343
   vertex 1630.217447 2985.746003 -964.458238
  endloop
 endfacet
 facet normal 0.553738 -0.829518 -0.072624
  outer loop
   vertex 1776.618468 3239.312571 -2744.458238
   vertex 1786.157902 3245.534250 -2742.787343
   vertex 1630.217447 2985.746003 -964.458238
  endloop
 endfacet
 facet normal 0.440830 -0.892971 -0.090949
  outer loop
   vertex 1796.447705 3250.456368 -2741.239859
   vertex 1650.046684 2996.889800 -961.239859
   vertex 1639.756882 2991.967682 -962.787343
  endloop
 endfacet
 facet normal 0.440830 -0.892971 -0.090949
  outer loop
   vertex 1786.157902 3245.534250 -2742.787343
   vertex 1796.447705 3250.456368 -2741.239859
   vertex 1639.756882 2991.967682 -962.787343
  endloop
 endfacet
 facet normal 0.320379 -0.941145 -0.107719
  outer loop
   vertex 1807.311815 3253.994704 -2739.842263
   vertex 1660.910795 3000.428136 -959.842263
   vertex 1650.046684 2996.889800 -961.239859
  endloop
 endfacet
 facet normal 0.320379 -0.941145 -0.107719
  outer loop
   vertex 1796.447705 3250.456368 -2741.239859
   vertex 1807.311815 3253.994704 -2739.842263
   vertex 1650.046684 2996.889800 -961.239859
  endloop
 endfacet
 facet normal 0.194447 -0.973216 -0.122645
  outer loop
   vertex 1818.564345 3256.088717 -2738.618469
   vertex 1672.163324 3002.522148 -958.618469
   vertex 1660.910795 3000.428136 -959.842263
  endloop
 endfacet
 facet normal 0.194447 -0.973216 -0.122645
  outer loop
   vertex 1807.311815 3253.994704 -2739.842263
   vertex 1818.564345 3256.088717 -2738.618469
   vertex 1660.910795 3000.428136 -959.842263
  endloop
 endfacet
 facet normal 0.065187 -0.988634 -0.135473
  outer loop
   vertex 1830.012760 3256.702577 -2737.589416
   vertex 1683.611740 3003.136009 -957.589416
   vertex 1672.163324 3002.522148 -958.618469
  endloop
 endfacet
 facet normal 0.065187 -0.988634 -0.135473
  outer loop
   vertex 1818.564345 3256.088717 -2738.618469
   vertex 1830.012760 3256.702577 -2737.589416
   vertex 1672.163324 3002.522148 -958.618469
  endloop
 endfacet
endsolid SIC_LOX_feed_4_drop
