solid SIC_LOX_feed_3_elbow
 facet normal 0.065403 0.997859 0.000000
  outer loop
   vertex -1683.611740 -2816.015533 -450.000000
   vertex -1670.559120 -2816.871047 -450.000000
   vertex -1670.559120 -2816.871047 -970.000000
  endloop
 endfacet
 facet normal 0.065403 0.997859 0.000000
  outer loop
   vertex -1683.611740 -2816.015533 -450.000000
   vertex -1670.559120 -2816.871047 -970.000000
   vertex -1683.611740 -2816.015533 -970.000000
  endloop
 endfacet
 facet normal 0.195090 0.980785 0.000000
  outer loop
   vertex -1670.559120 -2816.871047 -450.000000
   vertex -1657.729835 -2819.422950 -450.000000
   vertex -1657.729835 -2819.422950 -970.000000
  endloop
 endfacet
 facet normal 0.195090 0.980785 0.000000
  outer loop
   vertex -1670.559120 -2816.871047 -450.000000
   vertex -1657.729835 -2819.422950 -970.000000
   vertex -1670.559120 -2816.871047 -970.000000
  endloop
 endfacet
 facet normal 0.321439 0.946930 0.000000
  outer loop
   vertex -1657.729835 -2819.422950 -450.000000
   vertex -1645.343396 -2823.627580 -450.000000
   vertex -1645.343396 -2823.627580 -970.000000
  endloop
 endfacet
 facet normal 0.321439 0.946930 0.000000
  outer loop
   vertex -1657.729835 -2819.422950 -450.000000
   vertex -1645.343396 -2823.627580 -970.000000
   vertex -1657.729835 -2819.422950 -970.000000
  endloop
 endfacet
 facet normal 0.442289 0.896873 0.000000
  outer loop
   vertex -1645.343396 -2823.627580 -450.000000
   vertex -1633.611740 -2829.412993 -450.000000
   vertex -1633.611740 -2829.412993 -970.000000
  endloop
 endfacet
 facet normal 0.442289 0.896873 0.000000
  outer loop
   vertex -1645.343396 -2823.627580 -450.000000
   vertex -1633.611740 -2829.412993 -970.000000
   vertex -1645.343396 -2823.627580 -970.000000
  endloop
 endfacet
 facet normal 0.555570 0.831470 0.000000
  outer loop
   vertex -1633.611740 -2829.412993 -450.000000
   vertex -1622.735597 -2836.680199 -450.000000
   vertex -1622.735597 -2836.680199 -970.000000
  endloop
 endfacet
 facet normal 0.555570 0.831470 0.000000
  outer loop
   vertex -1633.611740 -2829.412993 -450.000000
   vertex -1622.735597 -2836.680199 -970.000000
   vertex -1633.611740 -2829.412993 -970.000000
  endloop
 endfacet
 facet normal 0.659346 0.751840 0.000000
  outer loop
   vertex -1622.735597 -2836.680199 -450.000000
   vertex -1612.901061 -2845.304855 -450.000000
   vertex -1612.901061 -2845.304855 -970.000000
  endloop
 endfacet
 facet normal 0.659346 0.751840 0.000000
  outer loop
   vertex -1622.735597 -2836.680199 -450.000000
   vertex -1612.901061 -2845.304855 -970.000000
   vertex -1622.735597 -2836.680199 -970.000000
  endloop
 endfacet
 facet normal 0.751840 0.659346 0.000000
  outer loop
   vertex -1612.901061 -2845.304855 -450.000000
   vertex -1604.276406 -2855.139390 -450.000000
   vertex -1604.276406 -2855.139390 -970.000000
  endloop
 endfacet
 facet normal 0.751840 0.659346 0.000000
  outer loop
   vertex -1612.901061 -2845.304855 -450.000000
   vertex -1604.276406 -2855.139390 -970.000000
   vertex -1612.901061 -2845.304855 -970.000000
  endloop
 endfacet
 facet normal 0.831470 0.555570 0.000000
  outer loop
   vertex -1604.276406 -2855.139390 -450.000000
   vertex -1597.009199 -2866.015533 -450.000000
   vertex -1597.009199 -2866.015533 -970.000000
  endloop
 endfacet
 facet normal 0.831470 0.555570 0.000000
  outer loop
   vertex -1604.276406 -2855.139390 -450.000000
   vertex -1597.009199 -2866.015533 -970.000000
   vertex -1604.276406 -2855.139390 -970.000000
  endloop
 endfacet
 facet normal 0.896873 0.442289 0.000000
  outer loop
   vertex -1597.009199 -2866.015533 -450.000000
   vertex -1591.223786 -2877.747190 -450.000000
   vertex -1591.223786 -2877.747190 -970.000000
  endloop
 endfacet
 facet normal 0.896873 0.442289 0.000000
  outer loop
   vertex -1597.009199 -2866.015533 -450.000000
   vertex -1591.223786 -2877.747190 -970.000000
   vertex -1597.009199 -2866.015533 -970.000000
  endloop
 endfacet
 facet normal 0.946930 0.321439 0.000000
  outer loop
   vertex -1591.223786 -2877.747190 -450.000000
   vertex -1587.019157 -2890.133628 -450.000000
   vertex -1587.019157 -2890.133628 -970.000000
  endloop
 endfacet
 facet normal 0.946930 0.321439 0.000000
  outer loop
   vertex -1591.223786 -2877.747190 -450.000000
   vertex -1587.019157 -2890.133628 -970.000000
   vertex -1591.223786 -2877.747190 -970.000000
  endloop
 endfacet
 facet normal 0.980785 0.195090 0.000000
  outer loop
   vertex -1587.019157 -2890.133628 -450.000000
   vertex -1584.467253 -2902.962914 -450.000000
   vertex -1584.467253 -2902.962914 -970.000000
  endloop
 endfacet
 facet normal 0.980785 0.195090 0.000000
  outer loop
   vertex -1587.019157 -2890.133628 -450.000000
   vertex -1584.467253 -2902.962914 -970.000000
   vertex -1587.019157 -2890.133628 -970.000000
  endloop
 endfacet
 facet normal 0.997859 0.065403 0.000000
  outer loop
   vertex -1584.467253 -2902.962914 -450.000000
   vertex -1583.611740 -2916.015533 -450.000000
   vertex -1583.611740 -2916.015533 -970.000000
  endloop
 endfacet
 facet normal 0.997859 0.065403 0.000000
  outer loop
   vertex -1584.467253 -2902.962914 -450.000000
   vertex -1583.611740 -2916.015533 -970.000000
   vertex -1584.467253 -2902.962914 -970.000000
  endloop
 endfacet
 facet normal 0.997859 -0.065403 0.000000
  outer loop
   vertex -1583.611740 -2916.015533 -450.000000
   vertex -1584.467253 -2929.068152 -450.000000
   vertex -1584.467253 -2929.068152 -970.000000
  endloop
 endfacet
 facet normal 0.997859 -0.065403 0.000000
  outer loop
   vertex -1583.611740 -2916.015533 -450.000000
   vertex -1584.467253 -2929.068152 -970.000000
   vertex -1583.611740 -2916.015533 -970.000000
  endloop
 endfacet
 facet normal 0.980785 -0.195090 0.000000
  outer loop
   vertex -1584.467253 -2929.068152 -450.000000
   vertex -1587.019157 -2941.897437 -450.000000
   vertex -1587.019157 -2941.897437 -970.000000
  endloop
 endfacet
 facet normal 0.980785 -0.195090 0.000000
  outer loop
   vertex -1584.467253 -2929.068152 -450.000000
   vertex -1587.019157 -2941.897437 -970.000000
   vertex -1584.467253 -2929.068152 -970.000000
  endloop
 endfacet
 facet normal 0.946930 -0.321439 0.000000
  outer loop
   vertex -1587.019157 -2941.897437 -450.000000
   vertex -1591.223786 -2954.283876 -450.000000
   vertex -1591.223786 -2954.283876 -970.000000
  endloop
 endfacet
 facet normal 0.946930 -0.321439 0.000000
  outer loop
   vertex -1587.019157 -2941.897437 -450.000000
   vertex -1591.223786 -2954.283876 -970.000000
   vertex -1587.019157 -2941.897437 -970.000000
  endloop
 endfacet
 facet normal 0.896873 -0.442289 0.000000
  outer loop
   vertex -1591.223786 -2954.283876 -450.000000
   vertex -1597.009199 -2966.015533 -450.000000
   vertex -1597.009199 -2966.015533 -970.000000
  endloop
 endfacet
 facet normal 0.896873 -0.442289 0.000000
  outer loop
   vertex -1591.223786 -2954.283876 -450.000000
   vertex -1597.009199 -2966.015533 -970.000000
   vertex -1591.223786 -2954.283876 -970.000000
  endloop
 endfacet
 facet normal 0.831470 -0.555570 0.000000
  outer loop
   vertex -1597.009199 -2966.015533 -450.000000
   vertex -1604.276406 -2976.891676 -450.000000
   vertex -1604.276406 -2976.891676 -970.000000
  endloop
 endfacet
 facet normal 0.831470 -0.555570 0.000000
  outer loop
   vertex -1597.009199 -2966.015533 -450.000000
   vertex -1604.276406 -2976.891676 -970.000000
   vertex -1597.009199 -2966.015533 -970.000000
  endloop
 endfacet
 facet normal 0.751840 -0.659346 0.000000
  outer loop
   vertex -1604.276406 -2976.891676 -450.000000
   vertex -1612.901061 -2986.726211 -450.000000
   vertex -1612.901061 -2986.726211 -970.000000
  endloop
 endfacet
 facet normal 0.751840 -0.659346 0.000000
  outer loop
   vertex -1604.276406 -2976.891676 -450.000000
   vertex -1612.901061 -2986.726211 -970.000000
   vertex -1604.276406 -2976.891676 -970.000000
  endloop
 endfacet
 facet normal 0.659346 -0.751840 0.000000
  outer loop
   vertex -1612.901061 -2986.726211 -450.000000
   vertex -1622.735597 -2995.350867 -450.000000
   vertex -1622.735597 -2995.350867 -970.000000
  endloop
 endfacet
 facet normal 0.659346 -0.751840 0.000000
  outer loop
   vertex -1612.901061 -2986.726211 -450.000000
   vertex -1622.735597 -2995.350867 -970.000000
   vertex -1612.901061 -2986.726211 -970.000000
  endloop
 endfacet
 facet normal 0.555570 -0.831470 0.000000
  outer loop
   vertex -1622.735597 -2995.350867 -450.000000
   vertex -1633.611740 -3002.618073 -450.000000
   vertex -1633.611740 -3002.618073 -970.000000
  endloop
 endfacet
 facet normal 0.555570 -0.831470 0.000000
  outer loop
   vertex -1622.735597 -2995.350867 -450.000000
   vertex -1633.611740 -3002.618073 -970.000000
   vertex -1622.735597 -2995.350867 -970.000000
  endloop
 endfacet
 facet normal 0.442289 -0.896873 0.000000
  outer loop
   vertex -1633.611740 -3002.618073 -450.000000
   vertex -1645.343396 -3008.403486 -450.000000
   vertex -1645.343396 -3008.403486 -970.000000
  endloop
 endfacet
 facet normal 0.442289 -0.896873 0.000000
  outer loop
   vertex -1633.611740 -3002.618073 -450.000000
   vertex -1645.343396 -3008.403486 -970.000000
   vertex -1633.611740 -3002.618073 -970.000000
  endloop
 endfacet
 facet normal 0.321439 -0.946930 0.000000
  outer loop
   vertex -1645.343396 -3008.403486 -450.000000
   vertex -1657.729835 -3012.608116 -450.000000
   vertex -1657.729835 -3012.608116 -970.000000
  endloop
 endfacet
 facet normal 0.321439 -0.946930 0.000000
  outer loop
   vertex -1645.343396 -3008.403486 -450.000000
   vertex -1657.729835 -3012.608116 -970.000000
   vertex -1645.343396 -3008.403486 -970.000000
  endloop
 endfacet
 facet normal 0.195090 -0.980785 0.000000
  outer loop
   vertex -1657.729835 -3012.608116 -450.000000
   vertex -1670.559120 -3015.160019 -450.000000
   vertex -1670.559120 -3015.160019 -970.000000
  endloop
 endfacet
 facet normal 0.195090 -0.980785 0.000000
  outer loop
   vertex -1657.729835 -3012.608116 -450.000000
   vertex -1670.559120 -3015.160019 -970.000000
   vertex -1657.729835 -3012.608116 -970.000000
  endloop
 endfacet
 facet normal 0.065403 -0.997859 0.000000
  outer loop
   vertex -1670.559120 -3015.160019 -450.000000
   vertex -1683.611740 -3016.015533 -450.000000
   vertex -1683.611740 -3016.015533 -970.000000
  endloop
 endfacet
 facet normal 0.065403 -0.997859 0.000000
  outer loop
   vertex -1670.559120 -3015.160019 -450.000000
   vertex -1683.611740 -3016.015533 -970.000000
   vertex -1670.559120 -3015.160019 -970.000000
  endloop
 endfacet
 facet normal -0.065403 -0.997859 0.000000
  outer loop
   vertex -1683.611740 -3016.015533 -450.000000
   vertex -1696.664359 -3015.160019 -450.000000
   vertex -1696.664359 -3015.160019 -970.000000
  endloop
 endfacet
 facet normal -0.065403 -0.997859 -0.000000
  outer loop
   vertex -1683.611740 -3016.015533 -450.000000
   vertex -1696.664359 -3015.160019 -970.000000
   vertex -1683.611740 -3016.015533 -970.000000
  endloop
 endfacet
 facet normal -0.195090 -0.980785 0.000000
  outer loop
   vertex -1696.664359 -3015.160019 -450.000000
   vertex -1709.493644 -3012.608116 -450.000000
   vertex -1709.493644 -3012.608116 -970.000000
  endloop
 endfacet
 facet normal -0.195090 -0.980785 -0.000000
  outer loop
   vertex -1696.664359 -3015.160019 -450.000000
   vertex -1709.493644 -3012.608116 -970.000000
   vertex -1696.664359 -3015.160019 -970.000000
  endloop
 endfacet
 facet normal -0.321439 -0.946930 0.000000
  outer loop
   vertex -1709.493644 -3012.608116 -450.000000
   vertex -1721.880083 -3008.403486 -450.000000
   vertex -1721.880083 -3008.403486 -970.000000
  endloop
 endfacet
 facet normal -0.321439 -0.946930 -0.000000
  outer loop
   vertex -1709.493644 -3012.608116 -450.000000
   vertex -1721.880083 -3008.403486 -970.000000
   vertex -1709.493644 -3012.608116 -970.000000
  endloop
 endfacet
 facet normal -0.442289 -0.896873 0.000000
  outer loop
   vertex -1721.880083 -3008.403486 -450.000000
   vertex -1733.611740 -3002.618073 -450.000000
   vertex -1733.611740 -3002.618073 -970.000000
  endloop
 endfacet
 facet normal -0.442289 -0.896873 -0.000000
  outer loop
   vertex -1721.880083 -3008.403486 -450.000000
   vertex -1733.611740 -3002.618073 -970.000000
   vertex -1721.880083 -3008.403486 -970.000000
  endloop
 endfacet
 facet normal -0.555570 -0.831470 0.000000
  outer loop
   vertex -1733.611740 -3002.618073 -450.000000
   vertex -1744.487882 -2995.350867 -450.000000
   vertex -1744.487882 -2995.350867 -970.000000
  endloop
 endfacet
 facet normal -0.555570 -0.831470 -0.000000
  outer loop
   vertex -1733.611740 -3002.618073 -450.000000
   vertex -1744.487882 -2995.350867 -970.000000
   vertex -1733.611740 -3002.618073 -970.000000
  endloop
 endfacet
 facet normal -0.659346 -0.751840 0.000000
  outer loop
   vertex -1744.487882 -2995.350867 -450.000000
   vertex -1754.322418 -2986.726211 -450.000000
   vertex -1754.322418 -2986.726211 -970.000000
  endloop
 endfacet
 facet normal -0.659346 -0.751840 -0.000000
  outer loop
   vertex -1744.487882 -2995.350867 -450.000000
   vertex -1754.322418 -2986.726211 -970.000000
   vertex -1744.487882 -2995.350867 -970.000000
  endloop
 endfacet
 facet normal -0.751840 -0.659346 0.000000
  outer loop
   vertex -1754.322418 -2986.726211 -450.000000
   vertex -1762.947074 -2976.891676 -450.000000
   vertex -1762.947074 -2976.891676 -970.000000
  endloop
 endfacet
 facet normal -0.751840 -0.659346 -0.000000
  outer loop
   vertex -1754.322418 -2986.726211 -450.000000
   vertex -1762.947074 -2976.891676 -970.000000
   vertex -1754.322418 -2986.726211 -970.000000
  endloop
 endfacet
 facet normal -0.831470 -0.555570 0.000000
  outer loop
   vertex -1762.947074 -2976.891676 -450.000000
   vertex -1770.214280 -2966.015533 -450.000000
   vertex -1770.214280 -2966.015533 -970.000000
  endloop
 endfacet
 facet normal -0.831470 -0.555570 -0.000000
  outer loop
   vertex -1762.947074 -2976.891676 -450.000000
   vertex -1770.214280 -2966.015533 -970.000000
   vertex -1762.947074 -2976.891676 -970.000000
  endloop
 endfacet
 facet normal -0.896873 -0.442289 0.000000
  outer loop
   vertex -1770.214280 -2966.015533 -450.000000
   vertex -1775.999693 -2954.283876 -450.000000
   vertex -1775.999693 -2954.283876 -970.000000
  endloop
 endfacet
 facet normal -0.896873 -0.442289 -0.000000
  outer loop
   vertex -1770.214280 -2966.015533 -450.000000
   vertex -1775.999693 -2954.283876 -970.000000
   vertex -1770.214280 -2966.015533 -970.000000
  endloop
 endfacet
 facet normal -0.946930 -0.321439 0.000000
  outer loop
   vertex -1775.999693 -2954.283876 -450.000000
   vertex -1780.204322 -2941.897437 -450.000000
   vertex -1780.204322 -2941.897437 -970.000000
  endloop
 endfacet
 facet normal -0.946930 -0.321439 -0.000000
  outer loop
   vertex -1775.999693 -2954.283876 -450.000000
   vertex -1780.204322 -2941.897437 -970.000000
   vertex -1775.999693 -2954.283876 -970.000000
  endloop
 endfacet
 facet normal -0.980785 -0.195090 0.000000
  outer loop
   vertex -1780.204322 -2941.897437 -450.000000
   vertex -1782.756226 -2929.068152 -450.000000
   vertex -1782.756226 -2929.068152 -970.000000
  endloop
 endfacet
 facet normal -0.980785 -0.195090 -0.000000
  outer loop
   vertex -1780.204322 -2941.897437 -450.000000
   vertex -1782.756226 -2929.068152 -970.000000
   vertex -1780.204322 -2941.897437 -970.000000
  endloop
 endfacet
 facet normal -0.997859 -0.065403 0.000000
  outer loop
   vertex -1782.756226 -2929.068152 -450.000000
   vertex -1783.611740 -2916.015533 -450.000000
   vertex -1783.611740 -2916.015533 -970.000000
  endloop
 endfacet
 facet normal -0.997859 -0.065403 -0.000000
  outer loop
   vertex -1782.756226 -2929.068152 -450.000000
   vertex -1783.611740 -2916.015533 -970.000000
   vertex -1782.756226 -2929.068152 -970.000000
  endloop
 endfacet
 facet normal -0.997859 0.065403 0.000000
  outer loop
   vertex -1783.611740 -2916.015533 -450.000000
   vertex -1782.756226 -2902.962914 -450.000000
   vertex -1782.756226 -2902.962914 -970.000000
  endloop
 endfacet
 facet normal -0.997859 0.065403 0.000000
  outer loop
   vertex -1783.611740 -2916.015533 -450.000000
   vertex -1782.756226 -2902.962914 -970.000000
   vertex -1783.611740 -2916.015533 -970.000000
  endloop
 endfacet
 facet normal -0.980785 0.195090 0.000000
  outer loop
   vertex -1782.756226 -2902.962914 -450.000000
   vertex -1780.204322 -2890.133628 -450.000000
   vertex -1780.204322 -2890.133628 -970.000000
  endloop
 endfacet
 facet normal -0.980785 0.195090 0.000000
  outer loop
   vertex -1782.756226 -2902.962914 -450.000000
   vertex -1780.204322 -2890.133628 -970.000000
   vertex -1782.756226 -2902.962914 -970.000000
  endloop
 endfacet
 facet normal -0.946930 0.321439 0.000000
  outer loop
   vertex -1780.204322 -2890.133628 -450.000000
   vertex -1775.999693 -2877.747190 -450.000000
   vertex -1775.999693 -2877.747190 -970.000000
  endloop
 endfacet
 facet normal -0.946930 0.321439 0.000000
  outer loop
   vertex -1780.204322 -2890.133628 -450.000000
   vertex -1775.999693 -2877.747190 -970.000000
   vertex -1780.204322 -2890.133628 -970.000000
  endloop
 endfacet
 facet normal -0.896873 0.442289 0.000000
  outer loop
   vertex -1775.999693 -2877.747190 -450.000000
   vertex -1770.214280 -2866.015533 -450.000000
   vertex -1770.214280 -2866.015533 -970.000000
  endloop
 endfacet
 facet normal -0.896873 0.442289 0.000000
  outer loop
   vertex -1775.999693 -2877.747190 -450.000000
   vertex -1770.214280 -2866.015533 -970.000000
   vertex -1775.999693 -2877.747190 -970.000000
  endloop
 endfacet
 facet normal -0.831470 0.555570 0.000000
  outer loop
   vertex -1770.214280 -2866.015533 -450.000000
   vertex -1762.947074 -2855.139390 -450.000000
   vertex -1762.947074 -2855.139390 -970.000000
  endloop
 endfacet
 facet normal -0.831470 0.555570 0.000000
  outer loop
   vertex -1770.214280 -2866.015533 -450.000000
   vertex -1762.947074 -2855.139390 -970.000000
   vertex -1770.214280 -2866.015533 -970.000000
  endloop
 endfacet
 facet normal -0.751840 0.659346 0.000000
  outer loop
   vertex -1762.947074 -2855.139390 -450.000000
   vertex -1754.322418 -2845.304855 -450.000000
   vertex -1754.322418 -2845.304855 -970.000000
  endloop
 endfacet
 facet normal -0.751840 0.659346 0.000000
  outer loop
   vertex -1762.947074 -2855.139390 -450.000000
   vertex -1754.322418 -2845.304855 -970.000000
   vertex -1762.947074 -2855.139390 -970.000000
  endloop
 endfacet
 facet normal -0.659346 0.751840 0.000000
  outer loop
   vertex -1754.322418 -2845.304855 -450.000000
   vertex -1744.487882 -2836.680199 -450.000000
   vertex -1744.487882 -2836.680199 -970.000000
  endloop
 endfacet
 facet normal -0.659346 0.751840 0.000000
  outer loop
   vertex -1754.322418 -2845.304855 -450.000000
   vertex -1744.487882 -2836.680199 -970.000000
   vertex -1754.322418 -2845.304855 -970.000000
  endloop
 endfacet
 facet normal -0.555570 0.831470 0.000000
  outer loop
   vertex -1744.487882 -2836.680199 -450.000000
   vertex -1733.611740 -2829.412993 -450.000000
   vertex -1733.611740 -2829.412993 -970.000000
  endloop
 endfacet
 facet normal -0.555570 0.831470 0.000000
  outer loop
   vertex -1744.487882 -2836.680199 -450.000000
   vertex -1733.611740 -2829.412993 -970.000000
   vertex -1744.487882 -2836.680199 -970.000000
  endloop
 endfacet
 facet normal -0.442289 0.896873 0.000000
  outer loop
   vertex -1733.611740 -2829.412993 -450.000000
   vertex -1721.880083 -2823.627580 -450.000000
   vertex -1721.880083 -2823.627580 -970.000000
  endloop
 endfacet
 facet normal -0.442289 0.896873 0.000000
  outer loop
   vertex -1733.611740 -2829.412993 -450.000000
   vertex -1721.880083 -2823.627580 -970.000000
   vertex -1733.611740 -2829.412993 -970.000000
  endloop
 endfacet
 facet normal -0.321439 0.946930 0.000000
  outer loop
   vertex -1721.880083 -2823.627580 -450.000000
   vertex -1709.493644 -2819.422950 -450.000000
   vertex -1709.493644 -2819.422950 -970.000000
  endloop
 endfacet
 facet normal -0.321439 0.946930 0.000000
  outer loop
   vertex -1721.880083 -2823.627580 -450.000000
   vertex -1709.493644 -2819.422950 -970.000000
   vertex -1721.880083 -2823.627580 -970.000000
  endloop
 endfacet
 facet normal -0.195090 0.980785 0.000000
  outer loop
   vertex -1709.493644 -2819.422950 -450.000000
   vertex -1696.664359 -2816.871047 -450.000000
   vertex -1696.664359 -2816.871047 -970.000000
  endloop
 endfacet
 facet normal -0.195090 0.980785 0.000000
  outer loop
   vertex -1709.493644 -2819.422950 -450.000000
   vertex -1696.664359 -2816.871047 -970.000000
   vertex -1709.493644 -2819.422950 -970.000000
  endloop
 endfacet
 facet normal -0.065403 0.997859 0.000000
  outer loop
   vertex -1696.664359 -2816.871047 -450.000000
   vertex -1683.611740 -2816.015533 -450.000000
   vertex -1683.611740 -2816.015533 -970.000000
  endloop
 endfacet
 facet normal -0.065403 0.997859 0.000000
  outer loop
   vertex -1696.664359 -2816.871047 -450.000000
   vertex -1683.611740 -2816.015533 -970.000000
   vertex -1696.664359 -2816.871047 -970.000000
  endloop
 endfacet
 facet normal -0.065403 -0.997859 0.000000
  outer loop
   vertex -1672.125435 -2828.768385 -970.000000
   vertex -1672.125435 -2828.768385 -450.000000
   vertex -1683.611740 -2828.015533 -450.000000
  endloop
 endfacet
 facet normal -0.065403 -0.997859 0.000000
  outer loop
   vertex -1683.611740 -2828.015533 -970.000000
   vertex -1672.125435 -2828.768385 -970.000000
   vertex -1683.611740 -2828.015533 -450.000000
  endloop
 endfacet
 facet normal -0.195090 -0.980785 0.000000
  outer loop
   vertex -1660.835664 -2831.014060 -970.000000
   vertex -1660.835664 -2831.014060 -450.000000
   vertex -1672.125435 -2828.768385 -450.000000
  endloop
 endfacet
 facet normal -0.195090 -0.980785 0.000000
  outer loop
   vertex -1672.125435 -2828.768385 -970.000000
   vertex -1660.835664 -2831.014060 -970.000000
   vertex -1672.125435 -2828.768385 -450.000000
  endloop
 endfacet
 facet normal -0.321439 -0.946930 0.000000
  outer loop
   vertex -1649.935598 -2834.714134 -970.000000
   vertex -1649.935598 -2834.714134 -450.000000
   vertex -1660.835664 -2831.014060 -450.000000
  endloop
 endfacet
 facet normal -0.321439 -0.946930 0.000000
  outer loop
   vertex -1660.835664 -2831.014060 -970.000000
   vertex -1649.935598 -2834.714134 -970.000000
   vertex -1660.835664 -2831.014060 -450.000000
  endloop
 endfacet
 facet normal -0.442289 -0.896873 0.000000
  outer loop
   vertex -1639.611740 -2839.805297 -970.000000
   vertex -1639.611740 -2839.805297 -450.000000
   vertex -1649.935598 -2834.714134 -450.000000
  endloop
 endfacet
 facet normal -0.442289 -0.896873 0.000000
  outer loop
   vertex -1649.935598 -2834.714134 -970.000000
   vertex -1639.611740 -2839.805297 -970.000000
   vertex -1649.935598 -2834.714134 -450.000000
  endloop
 endfacet
 facet normal -0.555570 -0.831470 0.000000
  outer loop
   vertex -1630.040734 -2846.200439 -970.000000
   vertex -1630.040734 -2846.200439 -450.000000
   vertex -1639.611740 -2839.805297 -450.000000
  endloop
 endfacet
 facet normal -0.555570 -0.831470 0.000000
  outer loop
   vertex -1639.611740 -2839.805297 -970.000000
   vertex -1630.040734 -2846.200439 -970.000000
   vertex -1639.611740 -2839.805297 -450.000000
  endloop
 endfacet
 facet normal -0.659346 -0.751840 0.000000
  outer loop
   vertex -1621.386343 -2853.790136 -970.000000
   vertex -1621.386343 -2853.790136 -450.000000
   vertex -1630.040734 -2846.200439 -450.000000
  endloop
 endfacet
 facet normal -0.659346 -0.751840 0.000000
  outer loop
   vertex -1630.040734 -2846.200439 -970.000000
   vertex -1621.386343 -2853.790136 -970.000000
   vertex -1630.040734 -2846.200439 -450.000000
  endloop
 endfacet
 facet normal -0.751840 -0.659346 0.000000
  outer loop
   vertex -1613.796646 -2862.444527 -970.000000
   vertex -1613.796646 -2862.444527 -450.000000
   vertex -1621.386343 -2853.790136 -450.000000
  endloop
 endfacet
 facet normal -0.751840 -0.659346 0.000000
  outer loop
   vertex -1621.386343 -2853.790136 -970.000000
   vertex -1613.796646 -2862.444527 -970.000000
   vertex -1621.386343 -2853.790136 -450.000000
  endloop
 endfacet
 facet normal -0.831470 -0.555570 0.000000
  outer loop
   vertex -1607.401504 -2872.015533 -970.000000
   vertex -1607.401504 -2872.015533 -450.000000
   vertex -1613.796646 -2862.444527 -450.000000
  endloop
 endfacet
 facet normal -0.831470 -0.555570 0.000000
  outer loop
   vertex -1613.796646 -2862.444527 -970.000000
   vertex -1607.401504 -2872.015533 -970.000000
   vertex -1613.796646 -2862.444527 -450.000000
  endloop
 endfacet
 facet normal -0.896873 -0.442289 0.000000
  outer loop
   vertex -1602.310341 -2882.339391 -970.000000
   vertex -1602.310341 -2882.339391 -450.000000
   vertex -1607.401504 -2872.015533 -450.000000
  endloop
 endfacet
 facet normal -0.896873 -0.442289 0.000000
  outer loop
   vertex -1607.401504 -2872.015533 -970.000000
   vertex -1602.310341 -2882.339391 -970.000000
   vertex -1607.401504 -2872.015533 -450.000000
  endloop
 endfacet
 facet normal -0.946930 -0.321439 0.000000
  outer loop
   vertex -1598.610267 -2893.239457 -970.000000
   vertex -1598.610267 -2893.239457 -450.000000
   vertex -1602.310341 -2882.339391 -450.000000
  endloop
 endfacet
 facet normal -0.946930 -0.321439 0.000000
  outer loop
   vertex -1602.310341 -2882.339391 -970.000000
   vertex -1598.610267 -2893.239457 -970.000000
   vertex -1602.310341 -2882.339391 -450.000000
  endloop
 endfacet
 facet normal -0.980785 -0.195090 0.000000
  outer loop
   vertex -1596.364592 -2904.529228 -970.000000
   vertex -1596.364592 -2904.529228 -450.000000
   vertex -1598.610267 -2893.239457 -450.000000
  endloop
 endfacet
 facet normal -0.980785 -0.195090 0.000000
  outer loop
   vertex -1598.610267 -2893.239457 -970.000000
   vertex -1596.364592 -2904.529228 -970.000000
   vertex -1598.610267 -2893.239457 -450.000000
  endloop
 endfacet
 facet normal -0.997859 -0.065403 0.000000
  outer loop
   vertex -1595.611740 -2916.015533 -970.000000
   vertex -1595.611740 -2916.015533 -450.000000
   vertex -1596.364592 -2904.529228 -450.000000
  endloop
 endfacet
 facet normal -0.997859 -0.065403 0.000000
  outer loop
   vertex -1596.364592 -2904.529228 -970.000000
   vertex -1595.611740 -2916.015533 -970.000000
   vertex -1596.364592 -2904.529228 -450.000000
  endloop
 endfacet
 facet normal -0.997859 0.065403 0.000000
  outer loop
   vertex -1596.364592 -2927.501838 -970.000000
   vertex -1596.364592 -2927.501838 -450.000000
   vertex -1595.611740 -2916.015533 -450.000000
  endloop
 endfacet
 facet normal -0.997859 0.065403 0.000000
  outer loop
   vertex -1595.611740 -2916.015533 -970.000000
   vertex -1596.364592 -2927.501838 -970.000000
   vertex -1595.611740 -2916.015533 -450.000000
  endloop
 endfacet
 facet normal -0.980785 0.195090 0.000000
  outer loop
   vertex -1598.610267 -2938.791609 -970.000000
   vertex -1598.610267 -2938.791609 -450.000000
   vertex -1596.364592 -2927.501838 -450.000000
  endloop
 endfacet
 facet normal -0.980785 0.195090 0.000000
  outer loop
   vertex -1596.364592 -2927.501838 -970.000000
   vertex -1598.610267 -2938.791609 -970.000000
   vertex -1596.364592 -2927.501838 -450.000000
  endloop
 endfacet
 facet normal -0.946930 0.321439 0.000000
  outer loop
   vertex -1602.310341 -2949.691675 -970.000000
   vertex -1602.310341 -2949.691675 -450.000000
   vertex -1598.610267 -2938.791609 -450.000000
  endloop
 endfacet
 facet normal -0.946930 0.321439 0.000000
  outer loop
   vertex -1598.610267 -2938.791609 -970.000000
   vertex -1602.310341 -2949.691675 -970.000000
   vertex -1598.610267 -2938.791609 -450.000000
  endloop
 endfacet
 facet normal -0.896873 0.442289 0.000000
  outer loop
   vertex -1607.401504 -2960.015533 -970.000000
   vertex -1607.401504 -2960.015533 -450.000000
   vertex -1602.310341 -2949.691675 -450.000000
  endloop
 endfacet
 facet normal -0.896873 0.442289 0.000000
  outer loop
   vertex -1602.310341 -2949.691675 -970.000000
   vertex -1607.401504 -2960.015533 -970.000000
   vertex -1602.310341 -2949.691675 -450.000000
  endloop
 endfacet
 facet normal -0.831470 0.555570 0.000000
  outer loop
   vertex -1613.796646 -2969.586539 -970.000000
   vertex -1613.796646 -2969.586539 -450.000000
   vertex -1607.401504 -2960.015533 -450.000000
  endloop
 endfacet
 facet normal -0.831470 0.555570 0.000000
  outer loop
   vertex -1607.401504 -2960.015533 -970.000000
   vertex -1613.796646 -2969.586539 -970.000000
   vertex -1607.401504 -2960.015533 -450.000000
  endloop
 endfacet
 facet normal -0.751840 0.659346 0.000000
  outer loop
   vertex -1621.386343 -2978.240930 -970.000000
   vertex -1621.386343 -2978.240930 -450.000000
   vertex -1613.796646 -2969.586539 -450.000000
  endloop
 endfacet
 facet normal -0.751840 0.659346 0.000000
  outer loop
   vertex -1613.796646 -2969.586539 -970.000000
   vertex -1621.386343 -2978.240930 -970.000000
   vertex -1613.796646 -2969.586539 -450.000000
  endloop
 endfacet
 facet normal -0.659346 0.751840 0.000000
  outer loop
   vertex -1630.040734 -2985.830627 -970.000000
   vertex -1630.040734 -2985.830627 -450.000000
   vertex -1621.386343 -2978.240930 -450.000000
  endloop
 endfacet
 facet normal -0.659346 0.751840 0.000000
  outer loop
   vertex -1621.386343 -2978.240930 -970.000000
   vertex -1630.040734 -2985.830627 -970.000000
   vertex -1621.386343 -2978.240930 -450.000000
  endloop
 endfacet
 facet normal -0.555570 0.831470 0.000000
  outer loop
   vertex -1639.611740 -2992.225768 -970.000000
   vertex -1639.611740 -2992.225768 -450.000000
   vertex -1630.040734 -2985.830627 -450.000000
  endloop
 endfacet
 facet normal -0.555570 0.831470 0.000000
  outer loop
   vertex -1630.040734 -2985.830627 -970.000000
   vertex -1639.611740 -2992.225768 -970.000000
   vertex -1630.040734 -2985.830627 -450.000000
  endloop
 endfacet
 facet normal -0.442289 0.896873 0.000000
  outer loop
   vertex -1649.935598 -2997.316932 -970.000000
   vertex -1649.935598 -2997.316932 -450.000000
   vertex -1639.611740 -2992.225768 -450.000000
  endloop
 endfacet
 facet normal -0.442289 0.896873 0.000000
  outer loop
   vertex -1639.611740 -2992.225768 -970.000000
   vertex -1649.935598 -2997.316932 -970.000000
   vertex -1639.611740 -2992.225768 -450.000000
  endloop
 endfacet
 facet normal -0.321439 0.946930 0.000000
  outer loop
   vertex -1660.835664 -3001.017006 -970.000000
   vertex -1660.835664 -3001.017006 -450.000000
   vertex -1649.935598 -2997.316932 -450.000000
  endloop
 endfacet
 facet normal -0.321439 0.946930 0.000000
  outer loop
   vertex -1649.935598 -2997.316932 -970.000000
   vertex -1660.835664 -3001.017006 -970.000000
   vertex -1649.935598 -2997.316932 -450.000000
  endloop
 endfacet
 facet normal -0.195090 0.980785 0.000000
  outer loop
   vertex -1672.125435 -3003.262681 -970.000000
   vertex -1672.125435 -3003.262681 -450.000000
   vertex -1660.835664 -3001.017006 -450.000000
  endloop
 endfacet
 facet normal -0.195090 0.980785 0.000000
  outer loop
   vertex -1660.835664 -3001.017006 -970.000000
   vertex -1672.125435 -3003.262681 -970.000000
   vertex -1660.835664 -3001.017006 -450.000000
  endloop
 endfacet
 facet normal -0.065403 0.997859 0.000000
  outer loop
   vertex -1683.611740 -3004.015533 -970.000000
   vertex -1683.611740 -3004.015533 -450.000000
   vertex -1672.125435 -3003.262681 -450.000000
  endloop
 endfacet
 facet normal -0.065403 0.997859 0.000000
  outer loop
   vertex -1672.125435 -3003.262681 -970.000000
   vertex -1683.611740 -3004.015533 -970.000000
   vertex -1672.125435 -3003.262681 -450.000000
  endloop
 endfacet
 facet normal 0.065403 0.997859 -0.000000
  outer loop
   vertex -1695.098045 -3003.262681 -970.000000
   vertex -1695.098045 -3003.262681 -450.000000
   vertex -1683.611740 -3004.015533 -450.000000
  endloop
 endfacet
 facet normal 0.065403 0.997859 -0.000000
  outer loop
   vertex -1683.611740 -3004.015533 -970.000000
   vertex -1695.098045 -3003.262681 -970.000000
   vertex -1683.611740 -3004.015533 -450.000000
  endloop
 endfacet
 facet normal 0.195090 0.980785 -0.000000
  outer loop
   vertex -1706.387816 -3001.017006 -970.000000
   vertex -1706.387816 -3001.017006 -450.000000
   vertex -1695.098045 -3003.262681 -450.000000
  endloop
 endfacet
 facet normal 0.195090 0.980785 -0.000000
  outer loop
   vertex -1695.098045 -3003.262681 -970.000000
   vertex -1706.387816 -3001.017006 -970.000000
   vertex -1695.098045 -3003.262681 -450.000000
  endloop
 endfacet
 facet normal 0.321439 0.946930 -0.000000
  outer loop
   vertex -1717.287882 -2997.316932 -970.000000
   vertex -1717.287882 -2997.316932 -450.000000
   vertex -1706.387816 -3001.017006 -450.000000
  endloop
 endfacet
 facet normal 0.321439 0.946930 -0.000000
  outer loop
   vertex -1706.387816 -3001.017006 -970.000000
   vertex -1717.287882 -2997.316932 -970.000000
   vertex -1706.387816 -3001.017006 -450.000000
  endloop
 endfacet
 facet normal 0.442289 0.896873 -0.000000
  outer loop
   vertex -1727.611740 -2992.225768 -970.000000
   vertex -1727.611740 -2992.225768 -450.000000
   vertex -1717.287882 -2997.316932 -450.000000
  endloop
 endfacet
 facet normal 0.442289 0.896873 -0.000000
  outer loop
   vertex -1717.287882 -2997.316932 -970.000000
   vertex -1727.611740 -2992.225768 -970.000000
   vertex -1717.287882 -2997.316932 -450.000000
  endloop
 endfacet
 facet normal 0.555570 0.831470 -0.000000
  outer loop
   vertex -1737.182745 -2985.830627 -970.000000
   vertex -1737.182745 -2985.830627 -450.000000
   vertex -1727.611740 -2992.225768 -450.000000
  endloop
 endfacet
 facet normal 0.555570 0.831470 -0.000000
  outer loop
   vertex -1727.611740 -2992.225768 -970.000000
   vertex -1737.182745 -2985.830627 -970.000000
   vertex -1727.611740 -2992.225768 -450.000000
  endloop
 endfacet
 facet normal 0.659346 0.751840 -0.000000
  outer loop
   vertex -1745.837136 -2978.240930 -970.000000
   vertex -1745.837136 -2978.240930 -450.000000
   vertex -1737.182745 -2985.830627 -450.000000
  endloop
 endfacet
 facet normal 0.659346 0.751840 -0.000000
  outer loop
   vertex -1737.182745 -2985.830627 -970.000000
   vertex -1745.837136 -2978.240930 -970.000000
   vertex -1737.182745 -2985.830627 -450.000000
  endloop
 endfacet
 facet normal 0.751840 0.659346 -0.000000
  outer loop
   vertex -1753.426834 -2969.586539 -970.000000
   vertex -1753.426834 -2969.586539 -450.000000
   vertex -1745.837136 -2978.240930 -450.000000
  endloop
 endfacet
 facet normal 0.751840 0.659346 -0.000000
  outer loop
   vertex -1745.837136 -2978.240930 -970.000000
   vertex -1753.426834 -2969.586539 -970.000000
   vertex -1745.837136 -2978.240930 -450.000000
  endloop
 endfacet
 facet normal 0.831470 0.555570 -0.000000
  outer loop
   vertex -1759.821975 -2960.015533 -970.000000
   vertex -1759.821975 -2960.015533 -450.000000
   vertex -1753.426834 -2969.586539 -450.000000
  endloop
 endfacet
 facet normal 0.831470 0.555570 -0.000000
  outer loop
   vertex -1753.426834 -2969.586539 -970.000000
   vertex -1759.821975 -2960.015533 -970.000000
   vertex -1753.426834 -2969.586539 -450.000000
  endloop
 endfacet
 facet normal 0.896873 0.442289 -0.000000
  outer loop
   vertex -1764.913138 -2949.691675 -970.000000
   vertex -1764.913138 -2949.691675 -450.000000
   vertex -1759.821975 -2960.015533 -450.000000
  endloop
 endfacet
 facet normal 0.896873 0.442289 -0.000000
  outer loop
   vertex -1759.821975 -2960.015533 -970.000000
   vertex -1764.913138 -2949.691675 -970.000000
   vertex -1759.821975 -2960.015533 -450.000000
  endloop
 endfacet
 facet normal 0.946930 0.321439 -0.000000
  outer loop
   vertex -1768.613212 -2938.791609 -970.000000
   vertex -1768.613212 -2938.791609 -450.000000
   vertex -1764.913138 -2949.691675 -450.000000
  endloop
 endfacet
 facet normal 0.946930 0.321439 -0.000000
  outer loop
   vertex -1764.913138 -2949.691675 -970.000000
   vertex -1768.613212 -2938.791609 -970.000000
   vertex -1764.913138 -2949.691675 -450.000000
  endloop
 endfacet
 facet normal 0.980785 0.195090 -0.000000
  outer loop
   vertex -1770.858887 -2927.501838 -970.000000
   vertex -1770.858887 -2927.501838 -450.000000
   vertex -1768.613212 -2938.791609 -450.000000
  endloop
 endfacet
 facet normal 0.980785 0.195090 -0.000000
  outer loop
   vertex -1768.613212 -2938.791609 -970.000000
   vertex -1770.858887 -2927.501838 -970.000000
   vertex -1768.613212 -2938.791609 -450.000000
  endloop
 endfacet
 facet normal 0.997859 0.065403 -0.000000
  outer loop
   vertex -1771.611740 -2916.015533 -970.000000
   vertex -1771.611740 -2916.015533 -450.000000
   vertex -1770.858887 -2927.501838 -450.000000
  endloop
 endfacet
 facet normal 0.997859 0.065403 -0.000000
  outer loop
   vertex -1770.858887 -2927.501838 -970.000000
   vertex -1771.611740 -2916.015533 -970.000000
   vertex -1770.858887 -2927.501838 -450.000000
  endloop
 endfacet
 facet normal 0.997859 -0.065403 0.000000
  outer loop
   vertex -1770.858887 -2904.529228 -970.000000
   vertex -1770.858887 -2904.529228 -450.000000
   vertex -1771.611740 -2916.015533 -450.000000
  endloop
 endfacet
 facet normal 0.997859 -0.065403 0.000000
  outer loop
   vertex -1771.611740 -2916.015533 -970.000000
   vertex -1770.858887 -2904.529228 -970.000000
   vertex -1771.611740 -2916.015533 -450.000000
  endloop
 endfacet
 facet normal 0.980785 -0.195090 0.000000
  outer loop
   vertex -1768.613212 -2893.239457 -970.000000
   vertex -1768.613212 -2893.239457 -450.000000
   vertex -1770.858887 -2904.529228 -450.000000
  endloop
 endfacet
 facet normal 0.980785 -0.195090 0.000000
  outer loop
   vertex -1770.858887 -2904.529228 -970.000000
   vertex -1768.613212 -2893.239457 -970.000000
   vertex -1770.858887 -2904.529228 -450.000000
  endloop
 endfacet
 facet normal 0.946930 -0.321439 0.000000
  outer loop
   vertex -1764.913138 -2882.339391 -970.000000
   vertex -1764.913138 -2882.339391 -450.000000
   vertex -1768.613212 -2893.239457 -450.000000
  endloop
 endfacet
 facet normal 0.946930 -0.321439 0.000000
  outer loop
   vertex -1768.613212 -2893.239457 -970.000000
   vertex -1764.913138 -2882.339391 -970.000000
   vertex -1768.613212 -2893.239457 -450.000000
  endloop
 endfacet
 facet normal 0.896873 -0.442289 0.000000
  outer loop
   vertex -1759.821975 -2872.015533 -970.000000
   vertex -1759.821975 -2872.015533 -450.000000
   vertex -1764.913138 -2882.339391 -450.000000
  endloop
 endfacet
 facet normal 0.896873 -0.442289 0.000000
  outer loop
   vertex -1764.913138 -2882.339391 -970.000000
   vertex -1759.821975 -2872.015533 -970.000000
   vertex -1764.913138 -2882.339391 -450.000000
  endloop
 endfacet
 facet normal 0.831470 -0.555570 0.000000
  outer loop
   vertex -1753.426834 -2862.444527 -970.000000
   vertex -1753.426834 -2862.444527 -450.000000
   vertex -1759.821975 -2872.015533 -450.000000
  endloop
 endfacet
 facet normal 0.831470 -0.555570 0.000000
  outer loop
   vertex -1759.821975 -2872.015533 -970.000000
   vertex -1753.426834 -2862.444527 -970.000000
   vertex -1759.821975 -2872.015533 -450.000000
  endloop
 endfacet
 facet normal 0.751840 -0.659346 0.000000
  outer loop
   vertex -1745.837136 -2853.790136 -970.000000
   vertex -1745.837136 -2853.790136 -450.000000
   vertex -1753.426834 -2862.444527 -450.000000
  endloop
 endfacet
 facet normal 0.751840 -0.659346 0.000000
  outer loop
   vertex -1753.426834 -2862.444527 -970.000000
   vertex -1745.837136 -2853.790136 -970.000000
   vertex -1753.426834 -2862.444527 -450.000000
  endloop
 endfacet
 facet normal 0.659346 -0.751840 0.000000
  outer loop
   vertex -1737.182745 -2846.200439 -970.000000
   vertex -1737.182745 -2846.200439 -450.000000
   vertex -1745.837136 -2853.790136 -450.000000
  endloop
 endfacet
 facet normal 0.659346 -0.751840 0.000000
  outer loop
   vertex -1745.837136 -2853.790136 -970.000000
   vertex -1737.182745 -2846.200439 -970.000000
   vertex -1745.837136 -2853.790136 -450.000000
  endloop
 endfacet
 facet normal 0.555570 -0.831470 0.000000
  outer loop
   vertex -1727.611740 -2839.805297 -970.000000
   vertex -1727.611740 -2839.805297 -450.000000
   vertex -1737.182745 -2846.200439 -450.000000
  endloop
 endfacet
 facet normal 0.555570 -0.831470 0.000000
  outer loop
   vertex -1737.182745 -2846.200439 -970.000000
   vertex -1727.611740 -2839.805297 -970.000000
   vertex -1737.182745 -2846.200439 -450.000000
  endloop
 endfacet
 facet normal 0.442289 -0.896873 0.000000
  outer loop
   vertex -1717.287882 -2834.714134 -970.000000
   vertex -1717.287882 -2834.714134 -450.000000
   vertex -1727.611740 -2839.805297 -450.000000
  endloop
 endfacet
 facet normal 0.442289 -0.896873 0.000000
  outer loop
   vertex -1727.611740 -2839.805297 -970.000000
   vertex -1717.287882 -2834.714134 -970.000000
   vertex -1727.611740 -2839.805297 -450.000000
  endloop
 endfacet
 facet normal 0.321439 -0.946930 0.000000
  outer loop
   vertex -1706.387816 -2831.014060 -970.000000
   vertex -1706.387816 -2831.014060 -450.000000
   vertex -1717.287882 -2834.714134 -450.000000
  endloop
 endfacet
 facet normal 0.321439 -0.946930 0.000000
  outer loop
   vertex -1717.287882 -2834.714134 -970.000000
   vertex -1706.387816 -2831.014060 -970.000000
   vertex -1717.287882 -2834.714134 -450.000000
  endloop
 endfacet
 facet normal 0.195090 -0.980785 0.000000
  outer loop
   vertex -1695.098045 -2828.768385 -970.000000
   vertex -1695.098045 -2828.768385 -450.000000
   vertex -1706.387816 -2831.014060 -450.000000
  endloop
 endfacet
 facet normal 0.195090 -0.980785 0.000000
  outer loop
   vertex -1706.387816 -2831.014060 -970.000000
   vertex -1695.098045 -2828.768385 -970.000000
   vertex -1706.387816 -2831.014060 -450.000000
  endloop
 endfacet
 facet normal 0.065403 -0.997859 0.000000
  outer loop
   vertex -1683.611740 -2828.015533 -970.000000
   vertex -1683.611740 -2828.015533 -450.000000
   vertex -1695.098045 -2828.768385 -450.000000
  endloop
 endfacet
 facet normal 0.065403 -0.997859 0.000000
  outer loop
   vertex -1695.098045 -2828.768385 -970.000000
   vertex -1683.611740 -2828.015533 -970.000000
   vertex -1695.098045 -2828.768385 -450.000000
  endloop
 endfacet
endsolid SIC_LOX_feed_3_elbow
