solid SII_LOX_feed_3_Hrun
 facet normal -0.863288 0.500457 0.065403
  outer loop
   vertex -1562.392690 -2515.676665 -120.000000
   vertex -1561.726564 -2516.062825 -108.252643
   vertex -1504.182075 -2416.798581 -108.252643
  endloop
 endfacet
 facet normal -0.863288 0.500457 0.065403
  outer loop
   vertex -1562.392690 -2515.676665 -120.000000
   vertex -1504.182075 -2416.798581 -108.252643
   vertex -1504.848201 -2416.412422 -120.000000
  endloop
 endfacet
 facet normal -0.848517 0.491894 0.195090
  outer loop
   vertex -1561.726564 -2516.062825 -108.252643
   vertex -1559.739586 -2517.214696 -96.706286
   vertex -1502.195097 -2417.950453 -96.706286
  endloop
 endfacet
 facet normal -0.848517 0.491894 0.195090
  outer loop
   vertex -1561.726564 -2516.062825 -108.252643
   vertex -1502.195097 -2417.950453 -96.706286
   vertex -1504.182075 -2416.798581 -108.252643
  endloop
 endfacet
 facet normal -0.819227 0.474914 0.321439
  outer loop
   vertex -1559.739586 -2517.214696 -96.706286
   vertex -1556.465752 -2519.112571 -85.558491
   vertex -1498.921263 -2419.848328 -85.558491
  endloop
 endfacet
 facet normal -0.819227 0.474914 0.321439
  outer loop
   vertex -1559.739586 -2517.214696 -96.706286
   vertex -1498.921263 -2419.848328 -85.558491
   vertex -1502.195097 -2417.950453 -96.706286
  endloop
 endfacet
 facet normal -0.775920 0.449809 0.442289
  outer loop
   vertex -1556.465752 -2519.112571 -85.558491
   vertex -1551.961079 -2521.723976 -75.000000
   vertex -1494.416590 -2422.459732 -75.000000
  endloop
 endfacet
 facet normal -0.775920 0.449809 0.442289
  outer loop
   vertex -1556.465752 -2519.112571 -85.558491
   vertex -1494.416590 -2422.459732 -75.000000
   vertex -1498.921263 -2419.848328 -85.558491
  endloop
 endfacet
 facet normal -0.719338 0.417007 0.555570
  outer loop
   vertex -1551.961079 -2521.723976 -75.000000
   vertex -1546.302643 -2525.004228 -65.211471
   vertex -1488.758154 -2425.739985 -65.211471
  endloop
 endfacet
 facet normal -0.719338 0.417007 0.555570
  outer loop
   vertex -1551.961079 -2521.723976 -75.000000
   vertex -1488.758154 -2425.739985 -65.211471
   vertex -1494.416590 -2422.459732 -75.000000
  endloop
 endfacet
 facet normal -0.650447 0.377071 0.659346
  outer loop
   vertex -1546.302643 -2525.004228 -65.211471
   vertex -1539.587262 -2528.897203 -56.360390
   vertex -1482.042773 -2429.632959 -56.360390
  endloop
 endfacet
 facet normal -0.650447 0.377071 0.659346
  outer loop
   vertex -1546.302643 -2525.004228 -65.211471
   vertex -1482.042773 -2429.632959 -56.360390
   vertex -1488.758154 -2425.739985 -65.211471
  endloop
 endfacet
 facet normal -0.570426 0.330682 0.751840
  outer loop
   vertex -1539.587262 -2528.897203 -56.360390
   vertex -1531.929837 -2533.336290 -48.598199
   vertex -1474.385348 -2434.072046 -48.598199
  endloop
 endfacet
 facet normal -0.570426 0.330682 0.751840
  outer loop
   vertex -1539.587262 -2528.897203 -56.360390
   vertex -1474.385348 -2434.072046 -48.598199
   vertex -1482.042773 -2429.632959 -56.360390
  endloop
 endfacet
 facet normal -0.480646 0.278635 0.831470
  outer loop
   vertex -1531.929837 -2533.336290 -48.598199
   vertex -1523.461390 -2538.245535 -42.057714
   vertex -1465.916901 -2438.981291 -42.057714
  endloop
 endfacet
 facet normal -0.480646 0.278635 0.831470
  outer loop
   vertex -1531.929837 -2533.336290 -48.598199
   vertex -1465.916901 -2438.981291 -42.057714
   vertex -1474.385348 -2434.072046 -48.598199
  endloop
 endfacet
 facet normal -0.382642 0.221821 0.896873
  outer loop
   vertex -1523.461390 -2538.245535 -42.057714
   vertex -1514.326817 -2543.540939 -36.850842
   vertex -1456.782328 -2444.276696 -36.850842
  endloop
 endfacet
 facet normal -0.382642 0.221821 0.896873
  outer loop
   vertex -1523.461390 -2538.245535 -42.057714
   vertex -1456.782328 -2444.276696 -36.850842
   vertex -1465.916901 -2438.981291 -42.057714
  endloop
 endfacet
 facet normal -0.278090 0.161212 0.946930
  outer loop
   vertex -1514.326817 -2543.540939 -36.850842
   vertex -1504.682413 -2549.131898 -33.066676
   vertex -1447.137924 -2449.867654 -33.066676
  endloop
 endfacet
 facet normal -0.278090 0.161212 0.946930
  outer loop
   vertex -1514.326817 -2543.540939 -36.850842
   vertex -1447.137924 -2449.867654 -33.066676
   vertex -1456.782328 -2444.276696 -36.850842
  endloop
 endfacet
 facet normal -0.168780 0.097844 0.980785
  outer loop
   vertex -1504.682413 -2549.131898 -33.066676
   vertex -1494.693198 -2554.922747 -30.769962
   vertex -1437.148709 -2455.658504 -30.769962
  endloop
 endfacet
 facet normal -0.168780 0.097844 0.980785
  outer loop
   vertex -1504.682413 -2549.131898 -33.066676
   vertex -1437.148709 -2455.658504 -30.769962
   vertex -1447.137924 -2449.867654 -33.066676
  endloop
 endfacet
 facet normal -0.056583 0.032802 0.997859
  outer loop
   vertex -1494.693198 -2554.922747 -30.769962
   vertex -1484.530089 -2560.814404 -30.000000
   vertex -1426.985601 -2461.550161 -30.000000
  endloop
 endfacet
 facet normal -0.056583 0.032802 0.997859
  outer loop
   vertex -1494.693198 -2554.922747 -30.769962
   vertex -1426.985601 -2461.550161 -30.000000
   vertex -1437.148709 -2455.658504 -30.769962
  endloop
 endfacet
 facet normal 0.056583 -0.032802 0.997859
  outer loop
   vertex -1484.530089 -2560.814404 -30.000000
   vertex -1474.366981 -2566.706062 -30.769962
   vertex -1416.822492 -2467.441818 -30.769962
  endloop
 endfacet
 facet normal 0.056583 -0.032802 0.997859
  outer loop
   vertex -1484.530089 -2560.814404 -30.000000
   vertex -1416.822492 -2467.441818 -30.769962
   vertex -1426.985601 -2461.550161 -30.000000
  endloop
 endfacet
 facet normal 0.168780 -0.097844 0.980785
  outer loop
   vertex -1474.366981 -2566.706062 -30.769962
   vertex -1464.377766 -2572.496911 -33.066676
   vertex -1406.833277 -2473.232668 -33.066676
  endloop
 endfacet
 facet normal 0.168780 -0.097844 0.980785
  outer loop
   vertex -1474.366981 -2566.706062 -30.769962
   vertex -1406.833277 -2473.232668 -33.066676
   vertex -1416.822492 -2467.441818 -30.769962
  endloop
 endfacet
 facet normal 0.278090 -0.161212 0.946930
  outer loop
   vertex -1464.377766 -2572.496911 -33.066676
   vertex -1454.733362 -2578.087869 -36.850842
   vertex -1397.188873 -2478.823626 -36.850842
  endloop
 endfacet
 facet normal 0.278090 -0.161212 0.946930
  outer loop
   vertex -1464.377766 -2572.496911 -33.066676
   vertex -1397.188873 -2478.823626 -36.850842
   vertex -1406.833277 -2473.232668 -33.066676
  endloop
 endfacet
 facet normal 0.382642 -0.221821 0.896873
  outer loop
   vertex -1454.733362 -2578.087869 -36.850842
   vertex -1445.598789 -2583.383274 -42.057714
   vertex -1388.054300 -2484.119031 -42.057714
  endloop
 endfacet
 facet normal 0.382642 -0.221821 0.896873
  outer loop
   vertex -1454.733362 -2578.087869 -36.850842
   vertex -1388.054300 -2484.119031 -42.057714
   vertex -1397.188873 -2478.823626 -36.850842
  endloop
 endfacet
 facet normal 0.480646 -0.278635 0.831470
  outer loop
   vertex -1445.598789 -2583.383274 -42.057714
   vertex -1437.130342 -2588.292519 -48.598199
   vertex -1379.585853 -2489.028276 -48.598199
  endloop
 endfacet
 facet normal 0.480646 -0.278635 0.831470
  outer loop
   vertex -1445.598789 -2583.383274 -42.057714
   vertex -1379.585853 -2489.028276 -48.598199
   vertex -1388.054300 -2484.119031 -42.057714
  endloop
 endfacet
 facet normal 0.570426 -0.330682 0.751840
  outer loop
   vertex -1437.130342 -2588.292519 -48.598199
   vertex -1429.472917 -2592.731606 -56.360390
   vertex -1371.928428 -2493.467362 -56.360390
  endloop
 endfacet
 facet normal 0.570426 -0.330682 0.751840
  outer loop
   vertex -1437.130342 -2588.292519 -48.598199
   vertex -1371.928428 -2493.467362 -56.360390
   vertex -1379.585853 -2489.028276 -48.598199
  endloop
 endfacet
 facet normal 0.650447 -0.377071 0.659346
  outer loop
   vertex -1429.472917 -2592.731606 -56.360390
   vertex -1422.757536 -2596.624581 -65.211471
   vertex -1365.213047 -2497.360337 -65.211471
  endloop
 endfacet
 facet normal 0.650447 -0.377071 0.659346
  outer loop
   vertex -1429.472917 -2592.731606 -56.360390
   vertex -1365.213047 -2497.360337 -65.211471
   vertex -1371.928428 -2493.467362 -56.360390
  endloop
 endfacet
 facet normal 0.719338 -0.417007 0.555570
  outer loop
   vertex -1422.757536 -2596.624581 -65.211471
   vertex -1417.099100 -2599.904833 -75.000000
   vertex -1359.554611 -2500.640590 -75.000000
  endloop
 endfacet
 facet normal 0.719338 -0.417007 0.555570
  outer loop
   vertex -1422.757536 -2596.624581 -65.211471
   vertex -1359.554611 -2500.640590 -75.000000
   vertex -1365.213047 -2497.360337 -65.211471
  endloop
 endfacet
 facet normal 0.775920 -0.449809 0.442289
  outer loop
   vertex -1417.099100 -2599.904833 -75.000000
   vertex -1412.594427 -2602.516238 -85.558491
   vertex -1355.049938 -2503.251994 -85.558491
  endloop
 endfacet
 facet normal 0.775920 -0.449809 0.442289
  outer loop
   vertex -1417.099100 -2599.904833 -75.000000
   vertex -1355.049938 -2503.251994 -85.558491
   vertex -1359.554611 -2500.640590 -75.000000
  endloop
 endfacet
 facet normal 0.819227 -0.474914 0.321439
  outer loop
   vertex -1412.594427 -2602.516238 -85.558491
   vertex -1409.320593 -2604.414112 -96.706286
   vertex -1351.776104 -2505.149869 -96.706286
  endloop
 endfacet
 facet normal 0.819227 -0.474914 0.321439
  outer loop
   vertex -1412.594427 -2602.516238 -85.558491
   vertex -1351.776104 -2505.149869 -96.706286
   vertex -1355.049938 -2503.251994 -85.558491
  endloop
 endfacet
 facet normal 0.848517 -0.491894 0.195090
  outer loop
   vertex -1409.320593 -2604.414112 -96.706286
   vertex -1407.333615 -2605.565984 -108.252643
   vertex -1349.789126 -2506.301741 -108.252643
  endloop
 endfacet
 facet normal 0.848517 -0.491894 0.195090
  outer loop
   vertex -1409.320593 -2604.414112 -96.706286
   vertex -1349.789126 -2506.301741 -108.252643
   vertex -1351.776104 -2505.149869 -96.706286
  endloop
 endfacet
 facet normal 0.863288 -0.500457 0.065403
  outer loop
   vertex -1407.333615 -2605.565984 -108.252643
   vertex -1406.667489 -2605.952144 -120.000000
   vertex -1349.123000 -2506.687900 -120.000000
  endloop
 endfacet
 facet normal 0.863288 -0.500457 0.065403
  outer loop
   vertex -1407.333615 -2605.565984 -108.252643
   vertex -1349.123000 -2506.687900 -120.000000
   vertex -1349.789126 -2506.301741 -108.252643
  endloop
 endfacet
 facet normal 0.863288 -0.500457 -0.065403
  outer loop
   vertex -1406.667489 -2605.952144 -120.000000
   vertex -1407.333615 -2605.565984 -131.747357
   vertex -1349.789126 -2506.301741 -131.747357
  endloop
 endfacet
 facet normal 0.863288 -0.500457 -0.065403
  outer loop
   vertex -1406.667489 -2605.952144 -120.000000
   vertex -1349.789126 -2506.301741 -131.747357
   vertex -1349.123000 -2506.687900 -120.000000
  endloop
 endfacet
 facet normal 0.848517 -0.491894 -0.195090
  outer loop
   vertex -1407.333615 -2605.565984 -131.747357
   vertex -1409.320593 -2604.414112 -143.293714
   vertex -1351.776104 -2505.149869 -143.293714
  endloop
 endfacet
 facet normal 0.848517 -0.491894 -0.195090
  outer loop
   vertex -1407.333615 -2605.565984 -131.747357
   vertex -1351.776104 -2505.149869 -143.293714
   vertex -1349.789126 -2506.301741 -131.747357
  endloop
 endfacet
 facet normal 0.819227 -0.474914 -0.321439
  outer loop
   vertex -1409.320593 -2604.414112 -143.293714
   vertex -1412.594427 -2602.516238 -154.441509
   vertex -1355.049938 -2503.251994 -154.441509
  endloop
 endfacet
 facet normal 0.819227 -0.474914 -0.321439
  outer loop
   vertex -1409.320593 -2604.414112 -143.293714
   vertex -1355.049938 -2503.251994 -154.441509
   vertex -1351.776104 -2505.149869 -143.293714
  endloop
 endfacet
 facet normal 0.775920 -0.449809 -0.442289
  outer loop
   vertex -1412.594427 -2602.516238 -154.441509
   vertex -1417.099100 -2599.904833 -165.000000
   vertex -1359.554611 -2500.640590 -165.000000
  endloop
 endfacet
 facet normal 0.775920 -0.449809 -0.442289
  outer loop
   vertex -1412.594427 -2602.516238 -154.441509
   vertex -1359.554611 -2500.640590 -165.000000
   vertex -1355.049938 -2503.251994 -154.441509
  endloop
 endfacet
 facet normal 0.719338 -0.417007 -0.555570
  outer loop
   vertex -1417.099100 -2599.904833 -165.000000
   vertex -1422.757536 -2596.624581 -174.788529
   vertex -1365.213047 -2497.360337 -174.788529
  endloop
 endfacet
 facet normal 0.719338 -0.417007 -0.555570
  outer loop
   vertex -1417.099100 -2599.904833 -165.000000
   vertex -1365.213047 -2497.360337 -174.788529
   vertex -1359.554611 -2500.640590 -165.000000
  endloop
 endfacet
 facet normal 0.650447 -0.377071 -0.659346
  outer loop
   vertex -1422.757536 -2596.624581 -174.788529
   vertex -1429.472917 -2592.731606 -183.639610
   vertex -1371.928428 -2493.467362 -183.639610
  endloop
 endfacet
 facet normal 0.650447 -0.377071 -0.659346
  outer loop
   vertex -1422.757536 -2596.624581 -174.788529
   vertex -1371.928428 -2493.467362 -183.639610
   vertex -1365.213047 -2497.360337 -174.788529
  endloop
 endfacet
 facet normal 0.570426 -0.330682 -0.751840
  outer loop
   vertex -1429.472917 -2592.731606 -183.639610
   vertex -1437.130342 -2588.292519 -191.401801
   vertex -1379.585853 -2489.028276 -191.401801
  endloop
 endfacet
 facet normal 0.570426 -0.330682 -0.751840
  outer loop
   vertex -1429.472917 -2592.731606 -183.639610
   vertex -1379.585853 -2489.028276 -191.401801
   vertex -1371.928428 -2493.467362 -183.639610
  endloop
 endfacet
 facet normal 0.480646 -0.278635 -0.831470
  outer loop
   vertex -1437.130342 -2588.292519 -191.401801
   vertex -1445.598789 -2583.383274 -197.942286
   vertex -1388.054300 -2484.119031 -197.942286
  endloop
 endfacet
 facet normal 0.480646 -0.278635 -0.831470
  outer loop
   vertex -1437.130342 -2588.292519 -191.401801
   vertex -1388.054300 -2484.119031 -197.942286
   vertex -1379.585853 -2489.028276 -191.401801
  endloop
 endfacet
 facet normal 0.382642 -0.221821 -0.896873
  outer loop
   vertex -1445.598789 -2583.383274 -197.942286
   vertex -1454.733362 -2578.087869 -203.149158
   vertex -1397.188873 -2478.823626 -203.149158
  endloop
 endfacet
 facet normal 0.382642 -0.221821 -0.896873
  outer loop
   vertex -1445.598789 -2583.383274 -197.942286
   vertex -1397.188873 -2478.823626 -203.149158
   vertex -1388.054300 -2484.119031 -197.942286
  endloop
 endfacet
 facet normal 0.278090 -0.161212 -0.946930
  outer loop
   vertex -1454.733362 -2578.087869 -203.149158
   vertex -1464.377766 -2572.496911 -206.933324
   vertex -1406.833277 -2473.232668 -206.933324
  endloop
 endfacet
 facet normal 0.278090 -0.161212 -0.946930
  outer loop
   vertex -1454.733362 -2578.087869 -203.149158
   vertex -1406.833277 -2473.232668 -206.933324
   vertex -1397.188873 -2478.823626 -203.149158
  endloop
 endfacet
 facet normal 0.168780 -0.097844 -0.980785
  outer loop
   vertex -1464.377766 -2572.496911 -206.933324
   vertex -1474.366981 -2566.706062 -209.230038
   vertex -1416.822492 -2467.441818 -209.230038
  endloop
 endfacet
 facet normal 0.168780 -0.097844 -0.980785
  outer loop
   vertex -1464.377766 -2572.496911 -206.933324
   vertex -1416.822492 -2467.441818 -209.230038
   vertex -1406.833277 -2473.232668 -206.933324
  endloop
 endfacet
 facet normal 0.056583 -0.032802 -0.997859
  outer loop
   vertex -1474.366981 -2566.706062 -209.230038
   vertex -1484.530089 -2560.814404 -210.000000
   vertex -1426.985601 -2461.550161 -210.000000
  endloop
 endfacet
 facet normal 0.056583 -0.032802 -0.997859
  outer loop
   vertex -1474.366981 -2566.706062 -209.230038
   vertex -1426.985601 -2461.550161 -210.000000
   vertex -1416.822492 -2467.441818 -209.230038
  endloop
 endfacet
 facet normal -0.056583 0.032802 -0.997859
  outer loop
   vertex -1484.530089 -2560.814404 -210.000000
   vertex -1494.693198 -2554.922747 -209.230038
   vertex -1437.148709 -2455.658504 -209.230038
  endloop
 endfacet
 facet normal -0.056583 0.032802 -0.997859
  outer loop
   vertex -1484.530089 -2560.814404 -210.000000
   vertex -1437.148709 -2455.658504 -209.230038
   vertex -1426.985601 -2461.550161 -210.000000
  endloop
 endfacet
 facet normal -0.168780 0.097844 -0.980785
  outer loop
   vertex -1494.693198 -2554.922747 -209.230038
   vertex -1504.682413 -2549.131898 -206.933324
   vertex -1447.137924 -2449.867654 -206.933324
  endloop
 endfacet
 facet normal -0.168780 0.097844 -0.980785
  outer loop
   vertex -1494.693198 -2554.922747 -209.230038
   vertex -1447.137924 -2449.867654 -206.933324
   vertex -1437.148709 -2455.658504 -209.230038
  endloop
 endfacet
 facet normal -0.278090 0.161212 -0.946930
  outer loop
   vertex -1504.682413 -2549.131898 -206.933324
   vertex -1514.326817 -2543.540939 -203.149158
   vertex -1456.782328 -2444.276696 -203.149158
  endloop
 endfacet
 facet normal -0.278090 0.161212 -0.946930
  outer loop
   vertex -1504.682413 -2549.131898 -206.933324
   vertex -1456.782328 -2444.276696 -203.149158
   vertex -1447.137924 -2449.867654 -206.933324
  endloop
 endfacet
 facet normal -0.382642 0.221821 -0.896873
  outer loop
   vertex -1514.326817 -2543.540939 -203.149158
   vertex -1523.461390 -2538.245535 -197.942286
   vertex -1465.916901 -2438.981291 -197.942286
  endloop
 endfacet
 facet normal -0.382642 0.221821 -0.896873
  outer loop
   vertex -1514.326817 -2543.540939 -203.149158
   vertex -1465.916901 -2438.981291 -197.942286
   vertex -1456.782328 -2444.276696 -203.149158
  endloop
 endfacet
 facet normal -0.480646 0.278635 -0.831470
  outer loop
   vertex -1523.461390 -2538.245535 -197.942286
   vertex -1531.929837 -2533.336290 -191.401801
   vertex -1474.385348 -2434.072046 -191.401801
  endloop
 endfacet
 facet normal -0.480646 0.278635 -0.831470
  outer loop
   vertex -1523.461390 -2538.245535 -197.942286
   vertex -1474.385348 -2434.072046 -191.401801
   vertex -1465.916901 -2438.981291 -197.942286
  endloop
 endfacet
 facet normal -0.570426 0.330682 -0.751840
  outer loop
   vertex -1531.929837 -2533.336290 -191.401801
   vertex -1539.587262 -2528.897203 -183.639610
   vertex -1482.042773 -2429.632959 -183.639610
  endloop
 endfacet
 facet normal -0.570426 0.330682 -0.751840
  outer loop
   vertex -1531.929837 -2533.336290 -191.401801
   vertex -1482.042773 -2429.632959 -183.639610
   vertex -1474.385348 -2434.072046 -191.401801
  endloop
 endfacet
 facet normal -0.650447 0.377071 -0.659346
  outer loop
   vertex -1539.587262 -2528.897203 -183.639610
   vertex -1546.302643 -2525.004228 -174.788529
   vertex -1488.758154 -2425.739985 -174.788529
  endloop
 endfacet
 facet normal -0.650447 0.377071 -0.659346
  outer loop
   vertex -1539.587262 -2528.897203 -183.639610
   vertex -1488.758154 -2425.739985 -174.788529
   vertex -1482.042773 -2429.632959 -183.639610
  endloop
 endfacet
 facet normal -0.719338 0.417007 -0.555570
  outer loop
   vertex -1546.302643 -2525.004228 -174.788529
   vertex -1551.961079 -2521.723976 -165.000000
   vertex -1494.416590 -2422.459732 -165.000000
  endloop
 endfacet
 facet normal -0.719338 0.417007 -0.555570
  outer loop
   vertex -1546.302643 -2525.004228 -174.788529
   vertex -1494.416590 -2422.459732 -165.000000
   vertex -1488.758154 -2425.739985 -174.788529
  endloop
 endfacet
 facet normal -0.775920 0.449809 -0.442289
  outer loop
   vertex -1551.961079 -2521.723976 -165.000000
   vertex -1556.465752 -2519.112571 -154.441509
   vertex -1498.921263 -2419.848328 -154.441509
  endloop
 endfacet
 facet normal -0.775920 0.449809 -0.442289
  outer loop
   vertex -1551.961079 -2521.723976 -165.000000
   vertex -1498.921263 -2419.848328 -154.441509
   vertex -1494.416590 -2422.459732 -165.000000
  endloop
 endfacet
 facet normal -0.819227 0.474914 -0.321439
  outer loop
   vertex -1556.465752 -2519.112571 -154.441509
   vertex -1559.739586 -2517.214696 -143.293714
   vertex -1502.195097 -2417.950453 -143.293714
  endloop
 endfacet
 facet normal -0.819227 0.474914 -0.321439
  outer loop
   vertex -1556.465752 -2519.112571 -154.441509
   vertex -1502.195097 -2417.950453 -143.293714
   vertex -1498.921263 -2419.848328 -154.441509
  endloop
 endfacet
 facet normal -0.848517 0.491894 -0.195090
  outer loop
   vertex -1559.739586 -2517.214696 -143.293714
   vertex -1561.726564 -2516.062825 -131.747357
   vertex -1504.182075 -2416.798581 -131.747357
  endloop
 endfacet
 facet normal -0.848517 0.491894 -0.195090
  outer loop
   vertex -1559.739586 -2517.214696 -143.293714
   vertex -1504.182075 -2416.798581 -131.747357
   vertex -1502.195097 -2417.950453 -143.293714
  endloop
 endfacet
 facet normal -0.863288 0.500457 -0.065403
  outer loop
   vertex -1561.726564 -2516.062825 -131.747357
   vertex -1562.392690 -2515.676665 -120.000000
   vertex -1504.848201 -2416.412422 -120.000000
  endloop
 endfacet
 facet normal -0.863288 0.500457 -0.065403
  outer loop
   vertex -1561.726564 -2516.062825 -131.747357
   vertex -1504.848201 -2416.412422 -120.000000
   vertex -1504.182075 -2416.798581 -131.747357
  endloop
 endfacet
 facet normal 0.863288 -0.500457 -0.065403
  outer loop
   vertex -1495.604689 -2421.770979 -109.557905
   vertex -1553.149178 -2521.035222 -109.557905
   vertex -1553.741290 -2520.691969 -120.000000
  endloop
 endfacet
 facet normal 0.863288 -0.500457 -0.065403
  outer loop
   vertex -1496.196801 -2421.427726 -120.000000
   vertex -1495.604689 -2421.770979 -109.557905
   vertex -1553.741290 -2520.691969 -120.000000
  endloop
 endfacet
 facet normal 0.848517 -0.491894 -0.195090
  outer loop
   vertex -1493.838486 -2422.794865 -99.294476
   vertex -1551.382975 -2522.059108 -99.294476
   vertex -1553.149178 -2521.035222 -109.557905
  endloop
 endfacet
 facet normal 0.848517 -0.491894 -0.195090
  outer loop
   vertex -1495.604689 -2421.770979 -109.557905
   vertex -1493.838486 -2422.794865 -99.294476
   vertex -1553.149178 -2521.035222 -109.557905
  endloop
 endfacet
 facet normal 0.819227 -0.474914 -0.321439
  outer loop
   vertex -1490.928412 -2424.481865 -89.385325
   vertex -1548.472901 -2523.746108 -89.385325
   vertex -1551.382975 -2522.059108 -99.294476
  endloop
 endfacet
 facet normal 0.819227 -0.474914 -0.321439
  outer loop
   vertex -1493.838486 -2422.794865 -99.294476
   vertex -1490.928412 -2424.481865 -89.385325
   vertex -1551.382975 -2522.059108 -99.294476
  endloop
 endfacet
 facet normal 0.775920 -0.449809 -0.442289
  outer loop
   vertex -1486.924258 -2426.803113 -80.000000
   vertex -1544.468747 -2526.067356 -80.000000
   vertex -1548.472901 -2523.746108 -89.385325
  endloop
 endfacet
 facet normal 0.775920 -0.449809 -0.442289
  outer loop
   vertex -1490.928412 -2424.481865 -89.385325
   vertex -1486.924258 -2426.803113 -80.000000
   vertex -1548.472901 -2523.746108 -89.385325
  endloop
 endfacet
 facet normal 0.719338 -0.417007 -0.555570
  outer loop
   vertex -1481.894537 -2429.718893 -71.299086
   vertex -1539.439026 -2528.983137 -71.299086
   vertex -1544.468747 -2526.067356 -80.000000
  endloop
 endfacet
 facet normal 0.719338 -0.417007 -0.555570
  outer loop
   vertex -1486.924258 -2426.803113 -80.000000
   vertex -1481.894537 -2429.718893 -71.299086
   vertex -1544.468747 -2526.067356 -80.000000
  endloop
 endfacet
 facet normal 0.650447 -0.377071 -0.659346
  outer loop
   vertex -1475.925309 -2433.179315 -63.431458
   vertex -1533.469798 -2532.443559 -63.431458
   vertex -1539.439026 -2528.983137 -71.299086
  endloop
 endfacet
 facet normal 0.650447 -0.377071 -0.659346
  outer loop
   vertex -1481.894537 -2429.718893 -71.299086
   vertex -1475.925309 -2433.179315 -63.431458
   vertex -1539.439026 -2528.983137 -71.299086
  endloop
 endfacet
 facet normal 0.570426 -0.330682 -0.751840
  outer loop
   vertex -1469.118710 -2437.125170 -56.531733
   vertex -1526.663199 -2536.389414 -56.531733
   vertex -1533.469798 -2532.443559 -63.431458
  endloop
 endfacet
 facet normal 0.570426 -0.330682 -0.751840
  outer loop
   vertex -1475.925309 -2433.179315 -63.431458
   vertex -1469.118710 -2437.125170 -56.531733
   vertex -1533.469798 -2532.443559 -63.431458
  endloop
 endfacet
 facet normal 0.480646 -0.278635 -0.831470
  outer loop
   vertex -1461.591201 -2441.488944 -50.717968
   vertex -1519.135690 -2540.753187 -50.717968
   vertex -1526.663199 -2536.389414 -56.531733
  endloop
 endfacet
 facet normal 0.480646 -0.278635 -0.831470
  outer loop
   vertex -1469.118710 -2437.125170 -56.531733
   vertex -1461.591201 -2441.488944 -50.717968
   vertex -1526.663199 -2536.389414 -56.531733
  endloop
 endfacet
 facet normal 0.382642 -0.221821 -0.896873
  outer loop
   vertex -1453.471580 -2446.195970 -46.089637
   vertex -1511.016069 -2545.460213 -46.089637
   vertex -1519.135690 -2540.753187 -50.717968
  endloop
 endfacet
 facet normal 0.382642 -0.221821 -0.896873
  outer loop
   vertex -1461.591201 -2441.488944 -50.717968
   vertex -1453.471580 -2446.195970 -46.089637
   vertex -1519.135690 -2540.753187 -50.717968
  endloop
 endfacet
 facet normal 0.278090 -0.161212 -0.946930
  outer loop
   vertex -1444.898777 -2451.165711 -42.725934
   vertex -1502.443266 -2550.429954 -42.725934
   vertex -1511.016069 -2545.460213 -46.089637
  endloop
 endfacet
 facet normal 0.278090 -0.161212 -0.946930
  outer loop
   vertex -1453.471580 -2446.195970 -46.089637
   vertex -1444.898777 -2451.165711 -42.725934
   vertex -1511.016069 -2545.460213 -46.089637
  endloop
 endfacet
 facet normal 0.168780 -0.097844 -0.980785
  outer loop
   vertex -1436.019475 -2456.313132 -40.684411
   vertex -1493.563964 -2555.577376 -40.684411
   vertex -1502.443266 -2550.429954 -42.725934
  endloop
 endfacet
 facet normal 0.168780 -0.097844 -0.980785
  outer loop
   vertex -1444.898777 -2451.165711 -42.725934
   vertex -1436.019475 -2456.313132 -40.684411
   vertex -1502.443266 -2550.429954 -42.725934
  endloop
 endfacet
 facet normal 0.056583 -0.032802 -0.997859
  outer loop
   vertex -1426.985601 -2461.550161 -40.000000
   vertex -1484.530089 -2560.814404 -40.000000
   vertex -1493.563964 -2555.577376 -40.684411
  endloop
 endfacet
 facet normal 0.056583 -0.032802 -0.997859
  outer loop
   vertex -1436.019475 -2456.313132 -40.684411
   vertex -1426.985601 -2461.550161 -40.000000
   vertex -1493.563964 -2555.577376 -40.684411
  endloop
 endfacet
 facet normal -0.056583 0.032802 -0.997859
  outer loop
   vertex -1417.951726 -2466.787190 -40.684411
   vertex -1475.496215 -2566.051433 -40.684411
   vertex -1484.530089 -2560.814404 -40.000000
  endloop
 endfacet
 facet normal -0.056583 0.032802 -0.997859
  outer loop
   vertex -1426.985601 -2461.550161 -40.000000
   vertex -1417.951726 -2466.787190 -40.684411
   vertex -1484.530089 -2560.814404 -40.000000
  endloop
 endfacet
 facet normal -0.168780 0.097844 -0.980785
  outer loop
   vertex -1409.072424 -2471.934611 -42.725934
   vertex -1466.616913 -2571.198855 -42.725934
   vertex -1475.496215 -2566.051433 -40.684411
  endloop
 endfacet
 facet normal -0.168780 0.097844 -0.980785
  outer loop
   vertex -1417.951726 -2466.787190 -40.684411
   vertex -1409.072424 -2471.934611 -42.725934
   vertex -1475.496215 -2566.051433 -40.684411
  endloop
 endfacet
 facet normal -0.278090 0.161212 -0.946930
  outer loop
   vertex -1400.499621 -2476.904352 -46.089637
   vertex -1458.044110 -2576.168595 -46.089637
   vertex -1466.616913 -2571.198855 -42.725934
  endloop
 endfacet
 facet normal -0.278090 0.161212 -0.946930
  outer loop
   vertex -1409.072424 -2471.934611 -42.725934
   vertex -1400.499621 -2476.904352 -46.089637
   vertex -1466.616913 -2571.198855 -42.725934
  endloop
 endfacet
 facet normal -0.382642 0.221821 -0.896873
  outer loop
   vertex -1392.380000 -2481.611378 -50.717968
   vertex -1449.924489 -2580.875622 -50.717968
   vertex -1458.044110 -2576.168595 -46.089637
  endloop
 endfacet
 facet normal -0.382642 0.221821 -0.896873
  outer loop
   vertex -1400.499621 -2476.904352 -46.089637
   vertex -1392.380000 -2481.611378 -50.717968
   vertex -1458.044110 -2576.168595 -46.089637
  endloop
 endfacet
 facet normal -0.480646 0.278635 -0.831470
  outer loop
   vertex -1384.852491 -2485.975152 -56.531733
   vertex -1442.396980 -2585.239395 -56.531733
   vertex -1449.924489 -2580.875622 -50.717968
  endloop
 endfacet
 facet normal -0.480646 0.278635 -0.831470
  outer loop
   vertex -1392.380000 -2481.611378 -50.717968
   vertex -1384.852491 -2485.975152 -56.531733
   vertex -1449.924489 -2580.875622 -50.717968
  endloop
 endfacet
 facet normal -0.570426 0.330682 -0.751840
  outer loop
   vertex -1378.045892 -2489.921007 -63.431458
   vertex -1435.590381 -2589.185250 -63.431458
   vertex -1442.396980 -2585.239395 -56.531733
  endloop
 endfacet
 facet normal -0.570426 0.330682 -0.751840
  outer loop
   vertex -1384.852491 -2485.975152 -56.531733
   vertex -1378.045892 -2489.921007 -63.431458
   vertex -1442.396980 -2585.239395 -56.531733
  endloop
 endfacet
 facet normal -0.650447 0.377071 -0.659346
  outer loop
   vertex -1372.076664 -2493.381429 -71.299086
   vertex -1429.621153 -2592.645672 -71.299086
   vertex -1435.590381 -2589.185250 -63.431458
  endloop
 endfacet
 facet normal -0.650447 0.377071 -0.659346
  outer loop
   vertex -1378.045892 -2489.921007 -63.431458
   vertex -1372.076664 -2493.381429 -71.299086
   vertex -1435.590381 -2589.185250 -63.431458
  endloop
 endfacet
 facet normal -0.719338 0.417007 -0.555570
  outer loop
   vertex -1367.046943 -2496.297209 -80.000000
   vertex -1424.591432 -2595.561452 -80.000000
   vertex -1429.621153 -2592.645672 -71.299086
  endloop
 endfacet
 facet normal -0.719338 0.417007 -0.555570
  outer loop
   vertex -1372.076664 -2493.381429 -71.299086
   vertex -1367.046943 -2496.297209 -80.000000
   vertex -1429.621153 -2592.645672 -71.299086
  endloop
 endfacet
 facet normal -0.775920 0.449809 -0.442289
  outer loop
   vertex -1363.042789 -2498.618457 -89.385325
   vertex -1420.587278 -2597.882701 -89.385325
   vertex -1424.591432 -2595.561452 -80.000000
  endloop
 endfacet
 facet normal -0.775920 0.449809 -0.442289
  outer loop
   vertex -1367.046943 -2496.297209 -80.000000
   vertex -1363.042789 -2498.618457 -89.385325
   vertex -1424.591432 -2595.561452 -80.000000
  endloop
 endfacet
 facet normal -0.819227 0.474914 -0.321439
  outer loop
   vertex -1360.132715 -2500.305457 -99.294476
   vertex -1417.677204 -2599.569700 -99.294476
   vertex -1420.587278 -2597.882701 -89.385325
  endloop
 endfacet
 facet normal -0.819227 0.474914 -0.321439
  outer loop
   vertex -1363.042789 -2498.618457 -89.385325
   vertex -1360.132715 -2500.305457 -99.294476
   vertex -1420.587278 -2597.882701 -89.385325
  endloop
 endfacet
 facet normal -0.848517 0.491894 -0.195090
  outer loop
   vertex -1358.366512 -2501.329343 -109.557905
   vertex -1415.911001 -2600.593586 -109.557905
   vertex -1417.677204 -2599.569700 -99.294476
  endloop
 endfacet
 facet normal -0.848517 0.491894 -0.195090
  outer loop
   vertex -1360.132715 -2500.305457 -99.294476
   vertex -1358.366512 -2501.329343 -109.557905
   vertex -1417.677204 -2599.569700 -99.294476
  endloop
 endfacet
 facet normal -0.863288 0.500457 -0.065403
  outer loop
   vertex -1357.774400 -2501.672596 -120.000000
   vertex -1415.318889 -2600.936839 -120.000000
   vertex -1415.911001 -2600.593586 -109.557905
  endloop
 endfacet
 facet normal -0.863288 0.500457 -0.065403
  outer loop
   vertex -1358.366512 -2501.329343 -109.557905
   vertex -1357.774400 -2501.672596 -120.000000
   vertex -1415.911001 -2600.593586 -109.557905
  endloop
 endfacet
 facet normal -0.863288 0.500457 0.065403
  outer loop
   vertex -1358.366512 -2501.329343 -130.442095
   vertex -1415.911001 -2600.593586 -130.442095
   vertex -1415.318889 -2600.936839 -120.000000
  endloop
 endfacet
 facet normal -0.863288 0.500457 0.065403
  outer loop
   vertex -1357.774400 -2501.672596 -120.000000
   vertex -1358.366512 -2501.329343 -130.442095
   vertex -1415.318889 -2600.936839 -120.000000
  endloop
 endfacet
 facet normal -0.848517 0.491894 0.195090
  outer loop
   vertex -1360.132715 -2500.305457 -140.705524
   vertex -1417.677204 -2599.569700 -140.705524
   vertex -1415.911001 -2600.593586 -130.442095
  endloop
 endfacet
 facet normal -0.848517 0.491894 0.195090
  outer loop
   vertex -1358.366512 -2501.329343 -130.442095
   vertex -1360.132715 -2500.305457 -140.705524
   vertex -1415.911001 -2600.593586 -130.442095
  endloop
 endfacet
 facet normal -0.819227 0.474914 0.321439
  outer loop
   vertex -1363.042789 -2498.618457 -150.614675
   vertex -1420.587278 -2597.882701 -150.614675
   vertex -1417.677204 -2599.569700 -140.705524
  endloop
 endfacet
 facet normal -0.819227 0.474914 0.321439
  outer loop
   vertex -1360.132715 -2500.305457 -140.705524
   vertex -1363.042789 -2498.618457 -150.614675
   vertex -1417.677204 -2599.569700 -140.705524
  endloop
 endfacet
 facet normal -0.775920 0.449809 0.442289
  outer loop
   vertex -1367.046943 -2496.297209 -160.000000
   vertex -1424.591432 -2595.561452 -160.000000
   vertex -1420.587278 -2597.882701 -150.614675
  endloop
 endfacet
 facet normal -0.775920 0.449809 0.442289
  outer loop
   vertex -1363.042789 -2498.618457 -150.614675
   vertex -1367.046943 -2496.297209 -160.000000
   vertex -1420.587278 -2597.882701 -150.614675
  endloop
 endfacet
 facet normal -0.719338 0.417007 0.555570
  outer loop
   vertex -1372.076664 -2493.381429 -168.700914
   vertex -1429.621153 -2592.645672 -168.700914
   vertex -1424.591432 -2595.561452 -160.000000
  endloop
 endfacet
 facet normal -0.719338 0.417007 0.555570
  outer loop
   vertex -1367.046943 -2496.297209 -160.000000
   vertex -1372.076664 -2493.381429 -168.700914
   vertex -1424.591432 -2595.561452 -160.000000
  endloop
 endfacet
 facet normal -0.650447 0.377071 0.659346
  outer loop
   vertex -1378.045892 -2489.921007 -176.568542
   vertex -1435.590381 -2589.185250 -176.568542
   vertex -1429.621153 -2592.645672 -168.700914
  endloop
 endfacet
 facet normal -0.650447 0.377071 0.659346
  outer loop
   vertex -1372.076664 -2493.381429 -168.700914
   vertex -1378.045892 -2489.921007 -176.568542
   vertex -1429.621153 -2592.645672 -168.700914
  endloop
 endfacet
 facet normal -0.570426 0.330682 0.751840
  outer loop
   vertex -1384.852491 -2485.975152 -183.468267
   vertex -1442.396980 -2585.239395 -183.468267
   vertex -1435.590381 -2589.185250 -176.568542
  endloop
 endfacet
 facet normal -0.570426 0.330682 0.751840
  outer loop
   vertex -1378.045892 -2489.921007 -176.568542
   vertex -1384.852491 -2485.975152 -183.468267
   vertex -1435.590381 -2589.185250 -176.568542
  endloop
 endfacet
 facet normal -0.480646 0.278635 0.831470
  outer loop
   vertex -1392.380000 -2481.611378 -189.282032
   vertex -1449.924489 -2580.875622 -189.282032
   vertex -1442.396980 -2585.239395 -183.468267
  endloop
 endfacet
 facet normal -0.480646 0.278635 0.831470
  outer loop
   vertex -1384.852491 -2485.975152 -183.468267
   vertex -1392.380000 -2481.611378 -189.282032
   vertex -1442.396980 -2585.239395 -183.468267
  endloop
 endfacet
 facet normal -0.382642 0.221821 0.896873
  outer loop
   vertex -1400.499621 -2476.904352 -193.910363
   vertex -1458.044110 -2576.168595 -193.910363
   vertex -1449.924489 -2580.875622 -189.282032
  endloop
 endfacet
 facet normal -0.382642 0.221821 0.896873
  outer loop
   vertex -1392.380000 -2481.611378 -189.282032
   vertex -1400.499621 -2476.904352 -193.910363
   vertex -1449.924489 -2580.875622 -189.282032
  endloop
 endfacet
 facet normal -0.278090 0.161212 0.946930
  outer loop
   vertex -1409.072424 -2471.934611 -197.274066
   vertex -1466.616913 -2571.198855 -197.274066
   vertex -1458.044110 -2576.168595 -193.910363
  endloop
 endfacet
 facet normal -0.278090 0.161212 0.946930
  outer loop
   vertex -1400.499621 -2476.904352 -193.910363
   vertex -1409.072424 -2471.934611 -197.274066
   vertex -1458.044110 -2576.168595 -193.910363
  endloop
 endfacet
 facet normal -0.168780 0.097844 0.980785
  outer loop
   vertex -1417.951726 -2466.787190 -199.315589
   vertex -1475.496215 -2566.051433 -199.315589
   vertex -1466.616913 -2571.198855 -197.274066
  endloop
 endfacet
 facet normal -0.168780 0.097844 0.980785
  outer loop
   vertex -1409.072424 -2471.934611 -197.274066
   vertex -1417.951726 -2466.787190 -199.315589
   vertex -1466.616913 -2571.198855 -197.274066
  endloop
 endfacet
 facet normal -0.056583 0.032802 0.997859
  outer loop
   vertex -1426.985601 -2461.550161 -200.000000
   vertex -1484.530089 -2560.814404 -200.000000
   vertex -1475.496215 -2566.051433 -199.315589
  endloop
 endfacet
 facet normal -0.056583 0.032802 0.997859
  outer loop
   vertex -1417.951726 -2466.787190 -199.315589
   vertex -1426.985601 -2461.550161 -200.000000
   vertex -1475.496215 -2566.051433 -199.315589
  endloop
 endfacet
 facet normal 0.056583 -0.032802 0.997859
  outer loop
   vertex -1436.019475 -2456.313132 -199.315589
   vertex -1493.563964 -2555.577376 -199.315589
   vertex -1484.530089 -2560.814404 -200.000000
  endloop
 endfacet
 facet normal 0.056583 -0.032802 0.997859
  outer loop
   vertex -1426.985601 -2461.550161 -200.000000
   vertex -1436.019475 -2456.313132 -199.315589
   vertex -1484.530089 -2560.814404 -200.000000
  endloop
 endfacet
 facet normal 0.168780 -0.097844 0.980785
  outer loop
   vertex -1444.898777 -2451.165711 -197.274066
   vertex -1502.443266 -2550.429954 -197.274066
   vertex -1493.563964 -2555.577376 -199.315589
  endloop
 endfacet
 facet normal 0.168780 -0.097844 0.980785
  outer loop
   vertex -1436.019475 -2456.313132 -199.315589
   vertex -1444.898777 -2451.165711 -197.274066
   vertex -1493.563964 -2555.577376 -199.315589
  endloop
 endfacet
 facet normal 0.278090 -0.161212 0.946930
  outer loop
   vertex -1453.471580 -2446.195970 -193.910363
   vertex -1511.016069 -2545.460213 -193.910363
   vertex -1502.443266 -2550.429954 -197.274066
  endloop
 endfacet
 facet normal 0.278090 -0.161212 0.946930
  outer loop
   vertex -1444.898777 -2451.165711 -197.274066
   vertex -1453.471580 -2446.195970 -193.910363
   vertex -1502.443266 -2550.429954 -197.274066
  endloop
 endfacet
 facet normal 0.382642 -0.221821 0.896873
  outer loop
   vertex -1461.591201 -2441.488944 -189.282032
   vertex -1519.135690 -2540.753187 -189.282032
   vertex -1511.016069 -2545.460213 -193.910363
  endloop
 endfacet
 facet normal 0.382642 -0.221821 0.896873
  outer loop
   vertex -1453.471580 -2446.195970 -193.910363
   vertex -1461.591201 -2441.488944 -189.282032
   vertex -1511.016069 -2545.460213 -193.910363
  endloop
 endfacet
 facet normal 0.480646 -0.278635 0.831470
  outer loop
   vertex -1469.118710 -2437.125170 -183.468267
   vertex -1526.663199 -2536.389414 -183.468267
   vertex -1519.135690 -2540.753187 -189.282032
  endloop
 endfacet
 facet normal 0.480646 -0.278635 0.831470
  outer loop
   vertex -1461.591201 -2441.488944 -189.282032
   vertex -1469.118710 -2437.125170 -183.468267
   vertex -1519.135690 -2540.753187 -189.282032
  endloop
 endfacet
 facet normal 0.570426 -0.330682 0.751840
  outer loop
   vertex -1475.925309 -2433.179315 -176.568542
   vertex -1533.469798 -2532.443559 -176.568542
   vertex -1526.663199 -2536.389414 -183.468267
  endloop
 endfacet
 facet normal 0.570426 -0.330682 0.751840
  outer loop
   vertex -1469.118710 -2437.125170 -183.468267
   vertex -1475.925309 -2433.179315 -176.568542
   vertex -1526.663199 -2536.389414 -183.468267
  endloop
 endfacet
 facet normal 0.650447 -0.377071 0.659346
  outer loop
   vertex -1481.894537 -2429.718893 -168.700914
   vertex -1539.439026 -2528.983137 -168.700914
   vertex -1533.469798 -2532.443559 -176.568542
  endloop
 endfacet
 facet normal 0.650447 -0.377071 0.659346
  outer loop
   vertex -1475.925309 -2433.179315 -176.568542
   vertex -1481.894537 -2429.718893 -168.700914
   vertex -1533.469798 -2532.443559 -176.568542
  endloop
 endfacet
 facet normal 0.719338 -0.417007 0.555570
  outer loop
   vertex -1486.924258 -2426.803113 -160.000000
   vertex -1544.468747 -2526.067356 -160.000000
   vertex -1539.439026 -2528.983137 -168.700914
  endloop
 endfacet
 facet normal 0.719338 -0.417007 0.555570
  outer loop
   vertex -1481.894537 -2429.718893 -168.700914
   vertex -1486.924258 -2426.803113 -160.000000
   vertex -1539.439026 -2528.983137 -168.700914
  endloop
 endfacet
 facet normal 0.775920 -0.449809 0.442289
  outer loop
   vertex -1490.928412 -2424.481865 -150.614675
   vertex -1548.472901 -2523.746108 -150.614675
   vertex -1544.468747 -2526.067356 -160.000000
  endloop
 endfacet
 facet normal 0.775920 -0.449809 0.442289
  outer loop
   vertex -1486.924258 -2426.803113 -160.000000
   vertex -1490.928412 -2424.481865 -150.614675
   vertex -1544.468747 -2526.067356 -160.000000
  endloop
 endfacet
 facet normal 0.819227 -0.474914 0.321439
  outer loop
   vertex -1493.838486 -2422.794865 -140.705524
   vertex -1551.382975 -2522.059108 -140.705524
   vertex -1548.472901 -2523.746108 -150.614675
  endloop
 endfacet
 facet normal 0.819227 -0.474914 0.321439
  outer loop
   vertex -1490.928412 -2424.481865 -150.614675
   vertex -1493.838486 -2422.794865 -140.705524
   vertex -1548.472901 -2523.746108 -150.614675
  endloop
 endfacet
 facet normal 0.848517 -0.491894 0.195090
  outer loop
   vertex -1495.604689 -2421.770979 -130.442095
   vertex -1553.149178 -2521.035222 -130.442095
   vertex -1551.382975 -2522.059108 -140.705524
  endloop
 endfacet
 facet normal 0.848517 -0.491894 0.195090
  outer loop
   vertex -1493.838486 -2422.794865 -140.705524
   vertex -1495.604689 -2421.770979 -130.442095
   vertex -1551.382975 -2522.059108 -140.705524
  endloop
 endfacet
 facet normal 0.863288 -0.500457 0.065403
  outer loop
   vertex -1496.196801 -2421.427726 -120.000000
   vertex -1553.741290 -2520.691969 -120.000000
   vertex -1553.149178 -2521.035222 -130.442095
  endloop
 endfacet
 facet normal 0.863288 -0.500457 0.065403
  outer loop
   vertex -1495.604689 -2421.770979 -130.442095
   vertex -1496.196801 -2421.427726 -120.000000
   vertex -1553.149178 -2521.035222 -130.442095
  endloop
 endfacet
endsolid SII_LOX_feed_3_Hrun
