solid SIC_RP1_dropA_4
 facet normal 0.065313 0.993391 0.094390
  outer loop
   vertex 1150.000000 2051.550164 -402.530270
   vertex 1157.820746 2051.001467 -402.167141
   vertex 1207.820746 2137.601467 -1348.167141
  endloop
 endfacet
 facet normal 0.065313 0.993391 0.094390
  outer loop
   vertex 1150.000000 2051.550164 -402.530270
   vertex 1207.820746 2137.601467 -1348.167141
   vertex 1200.000000 2138.150164 -1348.530270
  endloop
 endfacet
 facet normal 0.194821 0.975767 0.099622
  outer loop
   vertex 1157.820746 2051.001467 -402.167141
   vertex 1165.507677 2049.439817 -401.903814
   vertex 1215.507677 2136.039817 -1347.903814
  endloop
 endfacet
 facet normal 0.194821 0.975767 0.099622
  outer loop
   vertex 1157.820746 2051.001467 -402.167141
   vertex 1215.507677 2136.039817 -1347.903814
   vertex 1207.820746 2137.601467 -1348.167141
  endloop
 endfacet
 facet normal 0.320995 0.941447 0.103149
  outer loop
   vertex 1165.507677 2049.439817 -401.903814
   vertex 1172.929267 2046.891933 -401.744794
   vertex 1222.929267 2133.491933 -1347.744794
  endloop
 endfacet
 facet normal 0.320995 0.941447 0.103149
  outer loop
   vertex 1165.507677 2049.439817 -401.903814
   vertex 1222.929267 2133.491933 -1347.744794
   vertex 1215.507677 2136.039817 -1347.903814
  endloop
 endfacet
 facet normal 0.441677 0.891019 0.104911
  outer loop
   vertex 1172.929267 2046.891933 -401.744794
   vertex 1179.958531 2043.401412 -401.692803
   vertex 1229.958531 2130.001412 -1347.692803
  endloop
 endfacet
 facet normal 0.441677 0.891019 0.104911
  outer loop
   vertex 1172.929267 2046.891933 -401.744794
   vertex 1229.958531 2130.001412 -1347.692803
   vertex 1222.929267 2133.491933 -1347.744794
  endloop
 endfacet
 facet normal 0.554802 0.825345 0.104878
  outer loop
   vertex 1179.958531 2043.401412 -401.692803
   vertex 1186.475196 2039.027975 -401.748729
   vertex 1236.475196 2125.627975 -1347.748729
  endloop
 endfacet
 facet normal 0.554802 0.825345 0.104878
  outer loop
   vertex 1179.958531 2043.401412 -401.692803
   vertex 1236.475196 2125.627975 -1347.748729
   vertex 1229.958531 2130.001412 -1347.692803
  endloop
 endfacet
 facet normal 0.658434 0.745550 0.103051
  outer loop
   vertex 1186.475196 2039.027975 -401.748729
   vertex 1192.367761 2033.846456 -401.911616
   vertex 1242.367761 2120.446456 -1347.911616
  endloop
 endfacet
 facet normal 0.658434 0.745550 0.103051
  outer loop
   vertex 1186.475196 2039.027975 -401.748729
   vertex 1242.367761 2120.446456 -1347.911616
   vertex 1236.475196 2125.627975 -1347.748729
  endloop
 endfacet
 facet normal 0.750801 0.652998 0.099461
  outer loop
   vertex 1192.367761 2033.846456 -401.911616
   vertex 1197.535401 2027.945509 -402.178677
   vertex 1247.535401 2114.545509 -1348.178677
  endloop
 endfacet
 facet normal 0.750801 0.652998 0.099461
  outer loop
   vertex 1192.367761 2033.846456 -401.911616
   vertex 1247.535401 2114.545509 -1348.178677
   vertex 1242.367761 2120.446456 -1347.911616
  endloop
 endfacet
 facet normal 0.830320 0.549273 0.094168
  outer loop
   vertex 1197.535401 2027.945509 -402.178677
   vertex 1201.889698 2021.426103 -402.545343
   vertex 1251.889698 2108.026103 -1348.545343
  endloop
 endfacet
 facet normal 0.830320 0.549273 0.094168
  outer loop
   vertex 1197.535401 2027.945509 -402.178677
   vertex 1251.889698 2108.026103 -1348.545343
   vertex 1247.535401 2114.545509 -1348.178677
  endloop
 endfacet
 facet normal 0.895633 0.436150 0.087264
  outer loop
   vertex 1201.889698 2021.426103 -402.545343
   vertex 1205.356147 2014.399786 -403.005340
   vertex 1255.356147 2100.999786 -1349.005340
  endloop
 endfacet
 facet normal 0.895633 0.436150 0.087264
  outer loop
   vertex 1201.889698 2021.426103 -402.545343
   vertex 1255.356147 2100.999786 -1349.005340
   vertex 1251.889698 2108.026103 -1348.545343
  endloop
 endfacet
 facet normal 0.945621 0.315564 0.078868
  outer loop
   vertex 1205.356147 2014.399786 -403.005340
   vertex 1207.875438 2006.986780 -403.550796
   vertex 1257.875438 2093.586780 -1349.550796
  endloop
 endfacet
 facet normal 0.945621 0.315564 0.078868
  outer loop
   vertex 1205.356147 2014.399786 -403.005340
   vertex 1257.875438 2093.586780 -1349.550796
   vertex 1255.356147 2100.999786 -1349.005340
  endloop
 endfacet
 facet normal 0.979430 0.189578 0.069122
  outer loop
   vertex 1207.875438 2006.986780 -403.550796
   vertex 1209.404463 1999.313925 -404.172379
   vertex 1259.404463 2085.913925 -1350.172379
  endloop
 endfacet
 facet normal 0.979430 0.189578 0.069122
  outer loop
   vertex 1207.875438 2006.986780 -403.550796
   vertex 1259.404463 2085.913925 -1350.172379
   vertex 1257.875438 2093.586780 -1349.550796
  endloop
 endfacet
 facet normal 0.996480 0.060349 0.058193
  outer loop
   vertex 1209.404463 1999.313925 -404.172379
   vertex 1209.917062 1991.512504 -404.859455
   vertex 1259.917062 2078.112504 -1350.859455
  endloop
 endfacet
 facet normal 0.996480 0.060349 0.058193
  outer loop
   vertex 1209.404463 1999.313925 -404.172379
   vertex 1259.917062 2078.112504 -1350.859455
   vertex 1259.404463 2085.913925 -1350.172379
  endloop
 endfacet
 facet normal 0.996480 -0.069912 0.046268
  outer loop
   vertex 1209.917062 1991.512504 -404.859455
   vertex 1209.404463 1983.716002 -405.600265
   vertex 1259.404463 2070.316002 -1351.600265
  endloop
 endfacet
 facet normal 0.996480 -0.069912 0.046268
  outer loop
   vertex 1209.917062 1991.512504 -404.859455
   vertex 1259.404463 2070.316002 -1351.600265
   vertex 1259.917062 2078.112504 -1350.859455
  endloop
 endfacet
 facet normal 0.979430 -0.198978 0.033552
  outer loop
   vertex 1209.404463 1983.716002 -405.600265
   vertex 1207.875438 1976.057820 -406.382136
   vertex 1257.875438 2062.657820 -1352.382136
  endloop
 endfacet
 facet normal 0.979430 -0.198978 0.033552
  outer loop
   vertex 1209.404463 1983.716002 -405.600265
   vertex 1257.875438 2062.657820 -1352.382136
   vertex 1259.404463 2070.316002 -1351.600265
  endloop
 endfacet
 facet normal 0.945621 -0.324638 0.020262
  outer loop
   vertex 1207.875438 1976.057820 -406.382136
   vertex 1205.356147 1968.668991 -407.191689
   vertex 1255.356147 2055.268991 -1353.191689
  endloop
 endfacet
 facet normal 0.945621 -0.324638 0.020262
  outer loop
   vertex 1207.875438 1976.057820 -406.382136
   vertex 1255.356147 2055.268991 -1353.191689
   vertex 1257.875438 2062.657820 -1352.382136
  endloop
 endfacet
 facet normal 0.895633 -0.444744 0.006625
  outer loop
   vertex 1205.356147 1968.668991 -407.191689
   vertex 1201.889698 1961.675939 -408.015073
   vertex 1251.889698 2048.275939 -1354.015073
  endloop
 endfacet
 facet normal 0.895633 -0.444744 0.006625
  outer loop
   vertex 1205.356147 1968.668991 -407.191689
   vertex 1251.889698 2048.275939 -1354.015073
   vertex 1255.356147 2055.268991 -1353.191689
  endloop
 endfacet
 facet normal 0.830320 -0.557241 -0.007126
  outer loop
   vertex 1201.889698 1961.675939 -408.015073
   vertex 1197.535401 1955.198319 -408.838198
   vertex 1247.535401 2041.798319 -1354.838198
  endloop
 endfacet
 facet normal 0.830320 -0.557241 -0.007126
  outer loop
   vertex 1201.889698 1961.675939 -408.015073
   vertex 1247.535401 2041.798319 -1354.838198
   vertex 1251.889698 2048.275939 -1354.015073
  endloop
 endfacet
 facet normal 0.750801 -0.660203 -0.020754
  outer loop
   vertex 1197.535401 1955.198319 -408.838198
   vertex 1192.367761 1949.346964 -409.646982
   vertex 1242.367761 2035.946964 -1355.646982
  endloop
 endfacet
 facet normal 0.750801 -0.660203 -0.020754
  outer loop
   vertex 1197.535401 1955.198319 -408.838198
   vertex 1242.367761 2035.946964 -1355.646982
   vertex 1247.535401 2041.798319 -1354.838198
  endloop
 endfacet
 facet normal 0.658434 -0.751869 -0.034028
  outer loop
   vertex 1192.367761 1949.346964 -409.646982
   vertex 1186.475196 1944.221992 -410.427585
   vertex 1236.475196 2030.821992 -1356.427585
  endloop
 endfacet
 facet normal 0.658434 -0.751869 -0.034028
  outer loop
   vertex 1192.367761 1949.346964 -409.646982
   vertex 1236.475196 2030.821992 -1356.427585
   vertex 1242.367761 2035.946964 -1355.646982
  endloop
 endfacet
 facet normal 0.554802 -0.830669 -0.046719
  outer loop
   vertex 1186.475196 1944.221992 -410.427585
   vertex 1179.958531 1939.911092 -411.166652
   vertex 1229.958531 2026.511092 -1357.166652
  endloop
 endfacet
 facet normal 0.554802 -0.830669 -0.046719
  outer loop
   vertex 1186.475196 1944.221992 -410.427585
   vertex 1229.958531 2026.511092 -1357.166652
   vertex 1236.475196 2030.821992 -1356.427585
  endloop
 endfacet
 facet normal 0.441677 -0.895257 -0.058610
  outer loop
   vertex 1179.958531 1939.911092 -411.166652
   vertex 1172.929267 1936.488027 -411.851537
   vertex 1222.929267 2023.088027 -1357.851537
  endloop
 endfacet
 facet normal 0.441677 -0.895257 -0.058610
  outer loop
   vertex 1179.958531 1939.911092 -411.166652
   vertex 1222.929267 2023.088027 -1357.851537
   vertex 1229.958531 2026.511092 -1357.166652
  endloop
 endfacet
 facet normal 0.320995 -0.944527 -0.069499
  outer loop
   vertex 1172.929267 1936.488027 -411.851537
   vertex 1165.507677 1934.011364 -412.470520
   vertex 1215.507677 2020.611364 -1358.470520
  endloop
 endfacet
 facet normal 0.320995 -0.944527 -0.069499
  outer loop
   vertex 1172.929267 1936.488027 -411.851537
   vertex 1215.507677 2020.611364 -1358.470520
   vertex 1222.929267 2023.088027 -1357.851537
  endloop
 endfacet
 facet normal 0.194821 -0.977636 -0.079199
  outer loop
   vertex 1165.507677 1934.011364 -412.470520
   vertex 1157.820746 1932.523482 -413.013012
   vertex 1207.820746 2019.123482 -1359.013012
  endloop
 endfacet
 facet normal 0.194821 -0.977636 -0.079199
  outer loop
   vertex 1165.507677 1934.011364 -412.470520
   vertex 1207.820746 2019.123482 -1359.013012
   vertex 1215.507677 2020.611364 -1358.470520
  endloop
 endfacet
 facet normal 0.065313 -0.994017 -0.087544
  outer loop
   vertex 1157.820746 1932.523482 -413.013012
   vertex 1150.000000 1932.049836 -413.469730
   vertex 1200.000000 2018.649836 -1359.469730
  endloop
 endfacet
 facet normal 0.065313 -0.994017 -0.087544
  outer loop
   vertex 1157.820746 1932.523482 -413.013012
   vertex 1200.000000 2018.649836 -1359.469730
   vertex 1207.820746 2019.123482 -1359.013012
  endloop
 endfacet
 facet normal -0.065313 -0.993391 -0.094390
  outer loop
   vertex 1150.000000 1932.049836 -413.469730
   vertex 1142.179254 1932.598533 -413.832859
   vertex 1192.179254 2019.198533 -1359.832859
  endloop
 endfacet
 facet normal -0.065313 -0.993391 -0.094390
  outer loop
   vertex 1150.000000 1932.049836 -413.469730
   vertex 1192.179254 2019.198533 -1359.832859
   vertex 1200.000000 2018.649836 -1359.469730
  endloop
 endfacet
 facet normal -0.194821 -0.975767 -0.099622
  outer loop
   vertex 1142.179254 1932.598533 -413.832859
   vertex 1134.492323 1934.160183 -414.096186
   vertex 1184.492323 2020.760183 -1360.096186
  endloop
 endfacet
 facet normal -0.194821 -0.975767 -0.099622
  outer loop
   vertex 1142.179254 1932.598533 -413.832859
   vertex 1184.492323 2020.760183 -1360.096186
   vertex 1192.179254 2019.198533 -1359.832859
  endloop
 endfacet
 facet normal -0.320995 -0.941447 -0.103149
  outer loop
   vertex 1134.492323 1934.160183 -414.096186
   vertex 1127.070733 1936.708067 -414.255206
   vertex 1177.070733 2023.308067 -1360.255206
  endloop
 endfacet
 facet normal -0.320995 -0.941447 -0.103149
  outer loop
   vertex 1134.492323 1934.160183 -414.096186
   vertex 1177.070733 2023.308067 -1360.255206
   vertex 1184.492323 2020.760183 -1360.096186
  endloop
 endfacet
 facet normal -0.441677 -0.891019 -0.104911
  outer loop
   vertex 1127.070733 1936.708067 -414.255206
   vertex 1120.041469 1940.198588 -414.307197
   vertex 1170.041469 2026.798588 -1360.307197
  endloop
 endfacet
 facet normal -0.441677 -0.891019 -0.104911
  outer loop
   vertex 1127.070733 1936.708067 -414.255206
   vertex 1170.041469 2026.798588 -1360.307197
   vertex 1177.070733 2023.308067 -1360.255206
  endloop
 endfacet
 facet normal -0.554802 -0.825345 -0.104878
  outer loop
   vertex 1120.041469 1940.198588 -414.307197
   vertex 1113.524804 1944.572025 -414.251271
   vertex 1163.524804 2031.172025 -1360.251271
  endloop
 endfacet
 facet normal -0.554802 -0.825345 -0.104878
  outer loop
   vertex 1120.041469 1940.198588 -414.307197
   vertex 1163.524804 2031.172025 -1360.251271
   vertex 1170.041469 2026.798588 -1360.307197
  endloop
 endfacet
 facet normal -0.658434 -0.745550 -0.103051
  outer loop
   vertex 1113.524804 1944.572025 -414.251271
   vertex 1107.632239 1949.753544 -414.088384
   vertex 1157.632239 2036.353544 -1360.088384
  endloop
 endfacet
 facet normal -0.658434 -0.745550 -0.103051
  outer loop
   vertex 1113.524804 1944.572025 -414.251271
   vertex 1157.632239 2036.353544 -1360.088384
   vertex 1163.524804 2031.172025 -1360.251271
  endloop
 endfacet
 facet normal -0.750801 -0.652998 -0.099461
  outer loop
   vertex 1107.632239 1949.753544 -414.088384
   vertex 1102.464599 1955.654491 -413.821323
   vertex 1152.464599 2042.254491 -1359.821323
  endloop
 endfacet
 facet normal -0.750801 -0.652998 -0.099461
  outer loop
   vertex 1107.632239 1949.753544 -414.088384
   vertex 1152.464599 2042.254491 -1359.821323
   vertex 1157.632239 2036.353544 -1360.088384
  endloop
 endfacet
 facet normal -0.830320 -0.549273 -0.094168
  outer loop
   vertex 1102.464599 1955.654491 -413.821323
   vertex 1098.110302 1962.173897 -413.454657
   vertex 1148.110302 2048.773897 -1359.454657
  endloop
 endfacet
 facet normal -0.830320 -0.549273 -0.094168
  outer loop
   vertex 1102.464599 1955.654491 -413.821323
   vertex 1148.110302 2048.773897 -1359.454657
   vertex 1152.464599 2042.254491 -1359.821323
  endloop
 endfacet
 facet normal -0.895633 -0.436150 -0.087264
  outer loop
   vertex 1098.110302 1962.173897 -413.454657
   vertex 1094.643853 1969.200214 -412.994660
   vertex 1144.643853 2055.800214 -1358.994660
  endloop
 endfacet
 facet normal -0.895633 -0.436150 -0.087264
  outer loop
   vertex 1098.110302 1962.173897 -413.454657
   vertex 1144.643853 2055.800214 -1358.994660
   vertex 1148.110302 2048.773897 -1359.454657
  endloop
 endfacet
 facet normal -0.945621 -0.315564 -0.078868
  outer loop
   vertex 1094.643853 1969.200214 -412.994660
   vertex 1092.124562 1976.613220 -412.449204
   vertex 1142.124562 2063.213220 -1358.449204
  endloop
 endfacet
 facet normal -0.945621 -0.315564 -0.078868
  outer loop
   vertex 1094.643853 1969.200214 -412.994660
   vertex 1142.124562 2063.213220 -1358.449204
   vertex 1144.643853 2055.800214 -1358.994660
  endloop
 endfacet
 facet normal -0.979430 -0.189578 -0.069122
  outer loop
   vertex 1092.124562 1976.613220 -412.449204
   vertex 1090.595537 1984.286075 -411.827621
   vertex 1140.595537 2070.886075 -1357.827621
  endloop
 endfacet
 facet normal -0.979430 -0.189578 -0.069122
  outer loop
   vertex 1092.124562 1976.613220 -412.449204
   vertex 1140.595537 2070.886075 -1357.827621
   vertex 1142.124562 2063.213220 -1358.449204
  endloop
 endfacet
 facet normal -0.996480 -0.060349 -0.058193
  outer loop
   vertex 1090.595537 1984.286075 -411.827621
   vertex 1090.082938 1992.087496 -411.140545
   vertex 1140.082938 2078.687496 -1357.140545
  endloop
 endfacet
 facet normal -0.996480 -0.060349 -0.058193
  outer loop
   vertex 1090.595537 1984.286075 -411.827621
   vertex 1140.082938 2078.687496 -1357.140545
   vertex 1140.595537 2070.886075 -1357.827621
  endloop
 endfacet
 facet normal -0.996480 0.069912 -0.046268
  outer loop
   vertex 1090.082938 1992.087496 -411.140545
   vertex 1090.595537 1999.883998 -410.399735
   vertex 1140.595537 2086.483998 -1356.399735
  endloop
 endfacet
 facet normal -0.996480 0.069912 -0.046268
  outer loop
   vertex 1090.082938 1992.087496 -411.140545
   vertex 1140.595537 2086.483998 -1356.399735
   vertex 1140.082938 2078.687496 -1357.140545
  endloop
 endfacet
 facet normal -0.979430 0.198978 -0.033552
  outer loop
   vertex 1090.595537 1999.883998 -410.399735
   vertex 1092.124562 2007.542180 -409.617864
   vertex 1142.124562 2094.142180 -1355.617864
  endloop
 endfacet
 facet normal -0.979430 0.198978 -0.033552
  outer loop
   vertex 1090.595537 1999.883998 -410.399735
   vertex 1142.124562 2094.142180 -1355.617864
   vertex 1140.595537 2086.483998 -1356.399735
  endloop
 endfacet
 facet normal -0.945621 0.324638 -0.020262
  outer loop
   vertex 1092.124562 2007.542180 -409.617864
   vertex 1094.643853 2014.931009 -408.808311
   vertex 1144.643853 2101.531009 -1354.808311
  endloop
 endfacet
 facet normal -0.945621 0.324638 -0.020262
  outer loop
   vertex 1092.124562 2007.542180 -409.617864
   vertex 1144.643853 2101.531009 -1354.808311
   vertex 1142.124562 2094.142180 -1355.617864
  endloop
 endfacet
 facet normal -0.895633 0.444744 -0.006625
  outer loop
   vertex 1094.643853 2014.931009 -408.808311
   vertex 1098.110302 2021.924061 -407.984927
   vertex 1148.110302 2108.524061 -1353.984927
  endloop
 endfacet
 facet normal -0.895633 0.444744 -0.006625
  outer loop
   vertex 1094.643853 2014.931009 -408.808311
   vertex 1148.110302 2108.524061 -1353.984927
   vertex 1144.643853 2101.531009 -1354.808311
  endloop
 endfacet
 facet normal -0.830320 0.557241 0.007126
  outer loop
   vertex 1098.110302 2021.924061 -407.984927
   vertex 1102.464599 2028.401681 -407.161802
   vertex 1152.464599 2115.001681 -1353.161802
  endloop
 endfacet
 facet normal -0.830320 0.557241 0.007126
  outer loop
   vertex 1098.110302 2021.924061 -407.984927
   vertex 1152.464599 2115.001681 -1353.161802
   vertex 1148.110302 2108.524061 -1353.984927
  endloop
 endfacet
 facet normal -0.750801 0.660203 0.020754
  outer loop
   vertex 1102.464599 2028.401681 -407.161802
   vertex 1107.632239 2034.253036 -406.353018
   vertex 1157.632239 2120.853036 -1352.353018
  endloop
 endfacet
 facet normal -0.750801 0.660203 0.020754
  outer loop
   vertex 1102.464599 2028.401681 -407.161802
   vertex 1157.632239 2120.853036 -1352.353018
   vertex 1152.464599 2115.001681 -1353.161802
  endloop
 endfacet
 facet normal -0.658434 0.751869 0.034028
  outer loop
   vertex 1107.632239 2034.253036 -406.353018
   vertex 1113.524804 2039.378008 -405.572415
   vertex 1163.524804 2125.978008 -1351.572415
  endloop
 endfacet
 facet normal -0.658434 0.751869 0.034028
  outer loop
   vertex 1107.632239 2034.253036 -406.353018
   vertex 1163.524804 2125.978008 -1351.572415
   vertex 1157.632239 2120.853036 -1352.353018
  endloop
 endfacet
 facet normal -0.554802 0.830669 0.046719
  outer loop
   vertex 1113.524804 2039.378008 -405.572415
   vertex 1120.041469 2043.688908 -404.833348
   vertex 1170.041469 2130.288908 -1350.833348
  endloop
 endfacet
 facet normal -0.554802 0.830669 0.046719
  outer loop
   vertex 1113.524804 2039.378008 -405.572415
   vertex 1170.041469 2130.288908 -1350.833348
   vertex 1163.524804 2125.978008 -1351.572415
  endloop
 endfacet
 facet normal -0.441677 0.895257 0.058610
  outer loop
   vertex 1120.041469 2043.688908 -404.833348
   vertex 1127.070733 2047.111973 -404.148463
   vertex 1177.070733 2133.711973 -1350.148463
  endloop
 endfacet
 facet normal -0.441677 0.895257 0.058610
  outer loop
   vertex 1120.041469 2043.688908 -404.833348
   vertex 1177.070733 2133.711973 -1350.148463
   vertex 1170.041469 2130.288908 -1350.833348
  endloop
 endfacet
 facet normal -0.320995 0.944527 0.069499
  outer loop
   vertex 1127.070733 2047.111973 -404.148463
   vertex 1134.492323 2049.588636 -403.529480
   vertex 1184.492323 2136.188636 -1349.529480
  endloop
 endfacet
 facet normal -0.320995 0.944527 0.069499
  outer loop
   vertex 1127.070733 2047.111973 -404.148463
   vertex 1184.492323 2136.188636 -1349.529480
   vertex 1177.070733 2133.711973 -1350.148463
  endloop
 endfacet
 facet normal -0.194821 0.977636 0.079199
  outer loop
   vertex 1134.492323 2049.588636 -403.529480
   vertex 1142.179254 2051.076518 -402.986988
   vertex 1192.179254 2137.676518 -1348.986988
  endloop
 endfacet
 facet normal -0.194821 0.977636 0.079199
  outer loop
   vertex 1134.492323 2049.588636 -403.529480
   vertex 1192.179254 2137.676518 -1348.986988
   vertex 1184.492323 2136.188636 -1349.529480
  endloop
 endfacet
 facet normal -0.065313 0.994017 0.087544
  outer loop
   vertex 1142.179254 2051.076518 -402.986988
   vertex 1150.000000 2051.550164 -402.530270
   vertex 1200.000000 2138.150164 -1348.530270
  endloop
 endfacet
 facet normal -0.065313 0.994017 0.087544
  outer loop
   vertex 1142.179254 2051.076518 -402.986988
   vertex 1200.000000 2138.150164 -1348.530270
   vertex 1192.179254 2137.676518 -1348.986988
  endloop
 endfacet
endsolid SIC_RP1_dropA_4
