solid SIC_RP1_feed_2_Hrun
 facet normal 0.000000 -0.997859 0.065403
  outer loop
   vertex 2970.000000 -110.000000 -520.000000
   vertex 2970.000000 -109.058935 -505.642119
   vertex 0.000000 -109.058935 -505.642119
  endloop
 endfacet
 facet normal 0.000000 -0.997859 0.065403
  outer loop
   vertex 2970.000000 -110.000000 -520.000000
   vertex 0.000000 -109.058935 -505.642119
   vertex 0.000000 -110.000000 -520.000000
  endloop
 endfacet
 facet normal 0.000000 -0.980785 0.195090
  outer loop
   vertex 2970.000000 -109.058935 -505.642119
   vertex 2970.000000 -106.251841 -491.529905
   vertex 0.000000 -106.251841 -491.529905
  endloop
 endfacet
 facet normal 0.000000 -0.980785 0.195090
  outer loop
   vertex 2970.000000 -109.058935 -505.642119
   vertex 0.000000 -106.251841 -491.529905
   vertex 0.000000 -109.058935 -505.642119
  endloop
 endfacet
 facet normal 0.000000 -0.946930 0.321439
  outer loop
   vertex 2970.000000 -106.251841 -491.529905
   vertex 2970.000000 -101.626749 -477.904822
   vertex 0.000000 -101.626749 -477.904822
  endloop
 endfacet
 facet normal 0.000000 -0.946930 0.321439
  outer loop
   vertex 2970.000000 -106.251841 -491.529905
   vertex 0.000000 -101.626749 -477.904822
   vertex 0.000000 -106.251841 -491.529905
  endloop
 endfacet
 facet normal 0.000000 -0.896873 0.442289
  outer loop
   vertex 2970.000000 -101.626749 -477.904822
   vertex 2970.000000 -95.262794 -465.000000
   vertex 0.000000 -95.262794 -465.000000
  endloop
 endfacet
 facet normal 0.000000 -0.896873 0.442289
  outer loop
   vertex 2970.000000 -101.626749 -477.904822
   vertex 0.000000 -95.262794 -465.000000
   vertex 0.000000 -101.626749 -477.904822
  endloop
 endfacet
 facet normal 0.000000 -0.831470 0.555570
  outer loop
   vertex 2970.000000 -95.262794 -465.000000
   vertex 2970.000000 -87.268867 -453.036243
   vertex 0.000000 -87.268867 -453.036243
  endloop
 endfacet
 facet normal 0.000000 -0.831470 0.555570
  outer loop
   vertex 2970.000000 -95.262794 -465.000000
   vertex 0.000000 -87.268867 -453.036243
   vertex 0.000000 -95.262794 -465.000000
  endloop
 endfacet
 facet normal 0.000000 -0.751840 0.659346
  outer loop
   vertex 2970.000000 -87.268867 -453.036243
   vertex 2970.000000 -77.781746 -442.218254
   vertex 0.000000 -77.781746 -442.218254
  endloop
 endfacet
 facet normal 0.000000 -0.751840 0.659346
  outer loop
   vertex 2970.000000 -87.268867 -453.036243
   vertex 0.000000 -77.781746 -442.218254
   vertex 0.000000 -87.268867 -453.036243
  endloop
 endfacet
 facet normal 0.000000 -0.659346 0.751840
  outer loop
   vertex 2970.000000 -77.781746 -442.218254
   vertex 2970.000000 -66.963757 -432.731133
   vertex 0.000000 -66.963757 -432.731133
  endloop
 endfacet
 facet normal 0.000000 -0.659346 0.751840
  outer loop
   vertex 2970.000000 -77.781746 -442.218254
   vertex 0.000000 -66.963757 -432.731133
   vertex 0.000000 -77.781746 -442.218254
  endloop
 endfacet
 facet normal 0.000000 -0.555570 0.831470
  outer loop
   vertex 2970.000000 -66.963757 -432.731133
   vertex 2970.000000 -55.000000 -424.737206
   vertex 0.000000 -55.000000 -424.737206
  endloop
 endfacet
 facet normal 0.000000 -0.555570 0.831470
  outer loop
   vertex 2970.000000 -66.963757 -432.731133
   vertex 0.000000 -55.000000 -424.737206
   vertex 0.000000 -66.963757 -432.731133
  endloop
 endfacet
 facet normal 0.000000 -0.442289 0.896873
  outer loop
   vertex 2970.000000 -55.000000 -424.737206
   vertex 2970.000000 -42.095178 -418.373251
   vertex 0.000000 -42.095178 -418.373251
  endloop
 endfacet
 facet normal 0.000000 -0.442289 0.896873
  outer loop
   vertex 2970.000000 -55.000000 -424.737206
   vertex 0.000000 -42.095178 -418.373251
   vertex 0.000000 -55.000000 -424.737206
  endloop
 endfacet
 facet normal 0.000000 -0.321439 0.946930
  outer loop
   vertex 2970.000000 -42.095178 -418.373251
   vertex 2970.000000 -28.470095 -413.748159
   vertex 0.000000 -28.470095 -413.748159
  endloop
 endfacet
 facet normal 0.000000 -0.321439 0.946930
  outer loop
   vertex 2970.000000 -42.095178 -418.373251
   vertex 0.000000 -28.470095 -413.748159
   vertex 0.000000 -42.095178 -418.373251
  endloop
 endfacet
 facet normal 0.000000 -0.195090 0.980785
  outer loop
   vertex 2970.000000 -28.470095 -413.748159
   vertex 2970.000000 -14.357881 -410.941065
   vertex 0.000000 -14.357881 -410.941065
  endloop
 endfacet
 facet normal 0.000000 -0.195090 0.980785
  outer loop
   vertex 2970.000000 -28.470095 -413.748159
   vertex 0.000000 -14.357881 -410.941065
   vertex 0.000000 -28.470095 -413.748159
  endloop
 endfacet
 facet normal 0.000000 -0.065403 0.997859
  outer loop
   vertex 2970.000000 -14.357881 -410.941065
   vertex 2970.000000 -0.000000 -410.000000
   vertex 0.000000 -0.000000 -410.000000
  endloop
 endfacet
 facet normal 0.000000 -0.065403 0.997859
  outer loop
   vertex 2970.000000 -14.357881 -410.941065
   vertex 0.000000 -0.000000 -410.000000
   vertex 0.000000 -14.357881 -410.941065
  endloop
 endfacet
 facet normal 0.000000 0.065403 0.997859
  outer loop
   vertex 2970.000000 -0.000000 -410.000000
   vertex 2970.000000 14.357881 -410.941065
   vertex 0.000000 14.357881 -410.941065
  endloop
 endfacet
 facet normal 0.000000 0.065403 0.997859
  outer loop
   vertex 2970.000000 -0.000000 -410.000000
   vertex 0.000000 14.357881 -410.941065
   vertex 0.000000 -0.000000 -410.000000
  endloop
 endfacet
 facet normal 0.000000 0.195090 0.980785
  outer loop
   vertex 2970.000000 14.357881 -410.941065
   vertex 2970.000000 28.470095 -413.748159
   vertex 0.000000 28.470095 -413.748159
  endloop
 endfacet
 facet normal 0.000000 0.195090 0.980785
  outer loop
   vertex 2970.000000 14.357881 -410.941065
   vertex 0.000000 28.470095 -413.748159
   vertex 0.000000 14.357881 -410.941065
  endloop
 endfacet
 facet normal 0.000000 0.321439 0.946930
  outer loop
   vertex 2970.000000 28.470095 -413.748159
   vertex 2970.000000 42.095178 -418.373251
   vertex 0.000000 42.095178 -418.373251
  endloop
 endfacet
 facet normal 0.000000 0.321439 0.946930
  outer loop
   vertex 2970.000000 28.470095 -413.748159
   vertex 0.000000 42.095178 -418.373251
   vertex 0.000000 28.470095 -413.748159
  endloop
 endfacet
 facet normal 0.000000 0.442289 0.896873
  outer loop
   vertex 2970.000000 42.095178 -418.373251
   vertex 2970.000000 55.000000 -424.737206
   vertex 0.000000 55.000000 -424.737206
  endloop
 endfacet
 facet normal 0.000000 0.442289 0.896873
  outer loop
   vertex 2970.000000 42.095178 -418.373251
   vertex 0.000000 55.000000 -424.737206
   vertex 0.000000 42.095178 -418.373251
  endloop
 endfacet
 facet normal 0.000000 0.555570 0.831470
  outer loop
   vertex 2970.000000 55.000000 -424.737206
   vertex 2970.000000 66.963757 -432.731133
   vertex 0.000000 66.963757 -432.731133
  endloop
 endfacet
 facet normal 0.000000 0.555570 0.831470
  outer loop
   vertex 2970.000000 55.000000 -424.737206
   vertex 0.000000 66.963757 -432.731133
   vertex 0.000000 55.000000 -424.737206
  endloop
 endfacet
 facet normal 0.000000 0.659346 0.751840
  outer loop
   vertex 2970.000000 66.963757 -432.731133
   vertex 2970.000000 77.781746 -442.218254
   vertex 0.000000 77.781746 -442.218254
  endloop
 endfacet
 facet normal 0.000000 0.659346 0.751840
  outer loop
   vertex 2970.000000 66.963757 -432.731133
   vertex 0.000000 77.781746 -442.218254
   vertex 0.000000 66.963757 -432.731133
  endloop
 endfacet
 facet normal 0.000000 0.751840 0.659346
  outer loop
   vertex 2970.000000 77.781746 -442.218254
   vertex 2970.000000 87.268867 -453.036243
   vertex 0.000000 87.268867 -453.036243
  endloop
 endfacet
 facet normal 0.000000 0.751840 0.659346
  outer loop
   vertex 2970.000000 77.781746 -442.218254
   vertex 0.000000 87.268867 -453.036243
   vertex 0.000000 77.781746 -442.218254
  endloop
 endfacet
 facet normal 0.000000 0.831470 0.555570
  outer loop
   vertex 2970.000000 87.268867 -453.036243
   vertex 2970.000000 95.262794 -465.000000
   vertex 0.000000 95.262794 -465.000000
  endloop
 endfacet
 facet normal 0.000000 0.831470 0.555570
  outer loop
   vertex 2970.000000 87.268867 -453.036243
   vertex 0.000000 95.262794 -465.000000
   vertex 0.000000 87.268867 -453.036243
  endloop
 endfacet
 facet normal 0.000000 0.896873 0.442289
  outer loop
   vertex 2970.000000 95.262794 -465.000000
   vertex 2970.000000 101.626749 -477.904822
   vertex 0.000000 101.626749 -477.904822
  endloop
 endfacet
 facet normal 0.000000 0.896873 0.442289
  outer loop
   vertex 2970.000000 95.262794 -465.000000
   vertex 0.000000 101.626749 -477.904822
   vertex 0.000000 95.262794 -465.000000
  endloop
 endfacet
 facet normal 0.000000 0.946930 0.321439
  outer loop
   vertex 2970.000000 101.626749 -477.904822
   vertex 2970.000000 106.251841 -491.529905
   vertex 0.000000 106.251841 -491.529905
  endloop
 endfacet
 facet normal 0.000000 0.946930 0.321439
  outer loop
   vertex 2970.000000 101.626749 -477.904822
   vertex 0.000000 106.251841 -491.529905
   vertex 0.000000 101.626749 -477.904822
  endloop
 endfacet
 facet normal 0.000000 0.980785 0.195090
  outer loop
   vertex 2970.000000 106.251841 -491.529905
   vertex 2970.000000 109.058935 -505.642119
   vertex 0.000000 109.058935 -505.642119
  endloop
 endfacet
 facet normal 0.000000 0.980785 0.195090
  outer loop
   vertex 2970.000000 106.251841 -491.529905
   vertex 0.000000 109.058935 -505.642119
   vertex 0.000000 106.251841 -491.529905
  endloop
 endfacet
 facet normal 0.000000 0.997859 0.065403
  outer loop
   vertex 2970.000000 109.058935 -505.642119
   vertex 2970.000000 110.000000 -520.000000
   vertex 0.000000 110.000000 -520.000000
  endloop
 endfacet
 facet normal 0.000000 0.997859 0.065403
  outer loop
   vertex 2970.000000 109.058935 -505.642119
   vertex 0.000000 110.000000 -520.000000
   vertex 0.000000 109.058935 -505.642119
  endloop
 endfacet
 facet normal 0.000000 0.997859 -0.065403
  outer loop
   vertex 2970.000000 110.000000 -520.000000
   vertex 2970.000000 109.058935 -534.357881
   vertex 0.000000 109.058935 -534.357881
  endloop
 endfacet
 facet normal 0.000000 0.997859 -0.065403
  outer loop
   vertex 2970.000000 110.000000 -520.000000
   vertex 0.000000 109.058935 -534.357881
   vertex 0.000000 110.000000 -520.000000
  endloop
 endfacet
 facet normal 0.000000 0.980785 -0.195090
  outer loop
   vertex 2970.000000 109.058935 -534.357881
   vertex 2970.000000 106.251841 -548.470095
   vertex 0.000000 106.251841 -548.470095
  endloop
 endfacet
 facet normal 0.000000 0.980785 -0.195090
  outer loop
   vertex 2970.000000 109.058935 -534.357881
   vertex 0.000000 106.251841 -548.470095
   vertex 0.000000 109.058935 -534.357881
  endloop
 endfacet
 facet normal 0.000000 0.946930 -0.321439
  outer loop
   vertex 2970.000000 106.251841 -548.470095
   vertex 2970.000000 101.626749 -562.095178
   vertex 0.000000 101.626749 -562.095178
  endloop
 endfacet
 facet normal 0.000000 0.946930 -0.321439
  outer loop
   vertex 2970.000000 106.251841 -548.470095
   vertex 0.000000 101.626749 -562.095178
   vertex 0.000000 106.251841 -548.470095
  endloop
 endfacet
 facet normal 0.000000 0.896873 -0.442289
  outer loop
   vertex 2970.000000 101.626749 -562.095178
   vertex 2970.000000 95.262794 -575.000000
   vertex 0.000000 95.262794 -575.000000
  endloop
 endfacet
 facet normal 0.000000 0.896873 -0.442289
  outer loop
   vertex 2970.000000 101.626749 -562.095178
   vertex 0.000000 95.262794 -575.000000
   vertex 0.000000 101.626749 -562.095178
  endloop
 endfacet
 facet normal 0.000000 0.831470 -0.555570
  outer loop
   vertex 2970.000000 95.262794 -575.000000
   vertex 2970.000000 87.268867 -586.963757
   vertex 0.000000 87.268867 -586.963757
  endloop
 endfacet
 facet normal 0.000000 0.831470 -0.555570
  outer loop
   vertex 2970.000000 95.262794 -575.000000
   vertex 0.000000 87.268867 -586.963757
   vertex 0.000000 95.262794 -575.000000
  endloop
 endfacet
 facet normal 0.000000 0.751840 -0.659346
  outer loop
   vertex 2970.000000 87.268867 -586.963757
   vertex 2970.000000 77.781746 -597.781746
   vertex 0.000000 77.781746 -597.781746
  endloop
 endfacet
 facet normal 0.000000 0.751840 -0.659346
  outer loop
   vertex 2970.000000 87.268867 -586.963757
   vertex 0.000000 77.781746 -597.781746
   vertex 0.000000 87.268867 -586.963757
  endloop
 endfacet
 facet normal 0.000000 0.659346 -0.751840
  outer loop
   vertex 2970.000000 77.781746 -597.781746
   vertex 2970.000000 66.963757 -607.268867
   vertex 0.000000 66.963757 -607.268867
  endloop
 endfacet
 facet normal 0.000000 0.659346 -0.751840
  outer loop
   vertex 2970.000000 77.781746 -597.781746
   vertex 0.000000 66.963757 -607.268867
   vertex 0.000000 77.781746 -597.781746
  endloop
 endfacet
 facet normal 0.000000 0.555570 -0.831470
  outer loop
   vertex 2970.000000 66.963757 -607.268867
   vertex 2970.000000 55.000000 -615.262794
   vertex 0.000000 55.000000 -615.262794
  endloop
 endfacet
 facet normal 0.000000 0.555570 -0.831470
  outer loop
   vertex 2970.000000 66.963757 -607.268867
   vertex 0.000000 55.000000 -615.262794
   vertex 0.000000 66.963757 -607.268867
  endloop
 endfacet
 facet normal 0.000000 0.442289 -0.896873
  outer loop
   vertex 2970.000000 55.000000 -615.262794
   vertex 2970.000000 42.095178 -621.626749
   vertex 0.000000 42.095178 -621.626749
  endloop
 endfacet
 facet normal 0.000000 0.442289 -0.896873
  outer loop
   vertex 2970.000000 55.000000 -615.262794
   vertex 0.000000 42.095178 -621.626749
   vertex 0.000000 55.000000 -615.262794
  endloop
 endfacet
 facet normal 0.000000 0.321439 -0.946930
  outer loop
   vertex 2970.000000 42.095178 -621.626749
   vertex 2970.000000 28.470095 -626.251841
   vertex 0.000000 28.470095 -626.251841
  endloop
 endfacet
 facet normal 0.000000 0.321439 -0.946930
  outer loop
   vertex 2970.000000 42.095178 -621.626749
   vertex 0.000000 28.470095 -626.251841
   vertex 0.000000 42.095178 -621.626749
  endloop
 endfacet
 facet normal 0.000000 0.195090 -0.980785
  outer loop
   vertex 2970.000000 28.470095 -626.251841
   vertex 2970.000000 14.357881 -629.058935
   vertex 0.000000 14.357881 -629.058935
  endloop
 endfacet
 facet normal 0.000000 0.195090 -0.980785
  outer loop
   vertex 2970.000000 28.470095 -626.251841
   vertex 0.000000 14.357881 -629.058935
   vertex 0.000000 28.470095 -626.251841
  endloop
 endfacet
 facet normal 0.000000 0.065403 -0.997859
  outer loop
   vertex 2970.000000 14.357881 -629.058935
   vertex 2970.000000 0.000000 -630.000000
   vertex 0.000000 0.000000 -630.000000
  endloop
 endfacet
 facet normal 0.000000 0.065403 -0.997859
  outer loop
   vertex 2970.000000 14.357881 -629.058935
   vertex 0.000000 0.000000 -630.000000
   vertex 0.000000 14.357881 -629.058935
  endloop
 endfacet
 facet normal 0.000000 -0.065403 -0.997859
  outer loop
   vertex 2970.000000 0.000000 -630.000000
   vertex 2970.000000 -14.357881 -629.058935
   vertex 0.000000 -14.357881 -629.058935
  endloop
 endfacet
 facet normal -0.000000 -0.065403 -0.997859
  outer loop
   vertex 2970.000000 0.000000 -630.000000
   vertex 0.000000 -14.357881 -629.058935
   vertex 0.000000 0.000000 -630.000000
  endloop
 endfacet
 facet normal 0.000000 -0.195090 -0.980785
  outer loop
   vertex 2970.000000 -14.357881 -629.058935
   vertex 2970.000000 -28.470095 -626.251841
   vertex 0.000000 -28.470095 -626.251841
  endloop
 endfacet
 facet normal -0.000000 -0.195090 -0.980785
  outer loop
   vertex 2970.000000 -14.357881 -629.058935
   vertex 0.000000 -28.470095 -626.251841
   vertex 0.000000 -14.357881 -629.058935
  endloop
 endfacet
 facet normal 0.000000 -0.321439 -0.946930
  outer loop
   vertex 2970.000000 -28.470095 -626.251841
   vertex 2970.000000 -42.095178 -621.626749
   vertex 0.000000 -42.095178 -621.626749
  endloop
 endfacet
 facet normal -0.000000 -0.321439 -0.946930
  outer loop
   vertex 2970.000000 -28.470095 -626.251841
   vertex 0.000000 -42.095178 -621.626749
   vertex 0.000000 -28.470095 -626.251841
  endloop
 endfacet
 facet normal 0.000000 -0.442289 -0.896873
  outer loop
   vertex 2970.000000 -42.095178 -621.626749
   vertex 2970.000000 -55.000000 -615.262794
   vertex 0.000000 -55.000000 -615.262794
  endloop
 endfacet
 facet normal -0.000000 -0.442289 -0.896873
  outer loop
   vertex 2970.000000 -42.095178 -621.626749
   vertex 0.000000 -55.000000 -615.262794
   vertex 0.000000 -42.095178 -621.626749
  endloop
 endfacet
 facet normal 0.000000 -0.555570 -0.831470
  outer loop
   vertex 2970.000000 -55.000000 -615.262794
   vertex 2970.000000 -66.963757 -607.268867
   vertex 0.000000 -66.963757 -607.268867
  endloop
 endfacet
 facet normal -0.000000 -0.555570 -0.831470
  outer loop
   vertex 2970.000000 -55.000000 -615.262794
   vertex 0.000000 -66.963757 -607.268867
   vertex 0.000000 -55.000000 -615.262794
  endloop
 endfacet
 facet normal 0.000000 -0.659346 -0.751840
  outer loop
   vertex 2970.000000 -66.963757 -607.268867
   vertex 2970.000000 -77.781746 -597.781746
   vertex 0.000000 -77.781746 -597.781746
  endloop
 endfacet
 facet normal -0.000000 -0.659346 -0.751840
  outer loop
   vertex 2970.000000 -66.963757 -607.268867
   vertex 0.000000 -77.781746 -597.781746
   vertex 0.000000 -66.963757 -607.268867
  endloop
 endfacet
 facet normal 0.000000 -0.751840 -0.659346
  outer loop
   vertex 2970.000000 -77.781746 -597.781746
   vertex 2970.000000 -87.268867 -586.963757
   vertex 0.000000 -87.268867 -586.963757
  endloop
 endfacet
 facet normal -0.000000 -0.751840 -0.659346
  outer loop
   vertex 2970.000000 -77.781746 -597.781746
   vertex 0.000000 -87.268867 -586.963757
   vertex 0.000000 -77.781746 -597.781746
  endloop
 endfacet
 facet normal 0.000000 -0.831470 -0.555570
  outer loop
   vertex 2970.000000 -87.268867 -586.963757
   vertex 2970.000000 -95.262794 -575.000000
   vertex 0.000000 -95.262794 -575.000000
  endloop
 endfacet
 facet normal -0.000000 -0.831470 -0.555570
  outer loop
   vertex 2970.000000 -87.268867 -586.963757
   vertex 0.000000 -95.262794 -575.000000
   vertex 0.000000 -87.268867 -586.963757
  endloop
 endfacet
 facet normal 0.000000 -0.896873 -0.442289
  outer loop
   vertex 2970.000000 -95.262794 -575.000000
   vertex 2970.000000 -101.626749 -562.095178
   vertex 0.000000 -101.626749 -562.095178
  endloop
 endfacet
 facet normal -0.000000 -0.896873 -0.442289
  outer loop
   vertex 2970.000000 -95.262794 -575.000000
   vertex 0.000000 -101.626749 -562.095178
   vertex 0.000000 -95.262794 -575.000000
  endloop
 endfacet
 facet normal 0.000000 -0.946930 -0.321439
  outer loop
   vertex 2970.000000 -101.626749 -562.095178
   vertex 2970.000000 -106.251841 -548.470095
   vertex 0.000000 -106.251841 -548.470095
  endloop
 endfacet
 facet normal -0.000000 -0.946930 -0.321439
  outer loop
   vertex 2970.000000 -101.626749 -562.095178
   vertex 0.000000 -106.251841 -548.470095
   vertex 0.000000 -101.626749 -562.095178
  endloop
 endfacet
 facet normal 0.000000 -0.980785 -0.195090
  outer loop
   vertex 2970.000000 -106.251841 -548.470095
   vertex 2970.000000 -109.058935 -534.357881
   vertex 0.000000 -109.058935 -534.357881
  endloop
 endfacet
 facet normal -0.000000 -0.980785 -0.195090
  outer loop
   vertex 2970.000000 -106.251841 -548.470095
   vertex 0.000000 -109.058935 -534.357881
   vertex 0.000000 -106.251841 -548.470095
  endloop
 endfacet
 facet normal 0.000000 -0.997859 -0.065403
  outer loop
   vertex 2970.000000 -109.058935 -534.357881
   vertex 2970.000000 -110.000000 -520.000000
   vertex 0.000000 -110.000000 -520.000000
  endloop
 endfacet
 facet normal -0.000000 -0.997859 -0.065403
  outer loop
   vertex 2970.000000 -109.058935 -534.357881
   vertex 0.000000 -110.000000 -520.000000
   vertex 0.000000 -109.058935 -534.357881
  endloop
 endfacet
 facet normal 0.000000 0.997859 -0.065403
  outer loop
   vertex 0.000000 -95.178707 -507.469486
   vertex 2970.000000 -95.178707 -507.469486
   vertex 2970.000000 -96.000000 -520.000000
  endloop
 endfacet
 facet normal 0.000000 0.997859 -0.065403
  outer loop
   vertex 0.000000 -96.000000 -520.000000
   vertex 0.000000 -95.178707 -507.469486
   vertex 2970.000000 -96.000000 -520.000000
  endloop
 endfacet
 facet normal 0.000000 0.980785 -0.195090
  outer loop
   vertex 0.000000 -92.728879 -495.153372
   vertex 2970.000000 -92.728879 -495.153372
   vertex 2970.000000 -95.178707 -507.469486
  endloop
 endfacet
 facet normal 0.000000 0.980785 -0.195090
  outer loop
   vertex 0.000000 -95.178707 -507.469486
   vertex 0.000000 -92.728879 -495.153372
   vertex 2970.000000 -95.178707 -507.469486
  endloop
 endfacet
 facet normal 0.000000 0.946930 -0.321439
  outer loop
   vertex 0.000000 -88.692435 -483.262390
   vertex 2970.000000 -88.692435 -483.262390
   vertex 2970.000000 -92.728879 -495.153372
  endloop
 endfacet
 facet normal 0.000000 0.946930 -0.321439
  outer loop
   vertex 0.000000 -92.728879 -495.153372
   vertex 0.000000 -88.692435 -483.262390
   vertex 2970.000000 -92.728879 -495.153372
  endloop
 endfacet
 facet normal 0.000000 0.896873 -0.442289
  outer loop
   vertex 0.000000 -83.138439 -472.000000
   vertex 2970.000000 -83.138439 -472.000000
   vertex 2970.000000 -88.692435 -483.262390
  endloop
 endfacet
 facet normal 0.000000 0.896873 -0.442289
  outer loop
   vertex 0.000000 -88.692435 -483.262390
   vertex 0.000000 -83.138439 -472.000000
   vertex 2970.000000 -88.692435 -483.262390
  endloop
 endfacet
 facet normal 0.000000 0.831470 -0.555570
  outer loop
   vertex 0.000000 -76.161921 -461.558903
   vertex 2970.000000 -76.161921 -461.558903
   vertex 2970.000000 -83.138439 -472.000000
  endloop
 endfacet
 facet normal 0.000000 0.831470 -0.555570
  outer loop
   vertex 0.000000 -83.138439 -472.000000
   vertex 0.000000 -76.161921 -461.558903
   vertex 2970.000000 -83.138439 -472.000000
  endloop
 endfacet
 facet normal 0.000000 0.751840 -0.659346
  outer loop
   vertex 0.000000 -67.882251 -452.117749
   vertex 2970.000000 -67.882251 -452.117749
   vertex 2970.000000 -76.161921 -461.558903
  endloop
 endfacet
 facet normal 0.000000 0.751840 -0.659346
  outer loop
   vertex 0.000000 -76.161921 -461.558903
   vertex 0.000000 -67.882251 -452.117749
   vertex 2970.000000 -76.161921 -461.558903
  endloop
 endfacet
 facet normal 0.000000 0.659346 -0.751840
  outer loop
   vertex 0.000000 -58.441097 -443.838079
   vertex 2970.000000 -58.441097 -443.838079
   vertex 2970.000000 -67.882251 -452.117749
  endloop
 endfacet
 facet normal 0.000000 0.659346 -0.751840
  outer loop
   vertex 0.000000 -67.882251 -452.117749
   vertex 0.000000 -58.441097 -443.838079
   vertex 2970.000000 -67.882251 -452.117749
  endloop
 endfacet
 facet normal 0.000000 0.555570 -0.831470
  outer loop
   vertex 0.000000 -48.000000 -436.861561
   vertex 2970.000000 -48.000000 -436.861561
   vertex 2970.000000 -58.441097 -443.838079
  endloop
 endfacet
 facet normal 0.000000 0.555570 -0.831470
  outer loop
   vertex 0.000000 -58.441097 -443.838079
   vertex 0.000000 -48.000000 -436.861561
   vertex 2970.000000 -58.441097 -443.838079
  endloop
 endfacet
 facet normal 0.000000 0.442289 -0.896873
  outer loop
   vertex 0.000000 -36.737610 -431.307565
   vertex 2970.000000 -36.737610 -431.307565
   vertex 2970.000000 -48.000000 -436.861561
  endloop
 endfacet
 facet normal 0.000000 0.442289 -0.896873
  outer loop
   vertex 0.000000 -48.000000 -436.861561
   vertex 0.000000 -36.737610 -431.307565
   vertex 2970.000000 -48.000000 -436.861561
  endloop
 endfacet
 facet normal 0.000000 0.321439 -0.946930
  outer loop
   vertex 0.000000 -24.846628 -427.271121
   vertex 2970.000000 -24.846628 -427.271121
   vertex 2970.000000 -36.737610 -431.307565
  endloop
 endfacet
 facet normal 0.000000 0.321439 -0.946930
  outer loop
   vertex 0.000000 -36.737610 -431.307565
   vertex 0.000000 -24.846628 -427.271121
   vertex 2970.000000 -36.737610 -431.307565
  endloop
 endfacet
 facet normal 0.000000 0.195090 -0.980785
  outer loop
   vertex 0.000000 -12.530514 -424.821293
   vertex 2970.000000 -12.530514 -424.821293
   vertex 2970.000000 -24.846628 -427.271121
  endloop
 endfacet
 facet normal 0.000000 0.195090 -0.980785
  outer loop
   vertex 0.000000 -24.846628 -427.271121
   vertex 0.000000 -12.530514 -424.821293
   vertex 2970.000000 -24.846628 -427.271121
  endloop
 endfacet
 facet normal 0.000000 0.065403 -0.997859
  outer loop
   vertex 0.000000 -0.000000 -424.000000
   vertex 2970.000000 -0.000000 -424.000000
   vertex 2970.000000 -12.530514 -424.821293
  endloop
 endfacet
 facet normal 0.000000 0.065403 -0.997859
  outer loop
   vertex 0.000000 -12.530514 -424.821293
   vertex 0.000000 -0.000000 -424.000000
   vertex 2970.000000 -12.530514 -424.821293
  endloop
 endfacet
 facet normal 0.000000 -0.065403 -0.997859
  outer loop
   vertex 0.000000 12.530514 -424.821293
   vertex 2970.000000 12.530514 -424.821293
   vertex 2970.000000 -0.000000 -424.000000
  endloop
 endfacet
 facet normal 0.000000 -0.065403 -0.997859
  outer loop
   vertex 0.000000 -0.000000 -424.000000
   vertex 0.000000 12.530514 -424.821293
   vertex 2970.000000 -0.000000 -424.000000
  endloop
 endfacet
 facet normal 0.000000 -0.195090 -0.980785
  outer loop
   vertex 0.000000 24.846628 -427.271121
   vertex 2970.000000 24.846628 -427.271121
   vertex 2970.000000 12.530514 -424.821293
  endloop
 endfacet
 facet normal 0.000000 -0.195090 -0.980785
  outer loop
   vertex 0.000000 12.530514 -424.821293
   vertex 0.000000 24.846628 -427.271121
   vertex 2970.000000 12.530514 -424.821293
  endloop
 endfacet
 facet normal 0.000000 -0.321439 -0.946930
  outer loop
   vertex 0.000000 36.737610 -431.307565
   vertex 2970.000000 36.737610 -431.307565
   vertex 2970.000000 24.846628 -427.271121
  endloop
 endfacet
 facet normal 0.000000 -0.321439 -0.946930
  outer loop
   vertex 0.000000 24.846628 -427.271121
   vertex 0.000000 36.737610 -431.307565
   vertex 2970.000000 24.846628 -427.271121
  endloop
 endfacet
 facet normal 0.000000 -0.442289 -0.896873
  outer loop
   vertex 0.000000 48.000000 -436.861561
   vertex 2970.000000 48.000000 -436.861561
   vertex 2970.000000 36.737610 -431.307565
  endloop
 endfacet
 facet normal 0.000000 -0.442289 -0.896873
  outer loop
   vertex 0.000000 36.737610 -431.307565
   vertex 0.000000 48.000000 -436.861561
   vertex 2970.000000 36.737610 -431.307565
  endloop
 endfacet
 facet normal 0.000000 -0.555570 -0.831470
  outer loop
   vertex 0.000000 58.441097 -443.838079
   vertex 2970.000000 58.441097 -443.838079
   vertex 2970.000000 48.000000 -436.861561
  endloop
 endfacet
 facet normal 0.000000 -0.555570 -0.831470
  outer loop
   vertex 0.000000 48.000000 -436.861561
   vertex 0.000000 58.441097 -443.838079
   vertex 2970.000000 48.000000 -436.861561
  endloop
 endfacet
 facet normal 0.000000 -0.659346 -0.751840
  outer loop
   vertex 0.000000 67.882251 -452.117749
   vertex 2970.000000 67.882251 -452.117749
   vertex 2970.000000 58.441097 -443.838079
  endloop
 endfacet
 facet normal 0.000000 -0.659346 -0.751840
  outer loop
   vertex 0.000000 58.441097 -443.838079
   vertex 0.000000 67.882251 -452.117749
   vertex 2970.000000 58.441097 -443.838079
  endloop
 endfacet
 facet normal 0.000000 -0.751840 -0.659346
  outer loop
   vertex 0.000000 76.161921 -461.558903
   vertex 2970.000000 76.161921 -461.558903
   vertex 2970.000000 67.882251 -452.117749
  endloop
 endfacet
 facet normal 0.000000 -0.751840 -0.659346
  outer loop
   vertex 0.000000 67.882251 -452.117749
   vertex 0.000000 76.161921 -461.558903
   vertex 2970.000000 67.882251 -452.117749
  endloop
 endfacet
 facet normal 0.000000 -0.831470 -0.555570
  outer loop
   vertex 0.000000 83.138439 -472.000000
   vertex 2970.000000 83.138439 -472.000000
   vertex 2970.000000 76.161921 -461.558903
  endloop
 endfacet
 facet normal 0.000000 -0.831470 -0.555570
  outer loop
   vertex 0.000000 76.161921 -461.558903
   vertex 0.000000 83.138439 -472.000000
   vertex 2970.000000 76.161921 -461.558903
  endloop
 endfacet
 facet normal 0.000000 -0.896873 -0.442289
  outer loop
   vertex 0.000000 88.692435 -483.262390
   vertex 2970.000000 88.692435 -483.262390
   vertex 2970.000000 83.138439 -472.000000
  endloop
 endfacet
 facet normal 0.000000 -0.896873 -0.442289
  outer loop
   vertex 0.000000 83.138439 -472.000000
   vertex 0.000000 88.692435 -483.262390
   vertex 2970.000000 83.138439 -472.000000
  endloop
 endfacet
 facet normal 0.000000 -0.946930 -0.321439
  outer loop
   vertex 0.000000 92.728879 -495.153372
   vertex 2970.000000 92.728879 -495.153372
   vertex 2970.000000 88.692435 -483.262390
  endloop
 endfacet
 facet normal 0.000000 -0.946930 -0.321439
  outer loop
   vertex 0.000000 88.692435 -483.262390
   vertex 0.000000 92.728879 -495.153372
   vertex 2970.000000 88.692435 -483.262390
  endloop
 endfacet
 facet normal 0.000000 -0.980785 -0.195090
  outer loop
   vertex 0.000000 95.178707 -507.469486
   vertex 2970.000000 95.178707 -507.469486
   vertex 2970.000000 92.728879 -495.153372
  endloop
 endfacet
 facet normal 0.000000 -0.980785 -0.195090
  outer loop
   vertex 0.000000 92.728879 -495.153372
   vertex 0.000000 95.178707 -507.469486
   vertex 2970.000000 92.728879 -495.153372
  endloop
 endfacet
 facet normal 0.000000 -0.997859 -0.065403
  outer loop
   vertex 0.000000 96.000000 -520.000000
   vertex 2970.000000 96.000000 -520.000000
   vertex 2970.000000 95.178707 -507.469486
  endloop
 endfacet
 facet normal 0.000000 -0.997859 -0.065403
  outer loop
   vertex 0.000000 95.178707 -507.469486
   vertex 0.000000 96.000000 -520.000000
   vertex 2970.000000 95.178707 -507.469486
  endloop
 endfacet
 facet normal 0.000000 -0.997859 0.065403
  outer loop
   vertex 0.000000 95.178707 -532.530514
   vertex 2970.000000 95.178707 -532.530514
   vertex 2970.000000 96.000000 -520.000000
  endloop
 endfacet
 facet normal 0.000000 -0.997859 0.065403
  outer loop
   vertex 0.000000 96.000000 -520.000000
   vertex 0.000000 95.178707 -532.530514
   vertex 2970.000000 96.000000 -520.000000
  endloop
 endfacet
 facet normal 0.000000 -0.980785 0.195090
  outer loop
   vertex 0.000000 92.728879 -544.846628
   vertex 2970.000000 92.728879 -544.846628
   vertex 2970.000000 95.178707 -532.530514
  endloop
 endfacet
 facet normal 0.000000 -0.980785 0.195090
  outer loop
   vertex 0.000000 95.178707 -532.530514
   vertex 0.000000 92.728879 -544.846628
   vertex 2970.000000 95.178707 -532.530514
  endloop
 endfacet
 facet normal 0.000000 -0.946930 0.321439
  outer loop
   vertex 0.000000 88.692435 -556.737610
   vertex 2970.000000 88.692435 -556.737610
   vertex 2970.000000 92.728879 -544.846628
  endloop
 endfacet
 facet normal 0.000000 -0.946930 0.321439
  outer loop
   vertex 0.000000 92.728879 -544.846628
   vertex 0.000000 88.692435 -556.737610
   vertex 2970.000000 92.728879 -544.846628
  endloop
 endfacet
 facet normal 0.000000 -0.896873 0.442289
  outer loop
   vertex 0.000000 83.138439 -568.000000
   vertex 2970.000000 83.138439 -568.000000
   vertex 2970.000000 88.692435 -556.737610
  endloop
 endfacet
 facet normal 0.000000 -0.896873 0.442289
  outer loop
   vertex 0.000000 88.692435 -556.737610
   vertex 0.000000 83.138439 -568.000000
   vertex 2970.000000 88.692435 -556.737610
  endloop
 endfacet
 facet normal 0.000000 -0.831470 0.555570
  outer loop
   vertex 0.000000 76.161921 -578.441097
   vertex 2970.000000 76.161921 -578.441097
   vertex 2970.000000 83.138439 -568.000000
  endloop
 endfacet
 facet normal 0.000000 -0.831470 0.555570
  outer loop
   vertex 0.000000 83.138439 -568.000000
   vertex 0.000000 76.161921 -578.441097
   vertex 2970.000000 83.138439 -568.000000
  endloop
 endfacet
 facet normal 0.000000 -0.751840 0.659346
  outer loop
   vertex 0.000000 67.882251 -587.882251
   vertex 2970.000000 67.882251 -587.882251
   vertex 2970.000000 76.161921 -578.441097
  endloop
 endfacet
 facet normal 0.000000 -0.751840 0.659346
  outer loop
   vertex 0.000000 76.161921 -578.441097
   vertex 0.000000 67.882251 -587.882251
   vertex 2970.000000 76.161921 -578.441097
  endloop
 endfacet
 facet normal 0.000000 -0.659346 0.751840
  outer loop
   vertex 0.000000 58.441097 -596.161921
   vertex 2970.000000 58.441097 -596.161921
   vertex 2970.000000 67.882251 -587.882251
  endloop
 endfacet
 facet normal 0.000000 -0.659346 0.751840
  outer loop
   vertex 0.000000 67.882251 -587.882251
   vertex 0.000000 58.441097 -596.161921
   vertex 2970.000000 67.882251 -587.882251
  endloop
 endfacet
 facet normal 0.000000 -0.555570 0.831470
  outer loop
   vertex 0.000000 48.000000 -603.138439
   vertex 2970.000000 48.000000 -603.138439
   vertex 2970.000000 58.441097 -596.161921
  endloop
 endfacet
 facet normal 0.000000 -0.555570 0.831470
  outer loop
   vertex 0.000000 58.441097 -596.161921
   vertex 0.000000 48.000000 -603.138439
   vertex 2970.000000 58.441097 -596.161921
  endloop
 endfacet
 facet normal 0.000000 -0.442289 0.896873
  outer loop
   vertex 0.000000 36.737610 -608.692435
   vertex 2970.000000 36.737610 -608.692435
   vertex 2970.000000 48.000000 -603.138439
  endloop
 endfacet
 facet normal 0.000000 -0.442289 0.896873
  outer loop
   vertex 0.000000 48.000000 -603.138439
   vertex 0.000000 36.737610 -608.692435
   vertex 2970.000000 48.000000 -603.138439
  endloop
 endfacet
 facet normal 0.000000 -0.321439 0.946930
  outer loop
   vertex 0.000000 24.846628 -612.728879
   vertex 2970.000000 24.846628 -612.728879
   vertex 2970.000000 36.737610 -608.692435
  endloop
 endfacet
 facet normal 0.000000 -0.321439 0.946930
  outer loop
   vertex 0.000000 36.737610 -608.692435
   vertex 0.000000 24.846628 -612.728879
   vertex 2970.000000 36.737610 -608.692435
  endloop
 endfacet
 facet normal 0.000000 -0.195090 0.980785
  outer loop
   vertex 0.000000 12.530514 -615.178707
   vertex 2970.000000 12.530514 -615.178707
   vertex 2970.000000 24.846628 -612.728879
  endloop
 endfacet
 facet normal 0.000000 -0.195090 0.980785
  outer loop
   vertex 0.000000 24.846628 -612.728879
   vertex 0.000000 12.530514 -615.178707
   vertex 2970.000000 24.846628 -612.728879
  endloop
 endfacet
 facet normal 0.000000 -0.065403 0.997859
  outer loop
   vertex 0.000000 0.000000 -616.000000
   vertex 2970.000000 0.000000 -616.000000
   vertex 2970.000000 12.530514 -615.178707
  endloop
 endfacet
 facet normal 0.000000 -0.065403 0.997859
  outer loop
   vertex 0.000000 12.530514 -615.178707
   vertex 0.000000 0.000000 -616.000000
   vertex 2970.000000 12.530514 -615.178707
  endloop
 endfacet
 facet normal -0.000000 0.065403 0.997859
  outer loop
   vertex 0.000000 -12.530514 -615.178707
   vertex 2970.000000 -12.530514 -615.178707
   vertex 2970.000000 0.000000 -616.000000
  endloop
 endfacet
 facet normal -0.000000 0.065403 0.997859
  outer loop
   vertex 0.000000 0.000000 -616.000000
   vertex 0.000000 -12.530514 -615.178707
   vertex 2970.000000 0.000000 -616.000000
  endloop
 endfacet
 facet normal -0.000000 0.195090 0.980785
  outer loop
   vertex 0.000000 -24.846628 -612.728879
   vertex 2970.000000 -24.846628 -612.728879
   vertex 2970.000000 -12.530514 -615.178707
  endloop
 endfacet
 facet normal -0.000000 0.195090 0.980785
  outer loop
   vertex 0.000000 -12.530514 -615.178707
   vertex 0.000000 -24.846628 -612.728879
   vertex 2970.000000 -12.530514 -615.178707
  endloop
 endfacet
 facet normal -0.000000 0.321439 0.946930
  outer loop
   vertex 0.000000 -36.737610 -608.692435
   vertex 2970.000000 -36.737610 -608.692435
   vertex 2970.000000 -24.846628 -612.728879
  endloop
 endfacet
 facet normal -0.000000 0.321439 0.946930
  outer loop
   vertex 0.000000 -24.846628 -612.728879
   vertex 0.000000 -36.737610 -608.692435
   vertex 2970.000000 -24.846628 -612.728879
  endloop
 endfacet
 facet normal -0.000000 0.442289 0.896873
  outer loop
   vertex 0.000000 -48.000000 -603.138439
   vertex 2970.000000 -48.000000 -603.138439
   vertex 2970.000000 -36.737610 -608.692435
  endloop
 endfacet
 facet normal -0.000000 0.442289 0.896873
  outer loop
   vertex 0.000000 -36.737610 -608.692435
   vertex 0.000000 -48.000000 -603.138439
   vertex 2970.000000 -36.737610 -608.692435
  endloop
 endfacet
 facet normal -0.000000 0.555570 0.831470
  outer loop
   vertex 0.000000 -58.441097 -596.161921
   vertex 2970.000000 -58.441097 -596.161921
   vertex 2970.000000 -48.000000 -603.138439
  endloop
 endfacet
 facet normal -0.000000 0.555570 0.831470
  outer loop
   vertex 0.000000 -48.000000 -603.138439
   vertex 0.000000 -58.441097 -596.161921
   vertex 2970.000000 -48.000000 -603.138439
  endloop
 endfacet
 facet normal -0.000000 0.659346 0.751840
  outer loop
   vertex 0.000000 -67.882251 -587.882251
   vertex 2970.000000 -67.882251 -587.882251
   vertex 2970.000000 -58.441097 -596.161921
  endloop
 endfacet
 facet normal -0.000000 0.659346 0.751840
  outer loop
   vertex 0.000000 -58.441097 -596.161921
   vertex 0.000000 -67.882251 -587.882251
   vertex 2970.000000 -58.441097 -596.161921
  endloop
 endfacet
 facet normal -0.000000 0.751840 0.659346
  outer loop
   vertex 0.000000 -76.161921 -578.441097
   vertex 2970.000000 -76.161921 -578.441097
   vertex 2970.000000 -67.882251 -587.882251
  endloop
 endfacet
 facet normal -0.000000 0.751840 0.659346
  outer loop
   vertex 0.000000 -67.882251 -587.882251
   vertex 0.000000 -76.161921 -578.441097
   vertex 2970.000000 -67.882251 -587.882251
  endloop
 endfacet
 facet normal -0.000000 0.831470 0.555570
  outer loop
   vertex 0.000000 -83.138439 -568.000000
   vertex 2970.000000 -83.138439 -568.000000
   vertex 2970.000000 -76.161921 -578.441097
  endloop
 endfacet
 facet normal -0.000000 0.831470 0.555570
  outer loop
   vertex 0.000000 -76.161921 -578.441097
   vertex 0.000000 -83.138439 -568.000000
   vertex 2970.000000 -76.161921 -578.441097
  endloop
 endfacet
 facet normal -0.000000 0.896873 0.442289
  outer loop
   vertex 0.000000 -88.692435 -556.737610
   vertex 2970.000000 -88.692435 -556.737610
   vertex 2970.000000 -83.138439 -568.000000
  endloop
 endfacet
 facet normal -0.000000 0.896873 0.442289
  outer loop
   vertex 0.000000 -83.138439 -568.000000
   vertex 0.000000 -88.692435 -556.737610
   vertex 2970.000000 -83.138439 -568.000000
  endloop
 endfacet
 facet normal -0.000000 0.946930 0.321439
  outer loop
   vertex 0.000000 -92.728879 -544.846628
   vertex 2970.000000 -92.728879 -544.846628
   vertex 2970.000000 -88.692435 -556.737610
  endloop
 endfacet
 facet normal -0.000000 0.946930 0.321439
  outer loop
   vertex 0.000000 -88.692435 -556.737610
   vertex 0.000000 -92.728879 -544.846628
   vertex 2970.000000 -88.692435 -556.737610
  endloop
 endfacet
 facet normal -0.000000 0.980785 0.195090
  outer loop
   vertex 0.000000 -95.178707 -532.530514
   vertex 2970.000000 -95.178707 -532.530514
   vertex 2970.000000 -92.728879 -544.846628
  endloop
 endfacet
 facet normal -0.000000 0.980785 0.195090
  outer loop
   vertex 0.000000 -92.728879 -544.846628
   vertex 0.000000 -95.178707 -532.530514
   vertex 2970.000000 -92.728879 -544.846628
  endloop
 endfacet
 facet normal -0.000000 0.997859 0.065403
  outer loop
   vertex 0.000000 -96.000000 -520.000000
   vertex 2970.000000 -96.000000 -520.000000
   vertex 2970.000000 -95.178707 -532.530514
  endloop
 endfacet
 facet normal -0.000000 0.997859 0.065403
  outer loop
   vertex 0.000000 -95.178707 -532.530514
   vertex 0.000000 -96.000000 -520.000000
   vertex 2970.000000 -95.178707 -532.530514
  endloop
 endfacet
endsolid SIC_RP1_feed_2_Hrun
