solid SIC_RP1_feed_1_drop
 facet normal 0.062998 0.997859 0.017575
  outer loop
   vertex 2502.400000 110.000000 -940.000000
   vertex 2516.229800 109.058935 -936.141841
   vertex 2733.829800 109.058935 -1716.141841
  endloop
 endfacet
 facet normal 0.062998 0.997859 0.017575
  outer loop
   vertex 2502.400000 110.000000 -940.000000
   vertex 2733.829800 109.058935 -1716.141841
   vertex 2720.000000 110.000000 -1720.000000
  endloop
 endfacet
 facet normal 0.187915 0.980785 0.052423
  outer loop
   vertex 2516.229800 109.058935 -936.141841
   vertex 2529.822967 106.251841 -932.349695
   vertex 2747.422967 106.251841 -1712.349695
  endloop
 endfacet
 facet normal 0.187915 0.980785 0.052423
  outer loop
   vertex 2516.229800 109.058935 -936.141841
   vertex 2747.422967 106.251841 -1712.349695
   vertex 2733.829800 109.058935 -1716.141841
  endloop
 endfacet
 facet normal 0.309617 0.946930 0.086375
  outer loop
   vertex 2529.822967 106.251841 -932.349695
   vertex 2542.946921 101.626749 -928.688449
   vertex 2760.546921 101.626749 -1708.688449
  endloop
 endfacet
 facet normal 0.309617 0.946930 0.086375
  outer loop
   vertex 2529.822967 106.251841 -932.349695
   vertex 2760.546921 101.626749 -1708.688449
   vertex 2747.422967 106.251841 -1712.349695
  endloop
 endfacet
 facet normal 0.426021 0.896873 0.118849
  outer loop
   vertex 2542.946921 101.626749 -928.688449
   vertex 2555.377105 95.262794 -925.220746
   vertex 2772.977105 95.262794 -1705.220746
  endloop
 endfacet
 facet normal 0.426021 0.896873 0.118849
  outer loop
   vertex 2542.946921 101.626749 -928.688449
   vertex 2772.977105 95.262794 -1705.220746
   vertex 2760.546921 101.626749 -1708.688449
  endloop
 endfacet
 facet normal 0.535136 0.831470 0.149289
  outer loop
   vertex 2555.377105 95.262794 -925.220746
   vertex 2566.900836 87.268867 -922.005921
   vertex 2784.500836 87.268867 -1702.005921
  endloop
 endfacet
 facet normal 0.535136 0.831470 0.149289
  outer loop
   vertex 2555.377105 95.262794 -925.220746
   vertex 2784.500836 87.268867 -1702.005921
   vertex 2772.977105 95.262794 -1705.220746
  endloop
 endfacet
 facet normal 0.635095 0.751840 0.177175
  outer loop
   vertex 2566.900836 87.268867 -922.005921
   vertex 2577.320940 77.781746 -919.098979
   vertex 2794.920940 77.781746 -1699.098979
  endloop
 endfacet
 facet normal 0.635095 0.751840 0.177175
  outer loop
   vertex 2566.900836 87.268867 -922.005921
   vertex 2794.920940 77.781746 -1699.098979
   vertex 2784.500836 87.268867 -1702.005921
  endloop
 endfacet
 facet normal 0.724187 0.659346 0.202030
  outer loop
   vertex 2577.320940 77.781746 -919.098979
   vertex 2586.459126 66.963757 -916.549659
   vertex 2804.059126 66.963757 -1696.549659
  endloop
 endfacet
 facet normal 0.724187 0.659346 0.202030
  outer loop
   vertex 2577.320940 77.781746 -919.098979
   vertex 2804.059126 66.963757 -1696.549659
   vertex 2794.920940 77.781746 -1699.098979
  endloop
 endfacet
 facet normal 0.800888 0.555570 0.223427
  outer loop
   vertex 2586.459126 66.963757 -916.549659
   vertex 2594.159037 55.000000 -914.401581
   vertex 2811.759037 55.000000 -1694.401581
  endloop
 endfacet
 facet normal 0.800888 0.555570 0.223427
  outer loop
   vertex 2586.459126 66.963757 -916.549659
   vertex 2811.759037 55.000000 -1694.401581
   vertex 2804.059126 66.963757 -1696.549659
  endloop
 endfacet
 facet normal 0.863886 0.442289 0.241002
  outer loop
   vertex 2594.159037 55.000000 -914.401581
   vertex 2600.288926 42.095178 -912.691500
   vertex 2817.888926 42.095178 -1692.691500
  endloop
 endfacet
 facet normal 0.863886 0.442289 0.241002
  outer loop
   vertex 2594.159037 55.000000 -914.401581
   vertex 2817.888926 42.095178 -1692.691500
   vertex 2811.759037 55.000000 -1694.401581
  endloop
 endfacet
 facet normal 0.912102 0.321439 0.254453
  outer loop
   vertex 2600.288926 42.095178 -912.691500
   vertex 2604.743908 28.470095 -911.448674
   vertex 2822.343908 28.470095 -1691.448674
  endloop
 endfacet
 facet normal 0.912102 0.321439 0.254453
  outer loop
   vertex 2600.288926 42.095178 -912.691500
   vertex 2822.343908 28.470095 -1691.448674
   vertex 2817.888926 42.095178 -1692.691500
  endloop
 endfacet
 facet normal 0.944712 0.195090 0.263550
  outer loop
   vertex 2604.743908 28.470095 -911.448674
   vertex 2607.447757 14.357881 -910.694369
   vertex 2825.047757 14.357881 -1690.694369
  endloop
 endfacet
 facet normal 0.944712 0.195090 0.263550
  outer loop
   vertex 2604.743908 28.470095 -911.448674
   vertex 2825.047757 14.357881 -1690.694369
   vertex 2822.343908 28.470095 -1691.448674
  endloop
 endfacet
 facet normal 0.961158 0.065403 0.268138
  outer loop
   vertex 2607.447757 14.357881 -910.694369
   vertex 2608.354210 0.000000 -910.441492
   vertex 2825.954210 0.000000 -1690.441492
  endloop
 endfacet
 facet normal 0.961158 0.065403 0.268138
  outer loop
   vertex 2607.447757 14.357881 -910.694369
   vertex 2825.954210 0.000000 -1690.441492
   vertex 2825.047757 14.357881 -1690.694369
  endloop
 endfacet
 facet normal 0.961158 -0.065403 0.268138
  outer loop
   vertex 2608.354210 0.000000 -910.441492
   vertex 2607.447757 -14.357881 -910.694369
   vertex 2825.047757 -14.357881 -1690.694369
  endloop
 endfacet
 facet normal 0.961158 -0.065403 0.268138
  outer loop
   vertex 2608.354210 0.000000 -910.441492
   vertex 2825.047757 -14.357881 -1690.694369
   vertex 2825.954210 0.000000 -1690.441492
  endloop
 endfacet
 facet normal 0.944712 -0.195090 0.263550
  outer loop
   vertex 2607.447757 -14.357881 -910.694369
   vertex 2604.743908 -28.470095 -911.448674
   vertex 2822.343908 -28.470095 -1691.448674
  endloop
 endfacet
 facet normal 0.944712 -0.195090 0.263550
  outer loop
   vertex 2607.447757 -14.357881 -910.694369
   vertex 2822.343908 -28.470095 -1691.448674
   vertex 2825.047757 -14.357881 -1690.694369
  endloop
 endfacet
 facet normal 0.912102 -0.321439 0.254453
  outer loop
   vertex 2604.743908 -28.470095 -911.448674
   vertex 2600.288926 -42.095178 -912.691500
   vertex 2817.888926 -42.095178 -1692.691500
  endloop
 endfacet
 facet normal 0.912102 -0.321439 0.254453
  outer loop
   vertex 2604.743908 -28.470095 -911.448674
   vertex 2817.888926 -42.095178 -1692.691500
   vertex 2822.343908 -28.470095 -1691.448674
  endloop
 endfacet
 facet normal 0.863886 -0.442289 0.241002
  outer loop
   vertex 2600.288926 -42.095178 -912.691500
   vertex 2594.159037 -55.000000 -914.401581
   vertex 2811.759037 -55.000000 -1694.401581
  endloop
 endfacet
 facet normal 0.863886 -0.442289 0.241002
  outer loop
   vertex 2600.288926 -42.095178 -912.691500
   vertex 2811.759037 -55.000000 -1694.401581
   vertex 2817.888926 -42.095178 -1692.691500
  endloop
 endfacet
 facet normal 0.800888 -0.555570 0.223427
  outer loop
   vertex 2594.159037 -55.000000 -914.401581
   vertex 2586.459126 -66.963757 -916.549659
   vertex 2804.059126 -66.963757 -1696.549659
  endloop
 endfacet
 facet normal 0.800888 -0.555570 0.223427
  outer loop
   vertex 2594.159037 -55.000000 -914.401581
   vertex 2804.059126 -66.963757 -1696.549659
   vertex 2811.759037 -55.000000 -1694.401581
  endloop
 endfacet
 facet normal 0.724187 -0.659346 0.202030
  outer loop
   vertex 2586.459126 -66.963757 -916.549659
   vertex 2577.320940 -77.781746 -919.098979
   vertex 2794.920940 -77.781746 -1699.098979
  endloop
 endfacet
 facet normal 0.724187 -0.659346 0.202030
  outer loop
   vertex 2586.459126 -66.963757 -916.549659
   vertex 2794.920940 -77.781746 -1699.098979
   vertex 2804.059126 -66.963757 -1696.549659
  endloop
 endfacet
 facet normal 0.635095 -0.751840 0.177175
  outer loop
   vertex 2577.320940 -77.781746 -919.098979
   vertex 2566.900836 -87.268867 -922.005921
   vertex 2784.500836 -87.268867 -1702.005921
  endloop
 endfacet
 facet normal 0.635095 -0.751840 0.177175
  outer loop
   vertex 2577.320940 -77.781746 -919.098979
   vertex 2784.500836 -87.268867 -1702.005921
   vertex 2794.920940 -77.781746 -1699.098979
  endloop
 endfacet
 facet normal 0.535136 -0.831470 0.149289
  outer loop
   vertex 2566.900836 -87.268867 -922.005921
   vertex 2555.377105 -95.262794 -925.220746
   vertex 2772.977105 -95.262794 -1705.220746
  endloop
 endfacet
 facet normal 0.535136 -0.831470 0.149289
  outer loop
   vertex 2566.900836 -87.268867 -922.005921
   vertex 2772.977105 -95.262794 -1705.220746
   vertex 2784.500836 -87.268867 -1702.005921
  endloop
 endfacet
 facet normal 0.426021 -0.896873 0.118849
  outer loop
   vertex 2555.377105 -95.262794 -925.220746
   vertex 2542.946921 -101.626749 -928.688449
   vertex 2760.546921 -101.626749 -1708.688449
  endloop
 endfacet
 facet normal 0.426021 -0.896873 0.118849
  outer loop
   vertex 2555.377105 -95.262794 -925.220746
   vertex 2760.546921 -101.626749 -1708.688449
   vertex 2772.977105 -95.262794 -1705.220746
  endloop
 endfacet
 facet normal 0.309617 -0.946930 0.086375
  outer loop
   vertex 2542.946921 -101.626749 -928.688449
   vertex 2529.822967 -106.251841 -932.349695
   vertex 2747.422967 -106.251841 -1712.349695
  endloop
 endfacet
 facet normal 0.309617 -0.946930 0.086375
  outer loop
   vertex 2542.946921 -101.626749 -928.688449
   vertex 2747.422967 -106.251841 -1712.349695
   vertex 2760.546921 -101.626749 -1708.688449
  endloop
 endfacet
 facet normal 0.187915 -0.980785 0.052423
  outer loop
   vertex 2529.822967 -106.251841 -932.349695
   vertex 2516.229800 -109.058935 -936.141841
   vertex 2733.829800 -109.058935 -1716.141841
  endloop
 endfacet
 facet normal 0.187915 -0.980785 0.052423
  outer loop
   vertex 2529.822967 -106.251841 -932.349695
   vertex 2733.829800 -109.058935 -1716.141841
   vertex 2747.422967 -106.251841 -1712.349695
  endloop
 endfacet
 facet normal 0.062998 -0.997859 0.017575
  outer loop
   vertex 2516.229800 -109.058935 -936.141841
   vertex 2502.400000 -110.000000 -940.000000
   vertex 2720.000000 -110.000000 -1720.000000
  endloop
 endfacet
 facet normal 0.062998 -0.997859 0.017575
  outer loop
   vertex 2516.229800 -109.058935 -936.141841
   vertex 2720.000000 -110.000000 -1720.000000
   vertex 2733.829800 -109.058935 -1716.141841
  endloop
 endfacet
 facet normal -0.062998 -0.997859 -0.017575
  outer loop
   vertex 2502.400000 -110.000000 -940.000000
   vertex 2488.570200 -109.058935 -943.858159
   vertex 2706.170200 -109.058935 -1723.858159
  endloop
 endfacet
 facet normal -0.062998 -0.997859 -0.017575
  outer loop
   vertex 2502.400000 -110.000000 -940.000000
   vertex 2706.170200 -109.058935 -1723.858159
   vertex 2720.000000 -110.000000 -1720.000000
  endloop
 endfacet
 facet normal -0.187915 -0.980785 -0.052423
  outer loop
   vertex 2488.570200 -109.058935 -943.858159
   vertex 2474.977033 -106.251841 -947.650305
   vertex 2692.577033 -106.251841 -1727.650305
  endloop
 endfacet
 facet normal -0.187915 -0.980785 -0.052423
  outer loop
   vertex 2488.570200 -109.058935 -943.858159
   vertex 2692.577033 -106.251841 -1727.650305
   vertex 2706.170200 -109.058935 -1723.858159
  endloop
 endfacet
 facet normal -0.309617 -0.946930 -0.086375
  outer loop
   vertex 2474.977033 -106.251841 -947.650305
   vertex 2461.853079 -101.626749 -951.311551
   vertex 2679.453079 -101.626749 -1731.311551
  endloop
 endfacet
 facet normal -0.309617 -0.946930 -0.086375
  outer loop
   vertex 2474.977033 -106.251841 -947.650305
   vertex 2679.453079 -101.626749 -1731.311551
   vertex 2692.577033 -106.251841 -1727.650305
  endloop
 endfacet
 facet normal -0.426021 -0.896873 -0.118849
  outer loop
   vertex 2461.853079 -101.626749 -951.311551
   vertex 2449.422895 -95.262794 -954.779254
   vertex 2667.022895 -95.262794 -1734.779254
  endloop
 endfacet
 facet normal -0.426021 -0.896873 -0.118849
  outer loop
   vertex 2461.853079 -101.626749 -951.311551
   vertex 2667.022895 -95.262794 -1734.779254
   vertex 2679.453079 -101.626749 -1731.311551
  endloop
 endfacet
 facet normal -0.535136 -0.831470 -0.149289
  outer loop
   vertex 2449.422895 -95.262794 -954.779254
   vertex 2437.899164 -87.268867 -957.994079
   vertex 2655.499164 -87.268867 -1737.994079
  endloop
 endfacet
 facet normal -0.535136 -0.831470 -0.149289
  outer loop
   vertex 2449.422895 -95.262794 -954.779254
   vertex 2655.499164 -87.268867 -1737.994079
   vertex 2667.022895 -95.262794 -1734.779254
  endloop
 endfacet
 facet normal -0.635095 -0.751840 -0.177175
  outer loop
   vertex 2437.899164 -87.268867 -957.994079
   vertex 2427.479060 -77.781746 -960.901021
   vertex 2645.079060 -77.781746 -1740.901021
  endloop
 endfacet
 facet normal -0.635095 -0.751840 -0.177175
  outer loop
   vertex 2437.899164 -87.268867 -957.994079
   vertex 2645.079060 -77.781746 -1740.901021
   vertex 2655.499164 -87.268867 -1737.994079
  endloop
 endfacet
 facet normal -0.724187 -0.659346 -0.202030
  outer loop
   vertex 2427.479060 -77.781746 -960.901021
   vertex 2418.340874 -66.963757 -963.450341
   vertex 2635.940874 -66.963757 -1743.450341
  endloop
 endfacet
 facet normal -0.724187 -0.659346 -0.202030
  outer loop
   vertex 2427.479060 -77.781746 -960.901021
   vertex 2635.940874 -66.963757 -1743.450341
   vertex 2645.079060 -77.781746 -1740.901021
  endloop
 endfacet
 facet normal -0.800888 -0.555570 -0.223427
  outer loop
   vertex 2418.340874 -66.963757 -963.450341
   vertex 2410.640963 -55.000000 -965.598419
   vertex 2628.240963 -55.000000 -1745.598419
  endloop
 endfacet
 facet normal -0.800888 -0.555570 -0.223427
  outer loop
   vertex 2418.340874 -66.963757 -963.450341
   vertex 2628.240963 -55.000000 -1745.598419
   vertex 2635.940874 -66.963757 -1743.450341
  endloop
 endfacet
 facet normal -0.863886 -0.442289 -0.241002
  outer loop
   vertex 2410.640963 -55.000000 -965.598419
   vertex 2404.511074 -42.095178 -967.308500
   vertex 2622.111074 -42.095178 -1747.308500
  endloop
 endfacet
 facet normal -0.863886 -0.442289 -0.241002
  outer loop
   vertex 2410.640963 -55.000000 -965.598419
   vertex 2622.111074 -42.095178 -1747.308500
   vertex 2628.240963 -55.000000 -1745.598419
  endloop
 endfacet
 facet normal -0.912102 -0.321439 -0.254453
  outer loop
   vertex 2404.511074 -42.095178 -967.308500
   vertex 2400.056092 -28.470095 -968.551326
   vertex 2617.656092 -28.470095 -1748.551326
  endloop
 endfacet
 facet normal -0.912102 -0.321439 -0.254453
  outer loop
   vertex 2404.511074 -42.095178 -967.308500
   vertex 2617.656092 -28.470095 -1748.551326
   vertex 2622.111074 -42.095178 -1747.308500
  endloop
 endfacet
 facet normal -0.944712 -0.195090 -0.263550
  outer loop
   vertex 2400.056092 -28.470095 -968.551326
   vertex 2397.352243 -14.357881 -969.305631
   vertex 2614.952243 -14.357881 -1749.305631
  endloop
 endfacet
 facet normal -0.944712 -0.195090 -0.263550
  outer loop
   vertex 2400.056092 -28.470095 -968.551326
   vertex 2614.952243 -14.357881 -1749.305631
   vertex 2617.656092 -28.470095 -1748.551326
  endloop
 endfacet
 facet normal -0.961158 -0.065403 -0.268138
  outer loop
   vertex 2397.352243 -14.357881 -969.305631
   vertex 2396.445790 -0.000000 -969.558508
   vertex 2614.045790 -0.000000 -1749.558508
  endloop
 endfacet
 facet normal -0.961158 -0.065403 -0.268138
  outer loop
   vertex 2397.352243 -14.357881 -969.305631
   vertex 2614.045790 -0.000000 -1749.558508
   vertex 2614.952243 -14.357881 -1749.305631
  endloop
 endfacet
 facet normal -0.961158 0.065403 -0.268138
  outer loop
   vertex 2396.445790 -0.000000 -969.558508
   vertex 2397.352243 14.357881 -969.305631
   vertex 2614.952243 14.357881 -1749.305631
  endloop
 endfacet
 facet normal -0.961158 0.065403 -0.268138
  outer loop
   vertex 2396.445790 -0.000000 -969.558508
   vertex 2614.952243 14.357881 -1749.305631
   vertex 2614.045790 -0.000000 -1749.558508
  endloop
 endfacet
 facet normal -0.944712 0.195090 -0.263550
  outer loop
   vertex 2397.352243 14.357881 -969.305631
   vertex 2400.056092 28.470095 -968.551326
   vertex 2617.656092 28.470095 -1748.551326
  endloop
 endfacet
 facet normal -0.944712 0.195090 -0.263550
  outer loop
   vertex 2397.352243 14.357881 -969.305631
   vertex 2617.656092 28.470095 -1748.551326
   vertex 2614.952243 14.357881 -1749.305631
  endloop
 endfacet
 facet normal -0.912102 0.321439 -0.254453
  outer loop
   vertex 2400.056092 28.470095 -968.551326
   vertex 2404.511074 42.095178 -967.308500
   vertex 2622.111074 42.095178 -1747.308500
  endloop
 endfacet
 facet normal -0.912102 0.321439 -0.254453
  outer loop
   vertex 2400.056092 28.470095 -968.551326
   vertex 2622.111074 42.095178 -1747.308500
   vertex 2617.656092 28.470095 -1748.551326
  endloop
 endfacet
 facet normal -0.863886 0.442289 -0.241002
  outer loop
   vertex 2404.511074 42.095178 -967.308500
   vertex 2410.640963 55.000000 -965.598419
   vertex 2628.240963 55.000000 -1745.598419
  endloop
 endfacet
 facet normal -0.863886 0.442289 -0.241002
  outer loop
   vertex 2404.511074 42.095178 -967.308500
   vertex 2628.240963 55.000000 -1745.598419
   vertex 2622.111074 42.095178 -1747.308500
  endloop
 endfacet
 facet normal -0.800888 0.555570 -0.223427
  outer loop
   vertex 2410.640963 55.000000 -965.598419
   vertex 2418.340874 66.963757 -963.450341
   vertex 2635.940874 66.963757 -1743.450341
  endloop
 endfacet
 facet normal -0.800888 0.555570 -0.223427
  outer loop
   vertex 2410.640963 55.000000 -965.598419
   vertex 2635.940874 66.963757 -1743.450341
   vertex 2628.240963 55.000000 -1745.598419
  endloop
 endfacet
 facet normal -0.724187 0.659346 -0.202030
  outer loop
   vertex 2418.340874 66.963757 -963.450341
   vertex 2427.479060 77.781746 -960.901021
   vertex 2645.079060 77.781746 -1740.901021
  endloop
 endfacet
 facet normal -0.724187 0.659346 -0.202030
  outer loop
   vertex 2418.340874 66.963757 -963.450341
   vertex 2645.079060 77.781746 -1740.901021
   vertex 2635.940874 66.963757 -1743.450341
  endloop
 endfacet
 facet normal -0.635095 0.751840 -0.177175
  outer loop
   vertex 2427.479060 77.781746 -960.901021
   vertex 2437.899164 87.268867 -957.994079
   vertex 2655.499164 87.268867 -1737.994079
  endloop
 endfacet
 facet normal -0.635095 0.751840 -0.177175
  outer loop
   vertex 2427.479060 77.781746 -960.901021
   vertex 2655.499164 87.268867 -1737.994079
   vertex 2645.079060 77.781746 -1740.901021
  endloop
 endfacet
 facet normal -0.535136 0.831470 -0.149289
  outer loop
   vertex 2437.899164 87.268867 -957.994079
   vertex 2449.422895 95.262794 -954.779254
   vertex 2667.022895 95.262794 -1734.779254
  endloop
 endfacet
 facet normal -0.535136 0.831470 -0.149289
  outer loop
   vertex 2437.899164 87.268867 -957.994079
   vertex 2667.022895 95.262794 -1734.779254
   vertex 2655.499164 87.268867 -1737.994079
  endloop
 endfacet
 facet normal -0.426021 0.896873 -0.118849
  outer loop
   vertex 2449.422895 95.262794 -954.779254
   vertex 2461.853079 101.626749 -951.311551
   vertex 2679.453079 101.626749 -1731.311551
  endloop
 endfacet
 facet normal -0.426021 0.896873 -0.118849
  outer loop
   vertex 2449.422895 95.262794 -954.779254
   vertex 2679.453079 101.626749 -1731.311551
   vertex 2667.022895 95.262794 -1734.779254
  endloop
 endfacet
 facet normal -0.309617 0.946930 -0.086375
  outer loop
   vertex 2461.853079 101.626749 -951.311551
   vertex 2474.977033 106.251841 -947.650305
   vertex 2692.577033 106.251841 -1727.650305
  endloop
 endfacet
 facet normal -0.309617 0.946930 -0.086375
  outer loop
   vertex 2461.853079 101.626749 -951.311551
   vertex 2692.577033 106.251841 -1727.650305
   vertex 2679.453079 101.626749 -1731.311551
  endloop
 endfacet
 facet normal -0.187915 0.980785 -0.052423
  outer loop
   vertex 2474.977033 106.251841 -947.650305
   vertex 2488.570200 109.058935 -943.858159
   vertex 2706.170200 109.058935 -1723.858159
  endloop
 endfacet
 facet normal -0.187915 0.980785 -0.052423
  outer loop
   vertex 2474.977033 106.251841 -947.650305
   vertex 2706.170200 109.058935 -1723.858159
   vertex 2692.577033 106.251841 -1727.650305
  endloop
 endfacet
 facet normal -0.062998 0.997859 -0.017575
  outer loop
   vertex 2488.570200 109.058935 -943.858159
   vertex 2502.400000 110.000000 -940.000000
   vertex 2720.000000 110.000000 -1720.000000
  endloop
 endfacet
 facet normal -0.062998 0.997859 -0.017575
  outer loop
   vertex 2488.570200 109.058935 -943.858159
   vertex 2720.000000 110.000000 -1720.000000
   vertex 2706.170200 109.058935 -1723.858159
  endloop
 endfacet
 facet normal -0.062998 -0.997859 -0.017575
  outer loop
   vertex 2732.069643 95.178707 -1716.632879
   vertex 2514.469643 95.178707 -936.632879
   vertex 2502.400000 96.000000 -940.000000
  endloop
 endfacet
 facet normal -0.062998 -0.997859 -0.017575
  outer loop
   vertex 2720.000000 96.000000 -1720.000000
   vertex 2732.069643 95.178707 -1716.632879
   vertex 2502.400000 96.000000 -940.000000
  endloop
 endfacet
 facet normal -0.187915 -0.980785 -0.052423
  outer loop
   vertex 2743.932772 92.728879 -1713.323370
   vertex 2526.332772 92.728879 -933.323370
   vertex 2514.469643 95.178707 -936.632879
  endloop
 endfacet
 facet normal -0.187915 -0.980785 -0.052423
  outer loop
   vertex 2732.069643 95.178707 -1716.632879
   vertex 2743.932772 92.728879 -1713.323370
   vertex 2514.469643 95.178707 -936.632879
  endloop
 endfacet
 facet normal -0.309617 -0.946930 -0.086375
  outer loop
   vertex 2755.386404 88.692435 -1710.128101
   vertex 2537.786404 88.692435 -930.128101
   vertex 2526.332772 92.728879 -933.323370
  endloop
 endfacet
 facet normal -0.309617 -0.946930 -0.086375
  outer loop
   vertex 2743.932772 92.728879 -1713.323370
   vertex 2755.386404 88.692435 -1710.128101
   vertex 2526.332772 92.728879 -933.323370
  endloop
 endfacet
 facet normal -0.426021 -0.896873 -0.118849
  outer loop
   vertex 2766.234564 83.138439 -1707.101742
   vertex 2548.634564 83.138439 -927.101742
   vertex 2537.786404 88.692435 -930.128101
  endloop
 endfacet
 facet normal -0.426021 -0.896873 -0.118849
  outer loop
   vertex 2755.386404 88.692435 -1710.128101
   vertex 2766.234564 83.138439 -1707.101742
   vertex 2537.786404 88.692435 -930.128101
  endloop
 endfacet
 facet normal -0.535136 -0.831470 -0.149289
  outer loop
   vertex 2776.291639 76.161921 -1704.296076
   vertex 2558.691639 76.161921 -924.296076
   vertex 2548.634564 83.138439 -927.101742
  endloop
 endfacet
 facet normal -0.535136 -0.831470 -0.149289
  outer loop
   vertex 2766.234564 83.138439 -1707.101742
   vertex 2776.291639 76.161921 -1704.296076
   vertex 2548.634564 83.138439 -927.101742
  endloop
 endfacet
 facet normal -0.635095 -0.751840 -0.177175
  outer loop
   vertex 2785.385548 67.882251 -1701.759109
   vertex 2567.785548 67.882251 -921.759109
   vertex 2558.691639 76.161921 -924.296076
  endloop
 endfacet
 facet normal -0.635095 -0.751840 -0.177175
  outer loop
   vertex 2776.291639 76.161921 -1704.296076
   vertex 2785.385548 67.882251 -1701.759109
   vertex 2558.691639 76.161921 -924.296076
  endloop
 endfacet
 facet normal -0.724187 -0.659346 -0.202030
  outer loop
   vertex 2793.360692 58.441097 -1699.534248
   vertex 2575.760692 58.441097 -919.534248
   vertex 2567.785548 67.882251 -921.759109
  endloop
 endfacet
 facet normal -0.724187 -0.659346 -0.202030
  outer loop
   vertex 2785.385548 67.882251 -1701.759109
   vertex 2793.360692 58.441097 -1699.534248
   vertex 2567.785548 67.882251 -921.759109
  endloop
 endfacet
 facet normal -0.800888 -0.555570 -0.223427
  outer loop
   vertex 2800.080615 48.000000 -1697.659562
   vertex 2582.480615 48.000000 -917.659562
   vertex 2575.760692 58.441097 -919.534248
  endloop
 endfacet
 facet normal -0.800888 -0.555570 -0.223427
  outer loop
   vertex 2793.360692 58.441097 -1699.534248
   vertex 2800.080615 48.000000 -1697.659562
   vertex 2575.760692 58.441097 -919.534248
  endloop
 endfacet
 facet normal -0.863886 -0.442289 -0.241002
  outer loop
   vertex 2805.430335 36.737610 -1696.167127
   vertex 2587.830335 36.737610 -916.167127
   vertex 2582.480615 48.000000 -917.659562
  endloop
 endfacet
 facet normal -0.863886 -0.442289 -0.241002
  outer loop
   vertex 2800.080615 48.000000 -1697.659562
   vertex 2805.430335 36.737610 -1696.167127
   vertex 2582.480615 48.000000 -917.659562
  endloop
 endfacet
 facet normal -0.912102 -0.321439 -0.254453
  outer loop
   vertex 2809.318320 24.846628 -1695.082479
   vertex 2591.718320 24.846628 -915.082479
   vertex 2587.830335 36.737610 -916.167127
  endloop
 endfacet
 facet normal -0.912102 -0.321439 -0.254453
  outer loop
   vertex 2805.430335 36.737610 -1696.167127
   vertex 2809.318320 24.846628 -1695.082479
   vertex 2587.830335 36.737610 -916.167127
  endloop
 endfacet
 facet normal -0.944712 -0.195090 -0.263550
  outer loop
   vertex 2811.678043 12.530514 -1694.424177
   vertex 2594.078043 12.530514 -914.424177
   vertex 2591.718320 24.846628 -915.082479
  endloop
 endfacet
 facet normal -0.944712 -0.195090 -0.263550
  outer loop
   vertex 2809.318320 24.846628 -1695.082479
   vertex 2811.678043 12.530514 -1694.424177
   vertex 2591.718320 24.846628 -915.082479
  endloop
 endfacet
 facet normal -0.961158 -0.065403 -0.268138
  outer loop
   vertex 2812.469129 0.000000 -1694.203484
   vertex 2594.869129 0.000000 -914.203484
   vertex 2594.078043 12.530514 -914.424177
  endloop
 endfacet
 facet normal -0.961158 -0.065403 -0.268138
  outer loop
   vertex 2811.678043 12.530514 -1694.424177
   vertex 2812.469129 0.000000 -1694.203484
   vertex 2594.078043 12.530514 -914.424177
  endloop
 endfacet
 facet normal -0.961158 0.065403 -0.268138
  outer loop
   vertex 2811.678043 -12.530514 -1694.424177
   vertex 2594.078043 -12.530514 -914.424177
   vertex 2594.869129 0.000000 -914.203484
  endloop
 endfacet
 facet normal -0.961158 0.065403 -0.268138
  outer loop
   vertex 2812.469129 0.000000 -1694.203484
   vertex 2811.678043 -12.530514 -1694.424177
   vertex 2594.869129 0.000000 -914.203484
  endloop
 endfacet
 facet normal -0.944712 0.195090 -0.263550
  outer loop
   vertex 2809.318320 -24.846628 -1695.082479
   vertex 2591.718320 -24.846628 -915.082479
   vertex 2594.078043 -12.530514 -914.424177
  endloop
 endfacet
 facet normal -0.944712 0.195090 -0.263550
  outer loop
   vertex 2811.678043 -12.530514 -1694.424177
   vertex 2809.318320 -24.846628 -1695.082479
   vertex 2594.078043 -12.530514 -914.424177
  endloop
 endfacet
 facet normal -0.912102 0.321439 -0.254453
  outer loop
   vertex 2805.430335 -36.737610 -1696.167127
   vertex 2587.830335 -36.737610 -916.167127
   vertex 2591.718320 -24.846628 -915.082479
  endloop
 endfacet
 facet normal -0.912102 0.321439 -0.254453
  outer loop
   vertex 2809.318320 -24.846628 -1695.082479
   vertex 2805.430335 -36.737610 -1696.167127
   vertex 2591.718320 -24.846628 -915.082479
  endloop
 endfacet
 facet normal -0.863886 0.442289 -0.241002
  outer loop
   vertex 2800.080615 -48.000000 -1697.659562
   vertex 2582.480615 -48.000000 -917.659562
   vertex 2587.830335 -36.737610 -916.167127
  endloop
 endfacet
 facet normal -0.863886 0.442289 -0.241002
  outer loop
   vertex 2805.430335 -36.737610 -1696.167127
   vertex 2800.080615 -48.000000 -1697.659562
   vertex 2587.830335 -36.737610 -916.167127
  endloop
 endfacet
 facet normal -0.800888 0.555570 -0.223427
  outer loop
   vertex 2793.360692 -58.441097 -1699.534248
   vertex 2575.760692 -58.441097 -919.534248
   vertex 2582.480615 -48.000000 -917.659562
  endloop
 endfacet
 facet normal -0.800888 0.555570 -0.223427
  outer loop
   vertex 2800.080615 -48.000000 -1697.659562
   vertex 2793.360692 -58.441097 -1699.534248
   vertex 2582.480615 -48.000000 -917.659562
  endloop
 endfacet
 facet normal -0.724187 0.659346 -0.202030
  outer loop
   vertex 2785.385548 -67.882251 -1701.759109
   vertex 2567.785548 -67.882251 -921.759109
   vertex 2575.760692 -58.441097 -919.534248
  endloop
 endfacet
 facet normal -0.724187 0.659346 -0.202030
  outer loop
   vertex 2793.360692 -58.441097 -1699.534248
   vertex 2785.385548 -67.882251 -1701.759109
   vertex 2575.760692 -58.441097 -919.534248
  endloop
 endfacet
 facet normal -0.635095 0.751840 -0.177175
  outer loop
   vertex 2776.291639 -76.161921 -1704.296076
   vertex 2558.691639 -76.161921 -924.296076
   vertex 2567.785548 -67.882251 -921.759109
  endloop
 endfacet
 facet normal -0.635095 0.751840 -0.177175
  outer loop
   vertex 2785.385548 -67.882251 -1701.759109
   vertex 2776.291639 -76.161921 -1704.296076
   vertex 2567.785548 -67.882251 -921.759109
  endloop
 endfacet
 facet normal -0.535136 0.831470 -0.149289
  outer loop
   vertex 2766.234564 -83.138439 -1707.101742
   vertex 2548.634564 -83.138439 -927.101742
   vertex 2558.691639 -76.161921 -924.296076
  endloop
 endfacet
 facet normal -0.535136 0.831470 -0.149289
  outer loop
   vertex 2776.291639 -76.161921 -1704.296076
   vertex 2766.234564 -83.138439 -1707.101742
   vertex 2558.691639 -76.161921 -924.296076
  endloop
 endfacet
 facet normal -0.426021 0.896873 -0.118849
  outer loop
   vertex 2755.386404 -88.692435 -1710.128101
   vertex 2537.786404 -88.692435 -930.128101
   vertex 2548.634564 -83.138439 -927.101742
  endloop
 endfacet
 facet normal -0.426021 0.896873 -0.118849
  outer loop
   vertex 2766.234564 -83.138439 -1707.101742
   vertex 2755.386404 -88.692435 -1710.128101
   vertex 2548.634564 -83.138439 -927.101742
  endloop
 endfacet
 facet normal -0.309617 0.946930 -0.086375
  outer loop
   vertex 2743.932772 -92.728879 -1713.323370
   vertex 2526.332772 -92.728879 -933.323370
   vertex 2537.786404 -88.692435 -930.128101
  endloop
 endfacet
 facet normal -0.309617 0.946930 -0.086375
  outer loop
   vertex 2755.386404 -88.692435 -1710.128101
   vertex 2743.932772 -92.728879 -1713.323370
   vertex 2537.786404 -88.692435 -930.128101
  endloop
 endfacet
 facet normal -0.187915 0.980785 -0.052423
  outer loop
   vertex 2732.069643 -95.178707 -1716.632879
   vertex 2514.469643 -95.178707 -936.632879
   vertex 2526.332772 -92.728879 -933.323370
  endloop
 endfacet
 facet normal -0.187915 0.980785 -0.052423
  outer loop
   vertex 2743.932772 -92.728879 -1713.323370
   vertex 2732.069643 -95.178707 -1716.632879
   vertex 2526.332772 -92.728879 -933.323370
  endloop
 endfacet
 facet normal -0.062998 0.997859 -0.017575
  outer loop
   vertex 2720.000000 -96.000000 -1720.000000
   vertex 2502.400000 -96.000000 -940.000000
   vertex 2514.469643 -95.178707 -936.632879
  endloop
 endfacet
 facet normal -0.062998 0.997859 -0.017575
  outer loop
   vertex 2732.069643 -95.178707 -1716.632879
   vertex 2720.000000 -96.000000 -1720.000000
   vertex 2514.469643 -95.178707 -936.632879
  endloop
 endfacet
 facet normal 0.062998 0.997859 0.017575
  outer loop
   vertex 2707.930357 -95.178707 -1723.367121
   vertex 2490.330357 -95.178707 -943.367121
   vertex 2502.400000 -96.000000 -940.000000
  endloop
 endfacet
 facet normal 0.062998 0.997859 0.017575
  outer loop
   vertex 2720.000000 -96.000000 -1720.000000
   vertex 2707.930357 -95.178707 -1723.367121
   vertex 2502.400000 -96.000000 -940.000000
  endloop
 endfacet
 facet normal 0.187915 0.980785 0.052423
  outer loop
   vertex 2696.067228 -92.728879 -1726.676630
   vertex 2478.467228 -92.728879 -946.676630
   vertex 2490.330357 -95.178707 -943.367121
  endloop
 endfacet
 facet normal 0.187915 0.980785 0.052423
  outer loop
   vertex 2707.930357 -95.178707 -1723.367121
   vertex 2696.067228 -92.728879 -1726.676630
   vertex 2490.330357 -95.178707 -943.367121
  endloop
 endfacet
 facet normal 0.309617 0.946930 0.086375
  outer loop
   vertex 2684.613596 -88.692435 -1729.871899
   vertex 2467.013596 -88.692435 -949.871899
   vertex 2478.467228 -92.728879 -946.676630
  endloop
 endfacet
 facet normal 0.309617 0.946930 0.086375
  outer loop
   vertex 2696.067228 -92.728879 -1726.676630
   vertex 2684.613596 -88.692435 -1729.871899
   vertex 2478.467228 -92.728879 -946.676630
  endloop
 endfacet
 facet normal 0.426021 0.896873 0.118849
  outer loop
   vertex 2673.765436 -83.138439 -1732.898258
   vertex 2456.165436 -83.138439 -952.898258
   vertex 2467.013596 -88.692435 -949.871899
  endloop
 endfacet
 facet normal 0.426021 0.896873 0.118849
  outer loop
   vertex 2684.613596 -88.692435 -1729.871899
   vertex 2673.765436 -83.138439 -1732.898258
   vertex 2467.013596 -88.692435 -949.871899
  endloop
 endfacet
 facet normal 0.535136 0.831470 0.149289
  outer loop
   vertex 2663.708361 -76.161921 -1735.703924
   vertex 2446.108361 -76.161921 -955.703924
   vertex 2456.165436 -83.138439 -952.898258
  endloop
 endfacet
 facet normal 0.535136 0.831470 0.149289
  outer loop
   vertex 2673.765436 -83.138439 -1732.898258
   vertex 2663.708361 -76.161921 -1735.703924
   vertex 2456.165436 -83.138439 -952.898258
  endloop
 endfacet
 facet normal 0.635095 0.751840 0.177175
  outer loop
   vertex 2654.614452 -67.882251 -1738.240891
   vertex 2437.014452 -67.882251 -958.240891
   vertex 2446.108361 -76.161921 -955.703924
  endloop
 endfacet
 facet normal 0.635095 0.751840 0.177175
  outer loop
   vertex 2663.708361 -76.161921 -1735.703924
   vertex 2654.614452 -67.882251 -1738.240891
   vertex 2446.108361 -76.161921 -955.703924
  endloop
 endfacet
 facet normal 0.724187 0.659346 0.202030
  outer loop
   vertex 2646.639308 -58.441097 -1740.465752
   vertex 2429.039308 -58.441097 -960.465752
   vertex 2437.014452 -67.882251 -958.240891
  endloop
 endfacet
 facet normal 0.724187 0.659346 0.202030
  outer loop
   vertex 2654.614452 -67.882251 -1738.240891
   vertex 2646.639308 -58.441097 -1740.465752
   vertex 2437.014452 -67.882251 -958.240891
  endloop
 endfacet
 facet normal 0.800888 0.555570 0.223427
  outer loop
   vertex 2639.919385 -48.000000 -1742.340438
   vertex 2422.319385 -48.000000 -962.340438
   vertex 2429.039308 -58.441097 -960.465752
  endloop
 endfacet
 facet normal 0.800888 0.555570 0.223427
  outer loop
   vertex 2646.639308 -58.441097 -1740.465752
   vertex 2639.919385 -48.000000 -1742.340438
   vertex 2429.039308 -58.441097 -960.465752
  endloop
 endfacet
 facet normal 0.863886 0.442289 0.241002
  outer loop
   vertex 2634.569665 -36.737610 -1743.832873
   vertex 2416.969665 -36.737610 -963.832873
   vertex 2422.319385 -48.000000 -962.340438
  endloop
 endfacet
 facet normal 0.863886 0.442289 0.241002
  outer loop
   vertex 2639.919385 -48.000000 -1742.340438
   vertex 2634.569665 -36.737610 -1743.832873
   vertex 2422.319385 -48.000000 -962.340438
  endloop
 endfacet
 facet normal 0.912102 0.321439 0.254453
  outer loop
   vertex 2630.681680 -24.846628 -1744.917521
   vertex 2413.081680 -24.846628 -964.917521
   vertex 2416.969665 -36.737610 -963.832873
  endloop
 endfacet
 facet normal 0.912102 0.321439 0.254453
  outer loop
   vertex 2634.569665 -36.737610 -1743.832873
   vertex 2630.681680 -24.846628 -1744.917521
   vertex 2416.969665 -36.737610 -963.832873
  endloop
 endfacet
 facet normal 0.944712 0.195090 0.263550
  outer loop
   vertex 2628.321957 -12.530514 -1745.575823
   vertex 2410.721957 -12.530514 -965.575823
   vertex 2413.081680 -24.846628 -964.917521
  endloop
 endfacet
 facet normal 0.944712 0.195090 0.263550
  outer loop
   vertex 2630.681680 -24.846628 -1744.917521
   vertex 2628.321957 -12.530514 -1745.575823
   vertex 2413.081680 -24.846628 -964.917521
  endloop
 endfacet
 facet normal 0.961158 0.065403 0.268138
  outer loop
   vertex 2627.530871 -0.000000 -1745.796516
   vertex 2409.930871 -0.000000 -965.796516
   vertex 2410.721957 -12.530514 -965.575823
  endloop
 endfacet
 facet normal 0.961158 0.065403 0.268138
  outer loop
   vertex 2628.321957 -12.530514 -1745.575823
   vertex 2627.530871 -0.000000 -1745.796516
   vertex 2410.721957 -12.530514 -965.575823
  endloop
 endfacet
 facet normal 0.961158 -0.065403 0.268138
  outer loop
   vertex 2628.321957 12.530514 -1745.575823
   vertex 2410.721957 12.530514 -965.575823
   vertex 2409.930871 -0.000000 -965.796516
  endloop
 endfacet
 facet normal 0.961158 -0.065403 0.268138
  outer loop
   vertex 2627.530871 -0.000000 -1745.796516
   vertex 2628.321957 12.530514 -1745.575823
   vertex 2409.930871 -0.000000 -965.796516
  endloop
 endfacet
 facet normal 0.944712 -0.195090 0.263550
  outer loop
   vertex 2630.681680 24.846628 -1744.917521
   vertex 2413.081680 24.846628 -964.917521
   vertex 2410.721957 12.530514 -965.575823
  endloop
 endfacet
 facet normal 0.944712 -0.195090 0.263550
  outer loop
   vertex 2628.321957 12.530514 -1745.575823
   vertex 2630.681680 24.846628 -1744.917521
   vertex 2410.721957 12.530514 -965.575823
  endloop
 endfacet
 facet normal 0.912102 -0.321439 0.254453
  outer loop
   vertex 2634.569665 36.737610 -1743.832873
   vertex 2416.969665 36.737610 -963.832873
   vertex 2413.081680 24.846628 -964.917521
  endloop
 endfacet
 facet normal 0.912102 -0.321439 0.254453
  outer loop
   vertex 2630.681680 24.846628 -1744.917521
   vertex 2634.569665 36.737610 -1743.832873
   vertex 2413.081680 24.846628 -964.917521
  endloop
 endfacet
 facet normal 0.863886 -0.442289 0.241002
  outer loop
   vertex 2639.919385 48.000000 -1742.340438
   vertex 2422.319385 48.000000 -962.340438
   vertex 2416.969665 36.737610 -963.832873
  endloop
 endfacet
 facet normal 0.863886 -0.442289 0.241002
  outer loop
   vertex 2634.569665 36.737610 -1743.832873
   vertex 2639.919385 48.000000 -1742.340438
   vertex 2416.969665 36.737610 -963.832873
  endloop
 endfacet
 facet normal 0.800888 -0.555570 0.223427
  outer loop
   vertex 2646.639308 58.441097 -1740.465752
   vertex 2429.039308 58.441097 -960.465752
   vertex 2422.319385 48.000000 -962.340438
  endloop
 endfacet
 facet normal 0.800888 -0.555570 0.223427
  outer loop
   vertex 2639.919385 48.000000 -1742.340438
   vertex 2646.639308 58.441097 -1740.465752
   vertex 2422.319385 48.000000 -962.340438
  endloop
 endfacet
 facet normal 0.724187 -0.659346 0.202030
  outer loop
   vertex 2654.614452 67.882251 -1738.240891
   vertex 2437.014452 67.882251 -958.240891
   vertex 2429.039308 58.441097 -960.465752
  endloop
 endfacet
 facet normal 0.724187 -0.659346 0.202030
  outer loop
   vertex 2646.639308 58.441097 -1740.465752
   vertex 2654.614452 67.882251 -1738.240891
   vertex 2429.039308 58.441097 -960.465752
  endloop
 endfacet
 facet normal 0.635095 -0.751840 0.177175
  outer loop
   vertex 2663.708361 76.161921 -1735.703924
   vertex 2446.108361 76.161921 -955.703924
   vertex 2437.014452 67.882251 -958.240891
  endloop
 endfacet
 facet normal 0.635095 -0.751840 0.177175
  outer loop
   vertex 2654.614452 67.882251 -1738.240891
   vertex 2663.708361 76.161921 -1735.703924
   vertex 2437.014452 67.882251 -958.240891
  endloop
 endfacet
 facet normal 0.535136 -0.831470 0.149289
  outer loop
   vertex 2673.765436 83.138439 -1732.898258
   vertex 2456.165436 83.138439 -952.898258
   vertex 2446.108361 76.161921 -955.703924
  endloop
 endfacet
 facet normal 0.535136 -0.831470 0.149289
  outer loop
   vertex 2663.708361 76.161921 -1735.703924
   vertex 2673.765436 83.138439 -1732.898258
   vertex 2446.108361 76.161921 -955.703924
  endloop
 endfacet
 facet normal 0.426021 -0.896873 0.118849
  outer loop
   vertex 2684.613596 88.692435 -1729.871899
   vertex 2467.013596 88.692435 -949.871899
   vertex 2456.165436 83.138439 -952.898258
  endloop
 endfacet
 facet normal 0.426021 -0.896873 0.118849
  outer loop
   vertex 2673.765436 83.138439 -1732.898258
   vertex 2684.613596 88.692435 -1729.871899
   vertex 2456.165436 83.138439 -952.898258
  endloop
 endfacet
 facet normal 0.309617 -0.946930 0.086375
  outer loop
   vertex 2696.067228 92.728879 -1726.676630
   vertex 2478.467228 92.728879 -946.676630
   vertex 2467.013596 88.692435 -949.871899
  endloop
 endfacet
 facet normal 0.309617 -0.946930 0.086375
  outer loop
   vertex 2684.613596 88.692435 -1729.871899
   vertex 2696.067228 92.728879 -1726.676630
   vertex 2467.013596 88.692435 -949.871899
  endloop
 endfacet
 facet normal 0.187915 -0.980785 0.052423
  outer loop
   vertex 2707.930357 95.178707 -1723.367121
   vertex 2490.330357 95.178707 -943.367121
   vertex 2478.467228 92.728879 -946.676630
  endloop
 endfacet
 facet normal 0.187915 -0.980785 0.052423
  outer loop
   vertex 2696.067228 92.728879 -1726.676630
   vertex 2707.930357 95.178707 -1723.367121
   vertex 2478.467228 92.728879 -946.676630
  endloop
 endfacet
 facet normal 0.062998 -0.997859 0.017575
  outer loop
   vertex 2720.000000 96.000000 -1720.000000
   vertex 2502.400000 96.000000 -940.000000
   vertex 2490.330357 95.178707 -943.367121
  endloop
 endfacet
 facet normal 0.062998 -0.997859 0.017575
  outer loop
   vertex 2707.930357 95.178707 -1723.367121
   vertex 2720.000000 96.000000 -1720.000000
   vertex 2490.330357 95.178707 -943.367121
  endloop
 endfacet
endsolid SIC_RP1_feed_1_drop
