solid SIC_LOX_feed_4_Hrun
 facet normal 0.864165 -0.498940 0.065403
  outer loop
   vertex 1580.294767 2517.075376 -450.000000
   vertex 1579.479786 2517.545919 -435.642119
   vertex 1345.649342 2112.551589 -435.642119
  endloop
 endfacet
 facet normal 0.864165 -0.498940 0.065403
  outer loop
   vertex 1580.294767 2517.075376 -450.000000
   vertex 1345.649342 2112.551589 -435.642119
   vertex 1346.464322 2112.081046 -450.000000
  endloop
 endfacet
 facet normal 0.849379 -0.490403 0.195090
  outer loop
   vertex 1579.479786 2517.545919 -435.642119
   vertex 1577.048790 2518.949497 -421.529905
   vertex 1343.218345 2113.955167 -421.529905
  endloop
 endfacet
 facet normal 0.849379 -0.490403 0.195090
  outer loop
   vertex 1579.479786 2517.545919 -435.642119
   vertex 1343.218345 2113.955167 -421.529905
   vertex 1345.649342 2112.551589 -435.642119
  endloop
 endfacet
 facet normal 0.820060 -0.473475 0.321439
  outer loop
   vertex 1577.048790 2518.949497 -421.529905
   vertex 1573.043372 2521.262094 -407.904822
   vertex 1339.212927 2116.267764 -407.904822
  endloop
 endfacet
 facet normal 0.820060 -0.473475 0.321439
  outer loop
   vertex 1577.048790 2518.949497 -421.529905
   vertex 1339.212927 2116.267764 -407.904822
   vertex 1343.218345 2113.955167 -421.529905
  endloop
 endfacet
 facet normal 0.776709 -0.448446 0.442289
  outer loop
   vertex 1573.043372 2521.262094 -407.904822
   vertex 1567.532066 2524.444141 -395.000000
   vertex 1333.701621 2119.449811 -395.000000
  endloop
 endfacet
 facet normal 0.776709 -0.448446 0.442289
  outer loop
   vertex 1573.043372 2521.262094 -407.904822
   vertex 1333.701621 2119.449811 -395.000000
   vertex 1339.212927 2116.267764 -407.904822
  endloop
 endfacet
 facet normal 0.720069 -0.415744 0.555570
  outer loop
   vertex 1567.532066 2524.444141 -395.000000
   vertex 1560.609173 2528.441193 -383.036243
   vertex 1326.778728 2123.446863 -383.036243
  endloop
 endfacet
 facet normal 0.720069 -0.415744 0.555570
  outer loop
   vertex 1567.532066 2524.444141 -395.000000
   vertex 1326.778728 2123.446863 -383.036243
   vertex 1333.701621 2119.449811 -395.000000
  endloop
 endfacet
 facet normal 0.651108 -0.375928 0.659346
  outer loop
   vertex 1560.609173 2528.441193 -383.036243
   vertex 1552.393145 2533.184858 -372.218254
   vertex 1318.562700 2128.190528 -372.218254
  endloop
 endfacet
 facet normal 0.651108 -0.375928 0.659346
  outer loop
   vertex 1560.609173 2528.441193 -383.036243
   vertex 1318.562700 2128.190528 -372.218254
   vertex 1326.778728 2123.446863 -383.036243
  endloop
 endfacet
 facet normal 0.571006 -0.329680 0.751840
  outer loop
   vertex 1552.393145 2533.184858 -372.218254
   vertex 1543.024561 2538.593971 -362.731133
   vertex 1309.194116 2133.599641 -362.731133
  endloop
 endfacet
 facet normal 0.571006 -0.329680 0.751840
  outer loop
   vertex 1552.393145 2533.184858 -372.218254
   vertex 1309.194116 2133.599641 -362.731133
   vertex 1318.562700 2128.190528 -372.218254
  endloop
 endfacet
 facet normal 0.481134 -0.277791 0.831470
  outer loop
   vertex 1543.024561 2538.593971 -362.731133
   vertex 1532.663719 2544.575981 -354.737206
   vertex 1298.833274 2139.581651 -354.737206
  endloop
 endfacet
 facet normal 0.481134 -0.277791 0.831470
  outer loop
   vertex 1543.024561 2538.593971 -362.731133
   vertex 1298.833274 2139.581651 -354.737206
   vertex 1309.194116 2133.599641 -362.731133
  endloop
 endfacet
 facet normal 0.383030 -0.221149 0.896873
  outer loop
   vertex 1532.663719 2544.575981 -354.737206
   vertex 1521.487897 2551.028534 -348.373251
   vertex 1287.657452 2146.034204 -348.373251
  endloop
 endfacet
 facet normal 0.383030 -0.221149 0.896873
  outer loop
   vertex 1532.663719 2544.575981 -354.737206
   vertex 1287.657452 2146.034204 -348.373251
   vertex 1298.833274 2139.581651 -354.737206
  endloop
 endfacet
 facet normal 0.278373 -0.160723 0.946930
  outer loop
   vertex 1521.487897 2551.028534 -348.373251
   vertex 1509.688316 2557.841226 -343.748159
   vertex 1275.857871 2152.846896 -343.748159
  endloop
 endfacet
 facet normal 0.278373 -0.160723 0.946930
  outer loop
   vertex 1521.487897 2551.028534 -348.373251
   vertex 1275.857871 2152.846896 -343.748159
   vertex 1287.657452 2146.034204 -348.373251
  endloop
 endfacet
 facet normal 0.168952 -0.097547 0.980785
  outer loop
   vertex 1509.688316 2557.841226 -343.748159
   vertex 1497.466870 2564.897488 -340.941065
   vertex 1263.636425 2159.903158 -340.941065
  endloop
 endfacet
 facet normal 0.168952 -0.097547 0.980785
  outer loop
   vertex 1509.688316 2557.841226 -343.748159
   vertex 1263.636425 2159.903158 -340.941065
   vertex 1275.857871 2152.846896 -343.748159
  endloop
 endfacet
 facet normal 0.056640 -0.032702 0.997859
  outer loop
   vertex 1497.466870 2564.897488 -340.941065
   vertex 1485.032671 2572.076586 -340.000000
   vertex 1251.202226 2167.082256 -340.000000
  endloop
 endfacet
 facet normal 0.056640 -0.032702 0.997859
  outer loop
   vertex 1497.466870 2564.897488 -340.941065
   vertex 1251.202226 2167.082256 -340.000000
   vertex 1263.636425 2159.903158 -340.941065
  endloop
 endfacet
 facet normal -0.056640 0.032702 0.997859
  outer loop
   vertex 1485.032671 2572.076586 -340.000000
   vertex 1472.598472 2579.255685 -340.941065
   vertex 1238.768028 2174.261355 -340.941065
  endloop
 endfacet
 facet normal -0.056640 0.032702 0.997859
  outer loop
   vertex 1485.032671 2572.076586 -340.000000
   vertex 1238.768028 2174.261355 -340.941065
   vertex 1251.202226 2167.082256 -340.000000
  endloop
 endfacet
 facet normal -0.168952 0.097547 0.980785
  outer loop
   vertex 1472.598472 2579.255685 -340.941065
   vertex 1460.377026 2586.311947 -343.748159
   vertex 1226.546582 2181.317617 -343.748159
  endloop
 endfacet
 facet normal -0.168952 0.097547 0.980785
  outer loop
   vertex 1472.598472 2579.255685 -340.941065
   vertex 1226.546582 2181.317617 -343.748159
   vertex 1238.768028 2174.261355 -340.941065
  endloop
 endfacet
 facet normal -0.278373 0.160723 0.946930
  outer loop
   vertex 1460.377026 2586.311947 -343.748159
   vertex 1448.577445 2593.124638 -348.373251
   vertex 1214.747001 2188.130308 -348.373251
  endloop
 endfacet
 facet normal -0.278373 0.160723 0.946930
  outer loop
   vertex 1460.377026 2586.311947 -343.748159
   vertex 1214.747001 2188.130308 -348.373251
   vertex 1226.546582 2181.317617 -343.748159
  endloop
 endfacet
 facet normal -0.383030 0.221149 0.896873
  outer loop
   vertex 1448.577445 2593.124638 -348.373251
   vertex 1437.401623 2599.577191 -354.737206
   vertex 1203.571179 2194.582861 -354.737206
  endloop
 endfacet
 facet normal -0.383030 0.221149 0.896873
  outer loop
   vertex 1448.577445 2593.124638 -348.373251
   vertex 1203.571179 2194.582861 -354.737206
   vertex 1214.747001 2188.130308 -348.373251
  endloop
 endfacet
 facet normal -0.481134 0.277791 0.831470
  outer loop
   vertex 1437.401623 2599.577191 -354.737206
   vertex 1427.040782 2605.559202 -362.731133
   vertex 1193.210337 2200.564871 -362.731133
  endloop
 endfacet
 facet normal -0.481134 0.277791 0.831470
  outer loop
   vertex 1437.401623 2599.577191 -354.737206
   vertex 1193.210337 2200.564871 -362.731133
   vertex 1203.571179 2194.582861 -354.737206
  endloop
 endfacet
 facet normal -0.571006 0.329680 0.751840
  outer loop
   vertex 1427.040782 2605.559202 -362.731133
   vertex 1417.672197 2610.968315 -372.218254
   vertex 1183.841753 2205.973985 -372.218254
  endloop
 endfacet
 facet normal -0.571006 0.329680 0.751840
  outer loop
   vertex 1427.040782 2605.559202 -362.731133
   vertex 1183.841753 2205.973985 -372.218254
   vertex 1193.210337 2200.564871 -362.731133
  endloop
 endfacet
 facet normal -0.651108 0.375928 0.659346
  outer loop
   vertex 1417.672197 2610.968315 -372.218254
   vertex 1409.456169 2615.711980 -383.036243
   vertex 1175.625725 2210.717650 -383.036243
  endloop
 endfacet
 facet normal -0.651108 0.375928 0.659346
  outer loop
   vertex 1417.672197 2610.968315 -372.218254
   vertex 1175.625725 2210.717650 -383.036243
   vertex 1183.841753 2205.973985 -372.218254
  endloop
 endfacet
 facet normal -0.720069 0.415744 0.555570
  outer loop
   vertex 1409.456169 2615.711980 -383.036243
   vertex 1402.533276 2619.709031 -395.000000
   vertex 1168.702832 2214.714701 -395.000000
  endloop
 endfacet
 facet normal -0.720069 0.415744 0.555570
  outer loop
   vertex 1409.456169 2615.711980 -383.036243
   vertex 1168.702832 2214.714701 -395.000000
   vertex 1175.625725 2210.717650 -383.036243
  endloop
 endfacet
 facet normal -0.776709 0.448446 0.442289
  outer loop
   vertex 1402.533276 2619.709031 -395.000000
   vertex 1397.021971 2622.891079 -407.904822
   vertex 1163.191526 2217.896748 -407.904822
  endloop
 endfacet
 facet normal -0.776709 0.448446 0.442289
  outer loop
   vertex 1402.533276 2619.709031 -395.000000
   vertex 1163.191526 2217.896748 -407.904822
   vertex 1168.702832 2214.714701 -395.000000
  endloop
 endfacet
 facet normal -0.820060 0.473475 0.321439
  outer loop
   vertex 1397.021971 2622.891079 -407.904822
   vertex 1393.016552 2625.203676 -421.529905
   vertex 1159.186108 2220.209346 -421.529905
  endloop
 endfacet
 facet normal -0.820060 0.473475 0.321439
  outer loop
   vertex 1397.021971 2622.891079 -407.904822
   vertex 1159.186108 2220.209346 -421.529905
   vertex 1163.191526 2217.896748 -407.904822
  endloop
 endfacet
 facet normal -0.849379 0.490403 0.195090
  outer loop
   vertex 1393.016552 2625.203676 -421.529905
   vertex 1390.585556 2626.607253 -435.642119
   vertex 1156.755111 2221.612923 -435.642119
  endloop
 endfacet
 facet normal -0.849379 0.490403 0.195090
  outer loop
   vertex 1393.016552 2625.203676 -421.529905
   vertex 1156.755111 2221.612923 -435.642119
   vertex 1159.186108 2220.209346 -421.529905
  endloop
 endfacet
 facet normal -0.864165 0.498940 0.065403
  outer loop
   vertex 1390.585556 2626.607253 -435.642119
   vertex 1389.770575 2627.077796 -450.000000
   vertex 1155.940131 2222.083466 -450.000000
  endloop
 endfacet
 facet normal -0.864165 0.498940 0.065403
  outer loop
   vertex 1390.585556 2626.607253 -435.642119
   vertex 1155.940131 2222.083466 -450.000000
   vertex 1156.755111 2221.612923 -435.642119
  endloop
 endfacet
 facet normal -0.864165 0.498940 -0.065403
  outer loop
   vertex 1389.770575 2627.077796 -450.000000
   vertex 1390.585556 2626.607253 -464.357881
   vertex 1156.755111 2221.612923 -464.357881
  endloop
 endfacet
 facet normal -0.864165 0.498940 -0.065403
  outer loop
   vertex 1389.770575 2627.077796 -450.000000
   vertex 1156.755111 2221.612923 -464.357881
   vertex 1155.940131 2222.083466 -450.000000
  endloop
 endfacet
 facet normal -0.849379 0.490403 -0.195090
  outer loop
   vertex 1390.585556 2626.607253 -464.357881
   vertex 1393.016552 2625.203676 -478.470095
   vertex 1159.186108 2220.209346 -478.470095
  endloop
 endfacet
 facet normal -0.849379 0.490403 -0.195090
  outer loop
   vertex 1390.585556 2626.607253 -464.357881
   vertex 1159.186108 2220.209346 -478.470095
   vertex 1156.755111 2221.612923 -464.357881
  endloop
 endfacet
 facet normal -0.820060 0.473475 -0.321439
  outer loop
   vertex 1393.016552 2625.203676 -478.470095
   vertex 1397.021971 2622.891079 -492.095178
   vertex 1163.191526 2217.896748 -492.095178
  endloop
 endfacet
 facet normal -0.820060 0.473475 -0.321439
  outer loop
   vertex 1393.016552 2625.203676 -478.470095
   vertex 1163.191526 2217.896748 -492.095178
   vertex 1159.186108 2220.209346 -478.470095
  endloop
 endfacet
 facet normal -0.776709 0.448446 -0.442289
  outer loop
   vertex 1397.021971 2622.891079 -492.095178
   vertex 1402.533276 2619.709031 -505.000000
   vertex 1168.702832 2214.714701 -505.000000
  endloop
 endfacet
 facet normal -0.776709 0.448446 -0.442289
  outer loop
   vertex 1397.021971 2622.891079 -492.095178
   vertex 1168.702832 2214.714701 -505.000000
   vertex 1163.191526 2217.896748 -492.095178
  endloop
 endfacet
 facet normal -0.720069 0.415744 -0.555570
  outer loop
   vertex 1402.533276 2619.709031 -505.000000
   vertex 1409.456169 2615.711980 -516.963757
   vertex 1175.625725 2210.717650 -516.963757
  endloop
 endfacet
 facet normal -0.720069 0.415744 -0.555570
  outer loop
   vertex 1402.533276 2619.709031 -505.000000
   vertex 1175.625725 2210.717650 -516.963757
   vertex 1168.702832 2214.714701 -505.000000
  endloop
 endfacet
 facet normal -0.651108 0.375928 -0.659346
  outer loop
   vertex 1409.456169 2615.711980 -516.963757
   vertex 1417.672197 2610.968315 -527.781746
   vertex 1183.841753 2205.973985 -527.781746
  endloop
 endfacet
 facet normal -0.651108 0.375928 -0.659346
  outer loop
   vertex 1409.456169 2615.711980 -516.963757
   vertex 1183.841753 2205.973985 -527.781746
   vertex 1175.625725 2210.717650 -516.963757
  endloop
 endfacet
 facet normal -0.571006 0.329680 -0.751840
  outer loop
   vertex 1417.672197 2610.968315 -527.781746
   vertex 1427.040782 2605.559202 -537.268867
   vertex 1193.210337 2200.564871 -537.268867
  endloop
 endfacet
 facet normal -0.571006 0.329680 -0.751840
  outer loop
   vertex 1417.672197 2610.968315 -527.781746
   vertex 1193.210337 2200.564871 -537.268867
   vertex 1183.841753 2205.973985 -527.781746
  endloop
 endfacet
 facet normal -0.481134 0.277791 -0.831470
  outer loop
   vertex 1427.040782 2605.559202 -537.268867
   vertex 1437.401623 2599.577191 -545.262794
   vertex 1203.571179 2194.582861 -545.262794
  endloop
 endfacet
 facet normal -0.481134 0.277791 -0.831470
  outer loop
   vertex 1427.040782 2605.559202 -537.268867
   vertex 1203.571179 2194.582861 -545.262794
   vertex 1193.210337 2200.564871 -537.268867
  endloop
 endfacet
 facet normal -0.383030 0.221149 -0.896873
  outer loop
   vertex 1437.401623 2599.577191 -545.262794
   vertex 1448.577445 2593.124638 -551.626749
   vertex 1214.747001 2188.130308 -551.626749
  endloop
 endfacet
 facet normal -0.383030 0.221149 -0.896873
  outer loop
   vertex 1437.401623 2599.577191 -545.262794
   vertex 1214.747001 2188.130308 -551.626749
   vertex 1203.571179 2194.582861 -545.262794
  endloop
 endfacet
 facet normal -0.278373 0.160723 -0.946930
  outer loop
   vertex 1448.577445 2593.124638 -551.626749
   vertex 1460.377026 2586.311947 -556.251841
   vertex 1226.546582 2181.317617 -556.251841
  endloop
 endfacet
 facet normal -0.278373 0.160723 -0.946930
  outer loop
   vertex 1448.577445 2593.124638 -551.626749
   vertex 1226.546582 2181.317617 -556.251841
   vertex 1214.747001 2188.130308 -551.626749
  endloop
 endfacet
 facet normal -0.168952 0.097547 -0.980785
  outer loop
   vertex 1460.377026 2586.311947 -556.251841
   vertex 1472.598472 2579.255685 -559.058935
   vertex 1238.768028 2174.261355 -559.058935
  endloop
 endfacet
 facet normal -0.168952 0.097547 -0.980785
  outer loop
   vertex 1460.377026 2586.311947 -556.251841
   vertex 1238.768028 2174.261355 -559.058935
   vertex 1226.546582 2181.317617 -556.251841
  endloop
 endfacet
 facet normal -0.056640 0.032702 -0.997859
  outer loop
   vertex 1472.598472 2579.255685 -559.058935
   vertex 1485.032671 2572.076586 -560.000000
   vertex 1251.202226 2167.082256 -560.000000
  endloop
 endfacet
 facet normal -0.056640 0.032702 -0.997859
  outer loop
   vertex 1472.598472 2579.255685 -559.058935
   vertex 1251.202226 2167.082256 -560.000000
   vertex 1238.768028 2174.261355 -559.058935
  endloop
 endfacet
 facet normal 0.056640 -0.032702 -0.997859
  outer loop
   vertex 1485.032671 2572.076586 -560.000000
   vertex 1497.466870 2564.897488 -559.058935
   vertex 1263.636425 2159.903158 -559.058935
  endloop
 endfacet
 facet normal 0.056640 -0.032702 -0.997859
  outer loop
   vertex 1485.032671 2572.076586 -560.000000
   vertex 1263.636425 2159.903158 -559.058935
   vertex 1251.202226 2167.082256 -560.000000
  endloop
 endfacet
 facet normal 0.168952 -0.097547 -0.980785
  outer loop
   vertex 1497.466870 2564.897488 -559.058935
   vertex 1509.688316 2557.841226 -556.251841
   vertex 1275.857871 2152.846896 -556.251841
  endloop
 endfacet
 facet normal 0.168952 -0.097547 -0.980785
  outer loop
   vertex 1497.466870 2564.897488 -559.058935
   vertex 1275.857871 2152.846896 -556.251841
   vertex 1263.636425 2159.903158 -559.058935
  endloop
 endfacet
 facet normal 0.278373 -0.160723 -0.946930
  outer loop
   vertex 1509.688316 2557.841226 -556.251841
   vertex 1521.487897 2551.028534 -551.626749
   vertex 1287.657452 2146.034204 -551.626749
  endloop
 endfacet
 facet normal 0.278373 -0.160723 -0.946930
  outer loop
   vertex 1509.688316 2557.841226 -556.251841
   vertex 1287.657452 2146.034204 -551.626749
   vertex 1275.857871 2152.846896 -556.251841
  endloop
 endfacet
 facet normal 0.383030 -0.221149 -0.896873
  outer loop
   vertex 1521.487897 2551.028534 -551.626749
   vertex 1532.663719 2544.575981 -545.262794
   vertex 1298.833274 2139.581651 -545.262794
  endloop
 endfacet
 facet normal 0.383030 -0.221149 -0.896873
  outer loop
   vertex 1521.487897 2551.028534 -551.626749
   vertex 1298.833274 2139.581651 -545.262794
   vertex 1287.657452 2146.034204 -551.626749
  endloop
 endfacet
 facet normal 0.481134 -0.277791 -0.831470
  outer loop
   vertex 1532.663719 2544.575981 -545.262794
   vertex 1543.024561 2538.593971 -537.268867
   vertex 1309.194116 2133.599641 -537.268867
  endloop
 endfacet
 facet normal 0.481134 -0.277791 -0.831470
  outer loop
   vertex 1532.663719 2544.575981 -545.262794
   vertex 1309.194116 2133.599641 -537.268867
   vertex 1298.833274 2139.581651 -545.262794
  endloop
 endfacet
 facet normal 0.571006 -0.329680 -0.751840
  outer loop
   vertex 1543.024561 2538.593971 -537.268867
   vertex 1552.393145 2533.184858 -527.781746
   vertex 1318.562700 2128.190528 -527.781746
  endloop
 endfacet
 facet normal 0.571006 -0.329680 -0.751840
  outer loop
   vertex 1543.024561 2538.593971 -537.268867
   vertex 1318.562700 2128.190528 -527.781746
   vertex 1309.194116 2133.599641 -537.268867
  endloop
 endfacet
 facet normal 0.651108 -0.375928 -0.659346
  outer loop
   vertex 1552.393145 2533.184858 -527.781746
   vertex 1560.609173 2528.441193 -516.963757
   vertex 1326.778728 2123.446863 -516.963757
  endloop
 endfacet
 facet normal 0.651108 -0.375928 -0.659346
  outer loop
   vertex 1552.393145 2533.184858 -527.781746
   vertex 1326.778728 2123.446863 -516.963757
   vertex 1318.562700 2128.190528 -527.781746
  endloop
 endfacet
 facet normal 0.720069 -0.415744 -0.555570
  outer loop
   vertex 1560.609173 2528.441193 -516.963757
   vertex 1567.532066 2524.444141 -505.000000
   vertex 1333.701621 2119.449811 -505.000000
  endloop
 endfacet
 facet normal 0.720069 -0.415744 -0.555570
  outer loop
   vertex 1560.609173 2528.441193 -516.963757
   vertex 1333.701621 2119.449811 -505.000000
   vertex 1326.778728 2123.446863 -516.963757
  endloop
 endfacet
 facet normal 0.776709 -0.448446 -0.442289
  outer loop
   vertex 1567.532066 2524.444141 -505.000000
   vertex 1573.043372 2521.262094 -492.095178
   vertex 1339.212927 2116.267764 -492.095178
  endloop
 endfacet
 facet normal 0.776709 -0.448446 -0.442289
  outer loop
   vertex 1567.532066 2524.444141 -505.000000
   vertex 1339.212927 2116.267764 -492.095178
   vertex 1333.701621 2119.449811 -505.000000
  endloop
 endfacet
 facet normal 0.820060 -0.473475 -0.321439
  outer loop
   vertex 1573.043372 2521.262094 -492.095178
   vertex 1577.048790 2518.949497 -478.470095
   vertex 1343.218345 2113.955167 -478.470095
  endloop
 endfacet
 facet normal 0.820060 -0.473475 -0.321439
  outer loop
   vertex 1573.043372 2521.262094 -492.095178
   vertex 1343.218345 2113.955167 -478.470095
   vertex 1339.212927 2116.267764 -492.095178
  endloop
 endfacet
 facet normal 0.849379 -0.490403 -0.195090
  outer loop
   vertex 1577.048790 2518.949497 -478.470095
   vertex 1579.479786 2517.545919 -464.357881
   vertex 1345.649342 2112.551589 -464.357881
  endloop
 endfacet
 facet normal 0.849379 -0.490403 -0.195090
  outer loop
   vertex 1577.048790 2518.949497 -478.470095
   vertex 1345.649342 2112.551589 -464.357881
   vertex 1343.218345 2113.955167 -478.470095
  endloop
 endfacet
 facet normal 0.864165 -0.498940 -0.065403
  outer loop
   vertex 1579.479786 2517.545919 -464.357881
   vertex 1580.294767 2517.075376 -450.000000
   vertex 1346.464322 2112.081046 -450.000000
  endloop
 endfacet
 facet normal 0.864165 -0.498940 -0.065403
  outer loop
   vertex 1579.479786 2517.545919 -464.357881
   vertex 1346.464322 2112.081046 -450.000000
   vertex 1345.649342 2112.551589 -464.357881
  endloop
 endfacet
 facet normal -0.864165 0.498940 -0.065403
  outer loop
   vertex 1333.628800 2119.491856 -437.469486
   vertex 1567.459244 2524.486186 -437.469486
   vertex 1568.170500 2524.075530 -450.000000
  endloop
 endfacet
 facet normal -0.864165 0.498940 -0.065403
  outer loop
   vertex 1334.340056 2119.081200 -450.000000
   vertex 1333.628800 2119.491856 -437.469486
   vertex 1568.170500 2524.075530 -450.000000
  endloop
 endfacet
 facet normal -0.849379 0.490403 -0.195090
  outer loop
   vertex 1331.507203 2120.716797 -425.153372
   vertex 1565.337647 2525.711127 -425.153372
   vertex 1567.459244 2524.486186 -437.469486
  endloop
 endfacet
 facet normal -0.849379 0.490403 -0.195090
  outer loop
   vertex 1333.628800 2119.491856 -437.469486
   vertex 1331.507203 2120.716797 -425.153372
   vertex 1567.459244 2524.486186 -437.469486
  endloop
 endfacet
 facet normal -0.820060 0.473475 -0.321439
  outer loop
   vertex 1328.011565 2122.735063 -413.262390
   vertex 1561.842010 2527.729393 -413.262390
   vertex 1565.337647 2525.711127 -425.153372
  endloop
 endfacet
 facet normal -0.820060 0.473475 -0.321439
  outer loop
   vertex 1331.507203 2120.716797 -425.153372
   vertex 1328.011565 2122.735063 -413.262390
   vertex 1565.337647 2525.711127 -425.153372
  endloop
 endfacet
 facet normal -0.776709 0.448446 -0.442289
  outer loop
   vertex 1323.201698 2125.512122 -402.000000
   vertex 1557.032143 2530.506452 -402.000000
   vertex 1561.842010 2527.729393 -413.262390
  endloop
 endfacet
 facet normal -0.776709 0.448446 -0.442289
  outer loop
   vertex 1328.011565 2122.735063 -413.262390
   vertex 1323.201698 2125.512122 -402.000000
   vertex 1561.842010 2527.729393 -413.262390
  endloop
 endfacet
 facet normal -0.720069 0.415744 -0.555570
  outer loop
   vertex 1317.159901 2129.000458 -391.558903
   vertex 1550.990345 2533.994788 -391.558903
   vertex 1557.032143 2530.506452 -402.000000
  endloop
 endfacet
 facet normal -0.720069 0.415744 -0.555570
  outer loop
   vertex 1323.201698 2125.512122 -402.000000
   vertex 1317.159901 2129.000458 -391.558903
   vertex 1557.032143 2530.506452 -402.000000
  endloop
 endfacet
 facet normal -0.651108 0.375928 -0.659346
  outer loop
   vertex 1309.989549 2133.140384 -382.117749
   vertex 1543.819994 2538.134714 -382.117749
   vertex 1550.990345 2533.994788 -391.558903
  endloop
 endfacet
 facet normal -0.651108 0.375928 -0.659346
  outer loop
   vertex 1317.159901 2129.000458 -391.558903
   vertex 1309.989549 2133.140384 -382.117749
   vertex 1550.990345 2533.994788 -391.558903
  endloop
 endfacet
 facet normal -0.571006 0.329680 -0.751840
  outer loop
   vertex 1301.813330 2137.861065 -373.838079
   vertex 1535.643775 2542.855395 -373.838079
   vertex 1543.819994 2538.134714 -382.117749
  endloop
 endfacet
 facet normal -0.571006 0.329680 -0.751840
  outer loop
   vertex 1309.989549 2133.140384 -382.117749
   vertex 1301.813330 2137.861065 -373.838079
   vertex 1543.819994 2538.134714 -382.117749
  endloop
 endfacet
 facet normal -0.481134 0.277791 -0.831470
  outer loop
   vertex 1292.771141 2143.081728 -366.861561
   vertex 1526.601586 2548.076058 -366.861561
   vertex 1535.643775 2542.855395 -373.838079
  endloop
 endfacet
 facet normal -0.481134 0.277791 -0.831470
  outer loop
   vertex 1301.813330 2137.861065 -373.838079
   vertex 1292.771141 2143.081728 -366.861561
   vertex 1535.643775 2542.855395 -373.838079
  endloop
 endfacet
 facet normal -0.383030 0.221149 -0.896873
  outer loop
   vertex 1283.017696 2148.713047 -361.307565
   vertex 1516.848141 2553.707377 -361.307565
   vertex 1526.601586 2548.076058 -366.861561
  endloop
 endfacet
 facet normal -0.383030 0.221149 -0.896873
  outer loop
   vertex 1292.771141 2143.081728 -366.861561
   vertex 1283.017696 2148.713047 -361.307565
   vertex 1526.601586 2548.076058 -366.861561
  endloop
 endfacet
 facet normal -0.278373 0.160723 -0.946930
  outer loop
   vertex 1272.719880 2154.658669 -357.271121
   vertex 1506.550325 2559.652999 -357.271121
   vertex 1516.848141 2553.707377 -361.307565
  endloop
 endfacet
 facet normal -0.278373 0.160723 -0.946930
  outer loop
   vertex 1283.017696 2148.713047 -361.307565
   vertex 1272.719880 2154.658669 -357.271121
   vertex 1516.848141 2553.707377 -361.307565
  endloop
 endfacet
 facet normal -0.168952 0.097547 -0.980785
  outer loop
   vertex 1262.053891 2160.816861 -354.821293
   vertex 1495.884335 2565.811191 -354.821293
   vertex 1506.550325 2559.652999 -357.271121
  endloop
 endfacet
 facet normal -0.168952 0.097547 -0.980785
  outer loop
   vertex 1272.719880 2154.658669 -357.271121
   vertex 1262.053891 2160.816861 -354.821293
   vertex 1506.550325 2559.652999 -357.271121
  endloop
 endfacet
 facet normal -0.056640 0.032702 -0.997859
  outer loop
   vertex 1251.202226 2167.082256 -354.000000
   vertex 1485.032671 2572.076586 -354.000000
   vertex 1495.884335 2565.811191 -354.821293
  endloop
 endfacet
 facet normal -0.056640 0.032702 -0.997859
  outer loop
   vertex 1262.053891 2160.816861 -354.821293
   vertex 1251.202226 2167.082256 -354.000000
   vertex 1495.884335 2565.811191 -354.821293
  endloop
 endfacet
 facet normal 0.056640 -0.032702 -0.997859
  outer loop
   vertex 1240.350562 2173.347651 -354.821293
   vertex 1474.181007 2578.341981 -354.821293
   vertex 1485.032671 2572.076586 -354.000000
  endloop
 endfacet
 facet normal 0.056640 -0.032702 -0.997859
  outer loop
   vertex 1251.202226 2167.082256 -354.000000
   vertex 1240.350562 2173.347651 -354.821293
   vertex 1485.032671 2572.076586 -354.000000
  endloop
 endfacet
 facet normal 0.168952 -0.097547 -0.980785
  outer loop
   vertex 1229.684573 2179.505844 -357.271121
   vertex 1463.515018 2584.500174 -357.271121
   vertex 1474.181007 2578.341981 -354.821293
  endloop
 endfacet
 facet normal 0.168952 -0.097547 -0.980785
  outer loop
   vertex 1240.350562 2173.347651 -354.821293
   vertex 1229.684573 2179.505844 -357.271121
   vertex 1474.181007 2578.341981 -354.821293
  endloop
 endfacet
 facet normal 0.278373 -0.160723 -0.946930
  outer loop
   vertex 1219.386757 2185.451465 -361.307565
   vertex 1453.217201 2590.445795 -361.307565
   vertex 1463.515018 2584.500174 -357.271121
  endloop
 endfacet
 facet normal 0.278373 -0.160723 -0.946930
  outer loop
   vertex 1229.684573 2179.505844 -357.271121
   vertex 1219.386757 2185.451465 -361.307565
   vertex 1463.515018 2584.500174 -357.271121
  endloop
 endfacet
 facet normal 0.383030 -0.221149 -0.896873
  outer loop
   vertex 1209.633312 2191.082784 -366.861561
   vertex 1443.463757 2596.077114 -366.861561
   vertex 1453.217201 2590.445795 -361.307565
  endloop
 endfacet
 facet normal 0.383030 -0.221149 -0.896873
  outer loop
   vertex 1219.386757 2185.451465 -361.307565
   vertex 1209.633312 2191.082784 -366.861561
   vertex 1453.217201 2590.445795 -361.307565
  endloop
 endfacet
 facet normal 0.481134 -0.277791 -0.831470
  outer loop
   vertex 1200.591123 2196.303448 -373.838079
   vertex 1434.421567 2601.297778 -373.838079
   vertex 1443.463757 2596.077114 -366.861561
  endloop
 endfacet
 facet normal 0.481134 -0.277791 -0.831470
  outer loop
   vertex 1209.633312 2191.082784 -366.861561
   vertex 1200.591123 2196.303448 -373.838079
   vertex 1443.463757 2596.077114 -366.861561
  endloop
 endfacet
 facet normal 0.571006 -0.329680 -0.751840
  outer loop
   vertex 1192.414904 2201.024128 -382.117749
   vertex 1426.245348 2606.018459 -382.117749
   vertex 1434.421567 2601.297778 -373.838079
  endloop
 endfacet
 facet normal 0.571006 -0.329680 -0.751840
  outer loop
   vertex 1200.591123 2196.303448 -373.838079
   vertex 1192.414904 2201.024128 -382.117749
   vertex 1434.421567 2601.297778 -373.838079
  endloop
 endfacet
 facet normal 0.651108 -0.375928 -0.659346
  outer loop
   vertex 1185.244552 2205.164054 -391.558903
   vertex 1419.074997 2610.158384 -391.558903
   vertex 1426.245348 2606.018459 -382.117749
  endloop
 endfacet
 facet normal 0.651108 -0.375928 -0.659346
  outer loop
   vertex 1192.414904 2201.024128 -382.117749
   vertex 1185.244552 2205.164054 -391.558903
   vertex 1426.245348 2606.018459 -382.117749
  endloop
 endfacet
 facet normal 0.720069 -0.415744 -0.555570
  outer loop
   vertex 1179.202754 2208.652390 -402.000000
   vertex 1413.033199 2613.646720 -402.000000
   vertex 1419.074997 2610.158384 -391.558903
  endloop
 endfacet
 facet normal 0.720069 -0.415744 -0.555570
  outer loop
   vertex 1185.244552 2205.164054 -391.558903
   vertex 1179.202754 2208.652390 -402.000000
   vertex 1419.074997 2610.158384 -391.558903
  endloop
 endfacet
 facet normal 0.776709 -0.448446 -0.442289
  outer loop
   vertex 1174.392888 2211.429449 -413.262390
   vertex 1408.223332 2616.423780 -413.262390
   vertex 1413.033199 2613.646720 -402.000000
  endloop
 endfacet
 facet normal 0.776709 -0.448446 -0.442289
  outer loop
   vertex 1179.202754 2208.652390 -402.000000
   vertex 1174.392888 2211.429449 -413.262390
   vertex 1413.033199 2613.646720 -402.000000
  endloop
 endfacet
 facet normal 0.820060 -0.473475 -0.321439
  outer loop
   vertex 1170.897250 2213.447716 -425.153372
   vertex 1404.727695 2618.442046 -425.153372
   vertex 1408.223332 2616.423780 -413.262390
  endloop
 endfacet
 facet normal 0.820060 -0.473475 -0.321439
  outer loop
   vertex 1174.392888 2211.429449 -413.262390
   vertex 1170.897250 2213.447716 -425.153372
   vertex 1408.223332 2616.423780 -413.262390
  endloop
 endfacet
 facet normal 0.849379 -0.490403 -0.195090
  outer loop
   vertex 1168.775653 2214.672657 -437.469486
   vertex 1402.606098 2619.666987 -437.469486
   vertex 1404.727695 2618.442046 -425.153372
  endloop
 endfacet
 facet normal 0.849379 -0.490403 -0.195090
  outer loop
   vertex 1170.897250 2213.447716 -425.153372
   vertex 1168.775653 2214.672657 -437.469486
   vertex 1404.727695 2618.442046 -425.153372
  endloop
 endfacet
 facet normal 0.864165 -0.498940 -0.065403
  outer loop
   vertex 1168.064397 2215.083312 -450.000000
   vertex 1401.894842 2620.077642 -450.000000
   vertex 1402.606098 2619.666987 -437.469486
  endloop
 endfacet
 facet normal 0.864165 -0.498940 -0.065403
  outer loop
   vertex 1168.775653 2214.672657 -437.469486
   vertex 1168.064397 2215.083312 -450.000000
   vertex 1402.606098 2619.666987 -437.469486
  endloop
 endfacet
 facet normal 0.864165 -0.498940 0.065403
  outer loop
   vertex 1168.775653 2214.672657 -462.530514
   vertex 1402.606098 2619.666987 -462.530514
   vertex 1401.894842 2620.077642 -450.000000
  endloop
 endfacet
 facet normal 0.864165 -0.498940 0.065403
  outer loop
   vertex 1168.064397 2215.083312 -450.000000
   vertex 1168.775653 2214.672657 -462.530514
   vertex 1401.894842 2620.077642 -450.000000
  endloop
 endfacet
 facet normal 0.849379 -0.490403 0.195090
  outer loop
   vertex 1170.897250 2213.447716 -474.846628
   vertex 1404.727695 2618.442046 -474.846628
   vertex 1402.606098 2619.666987 -462.530514
  endloop
 endfacet
 facet normal 0.849379 -0.490403 0.195090
  outer loop
   vertex 1168.775653 2214.672657 -462.530514
   vertex 1170.897250 2213.447716 -474.846628
   vertex 1402.606098 2619.666987 -462.530514
  endloop
 endfacet
 facet normal 0.820060 -0.473475 0.321439
  outer loop
   vertex 1174.392888 2211.429449 -486.737610
   vertex 1408.223332 2616.423780 -486.737610
   vertex 1404.727695 2618.442046 -474.846628
  endloop
 endfacet
 facet normal 0.820060 -0.473475 0.321439
  outer loop
   vertex 1170.897250 2213.447716 -474.846628
   vertex 1174.392888 2211.429449 -486.737610
   vertex 1404.727695 2618.442046 -474.846628
  endloop
 endfacet
 facet normal 0.776709 -0.448446 0.442289
  outer loop
   vertex 1179.202754 2208.652390 -498.000000
   vertex 1413.033199 2613.646720 -498.000000
   vertex 1408.223332 2616.423780 -486.737610
  endloop
 endfacet
 facet normal 0.776709 -0.448446 0.442289
  outer loop
   vertex 1174.392888 2211.429449 -486.737610
   vertex 1179.202754 2208.652390 -498.000000
   vertex 1408.223332 2616.423780 -486.737610
  endloop
 endfacet
 facet normal 0.720069 -0.415744 0.555570
  outer loop
   vertex 1185.244552 2205.164054 -508.441097
   vertex 1419.074997 2610.158384 -508.441097
   vertex 1413.033199 2613.646720 -498.000000
  endloop
 endfacet
 facet normal 0.720069 -0.415744 0.555570
  outer loop
   vertex 1179.202754 2208.652390 -498.000000
   vertex 1185.244552 2205.164054 -508.441097
   vertex 1413.033199 2613.646720 -498.000000
  endloop
 endfacet
 facet normal 0.651108 -0.375928 0.659346
  outer loop
   vertex 1192.414904 2201.024128 -517.882251
   vertex 1426.245348 2606.018459 -517.882251
   vertex 1419.074997 2610.158384 -508.441097
  endloop
 endfacet
 facet normal 0.651108 -0.375928 0.659346
  outer loop
   vertex 1185.244552 2205.164054 -508.441097
   vertex 1192.414904 2201.024128 -517.882251
   vertex 1419.074997 2610.158384 -508.441097
  endloop
 endfacet
 facet normal 0.571006 -0.329680 0.751840
  outer loop
   vertex 1200.591123 2196.303448 -526.161921
   vertex 1434.421567 2601.297778 -526.161921
   vertex 1426.245348 2606.018459 -517.882251
  endloop
 endfacet
 facet normal 0.571006 -0.329680 0.751840
  outer loop
   vertex 1192.414904 2201.024128 -517.882251
   vertex 1200.591123 2196.303448 -526.161921
   vertex 1426.245348 2606.018459 -517.882251
  endloop
 endfacet
 facet normal 0.481134 -0.277791 0.831470
  outer loop
   vertex 1209.633312 2191.082784 -533.138439
   vertex 1443.463757 2596.077114 -533.138439
   vertex 1434.421567 2601.297778 -526.161921
  endloop
 endfacet
 facet normal 0.481134 -0.277791 0.831470
  outer loop
   vertex 1200.591123 2196.303448 -526.161921
   vertex 1209.633312 2191.082784 -533.138439
   vertex 1434.421567 2601.297778 -526.161921
  endloop
 endfacet
 facet normal 0.383030 -0.221149 0.896873
  outer loop
   vertex 1219.386757 2185.451465 -538.692435
   vertex 1453.217201 2590.445795 -538.692435
   vertex 1443.463757 2596.077114 -533.138439
  endloop
 endfacet
 facet normal 0.383030 -0.221149 0.896873
  outer loop
   vertex 1209.633312 2191.082784 -533.138439
   vertex 1219.386757 2185.451465 -538.692435
   vertex 1443.463757 2596.077114 -533.138439
  endloop
 endfacet
 facet normal 0.278373 -0.160723 0.946930
  outer loop
   vertex 1229.684573 2179.505844 -542.728879
   vertex 1463.515018 2584.500174 -542.728879
   vertex 1453.217201 2590.445795 -538.692435
  endloop
 endfacet
 facet normal 0.278373 -0.160723 0.946930
  outer loop
   vertex 1219.386757 2185.451465 -538.692435
   vertex 1229.684573 2179.505844 -542.728879
   vertex 1453.217201 2590.445795 -538.692435
  endloop
 endfacet
 facet normal 0.168952 -0.097547 0.980785
  outer loop
   vertex 1240.350562 2173.347651 -545.178707
   vertex 1474.181007 2578.341981 -545.178707
   vertex 1463.515018 2584.500174 -542.728879
  endloop
 endfacet
 facet normal 0.168952 -0.097547 0.980785
  outer loop
   vertex 1229.684573 2179.505844 -542.728879
   vertex 1240.350562 2173.347651 -545.178707
   vertex 1463.515018 2584.500174 -542.728879
  endloop
 endfacet
 facet normal 0.056640 -0.032702 0.997859
  outer loop
   vertex 1251.202226 2167.082256 -546.000000
   vertex 1485.032671 2572.076586 -546.000000
   vertex 1474.181007 2578.341981 -545.178707
  endloop
 endfacet
 facet normal 0.056640 -0.032702 0.997859
  outer loop
   vertex 1240.350562 2173.347651 -545.178707
   vertex 1251.202226 2167.082256 -546.000000
   vertex 1474.181007 2578.341981 -545.178707
  endloop
 endfacet
 facet normal -0.056640 0.032702 0.997859
  outer loop
   vertex 1262.053891 2160.816861 -545.178707
   vertex 1495.884335 2565.811191 -545.178707
   vertex 1485.032671 2572.076586 -546.000000
  endloop
 endfacet
 facet normal -0.056640 0.032702 0.997859
  outer loop
   vertex 1251.202226 2167.082256 -546.000000
   vertex 1262.053891 2160.816861 -545.178707
   vertex 1485.032671 2572.076586 -546.000000
  endloop
 endfacet
 facet normal -0.168952 0.097547 0.980785
  outer loop
   vertex 1272.719880 2154.658669 -542.728879
   vertex 1506.550325 2559.652999 -542.728879
   vertex 1495.884335 2565.811191 -545.178707
  endloop
 endfacet
 facet normal -0.168952 0.097547 0.980785
  outer loop
   vertex 1262.053891 2160.816861 -545.178707
   vertex 1272.719880 2154.658669 -542.728879
   vertex 1495.884335 2565.811191 -545.178707
  endloop
 endfacet
 facet normal -0.278373 0.160723 0.946930
  outer loop
   vertex 1283.017696 2148.713047 -538.692435
   vertex 1516.848141 2553.707377 -538.692435
   vertex 1506.550325 2559.652999 -542.728879
  endloop
 endfacet
 facet normal -0.278373 0.160723 0.946930
  outer loop
   vertex 1272.719880 2154.658669 -542.728879
   vertex 1283.017696 2148.713047 -538.692435
   vertex 1506.550325 2559.652999 -542.728879
  endloop
 endfacet
 facet normal -0.383030 0.221149 0.896873
  outer loop
   vertex 1292.771141 2143.081728 -533.138439
   vertex 1526.601586 2548.076058 -533.138439
   vertex 1516.848141 2553.707377 -538.692435
  endloop
 endfacet
 facet normal -0.383030 0.221149 0.896873
  outer loop
   vertex 1283.017696 2148.713047 -538.692435
   vertex 1292.771141 2143.081728 -533.138439
   vertex 1516.848141 2553.707377 -538.692435
  endloop
 endfacet
 facet normal -0.481134 0.277791 0.831470
  outer loop
   vertex 1301.813330 2137.861065 -526.161921
   vertex 1535.643775 2542.855395 -526.161921
   vertex 1526.601586 2548.076058 -533.138439
  endloop
 endfacet
 facet normal -0.481134 0.277791 0.831470
  outer loop
   vertex 1292.771141 2143.081728 -533.138439
   vertex 1301.813330 2137.861065 -526.161921
   vertex 1526.601586 2548.076058 -533.138439
  endloop
 endfacet
 facet normal -0.571006 0.329680 0.751840
  outer loop
   vertex 1309.989549 2133.140384 -517.882251
   vertex 1543.819994 2538.134714 -517.882251
   vertex 1535.643775 2542.855395 -526.161921
  endloop
 endfacet
 facet normal -0.571006 0.329680 0.751840
  outer loop
   vertex 1301.813330 2137.861065 -526.161921
   vertex 1309.989549 2133.140384 -517.882251
   vertex 1535.643775 2542.855395 -526.161921
  endloop
 endfacet
 facet normal -0.651108 0.375928 0.659346
  outer loop
   vertex 1317.159901 2129.000458 -508.441097
   vertex 1550.990345 2533.994788 -508.441097
   vertex 1543.819994 2538.134714 -517.882251
  endloop
 endfacet
 facet normal -0.651108 0.375928 0.659346
  outer loop
   vertex 1309.989549 2133.140384 -517.882251
   vertex 1317.159901 2129.000458 -508.441097
   vertex 1543.819994 2538.134714 -517.882251
  endloop
 endfacet
 facet normal -0.720069 0.415744 0.555570
  outer loop
   vertex 1323.201698 2125.512122 -498.000000
   vertex 1557.032143 2530.506452 -498.000000
   vertex 1550.990345 2533.994788 -508.441097
  endloop
 endfacet
 facet normal -0.720069 0.415744 0.555570
  outer loop
   vertex 1317.159901 2129.000458 -508.441097
   vertex 1323.201698 2125.512122 -498.000000
   vertex 1550.990345 2533.994788 -508.441097
  endloop
 endfacet
 facet normal -0.776709 0.448446 0.442289
  outer loop
   vertex 1328.011565 2122.735063 -486.737610
   vertex 1561.842010 2527.729393 -486.737610
   vertex 1557.032143 2530.506452 -498.000000
  endloop
 endfacet
 facet normal -0.776709 0.448446 0.442289
  outer loop
   vertex 1323.201698 2125.512122 -498.000000
   vertex 1328.011565 2122.735063 -486.737610
   vertex 1557.032143 2530.506452 -498.000000
  endloop
 endfacet
 facet normal -0.820060 0.473475 0.321439
  outer loop
   vertex 1331.507203 2120.716797 -474.846628
   vertex 1565.337647 2525.711127 -474.846628
   vertex 1561.842010 2527.729393 -486.737610
  endloop
 endfacet
 facet normal -0.820060 0.473475 0.321439
  outer loop
   vertex 1328.011565 2122.735063 -486.737610
   vertex 1331.507203 2120.716797 -474.846628
   vertex 1561.842010 2527.729393 -486.737610
  endloop
 endfacet
 facet normal -0.849379 0.490403 0.195090
  outer loop
   vertex 1333.628800 2119.491856 -462.530514
   vertex 1567.459244 2524.486186 -462.530514
   vertex 1565.337647 2525.711127 -474.846628
  endloop
 endfacet
 facet normal -0.849379 0.490403 0.195090
  outer loop
   vertex 1331.507203 2120.716797 -474.846628
   vertex 1333.628800 2119.491856 -462.530514
   vertex 1565.337647 2525.711127 -474.846628
  endloop
 endfacet
 facet normal -0.864165 0.498940 0.065403
  outer loop
   vertex 1334.340056 2119.081200 -450.000000
   vertex 1568.170500 2524.075530 -450.000000
   vertex 1567.459244 2524.486186 -462.530514
  endloop
 endfacet
 facet normal -0.864165 0.498940 0.065403
  outer loop
   vertex 1333.628800 2119.491856 -462.530514
   vertex 1334.340056 2119.081200 -450.000000
   vertex 1567.459244 2524.486186 -462.530514
  endloop
 endfacet
endsolid SIC_LOX_feed_4_Hrun
