solid SIC_RP1_riser
 facet normal 0.052759 0.997859 0.038653
  outer loop
   vertex 1900.000000 75.000000 1200.000000
   vertex 1907.896957 74.358365 1205.785471
   vertex 3277.896957 74.358365 -664.214529
  endloop
 endfacet
 facet normal 0.052759 0.997859 0.038653
  outer loop
   vertex 1900.000000 75.000000 1200.000000
   vertex 3277.896957 74.358365 -664.214529
   vertex 3270.000000 75.000000 -670.000000
  endloop
 endfacet
 facet normal 0.157375 0.980785 0.115296
  outer loop
   vertex 1907.896957 74.358365 1205.785471
   vertex 1915.658795 72.444437 1211.471952
   vertex 3285.658795 72.444437 -658.528048
  endloop
 endfacet
 facet normal 0.157375 0.980785 0.115296
  outer loop
   vertex 1907.896957 74.358365 1205.785471
   vertex 3285.658795 72.444437 -658.528048
   vertex 3277.896957 74.358365 -664.214529
  endloop
 endfacet
 facet normal 0.259299 0.946930 0.189967
  outer loop
   vertex 1915.658795 72.444437 1211.471952
   vertex 1923.152707 69.290965 1216.962144
   vertex 3293.152707 69.290965 -653.037856
  endloop
 endfacet
 facet normal 0.259299 0.946930 0.189967
  outer loop
   vertex 1915.658795 72.444437 1211.471952
   vertex 3293.152707 69.290965 -653.037856
   vertex 3285.658795 72.444437 -658.528048
  endloop
 endfacet
 facet normal 0.356785 0.896873 0.261388
  outer loop
   vertex 1923.152707 69.290965 1216.962144
   vertex 1930.250470 64.951905 1222.162109
   vertex 3300.250470 64.951905 -647.837891
  endloop
 endfacet
 facet normal 0.356785 0.896873 0.261388
  outer loop
   vertex 1923.152707 69.290965 1216.962144
   vertex 3300.250470 64.951905 -647.837891
   vertex 3293.152707 69.290965 -653.037856
  endloop
 endfacet
 facet normal 0.448167 0.831470 0.328336
  outer loop
   vertex 1930.250470 64.951905 1222.162109
   vertex 1936.830639 59.501501 1226.982874
   vertex 3306.830639 59.501501 -643.017126
  endloop
 endfacet
 facet normal 0.448167 0.831470 0.328336
  outer loop
   vertex 1930.250470 64.951905 1222.162109
   vertex 3306.830639 59.501501 -643.017126
   vertex 3300.250470 64.951905 -647.837891
  endloop
 endfacet
 facet normal 0.531881 0.751840 0.389667
  outer loop
   vertex 1936.830639 59.501501 1226.982874
   vertex 1942.780625 53.033009 1231.341955
   vertex 3312.780625 53.033009 -638.658045
  endloop
 endfacet
 facet normal 0.531881 0.751840 0.389667
  outer loop
   vertex 1936.830639 59.501501 1226.982874
   vertex 3312.780625 53.033009 -638.658045
   vertex 3306.830639 59.501501 -643.017126
  endloop
 endfacet
 facet normal 0.606494 0.659346 0.444329
  outer loop
   vertex 1942.780625 53.033009 1231.341955
   vertex 1947.998623 45.657107 1235.164766
   vertex 3317.998623 45.657107 -634.835234
  endloop
 endfacet
 facet normal 0.606494 0.659346 0.444329
  outer loop
   vertex 1942.780625 53.033009 1231.341955
   vertex 3317.998623 45.657107 -634.835234
   vertex 3312.780625 53.033009 -638.658045
  endloop
 endfacet
 facet normal 0.670729 0.555570 0.491390
  outer loop
   vertex 1947.998623 45.657107 1235.164766
   vertex 1952.395351 37.500000 1238.385899
   vertex 3322.395351 37.500000 -631.614101
  endloop
 endfacet
 facet normal 0.670729 0.555570 0.491390
  outer loop
   vertex 1947.998623 45.657107 1235.164766
   vertex 3322.395351 37.500000 -631.614101
   vertex 3317.998623 45.657107 -634.835234
  endloop
 endfacet
 facet normal 0.723489 0.442289 0.530042
  outer loop
   vertex 1952.395351 37.500000 1238.385899
   vertex 1955.895580 28.701257 1240.950238
   vertex 3325.895580 28.701257 -629.049762
  endloop
 endfacet
 facet normal 0.723489 0.442289 0.530042
  outer loop
   vertex 1952.395351 37.500000 1238.385899
   vertex 3325.895580 28.701257 -629.049762
   vertex 3322.395351 37.500000 -631.614101
  endloop
 endfacet
 facet normal 0.763869 0.321439 0.559626
  outer loop
   vertex 1955.895580 28.701257 1240.950238
   vertex 1958.439420 19.411428 1242.813907
   vertex 3328.439420 19.411428 -627.186093
  endloop
 endfacet
 facet normal 0.763869 0.321439 0.559626
  outer loop
   vertex 1955.895580 28.701257 1240.950238
   vertex 3328.439420 19.411428 -627.186093
   vertex 3325.895580 28.701257 -629.049762
  endloop
 endfacet
 facet normal 0.791179 0.195090 0.579634
  outer loop
   vertex 1958.439420 19.411428 1242.813907
   vertex 1959.983346 9.789464 1243.945018
   vertex 3329.983346 9.789464 -626.054982
  endloop
 endfacet
 facet normal 0.791179 0.195090 0.579634
  outer loop
   vertex 1958.439420 19.411428 1242.813907
   vertex 3329.983346 9.789464 -626.054982
   vertex 3328.439420 19.411428 -627.186093
  endloop
 endfacet
 facet normal 0.804952 0.065403 0.589724
  outer loop
   vertex 1959.983346 9.789464 1243.945018
   vertex 1960.500940 0.000000 1244.324218
   vertex 3330.500940 0.000000 -625.675782
  endloop
 endfacet
 facet normal 0.804952 0.065403 0.589724
  outer loop
   vertex 1959.983346 9.789464 1243.945018
   vertex 3330.500940 0.000000 -625.675782
   vertex 3329.983346 9.789464 -626.054982
  endloop
 endfacet
 facet normal 0.804952 -0.065403 0.589724
  outer loop
   vertex 1960.500940 0.000000 1244.324218
   vertex 1959.983346 -9.789464 1243.945018
   vertex 3329.983346 -9.789464 -626.054982
  endloop
 endfacet
 facet normal 0.804952 -0.065403 0.589724
  outer loop
   vertex 1960.500940 0.000000 1244.324218
   vertex 3329.983346 -9.789464 -626.054982
   vertex 3330.500940 0.000000 -625.675782
  endloop
 endfacet
 facet normal 0.791179 -0.195090 0.579634
  outer loop
   vertex 1959.983346 -9.789464 1243.945018
   vertex 1958.439420 -19.411428 1242.813907
   vertex 3328.439420 -19.411428 -627.186093
  endloop
 endfacet
 facet normal 0.791179 -0.195090 0.579634
  outer loop
   vertex 1959.983346 -9.789464 1243.945018
   vertex 3328.439420 -19.411428 -627.186093
   vertex 3329.983346 -9.789464 -626.054982
  endloop
 endfacet
 facet normal 0.763869 -0.321439 0.559626
  outer loop
   vertex 1958.439420 -19.411428 1242.813907
   vertex 1955.895580 -28.701257 1240.950238
   vertex 3325.895580 -28.701257 -629.049762
  endloop
 endfacet
 facet normal 0.763869 -0.321439 0.559626
  outer loop
   vertex 1958.439420 -19.411428 1242.813907
   vertex 3325.895580 -28.701257 -629.049762
   vertex 3328.439420 -19.411428 -627.186093
  endloop
 endfacet
 facet normal 0.723489 -0.442289 0.530042
  outer loop
   vertex 1955.895580 -28.701257 1240.950238
   vertex 1952.395351 -37.500000 1238.385899
   vertex 3322.395351 -37.500000 -631.614101
  endloop
 endfacet
 facet normal 0.723489 -0.442289 0.530042
  outer loop
   vertex 1955.895580 -28.701257 1240.950238
   vertex 3322.395351 -37.500000 -631.614101
   vertex 3325.895580 -28.701257 -629.049762
  endloop
 endfacet
 facet normal 0.670729 -0.555570 0.491390
  outer loop
   vertex 1952.395351 -37.500000 1238.385899
   vertex 1947.998623 -45.657107 1235.164766
   vertex 3317.998623 -45.657107 -634.835234
  endloop
 endfacet
 facet normal 0.670729 -0.555570 0.491390
  outer loop
   vertex 1952.395351 -37.500000 1238.385899
   vertex 3317.998623 -45.657107 -634.835234
   vertex 3322.395351 -37.500000 -631.614101
  endloop
 endfacet
 facet normal 0.606494 -0.659346 0.444329
  outer loop
   vertex 1947.998623 -45.657107 1235.164766
   vertex 1942.780625 -53.033009 1231.341955
   vertex 3312.780625 -53.033009 -638.658045
  endloop
 endfacet
 facet normal 0.606494 -0.659346 0.444329
  outer loop
   vertex 1947.998623 -45.657107 1235.164766
   vertex 3312.780625 -53.033009 -638.658045
   vertex 3317.998623 -45.657107 -634.835234
  endloop
 endfacet
 facet normal 0.531881 -0.751840 0.389667
  outer loop
   vertex 1942.780625 -53.033009 1231.341955
   vertex 1936.830639 -59.501501 1226.982874
   vertex 3306.830639 -59.501501 -643.017126
  endloop
 endfacet
 facet normal 0.531881 -0.751840 0.389667
  outer loop
   vertex 1942.780625 -53.033009 1231.341955
   vertex 3306.830639 -59.501501 -643.017126
   vertex 3312.780625 -53.033009 -638.658045
  endloop
 endfacet
 facet normal 0.448167 -0.831470 0.328336
  outer loop
   vertex 1936.830639 -59.501501 1226.982874
   vertex 1930.250470 -64.951905 1222.162109
   vertex 3300.250470 -64.951905 -647.837891
  endloop
 endfacet
 facet normal 0.448167 -0.831470 0.328336
  outer loop
   vertex 1936.830639 -59.501501 1226.982874
   vertex 3300.250470 -64.951905 -647.837891
   vertex 3306.830639 -59.501501 -643.017126
  endloop
 endfacet
 facet normal 0.356785 -0.896873 0.261388
  outer loop
   vertex 1930.250470 -64.951905 1222.162109
   vertex 1923.152707 -69.290965 1216.962144
   vertex 3293.152707 -69.290965 -653.037856
  endloop
 endfacet
 facet normal 0.356785 -0.896873 0.261388
  outer loop
   vertex 1930.250470 -64.951905 1222.162109
   vertex 3293.152707 -69.290965 -653.037856
   vertex 3300.250470 -64.951905 -647.837891
  endloop
 endfacet
 facet normal 0.259299 -0.946930 0.189967
  outer loop
   vertex 1923.152707 -69.290965 1216.962144
   vertex 1915.658795 -72.444437 1211.471952
   vertex 3285.658795 -72.444437 -658.528048
  endloop
 endfacet
 facet normal 0.259299 -0.946930 0.189967
  outer loop
   vertex 1923.152707 -69.290965 1216.962144
   vertex 3285.658795 -72.444437 -658.528048
   vertex 3293.152707 -69.290965 -653.037856
  endloop
 endfacet
 facet normal 0.157375 -0.980785 0.115296
  outer loop
   vertex 1915.658795 -72.444437 1211.471952
   vertex 1907.896957 -74.358365 1205.785471
   vertex 3277.896957 -74.358365 -664.214529
  endloop
 endfacet
 facet normal 0.157375 -0.980785 0.115296
  outer loop
   vertex 1915.658795 -72.444437 1211.471952
   vertex 3277.896957 -74.358365 -664.214529
   vertex 3285.658795 -72.444437 -658.528048
  endloop
 endfacet
 facet normal 0.052759 -0.997859 0.038653
  outer loop
   vertex 1907.896957 -74.358365 1205.785471
   vertex 1900.000000 -75.000000 1200.000000
   vertex 3270.000000 -75.000000 -670.000000
  endloop
 endfacet
 facet normal 0.052759 -0.997859 0.038653
  outer loop
   vertex 1907.896957 -74.358365 1205.785471
   vertex 3270.000000 -75.000000 -670.000000
   vertex 3277.896957 -74.358365 -664.214529
  endloop
 endfacet
 facet normal -0.052759 -0.997859 -0.038653
  outer loop
   vertex 1900.000000 -75.000000 1200.000000
   vertex 1892.103043 -74.358365 1194.214529
   vertex 3262.103043 -74.358365 -675.785471
  endloop
 endfacet
 facet normal -0.052759 -0.997859 -0.038653
  outer loop
   vertex 1900.000000 -75.000000 1200.000000
   vertex 3262.103043 -74.358365 -675.785471
   vertex 3270.000000 -75.000000 -670.000000
  endloop
 endfacet
 facet normal -0.157375 -0.980785 -0.115296
  outer loop
   vertex 1892.103043 -74.358365 1194.214529
   vertex 1884.341205 -72.444437 1188.528048
   vertex 3254.341205 -72.444437 -681.471952
  endloop
 endfacet
 facet normal -0.157375 -0.980785 -0.115296
  outer loop
   vertex 1892.103043 -74.358365 1194.214529
   vertex 3254.341205 -72.444437 -681.471952
   vertex 3262.103043 -74.358365 -675.785471
  endloop
 endfacet
 facet normal -0.259299 -0.946930 -0.189967
  outer loop
   vertex 1884.341205 -72.444437 1188.528048
   vertex 1876.847293 -69.290965 1183.037856
   vertex 3246.847293 -69.290965 -686.962144
  endloop
 endfacet
 facet normal -0.259299 -0.946930 -0.189967
  outer loop
   vertex 1884.341205 -72.444437 1188.528048
   vertex 3246.847293 -69.290965 -686.962144
   vertex 3254.341205 -72.444437 -681.471952
  endloop
 endfacet
 facet normal -0.356785 -0.896873 -0.261388
  outer loop
   vertex 1876.847293 -69.290965 1183.037856
   vertex 1869.749530 -64.951905 1177.837891
   vertex 3239.749530 -64.951905 -692.162109
  endloop
 endfacet
 facet normal -0.356785 -0.896873 -0.261388
  outer loop
   vertex 1876.847293 -69.290965 1183.037856
   vertex 3239.749530 -64.951905 -692.162109
   vertex 3246.847293 -69.290965 -686.962144
  endloop
 endfacet
 facet normal -0.448167 -0.831470 -0.328336
  outer loop
   vertex 1869.749530 -64.951905 1177.837891
   vertex 1863.169361 -59.501501 1173.017126
   vertex 3233.169361 -59.501501 -696.982874
  endloop
 endfacet
 facet normal -0.448167 -0.831470 -0.328336
  outer loop
   vertex 1869.749530 -64.951905 1177.837891
   vertex 3233.169361 -59.501501 -696.982874
   vertex 3239.749530 -64.951905 -692.162109
  endloop
 endfacet
 facet normal -0.531881 -0.751840 -0.389667
  outer loop
   vertex 1863.169361 -59.501501 1173.017126
   vertex 1857.219375 -53.033009 1168.658045
   vertex 3227.219375 -53.033009 -701.341955
  endloop
 endfacet
 facet normal -0.531881 -0.751840 -0.389667
  outer loop
   vertex 1863.169361 -59.501501 1173.017126
   vertex 3227.219375 -53.033009 -701.341955
   vertex 3233.169361 -59.501501 -696.982874
  endloop
 endfacet
 facet normal -0.606494 -0.659346 -0.444329
  outer loop
   vertex 1857.219375 -53.033009 1168.658045
   vertex 1852.001377 -45.657107 1164.835234
   vertex 3222.001377 -45.657107 -705.164766
  endloop
 endfacet
 facet normal -0.606494 -0.659346 -0.444329
  outer loop
   vertex 1857.219375 -53.033009 1168.658045
   vertex 3222.001377 -45.657107 -705.164766
   vertex 3227.219375 -53.033009 -701.341955
  endloop
 endfacet
 facet normal -0.670729 -0.555570 -0.491390
  outer loop
   vertex 1852.001377 -45.657107 1164.835234
   vertex 1847.604649 -37.500000 1161.614101
   vertex 3217.604649 -37.500000 -708.385899
  endloop
 endfacet
 facet normal -0.670729 -0.555570 -0.491390
  outer loop
   vertex 1852.001377 -45.657107 1164.835234
   vertex 3217.604649 -37.500000 -708.385899
   vertex 3222.001377 -45.657107 -705.164766
  endloop
 endfacet
 facet normal -0.723489 -0.442289 -0.530042
  outer loop
   vertex 1847.604649 -37.500000 1161.614101
   vertex 1844.104420 -28.701257 1159.049762
   vertex 3214.104420 -28.701257 -710.950238
  endloop
 endfacet
 facet normal -0.723489 -0.442289 -0.530042
  outer loop
   vertex 1847.604649 -37.500000 1161.614101
   vertex 3214.104420 -28.701257 -710.950238
   vertex 3217.604649 -37.500000 -708.385899
  endloop
 endfacet
 facet normal -0.763869 -0.321439 -0.559626
  outer loop
   vertex 1844.104420 -28.701257 1159.049762
   vertex 1841.560580 -19.411428 1157.186093
   vertex 3211.560580 -19.411428 -712.813907
  endloop
 endfacet
 facet normal -0.763869 -0.321439 -0.559626
  outer loop
   vertex 1844.104420 -28.701257 1159.049762
   vertex 3211.560580 -19.411428 -712.813907
   vertex 3214.104420 -28.701257 -710.950238
  endloop
 endfacet
 facet normal -0.791179 -0.195090 -0.579634
  outer loop
   vertex 1841.560580 -19.411428 1157.186093
   vertex 1840.016654 -9.789464 1156.054982
   vertex 3210.016654 -9.789464 -713.945018
  endloop
 endfacet
 facet normal -0.791179 -0.195090 -0.579634
  outer loop
   vertex 1841.560580 -19.411428 1157.186093
   vertex 3210.016654 -9.789464 -713.945018
   vertex 3211.560580 -19.411428 -712.813907
  endloop
 endfacet
 facet normal -0.804952 -0.065403 -0.589724
  outer loop
   vertex 1840.016654 -9.789464 1156.054982
   vertex 1839.499060 -0.000000 1155.675782
   vertex 3209.499060 -0.000000 -714.324218
  endloop
 endfacet
 facet normal -0.804952 -0.065403 -0.589724
  outer loop
   vertex 1840.016654 -9.789464 1156.054982
   vertex 3209.499060 -0.000000 -714.324218
   vertex 3210.016654 -9.789464 -713.945018
  endloop
 endfacet
 facet normal -0.804952 0.065403 -0.589724
  outer loop
   vertex 1839.499060 -0.000000 1155.675782
   vertex 1840.016654 9.789464 1156.054982
   vertex 3210.016654 9.789464 -713.945018
  endloop
 endfacet
 facet normal -0.804952 0.065403 -0.589724
  outer loop
   vertex 1839.499060 -0.000000 1155.675782
   vertex 3210.016654 9.789464 -713.945018
   vertex 3209.499060 -0.000000 -714.324218
  endloop
 endfacet
 facet normal -0.791179 0.195090 -0.579634
  outer loop
   vertex 1840.016654 9.789464 1156.054982
   vertex 1841.560580 19.411428 1157.186093
   vertex 3211.560580 19.411428 -712.813907
  endloop
 endfacet
 facet normal -0.791179 0.195090 -0.579634
  outer loop
   vertex 1840.016654 9.789464 1156.054982
   vertex 3211.560580 19.411428 -712.813907
   vertex 3210.016654 9.789464 -713.945018
  endloop
 endfacet
 facet normal -0.763869 0.321439 -0.559626
  outer loop
   vertex 1841.560580 19.411428 1157.186093
   vertex 1844.104420 28.701257 1159.049762
   vertex 3214.104420 28.701257 -710.950238
  endloop
 endfacet
 facet normal -0.763869 0.321439 -0.559626
  outer loop
   vertex 1841.560580 19.411428 1157.186093
   vertex 3214.104420 28.701257 -710.950238
   vertex 3211.560580 19.411428 -712.813907
  endloop
 endfacet
 facet normal -0.723489 0.442289 -0.530042
  outer loop
   vertex 1844.104420 28.701257 1159.049762
   vertex 1847.604649 37.500000 1161.614101
   vertex 3217.604649 37.500000 -708.385899
  endloop
 endfacet
 facet normal -0.723489 0.442289 -0.530042
  outer loop
   vertex 1844.104420 28.701257 1159.049762
   vertex 3217.604649 37.500000 -708.385899
   vertex 3214.104420 28.701257 -710.950238
  endloop
 endfacet
 facet normal -0.670729 0.555570 -0.491390
  outer loop
   vertex 1847.604649 37.500000 1161.614101
   vertex 1852.001377 45.657107 1164.835234
   vertex 3222.001377 45.657107 -705.164766
  endloop
 endfacet
 facet normal -0.670729 0.555570 -0.491390
  outer loop
   vertex 1847.604649 37.500000 1161.614101
   vertex 3222.001377 45.657107 -705.164766
   vertex 3217.604649 37.500000 -708.385899
  endloop
 endfacet
 facet normal -0.606494 0.659346 -0.444329
  outer loop
   vertex 1852.001377 45.657107 1164.835234
   vertex 1857.219375 53.033009 1168.658045
   vertex 3227.219375 53.033009 -701.341955
  endloop
 endfacet
 facet normal -0.606494 0.659346 -0.444329
  outer loop
   vertex 1852.001377 45.657107 1164.835234
   vertex 3227.219375 53.033009 -701.341955
   vertex 3222.001377 45.657107 -705.164766
  endloop
 endfacet
 facet normal -0.531881 0.751840 -0.389667
  outer loop
   vertex 1857.219375 53.033009 1168.658045
   vertex 1863.169361 59.501501 1173.017126
   vertex 3233.169361 59.501501 -696.982874
  endloop
 endfacet
 facet normal -0.531881 0.751840 -0.389667
  outer loop
   vertex 1857.219375 53.033009 1168.658045
   vertex 3233.169361 59.501501 -696.982874
   vertex 3227.219375 53.033009 -701.341955
  endloop
 endfacet
 facet normal -0.448167 0.831470 -0.328336
  outer loop
   vertex 1863.169361 59.501501 1173.017126
   vertex 1869.749530 64.951905 1177.837891
   vertex 3239.749530 64.951905 -692.162109
  endloop
 endfacet
 facet normal -0.448167 0.831470 -0.328336
  outer loop
   vertex 1863.169361 59.501501 1173.017126
   vertex 3239.749530 64.951905 -692.162109
   vertex 3233.169361 59.501501 -696.982874
  endloop
 endfacet
 facet normal -0.356785 0.896873 -0.261388
  outer loop
   vertex 1869.749530 64.951905 1177.837891
   vertex 1876.847293 69.290965 1183.037856
   vertex 3246.847293 69.290965 -686.962144
  endloop
 endfacet
 facet normal -0.356785 0.896873 -0.261388
  outer loop
   vertex 1869.749530 64.951905 1177.837891
   vertex 3246.847293 69.290965 -686.962144
   vertex 3239.749530 64.951905 -692.162109
  endloop
 endfacet
 facet normal -0.259299 0.946930 -0.189967
  outer loop
   vertex 1876.847293 69.290965 1183.037856
   vertex 1884.341205 72.444437 1188.528048
   vertex 3254.341205 72.444437 -681.471952
  endloop
 endfacet
 facet normal -0.259299 0.946930 -0.189967
  outer loop
   vertex 1876.847293 69.290965 1183.037856
   vertex 3254.341205 72.444437 -681.471952
   vertex 3246.847293 69.290965 -686.962144
  endloop
 endfacet
 facet normal -0.157375 0.980785 -0.115296
  outer loop
   vertex 1884.341205 72.444437 1188.528048
   vertex 1892.103043 74.358365 1194.214529
   vertex 3262.103043 74.358365 -675.785471
  endloop
 endfacet
 facet normal -0.157375 0.980785 -0.115296
  outer loop
   vertex 1884.341205 72.444437 1188.528048
   vertex 3262.103043 74.358365 -675.785471
   vertex 3254.341205 72.444437 -681.471952
  endloop
 endfacet
 facet normal -0.052759 0.997859 -0.038653
  outer loop
   vertex 1892.103043 74.358365 1194.214529
   vertex 1900.000000 75.000000 1200.000000
   vertex 3270.000000 75.000000 -670.000000
  endloop
 endfacet
 facet normal -0.052759 0.997859 -0.038653
  outer loop
   vertex 1892.103043 74.358365 1194.214529
   vertex 3270.000000 75.000000 -670.000000
   vertex 3262.103043 74.358365 -675.785471
  endloop
 endfacet
 facet normal -0.052759 -0.997859 -0.038653
  outer loop
   vertex 3276.633444 62.461026 -665.140204
   vertex 1906.633444 62.461026 1204.859796
   vertex 1900.000000 63.000000 1200.000000
  endloop
 endfacet
 facet normal -0.052759 -0.997859 -0.038653
  outer loop
   vertex 3270.000000 63.000000 -670.000000
   vertex 3276.633444 62.461026 -665.140204
   vertex 1900.000000 63.000000 1200.000000
  endloop
 endfacet
 facet normal -0.157375 -0.980785 -0.115296
  outer loop
   vertex 3283.153388 60.853327 -660.363561
   vertex 1913.153388 60.853327 1209.636439
   vertex 1906.633444 62.461026 1204.859796
  endloop
 endfacet
 facet normal -0.157375 -0.980785 -0.115296
  outer loop
   vertex 3276.633444 62.461026 -665.140204
   vertex 3283.153388 60.853327 -660.363561
   vertex 1906.633444 62.461026 1204.859796
  endloop
 endfacet
 facet normal -0.259299 -0.946930 -0.189967
  outer loop
   vertex 3289.448274 58.204411 -655.751799
   vertex 1919.448274 58.204411 1214.248201
   vertex 1913.153388 60.853327 1209.636439
  endloop
 endfacet
 facet normal -0.259299 -0.946930 -0.189967
  outer loop
   vertex 3283.153388 60.853327 -660.363561
   vertex 3289.448274 58.204411 -655.751799
   vertex 1913.153388 60.853327 1209.636439
  endloop
 endfacet
 facet normal -0.356785 -0.896873 -0.261388
  outer loop
   vertex 3295.410395 54.559600 -651.383828
   vertex 1925.410395 54.559600 1218.616172
   vertex 1919.448274 58.204411 1214.248201
  endloop
 endfacet
 facet normal -0.356785 -0.896873 -0.261388
  outer loop
   vertex 3289.448274 58.204411 -655.751799
   vertex 3295.410395 54.559600 -651.383828
   vertex 1919.448274 58.204411 1214.248201
  endloop
 endfacet
 facet normal -0.448167 -0.831470 -0.328336
  outer loop
   vertex 3300.937736 49.981260 -647.334386
   vertex 1930.937736 49.981260 1222.665614
   vertex 1925.410395 54.559600 1218.616172
  endloop
 endfacet
 facet normal -0.448167 -0.831470 -0.328336
  outer loop
   vertex 3295.410395 54.559600 -651.383828
   vertex 3300.937736 49.981260 -647.334386
   vertex 1925.410395 54.559600 1218.616172
  endloop
 endfacet
 facet normal -0.531881 -0.751840 -0.389667
  outer loop
   vertex 3305.935725 44.547727 -643.672758
   vertex 1935.935725 44.547727 1226.327242
   vertex 1930.937736 49.981260 1222.665614
  endloop
 endfacet
 facet normal -0.531881 -0.751840 -0.389667
  outer loop
   vertex 3300.937736 49.981260 -647.334386
   vertex 3305.935725 44.547727 -643.672758
   vertex 1930.937736 49.981260 1222.665614
  endloop
 endfacet
 facet normal -0.606494 -0.659346 -0.444329
  outer loop
   vertex 3310.318843 38.351970 -640.461596
   vertex 1940.318843 38.351970 1229.538404
   vertex 1935.935725 44.547727 1226.327242
  endloop
 endfacet
 facet normal -0.606494 -0.659346 -0.444329
  outer loop
   vertex 3305.935725 44.547727 -643.672758
   vertex 3310.318843 38.351970 -640.461596
   vertex 1935.935725 44.547727 1226.327242
  endloop
 endfacet
 facet normal -0.670729 -0.555570 -0.491390
  outer loop
   vertex 3314.012095 31.500000 -637.755845
   vertex 1944.012095 31.500000 1232.244155
   vertex 1940.318843 38.351970 1229.538404
  endloop
 endfacet
 facet normal -0.670729 -0.555570 -0.491390
  outer loop
   vertex 3310.318843 38.351970 -640.461596
   vertex 3314.012095 31.500000 -637.755845
   vertex 1940.318843 38.351970 1229.538404
  endloop
 endfacet
 facet normal -0.723489 -0.442289 -0.530042
  outer loop
   vertex 3316.952287 24.109056 -635.601800
   vertex 1946.952287 24.109056 1234.398200
   vertex 1944.012095 31.500000 1232.244155
  endloop
 endfacet
 facet normal -0.723489 -0.442289 -0.530042
  outer loop
   vertex 3314.012095 31.500000 -637.755845
   vertex 3316.952287 24.109056 -635.601800
   vertex 1944.012095 31.500000 1232.244155
  endloop
 endfacet
 facet normal -0.763869 -0.321439 -0.559626
  outer loop
   vertex 3319.089113 16.305600 -634.036318
   vertex 1949.089113 16.305600 1235.963682
   vertex 1946.952287 24.109056 1234.398200
  endloop
 endfacet
 facet normal -0.763869 -0.321439 -0.559626
  outer loop
   vertex 3316.952287 24.109056 -635.601800
   vertex 3319.089113 16.305600 -634.036318
   vertex 1946.952287 24.109056 1234.398200
  endloop
 endfacet
 facet normal -0.791179 -0.195090 -0.579634
  outer loop
   vertex 3320.386010 8.223150 -633.086185
   vertex 1950.386010 8.223150 1236.913815
   vertex 1949.089113 16.305600 1235.963682
  endloop
 endfacet
 facet normal -0.791179 -0.195090 -0.579634
  outer loop
   vertex 3319.089113 16.305600 -634.036318
   vertex 3320.386010 8.223150 -633.086185
   vertex 1949.089113 16.305600 1235.963682
  endloop
 endfacet
 facet normal -0.804952 -0.065403 -0.589724
  outer loop
   vertex 3320.820789 0.000000 -632.767657
   vertex 1950.820789 0.000000 1237.232343
   vertex 1950.386010 8.223150 1236.913815
  endloop
 endfacet
 facet normal -0.804952 -0.065403 -0.589724
  outer loop
   vertex 3320.386010 8.223150 -633.086185
   vertex 3320.820789 0.000000 -632.767657
   vertex 1950.386010 8.223150 1236.913815
  endloop
 endfacet
 facet normal -0.804952 0.065403 -0.589724
  outer loop
   vertex 3320.386010 -8.223150 -633.086185
   vertex 1950.386010 -8.223150 1236.913815
   vertex 1950.820789 0.000000 1237.232343
  endloop
 endfacet
 facet normal -0.804952 0.065403 -0.589724
  outer loop
   vertex 3320.820789 0.000000 -632.767657
   vertex 3320.386010 -8.223150 -633.086185
   vertex 1950.820789 0.000000 1237.232343
  endloop
 endfacet
 facet normal -0.791179 0.195090 -0.579634
  outer loop
   vertex 3319.089113 -16.305600 -634.036318
   vertex 1949.089113 -16.305600 1235.963682
   vertex 1950.386010 -8.223150 1236.913815
  endloop
 endfacet
 facet normal -0.791179 0.195090 -0.579634
  outer loop
   vertex 3320.386010 -8.223150 -633.086185
   vertex 3319.089113 -16.305600 -634.036318
   vertex 1950.386010 -8.223150 1236.913815
  endloop
 endfacet
 facet normal -0.763869 0.321439 -0.559626
  outer loop
   vertex 3316.952287 -24.109056 -635.601800
   vertex 1946.952287 -24.109056 1234.398200
   vertex 1949.089113 -16.305600 1235.963682
  endloop
 endfacet
 facet normal -0.763869 0.321439 -0.559626
  outer loop
   vertex 3319.089113 -16.305600 -634.036318
   vertex 3316.952287 -24.109056 -635.601800
   vertex 1949.089113 -16.305600 1235.963682
  endloop
 endfacet
 facet normal -0.723489 0.442289 -0.530042
  outer loop
   vertex 3314.012095 -31.500000 -637.755845
   vertex 1944.012095 -31.500000 1232.244155
   vertex 1946.952287 -24.109056 1234.398200
  endloop
 endfacet
 facet normal -0.723489 0.442289 -0.530042
  outer loop
   vertex 3316.952287 -24.109056 -635.601800
   vertex 3314.012095 -31.500000 -637.755845
   vertex 1946.952287 -24.109056 1234.398200
  endloop
 endfacet
 facet normal -0.670729 0.555570 -0.491390
  outer loop
   vertex 3310.318843 -38.351970 -640.461596
   vertex 1940.318843 -38.351970 1229.538404
   vertex 1944.012095 -31.500000 1232.244155
  endloop
 endfacet
 facet normal -0.670729 0.555570 -0.491390
  outer loop
   vertex 3314.012095 -31.500000 -637.755845
   vertex 3310.318843 -38.351970 -640.461596
   vertex 1944.012095 -31.500000 1232.244155
  endloop
 endfacet
 facet normal -0.606494 0.659346 -0.444329
  outer loop
   vertex 3305.935725 -44.547727 -643.672758
   vertex 1935.935725 -44.547727 1226.327242
   vertex 1940.318843 -38.351970 1229.538404
  endloop
 endfacet
 facet normal -0.606494 0.659346 -0.444329
  outer loop
   vertex 3310.318843 -38.351970 -640.461596
   vertex 3305.935725 -44.547727 -643.672758
   vertex 1940.318843 -38.351970 1229.538404
  endloop
 endfacet
 facet normal -0.531881 0.751840 -0.389667
  outer loop
   vertex 3300.937736 -49.981260 -647.334386
   vertex 1930.937736 -49.981260 1222.665614
   vertex 1935.935725 -44.547727 1226.327242
  endloop
 endfacet
 facet normal -0.531881 0.751840 -0.389667
  outer loop
   vertex 3305.935725 -44.547727 -643.672758
   vertex 3300.937736 -49.981260 -647.334386
   vertex 1935.935725 -44.547727 1226.327242
  endloop
 endfacet
 facet normal -0.448167 0.831470 -0.328336
  outer loop
   vertex 3295.410395 -54.559600 -651.383828
   vertex 1925.410395 -54.559600 1218.616172
   vertex 1930.937736 -49.981260 1222.665614
  endloop
 endfacet
 facet normal -0.448167 0.831470 -0.328336
  outer loop
   vertex 3300.937736 -49.981260 -647.334386
   vertex 3295.410395 -54.559600 -651.383828
   vertex 1930.937736 -49.981260 1222.665614
  endloop
 endfacet
 facet normal -0.356785 0.896873 -0.261388
  outer loop
   vertex 3289.448274 -58.204411 -655.751799
   vertex 1919.448274 -58.204411 1214.248201
   vertex 1925.410395 -54.559600 1218.616172
  endloop
 endfacet
 facet normal -0.356785 0.896873 -0.261388
  outer loop
   vertex 3295.410395 -54.559600 -651.383828
   vertex 3289.448274 -58.204411 -655.751799
   vertex 1925.410395 -54.559600 1218.616172
  endloop
 endfacet
 facet normal -0.259299 0.946930 -0.189967
  outer loop
   vertex 3283.153388 -60.853327 -660.363561
   vertex 1913.153388 -60.853327 1209.636439
   vertex 1919.448274 -58.204411 1214.248201
  endloop
 endfacet
 facet normal -0.259299 0.946930 -0.189967
  outer loop
   vertex 3289.448274 -58.204411 -655.751799
   vertex 3283.153388 -60.853327 -660.363561
   vertex 1919.448274 -58.204411 1214.248201
  endloop
 endfacet
 facet normal -0.157375 0.980785 -0.115296
  outer loop
   vertex 3276.633444 -62.461026 -665.140204
   vertex 1906.633444 -62.461026 1204.859796
   vertex 1913.153388 -60.853327 1209.636439
  endloop
 endfacet
 facet normal -0.157375 0.980785 -0.115296
  outer loop
   vertex 3283.153388 -60.853327 -660.363561
   vertex 3276.633444 -62.461026 -665.140204
   vertex 1913.153388 -60.853327 1209.636439
  endloop
 endfacet
 facet normal -0.052759 0.997859 -0.038653
  outer loop
   vertex 3270.000000 -63.000000 -670.000000
   vertex 1900.000000 -63.000000 1200.000000
   vertex 1906.633444 -62.461026 1204.859796
  endloop
 endfacet
 facet normal -0.052759 0.997859 -0.038653
  outer loop
   vertex 3276.633444 -62.461026 -665.140204
   vertex 3270.000000 -63.000000 -670.000000
   vertex 1906.633444 -62.461026 1204.859796
  endloop
 endfacet
 facet normal 0.052759 0.997859 0.038653
  outer loop
   vertex 3263.366556 -62.461026 -674.859796
   vertex 1893.366556 -62.461026 1195.140204
   vertex 1900.000000 -63.000000 1200.000000
  endloop
 endfacet
 facet normal 0.052759 0.997859 0.038653
  outer loop
   vertex 3270.000000 -63.000000 -670.000000
   vertex 3263.366556 -62.461026 -674.859796
   vertex 1900.000000 -63.000000 1200.000000
  endloop
 endfacet
 facet normal 0.157375 0.980785 0.115296
  outer loop
   vertex 3256.846612 -60.853327 -679.636439
   vertex 1886.846612 -60.853327 1190.363561
   vertex 1893.366556 -62.461026 1195.140204
  endloop
 endfacet
 facet normal 0.157375 0.980785 0.115296
  outer loop
   vertex 3263.366556 -62.461026 -674.859796
   vertex 3256.846612 -60.853327 -679.636439
   vertex 1893.366556 -62.461026 1195.140204
  endloop
 endfacet
 facet normal 0.259299 0.946930 0.189967
  outer loop
   vertex 3250.551726 -58.204411 -684.248201
   vertex 1880.551726 -58.204411 1185.751799
   vertex 1886.846612 -60.853327 1190.363561
  endloop
 endfacet
 facet normal 0.259299 0.946930 0.189967
  outer loop
   vertex 3256.846612 -60.853327 -679.636439
   vertex 3250.551726 -58.204411 -684.248201
   vertex 1886.846612 -60.853327 1190.363561
  endloop
 endfacet
 facet normal 0.356785 0.896873 0.261388
  outer loop
   vertex 3244.589605 -54.559600 -688.616172
   vertex 1874.589605 -54.559600 1181.383828
   vertex 1880.551726 -58.204411 1185.751799
  endloop
 endfacet
 facet normal 0.356785 0.896873 0.261388
  outer loop
   vertex 3250.551726 -58.204411 -684.248201
   vertex 3244.589605 -54.559600 -688.616172
   vertex 1880.551726 -58.204411 1185.751799
  endloop
 endfacet
 facet normal 0.448167 0.831470 0.328336
  outer loop
   vertex 3239.062264 -49.981260 -692.665614
   vertex 1869.062264 -49.981260 1177.334386
   vertex 1874.589605 -54.559600 1181.383828
  endloop
 endfacet
 facet normal 0.448167 0.831470 0.328336
  outer loop
   vertex 3244.589605 -54.559600 -688.616172
   vertex 3239.062264 -49.981260 -692.665614
   vertex 1874.589605 -54.559600 1181.383828
  endloop
 endfacet
 facet normal 0.531881 0.751840 0.389667
  outer loop
   vertex 3234.064275 -44.547727 -696.327242
   vertex 1864.064275 -44.547727 1173.672758
   vertex 1869.062264 -49.981260 1177.334386
  endloop
 endfacet
 facet normal 0.531881 0.751840 0.389667
  outer loop
   vertex 3239.062264 -49.981260 -692.665614
   vertex 3234.064275 -44.547727 -696.327242
   vertex 1869.062264 -49.981260 1177.334386
  endloop
 endfacet
 facet normal 0.606494 0.659346 0.444329
  outer loop
   vertex 3229.681157 -38.351970 -699.538404
   vertex 1859.681157 -38.351970 1170.461596
   vertex 1864.064275 -44.547727 1173.672758
  endloop
 endfacet
 facet normal 0.606494 0.659346 0.444329
  outer loop
   vertex 3234.064275 -44.547727 -696.327242
   vertex 3229.681157 -38.351970 -699.538404
   vertex 1864.064275 -44.547727 1173.672758
  endloop
 endfacet
 facet normal 0.670729 0.555570 0.491390
  outer loop
   vertex 3225.987905 -31.500000 -702.244155
   vertex 1855.987905 -31.500000 1167.755845
   vertex 1859.681157 -38.351970 1170.461596
  endloop
 endfacet
 facet normal 0.670729 0.555570 0.491390
  outer loop
   vertex 3229.681157 -38.351970 -699.538404
   vertex 3225.987905 -31.500000 -702.244155
   vertex 1859.681157 -38.351970 1170.461596
  endloop
 endfacet
 facet normal 0.723489 0.442289 0.530042
  outer loop
   vertex 3223.047713 -24.109056 -704.398200
   vertex 1853.047713 -24.109056 1165.601800
   vertex 1855.987905 -31.500000 1167.755845
  endloop
 endfacet
 facet normal 0.723489 0.442289 0.530042
  outer loop
   vertex 3225.987905 -31.500000 -702.244155
   vertex 3223.047713 -24.109056 -704.398200
   vertex 1855.987905 -31.500000 1167.755845
  endloop
 endfacet
 facet normal 0.763869 0.321439 0.559626
  outer loop
   vertex 3220.910887 -16.305600 -705.963682
   vertex 1850.910887 -16.305600 1164.036318
   vertex 1853.047713 -24.109056 1165.601800
  endloop
 endfacet
 facet normal 0.763869 0.321439 0.559626
  outer loop
   vertex 3223.047713 -24.109056 -704.398200
   vertex 3220.910887 -16.305600 -705.963682
   vertex 1853.047713 -24.109056 1165.601800
  endloop
 endfacet
 facet normal 0.791179 0.195090 0.579634
  outer loop
   vertex 3219.613990 -8.223150 -706.913815
   vertex 1849.613990 -8.223150 1163.086185
   vertex 1850.910887 -16.305600 1164.036318
  endloop
 endfacet
 facet normal 0.791179 0.195090 0.579634
  outer loop
   vertex 3220.910887 -16.305600 -705.963682
   vertex 3219.613990 -8.223150 -706.913815
   vertex 1850.910887 -16.305600 1164.036318
  endloop
 endfacet
 facet normal 0.804952 0.065403 0.589724
  outer loop
   vertex 3219.179211 -0.000000 -707.232343
   vertex 1849.179211 -0.000000 1162.767657
   vertex 1849.613990 -8.223150 1163.086185
  endloop
 endfacet
 facet normal 0.804952 0.065403 0.589724
  outer loop
   vertex 3219.613990 -8.223150 -706.913815
   vertex 3219.179211 -0.000000 -707.232343
   vertex 1849.613990 -8.223150 1163.086185
  endloop
 endfacet
 facet normal 0.804952 -0.065403 0.589724
  outer loop
   vertex 3219.613990 8.223150 -706.913815
   vertex 1849.613990 8.223150 1163.086185
   vertex 1849.179211 -0.000000 1162.767657
  endloop
 endfacet
 facet normal 0.804952 -0.065403 0.589724
  outer loop
   vertex 3219.179211 -0.000000 -707.232343
   vertex 3219.613990 8.223150 -706.913815
   vertex 1849.179211 -0.000000 1162.767657
  endloop
 endfacet
 facet normal 0.791179 -0.195090 0.579634
  outer loop
   vertex 3220.910887 16.305600 -705.963682
   vertex 1850.910887 16.305600 1164.036318
   vertex 1849.613990 8.223150 1163.086185
  endloop
 endfacet
 facet normal 0.791179 -0.195090 0.579634
  outer loop
   vertex 3219.613990 8.223150 -706.913815
   vertex 3220.910887 16.305600 -705.963682
   vertex 1849.613990 8.223150 1163.086185
  endloop
 endfacet
 facet normal 0.763869 -0.321439 0.559626
  outer loop
   vertex 3223.047713 24.109056 -704.398200
   vertex 1853.047713 24.109056 1165.601800
   vertex 1850.910887 16.305600 1164.036318
  endloop
 endfacet
 facet normal 0.763869 -0.321439 0.559626
  outer loop
   vertex 3220.910887 16.305600 -705.963682
   vertex 3223.047713 24.109056 -704.398200
   vertex 1850.910887 16.305600 1164.036318
  endloop
 endfacet
 facet normal 0.723489 -0.442289 0.530042
  outer loop
   vertex 3225.987905 31.500000 -702.244155
   vertex 1855.987905 31.500000 1167.755845
   vertex 1853.047713 24.109056 1165.601800
  endloop
 endfacet
 facet normal 0.723489 -0.442289 0.530042
  outer loop
   vertex 3223.047713 24.109056 -704.398200
   vertex 3225.987905 31.500000 -702.244155
   vertex 1853.047713 24.109056 1165.601800
  endloop
 endfacet
 facet normal 0.670729 -0.555570 0.491390
  outer loop
   vertex 3229.681157 38.351970 -699.538404
   vertex 1859.681157 38.351970 1170.461596
   vertex 1855.987905 31.500000 1167.755845
  endloop
 endfacet
 facet normal 0.670729 -0.555570 0.491390
  outer loop
   vertex 3225.987905 31.500000 -702.244155
   vertex 3229.681157 38.351970 -699.538404
   vertex 1855.987905 31.500000 1167.755845
  endloop
 endfacet
 facet normal 0.606494 -0.659346 0.444329
  outer loop
   vertex 3234.064275 44.547727 -696.327242
   vertex 1864.064275 44.547727 1173.672758
   vertex 1859.681157 38.351970 1170.461596
  endloop
 endfacet
 facet normal 0.606494 -0.659346 0.444329
  outer loop
   vertex 3229.681157 38.351970 -699.538404
   vertex 3234.064275 44.547727 -696.327242
   vertex 1859.681157 38.351970 1170.461596
  endloop
 endfacet
 facet normal 0.531881 -0.751840 0.389667
  outer loop
   vertex 3239.062264 49.981260 -692.665614
   vertex 1869.062264 49.981260 1177.334386
   vertex 1864.064275 44.547727 1173.672758
  endloop
 endfacet
 facet normal 0.531881 -0.751840 0.389667
  outer loop
   vertex 3234.064275 44.547727 -696.327242
   vertex 3239.062264 49.981260 -692.665614
   vertex 1864.064275 44.547727 1173.672758
  endloop
 endfacet
 facet normal 0.448167 -0.831470 0.328336
  outer loop
   vertex 3244.589605 54.559600 -688.616172
   vertex 1874.589605 54.559600 1181.383828
   vertex 1869.062264 49.981260 1177.334386
  endloop
 endfacet
 facet normal 0.448167 -0.831470 0.328336
  outer loop
   vertex 3239.062264 49.981260 -692.665614
   vertex 3244.589605 54.559600 -688.616172
   vertex 1869.062264 49.981260 1177.334386
  endloop
 endfacet
 facet normal 0.356785 -0.896873 0.261388
  outer loop
   vertex 3250.551726 58.204411 -684.248201
   vertex 1880.551726 58.204411 1185.751799
   vertex 1874.589605 54.559600 1181.383828
  endloop
 endfacet
 facet normal 0.356785 -0.896873 0.261388
  outer loop
   vertex 3244.589605 54.559600 -688.616172
   vertex 3250.551726 58.204411 -684.248201
   vertex 1874.589605 54.559600 1181.383828
  endloop
 endfacet
 facet normal 0.259299 -0.946930 0.189967
  outer loop
   vertex 3256.846612 60.853327 -679.636439
   vertex 1886.846612 60.853327 1190.363561
   vertex 1880.551726 58.204411 1185.751799
  endloop
 endfacet
 facet normal 0.259299 -0.946930 0.189967
  outer loop
   vertex 3250.551726 58.204411 -684.248201
   vertex 3256.846612 60.853327 -679.636439
   vertex 1880.551726 58.204411 1185.751799
  endloop
 endfacet
 facet normal 0.157375 -0.980785 0.115296
  outer loop
   vertex 3263.366556 62.461026 -674.859796
   vertex 1893.366556 62.461026 1195.140204
   vertex 1886.846612 60.853327 1190.363561
  endloop
 endfacet
 facet normal 0.157375 -0.980785 0.115296
  outer loop
   vertex 3256.846612 60.853327 -679.636439
   vertex 3263.366556 62.461026 -674.859796
   vertex 1886.846612 60.853327 1190.363561
  endloop
 endfacet
 facet normal 0.052759 -0.997859 0.038653
  outer loop
   vertex 3270.000000 63.000000 -670.000000
   vertex 1900.000000 63.000000 1200.000000
   vertex 1893.366556 62.461026 1195.140204
  endloop
 endfacet
 facet normal 0.052759 -0.997859 0.038653
  outer loop
   vertex 3263.366556 62.461026 -674.859796
   vertex 3270.000000 63.000000 -670.000000
   vertex 1893.366556 62.461026 1195.140204
  endloop
 endfacet
endsolid SIC_RP1_riser
