solid SIC_LOX_feed_3_elbow
 facet normal 0.065403 0.997859 0.000000
  outer loop
   vertex -1619.210323 -2704.472279 -450.000000
   vertex -1606.157704 -2705.327793 -450.000000
   vertex -1606.157704 -2705.327793 -970.000000
  endloop
 endfacet
 facet normal 0.065403 0.997859 0.000000
  outer loop
   vertex -1619.210323 -2704.472279 -450.000000
   vertex -1606.157704 -2705.327793 -970.000000
   vertex -1619.210323 -2704.472279 -970.000000
  endloop
 endfacet
 facet normal 0.195090 0.980785 0.000000
  outer loop
   vertex -1606.157704 -2705.327793 -450.000000
   vertex -1593.328418 -2707.879696 -450.000000
   vertex -1593.328418 -2707.879696 -970.000000
  endloop
 endfacet
 facet normal 0.195090 0.980785 0.000000
  outer loop
   vertex -1606.157704 -2705.327793 -450.000000
   vertex -1593.328418 -2707.879696 -970.000000
   vertex -1606.157704 -2705.327793 -970.000000
  endloop
 endfacet
 facet normal 0.321439 0.946930 0.000000
  outer loop
   vertex -1593.328418 -2707.879696 -450.000000
   vertex -1580.941980 -2712.084326 -450.000000
   vertex -1580.941980 -2712.084326 -970.000000
  endloop
 endfacet
 facet normal 0.321439 0.946930 0.000000
  outer loop
   vertex -1593.328418 -2707.879696 -450.000000
   vertex -1580.941980 -2712.084326 -970.000000
   vertex -1593.328418 -2707.879696 -970.000000
  endloop
 endfacet
 facet normal 0.442289 0.896873 0.000000
  outer loop
   vertex -1580.941980 -2712.084326 -450.000000
   vertex -1569.210323 -2717.869739 -450.000000
   vertex -1569.210323 -2717.869739 -970.000000
  endloop
 endfacet
 facet normal 0.442289 0.896873 0.000000
  outer loop
   vertex -1580.941980 -2712.084326 -450.000000
   vertex -1569.210323 -2717.869739 -970.000000
   vertex -1580.941980 -2712.084326 -970.000000
  endloop
 endfacet
 facet normal 0.555570 0.831470 0.000000
  outer loop
   vertex -1569.210323 -2717.869739 -450.000000
   vertex -1558.334180 -2725.136945 -450.000000
   vertex -1558.334180 -2725.136945 -970.000000
  endloop
 endfacet
 facet normal 0.555570 0.831470 0.000000
  outer loop
   vertex -1569.210323 -2717.869739 -450.000000
   vertex -1558.334180 -2725.136945 -970.000000
   vertex -1569.210323 -2717.869739 -970.000000
  endloop
 endfacet
 facet normal 0.659346 0.751840 0.000000
  outer loop
   vertex -1558.334180 -2725.136945 -450.000000
   vertex -1548.499645 -2733.761601 -450.000000
   vertex -1548.499645 -2733.761601 -970.000000
  endloop
 endfacet
 facet normal 0.659346 0.751840 0.000000
  outer loop
   vertex -1558.334180 -2725.136945 -450.000000
   vertex -1548.499645 -2733.761601 -970.000000
   vertex -1558.334180 -2725.136945 -970.000000
  endloop
 endfacet
 facet normal 0.751840 0.659346 0.000000
  outer loop
   vertex -1548.499645 -2733.761601 -450.000000
   vertex -1539.874989 -2743.596136 -450.000000
   vertex -1539.874989 -2743.596136 -970.000000
  endloop
 endfacet
 facet normal 0.751840 0.659346 0.000000
  outer loop
   vertex -1548.499645 -2733.761601 -450.000000
   vertex -1539.874989 -2743.596136 -970.000000
   vertex -1548.499645 -2733.761601 -970.000000
  endloop
 endfacet
 facet normal 0.831470 0.555570 0.000000
  outer loop
   vertex -1539.874989 -2743.596136 -450.000000
   vertex -1532.607782 -2754.472279 -450.000000
   vertex -1532.607782 -2754.472279 -970.000000
  endloop
 endfacet
 facet normal 0.831470 0.555570 0.000000
  outer loop
   vertex -1539.874989 -2743.596136 -450.000000
   vertex -1532.607782 -2754.472279 -970.000000
   vertex -1539.874989 -2743.596136 -970.000000
  endloop
 endfacet
 facet normal 0.896873 0.442289 0.000000
  outer loop
   vertex -1532.607782 -2754.472279 -450.000000
   vertex -1526.822369 -2766.203936 -450.000000
   vertex -1526.822369 -2766.203936 -970.000000
  endloop
 endfacet
 facet normal 0.896873 0.442289 0.000000
  outer loop
   vertex -1532.607782 -2754.472279 -450.000000
   vertex -1526.822369 -2766.203936 -970.000000
   vertex -1532.607782 -2754.472279 -970.000000
  endloop
 endfacet
 facet normal 0.946930 0.321439 0.000000
  outer loop
   vertex -1526.822369 -2766.203936 -450.000000
   vertex -1522.617740 -2778.590374 -450.000000
   vertex -1522.617740 -2778.590374 -970.000000
  endloop
 endfacet
 facet normal 0.946930 0.321439 0.000000
  outer loop
   vertex -1526.822369 -2766.203936 -450.000000
   vertex -1522.617740 -2778.590374 -970.000000
   vertex -1526.822369 -2766.203936 -970.000000
  endloop
 endfacet
 facet normal 0.980785 0.195090 0.000000
  outer loop
   vertex -1522.617740 -2778.590374 -450.000000
   vertex -1520.065837 -2791.419660 -450.000000
   vertex -1520.065837 -2791.419660 -970.000000
  endloop
 endfacet
 facet normal 0.980785 0.195090 0.000000
  outer loop
   vertex -1522.617740 -2778.590374 -450.000000
   vertex -1520.065837 -2791.419660 -970.000000
   vertex -1522.617740 -2778.590374 -970.000000
  endloop
 endfacet
 facet normal 0.997859 0.065403 0.000000
  outer loop
   vertex -1520.065837 -2791.419660 -450.000000
   vertex -1519.210323 -2804.472279 -450.000000
   vertex -1519.210323 -2804.472279 -970.000000
  endloop
 endfacet
 facet normal 0.997859 0.065403 0.000000
  outer loop
   vertex -1520.065837 -2791.419660 -450.000000
   vertex -1519.210323 -2804.472279 -970.000000
   vertex -1520.065837 -2791.419660 -970.000000
  endloop
 endfacet
 facet normal 0.997859 -0.065403 0.000000
  outer loop
   vertex -1519.210323 -2804.472279 -450.000000
   vertex -1520.065837 -2817.524898 -450.000000
   vertex -1520.065837 -2817.524898 -970.000000
  endloop
 endfacet
 facet normal 0.997859 -0.065403 0.000000
  outer loop
   vertex -1519.210323 -2804.472279 -450.000000
   vertex -1520.065837 -2817.524898 -970.000000
   vertex -1519.210323 -2804.472279 -970.000000
  endloop
 endfacet
 facet normal 0.980785 -0.195090 0.000000
  outer loop
   vertex -1520.065837 -2817.524898 -450.000000
   vertex -1522.617740 -2830.354183 -450.000000
   vertex -1522.617740 -2830.354183 -970.000000
  endloop
 endfacet
 facet normal 0.980785 -0.195090 0.000000
  outer loop
   vertex -1520.065837 -2817.524898 -450.000000
   vertex -1522.617740 -2830.354183 -970.000000
   vertex -1520.065837 -2817.524898 -970.000000
  endloop
 endfacet
 facet normal 0.946930 -0.321439 0.000000
  outer loop
   vertex -1522.617740 -2830.354183 -450.000000
   vertex -1526.822369 -2842.740622 -450.000000
   vertex -1526.822369 -2842.740622 -970.000000
  endloop
 endfacet
 facet normal 0.946930 -0.321439 0.000000
  outer loop
   vertex -1522.617740 -2830.354183 -450.000000
   vertex -1526.822369 -2842.740622 -970.000000
   vertex -1522.617740 -2830.354183 -970.000000
  endloop
 endfacet
 facet normal 0.896873 -0.442289 0.000000
  outer loop
   vertex -1526.822369 -2842.740622 -450.000000
   vertex -1532.607782 -2854.472279 -450.000000
   vertex -1532.607782 -2854.472279 -970.000000
  endloop
 endfacet
 facet normal 0.896873 -0.442289 0.000000
  outer loop
   vertex -1526.822369 -2842.740622 -450.000000
   vertex -1532.607782 -2854.472279 -970.000000
   vertex -1526.822369 -2842.740622 -970.000000
  endloop
 endfacet
 facet normal 0.831470 -0.555570 0.000000
  outer loop
   vertex -1532.607782 -2854.472279 -450.000000
   vertex -1539.874989 -2865.348422 -450.000000
   vertex -1539.874989 -2865.348422 -970.000000
  endloop
 endfacet
 facet normal 0.831470 -0.555570 0.000000
  outer loop
   vertex -1532.607782 -2854.472279 -450.000000
   vertex -1539.874989 -2865.348422 -970.000000
   vertex -1532.607782 -2854.472279 -970.000000
  endloop
 endfacet
 facet normal 0.751840 -0.659346 0.000000
  outer loop
   vertex -1539.874989 -2865.348422 -450.000000
   vertex -1548.499645 -2875.182957 -450.000000
   vertex -1548.499645 -2875.182957 -970.000000
  endloop
 endfacet
 facet normal 0.751840 -0.659346 0.000000
  outer loop
   vertex -1539.874989 -2865.348422 -450.000000
   vertex -1548.499645 -2875.182957 -970.000000
   vertex -1539.874989 -2865.348422 -970.000000
  endloop
 endfacet
 facet normal 0.659346 -0.751840 0.000000
  outer loop
   vertex -1548.499645 -2875.182957 -450.000000
   vertex -1558.334180 -2883.807613 -450.000000
   vertex -1558.334180 -2883.807613 -970.000000
  endloop
 endfacet
 facet normal 0.659346 -0.751840 0.000000
  outer loop
   vertex -1548.499645 -2875.182957 -450.000000
   vertex -1558.334180 -2883.807613 -970.000000
   vertex -1548.499645 -2875.182957 -970.000000
  endloop
 endfacet
 facet normal 0.555570 -0.831470 0.000000
  outer loop
   vertex -1558.334180 -2883.807613 -450.000000
   vertex -1569.210323 -2891.074819 -450.000000
   vertex -1569.210323 -2891.074819 -970.000000
  endloop
 endfacet
 facet normal 0.555570 -0.831470 0.000000
  outer loop
   vertex -1558.334180 -2883.807613 -450.000000
   vertex -1569.210323 -2891.074819 -970.000000
   vertex -1558.334180 -2883.807613 -970.000000
  endloop
 endfacet
 facet normal 0.442289 -0.896873 0.000000
  outer loop
   vertex -1569.210323 -2891.074819 -450.000000
   vertex -1580.941980 -2896.860232 -450.000000
   vertex -1580.941980 -2896.860232 -970.000000
  endloop
 endfacet
 facet normal 0.442289 -0.896873 0.000000
  outer loop
   vertex -1569.210323 -2891.074819 -450.000000
   vertex -1580.941980 -2896.860232 -970.000000
   vertex -1569.210323 -2891.074819 -970.000000
  endloop
 endfacet
 facet normal 0.321439 -0.946930 0.000000
  outer loop
   vertex -1580.941980 -2896.860232 -450.000000
   vertex -1593.328418 -2901.064862 -450.000000
   vertex -1593.328418 -2901.064862 -970.000000
  endloop
 endfacet
 facet normal 0.321439 -0.946930 0.000000
  outer loop
   vertex -1580.941980 -2896.860232 -450.000000
   vertex -1593.328418 -2901.064862 -970.000000
   vertex -1580.941980 -2896.860232 -970.000000
  endloop
 endfacet
 facet normal 0.195090 -0.980785 0.000000
  outer loop
   vertex -1593.328418 -2901.064862 -450.000000
   vertex -1606.157704 -2903.616765 -450.000000
   vertex -1606.157704 -2903.616765 -970.000000
  endloop
 endfacet
 facet normal 0.195090 -0.980785 0.000000
  outer loop
   vertex -1593.328418 -2901.064862 -450.000000
   vertex -1606.157704 -2903.616765 -970.000000
   vertex -1593.328418 -2901.064862 -970.000000
  endloop
 endfacet
 facet normal 0.065403 -0.997859 0.000000
  outer loop
   vertex -1606.157704 -2903.616765 -450.000000
   vertex -1619.210323 -2904.472279 -450.000000
   vertex -1619.210323 -2904.472279 -970.000000
  endloop
 endfacet
 facet normal 0.065403 -0.997859 0.000000
  outer loop
   vertex -1606.157704 -2903.616765 -450.000000
   vertex -1619.210323 -2904.472279 -970.000000
   vertex -1606.157704 -2903.616765 -970.000000
  endloop
 endfacet
 facet normal -0.065403 -0.997859 0.000000
  outer loop
   vertex -1619.210323 -2904.472279 -450.000000
   vertex -1632.262942 -2903.616765 -450.000000
   vertex -1632.262942 -2903.616765 -970.000000
  endloop
 endfacet
 facet normal -0.065403 -0.997859 -0.000000
  outer loop
   vertex -1619.210323 -2904.472279 -450.000000
   vertex -1632.262942 -2903.616765 -970.000000
   vertex -1619.210323 -2904.472279 -970.000000
  endloop
 endfacet
 facet normal -0.195090 -0.980785 0.000000
  outer loop
   vertex -1632.262942 -2903.616765 -450.000000
   vertex -1645.092227 -2901.064862 -450.000000
   vertex -1645.092227 -2901.064862 -970.000000
  endloop
 endfacet
 facet normal -0.195090 -0.980785 -0.000000
  outer loop
   vertex -1632.262942 -2903.616765 -450.000000
   vertex -1645.092227 -2901.064862 -970.000000
   vertex -1632.262942 -2903.616765 -970.000000
  endloop
 endfacet
 facet normal -0.321439 -0.946930 0.000000
  outer loop
   vertex -1645.092227 -2901.064862 -450.000000
   vertex -1657.478666 -2896.860232 -450.000000
   vertex -1657.478666 -2896.860232 -970.000000
  endloop
 endfacet
 facet normal -0.321439 -0.946930 -0.000000
  outer loop
   vertex -1645.092227 -2901.064862 -450.000000
   vertex -1657.478666 -2896.860232 -970.000000
   vertex -1645.092227 -2901.064862 -970.000000
  endloop
 endfacet
 facet normal -0.442289 -0.896873 0.000000
  outer loop
   vertex -1657.478666 -2896.860232 -450.000000
   vertex -1669.210323 -2891.074819 -450.000000
   vertex -1669.210323 -2891.074819 -970.000000
  endloop
 endfacet
 facet normal -0.442289 -0.896873 -0.000000
  outer loop
   vertex -1657.478666 -2896.860232 -450.000000
   vertex -1669.210323 -2891.074819 -970.000000
   vertex -1657.478666 -2896.860232 -970.000000
  endloop
 endfacet
 facet normal -0.555570 -0.831470 0.000000
  outer loop
   vertex -1669.210323 -2891.074819 -450.000000
   vertex -1680.086466 -2883.807613 -450.000000
   vertex -1680.086466 -2883.807613 -970.000000
  endloop
 endfacet
 facet normal -0.555570 -0.831470 -0.000000
  outer loop
   vertex -1669.210323 -2891.074819 -450.000000
   vertex -1680.086466 -2883.807613 -970.000000
   vertex -1669.210323 -2891.074819 -970.000000
  endloop
 endfacet
 facet normal -0.659346 -0.751840 0.000000
  outer loop
   vertex -1680.086466 -2883.807613 -450.000000
   vertex -1689.921001 -2875.182957 -450.000000
   vertex -1689.921001 -2875.182957 -970.000000
  endloop
 endfacet
 facet normal -0.659346 -0.751840 -0.000000
  outer loop
   vertex -1680.086466 -2883.807613 -450.000000
   vertex -1689.921001 -2875.182957 -970.000000
   vertex -1680.086466 -2883.807613 -970.000000
  endloop
 endfacet
 facet normal -0.751840 -0.659346 0.000000
  outer loop
   vertex -1689.921001 -2875.182957 -450.000000
   vertex -1698.545657 -2865.348422 -450.000000
   vertex -1698.545657 -2865.348422 -970.000000
  endloop
 endfacet
 facet normal -0.751840 -0.659346 -0.000000
  outer loop
   vertex -1689.921001 -2875.182957 -450.000000
   vertex -1698.545657 -2865.348422 -970.000000
   vertex -1689.921001 -2875.182957 -970.000000
  endloop
 endfacet
 facet normal -0.831470 -0.555570 0.000000
  outer loop
   vertex -1698.545657 -2865.348422 -450.000000
   vertex -1705.812863 -2854.472279 -450.000000
   vertex -1705.812863 -2854.472279 -970.000000
  endloop
 endfacet
 facet normal -0.831470 -0.555570 -0.000000
  outer loop
   vertex -1698.545657 -2865.348422 -450.000000
   vertex -1705.812863 -2854.472279 -970.000000
   vertex -1698.545657 -2865.348422 -970.000000
  endloop
 endfacet
 facet normal -0.896873 -0.442289 0.000000
  outer loop
   vertex -1705.812863 -2854.472279 -450.000000
   vertex -1711.598276 -2842.740622 -450.000000
   vertex -1711.598276 -2842.740622 -970.000000
  endloop
 endfacet
 facet normal -0.896873 -0.442289 -0.000000
  outer loop
   vertex -1705.812863 -2854.472279 -450.000000
   vertex -1711.598276 -2842.740622 -970.000000
   vertex -1705.812863 -2854.472279 -970.000000
  endloop
 endfacet
 facet normal -0.946930 -0.321439 0.000000
  outer loop
   vertex -1711.598276 -2842.740622 -450.000000
   vertex -1715.802905 -2830.354183 -450.000000
   vertex -1715.802905 -2830.354183 -970.000000
  endloop
 endfacet
 facet normal -0.946930 -0.321439 -0.000000
  outer loop
   vertex -1711.598276 -2842.740622 -450.000000
   vertex -1715.802905 -2830.354183 -970.000000
   vertex -1711.598276 -2842.740622 -970.000000
  endloop
 endfacet
 facet normal -0.980785 -0.195090 0.000000
  outer loop
   vertex -1715.802905 -2830.354183 -450.000000
   vertex -1718.354809 -2817.524898 -450.000000
   vertex -1718.354809 -2817.524898 -970.000000
  endloop
 endfacet
 facet normal -0.980785 -0.195090 -0.000000
  outer loop
   vertex -1715.802905 -2830.354183 -450.000000
   vertex -1718.354809 -2817.524898 -970.000000
   vertex -1715.802905 -2830.354183 -970.000000
  endloop
 endfacet
 facet normal -0.997859 -0.065403 0.000000
  outer loop
   vertex -1718.354809 -2817.524898 -450.000000
   vertex -1719.210323 -2804.472279 -450.000000
   vertex -1719.210323 -2804.472279 -970.000000
  endloop
 endfacet
 facet normal -0.997859 -0.065403 -0.000000
  outer loop
   vertex -1718.354809 -2817.524898 -450.000000
   vertex -1719.210323 -2804.472279 -970.000000
   vertex -1718.354809 -2817.524898 -970.000000
  endloop
 endfacet
 facet normal -0.997859 0.065403 0.000000
  outer loop
   vertex -1719.210323 -2804.472279 -450.000000
   vertex -1718.354809 -2791.419660 -450.000000
   vertex -1718.354809 -2791.419660 -970.000000
  endloop
 endfacet
 facet normal -0.997859 0.065403 0.000000
  outer loop
   vertex -1719.210323 -2804.472279 -450.000000
   vertex -1718.354809 -2791.419660 -970.000000
   vertex -1719.210323 -2804.472279 -970.000000
  endloop
 endfacet
 facet normal -0.980785 0.195090 0.000000
  outer loop
   vertex -1718.354809 -2791.419660 -450.000000
   vertex -1715.802905 -2778.590374 -450.000000
   vertex -1715.802905 -2778.590374 -970.000000
  endloop
 endfacet
 facet normal -0.980785 0.195090 0.000000
  outer loop
   vertex -1718.354809 -2791.419660 -450.000000
   vertex -1715.802905 -2778.590374 -970.000000
   vertex -1718.354809 -2791.419660 -970.000000
  endloop
 endfacet
 facet normal -0.946930 0.321439 0.000000
  outer loop
   vertex -1715.802905 -2778.590374 -450.000000
   vertex -1711.598276 -2766.203936 -450.000000
   vertex -1711.598276 -2766.203936 -970.000000
  endloop
 endfacet
 facet normal -0.946930 0.321439 0.000000
  outer loop
   vertex -1715.802905 -2778.590374 -450.000000
   vertex -1711.598276 -2766.203936 -970.000000
   vertex -1715.802905 -2778.590374 -970.000000
  endloop
 endfacet
 facet normal -0.896873 0.442289 0.000000
  outer loop
   vertex -1711.598276 -2766.203936 -450.000000
   vertex -1705.812863 -2754.472279 -450.000000
   vertex -1705.812863 -2754.472279 -970.000000
  endloop
 endfacet
 facet normal -0.896873 0.442289 0.000000
  outer loop
   vertex -1711.598276 -2766.203936 -450.000000
   vertex -1705.812863 -2754.472279 -970.000000
   vertex -1711.598276 -2766.203936 -970.000000
  endloop
 endfacet
 facet normal -0.831470 0.555570 0.000000
  outer loop
   vertex -1705.812863 -2754.472279 -450.000000
   vertex -1698.545657 -2743.596136 -450.000000
   vertex -1698.545657 -2743.596136 -970.000000
  endloop
 endfacet
 facet normal -0.831470 0.555570 0.000000
  outer loop
   vertex -1705.812863 -2754.472279 -450.000000
   vertex -1698.545657 -2743.596136 -970.000000
   vertex -1705.812863 -2754.472279 -970.000000
  endloop
 endfacet
 facet normal -0.751840 0.659346 0.000000
  outer loop
   vertex -1698.545657 -2743.596136 -450.000000
   vertex -1689.921001 -2733.761601 -450.000000
   vertex -1689.921001 -2733.761601 -970.000000
  endloop
 endfacet
 facet normal -0.751840 0.659346 0.000000
  outer loop
   vertex -1698.545657 -2743.596136 -450.000000
   vertex -1689.921001 -2733.761601 -970.000000
   vertex -1698.545657 -2743.596136 -970.000000
  endloop
 endfacet
 facet normal -0.659346 0.751840 0.000000
  outer loop
   vertex -1689.921001 -2733.761601 -450.000000
   vertex -1680.086466 -2725.136945 -450.000000
   vertex -1680.086466 -2725.136945 -970.000000
  endloop
 endfacet
 facet normal -0.659346 0.751840 0.000000
  outer loop
   vertex -1689.921001 -2733.761601 -450.000000
   vertex -1680.086466 -2725.136945 -970.000000
   vertex -1689.921001 -2733.761601 -970.000000
  endloop
 endfacet
 facet normal -0.555570 0.831470 0.000000
  outer loop
   vertex -1680.086466 -2725.136945 -450.000000
   vertex -1669.210323 -2717.869739 -450.000000
   vertex -1669.210323 -2717.869739 -970.000000
  endloop
 endfacet
 facet normal -0.555570 0.831470 0.000000
  outer loop
   vertex -1680.086466 -2725.136945 -450.000000
   vertex -1669.210323 -2717.869739 -970.000000
   vertex -1680.086466 -2725.136945 -970.000000
  endloop
 endfacet
 facet normal -0.442289 0.896873 0.000000
  outer loop
   vertex -1669.210323 -2717.869739 -450.000000
   vertex -1657.478666 -2712.084326 -450.000000
   vertex -1657.478666 -2712.084326 -970.000000
  endloop
 endfacet
 facet normal -0.442289 0.896873 0.000000
  outer loop
   vertex -1669.210323 -2717.869739 -450.000000
   vertex -1657.478666 -2712.084326 -970.000000
   vertex -1669.210323 -2717.869739 -970.000000
  endloop
 endfacet
 facet normal -0.321439 0.946930 0.000000
  outer loop
   vertex -1657.478666 -2712.084326 -450.000000
   vertex -1645.092227 -2707.879696 -450.000000
   vertex -1645.092227 -2707.879696 -970.000000
  endloop
 endfacet
 facet normal -0.321439 0.946930 0.000000
  outer loop
   vertex -1657.478666 -2712.084326 -450.000000
   vertex -1645.092227 -2707.879696 -970.000000
   vertex -1657.478666 -2712.084326 -970.000000
  endloop
 endfacet
 facet normal -0.195090 0.980785 0.000000
  outer loop
   vertex -1645.092227 -2707.879696 -450.000000
   vertex -1632.262942 -2705.327793 -450.000000
   vertex -1632.262942 -2705.327793 -970.000000
  endloop
 endfacet
 facet normal -0.195090 0.980785 0.000000
  outer loop
   vertex -1645.092227 -2707.879696 -450.000000
   vertex -1632.262942 -2705.327793 -970.000000
   vertex -1645.092227 -2707.879696 -970.000000
  endloop
 endfacet
 facet normal -0.065403 0.997859 0.000000
  outer loop
   vertex -1632.262942 -2705.327793 -450.000000
   vertex -1619.210323 -2704.472279 -450.000000
   vertex -1619.210323 -2704.472279 -970.000000
  endloop
 endfacet
 facet normal -0.065403 0.997859 0.000000
  outer loop
   vertex -1632.262942 -2705.327793 -450.000000
   vertex -1619.210323 -2704.472279 -970.000000
   vertex -1632.262942 -2705.327793 -970.000000
  endloop
 endfacet
 facet normal -0.065403 -0.997859 0.000000
  outer loop
   vertex -1607.724018 -2717.225131 -970.000000
   vertex -1607.724018 -2717.225131 -450.000000
   vertex -1619.210323 -2716.472279 -450.000000
  endloop
 endfacet
 facet normal -0.065403 -0.997859 0.000000
  outer loop
   vertex -1619.210323 -2716.472279 -970.000000
   vertex -1607.724018 -2717.225131 -970.000000
   vertex -1619.210323 -2716.472279 -450.000000
  endloop
 endfacet
 facet normal -0.195090 -0.980785 0.000000
  outer loop
   vertex -1596.434247 -2719.470806 -970.000000
   vertex -1596.434247 -2719.470806 -450.000000
   vertex -1607.724018 -2717.225131 -450.000000
  endloop
 endfacet
 facet normal -0.195090 -0.980785 0.000000
  outer loop
   vertex -1607.724018 -2717.225131 -970.000000
   vertex -1596.434247 -2719.470806 -970.000000
   vertex -1607.724018 -2717.225131 -450.000000
  endloop
 endfacet
 facet normal -0.321439 -0.946930 0.000000
  outer loop
   vertex -1585.534181 -2723.170880 -970.000000
   vertex -1585.534181 -2723.170880 -450.000000
   vertex -1596.434247 -2719.470806 -450.000000
  endloop
 endfacet
 facet normal -0.321439 -0.946930 0.000000
  outer loop
   vertex -1596.434247 -2719.470806 -970.000000
   vertex -1585.534181 -2723.170880 -970.000000
   vertex -1596.434247 -2719.470806 -450.000000
  endloop
 endfacet
 facet normal -0.442289 -0.896873 0.000000
  outer loop
   vertex -1575.210323 -2728.262043 -970.000000
   vertex -1575.210323 -2728.262043 -450.000000
   vertex -1585.534181 -2723.170880 -450.000000
  endloop
 endfacet
 facet normal -0.442289 -0.896873 0.000000
  outer loop
   vertex -1585.534181 -2723.170880 -970.000000
   vertex -1575.210323 -2728.262043 -970.000000
   vertex -1585.534181 -2723.170880 -450.000000
  endloop
 endfacet
 facet normal -0.555570 -0.831470 0.000000
  outer loop
   vertex -1565.639317 -2734.657185 -970.000000
   vertex -1565.639317 -2734.657185 -450.000000
   vertex -1575.210323 -2728.262043 -450.000000
  endloop
 endfacet
 facet normal -0.555570 -0.831470 0.000000
  outer loop
   vertex -1575.210323 -2728.262043 -970.000000
   vertex -1565.639317 -2734.657185 -970.000000
   vertex -1575.210323 -2728.262043 -450.000000
  endloop
 endfacet
 facet normal -0.659346 -0.751840 0.000000
  outer loop
   vertex -1556.984926 -2742.246882 -970.000000
   vertex -1556.984926 -2742.246882 -450.000000
   vertex -1565.639317 -2734.657185 -450.000000
  endloop
 endfacet
 facet normal -0.659346 -0.751840 0.000000
  outer loop
   vertex -1565.639317 -2734.657185 -970.000000
   vertex -1556.984926 -2742.246882 -970.000000
   vertex -1565.639317 -2734.657185 -450.000000
  endloop
 endfacet
 facet normal -0.751840 -0.659346 0.000000
  outer loop
   vertex -1549.395229 -2750.901273 -970.000000
   vertex -1549.395229 -2750.901273 -450.000000
   vertex -1556.984926 -2742.246882 -450.000000
  endloop
 endfacet
 facet normal -0.751840 -0.659346 0.000000
  outer loop
   vertex -1556.984926 -2742.246882 -970.000000
   vertex -1549.395229 -2750.901273 -970.000000
   vertex -1556.984926 -2742.246882 -450.000000
  endloop
 endfacet
 facet normal -0.831470 -0.555570 0.000000
  outer loop
   vertex -1543.000087 -2760.472279 -970.000000
   vertex -1543.000087 -2760.472279 -450.000000
   vertex -1549.395229 -2750.901273 -450.000000
  endloop
 endfacet
 facet normal -0.831470 -0.555570 0.000000
  outer loop
   vertex -1549.395229 -2750.901273 -970.000000
   vertex -1543.000087 -2760.472279 -970.000000
   vertex -1549.395229 -2750.901273 -450.000000
  endloop
 endfacet
 facet normal -0.896873 -0.442289 0.000000
  outer loop
   vertex -1537.908924 -2770.796137 -970.000000
   vertex -1537.908924 -2770.796137 -450.000000
   vertex -1543.000087 -2760.472279 -450.000000
  endloop
 endfacet
 facet normal -0.896873 -0.442289 0.000000
  outer loop
   vertex -1543.000087 -2760.472279 -970.000000
   vertex -1537.908924 -2770.796137 -970.000000
   vertex -1543.000087 -2760.472279 -450.000000
  endloop
 endfacet
 facet normal -0.946930 -0.321439 0.000000
  outer loop
   vertex -1534.208850 -2781.696203 -970.000000
   vertex -1534.208850 -2781.696203 -450.000000
   vertex -1537.908924 -2770.796137 -450.000000
  endloop
 endfacet
 facet normal -0.946930 -0.321439 0.000000
  outer loop
   vertex -1537.908924 -2770.796137 -970.000000
   vertex -1534.208850 -2781.696203 -970.000000
   vertex -1537.908924 -2770.796137 -450.000000
  endloop
 endfacet
 facet normal -0.980785 -0.195090 0.000000
  outer loop
   vertex -1531.963175 -2792.985974 -970.000000
   vertex -1531.963175 -2792.985974 -450.000000
   vertex -1534.208850 -2781.696203 -450.000000
  endloop
 endfacet
 facet normal -0.980785 -0.195090 0.000000
  outer loop
   vertex -1534.208850 -2781.696203 -970.000000
   vertex -1531.963175 -2792.985974 -970.000000
   vertex -1534.208850 -2781.696203 -450.000000
  endloop
 endfacet
 facet normal -0.997859 -0.065403 0.000000
  outer loop
   vertex -1531.210323 -2804.472279 -970.000000
   vertex -1531.210323 -2804.472279 -450.000000
   vertex -1531.963175 -2792.985974 -450.000000
  endloop
 endfacet
 facet normal -0.997859 -0.065403 0.000000
  outer loop
   vertex -1531.963175 -2792.985974 -970.000000
   vertex -1531.210323 -2804.472279 -970.000000
   vertex -1531.963175 -2792.985974 -450.000000
  endloop
 endfacet
 facet normal -0.997859 0.065403 0.000000
  outer loop
   vertex -1531.963175 -2815.958584 -970.000000
   vertex -1531.963175 -2815.958584 -450.000000
   vertex -1531.210323 -2804.472279 -450.000000
  endloop
 endfacet
 facet normal -0.997859 0.065403 0.000000
  outer loop
   vertex -1531.210323 -2804.472279 -970.000000
   vertex -1531.963175 -2815.958584 -970.000000
   vertex -1531.210323 -2804.472279 -450.000000
  endloop
 endfacet
 facet normal -0.980785 0.195090 0.000000
  outer loop
   vertex -1534.208850 -2827.248355 -970.000000
   vertex -1534.208850 -2827.248355 -450.000000
   vertex -1531.963175 -2815.958584 -450.000000
  endloop
 endfacet
 facet normal -0.980785 0.195090 0.000000
  outer loop
   vertex -1531.963175 -2815.958584 -970.000000
   vertex -1534.208850 -2827.248355 -970.000000
   vertex -1531.963175 -2815.958584 -450.000000
  endloop
 endfacet
 facet normal -0.946930 0.321439 0.000000
  outer loop
   vertex -1537.908924 -2838.148421 -970.000000
   vertex -1537.908924 -2838.148421 -450.000000
   vertex -1534.208850 -2827.248355 -450.000000
  endloop
 endfacet
 facet normal -0.946930 0.321439 0.000000
  outer loop
   vertex -1534.208850 -2827.248355 -970.000000
   vertex -1537.908924 -2838.148421 -970.000000
   vertex -1534.208850 -2827.248355 -450.000000
  endloop
 endfacet
 facet normal -0.896873 0.442289 0.000000
  outer loop
   vertex -1543.000087 -2848.472279 -970.000000
   vertex -1543.000087 -2848.472279 -450.000000
   vertex -1537.908924 -2838.148421 -450.000000
  endloop
 endfacet
 facet normal -0.896873 0.442289 0.000000
  outer loop
   vertex -1537.908924 -2838.148421 -970.000000
   vertex -1543.000087 -2848.472279 -970.000000
   vertex -1537.908924 -2838.148421 -450.000000
  endloop
 endfacet
 facet normal -0.831470 0.555570 0.000000
  outer loop
   vertex -1549.395229 -2858.043285 -970.000000
   vertex -1549.395229 -2858.043285 -450.000000
   vertex -1543.000087 -2848.472279 -450.000000
  endloop
 endfacet
 facet normal -0.831470 0.555570 0.000000
  outer loop
   vertex -1543.000087 -2848.472279 -970.000000
   vertex -1549.395229 -2858.043285 -970.000000
   vertex -1543.000087 -2848.472279 -450.000000
  endloop
 endfacet
 facet normal -0.751840 0.659346 0.000000
  outer loop
   vertex -1556.984926 -2866.697676 -970.000000
   vertex -1556.984926 -2866.697676 -450.000000
   vertex -1549.395229 -2858.043285 -450.000000
  endloop
 endfacet
 facet normal -0.751840 0.659346 0.000000
  outer loop
   vertex -1549.395229 -2858.043285 -970.000000
   vertex -1556.984926 -2866.697676 -970.000000
   vertex -1549.395229 -2858.043285 -450.000000
  endloop
 endfacet
 facet normal -0.659346 0.751840 0.000000
  outer loop
   vertex -1565.639317 -2874.287373 -970.000000
   vertex -1565.639317 -2874.287373 -450.000000
   vertex -1556.984926 -2866.697676 -450.000000
  endloop
 endfacet
 facet normal -0.659346 0.751840 0.000000
  outer loop
   vertex -1556.984926 -2866.697676 -970.000000
   vertex -1565.639317 -2874.287373 -970.000000
   vertex -1556.984926 -2866.697676 -450.000000
  endloop
 endfacet
 facet normal -0.555570 0.831470 0.000000
  outer loop
   vertex -1575.210323 -2880.682515 -970.000000
   vertex -1575.210323 -2880.682515 -450.000000
   vertex -1565.639317 -2874.287373 -450.000000
  endloop
 endfacet
 facet normal -0.555570 0.831470 0.000000
  outer loop
   vertex -1565.639317 -2874.287373 -970.000000
   vertex -1575.210323 -2880.682515 -970.000000
   vertex -1565.639317 -2874.287373 -450.000000
  endloop
 endfacet
 facet normal -0.442289 0.896873 0.000000
  outer loop
   vertex -1585.534181 -2885.773678 -970.000000
   vertex -1585.534181 -2885.773678 -450.000000
   vertex -1575.210323 -2880.682515 -450.000000
  endloop
 endfacet
 facet normal -0.442289 0.896873 0.000000
  outer loop
   vertex -1575.210323 -2880.682515 -970.000000
   vertex -1585.534181 -2885.773678 -970.000000
   vertex -1575.210323 -2880.682515 -450.000000
  endloop
 endfacet
 facet normal -0.321439 0.946930 0.000000
  outer loop
   vertex -1596.434247 -2889.473752 -970.000000
   vertex -1596.434247 -2889.473752 -450.000000
   vertex -1585.534181 -2885.773678 -450.000000
  endloop
 endfacet
 facet normal -0.321439 0.946930 0.000000
  outer loop
   vertex -1585.534181 -2885.773678 -970.000000
   vertex -1596.434247 -2889.473752 -970.000000
   vertex -1585.534181 -2885.773678 -450.000000
  endloop
 endfacet
 facet normal -0.195090 0.980785 0.000000
  outer loop
   vertex -1607.724018 -2891.719427 -970.000000
   vertex -1607.724018 -2891.719427 -450.000000
   vertex -1596.434247 -2889.473752 -450.000000
  endloop
 endfacet
 facet normal -0.195090 0.980785 0.000000
  outer loop
   vertex -1596.434247 -2889.473752 -970.000000
   vertex -1607.724018 -2891.719427 -970.000000
   vertex -1596.434247 -2889.473752 -450.000000
  endloop
 endfacet
 facet normal -0.065403 0.997859 0.000000
  outer loop
   vertex -1619.210323 -2892.472279 -970.000000
   vertex -1619.210323 -2892.472279 -450.000000
   vertex -1607.724018 -2891.719427 -450.000000
  endloop
 endfacet
 facet normal -0.065403 0.997859 0.000000
  outer loop
   vertex -1607.724018 -2891.719427 -970.000000
   vertex -1619.210323 -2892.472279 -970.000000
   vertex -1607.724018 -2891.719427 -450.000000
  endloop
 endfacet
 facet normal 0.065403 0.997859 -0.000000
  outer loop
   vertex -1630.696628 -2891.719427 -970.000000
   vertex -1630.696628 -2891.719427 -450.000000
   vertex -1619.210323 -2892.472279 -450.000000
  endloop
 endfacet
 facet normal 0.065403 0.997859 -0.000000
  outer loop
   vertex -1619.210323 -2892.472279 -970.000000
   vertex -1630.696628 -2891.719427 -970.000000
   vertex -1619.210323 -2892.472279 -450.000000
  endloop
 endfacet
 facet normal 0.195090 0.980785 -0.000000
  outer loop
   vertex -1641.986399 -2889.473752 -970.000000
   vertex -1641.986399 -2889.473752 -450.000000
   vertex -1630.696628 -2891.719427 -450.000000
  endloop
 endfacet
 facet normal 0.195090 0.980785 -0.000000
  outer loop
   vertex -1630.696628 -2891.719427 -970.000000
   vertex -1641.986399 -2889.473752 -970.000000
   vertex -1630.696628 -2891.719427 -450.000000
  endloop
 endfacet
 facet normal 0.321439 0.946930 -0.000000
  outer loop
   vertex -1652.886465 -2885.773678 -970.000000
   vertex -1652.886465 -2885.773678 -450.000000
   vertex -1641.986399 -2889.473752 -450.000000
  endloop
 endfacet
 facet normal 0.321439 0.946930 -0.000000
  outer loop
   vertex -1641.986399 -2889.473752 -970.000000
   vertex -1652.886465 -2885.773678 -970.000000
   vertex -1641.986399 -2889.473752 -450.000000
  endloop
 endfacet
 facet normal 0.442289 0.896873 -0.000000
  outer loop
   vertex -1663.210323 -2880.682515 -970.000000
   vertex -1663.210323 -2880.682515 -450.000000
   vertex -1652.886465 -2885.773678 -450.000000
  endloop
 endfacet
 facet normal 0.442289 0.896873 -0.000000
  outer loop
   vertex -1652.886465 -2885.773678 -970.000000
   vertex -1663.210323 -2880.682515 -970.000000
   vertex -1652.886465 -2885.773678 -450.000000
  endloop
 endfacet
 facet normal 0.555570 0.831470 -0.000000
  outer loop
   vertex -1672.781328 -2874.287373 -970.000000
   vertex -1672.781328 -2874.287373 -450.000000
   vertex -1663.210323 -2880.682515 -450.000000
  endloop
 endfacet
 facet normal 0.555570 0.831470 -0.000000
  outer loop
   vertex -1663.210323 -2880.682515 -970.000000
   vertex -1672.781328 -2874.287373 -970.000000
   vertex -1663.210323 -2880.682515 -450.000000
  endloop
 endfacet
 facet normal 0.659346 0.751840 -0.000000
  outer loop
   vertex -1681.435719 -2866.697676 -970.000000
   vertex -1681.435719 -2866.697676 -450.000000
   vertex -1672.781328 -2874.287373 -450.000000
  endloop
 endfacet
 facet normal 0.659346 0.751840 -0.000000
  outer loop
   vertex -1672.781328 -2874.287373 -970.000000
   vertex -1681.435719 -2866.697676 -970.000000
   vertex -1672.781328 -2874.287373 -450.000000
  endloop
 endfacet
 facet normal 0.751840 0.659346 -0.000000
  outer loop
   vertex -1689.025417 -2858.043285 -970.000000
   vertex -1689.025417 -2858.043285 -450.000000
   vertex -1681.435719 -2866.697676 -450.000000
  endloop
 endfacet
 facet normal 0.751840 0.659346 -0.000000
  outer loop
   vertex -1681.435719 -2866.697676 -970.000000
   vertex -1689.025417 -2858.043285 -970.000000
   vertex -1681.435719 -2866.697676 -450.000000
  endloop
 endfacet
 facet normal 0.831470 0.555570 -0.000000
  outer loop
   vertex -1695.420558 -2848.472279 -970.000000
   vertex -1695.420558 -2848.472279 -450.000000
   vertex -1689.025417 -2858.043285 -450.000000
  endloop
 endfacet
 facet normal 0.831470 0.555570 -0.000000
  outer loop
   vertex -1689.025417 -2858.043285 -970.000000
   vertex -1695.420558 -2848.472279 -970.000000
   vertex -1689.025417 -2858.043285 -450.000000
  endloop
 endfacet
 facet normal 0.896873 0.442289 -0.000000
  outer loop
   vertex -1700.511722 -2838.148421 -970.000000
   vertex -1700.511722 -2838.148421 -450.000000
   vertex -1695.420558 -2848.472279 -450.000000
  endloop
 endfacet
 facet normal 0.896873 0.442289 -0.000000
  outer loop
   vertex -1695.420558 -2848.472279 -970.000000
   vertex -1700.511722 -2838.148421 -970.000000
   vertex -1695.420558 -2848.472279 -450.000000
  endloop
 endfacet
 facet normal 0.946930 0.321439 -0.000000
  outer loop
   vertex -1704.211795 -2827.248355 -970.000000
   vertex -1704.211795 -2827.248355 -450.000000
   vertex -1700.511722 -2838.148421 -450.000000
  endloop
 endfacet
 facet normal 0.946930 0.321439 -0.000000
  outer loop
   vertex -1700.511722 -2838.148421 -970.000000
   vertex -1704.211795 -2827.248355 -970.000000
   vertex -1700.511722 -2838.148421 -450.000000
  endloop
 endfacet
 facet normal 0.980785 0.195090 -0.000000
  outer loop
   vertex -1706.457471 -2815.958584 -970.000000
   vertex -1706.457471 -2815.958584 -450.000000
   vertex -1704.211795 -2827.248355 -450.000000
  endloop
 endfacet
 facet normal 0.980785 0.195090 -0.000000
  outer loop
   vertex -1704.211795 -2827.248355 -970.000000
   vertex -1706.457471 -2815.958584 -970.000000
   vertex -1704.211795 -2827.248355 -450.000000
  endloop
 endfacet
 facet normal 0.997859 0.065403 -0.000000
  outer loop
   vertex -1707.210323 -2804.472279 -970.000000
   vertex -1707.210323 -2804.472279 -450.000000
   vertex -1706.457471 -2815.958584 -450.000000
  endloop
 endfacet
 facet normal 0.997859 0.065403 -0.000000
  outer loop
   vertex -1706.457471 -2815.958584 -970.000000
   vertex -1707.210323 -2804.472279 -970.000000
   vertex -1706.457471 -2815.958584 -450.000000
  endloop
 endfacet
 facet normal 0.997859 -0.065403 0.000000
  outer loop
   vertex -1706.457471 -2792.985974 -970.000000
   vertex -1706.457471 -2792.985974 -450.000000
   vertex -1707.210323 -2804.472279 -450.000000
  endloop
 endfacet
 facet normal 0.997859 -0.065403 0.000000
  outer loop
   vertex -1707.210323 -2804.472279 -970.000000
   vertex -1706.457471 -2792.985974 -970.000000
   vertex -1707.210323 -2804.472279 -450.000000
  endloop
 endfacet
 facet normal 0.980785 -0.195090 0.000000
  outer loop
   vertex -1704.211795 -2781.696203 -970.000000
   vertex -1704.211795 -2781.696203 -450.000000
   vertex -1706.457471 -2792.985974 -450.000000
  endloop
 endfacet
 facet normal 0.980785 -0.195090 0.000000
  outer loop
   vertex -1706.457471 -2792.985974 -970.000000
   vertex -1704.211795 -2781.696203 -970.000000
   vertex -1706.457471 -2792.985974 -450.000000
  endloop
 endfacet
 facet normal 0.946930 -0.321439 0.000000
  outer loop
   vertex -1700.511722 -2770.796137 -970.000000
   vertex -1700.511722 -2770.796137 -450.000000
   vertex -1704.211795 -2781.696203 -450.000000
  endloop
 endfacet
 facet normal 0.946930 -0.321439 0.000000
  outer loop
   vertex -1704.211795 -2781.696203 -970.000000
   vertex -1700.511722 -2770.796137 -970.000000
   vertex -1704.211795 -2781.696203 -450.000000
  endloop
 endfacet
 facet normal 0.896873 -0.442289 0.000000
  outer loop
   vertex -1695.420558 -2760.472279 -970.000000
   vertex -1695.420558 -2760.472279 -450.000000
   vertex -1700.511722 -2770.796137 -450.000000
  endloop
 endfacet
 facet normal 0.896873 -0.442289 0.000000
  outer loop
   vertex -1700.511722 -2770.796137 -970.000000
   vertex -1695.420558 -2760.472279 -970.000000
   vertex -1700.511722 -2770.796137 -450.000000
  endloop
 endfacet
 facet normal 0.831470 -0.555570 0.000000
  outer loop
   vertex -1689.025417 -2750.901273 -970.000000
   vertex -1689.025417 -2750.901273 -450.000000
   vertex -1695.420558 -2760.472279 -450.000000
  endloop
 endfacet
 facet normal 0.831470 -0.555570 0.000000
  outer loop
   vertex -1695.420558 -2760.472279 -970.000000
   vertex -1689.025417 -2750.901273 -970.000000
   vertex -1695.420558 -2760.472279 -450.000000
  endloop
 endfacet
 facet normal 0.751840 -0.659346 0.000000
  outer loop
   vertex -1681.435719 -2742.246882 -970.000000
   vertex -1681.435719 -2742.246882 -450.000000
   vertex -1689.025417 -2750.901273 -450.000000
  endloop
 endfacet
 facet normal 0.751840 -0.659346 0.000000
  outer loop
   vertex -1689.025417 -2750.901273 -970.000000
   vertex -1681.435719 -2742.246882 -970.000000
   vertex -1689.025417 -2750.901273 -450.000000
  endloop
 endfacet
 facet normal 0.659346 -0.751840 0.000000
  outer loop
   vertex -1672.781328 -2734.657185 -970.000000
   vertex -1672.781328 -2734.657185 -450.000000
   vertex -1681.435719 -2742.246882 -450.000000
  endloop
 endfacet
 facet normal 0.659346 -0.751840 0.000000
  outer loop
   vertex -1681.435719 -2742.246882 -970.000000
   vertex -1672.781328 -2734.657185 -970.000000
   vertex -1681.435719 -2742.246882 -450.000000
  endloop
 endfacet
 facet normal 0.555570 -0.831470 0.000000
  outer loop
   vertex -1663.210323 -2728.262043 -970.000000
   vertex -1663.210323 -2728.262043 -450.000000
   vertex -1672.781328 -2734.657185 -450.000000
  endloop
 endfacet
 facet normal 0.555570 -0.831470 0.000000
  outer loop
   vertex -1672.781328 -2734.657185 -970.000000
   vertex -1663.210323 -2728.262043 -970.000000
   vertex -1672.781328 -2734.657185 -450.000000
  endloop
 endfacet
 facet normal 0.442289 -0.896873 0.000000
  outer loop
   vertex -1652.886465 -2723.170880 -970.000000
   vertex -1652.886465 -2723.170880 -450.000000
   vertex -1663.210323 -2728.262043 -450.000000
  endloop
 endfacet
 facet normal 0.442289 -0.896873 0.000000
  outer loop
   vertex -1663.210323 -2728.262043 -970.000000
   vertex -1652.886465 -2723.170880 -970.000000
   vertex -1663.210323 -2728.262043 -450.000000
  endloop
 endfacet
 facet normal 0.321439 -0.946930 0.000000
  outer loop
   vertex -1641.986399 -2719.470806 -970.000000
   vertex -1641.986399 -2719.470806 -450.000000
   vertex -1652.886465 -2723.170880 -450.000000
  endloop
 endfacet
 facet normal 0.321439 -0.946930 0.000000
  outer loop
   vertex -1652.886465 -2723.170880 -970.000000
   vertex -1641.986399 -2719.470806 -970.000000
   vertex -1652.886465 -2723.170880 -450.000000
  endloop
 endfacet
 facet normal 0.195090 -0.980785 0.000000
  outer loop
   vertex -1630.696628 -2717.225131 -970.000000
   vertex -1630.696628 -2717.225131 -450.000000
   vertex -1641.986399 -2719.470806 -450.000000
  endloop
 endfacet
 facet normal 0.195090 -0.980785 0.000000
  outer loop
   vertex -1641.986399 -2719.470806 -970.000000
   vertex -1630.696628 -2717.225131 -970.000000
   vertex -1641.986399 -2719.470806 -450.000000
  endloop
 endfacet
 facet normal 0.065403 -0.997859 0.000000
  outer loop
   vertex -1619.210323 -2716.472279 -970.000000
   vertex -1619.210323 -2716.472279 -450.000000
   vertex -1630.696628 -2717.225131 -450.000000
  endloop
 endfacet
 facet normal 0.065403 -0.997859 0.000000
  outer loop
   vertex -1630.696628 -2717.225131 -970.000000
   vertex -1619.210323 -2716.472279 -970.000000
   vertex -1630.696628 -2717.225131 -450.000000
  endloop
 endfacet
endsolid SIC_LOX_feed_3_elbow
