solid SIC_RP1_feed_1_drop
 facet normal 0.064534 0.997859 0.010627
  outer loop
   vertex 3238.400000 100.000000 -1040.000000
   vertex 3251.279153 99.144486 -1037.879082
   vertex 3532.879153 99.144486 -2747.879082
  endloop
 endfacet
 facet normal 0.064534 0.997859 0.010627
  outer loop
   vertex 3238.400000 100.000000 -1040.000000
   vertex 3532.879153 99.144486 -2747.879082
   vertex 3520.000000 100.000000 -2750.000000
  endloop
 endfacet
 facet normal 0.192498 0.980785 0.031700
  outer loop
   vertex 3251.279153 99.144486 -1037.879082
   vertex 3263.937940 96.592583 -1035.794454
   vertex 3545.537940 96.592583 -2745.794454
  endloop
 endfacet
 facet normal 0.192498 0.980785 0.031700
  outer loop
   vertex 3251.279153 99.144486 -1037.879082
   vertex 3545.537940 96.592583 -2745.794454
   vertex 3532.879153 99.144486 -2747.879082
  endloop
 endfacet
 facet normal 0.317168 0.946930 0.052231
  outer loop
   vertex 3263.937940 96.592583 -1035.794454
   vertex 3276.159765 92.387953 -1033.781784
   vertex 3557.759765 92.387953 -2743.781784
  endloop
 endfacet
 facet normal 0.317168 0.946930 0.052231
  outer loop
   vertex 3263.937940 96.592583 -1035.794454
   vertex 3557.759765 92.387953 -2743.781784
   vertex 3545.537940 96.592583 -2745.794454
  endloop
 endfacet
 facet normal 0.436411 0.896873 0.071867
  outer loop
   vertex 3276.159765 92.387953 -1033.781784
   vertex 3287.735511 86.602540 -1031.875509
   vertex 3569.335511 86.602540 -2741.875509
  endloop
 endfacet
 facet normal 0.436411 0.896873 0.071867
  outer loop
   vertex 3276.159765 92.387953 -1033.781784
   vertex 3569.335511 86.602540 -2741.875509
   vertex 3557.759765 92.387953 -2743.781784
  endloop
 endfacet
 facet normal 0.548187 0.831470 0.090275
  outer loop
   vertex 3287.735511 86.602540 -1031.875509
   vertex 3298.467112 79.335334 -1030.108246
   vertex 3580.067112 79.335334 -2740.108246
  endloop
 endfacet
 facet normal 0.548187 0.831470 0.090275
  outer loop
   vertex 3287.735511 86.602540 -1031.875509
   vertex 3580.067112 79.335334 -2740.108246
   vertex 3569.335511 86.602540 -2741.875509
  endloop
 endfacet
 facet normal 0.650583 0.751840 0.107137
  outer loop
   vertex 3298.467112 79.335334 -1030.108246
   vertex 3308.170949 70.710678 -1028.510234
   vertex 3589.770949 70.710678 -2738.510234
  endloop
 endfacet
 facet normal 0.650583 0.751840 0.107137
  outer loop
   vertex 3298.467112 79.335334 -1030.108246
   vertex 3589.770949 70.710678 -2738.510234
   vertex 3580.067112 79.335334 -2740.108246
  endloop
 endfacet
 facet normal 0.741848 0.659346 0.122166
  outer loop
   vertex 3308.170949 70.710678 -1028.510234
   vertex 3316.680985 60.876143 -1027.108816
   vertex 3598.280985 60.876143 -2737.108816
  endloop
 endfacet
 facet normal 0.741848 0.659346 0.122166
  outer loop
   vertex 3308.170949 70.710678 -1028.510234
   vertex 3598.280985 60.876143 -2737.108816
   vertex 3589.770949 70.710678 -2738.510234
  endloop
 endfacet
 facet normal 0.820420 0.555570 0.135105
  outer loop
   vertex 3316.680985 60.876143 -1027.108816
   vertex 3323.851612 50.000000 -1025.927969
   vertex 3605.451612 50.000000 -2735.927969
  endloop
 endfacet
 facet normal 0.820420 0.555570 0.135105
  outer loop
   vertex 3316.680985 60.876143 -1027.108816
   vertex 3605.451612 50.000000 -2735.927969
   vertex 3598.280985 60.876143 -2737.108816
  endloop
 endfacet
 facet normal 0.884953 0.442289 0.145733
  outer loop
   vertex 3323.851612 50.000000 -1025.927969
   vertex 3329.560138 38.268343 -1024.987898
   vertex 3611.160138 38.268343 -2734.987898
  endloop
 endfacet
 facet normal 0.884953 0.442289 0.145733
  outer loop
   vertex 3323.851612 50.000000 -1025.927969
   vertex 3611.160138 38.268343 -2734.987898
   vertex 3605.451612 50.000000 -2735.927969
  endloop
 endfacet
 facet normal 0.934346 0.321439 0.153867
  outer loop
   vertex 3329.560138 38.268343 -1024.987898
   vertex 3333.708888 25.881905 -1024.304688
   vertex 3615.308888 25.881905 -2734.304688
  endloop
 endfacet
 facet normal 0.934346 0.321439 0.153867
  outer loop
   vertex 3329.560138 38.268343 -1024.987898
   vertex 3615.308888 25.881905 -2734.304688
   vertex 3611.160138 38.268343 -2734.987898
  endloop
 endfacet
 facet normal 0.967751 0.195090 0.159368
  outer loop
   vertex 3333.708888 25.881905 -1024.304688
   vertex 3336.226878 13.052619 -1023.890030
   vertex 3617.826878 13.052619 -2733.890030
  endloop
 endfacet
 facet normal 0.967751 0.195090 0.159368
  outer loop
   vertex 3333.708888 25.881905 -1024.304688
   vertex 3617.826878 13.052619 -2733.890030
   vertex 3615.308888 25.881905 -2734.304688
  endloop
 endfacet
 facet normal 0.984598 0.065403 0.162142
  outer loop
   vertex 3336.226878 13.052619 -1023.890030
   vertex 3337.071022 0.000000 -1023.751018
   vertex 3618.671022 0.000000 -2733.751018
  endloop
 endfacet
 facet normal 0.984598 0.065403 0.162142
  outer loop
   vertex 3336.226878 13.052619 -1023.890030
   vertex 3618.671022 0.000000 -2733.751018
   vertex 3617.826878 13.052619 -2733.890030
  endloop
 endfacet
 facet normal 0.984598 -0.065403 0.162142
  outer loop
   vertex 3337.071022 0.000000 -1023.751018
   vertex 3336.226878 -13.052619 -1023.890030
   vertex 3617.826878 -13.052619 -2733.890030
  endloop
 endfacet
 facet normal 0.984598 -0.065403 0.162142
  outer loop
   vertex 3337.071022 0.000000 -1023.751018
   vertex 3617.826878 -13.052619 -2733.890030
   vertex 3618.671022 0.000000 -2733.751018
  endloop
 endfacet
 facet normal 0.967751 -0.195090 0.159368
  outer loop
   vertex 3336.226878 -13.052619 -1023.890030
   vertex 3333.708888 -25.881905 -1024.304688
   vertex 3615.308888 -25.881905 -2734.304688
  endloop
 endfacet
 facet normal 0.967751 -0.195090 0.159368
  outer loop
   vertex 3336.226878 -13.052619 -1023.890030
   vertex 3615.308888 -25.881905 -2734.304688
   vertex 3617.826878 -13.052619 -2733.890030
  endloop
 endfacet
 facet normal 0.934346 -0.321439 0.153867
  outer loop
   vertex 3333.708888 -25.881905 -1024.304688
   vertex 3329.560138 -38.268343 -1024.987898
   vertex 3611.160138 -38.268343 -2734.987898
  endloop
 endfacet
 facet normal 0.934346 -0.321439 0.153867
  outer loop
   vertex 3333.708888 -25.881905 -1024.304688
   vertex 3611.160138 -38.268343 -2734.987898
   vertex 3615.308888 -25.881905 -2734.304688
  endloop
 endfacet
 facet normal 0.884953 -0.442289 0.145733
  outer loop
   vertex 3329.560138 -38.268343 -1024.987898
   vertex 3323.851612 -50.000000 -1025.927969
   vertex 3605.451612 -50.000000 -2735.927969
  endloop
 endfacet
 facet normal 0.884953 -0.442289 0.145733
  outer loop
   vertex 3329.560138 -38.268343 -1024.987898
   vertex 3605.451612 -50.000000 -2735.927969
   vertex 3611.160138 -38.268343 -2734.987898
  endloop
 endfacet
 facet normal 0.820420 -0.555570 0.135105
  outer loop
   vertex 3323.851612 -50.000000 -1025.927969
   vertex 3316.680985 -60.876143 -1027.108816
   vertex 3598.280985 -60.876143 -2737.108816
  endloop
 endfacet
 facet normal 0.820420 -0.555570 0.135105
  outer loop
   vertex 3323.851612 -50.000000 -1025.927969
   vertex 3598.280985 -60.876143 -2737.108816
   vertex 3605.451612 -50.000000 -2735.927969
  endloop
 endfacet
 facet normal 0.741848 -0.659346 0.122166
  outer loop
   vertex 3316.680985 -60.876143 -1027.108816
   vertex 3308.170949 -70.710678 -1028.510234
   vertex 3589.770949 -70.710678 -2738.510234
  endloop
 endfacet
 facet normal 0.741848 -0.659346 0.122166
  outer loop
   vertex 3316.680985 -60.876143 -1027.108816
   vertex 3589.770949 -70.710678 -2738.510234
   vertex 3598.280985 -60.876143 -2737.108816
  endloop
 endfacet
 facet normal 0.650583 -0.751840 0.107137
  outer loop
   vertex 3308.170949 -70.710678 -1028.510234
   vertex 3298.467112 -79.335334 -1030.108246
   vertex 3580.067112 -79.335334 -2740.108246
  endloop
 endfacet
 facet normal 0.650583 -0.751840 0.107137
  outer loop
   vertex 3308.170949 -70.710678 -1028.510234
   vertex 3580.067112 -79.335334 -2740.108246
   vertex 3589.770949 -70.710678 -2738.510234
  endloop
 endfacet
 facet normal 0.548187 -0.831470 0.090275
  outer loop
   vertex 3298.467112 -79.335334 -1030.108246
   vertex 3287.735511 -86.602540 -1031.875509
   vertex 3569.335511 -86.602540 -2741.875509
  endloop
 endfacet
 facet normal 0.548187 -0.831470 0.090275
  outer loop
   vertex 3298.467112 -79.335334 -1030.108246
   vertex 3569.335511 -86.602540 -2741.875509
   vertex 3580.067112 -79.335334 -2740.108246
  endloop
 endfacet
 facet normal 0.436411 -0.896873 0.071867
  outer loop
   vertex 3287.735511 -86.602540 -1031.875509
   vertex 3276.159765 -92.387953 -1033.781784
   vertex 3557.759765 -92.387953 -2743.781784
  endloop
 endfacet
 facet normal 0.436411 -0.896873 0.071867
  outer loop
   vertex 3287.735511 -86.602540 -1031.875509
   vertex 3557.759765 -92.387953 -2743.781784
   vertex 3569.335511 -86.602540 -2741.875509
  endloop
 endfacet
 facet normal 0.317168 -0.946930 0.052231
  outer loop
   vertex 3276.159765 -92.387953 -1033.781784
   vertex 3263.937940 -96.592583 -1035.794454
   vertex 3545.537940 -96.592583 -2745.794454
  endloop
 endfacet
 facet normal 0.317168 -0.946930 0.052231
  outer loop
   vertex 3276.159765 -92.387953 -1033.781784
   vertex 3545.537940 -96.592583 -2745.794454
   vertex 3557.759765 -92.387953 -2743.781784
  endloop
 endfacet
 facet normal 0.192498 -0.980785 0.031700
  outer loop
   vertex 3263.937940 -96.592583 -1035.794454
   vertex 3251.279153 -99.144486 -1037.879082
   vertex 3532.879153 -99.144486 -2747.879082
  endloop
 endfacet
 facet normal 0.192498 -0.980785 0.031700
  outer loop
   vertex 3263.937940 -96.592583 -1035.794454
   vertex 3532.879153 -99.144486 -2747.879082
   vertex 3545.537940 -96.592583 -2745.794454
  endloop
 endfacet
 facet normal 0.064534 -0.997859 0.010627
  outer loop
   vertex 3251.279153 -99.144486 -1037.879082
   vertex 3238.400000 -100.000000 -1040.000000
   vertex 3520.000000 -100.000000 -2750.000000
  endloop
 endfacet
 facet normal 0.064534 -0.997859 0.010627
  outer loop
   vertex 3251.279153 -99.144486 -1037.879082
   vertex 3520.000000 -100.000000 -2750.000000
   vertex 3532.879153 -99.144486 -2747.879082
  endloop
 endfacet
 facet normal -0.064534 -0.997859 -0.010627
  outer loop
   vertex 3238.400000 -100.000000 -1040.000000
   vertex 3225.520847 -99.144486 -1042.120918
   vertex 3507.120847 -99.144486 -2752.120918
  endloop
 endfacet
 facet normal -0.064534 -0.997859 -0.010627
  outer loop
   vertex 3238.400000 -100.000000 -1040.000000
   vertex 3507.120847 -99.144486 -2752.120918
   vertex 3520.000000 -100.000000 -2750.000000
  endloop
 endfacet
 facet normal -0.192498 -0.980785 -0.031700
  outer loop
   vertex 3225.520847 -99.144486 -1042.120918
   vertex 3212.862060 -96.592583 -1044.205546
   vertex 3494.462060 -96.592583 -2754.205546
  endloop
 endfacet
 facet normal -0.192498 -0.980785 -0.031700
  outer loop
   vertex 3225.520847 -99.144486 -1042.120918
   vertex 3494.462060 -96.592583 -2754.205546
   vertex 3507.120847 -99.144486 -2752.120918
  endloop
 endfacet
 facet normal -0.317168 -0.946930 -0.052231
  outer loop
   vertex 3212.862060 -96.592583 -1044.205546
   vertex 3200.640235 -92.387953 -1046.218216
   vertex 3482.240235 -92.387953 -2756.218216
  endloop
 endfacet
 facet normal -0.317168 -0.946930 -0.052231
  outer loop
   vertex 3212.862060 -96.592583 -1044.205546
   vertex 3482.240235 -92.387953 -2756.218216
   vertex 3494.462060 -96.592583 -2754.205546
  endloop
 endfacet
 facet normal -0.436411 -0.896873 -0.071867
  outer loop
   vertex 3200.640235 -92.387953 -1046.218216
   vertex 3189.064489 -86.602540 -1048.124491
   vertex 3470.664489 -86.602540 -2758.124491
  endloop
 endfacet
 facet normal -0.436411 -0.896873 -0.071867
  outer loop
   vertex 3200.640235 -92.387953 -1046.218216
   vertex 3470.664489 -86.602540 -2758.124491
   vertex 3482.240235 -92.387953 -2756.218216
  endloop
 endfacet
 facet normal -0.548187 -0.831470 -0.090275
  outer loop
   vertex 3189.064489 -86.602540 -1048.124491
   vertex 3178.332888 -79.335334 -1049.891754
   vertex 3459.932888 -79.335334 -2759.891754
  endloop
 endfacet
 facet normal -0.548187 -0.831470 -0.090275
  outer loop
   vertex 3189.064489 -86.602540 -1048.124491
   vertex 3459.932888 -79.335334 -2759.891754
   vertex 3470.664489 -86.602540 -2758.124491
  endloop
 endfacet
 facet normal -0.650583 -0.751840 -0.107137
  outer loop
   vertex 3178.332888 -79.335334 -1049.891754
   vertex 3168.629051 -70.710678 -1051.489766
   vertex 3450.229051 -70.710678 -2761.489766
  endloop
 endfacet
 facet normal -0.650583 -0.751840 -0.107137
  outer loop
   vertex 3178.332888 -79.335334 -1049.891754
   vertex 3450.229051 -70.710678 -2761.489766
   vertex 3459.932888 -79.335334 -2759.891754
  endloop
 endfacet
 facet normal -0.741848 -0.659346 -0.122166
  outer loop
   vertex 3168.629051 -70.710678 -1051.489766
   vertex 3160.119015 -60.876143 -1052.891184
   vertex 3441.719015 -60.876143 -2762.891184
  endloop
 endfacet
 facet normal -0.741848 -0.659346 -0.122166
  outer loop
   vertex 3168.629051 -70.710678 -1051.489766
   vertex 3441.719015 -60.876143 -2762.891184
   vertex 3450.229051 -70.710678 -2761.489766
  endloop
 endfacet
 facet normal -0.820420 -0.555570 -0.135105
  outer loop
   vertex 3160.119015 -60.876143 -1052.891184
   vertex 3152.948388 -50.000000 -1054.072031
   vertex 3434.548388 -50.000000 -2764.072031
  endloop
 endfacet
 facet normal -0.820420 -0.555570 -0.135105
  outer loop
   vertex 3160.119015 -60.876143 -1052.891184
   vertex 3434.548388 -50.000000 -2764.072031
   vertex 3441.719015 -60.876143 -2762.891184
  endloop
 endfacet
 facet normal -0.884953 -0.442289 -0.145733
  outer loop
   vertex 3152.948388 -50.000000 -1054.072031
   vertex 3147.239862 -38.268343 -1055.012102
   vertex 3428.839862 -38.268343 -2765.012102
  endloop
 endfacet
 facet normal -0.884953 -0.442289 -0.145733
  outer loop
   vertex 3152.948388 -50.000000 -1054.072031
   vertex 3428.839862 -38.268343 -2765.012102
   vertex 3434.548388 -50.000000 -2764.072031
  endloop
 endfacet
 facet normal -0.934346 -0.321439 -0.153867
  outer loop
   vertex 3147.239862 -38.268343 -1055.012102
   vertex 3143.091112 -25.881905 -1055.695312
   vertex 3424.691112 -25.881905 -2765.695312
  endloop
 endfacet
 facet normal -0.934346 -0.321439 -0.153867
  outer loop
   vertex 3147.239862 -38.268343 -1055.012102
   vertex 3424.691112 -25.881905 -2765.695312
   vertex 3428.839862 -38.268343 -2765.012102
  endloop
 endfacet
 facet normal -0.967751 -0.195090 -0.159368
  outer loop
   vertex 3143.091112 -25.881905 -1055.695312
   vertex 3140.573122 -13.052619 -1056.109970
   vertex 3422.173122 -13.052619 -2766.109970
  endloop
 endfacet
 facet normal -0.967751 -0.195090 -0.159368
  outer loop
   vertex 3143.091112 -25.881905 -1055.695312
   vertex 3422.173122 -13.052619 -2766.109970
   vertex 3424.691112 -25.881905 -2765.695312
  endloop
 endfacet
 facet normal -0.984598 -0.065403 -0.162142
  outer loop
   vertex 3140.573122 -13.052619 -1056.109970
   vertex 3139.728978 -0.000000 -1056.248982
   vertex 3421.328978 -0.000000 -2766.248982
  endloop
 endfacet
 facet normal -0.984598 -0.065403 -0.162142
  outer loop
   vertex 3140.573122 -13.052619 -1056.109970
   vertex 3421.328978 -0.000000 -2766.248982
   vertex 3422.173122 -13.052619 -2766.109970
  endloop
 endfacet
 facet normal -0.984598 0.065403 -0.162142
  outer loop
   vertex 3139.728978 -0.000000 -1056.248982
   vertex 3140.573122 13.052619 -1056.109970
   vertex 3422.173122 13.052619 -2766.109970
  endloop
 endfacet
 facet normal -0.984598 0.065403 -0.162142
  outer loop
   vertex 3139.728978 -0.000000 -1056.248982
   vertex 3422.173122 13.052619 -2766.109970
   vertex 3421.328978 -0.000000 -2766.248982
  endloop
 endfacet
 facet normal -0.967751 0.195090 -0.159368
  outer loop
   vertex 3140.573122 13.052619 -1056.109970
   vertex 3143.091112 25.881905 -1055.695312
   vertex 3424.691112 25.881905 -2765.695312
  endloop
 endfacet
 facet normal -0.967751 0.195090 -0.159368
  outer loop
   vertex 3140.573122 13.052619 -1056.109970
   vertex 3424.691112 25.881905 -2765.695312
   vertex 3422.173122 13.052619 -2766.109970
  endloop
 endfacet
 facet normal -0.934346 0.321439 -0.153867
  outer loop
   vertex 3143.091112 25.881905 -1055.695312
   vertex 3147.239862 38.268343 -1055.012102
   vertex 3428.839862 38.268343 -2765.012102
  endloop
 endfacet
 facet normal -0.934346 0.321439 -0.153867
  outer loop
   vertex 3143.091112 25.881905 -1055.695312
   vertex 3428.839862 38.268343 -2765.012102
   vertex 3424.691112 25.881905 -2765.695312
  endloop
 endfacet
 facet normal -0.884953 0.442289 -0.145733
  outer loop
   vertex 3147.239862 38.268343 -1055.012102
   vertex 3152.948388 50.000000 -1054.072031
   vertex 3434.548388 50.000000 -2764.072031
  endloop
 endfacet
 facet normal -0.884953 0.442289 -0.145733
  outer loop
   vertex 3147.239862 38.268343 -1055.012102
   vertex 3434.548388 50.000000 -2764.072031
   vertex 3428.839862 38.268343 -2765.012102
  endloop
 endfacet
 facet normal -0.820420 0.555570 -0.135105
  outer loop
   vertex 3152.948388 50.000000 -1054.072031
   vertex 3160.119015 60.876143 -1052.891184
   vertex 3441.719015 60.876143 -2762.891184
  endloop
 endfacet
 facet normal -0.820420 0.555570 -0.135105
  outer loop
   vertex 3152.948388 50.000000 -1054.072031
   vertex 3441.719015 60.876143 -2762.891184
   vertex 3434.548388 50.000000 -2764.072031
  endloop
 endfacet
 facet normal -0.741848 0.659346 -0.122166
  outer loop
   vertex 3160.119015 60.876143 -1052.891184
   vertex 3168.629051 70.710678 -1051.489766
   vertex 3450.229051 70.710678 -2761.489766
  endloop
 endfacet
 facet normal -0.741848 0.659346 -0.122166
  outer loop
   vertex 3160.119015 60.876143 -1052.891184
   vertex 3450.229051 70.710678 -2761.489766
   vertex 3441.719015 60.876143 -2762.891184
  endloop
 endfacet
 facet normal -0.650583 0.751840 -0.107137
  outer loop
   vertex 3168.629051 70.710678 -1051.489766
   vertex 3178.332888 79.335334 -1049.891754
   vertex 3459.932888 79.335334 -2759.891754
  endloop
 endfacet
 facet normal -0.650583 0.751840 -0.107137
  outer loop
   vertex 3168.629051 70.710678 -1051.489766
   vertex 3459.932888 79.335334 -2759.891754
   vertex 3450.229051 70.710678 -2761.489766
  endloop
 endfacet
 facet normal -0.548187 0.831470 -0.090275
  outer loop
   vertex 3178.332888 79.335334 -1049.891754
   vertex 3189.064489 86.602540 -1048.124491
   vertex 3470.664489 86.602540 -2758.124491
  endloop
 endfacet
 facet normal -0.548187 0.831470 -0.090275
  outer loop
   vertex 3178.332888 79.335334 -1049.891754
   vertex 3470.664489 86.602540 -2758.124491
   vertex 3459.932888 79.335334 -2759.891754
  endloop
 endfacet
 facet normal -0.436411 0.896873 -0.071867
  outer loop
   vertex 3189.064489 86.602540 -1048.124491
   vertex 3200.640235 92.387953 -1046.218216
   vertex 3482.240235 92.387953 -2756.218216
  endloop
 endfacet
 facet normal -0.436411 0.896873 -0.071867
  outer loop
   vertex 3189.064489 86.602540 -1048.124491
   vertex 3482.240235 92.387953 -2756.218216
   vertex 3470.664489 86.602540 -2758.124491
  endloop
 endfacet
 facet normal -0.317168 0.946930 -0.052231
  outer loop
   vertex 3200.640235 92.387953 -1046.218216
   vertex 3212.862060 96.592583 -1044.205546
   vertex 3494.462060 96.592583 -2754.205546
  endloop
 endfacet
 facet normal -0.317168 0.946930 -0.052231
  outer loop
   vertex 3200.640235 92.387953 -1046.218216
   vertex 3494.462060 96.592583 -2754.205546
   vertex 3482.240235 92.387953 -2756.218216
  endloop
 endfacet
 facet normal -0.192498 0.980785 -0.031700
  outer loop
   vertex 3212.862060 96.592583 -1044.205546
   vertex 3225.520847 99.144486 -1042.120918
   vertex 3507.120847 99.144486 -2752.120918
  endloop
 endfacet
 facet normal -0.192498 0.980785 -0.031700
  outer loop
   vertex 3212.862060 96.592583 -1044.205546
   vertex 3507.120847 99.144486 -2752.120918
   vertex 3494.462060 96.592583 -2754.205546
  endloop
 endfacet
 facet normal -0.064534 0.997859 -0.010627
  outer loop
   vertex 3225.520847 99.144486 -1042.120918
   vertex 3238.400000 100.000000 -1040.000000
   vertex 3520.000000 100.000000 -2750.000000
  endloop
 endfacet
 facet normal -0.064534 0.997859 -0.010627
  outer loop
   vertex 3225.520847 99.144486 -1042.120918
   vertex 3520.000000 100.000000 -2750.000000
   vertex 3507.120847 99.144486 -2752.120918
  endloop
 endfacet
 facet normal -0.064534 -0.997859 -0.010627
  outer loop
   vertex 3531.333654 87.247148 -2748.133592
   vertex 3249.733654 87.247148 -1038.133592
   vertex 3238.400000 88.000000 -1040.000000
  endloop
 endfacet
 facet normal -0.064534 -0.997859 -0.010627
  outer loop
   vertex 3520.000000 88.000000 -2750.000000
   vertex 3531.333654 87.247148 -2748.133592
   vertex 3238.400000 88.000000 -1040.000000
  endloop
 endfacet
 facet normal -0.192498 -0.980785 -0.031700
  outer loop
   vertex 3542.473387 85.001473 -2746.299119
   vertex 3260.873387 85.001473 -1036.299119
   vertex 3249.733654 87.247148 -1038.133592
  endloop
 endfacet
 facet normal -0.192498 -0.980785 -0.031700
  outer loop
   vertex 3531.333654 87.247148 -2748.133592
   vertex 3542.473387 85.001473 -2746.299119
   vertex 3249.733654 87.247148 -1038.133592
  endloop
 endfacet
 facet normal -0.317168 -0.946930 -0.052231
  outer loop
   vertex 3553.228594 81.301399 -2744.527970
   vertex 3271.628594 81.301399 -1034.527970
   vertex 3260.873387 85.001473 -1036.299119
  endloop
 endfacet
 facet normal -0.317168 -0.946930 -0.052231
  outer loop
   vertex 3542.473387 85.001473 -2746.299119
   vertex 3553.228594 81.301399 -2744.527970
   vertex 3260.873387 85.001473 -1036.299119
  endloop
 endfacet
 facet normal -0.436411 -0.896873 -0.071867
  outer loop
   vertex 3563.415250 76.210236 -2742.850448
   vertex 3281.815250 76.210236 -1032.850448
   vertex 3271.628594 81.301399 -1034.527970
  endloop
 endfacet
 facet normal -0.436411 -0.896873 -0.071867
  outer loop
   vertex 3553.228594 81.301399 -2744.527970
   vertex 3563.415250 76.210236 -2742.850448
   vertex 3271.628594 81.301399 -1034.527970
  endloop
 endfacet
 facet normal -0.548187 -0.831470 -0.090275
  outer loop
   vertex 3572.859059 69.815094 -2741.295257
   vertex 3291.259059 69.815094 -1031.295257
   vertex 3281.815250 76.210236 -1032.850448
  endloop
 endfacet
 facet normal -0.548187 -0.831470 -0.090275
  outer loop
   vertex 3563.415250 76.210236 -2742.850448
   vertex 3572.859059 69.815094 -2741.295257
   vertex 3281.815250 76.210236 -1032.850448
  endloop
 endfacet
 facet normal -0.650583 -0.751840 -0.107137
  outer loop
   vertex 3581.398435 62.225397 -2739.889006
   vertex 3299.798435 62.225397 -1029.889006
   vertex 3291.259059 69.815094 -1031.295257
  endloop
 endfacet
 facet normal -0.650583 -0.751840 -0.107137
  outer loop
   vertex 3572.859059 69.815094 -2741.295257
   vertex 3581.398435 62.225397 -2739.889006
   vertex 3291.259059 69.815094 -1031.295257
  endloop
 endfacet
 facet normal -0.741848 -0.659346 -0.122166
  outer loop
   vertex 3588.887267 53.571006 -2738.655758
   vertex 3307.287267 53.571006 -1028.655758
   vertex 3299.798435 62.225397 -1029.889006
  endloop
 endfacet
 facet normal -0.741848 -0.659346 -0.122166
  outer loop
   vertex 3581.398435 62.225397 -2739.889006
   vertex 3588.887267 53.571006 -2738.655758
   vertex 3299.798435 62.225397 -1029.889006
  endloop
 endfacet
 facet normal -0.820420 -0.555570 -0.135105
  outer loop
   vertex 3595.197418 44.000000 -2737.616612
   vertex 3313.597418 44.000000 -1027.616612
   vertex 3307.287267 53.571006 -1028.655758
  endloop
 endfacet
 facet normal -0.820420 -0.555570 -0.135105
  outer loop
   vertex 3588.887267 53.571006 -2738.655758
   vertex 3595.197418 44.000000 -2737.616612
   vertex 3307.287267 53.571006 -1028.655758
  endloop
 endfacet
 facet normal -0.884953 -0.442289 -0.145733
  outer loop
   vertex 3600.220921 33.676142 -2736.789350
   vertex 3318.620921 33.676142 -1026.789350
   vertex 3313.597418 44.000000 -1027.616612
  endloop
 endfacet
 facet normal -0.884953 -0.442289 -0.145733
  outer loop
   vertex 3595.197418 44.000000 -2737.616612
   vertex 3600.220921 33.676142 -2736.789350
   vertex 3313.597418 44.000000 -1027.616612
  endloop
 endfacet
 facet normal -0.934346 -0.321439 -0.153867
  outer loop
   vertex 3603.871822 22.776076 -2736.188126
   vertex 3322.271822 22.776076 -1026.188126
   vertex 3318.620921 33.676142 -1026.789350
  endloop
 endfacet
 facet normal -0.934346 -0.321439 -0.153867
  outer loop
   vertex 3600.220921 33.676142 -2736.789350
   vertex 3603.871822 22.776076 -2736.188126
   vertex 3318.620921 33.676142 -1026.789350
  endloop
 endfacet
 facet normal -0.967751 -0.195090 -0.159368
  outer loop
   vertex 3606.087652 11.486305 -2735.823226
   vertex 3324.487652 11.486305 -1025.823226
   vertex 3322.271822 22.776076 -1026.188126
  endloop
 endfacet
 facet normal -0.967751 -0.195090 -0.159368
  outer loop
   vertex 3603.871822 22.776076 -2736.188126
   vertex 3606.087652 11.486305 -2735.823226
   vertex 3322.271822 22.776076 -1026.188126
  endloop
 endfacet
 facet normal -0.984598 -0.065403 -0.162142
  outer loop
   vertex 3606.830499 0.000000 -2735.700896
   vertex 3325.230499 0.000000 -1025.700896
   vertex 3324.487652 11.486305 -1025.823226
  endloop
 endfacet
 facet normal -0.984598 -0.065403 -0.162142
  outer loop
   vertex 3606.087652 11.486305 -2735.823226
   vertex 3606.830499 0.000000 -2735.700896
   vertex 3324.487652 11.486305 -1025.823226
  endloop
 endfacet
 facet normal -0.984598 0.065403 -0.162142
  outer loop
   vertex 3606.087652 -11.486305 -2735.823226
   vertex 3324.487652 -11.486305 -1025.823226
   vertex 3325.230499 0.000000 -1025.700896
  endloop
 endfacet
 facet normal -0.984598 0.065403 -0.162142
  outer loop
   vertex 3606.830499 0.000000 -2735.700896
   vertex 3606.087652 -11.486305 -2735.823226
   vertex 3325.230499 0.000000 -1025.700896
  endloop
 endfacet
 facet normal -0.967751 0.195090 -0.159368
  outer loop
   vertex 3603.871822 -22.776076 -2736.188126
   vertex 3322.271822 -22.776076 -1026.188126
   vertex 3324.487652 -11.486305 -1025.823226
  endloop
 endfacet
 facet normal -0.967751 0.195090 -0.159368
  outer loop
   vertex 3606.087652 -11.486305 -2735.823226
   vertex 3603.871822 -22.776076 -2736.188126
   vertex 3324.487652 -11.486305 -1025.823226
  endloop
 endfacet
 facet normal -0.934346 0.321439 -0.153867
  outer loop
   vertex 3600.220921 -33.676142 -2736.789350
   vertex 3318.620921 -33.676142 -1026.789350
   vertex 3322.271822 -22.776076 -1026.188126
  endloop
 endfacet
 facet normal -0.934346 0.321439 -0.153867
  outer loop
   vertex 3603.871822 -22.776076 -2736.188126
   vertex 3600.220921 -33.676142 -2736.789350
   vertex 3322.271822 -22.776076 -1026.188126
  endloop
 endfacet
 facet normal -0.884953 0.442289 -0.145733
  outer loop
   vertex 3595.197418 -44.000000 -2737.616612
   vertex 3313.597418 -44.000000 -1027.616612
   vertex 3318.620921 -33.676142 -1026.789350
  endloop
 endfacet
 facet normal -0.884953 0.442289 -0.145733
  outer loop
   vertex 3600.220921 -33.676142 -2736.789350
   vertex 3595.197418 -44.000000 -2737.616612
   vertex 3318.620921 -33.676142 -1026.789350
  endloop
 endfacet
 facet normal -0.820420 0.555570 -0.135105
  outer loop
   vertex 3588.887267 -53.571006 -2738.655758
   vertex 3307.287267 -53.571006 -1028.655758
   vertex 3313.597418 -44.000000 -1027.616612
  endloop
 endfacet
 facet normal -0.820420 0.555570 -0.135105
  outer loop
   vertex 3595.197418 -44.000000 -2737.616612
   vertex 3588.887267 -53.571006 -2738.655758
   vertex 3313.597418 -44.000000 -1027.616612
  endloop
 endfacet
 facet normal -0.741848 0.659346 -0.122166
  outer loop
   vertex 3581.398435 -62.225397 -2739.889006
   vertex 3299.798435 -62.225397 -1029.889006
   vertex 3307.287267 -53.571006 -1028.655758
  endloop
 endfacet
 facet normal -0.741848 0.659346 -0.122166
  outer loop
   vertex 3588.887267 -53.571006 -2738.655758
   vertex 3581.398435 -62.225397 -2739.889006
   vertex 3307.287267 -53.571006 -1028.655758
  endloop
 endfacet
 facet normal -0.650583 0.751840 -0.107137
  outer loop
   vertex 3572.859059 -69.815094 -2741.295257
   vertex 3291.259059 -69.815094 -1031.295257
   vertex 3299.798435 -62.225397 -1029.889006
  endloop
 endfacet
 facet normal -0.650583 0.751840 -0.107137
  outer loop
   vertex 3581.398435 -62.225397 -2739.889006
   vertex 3572.859059 -69.815094 -2741.295257
   vertex 3299.798435 -62.225397 -1029.889006
  endloop
 endfacet
 facet normal -0.548187 0.831470 -0.090275
  outer loop
   vertex 3563.415250 -76.210236 -2742.850448
   vertex 3281.815250 -76.210236 -1032.850448
   vertex 3291.259059 -69.815094 -1031.295257
  endloop
 endfacet
 facet normal -0.548187 0.831470 -0.090275
  outer loop
   vertex 3572.859059 -69.815094 -2741.295257
   vertex 3563.415250 -76.210236 -2742.850448
   vertex 3291.259059 -69.815094 -1031.295257
  endloop
 endfacet
 facet normal -0.436411 0.896873 -0.071867
  outer loop
   vertex 3553.228594 -81.301399 -2744.527970
   vertex 3271.628594 -81.301399 -1034.527970
   vertex 3281.815250 -76.210236 -1032.850448
  endloop
 endfacet
 facet normal -0.436411 0.896873 -0.071867
  outer loop
   vertex 3563.415250 -76.210236 -2742.850448
   vertex 3553.228594 -81.301399 -2744.527970
   vertex 3281.815250 -76.210236 -1032.850448
  endloop
 endfacet
 facet normal -0.317168 0.946930 -0.052231
  outer loop
   vertex 3542.473387 -85.001473 -2746.299119
   vertex 3260.873387 -85.001473 -1036.299119
   vertex 3271.628594 -81.301399 -1034.527970
  endloop
 endfacet
 facet normal -0.317168 0.946930 -0.052231
  outer loop
   vertex 3553.228594 -81.301399 -2744.527970
   vertex 3542.473387 -85.001473 -2746.299119
   vertex 3271.628594 -81.301399 -1034.527970
  endloop
 endfacet
 facet normal -0.192498 0.980785 -0.031700
  outer loop
   vertex 3531.333654 -87.247148 -2748.133592
   vertex 3249.733654 -87.247148 -1038.133592
   vertex 3260.873387 -85.001473 -1036.299119
  endloop
 endfacet
 facet normal -0.192498 0.980785 -0.031700
  outer loop
   vertex 3542.473387 -85.001473 -2746.299119
   vertex 3531.333654 -87.247148 -2748.133592
   vertex 3260.873387 -85.001473 -1036.299119
  endloop
 endfacet
 facet normal -0.064534 0.997859 -0.010627
  outer loop
   vertex 3520.000000 -88.000000 -2750.000000
   vertex 3238.400000 -88.000000 -1040.000000
   vertex 3249.733654 -87.247148 -1038.133592
  endloop
 endfacet
 facet normal -0.064534 0.997859 -0.010627
  outer loop
   vertex 3531.333654 -87.247148 -2748.133592
   vertex 3520.000000 -88.000000 -2750.000000
   vertex 3249.733654 -87.247148 -1038.133592
  endloop
 endfacet
 facet normal 0.064534 0.997859 0.010627
  outer loop
   vertex 3508.666346 -87.247148 -2751.866408
   vertex 3227.066346 -87.247148 -1041.866408
   vertex 3238.400000 -88.000000 -1040.000000
  endloop
 endfacet
 facet normal 0.064534 0.997859 0.010627
  outer loop
   vertex 3520.000000 -88.000000 -2750.000000
   vertex 3508.666346 -87.247148 -2751.866408
   vertex 3238.400000 -88.000000 -1040.000000
  endloop
 endfacet
 facet normal 0.192498 0.980785 0.031700
  outer loop
   vertex 3497.526613 -85.001473 -2753.700881
   vertex 3215.926613 -85.001473 -1043.700881
   vertex 3227.066346 -87.247148 -1041.866408
  endloop
 endfacet
 facet normal 0.192498 0.980785 0.031700
  outer loop
   vertex 3508.666346 -87.247148 -2751.866408
   vertex 3497.526613 -85.001473 -2753.700881
   vertex 3227.066346 -87.247148 -1041.866408
  endloop
 endfacet
 facet normal 0.317168 0.946930 0.052231
  outer loop
   vertex 3486.771406 -81.301399 -2755.472030
   vertex 3205.171406 -81.301399 -1045.472030
   vertex 3215.926613 -85.001473 -1043.700881
  endloop
 endfacet
 facet normal 0.317168 0.946930 0.052231
  outer loop
   vertex 3497.526613 -85.001473 -2753.700881
   vertex 3486.771406 -81.301399 -2755.472030
   vertex 3215.926613 -85.001473 -1043.700881
  endloop
 endfacet
 facet normal 0.436411 0.896873 0.071867
  outer loop
   vertex 3476.584750 -76.210236 -2757.149552
   vertex 3194.984750 -76.210236 -1047.149552
   vertex 3205.171406 -81.301399 -1045.472030
  endloop
 endfacet
 facet normal 0.436411 0.896873 0.071867
  outer loop
   vertex 3486.771406 -81.301399 -2755.472030
   vertex 3476.584750 -76.210236 -2757.149552
   vertex 3205.171406 -81.301399 -1045.472030
  endloop
 endfacet
 facet normal 0.548187 0.831470 0.090275
  outer loop
   vertex 3467.140941 -69.815094 -2758.704743
   vertex 3185.540941 -69.815094 -1048.704743
   vertex 3194.984750 -76.210236 -1047.149552
  endloop
 endfacet
 facet normal 0.548187 0.831470 0.090275
  outer loop
   vertex 3476.584750 -76.210236 -2757.149552
   vertex 3467.140941 -69.815094 -2758.704743
   vertex 3194.984750 -76.210236 -1047.149552
  endloop
 endfacet
 facet normal 0.650583 0.751840 0.107137
  outer loop
   vertex 3458.601565 -62.225397 -2760.110994
   vertex 3177.001565 -62.225397 -1050.110994
   vertex 3185.540941 -69.815094 -1048.704743
  endloop
 endfacet
 facet normal 0.650583 0.751840 0.107137
  outer loop
   vertex 3467.140941 -69.815094 -2758.704743
   vertex 3458.601565 -62.225397 -2760.110994
   vertex 3185.540941 -69.815094 -1048.704743
  endloop
 endfacet
 facet normal 0.741848 0.659346 0.122166
  outer loop
   vertex 3451.112733 -53.571006 -2761.344242
   vertex 3169.512733 -53.571006 -1051.344242
   vertex 3177.001565 -62.225397 -1050.110994
  endloop
 endfacet
 facet normal 0.741848 0.659346 0.122166
  outer loop
   vertex 3458.601565 -62.225397 -2760.110994
   vertex 3451.112733 -53.571006 -2761.344242
   vertex 3177.001565 -62.225397 -1050.110994
  endloop
 endfacet
 facet normal 0.820420 0.555570 0.135105
  outer loop
   vertex 3444.802582 -44.000000 -2762.383388
   vertex 3163.202582 -44.000000 -1052.383388
   vertex 3169.512733 -53.571006 -1051.344242
  endloop
 endfacet
 facet normal 0.820420 0.555570 0.135105
  outer loop
   vertex 3451.112733 -53.571006 -2761.344242
   vertex 3444.802582 -44.000000 -2762.383388
   vertex 3169.512733 -53.571006 -1051.344242
  endloop
 endfacet
 facet normal 0.884953 0.442289 0.145733
  outer loop
   vertex 3439.779079 -33.676142 -2763.210650
   vertex 3158.179079 -33.676142 -1053.210650
   vertex 3163.202582 -44.000000 -1052.383388
  endloop
 endfacet
 facet normal 0.884953 0.442289 0.145733
  outer loop
   vertex 3444.802582 -44.000000 -2762.383388
   vertex 3439.779079 -33.676142 -2763.210650
   vertex 3163.202582 -44.000000 -1052.383388
  endloop
 endfacet
 facet normal 0.934346 0.321439 0.153867
  outer loop
   vertex 3436.128178 -22.776076 -2763.811874
   vertex 3154.528178 -22.776076 -1053.811874
   vertex 3158.179079 -33.676142 -1053.210650
  endloop
 endfacet
 facet normal 0.934346 0.321439 0.153867
  outer loop
   vertex 3439.779079 -33.676142 -2763.210650
   vertex 3436.128178 -22.776076 -2763.811874
   vertex 3158.179079 -33.676142 -1053.210650
  endloop
 endfacet
 facet normal 0.967751 0.195090 0.159368
  outer loop
   vertex 3433.912348 -11.486305 -2764.176774
   vertex 3152.312348 -11.486305 -1054.176774
   vertex 3154.528178 -22.776076 -1053.811874
  endloop
 endfacet
 facet normal 0.967751 0.195090 0.159368
  outer loop
   vertex 3436.128178 -22.776076 -2763.811874
   vertex 3433.912348 -11.486305 -2764.176774
   vertex 3154.528178 -22.776076 -1053.811874
  endloop
 endfacet
 facet normal 0.984598 0.065403 0.162142
  outer loop
   vertex 3433.169501 -0.000000 -2764.299104
   vertex 3151.569501 -0.000000 -1054.299104
   vertex 3152.312348 -11.486305 -1054.176774
  endloop
 endfacet
 facet normal 0.984598 0.065403 0.162142
  outer loop
   vertex 3433.912348 -11.486305 -2764.176774
   vertex 3433.169501 -0.000000 -2764.299104
   vertex 3152.312348 -11.486305 -1054.176774
  endloop
 endfacet
 facet normal 0.984598 -0.065403 0.162142
  outer loop
   vertex 3433.912348 11.486305 -2764.176774
   vertex 3152.312348 11.486305 -1054.176774
   vertex 3151.569501 -0.000000 -1054.299104
  endloop
 endfacet
 facet normal 0.984598 -0.065403 0.162142
  outer loop
   vertex 3433.169501 -0.000000 -2764.299104
   vertex 3433.912348 11.486305 -2764.176774
   vertex 3151.569501 -0.000000 -1054.299104
  endloop
 endfacet
 facet normal 0.967751 -0.195090 0.159368
  outer loop
   vertex 3436.128178 22.776076 -2763.811874
   vertex 3154.528178 22.776076 -1053.811874
   vertex 3152.312348 11.486305 -1054.176774
  endloop
 endfacet
 facet normal 0.967751 -0.195090 0.159368
  outer loop
   vertex 3433.912348 11.486305 -2764.176774
   vertex 3436.128178 22.776076 -2763.811874
   vertex 3152.312348 11.486305 -1054.176774
  endloop
 endfacet
 facet normal 0.934346 -0.321439 0.153867
  outer loop
   vertex 3439.779079 33.676142 -2763.210650
   vertex 3158.179079 33.676142 -1053.210650
   vertex 3154.528178 22.776076 -1053.811874
  endloop
 endfacet
 facet normal 0.934346 -0.321439 0.153867
  outer loop
   vertex 3436.128178 22.776076 -2763.811874
   vertex 3439.779079 33.676142 -2763.210650
   vertex 3154.528178 22.776076 -1053.811874
  endloop
 endfacet
 facet normal 0.884953 -0.442289 0.145733
  outer loop
   vertex 3444.802582 44.000000 -2762.383388
   vertex 3163.202582 44.000000 -1052.383388
   vertex 3158.179079 33.676142 -1053.210650
  endloop
 endfacet
 facet normal 0.884953 -0.442289 0.145733
  outer loop
   vertex 3439.779079 33.676142 -2763.210650
   vertex 3444.802582 44.000000 -2762.383388
   vertex 3158.179079 33.676142 -1053.210650
  endloop
 endfacet
 facet normal 0.820420 -0.555570 0.135105
  outer loop
   vertex 3451.112733 53.571006 -2761.344242
   vertex 3169.512733 53.571006 -1051.344242
   vertex 3163.202582 44.000000 -1052.383388
  endloop
 endfacet
 facet normal 0.820420 -0.555570 0.135105
  outer loop
   vertex 3444.802582 44.000000 -2762.383388
   vertex 3451.112733 53.571006 -2761.344242
   vertex 3163.202582 44.000000 -1052.383388
  endloop
 endfacet
 facet normal 0.741848 -0.659346 0.122166
  outer loop
   vertex 3458.601565 62.225397 -2760.110994
   vertex 3177.001565 62.225397 -1050.110994
   vertex 3169.512733 53.571006 -1051.344242
  endloop
 endfacet
 facet normal 0.741848 -0.659346 0.122166
  outer loop
   vertex 3451.112733 53.571006 -2761.344242
   vertex 3458.601565 62.225397 -2760.110994
   vertex 3169.512733 53.571006 -1051.344242
  endloop
 endfacet
 facet normal 0.650583 -0.751840 0.107137
  outer loop
   vertex 3467.140941 69.815094 -2758.704743
   vertex 3185.540941 69.815094 -1048.704743
   vertex 3177.001565 62.225397 -1050.110994
  endloop
 endfacet
 facet normal 0.650583 -0.751840 0.107137
  outer loop
   vertex 3458.601565 62.225397 -2760.110994
   vertex 3467.140941 69.815094 -2758.704743
   vertex 3177.001565 62.225397 -1050.110994
  endloop
 endfacet
 facet normal 0.548187 -0.831470 0.090275
  outer loop
   vertex 3476.584750 76.210236 -2757.149552
   vertex 3194.984750 76.210236 -1047.149552
   vertex 3185.540941 69.815094 -1048.704743
  endloop
 endfacet
 facet normal 0.548187 -0.831470 0.090275
  outer loop
   vertex 3467.140941 69.815094 -2758.704743
   vertex 3476.584750 76.210236 -2757.149552
   vertex 3185.540941 69.815094 -1048.704743
  endloop
 endfacet
 facet normal 0.436411 -0.896873 0.071867
  outer loop
   vertex 3486.771406 81.301399 -2755.472030
   vertex 3205.171406 81.301399 -1045.472030
   vertex 3194.984750 76.210236 -1047.149552
  endloop
 endfacet
 facet normal 0.436411 -0.896873 0.071867
  outer loop
   vertex 3476.584750 76.210236 -2757.149552
   vertex 3486.771406 81.301399 -2755.472030
   vertex 3194.984750 76.210236 -1047.149552
  endloop
 endfacet
 facet normal 0.317168 -0.946930 0.052231
  outer loop
   vertex 3497.526613 85.001473 -2753.700881
   vertex 3215.926613 85.001473 -1043.700881
   vertex 3205.171406 81.301399 -1045.472030
  endloop
 endfacet
 facet normal 0.317168 -0.946930 0.052231
  outer loop
   vertex 3486.771406 81.301399 -2755.472030
   vertex 3497.526613 85.001473 -2753.700881
   vertex 3205.171406 81.301399 -1045.472030
  endloop
 endfacet
 facet normal 0.192498 -0.980785 0.031700
  outer loop
   vertex 3508.666346 87.247148 -2751.866408
   vertex 3227.066346 87.247148 -1041.866408
   vertex 3215.926613 85.001473 -1043.700881
  endloop
 endfacet
 facet normal 0.192498 -0.980785 0.031700
  outer loop
   vertex 3497.526613 85.001473 -2753.700881
   vertex 3508.666346 87.247148 -2751.866408
   vertex 3215.926613 85.001473 -1043.700881
  endloop
 endfacet
 facet normal 0.064534 -0.997859 0.010627
  outer loop
   vertex 3520.000000 88.000000 -2750.000000
   vertex 3238.400000 88.000000 -1040.000000
   vertex 3227.066346 87.247148 -1041.866408
  endloop
 endfacet
 facet normal 0.064534 -0.997859 0.010627
  outer loop
   vertex 3508.666346 87.247148 -2751.866408
   vertex 3520.000000 88.000000 -2750.000000
   vertex 3227.066346 87.247148 -1041.866408
  endloop
 endfacet
endsolid SIC_RP1_feed_1_drop
