solid SIC_LOX_feed_4_drop
 facet normal 0.065203 0.987930 0.140508
  outer loop
   vertex 1619.210323 2903.546782 -956.426395
   vertex 1632.223042 2902.560763 -955.532156
   vertex 1773.023940 3146.427917 -2735.532156
  endloop
 endfacet
 facet normal 0.065203 0.987930 0.140508
  outer loop
   vertex 1619.210323 2903.546782 -956.426395
   vertex 1773.023940 3146.427917 -2735.532156
   vertex 1760.011220 3147.413937 -2736.426395
  endloop
 endfacet
 facet normal 0.194494 0.969639 0.148229
  outer loop
   vertex 1632.223042 2902.560763 -955.532156
   vertex 1645.013111 2899.896422 -954.885466
   vertex 1785.814009 3143.763576 -2734.885466
  endloop
 endfacet
 facet normal 0.194494 0.969639 0.148229
  outer loop
   vertex 1632.223042 2902.560763 -955.532156
   vertex 1785.814009 3143.763576 -2734.885466
   vertex 1773.023940 3146.427917 -2735.532156
  endloop
 endfacet
 facet normal 0.320457 0.934757 0.153414
  outer loop
   vertex 1645.013111 2899.896422 -954.885466
   vertex 1657.361687 2895.599347 -954.497390
   vertex 1798.162584 3139.466502 -2734.497390
  endloop
 endfacet
 facet normal 0.320457 0.934757 0.153414
  outer loop
   vertex 1645.013111 2899.896422 -954.885466
   vertex 1798.162584 3139.466502 -2734.497390
   vertex 1785.814009 3143.763576 -2734.885466
  endloop
 endfacet
 facet normal 0.440937 0.883882 0.155974
  outer loop
   vertex 1657.361687 2895.599347 -954.497390
   vertex 1669.057482 2889.743063 -954.374568
   vertex 1809.858379 3133.610218 -2734.374568
  endloop
 endfacet
 facet normal 0.440937 0.883882 0.155974
  outer loop
   vertex 1657.361687 2895.599347 -954.497390
   vertex 1809.858379 3133.610218 -2734.374568
   vertex 1798.162584 3139.466502 -2734.497390
  endloop
 endfacet
 facet normal 0.553872 0.817883 0.155865
  outer loop
   vertex 1669.057482 2889.743063 -954.374568
   vertex 1679.900378 2882.427772 -954.519102
   vertex 1820.701276 3126.294927 -2734.519102
  endloop
 endfacet
 facet normal 0.553872 0.817883 0.155865
  outer loop
   vertex 1669.057482 2889.743063 -954.374568
   vertex 1820.701276 3126.294927 -2734.519102
   vertex 1809.858379 3133.610218 -2734.374568
  endloop
 endfacet
 facet normal 0.657330 0.737889 0.153090
  outer loop
   vertex 1679.900378 2882.427772 -954.519102
   vertex 1689.704851 2873.778642 -954.928518
   vertex 1830.505749 3117.645796 -2734.928518
  endloop
 endfacet
 facet normal 0.657330 0.737889 0.153090
  outer loop
   vertex 1679.900378 2882.427772 -954.519102
   vertex 1830.505749 3117.645796 -2734.928518
   vertex 1820.701276 3126.294927 -2734.519102
  endloop
 endfacet
 facet normal 0.749542 0.645270 0.147695
  outer loop
   vertex 1689.704851 2873.778642 -954.928518
   vertex 1698.303143 2863.943660 -955.595811
   vertex 1839.104041 3107.810814 -2735.595811
  endloop
 endfacet
 facet normal 0.749542 0.645270 0.147695
  outer loop
   vertex 1689.704851 2873.778642 -954.928518
   vertex 1839.104041 3107.810814 -2735.595811
   vertex 1830.505749 3117.645796 -2734.928518
  endloop
 endfacet
 facet normal 0.828928 0.541611 0.139772
  outer loop
   vertex 1698.303143 2863.943660 -955.595811
   vertex 1705.548135 2853.091106 -956.509564
   vertex 1846.349032 3096.958261 -2736.509564
  endloop
 endfacet
 facet normal 0.828928 0.541611 0.139772
  outer loop
   vertex 1698.303143 2863.943660 -955.595811
   vertex 1846.349032 3096.958261 -2736.509564
   vertex 1839.104041 3107.810814 -2735.595811
  endloop
 endfacet
 facet normal 0.894131 0.428684 0.129459
  outer loop
   vertex 1705.548135 2853.091106 -956.509564
   vertex 1711.315863 2841.406671 -957.654142
   vertex 1852.116760 3085.273825 -2737.654142
  endloop
 endfacet
 facet normal 0.894131 0.428684 0.129459
  outer loop
   vertex 1705.548135 2853.091106 -956.509564
   vertex 1852.116760 3085.273825 -2737.654142
   vertex 1846.349032 3096.958261 -2736.509564
  endloop
 endfacet
 facet normal 0.944036 0.308422 0.116930
  outer loop
   vertex 1711.315863 2841.406671 -957.654142
   vertex 1715.507639 2829.090278 -959.009961
   vertex 1856.308537 3072.957432 -2739.009961
  endloop
 endfacet
 facet normal 0.944036 0.308422 0.116930
  outer loop
   vertex 1711.315863 2841.406671 -957.654142
   vertex 1856.308537 3072.957432 -2739.009961
   vertex 1852.116760 3085.273825 -2737.654142
  endloop
 endfacet
 facet normal 0.977787 0.182883 0.102400
  outer loop
   vertex 1715.507639 2829.090278 -959.009961
   vertex 1718.051742 2816.352664 -960.553822
   vertex 1858.852640 3060.219819 -2740.553822
  endloop
 endfacet
 facet normal 0.977787 0.182883 0.102400
  outer loop
   vertex 1715.507639 2829.090278 -959.009961
   vertex 1858.852640 3060.219819 -2740.553822
   vertex 1856.308537 3072.957432 -2739.009961
  endloop
 endfacet
 facet normal 0.994809 0.054215 0.086119
  outer loop
   vertex 1718.051742 2816.352664 -960.553822
   vertex 1718.904641 2803.411773 -962.259311
   vertex 1859.705538 3047.278928 -2742.259311
  endloop
 endfacet
 facet normal 0.994809 0.054215 0.086119
  outer loop
   vertex 1718.051742 2816.352664 -960.553822
   vertex 1859.705538 3047.278928 -2742.259311
   vertex 1858.852640 3060.219819 -2740.553822
  endloop
 endfacet
 facet normal 0.994809 -0.075380 0.068364
  outer loop
   vertex 1718.904641 2803.411773 -962.259311
   vertex 1718.051742 2790.489029 -964.097244
   vertex 1858.852640 3034.356183 -2744.097244
  endloop
 endfacet
 facet normal 0.994809 -0.075380 0.068364
  outer loop
   vertex 1718.904641 2803.411773 -962.259311
   vertex 1858.852640 3034.356183 -2744.097244
   vertex 1859.705538 3047.278928 -2742.259311
  endloop
 endfacet
 facet normal 0.977787 -0.203686 0.049439
  outer loop
   vertex 1718.051742 2790.489029 -964.097244
   vertex 1715.507639 2777.805541 -966.036176
   vertex 1856.308537 3021.672696 -2746.036176
  endloop
 endfacet
 facet normal 0.977787 -0.203686 0.049439
  outer loop
   vertex 1718.051742 2790.489029 -964.097244
   vertex 1856.308537 3021.672696 -2746.036176
   vertex 1858.852640 3034.356183 -2744.097244
  endloop
 endfacet
 facet normal 0.944036 -0.328507 0.029668
  outer loop
   vertex 1715.507639 2777.805541 -966.036176
   vertex 1711.315863 2765.578329 -968.042929
   vertex 1852.116760 3009.445483 -2748.042929
  endloop
 endfacet
 facet normal 0.944036 -0.328507 0.029668
  outer loop
   vertex 1715.507639 2777.805541 -966.036176
   vertex 1852.116760 3009.445483 -2748.042929
   vertex 1856.308537 3021.672696 -2746.036176
  endloop
 endfacet
 facet normal 0.894131 -0.447707 0.009390
  outer loop
   vertex 1711.315863 2765.578329 -968.042929
   vertex 1705.548135 2754.016602 -970.083169
   vertex 1846.349032 2997.883757 -2750.083169
  endloop
 endfacet
 facet normal 0.894131 -0.447707 0.009390
  outer loop
   vertex 1711.315863 2765.578329 -968.042929
   vertex 1846.349032 2997.883757 -2750.083169
   vertex 1852.116760 3009.445483 -2748.042929
  endloop
 endfacet
 facet normal 0.828928 -0.559246 -0.011049
  outer loop
   vertex 1705.548135 2754.016602 -970.083169
   vertex 1698.303143 2743.318187 -972.121986
   vertex 1839.104041 2987.185342 -2752.121986
  endloop
 endfacet
 facet normal 0.828928 -0.559246 -0.011049
  outer loop
   vertex 1705.548135 2754.016602 -970.083169
   vertex 1839.104041 2987.185342 -2752.121986
   vertex 1846.349032 2997.883757 -2750.083169
  endloop
 endfacet
 facet normal 0.749542 -0.661217 -0.031299
  outer loop
   vertex 1698.303143 2743.318187 -972.121986
   vertex 1689.704851 2733.666135 -974.124494
   vertex 1830.505749 2977.533290 -2754.124494
  endloop
 endfacet
 facet normal 0.749542 -0.661217 -0.031299
  outer loop
   vertex 1698.303143 2743.318187 -972.121986
   vertex 1830.505749 2977.533290 -2754.124494
   vertex 1839.104041 2987.185342 -2752.121986
  endloop
 endfacet
 facet normal 0.657330 -0.751874 -0.051014
  outer loop
   vertex 1689.704851 2733.666135 -974.124494
   vertex 1679.900378 2725.225596 -976.056432
   vertex 1820.701276 2969.092751 -2756.056432
  endloop
 endfacet
 facet normal 0.657330 -0.751874 -0.051014
  outer loop
   vertex 1689.704851 2733.666135 -974.124494
   vertex 1820.701276 2969.092751 -2756.056432
   vertex 1830.505749 2977.533290 -2754.124494
  endloop
 endfacet
 facet normal 0.553872 -0.829666 -0.069855
  outer loop
   vertex 1679.900378 2725.225596 -976.056432
   vertex 1669.057482 2718.140989 -977.884742
   vertex 1809.858379 2962.008144 -2757.884742
  endloop
 endfacet
 facet normal 0.553872 -0.829666 -0.069855
  outer loop
   vertex 1679.900378 2725.225596 -976.056432
   vertex 1809.858379 2962.008144 -2757.884742
   vertex 1820.701276 2969.092751 -2756.056432
  endloop
 endfacet
 facet normal 0.440937 -0.893263 -0.087502
  outer loop
   vertex 1669.057482 2718.140989 -977.884742
   vertex 1657.361687 2712.533535 -979.578142
   vertex 1798.162584 2956.400690 -2759.578142
  endloop
 endfacet
 facet normal 0.440937 -0.893263 -0.087502
  outer loop
   vertex 1669.057482 2718.140989 -977.884742
   vertex 1798.162584 2956.400690 -2759.578142
   vertex 1809.858379 2962.008144 -2757.884742
  endloop
 endfacet
 facet normal 0.320457 -0.941575 -0.103651
  outer loop
   vertex 1657.361687 2712.533535 -979.578142
   vertex 1645.013111 2708.499178 -981.107658
   vertex 1785.814009 2952.366333 -2761.107658
  endloop
 endfacet
 facet normal 0.320457 -0.941575 -0.103651
  outer loop
   vertex 1657.361687 2712.533535 -979.578142
   vertex 1785.814009 2952.366333 -2761.107658
   vertex 1798.162584 2956.400690 -2759.578142
  endloop
 endfacet
 facet normal 0.194494 -0.973777 -0.118027
  outer loop
   vertex 1645.013111 2708.499178 -981.107658
   vertex 1632.223042 2706.106948 -982.447118
   vertex 1773.023940 2949.974103 -2762.447118
  endloop
 endfacet
 facet normal 0.194494 -0.973777 -0.118027
  outer loop
   vertex 1645.013111 2708.499178 -981.107658
   vertex 1773.023940 2949.974103 -2762.447118
   vertex 1785.814009 2952.366333 -2761.107658
  endloop
 endfacet
 facet normal 0.065203 -0.989317 -0.130383
  outer loop
   vertex 1632.223042 2706.106948 -982.447118
   vertex 1619.210323 2705.397775 -983.573605
   vertex 1760.011220 2949.264930 -2763.573605
  endloop
 endfacet
 facet normal 0.065203 -0.989317 -0.130383
  outer loop
   vertex 1632.223042 2706.106948 -982.447118
   vertex 1760.011220 2949.264930 -2763.573605
   vertex 1773.023940 2949.974103 -2762.447118
  endloop
 endfacet
 facet normal -0.065203 -0.987930 -0.140508
  outer loop
   vertex 1619.210323 2705.397775 -983.573605
   vertex 1606.197603 2706.383795 -984.467844
   vertex 1746.998501 2950.250950 -2764.467844
  endloop
 endfacet
 facet normal -0.065203 -0.987930 -0.140508
  outer loop
   vertex 1619.210323 2705.397775 -983.573605
   vertex 1746.998501 2950.250950 -2764.467844
   vertex 1760.011220 2949.264930 -2763.573605
  endloop
 endfacet
 facet normal -0.194494 -0.969639 -0.148229
  outer loop
   vertex 1606.197603 2706.383795 -984.467844
   vertex 1593.407535 2709.048136 -985.114534
   vertex 1734.208432 2952.915291 -2765.114534
  endloop
 endfacet
 facet normal -0.194494 -0.969639 -0.148229
  outer loop
   vertex 1606.197603 2706.383795 -984.467844
   vertex 1734.208432 2952.915291 -2765.114534
   vertex 1746.998501 2950.250950 -2764.467844
  endloop
 endfacet
 facet normal -0.320457 -0.934757 -0.153414
  outer loop
   vertex 1593.407535 2709.048136 -985.114534
   vertex 1581.058959 2713.345211 -985.502610
   vertex 1721.859857 2957.212366 -2765.502610
  endloop
 endfacet
 facet normal -0.320457 -0.934757 -0.153414
  outer loop
   vertex 1593.407535 2709.048136 -985.114534
   vertex 1721.859857 2957.212366 -2765.502610
   vertex 1734.208432 2952.915291 -2765.114534
  endloop
 endfacet
 facet normal -0.440937 -0.883882 -0.155974
  outer loop
   vertex 1581.058959 2713.345211 -985.502610
   vertex 1569.363164 2719.201495 -985.625432
   vertex 1710.164061 2963.068650 -2765.625432
  endloop
 endfacet
 facet normal -0.440937 -0.883882 -0.155974
  outer loop
   vertex 1581.058959 2713.345211 -985.502610
   vertex 1710.164061 2963.068650 -2765.625432
   vertex 1721.859857 2957.212366 -2765.502610
  endloop
 endfacet
 facet normal -0.553872 -0.817883 -0.155865
  outer loop
   vertex 1569.363164 2719.201495 -985.625432
   vertex 1558.520267 2726.516786 -985.480898
   vertex 1699.321165 2970.383940 -2765.480898
  endloop
 endfacet
 facet normal -0.553872 -0.817883 -0.155865
  outer loop
   vertex 1569.363164 2719.201495 -985.625432
   vertex 1699.321165 2970.383940 -2765.480898
   vertex 1710.164061 2963.068650 -2765.625432
  endloop
 endfacet
 facet normal -0.657330 -0.737889 -0.153090
  outer loop
   vertex 1558.520267 2726.516786 -985.480898
   vertex 1548.715794 2735.165916 -985.071482
   vertex 1689.516692 2979.033071 -2765.071482
  endloop
 endfacet
 facet normal -0.657330 -0.737889 -0.153090
  outer loop
   vertex 1558.520267 2726.516786 -985.480898
   vertex 1689.516692 2979.033071 -2765.071482
   vertex 1699.321165 2970.383940 -2765.480898
  endloop
 endfacet
 facet normal -0.749542 -0.645270 -0.147695
  outer loop
   vertex 1548.715794 2735.165916 -985.071482
   vertex 1540.117502 2745.000898 -984.404189
   vertex 1680.918400 2988.868053 -2764.404189
  endloop
 endfacet
 facet normal -0.749542 -0.645270 -0.147695
  outer loop
   vertex 1548.715794 2735.165916 -985.071482
   vertex 1680.918400 2988.868053 -2764.404189
   vertex 1689.516692 2979.033071 -2765.071482
  endloop
 endfacet
 facet normal -0.828928 -0.541611 -0.139772
  outer loop
   vertex 1540.117502 2745.000898 -984.404189
   vertex 1532.872511 2755.853452 -983.490436
   vertex 1673.673408 2999.720607 -2763.490436
  endloop
 endfacet
 facet normal -0.828928 -0.541611 -0.139772
  outer loop
   vertex 1540.117502 2745.000898 -984.404189
   vertex 1673.673408 2999.720607 -2763.490436
   vertex 1680.918400 2988.868053 -2764.404189
  endloop
 endfacet
 facet normal -0.894131 -0.428684 -0.129459
  outer loop
   vertex 1532.872511 2755.853452 -983.490436
   vertex 1527.104783 2767.537887 -982.345858
   vertex 1667.905680 3011.405042 -2762.345858
  endloop
 endfacet
 facet normal -0.894131 -0.428684 -0.129459
  outer loop
   vertex 1532.872511 2755.853452 -983.490436
   vertex 1667.905680 3011.405042 -2762.345858
   vertex 1673.673408 2999.720607 -2763.490436
  endloop
 endfacet
 facet normal -0.944036 -0.308422 -0.116930
  outer loop
   vertex 1527.104783 2767.537887 -982.345858
   vertex 1522.913006 2779.854280 -980.990039
   vertex 1663.713904 3023.721435 -2760.990039
  endloop
 endfacet
 facet normal -0.944036 -0.308422 -0.116930
  outer loop
   vertex 1527.104783 2767.537887 -982.345858
   vertex 1663.713904 3023.721435 -2760.990039
   vertex 1667.905680 3011.405042 -2762.345858
  endloop
 endfacet
 facet normal -0.977787 -0.182883 -0.102400
  outer loop
   vertex 1522.913006 2779.854280 -980.990039
   vertex 1520.368903 2792.591894 -979.446178
   vertex 1661.169801 3036.459049 -2759.446178
  endloop
 endfacet
 facet normal -0.977787 -0.182883 -0.102400
  outer loop
   vertex 1522.913006 2779.854280 -980.990039
   vertex 1661.169801 3036.459049 -2759.446178
   vertex 1663.713904 3023.721435 -2760.990039
  endloop
 endfacet
 facet normal -0.994809 -0.054215 -0.086119
  outer loop
   vertex 1520.368903 2792.591894 -979.446178
   vertex 1519.516005 2805.532785 -977.740689
   vertex 1660.316902 3049.399939 -2757.740689
  endloop
 endfacet
 facet normal -0.994809 -0.054215 -0.086119
  outer loop
   vertex 1520.368903 2792.591894 -979.446178
   vertex 1660.316902 3049.399939 -2757.740689
   vertex 1661.169801 3036.459049 -2759.446178
  endloop
 endfacet
 facet normal -0.994809 0.075380 -0.068364
  outer loop
   vertex 1519.516005 2805.532785 -977.740689
   vertex 1520.368903 2818.455529 -975.902756
   vertex 1661.169801 3062.322684 -2755.902756
  endloop
 endfacet
 facet normal -0.994809 0.075380 -0.068364
  outer loop
   vertex 1519.516005 2805.532785 -977.740689
   vertex 1661.169801 3062.322684 -2755.902756
   vertex 1660.316902 3049.399939 -2757.740689
  endloop
 endfacet
 facet normal -0.977787 0.203686 -0.049439
  outer loop
   vertex 1520.368903 2818.455529 -975.902756
   vertex 1522.913006 2831.139017 -973.963824
   vertex 1663.713904 3075.006172 -2753.963824
  endloop
 endfacet
 facet normal -0.977787 0.203686 -0.049439
  outer loop
   vertex 1520.368903 2818.455529 -975.902756
   vertex 1663.713904 3075.006172 -2753.963824
   vertex 1661.169801 3062.322684 -2755.902756
  endloop
 endfacet
 facet normal -0.944036 0.328507 -0.029668
  outer loop
   vertex 1522.913006 2831.139017 -973.963824
   vertex 1527.104783 2843.366229 -971.957071
   vertex 1667.905680 3087.233384 -2751.957071
  endloop
 endfacet
 facet normal -0.944036 0.328507 -0.029668
  outer loop
   vertex 1522.913006 2831.139017 -973.963824
   vertex 1667.905680 3087.233384 -2751.957071
   vertex 1663.713904 3075.006172 -2753.963824
  endloop
 endfacet
 facet normal -0.894131 0.447707 -0.009390
  outer loop
   vertex 1527.104783 2843.366229 -971.957071
   vertex 1532.872511 2854.927955 -969.916831
   vertex 1673.673408 3098.795110 -2749.916831
  endloop
 endfacet
 facet normal -0.894131 0.447707 -0.009390
  outer loop
   vertex 1527.104783 2843.366229 -971.957071
   vertex 1673.673408 3098.795110 -2749.916831
   vertex 1667.905680 3087.233384 -2751.957071
  endloop
 endfacet
 facet normal -0.828928 0.559246 0.011049
  outer loop
   vertex 1532.872511 2854.927955 -969.916831
   vertex 1540.117502 2865.626371 -967.878014
   vertex 1680.918400 3109.493526 -2747.878014
  endloop
 endfacet
 facet normal -0.828928 0.559246 0.011049
  outer loop
   vertex 1532.872511 2854.927955 -969.916831
   vertex 1680.918400 3109.493526 -2747.878014
   vertex 1673.673408 3098.795110 -2749.916831
  endloop
 endfacet
 facet normal -0.749542 0.661217 0.031299
  outer loop
   vertex 1540.117502 2865.626371 -967.878014
   vertex 1548.715794 2875.278423 -965.875506
   vertex 1689.516692 3119.145578 -2745.875506
  endloop
 endfacet
 facet normal -0.749542 0.661217 0.031299
  outer loop
   vertex 1540.117502 2865.626371 -967.878014
   vertex 1689.516692 3119.145578 -2745.875506
   vertex 1680.918400 3109.493526 -2747.878014
  endloop
 endfacet
 facet normal -0.657330 0.751874 0.051014
  outer loop
   vertex 1548.715794 2875.278423 -965.875506
   vertex 1558.520267 2883.718962 -963.943568
   vertex 1699.321165 3127.586117 -2743.943568
  endloop
 endfacet
 facet normal -0.657330 0.751874 0.051014
  outer loop
   vertex 1548.715794 2875.278423 -965.875506
   vertex 1699.321165 3127.586117 -2743.943568
   vertex 1689.516692 3119.145578 -2745.875506
  endloop
 endfacet
 facet normal -0.553872 0.829666 0.069855
  outer loop
   vertex 1558.520267 2883.718962 -963.943568
   vertex 1569.363164 2890.803569 -962.115258
   vertex 1710.164061 3134.670723 -2742.115258
  endloop
 endfacet
 facet normal -0.553872 0.829666 0.069855
  outer loop
   vertex 1558.520267 2883.718962 -963.943568
   vertex 1710.164061 3134.670723 -2742.115258
   vertex 1699.321165 3127.586117 -2743.943568
  endloop
 endfacet
 facet normal -0.440937 0.893263 0.087502
  outer loop
   vertex 1569.363164 2890.803569 -962.115258
   vertex 1581.058959 2896.411023 -960.421858
   vertex 1721.859857 3140.278178 -2740.421858
  endloop
 endfacet
 facet normal -0.440937 0.893263 0.087502
  outer loop
   vertex 1569.363164 2890.803569 -962.115258
   vertex 1721.859857 3140.278178 -2740.421858
   vertex 1710.164061 3134.670723 -2742.115258
  endloop
 endfacet
 facet normal -0.320457 0.941575 0.103651
  outer loop
   vertex 1581.058959 2896.411023 -960.421858
   vertex 1593.407535 2900.445380 -958.892342
   vertex 1734.208432 3144.312534 -2738.892342
  endloop
 endfacet
 facet normal -0.320457 0.941575 0.103651
  outer loop
   vertex 1581.058959 2896.411023 -960.421858
   vertex 1734.208432 3144.312534 -2738.892342
   vertex 1721.859857 3140.278178 -2740.421858
  endloop
 endfacet
 facet normal -0.194494 0.973777 0.118027
  outer loop
   vertex 1593.407535 2900.445380 -958.892342
   vertex 1606.197603 2902.837610 -957.552882
   vertex 1746.998501 3146.704765 -2737.552882
  endloop
 endfacet
 facet normal -0.194494 0.973777 0.118027
  outer loop
   vertex 1593.407535 2900.445380 -958.892342
   vertex 1746.998501 3146.704765 -2737.552882
   vertex 1734.208432 3144.312534 -2738.892342
  endloop
 endfacet
 facet normal -0.065203 0.989317 0.130383
  outer loop
   vertex 1606.197603 2902.837610 -957.552882
   vertex 1619.210323 2903.546782 -956.426395
   vertex 1760.011220 3147.413937 -2736.426395
  endloop
 endfacet
 facet normal -0.065203 0.989317 0.130383
  outer loop
   vertex 1606.197603 2902.837610 -957.552882
   vertex 1760.011220 3147.413937 -2736.426395
   vertex 1746.998501 3146.704765 -2737.552882
  endloop
 endfacet
 facet normal -0.065203 -0.987930 -0.140508
  outer loop
   vertex 1771.462414 3134.657299 -2737.268297
   vertex 1630.661516 2890.790145 -957.268297
   vertex 1619.210323 2891.657842 -958.055227
  endloop
 endfacet
 facet normal -0.065203 -0.987930 -0.140508
  outer loop
   vertex 1760.011220 3135.524997 -2738.055227
   vertex 1771.462414 3134.657299 -2737.268297
   vertex 1619.210323 2891.657842 -958.055227
  endloop
 endfacet
 facet normal -0.194494 -0.969639 -0.148229
  outer loop
   vertex 1782.717674 3132.312679 -2736.699210
   vertex 1641.916776 2888.445524 -956.699210
   vertex 1630.661516 2890.790145 -957.268297
  endloop
 endfacet
 facet normal -0.194494 -0.969639 -0.148229
  outer loop
   vertex 1771.462414 3134.657299 -2737.268297
   vertex 1782.717674 3132.312679 -2736.699210
   vertex 1630.661516 2890.790145 -957.268297
  endloop
 endfacet
 facet normal -0.320457 -0.934757 -0.153414
  outer loop
   vertex 1793.584421 3128.531254 -2736.357704
   vertex 1652.783523 2884.664099 -956.357704
   vertex 1641.916776 2888.445524 -956.699210
  endloop
 endfacet
 facet normal -0.320457 -0.934757 -0.153414
  outer loop
   vertex 1782.717674 3132.312679 -2736.699210
   vertex 1793.584421 3128.531254 -2736.357704
   vertex 1641.916776 2888.445524 -956.699210
  endloop
 endfacet
 facet normal -0.440937 -0.883882 -0.155974
  outer loop
   vertex 1803.876720 3123.377724 -2736.249620
   vertex 1663.075823 2879.510569 -956.249620
   vertex 1652.783523 2884.664099 -956.357704
  endloop
 endfacet
 facet normal -0.440937 -0.883882 -0.155974
  outer loop
   vertex 1793.584421 3128.531254 -2736.357704
   vertex 1803.876720 3123.377724 -2736.249620
   vertex 1652.783523 2884.664099 -956.357704
  endloop
 endfacet
 facet normal -0.553872 -0.817883 -0.155865
  outer loop
   vertex 1813.418469 3116.940268 -2736.376810
   vertex 1672.617572 2873.073113 -956.376810
   vertex 1663.075823 2879.510569 -956.249620
  endloop
 endfacet
 facet normal -0.553872 -0.817883 -0.155865
  outer loop
   vertex 1803.876720 3123.377724 -2736.249620
   vertex 1813.418469 3116.940268 -2736.376810
   vertex 1663.075823 2879.510569 -956.249620
  endloop
 endfacet
 facet normal -0.657330 -0.737889 -0.153090
  outer loop
   vertex 1822.046405 3109.329033 -2736.737096
   vertex 1681.245508 2865.461878 -956.737096
   vertex 1672.617572 2873.073113 -956.376810
  endloop
 endfacet
 facet normal -0.657330 -0.737889 -0.153090
  outer loop
   vertex 1813.418469 3116.940268 -2736.376810
   vertex 1822.046405 3109.329033 -2736.737096
   vertex 1672.617572 2873.073113 -956.376810
  endloop
 endfacet
 facet normal -0.749542 -0.645270 -0.147695
  outer loop
   vertex 1829.612902 3100.674249 -2737.324314
   vertex 1688.812005 2856.807094 -957.324314
   vertex 1681.245508 2865.461878 -956.737096
  endloop
 endfacet
 facet normal -0.749542 -0.645270 -0.147695
  outer loop
   vertex 1822.046405 3109.329033 -2736.737096
   vertex 1829.612902 3100.674249 -2737.324314
   vertex 1681.245508 2865.461878 -956.737096
  endloop
 endfacet
 facet normal -0.828928 -0.541611 -0.139772
  outer loop
   vertex 1835.988495 3091.124001 -2738.128416
   vertex 1695.187597 2847.256847 -958.128416
   vertex 1688.812005 2856.807094 -957.324314
  endloop
 endfacet
 facet normal -0.828928 -0.541611 -0.139772
  outer loop
   vertex 1829.612902 3100.674249 -2737.324314
   vertex 1835.988495 3091.124001 -2738.128416
   vertex 1688.812005 2856.807094 -957.324314
  endloop
 endfacet
 facet normal -0.894131 -0.428684 -0.129459
  outer loop
   vertex 1841.064096 3080.841698 -2739.135645
   vertex 1700.263198 2836.974544 -959.135645
   vertex 1695.187597 2847.256847 -958.128416
  endloop
 endfacet
 facet normal -0.894131 -0.428684 -0.129459
  outer loop
   vertex 1835.988495 3091.124001 -2738.128416
   vertex 1841.064096 3080.841698 -2739.135645
   vertex 1695.187597 2847.256847 -958.128416
  endloop
 endfacet
 facet normal -0.944036 -0.308422 -0.116930
  outer loop
   vertex 1844.752859 3070.003273 -2740.328765
   vertex 1703.951961 2826.136118 -960.328765
   vertex 1700.263198 2836.974544 -959.135645
  endloop
 endfacet
 facet normal -0.944036 -0.308422 -0.116930
  outer loop
   vertex 1841.064096 3080.841698 -2739.135645
   vertex 1844.752859 3070.003273 -2740.328765
   vertex 1700.263198 2836.974544 -959.135645
  endloop
 endfacet
 facet normal -0.977787 -0.182883 -0.102400
  outer loop
   vertex 1846.991669 3058.794172 -2741.687364
   vertex 1706.190772 2814.927018 -961.687364
   vertex 1703.951961 2826.136118 -960.328765
  endloop
 endfacet
 facet normal -0.977787 -0.182883 -0.102400
  outer loop
   vertex 1844.752859 3070.003273 -2740.328765
   vertex 1846.991669 3058.794172 -2741.687364
   vertex 1703.951961 2826.136118 -960.328765
  endloop
 endfacet
 facet normal -0.994809 -0.054215 -0.086119
  outer loop
   vertex 1847.742220 3047.406189 -2743.188193
   vertex 1706.941323 2803.539034 -963.188193
   vertex 1706.190772 2814.927018 -961.687364
  endloop
 endfacet
 facet normal -0.994809 -0.054215 -0.086119
  outer loop
   vertex 1846.991669 3058.794172 -2741.687364
   vertex 1847.742220 3047.406189 -2743.188193
   vertex 1706.190772 2814.927018 -961.687364
  endloop
 endfacet
 facet normal -0.994809 0.075380 -0.068364
  outer loop
   vertex 1846.991669 3036.034173 -2744.805575
   vertex 1706.190772 2792.167019 -964.805575
   vertex 1706.941323 2803.539034 -963.188193
  endloop
 endfacet
 facet normal -0.994809 0.075380 -0.068364
  outer loop
   vertex 1847.742220 3047.406189 -2743.188193
   vertex 1846.991669 3036.034173 -2744.805575
   vertex 1706.941323 2803.539034 -963.188193
  endloop
 endfacet
 facet normal -0.977787 0.203686 -0.049439
  outer loop
   vertex 1844.752859 3024.872704 -2746.511835
   vertex 1703.951961 2781.005549 -966.511835
   vertex 1706.190772 2792.167019 -964.805575
  endloop
 endfacet
 facet normal -0.977787 0.203686 -0.049439
  outer loop
   vertex 1846.991669 3036.034173 -2744.805575
   vertex 1844.752859 3024.872704 -2746.511835
   vertex 1706.190772 2792.167019 -964.805575
  endloop
 endfacet
 facet normal -0.944036 0.328507 -0.029668
  outer loop
   vertex 1841.064096 3014.112757 -2748.277778
   vertex 1700.263198 2770.245603 -968.277778
   vertex 1703.951961 2781.005549 -966.511835
  endloop
 endfacet
 facet normal -0.944036 0.328507 -0.029668
  outer loop
   vertex 1844.752859 3024.872704 -2746.511835
   vertex 1841.064096 3014.112757 -2748.277778
   vertex 1703.951961 2781.005549 -966.511835
  endloop
 endfacet
 facet normal -0.894131 0.447707 -0.009390
  outer loop
   vertex 1835.988495 3003.938438 -2750.073189
   vertex 1695.187597 2760.071284 -970.073189
   vertex 1700.263198 2770.245603 -968.277778
  endloop
 endfacet
 facet normal -0.894131 0.447707 -0.009390
  outer loop
   vertex 1841.064096 3014.112757 -2748.277778
   vertex 1835.988495 3003.938438 -2750.073189
   vertex 1700.263198 2770.245603 -968.277778
  endloop
 endfacet
 facet normal -0.828928 0.559246 0.011049
  outer loop
   vertex 1829.612902 2994.523833 -2751.867347
   vertex 1688.812005 2750.656678 -971.867347
   vertex 1695.187597 2760.071284 -970.073189
  endloop
 endfacet
 facet normal -0.828928 0.559246 0.011049
  outer loop
   vertex 1835.988495 3003.938438 -2750.073189
   vertex 1829.612902 2994.523833 -2751.867347
   vertex 1695.187597 2760.071284 -970.073189
  endloop
 endfacet
 facet normal -0.749542 0.661217 0.031299
  outer loop
   vertex 1822.046405 2986.030027 -2753.629555
   vertex 1681.245508 2742.162872 -973.629555
   vertex 1688.812005 2750.656678 -971.867347
  endloop
 endfacet
 facet normal -0.749542 0.661217 0.031299
  outer loop
   vertex 1829.612902 2994.523833 -2751.867347
   vertex 1822.046405 2986.030027 -2753.629555
   vertex 1688.812005 2750.656678 -971.867347
  endloop
 endfacet
 facet normal -0.657330 0.751874 0.051014
  outer loop
   vertex 1813.418469 2978.602353 -2755.329660
   vertex 1672.617572 2734.735198 -975.329660
   vertex 1681.245508 2742.162872 -973.629555
  endloop
 endfacet
 facet normal -0.657330 0.751874 0.051014
  outer loop
   vertex 1822.046405 2986.030027 -2753.629555
   vertex 1813.418469 2978.602353 -2755.329660
   vertex 1681.245508 2742.162872 -973.629555
  endloop
 endfacet
 facet normal -0.553872 0.829666 0.069855
  outer loop
   vertex 1803.876720 2972.367899 -2756.938573
   vertex 1663.075823 2728.500744 -976.938573
   vertex 1672.617572 2734.735198 -975.329660
  endloop
 endfacet
 facet normal -0.553872 0.829666 0.069855
  outer loop
   vertex 1813.418469 2978.602353 -2755.329660
   vertex 1803.876720 2972.367899 -2756.938573
   vertex 1672.617572 2734.735198 -975.329660
  endloop
 endfacet
 facet normal -0.440937 0.893263 0.087502
  outer loop
   vertex 1793.584421 2967.433339 -2758.428765
   vertex 1652.783523 2723.566184 -978.428765
   vertex 1663.075823 2728.500744 -976.938573
  endloop
 endfacet
 facet normal -0.440937 0.893263 0.087502
  outer loop
   vertex 1803.876720 2972.367899 -2756.938573
   vertex 1793.584421 2967.433339 -2758.428765
   vertex 1663.075823 2728.500744 -976.938573
  endloop
 endfacet
 facet normal -0.320457 0.941575 0.103651
  outer loop
   vertex 1782.717674 2963.883105 -2759.774739
   vertex 1641.916776 2720.015950 -979.774739
   vertex 1652.783523 2723.566184 -978.428765
  endloop
 endfacet
 facet normal -0.320457 0.941575 0.103651
  outer loop
   vertex 1793.584421 2967.433339 -2758.428765
   vertex 1782.717674 2963.883105 -2759.774739
   vertex 1652.783523 2723.566184 -978.428765
  endloop
 endfacet
 facet normal -0.194494 0.973777 0.118027
  outer loop
   vertex 1771.462414 2961.777942 -2760.953464
   vertex 1630.661516 2717.910788 -980.953464
   vertex 1641.916776 2720.015950 -979.774739
  endloop
 endfacet
 facet normal -0.194494 0.973777 0.118027
  outer loop
   vertex 1782.717674 2963.883105 -2759.774739
   vertex 1771.462414 2961.777942 -2760.953464
   vertex 1641.916776 2720.015950 -979.774739
  endloop
 endfacet
 facet normal -0.065203 0.989317 0.130383
  outer loop
   vertex 1760.011220 2961.153871 -2761.944773
   vertex 1619.210323 2717.286716 -981.944773
   vertex 1630.661516 2717.910788 -980.953464
  endloop
 endfacet
 facet normal -0.065203 0.989317 0.130383
  outer loop
   vertex 1771.462414 2961.777942 -2760.953464
   vertex 1760.011220 2961.153871 -2761.944773
   vertex 1630.661516 2717.910788 -980.953464
  endloop
 endfacet
 facet normal 0.065203 0.987930 0.140508
  outer loop
   vertex 1748.560027 2962.021568 -2762.731703
   vertex 1607.759129 2718.154413 -982.731703
   vertex 1619.210323 2717.286716 -981.944773
  endloop
 endfacet
 facet normal 0.065203 0.987930 0.140508
  outer loop
   vertex 1760.011220 2961.153871 -2761.944773
   vertex 1748.560027 2962.021568 -2762.731703
   vertex 1619.210323 2717.286716 -981.944773
  endloop
 endfacet
 facet normal 0.194494 0.969639 0.148229
  outer loop
   vertex 1737.304767 2964.366188 -2763.300790
   vertex 1596.503869 2720.499033 -983.300790
   vertex 1607.759129 2718.154413 -982.731703
  endloop
 endfacet
 facet normal 0.194494 0.969639 0.148229
  outer loop
   vertex 1748.560027 2962.021568 -2762.731703
   vertex 1737.304767 2964.366188 -2763.300790
   vertex 1607.759129 2718.154413 -982.731703
  endloop
 endfacet
 facet normal 0.320457 0.934757 0.153414
  outer loop
   vertex 1726.438020 2968.147614 -2763.642296
   vertex 1585.637123 2724.280459 -983.642296
   vertex 1596.503869 2720.499033 -983.300790
  endloop
 endfacet
 facet normal 0.320457 0.934757 0.153414
  outer loop
   vertex 1737.304767 2964.366188 -2763.300790
   vertex 1726.438020 2968.147614 -2763.642296
   vertex 1596.503869 2720.499033 -983.300790
  endloop
 endfacet
 facet normal 0.440937 0.883882 0.155974
  outer loop
   vertex 1716.145720 2973.301144 -2763.750380
   vertex 1575.344823 2729.433989 -983.750380
   vertex 1585.637123 2724.280459 -983.642296
  endloop
 endfacet
 facet normal 0.440937 0.883882 0.155974
  outer loop
   vertex 1726.438020 2968.147614 -2763.642296
   vertex 1716.145720 2973.301144 -2763.750380
   vertex 1585.637123 2724.280459 -983.642296
  endloop
 endfacet
 facet normal 0.553872 0.817883 0.155865
  outer loop
   vertex 1706.603971 2979.738599 -2763.623190
   vertex 1565.803074 2735.871445 -983.623190
   vertex 1575.344823 2729.433989 -983.750380
  endloop
 endfacet
 facet normal 0.553872 0.817883 0.155865
  outer loop
   vertex 1716.145720 2973.301144 -2763.750380
   vertex 1706.603971 2979.738599 -2763.623190
   vertex 1575.344823 2729.433989 -983.750380
  endloop
 endfacet
 facet normal 0.657330 0.737889 0.153090
  outer loop
   vertex 1697.976035 2987.349835 -2763.262904
   vertex 1557.175138 2743.482680 -983.262904
   vertex 1565.803074 2735.871445 -983.623190
  endloop
 endfacet
 facet normal 0.657330 0.737889 0.153090
  outer loop
   vertex 1706.603971 2979.738599 -2763.623190
   vertex 1697.976035 2987.349835 -2763.262904
   vertex 1565.803074 2735.871445 -983.623190
  endloop
 endfacet
 facet normal 0.749542 0.645270 0.147695
  outer loop
   vertex 1690.409539 2996.004619 -2762.675686
   vertex 1549.608641 2752.137464 -982.675686
   vertex 1557.175138 2743.482680 -983.262904
  endloop
 endfacet
 facet normal 0.749542 0.645270 0.147695
  outer loop
   vertex 1697.976035 2987.349835 -2763.262904
   vertex 1690.409539 2996.004619 -2762.675686
   vertex 1557.175138 2743.482680 -983.262904
  endloop
 endfacet
 facet normal 0.828928 0.541611 0.139772
  outer loop
   vertex 1684.033946 3005.554866 -2761.871584
   vertex 1543.233048 2761.687711 -981.871584
   vertex 1549.608641 2752.137464 -982.675686
  endloop
 endfacet
 facet normal 0.828928 0.541611 0.139772
  outer loop
   vertex 1690.409539 2996.004619 -2762.675686
   vertex 1684.033946 3005.554866 -2761.871584
   vertex 1549.608641 2752.137464 -982.675686
  endloop
 endfacet
 facet normal 0.894131 0.428684 0.129459
  outer loop
   vertex 1678.958345 3015.837169 -2760.864355
   vertex 1538.157448 2771.970014 -980.864355
   vertex 1543.233048 2761.687711 -981.871584
  endloop
 endfacet
 facet normal 0.894131 0.428684 0.129459
  outer loop
   vertex 1684.033946 3005.554866 -2761.871584
   vertex 1678.958345 3015.837169 -2760.864355
   vertex 1543.233048 2761.687711 -981.871584
  endloop
 endfacet
 facet normal 0.944036 0.308422 0.116930
  outer loop
   vertex 1675.269582 3026.675595 -2759.671235
   vertex 1534.468684 2782.808440 -979.671235
   vertex 1538.157448 2771.970014 -980.864355
  endloop
 endfacet
 facet normal 0.944036 0.308422 0.116930
  outer loop
   vertex 1678.958345 3015.837169 -2760.864355
   vertex 1675.269582 3026.675595 -2759.671235
   vertex 1538.157448 2771.970014 -980.864355
  endloop
 endfacet
 facet normal 0.977787 0.182883 0.102400
  outer loop
   vertex 1673.030771 3037.884695 -2758.312636
   vertex 1532.229874 2794.017540 -978.312636
   vertex 1534.468684 2782.808440 -979.671235
  endloop
 endfacet
 facet normal 0.977787 0.182883 0.102400
  outer loop
   vertex 1675.269582 3026.675595 -2759.671235
   vertex 1673.030771 3037.884695 -2758.312636
   vertex 1534.468684 2782.808440 -979.671235
  endloop
 endfacet
 facet normal 0.994809 0.054215 0.086119
  outer loop
   vertex 1672.280220 3049.272679 -2756.811807
   vertex 1531.479323 2805.405524 -976.811807
   vertex 1532.229874 2794.017540 -978.312636
  endloop
 endfacet
 facet normal 0.994809 0.054215 0.086119
  outer loop
   vertex 1673.030771 3037.884695 -2758.312636
   vertex 1672.280220 3049.272679 -2756.811807
   vertex 1532.229874 2794.017540 -978.312636
  endloop
 endfacet
 facet normal 0.994809 -0.075380 0.068364
  outer loop
   vertex 1673.030771 3060.644694 -2755.194425
   vertex 1532.229874 2816.777539 -975.194425
   vertex 1531.479323 2805.405524 -976.811807
  endloop
 endfacet
 facet normal 0.994809 -0.075380 0.068364
  outer loop
   vertex 1672.280220 3049.272679 -2756.811807
   vertex 1673.030771 3060.644694 -2755.194425
   vertex 1531.479323 2805.405524 -976.811807
  endloop
 endfacet
 facet normal 0.977787 -0.203686 0.049439
  outer loop
   vertex 1675.269582 3071.806163 -2753.488165
   vertex 1534.468684 2827.939009 -973.488165
   vertex 1532.229874 2816.777539 -975.194425
  endloop
 endfacet
 facet normal 0.977787 -0.203686 0.049439
  outer loop
   vertex 1673.030771 3060.644694 -2755.194425
   vertex 1675.269582 3071.806163 -2753.488165
   vertex 1532.229874 2816.777539 -975.194425
  endloop
 endfacet
 facet normal 0.944036 -0.328507 0.029668
  outer loop
   vertex 1678.958345 3082.566110 -2751.722222
   vertex 1538.157448 2838.698955 -971.722222
   vertex 1534.468684 2827.939009 -973.488165
  endloop
 endfacet
 facet normal 0.944036 -0.328507 0.029668
  outer loop
   vertex 1675.269582 3071.806163 -2753.488165
   vertex 1678.958345 3082.566110 -2751.722222
   vertex 1534.468684 2827.939009 -973.488165
  endloop
 endfacet
 facet normal 0.894131 -0.447707 0.009390
  outer loop
   vertex 1684.033946 3092.740429 -2749.926811
   vertex 1543.233048 2848.873274 -969.926811
   vertex 1538.157448 2838.698955 -971.722222
  endloop
 endfacet
 facet normal 0.894131 -0.447707 0.009390
  outer loop
   vertex 1678.958345 3082.566110 -2751.722222
   vertex 1684.033946 3092.740429 -2749.926811
   vertex 1538.157448 2838.698955 -971.722222
  endloop
 endfacet
 facet normal 0.828928 -0.559246 -0.011049
  outer loop
   vertex 1690.409539 3102.155035 -2748.132653
   vertex 1549.608641 2858.287880 -968.132653
   vertex 1543.233048 2848.873274 -969.926811
  endloop
 endfacet
 facet normal 0.828928 -0.559246 -0.011049
  outer loop
   vertex 1684.033946 3092.740429 -2749.926811
   vertex 1690.409539 3102.155035 -2748.132653
   vertex 1543.233048 2848.873274 -969.926811
  endloop
 endfacet
 facet normal 0.749542 -0.661217 -0.031299
  outer loop
   vertex 1697.976035 3110.648840 -2746.370445
   vertex 1557.175138 2866.781686 -966.370445
   vertex 1549.608641 2858.287880 -968.132653
  endloop
 endfacet
 facet normal 0.749542 -0.661217 -0.031299
  outer loop
   vertex 1690.409539 3102.155035 -2748.132653
   vertex 1697.976035 3110.648840 -2746.370445
   vertex 1549.608641 2858.287880 -968.132653
  endloop
 endfacet
 facet normal 0.657330 -0.751874 -0.051014
  outer loop
   vertex 1706.603971 3118.076515 -2744.670340
   vertex 1565.803074 2874.209360 -964.670340
   vertex 1557.175138 2866.781686 -966.370445
  endloop
 endfacet
 facet normal 0.657330 -0.751874 -0.051014
  outer loop
   vertex 1697.976035 3110.648840 -2746.370445
   vertex 1706.603971 3118.076515 -2744.670340
   vertex 1557.175138 2866.781686 -966.370445
  endloop
 endfacet
 facet normal 0.553872 -0.829666 -0.069855
  outer loop
   vertex 1716.145720 3124.310969 -2743.061427
   vertex 1575.344823 2880.443814 -963.061427
   vertex 1565.803074 2874.209360 -964.670340
  endloop
 endfacet
 facet normal 0.553872 -0.829666 -0.069855
  outer loop
   vertex 1706.603971 3118.076515 -2744.670340
   vertex 1716.145720 3124.310969 -2743.061427
   vertex 1565.803074 2874.209360 -964.670340
  endloop
 endfacet
 facet normal 0.440937 -0.893263 -0.087502
  outer loop
   vertex 1726.438020 3129.245528 -2741.571235
   vertex 1585.637123 2885.378374 -961.571235
   vertex 1575.344823 2880.443814 -963.061427
  endloop
 endfacet
 facet normal 0.440937 -0.893263 -0.087502
  outer loop
   vertex 1716.145720 3124.310969 -2743.061427
   vertex 1726.438020 3129.245528 -2741.571235
   vertex 1575.344823 2880.443814 -963.061427
  endloop
 endfacet
 facet normal 0.320457 -0.941575 -0.103651
  outer loop
   vertex 1737.304767 3132.795762 -2740.225261
   vertex 1596.503869 2888.928608 -960.225261
   vertex 1585.637123 2885.378374 -961.571235
  endloop
 endfacet
 facet normal 0.320457 -0.941575 -0.103651
  outer loop
   vertex 1726.438020 3129.245528 -2741.571235
   vertex 1737.304767 3132.795762 -2740.225261
   vertex 1585.637123 2885.378374 -961.571235
  endloop
 endfacet
 facet normal 0.194494 -0.973777 -0.118027
  outer loop
   vertex 1748.560027 3134.900925 -2739.046536
   vertex 1607.759129 2891.033770 -959.046536
   vertex 1596.503869 2888.928608 -960.225261
  endloop
 endfacet
 facet normal 0.194494 -0.973777 -0.118027
  outer loop
   vertex 1737.304767 3132.795762 -2740.225261
   vertex 1748.560027 3134.900925 -2739.046536
   vertex 1596.503869 2888.928608 -960.225261
  endloop
 endfacet
 facet normal 0.065203 -0.989317 -0.130383
  outer loop
   vertex 1760.011220 3135.524997 -2738.055227
   vertex 1619.210323 2891.657842 -958.055227
   vertex 1607.759129 2891.033770 -959.046536
  endloop
 endfacet
 facet normal 0.065203 -0.989317 -0.130383
  outer loop
   vertex 1748.560027 3134.900925 -2739.046536
   vertex 1760.011220 3135.524997 -2738.055227
   vertex 1607.759129 2891.033770 -959.046536
  endloop
 endfacet
endsolid SIC_LOX_feed_4_drop
