solid SII_LH2_feed_0_elbow
 facet normal 0.065403 0.997859 0.000000
  outer loop
   vertex -2842.800000 90.000000 -180.000000
   vertex -2831.052643 89.230038 -180.000000
   vertex -2831.052643 89.230038 -600.000000
  endloop
 endfacet
 facet normal 0.065403 0.997859 0.000000
  outer loop
   vertex -2842.800000 90.000000 -180.000000
   vertex -2831.052643 89.230038 -600.000000
   vertex -2842.800000 90.000000 -600.000000
  endloop
 endfacet
 facet normal 0.195090 0.980785 0.000000
  outer loop
   vertex -2831.052643 89.230038 -180.000000
   vertex -2819.506286 86.933324 -180.000000
   vertex -2819.506286 86.933324 -600.000000
  endloop
 endfacet
 facet normal 0.195090 0.980785 0.000000
  outer loop
   vertex -2831.052643 89.230038 -180.000000
   vertex -2819.506286 86.933324 -600.000000
   vertex -2831.052643 89.230038 -600.000000
  endloop
 endfacet
 facet normal 0.321439 0.946930 0.000000
  outer loop
   vertex -2819.506286 86.933324 -180.000000
   vertex -2808.358491 83.149158 -180.000000
   vertex -2808.358491 83.149158 -600.000000
  endloop
 endfacet
 facet normal 0.321439 0.946930 0.000000
  outer loop
   vertex -2819.506286 86.933324 -180.000000
   vertex -2808.358491 83.149158 -600.000000
   vertex -2819.506286 86.933324 -600.000000
  endloop
 endfacet
 facet normal 0.442289 0.896873 0.000000
  outer loop
   vertex -2808.358491 83.149158 -180.000000
   vertex -2797.800000 77.942286 -180.000000
   vertex -2797.800000 77.942286 -600.000000
  endloop
 endfacet
 facet normal 0.442289 0.896873 0.000000
  outer loop
   vertex -2808.358491 83.149158 -180.000000
   vertex -2797.800000 77.942286 -600.000000
   vertex -2808.358491 83.149158 -600.000000
  endloop
 endfacet
 facet normal 0.555570 0.831470 0.000000
  outer loop
   vertex -2797.800000 77.942286 -180.000000
   vertex -2788.011471 71.401801 -180.000000
   vertex -2788.011471 71.401801 -600.000000
  endloop
 endfacet
 facet normal 0.555570 0.831470 0.000000
  outer loop
   vertex -2797.800000 77.942286 -180.000000
   vertex -2788.011471 71.401801 -600.000000
   vertex -2797.800000 77.942286 -600.000000
  endloop
 endfacet
 facet normal 0.659346 0.751840 0.000000
  outer loop
   vertex -2788.011471 71.401801 -180.000000
   vertex -2779.160390 63.639610 -180.000000
   vertex -2779.160390 63.639610 -600.000000
  endloop
 endfacet
 facet normal 0.659346 0.751840 0.000000
  outer loop
   vertex -2788.011471 71.401801 -180.000000
   vertex -2779.160390 63.639610 -600.000000
   vertex -2788.011471 71.401801 -600.000000
  endloop
 endfacet
 facet normal 0.751840 0.659346 0.000000
  outer loop
   vertex -2779.160390 63.639610 -180.000000
   vertex -2771.398199 54.788529 -180.000000
   vertex -2771.398199 54.788529 -600.000000
  endloop
 endfacet
 facet normal 0.751840 0.659346 0.000000
  outer loop
   vertex -2779.160390 63.639610 -180.000000
   vertex -2771.398199 54.788529 -600.000000
   vertex -2779.160390 63.639610 -600.000000
  endloop
 endfacet
 facet normal 0.831470 0.555570 0.000000
  outer loop
   vertex -2771.398199 54.788529 -180.000000
   vertex -2764.857714 45.000000 -180.000000
   vertex -2764.857714 45.000000 -600.000000
  endloop
 endfacet
 facet normal 0.831470 0.555570 0.000000
  outer loop
   vertex -2771.398199 54.788529 -180.000000
   vertex -2764.857714 45.000000 -600.000000
   vertex -2771.398199 54.788529 -600.000000
  endloop
 endfacet
 facet normal 0.896873 0.442289 0.000000
  outer loop
   vertex -2764.857714 45.000000 -180.000000
   vertex -2759.650842 34.441509 -180.000000
   vertex -2759.650842 34.441509 -600.000000
  endloop
 endfacet
 facet normal 0.896873 0.442289 0.000000
  outer loop
   vertex -2764.857714 45.000000 -180.000000
   vertex -2759.650842 34.441509 -600.000000
   vertex -2764.857714 45.000000 -600.000000
  endloop
 endfacet
 facet normal 0.946930 0.321439 0.000000
  outer loop
   vertex -2759.650842 34.441509 -180.000000
   vertex -2755.866676 23.293714 -180.000000
   vertex -2755.866676 23.293714 -600.000000
  endloop
 endfacet
 facet normal 0.946930 0.321439 0.000000
  outer loop
   vertex -2759.650842 34.441509 -180.000000
   vertex -2755.866676 23.293714 -600.000000
   vertex -2759.650842 34.441509 -600.000000
  endloop
 endfacet
 facet normal 0.980785 0.195090 0.000000
  outer loop
   vertex -2755.866676 23.293714 -180.000000
   vertex -2753.569962 11.747357 -180.000000
   vertex -2753.569962 11.747357 -600.000000
  endloop
 endfacet
 facet normal 0.980785 0.195090 0.000000
  outer loop
   vertex -2755.866676 23.293714 -180.000000
   vertex -2753.569962 11.747357 -600.000000
   vertex -2755.866676 23.293714 -600.000000
  endloop
 endfacet
 facet normal 0.997859 0.065403 0.000000
  outer loop
   vertex -2753.569962 11.747357 -180.000000
   vertex -2752.800000 0.000000 -180.000000
   vertex -2752.800000 0.000000 -600.000000
  endloop
 endfacet
 facet normal 0.997859 0.065403 0.000000
  outer loop
   vertex -2753.569962 11.747357 -180.000000
   vertex -2752.800000 0.000000 -600.000000
   vertex -2753.569962 11.747357 -600.000000
  endloop
 endfacet
 facet normal 0.997859 -0.065403 0.000000
  outer loop
   vertex -2752.800000 0.000000 -180.000000
   vertex -2753.569962 -11.747357 -180.000000
   vertex -2753.569962 -11.747357 -600.000000
  endloop
 endfacet
 facet normal 0.997859 -0.065403 0.000000
  outer loop
   vertex -2752.800000 0.000000 -180.000000
   vertex -2753.569962 -11.747357 -600.000000
   vertex -2752.800000 0.000000 -600.000000
  endloop
 endfacet
 facet normal 0.980785 -0.195090 0.000000
  outer loop
   vertex -2753.569962 -11.747357 -180.000000
   vertex -2755.866676 -23.293714 -180.000000
   vertex -2755.866676 -23.293714 -600.000000
  endloop
 endfacet
 facet normal 0.980785 -0.195090 0.000000
  outer loop
   vertex -2753.569962 -11.747357 -180.000000
   vertex -2755.866676 -23.293714 -600.000000
   vertex -2753.569962 -11.747357 -600.000000
  endloop
 endfacet
 facet normal 0.946930 -0.321439 0.000000
  outer loop
   vertex -2755.866676 -23.293714 -180.000000
   vertex -2759.650842 -34.441509 -180.000000
   vertex -2759.650842 -34.441509 -600.000000
  endloop
 endfacet
 facet normal 0.946930 -0.321439 0.000000
  outer loop
   vertex -2755.866676 -23.293714 -180.000000
   vertex -2759.650842 -34.441509 -600.000000
   vertex -2755.866676 -23.293714 -600.000000
  endloop
 endfacet
 facet normal 0.896873 -0.442289 0.000000
  outer loop
   vertex -2759.650842 -34.441509 -180.000000
   vertex -2764.857714 -45.000000 -180.000000
   vertex -2764.857714 -45.000000 -600.000000
  endloop
 endfacet
 facet normal 0.896873 -0.442289 0.000000
  outer loop
   vertex -2759.650842 -34.441509 -180.000000
   vertex -2764.857714 -45.000000 -600.000000
   vertex -2759.650842 -34.441509 -600.000000
  endloop
 endfacet
 facet normal 0.831470 -0.555570 0.000000
  outer loop
   vertex -2764.857714 -45.000000 -180.000000
   vertex -2771.398199 -54.788529 -180.000000
   vertex -2771.398199 -54.788529 -600.000000
  endloop
 endfacet
 facet normal 0.831470 -0.555570 0.000000
  outer loop
   vertex -2764.857714 -45.000000 -180.000000
   vertex -2771.398199 -54.788529 -600.000000
   vertex -2764.857714 -45.000000 -600.000000
  endloop
 endfacet
 facet normal 0.751840 -0.659346 0.000000
  outer loop
   vertex -2771.398199 -54.788529 -180.000000
   vertex -2779.160390 -63.639610 -180.000000
   vertex -2779.160390 -63.639610 -600.000000
  endloop
 endfacet
 facet normal 0.751840 -0.659346 0.000000
  outer loop
   vertex -2771.398199 -54.788529 -180.000000
   vertex -2779.160390 -63.639610 -600.000000
   vertex -2771.398199 -54.788529 -600.000000
  endloop
 endfacet
 facet normal 0.659346 -0.751840 0.000000
  outer loop
   vertex -2779.160390 -63.639610 -180.000000
   vertex -2788.011471 -71.401801 -180.000000
   vertex -2788.011471 -71.401801 -600.000000
  endloop
 endfacet
 facet normal 0.659346 -0.751840 0.000000
  outer loop
   vertex -2779.160390 -63.639610 -180.000000
   vertex -2788.011471 -71.401801 -600.000000
   vertex -2779.160390 -63.639610 -600.000000
  endloop
 endfacet
 facet normal 0.555570 -0.831470 0.000000
  outer loop
   vertex -2788.011471 -71.401801 -180.000000
   vertex -2797.800000 -77.942286 -180.000000
   vertex -2797.800000 -77.942286 -600.000000
  endloop
 endfacet
 facet normal 0.555570 -0.831470 0.000000
  outer loop
   vertex -2788.011471 -71.401801 -180.000000
   vertex -2797.800000 -77.942286 -600.000000
   vertex -2788.011471 -71.401801 -600.000000
  endloop
 endfacet
 facet normal 0.442289 -0.896873 0.000000
  outer loop
   vertex -2797.800000 -77.942286 -180.000000
   vertex -2808.358491 -83.149158 -180.000000
   vertex -2808.358491 -83.149158 -600.000000
  endloop
 endfacet
 facet normal 0.442289 -0.896873 0.000000
  outer loop
   vertex -2797.800000 -77.942286 -180.000000
   vertex -2808.358491 -83.149158 -600.000000
   vertex -2797.800000 -77.942286 -600.000000
  endloop
 endfacet
 facet normal 0.321439 -0.946930 0.000000
  outer loop
   vertex -2808.358491 -83.149158 -180.000000
   vertex -2819.506286 -86.933324 -180.000000
   vertex -2819.506286 -86.933324 -600.000000
  endloop
 endfacet
 facet normal 0.321439 -0.946930 0.000000
  outer loop
   vertex -2808.358491 -83.149158 -180.000000
   vertex -2819.506286 -86.933324 -600.000000
   vertex -2808.358491 -83.149158 -600.000000
  endloop
 endfacet
 facet normal 0.195090 -0.980785 0.000000
  outer loop
   vertex -2819.506286 -86.933324 -180.000000
   vertex -2831.052643 -89.230038 -180.000000
   vertex -2831.052643 -89.230038 -600.000000
  endloop
 endfacet
 facet normal 0.195090 -0.980785 0.000000
  outer loop
   vertex -2819.506286 -86.933324 -180.000000
   vertex -2831.052643 -89.230038 -600.000000
   vertex -2819.506286 -86.933324 -600.000000
  endloop
 endfacet
 facet normal 0.065403 -0.997859 0.000000
  outer loop
   vertex -2831.052643 -89.230038 -180.000000
   vertex -2842.800000 -90.000000 -180.000000
   vertex -2842.800000 -90.000000 -600.000000
  endloop
 endfacet
 facet normal 0.065403 -0.997859 0.000000
  outer loop
   vertex -2831.052643 -89.230038 -180.000000
   vertex -2842.800000 -90.000000 -600.000000
   vertex -2831.052643 -89.230038 -600.000000
  endloop
 endfacet
 facet normal -0.065403 -0.997859 0.000000
  outer loop
   vertex -2842.800000 -90.000000 -180.000000
   vertex -2854.547357 -89.230038 -180.000000
   vertex -2854.547357 -89.230038 -600.000000
  endloop
 endfacet
 facet normal -0.065403 -0.997859 -0.000000
  outer loop
   vertex -2842.800000 -90.000000 -180.000000
   vertex -2854.547357 -89.230038 -600.000000
   vertex -2842.800000 -90.000000 -600.000000
  endloop
 endfacet
 facet normal -0.195090 -0.980785 0.000000
  outer loop
   vertex -2854.547357 -89.230038 -180.000000
   vertex -2866.093714 -86.933324 -180.000000
   vertex -2866.093714 -86.933324 -600.000000
  endloop
 endfacet
 facet normal -0.195090 -0.980785 -0.000000
  outer loop
   vertex -2854.547357 -89.230038 -180.000000
   vertex -2866.093714 -86.933324 -600.000000
   vertex -2854.547357 -89.230038 -600.000000
  endloop
 endfacet
 facet normal -0.321439 -0.946930 0.000000
  outer loop
   vertex -2866.093714 -86.933324 -180.000000
   vertex -2877.241509 -83.149158 -180.000000
   vertex -2877.241509 -83.149158 -600.000000
  endloop
 endfacet
 facet normal -0.321439 -0.946930 -0.000000
  outer loop
   vertex -2866.093714 -86.933324 -180.000000
   vertex -2877.241509 -83.149158 -600.000000
   vertex -2866.093714 -86.933324 -600.000000
  endloop
 endfacet
 facet normal -0.442289 -0.896873 0.000000
  outer loop
   vertex -2877.241509 -83.149158 -180.000000
   vertex -2887.800000 -77.942286 -180.000000
   vertex -2887.800000 -77.942286 -600.000000
  endloop
 endfacet
 facet normal -0.442289 -0.896873 -0.000000
  outer loop
   vertex -2877.241509 -83.149158 -180.000000
   vertex -2887.800000 -77.942286 -600.000000
   vertex -2877.241509 -83.149158 -600.000000
  endloop
 endfacet
 facet normal -0.555570 -0.831470 0.000000
  outer loop
   vertex -2887.800000 -77.942286 -180.000000
   vertex -2897.588529 -71.401801 -180.000000
   vertex -2897.588529 -71.401801 -600.000000
  endloop
 endfacet
 facet normal -0.555570 -0.831470 -0.000000
  outer loop
   vertex -2887.800000 -77.942286 -180.000000
   vertex -2897.588529 -71.401801 -600.000000
   vertex -2887.800000 -77.942286 -600.000000
  endloop
 endfacet
 facet normal -0.659346 -0.751840 0.000000
  outer loop
   vertex -2897.588529 -71.401801 -180.000000
   vertex -2906.439610 -63.639610 -180.000000
   vertex -2906.439610 -63.639610 -600.000000
  endloop
 endfacet
 facet normal -0.659346 -0.751840 -0.000000
  outer loop
   vertex -2897.588529 -71.401801 -180.000000
   vertex -2906.439610 -63.639610 -600.000000
   vertex -2897.588529 -71.401801 -600.000000
  endloop
 endfacet
 facet normal -0.751840 -0.659346 0.000000
  outer loop
   vertex -2906.439610 -63.639610 -180.000000
   vertex -2914.201801 -54.788529 -180.000000
   vertex -2914.201801 -54.788529 -600.000000
  endloop
 endfacet
 facet normal -0.751840 -0.659346 -0.000000
  outer loop
   vertex -2906.439610 -63.639610 -180.000000
   vertex -2914.201801 -54.788529 -600.000000
   vertex -2906.439610 -63.639610 -600.000000
  endloop
 endfacet
 facet normal -0.831470 -0.555570 0.000000
  outer loop
   vertex -2914.201801 -54.788529 -180.000000
   vertex -2920.742286 -45.000000 -180.000000
   vertex -2920.742286 -45.000000 -600.000000
  endloop
 endfacet
 facet normal -0.831470 -0.555570 -0.000000
  outer loop
   vertex -2914.201801 -54.788529 -180.000000
   vertex -2920.742286 -45.000000 -600.000000
   vertex -2914.201801 -54.788529 -600.000000
  endloop
 endfacet
 facet normal -0.896873 -0.442289 0.000000
  outer loop
   vertex -2920.742286 -45.000000 -180.000000
   vertex -2925.949158 -34.441509 -180.000000
   vertex -2925.949158 -34.441509 -600.000000
  endloop
 endfacet
 facet normal -0.896873 -0.442289 -0.000000
  outer loop
   vertex -2920.742286 -45.000000 -180.000000
   vertex -2925.949158 -34.441509 -600.000000
   vertex -2920.742286 -45.000000 -600.000000
  endloop
 endfacet
 facet normal -0.946930 -0.321439 0.000000
  outer loop
   vertex -2925.949158 -34.441509 -180.000000
   vertex -2929.733324 -23.293714 -180.000000
   vertex -2929.733324 -23.293714 -600.000000
  endloop
 endfacet
 facet normal -0.946930 -0.321439 -0.000000
  outer loop
   vertex -2925.949158 -34.441509 -180.000000
   vertex -2929.733324 -23.293714 -600.000000
   vertex -2925.949158 -34.441509 -600.000000
  endloop
 endfacet
 facet normal -0.980785 -0.195090 0.000000
  outer loop
   vertex -2929.733324 -23.293714 -180.000000
   vertex -2932.030038 -11.747357 -180.000000
   vertex -2932.030038 -11.747357 -600.000000
  endloop
 endfacet
 facet normal -0.980785 -0.195090 -0.000000
  outer loop
   vertex -2929.733324 -23.293714 -180.000000
   vertex -2932.030038 -11.747357 -600.000000
   vertex -2929.733324 -23.293714 -600.000000
  endloop
 endfacet
 facet normal -0.997859 -0.065403 0.000000
  outer loop
   vertex -2932.030038 -11.747357 -180.000000
   vertex -2932.800000 -0.000000 -180.000000
   vertex -2932.800000 -0.000000 -600.000000
  endloop
 endfacet
 facet normal -0.997859 -0.065403 -0.000000
  outer loop
   vertex -2932.030038 -11.747357 -180.000000
   vertex -2932.800000 -0.000000 -600.000000
   vertex -2932.030038 -11.747357 -600.000000
  endloop
 endfacet
 facet normal -0.997859 0.065403 0.000000
  outer loop
   vertex -2932.800000 -0.000000 -180.000000
   vertex -2932.030038 11.747357 -180.000000
   vertex -2932.030038 11.747357 -600.000000
  endloop
 endfacet
 facet normal -0.997859 0.065403 0.000000
  outer loop
   vertex -2932.800000 -0.000000 -180.000000
   vertex -2932.030038 11.747357 -600.000000
   vertex -2932.800000 -0.000000 -600.000000
  endloop
 endfacet
 facet normal -0.980785 0.195090 0.000000
  outer loop
   vertex -2932.030038 11.747357 -180.000000
   vertex -2929.733324 23.293714 -180.000000
   vertex -2929.733324 23.293714 -600.000000
  endloop
 endfacet
 facet normal -0.980785 0.195090 0.000000
  outer loop
   vertex -2932.030038 11.747357 -180.000000
   vertex -2929.733324 23.293714 -600.000000
   vertex -2932.030038 11.747357 -600.000000
  endloop
 endfacet
 facet normal -0.946930 0.321439 0.000000
  outer loop
   vertex -2929.733324 23.293714 -180.000000
   vertex -2925.949158 34.441509 -180.000000
   vertex -2925.949158 34.441509 -600.000000
  endloop
 endfacet
 facet normal -0.946930 0.321439 0.000000
  outer loop
   vertex -2929.733324 23.293714 -180.000000
   vertex -2925.949158 34.441509 -600.000000
   vertex -2929.733324 23.293714 -600.000000
  endloop
 endfacet
 facet normal -0.896873 0.442289 0.000000
  outer loop
   vertex -2925.949158 34.441509 -180.000000
   vertex -2920.742286 45.000000 -180.000000
   vertex -2920.742286 45.000000 -600.000000
  endloop
 endfacet
 facet normal -0.896873 0.442289 0.000000
  outer loop
   vertex -2925.949158 34.441509 -180.000000
   vertex -2920.742286 45.000000 -600.000000
   vertex -2925.949158 34.441509 -600.000000
  endloop
 endfacet
 facet normal -0.831470 0.555570 0.000000
  outer loop
   vertex -2920.742286 45.000000 -180.000000
   vertex -2914.201801 54.788529 -180.000000
   vertex -2914.201801 54.788529 -600.000000
  endloop
 endfacet
 facet normal -0.831470 0.555570 0.000000
  outer loop
   vertex -2920.742286 45.000000 -180.000000
   vertex -2914.201801 54.788529 -600.000000
   vertex -2920.742286 45.000000 -600.000000
  endloop
 endfacet
 facet normal -0.751840 0.659346 0.000000
  outer loop
   vertex -2914.201801 54.788529 -180.000000
   vertex -2906.439610 63.639610 -180.000000
   vertex -2906.439610 63.639610 -600.000000
  endloop
 endfacet
 facet normal -0.751840 0.659346 0.000000
  outer loop
   vertex -2914.201801 54.788529 -180.000000
   vertex -2906.439610 63.639610 -600.000000
   vertex -2914.201801 54.788529 -600.000000
  endloop
 endfacet
 facet normal -0.659346 0.751840 0.000000
  outer loop
   vertex -2906.439610 63.639610 -180.000000
   vertex -2897.588529 71.401801 -180.000000
   vertex -2897.588529 71.401801 -600.000000
  endloop
 endfacet
 facet normal -0.659346 0.751840 0.000000
  outer loop
   vertex -2906.439610 63.639610 -180.000000
   vertex -2897.588529 71.401801 -600.000000
   vertex -2906.439610 63.639610 -600.000000
  endloop
 endfacet
 facet normal -0.555570 0.831470 0.000000
  outer loop
   vertex -2897.588529 71.401801 -180.000000
   vertex -2887.800000 77.942286 -180.000000
   vertex -2887.800000 77.942286 -600.000000
  endloop
 endfacet
 facet normal -0.555570 0.831470 0.000000
  outer loop
   vertex -2897.588529 71.401801 -180.000000
   vertex -2887.800000 77.942286 -600.000000
   vertex -2897.588529 71.401801 -600.000000
  endloop
 endfacet
 facet normal -0.442289 0.896873 0.000000
  outer loop
   vertex -2887.800000 77.942286 -180.000000
   vertex -2877.241509 83.149158 -180.000000
   vertex -2877.241509 83.149158 -600.000000
  endloop
 endfacet
 facet normal -0.442289 0.896873 0.000000
  outer loop
   vertex -2887.800000 77.942286 -180.000000
   vertex -2877.241509 83.149158 -600.000000
   vertex -2887.800000 77.942286 -600.000000
  endloop
 endfacet
 facet normal -0.321439 0.946930 0.000000
  outer loop
   vertex -2877.241509 83.149158 -180.000000
   vertex -2866.093714 86.933324 -180.000000
   vertex -2866.093714 86.933324 -600.000000
  endloop
 endfacet
 facet normal -0.321439 0.946930 0.000000
  outer loop
   vertex -2877.241509 83.149158 -180.000000
   vertex -2866.093714 86.933324 -600.000000
   vertex -2877.241509 83.149158 -600.000000
  endloop
 endfacet
 facet normal -0.195090 0.980785 0.000000
  outer loop
   vertex -2866.093714 86.933324 -180.000000
   vertex -2854.547357 89.230038 -180.000000
   vertex -2854.547357 89.230038 -600.000000
  endloop
 endfacet
 facet normal -0.195090 0.980785 0.000000
  outer loop
   vertex -2866.093714 86.933324 -180.000000
   vertex -2854.547357 89.230038 -600.000000
   vertex -2866.093714 86.933324 -600.000000
  endloop
 endfacet
 facet normal -0.065403 0.997859 0.000000
  outer loop
   vertex -2854.547357 89.230038 -180.000000
   vertex -2842.800000 90.000000 -180.000000
   vertex -2842.800000 90.000000 -600.000000
  endloop
 endfacet
 facet normal -0.065403 0.997859 0.000000
  outer loop
   vertex -2854.547357 89.230038 -180.000000
   vertex -2842.800000 90.000000 -600.000000
   vertex -2854.547357 89.230038 -600.000000
  endloop
 endfacet
 facet normal -0.065403 -0.997859 0.000000
  outer loop
   vertex -2832.357905 79.315589 -600.000000
   vertex -2832.357905 79.315589 -180.000000
   vertex -2842.800000 80.000000 -180.000000
  endloop
 endfacet
 facet normal -0.065403 -0.997859 0.000000
  outer loop
   vertex -2842.800000 80.000000 -600.000000
   vertex -2832.357905 79.315589 -600.000000
   vertex -2842.800000 80.000000 -180.000000
  endloop
 endfacet
 facet normal -0.195090 -0.980785 0.000000
  outer loop
   vertex -2822.094476 77.274066 -600.000000
   vertex -2822.094476 77.274066 -180.000000
   vertex -2832.357905 79.315589 -180.000000
  endloop
 endfacet
 facet normal -0.195090 -0.980785 0.000000
  outer loop
   vertex -2832.357905 79.315589 -600.000000
   vertex -2822.094476 77.274066 -600.000000
   vertex -2832.357905 79.315589 -180.000000
  endloop
 endfacet
 facet normal -0.321439 -0.946930 0.000000
  outer loop
   vertex -2812.185325 73.910363 -600.000000
   vertex -2812.185325 73.910363 -180.000000
   vertex -2822.094476 77.274066 -180.000000
  endloop
 endfacet
 facet normal -0.321439 -0.946930 0.000000
  outer loop
   vertex -2822.094476 77.274066 -600.000000
   vertex -2812.185325 73.910363 -600.000000
   vertex -2822.094476 77.274066 -180.000000
  endloop
 endfacet
 facet normal -0.442289 -0.896873 0.000000
  outer loop
   vertex -2802.800000 69.282032 -600.000000
   vertex -2802.800000 69.282032 -180.000000
   vertex -2812.185325 73.910363 -180.000000
  endloop
 endfacet
 facet normal -0.442289 -0.896873 0.000000
  outer loop
   vertex -2812.185325 73.910363 -600.000000
   vertex -2802.800000 69.282032 -600.000000
   vertex -2812.185325 73.910363 -180.000000
  endloop
 endfacet
 facet normal -0.555570 -0.831470 0.000000
  outer loop
   vertex -2794.099086 63.468267 -600.000000
   vertex -2794.099086 63.468267 -180.000000
   vertex -2802.800000 69.282032 -180.000000
  endloop
 endfacet
 facet normal -0.555570 -0.831470 0.000000
  outer loop
   vertex -2802.800000 69.282032 -600.000000
   vertex -2794.099086 63.468267 -600.000000
   vertex -2802.800000 69.282032 -180.000000
  endloop
 endfacet
 facet normal -0.659346 -0.751840 0.000000
  outer loop
   vertex -2786.231458 56.568542 -600.000000
   vertex -2786.231458 56.568542 -180.000000
   vertex -2794.099086 63.468267 -180.000000
  endloop
 endfacet
 facet normal -0.659346 -0.751840 0.000000
  outer loop
   vertex -2794.099086 63.468267 -600.000000
   vertex -2786.231458 56.568542 -600.000000
   vertex -2794.099086 63.468267 -180.000000
  endloop
 endfacet
 facet normal -0.751840 -0.659346 0.000000
  outer loop
   vertex -2779.331733 48.700914 -600.000000
   vertex -2779.331733 48.700914 -180.000000
   vertex -2786.231458 56.568542 -180.000000
  endloop
 endfacet
 facet normal -0.751840 -0.659346 0.000000
  outer loop
   vertex -2786.231458 56.568542 -600.000000
   vertex -2779.331733 48.700914 -600.000000
   vertex -2786.231458 56.568542 -180.000000
  endloop
 endfacet
 facet normal -0.831470 -0.555570 0.000000
  outer loop
   vertex -2773.517968 40.000000 -600.000000
   vertex -2773.517968 40.000000 -180.000000
   vertex -2779.331733 48.700914 -180.000000
  endloop
 endfacet
 facet normal -0.831470 -0.555570 0.000000
  outer loop
   vertex -2779.331733 48.700914 -600.000000
   vertex -2773.517968 40.000000 -600.000000
   vertex -2779.331733 48.700914 -180.000000
  endloop
 endfacet
 facet normal -0.896873 -0.442289 0.000000
  outer loop
   vertex -2768.889637 30.614675 -600.000000
   vertex -2768.889637 30.614675 -180.000000
   vertex -2773.517968 40.000000 -180.000000
  endloop
 endfacet
 facet normal -0.896873 -0.442289 0.000000
  outer loop
   vertex -2773.517968 40.000000 -600.000000
   vertex -2768.889637 30.614675 -600.000000
   vertex -2773.517968 40.000000 -180.000000
  endloop
 endfacet
 facet normal -0.946930 -0.321439 0.000000
  outer loop
   vertex -2765.525934 20.705524 -600.000000
   vertex -2765.525934 20.705524 -180.000000
   vertex -2768.889637 30.614675 -180.000000
  endloop
 endfacet
 facet normal -0.946930 -0.321439 0.000000
  outer loop
   vertex -2768.889637 30.614675 -600.000000
   vertex -2765.525934 20.705524 -600.000000
   vertex -2768.889637 30.614675 -180.000000
  endloop
 endfacet
 facet normal -0.980785 -0.195090 0.000000
  outer loop
   vertex -2763.484411 10.442095 -600.000000
   vertex -2763.484411 10.442095 -180.000000
   vertex -2765.525934 20.705524 -180.000000
  endloop
 endfacet
 facet normal -0.980785 -0.195090 0.000000
  outer loop
   vertex -2765.525934 20.705524 -600.000000
   vertex -2763.484411 10.442095 -600.000000
   vertex -2765.525934 20.705524 -180.000000
  endloop
 endfacet
 facet normal -0.997859 -0.065403 0.000000
  outer loop
   vertex -2762.800000 0.000000 -600.000000
   vertex -2762.800000 0.000000 -180.000000
   vertex -2763.484411 10.442095 -180.000000
  endloop
 endfacet
 facet normal -0.997859 -0.065403 0.000000
  outer loop
   vertex -2763.484411 10.442095 -600.000000
   vertex -2762.800000 0.000000 -600.000000
   vertex -2763.484411 10.442095 -180.000000
  endloop
 endfacet
 facet normal -0.997859 0.065403 0.000000
  outer loop
   vertex -2763.484411 -10.442095 -600.000000
   vertex -2763.484411 -10.442095 -180.000000
   vertex -2762.800000 0.000000 -180.000000
  endloop
 endfacet
 facet normal -0.997859 0.065403 0.000000
  outer loop
   vertex -2762.800000 0.000000 -600.000000
   vertex -2763.484411 -10.442095 -600.000000
   vertex -2762.800000 0.000000 -180.000000
  endloop
 endfacet
 facet normal -0.980785 0.195090 0.000000
  outer loop
   vertex -2765.525934 -20.705524 -600.000000
   vertex -2765.525934 -20.705524 -180.000000
   vertex -2763.484411 -10.442095 -180.000000
  endloop
 endfacet
 facet normal -0.980785 0.195090 0.000000
  outer loop
   vertex -2763.484411 -10.442095 -600.000000
   vertex -2765.525934 -20.705524 -600.000000
   vertex -2763.484411 -10.442095 -180.000000
  endloop
 endfacet
 facet normal -0.946930 0.321439 0.000000
  outer loop
   vertex -2768.889637 -30.614675 -600.000000
   vertex -2768.889637 -30.614675 -180.000000
   vertex -2765.525934 -20.705524 -180.000000
  endloop
 endfacet
 facet normal -0.946930 0.321439 0.000000
  outer loop
   vertex -2765.525934 -20.705524 -600.000000
   vertex -2768.889637 -30.614675 -600.000000
   vertex -2765.525934 -20.705524 -180.000000
  endloop
 endfacet
 facet normal -0.896873 0.442289 0.000000
  outer loop
   vertex -2773.517968 -40.000000 -600.000000
   vertex -2773.517968 -40.000000 -180.000000
   vertex -2768.889637 -30.614675 -180.000000
  endloop
 endfacet
 facet normal -0.896873 0.442289 0.000000
  outer loop
   vertex -2768.889637 -30.614675 -600.000000
   vertex -2773.517968 -40.000000 -600.000000
   vertex -2768.889637 -30.614675 -180.000000
  endloop
 endfacet
 facet normal -0.831470 0.555570 0.000000
  outer loop
   vertex -2779.331733 -48.700914 -600.000000
   vertex -2779.331733 -48.700914 -180.000000
   vertex -2773.517968 -40.000000 -180.000000
  endloop
 endfacet
 facet normal -0.831470 0.555570 0.000000
  outer loop
   vertex -2773.517968 -40.000000 -600.000000
   vertex -2779.331733 -48.700914 -600.000000
   vertex -2773.517968 -40.000000 -180.000000
  endloop
 endfacet
 facet normal -0.751840 0.659346 0.000000
  outer loop
   vertex -2786.231458 -56.568542 -600.000000
   vertex -2786.231458 -56.568542 -180.000000
   vertex -2779.331733 -48.700914 -180.000000
  endloop
 endfacet
 facet normal -0.751840 0.659346 0.000000
  outer loop
   vertex -2779.331733 -48.700914 -600.000000
   vertex -2786.231458 -56.568542 -600.000000
   vertex -2779.331733 -48.700914 -180.000000
  endloop
 endfacet
 facet normal -0.659346 0.751840 0.000000
  outer loop
   vertex -2794.099086 -63.468267 -600.000000
   vertex -2794.099086 -63.468267 -180.000000
   vertex -2786.231458 -56.568542 -180.000000
  endloop
 endfacet
 facet normal -0.659346 0.751840 0.000000
  outer loop
   vertex -2786.231458 -56.568542 -600.000000
   vertex -2794.099086 -63.468267 -600.000000
   vertex -2786.231458 -56.568542 -180.000000
  endloop
 endfacet
 facet normal -0.555570 0.831470 0.000000
  outer loop
   vertex -2802.800000 -69.282032 -600.000000
   vertex -2802.800000 -69.282032 -180.000000
   vertex -2794.099086 -63.468267 -180.000000
  endloop
 endfacet
 facet normal -0.555570 0.831470 0.000000
  outer loop
   vertex -2794.099086 -63.468267 -600.000000
   vertex -2802.800000 -69.282032 -600.000000
   vertex -2794.099086 -63.468267 -180.000000
  endloop
 endfacet
 facet normal -0.442289 0.896873 0.000000
  outer loop
   vertex -2812.185325 -73.910363 -600.000000
   vertex -2812.185325 -73.910363 -180.000000
   vertex -2802.800000 -69.282032 -180.000000
  endloop
 endfacet
 facet normal -0.442289 0.896873 0.000000
  outer loop
   vertex -2802.800000 -69.282032 -600.000000
   vertex -2812.185325 -73.910363 -600.000000
   vertex -2802.800000 -69.282032 -180.000000
  endloop
 endfacet
 facet normal -0.321439 0.946930 0.000000
  outer loop
   vertex -2822.094476 -77.274066 -600.000000
   vertex -2822.094476 -77.274066 -180.000000
   vertex -2812.185325 -73.910363 -180.000000
  endloop
 endfacet
 facet normal -0.321439 0.946930 0.000000
  outer loop
   vertex -2812.185325 -73.910363 -600.000000
   vertex -2822.094476 -77.274066 -600.000000
   vertex -2812.185325 -73.910363 -180.000000
  endloop
 endfacet
 facet normal -0.195090 0.980785 0.000000
  outer loop
   vertex -2832.357905 -79.315589 -600.000000
   vertex -2832.357905 -79.315589 -180.000000
   vertex -2822.094476 -77.274066 -180.000000
  endloop
 endfacet
 facet normal -0.195090 0.980785 0.000000
  outer loop
   vertex -2822.094476 -77.274066 -600.000000
   vertex -2832.357905 -79.315589 -600.000000
   vertex -2822.094476 -77.274066 -180.000000
  endloop
 endfacet
 facet normal -0.065403 0.997859 0.000000
  outer loop
   vertex -2842.800000 -80.000000 -600.000000
   vertex -2842.800000 -80.000000 -180.000000
   vertex -2832.357905 -79.315589 -180.000000
  endloop
 endfacet
 facet normal -0.065403 0.997859 0.000000
  outer loop
   vertex -2832.357905 -79.315589 -600.000000
   vertex -2842.800000 -80.000000 -600.000000
   vertex -2832.357905 -79.315589 -180.000000
  endloop
 endfacet
 facet normal 0.065403 0.997859 -0.000000
  outer loop
   vertex -2853.242095 -79.315589 -600.000000
   vertex -2853.242095 -79.315589 -180.000000
   vertex -2842.800000 -80.000000 -180.000000
  endloop
 endfacet
 facet normal 0.065403 0.997859 -0.000000
  outer loop
   vertex -2842.800000 -80.000000 -600.000000
   vertex -2853.242095 -79.315589 -600.000000
   vertex -2842.800000 -80.000000 -180.000000
  endloop
 endfacet
 facet normal 0.195090 0.980785 -0.000000
  outer loop
   vertex -2863.505524 -77.274066 -600.000000
   vertex -2863.505524 -77.274066 -180.000000
   vertex -2853.242095 -79.315589 -180.000000
  endloop
 endfacet
 facet normal 0.195090 0.980785 -0.000000
  outer loop
   vertex -2853.242095 -79.315589 -600.000000
   vertex -2863.505524 -77.274066 -600.000000
   vertex -2853.242095 -79.315589 -180.000000
  endloop
 endfacet
 facet normal 0.321439 0.946930 -0.000000
  outer loop
   vertex -2873.414675 -73.910363 -600.000000
   vertex -2873.414675 -73.910363 -180.000000
   vertex -2863.505524 -77.274066 -180.000000
  endloop
 endfacet
 facet normal 0.321439 0.946930 -0.000000
  outer loop
   vertex -2863.505524 -77.274066 -600.000000
   vertex -2873.414675 -73.910363 -600.000000
   vertex -2863.505524 -77.274066 -180.000000
  endloop
 endfacet
 facet normal 0.442289 0.896873 -0.000000
  outer loop
   vertex -2882.800000 -69.282032 -600.000000
   vertex -2882.800000 -69.282032 -180.000000
   vertex -2873.414675 -73.910363 -180.000000
  endloop
 endfacet
 facet normal 0.442289 0.896873 -0.000000
  outer loop
   vertex -2873.414675 -73.910363 -600.000000
   vertex -2882.800000 -69.282032 -600.000000
   vertex -2873.414675 -73.910363 -180.000000
  endloop
 endfacet
 facet normal 0.555570 0.831470 -0.000000
  outer loop
   vertex -2891.500914 -63.468267 -600.000000
   vertex -2891.500914 -63.468267 -180.000000
   vertex -2882.800000 -69.282032 -180.000000
  endloop
 endfacet
 facet normal 0.555570 0.831470 -0.000000
  outer loop
   vertex -2882.800000 -69.282032 -600.000000
   vertex -2891.500914 -63.468267 -600.000000
   vertex -2882.800000 -69.282032 -180.000000
  endloop
 endfacet
 facet normal 0.659346 0.751840 -0.000000
  outer loop
   vertex -2899.368542 -56.568542 -600.000000
   vertex -2899.368542 -56.568542 -180.000000
   vertex -2891.500914 -63.468267 -180.000000
  endloop
 endfacet
 facet normal 0.659346 0.751840 -0.000000
  outer loop
   vertex -2891.500914 -63.468267 -600.000000
   vertex -2899.368542 -56.568542 -600.000000
   vertex -2891.500914 -63.468267 -180.000000
  endloop
 endfacet
 facet normal 0.751840 0.659346 -0.000000
  outer loop
   vertex -2906.268267 -48.700914 -600.000000
   vertex -2906.268267 -48.700914 -180.000000
   vertex -2899.368542 -56.568542 -180.000000
  endloop
 endfacet
 facet normal 0.751840 0.659346 -0.000000
  outer loop
   vertex -2899.368542 -56.568542 -600.000000
   vertex -2906.268267 -48.700914 -600.000000
   vertex -2899.368542 -56.568542 -180.000000
  endloop
 endfacet
 facet normal 0.831470 0.555570 -0.000000
  outer loop
   vertex -2912.082032 -40.000000 -600.000000
   vertex -2912.082032 -40.000000 -180.000000
   vertex -2906.268267 -48.700914 -180.000000
  endloop
 endfacet
 facet normal 0.831470 0.555570 -0.000000
  outer loop
   vertex -2906.268267 -48.700914 -600.000000
   vertex -2912.082032 -40.000000 -600.000000
   vertex -2906.268267 -48.700914 -180.000000
  endloop
 endfacet
 facet normal 0.896873 0.442289 -0.000000
  outer loop
   vertex -2916.710363 -30.614675 -600.000000
   vertex -2916.710363 -30.614675 -180.000000
   vertex -2912.082032 -40.000000 -180.000000
  endloop
 endfacet
 facet normal 0.896873 0.442289 -0.000000
  outer loop
   vertex -2912.082032 -40.000000 -600.000000
   vertex -2916.710363 -30.614675 -600.000000
   vertex -2912.082032 -40.000000 -180.000000
  endloop
 endfacet
 facet normal 0.946930 0.321439 -0.000000
  outer loop
   vertex -2920.074066 -20.705524 -600.000000
   vertex -2920.074066 -20.705524 -180.000000
   vertex -2916.710363 -30.614675 -180.000000
  endloop
 endfacet
 facet normal 0.946930 0.321439 -0.000000
  outer loop
   vertex -2916.710363 -30.614675 -600.000000
   vertex -2920.074066 -20.705524 -600.000000
   vertex -2916.710363 -30.614675 -180.000000
  endloop
 endfacet
 facet normal 0.980785 0.195090 -0.000000
  outer loop
   vertex -2922.115589 -10.442095 -600.000000
   vertex -2922.115589 -10.442095 -180.000000
   vertex -2920.074066 -20.705524 -180.000000
  endloop
 endfacet
 facet normal 0.980785 0.195090 -0.000000
  outer loop
   vertex -2920.074066 -20.705524 -600.000000
   vertex -2922.115589 -10.442095 -600.000000
   vertex -2920.074066 -20.705524 -180.000000
  endloop
 endfacet
 facet normal 0.997859 0.065403 -0.000000
  outer loop
   vertex -2922.800000 -0.000000 -600.000000
   vertex -2922.800000 -0.000000 -180.000000
   vertex -2922.115589 -10.442095 -180.000000
  endloop
 endfacet
 facet normal 0.997859 0.065403 -0.000000
  outer loop
   vertex -2922.115589 -10.442095 -600.000000
   vertex -2922.800000 -0.000000 -600.000000
   vertex -2922.115589 -10.442095 -180.000000
  endloop
 endfacet
 facet normal 0.997859 -0.065403 0.000000
  outer loop
   vertex -2922.115589 10.442095 -600.000000
   vertex -2922.115589 10.442095 -180.000000
   vertex -2922.800000 -0.000000 -180.000000
  endloop
 endfacet
 facet normal 0.997859 -0.065403 0.000000
  outer loop
   vertex -2922.800000 -0.000000 -600.000000
   vertex -2922.115589 10.442095 -600.000000
   vertex -2922.800000 -0.000000 -180.000000
  endloop
 endfacet
 facet normal 0.980785 -0.195090 0.000000
  outer loop
   vertex -2920.074066 20.705524 -600.000000
   vertex -2920.074066 20.705524 -180.000000
   vertex -2922.115589 10.442095 -180.000000
  endloop
 endfacet
 facet normal 0.980785 -0.195090 0.000000
  outer loop
   vertex -2922.115589 10.442095 -600.000000
   vertex -2920.074066 20.705524 -600.000000
   vertex -2922.115589 10.442095 -180.000000
  endloop
 endfacet
 facet normal 0.946930 -0.321439 0.000000
  outer loop
   vertex -2916.710363 30.614675 -600.000000
   vertex -2916.710363 30.614675 -180.000000
   vertex -2920.074066 20.705524 -180.000000
  endloop
 endfacet
 facet normal 0.946930 -0.321439 0.000000
  outer loop
   vertex -2920.074066 20.705524 -600.000000
   vertex -2916.710363 30.614675 -600.000000
   vertex -2920.074066 20.705524 -180.000000
  endloop
 endfacet
 facet normal 0.896873 -0.442289 0.000000
  outer loop
   vertex -2912.082032 40.000000 -600.000000
   vertex -2912.082032 40.000000 -180.000000
   vertex -2916.710363 30.614675 -180.000000
  endloop
 endfacet
 facet normal 0.896873 -0.442289 0.000000
  outer loop
   vertex -2916.710363 30.614675 -600.000000
   vertex -2912.082032 40.000000 -600.000000
   vertex -2916.710363 30.614675 -180.000000
  endloop
 endfacet
 facet normal 0.831470 -0.555570 0.000000
  outer loop
   vertex -2906.268267 48.700914 -600.000000
   vertex -2906.268267 48.700914 -180.000000
   vertex -2912.082032 40.000000 -180.000000
  endloop
 endfacet
 facet normal 0.831470 -0.555570 0.000000
  outer loop
   vertex -2912.082032 40.000000 -600.000000
   vertex -2906.268267 48.700914 -600.000000
   vertex -2912.082032 40.000000 -180.000000
  endloop
 endfacet
 facet normal 0.751840 -0.659346 0.000000
  outer loop
   vertex -2899.368542 56.568542 -600.000000
   vertex -2899.368542 56.568542 -180.000000
   vertex -2906.268267 48.700914 -180.000000
  endloop
 endfacet
 facet normal 0.751840 -0.659346 0.000000
  outer loop
   vertex -2906.268267 48.700914 -600.000000
   vertex -2899.368542 56.568542 -600.000000
   vertex -2906.268267 48.700914 -180.000000
  endloop
 endfacet
 facet normal 0.659346 -0.751840 0.000000
  outer loop
   vertex -2891.500914 63.468267 -600.000000
   vertex -2891.500914 63.468267 -180.000000
   vertex -2899.368542 56.568542 -180.000000
  endloop
 endfacet
 facet normal 0.659346 -0.751840 0.000000
  outer loop
   vertex -2899.368542 56.568542 -600.000000
   vertex -2891.500914 63.468267 -600.000000
   vertex -2899.368542 56.568542 -180.000000
  endloop
 endfacet
 facet normal 0.555570 -0.831470 0.000000
  outer loop
   vertex -2882.800000 69.282032 -600.000000
   vertex -2882.800000 69.282032 -180.000000
   vertex -2891.500914 63.468267 -180.000000
  endloop
 endfacet
 facet normal 0.555570 -0.831470 0.000000
  outer loop
   vertex -2891.500914 63.468267 -600.000000
   vertex -2882.800000 69.282032 -600.000000
   vertex -2891.500914 63.468267 -180.000000
  endloop
 endfacet
 facet normal 0.442289 -0.896873 0.000000
  outer loop
   vertex -2873.414675 73.910363 -600.000000
   vertex -2873.414675 73.910363 -180.000000
   vertex -2882.800000 69.282032 -180.000000
  endloop
 endfacet
 facet normal 0.442289 -0.896873 0.000000
  outer loop
   vertex -2882.800000 69.282032 -600.000000
   vertex -2873.414675 73.910363 -600.000000
   vertex -2882.800000 69.282032 -180.000000
  endloop
 endfacet
 facet normal 0.321439 -0.946930 0.000000
  outer loop
   vertex -2863.505524 77.274066 -600.000000
   vertex -2863.505524 77.274066 -180.000000
   vertex -2873.414675 73.910363 -180.000000
  endloop
 endfacet
 facet normal 0.321439 -0.946930 0.000000
  outer loop
   vertex -2873.414675 73.910363 -600.000000
   vertex -2863.505524 77.274066 -600.000000
   vertex -2873.414675 73.910363 -180.000000
  endloop
 endfacet
 facet normal 0.195090 -0.980785 0.000000
  outer loop
   vertex -2853.242095 79.315589 -600.000000
   vertex -2853.242095 79.315589 -180.000000
   vertex -2863.505524 77.274066 -180.000000
  endloop
 endfacet
 facet normal 0.195090 -0.980785 0.000000
  outer loop
   vertex -2863.505524 77.274066 -600.000000
   vertex -2853.242095 79.315589 -600.000000
   vertex -2863.505524 77.274066 -180.000000
  endloop
 endfacet
 facet normal 0.065403 -0.997859 0.000000
  outer loop
   vertex -2842.800000 80.000000 -600.000000
   vertex -2842.800000 80.000000 -180.000000
   vertex -2853.242095 79.315589 -180.000000
  endloop
 endfacet
 facet normal 0.065403 -0.997859 0.000000
  outer loop
   vertex -2853.242095 79.315589 -600.000000
   vertex -2842.800000 80.000000 -600.000000
   vertex -2853.242095 79.315589 -180.000000
  endloop
 endfacet
endsolid SII_LH2_feed_0_elbow
