solid SII_LOX_feed_1_Hrun
 facet normal 0.000000 -0.997859 0.065403
  outer loop
   vertex 2920.000000 -90.000000 -120.000000
   vertex 2920.000000 -89.230038 -108.252643
   vertex 2842.800000 -89.230038 -108.252643
  endloop
 endfacet
 facet normal 0.000000 -0.997859 0.065403
  outer loop
   vertex 2920.000000 -90.000000 -120.000000
   vertex 2842.800000 -89.230038 -108.252643
   vertex 2842.800000 -90.000000 -120.000000
  endloop
 endfacet
 facet normal 0.000000 -0.980785 0.195090
  outer loop
   vertex 2920.000000 -89.230038 -108.252643
   vertex 2920.000000 -86.933324 -96.706286
   vertex 2842.800000 -86.933324 -96.706286
  endloop
 endfacet
 facet normal 0.000000 -0.980785 0.195090
  outer loop
   vertex 2920.000000 -89.230038 -108.252643
   vertex 2842.800000 -86.933324 -96.706286
   vertex 2842.800000 -89.230038 -108.252643
  endloop
 endfacet
 facet normal 0.000000 -0.946930 0.321439
  outer loop
   vertex 2920.000000 -86.933324 -96.706286
   vertex 2920.000000 -83.149158 -85.558491
   vertex 2842.800000 -83.149158 -85.558491
  endloop
 endfacet
 facet normal 0.000000 -0.946930 0.321439
  outer loop
   vertex 2920.000000 -86.933324 -96.706286
   vertex 2842.800000 -83.149158 -85.558491
   vertex 2842.800000 -86.933324 -96.706286
  endloop
 endfacet
 facet normal 0.000000 -0.896873 0.442289
  outer loop
   vertex 2920.000000 -83.149158 -85.558491
   vertex 2920.000000 -77.942286 -75.000000
   vertex 2842.800000 -77.942286 -75.000000
  endloop
 endfacet
 facet normal 0.000000 -0.896873 0.442289
  outer loop
   vertex 2920.000000 -83.149158 -85.558491
   vertex 2842.800000 -77.942286 -75.000000
   vertex 2842.800000 -83.149158 -85.558491
  endloop
 endfacet
 facet normal 0.000000 -0.831470 0.555570
  outer loop
   vertex 2920.000000 -77.942286 -75.000000
   vertex 2920.000000 -71.401801 -65.211471
   vertex 2842.800000 -71.401801 -65.211471
  endloop
 endfacet
 facet normal 0.000000 -0.831470 0.555570
  outer loop
   vertex 2920.000000 -77.942286 -75.000000
   vertex 2842.800000 -71.401801 -65.211471
   vertex 2842.800000 -77.942286 -75.000000
  endloop
 endfacet
 facet normal 0.000000 -0.751840 0.659346
  outer loop
   vertex 2920.000000 -71.401801 -65.211471
   vertex 2920.000000 -63.639610 -56.360390
   vertex 2842.800000 -63.639610 -56.360390
  endloop
 endfacet
 facet normal 0.000000 -0.751840 0.659346
  outer loop
   vertex 2920.000000 -71.401801 -65.211471
   vertex 2842.800000 -63.639610 -56.360390
   vertex 2842.800000 -71.401801 -65.211471
  endloop
 endfacet
 facet normal 0.000000 -0.659346 0.751840
  outer loop
   vertex 2920.000000 -63.639610 -56.360390
   vertex 2920.000000 -54.788529 -48.598199
   vertex 2842.800000 -54.788529 -48.598199
  endloop
 endfacet
 facet normal 0.000000 -0.659346 0.751840
  outer loop
   vertex 2920.000000 -63.639610 -56.360390
   vertex 2842.800000 -54.788529 -48.598199
   vertex 2842.800000 -63.639610 -56.360390
  endloop
 endfacet
 facet normal 0.000000 -0.555570 0.831470
  outer loop
   vertex 2920.000000 -54.788529 -48.598199
   vertex 2920.000000 -45.000000 -42.057714
   vertex 2842.800000 -45.000000 -42.057714
  endloop
 endfacet
 facet normal 0.000000 -0.555570 0.831470
  outer loop
   vertex 2920.000000 -54.788529 -48.598199
   vertex 2842.800000 -45.000000 -42.057714
   vertex 2842.800000 -54.788529 -48.598199
  endloop
 endfacet
 facet normal 0.000000 -0.442289 0.896873
  outer loop
   vertex 2920.000000 -45.000000 -42.057714
   vertex 2920.000000 -34.441509 -36.850842
   vertex 2842.800000 -34.441509 -36.850842
  endloop
 endfacet
 facet normal 0.000000 -0.442289 0.896873
  outer loop
   vertex 2920.000000 -45.000000 -42.057714
   vertex 2842.800000 -34.441509 -36.850842
   vertex 2842.800000 -45.000000 -42.057714
  endloop
 endfacet
 facet normal 0.000000 -0.321439 0.946930
  outer loop
   vertex 2920.000000 -34.441509 -36.850842
   vertex 2920.000000 -23.293714 -33.066676
   vertex 2842.800000 -23.293714 -33.066676
  endloop
 endfacet
 facet normal 0.000000 -0.321439 0.946930
  outer loop
   vertex 2920.000000 -34.441509 -36.850842
   vertex 2842.800000 -23.293714 -33.066676
   vertex 2842.800000 -34.441509 -36.850842
  endloop
 endfacet
 facet normal 0.000000 -0.195090 0.980785
  outer loop
   vertex 2920.000000 -23.293714 -33.066676
   vertex 2920.000000 -11.747357 -30.769962
   vertex 2842.800000 -11.747357 -30.769962
  endloop
 endfacet
 facet normal 0.000000 -0.195090 0.980785
  outer loop
   vertex 2920.000000 -23.293714 -33.066676
   vertex 2842.800000 -11.747357 -30.769962
   vertex 2842.800000 -23.293714 -33.066676
  endloop
 endfacet
 facet normal 0.000000 -0.065403 0.997859
  outer loop
   vertex 2920.000000 -11.747357 -30.769962
   vertex 2920.000000 -0.000000 -30.000000
   vertex 2842.800000 -0.000000 -30.000000
  endloop
 endfacet
 facet normal 0.000000 -0.065403 0.997859
  outer loop
   vertex 2920.000000 -11.747357 -30.769962
   vertex 2842.800000 -0.000000 -30.000000
   vertex 2842.800000 -11.747357 -30.769962
  endloop
 endfacet
 facet normal 0.000000 0.065403 0.997859
  outer loop
   vertex 2920.000000 -0.000000 -30.000000
   vertex 2920.000000 11.747357 -30.769962
   vertex 2842.800000 11.747357 -30.769962
  endloop
 endfacet
 facet normal 0.000000 0.065403 0.997859
  outer loop
   vertex 2920.000000 -0.000000 -30.000000
   vertex 2842.800000 11.747357 -30.769962
   vertex 2842.800000 -0.000000 -30.000000
  endloop
 endfacet
 facet normal 0.000000 0.195090 0.980785
  outer loop
   vertex 2920.000000 11.747357 -30.769962
   vertex 2920.000000 23.293714 -33.066676
   vertex 2842.800000 23.293714 -33.066676
  endloop
 endfacet
 facet normal 0.000000 0.195090 0.980785
  outer loop
   vertex 2920.000000 11.747357 -30.769962
   vertex 2842.800000 23.293714 -33.066676
   vertex 2842.800000 11.747357 -30.769962
  endloop
 endfacet
 facet normal 0.000000 0.321439 0.946930
  outer loop
   vertex 2920.000000 23.293714 -33.066676
   vertex 2920.000000 34.441509 -36.850842
   vertex 2842.800000 34.441509 -36.850842
  endloop
 endfacet
 facet normal 0.000000 0.321439 0.946930
  outer loop
   vertex 2920.000000 23.293714 -33.066676
   vertex 2842.800000 34.441509 -36.850842
   vertex 2842.800000 23.293714 -33.066676
  endloop
 endfacet
 facet normal 0.000000 0.442289 0.896873
  outer loop
   vertex 2920.000000 34.441509 -36.850842
   vertex 2920.000000 45.000000 -42.057714
   vertex 2842.800000 45.000000 -42.057714
  endloop
 endfacet
 facet normal 0.000000 0.442289 0.896873
  outer loop
   vertex 2920.000000 34.441509 -36.850842
   vertex 2842.800000 45.000000 -42.057714
   vertex 2842.800000 34.441509 -36.850842
  endloop
 endfacet
 facet normal 0.000000 0.555570 0.831470
  outer loop
   vertex 2920.000000 45.000000 -42.057714
   vertex 2920.000000 54.788529 -48.598199
   vertex 2842.800000 54.788529 -48.598199
  endloop
 endfacet
 facet normal 0.000000 0.555570 0.831470
  outer loop
   vertex 2920.000000 45.000000 -42.057714
   vertex 2842.800000 54.788529 -48.598199
   vertex 2842.800000 45.000000 -42.057714
  endloop
 endfacet
 facet normal 0.000000 0.659346 0.751840
  outer loop
   vertex 2920.000000 54.788529 -48.598199
   vertex 2920.000000 63.639610 -56.360390
   vertex 2842.800000 63.639610 -56.360390
  endloop
 endfacet
 facet normal 0.000000 0.659346 0.751840
  outer loop
   vertex 2920.000000 54.788529 -48.598199
   vertex 2842.800000 63.639610 -56.360390
   vertex 2842.800000 54.788529 -48.598199
  endloop
 endfacet
 facet normal 0.000000 0.751840 0.659346
  outer loop
   vertex 2920.000000 63.639610 -56.360390
   vertex 2920.000000 71.401801 -65.211471
   vertex 2842.800000 71.401801 -65.211471
  endloop
 endfacet
 facet normal 0.000000 0.751840 0.659346
  outer loop
   vertex 2920.000000 63.639610 -56.360390
   vertex 2842.800000 71.401801 -65.211471
   vertex 2842.800000 63.639610 -56.360390
  endloop
 endfacet
 facet normal 0.000000 0.831470 0.555570
  outer loop
   vertex 2920.000000 71.401801 -65.211471
   vertex 2920.000000 77.942286 -75.000000
   vertex 2842.800000 77.942286 -75.000000
  endloop
 endfacet
 facet normal 0.000000 0.831470 0.555570
  outer loop
   vertex 2920.000000 71.401801 -65.211471
   vertex 2842.800000 77.942286 -75.000000
   vertex 2842.800000 71.401801 -65.211471
  endloop
 endfacet
 facet normal 0.000000 0.896873 0.442289
  outer loop
   vertex 2920.000000 77.942286 -75.000000
   vertex 2920.000000 83.149158 -85.558491
   vertex 2842.800000 83.149158 -85.558491
  endloop
 endfacet
 facet normal 0.000000 0.896873 0.442289
  outer loop
   vertex 2920.000000 77.942286 -75.000000
   vertex 2842.800000 83.149158 -85.558491
   vertex 2842.800000 77.942286 -75.000000
  endloop
 endfacet
 facet normal 0.000000 0.946930 0.321439
  outer loop
   vertex 2920.000000 83.149158 -85.558491
   vertex 2920.000000 86.933324 -96.706286
   vertex 2842.800000 86.933324 -96.706286
  endloop
 endfacet
 facet normal 0.000000 0.946930 0.321439
  outer loop
   vertex 2920.000000 83.149158 -85.558491
   vertex 2842.800000 86.933324 -96.706286
   vertex 2842.800000 83.149158 -85.558491
  endloop
 endfacet
 facet normal 0.000000 0.980785 0.195090
  outer loop
   vertex 2920.000000 86.933324 -96.706286
   vertex 2920.000000 89.230038 -108.252643
   vertex 2842.800000 89.230038 -108.252643
  endloop
 endfacet
 facet normal 0.000000 0.980785 0.195090
  outer loop
   vertex 2920.000000 86.933324 -96.706286
   vertex 2842.800000 89.230038 -108.252643
   vertex 2842.800000 86.933324 -96.706286
  endloop
 endfacet
 facet normal 0.000000 0.997859 0.065403
  outer loop
   vertex 2920.000000 89.230038 -108.252643
   vertex 2920.000000 90.000000 -120.000000
   vertex 2842.800000 90.000000 -120.000000
  endloop
 endfacet
 facet normal 0.000000 0.997859 0.065403
  outer loop
   vertex 2920.000000 89.230038 -108.252643
   vertex 2842.800000 90.000000 -120.000000
   vertex 2842.800000 89.230038 -108.252643
  endloop
 endfacet
 facet normal 0.000000 0.997859 -0.065403
  outer loop
   vertex 2920.000000 90.000000 -120.000000
   vertex 2920.000000 89.230038 -131.747357
   vertex 2842.800000 89.230038 -131.747357
  endloop
 endfacet
 facet normal 0.000000 0.997859 -0.065403
  outer loop
   vertex 2920.000000 90.000000 -120.000000
   vertex 2842.800000 89.230038 -131.747357
   vertex 2842.800000 90.000000 -120.000000
  endloop
 endfacet
 facet normal 0.000000 0.980785 -0.195090
  outer loop
   vertex 2920.000000 89.230038 -131.747357
   vertex 2920.000000 86.933324 -143.293714
   vertex 2842.800000 86.933324 -143.293714
  endloop
 endfacet
 facet normal 0.000000 0.980785 -0.195090
  outer loop
   vertex 2920.000000 89.230038 -131.747357
   vertex 2842.800000 86.933324 -143.293714
   vertex 2842.800000 89.230038 -131.747357
  endloop
 endfacet
 facet normal 0.000000 0.946930 -0.321439
  outer loop
   vertex 2920.000000 86.933324 -143.293714
   vertex 2920.000000 83.149158 -154.441509
   vertex 2842.800000 83.149158 -154.441509
  endloop
 endfacet
 facet normal 0.000000 0.946930 -0.321439
  outer loop
   vertex 2920.000000 86.933324 -143.293714
   vertex 2842.800000 83.149158 -154.441509
   vertex 2842.800000 86.933324 -143.293714
  endloop
 endfacet
 facet normal 0.000000 0.896873 -0.442289
  outer loop
   vertex 2920.000000 83.149158 -154.441509
   vertex 2920.000000 77.942286 -165.000000
   vertex 2842.800000 77.942286 -165.000000
  endloop
 endfacet
 facet normal 0.000000 0.896873 -0.442289
  outer loop
   vertex 2920.000000 83.149158 -154.441509
   vertex 2842.800000 77.942286 -165.000000
   vertex 2842.800000 83.149158 -154.441509
  endloop
 endfacet
 facet normal 0.000000 0.831470 -0.555570
  outer loop
   vertex 2920.000000 77.942286 -165.000000
   vertex 2920.000000 71.401801 -174.788529
   vertex 2842.800000 71.401801 -174.788529
  endloop
 endfacet
 facet normal 0.000000 0.831470 -0.555570
  outer loop
   vertex 2920.000000 77.942286 -165.000000
   vertex 2842.800000 71.401801 -174.788529
   vertex 2842.800000 77.942286 -165.000000
  endloop
 endfacet
 facet normal 0.000000 0.751840 -0.659346
  outer loop
   vertex 2920.000000 71.401801 -174.788529
   vertex 2920.000000 63.639610 -183.639610
   vertex 2842.800000 63.639610 -183.639610
  endloop
 endfacet
 facet normal 0.000000 0.751840 -0.659346
  outer loop
   vertex 2920.000000 71.401801 -174.788529
   vertex 2842.800000 63.639610 -183.639610
   vertex 2842.800000 71.401801 -174.788529
  endloop
 endfacet
 facet normal 0.000000 0.659346 -0.751840
  outer loop
   vertex 2920.000000 63.639610 -183.639610
   vertex 2920.000000 54.788529 -191.401801
   vertex 2842.800000 54.788529 -191.401801
  endloop
 endfacet
 facet normal 0.000000 0.659346 -0.751840
  outer loop
   vertex 2920.000000 63.639610 -183.639610
   vertex 2842.800000 54.788529 -191.401801
   vertex 2842.800000 63.639610 -183.639610
  endloop
 endfacet
 facet normal 0.000000 0.555570 -0.831470
  outer loop
   vertex 2920.000000 54.788529 -191.401801
   vertex 2920.000000 45.000000 -197.942286
   vertex 2842.800000 45.000000 -197.942286
  endloop
 endfacet
 facet normal 0.000000 0.555570 -0.831470
  outer loop
   vertex 2920.000000 54.788529 -191.401801
   vertex 2842.800000 45.000000 -197.942286
   vertex 2842.800000 54.788529 -191.401801
  endloop
 endfacet
 facet normal 0.000000 0.442289 -0.896873
  outer loop
   vertex 2920.000000 45.000000 -197.942286
   vertex 2920.000000 34.441509 -203.149158
   vertex 2842.800000 34.441509 -203.149158
  endloop
 endfacet
 facet normal 0.000000 0.442289 -0.896873
  outer loop
   vertex 2920.000000 45.000000 -197.942286
   vertex 2842.800000 34.441509 -203.149158
   vertex 2842.800000 45.000000 -197.942286
  endloop
 endfacet
 facet normal 0.000000 0.321439 -0.946930
  outer loop
   vertex 2920.000000 34.441509 -203.149158
   vertex 2920.000000 23.293714 -206.933324
   vertex 2842.800000 23.293714 -206.933324
  endloop
 endfacet
 facet normal 0.000000 0.321439 -0.946930
  outer loop
   vertex 2920.000000 34.441509 -203.149158
   vertex 2842.800000 23.293714 -206.933324
   vertex 2842.800000 34.441509 -203.149158
  endloop
 endfacet
 facet normal 0.000000 0.195090 -0.980785
  outer loop
   vertex 2920.000000 23.293714 -206.933324
   vertex 2920.000000 11.747357 -209.230038
   vertex 2842.800000 11.747357 -209.230038
  endloop
 endfacet
 facet normal 0.000000 0.195090 -0.980785
  outer loop
   vertex 2920.000000 23.293714 -206.933324
   vertex 2842.800000 11.747357 -209.230038
   vertex 2842.800000 23.293714 -206.933324
  endloop
 endfacet
 facet normal 0.000000 0.065403 -0.997859
  outer loop
   vertex 2920.000000 11.747357 -209.230038
   vertex 2920.000000 0.000000 -210.000000
   vertex 2842.800000 0.000000 -210.000000
  endloop
 endfacet
 facet normal 0.000000 0.065403 -0.997859
  outer loop
   vertex 2920.000000 11.747357 -209.230038
   vertex 2842.800000 0.000000 -210.000000
   vertex 2842.800000 11.747357 -209.230038
  endloop
 endfacet
 facet normal 0.000000 -0.065403 -0.997859
  outer loop
   vertex 2920.000000 0.000000 -210.000000
   vertex 2920.000000 -11.747357 -209.230038
   vertex 2842.800000 -11.747357 -209.230038
  endloop
 endfacet
 facet normal -0.000000 -0.065403 -0.997859
  outer loop
   vertex 2920.000000 0.000000 -210.000000
   vertex 2842.800000 -11.747357 -209.230038
   vertex 2842.800000 0.000000 -210.000000
  endloop
 endfacet
 facet normal 0.000000 -0.195090 -0.980785
  outer loop
   vertex 2920.000000 -11.747357 -209.230038
   vertex 2920.000000 -23.293714 -206.933324
   vertex 2842.800000 -23.293714 -206.933324
  endloop
 endfacet
 facet normal -0.000000 -0.195090 -0.980785
  outer loop
   vertex 2920.000000 -11.747357 -209.230038
   vertex 2842.800000 -23.293714 -206.933324
   vertex 2842.800000 -11.747357 -209.230038
  endloop
 endfacet
 facet normal 0.000000 -0.321439 -0.946930
  outer loop
   vertex 2920.000000 -23.293714 -206.933324
   vertex 2920.000000 -34.441509 -203.149158
   vertex 2842.800000 -34.441509 -203.149158
  endloop
 endfacet
 facet normal -0.000000 -0.321439 -0.946930
  outer loop
   vertex 2920.000000 -23.293714 -206.933324
   vertex 2842.800000 -34.441509 -203.149158
   vertex 2842.800000 -23.293714 -206.933324
  endloop
 endfacet
 facet normal 0.000000 -0.442289 -0.896873
  outer loop
   vertex 2920.000000 -34.441509 -203.149158
   vertex 2920.000000 -45.000000 -197.942286
   vertex 2842.800000 -45.000000 -197.942286
  endloop
 endfacet
 facet normal -0.000000 -0.442289 -0.896873
  outer loop
   vertex 2920.000000 -34.441509 -203.149158
   vertex 2842.800000 -45.000000 -197.942286
   vertex 2842.800000 -34.441509 -203.149158
  endloop
 endfacet
 facet normal 0.000000 -0.555570 -0.831470
  outer loop
   vertex 2920.000000 -45.000000 -197.942286
   vertex 2920.000000 -54.788529 -191.401801
   vertex 2842.800000 -54.788529 -191.401801
  endloop
 endfacet
 facet normal -0.000000 -0.555570 -0.831470
  outer loop
   vertex 2920.000000 -45.000000 -197.942286
   vertex 2842.800000 -54.788529 -191.401801
   vertex 2842.800000 -45.000000 -197.942286
  endloop
 endfacet
 facet normal 0.000000 -0.659346 -0.751840
  outer loop
   vertex 2920.000000 -54.788529 -191.401801
   vertex 2920.000000 -63.639610 -183.639610
   vertex 2842.800000 -63.639610 -183.639610
  endloop
 endfacet
 facet normal -0.000000 -0.659346 -0.751840
  outer loop
   vertex 2920.000000 -54.788529 -191.401801
   vertex 2842.800000 -63.639610 -183.639610
   vertex 2842.800000 -54.788529 -191.401801
  endloop
 endfacet
 facet normal 0.000000 -0.751840 -0.659346
  outer loop
   vertex 2920.000000 -63.639610 -183.639610
   vertex 2920.000000 -71.401801 -174.788529
   vertex 2842.800000 -71.401801 -174.788529
  endloop
 endfacet
 facet normal -0.000000 -0.751840 -0.659346
  outer loop
   vertex 2920.000000 -63.639610 -183.639610
   vertex 2842.800000 -71.401801 -174.788529
   vertex 2842.800000 -63.639610 -183.639610
  endloop
 endfacet
 facet normal 0.000000 -0.831470 -0.555570
  outer loop
   vertex 2920.000000 -71.401801 -174.788529
   vertex 2920.000000 -77.942286 -165.000000
   vertex 2842.800000 -77.942286 -165.000000
  endloop
 endfacet
 facet normal -0.000000 -0.831470 -0.555570
  outer loop
   vertex 2920.000000 -71.401801 -174.788529
   vertex 2842.800000 -77.942286 -165.000000
   vertex 2842.800000 -71.401801 -174.788529
  endloop
 endfacet
 facet normal 0.000000 -0.896873 -0.442289
  outer loop
   vertex 2920.000000 -77.942286 -165.000000
   vertex 2920.000000 -83.149158 -154.441509
   vertex 2842.800000 -83.149158 -154.441509
  endloop
 endfacet
 facet normal -0.000000 -0.896873 -0.442289
  outer loop
   vertex 2920.000000 -77.942286 -165.000000
   vertex 2842.800000 -83.149158 -154.441509
   vertex 2842.800000 -77.942286 -165.000000
  endloop
 endfacet
 facet normal 0.000000 -0.946930 -0.321439
  outer loop
   vertex 2920.000000 -83.149158 -154.441509
   vertex 2920.000000 -86.933324 -143.293714
   vertex 2842.800000 -86.933324 -143.293714
  endloop
 endfacet
 facet normal -0.000000 -0.946930 -0.321439
  outer loop
   vertex 2920.000000 -83.149158 -154.441509
   vertex 2842.800000 -86.933324 -143.293714
   vertex 2842.800000 -83.149158 -154.441509
  endloop
 endfacet
 facet normal 0.000000 -0.980785 -0.195090
  outer loop
   vertex 2920.000000 -86.933324 -143.293714
   vertex 2920.000000 -89.230038 -131.747357
   vertex 2842.800000 -89.230038 -131.747357
  endloop
 endfacet
 facet normal -0.000000 -0.980785 -0.195090
  outer loop
   vertex 2920.000000 -86.933324 -143.293714
   vertex 2842.800000 -89.230038 -131.747357
   vertex 2842.800000 -86.933324 -143.293714
  endloop
 endfacet
 facet normal 0.000000 -0.997859 -0.065403
  outer loop
   vertex 2920.000000 -89.230038 -131.747357
   vertex 2920.000000 -90.000000 -120.000000
   vertex 2842.800000 -90.000000 -120.000000
  endloop
 endfacet
 facet normal -0.000000 -0.997859 -0.065403
  outer loop
   vertex 2920.000000 -89.230038 -131.747357
   vertex 2842.800000 -90.000000 -120.000000
   vertex 2842.800000 -89.230038 -131.747357
  endloop
 endfacet
 facet normal 0.000000 0.997859 -0.065403
  outer loop
   vertex 2842.800000 -79.315589 -109.557905
   vertex 2920.000000 -79.315589 -109.557905
   vertex 2920.000000 -80.000000 -120.000000
  endloop
 endfacet
 facet normal 0.000000 0.997859 -0.065403
  outer loop
   vertex 2842.800000 -80.000000 -120.000000
   vertex 2842.800000 -79.315589 -109.557905
   vertex 2920.000000 -80.000000 -120.000000
  endloop
 endfacet
 facet normal 0.000000 0.980785 -0.195090
  outer loop
   vertex 2842.800000 -77.274066 -99.294476
   vertex 2920.000000 -77.274066 -99.294476
   vertex 2920.000000 -79.315589 -109.557905
  endloop
 endfacet
 facet normal 0.000000 0.980785 -0.195090
  outer loop
   vertex 2842.800000 -79.315589 -109.557905
   vertex 2842.800000 -77.274066 -99.294476
   vertex 2920.000000 -79.315589 -109.557905
  endloop
 endfacet
 facet normal 0.000000 0.946930 -0.321439
  outer loop
   vertex 2842.800000 -73.910363 -89.385325
   vertex 2920.000000 -73.910363 -89.385325
   vertex 2920.000000 -77.274066 -99.294476
  endloop
 endfacet
 facet normal 0.000000 0.946930 -0.321439
  outer loop
   vertex 2842.800000 -77.274066 -99.294476
   vertex 2842.800000 -73.910363 -89.385325
   vertex 2920.000000 -77.274066 -99.294476
  endloop
 endfacet
 facet normal 0.000000 0.896873 -0.442289
  outer loop
   vertex 2842.800000 -69.282032 -80.000000
   vertex 2920.000000 -69.282032 -80.000000
   vertex 2920.000000 -73.910363 -89.385325
  endloop
 endfacet
 facet normal 0.000000 0.896873 -0.442289
  outer loop
   vertex 2842.800000 -73.910363 -89.385325
   vertex 2842.800000 -69.282032 -80.000000
   vertex 2920.000000 -73.910363 -89.385325
  endloop
 endfacet
 facet normal 0.000000 0.831470 -0.555570
  outer loop
   vertex 2842.800000 -63.468267 -71.299086
   vertex 2920.000000 -63.468267 -71.299086
   vertex 2920.000000 -69.282032 -80.000000
  endloop
 endfacet
 facet normal 0.000000 0.831470 -0.555570
  outer loop
   vertex 2842.800000 -69.282032 -80.000000
   vertex 2842.800000 -63.468267 -71.299086
   vertex 2920.000000 -69.282032 -80.000000
  endloop
 endfacet
 facet normal 0.000000 0.751840 -0.659346
  outer loop
   vertex 2842.800000 -56.568542 -63.431458
   vertex 2920.000000 -56.568542 -63.431458
   vertex 2920.000000 -63.468267 -71.299086
  endloop
 endfacet
 facet normal 0.000000 0.751840 -0.659346
  outer loop
   vertex 2842.800000 -63.468267 -71.299086
   vertex 2842.800000 -56.568542 -63.431458
   vertex 2920.000000 -63.468267 -71.299086
  endloop
 endfacet
 facet normal 0.000000 0.659346 -0.751840
  outer loop
   vertex 2842.800000 -48.700914 -56.531733
   vertex 2920.000000 -48.700914 -56.531733
   vertex 2920.000000 -56.568542 -63.431458
  endloop
 endfacet
 facet normal 0.000000 0.659346 -0.751840
  outer loop
   vertex 2842.800000 -56.568542 -63.431458
   vertex 2842.800000 -48.700914 -56.531733
   vertex 2920.000000 -56.568542 -63.431458
  endloop
 endfacet
 facet normal 0.000000 0.555570 -0.831470
  outer loop
   vertex 2842.800000 -40.000000 -50.717968
   vertex 2920.000000 -40.000000 -50.717968
   vertex 2920.000000 -48.700914 -56.531733
  endloop
 endfacet
 facet normal 0.000000 0.555570 -0.831470
  outer loop
   vertex 2842.800000 -48.700914 -56.531733
   vertex 2842.800000 -40.000000 -50.717968
   vertex 2920.000000 -48.700914 -56.531733
  endloop
 endfacet
 facet normal 0.000000 0.442289 -0.896873
  outer loop
   vertex 2842.800000 -30.614675 -46.089637
   vertex 2920.000000 -30.614675 -46.089637
   vertex 2920.000000 -40.000000 -50.717968
  endloop
 endfacet
 facet normal 0.000000 0.442289 -0.896873
  outer loop
   vertex 2842.800000 -40.000000 -50.717968
   vertex 2842.800000 -30.614675 -46.089637
   vertex 2920.000000 -40.000000 -50.717968
  endloop
 endfacet
 facet normal 0.000000 0.321439 -0.946930
  outer loop
   vertex 2842.800000 -20.705524 -42.725934
   vertex 2920.000000 -20.705524 -42.725934
   vertex 2920.000000 -30.614675 -46.089637
  endloop
 endfacet
 facet normal 0.000000 0.321439 -0.946930
  outer loop
   vertex 2842.800000 -30.614675 -46.089637
   vertex 2842.800000 -20.705524 -42.725934
   vertex 2920.000000 -30.614675 -46.089637
  endloop
 endfacet
 facet normal 0.000000 0.195090 -0.980785
  outer loop
   vertex 2842.800000 -10.442095 -40.684411
   vertex 2920.000000 -10.442095 -40.684411
   vertex 2920.000000 -20.705524 -42.725934
  endloop
 endfacet
 facet normal 0.000000 0.195090 -0.980785
  outer loop
   vertex 2842.800000 -20.705524 -42.725934
   vertex 2842.800000 -10.442095 -40.684411
   vertex 2920.000000 -20.705524 -42.725934
  endloop
 endfacet
 facet normal 0.000000 0.065403 -0.997859
  outer loop
   vertex 2842.800000 -0.000000 -40.000000
   vertex 2920.000000 -0.000000 -40.000000
   vertex 2920.000000 -10.442095 -40.684411
  endloop
 endfacet
 facet normal 0.000000 0.065403 -0.997859
  outer loop
   vertex 2842.800000 -10.442095 -40.684411
   vertex 2842.800000 -0.000000 -40.000000
   vertex 2920.000000 -10.442095 -40.684411
  endloop
 endfacet
 facet normal 0.000000 -0.065403 -0.997859
  outer loop
   vertex 2842.800000 10.442095 -40.684411
   vertex 2920.000000 10.442095 -40.684411
   vertex 2920.000000 -0.000000 -40.000000
  endloop
 endfacet
 facet normal 0.000000 -0.065403 -0.997859
  outer loop
   vertex 2842.800000 -0.000000 -40.000000
   vertex 2842.800000 10.442095 -40.684411
   vertex 2920.000000 -0.000000 -40.000000
  endloop
 endfacet
 facet normal 0.000000 -0.195090 -0.980785
  outer loop
   vertex 2842.800000 20.705524 -42.725934
   vertex 2920.000000 20.705524 -42.725934
   vertex 2920.000000 10.442095 -40.684411
  endloop
 endfacet
 facet normal 0.000000 -0.195090 -0.980785
  outer loop
   vertex 2842.800000 10.442095 -40.684411
   vertex 2842.800000 20.705524 -42.725934
   vertex 2920.000000 10.442095 -40.684411
  endloop
 endfacet
 facet normal 0.000000 -0.321439 -0.946930
  outer loop
   vertex 2842.800000 30.614675 -46.089637
   vertex 2920.000000 30.614675 -46.089637
   vertex 2920.000000 20.705524 -42.725934
  endloop
 endfacet
 facet normal 0.000000 -0.321439 -0.946930
  outer loop
   vertex 2842.800000 20.705524 -42.725934
   vertex 2842.800000 30.614675 -46.089637
   vertex 2920.000000 20.705524 -42.725934
  endloop
 endfacet
 facet normal 0.000000 -0.442289 -0.896873
  outer loop
   vertex 2842.800000 40.000000 -50.717968
   vertex 2920.000000 40.000000 -50.717968
   vertex 2920.000000 30.614675 -46.089637
  endloop
 endfacet
 facet normal 0.000000 -0.442289 -0.896873
  outer loop
   vertex 2842.800000 30.614675 -46.089637
   vertex 2842.800000 40.000000 -50.717968
   vertex 2920.000000 30.614675 -46.089637
  endloop
 endfacet
 facet normal 0.000000 -0.555570 -0.831470
  outer loop
   vertex 2842.800000 48.700914 -56.531733
   vertex 2920.000000 48.700914 -56.531733
   vertex 2920.000000 40.000000 -50.717968
  endloop
 endfacet
 facet normal 0.000000 -0.555570 -0.831470
  outer loop
   vertex 2842.800000 40.000000 -50.717968
   vertex 2842.800000 48.700914 -56.531733
   vertex 2920.000000 40.000000 -50.717968
  endloop
 endfacet
 facet normal 0.000000 -0.659346 -0.751840
  outer loop
   vertex 2842.800000 56.568542 -63.431458
   vertex 2920.000000 56.568542 -63.431458
   vertex 2920.000000 48.700914 -56.531733
  endloop
 endfacet
 facet normal 0.000000 -0.659346 -0.751840
  outer loop
   vertex 2842.800000 48.700914 -56.531733
   vertex 2842.800000 56.568542 -63.431458
   vertex 2920.000000 48.700914 -56.531733
  endloop
 endfacet
 facet normal 0.000000 -0.751840 -0.659346
  outer loop
   vertex 2842.800000 63.468267 -71.299086
   vertex 2920.000000 63.468267 -71.299086
   vertex 2920.000000 56.568542 -63.431458
  endloop
 endfacet
 facet normal 0.000000 -0.751840 -0.659346
  outer loop
   vertex 2842.800000 56.568542 -63.431458
   vertex 2842.800000 63.468267 -71.299086
   vertex 2920.000000 56.568542 -63.431458
  endloop
 endfacet
 facet normal 0.000000 -0.831470 -0.555570
  outer loop
   vertex 2842.800000 69.282032 -80.000000
   vertex 2920.000000 69.282032 -80.000000
   vertex 2920.000000 63.468267 -71.299086
  endloop
 endfacet
 facet normal 0.000000 -0.831470 -0.555570
  outer loop
   vertex 2842.800000 63.468267 -71.299086
   vertex 2842.800000 69.282032 -80.000000
   vertex 2920.000000 63.468267 -71.299086
  endloop
 endfacet
 facet normal 0.000000 -0.896873 -0.442289
  outer loop
   vertex 2842.800000 73.910363 -89.385325
   vertex 2920.000000 73.910363 -89.385325
   vertex 2920.000000 69.282032 -80.000000
  endloop
 endfacet
 facet normal 0.000000 -0.896873 -0.442289
  outer loop
   vertex 2842.800000 69.282032 -80.000000
   vertex 2842.800000 73.910363 -89.385325
   vertex 2920.000000 69.282032 -80.000000
  endloop
 endfacet
 facet normal 0.000000 -0.946930 -0.321439
  outer loop
   vertex 2842.800000 77.274066 -99.294476
   vertex 2920.000000 77.274066 -99.294476
   vertex 2920.000000 73.910363 -89.385325
  endloop
 endfacet
 facet normal 0.000000 -0.946930 -0.321439
  outer loop
   vertex 2842.800000 73.910363 -89.385325
   vertex 2842.800000 77.274066 -99.294476
   vertex 2920.000000 73.910363 -89.385325
  endloop
 endfacet
 facet normal 0.000000 -0.980785 -0.195090
  outer loop
   vertex 2842.800000 79.315589 -109.557905
   vertex 2920.000000 79.315589 -109.557905
   vertex 2920.000000 77.274066 -99.294476
  endloop
 endfacet
 facet normal 0.000000 -0.980785 -0.195090
  outer loop
   vertex 2842.800000 77.274066 -99.294476
   vertex 2842.800000 79.315589 -109.557905
   vertex 2920.000000 77.274066 -99.294476
  endloop
 endfacet
 facet normal 0.000000 -0.997859 -0.065403
  outer loop
   vertex 2842.800000 80.000000 -120.000000
   vertex 2920.000000 80.000000 -120.000000
   vertex 2920.000000 79.315589 -109.557905
  endloop
 endfacet
 facet normal 0.000000 -0.997859 -0.065403
  outer loop
   vertex 2842.800000 79.315589 -109.557905
   vertex 2842.800000 80.000000 -120.000000
   vertex 2920.000000 79.315589 -109.557905
  endloop
 endfacet
 facet normal 0.000000 -0.997859 0.065403
  outer loop
   vertex 2842.800000 79.315589 -130.442095
   vertex 2920.000000 79.315589 -130.442095
   vertex 2920.000000 80.000000 -120.000000
  endloop
 endfacet
 facet normal 0.000000 -0.997859 0.065403
  outer loop
   vertex 2842.800000 80.000000 -120.000000
   vertex 2842.800000 79.315589 -130.442095
   vertex 2920.000000 80.000000 -120.000000
  endloop
 endfacet
 facet normal 0.000000 -0.980785 0.195090
  outer loop
   vertex 2842.800000 77.274066 -140.705524
   vertex 2920.000000 77.274066 -140.705524
   vertex 2920.000000 79.315589 -130.442095
  endloop
 endfacet
 facet normal 0.000000 -0.980785 0.195090
  outer loop
   vertex 2842.800000 79.315589 -130.442095
   vertex 2842.800000 77.274066 -140.705524
   vertex 2920.000000 79.315589 -130.442095
  endloop
 endfacet
 facet normal 0.000000 -0.946930 0.321439
  outer loop
   vertex 2842.800000 73.910363 -150.614675
   vertex 2920.000000 73.910363 -150.614675
   vertex 2920.000000 77.274066 -140.705524
  endloop
 endfacet
 facet normal 0.000000 -0.946930 0.321439
  outer loop
   vertex 2842.800000 77.274066 -140.705524
   vertex 2842.800000 73.910363 -150.614675
   vertex 2920.000000 77.274066 -140.705524
  endloop
 endfacet
 facet normal 0.000000 -0.896873 0.442289
  outer loop
   vertex 2842.800000 69.282032 -160.000000
   vertex 2920.000000 69.282032 -160.000000
   vertex 2920.000000 73.910363 -150.614675
  endloop
 endfacet
 facet normal 0.000000 -0.896873 0.442289
  outer loop
   vertex 2842.800000 73.910363 -150.614675
   vertex 2842.800000 69.282032 -160.000000
   vertex 2920.000000 73.910363 -150.614675
  endloop
 endfacet
 facet normal 0.000000 -0.831470 0.555570
  outer loop
   vertex 2842.800000 63.468267 -168.700914
   vertex 2920.000000 63.468267 -168.700914
   vertex 2920.000000 69.282032 -160.000000
  endloop
 endfacet
 facet normal 0.000000 -0.831470 0.555570
  outer loop
   vertex 2842.800000 69.282032 -160.000000
   vertex 2842.800000 63.468267 -168.700914
   vertex 2920.000000 69.282032 -160.000000
  endloop
 endfacet
 facet normal 0.000000 -0.751840 0.659346
  outer loop
   vertex 2842.800000 56.568542 -176.568542
   vertex 2920.000000 56.568542 -176.568542
   vertex 2920.000000 63.468267 -168.700914
  endloop
 endfacet
 facet normal 0.000000 -0.751840 0.659346
  outer loop
   vertex 2842.800000 63.468267 -168.700914
   vertex 2842.800000 56.568542 -176.568542
   vertex 2920.000000 63.468267 -168.700914
  endloop
 endfacet
 facet normal 0.000000 -0.659346 0.751840
  outer loop
   vertex 2842.800000 48.700914 -183.468267
   vertex 2920.000000 48.700914 -183.468267
   vertex 2920.000000 56.568542 -176.568542
  endloop
 endfacet
 facet normal 0.000000 -0.659346 0.751840
  outer loop
   vertex 2842.800000 56.568542 -176.568542
   vertex 2842.800000 48.700914 -183.468267
   vertex 2920.000000 56.568542 -176.568542
  endloop
 endfacet
 facet normal 0.000000 -0.555570 0.831470
  outer loop
   vertex 2842.800000 40.000000 -189.282032
   vertex 2920.000000 40.000000 -189.282032
   vertex 2920.000000 48.700914 -183.468267
  endloop
 endfacet
 facet normal 0.000000 -0.555570 0.831470
  outer loop
   vertex 2842.800000 48.700914 -183.468267
   vertex 2842.800000 40.000000 -189.282032
   vertex 2920.000000 48.700914 -183.468267
  endloop
 endfacet
 facet normal 0.000000 -0.442289 0.896873
  outer loop
   vertex 2842.800000 30.614675 -193.910363
   vertex 2920.000000 30.614675 -193.910363
   vertex 2920.000000 40.000000 -189.282032
  endloop
 endfacet
 facet normal 0.000000 -0.442289 0.896873
  outer loop
   vertex 2842.800000 40.000000 -189.282032
   vertex 2842.800000 30.614675 -193.910363
   vertex 2920.000000 40.000000 -189.282032
  endloop
 endfacet
 facet normal 0.000000 -0.321439 0.946930
  outer loop
   vertex 2842.800000 20.705524 -197.274066
   vertex 2920.000000 20.705524 -197.274066
   vertex 2920.000000 30.614675 -193.910363
  endloop
 endfacet
 facet normal 0.000000 -0.321439 0.946930
  outer loop
   vertex 2842.800000 30.614675 -193.910363
   vertex 2842.800000 20.705524 -197.274066
   vertex 2920.000000 30.614675 -193.910363
  endloop
 endfacet
 facet normal 0.000000 -0.195090 0.980785
  outer loop
   vertex 2842.800000 10.442095 -199.315589
   vertex 2920.000000 10.442095 -199.315589
   vertex 2920.000000 20.705524 -197.274066
  endloop
 endfacet
 facet normal 0.000000 -0.195090 0.980785
  outer loop
   vertex 2842.800000 20.705524 -197.274066
   vertex 2842.800000 10.442095 -199.315589
   vertex 2920.000000 20.705524 -197.274066
  endloop
 endfacet
 facet normal 0.000000 -0.065403 0.997859
  outer loop
   vertex 2842.800000 0.000000 -200.000000
   vertex 2920.000000 0.000000 -200.000000
   vertex 2920.000000 10.442095 -199.315589
  endloop
 endfacet
 facet normal 0.000000 -0.065403 0.997859
  outer loop
   vertex 2842.800000 10.442095 -199.315589
   vertex 2842.800000 0.000000 -200.000000
   vertex 2920.000000 10.442095 -199.315589
  endloop
 endfacet
 facet normal -0.000000 0.065403 0.997859
  outer loop
   vertex 2842.800000 -10.442095 -199.315589
   vertex 2920.000000 -10.442095 -199.315589
   vertex 2920.000000 0.000000 -200.000000
  endloop
 endfacet
 facet normal -0.000000 0.065403 0.997859
  outer loop
   vertex 2842.800000 0.000000 -200.000000
   vertex 2842.800000 -10.442095 -199.315589
   vertex 2920.000000 0.000000 -200.000000
  endloop
 endfacet
 facet normal -0.000000 0.195090 0.980785
  outer loop
   vertex 2842.800000 -20.705524 -197.274066
   vertex 2920.000000 -20.705524 -197.274066
   vertex 2920.000000 -10.442095 -199.315589
  endloop
 endfacet
 facet normal -0.000000 0.195090 0.980785
  outer loop
   vertex 2842.800000 -10.442095 -199.315589
   vertex 2842.800000 -20.705524 -197.274066
   vertex 2920.000000 -10.442095 -199.315589
  endloop
 endfacet
 facet normal -0.000000 0.321439 0.946930
  outer loop
   vertex 2842.800000 -30.614675 -193.910363
   vertex 2920.000000 -30.614675 -193.910363
   vertex 2920.000000 -20.705524 -197.274066
  endloop
 endfacet
 facet normal -0.000000 0.321439 0.946930
  outer loop
   vertex 2842.800000 -20.705524 -197.274066
   vertex 2842.800000 -30.614675 -193.910363
   vertex 2920.000000 -20.705524 -197.274066
  endloop
 endfacet
 facet normal -0.000000 0.442289 0.896873
  outer loop
   vertex 2842.800000 -40.000000 -189.282032
   vertex 2920.000000 -40.000000 -189.282032
   vertex 2920.000000 -30.614675 -193.910363
  endloop
 endfacet
 facet normal -0.000000 0.442289 0.896873
  outer loop
   vertex 2842.800000 -30.614675 -193.910363
   vertex 2842.800000 -40.000000 -189.282032
   vertex 2920.000000 -30.614675 -193.910363
  endloop
 endfacet
 facet normal -0.000000 0.555570 0.831470
  outer loop
   vertex 2842.800000 -48.700914 -183.468267
   vertex 2920.000000 -48.700914 -183.468267
   vertex 2920.000000 -40.000000 -189.282032
  endloop
 endfacet
 facet normal -0.000000 0.555570 0.831470
  outer loop
   vertex 2842.800000 -40.000000 -189.282032
   vertex 2842.800000 -48.700914 -183.468267
   vertex 2920.000000 -40.000000 -189.282032
  endloop
 endfacet
 facet normal -0.000000 0.659346 0.751840
  outer loop
   vertex 2842.800000 -56.568542 -176.568542
   vertex 2920.000000 -56.568542 -176.568542
   vertex 2920.000000 -48.700914 -183.468267
  endloop
 endfacet
 facet normal -0.000000 0.659346 0.751840
  outer loop
   vertex 2842.800000 -48.700914 -183.468267
   vertex 2842.800000 -56.568542 -176.568542
   vertex 2920.000000 -48.700914 -183.468267
  endloop
 endfacet
 facet normal -0.000000 0.751840 0.659346
  outer loop
   vertex 2842.800000 -63.468267 -168.700914
   vertex 2920.000000 -63.468267 -168.700914
   vertex 2920.000000 -56.568542 -176.568542
  endloop
 endfacet
 facet normal -0.000000 0.751840 0.659346
  outer loop
   vertex 2842.800000 -56.568542 -176.568542
   vertex 2842.800000 -63.468267 -168.700914
   vertex 2920.000000 -56.568542 -176.568542
  endloop
 endfacet
 facet normal -0.000000 0.831470 0.555570
  outer loop
   vertex 2842.800000 -69.282032 -160.000000
   vertex 2920.000000 -69.282032 -160.000000
   vertex 2920.000000 -63.468267 -168.700914
  endloop
 endfacet
 facet normal -0.000000 0.831470 0.555570
  outer loop
   vertex 2842.800000 -63.468267 -168.700914
   vertex 2842.800000 -69.282032 -160.000000
   vertex 2920.000000 -63.468267 -168.700914
  endloop
 endfacet
 facet normal -0.000000 0.896873 0.442289
  outer loop
   vertex 2842.800000 -73.910363 -150.614675
   vertex 2920.000000 -73.910363 -150.614675
   vertex 2920.000000 -69.282032 -160.000000
  endloop
 endfacet
 facet normal -0.000000 0.896873 0.442289
  outer loop
   vertex 2842.800000 -69.282032 -160.000000
   vertex 2842.800000 -73.910363 -150.614675
   vertex 2920.000000 -69.282032 -160.000000
  endloop
 endfacet
 facet normal -0.000000 0.946930 0.321439
  outer loop
   vertex 2842.800000 -77.274066 -140.705524
   vertex 2920.000000 -77.274066 -140.705524
   vertex 2920.000000 -73.910363 -150.614675
  endloop
 endfacet
 facet normal -0.000000 0.946930 0.321439
  outer loop
   vertex 2842.800000 -73.910363 -150.614675
   vertex 2842.800000 -77.274066 -140.705524
   vertex 2920.000000 -73.910363 -150.614675
  endloop
 endfacet
 facet normal -0.000000 0.980785 0.195090
  outer loop
   vertex 2842.800000 -79.315589 -130.442095
   vertex 2920.000000 -79.315589 -130.442095
   vertex 2920.000000 -77.274066 -140.705524
  endloop
 endfacet
 facet normal -0.000000 0.980785 0.195090
  outer loop
   vertex 2842.800000 -77.274066 -140.705524
   vertex 2842.800000 -79.315589 -130.442095
   vertex 2920.000000 -77.274066 -140.705524
  endloop
 endfacet
 facet normal -0.000000 0.997859 0.065403
  outer loop
   vertex 2842.800000 -80.000000 -120.000000
   vertex 2920.000000 -80.000000 -120.000000
   vertex 2920.000000 -79.315589 -130.442095
  endloop
 endfacet
 facet normal -0.000000 0.997859 0.065403
  outer loop
   vertex 2842.800000 -79.315589 -130.442095
   vertex 2842.800000 -80.000000 -120.000000
   vertex 2920.000000 -79.315589 -130.442095
  endloop
 endfacet
endsolid SII_LOX_feed_1_Hrun
