solid SII_LH2_feed_3_Hrun
 facet normal -0.863288 0.500457 0.065403
  outer loop
   vertex -1542.331472 -2481.071065 -180.000000
   vertex -1541.665347 -2481.457225 -168.252643
   vertex -1499.567995 -2408.839293 -168.252643
  endloop
 endfacet
 facet normal -0.863288 0.500457 0.065403
  outer loop
   vertex -1542.331472 -2481.071065 -180.000000
   vertex -1499.567995 -2408.839293 -168.252643
   vertex -1500.234121 -2408.453134 -180.000000
  endloop
 endfacet
 facet normal -0.848517 0.491894 0.195090
  outer loop
   vertex -1541.665347 -2481.457225 -168.252643
   vertex -1539.678368 -2482.609096 -156.706286
   vertex -1497.581017 -2409.991165 -156.706286
  endloop
 endfacet
 facet normal -0.848517 0.491894 0.195090
  outer loop
   vertex -1541.665347 -2481.457225 -168.252643
   vertex -1497.581017 -2409.991165 -156.706286
   vertex -1499.567995 -2408.839293 -168.252643
  endloop
 endfacet
 facet normal -0.819227 0.474914 0.321439
  outer loop
   vertex -1539.678368 -2482.609096 -156.706286
   vertex -1536.404535 -2484.506971 -145.558491
   vertex -1494.307183 -2411.889040 -145.558491
  endloop
 endfacet
 facet normal -0.819227 0.474914 0.321439
  outer loop
   vertex -1539.678368 -2482.609096 -156.706286
   vertex -1494.307183 -2411.889040 -145.558491
   vertex -1497.581017 -2409.991165 -156.706286
  endloop
 endfacet
 facet normal -0.775920 0.449809 0.442289
  outer loop
   vertex -1536.404535 -2484.506971 -145.558491
   vertex -1531.899862 -2487.118375 -135.000000
   vertex -1489.802510 -2414.500444 -135.000000
  endloop
 endfacet
 facet normal -0.775920 0.449809 0.442289
  outer loop
   vertex -1536.404535 -2484.506971 -145.558491
   vertex -1489.802510 -2414.500444 -135.000000
   vertex -1494.307183 -2411.889040 -145.558491
  endloop
 endfacet
 facet normal -0.719338 0.417007 0.555570
  outer loop
   vertex -1531.899862 -2487.118375 -135.000000
   vertex -1526.241426 -2490.398628 -125.211471
   vertex -1484.144074 -2417.780697 -125.211471
  endloop
 endfacet
 facet normal -0.719338 0.417007 0.555570
  outer loop
   vertex -1531.899862 -2487.118375 -135.000000
   vertex -1484.144074 -2417.780697 -125.211471
   vertex -1489.802510 -2414.500444 -135.000000
  endloop
 endfacet
 facet normal -0.650447 0.377071 0.659346
  outer loop
   vertex -1526.241426 -2490.398628 -125.211471
   vertex -1519.526045 -2494.291603 -116.360390
   vertex -1477.428693 -2421.673671 -116.360390
  endloop
 endfacet
 facet normal -0.650447 0.377071 0.659346
  outer loop
   vertex -1526.241426 -2490.398628 -125.211471
   vertex -1477.428693 -2421.673671 -116.360390
   vertex -1484.144074 -2417.780697 -125.211471
  endloop
 endfacet
 facet normal -0.570426 0.330682 0.751840
  outer loop
   vertex -1519.526045 -2494.291603 -116.360390
   vertex -1511.868620 -2498.730690 -108.598199
   vertex -1469.771268 -2426.112758 -108.598199
  endloop
 endfacet
 facet normal -0.570426 0.330682 0.751840
  outer loop
   vertex -1519.526045 -2494.291603 -116.360390
   vertex -1469.771268 -2426.112758 -108.598199
   vertex -1477.428693 -2421.673671 -116.360390
  endloop
 endfacet
 facet normal -0.480646 0.278635 0.831470
  outer loop
   vertex -1511.868620 -2498.730690 -108.598199
   vertex -1503.400172 -2503.639935 -102.057714
   vertex -1461.302821 -2431.022003 -102.057714
  endloop
 endfacet
 facet normal -0.480646 0.278635 0.831470
  outer loop
   vertex -1511.868620 -2498.730690 -108.598199
   vertex -1461.302821 -2431.022003 -102.057714
   vertex -1469.771268 -2426.112758 -108.598199
  endloop
 endfacet
 facet normal -0.382642 0.221821 0.896873
  outer loop
   vertex -1503.400172 -2503.639935 -102.057714
   vertex -1494.265599 -2508.935339 -96.850842
   vertex -1452.168248 -2436.317408 -96.850842
  endloop
 endfacet
 facet normal -0.382642 0.221821 0.896873
  outer loop
   vertex -1503.400172 -2503.639935 -102.057714
   vertex -1452.168248 -2436.317408 -96.850842
   vertex -1461.302821 -2431.022003 -102.057714
  endloop
 endfacet
 facet normal -0.278090 0.161212 0.946930
  outer loop
   vertex -1494.265599 -2508.935339 -96.850842
   vertex -1484.621196 -2514.526298 -93.066676
   vertex -1442.523844 -2441.908366 -93.066676
  endloop
 endfacet
 facet normal -0.278090 0.161212 0.946930
  outer loop
   vertex -1494.265599 -2508.935339 -96.850842
   vertex -1442.523844 -2441.908366 -93.066676
   vertex -1452.168248 -2436.317408 -96.850842
  endloop
 endfacet
 facet normal -0.168780 0.097844 0.980785
  outer loop
   vertex -1484.621196 -2514.526298 -93.066676
   vertex -1474.631981 -2520.317147 -90.769962
   vertex -1432.534629 -2447.699216 -90.769962
  endloop
 endfacet
 facet normal -0.168780 0.097844 0.980785
  outer loop
   vertex -1484.621196 -2514.526298 -93.066676
   vertex -1432.534629 -2447.699216 -90.769962
   vertex -1442.523844 -2441.908366 -93.066676
  endloop
 endfacet
 facet normal -0.056583 0.032802 0.997859
  outer loop
   vertex -1474.631981 -2520.317147 -90.769962
   vertex -1464.468872 -2526.208804 -90.000000
   vertex -1422.371521 -2453.590873 -90.000000
  endloop
 endfacet
 facet normal -0.056583 0.032802 0.997859
  outer loop
   vertex -1474.631981 -2520.317147 -90.769962
   vertex -1422.371521 -2453.590873 -90.000000
   vertex -1432.534629 -2447.699216 -90.769962
  endloop
 endfacet
 facet normal 0.056583 -0.032802 0.997859
  outer loop
   vertex -1464.468872 -2526.208804 -90.000000
   vertex -1454.305763 -2532.100462 -90.769962
   vertex -1412.208412 -2459.482530 -90.769962
  endloop
 endfacet
 facet normal 0.056583 -0.032802 0.997859
  outer loop
   vertex -1464.468872 -2526.208804 -90.000000
   vertex -1412.208412 -2459.482530 -90.769962
   vertex -1422.371521 -2453.590873 -90.000000
  endloop
 endfacet
 facet normal 0.168780 -0.097844 0.980785
  outer loop
   vertex -1454.305763 -2532.100462 -90.769962
   vertex -1444.316548 -2537.891311 -93.066676
   vertex -1402.219197 -2465.273379 -93.066676
  endloop
 endfacet
 facet normal 0.168780 -0.097844 0.980785
  outer loop
   vertex -1454.305763 -2532.100462 -90.769962
   vertex -1402.219197 -2465.273379 -93.066676
   vertex -1412.208412 -2459.482530 -90.769962
  endloop
 endfacet
 facet normal 0.278090 -0.161212 0.946930
  outer loop
   vertex -1444.316548 -2537.891311 -93.066676
   vertex -1434.672145 -2543.482269 -96.850842
   vertex -1392.574793 -2470.864338 -96.850842
  endloop
 endfacet
 facet normal 0.278090 -0.161212 0.946930
  outer loop
   vertex -1444.316548 -2537.891311 -93.066676
   vertex -1392.574793 -2470.864338 -96.850842
   vertex -1402.219197 -2465.273379 -93.066676
  endloop
 endfacet
 facet normal 0.382642 -0.221821 0.896873
  outer loop
   vertex -1434.672145 -2543.482269 -96.850842
   vertex -1425.537572 -2548.777674 -102.057714
   vertex -1383.440220 -2476.159743 -102.057714
  endloop
 endfacet
 facet normal 0.382642 -0.221821 0.896873
  outer loop
   vertex -1434.672145 -2543.482269 -96.850842
   vertex -1383.440220 -2476.159743 -102.057714
   vertex -1392.574793 -2470.864338 -96.850842
  endloop
 endfacet
 facet normal 0.480646 -0.278635 0.831470
  outer loop
   vertex -1425.537572 -2548.777674 -102.057714
   vertex -1417.069124 -2553.686919 -108.598199
   vertex -1374.971773 -2481.068988 -108.598199
  endloop
 endfacet
 facet normal 0.480646 -0.278635 0.831470
  outer loop
   vertex -1425.537572 -2548.777674 -102.057714
   vertex -1374.971773 -2481.068988 -108.598199
   vertex -1383.440220 -2476.159743 -102.057714
  endloop
 endfacet
 facet normal 0.570426 -0.330682 0.751840
  outer loop
   vertex -1417.069124 -2553.686919 -108.598199
   vertex -1409.411699 -2558.126006 -116.360390
   vertex -1367.314348 -2485.508074 -116.360390
  endloop
 endfacet
 facet normal 0.570426 -0.330682 0.751840
  outer loop
   vertex -1417.069124 -2553.686919 -108.598199
   vertex -1367.314348 -2485.508074 -116.360390
   vertex -1374.971773 -2481.068988 -108.598199
  endloop
 endfacet
 facet normal 0.650447 -0.377071 0.659346
  outer loop
   vertex -1409.411699 -2558.126006 -116.360390
   vertex -1402.696318 -2562.018980 -125.211471
   vertex -1360.598967 -2489.401049 -125.211471
  endloop
 endfacet
 facet normal 0.650447 -0.377071 0.659346
  outer loop
   vertex -1409.411699 -2558.126006 -116.360390
   vertex -1360.598967 -2489.401049 -125.211471
   vertex -1367.314348 -2485.508074 -116.360390
  endloop
 endfacet
 facet normal 0.719338 -0.417007 0.555570
  outer loop
   vertex -1402.696318 -2562.018980 -125.211471
   vertex -1397.037882 -2565.299233 -135.000000
   vertex -1354.940531 -2492.681302 -135.000000
  endloop
 endfacet
 facet normal 0.719338 -0.417007 0.555570
  outer loop
   vertex -1402.696318 -2562.018980 -125.211471
   vertex -1354.940531 -2492.681302 -135.000000
   vertex -1360.598967 -2489.401049 -125.211471
  endloop
 endfacet
 facet normal 0.775920 -0.449809 0.442289
  outer loop
   vertex -1397.037882 -2565.299233 -135.000000
   vertex -1392.533209 -2567.910638 -145.558491
   vertex -1350.435858 -2495.292706 -145.558491
  endloop
 endfacet
 facet normal 0.775920 -0.449809 0.442289
  outer loop
   vertex -1397.037882 -2565.299233 -135.000000
   vertex -1350.435858 -2495.292706 -145.558491
   vertex -1354.940531 -2492.681302 -135.000000
  endloop
 endfacet
 facet normal 0.819227 -0.474914 0.321439
  outer loop
   vertex -1392.533209 -2567.910638 -145.558491
   vertex -1389.259376 -2569.808512 -156.706286
   vertex -1347.162024 -2497.190581 -156.706286
  endloop
 endfacet
 facet normal 0.819227 -0.474914 0.321439
  outer loop
   vertex -1392.533209 -2567.910638 -145.558491
   vertex -1347.162024 -2497.190581 -156.706286
   vertex -1350.435858 -2495.292706 -145.558491
  endloop
 endfacet
 facet normal 0.848517 -0.491894 0.195090
  outer loop
   vertex -1389.259376 -2569.808512 -156.706286
   vertex -1387.272397 -2570.960384 -168.252643
   vertex -1345.175046 -2498.342453 -168.252643
  endloop
 endfacet
 facet normal 0.848517 -0.491894 0.195090
  outer loop
   vertex -1389.259376 -2569.808512 -156.706286
   vertex -1345.175046 -2498.342453 -168.252643
   vertex -1347.162024 -2497.190581 -156.706286
  endloop
 endfacet
 facet normal 0.863288 -0.500457 0.065403
  outer loop
   vertex -1387.272397 -2570.960384 -168.252643
   vertex -1386.606272 -2571.346543 -180.000000
   vertex -1344.508920 -2498.728612 -180.000000
  endloop
 endfacet
 facet normal 0.863288 -0.500457 0.065403
  outer loop
   vertex -1387.272397 -2570.960384 -168.252643
   vertex -1344.508920 -2498.728612 -180.000000
   vertex -1345.175046 -2498.342453 -168.252643
  endloop
 endfacet
 facet normal 0.863288 -0.500457 -0.065403
  outer loop
   vertex -1386.606272 -2571.346543 -180.000000
   vertex -1387.272397 -2570.960384 -191.747357
   vertex -1345.175046 -2498.342453 -191.747357
  endloop
 endfacet
 facet normal 0.863288 -0.500457 -0.065403
  outer loop
   vertex -1386.606272 -2571.346543 -180.000000
   vertex -1345.175046 -2498.342453 -191.747357
   vertex -1344.508920 -2498.728612 -180.000000
  endloop
 endfacet
 facet normal 0.848517 -0.491894 -0.195090
  outer loop
   vertex -1387.272397 -2570.960384 -191.747357
   vertex -1389.259376 -2569.808512 -203.293714
   vertex -1347.162024 -2497.190581 -203.293714
  endloop
 endfacet
 facet normal 0.848517 -0.491894 -0.195090
  outer loop
   vertex -1387.272397 -2570.960384 -191.747357
   vertex -1347.162024 -2497.190581 -203.293714
   vertex -1345.175046 -2498.342453 -191.747357
  endloop
 endfacet
 facet normal 0.819227 -0.474914 -0.321439
  outer loop
   vertex -1389.259376 -2569.808512 -203.293714
   vertex -1392.533209 -2567.910638 -214.441509
   vertex -1350.435858 -2495.292706 -214.441509
  endloop
 endfacet
 facet normal 0.819227 -0.474914 -0.321439
  outer loop
   vertex -1389.259376 -2569.808512 -203.293714
   vertex -1350.435858 -2495.292706 -214.441509
   vertex -1347.162024 -2497.190581 -203.293714
  endloop
 endfacet
 facet normal 0.775920 -0.449809 -0.442289
  outer loop
   vertex -1392.533209 -2567.910638 -214.441509
   vertex -1397.037882 -2565.299233 -225.000000
   vertex -1354.940531 -2492.681302 -225.000000
  endloop
 endfacet
 facet normal 0.775920 -0.449809 -0.442289
  outer loop
   vertex -1392.533209 -2567.910638 -214.441509
   vertex -1354.940531 -2492.681302 -225.000000
   vertex -1350.435858 -2495.292706 -214.441509
  endloop
 endfacet
 facet normal 0.719338 -0.417007 -0.555570
  outer loop
   vertex -1397.037882 -2565.299233 -225.000000
   vertex -1402.696318 -2562.018980 -234.788529
   vertex -1360.598967 -2489.401049 -234.788529
  endloop
 endfacet
 facet normal 0.719338 -0.417007 -0.555570
  outer loop
   vertex -1397.037882 -2565.299233 -225.000000
   vertex -1360.598967 -2489.401049 -234.788529
   vertex -1354.940531 -2492.681302 -225.000000
  endloop
 endfacet
 facet normal 0.650447 -0.377071 -0.659346
  outer loop
   vertex -1402.696318 -2562.018980 -234.788529
   vertex -1409.411699 -2558.126006 -243.639610
   vertex -1367.314348 -2485.508074 -243.639610
  endloop
 endfacet
 facet normal 0.650447 -0.377071 -0.659346
  outer loop
   vertex -1402.696318 -2562.018980 -234.788529
   vertex -1367.314348 -2485.508074 -243.639610
   vertex -1360.598967 -2489.401049 -234.788529
  endloop
 endfacet
 facet normal 0.570426 -0.330682 -0.751840
  outer loop
   vertex -1409.411699 -2558.126006 -243.639610
   vertex -1417.069124 -2553.686919 -251.401801
   vertex -1374.971773 -2481.068988 -251.401801
  endloop
 endfacet
 facet normal 0.570426 -0.330682 -0.751840
  outer loop
   vertex -1409.411699 -2558.126006 -243.639610
   vertex -1374.971773 -2481.068988 -251.401801
   vertex -1367.314348 -2485.508074 -243.639610
  endloop
 endfacet
 facet normal 0.480646 -0.278635 -0.831470
  outer loop
   vertex -1417.069124 -2553.686919 -251.401801
   vertex -1425.537572 -2548.777674 -257.942286
   vertex -1383.440220 -2476.159743 -257.942286
  endloop
 endfacet
 facet normal 0.480646 -0.278635 -0.831470
  outer loop
   vertex -1417.069124 -2553.686919 -251.401801
   vertex -1383.440220 -2476.159743 -257.942286
   vertex -1374.971773 -2481.068988 -251.401801
  endloop
 endfacet
 facet normal 0.382642 -0.221821 -0.896873
  outer loop
   vertex -1425.537572 -2548.777674 -257.942286
   vertex -1434.672145 -2543.482269 -263.149158
   vertex -1392.574793 -2470.864338 -263.149158
  endloop
 endfacet
 facet normal 0.382642 -0.221821 -0.896873
  outer loop
   vertex -1425.537572 -2548.777674 -257.942286
   vertex -1392.574793 -2470.864338 -263.149158
   vertex -1383.440220 -2476.159743 -257.942286
  endloop
 endfacet
 facet normal 0.278090 -0.161212 -0.946930
  outer loop
   vertex -1434.672145 -2543.482269 -263.149158
   vertex -1444.316548 -2537.891311 -266.933324
   vertex -1402.219197 -2465.273379 -266.933324
  endloop
 endfacet
 facet normal 0.278090 -0.161212 -0.946930
  outer loop
   vertex -1434.672145 -2543.482269 -263.149158
   vertex -1402.219197 -2465.273379 -266.933324
   vertex -1392.574793 -2470.864338 -263.149158
  endloop
 endfacet
 facet normal 0.168780 -0.097844 -0.980785
  outer loop
   vertex -1444.316548 -2537.891311 -266.933324
   vertex -1454.305763 -2532.100462 -269.230038
   vertex -1412.208412 -2459.482530 -269.230038
  endloop
 endfacet
 facet normal 0.168780 -0.097844 -0.980785
  outer loop
   vertex -1444.316548 -2537.891311 -266.933324
   vertex -1412.208412 -2459.482530 -269.230038
   vertex -1402.219197 -2465.273379 -266.933324
  endloop
 endfacet
 facet normal 0.056583 -0.032802 -0.997859
  outer loop
   vertex -1454.305763 -2532.100462 -269.230038
   vertex -1464.468872 -2526.208804 -270.000000
   vertex -1422.371521 -2453.590873 -270.000000
  endloop
 endfacet
 facet normal 0.056583 -0.032802 -0.997859
  outer loop
   vertex -1454.305763 -2532.100462 -269.230038
   vertex -1422.371521 -2453.590873 -270.000000
   vertex -1412.208412 -2459.482530 -269.230038
  endloop
 endfacet
 facet normal -0.056583 0.032802 -0.997859
  outer loop
   vertex -1464.468872 -2526.208804 -270.000000
   vertex -1474.631981 -2520.317147 -269.230038
   vertex -1432.534629 -2447.699216 -269.230038
  endloop
 endfacet
 facet normal -0.056583 0.032802 -0.997859
  outer loop
   vertex -1464.468872 -2526.208804 -270.000000
   vertex -1432.534629 -2447.699216 -269.230038
   vertex -1422.371521 -2453.590873 -270.000000
  endloop
 endfacet
 facet normal -0.168780 0.097844 -0.980785
  outer loop
   vertex -1474.631981 -2520.317147 -269.230038
   vertex -1484.621196 -2514.526298 -266.933324
   vertex -1442.523844 -2441.908366 -266.933324
  endloop
 endfacet
 facet normal -0.168780 0.097844 -0.980785
  outer loop
   vertex -1474.631981 -2520.317147 -269.230038
   vertex -1442.523844 -2441.908366 -266.933324
   vertex -1432.534629 -2447.699216 -269.230038
  endloop
 endfacet
 facet normal -0.278090 0.161212 -0.946930
  outer loop
   vertex -1484.621196 -2514.526298 -266.933324
   vertex -1494.265599 -2508.935339 -263.149158
   vertex -1452.168248 -2436.317408 -263.149158
  endloop
 endfacet
 facet normal -0.278090 0.161212 -0.946930
  outer loop
   vertex -1484.621196 -2514.526298 -266.933324
   vertex -1452.168248 -2436.317408 -263.149158
   vertex -1442.523844 -2441.908366 -266.933324
  endloop
 endfacet
 facet normal -0.382642 0.221821 -0.896873
  outer loop
   vertex -1494.265599 -2508.935339 -263.149158
   vertex -1503.400172 -2503.639935 -257.942286
   vertex -1461.302821 -2431.022003 -257.942286
  endloop
 endfacet
 facet normal -0.382642 0.221821 -0.896873
  outer loop
   vertex -1494.265599 -2508.935339 -263.149158
   vertex -1461.302821 -2431.022003 -257.942286
   vertex -1452.168248 -2436.317408 -263.149158
  endloop
 endfacet
 facet normal -0.480646 0.278635 -0.831470
  outer loop
   vertex -1503.400172 -2503.639935 -257.942286
   vertex -1511.868620 -2498.730690 -251.401801
   vertex -1469.771268 -2426.112758 -251.401801
  endloop
 endfacet
 facet normal -0.480646 0.278635 -0.831470
  outer loop
   vertex -1503.400172 -2503.639935 -257.942286
   vertex -1469.771268 -2426.112758 -251.401801
   vertex -1461.302821 -2431.022003 -257.942286
  endloop
 endfacet
 facet normal -0.570426 0.330682 -0.751840
  outer loop
   vertex -1511.868620 -2498.730690 -251.401801
   vertex -1519.526045 -2494.291603 -243.639610
   vertex -1477.428693 -2421.673671 -243.639610
  endloop
 endfacet
 facet normal -0.570426 0.330682 -0.751840
  outer loop
   vertex -1511.868620 -2498.730690 -251.401801
   vertex -1477.428693 -2421.673671 -243.639610
   vertex -1469.771268 -2426.112758 -251.401801
  endloop
 endfacet
 facet normal -0.650447 0.377071 -0.659346
  outer loop
   vertex -1519.526045 -2494.291603 -243.639610
   vertex -1526.241426 -2490.398628 -234.788529
   vertex -1484.144074 -2417.780697 -234.788529
  endloop
 endfacet
 facet normal -0.650447 0.377071 -0.659346
  outer loop
   vertex -1519.526045 -2494.291603 -243.639610
   vertex -1484.144074 -2417.780697 -234.788529
   vertex -1477.428693 -2421.673671 -243.639610
  endloop
 endfacet
 facet normal -0.719338 0.417007 -0.555570
  outer loop
   vertex -1526.241426 -2490.398628 -234.788529
   vertex -1531.899862 -2487.118375 -225.000000
   vertex -1489.802510 -2414.500444 -225.000000
  endloop
 endfacet
 facet normal -0.719338 0.417007 -0.555570
  outer loop
   vertex -1526.241426 -2490.398628 -234.788529
   vertex -1489.802510 -2414.500444 -225.000000
   vertex -1484.144074 -2417.780697 -234.788529
  endloop
 endfacet
 facet normal -0.775920 0.449809 -0.442289
  outer loop
   vertex -1531.899862 -2487.118375 -225.000000
   vertex -1536.404535 -2484.506971 -214.441509
   vertex -1494.307183 -2411.889040 -214.441509
  endloop
 endfacet
 facet normal -0.775920 0.449809 -0.442289
  outer loop
   vertex -1531.899862 -2487.118375 -225.000000
   vertex -1494.307183 -2411.889040 -214.441509
   vertex -1489.802510 -2414.500444 -225.000000
  endloop
 endfacet
 facet normal -0.819227 0.474914 -0.321439
  outer loop
   vertex -1536.404535 -2484.506971 -214.441509
   vertex -1539.678368 -2482.609096 -203.293714
   vertex -1497.581017 -2409.991165 -203.293714
  endloop
 endfacet
 facet normal -0.819227 0.474914 -0.321439
  outer loop
   vertex -1536.404535 -2484.506971 -214.441509
   vertex -1497.581017 -2409.991165 -203.293714
   vertex -1494.307183 -2411.889040 -214.441509
  endloop
 endfacet
 facet normal -0.848517 0.491894 -0.195090
  outer loop
   vertex -1539.678368 -2482.609096 -203.293714
   vertex -1541.665347 -2481.457225 -191.747357
   vertex -1499.567995 -2408.839293 -191.747357
  endloop
 endfacet
 facet normal -0.848517 0.491894 -0.195090
  outer loop
   vertex -1539.678368 -2482.609096 -203.293714
   vertex -1499.567995 -2408.839293 -191.747357
   vertex -1497.581017 -2409.991165 -203.293714
  endloop
 endfacet
 facet normal -0.863288 0.500457 -0.065403
  outer loop
   vertex -1541.665347 -2481.457225 -191.747357
   vertex -1542.331472 -2481.071065 -180.000000
   vertex -1500.234121 -2408.453134 -180.000000
  endloop
 endfacet
 facet normal -0.863288 0.500457 -0.065403
  outer loop
   vertex -1541.665347 -2481.457225 -191.747357
   vertex -1500.234121 -2408.453134 -180.000000
   vertex -1499.567995 -2408.839293 -191.747357
  endloop
 endfacet
 facet normal 0.863288 -0.500457 -0.065403
  outer loop
   vertex -1490.990609 -2413.811691 -169.557905
   vertex -1533.087961 -2486.429622 -169.557905
   vertex -1533.680072 -2486.086369 -180.000000
  endloop
 endfacet
 facet normal 0.863288 -0.500457 -0.065403
  outer loop
   vertex -1491.582721 -2413.468438 -180.000000
   vertex -1490.990609 -2413.811691 -169.557905
   vertex -1533.680072 -2486.086369 -180.000000
  endloop
 endfacet
 facet normal 0.848517 -0.491894 -0.195090
  outer loop
   vertex -1489.224406 -2414.835577 -159.294476
   vertex -1531.321758 -2487.453508 -159.294476
   vertex -1533.087961 -2486.429622 -169.557905
  endloop
 endfacet
 facet normal 0.848517 -0.491894 -0.195090
  outer loop
   vertex -1490.990609 -2413.811691 -169.557905
   vertex -1489.224406 -2414.835577 -159.294476
   vertex -1533.087961 -2486.429622 -169.557905
  endloop
 endfacet
 facet normal 0.819227 -0.474914 -0.321439
  outer loop
   vertex -1486.314332 -2416.522577 -149.385325
   vertex -1528.411683 -2489.140508 -149.385325
   vertex -1531.321758 -2487.453508 -159.294476
  endloop
 endfacet
 facet normal 0.819227 -0.474914 -0.321439
  outer loop
   vertex -1489.224406 -2414.835577 -159.294476
   vertex -1486.314332 -2416.522577 -149.385325
   vertex -1531.321758 -2487.453508 -159.294476
  endloop
 endfacet
 facet normal 0.775920 -0.449809 -0.442289
  outer loop
   vertex -1482.310178 -2418.843825 -140.000000
   vertex -1524.407530 -2491.461756 -140.000000
   vertex -1528.411683 -2489.140508 -149.385325
  endloop
 endfacet
 facet normal 0.775920 -0.449809 -0.442289
  outer loop
   vertex -1486.314332 -2416.522577 -149.385325
   vertex -1482.310178 -2418.843825 -140.000000
   vertex -1528.411683 -2489.140508 -149.385325
  endloop
 endfacet
 facet normal 0.719338 -0.417007 -0.555570
  outer loop
   vertex -1477.280457 -2421.759605 -131.299086
   vertex -1519.377809 -2494.377537 -131.299086
   vertex -1524.407530 -2491.461756 -140.000000
  endloop
 endfacet
 facet normal 0.719338 -0.417007 -0.555570
  outer loop
   vertex -1482.310178 -2418.843825 -140.000000
   vertex -1477.280457 -2421.759605 -131.299086
   vertex -1524.407530 -2491.461756 -140.000000
  endloop
 endfacet
 facet normal 0.650447 -0.377071 -0.659346
  outer loop
   vertex -1471.311229 -2425.220027 -123.431458
   vertex -1513.408581 -2497.837959 -123.431458
   vertex -1519.377809 -2494.377537 -131.299086
  endloop
 endfacet
 facet normal 0.650447 -0.377071 -0.659346
  outer loop
   vertex -1477.280457 -2421.759605 -131.299086
   vertex -1471.311229 -2425.220027 -123.431458
   vertex -1519.377809 -2494.377537 -131.299086
  endloop
 endfacet
 facet normal 0.570426 -0.330682 -0.751840
  outer loop
   vertex -1464.504630 -2429.165882 -116.531733
   vertex -1506.601981 -2501.783814 -116.531733
   vertex -1513.408581 -2497.837959 -123.431458
  endloop
 endfacet
 facet normal 0.570426 -0.330682 -0.751840
  outer loop
   vertex -1471.311229 -2425.220027 -123.431458
   vertex -1464.504630 -2429.165882 -116.531733
   vertex -1513.408581 -2497.837959 -123.431458
  endloop
 endfacet
 facet normal 0.480646 -0.278635 -0.831470
  outer loop
   vertex -1456.977121 -2433.529656 -110.717968
   vertex -1499.074472 -2506.147587 -110.717968
   vertex -1506.601981 -2501.783814 -116.531733
  endloop
 endfacet
 facet normal 0.480646 -0.278635 -0.831470
  outer loop
   vertex -1464.504630 -2429.165882 -116.531733
   vertex -1456.977121 -2433.529656 -110.717968
   vertex -1506.601981 -2501.783814 -116.531733
  endloop
 endfacet
 facet normal 0.382642 -0.221821 -0.896873
  outer loop
   vertex -1448.857500 -2438.236682 -106.089637
   vertex -1490.954852 -2510.854613 -106.089637
   vertex -1499.074472 -2506.147587 -110.717968
  endloop
 endfacet
 facet normal 0.382642 -0.221821 -0.896873
  outer loop
   vertex -1456.977121 -2433.529656 -110.717968
   vertex -1448.857500 -2438.236682 -106.089637
   vertex -1499.074472 -2506.147587 -110.717968
  endloop
 endfacet
 facet normal 0.278090 -0.161212 -0.946930
  outer loop
   vertex -1440.284697 -2443.206423 -102.725934
   vertex -1482.382049 -2515.824354 -102.725934
   vertex -1490.954852 -2510.854613 -106.089637
  endloop
 endfacet
 facet normal 0.278090 -0.161212 -0.946930
  outer loop
   vertex -1448.857500 -2438.236682 -106.089637
   vertex -1440.284697 -2443.206423 -102.725934
   vertex -1490.954852 -2510.854613 -106.089637
  endloop
 endfacet
 facet normal 0.168780 -0.097844 -0.980785
  outer loop
   vertex -1431.405395 -2448.353844 -100.684411
   vertex -1473.502746 -2520.971776 -100.684411
   vertex -1482.382049 -2515.824354 -102.725934
  endloop
 endfacet
 facet normal 0.168780 -0.097844 -0.980785
  outer loop
   vertex -1440.284697 -2443.206423 -102.725934
   vertex -1431.405395 -2448.353844 -100.684411
   vertex -1482.382049 -2515.824354 -102.725934
  endloop
 endfacet
 facet normal 0.056583 -0.032802 -0.997859
  outer loop
   vertex -1422.371521 -2453.590873 -100.000000
   vertex -1464.468872 -2526.208804 -100.000000
   vertex -1473.502746 -2520.971776 -100.684411
  endloop
 endfacet
 facet normal 0.056583 -0.032802 -0.997859
  outer loop
   vertex -1431.405395 -2448.353844 -100.684411
   vertex -1422.371521 -2453.590873 -100.000000
   vertex -1473.502746 -2520.971776 -100.684411
  endloop
 endfacet
 facet normal -0.056583 0.032802 -0.997859
  outer loop
   vertex -1413.337646 -2458.827902 -100.684411
   vertex -1455.434998 -2531.445833 -100.684411
   vertex -1464.468872 -2526.208804 -100.000000
  endloop
 endfacet
 facet normal -0.056583 0.032802 -0.997859
  outer loop
   vertex -1422.371521 -2453.590873 -100.000000
   vertex -1413.337646 -2458.827902 -100.684411
   vertex -1464.468872 -2526.208804 -100.000000
  endloop
 endfacet
 facet normal -0.168780 0.097844 -0.980785
  outer loop
   vertex -1404.458344 -2463.975323 -102.725934
   vertex -1446.555695 -2536.593255 -102.725934
   vertex -1455.434998 -2531.445833 -100.684411
  endloop
 endfacet
 facet normal -0.168780 0.097844 -0.980785
  outer loop
   vertex -1413.337646 -2458.827902 -100.684411
   vertex -1404.458344 -2463.975323 -102.725934
   vertex -1455.434998 -2531.445833 -100.684411
  endloop
 endfacet
 facet normal -0.278090 0.161212 -0.946930
  outer loop
   vertex -1395.885541 -2468.945064 -106.089637
   vertex -1437.982892 -2541.562995 -106.089637
   vertex -1446.555695 -2536.593255 -102.725934
  endloop
 endfacet
 facet normal -0.278090 0.161212 -0.946930
  outer loop
   vertex -1404.458344 -2463.975323 -102.725934
   vertex -1395.885541 -2468.945064 -106.089637
   vertex -1446.555695 -2536.593255 -102.725934
  endloop
 endfacet
 facet normal -0.382642 0.221821 -0.896873
  outer loop
   vertex -1387.765920 -2473.652090 -110.717968
   vertex -1429.863272 -2546.270022 -110.717968
   vertex -1437.982892 -2541.562995 -106.089637
  endloop
 endfacet
 facet normal -0.382642 0.221821 -0.896873
  outer loop
   vertex -1395.885541 -2468.945064 -106.089637
   vertex -1387.765920 -2473.652090 -110.717968
   vertex -1437.982892 -2541.562995 -106.089637
  endloop
 endfacet
 facet normal -0.480646 0.278635 -0.831470
  outer loop
   vertex -1380.238411 -2478.015864 -116.531733
   vertex -1422.335763 -2550.633795 -116.531733
   vertex -1429.863272 -2546.270022 -110.717968
  endloop
 endfacet
 facet normal -0.480646 0.278635 -0.831470
  outer loop
   vertex -1387.765920 -2473.652090 -110.717968
   vertex -1380.238411 -2478.015864 -116.531733
   vertex -1429.863272 -2546.270022 -110.717968
  endloop
 endfacet
 facet normal -0.570426 0.330682 -0.751840
  outer loop
   vertex -1373.431812 -2481.961719 -123.431458
   vertex -1415.529163 -2554.579650 -123.431458
   vertex -1422.335763 -2550.633795 -116.531733
  endloop
 endfacet
 facet normal -0.570426 0.330682 -0.751840
  outer loop
   vertex -1380.238411 -2478.015864 -116.531733
   vertex -1373.431812 -2481.961719 -123.431458
   vertex -1422.335763 -2550.633795 -116.531733
  endloop
 endfacet
 facet normal -0.650447 0.377071 -0.659346
  outer loop
   vertex -1367.462584 -2485.422141 -131.299086
   vertex -1409.559935 -2558.040072 -131.299086
   vertex -1415.529163 -2554.579650 -123.431458
  endloop
 endfacet
 facet normal -0.650447 0.377071 -0.659346
  outer loop
   vertex -1373.431812 -2481.961719 -123.431458
   vertex -1367.462584 -2485.422141 -131.299086
   vertex -1415.529163 -2554.579650 -123.431458
  endloop
 endfacet
 facet normal -0.719338 0.417007 -0.555570
  outer loop
   vertex -1362.432863 -2488.337921 -140.000000
   vertex -1404.530215 -2560.955852 -140.000000
   vertex -1409.559935 -2558.040072 -131.299086
  endloop
 endfacet
 facet normal -0.719338 0.417007 -0.555570
  outer loop
   vertex -1367.462584 -2485.422141 -131.299086
   vertex -1362.432863 -2488.337921 -140.000000
   vertex -1409.559935 -2558.040072 -131.299086
  endloop
 endfacet
 facet normal -0.775920 0.449809 -0.442289
  outer loop
   vertex -1358.428709 -2490.659169 -149.385325
   vertex -1400.526061 -2563.277101 -149.385325
   vertex -1404.530215 -2560.955852 -140.000000
  endloop
 endfacet
 facet normal -0.775920 0.449809 -0.442289
  outer loop
   vertex -1362.432863 -2488.337921 -140.000000
   vertex -1358.428709 -2490.659169 -149.385325
   vertex -1404.530215 -2560.955852 -140.000000
  endloop
 endfacet
 facet normal -0.819227 0.474914 -0.321439
  outer loop
   vertex -1355.518635 -2492.346169 -159.294476
   vertex -1397.615986 -2564.964100 -159.294476
   vertex -1400.526061 -2563.277101 -149.385325
  endloop
 endfacet
 facet normal -0.819227 0.474914 -0.321439
  outer loop
   vertex -1358.428709 -2490.659169 -149.385325
   vertex -1355.518635 -2492.346169 -159.294476
   vertex -1400.526061 -2563.277101 -149.385325
  endloop
 endfacet
 facet normal -0.848517 0.491894 -0.195090
  outer loop
   vertex -1353.752432 -2493.370055 -169.557905
   vertex -1395.849783 -2565.987986 -169.557905
   vertex -1397.615986 -2564.964100 -159.294476
  endloop
 endfacet
 facet normal -0.848517 0.491894 -0.195090
  outer loop
   vertex -1355.518635 -2492.346169 -159.294476
   vertex -1353.752432 -2493.370055 -169.557905
   vertex -1397.615986 -2564.964100 -159.294476
  endloop
 endfacet
 facet normal -0.863288 0.500457 -0.065403
  outer loop
   vertex -1353.160320 -2493.713308 -180.000000
   vertex -1395.257672 -2566.331239 -180.000000
   vertex -1395.849783 -2565.987986 -169.557905
  endloop
 endfacet
 facet normal -0.863288 0.500457 -0.065403
  outer loop
   vertex -1353.752432 -2493.370055 -169.557905
   vertex -1353.160320 -2493.713308 -180.000000
   vertex -1395.849783 -2565.987986 -169.557905
  endloop
 endfacet
 facet normal -0.863288 0.500457 0.065403
  outer loop
   vertex -1353.752432 -2493.370055 -190.442095
   vertex -1395.849783 -2565.987986 -190.442095
   vertex -1395.257672 -2566.331239 -180.000000
  endloop
 endfacet
 facet normal -0.863288 0.500457 0.065403
  outer loop
   vertex -1353.160320 -2493.713308 -180.000000
   vertex -1353.752432 -2493.370055 -190.442095
   vertex -1395.257672 -2566.331239 -180.000000
  endloop
 endfacet
 facet normal -0.848517 0.491894 0.195090
  outer loop
   vertex -1355.518635 -2492.346169 -200.705524
   vertex -1397.615986 -2564.964100 -200.705524
   vertex -1395.849783 -2565.987986 -190.442095
  endloop
 endfacet
 facet normal -0.848517 0.491894 0.195090
  outer loop
   vertex -1353.752432 -2493.370055 -190.442095
   vertex -1355.518635 -2492.346169 -200.705524
   vertex -1395.849783 -2565.987986 -190.442095
  endloop
 endfacet
 facet normal -0.819227 0.474914 0.321439
  outer loop
   vertex -1358.428709 -2490.659169 -210.614675
   vertex -1400.526061 -2563.277101 -210.614675
   vertex -1397.615986 -2564.964100 -200.705524
  endloop
 endfacet
 facet normal -0.819227 0.474914 0.321439
  outer loop
   vertex -1355.518635 -2492.346169 -200.705524
   vertex -1358.428709 -2490.659169 -210.614675
   vertex -1397.615986 -2564.964100 -200.705524
  endloop
 endfacet
 facet normal -0.775920 0.449809 0.442289
  outer loop
   vertex -1362.432863 -2488.337921 -220.000000
   vertex -1404.530215 -2560.955852 -220.000000
   vertex -1400.526061 -2563.277101 -210.614675
  endloop
 endfacet
 facet normal -0.775920 0.449809 0.442289
  outer loop
   vertex -1358.428709 -2490.659169 -210.614675
   vertex -1362.432863 -2488.337921 -220.000000
   vertex -1400.526061 -2563.277101 -210.614675
  endloop
 endfacet
 facet normal -0.719338 0.417007 0.555570
  outer loop
   vertex -1367.462584 -2485.422141 -228.700914
   vertex -1409.559935 -2558.040072 -228.700914
   vertex -1404.530215 -2560.955852 -220.000000
  endloop
 endfacet
 facet normal -0.719338 0.417007 0.555570
  outer loop
   vertex -1362.432863 -2488.337921 -220.000000
   vertex -1367.462584 -2485.422141 -228.700914
   vertex -1404.530215 -2560.955852 -220.000000
  endloop
 endfacet
 facet normal -0.650447 0.377071 0.659346
  outer loop
   vertex -1373.431812 -2481.961719 -236.568542
   vertex -1415.529163 -2554.579650 -236.568542
   vertex -1409.559935 -2558.040072 -228.700914
  endloop
 endfacet
 facet normal -0.650447 0.377071 0.659346
  outer loop
   vertex -1367.462584 -2485.422141 -228.700914
   vertex -1373.431812 -2481.961719 -236.568542
   vertex -1409.559935 -2558.040072 -228.700914
  endloop
 endfacet
 facet normal -0.570426 0.330682 0.751840
  outer loop
   vertex -1380.238411 -2478.015864 -243.468267
   vertex -1422.335763 -2550.633795 -243.468267
   vertex -1415.529163 -2554.579650 -236.568542
  endloop
 endfacet
 facet normal -0.570426 0.330682 0.751840
  outer loop
   vertex -1373.431812 -2481.961719 -236.568542
   vertex -1380.238411 -2478.015864 -243.468267
   vertex -1415.529163 -2554.579650 -236.568542
  endloop
 endfacet
 facet normal -0.480646 0.278635 0.831470
  outer loop
   vertex -1387.765920 -2473.652090 -249.282032
   vertex -1429.863272 -2546.270022 -249.282032
   vertex -1422.335763 -2550.633795 -243.468267
  endloop
 endfacet
 facet normal -0.480646 0.278635 0.831470
  outer loop
   vertex -1380.238411 -2478.015864 -243.468267
   vertex -1387.765920 -2473.652090 -249.282032
   vertex -1422.335763 -2550.633795 -243.468267
  endloop
 endfacet
 facet normal -0.382642 0.221821 0.896873
  outer loop
   vertex -1395.885541 -2468.945064 -253.910363
   vertex -1437.982892 -2541.562995 -253.910363
   vertex -1429.863272 -2546.270022 -249.282032
  endloop
 endfacet
 facet normal -0.382642 0.221821 0.896873
  outer loop
   vertex -1387.765920 -2473.652090 -249.282032
   vertex -1395.885541 -2468.945064 -253.910363
   vertex -1429.863272 -2546.270022 -249.282032
  endloop
 endfacet
 facet normal -0.278090 0.161212 0.946930
  outer loop
   vertex -1404.458344 -2463.975323 -257.274066
   vertex -1446.555695 -2536.593255 -257.274066
   vertex -1437.982892 -2541.562995 -253.910363
  endloop
 endfacet
 facet normal -0.278090 0.161212 0.946930
  outer loop
   vertex -1395.885541 -2468.945064 -253.910363
   vertex -1404.458344 -2463.975323 -257.274066
   vertex -1437.982892 -2541.562995 -253.910363
  endloop
 endfacet
 facet normal -0.168780 0.097844 0.980785
  outer loop
   vertex -1413.337646 -2458.827902 -259.315589
   vertex -1455.434998 -2531.445833 -259.315589
   vertex -1446.555695 -2536.593255 -257.274066
  endloop
 endfacet
 facet normal -0.168780 0.097844 0.980785
  outer loop
   vertex -1404.458344 -2463.975323 -257.274066
   vertex -1413.337646 -2458.827902 -259.315589
   vertex -1446.555695 -2536.593255 -257.274066
  endloop
 endfacet
 facet normal -0.056583 0.032802 0.997859
  outer loop
   vertex -1422.371521 -2453.590873 -260.000000
   vertex -1464.468872 -2526.208804 -260.000000
   vertex -1455.434998 -2531.445833 -259.315589
  endloop
 endfacet
 facet normal -0.056583 0.032802 0.997859
  outer loop
   vertex -1413.337646 -2458.827902 -259.315589
   vertex -1422.371521 -2453.590873 -260.000000
   vertex -1455.434998 -2531.445833 -259.315589
  endloop
 endfacet
 facet normal 0.056583 -0.032802 0.997859
  outer loop
   vertex -1431.405395 -2448.353844 -259.315589
   vertex -1473.502746 -2520.971776 -259.315589
   vertex -1464.468872 -2526.208804 -260.000000
  endloop
 endfacet
 facet normal 0.056583 -0.032802 0.997859
  outer loop
   vertex -1422.371521 -2453.590873 -260.000000
   vertex -1431.405395 -2448.353844 -259.315589
   vertex -1464.468872 -2526.208804 -260.000000
  endloop
 endfacet
 facet normal 0.168780 -0.097844 0.980785
  outer loop
   vertex -1440.284697 -2443.206423 -257.274066
   vertex -1482.382049 -2515.824354 -257.274066
   vertex -1473.502746 -2520.971776 -259.315589
  endloop
 endfacet
 facet normal 0.168780 -0.097844 0.980785
  outer loop
   vertex -1431.405395 -2448.353844 -259.315589
   vertex -1440.284697 -2443.206423 -257.274066
   vertex -1473.502746 -2520.971776 -259.315589
  endloop
 endfacet
 facet normal 0.278090 -0.161212 0.946930
  outer loop
   vertex -1448.857500 -2438.236682 -253.910363
   vertex -1490.954852 -2510.854613 -253.910363
   vertex -1482.382049 -2515.824354 -257.274066
  endloop
 endfacet
 facet normal 0.278090 -0.161212 0.946930
  outer loop
   vertex -1440.284697 -2443.206423 -257.274066
   vertex -1448.857500 -2438.236682 -253.910363
   vertex -1482.382049 -2515.824354 -257.274066
  endloop
 endfacet
 facet normal 0.382642 -0.221821 0.896873
  outer loop
   vertex -1456.977121 -2433.529656 -249.282032
   vertex -1499.074472 -2506.147587 -249.282032
   vertex -1490.954852 -2510.854613 -253.910363
  endloop
 endfacet
 facet normal 0.382642 -0.221821 0.896873
  outer loop
   vertex -1448.857500 -2438.236682 -253.910363
   vertex -1456.977121 -2433.529656 -249.282032
   vertex -1490.954852 -2510.854613 -253.910363
  endloop
 endfacet
 facet normal 0.480646 -0.278635 0.831470
  outer loop
   vertex -1464.504630 -2429.165882 -243.468267
   vertex -1506.601981 -2501.783814 -243.468267
   vertex -1499.074472 -2506.147587 -249.282032
  endloop
 endfacet
 facet normal 0.480646 -0.278635 0.831470
  outer loop
   vertex -1456.977121 -2433.529656 -249.282032
   vertex -1464.504630 -2429.165882 -243.468267
   vertex -1499.074472 -2506.147587 -249.282032
  endloop
 endfacet
 facet normal 0.570426 -0.330682 0.751840
  outer loop
   vertex -1471.311229 -2425.220027 -236.568542
   vertex -1513.408581 -2497.837959 -236.568542
   vertex -1506.601981 -2501.783814 -243.468267
  endloop
 endfacet
 facet normal 0.570426 -0.330682 0.751840
  outer loop
   vertex -1464.504630 -2429.165882 -243.468267
   vertex -1471.311229 -2425.220027 -236.568542
   vertex -1506.601981 -2501.783814 -243.468267
  endloop
 endfacet
 facet normal 0.650447 -0.377071 0.659346
  outer loop
   vertex -1477.280457 -2421.759605 -228.700914
   vertex -1519.377809 -2494.377537 -228.700914
   vertex -1513.408581 -2497.837959 -236.568542
  endloop
 endfacet
 facet normal 0.650447 -0.377071 0.659346
  outer loop
   vertex -1471.311229 -2425.220027 -236.568542
   vertex -1477.280457 -2421.759605 -228.700914
   vertex -1513.408581 -2497.837959 -236.568542
  endloop
 endfacet
 facet normal 0.719338 -0.417007 0.555570
  outer loop
   vertex -1482.310178 -2418.843825 -220.000000
   vertex -1524.407530 -2491.461756 -220.000000
   vertex -1519.377809 -2494.377537 -228.700914
  endloop
 endfacet
 facet normal 0.719338 -0.417007 0.555570
  outer loop
   vertex -1477.280457 -2421.759605 -228.700914
   vertex -1482.310178 -2418.843825 -220.000000
   vertex -1519.377809 -2494.377537 -228.700914
  endloop
 endfacet
 facet normal 0.775920 -0.449809 0.442289
  outer loop
   vertex -1486.314332 -2416.522577 -210.614675
   vertex -1528.411683 -2489.140508 -210.614675
   vertex -1524.407530 -2491.461756 -220.000000
  endloop
 endfacet
 facet normal 0.775920 -0.449809 0.442289
  outer loop
   vertex -1482.310178 -2418.843825 -220.000000
   vertex -1486.314332 -2416.522577 -210.614675
   vertex -1524.407530 -2491.461756 -220.000000
  endloop
 endfacet
 facet normal 0.819227 -0.474914 0.321439
  outer loop
   vertex -1489.224406 -2414.835577 -200.705524
   vertex -1531.321758 -2487.453508 -200.705524
   vertex -1528.411683 -2489.140508 -210.614675
  endloop
 endfacet
 facet normal 0.819227 -0.474914 0.321439
  outer loop
   vertex -1486.314332 -2416.522577 -210.614675
   vertex -1489.224406 -2414.835577 -200.705524
   vertex -1528.411683 -2489.140508 -210.614675
  endloop
 endfacet
 facet normal 0.848517 -0.491894 0.195090
  outer loop
   vertex -1490.990609 -2413.811691 -190.442095
   vertex -1533.087961 -2486.429622 -190.442095
   vertex -1531.321758 -2487.453508 -200.705524
  endloop
 endfacet
 facet normal 0.848517 -0.491894 0.195090
  outer loop
   vertex -1489.224406 -2414.835577 -200.705524
   vertex -1490.990609 -2413.811691 -190.442095
   vertex -1531.321758 -2487.453508 -200.705524
  endloop
 endfacet
 facet normal 0.863288 -0.500457 0.065403
  outer loop
   vertex -1491.582721 -2413.468438 -180.000000
   vertex -1533.680072 -2486.086369 -180.000000
   vertex -1533.087961 -2486.429622 -190.442095
  endloop
 endfacet
 facet normal 0.863288 -0.500457 0.065403
  outer loop
   vertex -1490.990609 -2413.811691 -190.442095
   vertex -1491.582721 -2413.468438 -180.000000
   vertex -1533.087961 -2486.429622 -190.442095
  endloop
 endfacet
endsolid SII_LH2_feed_3_Hrun
