solid SII_LH2_feed_1_drop
 facet normal 0.064617 0.997859 0.010110
  outer loop
   vertex 2842.800000 90.000000 -600.000000
   vertex 2854.406166 89.230038 -598.184149
   vertex 3101.606166 89.230038 -2178.184149
  endloop
 endfacet
 facet normal 0.064617 0.997859 0.010110
  outer loop
   vertex 2842.800000 90.000000 -600.000000
   vertex 3101.606166 89.230038 -2178.184149
   vertex 3090.000000 90.000000 -2180.000000
  endloop
 endfacet
 facet normal 0.192746 0.980785 0.030156
  outer loop
   vertex 2854.406166 89.230038 -598.184149
   vertex 2865.813747 86.933324 -596.399368
   vertex 3113.013747 86.933324 -2176.399368
  endloop
 endfacet
 facet normal 0.192746 0.980785 0.030156
  outer loop
   vertex 2854.406166 89.230038 -598.184149
   vertex 3113.013747 86.933324 -2176.399368
   vertex 3101.606166 89.230038 -2178.184149
  endloop
 endfacet
 facet normal 0.317576 0.946930 0.049687
  outer loop
   vertex 2865.813747 86.933324 -596.399368
   vertex 2876.827557 83.149158 -594.676195
   vertex 3124.027557 83.149158 -2174.676195
  endloop
 endfacet
 facet normal 0.317576 0.946930 0.049687
  outer loop
   vertex 2865.813747 86.933324 -596.399368
   vertex 3124.027557 83.149158 -2174.676195
   vertex 3113.013747 86.933324 -2176.399368
  endloop
 endfacet
 facet normal 0.436973 0.896873 0.068367
  outer loop
   vertex 2876.827557 83.149158 -594.676195
   vertex 2887.259146 77.942286 -593.044113
   vertex 3134.459146 77.942286 -2173.044113
  endloop
 endfacet
 facet normal 0.436973 0.896873 0.068367
  outer loop
   vertex 2876.827557 83.149158 -594.676195
   vertex 3134.459146 77.942286 -2173.044113
   vertex 3124.027557 83.149158 -2174.676195
  endloop
 endfacet
 facet normal 0.548893 0.831470 0.085877
  outer loop
   vertex 2887.259146 77.942286 -593.044113
   vertex 2896.930026 71.401801 -591.531049
   vertex 3144.130026 71.401801 -2171.531049
  endloop
 endfacet
 facet normal 0.548893 0.831470 0.085877
  outer loop
   vertex 2887.259146 77.942286 -593.044113
   vertex 3144.130026 71.401801 -2171.531049
   vertex 3134.459146 77.942286 -2173.044113
  endloop
 endfacet
 facet normal 0.651421 0.751840 0.101919
  outer loop
   vertex 2896.930026 71.401801 -591.531049
   vertex 2905.674727 63.639610 -590.162891
   vertex 3152.874727 63.639610 -2170.162891
  endloop
 endfacet
 facet normal 0.651421 0.751840 0.101919
  outer loop
   vertex 2896.930026 71.401801 -591.531049
   vertex 3152.874727 63.639610 -2170.162891
   vertex 3144.130026 71.401801 -2171.531049
  endloop
 endfacet
 facet normal 0.742803 0.659346 0.116216
  outer loop
   vertex 2905.674727 63.639610 -590.162891
   vertex 2913.343624 54.788529 -588.963048
   vertex 3160.543624 54.788529 -2168.963048
  endloop
 endfacet
 facet normal 0.742803 0.659346 0.116216
  outer loop
   vertex 2905.674727 63.639610 -590.162891
   vertex 3160.543624 54.788529 -2168.963048
   vertex 3152.874727 63.639610 -2170.162891
  endloop
 endfacet
 facet normal 0.821476 0.555570 0.128525
  outer loop
   vertex 2913.343624 54.788529 -588.963048
   vertex 2919.805499 45.000000 -587.952051
   vertex 3167.005499 45.000000 -2167.952051
  endloop
 endfacet
 facet normal 0.821476 0.555570 0.128525
  outer loop
   vertex 2913.343624 54.788529 -588.963048
   vertex 3167.005499 45.000000 -2167.952051
   vertex 3160.543624 54.788529 -2168.963048
  endloop
 endfacet
 facet normal 0.886093 0.442289 0.138634
  outer loop
   vertex 2919.805499 45.000000 -587.952051
   vertex 2924.949790 34.441509 -587.147197
   vertex 3172.149790 34.441509 -2167.147197
  endloop
 endfacet
 facet normal 0.886093 0.442289 0.138634
  outer loop
   vertex 2919.805499 45.000000 -587.952051
   vertex 3172.149790 34.441509 -2167.147197
   vertex 3167.005499 45.000000 -2167.952051
  endloop
 endfacet
 facet normal 0.935549 0.321439 0.146372
  outer loop
   vertex 2924.949790 34.441509 -587.147197
   vertex 2928.688474 23.293714 -586.562259
   vertex 3175.888474 23.293714 -2166.562259
  endloop
 endfacet
 facet normal 0.935549 0.321439 0.146372
  outer loop
   vertex 2924.949790 34.441509 -587.147197
   vertex 3175.888474 23.293714 -2166.562259
   vertex 3172.149790 34.441509 -2167.147197
  endloop
 endfacet
 facet normal 0.968997 0.195090 0.151605
  outer loop
   vertex 2928.688474 23.293714 -586.562259
   vertex 2930.957583 11.747357 -586.207244
   vertex 3178.157583 11.747357 -2166.207244
  endloop
 endfacet
 facet normal 0.968997 0.195090 0.151605
  outer loop
   vertex 2928.688474 23.293714 -586.562259
   vertex 3178.157583 11.747357 -2166.207244
   vertex 3175.888474 23.293714 -2166.562259
  endloop
 endfacet
 facet normal 0.985866 0.065403 0.154244
  outer loop
   vertex 2930.957583 11.747357 -586.207244
   vertex 2931.718292 0.000000 -586.088227
   vertex 3178.918292 0.000000 -2166.088227
  endloop
 endfacet
 facet normal 0.985866 0.065403 0.154244
  outer loop
   vertex 2930.957583 11.747357 -586.207244
   vertex 3178.918292 0.000000 -2166.088227
   vertex 3178.157583 11.747357 -2166.207244
  endloop
 endfacet
 facet normal 0.985866 -0.065403 0.154244
  outer loop
   vertex 2931.718292 0.000000 -586.088227
   vertex 2930.957583 -11.747357 -586.207244
   vertex 3178.157583 -11.747357 -2166.207244
  endloop
 endfacet
 facet normal 0.985866 -0.065403 0.154244
  outer loop
   vertex 2931.718292 0.000000 -586.088227
   vertex 3178.157583 -11.747357 -2166.207244
   vertex 3178.918292 0.000000 -2166.088227
  endloop
 endfacet
 facet normal 0.968997 -0.195090 0.151605
  outer loop
   vertex 2930.957583 -11.747357 -586.207244
   vertex 2928.688474 -23.293714 -586.562259
   vertex 3175.888474 -23.293714 -2166.562259
  endloop
 endfacet
 facet normal 0.968997 -0.195090 0.151605
  outer loop
   vertex 2930.957583 -11.747357 -586.207244
   vertex 3175.888474 -23.293714 -2166.562259
   vertex 3178.157583 -11.747357 -2166.207244
  endloop
 endfacet
 facet normal 0.935549 -0.321439 0.146372
  outer loop
   vertex 2928.688474 -23.293714 -586.562259
   vertex 2924.949790 -34.441509 -587.147197
   vertex 3172.149790 -34.441509 -2167.147197
  endloop
 endfacet
 facet normal 0.935549 -0.321439 0.146372
  outer loop
   vertex 2928.688474 -23.293714 -586.562259
   vertex 3172.149790 -34.441509 -2167.147197
   vertex 3175.888474 -23.293714 -2166.562259
  endloop
 endfacet
 facet normal 0.886093 -0.442289 0.138634
  outer loop
   vertex 2924.949790 -34.441509 -587.147197
   vertex 2919.805499 -45.000000 -587.952051
   vertex 3167.005499 -45.000000 -2167.952051
  endloop
 endfacet
 facet normal 0.886093 -0.442289 0.138634
  outer loop
   vertex 2924.949790 -34.441509 -587.147197
   vertex 3167.005499 -45.000000 -2167.952051
   vertex 3172.149790 -34.441509 -2167.147197
  endloop
 endfacet
 facet normal 0.821476 -0.555570 0.128525
  outer loop
   vertex 2919.805499 -45.000000 -587.952051
   vertex 2913.343624 -54.788529 -588.963048
   vertex 3160.543624 -54.788529 -2168.963048
  endloop
 endfacet
 facet normal 0.821476 -0.555570 0.128525
  outer loop
   vertex 2919.805499 -45.000000 -587.952051
   vertex 3160.543624 -54.788529 -2168.963048
   vertex 3167.005499 -45.000000 -2167.952051
  endloop
 endfacet
 facet normal 0.742803 -0.659346 0.116216
  outer loop
   vertex 2913.343624 -54.788529 -588.963048
   vertex 2905.674727 -63.639610 -590.162891
   vertex 3152.874727 -63.639610 -2170.162891
  endloop
 endfacet
 facet normal 0.742803 -0.659346 0.116216
  outer loop
   vertex 2913.343624 -54.788529 -588.963048
   vertex 3152.874727 -63.639610 -2170.162891
   vertex 3160.543624 -54.788529 -2168.963048
  endloop
 endfacet
 facet normal 0.651421 -0.751840 0.101919
  outer loop
   vertex 2905.674727 -63.639610 -590.162891
   vertex 2896.930026 -71.401801 -591.531049
   vertex 3144.130026 -71.401801 -2171.531049
  endloop
 endfacet
 facet normal 0.651421 -0.751840 0.101919
  outer loop
   vertex 2905.674727 -63.639610 -590.162891
   vertex 3144.130026 -71.401801 -2171.531049
   vertex 3152.874727 -63.639610 -2170.162891
  endloop
 endfacet
 facet normal 0.548893 -0.831470 0.085877
  outer loop
   vertex 2896.930026 -71.401801 -591.531049
   vertex 2887.259146 -77.942286 -593.044113
   vertex 3134.459146 -77.942286 -2173.044113
  endloop
 endfacet
 facet normal 0.548893 -0.831470 0.085877
  outer loop
   vertex 2896.930026 -71.401801 -591.531049
   vertex 3134.459146 -77.942286 -2173.044113
   vertex 3144.130026 -71.401801 -2171.531049
  endloop
 endfacet
 facet normal 0.436973 -0.896873 0.068367
  outer loop
   vertex 2887.259146 -77.942286 -593.044113
   vertex 2876.827557 -83.149158 -594.676195
   vertex 3124.027557 -83.149158 -2174.676195
  endloop
 endfacet
 facet normal 0.436973 -0.896873 0.068367
  outer loop
   vertex 2887.259146 -77.942286 -593.044113
   vertex 3124.027557 -83.149158 -2174.676195
   vertex 3134.459146 -77.942286 -2173.044113
  endloop
 endfacet
 facet normal 0.317576 -0.946930 0.049687
  outer loop
   vertex 2876.827557 -83.149158 -594.676195
   vertex 2865.813747 -86.933324 -596.399368
   vertex 3113.013747 -86.933324 -2176.399368
  endloop
 endfacet
 facet normal 0.317576 -0.946930 0.049687
  outer loop
   vertex 2876.827557 -83.149158 -594.676195
   vertex 3113.013747 -86.933324 -2176.399368
   vertex 3124.027557 -83.149158 -2174.676195
  endloop
 endfacet
 facet normal 0.192746 -0.980785 0.030156
  outer loop
   vertex 2865.813747 -86.933324 -596.399368
   vertex 2854.406166 -89.230038 -598.184149
   vertex 3101.606166 -89.230038 -2178.184149
  endloop
 endfacet
 facet normal 0.192746 -0.980785 0.030156
  outer loop
   vertex 2865.813747 -86.933324 -596.399368
   vertex 3101.606166 -89.230038 -2178.184149
   vertex 3113.013747 -86.933324 -2176.399368
  endloop
 endfacet
 facet normal 0.064617 -0.997859 0.010110
  outer loop
   vertex 2854.406166 -89.230038 -598.184149
   vertex 2842.800000 -90.000000 -600.000000
   vertex 3090.000000 -90.000000 -2180.000000
  endloop
 endfacet
 facet normal 0.064617 -0.997859 0.010110
  outer loop
   vertex 2854.406166 -89.230038 -598.184149
   vertex 3090.000000 -90.000000 -2180.000000
   vertex 3101.606166 -89.230038 -2178.184149
  endloop
 endfacet
 facet normal -0.064617 -0.997859 -0.010110
  outer loop
   vertex 2842.800000 -90.000000 -600.000000
   vertex 2831.193834 -89.230038 -601.815851
   vertex 3078.393834 -89.230038 -2181.815851
  endloop
 endfacet
 facet normal -0.064617 -0.997859 -0.010110
  outer loop
   vertex 2842.800000 -90.000000 -600.000000
   vertex 3078.393834 -89.230038 -2181.815851
   vertex 3090.000000 -90.000000 -2180.000000
  endloop
 endfacet
 facet normal -0.192746 -0.980785 -0.030156
  outer loop
   vertex 2831.193834 -89.230038 -601.815851
   vertex 2819.786253 -86.933324 -603.600632
   vertex 3066.986253 -86.933324 -2183.600632
  endloop
 endfacet
 facet normal -0.192746 -0.980785 -0.030156
  outer loop
   vertex 2831.193834 -89.230038 -601.815851
   vertex 3066.986253 -86.933324 -2183.600632
   vertex 3078.393834 -89.230038 -2181.815851
  endloop
 endfacet
 facet normal -0.317576 -0.946930 -0.049687
  outer loop
   vertex 2819.786253 -86.933324 -603.600632
   vertex 2808.772443 -83.149158 -605.323805
   vertex 3055.972443 -83.149158 -2185.323805
  endloop
 endfacet
 facet normal -0.317576 -0.946930 -0.049687
  outer loop
   vertex 2819.786253 -86.933324 -603.600632
   vertex 3055.972443 -83.149158 -2185.323805
   vertex 3066.986253 -86.933324 -2183.600632
  endloop
 endfacet
 facet normal -0.436973 -0.896873 -0.068367
  outer loop
   vertex 2808.772443 -83.149158 -605.323805
   vertex 2798.340854 -77.942286 -606.955887
   vertex 3045.540854 -77.942286 -2186.955887
  endloop
 endfacet
 facet normal -0.436973 -0.896873 -0.068367
  outer loop
   vertex 2808.772443 -83.149158 -605.323805
   vertex 3045.540854 -77.942286 -2186.955887
   vertex 3055.972443 -83.149158 -2185.323805
  endloop
 endfacet
 facet normal -0.548893 -0.831470 -0.085877
  outer loop
   vertex 2798.340854 -77.942286 -606.955887
   vertex 2788.669974 -71.401801 -608.468951
   vertex 3035.869974 -71.401801 -2188.468951
  endloop
 endfacet
 facet normal -0.548893 -0.831470 -0.085877
  outer loop
   vertex 2798.340854 -77.942286 -606.955887
   vertex 3035.869974 -71.401801 -2188.468951
   vertex 3045.540854 -77.942286 -2186.955887
  endloop
 endfacet
 facet normal -0.651421 -0.751840 -0.101919
  outer loop
   vertex 2788.669974 -71.401801 -608.468951
   vertex 2779.925273 -63.639610 -609.837109
   vertex 3027.125273 -63.639610 -2189.837109
  endloop
 endfacet
 facet normal -0.651421 -0.751840 -0.101919
  outer loop
   vertex 2788.669974 -71.401801 -608.468951
   vertex 3027.125273 -63.639610 -2189.837109
   vertex 3035.869974 -71.401801 -2188.468951
  endloop
 endfacet
 facet normal -0.742803 -0.659346 -0.116216
  outer loop
   vertex 2779.925273 -63.639610 -609.837109
   vertex 2772.256376 -54.788529 -611.036952
   vertex 3019.456376 -54.788529 -2191.036952
  endloop
 endfacet
 facet normal -0.742803 -0.659346 -0.116216
  outer loop
   vertex 2779.925273 -63.639610 -609.837109
   vertex 3019.456376 -54.788529 -2191.036952
   vertex 3027.125273 -63.639610 -2189.837109
  endloop
 endfacet
 facet normal -0.821476 -0.555570 -0.128525
  outer loop
   vertex 2772.256376 -54.788529 -611.036952
   vertex 2765.794501 -45.000000 -612.047949
   vertex 3012.994501 -45.000000 -2192.047949
  endloop
 endfacet
 facet normal -0.821476 -0.555570 -0.128525
  outer loop
   vertex 2772.256376 -54.788529 -611.036952
   vertex 3012.994501 -45.000000 -2192.047949
   vertex 3019.456376 -54.788529 -2191.036952
  endloop
 endfacet
 facet normal -0.886093 -0.442289 -0.138634
  outer loop
   vertex 2765.794501 -45.000000 -612.047949
   vertex 2760.650210 -34.441509 -612.852803
   vertex 3007.850210 -34.441509 -2192.852803
  endloop
 endfacet
 facet normal -0.886093 -0.442289 -0.138634
  outer loop
   vertex 2765.794501 -45.000000 -612.047949
   vertex 3007.850210 -34.441509 -2192.852803
   vertex 3012.994501 -45.000000 -2192.047949
  endloop
 endfacet
 facet normal -0.935549 -0.321439 -0.146372
  outer loop
   vertex 2760.650210 -34.441509 -612.852803
   vertex 2756.911526 -23.293714 -613.437741
   vertex 3004.111526 -23.293714 -2193.437741
  endloop
 endfacet
 facet normal -0.935549 -0.321439 -0.146372
  outer loop
   vertex 2760.650210 -34.441509 -612.852803
   vertex 3004.111526 -23.293714 -2193.437741
   vertex 3007.850210 -34.441509 -2192.852803
  endloop
 endfacet
 facet normal -0.968997 -0.195090 -0.151605
  outer loop
   vertex 2756.911526 -23.293714 -613.437741
   vertex 2754.642417 -11.747357 -613.792756
   vertex 3001.842417 -11.747357 -2193.792756
  endloop
 endfacet
 facet normal -0.968997 -0.195090 -0.151605
  outer loop
   vertex 2756.911526 -23.293714 -613.437741
   vertex 3001.842417 -11.747357 -2193.792756
   vertex 3004.111526 -23.293714 -2193.437741
  endloop
 endfacet
 facet normal -0.985866 -0.065403 -0.154244
  outer loop
   vertex 2754.642417 -11.747357 -613.792756
   vertex 2753.881708 -0.000000 -613.911773
   vertex 3001.081708 -0.000000 -2193.911773
  endloop
 endfacet
 facet normal -0.985866 -0.065403 -0.154244
  outer loop
   vertex 2754.642417 -11.747357 -613.792756
   vertex 3001.081708 -0.000000 -2193.911773
   vertex 3001.842417 -11.747357 -2193.792756
  endloop
 endfacet
 facet normal -0.985866 0.065403 -0.154244
  outer loop
   vertex 2753.881708 -0.000000 -613.911773
   vertex 2754.642417 11.747357 -613.792756
   vertex 3001.842417 11.747357 -2193.792756
  endloop
 endfacet
 facet normal -0.985866 0.065403 -0.154244
  outer loop
   vertex 2753.881708 -0.000000 -613.911773
   vertex 3001.842417 11.747357 -2193.792756
   vertex 3001.081708 -0.000000 -2193.911773
  endloop
 endfacet
 facet normal -0.968997 0.195090 -0.151605
  outer loop
   vertex 2754.642417 11.747357 -613.792756
   vertex 2756.911526 23.293714 -613.437741
   vertex 3004.111526 23.293714 -2193.437741
  endloop
 endfacet
 facet normal -0.968997 0.195090 -0.151605
  outer loop
   vertex 2754.642417 11.747357 -613.792756
   vertex 3004.111526 23.293714 -2193.437741
   vertex 3001.842417 11.747357 -2193.792756
  endloop
 endfacet
 facet normal -0.935549 0.321439 -0.146372
  outer loop
   vertex 2756.911526 23.293714 -613.437741
   vertex 2760.650210 34.441509 -612.852803
   vertex 3007.850210 34.441509 -2192.852803
  endloop
 endfacet
 facet normal -0.935549 0.321439 -0.146372
  outer loop
   vertex 2756.911526 23.293714 -613.437741
   vertex 3007.850210 34.441509 -2192.852803
   vertex 3004.111526 23.293714 -2193.437741
  endloop
 endfacet
 facet normal -0.886093 0.442289 -0.138634
  outer loop
   vertex 2760.650210 34.441509 -612.852803
   vertex 2765.794501 45.000000 -612.047949
   vertex 3012.994501 45.000000 -2192.047949
  endloop
 endfacet
 facet normal -0.886093 0.442289 -0.138634
  outer loop
   vertex 2760.650210 34.441509 -612.852803
   vertex 3012.994501 45.000000 -2192.047949
   vertex 3007.850210 34.441509 -2192.852803
  endloop
 endfacet
 facet normal -0.821476 0.555570 -0.128525
  outer loop
   vertex 2765.794501 45.000000 -612.047949
   vertex 2772.256376 54.788529 -611.036952
   vertex 3019.456376 54.788529 -2191.036952
  endloop
 endfacet
 facet normal -0.821476 0.555570 -0.128525
  outer loop
   vertex 2765.794501 45.000000 -612.047949
   vertex 3019.456376 54.788529 -2191.036952
   vertex 3012.994501 45.000000 -2192.047949
  endloop
 endfacet
 facet normal -0.742803 0.659346 -0.116216
  outer loop
   vertex 2772.256376 54.788529 -611.036952
   vertex 2779.925273 63.639610 -609.837109
   vertex 3027.125273 63.639610 -2189.837109
  endloop
 endfacet
 facet normal -0.742803 0.659346 -0.116216
  outer loop
   vertex 2772.256376 54.788529 -611.036952
   vertex 3027.125273 63.639610 -2189.837109
   vertex 3019.456376 54.788529 -2191.036952
  endloop
 endfacet
 facet normal -0.651421 0.751840 -0.101919
  outer loop
   vertex 2779.925273 63.639610 -609.837109
   vertex 2788.669974 71.401801 -608.468951
   vertex 3035.869974 71.401801 -2188.468951
  endloop
 endfacet
 facet normal -0.651421 0.751840 -0.101919
  outer loop
   vertex 2779.925273 63.639610 -609.837109
   vertex 3035.869974 71.401801 -2188.468951
   vertex 3027.125273 63.639610 -2189.837109
  endloop
 endfacet
 facet normal -0.548893 0.831470 -0.085877
  outer loop
   vertex 2788.669974 71.401801 -608.468951
   vertex 2798.340854 77.942286 -606.955887
   vertex 3045.540854 77.942286 -2186.955887
  endloop
 endfacet
 facet normal -0.548893 0.831470 -0.085877
  outer loop
   vertex 2788.669974 71.401801 -608.468951
   vertex 3045.540854 77.942286 -2186.955887
   vertex 3035.869974 71.401801 -2188.468951
  endloop
 endfacet
 facet normal -0.436973 0.896873 -0.068367
  outer loop
   vertex 2798.340854 77.942286 -606.955887
   vertex 2808.772443 83.149158 -605.323805
   vertex 3055.972443 83.149158 -2185.323805
  endloop
 endfacet
 facet normal -0.436973 0.896873 -0.068367
  outer loop
   vertex 2798.340854 77.942286 -606.955887
   vertex 3055.972443 83.149158 -2185.323805
   vertex 3045.540854 77.942286 -2186.955887
  endloop
 endfacet
 facet normal -0.317576 0.946930 -0.049687
  outer loop
   vertex 2808.772443 83.149158 -605.323805
   vertex 2819.786253 86.933324 -603.600632
   vertex 3066.986253 86.933324 -2183.600632
  endloop
 endfacet
 facet normal -0.317576 0.946930 -0.049687
  outer loop
   vertex 2808.772443 83.149158 -605.323805
   vertex 3066.986253 86.933324 -2183.600632
   vertex 3055.972443 83.149158 -2185.323805
  endloop
 endfacet
 facet normal -0.192746 0.980785 -0.030156
  outer loop
   vertex 2819.786253 86.933324 -603.600632
   vertex 2831.193834 89.230038 -601.815851
   vertex 3078.393834 89.230038 -2181.815851
  endloop
 endfacet
 facet normal -0.192746 0.980785 -0.030156
  outer loop
   vertex 2819.786253 86.933324 -603.600632
   vertex 3078.393834 89.230038 -2181.815851
   vertex 3066.986253 86.933324 -2183.600632
  endloop
 endfacet
 facet normal -0.064617 0.997859 -0.010110
  outer loop
   vertex 2831.193834 89.230038 -601.815851
   vertex 2842.800000 90.000000 -600.000000
   vertex 3090.000000 90.000000 -2180.000000
  endloop
 endfacet
 facet normal -0.064617 0.997859 -0.010110
  outer loop
   vertex 2831.193834 89.230038 -601.815851
   vertex 3090.000000 90.000000 -2180.000000
   vertex 3078.393834 89.230038 -2181.815851
  endloop
 endfacet
 facet normal -0.064617 -0.997859 -0.010110
  outer loop
   vertex 3100.316592 79.315589 -2178.385910
   vertex 2853.116592 79.315589 -598.385910
   vertex 2842.800000 80.000000 -600.000000
  endloop
 endfacet
 facet normal -0.064617 -0.997859 -0.010110
  outer loop
   vertex 3090.000000 80.000000 -2180.000000
   vertex 3100.316592 79.315589 -2178.385910
   vertex 2842.800000 80.000000 -600.000000
  endloop
 endfacet
 facet normal -0.192746 -0.980785 -0.030156
  outer loop
   vertex 3110.456664 77.274066 -2176.799438
   vertex 2863.256664 77.274066 -596.799438
   vertex 2853.116592 79.315589 -598.385910
  endloop
 endfacet
 facet normal -0.192746 -0.980785 -0.030156
  outer loop
   vertex 3100.316592 79.315589 -2178.385910
   vertex 3110.456664 77.274066 -2176.799438
   vertex 2853.116592 79.315589 -598.385910
  endloop
 endfacet
 facet normal -0.317576 -0.946930 -0.049687
  outer loop
   vertex 3120.246717 73.910363 -2175.267729
   vertex 2873.046717 73.910363 -595.267729
   vertex 2863.256664 77.274066 -596.799438
  endloop
 endfacet
 facet normal -0.317576 -0.946930 -0.049687
  outer loop
   vertex 3110.456664 77.274066 -2176.799438
   vertex 3120.246717 73.910363 -2175.267729
   vertex 2863.256664 77.274066 -596.799438
  endloop
 endfacet
 facet normal -0.436973 -0.896873 -0.068367
  outer loop
   vertex 3129.519241 69.282032 -2173.816990
   vertex 2882.319241 69.282032 -593.816990
   vertex 2873.046717 73.910363 -595.267729
  endloop
 endfacet
 facet normal -0.436973 -0.896873 -0.068367
  outer loop
   vertex 3120.246717 73.910363 -2175.267729
   vertex 3129.519241 69.282032 -2173.816990
   vertex 2873.046717 73.910363 -595.267729
  endloop
 endfacet
 facet normal -0.548893 -0.831470 -0.085877
  outer loop
   vertex 3138.115579 63.468267 -2172.472044
   vertex 2890.915579 63.468267 -592.472044
   vertex 2882.319241 69.282032 -593.816990
  endloop
 endfacet
 facet normal -0.548893 -0.831470 -0.085877
  outer loop
   vertex 3129.519241 69.282032 -2173.816990
   vertex 3138.115579 63.468267 -2172.472044
   vertex 2882.319241 69.282032 -593.816990
  endloop
 endfacet
 facet normal -0.651421 -0.751840 -0.101919
  outer loop
   vertex 3145.888646 56.568542 -2171.255903
   vertex 2898.688646 56.568542 -591.255903
   vertex 2890.915579 63.468267 -592.472044
  endloop
 endfacet
 facet normal -0.651421 -0.751840 -0.101919
  outer loop
   vertex 3138.115579 63.468267 -2172.472044
   vertex 3145.888646 56.568542 -2171.255903
   vertex 2890.915579 63.468267 -592.472044
  endloop
 endfacet
 facet normal -0.742803 -0.659346 -0.116216
  outer loop
   vertex 3152.705443 48.700914 -2170.189376
   vertex 2905.505443 48.700914 -590.189376
   vertex 2898.688646 56.568542 -591.255903
  endloop
 endfacet
 facet normal -0.742803 -0.659346 -0.116216
  outer loop
   vertex 3145.888646 56.568542 -2171.255903
   vertex 3152.705443 48.700914 -2170.189376
   vertex 2898.688646 56.568542 -591.255903
  endloop
 endfacet
 facet normal -0.821476 -0.555570 -0.128525
  outer loop
   vertex 3158.449333 40.000000 -2169.290712
   vertex 2911.249333 40.000000 -589.290712
   vertex 2905.505443 48.700914 -590.189376
  endloop
 endfacet
 facet normal -0.821476 -0.555570 -0.128525
  outer loop
   vertex 3152.705443 48.700914 -2170.189376
   vertex 3158.449333 40.000000 -2169.290712
   vertex 2905.505443 48.700914 -590.189376
  endloop
 endfacet
 facet normal -0.886093 -0.442289 -0.138634
  outer loop
   vertex 3163.022035 30.614675 -2168.575287
   vertex 2915.822035 30.614675 -588.575287
   vertex 2911.249333 40.000000 -589.290712
  endloop
 endfacet
 facet normal -0.886093 -0.442289 -0.138634
  outer loop
   vertex 3158.449333 40.000000 -2169.290712
   vertex 3163.022035 30.614675 -2168.575287
   vertex 2911.249333 40.000000 -589.290712
  endloop
 endfacet
 facet normal -0.935549 -0.321439 -0.146372
  outer loop
   vertex 3166.345310 20.705524 -2168.055341
   vertex 2919.145310 20.705524 -588.055341
   vertex 2915.822035 30.614675 -588.575287
  endloop
 endfacet
 facet normal -0.935549 -0.321439 -0.146372
  outer loop
   vertex 3163.022035 30.614675 -2168.575287
   vertex 3166.345310 20.705524 -2168.055341
   vertex 2915.822035 30.614675 -588.575287
  endloop
 endfacet
 facet normal -0.968997 -0.195090 -0.151605
  outer loop
   vertex 3168.362296 10.442095 -2167.739772
   vertex 2921.162296 10.442095 -587.739772
   vertex 2919.145310 20.705524 -588.055341
  endloop
 endfacet
 facet normal -0.968997 -0.195090 -0.151605
  outer loop
   vertex 3166.345310 20.705524 -2168.055341
   vertex 3168.362296 10.442095 -2167.739772
   vertex 2919.145310 20.705524 -588.055341
  endloop
 endfacet
 facet normal -0.985866 -0.065403 -0.154244
  outer loop
   vertex 3169.038481 0.000000 -2167.633979
   vertex 2921.838481 0.000000 -587.633979
   vertex 2921.162296 10.442095 -587.739772
  endloop
 endfacet
 facet normal -0.985866 -0.065403 -0.154244
  outer loop
   vertex 3168.362296 10.442095 -2167.739772
   vertex 3169.038481 0.000000 -2167.633979
   vertex 2921.162296 10.442095 -587.739772
  endloop
 endfacet
 facet normal -0.985866 0.065403 -0.154244
  outer loop
   vertex 3168.362296 -10.442095 -2167.739772
   vertex 2921.162296 -10.442095 -587.739772
   vertex 2921.838481 0.000000 -587.633979
  endloop
 endfacet
 facet normal -0.985866 0.065403 -0.154244
  outer loop
   vertex 3169.038481 0.000000 -2167.633979
   vertex 3168.362296 -10.442095 -2167.739772
   vertex 2921.838481 0.000000 -587.633979
  endloop
 endfacet
 facet normal -0.968997 0.195090 -0.151605
  outer loop
   vertex 3166.345310 -20.705524 -2168.055341
   vertex 2919.145310 -20.705524 -588.055341
   vertex 2921.162296 -10.442095 -587.739772
  endloop
 endfacet
 facet normal -0.968997 0.195090 -0.151605
  outer loop
   vertex 3168.362296 -10.442095 -2167.739772
   vertex 3166.345310 -20.705524 -2168.055341
   vertex 2921.162296 -10.442095 -587.739772
  endloop
 endfacet
 facet normal -0.935549 0.321439 -0.146372
  outer loop
   vertex 3163.022035 -30.614675 -2168.575287
   vertex 2915.822035 -30.614675 -588.575287
   vertex 2919.145310 -20.705524 -588.055341
  endloop
 endfacet
 facet normal -0.935549 0.321439 -0.146372
  outer loop
   vertex 3166.345310 -20.705524 -2168.055341
   vertex 3163.022035 -30.614675 -2168.575287
   vertex 2919.145310 -20.705524 -588.055341
  endloop
 endfacet
 facet normal -0.886093 0.442289 -0.138634
  outer loop
   vertex 3158.449333 -40.000000 -2169.290712
   vertex 2911.249333 -40.000000 -589.290712
   vertex 2915.822035 -30.614675 -588.575287
  endloop
 endfacet
 facet normal -0.886093 0.442289 -0.138634
  outer loop
   vertex 3163.022035 -30.614675 -2168.575287
   vertex 3158.449333 -40.000000 -2169.290712
   vertex 2915.822035 -30.614675 -588.575287
  endloop
 endfacet
 facet normal -0.821476 0.555570 -0.128525
  outer loop
   vertex 3152.705443 -48.700914 -2170.189376
   vertex 2905.505443 -48.700914 -590.189376
   vertex 2911.249333 -40.000000 -589.290712
  endloop
 endfacet
 facet normal -0.821476 0.555570 -0.128525
  outer loop
   vertex 3158.449333 -40.000000 -2169.290712
   vertex 3152.705443 -48.700914 -2170.189376
   vertex 2911.249333 -40.000000 -589.290712
  endloop
 endfacet
 facet normal -0.742803 0.659346 -0.116216
  outer loop
   vertex 3145.888646 -56.568542 -2171.255903
   vertex 2898.688646 -56.568542 -591.255903
   vertex 2905.505443 -48.700914 -590.189376
  endloop
 endfacet
 facet normal -0.742803 0.659346 -0.116216
  outer loop
   vertex 3152.705443 -48.700914 -2170.189376
   vertex 3145.888646 -56.568542 -2171.255903
   vertex 2905.505443 -48.700914 -590.189376
  endloop
 endfacet
 facet normal -0.651421 0.751840 -0.101919
  outer loop
   vertex 3138.115579 -63.468267 -2172.472044
   vertex 2890.915579 -63.468267 -592.472044
   vertex 2898.688646 -56.568542 -591.255903
  endloop
 endfacet
 facet normal -0.651421 0.751840 -0.101919
  outer loop
   vertex 3145.888646 -56.568542 -2171.255903
   vertex 3138.115579 -63.468267 -2172.472044
   vertex 2898.688646 -56.568542 -591.255903
  endloop
 endfacet
 facet normal -0.548893 0.831470 -0.085877
  outer loop
   vertex 3129.519241 -69.282032 -2173.816990
   vertex 2882.319241 -69.282032 -593.816990
   vertex 2890.915579 -63.468267 -592.472044
  endloop
 endfacet
 facet normal -0.548893 0.831470 -0.085877
  outer loop
   vertex 3138.115579 -63.468267 -2172.472044
   vertex 3129.519241 -69.282032 -2173.816990
   vertex 2890.915579 -63.468267 -592.472044
  endloop
 endfacet
 facet normal -0.436973 0.896873 -0.068367
  outer loop
   vertex 3120.246717 -73.910363 -2175.267729
   vertex 2873.046717 -73.910363 -595.267729
   vertex 2882.319241 -69.282032 -593.816990
  endloop
 endfacet
 facet normal -0.436973 0.896873 -0.068367
  outer loop
   vertex 3129.519241 -69.282032 -2173.816990
   vertex 3120.246717 -73.910363 -2175.267729
   vertex 2882.319241 -69.282032 -593.816990
  endloop
 endfacet
 facet normal -0.317576 0.946930 -0.049687
  outer loop
   vertex 3110.456664 -77.274066 -2176.799438
   vertex 2863.256664 -77.274066 -596.799438
   vertex 2873.046717 -73.910363 -595.267729
  endloop
 endfacet
 facet normal -0.317576 0.946930 -0.049687
  outer loop
   vertex 3120.246717 -73.910363 -2175.267729
   vertex 3110.456664 -77.274066 -2176.799438
   vertex 2873.046717 -73.910363 -595.267729
  endloop
 endfacet
 facet normal -0.192746 0.980785 -0.030156
  outer loop
   vertex 3100.316592 -79.315589 -2178.385910
   vertex 2853.116592 -79.315589 -598.385910
   vertex 2863.256664 -77.274066 -596.799438
  endloop
 endfacet
 facet normal -0.192746 0.980785 -0.030156
  outer loop
   vertex 3110.456664 -77.274066 -2176.799438
   vertex 3100.316592 -79.315589 -2178.385910
   vertex 2863.256664 -77.274066 -596.799438
  endloop
 endfacet
 facet normal -0.064617 0.997859 -0.010110
  outer loop
   vertex 3090.000000 -80.000000 -2180.000000
   vertex 2842.800000 -80.000000 -600.000000
   vertex 2853.116592 -79.315589 -598.385910
  endloop
 endfacet
 facet normal -0.064617 0.997859 -0.010110
  outer loop
   vertex 3100.316592 -79.315589 -2178.385910
   vertex 3090.000000 -80.000000 -2180.000000
   vertex 2853.116592 -79.315589 -598.385910
  endloop
 endfacet
 facet normal 0.064617 0.997859 0.010110
  outer loop
   vertex 3079.683408 -79.315589 -2181.614090
   vertex 2832.483408 -79.315589 -601.614090
   vertex 2842.800000 -80.000000 -600.000000
  endloop
 endfacet
 facet normal 0.064617 0.997859 0.010110
  outer loop
   vertex 3090.000000 -80.000000 -2180.000000
   vertex 3079.683408 -79.315589 -2181.614090
   vertex 2842.800000 -80.000000 -600.000000
  endloop
 endfacet
 facet normal 0.192746 0.980785 0.030156
  outer loop
   vertex 3069.543336 -77.274066 -2183.200562
   vertex 2822.343336 -77.274066 -603.200562
   vertex 2832.483408 -79.315589 -601.614090
  endloop
 endfacet
 facet normal 0.192746 0.980785 0.030156
  outer loop
   vertex 3079.683408 -79.315589 -2181.614090
   vertex 3069.543336 -77.274066 -2183.200562
   vertex 2832.483408 -79.315589 -601.614090
  endloop
 endfacet
 facet normal 0.317576 0.946930 0.049687
  outer loop
   vertex 3059.753283 -73.910363 -2184.732271
   vertex 2812.553283 -73.910363 -604.732271
   vertex 2822.343336 -77.274066 -603.200562
  endloop
 endfacet
 facet normal 0.317576 0.946930 0.049687
  outer loop
   vertex 3069.543336 -77.274066 -2183.200562
   vertex 3059.753283 -73.910363 -2184.732271
   vertex 2822.343336 -77.274066 -603.200562
  endloop
 endfacet
 facet normal 0.436973 0.896873 0.068367
  outer loop
   vertex 3050.480759 -69.282032 -2186.183010
   vertex 2803.280759 -69.282032 -606.183010
   vertex 2812.553283 -73.910363 -604.732271
  endloop
 endfacet
 facet normal 0.436973 0.896873 0.068367
  outer loop
   vertex 3059.753283 -73.910363 -2184.732271
   vertex 3050.480759 -69.282032 -2186.183010
   vertex 2812.553283 -73.910363 -604.732271
  endloop
 endfacet
 facet normal 0.548893 0.831470 0.085877
  outer loop
   vertex 3041.884421 -63.468267 -2187.527956
   vertex 2794.684421 -63.468267 -607.527956
   vertex 2803.280759 -69.282032 -606.183010
  endloop
 endfacet
 facet normal 0.548893 0.831470 0.085877
  outer loop
   vertex 3050.480759 -69.282032 -2186.183010
   vertex 3041.884421 -63.468267 -2187.527956
   vertex 2803.280759 -69.282032 -606.183010
  endloop
 endfacet
 facet normal 0.651421 0.751840 0.101919
  outer loop
   vertex 3034.111354 -56.568542 -2188.744097
   vertex 2786.911354 -56.568542 -608.744097
   vertex 2794.684421 -63.468267 -607.527956
  endloop
 endfacet
 facet normal 0.651421 0.751840 0.101919
  outer loop
   vertex 3041.884421 -63.468267 -2187.527956
   vertex 3034.111354 -56.568542 -2188.744097
   vertex 2794.684421 -63.468267 -607.527956
  endloop
 endfacet
 facet normal 0.742803 0.659346 0.116216
  outer loop
   vertex 3027.294557 -48.700914 -2189.810624
   vertex 2780.094557 -48.700914 -609.810624
   vertex 2786.911354 -56.568542 -608.744097
  endloop
 endfacet
 facet normal 0.742803 0.659346 0.116216
  outer loop
   vertex 3034.111354 -56.568542 -2188.744097
   vertex 3027.294557 -48.700914 -2189.810624
   vertex 2786.911354 -56.568542 -608.744097
  endloop
 endfacet
 facet normal 0.821476 0.555570 0.128525
  outer loop
   vertex 3021.550667 -40.000000 -2190.709288
   vertex 2774.350667 -40.000000 -610.709288
   vertex 2780.094557 -48.700914 -609.810624
  endloop
 endfacet
 facet normal 0.821476 0.555570 0.128525
  outer loop
   vertex 3027.294557 -48.700914 -2189.810624
   vertex 3021.550667 -40.000000 -2190.709288
   vertex 2780.094557 -48.700914 -609.810624
  endloop
 endfacet
 facet normal 0.886093 0.442289 0.138634
  outer loop
   vertex 3016.977965 -30.614675 -2191.424713
   vertex 2769.777965 -30.614675 -611.424713
   vertex 2774.350667 -40.000000 -610.709288
  endloop
 endfacet
 facet normal 0.886093 0.442289 0.138634
  outer loop
   vertex 3021.550667 -40.000000 -2190.709288
   vertex 3016.977965 -30.614675 -2191.424713
   vertex 2774.350667 -40.000000 -610.709288
  endloop
 endfacet
 facet normal 0.935549 0.321439 0.146372
  outer loop
   vertex 3013.654690 -20.705524 -2191.944659
   vertex 2766.454690 -20.705524 -611.944659
   vertex 2769.777965 -30.614675 -611.424713
  endloop
 endfacet
 facet normal 0.935549 0.321439 0.146372
  outer loop
   vertex 3016.977965 -30.614675 -2191.424713
   vertex 3013.654690 -20.705524 -2191.944659
   vertex 2769.777965 -30.614675 -611.424713
  endloop
 endfacet
 facet normal 0.968997 0.195090 0.151605
  outer loop
   vertex 3011.637704 -10.442095 -2192.260228
   vertex 2764.437704 -10.442095 -612.260228
   vertex 2766.454690 -20.705524 -611.944659
  endloop
 endfacet
 facet normal 0.968997 0.195090 0.151605
  outer loop
   vertex 3013.654690 -20.705524 -2191.944659
   vertex 3011.637704 -10.442095 -2192.260228
   vertex 2766.454690 -20.705524 -611.944659
  endloop
 endfacet
 facet normal 0.985866 0.065403 0.154244
  outer loop
   vertex 3010.961519 -0.000000 -2192.366021
   vertex 2763.761519 -0.000000 -612.366021
   vertex 2764.437704 -10.442095 -612.260228
  endloop
 endfacet
 facet normal 0.985866 0.065403 0.154244
  outer loop
   vertex 3011.637704 -10.442095 -2192.260228
   vertex 3010.961519 -0.000000 -2192.366021
   vertex 2764.437704 -10.442095 -612.260228
  endloop
 endfacet
 facet normal 0.985866 -0.065403 0.154244
  outer loop
   vertex 3011.637704 10.442095 -2192.260228
   vertex 2764.437704 10.442095 -612.260228
   vertex 2763.761519 -0.000000 -612.366021
  endloop
 endfacet
 facet normal 0.985866 -0.065403 0.154244
  outer loop
   vertex 3010.961519 -0.000000 -2192.366021
   vertex 3011.637704 10.442095 -2192.260228
   vertex 2763.761519 -0.000000 -612.366021
  endloop
 endfacet
 facet normal 0.968997 -0.195090 0.151605
  outer loop
   vertex 3013.654690 20.705524 -2191.944659
   vertex 2766.454690 20.705524 -611.944659
   vertex 2764.437704 10.442095 -612.260228
  endloop
 endfacet
 facet normal 0.968997 -0.195090 0.151605
  outer loop
   vertex 3011.637704 10.442095 -2192.260228
   vertex 3013.654690 20.705524 -2191.944659
   vertex 2764.437704 10.442095 -612.260228
  endloop
 endfacet
 facet normal 0.935549 -0.321439 0.146372
  outer loop
   vertex 3016.977965 30.614675 -2191.424713
   vertex 2769.777965 30.614675 -611.424713
   vertex 2766.454690 20.705524 -611.944659
  endloop
 endfacet
 facet normal 0.935549 -0.321439 0.146372
  outer loop
   vertex 3013.654690 20.705524 -2191.944659
   vertex 3016.977965 30.614675 -2191.424713
   vertex 2766.454690 20.705524 -611.944659
  endloop
 endfacet
 facet normal 0.886093 -0.442289 0.138634
  outer loop
   vertex 3021.550667 40.000000 -2190.709288
   vertex 2774.350667 40.000000 -610.709288
   vertex 2769.777965 30.614675 -611.424713
  endloop
 endfacet
 facet normal 0.886093 -0.442289 0.138634
  outer loop
   vertex 3016.977965 30.614675 -2191.424713
   vertex 3021.550667 40.000000 -2190.709288
   vertex 2769.777965 30.614675 -611.424713
  endloop
 endfacet
 facet normal 0.821476 -0.555570 0.128525
  outer loop
   vertex 3027.294557 48.700914 -2189.810624
   vertex 2780.094557 48.700914 -609.810624
   vertex 2774.350667 40.000000 -610.709288
  endloop
 endfacet
 facet normal 0.821476 -0.555570 0.128525
  outer loop
   vertex 3021.550667 40.000000 -2190.709288
   vertex 3027.294557 48.700914 -2189.810624
   vertex 2774.350667 40.000000 -610.709288
  endloop
 endfacet
 facet normal 0.742803 -0.659346 0.116216
  outer loop
   vertex 3034.111354 56.568542 -2188.744097
   vertex 2786.911354 56.568542 -608.744097
   vertex 2780.094557 48.700914 -609.810624
  endloop
 endfacet
 facet normal 0.742803 -0.659346 0.116216
  outer loop
   vertex 3027.294557 48.700914 -2189.810624
   vertex 3034.111354 56.568542 -2188.744097
   vertex 2780.094557 48.700914 -609.810624
  endloop
 endfacet
 facet normal 0.651421 -0.751840 0.101919
  outer loop
   vertex 3041.884421 63.468267 -2187.527956
   vertex 2794.684421 63.468267 -607.527956
   vertex 2786.911354 56.568542 -608.744097
  endloop
 endfacet
 facet normal 0.651421 -0.751840 0.101919
  outer loop
   vertex 3034.111354 56.568542 -2188.744097
   vertex 3041.884421 63.468267 -2187.527956
   vertex 2786.911354 56.568542 -608.744097
  endloop
 endfacet
 facet normal 0.548893 -0.831470 0.085877
  outer loop
   vertex 3050.480759 69.282032 -2186.183010
   vertex 2803.280759 69.282032 -606.183010
   vertex 2794.684421 63.468267 -607.527956
  endloop
 endfacet
 facet normal 0.548893 -0.831470 0.085877
  outer loop
   vertex 3041.884421 63.468267 -2187.527956
   vertex 3050.480759 69.282032 -2186.183010
   vertex 2794.684421 63.468267 -607.527956
  endloop
 endfacet
 facet normal 0.436973 -0.896873 0.068367
  outer loop
   vertex 3059.753283 73.910363 -2184.732271
   vertex 2812.553283 73.910363 -604.732271
   vertex 2803.280759 69.282032 -606.183010
  endloop
 endfacet
 facet normal 0.436973 -0.896873 0.068367
  outer loop
   vertex 3050.480759 69.282032 -2186.183010
   vertex 3059.753283 73.910363 -2184.732271
   vertex 2803.280759 69.282032 -606.183010
  endloop
 endfacet
 facet normal 0.317576 -0.946930 0.049687
  outer loop
   vertex 3069.543336 77.274066 -2183.200562
   vertex 2822.343336 77.274066 -603.200562
   vertex 2812.553283 73.910363 -604.732271
  endloop
 endfacet
 facet normal 0.317576 -0.946930 0.049687
  outer loop
   vertex 3059.753283 73.910363 -2184.732271
   vertex 3069.543336 77.274066 -2183.200562
   vertex 2812.553283 73.910363 -604.732271
  endloop
 endfacet
 facet normal 0.192746 -0.980785 0.030156
  outer loop
   vertex 3079.683408 79.315589 -2181.614090
   vertex 2832.483408 79.315589 -601.614090
   vertex 2822.343336 77.274066 -603.200562
  endloop
 endfacet
 facet normal 0.192746 -0.980785 0.030156
  outer loop
   vertex 3069.543336 77.274066 -2183.200562
   vertex 3079.683408 79.315589 -2181.614090
   vertex 2822.343336 77.274066 -603.200562
  endloop
 endfacet
 facet normal 0.064617 -0.997859 0.010110
  outer loop
   vertex 3090.000000 80.000000 -2180.000000
   vertex 2842.800000 80.000000 -600.000000
   vertex 2832.483408 79.315589 -601.614090
  endloop
 endfacet
 facet normal 0.064617 -0.997859 0.010110
  outer loop
   vertex 3079.683408 79.315589 -2181.614090
   vertex 3090.000000 80.000000 -2180.000000
   vertex 2832.483408 79.315589 -601.614090
  endloop
 endfacet
endsolid SII_LH2_feed_1_drop
