solid SII_LOX_feed_4_Hrun
 facet normal 0.863288 -0.500457 0.065403
  outer loop
   vertex 1542.331472 2481.071065 -120.000000
   vertex 1541.665347 2481.457225 -108.252643
   vertex 1499.567995 2408.839293 -108.252643
  endloop
 endfacet
 facet normal 0.863288 -0.500457 0.065403
  outer loop
   vertex 1542.331472 2481.071065 -120.000000
   vertex 1499.567995 2408.839293 -108.252643
   vertex 1500.234121 2408.453134 -120.000000
  endloop
 endfacet
 facet normal 0.848517 -0.491894 0.195090
  outer loop
   vertex 1541.665347 2481.457225 -108.252643
   vertex 1539.678368 2482.609096 -96.706286
   vertex 1497.581017 2409.991165 -96.706286
  endloop
 endfacet
 facet normal 0.848517 -0.491894 0.195090
  outer loop
   vertex 1541.665347 2481.457225 -108.252643
   vertex 1497.581017 2409.991165 -96.706286
   vertex 1499.567995 2408.839293 -108.252643
  endloop
 endfacet
 facet normal 0.819227 -0.474914 0.321439
  outer loop
   vertex 1539.678368 2482.609096 -96.706286
   vertex 1536.404535 2484.506971 -85.558491
   vertex 1494.307183 2411.889040 -85.558491
  endloop
 endfacet
 facet normal 0.819227 -0.474914 0.321439
  outer loop
   vertex 1539.678368 2482.609096 -96.706286
   vertex 1494.307183 2411.889040 -85.558491
   vertex 1497.581017 2409.991165 -96.706286
  endloop
 endfacet
 facet normal 0.775920 -0.449809 0.442289
  outer loop
   vertex 1536.404535 2484.506971 -85.558491
   vertex 1531.899862 2487.118375 -75.000000
   vertex 1489.802510 2414.500444 -75.000000
  endloop
 endfacet
 facet normal 0.775920 -0.449809 0.442289
  outer loop
   vertex 1536.404535 2484.506971 -85.558491
   vertex 1489.802510 2414.500444 -75.000000
   vertex 1494.307183 2411.889040 -85.558491
  endloop
 endfacet
 facet normal 0.719338 -0.417007 0.555570
  outer loop
   vertex 1531.899862 2487.118375 -75.000000
   vertex 1526.241426 2490.398628 -65.211471
   vertex 1484.144074 2417.780697 -65.211471
  endloop
 endfacet
 facet normal 0.719338 -0.417007 0.555570
  outer loop
   vertex 1531.899862 2487.118375 -75.000000
   vertex 1484.144074 2417.780697 -65.211471
   vertex 1489.802510 2414.500444 -75.000000
  endloop
 endfacet
 facet normal 0.650447 -0.377071 0.659346
  outer loop
   vertex 1526.241426 2490.398628 -65.211471
   vertex 1519.526045 2494.291603 -56.360390
   vertex 1477.428693 2421.673671 -56.360390
  endloop
 endfacet
 facet normal 0.650447 -0.377071 0.659346
  outer loop
   vertex 1526.241426 2490.398628 -65.211471
   vertex 1477.428693 2421.673671 -56.360390
   vertex 1484.144074 2417.780697 -65.211471
  endloop
 endfacet
 facet normal 0.570426 -0.330682 0.751840
  outer loop
   vertex 1519.526045 2494.291603 -56.360390
   vertex 1511.868620 2498.730690 -48.598199
   vertex 1469.771268 2426.112758 -48.598199
  endloop
 endfacet
 facet normal 0.570426 -0.330682 0.751840
  outer loop
   vertex 1519.526045 2494.291603 -56.360390
   vertex 1469.771268 2426.112758 -48.598199
   vertex 1477.428693 2421.673671 -56.360390
  endloop
 endfacet
 facet normal 0.480646 -0.278635 0.831470
  outer loop
   vertex 1511.868620 2498.730690 -48.598199
   vertex 1503.400172 2503.639935 -42.057714
   vertex 1461.302821 2431.022003 -42.057714
  endloop
 endfacet
 facet normal 0.480646 -0.278635 0.831470
  outer loop
   vertex 1511.868620 2498.730690 -48.598199
   vertex 1461.302821 2431.022003 -42.057714
   vertex 1469.771268 2426.112758 -48.598199
  endloop
 endfacet
 facet normal 0.382642 -0.221821 0.896873
  outer loop
   vertex 1503.400172 2503.639935 -42.057714
   vertex 1494.265599 2508.935339 -36.850842
   vertex 1452.168248 2436.317408 -36.850842
  endloop
 endfacet
 facet normal 0.382642 -0.221821 0.896873
  outer loop
   vertex 1503.400172 2503.639935 -42.057714
   vertex 1452.168248 2436.317408 -36.850842
   vertex 1461.302821 2431.022003 -42.057714
  endloop
 endfacet
 facet normal 0.278090 -0.161212 0.946930
  outer loop
   vertex 1494.265599 2508.935339 -36.850842
   vertex 1484.621196 2514.526298 -33.066676
   vertex 1442.523844 2441.908366 -33.066676
  endloop
 endfacet
 facet normal 0.278090 -0.161212 0.946930
  outer loop
   vertex 1494.265599 2508.935339 -36.850842
   vertex 1442.523844 2441.908366 -33.066676
   vertex 1452.168248 2436.317408 -36.850842
  endloop
 endfacet
 facet normal 0.168780 -0.097844 0.980785
  outer loop
   vertex 1484.621196 2514.526298 -33.066676
   vertex 1474.631981 2520.317147 -30.769962
   vertex 1432.534629 2447.699216 -30.769962
  endloop
 endfacet
 facet normal 0.168780 -0.097844 0.980785
  outer loop
   vertex 1484.621196 2514.526298 -33.066676
   vertex 1432.534629 2447.699216 -30.769962
   vertex 1442.523844 2441.908366 -33.066676
  endloop
 endfacet
 facet normal 0.056583 -0.032802 0.997859
  outer loop
   vertex 1474.631981 2520.317147 -30.769962
   vertex 1464.468872 2526.208804 -30.000000
   vertex 1422.371521 2453.590873 -30.000000
  endloop
 endfacet
 facet normal 0.056583 -0.032802 0.997859
  outer loop
   vertex 1474.631981 2520.317147 -30.769962
   vertex 1422.371521 2453.590873 -30.000000
   vertex 1432.534629 2447.699216 -30.769962
  endloop
 endfacet
 facet normal -0.056583 0.032802 0.997859
  outer loop
   vertex 1464.468872 2526.208804 -30.000000
   vertex 1454.305763 2532.100462 -30.769962
   vertex 1412.208412 2459.482530 -30.769962
  endloop
 endfacet
 facet normal -0.056583 0.032802 0.997859
  outer loop
   vertex 1464.468872 2526.208804 -30.000000
   vertex 1412.208412 2459.482530 -30.769962
   vertex 1422.371521 2453.590873 -30.000000
  endloop
 endfacet
 facet normal -0.168780 0.097844 0.980785
  outer loop
   vertex 1454.305763 2532.100462 -30.769962
   vertex 1444.316548 2537.891311 -33.066676
   vertex 1402.219197 2465.273379 -33.066676
  endloop
 endfacet
 facet normal -0.168780 0.097844 0.980785
  outer loop
   vertex 1454.305763 2532.100462 -30.769962
   vertex 1402.219197 2465.273379 -33.066676
   vertex 1412.208412 2459.482530 -30.769962
  endloop
 endfacet
 facet normal -0.278090 0.161212 0.946930
  outer loop
   vertex 1444.316548 2537.891311 -33.066676
   vertex 1434.672145 2543.482269 -36.850842
   vertex 1392.574793 2470.864338 -36.850842
  endloop
 endfacet
 facet normal -0.278090 0.161212 0.946930
  outer loop
   vertex 1444.316548 2537.891311 -33.066676
   vertex 1392.574793 2470.864338 -36.850842
   vertex 1402.219197 2465.273379 -33.066676
  endloop
 endfacet
 facet normal -0.382642 0.221821 0.896873
  outer loop
   vertex 1434.672145 2543.482269 -36.850842
   vertex 1425.537572 2548.777674 -42.057714
   vertex 1383.440220 2476.159743 -42.057714
  endloop
 endfacet
 facet normal -0.382642 0.221821 0.896873
  outer loop
   vertex 1434.672145 2543.482269 -36.850842
   vertex 1383.440220 2476.159743 -42.057714
   vertex 1392.574793 2470.864338 -36.850842
  endloop
 endfacet
 facet normal -0.480646 0.278635 0.831470
  outer loop
   vertex 1425.537572 2548.777674 -42.057714
   vertex 1417.069124 2553.686919 -48.598199
   vertex 1374.971773 2481.068988 -48.598199
  endloop
 endfacet
 facet normal -0.480646 0.278635 0.831470
  outer loop
   vertex 1425.537572 2548.777674 -42.057714
   vertex 1374.971773 2481.068988 -48.598199
   vertex 1383.440220 2476.159743 -42.057714
  endloop
 endfacet
 facet normal -0.570426 0.330682 0.751840
  outer loop
   vertex 1417.069124 2553.686919 -48.598199
   vertex 1409.411699 2558.126006 -56.360390
   vertex 1367.314348 2485.508074 -56.360390
  endloop
 endfacet
 facet normal -0.570426 0.330682 0.751840
  outer loop
   vertex 1417.069124 2553.686919 -48.598199
   vertex 1367.314348 2485.508074 -56.360390
   vertex 1374.971773 2481.068988 -48.598199
  endloop
 endfacet
 facet normal -0.650447 0.377071 0.659346
  outer loop
   vertex 1409.411699 2558.126006 -56.360390
   vertex 1402.696318 2562.018980 -65.211471
   vertex 1360.598967 2489.401049 -65.211471
  endloop
 endfacet
 facet normal -0.650447 0.377071 0.659346
  outer loop
   vertex 1409.411699 2558.126006 -56.360390
   vertex 1360.598967 2489.401049 -65.211471
   vertex 1367.314348 2485.508074 -56.360390
  endloop
 endfacet
 facet normal -0.719338 0.417007 0.555570
  outer loop
   vertex 1402.696318 2562.018980 -65.211471
   vertex 1397.037882 2565.299233 -75.000000
   vertex 1354.940531 2492.681302 -75.000000
  endloop
 endfacet
 facet normal -0.719338 0.417007 0.555570
  outer loop
   vertex 1402.696318 2562.018980 -65.211471
   vertex 1354.940531 2492.681302 -75.000000
   vertex 1360.598967 2489.401049 -65.211471
  endloop
 endfacet
 facet normal -0.775920 0.449809 0.442289
  outer loop
   vertex 1397.037882 2565.299233 -75.000000
   vertex 1392.533209 2567.910638 -85.558491
   vertex 1350.435858 2495.292706 -85.558491
  endloop
 endfacet
 facet normal -0.775920 0.449809 0.442289
  outer loop
   vertex 1397.037882 2565.299233 -75.000000
   vertex 1350.435858 2495.292706 -85.558491
   vertex 1354.940531 2492.681302 -75.000000
  endloop
 endfacet
 facet normal -0.819227 0.474914 0.321439
  outer loop
   vertex 1392.533209 2567.910638 -85.558491
   vertex 1389.259376 2569.808512 -96.706286
   vertex 1347.162024 2497.190581 -96.706286
  endloop
 endfacet
 facet normal -0.819227 0.474914 0.321439
  outer loop
   vertex 1392.533209 2567.910638 -85.558491
   vertex 1347.162024 2497.190581 -96.706286
   vertex 1350.435858 2495.292706 -85.558491
  endloop
 endfacet
 facet normal -0.848517 0.491894 0.195090
  outer loop
   vertex 1389.259376 2569.808512 -96.706286
   vertex 1387.272397 2570.960384 -108.252643
   vertex 1345.175046 2498.342453 -108.252643
  endloop
 endfacet
 facet normal -0.848517 0.491894 0.195090
  outer loop
   vertex 1389.259376 2569.808512 -96.706286
   vertex 1345.175046 2498.342453 -108.252643
   vertex 1347.162024 2497.190581 -96.706286
  endloop
 endfacet
 facet normal -0.863288 0.500457 0.065403
  outer loop
   vertex 1387.272397 2570.960384 -108.252643
   vertex 1386.606272 2571.346543 -120.000000
   vertex 1344.508920 2498.728612 -120.000000
  endloop
 endfacet
 facet normal -0.863288 0.500457 0.065403
  outer loop
   vertex 1387.272397 2570.960384 -108.252643
   vertex 1344.508920 2498.728612 -120.000000
   vertex 1345.175046 2498.342453 -108.252643
  endloop
 endfacet
 facet normal -0.863288 0.500457 -0.065403
  outer loop
   vertex 1386.606272 2571.346543 -120.000000
   vertex 1387.272397 2570.960384 -131.747357
   vertex 1345.175046 2498.342453 -131.747357
  endloop
 endfacet
 facet normal -0.863288 0.500457 -0.065403
  outer loop
   vertex 1386.606272 2571.346543 -120.000000
   vertex 1345.175046 2498.342453 -131.747357
   vertex 1344.508920 2498.728612 -120.000000
  endloop
 endfacet
 facet normal -0.848517 0.491894 -0.195090
  outer loop
   vertex 1387.272397 2570.960384 -131.747357
   vertex 1389.259376 2569.808512 -143.293714
   vertex 1347.162024 2497.190581 -143.293714
  endloop
 endfacet
 facet normal -0.848517 0.491894 -0.195090
  outer loop
   vertex 1387.272397 2570.960384 -131.747357
   vertex 1347.162024 2497.190581 -143.293714
   vertex 1345.175046 2498.342453 -131.747357
  endloop
 endfacet
 facet normal -0.819227 0.474914 -0.321439
  outer loop
   vertex 1389.259376 2569.808512 -143.293714
   vertex 1392.533209 2567.910638 -154.441509
   vertex 1350.435858 2495.292706 -154.441509
  endloop
 endfacet
 facet normal -0.819227 0.474914 -0.321439
  outer loop
   vertex 1389.259376 2569.808512 -143.293714
   vertex 1350.435858 2495.292706 -154.441509
   vertex 1347.162024 2497.190581 -143.293714
  endloop
 endfacet
 facet normal -0.775920 0.449809 -0.442289
  outer loop
   vertex 1392.533209 2567.910638 -154.441509
   vertex 1397.037882 2565.299233 -165.000000
   vertex 1354.940531 2492.681302 -165.000000
  endloop
 endfacet
 facet normal -0.775920 0.449809 -0.442289
  outer loop
   vertex 1392.533209 2567.910638 -154.441509
   vertex 1354.940531 2492.681302 -165.000000
   vertex 1350.435858 2495.292706 -154.441509
  endloop
 endfacet
 facet normal -0.719338 0.417007 -0.555570
  outer loop
   vertex 1397.037882 2565.299233 -165.000000
   vertex 1402.696318 2562.018980 -174.788529
   vertex 1360.598967 2489.401049 -174.788529
  endloop
 endfacet
 facet normal -0.719338 0.417007 -0.555570
  outer loop
   vertex 1397.037882 2565.299233 -165.000000
   vertex 1360.598967 2489.401049 -174.788529
   vertex 1354.940531 2492.681302 -165.000000
  endloop
 endfacet
 facet normal -0.650447 0.377071 -0.659346
  outer loop
   vertex 1402.696318 2562.018980 -174.788529
   vertex 1409.411699 2558.126006 -183.639610
   vertex 1367.314348 2485.508074 -183.639610
  endloop
 endfacet
 facet normal -0.650447 0.377071 -0.659346
  outer loop
   vertex 1402.696318 2562.018980 -174.788529
   vertex 1367.314348 2485.508074 -183.639610
   vertex 1360.598967 2489.401049 -174.788529
  endloop
 endfacet
 facet normal -0.570426 0.330682 -0.751840
  outer loop
   vertex 1409.411699 2558.126006 -183.639610
   vertex 1417.069124 2553.686919 -191.401801
   vertex 1374.971773 2481.068988 -191.401801
  endloop
 endfacet
 facet normal -0.570426 0.330682 -0.751840
  outer loop
   vertex 1409.411699 2558.126006 -183.639610
   vertex 1374.971773 2481.068988 -191.401801
   vertex 1367.314348 2485.508074 -183.639610
  endloop
 endfacet
 facet normal -0.480646 0.278635 -0.831470
  outer loop
   vertex 1417.069124 2553.686919 -191.401801
   vertex 1425.537572 2548.777674 -197.942286
   vertex 1383.440220 2476.159743 -197.942286
  endloop
 endfacet
 facet normal -0.480646 0.278635 -0.831470
  outer loop
   vertex 1417.069124 2553.686919 -191.401801
   vertex 1383.440220 2476.159743 -197.942286
   vertex 1374.971773 2481.068988 -191.401801
  endloop
 endfacet
 facet normal -0.382642 0.221821 -0.896873
  outer loop
   vertex 1425.537572 2548.777674 -197.942286
   vertex 1434.672145 2543.482269 -203.149158
   vertex 1392.574793 2470.864338 -203.149158
  endloop
 endfacet
 facet normal -0.382642 0.221821 -0.896873
  outer loop
   vertex 1425.537572 2548.777674 -197.942286
   vertex 1392.574793 2470.864338 -203.149158
   vertex 1383.440220 2476.159743 -197.942286
  endloop
 endfacet
 facet normal -0.278090 0.161212 -0.946930
  outer loop
   vertex 1434.672145 2543.482269 -203.149158
   vertex 1444.316548 2537.891311 -206.933324
   vertex 1402.219197 2465.273379 -206.933324
  endloop
 endfacet
 facet normal -0.278090 0.161212 -0.946930
  outer loop
   vertex 1434.672145 2543.482269 -203.149158
   vertex 1402.219197 2465.273379 -206.933324
   vertex 1392.574793 2470.864338 -203.149158
  endloop
 endfacet
 facet normal -0.168780 0.097844 -0.980785
  outer loop
   vertex 1444.316548 2537.891311 -206.933324
   vertex 1454.305763 2532.100462 -209.230038
   vertex 1412.208412 2459.482530 -209.230038
  endloop
 endfacet
 facet normal -0.168780 0.097844 -0.980785
  outer loop
   vertex 1444.316548 2537.891311 -206.933324
   vertex 1412.208412 2459.482530 -209.230038
   vertex 1402.219197 2465.273379 -206.933324
  endloop
 endfacet
 facet normal -0.056583 0.032802 -0.997859
  outer loop
   vertex 1454.305763 2532.100462 -209.230038
   vertex 1464.468872 2526.208804 -210.000000
   vertex 1422.371521 2453.590873 -210.000000
  endloop
 endfacet
 facet normal -0.056583 0.032802 -0.997859
  outer loop
   vertex 1454.305763 2532.100462 -209.230038
   vertex 1422.371521 2453.590873 -210.000000
   vertex 1412.208412 2459.482530 -209.230038
  endloop
 endfacet
 facet normal 0.056583 -0.032802 -0.997859
  outer loop
   vertex 1464.468872 2526.208804 -210.000000
   vertex 1474.631981 2520.317147 -209.230038
   vertex 1432.534629 2447.699216 -209.230038
  endloop
 endfacet
 facet normal 0.056583 -0.032802 -0.997859
  outer loop
   vertex 1464.468872 2526.208804 -210.000000
   vertex 1432.534629 2447.699216 -209.230038
   vertex 1422.371521 2453.590873 -210.000000
  endloop
 endfacet
 facet normal 0.168780 -0.097844 -0.980785
  outer loop
   vertex 1474.631981 2520.317147 -209.230038
   vertex 1484.621196 2514.526298 -206.933324
   vertex 1442.523844 2441.908366 -206.933324
  endloop
 endfacet
 facet normal 0.168780 -0.097844 -0.980785
  outer loop
   vertex 1474.631981 2520.317147 -209.230038
   vertex 1442.523844 2441.908366 -206.933324
   vertex 1432.534629 2447.699216 -209.230038
  endloop
 endfacet
 facet normal 0.278090 -0.161212 -0.946930
  outer loop
   vertex 1484.621196 2514.526298 -206.933324
   vertex 1494.265599 2508.935339 -203.149158
   vertex 1452.168248 2436.317408 -203.149158
  endloop
 endfacet
 facet normal 0.278090 -0.161212 -0.946930
  outer loop
   vertex 1484.621196 2514.526298 -206.933324
   vertex 1452.168248 2436.317408 -203.149158
   vertex 1442.523844 2441.908366 -206.933324
  endloop
 endfacet
 facet normal 0.382642 -0.221821 -0.896873
  outer loop
   vertex 1494.265599 2508.935339 -203.149158
   vertex 1503.400172 2503.639935 -197.942286
   vertex 1461.302821 2431.022003 -197.942286
  endloop
 endfacet
 facet normal 0.382642 -0.221821 -0.896873
  outer loop
   vertex 1494.265599 2508.935339 -203.149158
   vertex 1461.302821 2431.022003 -197.942286
   vertex 1452.168248 2436.317408 -203.149158
  endloop
 endfacet
 facet normal 0.480646 -0.278635 -0.831470
  outer loop
   vertex 1503.400172 2503.639935 -197.942286
   vertex 1511.868620 2498.730690 -191.401801
   vertex 1469.771268 2426.112758 -191.401801
  endloop
 endfacet
 facet normal 0.480646 -0.278635 -0.831470
  outer loop
   vertex 1503.400172 2503.639935 -197.942286
   vertex 1469.771268 2426.112758 -191.401801
   vertex 1461.302821 2431.022003 -197.942286
  endloop
 endfacet
 facet normal 0.570426 -0.330682 -0.751840
  outer loop
   vertex 1511.868620 2498.730690 -191.401801
   vertex 1519.526045 2494.291603 -183.639610
   vertex 1477.428693 2421.673671 -183.639610
  endloop
 endfacet
 facet normal 0.570426 -0.330682 -0.751840
  outer loop
   vertex 1511.868620 2498.730690 -191.401801
   vertex 1477.428693 2421.673671 -183.639610
   vertex 1469.771268 2426.112758 -191.401801
  endloop
 endfacet
 facet normal 0.650447 -0.377071 -0.659346
  outer loop
   vertex 1519.526045 2494.291603 -183.639610
   vertex 1526.241426 2490.398628 -174.788529
   vertex 1484.144074 2417.780697 -174.788529
  endloop
 endfacet
 facet normal 0.650447 -0.377071 -0.659346
  outer loop
   vertex 1519.526045 2494.291603 -183.639610
   vertex 1484.144074 2417.780697 -174.788529
   vertex 1477.428693 2421.673671 -183.639610
  endloop
 endfacet
 facet normal 0.719338 -0.417007 -0.555570
  outer loop
   vertex 1526.241426 2490.398628 -174.788529
   vertex 1531.899862 2487.118375 -165.000000
   vertex 1489.802510 2414.500444 -165.000000
  endloop
 endfacet
 facet normal 0.719338 -0.417007 -0.555570
  outer loop
   vertex 1526.241426 2490.398628 -174.788529
   vertex 1489.802510 2414.500444 -165.000000
   vertex 1484.144074 2417.780697 -174.788529
  endloop
 endfacet
 facet normal 0.775920 -0.449809 -0.442289
  outer loop
   vertex 1531.899862 2487.118375 -165.000000
   vertex 1536.404535 2484.506971 -154.441509
   vertex 1494.307183 2411.889040 -154.441509
  endloop
 endfacet
 facet normal 0.775920 -0.449809 -0.442289
  outer loop
   vertex 1531.899862 2487.118375 -165.000000
   vertex 1494.307183 2411.889040 -154.441509
   vertex 1489.802510 2414.500444 -165.000000
  endloop
 endfacet
 facet normal 0.819227 -0.474914 -0.321439
  outer loop
   vertex 1536.404535 2484.506971 -154.441509
   vertex 1539.678368 2482.609096 -143.293714
   vertex 1497.581017 2409.991165 -143.293714
  endloop
 endfacet
 facet normal 0.819227 -0.474914 -0.321439
  outer loop
   vertex 1536.404535 2484.506971 -154.441509
   vertex 1497.581017 2409.991165 -143.293714
   vertex 1494.307183 2411.889040 -154.441509
  endloop
 endfacet
 facet normal 0.848517 -0.491894 -0.195090
  outer loop
   vertex 1539.678368 2482.609096 -143.293714
   vertex 1541.665347 2481.457225 -131.747357
   vertex 1499.567995 2408.839293 -131.747357
  endloop
 endfacet
 facet normal 0.848517 -0.491894 -0.195090
  outer loop
   vertex 1539.678368 2482.609096 -143.293714
   vertex 1499.567995 2408.839293 -131.747357
   vertex 1497.581017 2409.991165 -143.293714
  endloop
 endfacet
 facet normal 0.863288 -0.500457 -0.065403
  outer loop
   vertex 1541.665347 2481.457225 -131.747357
   vertex 1542.331472 2481.071065 -120.000000
   vertex 1500.234121 2408.453134 -120.000000
  endloop
 endfacet
 facet normal 0.863288 -0.500457 -0.065403
  outer loop
   vertex 1541.665347 2481.457225 -131.747357
   vertex 1500.234121 2408.453134 -120.000000
   vertex 1499.567995 2408.839293 -131.747357
  endloop
 endfacet
 facet normal -0.863288 0.500457 -0.065403
  outer loop
   vertex 1490.990609 2413.811691 -109.557905
   vertex 1533.087961 2486.429622 -109.557905
   vertex 1533.680072 2486.086369 -120.000000
  endloop
 endfacet
 facet normal -0.863288 0.500457 -0.065403
  outer loop
   vertex 1491.582721 2413.468438 -120.000000
   vertex 1490.990609 2413.811691 -109.557905
   vertex 1533.680072 2486.086369 -120.000000
  endloop
 endfacet
 facet normal -0.848517 0.491894 -0.195090
  outer loop
   vertex 1489.224406 2414.835577 -99.294476
   vertex 1531.321758 2487.453508 -99.294476
   vertex 1533.087961 2486.429622 -109.557905
  endloop
 endfacet
 facet normal -0.848517 0.491894 -0.195090
  outer loop
   vertex 1490.990609 2413.811691 -109.557905
   vertex 1489.224406 2414.835577 -99.294476
   vertex 1533.087961 2486.429622 -109.557905
  endloop
 endfacet
 facet normal -0.819227 0.474914 -0.321439
  outer loop
   vertex 1486.314332 2416.522577 -89.385325
   vertex 1528.411683 2489.140508 -89.385325
   vertex 1531.321758 2487.453508 -99.294476
  endloop
 endfacet
 facet normal -0.819227 0.474914 -0.321439
  outer loop
   vertex 1489.224406 2414.835577 -99.294476
   vertex 1486.314332 2416.522577 -89.385325
   vertex 1531.321758 2487.453508 -99.294476
  endloop
 endfacet
 facet normal -0.775920 0.449809 -0.442289
  outer loop
   vertex 1482.310178 2418.843825 -80.000000
   vertex 1524.407530 2491.461756 -80.000000
   vertex 1528.411683 2489.140508 -89.385325
  endloop
 endfacet
 facet normal -0.775920 0.449809 -0.442289
  outer loop
   vertex 1486.314332 2416.522577 -89.385325
   vertex 1482.310178 2418.843825 -80.000000
   vertex 1528.411683 2489.140508 -89.385325
  endloop
 endfacet
 facet normal -0.719338 0.417007 -0.555570
  outer loop
   vertex 1477.280457 2421.759605 -71.299086
   vertex 1519.377809 2494.377537 -71.299086
   vertex 1524.407530 2491.461756 -80.000000
  endloop
 endfacet
 facet normal -0.719338 0.417007 -0.555570
  outer loop
   vertex 1482.310178 2418.843825 -80.000000
   vertex 1477.280457 2421.759605 -71.299086
   vertex 1524.407530 2491.461756 -80.000000
  endloop
 endfacet
 facet normal -0.650447 0.377071 -0.659346
  outer loop
   vertex 1471.311229 2425.220027 -63.431458
   vertex 1513.408581 2497.837959 -63.431458
   vertex 1519.377809 2494.377537 -71.299086
  endloop
 endfacet
 facet normal -0.650447 0.377071 -0.659346
  outer loop
   vertex 1477.280457 2421.759605 -71.299086
   vertex 1471.311229 2425.220027 -63.431458
   vertex 1519.377809 2494.377537 -71.299086
  endloop
 endfacet
 facet normal -0.570426 0.330682 -0.751840
  outer loop
   vertex 1464.504630 2429.165882 -56.531733
   vertex 1506.601981 2501.783814 -56.531733
   vertex 1513.408581 2497.837959 -63.431458
  endloop
 endfacet
 facet normal -0.570426 0.330682 -0.751840
  outer loop
   vertex 1471.311229 2425.220027 -63.431458
   vertex 1464.504630 2429.165882 -56.531733
   vertex 1513.408581 2497.837959 -63.431458
  endloop
 endfacet
 facet normal -0.480646 0.278635 -0.831470
  outer loop
   vertex 1456.977121 2433.529656 -50.717968
   vertex 1499.074472 2506.147587 -50.717968
   vertex 1506.601981 2501.783814 -56.531733
  endloop
 endfacet
 facet normal -0.480646 0.278635 -0.831470
  outer loop
   vertex 1464.504630 2429.165882 -56.531733
   vertex 1456.977121 2433.529656 -50.717968
   vertex 1506.601981 2501.783814 -56.531733
  endloop
 endfacet
 facet normal -0.382642 0.221821 -0.896873
  outer loop
   vertex 1448.857500 2438.236682 -46.089637
   vertex 1490.954852 2510.854613 -46.089637
   vertex 1499.074472 2506.147587 -50.717968
  endloop
 endfacet
 facet normal -0.382642 0.221821 -0.896873
  outer loop
   vertex 1456.977121 2433.529656 -50.717968
   vertex 1448.857500 2438.236682 -46.089637
   vertex 1499.074472 2506.147587 -50.717968
  endloop
 endfacet
 facet normal -0.278090 0.161212 -0.946930
  outer loop
   vertex 1440.284697 2443.206423 -42.725934
   vertex 1482.382049 2515.824354 -42.725934
   vertex 1490.954852 2510.854613 -46.089637
  endloop
 endfacet
 facet normal -0.278090 0.161212 -0.946930
  outer loop
   vertex 1448.857500 2438.236682 -46.089637
   vertex 1440.284697 2443.206423 -42.725934
   vertex 1490.954852 2510.854613 -46.089637
  endloop
 endfacet
 facet normal -0.168780 0.097844 -0.980785
  outer loop
   vertex 1431.405395 2448.353844 -40.684411
   vertex 1473.502746 2520.971776 -40.684411
   vertex 1482.382049 2515.824354 -42.725934
  endloop
 endfacet
 facet normal -0.168780 0.097844 -0.980785
  outer loop
   vertex 1440.284697 2443.206423 -42.725934
   vertex 1431.405395 2448.353844 -40.684411
   vertex 1482.382049 2515.824354 -42.725934
  endloop
 endfacet
 facet normal -0.056583 0.032802 -0.997859
  outer loop
   vertex 1422.371521 2453.590873 -40.000000
   vertex 1464.468872 2526.208804 -40.000000
   vertex 1473.502746 2520.971776 -40.684411
  endloop
 endfacet
 facet normal -0.056583 0.032802 -0.997859
  outer loop
   vertex 1431.405395 2448.353844 -40.684411
   vertex 1422.371521 2453.590873 -40.000000
   vertex 1473.502746 2520.971776 -40.684411
  endloop
 endfacet
 facet normal 0.056583 -0.032802 -0.997859
  outer loop
   vertex 1413.337646 2458.827902 -40.684411
   vertex 1455.434998 2531.445833 -40.684411
   vertex 1464.468872 2526.208804 -40.000000
  endloop
 endfacet
 facet normal 0.056583 -0.032802 -0.997859
  outer loop
   vertex 1422.371521 2453.590873 -40.000000
   vertex 1413.337646 2458.827902 -40.684411
   vertex 1464.468872 2526.208804 -40.000000
  endloop
 endfacet
 facet normal 0.168780 -0.097844 -0.980785
  outer loop
   vertex 1404.458344 2463.975323 -42.725934
   vertex 1446.555695 2536.593255 -42.725934
   vertex 1455.434998 2531.445833 -40.684411
  endloop
 endfacet
 facet normal 0.168780 -0.097844 -0.980785
  outer loop
   vertex 1413.337646 2458.827902 -40.684411
   vertex 1404.458344 2463.975323 -42.725934
   vertex 1455.434998 2531.445833 -40.684411
  endloop
 endfacet
 facet normal 0.278090 -0.161212 -0.946930
  outer loop
   vertex 1395.885541 2468.945064 -46.089637
   vertex 1437.982892 2541.562995 -46.089637
   vertex 1446.555695 2536.593255 -42.725934
  endloop
 endfacet
 facet normal 0.278090 -0.161212 -0.946930
  outer loop
   vertex 1404.458344 2463.975323 -42.725934
   vertex 1395.885541 2468.945064 -46.089637
   vertex 1446.555695 2536.593255 -42.725934
  endloop
 endfacet
 facet normal 0.382642 -0.221821 -0.896873
  outer loop
   vertex 1387.765920 2473.652090 -50.717968
   vertex 1429.863272 2546.270022 -50.717968
   vertex 1437.982892 2541.562995 -46.089637
  endloop
 endfacet
 facet normal 0.382642 -0.221821 -0.896873
  outer loop
   vertex 1395.885541 2468.945064 -46.089637
   vertex 1387.765920 2473.652090 -50.717968
   vertex 1437.982892 2541.562995 -46.089637
  endloop
 endfacet
 facet normal 0.480646 -0.278635 -0.831470
  outer loop
   vertex 1380.238411 2478.015864 -56.531733
   vertex 1422.335763 2550.633795 -56.531733
   vertex 1429.863272 2546.270022 -50.717968
  endloop
 endfacet
 facet normal 0.480646 -0.278635 -0.831470
  outer loop
   vertex 1387.765920 2473.652090 -50.717968
   vertex 1380.238411 2478.015864 -56.531733
   vertex 1429.863272 2546.270022 -50.717968
  endloop
 endfacet
 facet normal 0.570426 -0.330682 -0.751840
  outer loop
   vertex 1373.431812 2481.961719 -63.431458
   vertex 1415.529163 2554.579650 -63.431458
   vertex 1422.335763 2550.633795 -56.531733
  endloop
 endfacet
 facet normal 0.570426 -0.330682 -0.751840
  outer loop
   vertex 1380.238411 2478.015864 -56.531733
   vertex 1373.431812 2481.961719 -63.431458
   vertex 1422.335763 2550.633795 -56.531733
  endloop
 endfacet
 facet normal 0.650447 -0.377071 -0.659346
  outer loop
   vertex 1367.462584 2485.422141 -71.299086
   vertex 1409.559935 2558.040072 -71.299086
   vertex 1415.529163 2554.579650 -63.431458
  endloop
 endfacet
 facet normal 0.650447 -0.377071 -0.659346
  outer loop
   vertex 1373.431812 2481.961719 -63.431458
   vertex 1367.462584 2485.422141 -71.299086
   vertex 1415.529163 2554.579650 -63.431458
  endloop
 endfacet
 facet normal 0.719338 -0.417007 -0.555570
  outer loop
   vertex 1362.432863 2488.337921 -80.000000
   vertex 1404.530215 2560.955852 -80.000000
   vertex 1409.559935 2558.040072 -71.299086
  endloop
 endfacet
 facet normal 0.719338 -0.417007 -0.555570
  outer loop
   vertex 1367.462584 2485.422141 -71.299086
   vertex 1362.432863 2488.337921 -80.000000
   vertex 1409.559935 2558.040072 -71.299086
  endloop
 endfacet
 facet normal 0.775920 -0.449809 -0.442289
  outer loop
   vertex 1358.428709 2490.659169 -89.385325
   vertex 1400.526061 2563.277101 -89.385325
   vertex 1404.530215 2560.955852 -80.000000
  endloop
 endfacet
 facet normal 0.775920 -0.449809 -0.442289
  outer loop
   vertex 1362.432863 2488.337921 -80.000000
   vertex 1358.428709 2490.659169 -89.385325
   vertex 1404.530215 2560.955852 -80.000000
  endloop
 endfacet
 facet normal 0.819227 -0.474914 -0.321439
  outer loop
   vertex 1355.518635 2492.346169 -99.294476
   vertex 1397.615986 2564.964100 -99.294476
   vertex 1400.526061 2563.277101 -89.385325
  endloop
 endfacet
 facet normal 0.819227 -0.474914 -0.321439
  outer loop
   vertex 1358.428709 2490.659169 -89.385325
   vertex 1355.518635 2492.346169 -99.294476
   vertex 1400.526061 2563.277101 -89.385325
  endloop
 endfacet
 facet normal 0.848517 -0.491894 -0.195090
  outer loop
   vertex 1353.752432 2493.370055 -109.557905
   vertex 1395.849783 2565.987986 -109.557905
   vertex 1397.615986 2564.964100 -99.294476
  endloop
 endfacet
 facet normal 0.848517 -0.491894 -0.195090
  outer loop
   vertex 1355.518635 2492.346169 -99.294476
   vertex 1353.752432 2493.370055 -109.557905
   vertex 1397.615986 2564.964100 -99.294476
  endloop
 endfacet
 facet normal 0.863288 -0.500457 -0.065403
  outer loop
   vertex 1353.160320 2493.713308 -120.000000
   vertex 1395.257672 2566.331239 -120.000000
   vertex 1395.849783 2565.987986 -109.557905
  endloop
 endfacet
 facet normal 0.863288 -0.500457 -0.065403
  outer loop
   vertex 1353.752432 2493.370055 -109.557905
   vertex 1353.160320 2493.713308 -120.000000
   vertex 1395.849783 2565.987986 -109.557905
  endloop
 endfacet
 facet normal 0.863288 -0.500457 0.065403
  outer loop
   vertex 1353.752432 2493.370055 -130.442095
   vertex 1395.849783 2565.987986 -130.442095
   vertex 1395.257672 2566.331239 -120.000000
  endloop
 endfacet
 facet normal 0.863288 -0.500457 0.065403
  outer loop
   vertex 1353.160320 2493.713308 -120.000000
   vertex 1353.752432 2493.370055 -130.442095
   vertex 1395.257672 2566.331239 -120.000000
  endloop
 endfacet
 facet normal 0.848517 -0.491894 0.195090
  outer loop
   vertex 1355.518635 2492.346169 -140.705524
   vertex 1397.615986 2564.964100 -140.705524
   vertex 1395.849783 2565.987986 -130.442095
  endloop
 endfacet
 facet normal 0.848517 -0.491894 0.195090
  outer loop
   vertex 1353.752432 2493.370055 -130.442095
   vertex 1355.518635 2492.346169 -140.705524
   vertex 1395.849783 2565.987986 -130.442095
  endloop
 endfacet
 facet normal 0.819227 -0.474914 0.321439
  outer loop
   vertex 1358.428709 2490.659169 -150.614675
   vertex 1400.526061 2563.277101 -150.614675
   vertex 1397.615986 2564.964100 -140.705524
  endloop
 endfacet
 facet normal 0.819227 -0.474914 0.321439
  outer loop
   vertex 1355.518635 2492.346169 -140.705524
   vertex 1358.428709 2490.659169 -150.614675
   vertex 1397.615986 2564.964100 -140.705524
  endloop
 endfacet
 facet normal 0.775920 -0.449809 0.442289
  outer loop
   vertex 1362.432863 2488.337921 -160.000000
   vertex 1404.530215 2560.955852 -160.000000
   vertex 1400.526061 2563.277101 -150.614675
  endloop
 endfacet
 facet normal 0.775920 -0.449809 0.442289
  outer loop
   vertex 1358.428709 2490.659169 -150.614675
   vertex 1362.432863 2488.337921 -160.000000
   vertex 1400.526061 2563.277101 -150.614675
  endloop
 endfacet
 facet normal 0.719338 -0.417007 0.555570
  outer loop
   vertex 1367.462584 2485.422141 -168.700914
   vertex 1409.559935 2558.040072 -168.700914
   vertex 1404.530215 2560.955852 -160.000000
  endloop
 endfacet
 facet normal 0.719338 -0.417007 0.555570
  outer loop
   vertex 1362.432863 2488.337921 -160.000000
   vertex 1367.462584 2485.422141 -168.700914
   vertex 1404.530215 2560.955852 -160.000000
  endloop
 endfacet
 facet normal 0.650447 -0.377071 0.659346
  outer loop
   vertex 1373.431812 2481.961719 -176.568542
   vertex 1415.529163 2554.579650 -176.568542
   vertex 1409.559935 2558.040072 -168.700914
  endloop
 endfacet
 facet normal 0.650447 -0.377071 0.659346
  outer loop
   vertex 1367.462584 2485.422141 -168.700914
   vertex 1373.431812 2481.961719 -176.568542
   vertex 1409.559935 2558.040072 -168.700914
  endloop
 endfacet
 facet normal 0.570426 -0.330682 0.751840
  outer loop
   vertex 1380.238411 2478.015864 -183.468267
   vertex 1422.335763 2550.633795 -183.468267
   vertex 1415.529163 2554.579650 -176.568542
  endloop
 endfacet
 facet normal 0.570426 -0.330682 0.751840
  outer loop
   vertex 1373.431812 2481.961719 -176.568542
   vertex 1380.238411 2478.015864 -183.468267
   vertex 1415.529163 2554.579650 -176.568542
  endloop
 endfacet
 facet normal 0.480646 -0.278635 0.831470
  outer loop
   vertex 1387.765920 2473.652090 -189.282032
   vertex 1429.863272 2546.270022 -189.282032
   vertex 1422.335763 2550.633795 -183.468267
  endloop
 endfacet
 facet normal 0.480646 -0.278635 0.831470
  outer loop
   vertex 1380.238411 2478.015864 -183.468267
   vertex 1387.765920 2473.652090 -189.282032
   vertex 1422.335763 2550.633795 -183.468267
  endloop
 endfacet
 facet normal 0.382642 -0.221821 0.896873
  outer loop
   vertex 1395.885541 2468.945064 -193.910363
   vertex 1437.982892 2541.562995 -193.910363
   vertex 1429.863272 2546.270022 -189.282032
  endloop
 endfacet
 facet normal 0.382642 -0.221821 0.896873
  outer loop
   vertex 1387.765920 2473.652090 -189.282032
   vertex 1395.885541 2468.945064 -193.910363
   vertex 1429.863272 2546.270022 -189.282032
  endloop
 endfacet
 facet normal 0.278090 -0.161212 0.946930
  outer loop
   vertex 1404.458344 2463.975323 -197.274066
   vertex 1446.555695 2536.593255 -197.274066
   vertex 1437.982892 2541.562995 -193.910363
  endloop
 endfacet
 facet normal 0.278090 -0.161212 0.946930
  outer loop
   vertex 1395.885541 2468.945064 -193.910363
   vertex 1404.458344 2463.975323 -197.274066
   vertex 1437.982892 2541.562995 -193.910363
  endloop
 endfacet
 facet normal 0.168780 -0.097844 0.980785
  outer loop
   vertex 1413.337646 2458.827902 -199.315589
   vertex 1455.434998 2531.445833 -199.315589
   vertex 1446.555695 2536.593255 -197.274066
  endloop
 endfacet
 facet normal 0.168780 -0.097844 0.980785
  outer loop
   vertex 1404.458344 2463.975323 -197.274066
   vertex 1413.337646 2458.827902 -199.315589
   vertex 1446.555695 2536.593255 -197.274066
  endloop
 endfacet
 facet normal 0.056583 -0.032802 0.997859
  outer loop
   vertex 1422.371521 2453.590873 -200.000000
   vertex 1464.468872 2526.208804 -200.000000
   vertex 1455.434998 2531.445833 -199.315589
  endloop
 endfacet
 facet normal 0.056583 -0.032802 0.997859
  outer loop
   vertex 1413.337646 2458.827902 -199.315589
   vertex 1422.371521 2453.590873 -200.000000
   vertex 1455.434998 2531.445833 -199.315589
  endloop
 endfacet
 facet normal -0.056583 0.032802 0.997859
  outer loop
   vertex 1431.405395 2448.353844 -199.315589
   vertex 1473.502746 2520.971776 -199.315589
   vertex 1464.468872 2526.208804 -200.000000
  endloop
 endfacet
 facet normal -0.056583 0.032802 0.997859
  outer loop
   vertex 1422.371521 2453.590873 -200.000000
   vertex 1431.405395 2448.353844 -199.315589
   vertex 1464.468872 2526.208804 -200.000000
  endloop
 endfacet
 facet normal -0.168780 0.097844 0.980785
  outer loop
   vertex 1440.284697 2443.206423 -197.274066
   vertex 1482.382049 2515.824354 -197.274066
   vertex 1473.502746 2520.971776 -199.315589
  endloop
 endfacet
 facet normal -0.168780 0.097844 0.980785
  outer loop
   vertex 1431.405395 2448.353844 -199.315589
   vertex 1440.284697 2443.206423 -197.274066
   vertex 1473.502746 2520.971776 -199.315589
  endloop
 endfacet
 facet normal -0.278090 0.161212 0.946930
  outer loop
   vertex 1448.857500 2438.236682 -193.910363
   vertex 1490.954852 2510.854613 -193.910363
   vertex 1482.382049 2515.824354 -197.274066
  endloop
 endfacet
 facet normal -0.278090 0.161212 0.946930
  outer loop
   vertex 1440.284697 2443.206423 -197.274066
   vertex 1448.857500 2438.236682 -193.910363
   vertex 1482.382049 2515.824354 -197.274066
  endloop
 endfacet
 facet normal -0.382642 0.221821 0.896873
  outer loop
   vertex 1456.977121 2433.529656 -189.282032
   vertex 1499.074472 2506.147587 -189.282032
   vertex 1490.954852 2510.854613 -193.910363
  endloop
 endfacet
 facet normal -0.382642 0.221821 0.896873
  outer loop
   vertex 1448.857500 2438.236682 -193.910363
   vertex 1456.977121 2433.529656 -189.282032
   vertex 1490.954852 2510.854613 -193.910363
  endloop
 endfacet
 facet normal -0.480646 0.278635 0.831470
  outer loop
   vertex 1464.504630 2429.165882 -183.468267
   vertex 1506.601981 2501.783814 -183.468267
   vertex 1499.074472 2506.147587 -189.282032
  endloop
 endfacet
 facet normal -0.480646 0.278635 0.831470
  outer loop
   vertex 1456.977121 2433.529656 -189.282032
   vertex 1464.504630 2429.165882 -183.468267
   vertex 1499.074472 2506.147587 -189.282032
  endloop
 endfacet
 facet normal -0.570426 0.330682 0.751840
  outer loop
   vertex 1471.311229 2425.220027 -176.568542
   vertex 1513.408581 2497.837959 -176.568542
   vertex 1506.601981 2501.783814 -183.468267
  endloop
 endfacet
 facet normal -0.570426 0.330682 0.751840
  outer loop
   vertex 1464.504630 2429.165882 -183.468267
   vertex 1471.311229 2425.220027 -176.568542
   vertex 1506.601981 2501.783814 -183.468267
  endloop
 endfacet
 facet normal -0.650447 0.377071 0.659346
  outer loop
   vertex 1477.280457 2421.759605 -168.700914
   vertex 1519.377809 2494.377537 -168.700914
   vertex 1513.408581 2497.837959 -176.568542
  endloop
 endfacet
 facet normal -0.650447 0.377071 0.659346
  outer loop
   vertex 1471.311229 2425.220027 -176.568542
   vertex 1477.280457 2421.759605 -168.700914
   vertex 1513.408581 2497.837959 -176.568542
  endloop
 endfacet
 facet normal -0.719338 0.417007 0.555570
  outer loop
   vertex 1482.310178 2418.843825 -160.000000
   vertex 1524.407530 2491.461756 -160.000000
   vertex 1519.377809 2494.377537 -168.700914
  endloop
 endfacet
 facet normal -0.719338 0.417007 0.555570
  outer loop
   vertex 1477.280457 2421.759605 -168.700914
   vertex 1482.310178 2418.843825 -160.000000
   vertex 1519.377809 2494.377537 -168.700914
  endloop
 endfacet
 facet normal -0.775920 0.449809 0.442289
  outer loop
   vertex 1486.314332 2416.522577 -150.614675
   vertex 1528.411683 2489.140508 -150.614675
   vertex 1524.407530 2491.461756 -160.000000
  endloop
 endfacet
 facet normal -0.775920 0.449809 0.442289
  outer loop
   vertex 1482.310178 2418.843825 -160.000000
   vertex 1486.314332 2416.522577 -150.614675
   vertex 1524.407530 2491.461756 -160.000000
  endloop
 endfacet
 facet normal -0.819227 0.474914 0.321439
  outer loop
   vertex 1489.224406 2414.835577 -140.705524
   vertex 1531.321758 2487.453508 -140.705524
   vertex 1528.411683 2489.140508 -150.614675
  endloop
 endfacet
 facet normal -0.819227 0.474914 0.321439
  outer loop
   vertex 1486.314332 2416.522577 -150.614675
   vertex 1489.224406 2414.835577 -140.705524
   vertex 1528.411683 2489.140508 -150.614675
  endloop
 endfacet
 facet normal -0.848517 0.491894 0.195090
  outer loop
   vertex 1490.990609 2413.811691 -130.442095
   vertex 1533.087961 2486.429622 -130.442095
   vertex 1531.321758 2487.453508 -140.705524
  endloop
 endfacet
 facet normal -0.848517 0.491894 0.195090
  outer loop
   vertex 1489.224406 2414.835577 -140.705524
   vertex 1490.990609 2413.811691 -130.442095
   vertex 1531.321758 2487.453508 -140.705524
  endloop
 endfacet
 facet normal -0.863288 0.500457 0.065403
  outer loop
   vertex 1491.582721 2413.468438 -120.000000
   vertex 1533.680072 2486.086369 -120.000000
   vertex 1533.087961 2486.429622 -130.442095
  endloop
 endfacet
 facet normal -0.863288 0.500457 0.065403
  outer loop
   vertex 1490.990609 2413.811691 -130.442095
   vertex 1491.582721 2413.468438 -120.000000
   vertex 1533.087961 2486.429622 -130.442095
  endloop
 endfacet
endsolid SII_LOX_feed_4_Hrun
