solid SII_LH2_feed_4_elbow
 facet normal 0.065403 0.997859 0.000000
  outer loop
   vertex 1422.371521 2543.590873 -180.000000
   vertex 1434.118878 2542.820910 -180.000000
   vertex 1434.118878 2542.820910 -600.000000
  endloop
 endfacet
 facet normal 0.065403 0.997859 0.000000
  outer loop
   vertex 1422.371521 2543.590873 -180.000000
   vertex 1434.118878 2542.820910 -600.000000
   vertex 1422.371521 2543.590873 -600.000000
  endloop
 endfacet
 facet normal 0.195090 0.980785 0.000000
  outer loop
   vertex 1434.118878 2542.820910 -180.000000
   vertex 1445.665235 2540.524197 -180.000000
   vertex 1445.665235 2540.524197 -600.000000
  endloop
 endfacet
 facet normal 0.195090 0.980785 0.000000
  outer loop
   vertex 1434.118878 2542.820910 -180.000000
   vertex 1445.665235 2540.524197 -600.000000
   vertex 1434.118878 2542.820910 -600.000000
  endloop
 endfacet
 facet normal 0.321439 0.946930 0.000000
  outer loop
   vertex 1445.665235 2540.524197 -180.000000
   vertex 1456.813029 2536.740031 -180.000000
   vertex 1456.813029 2536.740031 -600.000000
  endloop
 endfacet
 facet normal 0.321439 0.946930 0.000000
  outer loop
   vertex 1445.665235 2540.524197 -180.000000
   vertex 1456.813029 2536.740031 -600.000000
   vertex 1445.665235 2540.524197 -600.000000
  endloop
 endfacet
 facet normal 0.442289 0.896873 0.000000
  outer loop
   vertex 1456.813029 2536.740031 -180.000000
   vertex 1467.371521 2531.533159 -180.000000
   vertex 1467.371521 2531.533159 -600.000000
  endloop
 endfacet
 facet normal 0.442289 0.896873 0.000000
  outer loop
   vertex 1456.813029 2536.740031 -180.000000
   vertex 1467.371521 2531.533159 -600.000000
   vertex 1456.813029 2536.740031 -600.000000
  endloop
 endfacet
 facet normal 0.555570 0.831470 0.000000
  outer loop
   vertex 1467.371521 2531.533159 -180.000000
   vertex 1477.160049 2524.992674 -180.000000
   vertex 1477.160049 2524.992674 -600.000000
  endloop
 endfacet
 facet normal 0.555570 0.831470 0.000000
  outer loop
   vertex 1467.371521 2531.533159 -180.000000
   vertex 1477.160049 2524.992674 -600.000000
   vertex 1467.371521 2531.533159 -600.000000
  endloop
 endfacet
 facet normal 0.659346 0.751840 0.000000
  outer loop
   vertex 1477.160049 2524.992674 -180.000000
   vertex 1486.011131 2517.230483 -180.000000
   vertex 1486.011131 2517.230483 -600.000000
  endloop
 endfacet
 facet normal 0.659346 0.751840 0.000000
  outer loop
   vertex 1477.160049 2524.992674 -180.000000
   vertex 1486.011131 2517.230483 -600.000000
   vertex 1477.160049 2524.992674 -600.000000
  endloop
 endfacet
 facet normal 0.751840 0.659346 0.000000
  outer loop
   vertex 1486.011131 2517.230483 -180.000000
   vertex 1493.773321 2508.379402 -180.000000
   vertex 1493.773321 2508.379402 -600.000000
  endloop
 endfacet
 facet normal 0.751840 0.659346 0.000000
  outer loop
   vertex 1486.011131 2517.230483 -180.000000
   vertex 1493.773321 2508.379402 -600.000000
   vertex 1486.011131 2517.230483 -600.000000
  endloop
 endfacet
 facet normal 0.831470 0.555570 0.000000
  outer loop
   vertex 1493.773321 2508.379402 -180.000000
   vertex 1500.313807 2498.590873 -180.000000
   vertex 1500.313807 2498.590873 -600.000000
  endloop
 endfacet
 facet normal 0.831470 0.555570 0.000000
  outer loop
   vertex 1493.773321 2508.379402 -180.000000
   vertex 1500.313807 2498.590873 -600.000000
   vertex 1493.773321 2508.379402 -600.000000
  endloop
 endfacet
 facet normal 0.896873 0.442289 0.000000
  outer loop
   vertex 1500.313807 2498.590873 -180.000000
   vertex 1505.520678 2488.032382 -180.000000
   vertex 1505.520678 2488.032382 -600.000000
  endloop
 endfacet
 facet normal 0.896873 0.442289 0.000000
  outer loop
   vertex 1500.313807 2498.590873 -180.000000
   vertex 1505.520678 2488.032382 -600.000000
   vertex 1500.313807 2498.590873 -600.000000
  endloop
 endfacet
 facet normal 0.946930 0.321439 0.000000
  outer loop
   vertex 1505.520678 2488.032382 -180.000000
   vertex 1509.304845 2476.884587 -180.000000
   vertex 1509.304845 2476.884587 -600.000000
  endloop
 endfacet
 facet normal 0.946930 0.321439 0.000000
  outer loop
   vertex 1505.520678 2488.032382 -180.000000
   vertex 1509.304845 2476.884587 -600.000000
   vertex 1505.520678 2488.032382 -600.000000
  endloop
 endfacet
 facet normal 0.980785 0.195090 0.000000
  outer loop
   vertex 1509.304845 2476.884587 -180.000000
   vertex 1511.601558 2465.338230 -180.000000
   vertex 1511.601558 2465.338230 -600.000000
  endloop
 endfacet
 facet normal 0.980785 0.195090 0.000000
  outer loop
   vertex 1509.304845 2476.884587 -180.000000
   vertex 1511.601558 2465.338230 -600.000000
   vertex 1509.304845 2476.884587 -600.000000
  endloop
 endfacet
 facet normal 0.997859 0.065403 0.000000
  outer loop
   vertex 1511.601558 2465.338230 -180.000000
   vertex 1512.371521 2453.590873 -180.000000
   vertex 1512.371521 2453.590873 -600.000000
  endloop
 endfacet
 facet normal 0.997859 0.065403 0.000000
  outer loop
   vertex 1511.601558 2465.338230 -180.000000
   vertex 1512.371521 2453.590873 -600.000000
   vertex 1511.601558 2465.338230 -600.000000
  endloop
 endfacet
 facet normal 0.997859 -0.065403 0.000000
  outer loop
   vertex 1512.371521 2453.590873 -180.000000
   vertex 1511.601558 2441.843516 -180.000000
   vertex 1511.601558 2441.843516 -600.000000
  endloop
 endfacet
 facet normal 0.997859 -0.065403 0.000000
  outer loop
   vertex 1512.371521 2453.590873 -180.000000
   vertex 1511.601558 2441.843516 -600.000000
   vertex 1512.371521 2453.590873 -600.000000
  endloop
 endfacet
 facet normal 0.980785 -0.195090 0.000000
  outer loop
   vertex 1511.601558 2441.843516 -180.000000
   vertex 1509.304845 2430.297159 -180.000000
   vertex 1509.304845 2430.297159 -600.000000
  endloop
 endfacet
 facet normal 0.980785 -0.195090 0.000000
  outer loop
   vertex 1511.601558 2441.843516 -180.000000
   vertex 1509.304845 2430.297159 -600.000000
   vertex 1511.601558 2441.843516 -600.000000
  endloop
 endfacet
 facet normal 0.946930 -0.321439 0.000000
  outer loop
   vertex 1509.304845 2430.297159 -180.000000
   vertex 1505.520678 2419.149364 -180.000000
   vertex 1505.520678 2419.149364 -600.000000
  endloop
 endfacet
 facet normal 0.946930 -0.321439 0.000000
  outer loop
   vertex 1509.304845 2430.297159 -180.000000
   vertex 1505.520678 2419.149364 -600.000000
   vertex 1509.304845 2430.297159 -600.000000
  endloop
 endfacet
 facet normal 0.896873 -0.442289 0.000000
  outer loop
   vertex 1505.520678 2419.149364 -180.000000
   vertex 1500.313807 2408.590873 -180.000000
   vertex 1500.313807 2408.590873 -600.000000
  endloop
 endfacet
 facet normal 0.896873 -0.442289 0.000000
  outer loop
   vertex 1505.520678 2419.149364 -180.000000
   vertex 1500.313807 2408.590873 -600.000000
   vertex 1505.520678 2419.149364 -600.000000
  endloop
 endfacet
 facet normal 0.831470 -0.555570 0.000000
  outer loop
   vertex 1500.313807 2408.590873 -180.000000
   vertex 1493.773321 2398.802344 -180.000000
   vertex 1493.773321 2398.802344 -600.000000
  endloop
 endfacet
 facet normal 0.831470 -0.555570 0.000000
  outer loop
   vertex 1500.313807 2408.590873 -180.000000
   vertex 1493.773321 2398.802344 -600.000000
   vertex 1500.313807 2408.590873 -600.000000
  endloop
 endfacet
 facet normal 0.751840 -0.659346 0.000000
  outer loop
   vertex 1493.773321 2398.802344 -180.000000
   vertex 1486.011131 2389.951263 -180.000000
   vertex 1486.011131 2389.951263 -600.000000
  endloop
 endfacet
 facet normal 0.751840 -0.659346 0.000000
  outer loop
   vertex 1493.773321 2398.802344 -180.000000
   vertex 1486.011131 2389.951263 -600.000000
   vertex 1493.773321 2398.802344 -600.000000
  endloop
 endfacet
 facet normal 0.659346 -0.751840 0.000000
  outer loop
   vertex 1486.011131 2389.951263 -180.000000
   vertex 1477.160049 2382.189072 -180.000000
   vertex 1477.160049 2382.189072 -600.000000
  endloop
 endfacet
 facet normal 0.659346 -0.751840 0.000000
  outer loop
   vertex 1486.011131 2389.951263 -180.000000
   vertex 1477.160049 2382.189072 -600.000000
   vertex 1486.011131 2389.951263 -600.000000
  endloop
 endfacet
 facet normal 0.555570 -0.831470 0.000000
  outer loop
   vertex 1477.160049 2382.189072 -180.000000
   vertex 1467.371521 2375.648587 -180.000000
   vertex 1467.371521 2375.648587 -600.000000
  endloop
 endfacet
 facet normal 0.555570 -0.831470 0.000000
  outer loop
   vertex 1477.160049 2382.189072 -180.000000
   vertex 1467.371521 2375.648587 -600.000000
   vertex 1477.160049 2382.189072 -600.000000
  endloop
 endfacet
 facet normal 0.442289 -0.896873 0.000000
  outer loop
   vertex 1467.371521 2375.648587 -180.000000
   vertex 1456.813029 2370.441715 -180.000000
   vertex 1456.813029 2370.441715 -600.000000
  endloop
 endfacet
 facet normal 0.442289 -0.896873 0.000000
  outer loop
   vertex 1467.371521 2375.648587 -180.000000
   vertex 1456.813029 2370.441715 -600.000000
   vertex 1467.371521 2375.648587 -600.000000
  endloop
 endfacet
 facet normal 0.321439 -0.946930 0.000000
  outer loop
   vertex 1456.813029 2370.441715 -180.000000
   vertex 1445.665235 2366.657549 -180.000000
   vertex 1445.665235 2366.657549 -600.000000
  endloop
 endfacet
 facet normal 0.321439 -0.946930 0.000000
  outer loop
   vertex 1456.813029 2370.441715 -180.000000
   vertex 1445.665235 2366.657549 -600.000000
   vertex 1456.813029 2370.441715 -600.000000
  endloop
 endfacet
 facet normal 0.195090 -0.980785 0.000000
  outer loop
   vertex 1445.665235 2366.657549 -180.000000
   vertex 1434.118878 2364.360835 -180.000000
   vertex 1434.118878 2364.360835 -600.000000
  endloop
 endfacet
 facet normal 0.195090 -0.980785 0.000000
  outer loop
   vertex 1445.665235 2366.657549 -180.000000
   vertex 1434.118878 2364.360835 -600.000000
   vertex 1445.665235 2366.657549 -600.000000
  endloop
 endfacet
 facet normal 0.065403 -0.997859 0.000000
  outer loop
   vertex 1434.118878 2364.360835 -180.000000
   vertex 1422.371521 2363.590873 -180.000000
   vertex 1422.371521 2363.590873 -600.000000
  endloop
 endfacet
 facet normal 0.065403 -0.997859 0.000000
  outer loop
   vertex 1434.118878 2364.360835 -180.000000
   vertex 1422.371521 2363.590873 -600.000000
   vertex 1434.118878 2364.360835 -600.000000
  endloop
 endfacet
 facet normal -0.065403 -0.997859 0.000000
  outer loop
   vertex 1422.371521 2363.590873 -180.000000
   vertex 1410.624163 2364.360835 -180.000000
   vertex 1410.624163 2364.360835 -600.000000
  endloop
 endfacet
 facet normal -0.065403 -0.997859 -0.000000
  outer loop
   vertex 1422.371521 2363.590873 -180.000000
   vertex 1410.624163 2364.360835 -600.000000
   vertex 1422.371521 2363.590873 -600.000000
  endloop
 endfacet
 facet normal -0.195090 -0.980785 0.000000
  outer loop
   vertex 1410.624163 2364.360835 -180.000000
   vertex 1399.077806 2366.657549 -180.000000
   vertex 1399.077806 2366.657549 -600.000000
  endloop
 endfacet
 facet normal -0.195090 -0.980785 -0.000000
  outer loop
   vertex 1410.624163 2364.360835 -180.000000
   vertex 1399.077806 2366.657549 -600.000000
   vertex 1410.624163 2364.360835 -600.000000
  endloop
 endfacet
 facet normal -0.321439 -0.946930 0.000000
  outer loop
   vertex 1399.077806 2366.657549 -180.000000
   vertex 1387.930012 2370.441715 -180.000000
   vertex 1387.930012 2370.441715 -600.000000
  endloop
 endfacet
 facet normal -0.321439 -0.946930 -0.000000
  outer loop
   vertex 1399.077806 2366.657549 -180.000000
   vertex 1387.930012 2370.441715 -600.000000
   vertex 1399.077806 2366.657549 -600.000000
  endloop
 endfacet
 facet normal -0.442289 -0.896873 0.000000
  outer loop
   vertex 1387.930012 2370.441715 -180.000000
   vertex 1377.371521 2375.648587 -180.000000
   vertex 1377.371521 2375.648587 -600.000000
  endloop
 endfacet
 facet normal -0.442289 -0.896873 -0.000000
  outer loop
   vertex 1387.930012 2370.441715 -180.000000
   vertex 1377.371521 2375.648587 -600.000000
   vertex 1387.930012 2370.441715 -600.000000
  endloop
 endfacet
 facet normal -0.555570 -0.831470 0.000000
  outer loop
   vertex 1377.371521 2375.648587 -180.000000
   vertex 1367.582992 2382.189072 -180.000000
   vertex 1367.582992 2382.189072 -600.000000
  endloop
 endfacet
 facet normal -0.555570 -0.831470 -0.000000
  outer loop
   vertex 1377.371521 2375.648587 -180.000000
   vertex 1367.582992 2382.189072 -600.000000
   vertex 1377.371521 2375.648587 -600.000000
  endloop
 endfacet
 facet normal -0.659346 -0.751840 0.000000
  outer loop
   vertex 1367.582992 2382.189072 -180.000000
   vertex 1358.731910 2389.951263 -180.000000
   vertex 1358.731910 2389.951263 -600.000000
  endloop
 endfacet
 facet normal -0.659346 -0.751840 -0.000000
  outer loop
   vertex 1367.582992 2382.189072 -180.000000
   vertex 1358.731910 2389.951263 -600.000000
   vertex 1367.582992 2382.189072 -600.000000
  endloop
 endfacet
 facet normal -0.751840 -0.659346 0.000000
  outer loop
   vertex 1358.731910 2389.951263 -180.000000
   vertex 1350.969720 2398.802344 -180.000000
   vertex 1350.969720 2398.802344 -600.000000
  endloop
 endfacet
 facet normal -0.751840 -0.659346 -0.000000
  outer loop
   vertex 1358.731910 2389.951263 -180.000000
   vertex 1350.969720 2398.802344 -600.000000
   vertex 1358.731910 2389.951263 -600.000000
  endloop
 endfacet
 facet normal -0.831470 -0.555570 0.000000
  outer loop
   vertex 1350.969720 2398.802344 -180.000000
   vertex 1344.429234 2408.590873 -180.000000
   vertex 1344.429234 2408.590873 -600.000000
  endloop
 endfacet
 facet normal -0.831470 -0.555570 -0.000000
  outer loop
   vertex 1350.969720 2398.802344 -180.000000
   vertex 1344.429234 2408.590873 -600.000000
   vertex 1350.969720 2398.802344 -600.000000
  endloop
 endfacet
 facet normal -0.896873 -0.442289 0.000000
  outer loop
   vertex 1344.429234 2408.590873 -180.000000
   vertex 1339.222363 2419.149364 -180.000000
   vertex 1339.222363 2419.149364 -600.000000
  endloop
 endfacet
 facet normal -0.896873 -0.442289 -0.000000
  outer loop
   vertex 1344.429234 2408.590873 -180.000000
   vertex 1339.222363 2419.149364 -600.000000
   vertex 1344.429234 2408.590873 -600.000000
  endloop
 endfacet
 facet normal -0.946930 -0.321439 0.000000
  outer loop
   vertex 1339.222363 2419.149364 -180.000000
   vertex 1335.438196 2430.297159 -180.000000
   vertex 1335.438196 2430.297159 -600.000000
  endloop
 endfacet
 facet normal -0.946930 -0.321439 -0.000000
  outer loop
   vertex 1339.222363 2419.149364 -180.000000
   vertex 1335.438196 2430.297159 -600.000000
   vertex 1339.222363 2419.149364 -600.000000
  endloop
 endfacet
 facet normal -0.980785 -0.195090 0.000000
  outer loop
   vertex 1335.438196 2430.297159 -180.000000
   vertex 1333.141483 2441.843516 -180.000000
   vertex 1333.141483 2441.843516 -600.000000
  endloop
 endfacet
 facet normal -0.980785 -0.195090 -0.000000
  outer loop
   vertex 1335.438196 2430.297159 -180.000000
   vertex 1333.141483 2441.843516 -600.000000
   vertex 1335.438196 2430.297159 -600.000000
  endloop
 endfacet
 facet normal -0.997859 -0.065403 0.000000
  outer loop
   vertex 1333.141483 2441.843516 -180.000000
   vertex 1332.371521 2453.590873 -180.000000
   vertex 1332.371521 2453.590873 -600.000000
  endloop
 endfacet
 facet normal -0.997859 -0.065403 -0.000000
  outer loop
   vertex 1333.141483 2441.843516 -180.000000
   vertex 1332.371521 2453.590873 -600.000000
   vertex 1333.141483 2441.843516 -600.000000
  endloop
 endfacet
 facet normal -0.997859 0.065403 0.000000
  outer loop
   vertex 1332.371521 2453.590873 -180.000000
   vertex 1333.141483 2465.338230 -180.000000
   vertex 1333.141483 2465.338230 -600.000000
  endloop
 endfacet
 facet normal -0.997859 0.065403 0.000000
  outer loop
   vertex 1332.371521 2453.590873 -180.000000
   vertex 1333.141483 2465.338230 -600.000000
   vertex 1332.371521 2453.590873 -600.000000
  endloop
 endfacet
 facet normal -0.980785 0.195090 0.000000
  outer loop
   vertex 1333.141483 2465.338230 -180.000000
   vertex 1335.438196 2476.884587 -180.000000
   vertex 1335.438196 2476.884587 -600.000000
  endloop
 endfacet
 facet normal -0.980785 0.195090 0.000000
  outer loop
   vertex 1333.141483 2465.338230 -180.000000
   vertex 1335.438196 2476.884587 -600.000000
   vertex 1333.141483 2465.338230 -600.000000
  endloop
 endfacet
 facet normal -0.946930 0.321439 0.000000
  outer loop
   vertex 1335.438196 2476.884587 -180.000000
   vertex 1339.222363 2488.032382 -180.000000
   vertex 1339.222363 2488.032382 -600.000000
  endloop
 endfacet
 facet normal -0.946930 0.321439 0.000000
  outer loop
   vertex 1335.438196 2476.884587 -180.000000
   vertex 1339.222363 2488.032382 -600.000000
   vertex 1335.438196 2476.884587 -600.000000
  endloop
 endfacet
 facet normal -0.896873 0.442289 0.000000
  outer loop
   vertex 1339.222363 2488.032382 -180.000000
   vertex 1344.429234 2498.590873 -180.000000
   vertex 1344.429234 2498.590873 -600.000000
  endloop
 endfacet
 facet normal -0.896873 0.442289 0.000000
  outer loop
   vertex 1339.222363 2488.032382 -180.000000
   vertex 1344.429234 2498.590873 -600.000000
   vertex 1339.222363 2488.032382 -600.000000
  endloop
 endfacet
 facet normal -0.831470 0.555570 0.000000
  outer loop
   vertex 1344.429234 2498.590873 -180.000000
   vertex 1350.969720 2508.379402 -180.000000
   vertex 1350.969720 2508.379402 -600.000000
  endloop
 endfacet
 facet normal -0.831470 0.555570 0.000000
  outer loop
   vertex 1344.429234 2498.590873 -180.000000
   vertex 1350.969720 2508.379402 -600.000000
   vertex 1344.429234 2498.590873 -600.000000
  endloop
 endfacet
 facet normal -0.751840 0.659346 0.000000
  outer loop
   vertex 1350.969720 2508.379402 -180.000000
   vertex 1358.731910 2517.230483 -180.000000
   vertex 1358.731910 2517.230483 -600.000000
  endloop
 endfacet
 facet normal -0.751840 0.659346 0.000000
  outer loop
   vertex 1350.969720 2508.379402 -180.000000
   vertex 1358.731910 2517.230483 -600.000000
   vertex 1350.969720 2508.379402 -600.000000
  endloop
 endfacet
 facet normal -0.659346 0.751840 0.000000
  outer loop
   vertex 1358.731910 2517.230483 -180.000000
   vertex 1367.582992 2524.992674 -180.000000
   vertex 1367.582992 2524.992674 -600.000000
  endloop
 endfacet
 facet normal -0.659346 0.751840 0.000000
  outer loop
   vertex 1358.731910 2517.230483 -180.000000
   vertex 1367.582992 2524.992674 -600.000000
   vertex 1358.731910 2517.230483 -600.000000
  endloop
 endfacet
 facet normal -0.555570 0.831470 0.000000
  outer loop
   vertex 1367.582992 2524.992674 -180.000000
   vertex 1377.371521 2531.533159 -180.000000
   vertex 1377.371521 2531.533159 -600.000000
  endloop
 endfacet
 facet normal -0.555570 0.831470 0.000000
  outer loop
   vertex 1367.582992 2524.992674 -180.000000
   vertex 1377.371521 2531.533159 -600.000000
   vertex 1367.582992 2524.992674 -600.000000
  endloop
 endfacet
 facet normal -0.442289 0.896873 0.000000
  outer loop
   vertex 1377.371521 2531.533159 -180.000000
   vertex 1387.930012 2536.740031 -180.000000
   vertex 1387.930012 2536.740031 -600.000000
  endloop
 endfacet
 facet normal -0.442289 0.896873 0.000000
  outer loop
   vertex 1377.371521 2531.533159 -180.000000
   vertex 1387.930012 2536.740031 -600.000000
   vertex 1377.371521 2531.533159 -600.000000
  endloop
 endfacet
 facet normal -0.321439 0.946930 0.000000
  outer loop
   vertex 1387.930012 2536.740031 -180.000000
   vertex 1399.077806 2540.524197 -180.000000
   vertex 1399.077806 2540.524197 -600.000000
  endloop
 endfacet
 facet normal -0.321439 0.946930 0.000000
  outer loop
   vertex 1387.930012 2536.740031 -180.000000
   vertex 1399.077806 2540.524197 -600.000000
   vertex 1387.930012 2536.740031 -600.000000
  endloop
 endfacet
 facet normal -0.195090 0.980785 0.000000
  outer loop
   vertex 1399.077806 2540.524197 -180.000000
   vertex 1410.624163 2542.820910 -180.000000
   vertex 1410.624163 2542.820910 -600.000000
  endloop
 endfacet
 facet normal -0.195090 0.980785 0.000000
  outer loop
   vertex 1399.077806 2540.524197 -180.000000
   vertex 1410.624163 2542.820910 -600.000000
   vertex 1399.077806 2540.524197 -600.000000
  endloop
 endfacet
 facet normal -0.065403 0.997859 0.000000
  outer loop
   vertex 1410.624163 2542.820910 -180.000000
   vertex 1422.371521 2543.590873 -180.000000
   vertex 1422.371521 2543.590873 -600.000000
  endloop
 endfacet
 facet normal -0.065403 0.997859 0.000000
  outer loop
   vertex 1410.624163 2542.820910 -180.000000
   vertex 1422.371521 2543.590873 -600.000000
   vertex 1410.624163 2542.820910 -600.000000
  endloop
 endfacet
 facet normal -0.065403 -0.997859 0.000000
  outer loop
   vertex 1432.813616 2532.906462 -600.000000
   vertex 1432.813616 2532.906462 -180.000000
   vertex 1422.371521 2533.590873 -180.000000
  endloop
 endfacet
 facet normal -0.065403 -0.997859 0.000000
  outer loop
   vertex 1422.371521 2533.590873 -600.000000
   vertex 1432.813616 2532.906462 -600.000000
   vertex 1422.371521 2533.590873 -180.000000
  endloop
 endfacet
 facet normal -0.195090 -0.980785 0.000000
  outer loop
   vertex 1443.077044 2530.864939 -600.000000
   vertex 1443.077044 2530.864939 -180.000000
   vertex 1432.813616 2532.906462 -180.000000
  endloop
 endfacet
 facet normal -0.195090 -0.980785 0.000000
  outer loop
   vertex 1432.813616 2532.906462 -600.000000
   vertex 1443.077044 2530.864939 -600.000000
   vertex 1432.813616 2532.906462 -180.000000
  endloop
 endfacet
 facet normal -0.321439 -0.946930 0.000000
  outer loop
   vertex 1452.986195 2527.501236 -600.000000
   vertex 1452.986195 2527.501236 -180.000000
   vertex 1443.077044 2530.864939 -180.000000
  endloop
 endfacet
 facet normal -0.321439 -0.946930 0.000000
  outer loop
   vertex 1443.077044 2530.864939 -600.000000
   vertex 1452.986195 2527.501236 -600.000000
   vertex 1443.077044 2530.864939 -180.000000
  endloop
 endfacet
 facet normal -0.442289 -0.896873 0.000000
  outer loop
   vertex 1462.371521 2522.872905 -600.000000
   vertex 1462.371521 2522.872905 -180.000000
   vertex 1452.986195 2527.501236 -180.000000
  endloop
 endfacet
 facet normal -0.442289 -0.896873 0.000000
  outer loop
   vertex 1452.986195 2527.501236 -600.000000
   vertex 1462.371521 2522.872905 -600.000000
   vertex 1452.986195 2527.501236 -180.000000
  endloop
 endfacet
 facet normal -0.555570 -0.831470 0.000000
  outer loop
   vertex 1471.072435 2517.059140 -600.000000
   vertex 1471.072435 2517.059140 -180.000000
   vertex 1462.371521 2522.872905 -180.000000
  endloop
 endfacet
 facet normal -0.555570 -0.831470 0.000000
  outer loop
   vertex 1462.371521 2522.872905 -600.000000
   vertex 1471.072435 2517.059140 -600.000000
   vertex 1462.371521 2522.872905 -180.000000
  endloop
 endfacet
 facet normal -0.659346 -0.751840 0.000000
  outer loop
   vertex 1478.940063 2510.159415 -600.000000
   vertex 1478.940063 2510.159415 -180.000000
   vertex 1471.072435 2517.059140 -180.000000
  endloop
 endfacet
 facet normal -0.659346 -0.751840 0.000000
  outer loop
   vertex 1471.072435 2517.059140 -600.000000
   vertex 1478.940063 2510.159415 -600.000000
   vertex 1471.072435 2517.059140 -180.000000
  endloop
 endfacet
 facet normal -0.751840 -0.659346 0.000000
  outer loop
   vertex 1485.839788 2502.291787 -600.000000
   vertex 1485.839788 2502.291787 -180.000000
   vertex 1478.940063 2510.159415 -180.000000
  endloop
 endfacet
 facet normal -0.751840 -0.659346 0.000000
  outer loop
   vertex 1478.940063 2510.159415 -600.000000
   vertex 1485.839788 2502.291787 -600.000000
   vertex 1478.940063 2510.159415 -180.000000
  endloop
 endfacet
 facet normal -0.831470 -0.555570 0.000000
  outer loop
   vertex 1491.653553 2493.590873 -600.000000
   vertex 1491.653553 2493.590873 -180.000000
   vertex 1485.839788 2502.291787 -180.000000
  endloop
 endfacet
 facet normal -0.831470 -0.555570 0.000000
  outer loop
   vertex 1485.839788 2502.291787 -600.000000
   vertex 1491.653553 2493.590873 -600.000000
   vertex 1485.839788 2502.291787 -180.000000
  endloop
 endfacet
 facet normal -0.896873 -0.442289 0.000000
  outer loop
   vertex 1496.281883 2484.205548 -600.000000
   vertex 1496.281883 2484.205548 -180.000000
   vertex 1491.653553 2493.590873 -180.000000
  endloop
 endfacet
 facet normal -0.896873 -0.442289 0.000000
  outer loop
   vertex 1491.653553 2493.590873 -600.000000
   vertex 1496.281883 2484.205548 -600.000000
   vertex 1491.653553 2493.590873 -180.000000
  endloop
 endfacet
 facet normal -0.946930 -0.321439 0.000000
  outer loop
   vertex 1499.645587 2474.296397 -600.000000
   vertex 1499.645587 2474.296397 -180.000000
   vertex 1496.281883 2484.205548 -180.000000
  endloop
 endfacet
 facet normal -0.946930 -0.321439 0.000000
  outer loop
   vertex 1496.281883 2484.205548 -600.000000
   vertex 1499.645587 2474.296397 -600.000000
   vertex 1496.281883 2484.205548 -180.000000
  endloop
 endfacet
 facet normal -0.980785 -0.195090 0.000000
  outer loop
   vertex 1501.687109 2464.032968 -600.000000
   vertex 1501.687109 2464.032968 -180.000000
   vertex 1499.645587 2474.296397 -180.000000
  endloop
 endfacet
 facet normal -0.980785 -0.195090 0.000000
  outer loop
   vertex 1499.645587 2474.296397 -600.000000
   vertex 1501.687109 2464.032968 -600.000000
   vertex 1499.645587 2474.296397 -180.000000
  endloop
 endfacet
 facet normal -0.997859 -0.065403 0.000000
  outer loop
   vertex 1502.371521 2453.590873 -600.000000
   vertex 1502.371521 2453.590873 -180.000000
   vertex 1501.687109 2464.032968 -180.000000
  endloop
 endfacet
 facet normal -0.997859 -0.065403 0.000000
  outer loop
   vertex 1501.687109 2464.032968 -600.000000
   vertex 1502.371521 2453.590873 -600.000000
   vertex 1501.687109 2464.032968 -180.000000
  endloop
 endfacet
 facet normal -0.997859 0.065403 0.000000
  outer loop
   vertex 1501.687109 2443.148778 -600.000000
   vertex 1501.687109 2443.148778 -180.000000
   vertex 1502.371521 2453.590873 -180.000000
  endloop
 endfacet
 facet normal -0.997859 0.065403 0.000000
  outer loop
   vertex 1502.371521 2453.590873 -600.000000
   vertex 1501.687109 2443.148778 -600.000000
   vertex 1502.371521 2453.590873 -180.000000
  endloop
 endfacet
 facet normal -0.980785 0.195090 0.000000
  outer loop
   vertex 1499.645587 2432.885349 -600.000000
   vertex 1499.645587 2432.885349 -180.000000
   vertex 1501.687109 2443.148778 -180.000000
  endloop
 endfacet
 facet normal -0.980785 0.195090 0.000000
  outer loop
   vertex 1501.687109 2443.148778 -600.000000
   vertex 1499.645587 2432.885349 -600.000000
   vertex 1501.687109 2443.148778 -180.000000
  endloop
 endfacet
 facet normal -0.946930 0.321439 0.000000
  outer loop
   vertex 1496.281883 2422.976198 -600.000000
   vertex 1496.281883 2422.976198 -180.000000
   vertex 1499.645587 2432.885349 -180.000000
  endloop
 endfacet
 facet normal -0.946930 0.321439 0.000000
  outer loop
   vertex 1499.645587 2432.885349 -600.000000
   vertex 1496.281883 2422.976198 -600.000000
   vertex 1499.645587 2432.885349 -180.000000
  endloop
 endfacet
 facet normal -0.896873 0.442289 0.000000
  outer loop
   vertex 1491.653553 2413.590873 -600.000000
   vertex 1491.653553 2413.590873 -180.000000
   vertex 1496.281883 2422.976198 -180.000000
  endloop
 endfacet
 facet normal -0.896873 0.442289 0.000000
  outer loop
   vertex 1496.281883 2422.976198 -600.000000
   vertex 1491.653553 2413.590873 -600.000000
   vertex 1496.281883 2422.976198 -180.000000
  endloop
 endfacet
 facet normal -0.831470 0.555570 0.000000
  outer loop
   vertex 1485.839788 2404.889959 -600.000000
   vertex 1485.839788 2404.889959 -180.000000
   vertex 1491.653553 2413.590873 -180.000000
  endloop
 endfacet
 facet normal -0.831470 0.555570 0.000000
  outer loop
   vertex 1491.653553 2413.590873 -600.000000
   vertex 1485.839788 2404.889959 -600.000000
   vertex 1491.653553 2413.590873 -180.000000
  endloop
 endfacet
 facet normal -0.751840 0.659346 0.000000
  outer loop
   vertex 1478.940063 2397.022330 -600.000000
   vertex 1478.940063 2397.022330 -180.000000
   vertex 1485.839788 2404.889959 -180.000000
  endloop
 endfacet
 facet normal -0.751840 0.659346 0.000000
  outer loop
   vertex 1485.839788 2404.889959 -600.000000
   vertex 1478.940063 2397.022330 -600.000000
   vertex 1485.839788 2404.889959 -180.000000
  endloop
 endfacet
 facet normal -0.659346 0.751840 0.000000
  outer loop
   vertex 1471.072435 2390.122606 -600.000000
   vertex 1471.072435 2390.122606 -180.000000
   vertex 1478.940063 2397.022330 -180.000000
  endloop
 endfacet
 facet normal -0.659346 0.751840 0.000000
  outer loop
   vertex 1478.940063 2397.022330 -600.000000
   vertex 1471.072435 2390.122606 -600.000000
   vertex 1478.940063 2397.022330 -180.000000
  endloop
 endfacet
 facet normal -0.555570 0.831470 0.000000
  outer loop
   vertex 1462.371521 2384.308841 -600.000000
   vertex 1462.371521 2384.308841 -180.000000
   vertex 1471.072435 2390.122606 -180.000000
  endloop
 endfacet
 facet normal -0.555570 0.831470 0.000000
  outer loop
   vertex 1471.072435 2390.122606 -600.000000
   vertex 1462.371521 2384.308841 -600.000000
   vertex 1471.072435 2390.122606 -180.000000
  endloop
 endfacet
 facet normal -0.442289 0.896873 0.000000
  outer loop
   vertex 1452.986195 2379.680510 -600.000000
   vertex 1452.986195 2379.680510 -180.000000
   vertex 1462.371521 2384.308841 -180.000000
  endloop
 endfacet
 facet normal -0.442289 0.896873 0.000000
  outer loop
   vertex 1462.371521 2384.308841 -600.000000
   vertex 1452.986195 2379.680510 -600.000000
   vertex 1462.371521 2384.308841 -180.000000
  endloop
 endfacet
 facet normal -0.321439 0.946930 0.000000
  outer loop
   vertex 1443.077044 2376.316807 -600.000000
   vertex 1443.077044 2376.316807 -180.000000
   vertex 1452.986195 2379.680510 -180.000000
  endloop
 endfacet
 facet normal -0.321439 0.946930 0.000000
  outer loop
   vertex 1452.986195 2379.680510 -600.000000
   vertex 1443.077044 2376.316807 -600.000000
   vertex 1452.986195 2379.680510 -180.000000
  endloop
 endfacet
 facet normal -0.195090 0.980785 0.000000
  outer loop
   vertex 1432.813616 2374.275284 -600.000000
   vertex 1432.813616 2374.275284 -180.000000
   vertex 1443.077044 2376.316807 -180.000000
  endloop
 endfacet
 facet normal -0.195090 0.980785 0.000000
  outer loop
   vertex 1443.077044 2376.316807 -600.000000
   vertex 1432.813616 2374.275284 -600.000000
   vertex 1443.077044 2376.316807 -180.000000
  endloop
 endfacet
 facet normal -0.065403 0.997859 0.000000
  outer loop
   vertex 1422.371521 2373.590873 -600.000000
   vertex 1422.371521 2373.590873 -180.000000
   vertex 1432.813616 2374.275284 -180.000000
  endloop
 endfacet
 facet normal -0.065403 0.997859 0.000000
  outer loop
   vertex 1432.813616 2374.275284 -600.000000
   vertex 1422.371521 2373.590873 -600.000000
   vertex 1432.813616 2374.275284 -180.000000
  endloop
 endfacet
 facet normal 0.065403 0.997859 -0.000000
  outer loop
   vertex 1411.929425 2374.275284 -600.000000
   vertex 1411.929425 2374.275284 -180.000000
   vertex 1422.371521 2373.590873 -180.000000
  endloop
 endfacet
 facet normal 0.065403 0.997859 -0.000000
  outer loop
   vertex 1422.371521 2373.590873 -600.000000
   vertex 1411.929425 2374.275284 -600.000000
   vertex 1422.371521 2373.590873 -180.000000
  endloop
 endfacet
 facet normal 0.195090 0.980785 -0.000000
  outer loop
   vertex 1401.665997 2376.316807 -600.000000
   vertex 1401.665997 2376.316807 -180.000000
   vertex 1411.929425 2374.275284 -180.000000
  endloop
 endfacet
 facet normal 0.195090 0.980785 -0.000000
  outer loop
   vertex 1411.929425 2374.275284 -600.000000
   vertex 1401.665997 2376.316807 -600.000000
   vertex 1411.929425 2374.275284 -180.000000
  endloop
 endfacet
 facet normal 0.321439 0.946930 -0.000000
  outer loop
   vertex 1391.756846 2379.680510 -600.000000
   vertex 1391.756846 2379.680510 -180.000000
   vertex 1401.665997 2376.316807 -180.000000
  endloop
 endfacet
 facet normal 0.321439 0.946930 -0.000000
  outer loop
   vertex 1401.665997 2376.316807 -600.000000
   vertex 1391.756846 2379.680510 -600.000000
   vertex 1401.665997 2376.316807 -180.000000
  endloop
 endfacet
 facet normal 0.442289 0.896873 -0.000000
  outer loop
   vertex 1382.371521 2384.308841 -600.000000
   vertex 1382.371521 2384.308841 -180.000000
   vertex 1391.756846 2379.680510 -180.000000
  endloop
 endfacet
 facet normal 0.442289 0.896873 -0.000000
  outer loop
   vertex 1391.756846 2379.680510 -600.000000
   vertex 1382.371521 2384.308841 -600.000000
   vertex 1391.756846 2379.680510 -180.000000
  endloop
 endfacet
 facet normal 0.555570 0.831470 -0.000000
  outer loop
   vertex 1373.670606 2390.122606 -600.000000
   vertex 1373.670606 2390.122606 -180.000000
   vertex 1382.371521 2384.308841 -180.000000
  endloop
 endfacet
 facet normal 0.555570 0.831470 -0.000000
  outer loop
   vertex 1382.371521 2384.308841 -600.000000
   vertex 1373.670606 2390.122606 -600.000000
   vertex 1382.371521 2384.308841 -180.000000
  endloop
 endfacet
 facet normal 0.659346 0.751840 -0.000000
  outer loop
   vertex 1365.802978 2397.022330 -600.000000
   vertex 1365.802978 2397.022330 -180.000000
   vertex 1373.670606 2390.122606 -180.000000
  endloop
 endfacet
 facet normal 0.659346 0.751840 -0.000000
  outer loop
   vertex 1373.670606 2390.122606 -600.000000
   vertex 1365.802978 2397.022330 -600.000000
   vertex 1373.670606 2390.122606 -180.000000
  endloop
 endfacet
 facet normal 0.751840 0.659346 -0.000000
  outer loop
   vertex 1358.903253 2404.889959 -600.000000
   vertex 1358.903253 2404.889959 -180.000000
   vertex 1365.802978 2397.022330 -180.000000
  endloop
 endfacet
 facet normal 0.751840 0.659346 -0.000000
  outer loop
   vertex 1365.802978 2397.022330 -600.000000
   vertex 1358.903253 2404.889959 -600.000000
   vertex 1365.802978 2397.022330 -180.000000
  endloop
 endfacet
 facet normal 0.831470 0.555570 -0.000000
  outer loop
   vertex 1353.089488 2413.590873 -600.000000
   vertex 1353.089488 2413.590873 -180.000000
   vertex 1358.903253 2404.889959 -180.000000
  endloop
 endfacet
 facet normal 0.831470 0.555570 -0.000000
  outer loop
   vertex 1358.903253 2404.889959 -600.000000
   vertex 1353.089488 2413.590873 -600.000000
   vertex 1358.903253 2404.889959 -180.000000
  endloop
 endfacet
 facet normal 0.896873 0.442289 -0.000000
  outer loop
   vertex 1348.461158 2422.976198 -600.000000
   vertex 1348.461158 2422.976198 -180.000000
   vertex 1353.089488 2413.590873 -180.000000
  endloop
 endfacet
 facet normal 0.896873 0.442289 -0.000000
  outer loop
   vertex 1353.089488 2413.590873 -600.000000
   vertex 1348.461158 2422.976198 -600.000000
   vertex 1353.089488 2413.590873 -180.000000
  endloop
 endfacet
 facet normal 0.946930 0.321439 -0.000000
  outer loop
   vertex 1345.097454 2432.885349 -600.000000
   vertex 1345.097454 2432.885349 -180.000000
   vertex 1348.461158 2422.976198 -180.000000
  endloop
 endfacet
 facet normal 0.946930 0.321439 -0.000000
  outer loop
   vertex 1348.461158 2422.976198 -600.000000
   vertex 1345.097454 2432.885349 -600.000000
   vertex 1348.461158 2422.976198 -180.000000
  endloop
 endfacet
 facet normal 0.980785 0.195090 -0.000000
  outer loop
   vertex 1343.055932 2443.148778 -600.000000
   vertex 1343.055932 2443.148778 -180.000000
   vertex 1345.097454 2432.885349 -180.000000
  endloop
 endfacet
 facet normal 0.980785 0.195090 -0.000000
  outer loop
   vertex 1345.097454 2432.885349 -600.000000
   vertex 1343.055932 2443.148778 -600.000000
   vertex 1345.097454 2432.885349 -180.000000
  endloop
 endfacet
 facet normal 0.997859 0.065403 -0.000000
  outer loop
   vertex 1342.371521 2453.590873 -600.000000
   vertex 1342.371521 2453.590873 -180.000000
   vertex 1343.055932 2443.148778 -180.000000
  endloop
 endfacet
 facet normal 0.997859 0.065403 -0.000000
  outer loop
   vertex 1343.055932 2443.148778 -600.000000
   vertex 1342.371521 2453.590873 -600.000000
   vertex 1343.055932 2443.148778 -180.000000
  endloop
 endfacet
 facet normal 0.997859 -0.065403 0.000000
  outer loop
   vertex 1343.055932 2464.032968 -600.000000
   vertex 1343.055932 2464.032968 -180.000000
   vertex 1342.371521 2453.590873 -180.000000
  endloop
 endfacet
 facet normal 0.997859 -0.065403 0.000000
  outer loop
   vertex 1342.371521 2453.590873 -600.000000
   vertex 1343.055932 2464.032968 -600.000000
   vertex 1342.371521 2453.590873 -180.000000
  endloop
 endfacet
 facet normal 0.980785 -0.195090 0.000000
  outer loop
   vertex 1345.097454 2474.296397 -600.000000
   vertex 1345.097454 2474.296397 -180.000000
   vertex 1343.055932 2464.032968 -180.000000
  endloop
 endfacet
 facet normal 0.980785 -0.195090 0.000000
  outer loop
   vertex 1343.055932 2464.032968 -600.000000
   vertex 1345.097454 2474.296397 -600.000000
   vertex 1343.055932 2464.032968 -180.000000
  endloop
 endfacet
 facet normal 0.946930 -0.321439 0.000000
  outer loop
   vertex 1348.461158 2484.205548 -600.000000
   vertex 1348.461158 2484.205548 -180.000000
   vertex 1345.097454 2474.296397 -180.000000
  endloop
 endfacet
 facet normal 0.946930 -0.321439 0.000000
  outer loop
   vertex 1345.097454 2474.296397 -600.000000
   vertex 1348.461158 2484.205548 -600.000000
   vertex 1345.097454 2474.296397 -180.000000
  endloop
 endfacet
 facet normal 0.896873 -0.442289 0.000000
  outer loop
   vertex 1353.089488 2493.590873 -600.000000
   vertex 1353.089488 2493.590873 -180.000000
   vertex 1348.461158 2484.205548 -180.000000
  endloop
 endfacet
 facet normal 0.896873 -0.442289 0.000000
  outer loop
   vertex 1348.461158 2484.205548 -600.000000
   vertex 1353.089488 2493.590873 -600.000000
   vertex 1348.461158 2484.205548 -180.000000
  endloop
 endfacet
 facet normal 0.831470 -0.555570 0.000000
  outer loop
   vertex 1358.903253 2502.291787 -600.000000
   vertex 1358.903253 2502.291787 -180.000000
   vertex 1353.089488 2493.590873 -180.000000
  endloop
 endfacet
 facet normal 0.831470 -0.555570 0.000000
  outer loop
   vertex 1353.089488 2493.590873 -600.000000
   vertex 1358.903253 2502.291787 -600.000000
   vertex 1353.089488 2493.590873 -180.000000
  endloop
 endfacet
 facet normal 0.751840 -0.659346 0.000000
  outer loop
   vertex 1365.802978 2510.159415 -600.000000
   vertex 1365.802978 2510.159415 -180.000000
   vertex 1358.903253 2502.291787 -180.000000
  endloop
 endfacet
 facet normal 0.751840 -0.659346 0.000000
  outer loop
   vertex 1358.903253 2502.291787 -600.000000
   vertex 1365.802978 2510.159415 -600.000000
   vertex 1358.903253 2502.291787 -180.000000
  endloop
 endfacet
 facet normal 0.659346 -0.751840 0.000000
  outer loop
   vertex 1373.670606 2517.059140 -600.000000
   vertex 1373.670606 2517.059140 -180.000000
   vertex 1365.802978 2510.159415 -180.000000
  endloop
 endfacet
 facet normal 0.659346 -0.751840 0.000000
  outer loop
   vertex 1365.802978 2510.159415 -600.000000
   vertex 1373.670606 2517.059140 -600.000000
   vertex 1365.802978 2510.159415 -180.000000
  endloop
 endfacet
 facet normal 0.555570 -0.831470 0.000000
  outer loop
   vertex 1382.371521 2522.872905 -600.000000
   vertex 1382.371521 2522.872905 -180.000000
   vertex 1373.670606 2517.059140 -180.000000
  endloop
 endfacet
 facet normal 0.555570 -0.831470 0.000000
  outer loop
   vertex 1373.670606 2517.059140 -600.000000
   vertex 1382.371521 2522.872905 -600.000000
   vertex 1373.670606 2517.059140 -180.000000
  endloop
 endfacet
 facet normal 0.442289 -0.896873 0.000000
  outer loop
   vertex 1391.756846 2527.501236 -600.000000
   vertex 1391.756846 2527.501236 -180.000000
   vertex 1382.371521 2522.872905 -180.000000
  endloop
 endfacet
 facet normal 0.442289 -0.896873 0.000000
  outer loop
   vertex 1382.371521 2522.872905 -600.000000
   vertex 1391.756846 2527.501236 -600.000000
   vertex 1382.371521 2522.872905 -180.000000
  endloop
 endfacet
 facet normal 0.321439 -0.946930 0.000000
  outer loop
   vertex 1401.665997 2530.864939 -600.000000
   vertex 1401.665997 2530.864939 -180.000000
   vertex 1391.756846 2527.501236 -180.000000
  endloop
 endfacet
 facet normal 0.321439 -0.946930 0.000000
  outer loop
   vertex 1391.756846 2527.501236 -600.000000
   vertex 1401.665997 2530.864939 -600.000000
   vertex 1391.756846 2527.501236 -180.000000
  endloop
 endfacet
 facet normal 0.195090 -0.980785 0.000000
  outer loop
   vertex 1411.929425 2532.906462 -600.000000
   vertex 1411.929425 2532.906462 -180.000000
   vertex 1401.665997 2530.864939 -180.000000
  endloop
 endfacet
 facet normal 0.195090 -0.980785 0.000000
  outer loop
   vertex 1401.665997 2530.864939 -600.000000
   vertex 1411.929425 2532.906462 -600.000000
   vertex 1401.665997 2530.864939 -180.000000
  endloop
 endfacet
 facet normal 0.065403 -0.997859 0.000000
  outer loop
   vertex 1422.371521 2533.590873 -600.000000
   vertex 1422.371521 2533.590873 -180.000000
   vertex 1411.929425 2532.906462 -180.000000
  endloop
 endfacet
 facet normal 0.065403 -0.997859 0.000000
  outer loop
   vertex 1411.929425 2532.906462 -600.000000
   vertex 1422.371521 2533.590873 -600.000000
   vertex 1411.929425 2532.906462 -180.000000
  endloop
 endfacet
endsolid SII_LH2_feed_4_elbow
